  0
SECTION
  2
HEADER
  9
$ANGBASE
  50
0.0
  9
$ANGDIR
  70
1
  9
$MEASUREMENT
  70
1
  0
ENDSEC
  0
SECTION
  2
TABLES
  0
TABLE
  2
LTYPE
  70
4
  0
LTYPE
  5
40F
  2
CONTINUOUS
  70
0
  3
Solid line
  72
65
  73
0
  40
0.0
  0
LTYPE
  5
410
  2
DASHDOT
 70
0
  3
Dash Dot ____ _ ____ _
 72
65
 73
4
 40
2.0
 49
1.25
 49
-0.25
 49
0.25
 49
-0.25
  0
LTYPE
  5
411
  2
DASHED
 70
0
  3
Dashed __ __ __ __ __
 72
65
 73
2
 40
0.75
 49
0.5
 49
-0.25
  0
LTYPE
  5
43B
  2
DOTTED
 70
0
  3
Dotted .  .  .  .
 72
65
 73
2
 40
0.2
 49
0.0
 49
-0.2
  0
ENDTAB
  0
TABLE
  2
STYLE
  70
4
  0
STYLE
  2
KICAD
  70
0
  40
0
  41
1
  42
1
  50
0
  71
0
  3
isocp.shx
  0
STYLE
  2
KICADB
  70
0
  40
0
  41
1
  42
1
  50
0
  71
0
  3
isocp.shx
  0
STYLE
  2
KICADI
  70
0
  40
0
  41
1
  42
1
  50
15
  71
0
  3
isocp.shx
  0
STYLE
  2
KICADBI
  70
0
  40
0
  41
1
  42
1
  50
15
  71
0
  3
isocp.shx
  0
ENDTAB
  0
TABLE
  2
LAYER
  70
1
  0
LAYER
  2
BLACK
  70
0
  62
7
  6
CONTINUOUS
  0
ENDTAB
  0
ENDSEC
  0
SECTION
  2
ENTITIES
0
LINE
8
BLACK
6
CONTINUOUS
10
103.483
20
-57.6849
11
103.483
21
-60.9829
0
LINE
8
BLACK
6
CONTINUOUS
10
156.513
20
-131.39
11
155.562
21
-136.878
0
LINE
8
BLACK
6
CONTINUOUS
10
188.226
20
-116.456
11
190.094
21
-109.524
0
ARC
8
BLACK
10
155.901
20
-131.298
40
0.618967
50
-8.46923
51
93.1965
0
LINE
8
BLACK
6
CONTINUOUS
10
87.1979
20
-81.0907
11
90.3512
21
-117.357
0
ARC
8
BLACK
10
102.403
20
-61.0254
40
1.0809
50
-91.3056
51
2.2536
0
LINE
8
BLACK
6
CONTINUOUS
10
190.969
20
-147.038
11
174.409
21
-140.993
0
ARC
8
BLACK
10
181.191
20
-60.7086
40
1.09214
50
-1.46358
51
91.4712
0
LINE
8
BLACK
6
CONTINUOUS
10
174.409
20
-140.993
11
156.121
21
-137.792
0
LINE
8
BLACK
6
CONTINUOUS
10
188.683
20
-118.133
11
198.073
21
-127.187
0
ARC
8
BLACK
10
171.031
20
-58.5361
40
1.081
50
-182.248
51
-88.6968
0
LINE
8
BLACK
6
CONTINUOUS
10
169.951
20
-58.4937
11
169.951
21
-57.6464
0
ARC
8
BLACK
10
190.049
20
-116.86
40
1.86693
50
-192.479
51
-137.01
0
LINE
8
BLACK
6
CONTINUOUS
10
89.3186
20
-80.0529
11
87.8454
21
-80.2437
0
LINE
8
BLACK
6
CONTINUOUS
10
96.7439
20
-118.413
11
98.2001
21
-135.047
0
ARC
8
BLACK
10
91.1056
20
-117.333
40
0.754795
50
-178.171
51
-82.9541
0
ARC
8
BLACK
10
104.562
20
-57.6425
40
1.07986
50
-271.362
51
-177.75
0
LINE
8
BLACK
6
CONTINUOUS
10
104.588
20
-56.5629
11
168.922
21
-56.5629
0
ARC
8
BLACK
10
95.9734
20
-118.438
40
0.770865
50
1.83005
51
97.4312
0
ARC
8
BLACK
10
168.909
20
-57.6055
40
1.04267
50
-2.25011
51
89.2864
0
ARC
8
BLACK
10
189.726
20
-109.395
40
0.390029
50
-19.1967
51
76.8182
0
LINE
8
BLACK
6
CONTINUOUS
10
91.1982
20
-118.082
11
95.8737
21
-117.673
0
LINE
8
BLACK
6
CONTINUOUS
10
192.087
20
-146.53
11
198.53
21
-128.838
0
LINE
8
BLACK
6
CONTINUOUS
10
189.815
20
-109.016
11
183.045
21
-107.211
0
ARC
8
BLACK
10
90.9962
20
-63.1571
40
1.05233
50
-267.167
51
-179.445
0
ARC
8
BLACK
10
191.306
20
-146.295
40
0.815641
50
-114.369
51
-16.7376
0
ARC
8
BLACK
10
98.979
20
-135.012
40
0.779677
50
-177.437
51
-85.4875
0
ARC
8
BLACK
10
87.9535
20
-80.9973
40
0.761347
50
-261.836
51
-172.951
0
ARC
8
BLACK
10
183.299
20
-106.226
40
1.01666
50
-181.781
51
-104.474
0
LINE
8
BLACK
6
CONTINUOUS
10
89.9439
20
-63.1673
11
89.9439
21
-79.2401
0
ARC
8
BLACK
10
196.923
20
-128.394
40
1.66787
50
-15.4227
51
46.3818
0
ARC
8
BLACK
10
156.247
20
-137.087
40
0.71657
50
-196.966
51
-100.177
0
ARC
8
BLACK
10
89.1455
20
-79.2728
40
0.799085
50
-77.4911
51
2.34042
0
LINE
8
BLACK
6
CONTINUOUS
10
99.0404
20
-135.789
11
155.867
21
-130.68
0
LINE
8
BLACK
6
CONTINUOUS
10
171.056
20
-59.6168
11
181.163
21
-59.6168
0
LINE
8
BLACK
6
CONTINUOUS
10
182.283
20
-60.7365
11
182.283
21
-106.195
0
LINE
8
BLACK
6
CONTINUOUS
10
102.379
20
-62.106
11
90.9442
21
-62.106
0
CIRCLE
8
BLACK
10
178.893
20
-63.0238
40
3.15
0
CIRCLE
8
BLACK
10
189.764
20
-142.78
40
3.15
0
CIRCLE
8
BLACK
10
93.549
20
-114.383
40
3.15
0
CIRCLE
8
BLACK
10
93.3458
20
-65.4622
40
3.15
0
CIRCLE
8
BLACK
10
166.331
20
-60.0685
40
1.1
0
CIRCLE
8
BLACK
10
161.505
20
-113.967
40
1.1
0
CIRCLE
8
BLACK
10
124.574
20
-129.715
40
1.1
0
CIRCLE
8
BLACK
10
178.066
20
-127.378
40
1.1
0
CIRCLE
8
BLACK
10
110.147
20
-113.967
40
1.1
0
CIRCLE
8
BLACK
10
107.327
20
-61.0749
40
1.1
  0
ENDSEC
  0
EOF
