  0
SECTION
  2
HEADER
  9
$ANGBASE
  50
0.0
  9
$ANGDIR
  70
1
  9
$MEASUREMENT
  70
1
  0
ENDSEC
  0
SECTION
  2
TABLES
  0
TABLE
  2
LTYPE
  70
4
  0
LTYPE
  5
40F
  2
CONTINUOUS
  70
0
  3
Solid line
  72
65
  73
0
  40
0.0
  0
LTYPE
  5
410
  2
DASHDOT
 70
0
  3
Dash Dot ____ _ ____ _
 72
65
 73
4
 40
2.0
 49
1.25
 49
-0.25
 49
0.25
 49
-0.25
  0
LTYPE
  5
411
  2
DASHED
 70
0
  3
Dashed __ __ __ __ __
 72
65
 73
2
 40
0.75
 49
0.5
 49
-0.25
  0
LTYPE
  5
43B
  2
DOTTED
 70
0
  3
Dotted .  .  .  .
 72
65
 73
2
 40
0.2
 49
0.0
 49
-0.2
  0
ENDTAB
  0
TABLE
  2
STYLE
  70
4
  0
STYLE
  2
KICAD
  70
0
  40
0
  41
1
  42
1
  50
0
  71
0
  3
isocp.shx
  0
STYLE
  2
KICADB
  70
0
  40
0
  41
1
  42
1
  50
0
  71
0
  3
isocp.shx
  0
STYLE
  2
KICADI
  70
0
  40
0
  41
1
  42
1
  50
15
  71
0
  3
isocp.shx
  0
STYLE
  2
KICADBI
  70
0
  40
0
  41
1
  42
1
  50
15
  71
0
  3
isocp.shx
  0
ENDTAB
  0
TABLE
  2
LAYER
  70
1
  0
LAYER
  2
BLACK
  70
0
  62
7
  6
CONTINUOUS
  0
ENDTAB
  0
ENDSEC
  0
SECTION
  2
ENTITIES
0
LINE
8
BLACK
6
CONTINUOUS
10
-11.7167789999999989
20
18.8983999999999988
11
5.0136379999999994
21
18.8983999999999988
0
ARC
8
BLACK
10
-8.8167999999999989
20
-12.1352999999999991
40
3.9999550000551252
50
-180.00064458
51
-89.99969919
0
LINE
8
BLACK
6
CONTINUOUS
10
-12.8167789999999986
20
-12.135254999999999
11
-12.8167789999999986
21
17.7984000000000009
0
LINE
8
BLACK
6
CONTINUOUS
10
12.8167789999999986
20
-5.1352549999999999
11
12.8167789999999986
21
12.135254999999999
0
ARC
8
BLACK
10
5.0135999999999994
20
14.8981999999999992
40
4.0002000001804907
50
54.00122376
51
89.99945572
0
LINE
8
BLACK
6
CONTINUOUS
10
-8.8167790000000004
20
-16.1352550000000008
11
1.8167789999999999
21
-16.1352550000000008
0
ARC
8
BLACK
10
1.8167799999999998
20
-5.1352599999999997
40
10.9999990000011358
50
-90.00000521
51
0.00002604
0
LINE
8
BLACK
6
CONTINUOUS
10
7.3647799999999997
20
18.1344670000000008
11
11.1679209999999998
21
15.3713219999999993
0
ARC
8
BLACK
10
-11.7167999999999992
20
17.7984000000000009
40
1.099979
50
89.99890617
51
180.00000000
0
ARC
8
BLACK
10
8.8167999999999989
20
12.1352999999999991
40
3.9999510423410185
50
-0.00064458
51
53.99984477
0
LINE
8
BLACK
6
CONTINUOUS
10
-10.4337999999999997
20
4.8279999999999994
11
-6.4509999999999996
21
4.8279999999999994
0
LINE
8
BLACK
6
CONTINUOUS
10
-6.4509999999999996
20
11.0510000000000002
11
-6.4509999999999996
21
4.8279999999999994
0
LINE
8
BLACK
6
CONTINUOUS
10
39.7429109999999994
20
-9.5076450000000001
11
39.3243719999999968
21
-15.4930289999999999
0
LINE
8
BLACK
6
CONTINUOUS
10
-10.4337999999999997
20
-7.1099999999999994
11
-10.4337999999999997
21
4.8279999999999994
0
LINE
8
BLACK
6
CONTINUOUS
10
20.7533229999999982
20
15.5464189999999984
11
17.9573599999999978
21
11.40123
0
LINE
8
BLACK
6
CONTINUOUS
10
25.866574
20
12.0974899999999987
11
27.5441520000000004
21
14.5846019999999985
0
LINE
8
BLACK
6
CONTINUOUS
10
38.0372969999999953
20
-12.3957029999999992
11
39.245514
21
4.882606
0
LINE
8
BLACK
6
CONTINUOUS
10
39.6401350000000008
20
-10.9774060000000002
11
36.6474440000000001
21
-10.7681369999999994
0
LINE
8
BLACK
6
CONTINUOUS
10
44.6958539999999971
20
-10.3552109999999988
11
44.3470719999999972
21
-15.3430289999999996
0
LINE
8
BLACK
6
CONTINUOUS
10
-9.2449999999999992
20
11.0510000000000002
11
-6.4509999999999996
21
11.0510000000000002
0
LINE
8
BLACK
6
CONTINUOUS
10
22.1025460000000002
20
8.6052669999999996
11
24.8985109999999992
21
12.7504549999999988
0
LINE
8
BLACK
6
CONTINUOUS
10
21.3068670000000004
20
15.1730489999999989
11
18.510904
21
11.0278599999999987
0
LINE
8
BLACK
6
CONTINUOUS
10
51.4591379999999958
20
12.5084900000000001
11
56.8519019999999955
21
15.1387159999999987
0
LINE
8
BLACK
6
CONTINUOUS
10
54.8130769999999998
20
12.4754139999999989
11
39.245514
21
4.882606
0
LINE
8
BLACK
6
CONTINUOUS
10
4.3439999999999994
20
-13.968
11
-1.371
21
-13.968
0
LINE
8
BLACK
6
CONTINUOUS
10
49.7166799999999967
20
17.2216470000000008
11
51.9085350000000005
21
12.7276759999999989
0
LINE
8
BLACK
6
CONTINUOUS
10
25.3130309999999987
20
12.4708609999999993
11
26.9906089999999992
21
14.9579719999999998
0
LINE
8
BLACK
6
CONTINUOUS
10
23.3240090000000002
20
7.7813809999999997
11
26.1199729999999981
21
11.9265689999999989
0
LINE
8
BLACK
6
CONTINUOUS
10
21.5602680000000007
20
15.0021309999999986
11
23.2378450000000001
21
17.4892420000000008
0
LINE
8
BLACK
6
CONTINUOUS
10
39.3243719999999968
20
-15.4930289999999999
11
36.3316820000000007
21
-15.2837610000000002
0
LINE
8
BLACK
6
CONTINUOUS
10
44.6396540000000002
20
-11.1589019999999994
11
39.6518349999999984
21
-10.8101209999999988
0
LINE
8
BLACK
6
CONTINUOUS
10
21.9747850000000007
20
14.7225329999999985
11
19.1788220000000003
21
10.5773449999999993
0
LINE
8
BLACK
6
CONTINUOUS
10
50.4407980000000009
20
17.5748229999999985
11
52.6326529999999977
21
13.0808520000000001
0
LINE
8
BLACK
6
CONTINUOUS
10
58.1670149999999992
20
12.4423349999999999
11
52.774249999999995
21
9.8121089999999995
0
LINE
8
BLACK
6
CONTINUOUS
10
39.303052000000001
20
-15.7979399999999988
11
44.2908729999999977
21
-16.1467209999999994
0
LINE
8
BLACK
6
CONTINUOUS
10
-6.1592639999999994
20
11.5733499999999996
11
-6.1592639999999994
21
16.6533499999999997
0
LINE
8
BLACK
6
CONTINUOUS
10
58.1761399999999966
20
15.7845909999999989
11
59.4912530000000004
21
13.0882089999999991
0
LINE
8
BLACK
6
CONTINUOUS
10
57.5760199999999998
20
15.4918929999999992
11
58.8911329999999964
21
12.7955119999999987
0
LINE
8
BLACK
6
CONTINUOUS
10
56.8519019999999955
20
15.1387159999999987
11
58.1670149999999992
21
12.4423349999999999
0
LINE
8
BLACK
6
CONTINUOUS
10
36.3316820000000007
20
-15.2837610000000002
11
36.7502220000000008
21
-9.2983750000000001
0
LINE
8
BLACK
6
CONTINUOUS
10
52.1832569999999976
20
12.8616649999999986
11
53.4983689999999967
21
10.1652839999999998
0
LINE
8
BLACK
6
CONTINUOUS
10
44.5930789999999959
20
-11.8249699999999986
11
39.6052579999999992
21
-11.4761879999999987
0
LINE
8
BLACK
6
CONTINUOUS
10
4.3439999999999994
20
-8.8879999999999999
11
4.3439999999999994
21
-13.968
0
LINE
8
BLACK
6
CONTINUOUS
10
39.2681729999999973
20
-16.2967230000000001
11
36.2754830000000013
21
-16.087453
0
LINE
8
BLACK
6
CONTINUOUS
10
23.3240090000000002
20
7.7813809999999997
11
19.1788220000000003
21
10.5773449999999993
0
LINE
8
BLACK
6
CONTINUOUS
10
39.7429109999999994
20
-9.5076450000000001
11
36.7502220000000008
21
-9.2983750000000001
0
LINE
8
BLACK
6
CONTINUOUS
10
26.5344929999999977
20
11.6469729999999991
11
21.5602680000000007
21
15.0021309999999986
0
LINE
8
BLACK
6
CONTINUOUS
10
39.6867109999999954
20
-10.3113390000000003
11
36.6940200000000019
21
-10.1020690000000002
0
LINE
8
BLACK
6
CONTINUOUS
10
44.6958539999999971
20
-10.3552109999999988
11
39.7080339999999978
21
-10.0064279999999997
0
LINE
8
BLACK
6
CONTINUOUS
10
26.5344929999999977
20
11.6469729999999991
11
28.2120709999999981
21
14.1340839999999996
0
LINE
8
BLACK
6
CONTINUOUS
10
49.7166799999999967
20
17.2216470000000008
11
54.2106479999999991
21
19.4135010000000001
0
LINE
8
BLACK
6
CONTINUOUS
10
39.3592519999999979
20
-14.9942479999999989
11
44.3470719999999972
21
-15.3430289999999996
0
LINE
8
BLACK
6
CONTINUOUS
10
-1.371
20
-13.968
11
-1.371
21
-8.8879999999999999
0
LINE
8
BLACK
6
CONTINUOUS
10
57.726742999999999
20
15.5654059999999994
11
55.5348849999999956
21
20.0593749999999993
0
LINE
8
BLACK
6
CONTINUOUS
10
-10.4337999999999997
20
-7.1099999999999994
11
-6.4509999999999996
21
-7.1099999999999994
0
LINE
8
BLACK
6
CONTINUOUS
10
-10.1420639999999995
20
11.5733499999999996
11
-6.1592639999999994
21
11.5733499999999996
0
LINE
8
BLACK
6
CONTINUOUS
10
51.4591379999999958
20
12.5084900000000001
11
52.774249999999995
21
9.8121089999999995
0
LINE
8
BLACK
6
CONTINUOUS
10
24.8861689999999989
20
14.5681069999999995
11
39.245514
21
4.882606
0
LINE
8
BLACK
6
CONTINUOUS
10
39.2215969999999956
20
-16.9627899999999983
11
36.2289069999999995
21
-16.7535209999999992
0
LINE
8
BLACK
6
CONTINUOUS
10
52.783375999999997
20
13.154363
11
54.0984890000000007
21
10.4579819999999994
0
LINE
8
BLACK
6
CONTINUOUS
10
20.8923479999999984
20
15.4526469999999989
11
22.5699259999999988
21
17.9397579999999977
0
LINE
8
BLACK
6
CONTINUOUS
10
23.2378450000000001
20
17.4892420000000008
11
28.2120709999999981
21
14.1340839999999996
0
LINE
8
BLACK
6
CONTINUOUS
10
56.4025049999999979
20
14.9195319999999985
11
54.2106479999999991
21
19.4135010000000001
0
LINE
8
BLACK
6
CONTINUOUS
10
22.6560889999999979
20
8.231897
11
25.4520549999999979
21
12.3770849999999992
0
LINE
8
BLACK
6
CONTINUOUS
10
39.2564769999999967
20
-16.4640079999999998
11
44.2442959999999985
21
-16.8127889999999987
0
LINE
8
BLACK
6
CONTINUOUS
10
20.3388050000000007
20
15.8260169999999984
11
22.0163829999999976
21
18.313127999999999
0
LINE
8
BLACK
6
CONTINUOUS
10
-9.2449999999999992
20
11.0510000000000002
11
-9.2449999999999992
21
4.8279999999999994
0
LINE
8
BLACK
6
CONTINUOUS
10
57.1266239999999996
20
15.272708999999999
11
54.9347649999999987
21
19.7666769999999978
0
LINE
8
BLACK
6
CONTINUOUS
10
51.0409170000000003
20
17.867521
11
53.2327729999999946
21
13.3735499999999998
0
CIRCLE
8
BLACK
10
0.
20
0.
40
17.
0
LINE
8
BLACK
6
CONTINUOUS
10
9.9581489999999988
20
0.6357149999999999
11
9.4581489999999988
21
0.6357149999999999
0
LINE
8
BLACK
6
CONTINUOUS
10
9.4581489999999988
20
0.6357149999999999
11
9.4581489999999988
21
0.826191
0
LINE
8
BLACK
6
CONTINUOUS
10
9.4581489999999988
20
0.826191
11
9.4819589999999998
21
0.87381
0
LINE
8
BLACK
6
CONTINUOUS
10
9.4819589999999998
20
0.87381
11
9.5057679999999998
21
0.89762
0
LINE
8
BLACK
6
CONTINUOUS
10
9.5057679999999998
20
0.89762
11
9.553386999999999
21
0.9214289999999999
0
LINE
8
BLACK
6
CONTINUOUS
10
9.553386999999999
20
0.9214289999999999
11
9.6248159999999991
21
0.9214289999999999
0
LINE
8
BLACK
6
CONTINUOUS
10
9.6248159999999991
20
0.9214289999999999
11
9.6724350000000001
21
0.89762
0
LINE
8
BLACK
6
CONTINUOUS
10
9.6724350000000001
20
0.89762
11
9.6962440000000001
21
0.87381
0
LINE
8
BLACK
6
CONTINUOUS
10
9.6962440000000001
20
0.87381
11
9.7200539999999993
21
0.826191
0
LINE
8
BLACK
6
CONTINUOUS
10
9.7200539999999993
20
0.826191
11
9.7200539999999993
21
0.6357149999999999
0
LINE
8
BLACK
6
CONTINUOUS
10
9.9105299999999996
20
1.4214289999999998
11
9.9343399999999988
21
1.3976199999999999
0
LINE
8
BLACK
6
CONTINUOUS
10
9.9343399999999988
20
1.3976199999999999
11
9.9581489999999988
21
1.3261909999999999
0
LINE
8
BLACK
6
CONTINUOUS
10
9.9581489999999988
20
1.3261909999999999
11
9.9581489999999988
21
1.278572
0
LINE
8
BLACK
6
CONTINUOUS
10
9.9581489999999988
20
1.278572
11
9.9343399999999988
21
1.207144
0
LINE
8
BLACK
6
CONTINUOUS
10
9.9343399999999988
20
1.207144
11
9.8867200000000004
21
1.1595249999999999
0
LINE
8
BLACK
6
CONTINUOUS
10
9.8867200000000004
20
1.1595249999999999
11
9.8391009999999994
21
1.135715
0
LINE
8
BLACK
6
CONTINUOUS
10
9.8391009999999994
20
1.135715
11
9.7438629999999993
21
1.1119059999999998
0
LINE
8
BLACK
6
CONTINUOUS
10
9.7438629999999993
20
1.1119059999999998
11
9.6724350000000001
21
1.1119059999999998
0
LINE
8
BLACK
6
CONTINUOUS
10
9.6724350000000001
20
1.1119059999999998
11
9.577197
21
1.135715
0
LINE
8
BLACK
6
CONTINUOUS
10
9.577197
20
1.135715
11
9.529577999999999
21
1.1595249999999999
0
LINE
8
BLACK
6
CONTINUOUS
10
9.529577999999999
20
1.1595249999999999
11
9.4819589999999998
21
1.207144
0
LINE
8
BLACK
6
CONTINUOUS
10
9.4819589999999998
20
1.207144
11
9.4581489999999988
21
1.278572
0
LINE
8
BLACK
6
CONTINUOUS
10
9.4581489999999988
20
1.278572
11
9.4581489999999988
21
1.3261909999999999
0
LINE
8
BLACK
6
CONTINUOUS
10
9.4581489999999988
20
1.3261909999999999
11
9.4819589999999998
21
1.3976199999999999
0
LINE
8
BLACK
6
CONTINUOUS
10
9.4819589999999998
20
1.3976199999999999
11
9.5057679999999998
21
1.4214289999999998
0
LINE
8
BLACK
6
CONTINUOUS
10
9.6962440000000001
20
1.8023819999999999
11
9.7200539999999993
21
1.87381
0
LINE
8
BLACK
6
CONTINUOUS
10
9.7200539999999993
20
1.87381
11
9.7438629999999993
21
1.8976199999999999
0
LINE
8
BLACK
6
CONTINUOUS
10
9.7438629999999993
20
1.8976199999999999
11
9.7914820000000002
21
1.9214289999999998
0
LINE
8
BLACK
6
CONTINUOUS
10
9.7914820000000002
20
1.9214289999999998
11
9.8629110000000004
21
1.9214289999999998
0
LINE
8
BLACK
6
CONTINUOUS
10
9.8629110000000004
20
1.9214289999999998
11
9.9105299999999996
21
1.8976199999999999
0
LINE
8
BLACK
6
CONTINUOUS
10
9.9105299999999996
20
1.8976199999999999
11
9.9343399999999988
21
1.87381
0
LINE
8
BLACK
6
CONTINUOUS
10
9.9343399999999988
20
1.87381
11
9.9581489999999988
21
1.8261909999999999
0
LINE
8
BLACK
6
CONTINUOUS
10
9.9581489999999988
20
1.8261909999999999
11
9.9581489999999988
21
1.635715
0
LINE
8
BLACK
6
CONTINUOUS
10
9.9581489999999988
20
1.635715
11
9.4581489999999988
21
1.635715
0
LINE
8
BLACK
6
CONTINUOUS
10
9.4581489999999988
20
1.635715
11
9.4581489999999988
21
1.8023819999999999
0
LINE
8
BLACK
6
CONTINUOUS
10
9.4581489999999988
20
1.8023819999999999
11
9.4819589999999998
21
1.850001
0
LINE
8
BLACK
6
CONTINUOUS
10
9.4819589999999998
20
1.850001
11
9.5057679999999998
21
1.87381
0
LINE
8
BLACK
6
CONTINUOUS
10
9.5057679999999998
20
1.87381
11
9.553386999999999
21
1.8976199999999999
0
LINE
8
BLACK
6
CONTINUOUS
10
9.553386999999999
20
1.8976199999999999
11
9.6010059999999999
21
1.8976199999999999
0
LINE
8
BLACK
6
CONTINUOUS
10
9.6010059999999999
20
1.8976199999999999
11
9.6486249999999991
21
1.87381
0
LINE
8
BLACK
6
CONTINUOUS
10
9.6486249999999991
20
1.87381
11
9.6724350000000001
21
1.850001
0
LINE
8
BLACK
6
CONTINUOUS
10
9.6724350000000001
20
1.850001
11
9.6962440000000001
21
1.8023819999999999
0
LINE
8
BLACK
6
CONTINUOUS
10
9.6962440000000001
20
1.8023819999999999
11
9.6962440000000001
21
1.635715
0
LINE
8
BLACK
6
CONTINUOUS
10
9.6962440000000001
20
2.516667
11
9.6962440000000001
21
2.6833339999999999
0
LINE
8
BLACK
6
CONTINUOUS
10
9.9581489999999988
20
2.7547619999999999
11
9.9581489999999988
21
2.516667
0
LINE
8
BLACK
6
CONTINUOUS
10
9.9581489999999988
20
2.516667
11
9.4581489999999988
21
2.516667
0
LINE
8
BLACK
6
CONTINUOUS
10
9.4581489999999988
20
2.516667
11
9.4581489999999988
21
2.7547619999999999
0
LINE
8
BLACK
6
CONTINUOUS
10
9.9581489999999988
20
3.1833339999999999
11
9.4581489999999988
21
3.1833339999999999
0
LINE
8
BLACK
6
CONTINUOUS
10
9.9343399999999988
20
3.1833339999999999
11
9.9581489999999988
21
3.1357149999999998
0
LINE
8
BLACK
6
CONTINUOUS
10
9.9581489999999988
20
3.1357149999999998
11
9.9581489999999988
21
3.0404769999999997
0
LINE
8
BLACK
6
CONTINUOUS
10
9.9581489999999988
20
3.0404769999999997
11
9.9343399999999988
21
2.992858
0
LINE
8
BLACK
6
CONTINUOUS
10
9.9343399999999988
20
2.992858
11
9.9105299999999996
21
2.9690479999999999
0
LINE
8
BLACK
6
CONTINUOUS
10
9.9105299999999996
20
2.9690479999999999
11
9.8629110000000004
21
2.9452389999999999
0
LINE
8
BLACK
6
CONTINUOUS
10
9.8629110000000004
20
2.9452389999999999
11
9.7200539999999993
21
2.9452389999999999
0
LINE
8
BLACK
6
CONTINUOUS
10
9.7200539999999993
20
2.9452389999999999
11
9.6724350000000001
21
2.9690479999999999
0
LINE
8
BLACK
6
CONTINUOUS
10
9.6724350000000001
20
2.9690479999999999
11
9.6486249999999991
21
2.992858
0
LINE
8
BLACK
6
CONTINUOUS
10
9.6486249999999991
20
2.992858
11
9.6248159999999991
21
3.0404769999999997
0
LINE
8
BLACK
6
CONTINUOUS
10
9.6248159999999991
20
3.0404769999999997
11
9.6248159999999991
21
3.1357149999999998
0
LINE
8
BLACK
6
CONTINUOUS
10
9.6248159999999991
20
3.1357149999999998
11
9.6486249999999991
21
3.1833339999999999
0
LINE
8
BLACK
6
CONTINUOUS
10
9.6248159999999991
20
3.6357149999999998
11
10.029577999999999
21
3.6357149999999998
0
LINE
8
BLACK
6
CONTINUOUS
10
10.029577999999999
20
3.6357149999999998
11
10.077197
21
3.6119049999999997
0
LINE
8
BLACK
6
CONTINUOUS
10
10.077197
20
3.6119049999999997
11
10.1010059999999999
21
3.5880959999999997
0
LINE
8
BLACK
6
CONTINUOUS
10
10.1010059999999999
20
3.5880959999999997
11
10.1248159999999991
21
3.5404769999999997
0
LINE
8
BLACK
6
CONTINUOUS
10
10.1248159999999991
20
3.5404769999999997
11
10.1248159999999991
21
3.4690479999999999
0
LINE
8
BLACK
6
CONTINUOUS
10
10.1248159999999991
20
3.4690479999999999
11
10.1010059999999999
21
3.4214289999999998
0
LINE
8
BLACK
6
CONTINUOUS
10
9.9343399999999988
20
3.6357149999999998
11
9.9581489999999988
21
3.5880959999999997
0
LINE
8
BLACK
6
CONTINUOUS
10
9.9581489999999988
20
3.5880959999999997
11
9.9581489999999988
21
3.492858
0
LINE
8
BLACK
6
CONTINUOUS
10
9.9581489999999988
20
3.492858
11
9.9343399999999988
21
3.4452389999999999
0
LINE
8
BLACK
6
CONTINUOUS
10
9.9343399999999988
20
3.4452389999999999
11
9.9105299999999996
21
3.4214289999999998
0
LINE
8
BLACK
6
CONTINUOUS
10
9.9105299999999996
20
3.4214289999999998
11
9.8629110000000004
21
3.3976199999999999
0
LINE
8
BLACK
6
CONTINUOUS
10
9.8629110000000004
20
3.3976199999999999
11
9.7200539999999993
21
3.3976199999999999
0
LINE
8
BLACK
6
CONTINUOUS
10
9.7200539999999993
20
3.3976199999999999
11
9.6724350000000001
21
3.4214289999999998
0
LINE
8
BLACK
6
CONTINUOUS
10
9.6724350000000001
20
3.4214289999999998
11
9.6486249999999991
21
3.4452389999999999
0
LINE
8
BLACK
6
CONTINUOUS
10
9.6486249999999991
20
3.4452389999999999
11
9.6248159999999991
21
3.492858
0
LINE
8
BLACK
6
CONTINUOUS
10
9.6248159999999991
20
3.492858
11
9.6248159999999991
21
3.5880959999999997
0
LINE
8
BLACK
6
CONTINUOUS
10
9.6248159999999991
20
3.5880959999999997
11
9.6486249999999991
21
3.6357149999999998
0
LINE
8
BLACK
6
CONTINUOUS
10
9.9343399999999988
20
4.0642860000000001
11
9.9581489999999988
21
4.016667
0
LINE
8
BLACK
6
CONTINUOUS
10
9.9581489999999988
20
4.016667
11
9.9581489999999988
21
3.9214289999999998
0
LINE
8
BLACK
6
CONTINUOUS
10
9.9581489999999988
20
3.9214289999999998
11
9.9343399999999988
21
3.8738099999999998
0
LINE
8
BLACK
6
CONTINUOUS
10
9.9343399999999988
20
3.8738099999999998
11
9.8867200000000004
21
3.8500009999999998
0
LINE
8
BLACK
6
CONTINUOUS
10
9.8867200000000004
20
3.8500009999999998
11
9.6962440000000001
21
3.8500009999999998
0
LINE
8
BLACK
6
CONTINUOUS
10
9.6962440000000001
20
3.8500009999999998
11
9.6486249999999991
21
3.8738099999999998
0
LINE
8
BLACK
6
CONTINUOUS
10
9.6486249999999991
20
3.8738099999999998
11
9.6248159999999991
21
3.9214289999999998
0
LINE
8
BLACK
6
CONTINUOUS
10
9.6248159999999991
20
3.9214289999999998
11
9.6248159999999991
21
4.016667
0
LINE
8
BLACK
6
CONTINUOUS
10
9.6248159999999991
20
4.016667
11
9.6486249999999991
21
4.0642860000000001
0
LINE
8
BLACK
6
CONTINUOUS
10
9.6486249999999991
20
4.0642860000000001
11
9.6962440000000001
21
4.0880960000000002
0
LINE
8
BLACK
6
CONTINUOUS
10
9.6962440000000001
20
4.0880960000000002
11
9.7438629999999993
21
4.0880960000000002
0
LINE
8
BLACK
6
CONTINUOUS
10
9.7438629999999993
20
4.0880960000000002
11
9.7914820000000002
21
3.8500009999999998
0
CIRCLE
8
BLACK
10
8.8167790000000004
20
12.135254999999999
40
3.1999999999999997
0
CIRCLE
8
BLACK
10
-8.8167790000000004
20
-12.135254999999999
40
3.1999999999999997
0
LINE
8
BLACK
6
CONTINUOUS
10
0.497222
20
2.2418149999999999
11
0.497222
21
2.5418149999999997
0
LINE
8
BLACK
6
CONTINUOUS
10
0.497222
20
2.5418149999999997
11
0.5972219999999999
21
2.3275289999999997
0
LINE
8
BLACK
6
CONTINUOUS
10
0.5972219999999999
20
2.3275289999999997
11
0.697222
21
2.5418149999999997
0
LINE
8
BLACK
6
CONTINUOUS
10
0.697222
20
2.5418149999999997
11
0.697222
21
2.2418149999999999
0
LINE
8
BLACK
6
CONTINUOUS
10
0.9686509999999999
20
2.2418149999999999
11
0.9686509999999999
21
2.3989579999999999
0
LINE
8
BLACK
6
CONTINUOUS
10
0.9686509999999999
20
2.3989579999999999
11
0.9543649999999999
21
2.4275289999999998
0
LINE
8
BLACK
6
CONTINUOUS
10
0.9543649999999999
20
2.4275289999999998
11
0.925793
21
2.4418150000000001
0
LINE
8
BLACK
6
CONTINUOUS
10
0.925793
20
2.4418150000000001
11
0.868651
21
2.4418150000000001
0
LINE
8
BLACK
6
CONTINUOUS
10
0.868651
20
2.4418150000000001
11
0.8400789999999999
21
2.4275289999999998
0
LINE
8
BLACK
6
CONTINUOUS
10
0.9686509999999999
20
2.2561
11
0.940079
21
2.2418149999999999
0
LINE
8
BLACK
6
CONTINUOUS
10
0.940079
20
2.2418149999999999
11
0.868651
21
2.2418149999999999
0
LINE
8
BLACK
6
CONTINUOUS
10
0.868651
20
2.2418149999999999
11
0.8400789999999999
21
2.2561
0
LINE
8
BLACK
6
CONTINUOUS
10
0.8400789999999999
20
2.2561
11
0.825793
21
2.284672
0
LINE
8
BLACK
6
CONTINUOUS
10
0.825793
20
2.284672
11
0.825793
21
2.3132429999999999
0
LINE
8
BLACK
6
CONTINUOUS
10
0.825793
20
2.3132429999999999
11
0.8400789999999999
21
2.341815
0
LINE
8
BLACK
6
CONTINUOUS
10
0.8400789999999999
20
2.341815
11
0.868651
21
2.3561000000000001
0
LINE
8
BLACK
6
CONTINUOUS
10
0.868651
20
2.3561000000000001
11
0.940079
21
2.3561000000000001
0
LINE
8
BLACK
6
CONTINUOUS
10
0.940079
20
2.3561000000000001
11
0.9686509999999999
21
2.3703859999999999
0
LINE
8
BLACK
6
CONTINUOUS
10
1.1115079999999999
20
2.2418149999999999
11
1.1115079999999999
21
2.4418150000000001
0
LINE
8
BLACK
6
CONTINUOUS
10
1.1115079999999999
20
2.3846719999999997
11
1.125794
21
2.413243
0
LINE
8
BLACK
6
CONTINUOUS
10
1.125794
20
2.413243
11
1.14008
21
2.4275289999999998
0
LINE
8
BLACK
6
CONTINUOUS
10
1.14008
20
2.4275289999999998
11
1.1686509999999999
21
2.4418150000000001
0
LINE
8
BLACK
6
CONTINUOUS
10
1.1686509999999999
20
2.4418150000000001
11
1.197222
21
2.4418150000000001
0
LINE
8
BLACK
6
CONTINUOUS
10
1.425794
20
2.4418150000000001
11
1.425794
21
2.1989579999999997
0
LINE
8
BLACK
6
CONTINUOUS
10
1.425794
20
2.1989579999999997
11
1.411508
21
2.1703859999999997
0
LINE
8
BLACK
6
CONTINUOUS
10
1.411508
20
2.1703859999999997
11
1.397222
21
2.1560999999999999
0
LINE
8
BLACK
6
CONTINUOUS
10
1.397222
20
2.1560999999999999
11
1.3686509999999998
21
2.1418149999999998
0
LINE
8
BLACK
6
CONTINUOUS
10
1.3686509999999998
20
2.1418149999999998
11
1.3257939999999999
21
2.1418149999999998
0
LINE
8
BLACK
6
CONTINUOUS
10
1.3257939999999999
20
2.1418149999999998
11
1.2972219999999999
21
2.1560999999999999
0
LINE
8
BLACK
6
CONTINUOUS
10
1.425794
20
2.2561
11
1.397222
21
2.2418149999999999
0
LINE
8
BLACK
6
CONTINUOUS
10
1.397222
20
2.2418149999999999
11
1.340079
21
2.2418149999999999
0
LINE
8
BLACK
6
CONTINUOUS
10
1.340079
20
2.2418149999999999
11
1.3115079999999999
21
2.2561
0
LINE
8
BLACK
6
CONTINUOUS
10
1.3115079999999999
20
2.2561
11
1.2972219999999999
21
2.2703859999999998
0
LINE
8
BLACK
6
CONTINUOUS
10
1.2972219999999999
20
2.2703859999999998
11
1.2829359999999999
21
2.2989579999999998
0
LINE
8
BLACK
6
CONTINUOUS
10
1.2829359999999999
20
2.2989579999999998
11
1.2829359999999999
21
2.3846719999999997
0
LINE
8
BLACK
6
CONTINUOUS
10
1.2829359999999999
20
2.3846719999999997
11
1.2972219999999999
21
2.413243
0
LINE
8
BLACK
6
CONTINUOUS
10
1.2972219999999999
20
2.413243
11
1.3115079999999999
21
2.4275289999999998
0
LINE
8
BLACK
6
CONTINUOUS
10
1.3115079999999999
20
2.4275289999999998
11
1.340079
21
2.4418150000000001
0
LINE
8
BLACK
6
CONTINUOUS
10
1.340079
20
2.4418150000000001
11
1.397222
21
2.4418150000000001
0
LINE
8
BLACK
6
CONTINUOUS
10
1.397222
20
2.4418150000000001
11
1.425794
21
2.4275289999999998
0
LINE
8
BLACK
6
CONTINUOUS
10
1.568651
20
2.2418149999999999
11
1.568651
21
2.4418150000000001
0
LINE
8
BLACK
6
CONTINUOUS
10
1.568651
20
2.5418149999999997
11
1.554365
21
2.5275289999999999
0
LINE
8
BLACK
6
CONTINUOUS
10
1.554365
20
2.5275289999999999
11
1.568651
21
2.5132429999999997
0
LINE
8
BLACK
6
CONTINUOUS
10
1.568651
20
2.5132429999999997
11
1.582937
21
2.5275289999999999
0
LINE
8
BLACK
6
CONTINUOUS
10
1.582937
20
2.5275289999999999
11
1.568651
21
2.5418149999999997
0
LINE
8
BLACK
6
CONTINUOUS
10
1.568651
20
2.5418149999999997
11
1.568651
21
2.5132429999999997
0
LINE
8
BLACK
6
CONTINUOUS
10
1.711508
20
2.4418150000000001
11
1.711508
21
2.2418149999999999
0
LINE
8
BLACK
6
CONTINUOUS
10
1.711508
20
2.413243
11
1.7257939999999998
21
2.4275289999999998
0
LINE
8
BLACK
6
CONTINUOUS
10
1.7257939999999998
20
2.4275289999999998
11
1.754365
21
2.4418150000000001
0
LINE
8
BLACK
6
CONTINUOUS
10
1.754365
20
2.4418150000000001
11
1.7972219999999999
21
2.4418150000000001
0
LINE
8
BLACK
6
CONTINUOUS
10
1.7972219999999999
20
2.4418150000000001
11
1.8257939999999999
21
2.4275289999999998
0
LINE
8
BLACK
6
CONTINUOUS
10
1.8257939999999999
20
2.4275289999999998
11
1.8400799999999999
21
2.3989579999999999
0
LINE
8
BLACK
6
CONTINUOUS
10
1.8400799999999999
20
2.3989579999999999
11
1.8400799999999999
21
2.2418149999999999
0
LINE
8
BLACK
6
CONTINUOUS
10
0.625794
20
1.7731169999999998
11
0.5972219999999999
21
1.758832
0
LINE
8
BLACK
6
CONTINUOUS
10
0.5972219999999999
20
1.758832
11
0.540079
21
1.758832
0
LINE
8
BLACK
6
CONTINUOUS
10
0.540079
20
1.758832
11
0.511508
21
1.7731169999999998
0
LINE
8
BLACK
6
CONTINUOUS
10
0.511508
20
1.7731169999999998
11
0.497222
21
1.7874029999999999
0
LINE
8
BLACK
6
CONTINUOUS
10
0.497222
20
1.7874029999999999
11
0.482936
21
1.8159749999999999
0
LINE
8
BLACK
6
CONTINUOUS
10
0.482936
20
1.8159749999999999
11
0.482936
21
1.901689
0
LINE
8
BLACK
6
CONTINUOUS
10
0.482936
20
1.901689
11
0.497222
21
1.9302599999999999
0
LINE
8
BLACK
6
CONTINUOUS
10
0.497222
20
1.9302599999999999
11
0.511508
21
1.9445459999999999
0
LINE
8
BLACK
6
CONTINUOUS
10
0.511508
20
1.9445459999999999
11
0.540079
21
1.9588319999999999
0
LINE
8
BLACK
6
CONTINUOUS
10
0.540079
20
1.9588319999999999
11
0.5972219999999999
21
1.9588319999999999
0
LINE
8
BLACK
6
CONTINUOUS
10
0.5972219999999999
20
1.9588319999999999
11
0.625794
21
1.9445459999999999
0
LINE
8
BLACK
6
CONTINUOUS
10
0.882937
20
1.758832
11
0.882937
21
1.915975
0
LINE
8
BLACK
6
CONTINUOUS
10
0.882937
20
1.915975
11
0.868651
21
1.9445459999999999
0
LINE
8
BLACK
6
CONTINUOUS
10
0.868651
20
1.9445459999999999
11
0.8400789999999999
21
1.9588319999999999
0
LINE
8
BLACK
6
CONTINUOUS
10
0.8400789999999999
20
1.9588319999999999
11
0.782937
21
1.9588319999999999
0
LINE
8
BLACK
6
CONTINUOUS
10
0.782937
20
1.9588319999999999
11
0.754365
21
1.9445459999999999
0
LINE
8
BLACK
6
CONTINUOUS
10
0.882937
20
1.7731169999999998
11
0.8543649999999999
21
1.758832
0
LINE
8
BLACK
6
CONTINUOUS
10
0.8543649999999999
20
1.758832
11
0.782937
21
1.758832
0
LINE
8
BLACK
6
CONTINUOUS
10
0.782937
20
1.758832
11
0.754365
21
1.7731169999999998
0
LINE
8
BLACK
6
CONTINUOUS
10
0.754365
20
1.7731169999999998
11
0.7400789999999999
21
1.8016889999999999
0
LINE
8
BLACK
6
CONTINUOUS
10
0.7400789999999999
20
1.8016889999999999
11
0.7400789999999999
21
1.83026
0
LINE
8
BLACK
6
CONTINUOUS
10
0.7400789999999999
20
1.83026
11
0.754365
21
1.8588319999999998
0
LINE
8
BLACK
6
CONTINUOUS
10
0.754365
20
1.8588319999999998
11
0.782937
21
1.8731169999999999
0
LINE
8
BLACK
6
CONTINUOUS
10
0.782937
20
1.8731169999999999
11
0.8543649999999999
21
1.8731169999999999
0
LINE
8
BLACK
6
CONTINUOUS
10
0.8543649999999999
20
1.8731169999999999
11
0.882937
21
1.8874029999999999
0
LINE
8
BLACK
6
CONTINUOUS
10
1.068651
20
1.758832
11
1.0400799999999999
21
1.7731169999999998
0
LINE
8
BLACK
6
CONTINUOUS
10
1.0400799999999999
20
1.7731169999999998
11
1.0257939999999999
21
1.8016889999999999
0
LINE
8
BLACK
6
CONTINUOUS
10
1.0257939999999999
20
1.8016889999999999
11
1.0257939999999999
21
2.0588319999999998
0
LINE
8
BLACK
6
CONTINUOUS
10
1.311509
20
1.7731169999999998
11
1.282937
21
1.758832
0
LINE
8
BLACK
6
CONTINUOUS
10
1.282937
20
1.758832
11
1.2257940000000001
21
1.758832
0
LINE
8
BLACK
6
CONTINUOUS
10
1.2257940000000001
20
1.758832
11
1.1972229999999999
21
1.7731169999999998
0
LINE
8
BLACK
6
CONTINUOUS
10
1.1972229999999999
20
1.7731169999999998
11
1.1829369999999999
21
1.7874029999999999
0
LINE
8
BLACK
6
CONTINUOUS
10
1.1829369999999999
20
1.7874029999999999
11
1.1686509999999999
21
1.8159749999999999
0
LINE
8
BLACK
6
CONTINUOUS
10
1.1686509999999999
20
1.8159749999999999
11
1.1686509999999999
21
1.901689
0
LINE
8
BLACK
6
CONTINUOUS
10
1.1686509999999999
20
1.901689
11
1.1829369999999999
21
1.9302599999999999
0
LINE
8
BLACK
6
CONTINUOUS
10
1.1829369999999999
20
1.9302599999999999
11
1.1972229999999999
21
1.9445459999999999
0
LINE
8
BLACK
6
CONTINUOUS
10
1.1972229999999999
20
1.9445459999999999
11
1.2257940000000001
21
1.9588319999999999
0
LINE
8
BLACK
6
CONTINUOUS
10
1.2257940000000001
20
1.9588319999999999
11
1.282937
21
1.9588319999999999
0
LINE
8
BLACK
6
CONTINUOUS
10
1.282937
20
1.9588319999999999
11
1.311509
21
1.9445459999999999
0
LINE
8
BLACK
6
CONTINUOUS
10
1.5686519999999999
20
1.9588319999999999
11
1.5686519999999999
21
1.758832
0
LINE
8
BLACK
6
CONTINUOUS
10
1.44008
20
1.9588319999999999
11
1.44008
21
1.8016889999999999
0
LINE
8
BLACK
6
CONTINUOUS
10
1.44008
20
1.8016889999999999
11
1.4543659999999998
21
1.7731169999999998
0
LINE
8
BLACK
6
CONTINUOUS
10
1.4543659999999998
20
1.7731169999999998
11
1.4829369999999999
21
1.758832
0
LINE
8
BLACK
6
CONTINUOUS
10
1.4829369999999999
20
1.758832
11
1.5257939999999999
21
1.758832
0
LINE
8
BLACK
6
CONTINUOUS
10
1.5257939999999999
20
1.758832
11
1.5543659999999999
21
1.7731169999999998
0
LINE
8
BLACK
6
CONTINUOUS
10
1.5543659999999999
20
1.7731169999999998
11
1.5686519999999999
21
1.7874029999999999
0
LINE
8
BLACK
6
CONTINUOUS
10
1.7543659999999999
20
1.758832
11
1.725795
21
1.7731169999999998
0
LINE
8
BLACK
6
CONTINUOUS
10
1.725795
20
1.7731169999999998
11
1.7115089999999999
21
1.8016889999999999
0
LINE
8
BLACK
6
CONTINUOUS
10
1.7115089999999999
20
1.8016889999999999
11
1.7115089999999999
21
2.0588319999999998
0
LINE
8
BLACK
6
CONTINUOUS
10
1.9972239999999999
20
1.758832
11
1.9972239999999999
21
1.915975
0
LINE
8
BLACK
6
CONTINUOUS
10
1.9972239999999999
20
1.915975
11
1.9829379999999999
21
1.9445459999999999
0
LINE
8
BLACK
6
CONTINUOUS
10
1.9829379999999999
20
1.9445459999999999
11
1.9543659999999998
21
1.9588319999999999
0
LINE
8
BLACK
6
CONTINUOUS
10
1.9543659999999998
20
1.9588319999999999
11
1.897224
21
1.9588319999999999
0
LINE
8
BLACK
6
CONTINUOUS
10
1.897224
20
1.9588319999999999
11
1.868652
21
1.9445459999999999
0
LINE
8
BLACK
6
CONTINUOUS
10
1.9972239999999999
20
1.7731169999999998
11
1.9686519999999998
21
1.758832
0
LINE
8
BLACK
6
CONTINUOUS
10
1.9686519999999998
20
1.758832
11
1.897224
21
1.758832
0
LINE
8
BLACK
6
CONTINUOUS
10
1.897224
20
1.758832
11
1.868652
21
1.7731169999999998
0
LINE
8
BLACK
6
CONTINUOUS
10
1.868652
20
1.7731169999999998
11
1.854366
21
1.8016889999999999
0
LINE
8
BLACK
6
CONTINUOUS
10
1.854366
20
1.8016889999999999
11
1.854366
21
1.83026
0
LINE
8
BLACK
6
CONTINUOUS
10
1.854366
20
1.83026
11
1.868652
21
1.8588319999999998
0
LINE
8
BLACK
6
CONTINUOUS
10
1.868652
20
1.8588319999999998
11
1.897224
21
1.8731169999999999
0
LINE
8
BLACK
6
CONTINUOUS
10
1.897224
20
1.8731169999999999
11
1.9686519999999998
21
1.8731169999999999
0
LINE
8
BLACK
6
CONTINUOUS
10
1.9686519999999998
20
1.8731169999999999
11
1.9972239999999999
21
1.8874029999999999
0
LINE
8
BLACK
6
CONTINUOUS
10
2.0972239999999998
20
1.9588319999999999
11
2.2115100000000001
21
1.9588319999999999
0
LINE
8
BLACK
6
CONTINUOUS
10
2.1400809999999999
20
2.0588319999999998
11
2.1400809999999999
21
1.8016889999999999
0
LINE
8
BLACK
6
CONTINUOUS
10
2.1400809999999999
20
1.8016889999999999
11
2.1543669999999997
21
1.7731169999999998
0
LINE
8
BLACK
6
CONTINUOUS
10
2.1543669999999997
20
1.7731169999999998
11
2.182938
21
1.758832
0
LINE
8
BLACK
6
CONTINUOUS
10
2.182938
20
1.758832
11
2.2115100000000001
21
1.758832
0
LINE
8
BLACK
6
CONTINUOUS
10
2.4257960000000001
20
1.7731169999999998
11
2.397224
21
1.758832
0
LINE
8
BLACK
6
CONTINUOUS
10
2.397224
20
1.758832
11
2.3400819999999998
21
1.758832
0
LINE
8
BLACK
6
CONTINUOUS
10
2.3400819999999998
20
1.758832
11
2.3115099999999997
21
1.7731169999999998
0
LINE
8
BLACK
6
CONTINUOUS
10
2.3115099999999997
20
1.7731169999999998
11
2.2972239999999999
21
1.8016889999999999
0
LINE
8
BLACK
6
CONTINUOUS
10
2.2972239999999999
20
1.8016889999999999
11
2.2972239999999999
21
1.915975
0
LINE
8
BLACK
6
CONTINUOUS
10
2.2972239999999999
20
1.915975
11
2.3115099999999997
21
1.9445459999999999
0
LINE
8
BLACK
6
CONTINUOUS
10
2.3115099999999997
20
1.9445459999999999
11
2.3400819999999998
21
1.9588319999999999
0
LINE
8
BLACK
6
CONTINUOUS
10
2.3400819999999998
20
1.9588319999999999
11
2.397224
21
1.9588319999999999
0
LINE
8
BLACK
6
CONTINUOUS
10
2.397224
20
1.9588319999999999
11
2.4257960000000001
21
1.9445459999999999
0
LINE
8
BLACK
6
CONTINUOUS
10
2.4257960000000001
20
1.9445459999999999
11
2.4400819999999999
21
1.915975
0
LINE
8
BLACK
6
CONTINUOUS
10
2.4400819999999999
20
1.915975
11
2.4400819999999999
21
1.8874029999999999
0
LINE
8
BLACK
6
CONTINUOUS
10
2.4400819999999999
20
1.8874029999999999
11
2.2972239999999999
21
1.8588319999999998
0
LINE
8
BLACK
6
CONTINUOUS
10
2.697225
20
1.758832
11
2.697225
21
2.0588319999999998
0
LINE
8
BLACK
6
CONTINUOUS
10
2.697225
20
1.7731169999999998
11
2.6686529999999999
21
1.758832
0
LINE
8
BLACK
6
CONTINUOUS
10
2.6686529999999999
20
1.758832
11
2.61151
21
1.758832
0
LINE
8
BLACK
6
CONTINUOUS
10
2.61151
20
1.758832
11
2.5829390000000001
21
1.7731169999999998
0
LINE
8
BLACK
6
CONTINUOUS
10
2.5829390000000001
20
1.7731169999999998
11
2.5686529999999999
21
1.7874029999999999
0
LINE
8
BLACK
6
CONTINUOUS
10
2.5686529999999999
20
1.7874029999999999
11
2.5543670000000001
21
1.8159749999999999
0
LINE
8
BLACK
6
CONTINUOUS
10
2.5543670000000001
20
1.8159749999999999
11
2.5543670000000001
21
1.901689
0
LINE
8
BLACK
6
CONTINUOUS
10
2.5543670000000001
20
1.901689
11
2.5686529999999999
21
1.9302599999999999
0
LINE
8
BLACK
6
CONTINUOUS
10
2.5686529999999999
20
1.9302599999999999
11
2.5829390000000001
21
1.9445459999999999
0
LINE
8
BLACK
6
CONTINUOUS
10
2.5829390000000001
20
1.9445459999999999
11
2.61151
21
1.9588319999999999
0
LINE
8
BLACK
6
CONTINUOUS
10
2.61151
20
1.9588319999999999
11
2.6686529999999999
21
1.9588319999999999
0
LINE
8
BLACK
6
CONTINUOUS
10
2.6686529999999999
20
1.9588319999999999
11
2.697225
21
1.9445459999999999
0
LINE
8
BLACK
6
CONTINUOUS
10
3.197225
20
1.758832
11
3.197225
21
1.915975
0
LINE
8
BLACK
6
CONTINUOUS
10
3.197225
20
1.915975
11
3.1829389999999997
21
1.9445459999999999
0
LINE
8
BLACK
6
CONTINUOUS
10
3.1829389999999997
20
1.9445459999999999
11
3.1543669999999997
21
1.9588319999999999
0
LINE
8
BLACK
6
CONTINUOUS
10
3.1543669999999997
20
1.9588319999999999
11
3.0972249999999999
21
1.9588319999999999
0
LINE
8
BLACK
6
CONTINUOUS
10
3.0972249999999999
20
1.9588319999999999
11
3.0686529999999999
21
1.9445459999999999
0
LINE
8
BLACK
6
CONTINUOUS
10
3.197225
20
1.7731169999999998
11
3.1686529999999999
21
1.758832
0
LINE
8
BLACK
6
CONTINUOUS
10
3.1686529999999999
20
1.758832
11
3.0972249999999999
21
1.758832
0
LINE
8
BLACK
6
CONTINUOUS
10
3.0972249999999999
20
1.758832
11
3.0686529999999999
21
1.7731169999999998
0
LINE
8
BLACK
6
CONTINUOUS
10
3.0686529999999999
20
1.7731169999999998
11
3.0543670000000001
21
1.8016889999999999
0
LINE
8
BLACK
6
CONTINUOUS
10
3.0543670000000001
20
1.8016889999999999
11
3.0543670000000001
21
1.83026
0
LINE
8
BLACK
6
CONTINUOUS
10
3.0543670000000001
20
1.83026
11
3.0686529999999999
21
1.8588319999999998
0
LINE
8
BLACK
6
CONTINUOUS
10
3.0686529999999999
20
1.8588319999999998
11
3.0972249999999999
21
1.8731169999999999
0
LINE
8
BLACK
6
CONTINUOUS
10
3.0972249999999999
20
1.8731169999999999
11
3.1686529999999999
21
1.8731169999999999
0
LINE
8
BLACK
6
CONTINUOUS
10
3.1686529999999999
20
1.8731169999999999
11
3.197225
21
1.8874029999999999
0
LINE
8
BLACK
6
CONTINUOUS
10
3.2972250000000001
20
1.9588319999999999
11
3.411511
21
1.9588319999999999
0
LINE
8
BLACK
6
CONTINUOUS
10
3.3400819999999998
20
2.0588319999999998
11
3.3400819999999998
21
1.8016889999999999
0
LINE
8
BLACK
6
CONTINUOUS
10
3.3400819999999998
20
1.8016889999999999
11
3.354368
21
1.7731169999999998
0
LINE
8
BLACK
6
CONTINUOUS
10
3.354368
20
1.7731169999999998
11
3.3829389999999999
21
1.758832
0
LINE
8
BLACK
6
CONTINUOUS
10
3.3829389999999999
20
1.758832
11
3.411511
21
1.758832
0
LINE
8
BLACK
6
CONTINUOUS
10
0.625794
20
1.5758489999999998
11
0.568651
21
1.5758489999999998
0
LINE
8
BLACK
6
CONTINUOUS
10
0.568651
20
1.5758489999999998
11
0.540079
21
1.561563
0
LINE
8
BLACK
6
CONTINUOUS
10
0.540079
20
1.561563
11
0.525794
21
1.547277
0
LINE
8
BLACK
6
CONTINUOUS
10
0.525794
20
1.547277
11
0.497222
21
1.5044199999999999
0
LINE
8
BLACK
6
CONTINUOUS
10
0.497222
20
1.5044199999999999
11
0.482936
21
1.4472769999999999
0
LINE
8
BLACK
6
CONTINUOUS
10
0.482936
20
1.4472769999999999
11
0.482936
21
1.332992
0
LINE
8
BLACK
6
CONTINUOUS
10
0.482936
20
1.332992
11
0.497222
21
1.3044199999999999
0
LINE
8
BLACK
6
CONTINUOUS
10
0.497222
20
1.3044199999999999
11
0.511508
21
1.2901339999999999
0
LINE
8
BLACK
6
CONTINUOUS
10
0.511508
20
1.2901339999999999
11
0.540079
21
1.275849
0
LINE
8
BLACK
6
CONTINUOUS
10
0.540079
20
1.275849
11
0.5972219999999999
21
1.275849
0
LINE
8
BLACK
6
CONTINUOUS
10
0.5972219999999999
20
1.275849
11
0.625794
21
1.2901339999999999
0
LINE
8
BLACK
6
CONTINUOUS
10
0.625794
20
1.2901339999999999
11
0.640079
21
1.3044199999999999
0
LINE
8
BLACK
6
CONTINUOUS
10
0.640079
20
1.3044199999999999
11
0.654365
21
1.332992
0
LINE
8
BLACK
6
CONTINUOUS
10
0.654365
20
1.332992
11
0.654365
21
1.40442
0
LINE
8
BLACK
6
CONTINUOUS
10
0.654365
20
1.40442
11
0.640079
21
1.432992
0
LINE
8
BLACK
6
CONTINUOUS
10
0.640079
20
1.432992
11
0.625794
21
1.4472769999999999
0
LINE
8
BLACK
6
CONTINUOUS
10
0.625794
20
1.4472769999999999
11
0.5972219999999999
21
1.4615629999999999
0
LINE
8
BLACK
6
CONTINUOUS
10
0.5972219999999999
20
1.4615629999999999
11
0.540079
21
1.4615629999999999
0
LINE
8
BLACK
6
CONTINUOUS
10
0.540079
20
1.4615629999999999
11
0.511508
21
1.4472769999999999
0
LINE
8
BLACK
6
CONTINUOUS
10
0.511508
20
1.4472769999999999
11
0.497222
21
1.432992
0
LINE
8
BLACK
6
CONTINUOUS
10
0.497222
20
1.432992
11
0.482936
21
1.40442
0
LINE
8
BLACK
6
CONTINUOUS
10
0.825793
20
1.4472769999999999
11
0.797222
21
1.4615629999999999
0
LINE
8
BLACK
6
CONTINUOUS
10
0.797222
20
1.4615629999999999
11
0.782936
21
1.475849
0
LINE
8
BLACK
6
CONTINUOUS
10
0.782936
20
1.475849
11
0.7686499999999999
21
1.5044199999999999
0
LINE
8
BLACK
6
CONTINUOUS
10
0.7686499999999999
20
1.5044199999999999
11
0.7686499999999999
21
1.5187059999999999
0
LINE
8
BLACK
6
CONTINUOUS
10
0.7686499999999999
20
1.5187059999999999
11
0.782936
21
1.547277
0
LINE
8
BLACK
6
CONTINUOUS
10
0.782936
20
1.547277
11
0.797222
21
1.561563
0
LINE
8
BLACK
6
CONTINUOUS
10
0.797222
20
1.561563
11
0.825793
21
1.5758489999999998
0
LINE
8
BLACK
6
CONTINUOUS
10
0.825793
20
1.5758489999999998
11
0.8829359999999999
21
1.5758489999999998
0
LINE
8
BLACK
6
CONTINUOUS
10
0.8829359999999999
20
1.5758489999999998
11
0.911508
21
1.561563
0
LINE
8
BLACK
6
CONTINUOUS
10
0.911508
20
1.561563
11
0.925793
21
1.547277
0
LINE
8
BLACK
6
CONTINUOUS
10
0.925793
20
1.547277
11
0.940079
21
1.5187059999999999
0
LINE
8
BLACK
6
CONTINUOUS
10
0.940079
20
1.5187059999999999
11
0.940079
21
1.5044199999999999
0
LINE
8
BLACK
6
CONTINUOUS
10
0.940079
20
1.5044199999999999
11
0.925793
21
1.475849
0
LINE
8
BLACK
6
CONTINUOUS
10
0.925793
20
1.475849
11
0.911508
21
1.4615629999999999
0
LINE
8
BLACK
6
CONTINUOUS
10
0.911508
20
1.4615629999999999
11
0.8829359999999999
21
1.4472769999999999
0
LINE
8
BLACK
6
CONTINUOUS
10
0.8829359999999999
20
1.4472769999999999
11
0.825793
21
1.4472769999999999
0
LINE
8
BLACK
6
CONTINUOUS
10
0.825793
20
1.4472769999999999
11
0.797222
21
1.432992
0
LINE
8
BLACK
6
CONTINUOUS
10
0.797222
20
1.432992
11
0.782936
21
1.418706
0
LINE
8
BLACK
6
CONTINUOUS
10
0.782936
20
1.418706
11
0.7686499999999999
21
1.390134
0
LINE
8
BLACK
6
CONTINUOUS
10
0.7686499999999999
20
1.390134
11
0.7686499999999999
21
1.332992
0
LINE
8
BLACK
6
CONTINUOUS
10
0.7686499999999999
20
1.332992
11
0.782936
21
1.3044199999999999
0
LINE
8
BLACK
6
CONTINUOUS
10
0.782936
20
1.3044199999999999
11
0.797222
21
1.2901339999999999
0
LINE
8
BLACK
6
CONTINUOUS
10
0.797222
20
1.2901339999999999
11
0.825793
21
1.275849
0
LINE
8
BLACK
6
CONTINUOUS
10
0.825793
20
1.275849
11
0.8829359999999999
21
1.275849
0
LINE
8
BLACK
6
CONTINUOUS
10
0.8829359999999999
20
1.275849
11
0.911508
21
1.2901339999999999
0
LINE
8
BLACK
6
CONTINUOUS
10
0.911508
20
1.2901339999999999
11
0.925793
21
1.3044199999999999
0
LINE
8
BLACK
6
CONTINUOUS
10
0.925793
20
1.3044199999999999
11
0.940079
21
1.332992
0
LINE
8
BLACK
6
CONTINUOUS
10
0.940079
20
1.332992
11
0.940079
21
1.390134
0
LINE
8
BLACK
6
CONTINUOUS
10
0.940079
20
1.390134
11
0.925793
21
1.418706
0
LINE
8
BLACK
6
CONTINUOUS
10
0.925793
20
1.418706
11
0.911508
21
1.432992
0
LINE
8
BLACK
6
CONTINUOUS
10
0.911508
20
1.432992
11
0.8829359999999999
21
1.4472769999999999
0
LINE
8
BLACK
6
CONTINUOUS
10
1.0686499999999999
20
1.3044199999999999
11
1.0829359999999999
21
1.2901339999999999
0
LINE
8
BLACK
6
CONTINUOUS
10
1.0829359999999999
20
1.2901339999999999
11
1.0686499999999999
21
1.275849
0
LINE
8
BLACK
6
CONTINUOUS
10
1.0686499999999999
20
1.275849
11
1.0543639999999999
21
1.2901339999999999
0
LINE
8
BLACK
6
CONTINUOUS
10
1.0543639999999999
20
1.2901339999999999
11
1.0686499999999999
21
1.3044199999999999
0
LINE
8
BLACK
6
CONTINUOUS
10
1.0686499999999999
20
1.3044199999999999
11
1.0686499999999999
21
1.275849
0
LINE
8
BLACK
6
CONTINUOUS
10
1.3543639999999999
20
1.5758489999999998
11
1.2115069999999999
21
1.5758489999999998
0
LINE
8
BLACK
6
CONTINUOUS
10
1.2115069999999999
20
1.5758489999999998
11
1.1972209999999999
21
1.432992
0
LINE
8
BLACK
6
CONTINUOUS
10
1.1972209999999999
20
1.432992
11
1.2115069999999999
21
1.4472769999999999
0
LINE
8
BLACK
6
CONTINUOUS
10
1.2115069999999999
20
1.4472769999999999
11
1.2400789999999999
21
1.4615629999999999
0
LINE
8
BLACK
6
CONTINUOUS
10
1.2400789999999999
20
1.4615629999999999
11
1.311507
21
1.4615629999999999
0
LINE
8
BLACK
6
CONTINUOUS
10
1.311507
20
1.4615629999999999
11
1.340079
21
1.4472769999999999
0
LINE
8
BLACK
6
CONTINUOUS
10
1.340079
20
1.4472769999999999
11
1.3543639999999999
21
1.432992
0
LINE
8
BLACK
6
CONTINUOUS
10
1.3543639999999999
20
1.432992
11
1.3686499999999999
21
1.40442
0
LINE
8
BLACK
6
CONTINUOUS
10
1.3686499999999999
20
1.40442
11
1.3686499999999999
21
1.332992
0
LINE
8
BLACK
6
CONTINUOUS
10
1.3686499999999999
20
1.332992
11
1.3543639999999999
21
1.3044199999999999
0
LINE
8
BLACK
6
CONTINUOUS
10
1.3543639999999999
20
1.3044199999999999
11
1.340079
21
1.2901339999999999
0
LINE
8
BLACK
6
CONTINUOUS
10
1.340079
20
1.2901339999999999
11
1.311507
21
1.275849
0
LINE
8
BLACK
6
CONTINUOUS
10
1.311507
20
1.275849
11
1.2400789999999999
21
1.275849
0
LINE
8
BLACK
6
CONTINUOUS
10
1.2400789999999999
20
1.275849
11
1.2115069999999999
21
1.2901339999999999
0
LINE
8
BLACK
6
CONTINUOUS
10
1.2115069999999999
20
1.2901339999999999
11
1.1972209999999999
21
1.3044199999999999
0
LINE
8
BLACK
6
CONTINUOUS
10
1.5115069999999999
20
1.4615629999999999
11
1.4829349999999999
21
1.475849
0
LINE
8
BLACK
6
CONTINUOUS
10
1.4829349999999999
20
1.475849
11
1.46865
21
1.5044199999999999
0
LINE
8
BLACK
6
CONTINUOUS
10
1.46865
20
1.5044199999999999
11
1.46865
21
1.561563
0
LINE
8
BLACK
6
CONTINUOUS
10
1.46865
20
1.561563
11
1.4829349999999999
21
1.5901339999999999
0
LINE
8
BLACK
6
CONTINUOUS
10
1.4829349999999999
20
1.5901339999999999
11
1.5115069999999999
21
1.60442
0
LINE
8
BLACK
6
CONTINUOUS
10
1.5115069999999999
20
1.60442
11
1.5400779999999998
21
1.60442
0
LINE
8
BLACK
6
CONTINUOUS
10
1.5400779999999998
20
1.60442
11
1.5686499999999999
21
1.5901339999999999
0
LINE
8
BLACK
6
CONTINUOUS
10
1.5686499999999999
20
1.5901339999999999
11
1.582935
21
1.561563
0
LINE
8
BLACK
6
CONTINUOUS
10
1.582935
20
1.561563
11
1.582935
21
1.5044199999999999
0
LINE
8
BLACK
6
CONTINUOUS
10
1.582935
20
1.5044199999999999
11
1.5686499999999999
21
1.475849
0
LINE
8
BLACK
6
CONTINUOUS
10
1.5686499999999999
20
1.475849
11
1.5400779999999998
21
1.4615629999999999
0
LINE
8
BLACK
6
CONTINUOUS
10
1.5400779999999998
20
1.4615629999999999
11
1.5115069999999999
21
1.4615629999999999
0
LINE
8
BLACK
6
CONTINUOUS
10
2.0543640000000001
20
1.275849
11
2.0543640000000001
21
1.432992
0
LINE
8
BLACK
6
CONTINUOUS
10
2.0543640000000001
20
1.432992
11
2.0400779999999998
21
1.4615629999999999
0
LINE
8
BLACK
6
CONTINUOUS
10
2.0400779999999998
20
1.4615629999999999
11
2.0115059999999998
21
1.475849
0
LINE
8
BLACK
6
CONTINUOUS
10
2.0115059999999998
20
1.475849
11
1.954364
21
1.475849
0
LINE
8
BLACK
6
CONTINUOUS
10
1.954364
20
1.475849
11
1.9257919999999999
21
1.4615629999999999
0
LINE
8
BLACK
6
CONTINUOUS
10
2.0543640000000001
20
1.2901339999999999
11
2.025792
21
1.275849
0
LINE
8
BLACK
6
CONTINUOUS
10
2.025792
20
1.275849
11
1.954364
21
1.275849
0
LINE
8
BLACK
6
CONTINUOUS
10
1.954364
20
1.275849
11
1.9257919999999999
21
1.2901339999999999
0
LINE
8
BLACK
6
CONTINUOUS
10
1.9257919999999999
20
1.2901339999999999
11
1.9115059999999999
21
1.3187059999999999
0
LINE
8
BLACK
6
CONTINUOUS
10
1.9115059999999999
20
1.3187059999999999
11
1.9115059999999999
21
1.3472769999999998
0
LINE
8
BLACK
6
CONTINUOUS
10
1.9115059999999999
20
1.3472769999999998
11
1.9257919999999999
21
1.3758489999999999
0
LINE
8
BLACK
6
CONTINUOUS
10
1.9257919999999999
20
1.3758489999999999
11
1.954364
21
1.390134
0
LINE
8
BLACK
6
CONTINUOUS
10
1.954364
20
1.390134
11
2.025792
21
1.390134
0
LINE
8
BLACK
6
CONTINUOUS
10
2.025792
20
1.390134
11
2.0543640000000001
21
1.40442
0
LINE
8
BLACK
6
CONTINUOUS
10
2.1972209999999999
20
1.475849
11
2.1972209999999999
21
1.275849
0
LINE
8
BLACK
6
CONTINUOUS
10
2.1972209999999999
20
1.4472769999999999
11
2.2115070000000001
21
1.4615629999999999
0
LINE
8
BLACK
6
CONTINUOUS
10
2.2115070000000001
20
1.4615629999999999
11
2.240078
21
1.475849
0
LINE
8
BLACK
6
CONTINUOUS
10
2.240078
20
1.475849
11
2.2829349999999997
21
1.475849
0
LINE
8
BLACK
6
CONTINUOUS
10
2.2829349999999997
20
1.475849
11
2.3115069999999998
21
1.4615629999999999
0
LINE
8
BLACK
6
CONTINUOUS
10
2.3115069999999998
20
1.4615629999999999
11
2.325793
21
1.432992
0
LINE
8
BLACK
6
CONTINUOUS
10
2.325793
20
1.432992
11
2.325793
21
1.275849
0
LINE
8
BLACK
6
CONTINUOUS
10
2.5972219999999999
20
1.275849
11
2.5972219999999999
21
1.5758489999999998
0
LINE
8
BLACK
6
CONTINUOUS
10
2.5972219999999999
20
1.2901339999999999
11
2.5686499999999999
21
1.275849
0
LINE
8
BLACK
6
CONTINUOUS
10
2.5686499999999999
20
1.275849
11
2.5115069999999999
21
1.275849
0
LINE
8
BLACK
6
CONTINUOUS
10
2.5115069999999999
20
1.275849
11
2.482936
21
1.2901339999999999
0
LINE
8
BLACK
6
CONTINUOUS
10
2.482936
20
1.2901339999999999
11
2.4686499999999998
21
1.3044199999999999
0
LINE
8
BLACK
6
CONTINUOUS
10
2.4686499999999998
20
1.3044199999999999
11
2.454364
21
1.332992
0
LINE
8
BLACK
6
CONTINUOUS
10
2.454364
20
1.332992
11
2.454364
21
1.418706
0
LINE
8
BLACK
6
CONTINUOUS
10
2.454364
20
1.418706
11
2.4686499999999998
21
1.4472769999999999
0
LINE
8
BLACK
6
CONTINUOUS
10
2.4686499999999998
20
1.4472769999999999
11
2.482936
21
1.4615629999999999
0
LINE
8
BLACK
6
CONTINUOUS
10
2.482936
20
1.4615629999999999
11
2.5115069999999999
21
1.475849
0
LINE
8
BLACK
6
CONTINUOUS
10
2.5115069999999999
20
1.475849
11
2.5686499999999999
21
1.475849
0
LINE
8
BLACK
6
CONTINUOUS
10
2.5686499999999999
20
1.475849
11
2.5972219999999999
21
1.4615629999999999
0
LINE
8
BLACK
6
CONTINUOUS
10
2.954364
20
1.547277
11
2.9686499999999998
21
1.561563
0
LINE
8
BLACK
6
CONTINUOUS
10
2.9686499999999998
20
1.561563
11
2.9972219999999998
21
1.5758489999999998
0
LINE
8
BLACK
6
CONTINUOUS
10
2.9972219999999998
20
1.5758489999999998
11
3.0686499999999999
21
1.5758489999999998
0
LINE
8
BLACK
6
CONTINUOUS
10
3.0686499999999999
20
1.5758489999999998
11
3.0972219999999999
21
1.561563
0
LINE
8
BLACK
6
CONTINUOUS
10
3.0972219999999999
20
1.561563
11
3.111507
21
1.547277
0
LINE
8
BLACK
6
CONTINUOUS
10
3.111507
20
1.547277
11
3.1257929999999998
21
1.5187059999999999
0
LINE
8
BLACK
6
CONTINUOUS
10
3.1257929999999998
20
1.5187059999999999
11
3.1257929999999998
21
1.4901339999999998
0
LINE
8
BLACK
6
CONTINUOUS
10
3.1257929999999998
20
1.4901339999999998
11
3.111507
21
1.4472769999999999
0
LINE
8
BLACK
6
CONTINUOUS
10
3.111507
20
1.4472769999999999
11
2.9400789999999999
21
1.275849
0
LINE
8
BLACK
6
CONTINUOUS
10
2.9400789999999999
20
1.275849
11
3.1257929999999998
21
1.275849
0
LINE
8
BLACK
6
CONTINUOUS
10
3.2543639999999998
20
1.275849
11
3.2543639999999998
21
1.475849
0
LINE
8
BLACK
6
CONTINUOUS
10
3.2543639999999998
20
1.4472769999999999
11
3.2686500000000001
21
1.4615629999999999
0
LINE
8
BLACK
6
CONTINUOUS
10
3.2686500000000001
20
1.4615629999999999
11
3.297221
21
1.475849
0
LINE
8
BLACK
6
CONTINUOUS
10
3.297221
20
1.475849
11
3.3400779999999997
21
1.475849
0
LINE
8
BLACK
6
CONTINUOUS
10
3.3400779999999997
20
1.475849
11
3.3686499999999997
21
1.4615629999999999
0
LINE
8
BLACK
6
CONTINUOUS
10
3.3686499999999997
20
1.4615629999999999
11
3.3829359999999999
21
1.432992
0
LINE
8
BLACK
6
CONTINUOUS
10
3.3829359999999999
20
1.432992
11
3.3829359999999999
21
1.275849
0
LINE
8
BLACK
6
CONTINUOUS
10
3.3829359999999999
20
1.432992
11
3.397221
21
1.4615629999999999
0
LINE
8
BLACK
6
CONTINUOUS
10
3.397221
20
1.4615629999999999
11
3.4257929999999996
21
1.475849
0
LINE
8
BLACK
6
CONTINUOUS
10
3.4257929999999996
20
1.475849
11
3.4686499999999998
21
1.475849
0
LINE
8
BLACK
6
CONTINUOUS
10
3.4686499999999998
20
1.475849
11
3.4972209999999997
21
1.4615629999999999
0
LINE
8
BLACK
6
CONTINUOUS
10
3.4972209999999997
20
1.4615629999999999
11
3.5115069999999999
21
1.432992
0
LINE
8
BLACK
6
CONTINUOUS
10
3.5115069999999999
20
1.432992
11
3.5115069999999999
21
1.275849
0
LINE
8
BLACK
6
CONTINUOUS
10
3.6543639999999997
20
1.275849
11
3.6543639999999997
21
1.475849
0
LINE
8
BLACK
6
CONTINUOUS
10
3.6543639999999997
20
1.4472769999999999
11
3.66865
21
1.4615629999999999
0
LINE
8
BLACK
6
CONTINUOUS
10
3.66865
20
1.4615629999999999
11
3.6972209999999999
21
1.475849
0
LINE
8
BLACK
6
CONTINUOUS
10
3.6972209999999999
20
1.475849
11
3.740078
21
1.475849
0
LINE
8
BLACK
6
CONTINUOUS
10
3.740078
20
1.475849
11
3.7686499999999996
21
1.4615629999999999
0
LINE
8
BLACK
6
CONTINUOUS
10
3.7686499999999996
20
1.4615629999999999
11
3.7829359999999999
21
1.432992
0
LINE
8
BLACK
6
CONTINUOUS
10
3.7829359999999999
20
1.432992
11
3.7829359999999999
21
1.275849
0
LINE
8
BLACK
6
CONTINUOUS
10
3.7829359999999999
20
1.432992
11
3.797221
21
1.4615629999999999
0
LINE
8
BLACK
6
CONTINUOUS
10
3.797221
20
1.4615629999999999
11
3.825793
21
1.475849
0
LINE
8
BLACK
6
CONTINUOUS
10
3.825793
20
1.475849
11
3.8686499999999997
21
1.475849
0
LINE
8
BLACK
6
CONTINUOUS
10
3.8686499999999997
20
1.475849
11
3.8972209999999996
21
1.4615629999999999
0
LINE
8
BLACK
6
CONTINUOUS
10
3.8972209999999996
20
1.4615629999999999
11
3.9115069999999998
21
1.432992
0
LINE
8
BLACK
6
CONTINUOUS
10
3.9115069999999998
20
1.432992
11
3.9115069999999998
21
1.275849
0
LINE
8
BLACK
6
CONTINUOUS
10
0.468651
20
1.0928659999999999
11
0.668651
21
1.0928659999999999
0
LINE
8
BLACK
6
CONTINUOUS
10
0.668651
20
1.0928659999999999
11
0.468651
21
0.792866
0
LINE
8
BLACK
6
CONTINUOUS
10
0.468651
20
0.792866
11
0.668651
21
0.792866
0
LINE
8
BLACK
6
CONTINUOUS
10
0.782936
20
0.9071509999999999
11
1.0115079999999999
21
0.9071509999999999
0
LINE
8
BLACK
6
CONTINUOUS
10
1.282937
20
0.792866
11
1.282937
21
0.950009
0
LINE
8
BLACK
6
CONTINUOUS
10
1.282937
20
0.950009
11
1.268651
21
0.97858
0
LINE
8
BLACK
6
CONTINUOUS
10
1.268651
20
0.97858
11
1.2400789999999999
21
0.9928659999999999
0
LINE
8
BLACK
6
CONTINUOUS
10
1.2400789999999999
20
0.9928659999999999
11
1.1829369999999999
21
0.9928659999999999
0
LINE
8
BLACK
6
CONTINUOUS
10
1.1829369999999999
20
0.9928659999999999
11
1.1543649999999999
21
0.97858
0
LINE
8
BLACK
6
CONTINUOUS
10
1.282937
20
0.807151
11
1.254365
21
0.792866
0
LINE
8
BLACK
6
CONTINUOUS
10
1.254365
20
0.792866
11
1.1829369999999999
21
0.792866
0
LINE
8
BLACK
6
CONTINUOUS
10
1.1829369999999999
20
0.792866
11
1.1543649999999999
21
0.807151
0
LINE
8
BLACK
6
CONTINUOUS
10
1.1543649999999999
20
0.807151
11
1.1400789999999998
21
0.835723
0
LINE
8
BLACK
6
CONTINUOUS
10
1.1400789999999998
20
0.835723
11
1.1400789999999998
21
0.864294
0
LINE
8
BLACK
6
CONTINUOUS
10
1.1400789999999998
20
0.864294
11
1.1543649999999999
21
0.8928659999999999
0
LINE
8
BLACK
6
CONTINUOUS
10
1.1543649999999999
20
0.8928659999999999
11
1.1829369999999999
21
0.9071509999999999
0
LINE
8
BLACK
6
CONTINUOUS
10
1.1829369999999999
20
0.9071509999999999
11
1.254365
21
0.9071509999999999
0
LINE
8
BLACK
6
CONTINUOUS
10
1.254365
20
0.9071509999999999
11
1.282937
21
0.921437
0
LINE
8
BLACK
6
CONTINUOUS
10
1.3972229999999999
20
0.792866
11
1.5543659999999999
21
0.9928659999999999
0
LINE
8
BLACK
6
CONTINUOUS
10
1.3972229999999999
20
0.9928659999999999
11
1.5543659999999999
21
0.792866
0
LINE
8
BLACK
6
CONTINUOUS
10
1.6686509999999999
20
0.792866
11
1.6686509999999999
21
0.9928659999999999
0
LINE
8
BLACK
6
CONTINUOUS
10
1.6686509999999999
20
1.0928659999999999
11
1.6543649999999999
21
1.0785799999999999
0
LINE
8
BLACK
6
CONTINUOUS
10
1.6543649999999999
20
1.0785799999999999
11
1.6686509999999999
21
1.0642939999999999
0
LINE
8
BLACK
6
CONTINUOUS
10
1.6686509999999999
20
1.0642939999999999
11
1.6829369999999999
21
1.0785799999999999
0
LINE
8
BLACK
6
CONTINUOUS
10
1.6829369999999999
20
1.0785799999999999
11
1.6686509999999999
21
1.0928659999999999
0
LINE
8
BLACK
6
CONTINUOUS
10
1.6686509999999999
20
1.0928659999999999
11
1.6686509999999999
21
1.0642939999999999
0
LINE
8
BLACK
6
CONTINUOUS
10
1.7972219999999999
20
0.807151
11
1.8257939999999999
21
0.792866
0
LINE
8
BLACK
6
CONTINUOUS
10
1.8257939999999999
20
0.792866
11
1.8829369999999999
21
0.792866
0
LINE
8
BLACK
6
CONTINUOUS
10
1.8829369999999999
20
0.792866
11
1.911508
21
0.807151
0
LINE
8
BLACK
6
CONTINUOUS
10
1.911508
20
0.807151
11
1.925794
21
0.835723
0
LINE
8
BLACK
6
CONTINUOUS
10
1.925794
20
0.835723
11
1.925794
21
0.850009
0
LINE
8
BLACK
6
CONTINUOUS
10
1.925794
20
0.850009
11
1.911508
21
0.8785799999999999
0
LINE
8
BLACK
6
CONTINUOUS
10
1.911508
20
0.8785799999999999
11
1.8829369999999999
21
0.8928659999999999
0
LINE
8
BLACK
6
CONTINUOUS
10
1.8829369999999999
20
0.8928659999999999
11
1.8400799999999999
21
0.8928659999999999
0
LINE
8
BLACK
6
CONTINUOUS
10
1.8400799999999999
20
0.8928659999999999
11
1.8115079999999999
21
0.9071509999999999
0
LINE
8
BLACK
6
CONTINUOUS
10
1.8115079999999999
20
0.9071509999999999
11
1.7972219999999999
21
0.935723
0
LINE
8
BLACK
6
CONTINUOUS
10
1.7972219999999999
20
0.935723
11
1.7972219999999999
21
0.950009
0
LINE
8
BLACK
6
CONTINUOUS
10
1.7972219999999999
20
0.950009
11
1.8115079999999999
21
0.97858
0
LINE
8
BLACK
6
CONTINUOUS
10
1.8115079999999999
20
0.97858
11
1.8400799999999999
21
0.9928659999999999
0
LINE
8
BLACK
6
CONTINUOUS
10
1.8400799999999999
20
0.9928659999999999
11
1.8829369999999999
21
0.9928659999999999
0
LINE
8
BLACK
6
CONTINUOUS
10
1.8829369999999999
20
0.9928659999999999
11
1.911508
21
0.97858
0
LINE
8
BLACK
6
CONTINUOUS
10
2.2829359999999999
20
0.792866
11
2.2829359999999999
21
1.0928659999999999
0
LINE
8
BLACK
6
CONTINUOUS
10
2.411508
20
0.792866
11
2.411508
21
0.950009
0
LINE
8
BLACK
6
CONTINUOUS
10
2.411508
20
0.950009
11
2.3972219999999997
21
0.97858
0
LINE
8
BLACK
6
CONTINUOUS
10
2.3972219999999997
20
0.97858
11
2.3686499999999997
21
0.9928659999999999
0
LINE
8
BLACK
6
CONTINUOUS
10
2.3686499999999997
20
0.9928659999999999
11
2.325793
21
0.9928659999999999
0
LINE
8
BLACK
6
CONTINUOUS
10
2.325793
20
0.9928659999999999
11
2.2972220000000001
21
0.97858
0
LINE
8
BLACK
6
CONTINUOUS
10
2.2972220000000001
20
0.97858
11
2.2829359999999999
21
0.964294
0
LINE
8
BLACK
6
CONTINUOUS
10
2.6686509999999997
20
0.807151
11
2.6400790000000001
21
0.792866
0
LINE
8
BLACK
6
CONTINUOUS
10
2.6400790000000001
20
0.792866
11
2.5829369999999998
21
0.792866
0
LINE
8
BLACK
6
CONTINUOUS
10
2.5829369999999998
20
0.792866
11
2.5543649999999998
21
0.807151
0
LINE
8
BLACK
6
CONTINUOUS
10
2.5543649999999998
20
0.807151
11
2.540079
21
0.835723
0
LINE
8
BLACK
6
CONTINUOUS
10
2.540079
20
0.835723
11
2.540079
21
0.950009
0
LINE
8
BLACK
6
CONTINUOUS
10
2.540079
20
0.950009
11
2.5543649999999998
21
0.97858
0
LINE
8
BLACK
6
CONTINUOUS
10
2.5543649999999998
20
0.97858
11
2.5829369999999998
21
0.9928659999999999
0
LINE
8
BLACK
6
CONTINUOUS
10
2.5829369999999998
20
0.9928659999999999
11
2.6400790000000001
21
0.9928659999999999
0
LINE
8
BLACK
6
CONTINUOUS
10
2.6400790000000001
20
0.9928659999999999
11
2.6686509999999997
21
0.97858
0
LINE
8
BLACK
6
CONTINUOUS
10
2.6686509999999997
20
0.97858
11
2.6829369999999999
21
0.950009
0
LINE
8
BLACK
6
CONTINUOUS
10
2.6829369999999999
20
0.950009
11
2.6829369999999999
21
0.921437
0
LINE
8
BLACK
6
CONTINUOUS
10
2.6829369999999999
20
0.921437
11
2.540079
21
0.8928659999999999
0
LINE
8
BLACK
6
CONTINUOUS
10
2.8115079999999999
20
0.792866
11
2.8115079999999999
21
0.9928659999999999
0
LINE
8
BLACK
6
CONTINUOUS
10
2.8115079999999999
20
1.0928659999999999
11
2.7972219999999997
21
1.0785799999999999
0
LINE
8
BLACK
6
CONTINUOUS
10
2.7972219999999997
20
1.0785799999999999
11
2.8115079999999999
21
1.0642939999999999
0
LINE
8
BLACK
6
CONTINUOUS
10
2.8115079999999999
20
1.0642939999999999
11
2.8257939999999997
21
1.0785799999999999
0
LINE
8
BLACK
6
CONTINUOUS
10
2.8257939999999997
20
1.0785799999999999
11
2.8115079999999999
21
1.0928659999999999
0
LINE
8
BLACK
6
CONTINUOUS
10
2.8115079999999999
20
1.0928659999999999
11
2.8115079999999999
21
1.0642939999999999
0
LINE
8
BLACK
6
CONTINUOUS
10
3.0829369999999998
20
0.9928659999999999
11
3.0829369999999998
21
0.7500089999999999
0
LINE
8
BLACK
6
CONTINUOUS
10
3.0829369999999998
20
0.7500089999999999
11
3.068651
21
0.721437
0
LINE
8
BLACK
6
CONTINUOUS
10
3.068651
20
0.721437
11
3.0543649999999998
21
0.707151
0
LINE
8
BLACK
6
CONTINUOUS
10
3.0543649999999998
20
0.707151
11
3.0257939999999999
21
0.692866
0
LINE
8
BLACK
6
CONTINUOUS
10
3.0257939999999999
20
0.692866
11
2.9829369999999997
21
0.692866
0
LINE
8
BLACK
6
CONTINUOUS
10
2.9829369999999997
20
0.692866
11
2.9543649999999997
21
0.707151
0
LINE
8
BLACK
6
CONTINUOUS
10
3.0829369999999998
20
0.807151
11
3.0543649999999998
21
0.792866
0
LINE
8
BLACK
6
CONTINUOUS
10
3.0543649999999998
20
0.792866
11
2.9972219999999998
21
0.792866
0
LINE
8
BLACK
6
CONTINUOUS
10
2.9972219999999998
20
0.792866
11
2.9686509999999999
21
0.807151
0
LINE
8
BLACK
6
CONTINUOUS
10
2.9686509999999999
20
0.807151
11
2.9543649999999997
21
0.821437
0
LINE
8
BLACK
6
CONTINUOUS
10
2.9543649999999997
20
0.821437
11
2.9400789999999999
21
0.850009
0
LINE
8
BLACK
6
CONTINUOUS
10
2.9400789999999999
20
0.850009
11
2.9400789999999999
21
0.935723
0
LINE
8
BLACK
6
CONTINUOUS
10
2.9400789999999999
20
0.935723
11
2.9543649999999997
21
0.964294
0
LINE
8
BLACK
6
CONTINUOUS
10
2.9543649999999997
20
0.964294
11
2.9686509999999999
21
0.97858
0
LINE
8
BLACK
6
CONTINUOUS
10
2.9686509999999999
20
0.97858
11
2.9972219999999998
21
0.9928659999999999
0
LINE
8
BLACK
6
CONTINUOUS
10
2.9972219999999998
20
0.9928659999999999
11
3.0543649999999998
21
0.9928659999999999
0
LINE
8
BLACK
6
CONTINUOUS
10
3.0543649999999998
20
0.9928659999999999
11
3.0829369999999998
21
0.97858
0
LINE
8
BLACK
6
CONTINUOUS
10
3.2257940000000001
20
0.792866
11
3.2257940000000001
21
1.0928659999999999
0
LINE
8
BLACK
6
CONTINUOUS
10
3.3543659999999997
20
0.792866
11
3.3543659999999997
21
0.950009
0
LINE
8
BLACK
6
CONTINUOUS
10
3.3543659999999997
20
0.950009
11
3.3400799999999999
21
0.97858
0
LINE
8
BLACK
6
CONTINUOUS
10
3.3400799999999999
20
0.97858
11
3.3115079999999999
21
0.9928659999999999
0
LINE
8
BLACK
6
CONTINUOUS
10
3.3115079999999999
20
0.9928659999999999
11
3.2686509999999998
21
0.9928659999999999
0
LINE
8
BLACK
6
CONTINUOUS
10
3.2686509999999998
20
0.9928659999999999
11
3.2400799999999998
21
0.97858
0
LINE
8
BLACK
6
CONTINUOUS
10
3.2400799999999998
20
0.97858
11
3.2257940000000001
21
0.964294
0
LINE
8
BLACK
6
CONTINUOUS
10
3.4543659999999998
20
0.9928659999999999
11
3.5686519999999997
21
0.9928659999999999
0
LINE
8
BLACK
6
CONTINUOUS
10
3.497223
20
1.0928659999999999
11
3.497223
21
0.835723
0
LINE
8
BLACK
6
CONTINUOUS
10
3.497223
20
0.835723
11
3.5115089999999998
21
0.807151
0
LINE
8
BLACK
6
CONTINUOUS
10
3.5115089999999998
20
0.807151
11
3.5400799999999997
21
0.792866
0
LINE
8
BLACK
6
CONTINUOUS
10
3.5400799999999997
20
0.792866
11
3.5686519999999997
21
0.792866
0
ARC
8
BLACK
10
2.4499899999999997
20
-3.9199899999999999
40
7.0500100000070915
50
-89.99991873
51
-0.00008127
0
ARC
8
BLACK
10
2.4499999999999997
20
3.3300000000000001
40
7.0499999999999998
50
0.00000000
51
90.00000000
0
ARC
8
BLACK
10
0.
20
0.
40
2.
50
0.00000000
51
180.00000000
0
ARC
8
BLACK
10
-2.4500009999999999
20
-3.9200009999999996
40
7.0499990000000707
50
-180.00000813
51
-89.99999187
0
ARC
8
BLACK
10
0.
20
0.
40
2.7877999999999998
50
0.00000000
51
180.00000000
0
ARC
8
BLACK
10
-2.4500009999999999
20
3.3300009999999998
40
7.0499990000000707
50
-270.00000813
51
-179.99999187
0
LINE
8
BLACK
6
CONTINUOUS
10
9.5
20
3.3300000000000001
11
9.5
21
-3.9199999999999999
0
LINE
8
BLACK
6
CONTINUOUS
10
2.7877999999999998
20
0.
11
2.7877999999999998
21
-4.7877999999999998
0
LINE
8
BLACK
6
CONTINUOUS
10
2.4499999999999997
20
-10.9699999999999989
11
-2.4499999999999997
21
-10.9699999999999989
0
LINE
8
BLACK
6
CONTINUOUS
10
2.4499999999999997
20
10.379999999999999
11
1.5
21
10.379999999999999
0
LINE
8
BLACK
6
CONTINUOUS
10
2.
20
0.
11
2.
21
-4.
0
LINE
8
BLACK
6
CONTINUOUS
10
1.5
20
10.629999999999999
11
1.5
21
10.379999999999999
0
LINE
8
BLACK
6
CONTINUOUS
10
1.5
20
10.629999999999999
11
-1.5
21
10.629999999999999
0
LINE
8
BLACK
6
CONTINUOUS
10
-1.5
20
10.379999999999999
11
-2.4499999999999997
21
10.379999999999999
0
LINE
8
BLACK
6
CONTINUOUS
10
-1.5
20
10.629999999999999
11
-1.5
21
10.379999999999999
0
LINE
8
BLACK
6
CONTINUOUS
10
-2.
20
-4.
11
2.
21
-4.
0
LINE
8
BLACK
6
CONTINUOUS
10
-2.
20
0.
11
-2.
21
-4.
0
LINE
8
BLACK
6
CONTINUOUS
10
-2.7877999999999998
20
-4.7877999999999998
11
2.7877999999999998
21
-4.7877999999999998
0
LINE
8
BLACK
6
CONTINUOUS
10
-2.7877999999999998
20
0.
11
-2.7877999999999998
21
-4.7877999999999998
0
LINE
8
BLACK
6
CONTINUOUS
10
-9.5
20
3.3300000000000001
11
-9.5
21
-3.9199999999999999
0
LINE
8
BLACK
6
CONTINUOUS
10
9.218
20
-1.1499999999999999
11
9.218
21
-0.05
0
LINE
8
BLACK
6
CONTINUOUS
10
9.218
20
0.35
11
9.218
21
1.45
0
LINE
8
BLACK
6
CONTINUOUS
10
9.218
20
1.8499999999999999
11
9.218
21
2.9499999999999997
0
LINE
8
BLACK
6
CONTINUOUS
10
9.218
20
3.3499999999999996
11
9.218
21
4.4500000000000002
0
LINE
8
BLACK
6
CONTINUOUS
10
9.218
20
4.8499999999999996
11
9.218
21
5.8499999999999996
0
ARC
8
BLACK
10
-2.4500009999999999
20
3.3300009999999998
40
7.0499990000000707
50
-270.00000813
51
-179.99999187
0
ARC
8
BLACK
10
0.
20
0.
40
2.7877999999999998
50
0.00000000
51
180.00000000
0
ARC
8
BLACK
10
-2.4499899999999997
20
-3.9199899999999999
40
7.0500100000070915
50
-179.99991873
51
-90.00008127
0
ARC
8
BLACK
10
0.
20
0.
40
2.
50
0.00000000
51
180.00000000
0
ARC
8
BLACK
10
2.4500009999999999
20
3.3300009999999998
40
7.0499990000000707
50
-0.00000813
51
90.00000813
0
ARC
8
BLACK
10
2.4500009999999999
20
-3.9200009999999996
40
7.0499990000000707
50
-90.00000813
51
0.00000813
0
LINE
8
BLACK
6
CONTINUOUS
10
-9.5
20
3.3300000000000001
11
-9.5
21
-3.9199999999999999
0
LINE
8
BLACK
6
CONTINUOUS
10
-2.7877999999999998
20
0.
11
-2.7877999999999998
21
-4.7877999999999998
0
LINE
8
BLACK
6
CONTINUOUS
10
-2.4499999999999997
20
10.379999999999999
11
-1.5
21
10.379999999999999
0
LINE
8
BLACK
6
CONTINUOUS
10
-2.4499999999999997
20
-10.9699999999999989
11
2.4499999999999997
21
-10.9699999999999989
0
LINE
8
BLACK
6
CONTINUOUS
10
-2.
20
0.
11
-2.
21
-4.
0
LINE
8
BLACK
6
CONTINUOUS
10
-1.5
20
10.629999999999999
11
-1.5
21
10.379999999999999
0
LINE
8
BLACK
6
CONTINUOUS
10
-1.5
20
10.629999999999999
11
1.5
21
10.629999999999999
0
LINE
8
BLACK
6
CONTINUOUS
10
1.5
20
10.629999999999999
11
1.5
21
10.379999999999999
0
LINE
8
BLACK
6
CONTINUOUS
10
1.5
20
10.379999999999999
11
2.4499999999999997
21
10.379999999999999
0
LINE
8
BLACK
6
CONTINUOUS
10
2.
20
0.
11
2.
21
-4.
0
LINE
8
BLACK
6
CONTINUOUS
10
2.
20
-4.
11
-2.
21
-4.
0
LINE
8
BLACK
6
CONTINUOUS
10
2.7877999999999998
20
0.
11
2.7877999999999998
21
-4.7877999999999998
0
LINE
8
BLACK
6
CONTINUOUS
10
2.7877999999999998
20
-4.7877999999999998
11
-2.7877999999999998
21
-4.7877999999999998
0
LINE
8
BLACK
6
CONTINUOUS
10
9.5
20
3.3300000000000001
11
9.5
21
-3.9199999999999999
  0
ENDSEC
  0
EOF
