G04 #@! TF.GenerationSoftware,KiCad,Pcbnew,9.0.2*
G04 #@! TF.CreationDate,2026-01-05T13:26:24+08:00*
G04 #@! TF.ProjectId,pmw3360_fsr_fpc,706d7733-3336-4305-9f66-73725f667063,rev?*
G04 #@! TF.SameCoordinates,PX4d3f640PY69db9c0*
G04 #@! TF.FileFunction,Profile,NP*
%FSLAX46Y46*%
G04 Gerber Fmt 4.6, Leading zero omitted, Abs format (unit mm)*
G04 Created by KiCad (PCBNEW 9.0.2) date 2026-01-05 13:26:24*
%MOMM*%
%LPD*%
G01*
G04 APERTURE LIST*
G04 #@! TA.AperFunction,Profile*
%ADD10C,0.050000*%
G04 #@! TD*
G04 APERTURE END LIST*
D10*
X34077465Y12713446D02*
X50110270Y12713446D01*
X-1486827Y-771173D02*
X-696628Y-1561372D01*
X68127465Y12713446D02*
X68127465Y8713446D01*
X1332846Y1739062D02*
X2196184Y875722D01*
X68127465Y12713446D02*
X51135065Y12713446D01*
X2196184Y875722D02*
G75*
G02*
X3514232Y-2306255I-3181984J-3182022D01*
G01*
X-1027999Y-5133069D02*
X-520892Y-4625962D01*
X3514200Y-7779516D02*
G75*
G02*
X2014200Y-9279500I-1500000J16D01*
G01*
X1186400Y4656026D02*
G75*
G02*
X1815803Y5138965I500000J-26D01*
G01*
X-1486827Y-771173D02*
G75*
G02*
X-2658432Y2057254I2828427J2828473D01*
G01*
X8640060Y3310439D02*
X1815810Y5138989D01*
X68127465Y8713446D02*
X53599530Y8713446D01*
X1186400Y2092615D02*
X1186400Y4656026D01*
X-10304588Y-5279516D02*
X-1381553Y-5279516D01*
X-2658400Y2057254D02*
X-2658400Y4614443D01*
X-10304588Y-5279516D02*
X-10304588Y-9279516D01*
X8640060Y3310439D02*
X9675336Y7174143D01*
X-10304588Y-9279516D02*
X2014200Y-9279516D01*
X-374446Y-4272409D02*
G75*
G02*
X-520885Y-4625969I-500054J9D01*
G01*
X9675336Y7174143D02*
X3006286Y8961109D01*
X34077465Y8713446D02*
X52546599Y8713446D01*
X-696628Y-1561372D02*
G75*
G02*
X-374425Y-2339189I-777772J-777828D01*
G01*
X3514200Y-2306255D02*
X3514200Y-7779516D01*
X1332846Y1739062D02*
G75*
G02*
X1186410Y2092615I353554J353538D01*
G01*
X50114668Y12721446D02*
G75*
G02*
X51135117Y12713474I508032J-284646D01*
G01*
X-1027999Y-5133069D02*
G75*
G02*
X-1381553Y-5279545I-353601J353569D01*
G01*
X53599531Y8713446D02*
G75*
G02*
X52546599Y8713446I-526466J248797D01*
G01*
X34077465Y8713446D02*
X34077465Y12713446D01*
X-2658400Y4614443D02*
G75*
G02*
X3006284Y8961102I4500050J-73D01*
G01*
X-374446Y-2339189D02*
X-374446Y-4272409D01*
M02*
