G04 #@! TF.GenerationSoftware,KiCad,Pcbnew,9.0.2*
G04 #@! TF.CreationDate,2026-01-05T13:26:24+08:00*
G04 #@! TF.ProjectId,pmw3360_fsr_fpc,706d7733-3336-4305-9f66-73725f667063,rev?*
G04 #@! TF.SameCoordinates,PX4d3f640PY69db9c0*
G04 #@! TF.FileFunction,Copper,L2,Bot*
G04 #@! TF.FilePolarity,Positive*
%FSLAX46Y46*%
G04 Gerber Fmt 4.6, Leading zero omitted, Abs format (unit mm)*
G04 Created by KiCad (PCBNEW 9.0.2) date 2026-01-05 13:26:24*
%MOMM*%
%LPD*%
G01*
G04 APERTURE LIST*
G04 Aperture macros list*
%AMRotRect*
0 Rectangle, with rotation*
0 The origin of the aperture is its center*
0 $1 length*
0 $2 width*
0 $3 Rotation angle, in degrees counterclockwise*
0 Add horizontal line*
21,1,$1,$2,0,0,$3*%
G04 Aperture macros list end*
G04 #@! TA.AperFunction,SMDPad,CuDef*
%ADD10R,3.000000X0.300000*%
G04 #@! TD*
G04 #@! TA.AperFunction,SMDPad,CuDef*
%ADD11RotRect,0.300000X3.000000X255.000000*%
G04 #@! TD*
G04 #@! TA.AperFunction,ViaPad*
%ADD12C,0.800000*%
G04 #@! TD*
G04 #@! TA.AperFunction,Conductor*
%ADD13C,0.300000*%
G04 #@! TD*
G04 #@! TA.AperFunction,Conductor*
%ADD14C,0.250000*%
G04 #@! TD*
G04 APERTURE END LIST*
D10*
X66127465Y12213446D03*
X66127465Y11713446D03*
X66127465Y11213446D03*
X66127465Y10713446D03*
X66127465Y10213446D03*
X66127465Y9713446D03*
X66127465Y9213446D03*
D11*
X7614074Y7208818D03*
X7484665Y6725855D03*
X7355255Y6242892D03*
X7225846Y5759929D03*
X7096437Y5276966D03*
X6967027Y4794003D03*
X6837618Y4311040D03*
D10*
X36077465Y9213446D03*
X36077465Y9713446D03*
X36077465Y10213446D03*
X36077465Y10713446D03*
X36077465Y11213446D03*
X36077465Y11713446D03*
X36077465Y12213446D03*
X-8304588Y-8779516D03*
X-8304588Y-8279516D03*
X-8304588Y-7779516D03*
X-8304588Y-7279516D03*
X-8304588Y-6779516D03*
X-8304588Y-6279516D03*
X-8304588Y-5779516D03*
D12*
X2512131Y-8427731D03*
X-399800Y-5535200D03*
X50643414Y12438446D03*
X53073065Y8963446D03*
D13*
X-2212807Y-5779516D02*
X-8304588Y-5779516D01*
X-2212807Y-5779516D02*
X-644116Y-5779516D01*
X3106200Y-4358053D02*
X3106200Y-7212342D01*
X3106200Y-2179755D02*
X3106200Y-4358053D01*
X-644116Y-5779516D02*
X-399800Y-5535200D01*
X679400Y4657906D02*
X679400Y1903899D01*
X825846Y1550346D02*
X2081073Y295119D01*
X6837619Y4311041D02*
X1938219Y5623831D01*
X2666860Y-8273002D02*
X2512131Y-8427731D01*
X2081073Y295119D02*
G75*
G02*
X3106231Y-2179755I-2474873J-2474919D01*
G01*
X2666860Y-8273002D02*
G75*
G03*
X3106229Y-7212342I-1060660J1060702D01*
G01*
X1938219Y5623831D02*
G75*
G03*
X679395Y4657906I-258819J-965931D01*
G01*
X679400Y1903899D02*
G75*
G03*
X825847Y1550347I500000J1D01*
G01*
X64150Y-8779516D02*
X-8304588Y-8779516D01*
X178400Y4658172D02*
X178400Y1903486D01*
X6967027Y4794003D02*
X2066629Y6107061D01*
X1872967Y-8006233D02*
X1831917Y-8047283D01*
X471293Y1196379D02*
X1726520Y-58848D01*
X2605200Y-2180169D02*
X2605200Y-6238466D01*
X2066629Y6107061D02*
G75*
G03*
X178427Y4658172I-388229J-1448861D01*
G01*
X1831917Y-8047283D02*
G75*
G02*
X64150Y-8779476I-1767717J1767783D01*
G01*
X178400Y1903486D02*
G75*
G03*
X471300Y1196386I1000000J14D01*
G01*
X1726520Y-58848D02*
G75*
G02*
X2605222Y-2180169I-2121320J-2121352D01*
G01*
X1872967Y-8006233D02*
G75*
G03*
X2605176Y-6238466I-1767767J1767733D01*
G01*
D14*
X1678200Y-6268704D02*
X1678200Y-2149931D01*
X-8304588Y-7779516D02*
X167388Y-7779516D01*
X1092414Y-735718D02*
X-162613Y519309D01*
X2398647Y7053373D02*
X7225845Y5759930D01*
X1228048Y-7340176D02*
X1238860Y-7329364D01*
X-748400Y1933523D02*
X-748400Y4638559D01*
X1678200Y-2149931D02*
G75*
G03*
X1092430Y-735702I-2000000J31D01*
G01*
X167388Y-7779516D02*
G75*
G03*
X1228057Y-7340185I12J1500016D01*
G01*
X-162613Y519309D02*
G75*
G02*
X-748384Y1933523I1414213J1414191D01*
G01*
X-748400Y4638559D02*
G75*
G02*
X2398647Y7053375I2500000J1D01*
G01*
X1678200Y-6268704D02*
G75*
G02*
X1238858Y-7329362I-1500000J4D01*
G01*
X-8304588Y-8279516D02*
X98091Y-8279516D01*
X-297400Y1913226D02*
X-297400Y4651689D01*
X1512305Y-7693729D02*
X1543414Y-7662620D01*
X2129200Y-6248407D02*
X2129200Y-2170228D01*
X2220238Y6583541D02*
X7096436Y5276968D01*
X1396967Y-402461D02*
X141940Y852566D01*
X2129200Y-6248407D02*
G75*
G02*
X1543411Y-7662617I-2000000J7D01*
G01*
X141940Y852566D02*
G75*
G02*
X-297381Y1913226I1060660J1060634D01*
G01*
X2129200Y-2170228D02*
G75*
G03*
X1396981Y-402447I-2500000J28D01*
G01*
X-297400Y4651689D02*
G75*
G02*
X2220241Y6583551I2000000J11D01*
G01*
X98091Y-8279516D02*
G75*
G03*
X1512313Y-7693737I9J2000016D01*
G01*
X401331Y-6633069D02*
X629754Y-6404646D01*
X-8304588Y-6779516D02*
X47777Y-6779516D01*
X-1650400Y1974117D02*
X-1650400Y4612299D01*
X2755467Y7993040D02*
X7484665Y6725855D01*
X776200Y-6051093D02*
X776200Y-2109338D01*
X483307Y-1402231D02*
X-771721Y-147203D01*
X629754Y-6404646D02*
G75*
G03*
X776195Y-6051093I-353554J353546D01*
G01*
X401331Y-6633069D02*
G75*
G02*
X47777Y-6779495I-353531J353569D01*
G01*
X776200Y-2109338D02*
G75*
G03*
X483326Y-1402212I-1000000J38D01*
G01*
X-1650400Y4612299D02*
G75*
G02*
X2755467Y7993040I3500000J1D01*
G01*
X-771721Y-147203D02*
G75*
G02*
X-1650388Y1974117I2121321J2121303D01*
G01*
X2895592Y8473132D02*
X7614074Y7208818D01*
X-8304588Y-6279516D02*
X-214223Y-6279516D01*
X139331Y-6133069D02*
X178754Y-6093646D01*
X178753Y-1735487D02*
X-1114558Y-442176D01*
X325200Y-5740093D02*
X325200Y-2089041D01*
X-2139684Y2032697D02*
X-2139684Y4609428D01*
X325200Y-5740093D02*
G75*
G02*
X178757Y-6093649I-500000J-7D01*
G01*
X-214223Y-6279516D02*
G75*
G03*
X139346Y-6133084I23J500016D01*
G01*
X325200Y-2089041D02*
G75*
G03*
X178773Y-1735467I-500000J41D01*
G01*
X-2139684Y4609428D02*
G75*
G02*
X2895594Y8473138I4000004J2D01*
G01*
X-1114558Y-442176D02*
G75*
G02*
X-2139690Y2032697I2474858J2474876D01*
G01*
X2577057Y7523206D02*
X7355255Y6242892D01*
X787860Y-1068974D02*
X-467167Y186053D01*
X-1199400Y1953820D02*
X-1199400Y4625429D01*
X1227200Y-6205786D02*
X1227200Y-2129634D01*
X-8304588Y-7279516D02*
X153470Y-7279516D01*
X860577Y-6986623D02*
X934307Y-6912893D01*
X-467167Y186053D02*
G75*
G02*
X-1199386Y1953820I1767767J1767747D01*
G01*
X1227200Y-2129634D02*
G75*
G03*
X787877Y-1068957I-1500000J34D01*
G01*
X934307Y-6912893D02*
G75*
G03*
X1227190Y-6205786I-707107J707093D01*
G01*
X-1199400Y4625429D02*
G75*
G02*
X2577050Y7523179I3000000J-29D01*
G01*
X860577Y-6986623D02*
G75*
G02*
X153470Y-7279490I-707077J707123D01*
G01*
X52175065Y10713446D02*
X66127465Y10713446D01*
X51675065Y10213446D02*
X52175065Y10713446D01*
X36077465Y10213446D02*
X51675065Y10213446D01*
X36077465Y10713446D02*
X51362265Y10713446D01*
X51362265Y10713446D02*
X51862265Y11213446D01*
X51862265Y11213446D02*
X66127465Y11213446D01*
X66127465Y11713446D02*
X51689560Y11713446D01*
X51189560Y11213446D02*
X36077465Y11213446D01*
X51689560Y11713446D02*
X51189560Y11213446D01*
X66127465Y10213446D02*
X52383899Y10213446D01*
X52383899Y10213446D02*
X51883899Y9713446D01*
X51883899Y9713446D02*
X36077465Y9713446D01*
X51551750Y12213446D02*
X66127465Y12213446D01*
X51051750Y11713446D02*
X51551750Y12213446D01*
X36077465Y11713446D02*
X51051750Y11713446D01*
D13*
X66127465Y9213446D02*
X53323065Y9213446D01*
X36077465Y12213446D02*
X50418414Y12213446D01*
X53323065Y9213446D02*
X53073065Y8963446D01*
X50418414Y12213446D02*
X50643414Y12438446D01*
X52105065Y9213446D02*
X36077465Y9213446D01*
X52605065Y9713446D02*
X52105065Y9213446D01*
X66127465Y9713446D02*
X52605065Y9713446D01*
G04 #@! TA.AperFunction,Conductor*
G36*
X1777322Y5802619D02*
G01*
X1797847Y5800659D01*
X1970529Y5769503D01*
X1980560Y5767259D01*
X2029533Y5754136D01*
X2029534Y5754137D01*
X6756537Y4487539D01*
X6816196Y4451175D01*
X6846725Y4388328D01*
X6844217Y4335672D01*
X6830888Y4285927D01*
X6794523Y4226266D01*
X6731676Y4195737D01*
X6679019Y4198245D01*
X4866943Y4683791D01*
X4854467Y4676587D01*
X4836915Y4647792D01*
X4774068Y4617264D01*
X4721413Y4619773D01*
X1821277Y5396861D01*
X1820719Y5396954D01*
X1806570Y5400737D01*
X1806569Y5400738D01*
X1806566Y5400738D01*
X1653503Y5409653D01*
X1653494Y5409652D01*
X1653493Y5409652D01*
X1577635Y5398541D01*
X1501776Y5387429D01*
X1501768Y5387427D01*
X1357698Y5334991D01*
X1357688Y5334986D01*
X1227180Y5254491D01*
X1227176Y5254488D01*
X1115646Y5149269D01*
X1027688Y5023660D01*
X966954Y4882876D01*
X966954Y4882874D01*
X935939Y4732706D01*
X935932Y4718124D01*
X935926Y4705917D01*
X935900Y4705854D01*
X935900Y4656103D01*
X935900Y4656032D01*
X935897Y4600058D01*
X935900Y4600027D01*
X935900Y2031191D01*
X935897Y2031191D01*
X935909Y2031144D01*
X935909Y2018703D01*
X964744Y1873717D01*
X964746Y1873709D01*
X1009735Y1765089D01*
X1021317Y1737127D01*
X1021320Y1737123D01*
X1103444Y1614207D01*
X1103449Y1614201D01*
X1113410Y1604239D01*
X1120481Y1597168D01*
X1120482Y1597166D01*
X1155711Y1561937D01*
X1155712Y1561935D01*
X1204380Y1513266D01*
X1204386Y1513262D01*
X2017122Y700523D01*
X2020863Y696616D01*
X2265858Y429254D01*
X2267450Y426008D01*
X2272811Y420967D01*
X2491897Y135453D01*
X2498102Y126592D01*
X2691475Y-176939D01*
X2696884Y-186307D01*
X2863068Y-505536D01*
X2867640Y-515340D01*
X3005369Y-847841D01*
X3009069Y-858006D01*
X3069627Y-1050067D01*
X3117296Y-1201247D01*
X3120095Y-1211696D01*
X3197991Y-1563048D01*
X3199870Y-1573701D01*
X3246850Y-1930520D01*
X3247793Y-1941297D01*
X3263582Y-2302845D01*
X3263290Y-2304027D01*
X3263700Y-2308255D01*
X3263700Y-7774636D01*
X3263318Y-7784366D01*
X3249080Y-7965248D01*
X3246036Y-7984466D01*
X3204819Y-8156142D01*
X3198805Y-8174648D01*
X3131243Y-8337751D01*
X3122410Y-8355087D01*
X3030162Y-8505621D01*
X3018725Y-8521363D01*
X2904063Y-8655613D01*
X2890304Y-8669372D01*
X2756053Y-8784032D01*
X2740311Y-8795469D01*
X2589778Y-8887715D01*
X2572442Y-8896548D01*
X2409330Y-8964111D01*
X2390824Y-8970124D01*
X2219154Y-9011338D01*
X2199936Y-9014382D01*
X2062929Y-9025164D01*
X2018848Y-9028634D01*
X2009124Y-9029016D01*
X1462125Y-9029016D01*
X1395086Y-9009331D01*
X1349331Y-8956527D01*
X1339387Y-8887369D01*
X1368412Y-8823813D01*
X1403669Y-8795659D01*
X1531358Y-8727412D01*
X1531367Y-8727406D01*
X1531375Y-8727401D01*
X1618224Y-8669372D01*
X1764231Y-8571817D01*
X1980732Y-8394147D01*
X2047126Y-8327754D01*
X2047129Y-8327753D01*
X2071349Y-8303531D01*
X2071354Y-8303529D01*
X2085249Y-8289634D01*
X2085319Y-8289595D01*
X2120826Y-8254087D01*
X2120827Y-8254088D01*
X2219847Y-8155067D01*
X2397522Y-7938565D01*
X2553120Y-7705691D01*
X2685143Y-7458686D01*
X2792320Y-7199931D01*
X2873618Y-6931916D01*
X2928254Y-6657223D01*
X2955702Y-6378498D01*
X2955700Y-6238461D01*
X2955700Y-6210940D01*
X2955700Y-2235682D01*
X2955701Y-2235679D01*
X2955700Y-2231553D01*
X2955721Y-2231482D01*
X2955721Y-2180165D01*
X2955722Y-2180165D01*
X2955721Y-2015565D01*
X2923450Y-1687951D01*
X2859223Y-1365077D01*
X2811089Y-1206405D01*
X2763664Y-1050067D01*
X2763663Y-1050065D01*
X2763661Y-1050061D01*
X2763659Y-1050053D01*
X2637676Y-745913D01*
X2482490Y-455586D01*
X2302561Y-186307D01*
X2299600Y-181875D01*
X2299596Y-181871D01*
X2299594Y-181867D01*
X2195172Y-54630D01*
X2090755Y72601D01*
X2090745Y72612D01*
X1974359Y188995D01*
X765458Y1397896D01*
X765452Y1397903D01*
X758386Y1404968D01*
X758386Y1404969D01*
X738758Y1424596D01*
X723444Y1439910D01*
X715282Y1448914D01*
X646099Y1533212D01*
X632600Y1553414D01*
X628045Y1561935D01*
X609214Y1597166D01*
X584089Y1644171D01*
X574787Y1666628D01*
X553401Y1737127D01*
X544917Y1765092D01*
X540175Y1788930D01*
X529497Y1897330D01*
X528900Y1909486D01*
X528900Y4602662D01*
X528901Y4602665D01*
X528900Y4653018D01*
X529330Y4663332D01*
X543951Y4838490D01*
X547369Y4858824D01*
X589557Y5024125D01*
X596305Y5043619D01*
X603688Y5060309D01*
X665315Y5199623D01*
X675196Y5217720D01*
X769130Y5360132D01*
X781870Y5376333D01*
X898118Y5501194D01*
X913382Y5515069D01*
X1048718Y5618917D01*
X1066071Y5630070D01*
X1216752Y5710037D01*
X1235711Y5718156D01*
X1397583Y5772032D01*
X1417610Y5776891D01*
X1586169Y5803177D01*
X1606744Y5804648D01*
X1777322Y5802619D01*
G37*
G04 #@! TD.AperFunction*
G04 #@! TA.AperFunction,Conductor*
G36*
X-41442Y-4631547D02*
G01*
X-4720Y-4690989D01*
X-300Y-4723800D01*
X-300Y-5731975D01*
X-1361Y-5748159D01*
X-4114Y-5769072D01*
X-12492Y-5800341D01*
X-17432Y-5812267D01*
X-33617Y-5840300D01*
X-46439Y-5857010D01*
X-57125Y-5869197D01*
X-62159Y-5874231D01*
X-62160Y-5874232D01*
X-85074Y-5897145D01*
X-97269Y-5907840D01*
X-114006Y-5920682D01*
X-142049Y-5936870D01*
X-153969Y-5941806D01*
X-185229Y-5950180D01*
X-206313Y-5952955D01*
X-222496Y-5954015D01*
X-256397Y-5954014D01*
X-265762Y-5954014D01*
X-265763Y-5954014D01*
X-275742Y-5954014D01*
X-275766Y-5954016D01*
X-6228726Y-5954016D01*
X-6253011Y-5946885D01*
X-6278129Y-5943750D01*
X-6289087Y-5936292D01*
X-6295765Y-5934331D01*
X-6299937Y-5929516D01*
X-6773672Y-5929516D01*
X-6783850Y-5929016D01*
X-6784840Y-5929016D01*
X-8180588Y-5929016D01*
X-8189274Y-5926465D01*
X-8198235Y-5927754D01*
X-8222276Y-5916775D01*
X-8247627Y-5909331D01*
X-8253555Y-5902490D01*
X-8261791Y-5898729D01*
X-8276081Y-5876494D01*
X-8293382Y-5856527D01*
X-8295670Y-5846012D01*
X-8299565Y-5839951D01*
X-8304588Y-5805016D01*
X-8304588Y-5753516D01*
X-8284903Y-5686477D01*
X-8232099Y-5640722D01*
X-8180588Y-5629516D01*
X-6304588Y-5629516D01*
X-6301634Y-5626561D01*
X-6300195Y-5621302D01*
X-6290244Y-5605164D01*
X-6284903Y-5586977D01*
X-6272286Y-5576044D01*
X-6263521Y-5561831D01*
X-6246425Y-5553635D01*
X-6232099Y-5541222D01*
X-6210919Y-5536614D01*
X-6200517Y-5531628D01*
X-6192563Y-5532620D01*
X-6180588Y-5530016D01*
X-1436558Y-5530016D01*
X-1436502Y-5530020D01*
X-1432946Y-5530020D01*
X-1432851Y-5530047D01*
X-1381529Y-5530043D01*
X-1381529Y-5530044D01*
X-1307612Y-5530038D01*
X-1271818Y-5522914D01*
X-1162627Y-5501187D01*
X-1162625Y-5501185D01*
X-1162620Y-5501185D01*
X-1026042Y-5444601D01*
X-1026036Y-5444597D01*
X-903134Y-5362467D01*
X-903131Y-5362465D01*
X-903130Y-5362463D01*
X-903126Y-5362461D01*
X-860858Y-5320188D01*
X-383590Y-4842918D01*
X-380010Y-4839344D01*
X-379986Y-4839330D01*
X-343745Y-4803086D01*
X-343744Y-4803087D01*
X-291480Y-4750819D01*
X-227404Y-4654911D01*
X-173795Y-4610107D01*
X-104471Y-4601396D01*
X-41442Y-4631547D01*
G37*
G04 #@! TD.AperFunction*
G04 #@! TA.AperFunction,Conductor*
G36*
X66070504Y9343261D02*
G01*
X66116259Y9290457D01*
X66127465Y9238946D01*
X66127465Y9187446D01*
X66107780Y9120407D01*
X66054976Y9074652D01*
X66003465Y9063446D01*
X64127465Y9063446D01*
X64117280Y9053262D01*
X64107780Y9020907D01*
X64054976Y8975152D01*
X64003465Y8963946D01*
X53633164Y8963946D01*
X53623002Y8966725D01*
X53589241Y8963946D01*
X53549700Y8963946D01*
X53539894Y8959885D01*
X53534960Y8959478D01*
X53499261Y8943056D01*
X53497035Y8942133D01*
X53497032Y8942131D01*
X53457636Y8925812D01*
X53457630Y8925809D01*
X53422530Y8890710D01*
X53391921Y8860412D01*
X53391639Y8859819D01*
X53387166Y8855345D01*
X53377237Y8831374D01*
X53364822Y8808528D01*
X53324054Y8749294D01*
X53321948Y8747098D01*
X53321379Y8745557D01*
X53296490Y8720532D01*
X53243577Y8680696D01*
X53208315Y8662159D01*
X53145499Y8641157D01*
X53106182Y8634758D01*
X53039948Y8634758D01*
X53000630Y8641157D01*
X52937811Y8662160D01*
X52935118Y8663576D01*
X52933482Y8663697D01*
X52902552Y8680696D01*
X52849639Y8720532D01*
X52822076Y8749293D01*
X52781304Y8808531D01*
X52768888Y8831380D01*
X52758963Y8855343D01*
X52754491Y8859815D01*
X52754209Y8860412D01*
X52723402Y8890904D01*
X52688496Y8925810D01*
X52648988Y8942174D01*
X52648515Y8942372D01*
X52646612Y8943172D01*
X52611170Y8959478D01*
X52606998Y8959822D01*
X52594150Y8965222D01*
X52573581Y8981974D01*
X52550861Y8995668D01*
X52546911Y9003696D01*
X52539975Y9009345D01*
X52531728Y9034559D01*
X52520018Y9058362D01*
X52521035Y9067251D01*
X52518255Y9075752D01*
X52524947Y9101419D01*
X52527966Y9127778D01*
X52534259Y9137127D01*
X52535885Y9143361D01*
X52542656Y9149601D01*
X52554511Y9167211D01*
X52713930Y9326630D01*
X52775251Y9360112D01*
X52801609Y9362946D01*
X66003465Y9362946D01*
X66070504Y9343261D01*
G37*
G04 #@! TD.AperFunction*
G04 #@! TA.AperFunction,Conductor*
G36*
X50656626Y12764530D02*
G01*
X50693828Y12758512D01*
X50753508Y12739202D01*
X50754956Y12738475D01*
X50755801Y12738435D01*
X50787183Y12722288D01*
X50838310Y12685939D01*
X50865347Y12659691D01*
X50889978Y12627131D01*
X50901829Y12611465D01*
X50917497Y12584112D01*
X50922701Y12571549D01*
X50922703Y12571547D01*
X50928112Y12563452D01*
X50928895Y12564071D01*
X50935627Y12555567D01*
X50935628Y12555566D01*
X50935629Y12555565D01*
X50960423Y12533527D01*
X50965704Y12528546D01*
X50993168Y12501082D01*
X51000201Y12498169D01*
X51001655Y12496876D01*
X51040906Y12481309D01*
X51041774Y12480950D01*
X51041775Y12480949D01*
X51094583Y12459074D01*
X51148986Y12415232D01*
X51171049Y12348937D01*
X51153769Y12281238D01*
X51134809Y12256833D01*
X50953242Y12075265D01*
X50891919Y12041780D01*
X50865561Y12038946D01*
X38153327Y12038946D01*
X38129042Y12046077D01*
X38103924Y12049212D01*
X38092966Y12056670D01*
X38086288Y12058631D01*
X38082116Y12063446D01*
X37608381Y12063446D01*
X37598203Y12063946D01*
X37597213Y12063946D01*
X36201465Y12063946D01*
X36192779Y12066497D01*
X36183818Y12065208D01*
X36159777Y12076187D01*
X36134426Y12083631D01*
X36128498Y12090472D01*
X36120262Y12094233D01*
X36105972Y12116468D01*
X36088671Y12136435D01*
X36086383Y12146950D01*
X36082488Y12153011D01*
X36077465Y12187946D01*
X36077465Y12239446D01*
X36097150Y12306485D01*
X36149954Y12352240D01*
X36201465Y12363446D01*
X38077465Y12363446D01*
X38080419Y12366401D01*
X38081858Y12371660D01*
X38091809Y12387798D01*
X38097150Y12405985D01*
X38109767Y12416918D01*
X38118532Y12431131D01*
X38135628Y12439327D01*
X38149954Y12451740D01*
X38171134Y12456348D01*
X38181536Y12461334D01*
X38189490Y12460342D01*
X38201465Y12462946D01*
X50160096Y12462946D01*
X50160098Y12462946D01*
X50252167Y12501082D01*
X50311187Y12560103D01*
X50311613Y12560469D01*
X50311688Y12560604D01*
X50322634Y12571549D01*
X50328452Y12585597D01*
X50345296Y12614480D01*
X50383566Y12663458D01*
X50411006Y12689276D01*
X50462696Y12724823D01*
X50496627Y12741208D01*
X50556614Y12759587D01*
X50593896Y12765021D01*
X50656626Y12764530D01*
G37*
G04 #@! TD.AperFunction*
M02*
