  0
SECTION
  2
HEADER
  9
$ANGBASE
  50
0.0
  9
$ANGDIR
  70
1
  9
$MEASUREMENT
  70
1
  0
ENDSEC
  0
SECTION
  2
TABLES
  0
TABLE
  2
LTYPE
  70
4
  0
LTYPE
  5
40F
  2
CONTINUOUS
  70
0
  3
Solid line
  72
65
  73
0
  40
0.0
  0
LTYPE
  5
410
  2
DASHDOT
 70
0
  3
Dash Dot ____ _ ____ _
 72
65
 73
4
 40
2.0
 49
1.25
 49
-0.25
 49
0.25
 49
-0.25
  0
LTYPE
  5
411
  2
DASHED
 70
0
  3
Dashed __ __ __ __ __
 72
65
 73
2
 40
0.75
 49
0.5
 49
-0.25
  0
LTYPE
  5
43B
  2
DOTTED
 70
0
  3
Dotted .  .  .  .
 72
65
 73
2
 40
0.2
 49
0.0
 49
-0.2
  0
ENDTAB
  0
TABLE
  2
STYLE
  70
4
  0
STYLE
  2
KICAD
  70
0
  40
0
  41
1
  42
1
  50
0
  71
0
  3
isocp.shx
  0
STYLE
  2
KICADB
  70
0
  40
0
  41
1
  42
1
  50
0
  71
0
  3
isocp.shx
  0
STYLE
  2
KICADI
  70
0
  40
0
  41
1
  42
1
  50
15
  71
0
  3
isocp.shx
  0
STYLE
  2
KICADBI
  70
0
  40
0
  41
1
  42
1
  50
15
  71
0
  3
isocp.shx
  0
ENDTAB
  0
TABLE
  2
LAYER
  70
1
  0
LAYER
  2
BLACK
  70
0
  62
7
  6
CONTINUOUS
  0
ENDTAB
  0
ENDSEC
  0
SECTION
  2
ENTITIES
0
ARC
8
BLACK
10
289.107
20
-332.946
40
0.77964
50
-94.5198
51
-2.56036
0
LINE
8
BLACK
6
CONTINUOUS
10
292.212
20
-315.607
11
296.888
21
-316.016
0
LINE
8
BLACK
6
CONTINUOUS
10
297.142
20
-260.04
11
285.707
21
-260.04
0
LINE
8
BLACK
6
CONTINUOUS
10
205.041
20
-305.145
11
198.271
21
-306.95
0
LINE
8
BLACK
6
CONTINUOUS
10
189.555
20
-326.772
11
195.999
21
-344.464
0
ARC
8
BLACK
10
217.054
20
-256.47
40
1.08103
50
-91.2983
51
2.24612
0
LINE
8
BLACK
6
CONTINUOUS
10
87.202
20
-260.04
11
75.7675
21
-260.04
0
LINE
8
BLACK
6
CONTINUOUS
10
167.106
20
-258.671
11
167.106
21
-304.129
0
LINE
8
BLACK
6
CONTINUOUS
10
155.879
20
-257.551
11
165.986
21
-257.551
0
LINE
8
BLACK
6
CONTINUOUS
10
83.8637
20
-333.723
11
140.69
21
-328.615
0
ARC
8
BLACK
10
73.9687
20
-277.207
40
0.799196
50
-77.4838
51
2.33759
0
ARC
8
BLACK
10
141.071
20
-335.021
40
0.716615
50
-196.962
51
-100.179
0
ARC
8
BLACK
10
181.746
20
-326.329
40
1.66776
50
-15.4256
51
46.3829
0
LINE
8
BLACK
6
CONTINUOUS
10
74.7672
20
-261.101
11
74.7672
21
-277.174
0
ARC
8
BLACK
10
168.122
20
-304.161
40
1.01653
50
-181.789
51
-104.472
0
ARC
8
BLACK
10
72.7768
20
-278.931
40
0.761295
50
-261.84
51
-172.95
0
ARC
8
BLACK
10
83.8023
20
-332.946
40
0.779777
50
-177.429
51
-85.4906
0
ARC
8
BLACK
10
176.129
20
-344.229
40
0.815519
50
-114.378
51
-16.7337
0
ARC
8
BLACK
10
75.8196
20
-261.091
40
1.05239
50
-267.163
51
-179.446
0
LINE
8
BLACK
6
CONTINUOUS
10
174.638
20
-306.95
11
167.868
21
-305.145
0
LINE
8
BLACK
6
CONTINUOUS
10
176.91
20
-344.464
11
183.354
21
-326.772
0
LINE
8
BLACK
6
CONTINUOUS
10
76.0215
20
-316.016
11
80.697
21
-315.607
0
ARC
8
BLACK
10
174.549
20
-307.33
40
0.390032
50
-19.1964
51
76.818
0
ARC
8
BLACK
10
153.732
20
-255.54
40
1.04271
50
-2.24799
51
89.2855
0
ARC
8
BLACK
10
80.7967
20
-316.372
40
0.770886
50
1.83167
51
97.4305
0
LINE
8
BLACK
6
CONTINUOUS
10
89.4114
20
-254.497
11
153.745
21
-254.497
0
ARC
8
BLACK
10
89.3858
20
-255.577
40
1.07991
50
-271.359
51
-177.751
0
ARC
8
BLACK
10
75.9289
20
-315.267
40
0.754849
50
-178.167
51
-82.9559
0
LINE
8
BLACK
6
CONTINUOUS
10
81.5672
20
-316.347
11
83.0233
21
-332.981
0
LINE
8
BLACK
6
CONTINUOUS
10
74.1419
20
-277.987
11
72.6687
21
-278.178
0
ARC
8
BLACK
10
174.872
20
-314.794
40
1.86689
50
-192.48
51
-137.01
0
LINE
8
BLACK
6
CONTINUOUS
10
154.774
20
-256.428
11
154.774
21
-255.581
0
ARC
8
BLACK
10
155.854
20
-256.47
40
1.08091
50
-182.253
51
-88.6946
0
LINE
8
BLACK
6
CONTINUOUS
10
173.507
20
-316.067
11
182.896
21
-325.121
0
LINE
8
BLACK
6
CONTINUOUS
10
159.232
20
-338.927
11
140.944
21
-335.727
0
ARC
8
BLACK
10
166.014
20
-258.643
40
1.09227
50
-1.45664
51
91.4683
0
LINE
8
BLACK
6
CONTINUOUS
10
175.793
20
-344.972
11
159.232
21
-338.927
0
ARC
8
BLACK
10
87.2266
20
-258.96
40
1.0809
50
-91.3058
51
2.25366
0
LINE
8
BLACK
6
CONTINUOUS
10
72.0212
20
-279.025
11
75.1745
21
-315.291
0
ARC
8
BLACK
10
140.724
20
-329.233
40
0.618964
50
-8.46951
51
93.1966
0
LINE
8
BLACK
6
CONTINUOUS
10
173.049
20
-314.391
11
174.917
21
-307.458
0
LINE
8
BLACK
6
CONTINUOUS
10
141.337
20
-329.324
11
140.385
21
-334.812
0
LINE
8
BLACK
6
CONTINUOUS
10
88.3067
20
-255.619
11
88.3067
21
-258.917
0
ARC
8
BLACK
10
300.132
20
-278.931
40
0.761351
50
-7.04637
51
81.835
0
ARC
8
BLACK
10
296.98
20
-315.267
40
0.754776
50
-97.05
51
-1.82748
0
ARC
8
BLACK
10
298.94
20
-277.207
40
0.799006
50
-182.35
51
-102.51
0
LINE
8
BLACK
6
CONTINUOUS
10
300.24
20
-278.178
11
298.767
21
-277.987
0
ARC
8
BLACK
10
297.09
20
-261.091
40
1.05231
50
-0.558376
51
87.1686
0
LINE
8
BLACK
6
CONTINUOUS
10
232.219
20
-328.615
11
289.045
21
-333.723
0
ARC
8
BLACK
10
283.523
20
-255.577
40
1.07985
50
-2.25257
51
91.3628
0
LINE
8
BLACK
6
CONTINUOUS
10
206.923
20
-257.551
11
217.03
21
-257.551
0
LINE
8
BLACK
6
CONTINUOUS
10
284.602
20
-258.917
11
284.602
21
-255.619
0
LINE
8
BLACK
6
CONTINUOUS
10
190.013
20
-325.121
11
199.402
21
-316.067
0
ARC
8
BLACK
10
196.78
20
-344.229
40
0.81568
50
-163.253
51
-65.6345
0
LINE
8
BLACK
6
CONTINUOUS
10
232.524
20
-334.812
11
231.572
21
-329.324
0
ARC
8
BLACK
10
204.787
20
-304.161
40
1.01674
50
-75.5186
51
1.77876
0
ARC
8
BLACK
10
292.112
20
-316.372
40
0.770861
50
82.5674
51
178.171
0
ARC
8
BLACK
10
191.163
20
-326.329
40
1.66795
50
-226.379
51
-164.578
0
ARC
8
BLACK
10
206.894
20
-258.643
40
1.09209
50
-271.478
51
-178.534
0
LINE
8
BLACK
6
CONTINUOUS
10
219.164
20
-254.497
11
283.498
21
-254.497
0
ARC
8
BLACK
10
232.185
20
-329.233
40
0.618967
50
-273.196
51
-171.531
0
LINE
8
BLACK
6
CONTINUOUS
10
297.735
20
-315.291
11
300.888
21
-279.025
0
LINE
8
BLACK
6
CONTINUOUS
10
205.803
20
-304.129
11
205.803
21
-258.671
0
ARC
8
BLACK
10
231.839
20
-335.021
40
0.716555
50
-79.8266
51
16.9674
0
LINE
8
BLACK
6
CONTINUOUS
10
231.965
20
-335.727
11
213.677
21
-338.927
0
ARC
8
BLACK
10
198.037
20
-314.794
40
1.86696
50
-42.9888
51
12.4785
0
LINE
8
BLACK
6
CONTINUOUS
10
218.135
20
-255.581
11
218.135
21
-256.428
0
ARC
8
BLACK
10
285.682
20
-258.96
40
1.0809
50
-182.253
51
-88.6945
0
LINE
8
BLACK
6
CONTINUOUS
10
298.142
20
-277.174
11
298.142
21
-261.101
0
LINE
8
BLACK
6
CONTINUOUS
10
197.992
20
-307.458
11
199.86
21
-314.391
0
LINE
8
BLACK
6
CONTINUOUS
10
289.886
20
-332.981
11
291.342
21
-316.347
0
ARC
8
BLACK
10
198.36
20
-307.33
40
0.390029
50
-256.818
51
-160.803
0
LINE
8
BLACK
6
CONTINUOUS
10
213.677
20
-338.927
11
197.116
21
-344.972
0
ARC
8
BLACK
10
219.176
20
-255.54
40
1.04265
50
-269.289
51
-177.749
0
LINE
8
BLACK
6
CONTINUOUS
10
67.3833
20
-201.003
11
96.1557
21
-198.436
0
LINE
8
BLACK
6
CONTINUOUS
10
211.581
20
-141.027
11
211.581
21
-141.874
0
ARC
8
BLACK
10
210.222
20
-36.6999
40
1.08098
50
-91.301
51
2.24919
0
LINE
8
BLACK
6
CONTINUOUS
10
85.0584
20
-34.7267
11
149.393
21
-34.7267
0
LINE
8
BLACK
6
CONTINUOUS
10
79.6947
20
-141.065
11
79.6947
21
-144.363
0
LINE
8
BLACK
6
CONTINUOUS
10
225.691
20
-115.042
11
224.74
21
-109.553
0
ARC
8
BLACK
10
79.4494
20
-113.176
40
0.779754
50
-177.431
51
-85.491
0
LINE
8
BLACK
6
CONTINUOUS
10
132.725
20
-214.77
11
131.773
21
-220.258
0
ARC
8
BLACK
10
261.488
20
-199.201
40
0.770866
50
82.568
51
178.168
0
ARC
8
BLACK
10
292.387
20
-162.653
40
0.799089
50
-182.344
51
-102.509
0
ARC
8
BLACK
10
71.576
20
-95.4967
40
0.75487
50
-178.165
51
-82.9581
0
ARC
8
BLACK
10
210.501
20
-141.916
40
1.08096
50
-91.3025
51
2.25063
0
LINE
8
BLACK
6
CONTINUOUS
10
291.223
20
-200.294
11
294.335
21
-164.471
0
LINE
8
BLACK
6
CONTINUOUS
10
200.09
20
-37.7806
11
210.197
21
-37.7806
0
ARC
8
BLACK
10
290.147
20
-95.4968
40
0.754771
50
-97.0504
51
-1.82757
0
LINE
8
BLACK
6
CONTINUOUS
10
283.053
20
-113.211
11
284.509
21
-96.5769
0
LINE
8
BLACK
6
CONTINUOUS
10
199.402
20
-194.045
11
202.45
21
-205.272
0
ARC
8
BLACK
10
184.33
20
-106.558
40
1.66762
50
-226.386
51
-164.572
0
LINE
8
BLACK
6
CONTINUOUS
10
150.421
20
-36.6575
11
150.421
21
-35.8102
0
ARC
8
BLACK
10
170.519
20
-95.0237
40
1.86687
50
-192.48
51
-137.01
0
LINE
8
BLACK
6
CONTINUOUS
10
277.769
20
-39.1467
11
277.769
21
-35.8487
0
LINE
8
BLACK
6
CONTINUOUS
10
291.309
20
-57.4039
11
291.309
21
-41.3311
0
LINE
8
BLACK
6
CONTINUOUS
10
168.697
20
-94.6203
11
170.565
21
-87.6874
0
ARC
8
BLACK
10
212.344
20
-35.7695
40
1.04294
50
-269.272
51
-177.763
0
ARC
8
BLACK
10
132.112
20
-214.679
40
0.619012
50
-8.46501
51
93.1963
0
ARC
8
BLACK
10
163.769
20
-84.3904
40
1.01653
50
-181.788
51
-104.473
0
LINE
8
BLACK
6
CONTINUOUS
10
225.412
20
-221.173
11
207.124
21
-224.373
0
ARC
8
BLACK
10
278.85
20
-39.1891
40
1.08098
50
-182.249
51
-88.6975
0
LINE
8
BLACK
6
CONTINUOUS
10
290.588
20
-145.486
11
279.154
21
-145.486
0
LINE
8
BLACK
6
CONTINUOUS
10
63.4092
20
-164.471
11
66.5205
21
-200.294
0
ARC
8
BLACK
10
78.6146
20
-144.406
40
1.0809
50
-91.3057
51
2.25604
0
ARC
8
BLACK
10
197.954
20
-84.3903
40
1.01665
50
-75.523
51
1.78254
0
LINE
8
BLACK
6
CONTINUOUS
10
167.181
20
-230.418
11
150.62
21
-224.373
0
LINE
8
BLACK
6
CONTINUOUS
10
97.0259
20
-199.176
11
98.5224
21
-216.265
0
LINE
8
BLACK
6
CONTINUOUS
10
225.132
20
-115.956
11
206.844
21
-119.157
0
LINE
8
BLACK
6
CONTINUOUS
10
151.526
20
-37.7806
11
161.633
21
-37.7806
0
ARC
8
BLACK
10
206.529
20
-192.552
40
7.28139
50
-181.443
51
-168.168
0
LINE
8
BLACK
6
CONTINUOUS
10
82.849
20
-40.2698
11
71.4145
21
-40.2698
0
ARC
8
BLACK
10
136.371
20
-109.462
40
0.618989
50
-8.46797
51
93.2003
0
LINE
8
BLACK
6
CONTINUOUS
10
198.208
20
-85.3747
11
191.438
21
-87.1794
0
ARC
8
BLACK
10
212.623
20
-140.986
40
1.04258
50
-269.293
51
-177.747
0
LINE
8
BLACK
6
CONTINUOUS
10
200.369
20
-142.997
11
210.477
21
-142.997
0
ARC
8
BLACK
10
157.402
20
-144.089
40
1.09228
50
-1.45579
51
91.4658
0
ARC
8
BLACK
10
225.352
20
-109.462
40
0.61892
50
-273.2
51
-171.532
0
ARC
8
BLACK
10
293.299
20
-59.1611
40
0.761344
50
-7.04696
51
81.833
0
ARC
8
BLACK
10
200.062
20
-38.8723
40
1.09208
50
-271.479
51
-178.532
0
ARC
8
BLACK
10
149.38
20
-35.7693
40
1.04269
50
-2.24889
51
89.2832
0
ARC
8
BLACK
10
85.0328
20
-35.8063
40
1.07991
50
-271.359
51
-177.751
0
LINE
8
BLACK
6
CONTINUOUS
10
150.62
20
-224.373
11
132.332
21
-221.173
0
LINE
8
BLACK
6
CONTINUOUS
10
290.309
20
-40.2698
11
278.874
21
-40.2698
0
ARC
8
BLACK
10
147.242
20
-141.916
40
1.08085
50
-182.256
51
-88.6913
0
ARC
8
BLACK
10
68.4238
20
-59.1611
40
0.761287
50
-261.84
51
-172.952
0
ARC
8
BLACK
10
170.196
20
-87.5592
40
0.390039
50
-19.196
51
76.8249
0
LINE
8
BLACK
6
CONTINUOUS
10
146.162
20
-141.874
11
146.162
21
-141.027
0
LINE
8
BLACK
6
CONTINUOUS
10
211.302
20
-35.8102
11
211.302
21
-36.6575
0
LINE
8
BLACK
6
CONTINUOUS
10
225.386
20
-108.844
11
282.212
21
-113.953
0
ARC
8
BLACK
10
292.108
20
-57.4365
40
0.799271
50
-182.334
51
-102.526
0
LINE
8
BLACK
6
CONTINUOUS
10
65.5299
20
-163.433
11
64.0567
21
-163.624
0
LINE
8
BLACK
6
CONTINUOUS
10
291.589
20
-162.62
11
291.589
21
-146.547
0
ARC
8
BLACK
10
71.4666
20
-41.3209
40
1.05237
50
-267.165
51
-179.446
0
ARC
8
BLACK
10
80.7738
20
-141.023
40
1.07996
50
-271.356
51
-177.753
0
LINE
8
BLACK
6
CONTINUOUS
10
202.45
20
-205.272
11
184.366
21
-211.825
0
LINE
8
BLACK
6
CONTINUOUS
10
183.18
20
-105.351
11
192.569
21
-96.2967
0
LINE
8
BLACK
6
CONTINUOUS
10
207.124
20
-224.373
11
190.563
21
-230.418
0
LINE
8
BLACK
6
CONTINUOUS
10
80.7994
20
-139.943
11
145.133
21
-139.943
0
ARC
8
BLACK
10
161.661
20
-38.8725
40
1.09226
50
-1.45721
51
91.468
0
LINE
8
BLACK
6
CONTINUOUS
10
79.5107
20
-113.953
11
136.337
21
-108.844
0
LINE
8
BLACK
6
CONTINUOUS
10
290.902
20
-95.5209
11
294.055
21
-59.2545
0
LINE
8
BLACK
6
CONTINUOUS
10
155.293
20
-205.272
11
158.341
21
-194.045
0
LINE
8
BLACK
6
CONTINUOUS
10
182.723
20
-107.002
11
189.166
21
-124.694
0
LINE
8
BLACK
6
CONTINUOUS
10
293.407
20
-58.4075
11
291.934
21
-58.2167
0
ARC
8
BLACK
10
145.121
20
-140.986
40
1.04251
50
-2.25878
51
89.2918
0
ARC
8
BLACK
10
279.129
20
-144.405
40
1.08105
50
-182.245
51
-88.6991
0
ARC
8
BLACK
10
99.3065
20
-216.23
40
0.784875
50
-177.432
51
-82.1657
0
LINE
8
BLACK
6
CONTINUOUS
10
70.4143
20
-41.3311
11
70.4143
21
-57.4039
0
ARC
8
BLACK
10
293.579
20
-164.377
40
0.76138
50
-7.04435
51
81.8279
0
ARC
8
BLACK
10
276.69
20
-35.8063
40
1.07991
50
-2.24889
51
91.3595
0
LINE
8
BLACK
6
CONTINUOUS
10
225.666
20
-214.061
11
258.33
21
-217.007
0
LINE
8
BLACK
6
CONTINUOUS
10
154.879
20
-119.157
11
136.591
21
-115.956
0
ARC
8
BLACK
10
191.527
20
-87.5592
40
0.389984
50
-256.825
51
-160.804
0
LINE
8
BLACK
6
CONTINUOUS
10
136.984
20
-109.553
11
136.032
21
-115.042
0
LINE
8
BLACK
6
CONTINUOUS
10
278.049
20
-144.363
11
278.049
21
-141.065
0
LINE
8
BLACK
6
CONTINUOUS
10
212.331
20
-34.7267
11
276.665
21
-34.7267
0
ARC
8
BLACK
10
189.947
20
-124.459
40
0.815698
50
-163.251
51
-65.6395
0
ARC
8
BLACK
10
151.501
20
-36.7
40
1.08088
50
-182.255
51
-88.6935
0
LINE
8
BLACK
6
CONTINUOUS
10
172.557
20
-124.694
11
179.001
21
-107.002
0
ARC
8
BLACK
10
225.006
20
-115.251
40
0.716484
50
-79.8335
51
16.9786
0
LINE
8
BLACK
6
CONTINUOUS
10
83.9537
20
-35.8487
11
83.9537
21
-39.1467
0
ARC
8
BLACK
10
290.455
20
-200.238
40
0.770326
50
-97.0458
51
-4.12786
0
ARC
8
BLACK
10
190.226
20
-229.675
40
0.815472
50
-163.27
51
-65.6191
0
ARC
8
BLACK
10
96.2554
20
-199.201
40
0.770897
50
1.83243
51
97.4309
0
LINE
8
BLACK
6
CONTINUOUS
10
212.61
20
-139.943
11
276.944
21
-139.943
0
ARC
8
BLACK
10
276.97
20
-141.022
40
1.07974
50
-2.25838
51
91.3665
0
ARC
8
BLACK
10
136.718
20
-115.251
40
0.716656
50
-196.959
51
-100.179
0
LINE
8
BLACK
6
CONTINUOUS
10
168.298
20
-229.91
11
174.293
21
-213.451
0
ARC
8
BLACK
10
177.393
20
-106.558
40
1.66771
50
-15.4267
51
46.3834
0
ARC
8
BLACK
10
76.4438
20
-96.6015
40
0.77089
50
1.83164
51
97.4342
0
ARC
8
BLACK
10
184.727
20
-213.099
40
1.32394
50
-254.138
51
-164.579
0
LINE
8
BLACK
6
CONTINUOUS
10
67.6683
20
-59.2545
11
70.8215
21
-95.5209
0
ARC
8
BLACK
10
191.204
20
-95.0237
40
1.86696
50
-42.9884
51
12.4792
0
ARC
8
BLACK
10
67.2888
20
-200.238
40
0.770343
50
-175.872
51
-82.9532
0
ARC
8
BLACK
10
200.341
20
-144.089
40
1.09201
50
-271.483
51
-178.528
0
ARC
8
BLACK
10
67.2076
20
-146.537
40
1.05243
50
-267.162
51
-179.447
0
ARC
8
BLACK
10
167.517
20
-229.675
40
0.815686
50
-114.365
51
-16.748
0
LINE
8
BLACK
6
CONTINUOUS
10
293.687
20
-163.624
11
292.214
21
-163.433
0
ARC
8
BLACK
10
75.1903
20
-218.392
40
0.779731
50
-177.433
51
-85.4878
0
LINE
8
BLACK
6
CONTINUOUS
10
170.285
20
-87.1794
11
163.515
21
-85.3747
0
ARC
8
BLACK
10
69.6157
20
-57.4365
40
0.79924
50
-77.4813
51
2.33423
0
ARC
8
BLACK
10
282.554
20
-218.392
40
0.77965
50
-94.5191
51
-2.56026
0
ARC
8
BLACK
10
64.1648
20
-164.377
40
0.761316
50
-261.838
51
-172.951
0
LINE
8
BLACK
6
CONTINUOUS
10
259.221
20
-216.265
11
260.718
21
-199.176
0
LINE
8
BLACK
6
CONTINUOUS
10
199.25
20
-192.369
11
199.25
21
-144.117
0
LINE
8
BLACK
6
CONTINUOUS
10
191.159
20
-87.6874
11
193.027
21
-94.6203
0
LINE
8
BLACK
6
CONTINUOUS
10
225.971
20
-220.258
11
225.019
21
-214.77
0
ARC
8
BLACK
10
290.257
20
-41.3209
40
1.05239
50
-0.554035
51
87.1647
0
LINE
8
BLACK
6
CONTINUOUS
10
77.2142
20
-96.5769
11
78.6704
21
-113.211
0
LINE
8
BLACK
6
CONTINUOUS
10
66.1552
20
-146.547
11
66.1552
21
-162.62
0
ARC
8
BLACK
10
173.016
20
-213.099
40
1.32384
50
-15.4263
51
74.1402
0
LINE
8
BLACK
6
CONTINUOUS
10
183.451
20
-213.451
11
189.446
21
-229.91
0
LINE
8
BLACK
6
CONTINUOUS
10
173.378
20
-211.825
11
155.293
21
-205.272
0
LINE
8
BLACK
6
CONTINUOUS
10
261.588
20
-198.436
11
290.361
21
-201.003
0
LINE
8
BLACK
6
CONTINUOUS
10
162.753
20
-38.9003
11
162.753
21
-84.3587
0
LINE
8
BLACK
6
CONTINUOUS
10
198.97
20
-84.3587
11
198.97
21
-38.9003
0
ARC
8
BLACK
10
132.458
20
-220.467
40
0.716623
50
-196.962
51
-100.177
0
LINE
8
BLACK
6
CONTINUOUS
10
71.6685
20
-96.2459
11
76.3441
21
-95.8371
0
ARC
8
BLACK
10
258.437
20
-216.23
40
0.784916
50
-97.8333
51
-2.56754
0
ARC
8
BLACK
10
282.274
20
-113.176
40
0.779783
50
-94.509
51
-2.56908
0
LINE
8
BLACK
6
CONTINUOUS
10
171.44
20
-125.202
11
154.879
21
-119.157
0
ARC
8
BLACK
10
225.631
20
-214.679
40
0.618944
50
-273.198
51
-171.535
0
LINE
8
BLACK
6
CONTINUOUS
10
169.154
20
-96.2967
11
178.543
21
-105.351
0
ARC
8
BLACK
10
82.8737
20
-39.1892
40
1.08086
50
-91.3079
51
2.25475
0
ARC
8
BLACK
10
290.536
20
-146.537
40
1.05221
50
-0.563576
51
87.1712
0
ARC
8
BLACK
10
151.215
20
-192.552
40
7.28129
50
-11.8326
51
1.44292
0
LINE
8
BLACK
6
CONTINUOUS
10
69.7889
20
-58.2167
11
68.3157
21
-58.4075
0
ARC
8
BLACK
10
65.3567
20
-162.653
40
0.799164
50
-77.4857
51
2.33918
0
LINE
8
BLACK
6
CONTINUOUS
10
99.4135
20
-217.007
11
132.078
21
-214.061
0
LINE
8
BLACK
6
CONTINUOUS
10
147.267
20
-142.997
11
157.374
21
-142.997
0
ARC
8
BLACK
10
171.776
20
-124.459
40
0.815471
50
-114.382
51
-16.7324
0
LINE
8
BLACK
6
CONTINUOUS
10
285.379
20
-95.8371
11
290.055
21
-96.2459
0
ARC
8
BLACK
10
225.285
20
-220.467
40
0.716532
50
-79.8288
51
16.9713
0
LINE
8
BLACK
6
CONTINUOUS
10
206.844
20
-119.157
11
190.283
21
-125.202
0
LINE
8
BLACK
6
CONTINUOUS
10
158.494
20
-144.117
11
158.494
21
-192.369
0
ARC
8
BLACK
10
285.279
20
-96.6015
40
0.770837
50
82.5658
51
178.168
0
LINE
8
BLACK
6
CONTINUOUS
10
78.59
20
-145.486
11
67.1555
21
-145.486
0
CIRCLE
8
BLACK
10
209.244
20
-261.009
40
3.15
0
CIRCLE
8
BLACK
10
92.1505
20
-259.009
40
1.1
0
CIRCLE
8
BLACK
10
94.9699
20
-311.901
40
1.1
0
CIRCLE
8
BLACK
10
151.155
20
-258.003
40
1.1
0
CIRCLE
8
BLACK
10
109.397
20
-327.649
40
1.1
0
CIRCLE
8
BLACK
10
162.889
20
-325.313
40
1.1
0
CIRCLE
8
BLACK
10
228.598
20
-332.637
40
3.15
0
CIRCLE
8
BLACK
10
277.939
20
-311.901
40
1.1
0
CIRCLE
8
BLACK
10
263.512
20
-327.649
40
1.1
0
CIRCLE
8
BLACK
10
210.02
20
-325.313
40
1.1
0
CIRCLE
8
BLACK
10
221.754
20
-258.003
40
1.1
0
CIRCLE
8
BLACK
10
280.759
20
-259.009
40
1.1
0
CIRCLE
8
BLACK
10
78.3215
20
-263.65
40
3.15
0
CIRCLE
8
BLACK
10
174.588
20
-340.714
40
3.15
0
CIRCLE
8
BLACK
10
78.4231
20
-312.317
40
3.15
0
CIRCLE
8
BLACK
10
294.486
20
-312.317
40
3.15
0
CIRCLE
8
BLACK
10
198.322
20
-340.714
40
3.15
0
CIRCLE
8
BLACK
10
294.588
20
-263.65
40
3.15
0
CIRCLE
8
BLACK
10
144.311
20
-332.637
40
3.15
0
CIRCLE
8
BLACK
10
163.666
20
-261.009
40
3.15
0
CIRCLE
8
BLACK
10
87.7975
20
-39.2387
40
1.6
0
LINE
8
BLACK
6
CONTINUOUS
10
86.8342
20
-180.002
11
101.634
21
-180.002
0
LINE
8
BLACK
6
CONTINUOUS
10
101.634
20
-180.002
11
101.634
21
-194.802
0
LINE
8
BLACK
6
CONTINUOUS
10
101.634
20
-194.802
11
86.8342
21
-194.802
0
LINE
8
BLACK
6
CONTINUOUS
10
86.8342
20
-194.802
11
86.8342
21
-180.002
0
CIRCLE
8
BLACK
10
141.976
20
-92.1311
40
1.6
0
LINE
8
BLACK
6
CONTINUOUS
10
86.8342
20
-163.003
11
101.634
21
-163.003
0
LINE
8
BLACK
6
CONTINUOUS
10
101.634
20
-163.003
11
101.634
21
-177.803
0
LINE
8
BLACK
6
CONTINUOUS
10
101.634
20
-177.803
11
86.8342
21
-177.803
0
LINE
8
BLACK
6
CONTINUOUS
10
86.8342
20
-177.803
11
86.8342
21
-163.003
0
LINE
8
BLACK
6
CONTINUOUS
10
77.9728
20
-90.8314
11
83.1347
21
-90.3798
0
LINE
8
BLACK
6
CONTINUOUS
10
83.1347
20
-90.3798
11
82.9576
21
-88.3555
0
LINE
8
BLACK
6
CONTINUOUS
10
82.9576
20
-88.3555
11
77.7957
21
-88.8071
0
LINE
8
BLACK
6
CONTINUOUS
10
77.7957
20
-88.8071
11
77.9728
21
-90.8314
0
CIRCLE
8
BLACK
10
146.802
20
-38.2323
40
1.6
0
CIRCLE
8
BLACK
10
142.543
20
-143.449
40
1.6
0
LINE
8
BLACK
6
CONTINUOUS
10
101.061
20
-85.8705
11
95.8791
21
-85.8705
0
LINE
8
BLACK
6
CONTINUOUS
10
95.8791
20
-85.8705
11
95.8791
21
-87.9025
0
LINE
8
BLACK
6
CONTINUOUS
10
95.8791
20
-87.9025
11
101.061
21
-87.9025
0
LINE
8
BLACK
6
CONTINUOUS
10
101.061
20
-87.9025
11
101.061
21
-85.8705
0
LINE
8
BLACK
6
CONTINUOUS
10
149.383
20
-222.037
11
134.808
21
-219.467
0
LINE
8
BLACK
6
CONTINUOUS
10
134.808
20
-219.467
11
137.378
21
-204.892
0
LINE
8
BLACK
6
CONTINUOUS
10
137.378
20
-204.892
11
151.953
21
-207.462
0
LINE
8
BLACK
6
CONTINUOUS
10
151.953
20
-207.462
11
149.383
21
-222.037
0
LINE
8
BLACK
6
CONTINUOUS
10
77.8291
20
-56.0266
11
83.0107
21
-56.0266
0
LINE
8
BLACK
6
CONTINUOUS
10
83.0107
20
-56.0266
11
83.0107
21
-53.9946
0
LINE
8
BLACK
6
CONTINUOUS
10
83.0107
20
-53.9946
11
77.8291
21
-53.9946
0
LINE
8
BLACK
6
CONTINUOUS
10
77.8291
20
-53.9946
11
77.8291
21
-56.0266
0
LINE
8
BLACK
6
CONTINUOUS
10
137.161
20
-67.8707
11
131.979
21
-67.8707
0
LINE
8
BLACK
6
CONTINUOUS
10
131.979
20
-67.8707
11
131.979
21
-69.9027
0
LINE
8
BLACK
6
CONTINUOUS
10
131.979
20
-69.9027
11
137.161
21
-69.9027
0
LINE
8
BLACK
6
CONTINUOUS
10
137.161
20
-69.9027
11
137.161
21
-67.8707
0
LINE
8
BLACK
6
CONTINUOUS
10
137.161
20
-50.8707
11
131.979
21
-50.8707
0
LINE
8
BLACK
6
CONTINUOUS
10
131.979
20
-50.8707
11
131.979
21
-52.9027
0
LINE
8
BLACK
6
CONTINUOUS
10
131.979
20
-52.9027
11
137.161
21
-52.9027
0
LINE
8
BLACK
6
CONTINUOUS
10
137.161
20
-52.9027
11
137.161
21
-50.8707
0
LINE
8
BLACK
6
CONTINUOUS
10
68.834
20
-148.127
11
83.634
21
-148.127
0
LINE
8
BLACK
6
CONTINUOUS
10
83.634
20
-148.127
11
83.634
21
-162.927
0
LINE
8
BLACK
6
CONTINUOUS
10
83.634
20
-162.927
11
68.834
21
-162.927
0
LINE
8
BLACK
6
CONTINUOUS
10
68.834
20
-162.927
11
68.834
21
-148.127
0
CIRCLE
8
BLACK
10
105.044
20
-107.879
40
1.6
0
LINE
8
BLACK
6
CONTINUOUS
10
66.2675
20
-166.474
11
81.0112
21
-165.184
0
LINE
8
BLACK
6
CONTINUOUS
10
81.0112
20
-165.184
11
82.3011
21
-179.927
0
LINE
8
BLACK
6
CONTINUOUS
10
82.3011
20
-179.927
11
67.5574
21
-181.217
0
LINE
8
BLACK
6
CONTINUOUS
10
67.5574
20
-181.217
11
66.2675
21
-166.474
0
CIRCLE
8
BLACK
10
158.537
20
-105.542
40
1.6
0
CIRCLE
8
BLACK
10
137.717
20
-197.347
40
1.6
0
LINE
8
BLACK
6
CONTINUOUS
10
101.061
20
-51.8713
11
95.8791
21
-51.8713
0
LINE
8
BLACK
6
CONTINUOUS
10
95.8791
20
-51.8713
11
95.8791
21
-53.9033
0
LINE
8
BLACK
6
CONTINUOUS
10
95.8791
20
-53.9033
11
101.061
21
-53.9033
0
LINE
8
BLACK
6
CONTINUOUS
10
101.061
20
-53.9033
11
101.061
21
-51.8713
0
LINE
8
BLACK
6
CONTINUOUS
10
151.169
20
-103.019
11
146.066
21
-102.12
0
LINE
8
BLACK
6
CONTINUOUS
10
146.066
20
-102.12
11
145.713
21
-104.121
0
LINE
8
BLACK
6
CONTINUOUS
10
145.713
20
-104.121
11
150.816
21
-105.02
0
LINE
8
BLACK
6
CONTINUOUS
10
150.816
20
-105.02
11
151.169
21
-103.019
0
LINE
8
BLACK
6
CONTINUOUS
10
119.084
20
-64.5605
11
113.902
21
-64.5605
0
LINE
8
BLACK
6
CONTINUOUS
10
113.902
20
-64.5605
11
113.902
21
-66.5925
0
LINE
8
BLACK
6
CONTINUOUS
10
113.902
20
-66.5925
11
119.084
21
-66.5925
0
LINE
8
BLACK
6
CONTINUOUS
10
119.084
20
-66.5925
11
119.084
21
-64.5605
0
CIRCLE
8
BLACK
10
100.785
20
-213.095
40
1.6
0
LINE
8
BLACK
6
CONTINUOUS
10
166.74
20
-228.014
11
152.833
21
-222.952
0
LINE
8
BLACK
6
CONTINUOUS
10
152.833
20
-222.952
11
157.894
21
-209.045
0
LINE
8
BLACK
6
CONTINUOUS
10
157.894
20
-209.045
11
171.802
21
-214.107
0
LINE
8
BLACK
6
CONTINUOUS
10
171.802
20
-214.107
11
166.74
21
-228.014
0
LINE
8
BLACK
6
CONTINUOUS
10
104.834
20
-175.693
11
119.634
21
-175.693
0
LINE
8
BLACK
6
CONTINUOUS
10
119.634
20
-175.693
11
119.634
21
-190.493
0
LINE
8
BLACK
6
CONTINUOUS
10
119.634
20
-190.493
11
104.834
21
-190.493
0
LINE
8
BLACK
6
CONTINUOUS
10
104.834
20
-190.493
11
104.834
21
-175.693
0
CIRCLE
8
BLACK
10
154.277
20
-210.759
40
1.6
0
LINE
8
BLACK
6
CONTINUOUS
10
137.161
20
-84.8711
11
131.979
21
-84.8711
0
LINE
8
BLACK
6
CONTINUOUS
10
131.979
20
-84.8711
11
131.979
21
-86.9031
0
LINE
8
BLACK
6
CONTINUOUS
10
131.979
20
-86.9031
11
137.161
21
-86.9031
0
LINE
8
BLACK
6
CONTINUOUS
10
137.161
20
-86.9031
11
137.161
21
-84.8711
0
LINE
8
BLACK
6
CONTINUOUS
10
82.3361
20
-112.904
11
81.9553
21
-108.552
0
LINE
8
BLACK
6
CONTINUOUS
10
81.9553
20
-108.552
11
99.2628
21
-107.038
0
LINE
8
BLACK
6
CONTINUOUS
10
99.2628
20
-107.038
11
99.6435
21
-111.39
0
LINE
8
BLACK
6
CONTINUOUS
10
99.6435
20
-111.39
11
82.3361
21
-112.904
0
LINE
8
BLACK
6
CONTINUOUS
10
81.1938
20
-99.8475
11
80.813
21
-95.4953
0
LINE
8
BLACK
6
CONTINUOUS
10
80.813
20
-95.4953
11
98.1205
21
-93.9811
0
LINE
8
BLACK
6
CONTINUOUS
10
98.1205
20
-93.9811
11
98.5012
21
-98.3333
0
LINE
8
BLACK
6
CONTINUOUS
10
98.5012
20
-98.3333
11
81.1938
21
-99.8475
0
LINE
8
BLACK
6
CONTINUOUS
10
162.672
20
-90.3316
11
162.553
21
-90.7732
0
LINE
8
BLACK
6
CONTINUOUS
10
161.896
20
-93.2267
11
161.778
21
-93.6683
0
LINE
8
BLACK
6
CONTINUOUS
10
160.857
20
-97.1031
11
160.739
21
-97.5447
0
LINE
8
BLACK
6
CONTINUOUS
10
160.739
20
-97.5447
11
160.613
21
-98.1421
0
LINE
8
BLACK
6
CONTINUOUS
10
160.613
20
-98.1421
11
160.494
21
-98.5837
0
LINE
8
BLACK
6
CONTINUOUS
10
164.34
20
-90.7786
11
164.222
21
-91.2203
0
LINE
8
BLACK
6
CONTINUOUS
10
163.564
20
-93.6737
11
163.446
21
-94.1153
0
LINE
8
BLACK
6
CONTINUOUS
10
162.526
20
-97.5502
11
162.407
21
-97.9918
0
LINE
8
BLACK
6
CONTINUOUS
10
162.407
20
-97.9918
11
162.281
21
-98.5891
0
LINE
8
BLACK
6
CONTINUOUS
10
162.281
20
-98.5891
11
162.163
21
-99.0307
0
LINE
8
BLACK
6
CONTINUOUS
10
165.031
20
-99.326
11
164.913
21
-99.7676
0
LINE
8
BLACK
6
CONTINUOUS
10
167.15
20
-91.5316
11
167.032
21
-91.9733
0
LINE
8
BLACK
6
CONTINUOUS
10
166.375
20
-94.4267
11
166.256
21
-94.8683
0
LINE
8
BLACK
6
CONTINUOUS
10
165.339
20
-98.304
11
165.221
21
-98.7456
0
LINE
8
BLACK
6
CONTINUOUS
10
165.221
20
-98.7456
11
165.031
21
-99.326
0
LINE
8
BLACK
6
CONTINUOUS
10
166.699
20
-99.773
11
166.581
21
-100.215
0
LINE
8
BLACK
6
CONTINUOUS
10
168.819
20
-91.9787
11
168.7
21
-92.4203
0
LINE
8
BLACK
6
CONTINUOUS
10
168.043
20
-94.8737
11
167.925
21
-95.3154
0
LINE
8
BLACK
6
CONTINUOUS
10
167.007
20
-98.751
11
166.889
21
-99.1926
0
LINE
8
BLACK
6
CONTINUOUS
10
166.889
20
-99.1926
11
166.699
21
-99.773
0
ARC
8
BLACK
10
163.506
20
-90.5551
40
0.863599
50
-15
51
165
0
ARC
8
BLACK
10
162.73
20
-93.4502
40
0.8636
50
-15.0001
51
165
0
ARC
8
BLACK
10
161.691
20
-97.3266
40
0.863599
50
-15
51
165
0
ARC
8
BLACK
10
163.388
20
-90.9967
40
0.8636
50
-195
51
-15
0
ARC
8
BLACK
10
162.612
20
-93.8918
40
0.863599
50
-195
51
-15
0
ARC
8
BLACK
10
161.329
20
-98.8072
40
0.8636
50
-195
51
-15
0
ARC
8
BLACK
10
167.984
20
-91.7552
40
0.8636
50
-15
51
165
0
ARC
8
BLACK
10
167.209
20
-94.6502
40
0.863599
50
-15
51
165
0
ARC
8
BLACK
10
166.173
20
-98.5275
40
0.8636
50
-15
51
165
0
ARC
8
BLACK
10
165.747
20
-99.9911
40
0.8636
50
-195
51
-15
0
ARC
8
BLACK
10
167.866
20
-92.1968
40
0.863599
50
-195
51
-15
0
ARC
8
BLACK
10
167.09
20
-95.0919
40
0.8636
50
-195
51
-15
0
CIRCLE
8
BLACK
10
166.125
20
-89.8103
40
0.45
0
CIRCLE
8
BLACK
10
164.313
20
-96.5718
40
0.45
0
LINE
8
BLACK
6
CONTINUOUS
10
122.834
20
-145.003
11
137.634
21
-145.003
0
LINE
8
BLACK
6
CONTINUOUS
10
137.634
20
-145.003
11
137.634
21
-159.803
0
LINE
8
BLACK
6
CONTINUOUS
10
137.634
20
-159.803
11
122.834
21
-159.803
0
LINE
8
BLACK
6
CONTINUOUS
10
122.834
20
-159.803
11
122.834
21
-145.003
0
LINE
8
BLACK
6
CONTINUOUS
10
86.8342
20
-146.003
11
101.634
21
-146.003
0
LINE
8
BLACK
6
CONTINUOUS
10
101.634
20
-146.003
11
101.634
21
-160.803
0
LINE
8
BLACK
6
CONTINUOUS
10
101.634
20
-160.803
11
86.8342
21
-160.803
0
LINE
8
BLACK
6
CONTINUOUS
10
86.8342
20
-160.803
11
86.8342
21
-146.003
0
LINE
8
BLACK
6
CONTINUOUS
10
140.834
20
-146.802
11
155.634
21
-146.802
0
LINE
8
BLACK
6
CONTINUOUS
10
155.634
20
-146.802
11
155.634
21
-161.602
0
LINE
8
BLACK
6
CONTINUOUS
10
155.634
20
-161.602
11
140.834
21
-161.602
0
LINE
8
BLACK
6
CONTINUOUS
10
140.834
20
-161.602
11
140.834
21
-146.802
0
LINE
8
BLACK
6
CONTINUOUS
10
170.947
20
-108.801
11
166.077
21
-107.029
0
LINE
8
BLACK
6
CONTINUOUS
10
166.077
20
-107.029
11
165.383
21
-108.939
0
LINE
8
BLACK
6
CONTINUOUS
10
165.383
20
-108.939
11
170.252
21
-110.711
0
LINE
8
BLACK
6
CONTINUOUS
10
170.252
20
-110.711
11
170.947
21
-108.801
0
LINE
8
BLACK
6
CONTINUOUS
10
119.084
20
-47.5605
11
113.902
21
-47.5605
0
LINE
8
BLACK
6
CONTINUOUS
10
113.902
20
-47.5605
11
113.902
21
-49.5925
0
LINE
8
BLACK
6
CONTINUOUS
10
113.902
20
-49.5925
11
119.084
21
-49.5925
0
LINE
8
BLACK
6
CONTINUOUS
10
119.084
20
-49.5925
11
119.084
21
-47.5605
0
LINE
8
BLACK
6
CONTINUOUS
10
122.834
20
-179.003
11
137.634
21
-179.003
0
LINE
8
BLACK
6
CONTINUOUS
10
137.634
20
-179.003
11
137.634
21
-193.803
0
LINE
8
BLACK
6
CONTINUOUS
10
137.634
20
-193.803
11
122.834
21
-193.803
0
LINE
8
BLACK
6
CONTINUOUS
10
122.834
20
-193.803
11
122.834
21
-179.003
0
LINE
8
BLACK
6
CONTINUOUS
10
119.084
20
-81.5607
11
113.902
21
-81.5607
0
LINE
8
BLACK
6
CONTINUOUS
10
113.902
20
-81.5607
11
113.902
21
-83.5927
0
LINE
8
BLACK
6
CONTINUOUS
10
113.902
20
-83.5927
11
119.084
21
-83.5927
0
LINE
8
BLACK
6
CONTINUOUS
10
119.084
20
-83.5927
11
119.084
21
-81.5607
0
CIRCLE
8
BLACK
10
90.6169
20
-92.1311
40
1.6
0
CIRCLE
8
BLACK
10
86.3579
20
-197.347
40
1.6
0
LINE
8
BLACK
6
CONTINUOUS
10
155.084
20
-52.6703
11
149.902
21
-52.6703
0
LINE
8
BLACK
6
CONTINUOUS
10
149.902
20
-52.6703
11
149.902
21
-54.7023
0
LINE
8
BLACK
6
CONTINUOUS
10
149.902
20
-54.7023
11
155.084
21
-54.7023
0
LINE
8
BLACK
6
CONTINUOUS
10
155.084
20
-54.7023
11
155.084
21
-52.6703
0
LINE
8
BLACK
6
CONTINUOUS
10
140.834
20
-180.802
11
155.634
21
-180.802
0
LINE
8
BLACK
6
CONTINUOUS
10
155.634
20
-180.802
11
155.634
21
-195.602
0
LINE
8
BLACK
6
CONTINUOUS
10
155.634
20
-195.602
11
140.834
21
-195.602
0
LINE
8
BLACK
6
CONTINUOUS
10
140.834
20
-195.602
11
140.834
21
-180.802
0
LINE
8
BLACK
6
CONTINUOUS
10
122.834
20
-162.003
11
137.634
21
-162.003
0
LINE
8
BLACK
6
CONTINUOUS
10
137.634
20
-162.003
11
137.634
21
-176.803
0
LINE
8
BLACK
6
CONTINUOUS
10
137.634
20
-176.803
11
122.834
21
-176.803
0
LINE
8
BLACK
6
CONTINUOUS
10
122.834
20
-176.803
11
122.834
21
-162.003
0
LINE
8
BLACK
6
CONTINUOUS
10
155.084
20
-86.6701
11
149.902
21
-86.6701
0
LINE
8
BLACK
6
CONTINUOUS
10
149.902
20
-86.6701
11
149.902
21
-88.7021
0
LINE
8
BLACK
6
CONTINUOUS
10
149.902
20
-88.7021
11
155.084
21
-88.7021
0
LINE
8
BLACK
6
CONTINUOUS
10
155.084
20
-88.7021
11
155.084
21
-86.6701
0
LINE
8
BLACK
6
CONTINUOUS
10
101.061
20
-68.8709
11
95.8791
21
-68.8709
0
LINE
8
BLACK
6
CONTINUOUS
10
95.8791
20
-68.8709
11
95.8791
21
-70.9029
0
LINE
8
BLACK
6
CONTINUOUS
10
95.8791
20
-70.9029
11
101.061
21
-70.9029
0
LINE
8
BLACK
6
CONTINUOUS
10
101.061
20
-70.9029
11
101.061
21
-68.8709
0
LINE
8
BLACK
6
CONTINUOUS
10
155.084
20
-69.6267
11
149.902
21
-69.6267
0
LINE
8
BLACK
6
CONTINUOUS
10
149.902
20
-69.6267
11
149.902
21
-71.6587
0
LINE
8
BLACK
6
CONTINUOUS
10
149.902
20
-71.6587
11
155.084
21
-71.6587
0
LINE
8
BLACK
6
CONTINUOUS
10
155.084
20
-71.6587
11
155.084
21
-69.6267
0
LINE
8
BLACK
6
CONTINUOUS
10
76.461
20
-73.8896
11
81.6229
21
-73.438
0
LINE
8
BLACK
6
CONTINUOUS
10
81.6229
20
-73.438
11
81.4458
21
-71.4137
0
LINE
8
BLACK
6
CONTINUOUS
10
81.4458
20
-71.4137
11
76.2839
21
-71.8653
0
LINE
8
BLACK
6
CONTINUOUS
10
76.2839
20
-71.8653
11
76.461
21
-73.8896
0
LINE
8
BLACK
6
CONTINUOUS
10
140.834
20
-163.802
11
155.634
21
-163.802
0
LINE
8
BLACK
6
CONTINUOUS
10
155.634
20
-163.802
11
155.634
21
-178.602
0
LINE
8
BLACK
6
CONTINUOUS
10
155.634
20
-178.602
11
140.834
21
-178.602
0
LINE
8
BLACK
6
CONTINUOUS
10
140.834
20
-178.602
11
140.834
21
-163.802
0
LINE
8
BLACK
6
CONTINUOUS
10
104.834
20
-141.692
11
119.634
21
-141.692
0
LINE
8
BLACK
6
CONTINUOUS
10
119.634
20
-141.692
11
119.634
21
-156.492
0
LINE
8
BLACK
6
CONTINUOUS
10
119.634
20
-156.492
11
104.834
21
-156.492
0
LINE
8
BLACK
6
CONTINUOUS
10
104.834
20
-156.492
11
104.834
21
-141.692
0
CIRCLE
8
BLACK
10
83.5385
20
-144.455
40
1.6
0
LINE
8
BLACK
6
CONTINUOUS
10
104.834
20
-158.692
11
119.634
21
-158.692
0
LINE
8
BLACK
6
CONTINUOUS
10
119.634
20
-158.692
11
119.634
21
-173.492
0
LINE
8
BLACK
6
CONTINUOUS
10
119.634
20
-173.492
11
104.834
21
-173.492
0
LINE
8
BLACK
6
CONTINUOUS
10
104.834
20
-173.492
11
104.834
21
-158.692
0
LINE
8
BLACK
6
CONTINUOUS
10
67.7813
20
-183.401
11
82.5249
21
-182.112
0
LINE
8
BLACK
6
CONTINUOUS
10
82.5249
20
-182.112
11
83.8148
21
-196.855
0
LINE
8
BLACK
6
CONTINUOUS
10
83.8148
20
-196.855
11
69.0712
21
-198.145
0
LINE
8
BLACK
6
CONTINUOUS
10
69.0712
20
-198.145
11
67.7813
21
-183.401
0
LINE
8
BLACK
6
CONTINUOUS
10
283.894
20
-56.0266
11
278.712
21
-56.0266
0
LINE
8
BLACK
6
CONTINUOUS
10
278.712
20
-56.0266
11
278.712
21
-53.9946
0
LINE
8
BLACK
6
CONTINUOUS
10
278.712
20
-53.9946
11
283.894
21
-53.9946
0
LINE
8
BLACK
6
CONTINUOUS
10
283.894
20
-53.9946
11
283.894
21
-56.0266
0
CIRCLE
8
BLACK
10
220.027
20
-197.347
40
1.6
0
CIRCLE
8
BLACK
10
214.921
20
-38.2323
40
1.6
0
LINE
8
BLACK
6
CONTINUOUS
10
273.685
20
-64.8333
11
273.937
21
-61.9487
0
LINE
8
BLACK
6
CONTINUOUS
10
276.488
20
-60.8946
11
280.971
21
-61.2868
0
LINE
8
BLACK
6
CONTINUOUS
10
276.377
20
-62.1621
11
273.937
21
-61.9487
0
LINE
8
BLACK
6
CONTINUOUS
10
276.377
20
-62.1621
11
276.488
21
-60.8946
0
LINE
8
BLACK
6
CONTINUOUS
10
276.124
20
-65.0467
11
273.685
21
-64.8333
0
LINE
8
BLACK
6
CONTINUOUS
10
276.034
20
-66.0828
11
276.124
21
-65.0467
0
LINE
8
BLACK
6
CONTINUOUS
10
281.044
20
-65.8184
11
280.983
21
-66.5158
0
LINE
8
BLACK
6
CONTINUOUS
10
280.983
20
-66.5158
11
276.034
21
-66.0828
0
LINE
8
BLACK
6
CONTINUOUS
10
281.512
20
-60.8323
11
281.599
21
-59.8361
0
LINE
8
BLACK
6
CONTINUOUS
10
282.141
20
-59.3816
11
281.599
21
-59.8361
0
LINE
8
BLACK
6
CONTINUOUS
10
285.636
20
-59.6873
11
282.141
21
-59.3816
0
LINE
8
BLACK
6
CONTINUOUS
10
285.199
20
-64.6762
11
282.693
21
-64.457
0
LINE
8
BLACK
6
CONTINUOUS
10
286.09
20
-60.229
11
285.636
21
-59.6873
0
LINE
8
BLACK
6
CONTINUOUS
10
286.043
20
-60.7641
11
286.09
21
-60.229
0
LINE
8
BLACK
6
CONTINUOUS
10
286.043
20
-60.7641
11
288.483
21
-60.9776
0
LINE
8
BLACK
6
CONTINUOUS
10
285.791
20
-63.6487
11
288.231
21
-63.8621
0
LINE
8
BLACK
6
CONTINUOUS
10
285.741
20
-64.2217
11
285.199
21
-64.6762
0
LINE
8
BLACK
6
CONTINUOUS
10
285.741
20
-64.2217
11
285.791
21
-63.6487
0
LINE
8
BLACK
6
CONTINUOUS
10
288.483
20
-60.9776
11
288.231
21
-63.8621
0
ARC
8
BLACK
10
282.486
20
-65.886
40
1.44391
50
81.7734
51
177.317
0
ARC
8
BLACK
10
281.014
20
-60.7887
40
0.5
50
-94.9999
51
-5.00012
0
CIRCLE
8
BLACK
10
277.701
20
-67.5049
40
0.855
0
CIRCLE
8
BLACK
10
283.18
20
-67.9842
40
1.75
0
CIRCLE
8
BLACK
10
288.659
20
-68.4636
40
0.855001
0
LINE
8
BLACK
6
CONTINUOUS
10
235.497
20
-58.5647
11
235.497
21
-55.6691
0
LINE
8
BLACK
6
CONTINUOUS
10
237.946
20
-54.3967
11
242.446
21
-54.3967
0
LINE
8
BLACK
6
CONTINUOUS
10
237.946
20
-55.6691
11
235.497
21
-55.6691
0
LINE
8
BLACK
6
CONTINUOUS
10
237.946
20
-55.6691
11
237.946
21
-54.3967
0
LINE
8
BLACK
6
CONTINUOUS
10
237.946
20
-58.5647
11
235.497
21
-58.5647
0
LINE
8
BLACK
6
CONTINUOUS
10
237.946
20
-59.6047
11
237.946
21
-58.5647
0
LINE
8
BLACK
6
CONTINUOUS
10
242.914
20
-58.9047
11
242.914
21
-59.6047
0
LINE
8
BLACK
6
CONTINUOUS
10
242.914
20
-59.6047
11
237.946
21
-59.6047
0
LINE
8
BLACK
6
CONTINUOUS
10
242.946
20
-53.8967
11
242.946
21
-52.8967
0
LINE
8
BLACK
6
CONTINUOUS
10
243.446
20
-52.3967
11
242.946
21
-52.8967
0
LINE
8
BLACK
6
CONTINUOUS
10
246.954
20
-52.3967
11
243.446
21
-52.3967
0
LINE
8
BLACK
6
CONTINUOUS
10
246.954
20
-57.4047
11
244.438
21
-57.4047
0
LINE
8
BLACK
6
CONTINUOUS
10
247.454
20
-52.8967
11
246.954
21
-52.3967
0
LINE
8
BLACK
6
CONTINUOUS
10
247.454
20
-53.4339
11
247.454
21
-52.8967
0
LINE
8
BLACK
6
CONTINUOUS
10
247.454
20
-53.4339
11
249.903
21
-53.4339
0
LINE
8
BLACK
6
CONTINUOUS
10
247.454
20
-56.3295
11
249.903
21
-56.3295
0
LINE
8
BLACK
6
CONTINUOUS
10
247.454
20
-56.9047
11
246.954
21
-57.4047
0
LINE
8
BLACK
6
CONTINUOUS
10
247.454
20
-56.9047
11
247.454
21
-56.3295
0
LINE
8
BLACK
6
CONTINUOUS
10
249.903
20
-53.4339
11
249.903
21
-56.3295
0
ARC
8
BLACK
10
244.357
20
-58.8463
40
1.44391
50
-273.227
51
-177.683
0
ARC
8
BLACK
10
242.446
20
-53.8967
40
0.500001
50
-89.9999
51
-0.000114591
0
CIRCLE
8
BLACK
10
239.731
20
-60.8761
40
0.855
0
CIRCLE
8
BLACK
10
245.231
20
-60.8761
40
1.75
0
CIRCLE
8
BLACK
10
250.731
20
-60.8761
40
0.855
0
LINE
8
BLACK
6
CONTINUOUS
10
216.91
20
-163.802
11
202.11
21
-163.802
0
LINE
8
BLACK
6
CONTINUOUS
10
202.11
20
-163.802
11
202.11
21
-178.602
0
LINE
8
BLACK
6
CONTINUOUS
10
202.11
20
-178.602
11
216.91
21
-178.602
0
LINE
8
BLACK
6
CONTINUOUS
10
216.91
20
-178.602
11
216.91
21
-163.802
0
LINE
8
BLACK
6
CONTINUOUS
10
206.639
20
-52.6703
11
211.821
21
-52.6703
0
LINE
8
BLACK
6
CONTINUOUS
10
211.821
20
-52.6703
11
211.821
21
-54.7023
0
LINE
8
BLACK
6
CONTINUOUS
10
211.821
20
-54.7023
11
206.639
21
-54.7023
0
LINE
8
BLACK
6
CONTINUOUS
10
206.639
20
-54.7023
11
206.639
21
-52.6703
0
LINE
8
BLACK
6
CONTINUOUS
10
271.497
20
-47.9988
11
271.497
21
-45.1032
0
LINE
8
BLACK
6
CONTINUOUS
10
273.946
20
-43.8308
11
278.446
21
-43.8308
0
LINE
8
BLACK
6
CONTINUOUS
10
273.946
20
-45.1032
11
271.497
21
-45.1032
0
LINE
8
BLACK
6
CONTINUOUS
10
273.946
20
-45.1032
11
273.946
21
-43.8308
0
LINE
8
BLACK
6
CONTINUOUS
10
273.946
20
-47.9988
11
271.497
21
-47.9988
0
LINE
8
BLACK
6
CONTINUOUS
10
273.946
20
-49.0388
11
273.946
21
-47.9988
0
LINE
8
BLACK
6
CONTINUOUS
10
278.914
20
-48.3388
11
278.914
21
-49.0388
0
LINE
8
BLACK
6
CONTINUOUS
10
278.914
20
-49.0388
11
273.946
21
-49.0388
0
LINE
8
BLACK
6
CONTINUOUS
10
278.946
20
-43.3308
11
278.946
21
-42.3308
0
LINE
8
BLACK
6
CONTINUOUS
10
279.446
20
-41.8308
11
278.946
21
-42.3308
0
LINE
8
BLACK
6
CONTINUOUS
10
282.954
20
-41.8308
11
279.446
21
-41.8308
0
LINE
8
BLACK
6
CONTINUOUS
10
282.954
20
-46.8388
11
280.438
21
-46.8388
0
LINE
8
BLACK
6
CONTINUOUS
10
283.454
20
-42.3308
11
282.954
21
-41.8308
0
LINE
8
BLACK
6
CONTINUOUS
10
283.454
20
-42.868
11
283.454
21
-42.3308
0
LINE
8
BLACK
6
CONTINUOUS
10
283.454
20
-42.868
11
285.902
21
-42.868
0
LINE
8
BLACK
6
CONTINUOUS
10
283.454
20
-45.7636
11
285.902
21
-45.7636
0
LINE
8
BLACK
6
CONTINUOUS
10
283.454
20
-46.3388
11
282.954
21
-46.8388
0
LINE
8
BLACK
6
CONTINUOUS
10
283.454
20
-46.3388
11
283.454
21
-45.7636
0
LINE
8
BLACK
6
CONTINUOUS
10
285.902
20
-42.868
11
285.902
21
-45.7636
0
ARC
8
BLACK
10
280.356
20
-48.2804
40
1.44391
50
-273.227
51
-177.683
0
ARC
8
BLACK
10
278.446
20
-43.3308
40
0.500001
50
-89.9999
51
-0.000114591
0
CIRCLE
8
BLACK
10
275.73
20
-50.3102
40
0.855
0
CIRCLE
8
BLACK
10
281.23
20
-50.3102
40
1.75
0
CIRCLE
8
BLACK
10
286.73
20
-50.3102
40
0.855
0
LINE
8
BLACK
6
CONTINUOUS
10
270.91
20
-146.003
11
256.11
21
-146.003
0
LINE
8
BLACK
6
CONTINUOUS
10
256.11
20
-146.003
11
256.11
21
-160.803
0
LINE
8
BLACK
6
CONTINUOUS
10
256.11
20
-160.803
11
270.91
21
-160.803
0
LINE
8
BLACK
6
CONTINUOUS
10
270.91
20
-160.803
11
270.91
21
-146.003
0
LINE
8
BLACK
6
CONTINUOUS
10
206.639
20
-69.6267
11
211.821
21
-69.6267
0
LINE
8
BLACK
6
CONTINUOUS
10
211.821
20
-69.6267
11
211.821
21
-71.6587
0
LINE
8
BLACK
6
CONTINUOUS
10
211.821
20
-71.6587
11
206.639
21
-71.6587
0
LINE
8
BLACK
6
CONTINUOUS
10
206.639
20
-71.6587
11
206.639
21
-69.6267
0
LINE
8
BLACK
6
CONTINUOUS
10
260.662
20
-51.8713
11
265.844
21
-51.8713
0
LINE
8
BLACK
6
CONTINUOUS
10
265.844
20
-51.8713
11
265.844
21
-53.9033
0
LINE
8
BLACK
6
CONTINUOUS
10
265.844
20
-53.9033
11
260.662
21
-53.9033
0
LINE
8
BLACK
6
CONTINUOUS
10
260.662
20
-53.9033
11
260.662
21
-51.8713
0
LINE
8
BLACK
6
CONTINUOUS
10
88.7599
20
-62.8751
11
88.7599
21
-59.9795
0
LINE
8
BLACK
6
CONTINUOUS
10
91.2087
20
-58.7071
11
95.7087
21
-58.7071
0
LINE
8
BLACK
6
CONTINUOUS
10
91.2087
20
-59.9795
11
88.7599
21
-59.9795
0
LINE
8
BLACK
6
CONTINUOUS
10
91.2087
20
-59.9795
11
91.2087
21
-58.7071
0
LINE
8
BLACK
6
CONTINUOUS
10
91.2087
20
-62.8751
11
88.7599
21
-62.8751
0
LINE
8
BLACK
6
CONTINUOUS
10
91.2087
20
-63.9151
11
91.2087
21
-62.8751
0
LINE
8
BLACK
6
CONTINUOUS
10
96.1767
20
-63.2151
11
96.1767
21
-63.9151
0
LINE
8
BLACK
6
CONTINUOUS
10
96.1767
20
-63.9151
11
91.2087
21
-63.9151
0
LINE
8
BLACK
6
CONTINUOUS
10
96.2087
20
-58.2071
11
96.2087
21
-57.2071
0
LINE
8
BLACK
6
CONTINUOUS
10
96.7087
20
-56.7071
11
96.2087
21
-57.2071
0
LINE
8
BLACK
6
CONTINUOUS
10
100.217
20
-56.7071
11
96.7087
21
-56.7071
0
LINE
8
BLACK
6
CONTINUOUS
10
100.217
20
-61.7151
11
97.7007
21
-61.7151
0
LINE
8
BLACK
6
CONTINUOUS
10
100.717
20
-57.2071
11
100.217
21
-56.7071
0
LINE
8
BLACK
6
CONTINUOUS
10
100.717
20
-57.7443
11
100.717
21
-57.2071
0
LINE
8
BLACK
6
CONTINUOUS
10
100.717
20
-57.7443
11
103.165
21
-57.7443
0
LINE
8
BLACK
6
CONTINUOUS
10
100.717
20
-60.6399
11
103.165
21
-60.6399
0
LINE
8
BLACK
6
CONTINUOUS
10
100.717
20
-61.2151
11
100.217
21
-61.7151
0
LINE
8
BLACK
6
CONTINUOUS
10
100.717
20
-61.2151
11
100.717
21
-60.6399
0
LINE
8
BLACK
6
CONTINUOUS
10
103.165
20
-57.7443
11
103.165
21
-60.6399
0
ARC
8
BLACK
10
97.6194
20
-63.1567
40
1.44391
50
-273.227
51
-177.683
0
ARC
8
BLACK
10
95.7087
20
-58.2071
40
0.500001
50
-89.9999
51
-0.000114591
0
CIRCLE
8
BLACK
10
92.9933
20
-65.1865
40
0.855
0
CIRCLE
8
BLACK
10
98.4933
20
-65.1865
40
1.75
0
CIRCLE
8
BLACK
10
103.993
20
-65.1865
40
0.855
0
LINE
8
BLACK
6
CONTINUOUS
10
106.759
20
-41.5647
11
106.759
21
-38.6691
0
LINE
8
BLACK
6
CONTINUOUS
10
109.208
20
-37.3967
11
113.708
21
-37.3967
0
LINE
8
BLACK
6
CONTINUOUS
10
109.208
20
-38.6691
11
106.759
21
-38.6691
0
LINE
8
BLACK
6
CONTINUOUS
10
109.208
20
-38.6691
11
109.208
21
-37.3967
0
LINE
8
BLACK
6
CONTINUOUS
10
109.208
20
-41.5647
11
106.759
21
-41.5647
0
LINE
8
BLACK
6
CONTINUOUS
10
109.208
20
-42.6047
11
109.208
21
-41.5647
0
LINE
8
BLACK
6
CONTINUOUS
10
114.176
20
-41.9047
11
114.176
21
-42.6047
0
LINE
8
BLACK
6
CONTINUOUS
10
114.176
20
-42.6047
11
109.208
21
-42.6047
0
LINE
8
BLACK
6
CONTINUOUS
10
114.208
20
-36.8967
11
114.208
21
-35.8967
0
LINE
8
BLACK
6
CONTINUOUS
10
114.708
20
-35.3967
11
114.208
21
-35.8967
0
LINE
8
BLACK
6
CONTINUOUS
10
118.216
20
-35.3967
11
114.708
21
-35.3967
0
LINE
8
BLACK
6
CONTINUOUS
10
118.216
20
-40.4047
11
115.7
21
-40.4047
0
LINE
8
BLACK
6
CONTINUOUS
10
118.716
20
-35.8967
11
118.216
21
-35.3967
0
LINE
8
BLACK
6
CONTINUOUS
10
118.716
20
-36.4339
11
118.716
21
-35.8967
0
LINE
8
BLACK
6
CONTINUOUS
10
118.716
20
-36.4339
11
121.165
21
-36.4339
0
LINE
8
BLACK
6
CONTINUOUS
10
118.716
20
-39.3295
11
121.165
21
-39.3295
0
LINE
8
BLACK
6
CONTINUOUS
10
118.716
20
-39.9047
11
118.216
21
-40.4047
0
LINE
8
BLACK
6
CONTINUOUS
10
118.716
20
-39.9047
11
118.716
21
-39.3295
0
LINE
8
BLACK
6
CONTINUOUS
10
121.165
20
-36.4339
11
121.165
21
-39.3295
0
ARC
8
BLACK
10
115.619
20
-41.8463
40
1.44391
50
-273.227
51
-177.683
0
ARC
8
BLACK
10
113.708
20
-36.8967
40
0.500001
50
-89.9999
51
-0.000114591
0
CIRCLE
8
BLACK
10
110.993
20
-43.8761
40
0.855
0
CIRCLE
8
BLACK
10
116.493
20
-43.8761
40
1.75
0
CIRCLE
8
BLACK
10
121.993
20
-43.8761
40
0.855
0
LINE
8
BLACK
6
CONTINUOUS
10
217.497
20
-61.8749
11
217.497
21
-58.9793
0
LINE
8
BLACK
6
CONTINUOUS
10
219.946
20
-57.7069
11
224.446
21
-57.7069
0
LINE
8
BLACK
6
CONTINUOUS
10
219.946
20
-58.9793
11
217.497
21
-58.9793
0
LINE
8
BLACK
6
CONTINUOUS
10
219.946
20
-58.9793
11
219.946
21
-57.7069
0
LINE
8
BLACK
6
CONTINUOUS
10
219.946
20
-61.8749
11
217.497
21
-61.8749
0
LINE
8
BLACK
6
CONTINUOUS
10
219.946
20
-62.9149
11
219.946
21
-61.8749
0
LINE
8
BLACK
6
CONTINUOUS
10
224.914
20
-62.2149
11
224.914
21
-62.9149
0
LINE
8
BLACK
6
CONTINUOUS
10
224.914
20
-62.9149
11
219.946
21
-62.9149
0
LINE
8
BLACK
6
CONTINUOUS
10
224.946
20
-57.2069
11
224.946
21
-56.2069
0
LINE
8
BLACK
6
CONTINUOUS
10
225.446
20
-55.7069
11
224.946
21
-56.2069
0
LINE
8
BLACK
6
CONTINUOUS
10
228.954
20
-55.7069
11
225.446
21
-55.7069
0
LINE
8
BLACK
6
CONTINUOUS
10
228.954
20
-60.7149
11
226.438
21
-60.7149
0
LINE
8
BLACK
6
CONTINUOUS
10
229.454
20
-56.2069
11
228.954
21
-55.7069
0
LINE
8
BLACK
6
CONTINUOUS
10
229.454
20
-56.7441
11
229.454
21
-56.2069
0
LINE
8
BLACK
6
CONTINUOUS
10
229.454
20
-56.7441
11
231.903
21
-56.7441
0
LINE
8
BLACK
6
CONTINUOUS
10
229.454
20
-59.6397
11
231.903
21
-59.6397
0
LINE
8
BLACK
6
CONTINUOUS
10
229.454
20
-60.2149
11
228.954
21
-60.7149
0
LINE
8
BLACK
6
CONTINUOUS
10
229.454
20
-60.2149
11
229.454
21
-59.6397
0
LINE
8
BLACK
6
CONTINUOUS
10
231.903
20
-56.7441
11
231.903
21
-59.6397
0
ARC
8
BLACK
10
226.356
20
-62.1565
40
1.44391
50
-273.227
51
-177.683
0
ARC
8
BLACK
10
224.446
20
-57.2069
40
0.500001
50
-89.9999
51
-0.000114591
0
CIRCLE
8
BLACK
10
221.73
20
-64.1863
40
0.855
0
CIRCLE
8
BLACK
10
227.23
20
-64.1863
40
1.75
0
CIRCLE
8
BLACK
10
232.73
20
-64.1863
40
0.855
0
LINE
8
BLACK
6
CONTINUOUS
10
272.171
20
-81.761
11
272.424
21
-78.8764
0
LINE
8
BLACK
6
CONTINUOUS
10
274.974
20
-77.8223
11
279.457
21
-78.2145
0
LINE
8
BLACK
6
CONTINUOUS
10
274.863
20
-79.0898
11
272.424
21
-78.8764
0
LINE
8
BLACK
6
CONTINUOUS
10
274.863
20
-79.0898
11
274.974
21
-77.8223
0
LINE
8
BLACK
6
CONTINUOUS
10
274.611
20
-81.9744
11
272.171
21
-81.761
0
LINE
8
BLACK
6
CONTINUOUS
10
274.52
20
-83.0105
11
274.611
21
-81.9744
0
LINE
8
BLACK
6
CONTINUOUS
10
279.53
20
-82.7461
11
279.469
21
-83.4435
0
LINE
8
BLACK
6
CONTINUOUS
10
279.469
20
-83.4435
11
274.52
21
-83.0105
0
LINE
8
BLACK
6
CONTINUOUS
10
279.998
20
-77.76
11
280.086
21
-76.7638
0
LINE
8
BLACK
6
CONTINUOUS
10
280.627
20
-76.3093
11
280.086
21
-76.7638
0
LINE
8
BLACK
6
CONTINUOUS
10
284.122
20
-76.615
11
280.627
21
-76.3093
0
LINE
8
BLACK
6
CONTINUOUS
10
283.685
20
-81.6039
11
281.179
21
-81.3847
0
LINE
8
BLACK
6
CONTINUOUS
10
284.576
20
-77.1567
11
284.122
21
-76.615
0
LINE
8
BLACK
6
CONTINUOUS
10
284.53
20
-77.6918
11
284.576
21
-77.1567
0
LINE
8
BLACK
6
CONTINUOUS
10
284.53
20
-77.6918
11
286.969
21
-77.9053
0
LINE
8
BLACK
6
CONTINUOUS
10
284.277
20
-80.5764
11
286.717
21
-80.7898
0
LINE
8
BLACK
6
CONTINUOUS
10
284.227
20
-81.1494
11
283.685
21
-81.6039
0
LINE
8
BLACK
6
CONTINUOUS
10
284.227
20
-81.1494
11
284.277
21
-80.5764
0
LINE
8
BLACK
6
CONTINUOUS
10
286.969
20
-77.9053
11
286.717
21
-80.7898
0
ARC
8
BLACK
10
280.972
20
-82.8137
40
1.44391
50
81.7734
51
177.317
0
ARC
8
BLACK
10
279.5
20
-77.7164
40
0.5
50
-94.9999
51
-5.00012
0
CIRCLE
8
BLACK
10
276.187
20
-84.4326
40
0.855
0
CIRCLE
8
BLACK
10
281.666
20
-84.9119
40
1.75
0
CIRCLE
8
BLACK
10
287.145
20
-85.3913
40
0.855001
0
LINE
8
BLACK
6
CONTINUOUS
10
260.662
20
-85.8705
11
265.844
21
-85.8705
0
LINE
8
BLACK
6
CONTINUOUS
10
265.844
20
-85.8705
11
265.844
21
-87.9025
0
LINE
8
BLACK
6
CONTINUOUS
10
265.844
20
-87.9025
11
260.662
21
-87.9025
0
LINE
8
BLACK
6
CONTINUOUS
10
260.662
20
-87.9025
11
260.662
21
-85.8705
0
CIRCLE
8
BLACK
10
256.959
20
-213.095
40
1.6
0
LINE
8
BLACK
6
CONTINUOUS
10
217.497
20
-78.8753
11
217.497
21
-75.9797
0
LINE
8
BLACK
6
CONTINUOUS
10
219.946
20
-74.7073
11
224.446
21
-74.7073
0
LINE
8
BLACK
6
CONTINUOUS
10
219.946
20
-75.9797
11
217.497
21
-75.9797
0
LINE
8
BLACK
6
CONTINUOUS
10
219.946
20
-75.9797
11
219.946
21
-74.7073
0
LINE
8
BLACK
6
CONTINUOUS
10
219.946
20
-78.8753
11
217.497
21
-78.8753
0
LINE
8
BLACK
6
CONTINUOUS
10
219.946
20
-79.9153
11
219.946
21
-78.8753
0
LINE
8
BLACK
6
CONTINUOUS
10
224.914
20
-79.2153
11
224.914
21
-79.9153
0
LINE
8
BLACK
6
CONTINUOUS
10
224.914
20
-79.9153
11
219.946
21
-79.9153
0
LINE
8
BLACK
6
CONTINUOUS
10
224.946
20
-74.2073
11
224.946
21
-73.2073
0
LINE
8
BLACK
6
CONTINUOUS
10
225.446
20
-72.7073
11
224.946
21
-73.2073
0
LINE
8
BLACK
6
CONTINUOUS
10
228.954
20
-72.7073
11
225.446
21
-72.7073
0
LINE
8
BLACK
6
CONTINUOUS
10
228.954
20
-77.7153
11
226.438
21
-77.7153
0
LINE
8
BLACK
6
CONTINUOUS
10
229.454
20
-73.2073
11
228.954
21
-72.7073
0
LINE
8
BLACK
6
CONTINUOUS
10
229.454
20
-73.7445
11
229.454
21
-73.2073
0
LINE
8
BLACK
6
CONTINUOUS
10
229.454
20
-73.7445
11
231.903
21
-73.7445
0
LINE
8
BLACK
6
CONTINUOUS
10
229.454
20
-76.6401
11
231.903
21
-76.6401
0
LINE
8
BLACK
6
CONTINUOUS
10
229.454
20
-77.2153
11
228.954
21
-77.7153
0
LINE
8
BLACK
6
CONTINUOUS
10
229.454
20
-77.2153
11
229.454
21
-76.6401
0
LINE
8
BLACK
6
CONTINUOUS
10
231.903
20
-73.7445
11
231.903
21
-76.6401
0
ARC
8
BLACK
10
226.356
20
-79.1569
40
1.44391
50
-273.227
51
-177.683
0
ARC
8
BLACK
10
224.446
20
-74.2073
40
0.500001
50
-89.9999
51
-0.000114591
0
CIRCLE
8
BLACK
10
221.73
20
-81.1867
40
0.855
0
CIRCLE
8
BLACK
10
227.23
20
-81.1867
40
1.75
0
CIRCLE
8
BLACK
10
232.73
20
-81.1867
40
0.855
0
LINE
8
BLACK
6
CONTINUOUS
10
210.554
20
-103.019
11
215.657
21
-102.12
0
LINE
8
BLACK
6
CONTINUOUS
10
215.657
20
-102.12
11
216.01
21
-104.121
0
LINE
8
BLACK
6
CONTINUOUS
10
216.01
20
-104.121
11
210.907
21
-105.02
0
LINE
8
BLACK
6
CONTINUOUS
10
210.907
20
-105.02
11
210.554
21
-103.019
0
LINE
8
BLACK
6
CONTINUOUS
10
206.639
20
-86.6701
11
211.821
21
-86.6701
0
LINE
8
BLACK
6
CONTINUOUS
10
211.821
20
-86.6701
11
211.821
21
-88.7021
0
LINE
8
BLACK
6
CONTINUOUS
10
211.821
20
-88.7021
11
206.639
21
-88.7021
0
LINE
8
BLACK
6
CONTINUOUS
10
206.639
20
-88.7021
11
206.639
21
-86.6701
0
LINE
8
BLACK
6
CONTINUOUS
10
242.639
20
-47.5605
11
247.821
21
-47.5605
0
LINE
8
BLACK
6
CONTINUOUS
10
247.821
20
-47.5605
11
247.821
21
-49.5925
0
LINE
8
BLACK
6
CONTINUOUS
10
247.821
20
-49.5925
11
242.639
21
-49.5925
0
LINE
8
BLACK
6
CONTINUOUS
10
242.639
20
-49.5925
11
242.639
21
-47.5605
0
CIRCLE
8
BLACK
10
274.205
20
-144.455
40
1.6
0
LINE
8
BLACK
6
CONTINUOUS
10
191.004
20
-228.014
11
204.911
21
-222.952
0
LINE
8
BLACK
6
CONTINUOUS
10
204.911
20
-222.952
11
199.849
21
-209.045
0
LINE
8
BLACK
6
CONTINUOUS
10
199.849
20
-209.045
11
185.942
21
-214.107
0
LINE
8
BLACK
6
CONTINUOUS
10
185.942
20
-214.107
11
191.004
21
-228.014
0
LINE
8
BLACK
6
CONTINUOUS
10
235.497
20
-75.5649
11
235.497
21
-72.6693
0
LINE
8
BLACK
6
CONTINUOUS
10
237.946
20
-71.3969
11
242.446
21
-71.3969
0
LINE
8
BLACK
6
CONTINUOUS
10
237.946
20
-72.6693
11
235.497
21
-72.6693
0
LINE
8
BLACK
6
CONTINUOUS
10
237.946
20
-72.6693
11
237.946
21
-71.3969
0
LINE
8
BLACK
6
CONTINUOUS
10
237.946
20
-75.5649
11
235.497
21
-75.5649
0
LINE
8
BLACK
6
CONTINUOUS
10
237.946
20
-76.6049
11
237.946
21
-75.5649
0
LINE
8
BLACK
6
CONTINUOUS
10
242.914
20
-75.9049
11
242.914
21
-76.6049
0
LINE
8
BLACK
6
CONTINUOUS
10
242.914
20
-76.6049
11
237.946
21
-76.6049
0
LINE
8
BLACK
6
CONTINUOUS
10
242.946
20
-70.8969
11
242.946
21
-69.8969
0
LINE
8
BLACK
6
CONTINUOUS
10
243.446
20
-69.3969
11
242.946
21
-69.8969
0
LINE
8
BLACK
6
CONTINUOUS
10
246.954
20
-69.3969
11
243.446
21
-69.3969
0
LINE
8
BLACK
6
CONTINUOUS
10
246.954
20
-74.4049
11
244.438
21
-74.4049
0
LINE
8
BLACK
6
CONTINUOUS
10
247.454
20
-69.8969
11
246.954
21
-69.3969
0
LINE
8
BLACK
6
CONTINUOUS
10
247.454
20
-70.4341
11
247.454
21
-69.8969
0
LINE
8
BLACK
6
CONTINUOUS
10
247.454
20
-70.4341
11
249.903
21
-70.4341
0
LINE
8
BLACK
6
CONTINUOUS
10
247.454
20
-73.3297
11
249.903
21
-73.3297
0
LINE
8
BLACK
6
CONTINUOUS
10
247.454
20
-73.9049
11
246.954
21
-74.4049
0
LINE
8
BLACK
6
CONTINUOUS
10
247.454
20
-73.9049
11
247.454
21
-73.3297
0
LINE
8
BLACK
6
CONTINUOUS
10
249.903
20
-70.4341
11
249.903
21
-73.3297
0
ARC
8
BLACK
10
244.357
20
-75.8465
40
1.44391
50
-273.227
51
-177.683
0
ARC
8
BLACK
10
242.446
20
-70.8969
40
0.500001
50
-89.9999
51
-0.000114591
0
CIRCLE
8
BLACK
10
239.731
20
-77.8763
40
0.855
0
CIRCLE
8
BLACK
10
245.231
20
-77.8763
40
1.75
0
CIRCLE
8
BLACK
10
250.731
20
-77.8763
40
0.855
0
LINE
8
BLACK
6
CONTINUOUS
10
216.91
20
-146.802
11
202.11
21
-146.802
0
LINE
8
BLACK
6
CONTINUOUS
10
202.11
20
-146.802
11
202.11
21
-161.602
0
LINE
8
BLACK
6
CONTINUOUS
10
202.11
20
-161.602
11
216.91
21
-161.602
0
LINE
8
BLACK
6
CONTINUOUS
10
216.91
20
-161.602
11
216.91
21
-146.802
0
LINE
8
BLACK
6
CONTINUOUS
10
142.759
20
-80.6743
11
142.759
21
-77.7787
0
LINE
8
BLACK
6
CONTINUOUS
10
145.208
20
-76.5063
11
149.708
21
-76.5063
0
LINE
8
BLACK
6
CONTINUOUS
10
145.208
20
-77.7787
11
142.759
21
-77.7787
0
LINE
8
BLACK
6
CONTINUOUS
10
145.208
20
-77.7787
11
145.208
21
-76.5063
0
LINE
8
BLACK
6
CONTINUOUS
10
145.208
20
-80.6743
11
142.759
21
-80.6743
0
LINE
8
BLACK
6
CONTINUOUS
10
145.208
20
-81.7143
11
145.208
21
-80.6743
0
LINE
8
BLACK
6
CONTINUOUS
10
150.176
20
-81.0143
11
150.176
21
-81.7143
0
LINE
8
BLACK
6
CONTINUOUS
10
150.176
20
-81.7143
11
145.208
21
-81.7143
0
LINE
8
BLACK
6
CONTINUOUS
10
150.208
20
-76.0063
11
150.208
21
-75.0063
0
LINE
8
BLACK
6
CONTINUOUS
10
150.708
20
-74.5063
11
150.208
21
-75.0063
0
LINE
8
BLACK
6
CONTINUOUS
10
154.216
20
-74.5063
11
150.708
21
-74.5063
0
LINE
8
BLACK
6
CONTINUOUS
10
154.216
20
-79.5143
11
151.7
21
-79.5143
0
LINE
8
BLACK
6
CONTINUOUS
10
154.716
20
-75.0063
11
154.216
21
-74.5063
0
LINE
8
BLACK
6
CONTINUOUS
10
154.716
20
-75.5435
11
154.716
21
-75.0063
0
LINE
8
BLACK
6
CONTINUOUS
10
154.716
20
-75.5435
11
157.165
21
-75.5435
0
LINE
8
BLACK
6
CONTINUOUS
10
154.716
20
-78.4391
11
157.165
21
-78.4391
0
LINE
8
BLACK
6
CONTINUOUS
10
154.716
20
-79.0143
11
154.216
21
-79.5143
0
LINE
8
BLACK
6
CONTINUOUS
10
154.716
20
-79.0143
11
154.716
21
-78.4391
0
LINE
8
BLACK
6
CONTINUOUS
10
157.165
20
-75.5435
11
157.165
21
-78.4391
0
ARC
8
BLACK
10
151.619
20
-80.9559
40
1.44391
50
-273.227
51
-177.683
0
ARC
8
BLACK
10
149.708
20
-76.0063
40
0.500001
50
-89.9999
51
-0.000114591
0
CIRCLE
8
BLACK
10
146.993
20
-82.9857
40
0.855
0
CIRCLE
8
BLACK
10
152.493
20
-82.9857
40
1.75
0
CIRCLE
8
BLACK
10
157.993
20
-82.9857
40
0.855
0
LINE
8
BLACK
6
CONTINUOUS
10
68.6455
20
-66.5299
11
68.3932
21
-63.6454
0
LINE
8
BLACK
6
CONTINUOUS
10
70.7218
20
-62.1644
11
75.2046
21
-61.7722
0
LINE
8
BLACK
6
CONTINUOUS
10
70.8327
20
-63.4319
11
68.3932
21
-63.6454
0
LINE
8
BLACK
6
CONTINUOUS
10
70.8327
20
-63.4319
11
70.7218
21
-62.1644
0
LINE
8
BLACK
6
CONTINUOUS
10
71.085
20
-66.3165
11
68.6455
21
-66.5299
0
LINE
8
BLACK
6
CONTINUOUS
10
71.1757
20
-67.3526
11
71.085
21
-66.3165
0
LINE
8
BLACK
6
CONTINUOUS
10
76.0638
20
-66.2222
11
76.1248
21
-66.9196
0
LINE
8
BLACK
6
CONTINUOUS
10
76.1248
20
-66.9196
11
71.1757
21
-67.3526
0
LINE
8
BLACK
6
CONTINUOUS
10
75.6592
20
-61.2305
11
75.572
21
-60.2343
0
LINE
8
BLACK
6
CONTINUOUS
10
76.0265
20
-59.6926
11
75.572
21
-60.2343
0
LINE
8
BLACK
6
CONTINUOUS
10
79.5212
20
-59.3869
11
76.0265
21
-59.6926
0
LINE
8
BLACK
6
CONTINUOUS
10
79.9576
20
-64.3758
11
77.4512
21
-64.5951
0
LINE
8
BLACK
6
CONTINUOUS
10
80.0628
20
-59.8414
11
79.5212
21
-59.3869
0
LINE
8
BLACK
6
CONTINUOUS
10
80.1097
20
-60.3766
11
80.0628
21
-59.8414
0
LINE
8
BLACK
6
CONTINUOUS
10
80.1097
20
-60.3766
11
82.5491
21
-60.1631
0
LINE
8
BLACK
6
CONTINUOUS
10
80.362
20
-63.2612
11
82.8015
21
-63.0477
0
LINE
8
BLACK
6
CONTINUOUS
10
80.4122
20
-63.8342
11
79.9576
21
-64.3758
0
LINE
8
BLACK
6
CONTINUOUS
10
80.4122
20
-63.8342
11
80.362
21
-63.2612
0
LINE
8
BLACK
6
CONTINUOUS
10
82.5491
20
-60.1631
11
82.8015
21
-63.0477
0
ARC
8
BLACK
10
77.4959
20
-66.0383
40
1.44391
50
-268.227
51
-172.683
0
ARC
8
BLACK
10
75.1611
20
-61.2741
40
0.500001
50
-84.9999
51
4.99988
0
CIRCLE
8
BLACK
10
73.0643
20
-68.4636
40
0.855
0
CIRCLE
8
BLACK
10
78.5434
20
-67.9842
40
1.75
0
CIRCLE
8
BLACK
10
84.0224
20
-67.5049
40
0.855001
0
LINE
8
BLACK
6
CONTINUOUS
10
106.759
20
-75.5649
11
106.759
21
-72.6693
0
LINE
8
BLACK
6
CONTINUOUS
10
109.208
20
-71.3969
11
113.708
21
-71.3969
0
LINE
8
BLACK
6
CONTINUOUS
10
109.208
20
-72.6693
11
106.759
21
-72.6693
0
LINE
8
BLACK
6
CONTINUOUS
10
109.208
20
-72.6693
11
109.208
21
-71.3969
0
LINE
8
BLACK
6
CONTINUOUS
10
109.208
20
-75.5649
11
106.759
21
-75.5649
0
LINE
8
BLACK
6
CONTINUOUS
10
109.208
20
-76.6049
11
109.208
21
-75.5649
0
LINE
8
BLACK
6
CONTINUOUS
10
114.176
20
-75.9049
11
114.176
21
-76.6049
0
LINE
8
BLACK
6
CONTINUOUS
10
114.176
20
-76.6049
11
109.208
21
-76.6049
0
LINE
8
BLACK
6
CONTINUOUS
10
114.208
20
-70.8969
11
114.208
21
-69.8969
0
LINE
8
BLACK
6
CONTINUOUS
10
114.708
20
-69.3969
11
114.208
21
-69.8969
0
LINE
8
BLACK
6
CONTINUOUS
10
118.216
20
-69.3969
11
114.708
21
-69.3969
0
LINE
8
BLACK
6
CONTINUOUS
10
118.216
20
-74.4049
11
115.7
21
-74.4049
0
LINE
8
BLACK
6
CONTINUOUS
10
118.716
20
-69.8969
11
118.216
21
-69.3969
0
LINE
8
BLACK
6
CONTINUOUS
10
118.716
20
-70.4341
11
118.716
21
-69.8969
0
LINE
8
BLACK
6
CONTINUOUS
10
118.716
20
-70.4341
11
121.165
21
-70.4341
0
LINE
8
BLACK
6
CONTINUOUS
10
118.716
20
-73.3297
11
121.165
21
-73.3297
0
LINE
8
BLACK
6
CONTINUOUS
10
118.716
20
-73.9049
11
118.216
21
-74.4049
0
LINE
8
BLACK
6
CONTINUOUS
10
118.716
20
-73.9049
11
118.716
21
-73.3297
0
LINE
8
BLACK
6
CONTINUOUS
10
121.165
20
-70.4341
11
121.165
21
-73.3297
0
ARC
8
BLACK
10
115.619
20
-75.8465
40
1.44391
50
-273.227
51
-177.683
0
ARC
8
BLACK
10
113.708
20
-70.8969
40
0.500001
50
-89.9999
51
-0.000114591
0
CIRCLE
8
BLACK
10
110.993
20
-77.8763
40
0.855
0
CIRCLE
8
BLACK
10
116.493
20
-77.8763
40
1.75
0
CIRCLE
8
BLACK
10
121.993
20
-77.8763
40
0.855
0
LINE
8
BLACK
6
CONTINUOUS
10
253.497
20
-45.8755
11
253.497
21
-42.9799
0
LINE
8
BLACK
6
CONTINUOUS
10
255.945
20
-41.7075
11
260.445
21
-41.7075
0
LINE
8
BLACK
6
CONTINUOUS
10
255.945
20
-42.9799
11
253.497
21
-42.9799
0
LINE
8
BLACK
6
CONTINUOUS
10
255.945
20
-42.9799
11
255.945
21
-41.7075
0
LINE
8
BLACK
6
CONTINUOUS
10
255.945
20
-45.8755
11
253.497
21
-45.8755
0
LINE
8
BLACK
6
CONTINUOUS
10
255.945
20
-46.9155
11
255.945
21
-45.8755
0
LINE
8
BLACK
6
CONTINUOUS
10
260.913
20
-46.2155
11
260.913
21
-46.9155
0
LINE
8
BLACK
6
CONTINUOUS
10
260.913
20
-46.9155
11
255.945
21
-46.9155
0
LINE
8
BLACK
6
CONTINUOUS
10
260.945
20
-41.2075
11
260.945
21
-40.2075
0
LINE
8
BLACK
6
CONTINUOUS
10
261.445
20
-39.7075
11
260.945
21
-40.2075
0
LINE
8
BLACK
6
CONTINUOUS
10
264.953
20
-39.7075
11
261.445
21
-39.7075
0
LINE
8
BLACK
6
CONTINUOUS
10
264.953
20
-44.7155
11
262.437
21
-44.7155
0
LINE
8
BLACK
6
CONTINUOUS
10
265.453
20
-40.2075
11
264.953
21
-39.7075
0
LINE
8
BLACK
6
CONTINUOUS
10
265.453
20
-40.7447
11
265.453
21
-40.2075
0
LINE
8
BLACK
6
CONTINUOUS
10
265.453
20
-40.7447
11
267.902
21
-40.7447
0
LINE
8
BLACK
6
CONTINUOUS
10
265.453
20
-43.6403
11
267.902
21
-43.6403
0
LINE
8
BLACK
6
CONTINUOUS
10
265.453
20
-44.2155
11
264.953
21
-44.7155
0
LINE
8
BLACK
6
CONTINUOUS
10
265.453
20
-44.2155
11
265.453
21
-43.6403
0
LINE
8
BLACK
6
CONTINUOUS
10
267.902
20
-40.7447
11
267.902
21
-43.6403
0
ARC
8
BLACK
10
262.356
20
-46.1571
40
1.44391
50
-273.227
51
-177.683
0
ARC
8
BLACK
10
260.445
20
-41.2075
40
0.500001
50
-89.9999
51
-0.000114591
0
CIRCLE
8
BLACK
10
257.73
20
-48.1869
40
0.855
0
CIRCLE
8
BLACK
10
263.23
20
-48.1869
40
1.75
0
CIRCLE
8
BLACK
10
268.73
20
-48.1869
40
0.855
0
LINE
8
BLACK
6
CONTINUOUS
10
88.7599
20
-79.8747
11
88.7599
21
-76.9791
0
LINE
8
BLACK
6
CONTINUOUS
10
91.2087
20
-75.7067
11
95.7087
21
-75.7067
0
LINE
8
BLACK
6
CONTINUOUS
10
91.2087
20
-76.9791
11
88.7599
21
-76.9791
0
LINE
8
BLACK
6
CONTINUOUS
10
91.2087
20
-76.9791
11
91.2087
21
-75.7067
0
LINE
8
BLACK
6
CONTINUOUS
10
91.2087
20
-79.8747
11
88.7599
21
-79.8747
0
LINE
8
BLACK
6
CONTINUOUS
10
91.2087
20
-80.9147
11
91.2087
21
-79.8747
0
LINE
8
BLACK
6
CONTINUOUS
10
96.1767
20
-80.2147
11
96.1767
21
-80.9147
0
LINE
8
BLACK
6
CONTINUOUS
10
96.1767
20
-80.9147
11
91.2087
21
-80.9147
0
LINE
8
BLACK
6
CONTINUOUS
10
96.2087
20
-75.2067
11
96.2087
21
-74.2067
0
LINE
8
BLACK
6
CONTINUOUS
10
96.7087
20
-73.7067
11
96.2087
21
-74.2067
0
LINE
8
BLACK
6
CONTINUOUS
10
100.217
20
-73.7067
11
96.7087
21
-73.7067
0
LINE
8
BLACK
6
CONTINUOUS
10
100.217
20
-78.7147
11
97.7007
21
-78.7147
0
LINE
8
BLACK
6
CONTINUOUS
10
100.717
20
-74.2067
11
100.217
21
-73.7067
0
LINE
8
BLACK
6
CONTINUOUS
10
100.717
20
-74.7439
11
100.717
21
-74.2067
0
LINE
8
BLACK
6
CONTINUOUS
10
100.717
20
-74.7439
11
103.165
21
-74.7439
0
LINE
8
BLACK
6
CONTINUOUS
10
100.717
20
-77.6395
11
103.165
21
-77.6395
0
LINE
8
BLACK
6
CONTINUOUS
10
100.717
20
-78.2147
11
100.217
21
-78.7147
0
LINE
8
BLACK
6
CONTINUOUS
10
100.717
20
-78.2147
11
100.717
21
-77.6395
0
LINE
8
BLACK
6
CONTINUOUS
10
103.165
20
-74.7439
11
103.165
21
-77.6395
0
ARC
8
BLACK
10
97.6194
20
-80.1563
40
1.44391
50
-273.227
51
-177.683
0
ARC
8
BLACK
10
95.7087
20
-75.2067
40
0.500001
50
-89.9999
51
-0.000114591
0
CIRCLE
8
BLACK
10
92.9933
20
-82.1861
40
0.855
0
CIRCLE
8
BLACK
10
98.4933
20
-82.1861
40
1.75
0
CIRCLE
8
BLACK
10
103.993
20
-82.1861
40
0.855
0
LINE
8
BLACK
6
CONTINUOUS
10
217.497
20
-44.8749
11
217.497
21
-41.9793
0
LINE
8
BLACK
6
CONTINUOUS
10
219.946
20
-40.7069
11
224.446
21
-40.7069
0
LINE
8
BLACK
6
CONTINUOUS
10
219.946
20
-41.9793
11
217.497
21
-41.9793
0
LINE
8
BLACK
6
CONTINUOUS
10
219.946
20
-41.9793
11
219.946
21
-40.7069
0
LINE
8
BLACK
6
CONTINUOUS
10
219.946
20
-44.8749
11
217.497
21
-44.8749
0
LINE
8
BLACK
6
CONTINUOUS
10
219.946
20
-45.9149
11
219.946
21
-44.8749
0
LINE
8
BLACK
6
CONTINUOUS
10
224.914
20
-45.2149
11
224.914
21
-45.9149
0
LINE
8
BLACK
6
CONTINUOUS
10
224.914
20
-45.9149
11
219.946
21
-45.9149
0
LINE
8
BLACK
6
CONTINUOUS
10
224.946
20
-40.2069
11
224.946
21
-39.2069
0
LINE
8
BLACK
6
CONTINUOUS
10
225.446
20
-38.7069
11
224.946
21
-39.2069
0
LINE
8
BLACK
6
CONTINUOUS
10
228.954
20
-38.7069
11
225.446
21
-38.7069
0
LINE
8
BLACK
6
CONTINUOUS
10
228.954
20
-43.7149
11
226.438
21
-43.7149
0
LINE
8
BLACK
6
CONTINUOUS
10
229.454
20
-39.2069
11
228.954
21
-38.7069
0
LINE
8
BLACK
6
CONTINUOUS
10
229.454
20
-39.7441
11
229.454
21
-39.2069
0
LINE
8
BLACK
6
CONTINUOUS
10
229.454
20
-39.7441
11
231.903
21
-39.7441
0
LINE
8
BLACK
6
CONTINUOUS
10
229.454
20
-42.6397
11
231.903
21
-42.6397
0
LINE
8
BLACK
6
CONTINUOUS
10
229.454
20
-43.2149
11
228.954
21
-43.7149
0
LINE
8
BLACK
6
CONTINUOUS
10
229.454
20
-43.2149
11
229.454
21
-42.6397
0
LINE
8
BLACK
6
CONTINUOUS
10
231.903
20
-39.7441
11
231.903
21
-42.6397
0
ARC
8
BLACK
10
226.356
20
-45.1565
40
1.44391
50
-273.227
51
-177.683
0
ARC
8
BLACK
10
224.446
20
-40.2069
40
0.500001
50
-89.9999
51
-0.000114591
0
CIRCLE
8
BLACK
10
221.73
20
-47.1863
40
0.855
0
CIRCLE
8
BLACK
10
227.23
20
-47.1863
40
1.75
0
CIRCLE
8
BLACK
10
232.73
20
-47.1863
40
0.855
0
LINE
8
BLACK
6
CONTINUOUS
10
88.7599
20
-45.8755
11
88.7599
21
-42.9799
0
LINE
8
BLACK
6
CONTINUOUS
10
91.2087
20
-41.7075
11
95.7087
21
-41.7075
0
LINE
8
BLACK
6
CONTINUOUS
10
91.2087
20
-42.9799
11
88.7599
21
-42.9799
0
LINE
8
BLACK
6
CONTINUOUS
10
91.2087
20
-42.9799
11
91.2087
21
-41.7075
0
LINE
8
BLACK
6
CONTINUOUS
10
91.2087
20
-45.8755
11
88.7599
21
-45.8755
0
LINE
8
BLACK
6
CONTINUOUS
10
91.2087
20
-46.9155
11
91.2087
21
-45.8755
0
LINE
8
BLACK
6
CONTINUOUS
10
96.1767
20
-46.2155
11
96.1767
21
-46.9155
0
LINE
8
BLACK
6
CONTINUOUS
10
96.1767
20
-46.9155
11
91.2087
21
-46.9155
0
LINE
8
BLACK
6
CONTINUOUS
10
96.2087
20
-41.2075
11
96.2087
21
-40.2075
0
LINE
8
BLACK
6
CONTINUOUS
10
96.7087
20
-39.7075
11
96.2087
21
-40.2075
0
LINE
8
BLACK
6
CONTINUOUS
10
100.217
20
-39.7075
11
96.7087
21
-39.7075
0
LINE
8
BLACK
6
CONTINUOUS
10
100.217
20
-44.7155
11
97.7007
21
-44.7155
0
LINE
8
BLACK
6
CONTINUOUS
10
100.717
20
-40.2075
11
100.217
21
-39.7075
0
LINE
8
BLACK
6
CONTINUOUS
10
100.717
20
-40.7447
11
100.717
21
-40.2075
0
LINE
8
BLACK
6
CONTINUOUS
10
100.717
20
-40.7447
11
103.165
21
-40.7447
0
LINE
8
BLACK
6
CONTINUOUS
10
100.717
20
-43.6403
11
103.165
21
-43.6403
0
LINE
8
BLACK
6
CONTINUOUS
10
100.717
20
-44.2155
11
100.217
21
-44.7155
0
LINE
8
BLACK
6
CONTINUOUS
10
100.717
20
-44.2155
11
100.717
21
-43.6403
0
LINE
8
BLACK
6
CONTINUOUS
10
103.165
20
-40.7447
11
103.165
21
-43.6403
0
ARC
8
BLACK
10
97.6194
20
-46.1571
40
1.44391
50
-273.227
51
-177.683
0
ARC
8
BLACK
10
95.7087
20
-41.2075
40
0.500001
50
-89.9999
51
-0.000114591
0
CIRCLE
8
BLACK
10
92.9933
20
-48.1869
40
0.855
0
CIRCLE
8
BLACK
10
98.4933
20
-48.1869
40
1.75
0
CIRCLE
8
BLACK
10
103.993
20
-48.1869
40
0.855
0
LINE
8
BLACK
6
CONTINUOUS
10
70.1593
20
-83.4576
11
69.9069
21
-80.5731
0
LINE
8
BLACK
6
CONTINUOUS
10
72.2355
20
-79.0921
11
76.7184
21
-78.6999
0
LINE
8
BLACK
6
CONTINUOUS
10
72.3464
20
-80.3596
11
69.9069
21
-80.5731
0
LINE
8
BLACK
6
CONTINUOUS
10
72.3464
20
-80.3596
11
72.2355
21
-79.0921
0
LINE
8
BLACK
6
CONTINUOUS
10
72.5988
20
-83.2442
11
70.1593
21
-83.4576
0
LINE
8
BLACK
6
CONTINUOUS
10
72.6894
20
-84.2803
11
72.5988
21
-83.2442
0
LINE
8
BLACK
6
CONTINUOUS
10
77.5775
20
-83.1499
11
77.6385
21
-83.8473
0
LINE
8
BLACK
6
CONTINUOUS
10
77.6385
20
-83.8473
11
72.6894
21
-84.2803
0
LINE
8
BLACK
6
CONTINUOUS
10
77.1729
20
-78.1582
11
77.0857
21
-77.162
0
LINE
8
BLACK
6
CONTINUOUS
10
77.5403
20
-76.6203
11
77.0857
21
-77.162
0
LINE
8
BLACK
6
CONTINUOUS
10
81.0349
20
-76.3146
11
77.5403
21
-76.6203
0
LINE
8
BLACK
6
CONTINUOUS
10
81.4714
20
-81.3035
11
78.965
21
-81.5228
0
LINE
8
BLACK
6
CONTINUOUS
10
81.5766
20
-76.7691
11
81.0349
21
-76.3146
0
LINE
8
BLACK
6
CONTINUOUS
10
81.6234
20
-77.3043
11
81.5766
21
-76.7691
0
LINE
8
BLACK
6
CONTINUOUS
10
81.6234
20
-77.3043
11
84.0629
21
-77.0908
0
LINE
8
BLACK
6
CONTINUOUS
10
81.8758
20
-80.1888
11
84.3153
21
-79.9754
0
LINE
8
BLACK
6
CONTINUOUS
10
81.9259
20
-80.7619
11
81.4714
21
-81.3035
0
LINE
8
BLACK
6
CONTINUOUS
10
81.9259
20
-80.7619
11
81.8758
21
-80.1888
0
LINE
8
BLACK
6
CONTINUOUS
10
84.0629
20
-77.0908
11
84.3153
21
-79.9754
0
ARC
8
BLACK
10
79.0097
20
-82.966
40
1.44391
50
-268.227
51
-172.683
0
ARC
8
BLACK
10
76.6748
20
-78.2018
40
0.500001
50
-84.9999
51
4.99988
0
CIRCLE
8
BLACK
10
74.578
20
-85.3913
40
0.855
0
CIRCLE
8
BLACK
10
80.0571
20
-84.9119
40
1.75
0
CIRCLE
8
BLACK
10
85.5362
20
-84.4326
40
0.855001
0
LINE
8
BLACK
6
CONTINUOUS
10
234.91
20
-162.003
11
220.11
21
-162.003
0
LINE
8
BLACK
6
CONTINUOUS
10
220.11
20
-162.003
11
220.11
21
-176.803
0
LINE
8
BLACK
6
CONTINUOUS
10
220.11
20
-176.803
11
234.91
21
-176.803
0
LINE
8
BLACK
6
CONTINUOUS
10
234.91
20
-176.803
11
234.91
21
-162.003
0
LINE
8
BLACK
6
CONTINUOUS
10
283.75
20
-90.8314
11
278.588
21
-90.3798
0
LINE
8
BLACK
6
CONTINUOUS
10
278.588
20
-90.3798
11
278.766
21
-88.3555
0
LINE
8
BLACK
6
CONTINUOUS
10
278.766
20
-88.3555
11
283.927
21
-88.8071
0
LINE
8
BLACK
6
CONTINUOUS
10
283.927
20
-88.8071
11
283.75
21
-90.8314
0
LINE
8
BLACK
6
CONTINUOUS
10
291.476
20
-166.474
11
276.733
21
-165.184
0
LINE
8
BLACK
6
CONTINUOUS
10
276.733
20
-165.184
11
275.443
21
-179.927
0
LINE
8
BLACK
6
CONTINUOUS
10
275.443
20
-179.927
11
290.186
21
-181.217
0
LINE
8
BLACK
6
CONTINUOUS
10
290.186
20
-181.217
11
291.476
21
-166.474
0
LINE
8
BLACK
6
CONTINUOUS
10
142.759
20
-63.6743
11
142.759
21
-60.7787
0
LINE
8
BLACK
6
CONTINUOUS
10
145.208
20
-59.5063
11
149.708
21
-59.5063
0
LINE
8
BLACK
6
CONTINUOUS
10
145.208
20
-60.7787
11
142.759
21
-60.7787
0
LINE
8
BLACK
6
CONTINUOUS
10
145.208
20
-60.7787
11
145.208
21
-59.5063
0
LINE
8
BLACK
6
CONTINUOUS
10
145.208
20
-63.6743
11
142.759
21
-63.6743
0
LINE
8
BLACK
6
CONTINUOUS
10
145.208
20
-64.7143
11
145.208
21
-63.6743
0
LINE
8
BLACK
6
CONTINUOUS
10
150.176
20
-64.0143
11
150.176
21
-64.7143
0
LINE
8
BLACK
6
CONTINUOUS
10
150.176
20
-64.7143
11
145.208
21
-64.7143
0
LINE
8
BLACK
6
CONTINUOUS
10
150.208
20
-59.0063
11
150.208
21
-58.0063
0
LINE
8
BLACK
6
CONTINUOUS
10
150.708
20
-57.5063
11
150.208
21
-58.0063
0
LINE
8
BLACK
6
CONTINUOUS
10
154.216
20
-57.5063
11
150.708
21
-57.5063
0
LINE
8
BLACK
6
CONTINUOUS
10
154.216
20
-62.5143
11
151.7
21
-62.5143
0
LINE
8
BLACK
6
CONTINUOUS
10
154.716
20
-58.0063
11
154.216
21
-57.5063
0
LINE
8
BLACK
6
CONTINUOUS
10
154.716
20
-58.5435
11
154.716
21
-58.0063
0
LINE
8
BLACK
6
CONTINUOUS
10
154.716
20
-58.5435
11
157.165
21
-58.5435
0
LINE
8
BLACK
6
CONTINUOUS
10
154.716
20
-61.4391
11
157.165
21
-61.4391
0
LINE
8
BLACK
6
CONTINUOUS
10
154.716
20
-62.0143
11
154.216
21
-62.5143
0
LINE
8
BLACK
6
CONTINUOUS
10
154.716
20
-62.0143
11
154.716
21
-61.4391
0
LINE
8
BLACK
6
CONTINUOUS
10
157.165
20
-58.5435
11
157.165
21
-61.4391
0
ARC
8
BLACK
10
151.619
20
-63.9559
40
1.44391
50
-273.227
51
-177.683
0
ARC
8
BLACK
10
149.708
20
-59.0063
40
0.500001
50
-89.9999
51
-0.000114591
0
CIRCLE
8
BLACK
10
146.993
20
-65.9857
40
0.855
0
CIRCLE
8
BLACK
10
152.493
20
-65.9857
40
1.75
0
CIRCLE
8
BLACK
10
157.993
20
-65.9857
40
0.855
0
LINE
8
BLACK
6
CONTINUOUS
10
199.497
20
-46.6745
11
199.497
21
-43.7789
0
LINE
8
BLACK
6
CONTINUOUS
10
201.946
20
-42.5065
11
206.446
21
-42.5065
0
LINE
8
BLACK
6
CONTINUOUS
10
201.946
20
-43.7789
11
199.497
21
-43.7789
0
LINE
8
BLACK
6
CONTINUOUS
10
201.946
20
-43.7789
11
201.946
21
-42.5065
0
LINE
8
BLACK
6
CONTINUOUS
10
201.946
20
-46.6745
11
199.497
21
-46.6745
0
LINE
8
BLACK
6
CONTINUOUS
10
201.946
20
-47.7145
11
201.946
21
-46.6745
0
LINE
8
BLACK
6
CONTINUOUS
10
206.914
20
-47.0145
11
206.914
21
-47.7145
0
LINE
8
BLACK
6
CONTINUOUS
10
206.914
20
-47.7145
11
201.946
21
-47.7145
0
LINE
8
BLACK
6
CONTINUOUS
10
206.946
20
-42.0065
11
206.946
21
-41.0065
0
LINE
8
BLACK
6
CONTINUOUS
10
207.446
20
-40.5065
11
206.946
21
-41.0065
0
LINE
8
BLACK
6
CONTINUOUS
10
210.954
20
-40.5065
11
207.446
21
-40.5065
0
LINE
8
BLACK
6
CONTINUOUS
10
210.954
20
-45.5145
11
208.438
21
-45.5145
0
LINE
8
BLACK
6
CONTINUOUS
10
211.454
20
-41.0065
11
210.954
21
-40.5065
0
LINE
8
BLACK
6
CONTINUOUS
10
211.454
20
-41.5437
11
211.454
21
-41.0065
0
LINE
8
BLACK
6
CONTINUOUS
10
211.454
20
-41.5437
11
213.903
21
-41.5437
0
LINE
8
BLACK
6
CONTINUOUS
10
211.454
20
-44.4393
11
213.903
21
-44.4393
0
LINE
8
BLACK
6
CONTINUOUS
10
211.454
20
-45.0145
11
210.954
21
-45.5145
0
LINE
8
BLACK
6
CONTINUOUS
10
211.454
20
-45.0145
11
211.454
21
-44.4393
0
LINE
8
BLACK
6
CONTINUOUS
10
213.903
20
-41.5437
11
213.903
21
-44.4393
0
ARC
8
BLACK
10
208.357
20
-46.9561
40
1.44391
50
-273.227
51
-177.683
0
ARC
8
BLACK
10
206.446
20
-42.0065
40
0.500001
50
-89.9999
51
-0.000114591
0
CIRCLE
8
BLACK
10
203.731
20
-48.9859
40
0.855
0
CIRCLE
8
BLACK
10
209.231
20
-48.9859
40
1.75
0
CIRCLE
8
BLACK
10
214.731
20
-48.9859
40
0.855
0
LINE
8
BLACK
6
CONTINUOUS
10
106.759
20
-58.5647
11
106.759
21
-55.6691
0
LINE
8
BLACK
6
CONTINUOUS
10
109.208
20
-54.3967
11
113.708
21
-54.3967
0
LINE
8
BLACK
6
CONTINUOUS
10
109.208
20
-55.6691
11
106.759
21
-55.6691
0
LINE
8
BLACK
6
CONTINUOUS
10
109.208
20
-55.6691
11
109.208
21
-54.3967
0
LINE
8
BLACK
6
CONTINUOUS
10
109.208
20
-58.5647
11
106.759
21
-58.5647
0
LINE
8
BLACK
6
CONTINUOUS
10
109.208
20
-59.6047
11
109.208
21
-58.5647
0
LINE
8
BLACK
6
CONTINUOUS
10
114.176
20
-58.9047
11
114.176
21
-59.6047
0
LINE
8
BLACK
6
CONTINUOUS
10
114.176
20
-59.6047
11
109.208
21
-59.6047
0
LINE
8
BLACK
6
CONTINUOUS
10
114.208
20
-53.8967
11
114.208
21
-52.8967
0
LINE
8
BLACK
6
CONTINUOUS
10
114.708
20
-52.3967
11
114.208
21
-52.8967
0
LINE
8
BLACK
6
CONTINUOUS
10
118.216
20
-52.3967
11
114.708
21
-52.3967
0
LINE
8
BLACK
6
CONTINUOUS
10
118.216
20
-57.4047
11
115.7
21
-57.4047
0
LINE
8
BLACK
6
CONTINUOUS
10
118.716
20
-52.8967
11
118.216
21
-52.3967
0
LINE
8
BLACK
6
CONTINUOUS
10
118.716
20
-53.4339
11
118.716
21
-52.8967
0
LINE
8
BLACK
6
CONTINUOUS
10
118.716
20
-53.4339
11
121.165
21
-53.4339
0
LINE
8
BLACK
6
CONTINUOUS
10
118.716
20
-56.3295
11
121.165
21
-56.3295
0
LINE
8
BLACK
6
CONTINUOUS
10
118.716
20
-56.9047
11
118.216
21
-57.4047
0
LINE
8
BLACK
6
CONTINUOUS
10
118.716
20
-56.9047
11
118.716
21
-56.3295
0
LINE
8
BLACK
6
CONTINUOUS
10
121.165
20
-53.4339
11
121.165
21
-56.3295
0
ARC
8
BLACK
10
115.619
20
-58.8463
40
1.44391
50
-273.227
51
-177.683
0
ARC
8
BLACK
10
113.708
20
-53.8967
40
0.500001
50
-89.9999
51
-0.000114591
0
CIRCLE
8
BLACK
10
110.993
20
-60.8761
40
0.855
0
CIRCLE
8
BLACK
10
116.493
20
-60.8761
40
1.75
0
CIRCLE
8
BLACK
10
121.993
20
-60.8761
40
0.855
0
LINE
8
BLACK
6
CONTINUOUS
10
200.984
20
-97.5447
11
201.11
21
-98.1421
0
LINE
8
BLACK
6
CONTINUOUS
10
200.866
20
-97.1031
11
200.984
21
-97.5447
0
LINE
8
BLACK
6
CONTINUOUS
10
199.827
20
-93.2267
11
199.946
21
-93.6683
0
LINE
8
BLACK
6
CONTINUOUS
10
199.052
20
-90.3316
11
199.17
21
-90.7732
0
LINE
8
BLACK
6
CONTINUOUS
10
201.11
20
-98.1421
11
201.229
21
-98.5837
0
LINE
8
BLACK
6
CONTINUOUS
10
199.316
20
-97.9918
11
199.442
21
-98.5891
0
LINE
8
BLACK
6
CONTINUOUS
10
199.198
20
-97.5502
11
199.316
21
-97.9918
0
LINE
8
BLACK
6
CONTINUOUS
10
198.159
20
-93.6737
11
198.277
21
-94.1153
0
LINE
8
BLACK
6
CONTINUOUS
10
197.383
20
-90.7786
11
197.502
21
-91.2203
0
LINE
8
BLACK
6
CONTINUOUS
10
199.442
20
-98.5891
11
199.56
21
-99.0307
0
LINE
8
BLACK
6
CONTINUOUS
10
196.692
20
-99.326
11
196.81
21
-99.7676
0
LINE
8
BLACK
6
CONTINUOUS
10
195.349
20
-94.4267
11
195.467
21
-94.8683
0
LINE
8
BLACK
6
CONTINUOUS
10
194.573
20
-91.5316
11
194.691
21
-91.9733
0
LINE
8
BLACK
6
CONTINUOUS
10
196.503
20
-98.7456
11
196.692
21
-99.326
0
LINE
8
BLACK
6
CONTINUOUS
10
196.384
20
-98.304
11
196.503
21
-98.7456
0
LINE
8
BLACK
6
CONTINUOUS
10
195.024
20
-99.773
11
195.142
21
-100.215
0
LINE
8
BLACK
6
CONTINUOUS
10
193.68
20
-94.8737
11
193.799
21
-95.3154
0
LINE
8
BLACK
6
CONTINUOUS
10
192.905
20
-91.9787
11
193.023
21
-92.4203
0
LINE
8
BLACK
6
CONTINUOUS
10
194.834
20
-99.1926
11
195.024
21
-99.773
0
LINE
8
BLACK
6
CONTINUOUS
10
194.716
20
-98.751
11
194.834
21
-99.1926
0
ARC
8
BLACK
10
199.111
20
-93.8918
40
0.8636
50
-165
51
15
0
ARC
8
BLACK
10
198.336
20
-90.9967
40
0.8636
50
-165
51
15
0
ARC
8
BLACK
10
200.395
20
-98.8072
40
0.863599
50
-165
51
15
0
ARC
8
BLACK
10
200.032
20
-97.3266
40
0.8636
50
-345
51
-165
0
ARC
8
BLACK
10
198.993
20
-93.4502
40
0.863599
50
-345
51
-165
0
ARC
8
BLACK
10
198.217
20
-90.5551
40
0.8636
50
-345
51
-165
0
ARC
8
BLACK
10
195.976
20
-99.9911
40
0.863599
50
-165
51
15
0
ARC
8
BLACK
10
194.633
20
-95.0919
40
0.863599
50
-165
51
15
0
ARC
8
BLACK
10
193.857
20
-92.1968
40
0.8636
50
-165
51
15
0
ARC
8
BLACK
10
194.514
20
-94.6502
40
0.8636
50
-345
51
-165
0
ARC
8
BLACK
10
193.739
20
-91.7552
40
0.863599
50
-345
51
-165
0
ARC
8
BLACK
10
195.55
20
-98.5275
40
0.863599
50
-345
51
-165
0
CIRCLE
8
BLACK
10
197.41
20
-96.5718
40
0.45
0
CIRCLE
8
BLACK
10
195.599
20
-89.8103
40
0.45
0
LINE
8
BLACK
6
CONTINUOUS
10
70.7597
20
-47.9988
11
70.7597
21
-45.1032
0
LINE
8
BLACK
6
CONTINUOUS
10
73.2085
20
-43.8308
11
77.7085
21
-43.8308
0
LINE
8
BLACK
6
CONTINUOUS
10
73.2085
20
-45.1032
11
70.7597
21
-45.1032
0
LINE
8
BLACK
6
CONTINUOUS
10
73.2085
20
-45.1032
11
73.2085
21
-43.8308
0
LINE
8
BLACK
6
CONTINUOUS
10
73.2085
20
-47.9988
11
70.7597
21
-47.9988
0
LINE
8
BLACK
6
CONTINUOUS
10
73.2085
20
-49.0388
11
73.2085
21
-47.9988
0
LINE
8
BLACK
6
CONTINUOUS
10
78.1765
20
-48.3388
11
78.1765
21
-49.0388
0
LINE
8
BLACK
6
CONTINUOUS
10
78.1765
20
-49.0388
11
73.2085
21
-49.0388
0
LINE
8
BLACK
6
CONTINUOUS
10
78.2085
20
-43.3308
11
78.2085
21
-42.3308
0
LINE
8
BLACK
6
CONTINUOUS
10
78.7085
20
-41.8308
11
78.2085
21
-42.3308
0
LINE
8
BLACK
6
CONTINUOUS
10
82.2165
20
-41.8308
11
78.7085
21
-41.8308
0
LINE
8
BLACK
6
CONTINUOUS
10
82.2165
20
-46.8388
11
79.7005
21
-46.8388
0
LINE
8
BLACK
6
CONTINUOUS
10
82.7165
20
-42.3308
11
82.2165
21
-41.8308
0
LINE
8
BLACK
6
CONTINUOUS
10
82.7165
20
-42.868
11
82.7165
21
-42.3308
0
LINE
8
BLACK
6
CONTINUOUS
10
82.7165
20
-42.868
11
85.1653
21
-42.868
0
LINE
8
BLACK
6
CONTINUOUS
10
82.7165
20
-45.7636
11
85.1653
21
-45.7636
0
LINE
8
BLACK
6
CONTINUOUS
10
82.7165
20
-46.3388
11
82.2165
21
-46.8388
0
LINE
8
BLACK
6
CONTINUOUS
10
82.7165
20
-46.3388
11
82.7165
21
-45.7636
0
LINE
8
BLACK
6
CONTINUOUS
10
85.1653
20
-42.868
11
85.1653
21
-45.7636
0
ARC
8
BLACK
10
79.6192
20
-48.2804
40
1.44391
50
-273.227
51
-177.683
0
ARC
8
BLACK
10
77.7085
20
-43.3308
40
0.500001
50
-89.9999
51
-0.000114591
0
CIRCLE
8
BLACK
10
74.9931
20
-50.3102
40
0.855
0
CIRCLE
8
BLACK
10
80.4931
20
-50.3102
40
1.75
0
CIRCLE
8
BLACK
10
85.9931
20
-50.3102
40
0.855
0
LINE
8
BLACK
6
CONTINUOUS
10
270.91
20
-163.003
11
256.11
21
-163.003
0
LINE
8
BLACK
6
CONTINUOUS
10
256.11
20
-163.003
11
256.11
21
-177.803
0
LINE
8
BLACK
6
CONTINUOUS
10
256.11
20
-177.803
11
270.91
21
-177.803
0
LINE
8
BLACK
6
CONTINUOUS
10
270.91
20
-177.803
11
270.91
21
-163.003
0
LINE
8
BLACK
6
CONTINUOUS
10
224.562
20
-84.8711
11
229.744
21
-84.8711
0
LINE
8
BLACK
6
CONTINUOUS
10
229.744
20
-84.8711
11
229.744
21
-86.9031
0
LINE
8
BLACK
6
CONTINUOUS
10
229.744
20
-86.9031
11
224.562
21
-86.9031
0
LINE
8
BLACK
6
CONTINUOUS
10
224.562
20
-86.9031
11
224.562
21
-84.8711
0
LINE
8
BLACK
6
CONTINUOUS
10
156.824
20
-112.215
11
156.321
21
-115.066
0
LINE
8
BLACK
6
CONTINUOUS
10
153.689
20
-115.894
11
149.257
21
-115.113
0
LINE
8
BLACK
6
CONTINUOUS
10
153.91
20
-114.641
11
156.321
21
-115.066
0
LINE
8
BLACK
6
CONTINUOUS
10
153.91
20
-114.641
11
153.689
21
-115.894
0
LINE
8
BLACK
6
CONTINUOUS
10
154.412
20
-111.79
11
156.824
21
-112.215
0
LINE
8
BLACK
6
CONTINUOUS
10
154.593
20
-110.765
11
154.412
21
-111.79
0
LINE
8
BLACK
6
CONTINUOUS
10
149.579
20
-110.592
11
149.7
21
-109.903
0
LINE
8
BLACK
6
CONTINUOUS
10
149.7
20
-109.903
11
154.593
21
-110.765
0
LINE
8
BLACK
6
CONTINUOUS
10
148.678
20
-115.518
11
148.504
21
-116.503
0
LINE
8
BLACK
6
CONTINUOUS
10
147.925
20
-116.909
11
148.504
21
-116.503
0
LINE
8
BLACK
6
CONTINUOUS
10
144.47
20
-116.3
11
147.925
21
-116.909
0
LINE
8
BLACK
6
CONTINUOUS
10
145.34
20
-111.368
11
147.818
21
-111.805
0
LINE
8
BLACK
6
CONTINUOUS
10
144.065
20
-115.72
11
144.47
21
-116.3
0
LINE
8
BLACK
6
CONTINUOUS
10
144.158
20
-115.191
11
144.065
21
-115.72
0
LINE
8
BLACK
6
CONTINUOUS
10
144.158
20
-115.191
11
141.746
21
-114.766
0
LINE
8
BLACK
6
CONTINUOUS
10
144.661
20
-112.34
11
142.249
21
-111.914
0
LINE
8
BLACK
6
CONTINUOUS
10
144.761
20
-111.773
11
145.34
21
-111.368
0
LINE
8
BLACK
6
CONTINUOUS
10
144.761
20
-111.773
11
144.661
21
-112.34
0
LINE
8
BLACK
6
CONTINUOUS
10
141.746
20
-114.766
11
142.249
21
-111.914
0
ARC
8
BLACK
10
148.148
20
-110.399
40
1.44391
50
-103.227
51
-7.68289
0
ARC
8
BLACK
10
149.17
20
-115.605
40
0.5
50
80
51
170
0
CIRCLE
8
BLACK
10
153.056
20
-109.203
40
0.854999
0
CIRCLE
8
BLACK
10
147.64
20
-108.248
40
1.75
0
CIRCLE
8
BLACK
10
142.223
20
-107.293
40
0.855
0
LINE
8
BLACK
6
CONTINUOUS
10
234.91
20
-145.003
11
220.11
21
-145.003
0
LINE
8
BLACK
6
CONTINUOUS
10
220.11
20
-145.003
11
220.11
21
-159.803
0
LINE
8
BLACK
6
CONTINUOUS
10
220.11
20
-159.803
11
234.91
21
-159.803
0
LINE
8
BLACK
6
CONTINUOUS
10
234.91
20
-159.803
11
234.91
21
-145.003
0
LINE
8
BLACK
6
CONTINUOUS
10
124.759
20
-78.8753
11
124.759
21
-75.9797
0
LINE
8
BLACK
6
CONTINUOUS
10
127.208
20
-74.7073
11
131.708
21
-74.7073
0
LINE
8
BLACK
6
CONTINUOUS
10
127.208
20
-75.9797
11
124.759
21
-75.9797
0
LINE
8
BLACK
6
CONTINUOUS
10
127.208
20
-75.9797
11
127.208
21
-74.7073
0
LINE
8
BLACK
6
CONTINUOUS
10
127.208
20
-78.8753
11
124.759
21
-78.8753
0
LINE
8
BLACK
6
CONTINUOUS
10
127.208
20
-79.9153
11
127.208
21
-78.8753
0
LINE
8
BLACK
6
CONTINUOUS
10
132.176
20
-79.2153
11
132.176
21
-79.9153
0
LINE
8
BLACK
6
CONTINUOUS
10
132.176
20
-79.9153
11
127.208
21
-79.9153
0
LINE
8
BLACK
6
CONTINUOUS
10
132.208
20
-74.2073
11
132.208
21
-73.2073
0
LINE
8
BLACK
6
CONTINUOUS
10
132.708
20
-72.7073
11
132.208
21
-73.2073
0
LINE
8
BLACK
6
CONTINUOUS
10
136.216
20
-72.7073
11
132.708
21
-72.7073
0
LINE
8
BLACK
6
CONTINUOUS
10
136.216
20
-77.7153
11
133.7
21
-77.7153
0
LINE
8
BLACK
6
CONTINUOUS
10
136.716
20
-73.2073
11
136.216
21
-72.7073
0
LINE
8
BLACK
6
CONTINUOUS
10
136.716
20
-73.7445
11
136.716
21
-73.2073
0
LINE
8
BLACK
6
CONTINUOUS
10
136.716
20
-73.7445
11
139.165
21
-73.7445
0
LINE
8
BLACK
6
CONTINUOUS
10
136.716
20
-76.6401
11
139.165
21
-76.6401
0
LINE
8
BLACK
6
CONTINUOUS
10
136.716
20
-77.2153
11
136.216
21
-77.7153
0
LINE
8
BLACK
6
CONTINUOUS
10
136.716
20
-77.2153
11
136.716
21
-76.6401
0
LINE
8
BLACK
6
CONTINUOUS
10
139.165
20
-73.7445
11
139.165
21
-76.6401
0
ARC
8
BLACK
10
133.619
20
-79.1569
40
1.44391
50
-273.227
51
-177.683
0
ARC
8
BLACK
10
131.708
20
-74.2073
40
0.500001
50
-89.9999
51
-0.000114591
0
CIRCLE
8
BLACK
10
128.993
20
-81.1867
40
0.855
0
CIRCLE
8
BLACK
10
134.493
20
-81.1867
40
1.75
0
CIRCLE
8
BLACK
10
139.993
20
-81.1867
40
0.855
0
LINE
8
BLACK
6
CONTINUOUS
10
285.262
20
-73.8896
11
280.1
21
-73.438
0
LINE
8
BLACK
6
CONTINUOUS
10
280.1
20
-73.438
11
280.277
21
-71.4137
0
LINE
8
BLACK
6
CONTINUOUS
10
280.277
20
-71.4137
11
285.439
21
-71.8653
0
LINE
8
BLACK
6
CONTINUOUS
10
285.439
20
-71.8653
11
285.262
21
-73.8896
0
LINE
8
BLACK
6
CONTINUOUS
10
279.387
20
-112.904
11
279.768
21
-108.552
0
LINE
8
BLACK
6
CONTINUOUS
10
279.768
20
-108.552
11
262.46
21
-107.038
0
LINE
8
BLACK
6
CONTINUOUS
10
262.46
20
-107.038
11
262.08
21
-111.39
0
LINE
8
BLACK
6
CONTINUOUS
10
262.08
20
-111.39
11
279.387
21
-112.904
0
LINE
8
BLACK
6
CONTINUOUS
10
280.529
20
-99.8475
11
280.91
21
-95.4953
0
LINE
8
BLACK
6
CONTINUOUS
10
280.91
20
-95.4953
11
263.603
21
-93.9811
0
LINE
8
BLACK
6
CONTINUOUS
10
263.603
20
-93.9811
11
263.222
21
-98.3333
0
LINE
8
BLACK
6
CONTINUOUS
10
263.222
20
-98.3333
11
280.529
21
-99.8475
0
LINE
8
BLACK
6
CONTINUOUS
10
252.91
20
-158.692
11
238.11
21
-158.692
0
LINE
8
BLACK
6
CONTINUOUS
10
238.11
20
-158.692
11
238.11
21
-173.492
0
LINE
8
BLACK
6
CONTINUOUS
10
238.11
20
-173.492
11
252.91
21
-173.492
0
LINE
8
BLACK
6
CONTINUOUS
10
252.91
20
-173.492
11
252.91
21
-158.692
0
LINE
8
BLACK
6
CONTINUOUS
10
224.07
20
-108.834
11
224.573
21
-111.686
0
LINE
8
BLACK
6
CONTINUOUS
10
222.382
20
-113.364
11
217.951
21
-114.146
0
LINE
8
BLACK
6
CONTINUOUS
10
222.161
20
-112.111
11
224.573
21
-111.686
0
LINE
8
BLACK
6
CONTINUOUS
10
222.161
20
-112.111
11
222.382
21
-113.364
0
LINE
8
BLACK
6
CONTINUOUS
10
221.659
20
-109.26
11
224.07
21
-108.834
0
LINE
8
BLACK
6
CONTINUOUS
10
221.478
20
-108.235
11
221.659
21
-109.26
0
LINE
8
BLACK
6
CONTINUOUS
10
216.707
20
-109.787
11
216.586
21
-109.098
0
LINE
8
BLACK
6
CONTINUOUS
10
216.586
20
-109.098
11
221.478
21
-108.235
0
LINE
8
BLACK
6
CONTINUOUS
10
217.545
20
-114.725
11
217.719
21
-115.71
0
LINE
8
BLACK
6
CONTINUOUS
10
217.313
20
-116.289
11
217.719
21
-115.71
0
LINE
8
BLACK
6
CONTINUOUS
10
213.859
20
-116.898
11
217.313
21
-116.289
0
LINE
8
BLACK
6
CONTINUOUS
10
212.989
20
-111.966
11
215.467
21
-111.529
0
LINE
8
BLACK
6
CONTINUOUS
10
213.279
20
-116.493
11
213.859
21
-116.898
0
LINE
8
BLACK
6
CONTINUOUS
10
213.186
20
-115.963
11
213.279
21
-116.493
0
LINE
8
BLACK
6
CONTINUOUS
10
213.186
20
-115.963
11
210.774
21
-116.389
0
LINE
8
BLACK
6
CONTINUOUS
10
212.683
20
-113.112
11
210.272
21
-113.537
0
LINE
8
BLACK
6
CONTINUOUS
10
212.583
20
-112.545
11
212.989
21
-111.966
0
LINE
8
BLACK
6
CONTINUOUS
10
212.583
20
-112.545
11
212.683
21
-113.112
0
LINE
8
BLACK
6
CONTINUOUS
10
210.774
20
-116.389
11
210.272
21
-113.537
0
ARC
8
BLACK
10
215.296
20
-110.095
40
1.44391
50
-83.2266
51
12.3171
0
ARC
8
BLACK
10
218.038
20
-114.638
40
0.500001
50
-260
51
-170
0
CIRCLE
8
BLACK
10
219.5
20
-107.293
40
0.854999
0
CIRCLE
8
BLACK
10
214.083
20
-108.248
40
1.75
0
CIRCLE
8
BLACK
10
208.667
20
-109.203
40
0.855
0
CIRCLE
8
BLACK
10
203.187
20
-105.542
40
1.6
0
LINE
8
BLACK
6
CONTINUOUS
10
205.084
20
-112.156
11
206.074
21
-114.877
0
LINE
8
BLACK
6
CONTINUOUS
10
204.208
20
-116.91
11
199.98
21
-118.449
0
LINE
8
BLACK
6
CONTINUOUS
10
203.773
20
-115.715
11
206.074
21
-114.877
0
LINE
8
BLACK
6
CONTINUOUS
10
203.773
20
-115.715
11
204.208
21
-116.91
0
LINE
8
BLACK
6
CONTINUOUS
10
202.783
20
-112.994
11
205.084
21
-112.156
0
LINE
8
BLACK
6
CONTINUOUS
10
202.427
20
-112.016
11
202.783
21
-112.994
0
LINE
8
BLACK
6
CONTINUOUS
10
197.998
20
-114.373
11
197.759
21
-113.716
0
LINE
8
BLACK
6
CONTINUOUS
10
197.759
20
-113.716
11
202.427
21
-112.016
0
LINE
8
BLACK
6
CONTINUOUS
10
199.681
20
-119.09
11
200.023
21
-120.03
0
LINE
8
BLACK
6
CONTINUOUS
10
199.724
20
-120.671
11
200.023
21
-120.03
0
LINE
8
BLACK
6
CONTINUOUS
10
196.428
20
-121.871
11
199.724
21
-120.671
0
LINE
8
BLACK
6
CONTINUOUS
10
194.715
20
-117.165
11
197.079
21
-116.304
0
LINE
8
BLACK
6
CONTINUOUS
10
195.787
20
-121.572
11
196.428
21
-121.871
0
LINE
8
BLACK
6
CONTINUOUS
10
195.603
20
-121.067
11
195.787
21
-121.572
0
LINE
8
BLACK
6
CONTINUOUS
10
195.603
20
-121.067
11
193.302
21
-121.905
0
LINE
8
BLACK
6
CONTINUOUS
10
194.613
20
-118.346
11
192.312
21
-119.184
0
LINE
8
BLACK
6
CONTINUOUS
10
194.416
20
-117.806
11
194.715
21
-117.165
0
LINE
8
BLACK
6
CONTINUOUS
10
194.416
20
-117.806
11
194.613
21
-118.346
0
LINE
8
BLACK
6
CONTINUOUS
10
193.302
20
-121.905
11
192.312
21
-119.184
0
ARC
8
BLACK
10
196.662
20
-114.922
40
1.44391
50
-73.2266
51
22.3171
0
ARC
8
BLACK
10
200.151
20
-118.919
40
0.500001
50
-250
51
-160
0
CIRCLE
8
BLACK
10
200.315
20
-111.432
40
0.855001
0
CIRCLE
8
BLACK
10
195.147
20
-113.313
40
1.75
0
CIRCLE
8
BLACK
10
189.979
20
-115.194
40
0.855
0
LINE
8
BLACK
6
CONTINUOUS
10
142.759
20
-46.6745
11
142.759
21
-43.7789
0
LINE
8
BLACK
6
CONTINUOUS
10
145.208
20
-42.5065
11
149.708
21
-42.5065
0
LINE
8
BLACK
6
CONTINUOUS
10
145.208
20
-43.7789
11
142.759
21
-43.7789
0
LINE
8
BLACK
6
CONTINUOUS
10
145.208
20
-43.7789
11
145.208
21
-42.5065
0
LINE
8
BLACK
6
CONTINUOUS
10
145.208
20
-46.6745
11
142.759
21
-46.6745
0
LINE
8
BLACK
6
CONTINUOUS
10
145.208
20
-47.7145
11
145.208
21
-46.6745
0
LINE
8
BLACK
6
CONTINUOUS
10
150.176
20
-47.0145
11
150.176
21
-47.7145
0
LINE
8
BLACK
6
CONTINUOUS
10
150.176
20
-47.7145
11
145.208
21
-47.7145
0
LINE
8
BLACK
6
CONTINUOUS
10
150.208
20
-42.0065
11
150.208
21
-41.0065
0
LINE
8
BLACK
6
CONTINUOUS
10
150.708
20
-40.5065
11
150.208
21
-41.0065
0
LINE
8
BLACK
6
CONTINUOUS
10
154.216
20
-40.5065
11
150.708
21
-40.5065
0
LINE
8
BLACK
6
CONTINUOUS
10
154.216
20
-45.5145
11
151.7
21
-45.5145
0
LINE
8
BLACK
6
CONTINUOUS
10
154.716
20
-41.0065
11
154.216
21
-40.5065
0
LINE
8
BLACK
6
CONTINUOUS
10
154.716
20
-41.5437
11
154.716
21
-41.0065
0
LINE
8
BLACK
6
CONTINUOUS
10
154.716
20
-41.5437
11
157.165
21
-41.5437
0
LINE
8
BLACK
6
CONTINUOUS
10
154.716
20
-44.4393
11
157.165
21
-44.4393
0
LINE
8
BLACK
6
CONTINUOUS
10
154.716
20
-45.0145
11
154.216
21
-45.5145
0
LINE
8
BLACK
6
CONTINUOUS
10
154.716
20
-45.0145
11
154.716
21
-44.4393
0
LINE
8
BLACK
6
CONTINUOUS
10
157.165
20
-41.5437
11
157.165
21
-44.4393
0
ARC
8
BLACK
10
151.619
20
-46.9561
40
1.44391
50
-273.227
51
-177.683
0
ARC
8
BLACK
10
149.708
20
-42.0065
40
0.500001
50
-89.9999
51
-0.000114591
0
CIRCLE
8
BLACK
10
146.993
20
-48.9859
40
0.855
0
CIRCLE
8
BLACK
10
152.493
20
-48.9859
40
1.75
0
CIRCLE
8
BLACK
10
157.993
20
-48.9859
40
0.855
0
LINE
8
BLACK
6
CONTINUOUS
10
253.497
20
-79.8747
11
253.497
21
-76.9791
0
LINE
8
BLACK
6
CONTINUOUS
10
255.945
20
-75.7067
11
260.445
21
-75.7067
0
LINE
8
BLACK
6
CONTINUOUS
10
255.945
20
-76.9791
11
253.497
21
-76.9791
0
LINE
8
BLACK
6
CONTINUOUS
10
255.945
20
-76.9791
11
255.945
21
-75.7067
0
LINE
8
BLACK
6
CONTINUOUS
10
255.945
20
-79.8747
11
253.497
21
-79.8747
0
LINE
8
BLACK
6
CONTINUOUS
10
255.945
20
-80.9147
11
255.945
21
-79.8747
0
LINE
8
BLACK
6
CONTINUOUS
10
260.913
20
-80.2147
11
260.913
21
-80.9147
0
LINE
8
BLACK
6
CONTINUOUS
10
260.913
20
-80.9147
11
255.945
21
-80.9147
0
LINE
8
BLACK
6
CONTINUOUS
10
260.945
20
-75.2067
11
260.945
21
-74.2067
0
LINE
8
BLACK
6
CONTINUOUS
10
261.445
20
-73.7067
11
260.945
21
-74.2067
0
LINE
8
BLACK
6
CONTINUOUS
10
264.953
20
-73.7067
11
261.445
21
-73.7067
0
LINE
8
BLACK
6
CONTINUOUS
10
264.953
20
-78.7147
11
262.437
21
-78.7147
0
LINE
8
BLACK
6
CONTINUOUS
10
265.453
20
-74.2067
11
264.953
21
-73.7067
0
LINE
8
BLACK
6
CONTINUOUS
10
265.453
20
-74.7439
11
265.453
21
-74.2067
0
LINE
8
BLACK
6
CONTINUOUS
10
265.453
20
-74.7439
11
267.902
21
-74.7439
0
LINE
8
BLACK
6
CONTINUOUS
10
265.453
20
-77.6395
11
267.902
21
-77.6395
0
LINE
8
BLACK
6
CONTINUOUS
10
265.453
20
-78.2147
11
264.953
21
-78.7147
0
LINE
8
BLACK
6
CONTINUOUS
10
265.453
20
-78.2147
11
265.453
21
-77.6395
0
LINE
8
BLACK
6
CONTINUOUS
10
267.902
20
-74.7439
11
267.902
21
-77.6395
0
ARC
8
BLACK
10
262.356
20
-80.1563
40
1.44391
50
-273.227
51
-177.683
0
ARC
8
BLACK
10
260.445
20
-75.2067
40
0.500001
50
-89.9999
51
-0.000114591
0
CIRCLE
8
BLACK
10
257.73
20
-82.1861
40
0.855
0
CIRCLE
8
BLACK
10
263.23
20
-82.1861
40
1.75
0
CIRCLE
8
BLACK
10
268.73
20
-82.1861
40
0.855
0
LINE
8
BLACK
6
CONTINUOUS
10
174.932
20
-118.814
11
173.942
21
-121.535
0
LINE
8
BLACK
6
CONTINUOUS
10
171.205
20
-121.893
11
166.977
21
-120.354
0
LINE
8
BLACK
6
CONTINUOUS
10
171.641
20
-120.698
11
173.942
21
-121.535
0
LINE
8
BLACK
6
CONTINUOUS
10
171.641
20
-120.698
11
171.205
21
-121.893
0
LINE
8
BLACK
6
CONTINUOUS
10
172.631
20
-117.977
11
174.932
21
-118.814
0
LINE
8
BLACK
6
CONTINUOUS
10
172.987
20
-116.999
11
172.631
21
-117.977
0
LINE
8
BLACK
6
CONTINUOUS
10
168.079
20
-115.958
11
168.318
21
-115.3
0
LINE
8
BLACK
6
CONTINUOUS
10
168.318
20
-115.3
11
172.987
21
-116.999
0
LINE
8
BLACK
6
CONTINUOUS
10
166.336
20
-120.653
11
165.994
21
-121.593
0
LINE
8
BLACK
6
CONTINUOUS
10
165.353
20
-121.892
11
165.994
21
-121.593
0
LINE
8
BLACK
6
CONTINUOUS
10
162.057
20
-120.692
11
165.353
21
-121.892
0
LINE
8
BLACK
6
CONTINUOUS
10
163.769
20
-115.986
11
166.134
21
-116.846
0
LINE
8
BLACK
6
CONTINUOUS
10
161.758
20
-120.051
11
162.057
21
-120.692
0
LINE
8
BLACK
6
CONTINUOUS
10
161.942
20
-119.546
11
161.758
21
-120.051
0
LINE
8
BLACK
6
CONTINUOUS
10
161.942
20
-119.546
11
159.64
21
-118.709
0
LINE
8
BLACK
6
CONTINUOUS
10
162.932
20
-116.825
11
160.631
21
-115.988
0
LINE
8
BLACK
6
CONTINUOUS
10
163.129
20
-116.285
11
163.769
21
-115.986
0
LINE
8
BLACK
6
CONTINUOUS
10
163.129
20
-116.285
11
162.932
21
-116.825
0
LINE
8
BLACK
6
CONTINUOUS
10
159.64
20
-118.709
11
160.631
21
-115.988
0
ARC
8
BLACK
10
166.703
20
-115.519
40
1.44391
50
-113.227
51
-17.6829
0
ARC
8
BLACK
10
166.806
20
-120.824
40
0.5
50
70
51
160
0
CIRCLE
8
BLACK
10
171.745
20
-115.194
40
0.855001
0
CIRCLE
8
BLACK
10
166.576
20
-113.313
40
1.75
0
CIRCLE
8
BLACK
10
161.408
20
-111.432
40
0.855
0
LINE
8
BLACK
6
CONTINUOUS
10
288.91
20
-148.127
11
274.11
21
-148.127
0
LINE
8
BLACK
6
CONTINUOUS
10
274.11
20
-148.127
11
274.11
21
-162.927
0
LINE
8
BLACK
6
CONTINUOUS
10
274.11
20
-162.927
11
288.91
21
-162.927
0
LINE
8
BLACK
6
CONTINUOUS
10
288.91
20
-162.927
11
288.91
21
-148.127
0
CIRCLE
8
BLACK
10
219.747
20
-92.1311
40
1.6
0
LINE
8
BLACK
6
CONTINUOUS
10
190.777
20
-108.801
11
195.646
21
-107.029
0
LINE
8
BLACK
6
CONTINUOUS
10
195.646
20
-107.029
11
196.341
21
-108.939
0
LINE
8
BLACK
6
CONTINUOUS
10
196.341
20
-108.939
11
191.472
21
-110.711
0
LINE
8
BLACK
6
CONTINUOUS
10
191.472
20
-110.711
11
190.777
21
-108.801
0
LINE
8
BLACK
6
CONTINUOUS
10
224.562
20
-67.8707
11
229.744
21
-67.8707
0
LINE
8
BLACK
6
CONTINUOUS
10
229.744
20
-67.8707
11
229.744
21
-69.9027
0
LINE
8
BLACK
6
CONTINUOUS
10
229.744
20
-69.9027
11
224.562
21
-69.9027
0
LINE
8
BLACK
6
CONTINUOUS
10
224.562
20
-69.9027
11
224.562
21
-67.8707
0
LINE
8
BLACK
6
CONTINUOUS
10
252.91
20
-175.693
11
238.11
21
-175.693
0
LINE
8
BLACK
6
CONTINUOUS
10
238.11
20
-175.693
11
238.11
21
-190.493
0
LINE
8
BLACK
6
CONTINUOUS
10
238.11
20
-190.493
11
252.91
21
-190.493
0
LINE
8
BLACK
6
CONTINUOUS
10
252.91
20
-190.493
11
252.91
21
-175.693
0
LINE
8
BLACK
6
CONTINUOUS
10
208.36
20
-222.037
11
222.936
21
-219.467
0
LINE
8
BLACK
6
CONTINUOUS
10
222.936
20
-219.467
11
220.366
21
-204.892
0
LINE
8
BLACK
6
CONTINUOUS
10
220.366
20
-204.892
11
205.79
21
-207.462
0
LINE
8
BLACK
6
CONTINUOUS
10
205.79
20
-207.462
11
208.36
21
-222.037
0
LINE
8
BLACK
6
CONTINUOUS
10
242.639
20
-81.5607
11
247.821
21
-81.5607
0
LINE
8
BLACK
6
CONTINUOUS
10
247.821
20
-81.5607
11
247.821
21
-83.5927
0
LINE
8
BLACK
6
CONTINUOUS
10
247.821
20
-83.5927
11
242.639
21
-83.5927
0
LINE
8
BLACK
6
CONTINUOUS
10
242.639
20
-83.5927
11
242.639
21
-81.5607
0
CIRCLE
8
BLACK
10
203.466
20
-210.759
40
1.6
0
CIRCLE
8
BLACK
10
271.386
20
-197.347
40
1.6
0
LINE
8
BLACK
6
CONTINUOUS
10
224.562
20
-50.8707
11
229.744
21
-50.8707
0
LINE
8
BLACK
6
CONTINUOUS
10
229.744
20
-50.8707
11
229.744
21
-52.9027
0
LINE
8
BLACK
6
CONTINUOUS
10
229.744
20
-52.9027
11
224.562
21
-52.9027
0
LINE
8
BLACK
6
CONTINUOUS
10
224.562
20
-52.9027
11
224.562
21
-50.8707
0
CIRCLE
8
BLACK
10
256.679
20
-107.879
40
1.6
0
LINE
8
BLACK
6
CONTINUOUS
10
199.497
20
-63.6743
11
199.497
21
-60.7787
0
LINE
8
BLACK
6
CONTINUOUS
10
201.946
20
-59.5063
11
206.446
21
-59.5063
0
LINE
8
BLACK
6
CONTINUOUS
10
201.946
20
-60.7787
11
199.497
21
-60.7787
0
LINE
8
BLACK
6
CONTINUOUS
10
201.946
20
-60.7787
11
201.946
21
-59.5063
0
LINE
8
BLACK
6
CONTINUOUS
10
201.946
20
-63.6743
11
199.497
21
-63.6743
0
LINE
8
BLACK
6
CONTINUOUS
10
201.946
20
-64.7143
11
201.946
21
-63.6743
0
LINE
8
BLACK
6
CONTINUOUS
10
206.914
20
-64.0143
11
206.914
21
-64.7143
0
LINE
8
BLACK
6
CONTINUOUS
10
206.914
20
-64.7143
11
201.946
21
-64.7143
0
LINE
8
BLACK
6
CONTINUOUS
10
206.946
20
-59.0063
11
206.946
21
-58.0063
0
LINE
8
BLACK
6
CONTINUOUS
10
207.446
20
-57.5063
11
206.946
21
-58.0063
0
LINE
8
BLACK
6
CONTINUOUS
10
210.954
20
-57.5063
11
207.446
21
-57.5063
0
LINE
8
BLACK
6
CONTINUOUS
10
210.954
20
-62.5143
11
208.438
21
-62.5143
0
LINE
8
BLACK
6
CONTINUOUS
10
211.454
20
-58.0063
11
210.954
21
-57.5063
0
LINE
8
BLACK
6
CONTINUOUS
10
211.454
20
-58.5435
11
211.454
21
-58.0063
0
LINE
8
BLACK
6
CONTINUOUS
10
211.454
20
-58.5435
11
213.903
21
-58.5435
0
LINE
8
BLACK
6
CONTINUOUS
10
211.454
20
-61.4391
11
213.903
21
-61.4391
0
LINE
8
BLACK
6
CONTINUOUS
10
211.454
20
-62.0143
11
210.954
21
-62.5143
0
LINE
8
BLACK
6
CONTINUOUS
10
211.454
20
-62.0143
11
211.454
21
-61.4391
0
LINE
8
BLACK
6
CONTINUOUS
10
213.903
20
-58.5435
11
213.903
21
-61.4391
0
ARC
8
BLACK
10
208.357
20
-63.9559
40
1.44391
50
-273.227
51
-177.683
0
ARC
8
BLACK
10
206.446
20
-59.0063
40
0.500001
50
-89.9999
51
-0.000114591
0
CIRCLE
8
BLACK
10
203.731
20
-65.9857
40
0.855
0
CIRCLE
8
BLACK
10
209.231
20
-65.9857
40
1.75
0
CIRCLE
8
BLACK
10
214.731
20
-65.9857
40
0.855
0
CIRCLE
8
BLACK
10
273.926
20
-39.2387
40
1.6
0
CIRCLE
8
BLACK
10
215.201
20
-143.449
40
1.6
0
LINE
8
BLACK
6
CONTINUOUS
10
242.639
20
-64.5605
11
247.821
21
-64.5605
0
LINE
8
BLACK
6
CONTINUOUS
10
247.821
20
-64.5605
11
247.821
21
-66.5925
0
LINE
8
BLACK
6
CONTINUOUS
10
247.821
20
-66.5925
11
242.639
21
-66.5925
0
LINE
8
BLACK
6
CONTINUOUS
10
242.639
20
-66.5925
11
242.639
21
-64.5605
0
LINE
8
BLACK
6
CONTINUOUS
10
216.91
20
-180.802
11
202.11
21
-180.802
0
LINE
8
BLACK
6
CONTINUOUS
10
202.11
20
-180.802
11
202.11
21
-195.602
0
LINE
8
BLACK
6
CONTINUOUS
10
202.11
20
-195.602
11
216.91
21
-195.602
0
LINE
8
BLACK
6
CONTINUOUS
10
216.91
20
-195.602
11
216.91
21
-180.802
0
LINE
8
BLACK
6
CONTINUOUS
10
199.497
20
-80.6743
11
199.497
21
-77.7787
0
LINE
8
BLACK
6
CONTINUOUS
10
201.946
20
-76.5063
11
206.446
21
-76.5063
0
LINE
8
BLACK
6
CONTINUOUS
10
201.946
20
-77.7787
11
199.497
21
-77.7787
0
LINE
8
BLACK
6
CONTINUOUS
10
201.946
20
-77.7787
11
201.946
21
-76.5063
0
LINE
8
BLACK
6
CONTINUOUS
10
201.946
20
-80.6743
11
199.497
21
-80.6743
0
LINE
8
BLACK
6
CONTINUOUS
10
201.946
20
-81.7143
11
201.946
21
-80.6743
0
LINE
8
BLACK
6
CONTINUOUS
10
206.914
20
-81.0143
11
206.914
21
-81.7143
0
LINE
8
BLACK
6
CONTINUOUS
10
206.914
20
-81.7143
11
201.946
21
-81.7143
0
LINE
8
BLACK
6
CONTINUOUS
10
206.946
20
-76.0063
11
206.946
21
-75.0063
0
LINE
8
BLACK
6
CONTINUOUS
10
207.446
20
-74.5063
11
206.946
21
-75.0063
0
LINE
8
BLACK
6
CONTINUOUS
10
210.954
20
-74.5063
11
207.446
21
-74.5063
0
LINE
8
BLACK
6
CONTINUOUS
10
210.954
20
-79.5143
11
208.438
21
-79.5143
0
LINE
8
BLACK
6
CONTINUOUS
10
211.454
20
-75.0063
11
210.954
21
-74.5063
0
LINE
8
BLACK
6
CONTINUOUS
10
211.454
20
-75.5435
11
211.454
21
-75.0063
0
LINE
8
BLACK
6
CONTINUOUS
10
211.454
20
-75.5435
11
213.903
21
-75.5435
0
LINE
8
BLACK
6
CONTINUOUS
10
211.454
20
-78.4391
11
213.903
21
-78.4391
0
LINE
8
BLACK
6
CONTINUOUS
10
211.454
20
-79.0143
11
210.954
21
-79.5143
0
LINE
8
BLACK
6
CONTINUOUS
10
211.454
20
-79.0143
11
211.454
21
-78.4391
0
LINE
8
BLACK
6
CONTINUOUS
10
213.903
20
-75.5435
11
213.903
21
-78.4391
0
ARC
8
BLACK
10
208.357
20
-80.9559
40
1.44391
50
-273.227
51
-177.683
0
ARC
8
BLACK
10
206.446
20
-76.0063
40
0.500001
50
-89.9999
51
-0.000114591
0
CIRCLE
8
BLACK
10
203.731
20
-82.9857
40
0.855
0
CIRCLE
8
BLACK
10
209.231
20
-82.9857
40
1.75
0
CIRCLE
8
BLACK
10
214.731
20
-82.9857
40
0.855
0
LINE
8
BLACK
6
CONTINUOUS
10
270.91
20
-180.002
11
256.11
21
-180.002
0
LINE
8
BLACK
6
CONTINUOUS
10
256.11
20
-180.002
11
256.11
21
-194.802
0
LINE
8
BLACK
6
CONTINUOUS
10
256.11
20
-194.802
11
270.91
21
-194.802
0
LINE
8
BLACK
6
CONTINUOUS
10
270.91
20
-194.802
11
270.91
21
-180.002
0
LINE
8
BLACK
6
CONTINUOUS
10
235.497
20
-41.5647
11
235.497
21
-38.6691
0
LINE
8
BLACK
6
CONTINUOUS
10
237.946
20
-37.3967
11
242.446
21
-37.3967
0
LINE
8
BLACK
6
CONTINUOUS
10
237.946
20
-38.6691
11
235.497
21
-38.6691
0
LINE
8
BLACK
6
CONTINUOUS
10
237.946
20
-38.6691
11
237.946
21
-37.3967
0
LINE
8
BLACK
6
CONTINUOUS
10
237.946
20
-41.5647
11
235.497
21
-41.5647
0
LINE
8
BLACK
6
CONTINUOUS
10
237.946
20
-42.6047
11
237.946
21
-41.5647
0
LINE
8
BLACK
6
CONTINUOUS
10
242.914
20
-41.9047
11
242.914
21
-42.6047
0
LINE
8
BLACK
6
CONTINUOUS
10
242.914
20
-42.6047
11
237.946
21
-42.6047
0
LINE
8
BLACK
6
CONTINUOUS
10
242.946
20
-36.8967
11
242.946
21
-35.8967
0
LINE
8
BLACK
6
CONTINUOUS
10
243.446
20
-35.3967
11
242.946
21
-35.8967
0
LINE
8
BLACK
6
CONTINUOUS
10
246.954
20
-35.3967
11
243.446
21
-35.3967
0
LINE
8
BLACK
6
CONTINUOUS
10
246.954
20
-40.4047
11
244.438
21
-40.4047
0
LINE
8
BLACK
6
CONTINUOUS
10
247.454
20
-35.8967
11
246.954
21
-35.3967
0
LINE
8
BLACK
6
CONTINUOUS
10
247.454
20
-36.4339
11
247.454
21
-35.8967
0
LINE
8
BLACK
6
CONTINUOUS
10
247.454
20
-36.4339
11
249.903
21
-36.4339
0
LINE
8
BLACK
6
CONTINUOUS
10
247.454
20
-39.3295
11
249.903
21
-39.3295
0
LINE
8
BLACK
6
CONTINUOUS
10
247.454
20
-39.9047
11
246.954
21
-40.4047
0
LINE
8
BLACK
6
CONTINUOUS
10
247.454
20
-39.9047
11
247.454
21
-39.3295
0
LINE
8
BLACK
6
CONTINUOUS
10
249.903
20
-36.4339
11
249.903
21
-39.3295
0
ARC
8
BLACK
10
244.357
20
-41.8463
40
1.44391
50
-273.227
51
-177.683
0
ARC
8
BLACK
10
242.446
20
-36.8967
40
0.500001
50
-89.9999
51
-0.000114591
0
CIRCLE
8
BLACK
10
239.731
20
-43.8761
40
0.855
0
CIRCLE
8
BLACK
10
245.231
20
-43.8761
40
1.75
0
CIRCLE
8
BLACK
10
250.731
20
-43.8761
40
0.855
0
LINE
8
BLACK
6
CONTINUOUS
10
253.497
20
-62.8751
11
253.497
21
-59.9795
0
LINE
8
BLACK
6
CONTINUOUS
10
255.945
20
-58.7071
11
260.445
21
-58.7071
0
LINE
8
BLACK
6
CONTINUOUS
10
255.945
20
-59.9795
11
253.497
21
-59.9795
0
LINE
8
BLACK
6
CONTINUOUS
10
255.945
20
-59.9795
11
255.945
21
-58.7071
0
LINE
8
BLACK
6
CONTINUOUS
10
255.945
20
-62.8751
11
253.497
21
-62.8751
0
LINE
8
BLACK
6
CONTINUOUS
10
255.945
20
-63.9151
11
255.945
21
-62.8751
0
LINE
8
BLACK
6
CONTINUOUS
10
260.913
20
-63.2151
11
260.913
21
-63.9151
0
LINE
8
BLACK
6
CONTINUOUS
10
260.913
20
-63.9151
11
255.945
21
-63.9151
0
LINE
8
BLACK
6
CONTINUOUS
10
260.945
20
-58.2071
11
260.945
21
-57.2071
0
LINE
8
BLACK
6
CONTINUOUS
10
261.445
20
-56.7071
11
260.945
21
-57.2071
0
LINE
8
BLACK
6
CONTINUOUS
10
264.953
20
-56.7071
11
261.445
21
-56.7071
0
LINE
8
BLACK
6
CONTINUOUS
10
264.953
20
-61.7151
11
262.437
21
-61.7151
0
LINE
8
BLACK
6
CONTINUOUS
10
265.453
20
-57.2071
11
264.953
21
-56.7071
0
LINE
8
BLACK
6
CONTINUOUS
10
265.453
20
-57.7443
11
265.453
21
-57.2071
0
LINE
8
BLACK
6
CONTINUOUS
10
265.453
20
-57.7443
11
267.902
21
-57.7443
0
LINE
8
BLACK
6
CONTINUOUS
10
265.453
20
-60.6399
11
267.902
21
-60.6399
0
LINE
8
BLACK
6
CONTINUOUS
10
265.453
20
-61.2151
11
264.953
21
-61.7151
0
LINE
8
BLACK
6
CONTINUOUS
10
265.453
20
-61.2151
11
265.453
21
-60.6399
0
LINE
8
BLACK
6
CONTINUOUS
10
267.902
20
-57.7443
11
267.902
21
-60.6399
0
ARC
8
BLACK
10
262.356
20
-63.1567
40
1.44391
50
-273.227
51
-177.683
0
ARC
8
BLACK
10
260.445
20
-58.2071
40
0.500001
50
-89.9999
51
-0.000114591
0
CIRCLE
8
BLACK
10
257.73
20
-65.1865
40
0.855
0
CIRCLE
8
BLACK
10
263.23
20
-65.1865
40
1.75
0
CIRCLE
8
BLACK
10
268.73
20
-65.1865
40
0.855
0
LINE
8
BLACK
6
CONTINUOUS
10
234.91
20
-179.003
11
220.11
21
-179.003
0
LINE
8
BLACK
6
CONTINUOUS
10
220.11
20
-179.003
11
220.11
21
-193.803
0
LINE
8
BLACK
6
CONTINUOUS
10
220.11
20
-193.803
11
234.91
21
-193.803
0
LINE
8
BLACK
6
CONTINUOUS
10
234.91
20
-193.803
11
234.91
21
-179.003
0
LINE
8
BLACK
6
CONTINUOUS
10
124.759
20
-61.8749
11
124.759
21
-58.9793
0
LINE
8
BLACK
6
CONTINUOUS
10
127.208
20
-57.7069
11
131.708
21
-57.7069
0
LINE
8
BLACK
6
CONTINUOUS
10
127.208
20
-58.9793
11
124.759
21
-58.9793
0
LINE
8
BLACK
6
CONTINUOUS
10
127.208
20
-58.9793
11
127.208
21
-57.7069
0
LINE
8
BLACK
6
CONTINUOUS
10
127.208
20
-61.8749
11
124.759
21
-61.8749
0
LINE
8
BLACK
6
CONTINUOUS
10
127.208
20
-62.9149
11
127.208
21
-61.8749
0
LINE
8
BLACK
6
CONTINUOUS
10
132.176
20
-62.2149
11
132.176
21
-62.9149
0
LINE
8
BLACK
6
CONTINUOUS
10
132.176
20
-62.9149
11
127.208
21
-62.9149
0
LINE
8
BLACK
6
CONTINUOUS
10
132.208
20
-57.2069
11
132.208
21
-56.2069
0
LINE
8
BLACK
6
CONTINUOUS
10
132.708
20
-55.7069
11
132.208
21
-56.2069
0
LINE
8
BLACK
6
CONTINUOUS
10
136.216
20
-55.7069
11
132.708
21
-55.7069
0
LINE
8
BLACK
6
CONTINUOUS
10
136.216
20
-60.7149
11
133.7
21
-60.7149
0
LINE
8
BLACK
6
CONTINUOUS
10
136.716
20
-56.2069
11
136.216
21
-55.7069
0
LINE
8
BLACK
6
CONTINUOUS
10
136.716
20
-56.7441
11
136.716
21
-56.2069
0
LINE
8
BLACK
6
CONTINUOUS
10
136.716
20
-56.7441
11
139.165
21
-56.7441
0
LINE
8
BLACK
6
CONTINUOUS
10
136.716
20
-59.6397
11
139.165
21
-59.6397
0
LINE
8
BLACK
6
CONTINUOUS
10
136.716
20
-60.2149
11
136.216
21
-60.7149
0
LINE
8
BLACK
6
CONTINUOUS
10
136.716
20
-60.2149
11
136.716
21
-59.6397
0
LINE
8
BLACK
6
CONTINUOUS
10
139.165
20
-56.7441
11
139.165
21
-59.6397
0
ARC
8
BLACK
10
133.619
20
-62.1565
40
1.44391
50
-273.227
51
-177.683
0
ARC
8
BLACK
10
131.708
20
-57.2069
40
0.500001
50
-89.9999
51
-0.000114591
0
CIRCLE
8
BLACK
10
128.993
20
-64.1863
40
0.855
0
CIRCLE
8
BLACK
10
134.493
20
-64.1863
40
1.75
0
CIRCLE
8
BLACK
10
139.993
20
-64.1863
40
0.855
0
CIRCLE
8
BLACK
10
271.106
20
-92.1311
40
1.6
0
LINE
8
BLACK
6
CONTINUOUS
10
252.91
20
-141.692
11
238.11
21
-141.692
0
LINE
8
BLACK
6
CONTINUOUS
10
238.11
20
-141.692
11
238.11
21
-156.492
0
LINE
8
BLACK
6
CONTINUOUS
10
238.11
20
-156.492
11
252.91
21
-156.492
0
LINE
8
BLACK
6
CONTINUOUS
10
252.91
20
-156.492
11
252.91
21
-141.692
0
LINE
8
BLACK
6
CONTINUOUS
10
124.759
20
-44.8749
11
124.759
21
-41.9793
0
LINE
8
BLACK
6
CONTINUOUS
10
127.208
20
-40.7069
11
131.708
21
-40.7069
0
LINE
8
BLACK
6
CONTINUOUS
10
127.208
20
-41.9793
11
124.759
21
-41.9793
0
LINE
8
BLACK
6
CONTINUOUS
10
127.208
20
-41.9793
11
127.208
21
-40.7069
0
LINE
8
BLACK
6
CONTINUOUS
10
127.208
20
-44.8749
11
124.759
21
-44.8749
0
LINE
8
BLACK
6
CONTINUOUS
10
127.208
20
-45.9149
11
127.208
21
-44.8749
0
LINE
8
BLACK
6
CONTINUOUS
10
132.176
20
-45.2149
11
132.176
21
-45.9149
0
LINE
8
BLACK
6
CONTINUOUS
10
132.176
20
-45.9149
11
127.208
21
-45.9149
0
LINE
8
BLACK
6
CONTINUOUS
10
132.208
20
-40.2069
11
132.208
21
-39.2069
0
LINE
8
BLACK
6
CONTINUOUS
10
132.708
20
-38.7069
11
132.208
21
-39.2069
0
LINE
8
BLACK
6
CONTINUOUS
10
136.216
20
-38.7069
11
132.708
21
-38.7069
0
LINE
8
BLACK
6
CONTINUOUS
10
136.216
20
-43.7149
11
133.7
21
-43.7149
0
LINE
8
BLACK
6
CONTINUOUS
10
136.716
20
-39.2069
11
136.216
21
-38.7069
0
LINE
8
BLACK
6
CONTINUOUS
10
136.716
20
-39.7441
11
136.716
21
-39.2069
0
LINE
8
BLACK
6
CONTINUOUS
10
136.716
20
-39.7441
11
139.165
21
-39.7441
0
LINE
8
BLACK
6
CONTINUOUS
10
136.716
20
-42.6397
11
139.165
21
-42.6397
0
LINE
8
BLACK
6
CONTINUOUS
10
136.716
20
-43.2149
11
136.216
21
-43.7149
0
LINE
8
BLACK
6
CONTINUOUS
10
136.716
20
-43.2149
11
136.716
21
-42.6397
0
LINE
8
BLACK
6
CONTINUOUS
10
139.165
20
-39.7441
11
139.165
21
-42.6397
0
ARC
8
BLACK
10
133.619
20
-45.1565
40
1.44391
50
-273.227
51
-177.683
0
ARC
8
BLACK
10
131.708
20
-40.2069
40
0.500001
50
-89.9999
51
-0.000114591
0
CIRCLE
8
BLACK
10
128.993
20
-47.1863
40
0.855
0
CIRCLE
8
BLACK
10
134.493
20
-47.1863
40
1.75
0
CIRCLE
8
BLACK
10
139.993
20
-47.1863
40
0.855
0
LINE
8
BLACK
6
CONTINUOUS
10
289.963
20
-183.401
11
275.219
21
-182.112
0
LINE
8
BLACK
6
CONTINUOUS
10
275.219
20
-182.112
11
273.929
21
-196.855
0
LINE
8
BLACK
6
CONTINUOUS
10
273.929
20
-196.855
11
288.673
21
-198.145
0
LINE
8
BLACK
6
CONTINUOUS
10
288.673
20
-198.145
11
289.963
21
-183.401
0
LINE
8
BLACK
6
CONTINUOUS
10
260.662
20
-68.8709
11
265.844
21
-68.8709
0
LINE
8
BLACK
6
CONTINUOUS
10
265.844
20
-68.8709
11
265.844
21
-70.9029
0
LINE
8
BLACK
6
CONTINUOUS
10
265.844
20
-70.9029
11
260.662
21
-70.9029
0
LINE
8
BLACK
6
CONTINUOUS
10
260.662
20
-70.9029
11
260.662
21
-68.8709
  0
ENDSEC
  0
EOF
