G04 #@! TF.GenerationSoftware,KiCad,Pcbnew,7.0.5*
G04 #@! TF.CreationDate,2023-06-14T10:23:52+08:00*
G04 #@! TF.ProjectId,AWKB-C,41574b42-2d43-42e6-9b69-6361645f7063,rev?*
G04 #@! TF.SameCoordinates,Original*
G04 #@! TF.FileFunction,Legend,Top*
G04 #@! TF.FilePolarity,Positive*
%FSLAX46Y46*%
G04 Gerber Fmt 4.6, Leading zero omitted, Abs format (unit mm)*
G04 Created by KiCad (PCBNEW 7.0.5) date 2023-06-14 10:23:52*
%MOMM*%
%LPD*%
G01*
G04 APERTURE LIST*
G04 Aperture macros list*
%AMRoundRect*
0 Rectangle with rounded corners*
0 $1 Rounding radius*
0 $2 $3 $4 $5 $6 $7 $8 $9 X,Y pos of 4 corners*
0 Add a 4 corners polygon primitive as box body*
4,1,4,$2,$3,$4,$5,$6,$7,$8,$9,$2,$3,0*
0 Add four circle primitives for the rounded corners*
1,1,$1+$1,$2,$3*
1,1,$1+$1,$4,$5*
1,1,$1+$1,$6,$7*
1,1,$1+$1,$8,$9*
0 Add four rect primitives between the rounded corners*
20,1,$1+$1,$2,$3,$4,$5,0*
20,1,$1+$1,$4,$5,$6,$7,0*
20,1,$1+$1,$6,$7,$8,$9,0*
20,1,$1+$1,$8,$9,$2,$3,0*%
%AMHorizOval*
0 Thick line with rounded ends*
0 $1 width*
0 $2 $3 position (X,Y) of the first rounded end (center of the circle)*
0 $4 $5 position (X,Y) of the second rounded end (center of the circle)*
0 Add line between two ends*
20,1,$1,$2,$3,$4,$5,0*
0 Add two circle primitives to create the rounded ends*
1,1,$1,$2,$3*
1,1,$1,$4,$5*%
%AMFreePoly0*
4,1,22,0.686777,0.580194,0.756366,0.524698,0.794986,0.444504,0.799999,0.400000,0.800000,0.200000,0.780194,0.113223,0.741421,0.058579,0.141421,-0.541421,0.066056,-0.588777,-0.022393,-0.598742,-0.106406,-0.569345,-0.141421,-0.541421,-0.741421,0.058579,-0.788777,0.133944,-0.800000,0.200000,-0.800000,0.400000,-0.780194,0.486777,-0.724698,0.556366,-0.644504,0.594986,-0.600000,0.600000,
0.600000,0.600000,0.686777,0.580194,0.686777,0.580194,$1*%
%AMFreePoly1*
4,1,26,0.706406,1.169345,0.769345,1.106406,0.798742,1.022393,0.800000,1.000000,0.800000,-0.250000,0.780194,-0.336777,0.724698,-0.406366,0.644504,-0.444986,0.600000,-0.450000,-0.600000,-0.450000,-0.686777,-0.430194,-0.756366,-0.374698,-0.794986,-0.294504,-0.800000,-0.250000,-0.800001,1.000000,-0.780194,1.086777,-0.724698,1.156366,-0.644504,1.194985,-0.555496,1.194986,-0.475302,1.156366,
-0.458579,1.141421,0.000000,0.682842,0.458579,1.141421,0.533944,1.188777,0.622393,1.198742,0.706406,1.169345,0.706406,1.169345,$1*%
%AMFreePoly2*
4,1,414,-2.663564,6.707050,-2.641221,6.706150,-2.627714,6.704682,-2.557310,6.692154,-2.496946,6.671026,-2.423852,6.631355,-2.413687,6.625023,-2.398814,6.614472,-2.158972,6.440888,-1.894926,6.250226,-1.604825,6.041150,-1.340970,5.851270,-1.340970,5.851269,-0.908659,5.540346,1.016000,5.540345,1.102777,5.520541,1.172366,5.465043,1.210986,5.384850,1.216000,5.340346,1.216000,4.009931,
1.299751,3.950054,1.397604,3.879440,1.472196,3.823385,1.475820,3.820528,1.531511,3.774507,1.538834,3.767818,1.574924,3.731412,1.599100,3.701843,1.617824,3.673864,1.642241,3.623128,1.650707,3.596451,1.659584,3.549979,1.661424,3.523819,1.657476,3.467890,1.643544,3.402871,1.621142,3.344696,1.575521,3.265763,1.570063,3.257327,1.474398,3.124598,1.474399,3.124598,
1.399655,3.020777,1.341070,2.939228,1.295956,2.876188,1.262955,2.829761,1.239581,2.796469,1.228629,2.780518,1.228382,2.778534,1.226098,2.749223,1.223899,2.705055,1.221971,2.645262,1.220353,2.568240,1.219044,2.472608,1.218021,2.356402,1.217250,2.217703,1.216700,2.054330,1.216701,2.054330,1.216336,1.864310,1.216122,1.646064,1.216022,1.397277,1.216000,1.156191,
1.216000,-0.508000,1.196194,-0.594777,1.140698,-0.664366,1.060504,-0.702986,1.016000,-0.708000,-1.300867,-0.708000,-1.317305,-0.721955,-1.374130,-0.762724,-1.456184,-0.797217,-1.462328,-0.798196,-1.521438,-0.806672,-1.610148,-0.799384,-1.618523,-0.796529,-1.683626,-0.772720,-1.726325,-0.750993,-1.765907,-0.724447,-1.770550,-0.721139,-1.786681,-0.708933,-4.832406,-0.708000,-4.919177,-0.688166,
-4.988750,-0.632650,-5.027344,-0.552444,-5.032345,-0.508064,-5.032395,-0.352086,-5.032421,-0.271829,-3.059387,-0.271830,-2.944889,-0.271615,-2.944888,-0.271615,-2.758679,-0.271042,-2.580739,-0.270256,-2.580738,-0.270256,-2.414939,-0.269261,-2.414940,-0.269261,-2.402157,-0.269159,-2.423194,-0.254061,-2.551428,-0.161856,-2.680405,-0.068976,-2.801942,0.018686,-2.907841,0.095225,-2.951636,0.126949,
-3.041522,0.192069,-3.054493,0.201448,-3.054493,-0.250384,-3.059387,-0.271830,-5.032421,-0.271829,-5.033035,1.627051,-5.116088,1.686225,-5.284226,1.806363,-5.425283,1.907915,-5.540186,1.991566,-5.630162,2.058240,-5.695871,2.108467,-5.698372,2.110442,-5.741778,2.145869,-5.747390,2.150809,-5.763238,2.165850,-5.804603,2.221793,-5.831146,2.275116,-5.852084,2.361626,-5.851576,2.378731,
-5.846892,2.443206,-5.827099,2.516549,-5.820642,2.529758,-5.788356,2.595805,-5.784989,2.601633,-4.580894,2.601633,-4.580837,2.458573,-4.580478,2.346570,-4.579555,2.262461,-4.577881,2.203736,-4.577285,2.194667,-4.548415,2.172831,-4.483289,2.124673,-4.404467,2.067194,-4.317291,2.004343,-4.304320,1.995049,-3.789717,1.626690,-3.693155,1.557418,-3.588658,1.482202,-3.493513,1.413516,
-3.493469,1.417579,-3.492215,1.570234,-3.491128,1.743282,-3.490225,1.934674,-3.489527,2.141404,-3.489052,2.361431,-3.488816,2.592405,-3.488794,2.690627,-3.488794,4.145613,-3.780439,4.145613,-3.797838,4.121466,-3.833847,4.071538,-3.884822,4.000919,-3.945645,3.916699,-4.011204,3.825953,-4.061105,3.756906,-4.138874,3.649180,-4.227667,3.525969,-4.318193,3.400180,-4.401743,3.283907,
-4.432523,3.241007,-4.580894,3.034101,-4.580894,2.601633,-5.784989,2.601633,-5.781445,2.607769,-5.775409,2.616730,-5.747746,2.656569,-5.702905,2.720059,-5.642947,2.804351,-5.569964,2.906530,-5.486213,3.023444,-5.393993,3.151881,-5.295612,3.288617,-5.193407,3.430389,-5.157803,3.479711,-5.032345,3.653438,-5.032345,4.562763,-3.478749,4.562763,-3.254493,4.562763,-3.167716,4.542957,
-3.098127,4.487461,-3.059507,4.407267,-3.054493,4.362825,-3.053482,1.095367,-2.755790,0.881825,-2.538863,0.726188,-2.348318,0.589414,-2.182662,0.470425,-2.040390,0.368136,-1.919993,0.281460,-1.830611,0.216986,-1.818379,1.744532,-1.390887,1.744532,-1.390887,0.872621,-1.390687,0.684777,-1.390113,0.507776,-1.389488,0.395984,-1.362208,0.434001,-1.282405,0.545014,-1.202983,0.655306,
-1.126858,0.760817,-1.056931,0.857505,-0.996121,0.941303,-0.964901,0.984151,-0.913707,1.054538,-0.851488,1.140514,-0.788030,1.228536,-0.750017,1.281458,-0.468879,1.673602,-0.418955,1.742967,-0.420240,1.742985,-0.587428,1.744095,-0.788602,1.744526,-0.788601,1.744526,-0.819150,1.744532,-1.390887,1.744532,-1.818379,1.744532,-1.816764,1.946135,-1.816608,1.965721,-1.796105,2.052336,
-1.740054,2.121479,-1.659553,2.159454,-1.617377,2.164117,-0.111097,2.169868,0.138817,2.516086,0.227450,2.638853,0.320064,2.767098,0.411852,2.894166,0.498011,3.013410,0.573742,3.118189,0.634535,3.202258,0.779387,3.402484,0.778132,3.427196,0.736528,3.458396,0.663454,3.512361,0.580098,3.572686,0.503228,3.627241,0.499236,3.630032,0.490935,3.635826,-0.332040,3.040808,
-0.491563,2.925814,-0.643339,2.817068,-0.784955,2.716258,-0.914136,2.624974,-1.028637,2.544784,-1.126312,2.477194,-1.205320,2.423507,-1.263590,2.385237,-1.267202,2.382973,-1.300050,2.363349,-1.335772,2.346546,-1.341637,2.344468,-1.430043,2.334129,-1.514180,2.363173,-1.549349,2.390986,-1.568831,2.410314,-1.575615,2.417759,-1.612287,2.462315,-1.614024,2.464486,-1.661873,2.526034,
-1.719812,2.602912,-1.784355,2.690558,-1.813064,2.730129,-1.897224,2.846653,-1.992502,2.978597,-2.090826,3.114777,-2.184002,3.243845,-2.251013,3.336686,-2.319043,3.430882,-2.402203,3.545922,-2.402202,3.545922,-2.495312,3.674648,-2.495313,3.674648,-2.593439,3.810237,-2.593438,3.810237,-2.691394,3.945522,-2.790634,4.082500,-2.879547,4.205244,-2.970969,4.331572,-3.060519,4.455420,
-3.143837,4.570758,-3.216578,4.671573,-3.274379,4.751822,-3.283113,4.763969,-3.308252,4.798680,-3.309485,4.796953,-3.367768,4.715859,-3.427376,4.633472,-3.478749,4.562763,-5.032345,4.562763,-5.032345,5.088893,-4.580894,5.088894,-4.580894,4.835834,-4.580509,4.692777,-4.579279,4.581848,-4.578828,4.564933,-4.530979,4.564588,-4.453634,4.565158,-4.384004,4.566788,-4.373602,4.567285,
-4.372294,4.568938,-4.320581,4.638596,-4.253334,4.732398,-4.221007,4.778279,-4.190391,4.821521,-4.144475,4.885859,-4.088149,4.964468,-4.026093,5.050817,-3.998998,5.088421,-4.071032,5.088758,-4.179382,5.088875,-2.969943,5.088875,-2.904744,4.998038,-2.807937,4.863599,-2.691454,4.702178,-2.555289,4.513770,-2.555289,4.513770,-2.399346,4.298241,-2.399346,4.298240,-2.223932,4.056015,
-2.191157,4.010778,-2.057824,3.826715,-1.942489,3.667405,-1.843008,3.529873,-1.757234,3.411137,-1.683021,3.308215,-1.618222,3.218130,-1.560700,3.137912,-1.508322,3.064603,-1.458972,2.995262,-1.414225,2.932165,-1.359497,2.855894,-1.355693,2.850744,-1.307082,2.885041,-1.205315,2.957385,-1.088324,3.041002,-0.958198,3.134408,-0.818136,3.235324,-0.818137,3.235325,-0.691009,3.327222,
-0.540362,3.436266,-0.395328,3.541212,-0.258867,3.639921,-0.133822,3.730337,-0.023033,3.810409,0.070663,3.878086,0.112494,3.908272,0.101072,3.916610,0.054852,3.950351,-0.046932,4.023566,-0.165523,4.108922,-0.291229,4.199442,-0.413710,4.287679,-0.507292,4.355131,-0.507291,4.355131,-0.608845,4.428321,-0.608843,4.428321,-0.729816,4.515456,-0.729816,4.515456,-0.861943,4.610589,
-0.996814,4.707660,-1.126055,4.800645,-1.193145,4.848896,-1.193144,4.848896,-1.526707,5.088757,-2.969943,5.088875,-4.179382,5.088875,-4.196977,5.088894,-4.580894,5.088894,-5.032345,5.088893,-5.032345,5.340346,-5.012538,5.427123,-4.957043,5.496712,-4.876849,5.535332,-4.832345,5.540346,-3.672979,5.540346,-3.671844,5.541921,-2.774877,5.541921,-2.654613,5.541104,-2.503084,5.540526,
-2.354041,5.540346,-2.192679,5.540502,-2.154401,5.540618,-2.179528,5.558770,-2.410073,5.725327,-2.472505,5.770435,-2.549554,5.824927,-2.563214,5.834142,-2.593747,5.792542,-2.653498,5.710414,-2.716249,5.623563,-2.774877,5.541921,-3.671844,5.541921,-3.451646,5.847456,-3.331591,6.014124,-3.229883,6.155310,-3.144709,6.273254,-3.074211,6.370242,-3.016438,6.448685,-2.969891,6.510352,
-2.968577,6.512055,-2.931280,6.559320,-2.928782,6.562361,-2.897756,6.598645,-2.892800,6.604029,-2.864383,6.632720,-2.854177,6.641712,-2.832303,6.658487,-2.792701,6.682153,-2.779068,6.688291,-2.724859,6.703967,-2.712337,6.705731,-2.677032,6.707549,-2.663564,6.707050,-2.663564,6.707050,$1*%
G04 Aperture macros list end*
%ADD10C,0.150000*%
%ADD11C,0.200000*%
%ADD12C,0.100000*%
%ADD13C,2.200000*%
%ADD14C,3.400000*%
%ADD15C,3.800000*%
%ADD16RoundRect,0.200000X-0.800000X-1.100000X0.800000X-1.100000X0.800000X1.100000X-0.800000X1.100000X0*%
%ADD17RoundRect,0.200000X-0.600000X-0.700000X0.600000X-0.700000X0.600000X0.700000X-0.600000X0.700000X0*%
%ADD18C,3.600000*%
%ADD19RoundRect,0.200000X0.978859X0.944370X-0.596833X1.222207X-0.978859X-0.944370X0.596833X-1.222207X0*%
%ADD20RoundRect,0.200000X-0.701084X-1.165539X0.892827X-1.026090X0.701084X1.165539X-0.892827X1.026090X0*%
%ADD21RoundRect,0.200000X1.127976X0.760046X-0.375532X1.307278X-1.127976X-0.760046X0.375532X-1.307278X0*%
%ADD22C,2.000000*%
%ADD23FreePoly0,185.000000*%
%ADD24FreePoly0,5.000000*%
%ADD25FreePoly1,5.000000*%
%ADD26FreePoly1,185.000000*%
%ADD27RoundRect,0.200000X-0.803230X-0.452573X0.324401X-0.862997X0.803230X0.452573X-0.324401X0.862997X0*%
%ADD28RoundRect,0.200000X-0.712438X-0.585177X0.469331X-0.793554X0.712438X0.585177X-0.469331X0.793554X0*%
%ADD29RoundRect,0.200000X0.536708X0.749630X-0.658726X0.645043X-0.536708X-0.749630X0.658726X-0.645043X0*%
%ADD30RoundRect,0.200000X0.600000X0.700000X-0.600000X0.700000X-0.600000X-0.700000X0.600000X-0.700000X0*%
%ADD31C,1.200000*%
%ADD32HorizOval,2.000000X0.051764X0.193185X-0.051764X-0.193185X0*%
%ADD33HorizOval,2.000000X-0.051764X-0.193185X0.051764X0.193185X0*%
%ADD34FreePoly2,35.000000*%
%ADD35C,1.100000*%
G04 APERTURE END LIST*
D10*
X150147074Y-131039309D02*
X150528026Y-131039309D01*
X150042312Y-131267881D02*
X150408979Y-130467881D01*
X150408979Y-130467881D02*
X150575645Y-131267881D01*
X150866121Y-130467881D02*
X150956598Y-131267881D01*
X150956598Y-131267881D02*
X151180407Y-130696452D01*
X151180407Y-130696452D02*
X151261359Y-131267881D01*
X151261359Y-131267881D02*
X151551836Y-130467881D01*
X151756598Y-131267881D02*
X151856598Y-130467881D01*
X152213741Y-131267881D02*
X151928026Y-130810738D01*
X152313741Y-130467881D02*
X151799455Y-130925024D01*
X152875645Y-130848833D02*
X152985169Y-130886928D01*
X152985169Y-130886928D02*
X153018503Y-130925024D01*
X153018503Y-130925024D02*
X153047074Y-131001214D01*
X153047074Y-131001214D02*
X153032788Y-131115500D01*
X153032788Y-131115500D02*
X152985169Y-131191690D01*
X152985169Y-131191690D02*
X152942312Y-131229786D01*
X152942312Y-131229786D02*
X152861360Y-131267881D01*
X152861360Y-131267881D02*
X152556598Y-131267881D01*
X152556598Y-131267881D02*
X152656598Y-130467881D01*
X152656598Y-130467881D02*
X152923264Y-130467881D01*
X152923264Y-130467881D02*
X152994693Y-130505976D01*
X152994693Y-130505976D02*
X153028026Y-130544071D01*
X153028026Y-130544071D02*
X153056598Y-130620262D01*
X153056598Y-130620262D02*
X153047074Y-130696452D01*
X153047074Y-130696452D02*
X152999455Y-130772643D01*
X152999455Y-130772643D02*
X152956598Y-130810738D01*
X152956598Y-130810738D02*
X152875645Y-130848833D01*
X152875645Y-130848833D02*
X152608979Y-130848833D01*
X154004217Y-130963119D02*
X154613741Y-130963119D01*
X155556598Y-131039309D02*
X155937550Y-131039309D01*
X155451836Y-131267881D02*
X155818503Y-130467881D01*
X155818503Y-130467881D02*
X155985169Y-131267881D01*
X156885169Y-130467881D02*
X156975646Y-131267881D01*
X156975646Y-131267881D02*
X157199455Y-130696452D01*
X157199455Y-130696452D02*
X157280407Y-131267881D01*
X157280407Y-131267881D02*
X157570884Y-130467881D01*
X158085170Y-131229786D02*
X158004217Y-131267881D01*
X158004217Y-131267881D02*
X157851836Y-131267881D01*
X157851836Y-131267881D02*
X157780408Y-131229786D01*
X157780408Y-131229786D02*
X157751836Y-131153595D01*
X157751836Y-131153595D02*
X157789932Y-130848833D01*
X157789932Y-130848833D02*
X157837551Y-130772643D01*
X157837551Y-130772643D02*
X157918503Y-130734547D01*
X157918503Y-130734547D02*
X158070884Y-130734547D01*
X158070884Y-130734547D02*
X158142312Y-130772643D01*
X158142312Y-130772643D02*
X158170884Y-130848833D01*
X158170884Y-130848833D02*
X158161360Y-130925024D01*
X158161360Y-130925024D02*
X157770884Y-131001214D01*
X158461360Y-131267881D02*
X158528026Y-130734547D01*
X158561360Y-130467881D02*
X158518503Y-130505976D01*
X158518503Y-130505976D02*
X158551836Y-130544071D01*
X158551836Y-130544071D02*
X158594693Y-130505976D01*
X158594693Y-130505976D02*
X158561360Y-130467881D01*
X158561360Y-130467881D02*
X158551836Y-130544071D01*
X158842312Y-131267881D02*
X158908978Y-130734547D01*
X158889931Y-130886928D02*
X158937550Y-130810738D01*
X158937550Y-130810738D02*
X158980407Y-130772643D01*
X158980407Y-130772643D02*
X159061359Y-130734547D01*
X159061359Y-130734547D02*
X159137550Y-130734547D01*
X159680407Y-131267881D02*
X159780407Y-130467881D01*
X159685169Y-131229786D02*
X159604216Y-131267881D01*
X159604216Y-131267881D02*
X159451836Y-131267881D01*
X159451836Y-131267881D02*
X159380407Y-131229786D01*
X159380407Y-131229786D02*
X159347074Y-131191690D01*
X159347074Y-131191690D02*
X159318502Y-131115500D01*
X159318502Y-131115500D02*
X159347074Y-130886928D01*
X159347074Y-130886928D02*
X159394693Y-130810738D01*
X159394693Y-130810738D02*
X159437550Y-130772643D01*
X159437550Y-130772643D02*
X159518502Y-130734547D01*
X159518502Y-130734547D02*
X159670883Y-130734547D01*
X159670883Y-130734547D02*
X159742312Y-130772643D01*
X160670884Y-131267881D02*
X160770884Y-130467881D01*
X161128027Y-131267881D02*
X160842312Y-130810738D01*
X161228027Y-130467881D02*
X160713741Y-130925024D01*
X161780408Y-131229786D02*
X161699455Y-131267881D01*
X161699455Y-131267881D02*
X161547074Y-131267881D01*
X161547074Y-131267881D02*
X161475646Y-131229786D01*
X161475646Y-131229786D02*
X161447074Y-131153595D01*
X161447074Y-131153595D02*
X161485170Y-130848833D01*
X161485170Y-130848833D02*
X161532789Y-130772643D01*
X161532789Y-130772643D02*
X161613741Y-130734547D01*
X161613741Y-130734547D02*
X161766122Y-130734547D01*
X161766122Y-130734547D02*
X161837550Y-130772643D01*
X161837550Y-130772643D02*
X161866122Y-130848833D01*
X161866122Y-130848833D02*
X161856598Y-130925024D01*
X161856598Y-130925024D02*
X161466122Y-131001214D01*
X162147074Y-130734547D02*
X162270884Y-131267881D01*
X162528026Y-130734547D02*
X162270884Y-131267881D01*
X162270884Y-131267881D02*
X162170884Y-131458357D01*
X162170884Y-131458357D02*
X162128026Y-131496452D01*
X162128026Y-131496452D02*
X162047074Y-131534547D01*
X162766122Y-131267881D02*
X162866122Y-130467881D01*
X162828027Y-130772643D02*
X162908979Y-130734547D01*
X162908979Y-130734547D02*
X163061360Y-130734547D01*
X163061360Y-130734547D02*
X163132788Y-130772643D01*
X163132788Y-130772643D02*
X163166122Y-130810738D01*
X163166122Y-130810738D02*
X163194693Y-130886928D01*
X163194693Y-130886928D02*
X163166122Y-131115500D01*
X163166122Y-131115500D02*
X163118503Y-131191690D01*
X163118503Y-131191690D02*
X163075646Y-131229786D01*
X163075646Y-131229786D02*
X162994693Y-131267881D01*
X162994693Y-131267881D02*
X162842312Y-131267881D01*
X162842312Y-131267881D02*
X162770884Y-131229786D01*
X163604218Y-131267881D02*
X163532789Y-131229786D01*
X163532789Y-131229786D02*
X163499456Y-131191690D01*
X163499456Y-131191690D02*
X163470884Y-131115500D01*
X163470884Y-131115500D02*
X163499456Y-130886928D01*
X163499456Y-130886928D02*
X163547075Y-130810738D01*
X163547075Y-130810738D02*
X163589932Y-130772643D01*
X163589932Y-130772643D02*
X163670884Y-130734547D01*
X163670884Y-130734547D02*
X163785170Y-130734547D01*
X163785170Y-130734547D02*
X163856598Y-130772643D01*
X163856598Y-130772643D02*
X163889932Y-130810738D01*
X163889932Y-130810738D02*
X163918503Y-130886928D01*
X163918503Y-130886928D02*
X163889932Y-131115500D01*
X163889932Y-131115500D02*
X163842313Y-131191690D01*
X163842313Y-131191690D02*
X163799456Y-131229786D01*
X163799456Y-131229786D02*
X163718503Y-131267881D01*
X163718503Y-131267881D02*
X163604218Y-131267881D01*
X164556599Y-131267881D02*
X164608980Y-130848833D01*
X164608980Y-130848833D02*
X164580408Y-130772643D01*
X164580408Y-130772643D02*
X164508980Y-130734547D01*
X164508980Y-130734547D02*
X164356599Y-130734547D01*
X164356599Y-130734547D02*
X164275647Y-130772643D01*
X164561361Y-131229786D02*
X164480408Y-131267881D01*
X164480408Y-131267881D02*
X164289932Y-131267881D01*
X164289932Y-131267881D02*
X164218504Y-131229786D01*
X164218504Y-131229786D02*
X164189932Y-131153595D01*
X164189932Y-131153595D02*
X164199456Y-131077405D01*
X164199456Y-131077405D02*
X164247075Y-131001214D01*
X164247075Y-131001214D02*
X164328028Y-130963119D01*
X164328028Y-130963119D02*
X164518504Y-130963119D01*
X164518504Y-130963119D02*
X164599456Y-130925024D01*
X164937552Y-131267881D02*
X165004218Y-130734547D01*
X164985171Y-130886928D02*
X165032790Y-130810738D01*
X165032790Y-130810738D02*
X165075647Y-130772643D01*
X165075647Y-130772643D02*
X165156599Y-130734547D01*
X165156599Y-130734547D02*
X165232790Y-130734547D01*
X165775647Y-131267881D02*
X165875647Y-130467881D01*
X165780409Y-131229786D02*
X165699456Y-131267881D01*
X165699456Y-131267881D02*
X165547076Y-131267881D01*
X165547076Y-131267881D02*
X165475647Y-131229786D01*
X165475647Y-131229786D02*
X165442314Y-131191690D01*
X165442314Y-131191690D02*
X165413742Y-131115500D01*
X165413742Y-131115500D02*
X165442314Y-130886928D01*
X165442314Y-130886928D02*
X165489933Y-130810738D01*
X165489933Y-130810738D02*
X165532790Y-130772643D01*
X165532790Y-130772643D02*
X165613742Y-130734547D01*
X165613742Y-130734547D02*
X165766123Y-130734547D01*
X165766123Y-130734547D02*
X165837552Y-130772643D01*
X150156598Y-132555881D02*
X150256598Y-131755881D01*
X150256598Y-131755881D02*
X150561360Y-131755881D01*
X150561360Y-131755881D02*
X150632788Y-131793976D01*
X150632788Y-131793976D02*
X150666122Y-131832071D01*
X150666122Y-131832071D02*
X150694693Y-131908262D01*
X150694693Y-131908262D02*
X150680407Y-132022547D01*
X150680407Y-132022547D02*
X150632788Y-132098738D01*
X150632788Y-132098738D02*
X150589931Y-132136833D01*
X150589931Y-132136833D02*
X150508979Y-132174928D01*
X150508979Y-132174928D02*
X150204217Y-132174928D01*
X151423264Y-132479690D02*
X151380407Y-132517786D01*
X151380407Y-132517786D02*
X151261360Y-132555881D01*
X151261360Y-132555881D02*
X151185169Y-132555881D01*
X151185169Y-132555881D02*
X151075645Y-132517786D01*
X151075645Y-132517786D02*
X151008979Y-132441595D01*
X151008979Y-132441595D02*
X150980407Y-132365405D01*
X150980407Y-132365405D02*
X150961360Y-132213024D01*
X150961360Y-132213024D02*
X150975645Y-132098738D01*
X150975645Y-132098738D02*
X151032788Y-131946357D01*
X151032788Y-131946357D02*
X151080407Y-131870166D01*
X151080407Y-131870166D02*
X151166122Y-131793976D01*
X151166122Y-131793976D02*
X151285169Y-131755881D01*
X151285169Y-131755881D02*
X151361360Y-131755881D01*
X151361360Y-131755881D02*
X151470884Y-131793976D01*
X151470884Y-131793976D02*
X151504217Y-131832071D01*
X152075645Y-132136833D02*
X152185169Y-132174928D01*
X152185169Y-132174928D02*
X152218503Y-132213024D01*
X152218503Y-132213024D02*
X152247074Y-132289214D01*
X152247074Y-132289214D02*
X152232788Y-132403500D01*
X152232788Y-132403500D02*
X152185169Y-132479690D01*
X152185169Y-132479690D02*
X152142312Y-132517786D01*
X152142312Y-132517786D02*
X152061360Y-132555881D01*
X152061360Y-132555881D02*
X151756598Y-132555881D01*
X151756598Y-132555881D02*
X151856598Y-131755881D01*
X151856598Y-131755881D02*
X152123264Y-131755881D01*
X152123264Y-131755881D02*
X152194693Y-131793976D01*
X152194693Y-131793976D02*
X152228026Y-131832071D01*
X152228026Y-131832071D02*
X152256598Y-131908262D01*
X152256598Y-131908262D02*
X152247074Y-131984452D01*
X152247074Y-131984452D02*
X152199455Y-132060643D01*
X152199455Y-132060643D02*
X152156598Y-132098738D01*
X152156598Y-132098738D02*
X152075645Y-132136833D01*
X152075645Y-132136833D02*
X151808979Y-132136833D01*
X153508979Y-132555881D02*
X153608979Y-131755881D01*
X153513741Y-132517786D02*
X153432788Y-132555881D01*
X153432788Y-132555881D02*
X153280408Y-132555881D01*
X153280408Y-132555881D02*
X153208979Y-132517786D01*
X153208979Y-132517786D02*
X153175646Y-132479690D01*
X153175646Y-132479690D02*
X153147074Y-132403500D01*
X153147074Y-132403500D02*
X153175646Y-132174928D01*
X153175646Y-132174928D02*
X153223265Y-132098738D01*
X153223265Y-132098738D02*
X153266122Y-132060643D01*
X153266122Y-132060643D02*
X153347074Y-132022547D01*
X153347074Y-132022547D02*
X153499455Y-132022547D01*
X153499455Y-132022547D02*
X153570884Y-132060643D01*
X154199456Y-132517786D02*
X154118503Y-132555881D01*
X154118503Y-132555881D02*
X153966122Y-132555881D01*
X153966122Y-132555881D02*
X153894694Y-132517786D01*
X153894694Y-132517786D02*
X153866122Y-132441595D01*
X153866122Y-132441595D02*
X153904218Y-132136833D01*
X153904218Y-132136833D02*
X153951837Y-132060643D01*
X153951837Y-132060643D02*
X154032789Y-132022547D01*
X154032789Y-132022547D02*
X154185170Y-132022547D01*
X154185170Y-132022547D02*
X154256598Y-132060643D01*
X154256598Y-132060643D02*
X154285170Y-132136833D01*
X154285170Y-132136833D02*
X154275646Y-132213024D01*
X154275646Y-132213024D02*
X153885170Y-132289214D01*
X154542312Y-132517786D02*
X154613741Y-132555881D01*
X154613741Y-132555881D02*
X154766122Y-132555881D01*
X154766122Y-132555881D02*
X154847074Y-132517786D01*
X154847074Y-132517786D02*
X154894693Y-132441595D01*
X154894693Y-132441595D02*
X154899455Y-132403500D01*
X154899455Y-132403500D02*
X154870884Y-132327309D01*
X154870884Y-132327309D02*
X154799455Y-132289214D01*
X154799455Y-132289214D02*
X154685170Y-132289214D01*
X154685170Y-132289214D02*
X154613741Y-132251119D01*
X154613741Y-132251119D02*
X154585170Y-132174928D01*
X154585170Y-132174928D02*
X154589932Y-132136833D01*
X154589932Y-132136833D02*
X154637551Y-132060643D01*
X154637551Y-132060643D02*
X154718503Y-132022547D01*
X154718503Y-132022547D02*
X154832789Y-132022547D01*
X154832789Y-132022547D02*
X154904217Y-132060643D01*
X155223265Y-132555881D02*
X155289931Y-132022547D01*
X155323265Y-131755881D02*
X155280408Y-131793976D01*
X155280408Y-131793976D02*
X155313741Y-131832071D01*
X155313741Y-131832071D02*
X155356598Y-131793976D01*
X155356598Y-131793976D02*
X155323265Y-131755881D01*
X155323265Y-131755881D02*
X155313741Y-131832071D01*
X156013741Y-132022547D02*
X155932788Y-132670166D01*
X155932788Y-132670166D02*
X155885169Y-132746357D01*
X155885169Y-132746357D02*
X155842312Y-132784452D01*
X155842312Y-132784452D02*
X155761360Y-132822547D01*
X155761360Y-132822547D02*
X155647074Y-132822547D01*
X155647074Y-132822547D02*
X155575645Y-132784452D01*
X155951836Y-132517786D02*
X155870883Y-132555881D01*
X155870883Y-132555881D02*
X155718503Y-132555881D01*
X155718503Y-132555881D02*
X155647074Y-132517786D01*
X155647074Y-132517786D02*
X155613741Y-132479690D01*
X155613741Y-132479690D02*
X155585169Y-132403500D01*
X155585169Y-132403500D02*
X155613741Y-132174928D01*
X155613741Y-132174928D02*
X155661360Y-132098738D01*
X155661360Y-132098738D02*
X155704217Y-132060643D01*
X155704217Y-132060643D02*
X155785169Y-132022547D01*
X155785169Y-132022547D02*
X155937550Y-132022547D01*
X155937550Y-132022547D02*
X156008979Y-132060643D01*
X156394693Y-132022547D02*
X156328027Y-132555881D01*
X156385170Y-132098738D02*
X156428027Y-132060643D01*
X156428027Y-132060643D02*
X156508979Y-132022547D01*
X156508979Y-132022547D02*
X156623265Y-132022547D01*
X156623265Y-132022547D02*
X156694693Y-132060643D01*
X156694693Y-132060643D02*
X156723265Y-132136833D01*
X156723265Y-132136833D02*
X156670884Y-132555881D01*
X157361361Y-132517786D02*
X157280408Y-132555881D01*
X157280408Y-132555881D02*
X157128027Y-132555881D01*
X157128027Y-132555881D02*
X157056599Y-132517786D01*
X157056599Y-132517786D02*
X157028027Y-132441595D01*
X157028027Y-132441595D02*
X157066123Y-132136833D01*
X157066123Y-132136833D02*
X157113742Y-132060643D01*
X157113742Y-132060643D02*
X157194694Y-132022547D01*
X157194694Y-132022547D02*
X157347075Y-132022547D01*
X157347075Y-132022547D02*
X157418503Y-132060643D01*
X157418503Y-132060643D02*
X157447075Y-132136833D01*
X157447075Y-132136833D02*
X157437551Y-132213024D01*
X157437551Y-132213024D02*
X157047075Y-132289214D01*
X158080408Y-132555881D02*
X158180408Y-131755881D01*
X158085170Y-132517786D02*
X158004217Y-132555881D01*
X158004217Y-132555881D02*
X157851837Y-132555881D01*
X157851837Y-132555881D02*
X157780408Y-132517786D01*
X157780408Y-132517786D02*
X157747075Y-132479690D01*
X157747075Y-132479690D02*
X157718503Y-132403500D01*
X157718503Y-132403500D02*
X157747075Y-132174928D01*
X157747075Y-132174928D02*
X157794694Y-132098738D01*
X157794694Y-132098738D02*
X157837551Y-132060643D01*
X157837551Y-132060643D02*
X157918503Y-132022547D01*
X157918503Y-132022547D02*
X158070884Y-132022547D01*
X158070884Y-132022547D02*
X158142313Y-132060643D01*
X159070885Y-132555881D02*
X159170885Y-131755881D01*
X159132790Y-132060643D02*
X159213742Y-132022547D01*
X159213742Y-132022547D02*
X159366123Y-132022547D01*
X159366123Y-132022547D02*
X159437551Y-132060643D01*
X159437551Y-132060643D02*
X159470885Y-132098738D01*
X159470885Y-132098738D02*
X159499456Y-132174928D01*
X159499456Y-132174928D02*
X159470885Y-132403500D01*
X159470885Y-132403500D02*
X159423266Y-132479690D01*
X159423266Y-132479690D02*
X159380409Y-132517786D01*
X159380409Y-132517786D02*
X159299456Y-132555881D01*
X159299456Y-132555881D02*
X159147075Y-132555881D01*
X159147075Y-132555881D02*
X159075647Y-132517786D01*
X159785171Y-132022547D02*
X159908981Y-132555881D01*
X160166123Y-132022547D02*
X159908981Y-132555881D01*
X159908981Y-132555881D02*
X159808981Y-132746357D01*
X159808981Y-132746357D02*
X159766123Y-132784452D01*
X159766123Y-132784452D02*
X159685171Y-132822547D01*
X161342314Y-131755881D02*
X161270886Y-132327309D01*
X161270886Y-132327309D02*
X161218505Y-132441595D01*
X161218505Y-132441595D02*
X161132790Y-132517786D01*
X161132790Y-132517786D02*
X161013743Y-132555881D01*
X161013743Y-132555881D02*
X160937552Y-132555881D01*
X161647076Y-131755881D02*
X161737553Y-132555881D01*
X161737553Y-132555881D02*
X161961362Y-131984452D01*
X161961362Y-131984452D02*
X162042314Y-132555881D01*
X162042314Y-132555881D02*
X162332791Y-131755881D01*
X162547077Y-132479690D02*
X162580410Y-132517786D01*
X162580410Y-132517786D02*
X162537553Y-132555881D01*
X162537553Y-132555881D02*
X162504219Y-132517786D01*
X162504219Y-132517786D02*
X162547077Y-132479690D01*
X162547077Y-132479690D02*
X162537553Y-132555881D01*
X195927122Y-120088086D02*
X196075018Y-119536128D01*
X196966996Y-120070926D02*
X196001070Y-119812107D01*
X197275114Y-118921014D02*
X196728876Y-119119742D01*
X197127217Y-119472972D02*
X196161291Y-119214153D01*
X196161291Y-119214153D02*
X196259889Y-118846181D01*
X196259889Y-118846181D02*
X196330535Y-118766513D01*
X196330535Y-118766513D02*
X196388856Y-118732841D01*
X196388856Y-118732841D02*
X196493174Y-118711494D01*
X196493174Y-118711494D02*
X196631163Y-118748468D01*
X196631163Y-118748468D02*
X196710831Y-118819114D01*
X196710831Y-118819114D02*
X196744503Y-118877435D01*
X196744503Y-118877435D02*
X196765850Y-118981753D01*
X196765850Y-118981753D02*
X196667252Y-119349724D01*
X197533933Y-117955088D02*
X196987695Y-118153816D01*
X197386036Y-118507046D02*
X196420110Y-118248227D01*
X196420110Y-118248227D02*
X196518708Y-117880255D01*
X196518708Y-117880255D02*
X196589354Y-117800587D01*
X196589354Y-117800587D02*
X196647675Y-117766915D01*
X196647675Y-117766915D02*
X196751993Y-117745568D01*
X196751993Y-117745568D02*
X196889982Y-117782542D01*
X196889982Y-117782542D02*
X196969650Y-117853188D01*
X196969650Y-117853188D02*
X197003322Y-117911509D01*
X197003322Y-117911509D02*
X197024669Y-118015827D01*
X197024669Y-118015827D02*
X196926071Y-118383799D01*
X197586534Y-117574792D02*
X197669505Y-117449127D01*
X197669505Y-117449127D02*
X197731128Y-117219145D01*
X197731128Y-117219145D02*
X197709781Y-117114827D01*
X197709781Y-117114827D02*
X197676109Y-117056506D01*
X197676109Y-117056506D02*
X197596441Y-116985860D01*
X197596441Y-116985860D02*
X197504448Y-116961211D01*
X197504448Y-116961211D02*
X197400131Y-116982558D01*
X197400131Y-116982558D02*
X197341809Y-117016229D01*
X197341809Y-117016229D02*
X197271164Y-117095898D01*
X197271164Y-117095898D02*
X197175868Y-117267559D01*
X197175868Y-117267559D02*
X197105222Y-117347227D01*
X197105222Y-117347227D02*
X197046901Y-117380899D01*
X197046901Y-117380899D02*
X196942583Y-117402246D01*
X196942583Y-117402246D02*
X196850591Y-117377596D01*
X196850591Y-117377596D02*
X196770922Y-117306950D01*
X196770922Y-117306950D02*
X196737251Y-117248629D01*
X196737251Y-117248629D02*
X196715904Y-117144312D01*
X196715904Y-117144312D02*
X196777527Y-116914329D01*
X196777527Y-116914329D02*
X196860498Y-116788665D01*
X122813328Y-102761994D02*
X122813328Y-105411994D01*
X123813328Y-106411994D02*
X126413328Y-106411994D01*
X128838328Y-99561994D02*
X131388328Y-99561994D01*
X132413328Y-100586994D02*
X131388328Y-99561994D01*
X132413328Y-100586994D02*
X132413328Y-103186994D01*
X122813328Y-105411994D02*
G75*
G03*
X123813328Y-106411994I999999J-1D01*
G01*
D11*
X168990000Y-110288000D02*
X162990000Y-110288000D01*
X162990000Y-110288000D02*
X162990000Y-112688000D01*
X162990000Y-112688000D02*
X168990000Y-112688000D01*
X168990000Y-112688000D02*
X168990000Y-110288000D01*
X163548400Y-112688000D02*
X162990000Y-112688000D01*
X162990000Y-110288000D01*
X163548400Y-110288000D01*
X163548400Y-112688000D01*
G36*
X163548400Y-112688000D02*
G01*
X162990000Y-112688000D01*
X162990000Y-110288000D01*
X163548400Y-110288000D01*
X163548400Y-112688000D01*
G37*
D10*
X122813328Y-85762394D02*
X122813328Y-88412394D01*
X123813328Y-89412394D02*
X126413328Y-89412394D01*
X128838328Y-82562394D02*
X131388328Y-82562394D01*
X132413328Y-83587394D02*
X131388328Y-82562394D01*
X132413328Y-83587394D02*
X132413328Y-86187394D01*
X122813328Y-88412394D02*
G75*
G03*
X123813328Y-89412394I999999J-1D01*
G01*
D11*
X168990000Y-93287600D02*
X162990000Y-93287600D01*
X162990000Y-93287600D02*
X162990000Y-95687600D01*
X162990000Y-95687600D02*
X168990000Y-95687600D01*
X168990000Y-95687600D02*
X168990000Y-93287600D01*
X163548400Y-95687600D02*
X162990000Y-95687600D01*
X162990000Y-93287600D01*
X163548400Y-93287600D01*
X163548400Y-95687600D01*
G36*
X163548400Y-95687600D02*
G01*
X162990000Y-95687600D01*
X162990000Y-93287600D01*
X163548400Y-93287600D01*
X163548400Y-95687600D01*
G37*
D10*
X185576432Y-140065468D02*
X186036599Y-137455727D01*
X185225440Y-136297271D02*
X182664939Y-135845786D01*
X179087291Y-142170622D02*
X176576031Y-141727819D01*
X175744592Y-140540402D02*
X176576031Y-141727819D01*
X175744592Y-140540402D02*
X176196078Y-137979902D01*
X186036600Y-137455727D02*
G75*
G03*
X185225440Y-136297271I-984807J173649D01*
G01*
X104813128Y-70886104D02*
X104813128Y-73536104D01*
X105813128Y-74536104D02*
X108413128Y-74536104D01*
X110838128Y-67686104D02*
X113388128Y-67686104D01*
X114413128Y-68711104D02*
X113388128Y-67686104D01*
X114413128Y-68711104D02*
X114413128Y-71311104D01*
X104813128Y-73536104D02*
G75*
G03*
X105813128Y-74536104I999999J-1D01*
G01*
X102453233Y-89215500D02*
X102684196Y-91855416D01*
X103767546Y-92764454D02*
X106357652Y-92537850D01*
X108176408Y-85502563D02*
X110716704Y-85280316D01*
X111827138Y-86212081D02*
X110716704Y-85280316D01*
X111827138Y-86212081D02*
X112053743Y-88802187D01*
X102684197Y-91855416D02*
G75*
G03*
X103767546Y-92764454I996193J87155D01*
G01*
D11*
X132890000Y-111287400D02*
X126890000Y-111287400D01*
X126890000Y-111287400D02*
X126890000Y-113687400D01*
X126890000Y-113687400D02*
X132890000Y-113687400D01*
X132890000Y-113687400D02*
X132890000Y-111287400D01*
X127448400Y-113687400D02*
X126890000Y-113687400D01*
X126890000Y-111287400D01*
X127448400Y-111287400D01*
X127448400Y-113687400D01*
G36*
X127448400Y-113687400D02*
G01*
X126890000Y-113687400D01*
X126890000Y-111287400D01*
X127448400Y-111287400D01*
X127448400Y-113687400D01*
G37*
X168990000Y-76287640D02*
X162990000Y-76287640D01*
X162990000Y-76287640D02*
X162990000Y-78687640D01*
X162990000Y-78687640D02*
X168990000Y-78687640D01*
X168990000Y-78687640D02*
X168990000Y-76287640D01*
X163548400Y-78687640D02*
X162990000Y-78687640D01*
X162990000Y-76287640D01*
X163548400Y-76287640D01*
X163548400Y-78687640D01*
G36*
X163548400Y-78687640D02*
G01*
X162990000Y-78687640D01*
X162990000Y-76287640D01*
X163548400Y-76287640D01*
X163548400Y-78687640D01*
G37*
X186913000Y-95043586D02*
X180913000Y-95043586D01*
X180913000Y-95043586D02*
X180913000Y-97443586D01*
X180913000Y-97443586D02*
X186913000Y-97443586D01*
X186913000Y-97443586D02*
X186913000Y-95043586D01*
X181471400Y-97443586D02*
X180913000Y-97443586D01*
X180913000Y-95043586D01*
X181471400Y-95043586D01*
X181471400Y-97443586D01*
G36*
X181471400Y-97443586D02*
G01*
X180913000Y-97443586D01*
X180913000Y-95043586D01*
X181471400Y-95043586D01*
X181471400Y-97443586D01*
G37*
X150913102Y-72977440D02*
X144913102Y-72977440D01*
X144913102Y-72977440D02*
X144913102Y-75377440D01*
X144913102Y-75377440D02*
X150913102Y-75377440D01*
X150913102Y-75377440D02*
X150913102Y-72977440D01*
X145471502Y-75377440D02*
X144913102Y-75377440D01*
X144913102Y-72977440D01*
X145471502Y-72977440D01*
X145471502Y-75377440D01*
G36*
X145471502Y-75377440D02*
G01*
X144913102Y-75377440D01*
X144913102Y-72977440D01*
X145471502Y-72977440D01*
X145471502Y-75377440D01*
G37*
X186913000Y-112087000D02*
X180913000Y-112087000D01*
X180913000Y-112087000D02*
X180913000Y-114487000D01*
X180913000Y-114487000D02*
X186913000Y-114487000D01*
X186913000Y-114487000D02*
X186913000Y-112087000D01*
X181471400Y-114487000D02*
X180913000Y-114487000D01*
X180913000Y-112087000D01*
X181471400Y-112087000D01*
X181471400Y-114487000D01*
G36*
X181471400Y-114487000D02*
G01*
X180913000Y-114487000D01*
X180913000Y-112087000D01*
X181471400Y-112087000D01*
X181471400Y-114487000D01*
G37*
D10*
X203337396Y-146132777D02*
X204243749Y-143642592D01*
X203646077Y-142360879D02*
X201202876Y-141471627D01*
X196581283Y-147079122D02*
X194185067Y-146206971D01*
X193572453Y-144893216D02*
X194185067Y-146206971D01*
X193572453Y-144893216D02*
X194461705Y-142450015D01*
X204243749Y-143642592D02*
G75*
G03*
X203646077Y-142360879I-939691J342021D01*
G01*
X112290879Y-138813652D02*
X113287074Y-138726496D01*
X112290879Y-138813652D02*
X112203723Y-137817457D01*
X132053589Y-137084639D02*
X133099593Y-136993125D01*
X133099593Y-136993125D02*
X133012437Y-135996931D01*
X110739507Y-121081386D02*
X110822305Y-122027771D01*
X110739507Y-121081386D02*
X111735702Y-120994231D01*
X130552026Y-119348015D02*
X131548221Y-119260860D01*
X131548221Y-119260860D02*
X131636248Y-120267016D01*
D11*
X186913000Y-78087200D02*
X180913000Y-78087200D01*
X180913000Y-78087200D02*
X180913000Y-80487200D01*
X180913000Y-80487200D02*
X186913000Y-80487200D01*
X186913000Y-80487200D02*
X186913000Y-78087200D01*
X181471400Y-80487200D02*
X180913000Y-80487200D01*
X180913000Y-78087200D01*
X181471400Y-78087200D01*
X181471400Y-80487200D01*
G36*
X181471400Y-80487200D02*
G01*
X180913000Y-80487200D01*
X180913000Y-78087200D01*
X181471400Y-78087200D01*
X181471400Y-80487200D01*
G37*
D10*
X140812728Y-98452194D02*
X140812728Y-101102194D01*
X141812728Y-102102194D02*
X144412728Y-102102194D01*
X146837728Y-95252194D02*
X149387728Y-95252194D01*
X150412728Y-96277194D02*
X149387728Y-95252194D01*
X150412728Y-96277194D02*
X150412728Y-98877194D01*
X140812728Y-101102194D02*
G75*
G03*
X141812728Y-102102194I999999J-1D01*
G01*
D11*
X202826176Y-134301017D02*
X197188020Y-132248896D01*
X197188020Y-132248896D02*
X196367171Y-134504159D01*
X196367171Y-134504159D02*
X202005327Y-136556280D01*
X202005327Y-136556280D02*
X202826176Y-134301017D01*
X197712744Y-132439880D02*
X196891896Y-134695143D01*
X196367171Y-134504159D01*
X197188020Y-132248896D01*
X197712744Y-132439880D01*
G36*
X197712744Y-132439880D02*
G01*
X196891896Y-134695143D01*
X196367171Y-134504159D01*
X197188020Y-132248896D01*
X197712744Y-132439880D01*
G37*
D10*
X158812928Y-67762234D02*
X158812928Y-70412234D01*
X159812928Y-71412234D02*
X162412928Y-71412234D01*
X164837928Y-64562234D02*
X167387928Y-64562234D01*
X168412928Y-65587234D02*
X167387928Y-64562234D01*
X168412928Y-65587234D02*
X168412928Y-68187234D01*
X158812928Y-70412234D02*
G75*
G03*
X159812928Y-71412234I999999J-1D01*
G01*
X122813328Y-68762794D02*
X122813328Y-71412794D01*
X123813328Y-72412794D02*
X126413328Y-72412794D01*
X128838328Y-65562794D02*
X131388328Y-65562794D01*
X132413328Y-66587794D02*
X131388328Y-65562794D01*
X132413328Y-66587794D02*
X132413328Y-69187794D01*
X122813328Y-71412794D02*
G75*
G03*
X123813328Y-72412794I999999J-1D01*
G01*
X176812626Y-69561794D02*
X176812626Y-72211794D01*
X177812626Y-73211794D02*
X180412626Y-73211794D01*
X182837626Y-66361794D02*
X185387626Y-66361794D01*
X186412626Y-67386794D02*
X185387626Y-66361794D01*
X186412626Y-67386794D02*
X186412626Y-69986794D01*
X176812626Y-72211794D02*
G75*
G03*
X177812626Y-73211794I999999J-1D01*
G01*
D11*
X183027255Y-128475322D02*
X177118407Y-127433433D01*
X177118407Y-127433433D02*
X176701651Y-129796971D01*
X176701651Y-129796971D02*
X182610499Y-130838860D01*
X182610499Y-130838860D02*
X183027255Y-128475322D01*
X177668324Y-127530398D02*
X177251568Y-129893936D01*
X176701651Y-129796971D01*
X177118407Y-127433433D01*
X177668324Y-127530398D01*
G36*
X177668324Y-127530398D02*
G01*
X177251568Y-129893936D01*
X176701651Y-129796971D01*
X177118407Y-127433433D01*
X177668324Y-127530398D01*
G37*
X109400511Y-116633821D02*
X115377679Y-116110886D01*
X115377679Y-116110886D02*
X115168505Y-113720019D01*
X115168505Y-113720019D02*
X109191337Y-114242953D01*
X109191337Y-114242953D02*
X109400511Y-116633821D01*
X115377679Y-116110886D02*
X114821404Y-116159554D01*
X114612230Y-113768687D01*
X115168505Y-113720019D01*
X115377679Y-116110886D01*
G36*
X115377679Y-116110886D02*
G01*
X114821404Y-116159554D01*
X114612230Y-113768687D01*
X115168505Y-113720019D01*
X115377679Y-116110886D01*
G37*
X132890000Y-94287800D02*
X126890000Y-94287800D01*
X126890000Y-94287800D02*
X126890000Y-96687800D01*
X126890000Y-96687800D02*
X132890000Y-96687800D01*
X132890000Y-96687800D02*
X132890000Y-94287800D01*
X127448400Y-96687800D02*
X126890000Y-96687800D01*
X126890000Y-94287800D01*
X127448400Y-94287800D01*
X127448400Y-96687800D01*
G36*
X127448400Y-96687800D02*
G01*
X126890000Y-96687800D01*
X126890000Y-94287800D01*
X127448400Y-94287800D01*
X127448400Y-96687800D01*
G37*
X107888711Y-99692021D02*
X113865879Y-99169086D01*
X113865879Y-99169086D02*
X113656705Y-96778219D01*
X113656705Y-96778219D02*
X107679537Y-97301153D01*
X107679537Y-97301153D02*
X107888711Y-99692021D01*
X113865879Y-99169086D02*
X113309604Y-99217754D01*
X113100430Y-96826887D01*
X113656705Y-96778219D01*
X113865879Y-99169086D01*
G36*
X113865879Y-99169086D02*
G01*
X113309604Y-99217754D01*
X113100430Y-96826887D01*
X113656705Y-96778219D01*
X113865879Y-99169086D01*
G37*
X132890000Y-77288200D02*
X126890000Y-77288200D01*
X126890000Y-77288200D02*
X126890000Y-79688200D01*
X126890000Y-79688200D02*
X132890000Y-79688200D01*
X132890000Y-79688200D02*
X132890000Y-77288200D01*
X127448400Y-79688200D02*
X126890000Y-79688200D01*
X126890000Y-77288200D01*
X127448400Y-77288200D01*
X127448400Y-79688200D01*
G36*
X127448400Y-79688200D02*
G01*
X126890000Y-79688200D01*
X126890000Y-77288200D01*
X127448400Y-77288200D01*
X127448400Y-79688200D01*
G37*
D10*
X158812928Y-101762594D02*
X158812928Y-104412594D01*
X159812928Y-105412594D02*
X162412928Y-105412594D01*
X164837928Y-98562594D02*
X167387928Y-98562594D01*
X168412928Y-99587594D02*
X167387928Y-98562594D01*
X168412928Y-99587594D02*
X168412928Y-102187594D01*
X158812928Y-104412594D02*
G75*
G03*
X159812928Y-105412594I999999J-1D01*
G01*
D11*
X150913102Y-106977600D02*
X144913102Y-106977600D01*
X144913102Y-106977600D02*
X144913102Y-109377600D01*
X144913102Y-109377600D02*
X150913102Y-109377600D01*
X150913102Y-109377600D02*
X150913102Y-106977600D01*
X145471502Y-109377600D02*
X144913102Y-109377600D01*
X144913102Y-106977600D01*
X145471502Y-106977600D01*
X145471502Y-109377600D01*
G36*
X145471502Y-109377600D02*
G01*
X144913102Y-109377600D01*
X144913102Y-106977600D01*
X145471502Y-106977600D01*
X145471502Y-109377600D01*
G37*
X109240000Y-81811510D02*
X115240000Y-81811510D01*
X115240000Y-81811510D02*
X115240000Y-79411510D01*
X115240000Y-79411510D02*
X109240000Y-79411510D01*
X109240000Y-79411510D02*
X109240000Y-81811510D01*
X115240000Y-81811510D02*
X114681600Y-81811510D01*
X114681600Y-79411510D01*
X115240000Y-79411510D01*
X115240000Y-81811510D01*
G36*
X115240000Y-81811510D02*
G01*
X114681600Y-81811510D01*
X114681600Y-79411510D01*
X115240000Y-79411510D01*
X115240000Y-81811510D01*
G37*
D10*
X195212728Y-113076364D02*
X192081018Y-124764066D01*
X195454210Y-113141069D02*
X195971848Y-111209217D01*
X201381032Y-112658604D02*
X195971848Y-111209217D01*
X200863394Y-114590455D02*
X201381032Y-112658604D01*
X201104876Y-114655160D02*
X195212728Y-113076364D01*
X201104876Y-114655160D02*
X197973165Y-126342863D01*
X197973165Y-126342863D02*
X192081018Y-124764066D01*
X176812626Y-103561594D02*
X176812626Y-106211594D01*
X177812626Y-107211594D02*
X180412626Y-107211594D01*
X182837626Y-100361594D02*
X185387626Y-100361594D01*
X186412626Y-101386594D02*
X185387626Y-100361594D01*
X186412626Y-101386594D02*
X186412626Y-103986594D01*
X176812626Y-106211594D02*
G75*
G03*
X177812626Y-107211594I999999J-1D01*
G01*
X158812928Y-84762194D02*
X158812928Y-87412194D01*
X159812928Y-88412194D02*
X162412928Y-88412194D01*
X164837928Y-81562194D02*
X167387928Y-81562194D01*
X168412928Y-82587194D02*
X167387928Y-81562194D01*
X168412928Y-82587194D02*
X168412928Y-85187194D01*
X158812928Y-87412194D02*
G75*
G03*
X159812928Y-88412194I999999J-1D01*
G01*
D11*
X150913102Y-89977400D02*
X144913102Y-89977400D01*
X144913102Y-89977400D02*
X144913102Y-92377400D01*
X144913102Y-92377400D02*
X150913102Y-92377400D01*
X150913102Y-92377400D02*
X150913102Y-89977400D01*
X145471502Y-92377400D02*
X144913102Y-92377400D01*
X144913102Y-89977400D01*
X145471502Y-89977400D01*
X145471502Y-92377400D01*
G36*
X145471502Y-92377400D02*
G01*
X144913102Y-92377400D01*
X144913102Y-89977400D01*
X145471502Y-89977400D01*
X145471502Y-92377400D01*
G37*
D10*
X176812626Y-86561594D02*
X176812626Y-89211594D01*
X177812626Y-90211594D02*
X180412626Y-90211594D01*
X182837626Y-83361594D02*
X185387626Y-83361594D01*
X186412626Y-84386594D02*
X185387626Y-83361594D01*
X186412626Y-84386594D02*
X186412626Y-86986594D01*
X176812626Y-89211594D02*
G75*
G03*
X177812626Y-90211594I999999J-1D01*
G01*
X140812728Y-64452034D02*
X140812728Y-67102034D01*
X141812728Y-68102034D02*
X144412728Y-68102034D01*
X146837728Y-61252034D02*
X149387728Y-61252034D01*
X150412728Y-62277034D02*
X149387728Y-61252034D01*
X150412728Y-62277034D02*
X150412728Y-64877034D01*
X140812728Y-67102034D02*
G75*
G03*
X141812728Y-68102034I999999J-1D01*
G01*
X140812728Y-81451994D02*
X140812728Y-84101994D01*
X141812728Y-85101994D02*
X144412728Y-85101994D01*
X146837728Y-78251994D02*
X149387728Y-78251994D01*
X150412728Y-79276994D02*
X149387728Y-78251994D01*
X150412728Y-79276994D02*
X150412728Y-81876994D01*
X140812728Y-84101994D02*
G75*
G03*
X141812728Y-85101994I999999J-1D01*
G01*
X103966979Y-106143199D02*
X104197942Y-108783115D01*
X105281292Y-109692153D02*
X107871398Y-109465549D01*
X109690154Y-102430262D02*
X112230450Y-102208015D01*
X113340884Y-103139780D02*
X112230450Y-102208015D01*
X113340884Y-103139780D02*
X113567489Y-105729886D01*
X104197943Y-108783115D02*
G75*
G03*
X105281292Y-109692153I996193J87155D01*
G01*
%LPC*%
D12*
X115311113Y-135836693D02*
X114298979Y-135925243D01*
X114210429Y-134913109D01*
X115222563Y-134824559D01*
X115311113Y-135836693D01*
G36*
X115311113Y-135836693D02*
G01*
X114298979Y-135925243D01*
X114210429Y-134913109D01*
X115222563Y-134824559D01*
X115311113Y-135836693D01*
G37*
X117841447Y-135615317D02*
X116829314Y-135703868D01*
X116740763Y-134691734D01*
X117752897Y-134603184D01*
X117841447Y-135615317D01*
G36*
X117841447Y-135615317D02*
G01*
X116829314Y-135703868D01*
X116740763Y-134691734D01*
X117752897Y-134603184D01*
X117841447Y-135615317D01*
G37*
X120371782Y-135393942D02*
X119359648Y-135482492D01*
X119271098Y-134470358D01*
X120283232Y-134381808D01*
X120371782Y-135393942D01*
G36*
X120371782Y-135393942D02*
G01*
X119359648Y-135482492D01*
X119271098Y-134470358D01*
X120283232Y-134381808D01*
X120371782Y-135393942D01*
G37*
X122902116Y-135172566D02*
X121889983Y-135261116D01*
X121801432Y-134248983D01*
X122813566Y-134160432D01*
X122902116Y-135172566D01*
G36*
X122902116Y-135172566D02*
G01*
X121889983Y-135261116D01*
X121801432Y-134248983D01*
X122813566Y-134160432D01*
X122902116Y-135172566D01*
G37*
X125432451Y-134951191D02*
X124420317Y-135039741D01*
X124331767Y-134027607D01*
X125343901Y-133939057D01*
X125432451Y-134951191D01*
G36*
X125432451Y-134951191D02*
G01*
X124420317Y-135039741D01*
X124331767Y-134027607D01*
X125343901Y-133939057D01*
X125432451Y-134951191D01*
G37*
X127962786Y-134729815D02*
X126950652Y-134818365D01*
X126862102Y-133806231D01*
X127874235Y-133717681D01*
X127962786Y-134729815D01*
G36*
X127962786Y-134729815D02*
G01*
X126950652Y-134818365D01*
X126862102Y-133806231D01*
X127874235Y-133717681D01*
X127962786Y-134729815D01*
G37*
X130493120Y-134508439D02*
X129480986Y-134596990D01*
X129392436Y-133584856D01*
X130404570Y-133496306D01*
X130493120Y-134508439D01*
G36*
X130493120Y-134508439D02*
G01*
X129480986Y-134596990D01*
X129392436Y-133584856D01*
X130404570Y-133496306D01*
X130493120Y-134508439D01*
G37*
X114319350Y-124500794D02*
X113307216Y-124589345D01*
X113218666Y-123577211D01*
X114230800Y-123488660D01*
X114319350Y-124500794D01*
G36*
X114319350Y-124500794D02*
G01*
X113307216Y-124589345D01*
X113218666Y-123577211D01*
X114230800Y-123488660D01*
X114319350Y-124500794D01*
G37*
X116849685Y-124279419D02*
X115837551Y-124367969D01*
X115749001Y-123355835D01*
X116761135Y-123267285D01*
X116849685Y-124279419D01*
G36*
X116849685Y-124279419D02*
G01*
X115837551Y-124367969D01*
X115749001Y-123355835D01*
X116761135Y-123267285D01*
X116849685Y-124279419D01*
G37*
X119380019Y-124058043D02*
X118367886Y-124146593D01*
X118279335Y-123134460D01*
X119291469Y-123045909D01*
X119380019Y-124058043D01*
G36*
X119380019Y-124058043D02*
G01*
X118367886Y-124146593D01*
X118279335Y-123134460D01*
X119291469Y-123045909D01*
X119380019Y-124058043D01*
G37*
X121910354Y-123836668D02*
X120898220Y-123925218D01*
X120809670Y-122913084D01*
X121821804Y-122824534D01*
X121910354Y-123836668D01*
G36*
X121910354Y-123836668D02*
G01*
X120898220Y-123925218D01*
X120809670Y-122913084D01*
X121821804Y-122824534D01*
X121910354Y-123836668D01*
G37*
X124440688Y-123615292D02*
X123428555Y-123703842D01*
X123340004Y-122691708D01*
X124352138Y-122603158D01*
X124440688Y-123615292D01*
G36*
X124440688Y-123615292D02*
G01*
X123428555Y-123703842D01*
X123340004Y-122691708D01*
X124352138Y-122603158D01*
X124440688Y-123615292D01*
G37*
X126971023Y-123393916D02*
X125958889Y-123482467D01*
X125870339Y-122470333D01*
X126882473Y-122381783D01*
X126971023Y-123393916D01*
G36*
X126971023Y-123393916D02*
G01*
X125958889Y-123482467D01*
X125870339Y-122470333D01*
X126882473Y-122381783D01*
X126971023Y-123393916D01*
G37*
X129501357Y-123172541D02*
X128489224Y-123261091D01*
X128400673Y-122248957D01*
X129412807Y-122160407D01*
X129501357Y-123172541D01*
G36*
X129501357Y-123172541D02*
G01*
X128489224Y-123261091D01*
X128400673Y-122248957D01*
X129412807Y-122160407D01*
X129501357Y-123172541D01*
G37*
D13*
X124613328Y-107786994D03*
D14*
X125113328Y-104086994D03*
X130113328Y-101886994D03*
D15*
X130113328Y-107786994D03*
D14*
X135113328Y-104086994D03*
D13*
X135613328Y-107786994D03*
D16*
X122213328Y-104086994D03*
X132913328Y-101886994D03*
D17*
X164490000Y-111488000D03*
X167890000Y-111488000D03*
D13*
X124613328Y-90787394D03*
D14*
X125113328Y-87087394D03*
X130113328Y-84887394D03*
D15*
X130113328Y-90787394D03*
D14*
X135113328Y-87087394D03*
D13*
X135613328Y-90787394D03*
D16*
X122213328Y-87087394D03*
X132913328Y-84887394D03*
D18*
X178421800Y-63833186D03*
D17*
X164490000Y-94487600D03*
X167890000Y-94487600D03*
D13*
X184676360Y-134804242D03*
D14*
X183541458Y-138361207D03*
X178235393Y-139659543D03*
D15*
X179259917Y-133849177D03*
D14*
X173693380Y-136624725D03*
D13*
X173843474Y-132894112D03*
D19*
X186397400Y-138864786D03*
X175477931Y-139173328D03*
D13*
X106613128Y-75911104D03*
D14*
X107113128Y-72211104D03*
X112113128Y-70011104D03*
D15*
X112113128Y-75911104D03*
D14*
X117113128Y-72211104D03*
D13*
X117613128Y-75911104D03*
D16*
X104213128Y-72211104D03*
X114913128Y-70011104D03*
D13*
X104684341Y-94064498D03*
D14*
X104859962Y-90334999D03*
X109649193Y-87707592D03*
D15*
X110163412Y-93585141D03*
D14*
X114821909Y-89463442D03*
D13*
X115642483Y-93105784D03*
D20*
X101970998Y-90587751D03*
X112438538Y-87463556D03*
D17*
X128390000Y-112487400D03*
X131790000Y-112487400D03*
X164490000Y-77487640D03*
X167890000Y-77487640D03*
D18*
X173595800Y-117731986D03*
D17*
X182413000Y-96243586D03*
X185813000Y-96243586D03*
X146413102Y-74177440D03*
X149813102Y-74177440D03*
X182413000Y-113287000D03*
X185813000Y-113287000D03*
D18*
X136664200Y-133479986D03*
D13*
X203364600Y-140795186D03*
D14*
X201629280Y-144101038D03*
X196178372Y-144458261D03*
D15*
X198196291Y-138914075D03*
D14*
X192232353Y-140680837D03*
D13*
X193027982Y-137032964D03*
D21*
X204354388Y-145092897D03*
X193547233Y-143500605D03*
D22*
X114923682Y-137236988D03*
X117454017Y-137015613D03*
X119984351Y-136794237D03*
X122514686Y-136572862D03*
X125045021Y-136351486D03*
X127575355Y-136130110D03*
X130105690Y-135908735D03*
D23*
X114782908Y-135627935D03*
X117313243Y-135406559D03*
X119843577Y-135185183D03*
X122373912Y-134963808D03*
X124904247Y-134742432D03*
X127434581Y-134521057D03*
X129964916Y-134299681D03*
D24*
X113746871Y-123785969D03*
X116277205Y-123564593D03*
X118807540Y-123343218D03*
X121337874Y-123121842D03*
X123868209Y-122900467D03*
X126398543Y-122679091D03*
X128928878Y-122457716D03*
D22*
X113607404Y-122191858D03*
X116137739Y-121970483D03*
X118668073Y-121749107D03*
X121198408Y-121527732D03*
X123728742Y-121306356D03*
X126259077Y-121084980D03*
X128789411Y-120863605D03*
D25*
X113835421Y-124798103D03*
X116365755Y-124576727D03*
X118896090Y-124355352D03*
X121426425Y-124133976D03*
X123956759Y-123912601D03*
X126487094Y-123691225D03*
X129017428Y-123469849D03*
D26*
X129876365Y-133287547D03*
X127346031Y-133508923D03*
X124815696Y-133730298D03*
X122285362Y-133951674D03*
X119755027Y-134173050D03*
X117224693Y-134394425D03*
X114694358Y-134615801D03*
D17*
X182413000Y-79287200D03*
X185813000Y-79287200D03*
D13*
X142612728Y-103477194D03*
D14*
X143112728Y-99777194D03*
X148112728Y-97577194D03*
D15*
X148112728Y-103477194D03*
D14*
X153112728Y-99777194D03*
D13*
X153612728Y-103477194D03*
D16*
X140212728Y-99777194D03*
X150912728Y-97577194D03*
D18*
X190156600Y-131143186D03*
D27*
X198187135Y-133889558D03*
X201382089Y-135052426D03*
D13*
X160612928Y-72787234D03*
D14*
X161112928Y-69087234D03*
X166112928Y-66887234D03*
D15*
X166112928Y-72787234D03*
D14*
X171112928Y-69087234D03*
D13*
X171612928Y-72787234D03*
D16*
X158212928Y-69087234D03*
X168912928Y-66887234D03*
D13*
X124613328Y-73787794D03*
D14*
X125113328Y-70087794D03*
X130113328Y-67887794D03*
D15*
X130113328Y-73787794D03*
D14*
X135113328Y-70087794D03*
D13*
X135613328Y-73787794D03*
D16*
X122213328Y-70087794D03*
X132913328Y-67887794D03*
D13*
X178612626Y-74586794D03*
D14*
X179112626Y-70886794D03*
X184112626Y-68686794D03*
D15*
X184112626Y-74586794D03*
D14*
X189112626Y-70886794D03*
D13*
X189612626Y-74586794D03*
D16*
X176212626Y-70886794D03*
X186912626Y-68686794D03*
D28*
X178387241Y-128875674D03*
X181735587Y-129466078D03*
D29*
X113778800Y-115046186D03*
X110391738Y-115342516D03*
D17*
X128390000Y-95487800D03*
X131790000Y-95487800D03*
D29*
X112267000Y-98104386D03*
X108879938Y-98400716D03*
D17*
X128390000Y-78488200D03*
X131790000Y-78488200D03*
D13*
X160612928Y-106787594D03*
D14*
X161112928Y-103087594D03*
X166112928Y-100887594D03*
D15*
X166112928Y-106787594D03*
D14*
X171112928Y-103087594D03*
D13*
X171612928Y-106787594D03*
D16*
X158212928Y-103087594D03*
X168912928Y-100887594D03*
D17*
X146413102Y-108177600D03*
X149813102Y-108177600D03*
D30*
X113740000Y-80611510D03*
X110340000Y-80611510D03*
D18*
X122237000Y-117731986D03*
D31*
X197744692Y-115411243D03*
X195932958Y-122172724D03*
D32*
X193263064Y-123134476D03*
D33*
X197740477Y-124313489D03*
D32*
X194298340Y-119270772D03*
D33*
X198775753Y-120449786D03*
D32*
X195074797Y-116372995D03*
D33*
X199552210Y-117552008D03*
X193012517Y-124185440D03*
D32*
X197421622Y-125387562D03*
D13*
X178612626Y-108586594D03*
D14*
X179112626Y-104886594D03*
X184112626Y-102686594D03*
D15*
X184112626Y-108586594D03*
D14*
X189112626Y-104886594D03*
D13*
X189612626Y-108586594D03*
D16*
X176212626Y-104886594D03*
X186912626Y-102686594D03*
D13*
X160612928Y-89787194D03*
D14*
X161112928Y-86087194D03*
X166112928Y-83887194D03*
D15*
X166112928Y-89787194D03*
D14*
X171112928Y-86087194D03*
D13*
X171612928Y-89787194D03*
D16*
X158212928Y-86087194D03*
X168912928Y-83887194D03*
D17*
X146413102Y-91177400D03*
X149813102Y-91177400D03*
D13*
X178612626Y-91586594D03*
D14*
X179112626Y-87886594D03*
X184112626Y-85686594D03*
D15*
X184112626Y-91586594D03*
D14*
X189112626Y-87886594D03*
D13*
X189612626Y-91586594D03*
D16*
X176212626Y-87886594D03*
X186912626Y-85686594D03*
D34*
X149029600Y-129593238D03*
D13*
X142612728Y-69477034D03*
D14*
X143112728Y-65777034D03*
X148112728Y-63577034D03*
D15*
X148112728Y-69477034D03*
D14*
X153112728Y-65777034D03*
D13*
X153612728Y-69477034D03*
D16*
X140212728Y-65777034D03*
X150912728Y-63577034D03*
D18*
X119417600Y-64839600D03*
D13*
X142612728Y-86476994D03*
D14*
X143112728Y-82776994D03*
X148112728Y-80576994D03*
D15*
X148112728Y-86476994D03*
D14*
X153112728Y-82776994D03*
D13*
X153612728Y-86476994D03*
D16*
X140212728Y-82776994D03*
X150912728Y-80576994D03*
D13*
X106198087Y-110992197D03*
D14*
X106373708Y-107262698D03*
X111162939Y-104635291D03*
D15*
X111677158Y-110512840D03*
D14*
X116335655Y-106391141D03*
D13*
X117156229Y-110033483D03*
D20*
X103484744Y-107515450D03*
X113952284Y-104391255D03*
D31*
X117216300Y-131752786D03*
D35*
X128390000Y-78488200D03*
X113740000Y-80611510D03*
X146413102Y-74177440D03*
X164490000Y-77487640D03*
X121432700Y-132591772D03*
X182413000Y-79287200D03*
X146413102Y-91177400D03*
X112267000Y-98104386D03*
X118896090Y-132794972D03*
X128390000Y-95487800D03*
X164490000Y-94487600D03*
X182413000Y-96243586D03*
X116365755Y-133035917D03*
X128390000Y-112487400D03*
X113778800Y-115046186D03*
X146413102Y-108177600D03*
X182413000Y-113287000D03*
X164490000Y-111488000D03*
X127325500Y-126990472D03*
X178387241Y-128875674D03*
X198187135Y-133889558D03*
X127325500Y-124819372D03*
X119913128Y-72211104D03*
X110340000Y-80611510D03*
X131790000Y-78488200D03*
X137913328Y-70087794D03*
X155912728Y-65777034D03*
X149813102Y-74177440D03*
X173912928Y-69087234D03*
X167890000Y-77487640D03*
X185813000Y-79287200D03*
X191912626Y-70886794D03*
X117611254Y-89219406D03*
X108879938Y-98400716D03*
D31*
X117216300Y-125784572D03*
X117614200Y-115395186D03*
X114007400Y-84254786D03*
X124777000Y-99088386D03*
X117004600Y-99189986D03*
X109283000Y-108079986D03*
X107098600Y-95583186D03*
D35*
X108373594Y-104879327D03*
X113835421Y-133353772D03*
X106859848Y-87951628D03*
X109313128Y-70011104D03*
X127313328Y-67887794D03*
X127313328Y-101886994D03*
X127313328Y-84887394D03*
X123956759Y-132439372D03*
X126512700Y-132236172D03*
X145312728Y-63577034D03*
X145312728Y-80576994D03*
X145312728Y-97577194D03*
X163312928Y-100887594D03*
X163312928Y-83887194D03*
X158212928Y-113420386D03*
X180992854Y-140145758D03*
X122285362Y-125276572D03*
X163312928Y-66887234D03*
X131790000Y-95487800D03*
X137913328Y-87087394D03*
X149813102Y-91177400D03*
X155912728Y-82776994D03*
X173912928Y-86087194D03*
X167890000Y-94487600D03*
X129865500Y-124666972D03*
X185813000Y-96243586D03*
X191912626Y-87886594D03*
X119125000Y-106147105D03*
X110391738Y-115342516D03*
X131790000Y-112487400D03*
X137913328Y-104086994D03*
X155912728Y-99777194D03*
X149813102Y-108177600D03*
X173912928Y-103087594D03*
X167890000Y-111488000D03*
X191912626Y-104886594D03*
X185813000Y-113287000D03*
X181735587Y-129466077D03*
X170935918Y-136138510D03*
X193547233Y-143500605D03*
X201382090Y-135052426D03*
X129001900Y-131982172D03*
D31*
X114676300Y-125987772D03*
D35*
X124785500Y-125073372D03*
X181312626Y-68686794D03*
X181312626Y-102686594D03*
X174275944Y-114094886D03*
X181312626Y-85686594D03*
X198809511Y-145415918D03*
D31*
X119705500Y-125428972D03*
%LPD*%
M02*
