G04 #@! TF.GenerationSoftware,KiCad,Pcbnew,7.0.5*
G04 #@! TF.CreationDate,2023-06-14T10:23:52+08:00*
G04 #@! TF.ProjectId,AWKB-C,41574b42-2d43-42e6-9b69-6361645f7063,rev?*
G04 #@! TF.SameCoordinates,Original*
G04 #@! TF.FileFunction,Soldermask,Top*
G04 #@! TF.FilePolarity,Negative*
%FSLAX46Y46*%
G04 Gerber Fmt 4.6, Leading zero omitted, Abs format (unit mm)*
G04 Created by KiCad (PCBNEW 7.0.5) date 2023-06-14 10:23:52*
%MOMM*%
%LPD*%
G01*
G04 APERTURE LIST*
G04 Aperture macros list*
%AMRoundRect*
0 Rectangle with rounded corners*
0 $1 Rounding radius*
0 $2 $3 $4 $5 $6 $7 $8 $9 X,Y pos of 4 corners*
0 Add a 4 corners polygon primitive as box body*
4,1,4,$2,$3,$4,$5,$6,$7,$8,$9,$2,$3,0*
0 Add four circle primitives for the rounded corners*
1,1,$1+$1,$2,$3*
1,1,$1+$1,$4,$5*
1,1,$1+$1,$6,$7*
1,1,$1+$1,$8,$9*
0 Add four rect primitives between the rounded corners*
20,1,$1+$1,$2,$3,$4,$5,0*
20,1,$1+$1,$4,$5,$6,$7,0*
20,1,$1+$1,$6,$7,$8,$9,0*
20,1,$1+$1,$8,$9,$2,$3,0*%
%AMHorizOval*
0 Thick line with rounded ends*
0 $1 width*
0 $2 $3 position (X,Y) of the first rounded end (center of the circle)*
0 $4 $5 position (X,Y) of the second rounded end (center of the circle)*
0 Add line between two ends*
20,1,$1,$2,$3,$4,$5,0*
0 Add two circle primitives to create the rounded ends*
1,1,$1,$2,$3*
1,1,$1,$4,$5*%
%AMFreePoly0*
4,1,22,0.686777,0.580194,0.756366,0.524698,0.794986,0.444504,0.799999,0.400000,0.800000,0.200000,0.780194,0.113223,0.741421,0.058579,0.141421,-0.541421,0.066056,-0.588777,-0.022393,-0.598742,-0.106406,-0.569345,-0.141421,-0.541421,-0.741421,0.058579,-0.788777,0.133944,-0.800000,0.200000,-0.800000,0.400000,-0.780194,0.486777,-0.724698,0.556366,-0.644504,0.594986,-0.600000,0.600000,
0.600000,0.600000,0.686777,0.580194,0.686777,0.580194,$1*%
%AMFreePoly1*
4,1,26,0.706406,1.169345,0.769345,1.106406,0.798742,1.022393,0.800000,1.000000,0.800000,-0.250000,0.780194,-0.336777,0.724698,-0.406366,0.644504,-0.444986,0.600000,-0.450000,-0.600000,-0.450000,-0.686777,-0.430194,-0.756366,-0.374698,-0.794986,-0.294504,-0.800000,-0.250000,-0.800001,1.000000,-0.780194,1.086777,-0.724698,1.156366,-0.644504,1.194985,-0.555496,1.194986,-0.475302,1.156366,
-0.458579,1.141421,0.000000,0.682842,0.458579,1.141421,0.533944,1.188777,0.622393,1.198742,0.706406,1.169345,0.706406,1.169345,$1*%
%AMFreePoly2*
4,1,414,-2.663564,6.707050,-2.641221,6.706150,-2.627714,6.704682,-2.557310,6.692154,-2.496946,6.671026,-2.423852,6.631355,-2.413687,6.625023,-2.398814,6.614472,-2.158972,6.440888,-1.894926,6.250226,-1.604825,6.041150,-1.340970,5.851270,-1.340970,5.851269,-0.908659,5.540346,1.016000,5.540345,1.102777,5.520541,1.172366,5.465043,1.210986,5.384850,1.216000,5.340346,1.216000,4.009931,
1.299751,3.950054,1.397604,3.879440,1.472196,3.823385,1.475820,3.820528,1.531511,3.774507,1.538834,3.767818,1.574924,3.731412,1.599100,3.701843,1.617824,3.673864,1.642241,3.623128,1.650707,3.596451,1.659584,3.549979,1.661424,3.523819,1.657476,3.467890,1.643544,3.402871,1.621142,3.344696,1.575521,3.265763,1.570063,3.257327,1.474398,3.124598,1.474399,3.124598,
1.399655,3.020777,1.341070,2.939228,1.295956,2.876188,1.262955,2.829761,1.239581,2.796469,1.228629,2.780518,1.228382,2.778534,1.226098,2.749223,1.223899,2.705055,1.221971,2.645262,1.220353,2.568240,1.219044,2.472608,1.218021,2.356402,1.217250,2.217703,1.216700,2.054330,1.216701,2.054330,1.216336,1.864310,1.216122,1.646064,1.216022,1.397277,1.216000,1.156191,
1.216000,-0.508000,1.196194,-0.594777,1.140698,-0.664366,1.060504,-0.702986,1.016000,-0.708000,-1.300867,-0.708000,-1.317305,-0.721955,-1.374130,-0.762724,-1.456184,-0.797217,-1.462328,-0.798196,-1.521438,-0.806672,-1.610148,-0.799384,-1.618523,-0.796529,-1.683626,-0.772720,-1.726325,-0.750993,-1.765907,-0.724447,-1.770550,-0.721139,-1.786681,-0.708933,-4.832406,-0.708000,-4.919177,-0.688166,
-4.988750,-0.632650,-5.027344,-0.552444,-5.032345,-0.508064,-5.032395,-0.352086,-5.032421,-0.271829,-3.059387,-0.271830,-2.944889,-0.271615,-2.944888,-0.271615,-2.758679,-0.271042,-2.580739,-0.270256,-2.580738,-0.270256,-2.414939,-0.269261,-2.414940,-0.269261,-2.402157,-0.269159,-2.423194,-0.254061,-2.551428,-0.161856,-2.680405,-0.068976,-2.801942,0.018686,-2.907841,0.095225,-2.951636,0.126949,
-3.041522,0.192069,-3.054493,0.201448,-3.054493,-0.250384,-3.059387,-0.271830,-5.032421,-0.271829,-5.033035,1.627051,-5.116088,1.686225,-5.284226,1.806363,-5.425283,1.907915,-5.540186,1.991566,-5.630162,2.058240,-5.695871,2.108467,-5.698372,2.110442,-5.741778,2.145869,-5.747390,2.150809,-5.763238,2.165850,-5.804603,2.221793,-5.831146,2.275116,-5.852084,2.361626,-5.851576,2.378731,
-5.846892,2.443206,-5.827099,2.516549,-5.820642,2.529758,-5.788356,2.595805,-5.784989,2.601633,-4.580894,2.601633,-4.580837,2.458573,-4.580478,2.346570,-4.579555,2.262461,-4.577881,2.203736,-4.577285,2.194667,-4.548415,2.172831,-4.483289,2.124673,-4.404467,2.067194,-4.317291,2.004343,-4.304320,1.995049,-3.789717,1.626690,-3.693155,1.557418,-3.588658,1.482202,-3.493513,1.413516,
-3.493469,1.417579,-3.492215,1.570234,-3.491128,1.743282,-3.490225,1.934674,-3.489527,2.141404,-3.489052,2.361431,-3.488816,2.592405,-3.488794,2.690627,-3.488794,4.145613,-3.780439,4.145613,-3.797838,4.121466,-3.833847,4.071538,-3.884822,4.000919,-3.945645,3.916699,-4.011204,3.825953,-4.061105,3.756906,-4.138874,3.649180,-4.227667,3.525969,-4.318193,3.400180,-4.401743,3.283907,
-4.432523,3.241007,-4.580894,3.034101,-4.580894,2.601633,-5.784989,2.601633,-5.781445,2.607769,-5.775409,2.616730,-5.747746,2.656569,-5.702905,2.720059,-5.642947,2.804351,-5.569964,2.906530,-5.486213,3.023444,-5.393993,3.151881,-5.295612,3.288617,-5.193407,3.430389,-5.157803,3.479711,-5.032345,3.653438,-5.032345,4.562763,-3.478749,4.562763,-3.254493,4.562763,-3.167716,4.542957,
-3.098127,4.487461,-3.059507,4.407267,-3.054493,4.362825,-3.053482,1.095367,-2.755790,0.881825,-2.538863,0.726188,-2.348318,0.589414,-2.182662,0.470425,-2.040390,0.368136,-1.919993,0.281460,-1.830611,0.216986,-1.818379,1.744532,-1.390887,1.744532,-1.390887,0.872621,-1.390687,0.684777,-1.390113,0.507776,-1.389488,0.395984,-1.362208,0.434001,-1.282405,0.545014,-1.202983,0.655306,
-1.126858,0.760817,-1.056931,0.857505,-0.996121,0.941303,-0.964901,0.984151,-0.913707,1.054538,-0.851488,1.140514,-0.788030,1.228536,-0.750017,1.281458,-0.468879,1.673602,-0.418955,1.742967,-0.420240,1.742985,-0.587428,1.744095,-0.788602,1.744526,-0.788601,1.744526,-0.819150,1.744532,-1.390887,1.744532,-1.818379,1.744532,-1.816764,1.946135,-1.816608,1.965721,-1.796105,2.052336,
-1.740054,2.121479,-1.659553,2.159454,-1.617377,2.164117,-0.111097,2.169868,0.138817,2.516086,0.227450,2.638853,0.320064,2.767098,0.411852,2.894166,0.498011,3.013410,0.573742,3.118189,0.634535,3.202258,0.779387,3.402484,0.778132,3.427196,0.736528,3.458396,0.663454,3.512361,0.580098,3.572686,0.503228,3.627241,0.499236,3.630032,0.490935,3.635826,-0.332040,3.040808,
-0.491563,2.925814,-0.643339,2.817068,-0.784955,2.716258,-0.914136,2.624974,-1.028637,2.544784,-1.126312,2.477194,-1.205320,2.423507,-1.263590,2.385237,-1.267202,2.382973,-1.300050,2.363349,-1.335772,2.346546,-1.341637,2.344468,-1.430043,2.334129,-1.514180,2.363173,-1.549349,2.390986,-1.568831,2.410314,-1.575615,2.417759,-1.612287,2.462315,-1.614024,2.464486,-1.661873,2.526034,
-1.719812,2.602912,-1.784355,2.690558,-1.813064,2.730129,-1.897224,2.846653,-1.992502,2.978597,-2.090826,3.114777,-2.184002,3.243845,-2.251013,3.336686,-2.319043,3.430882,-2.402203,3.545922,-2.402202,3.545922,-2.495312,3.674648,-2.495313,3.674648,-2.593439,3.810237,-2.593438,3.810237,-2.691394,3.945522,-2.790634,4.082500,-2.879547,4.205244,-2.970969,4.331572,-3.060519,4.455420,
-3.143837,4.570758,-3.216578,4.671573,-3.274379,4.751822,-3.283113,4.763969,-3.308252,4.798680,-3.309485,4.796953,-3.367768,4.715859,-3.427376,4.633472,-3.478749,4.562763,-5.032345,4.562763,-5.032345,5.088893,-4.580894,5.088894,-4.580894,4.835834,-4.580509,4.692777,-4.579279,4.581848,-4.578828,4.564933,-4.530979,4.564588,-4.453634,4.565158,-4.384004,4.566788,-4.373602,4.567285,
-4.372294,4.568938,-4.320581,4.638596,-4.253334,4.732398,-4.221007,4.778279,-4.190391,4.821521,-4.144475,4.885859,-4.088149,4.964468,-4.026093,5.050817,-3.998998,5.088421,-4.071032,5.088758,-4.179382,5.088875,-2.969943,5.088875,-2.904744,4.998038,-2.807937,4.863599,-2.691454,4.702178,-2.555289,4.513770,-2.555289,4.513770,-2.399346,4.298241,-2.399346,4.298240,-2.223932,4.056015,
-2.191157,4.010778,-2.057824,3.826715,-1.942489,3.667405,-1.843008,3.529873,-1.757234,3.411137,-1.683021,3.308215,-1.618222,3.218130,-1.560700,3.137912,-1.508322,3.064603,-1.458972,2.995262,-1.414225,2.932165,-1.359497,2.855894,-1.355693,2.850744,-1.307082,2.885041,-1.205315,2.957385,-1.088324,3.041002,-0.958198,3.134408,-0.818136,3.235324,-0.818137,3.235325,-0.691009,3.327222,
-0.540362,3.436266,-0.395328,3.541212,-0.258867,3.639921,-0.133822,3.730337,-0.023033,3.810409,0.070663,3.878086,0.112494,3.908272,0.101072,3.916610,0.054852,3.950351,-0.046932,4.023566,-0.165523,4.108922,-0.291229,4.199442,-0.413710,4.287679,-0.507292,4.355131,-0.507291,4.355131,-0.608845,4.428321,-0.608843,4.428321,-0.729816,4.515456,-0.729816,4.515456,-0.861943,4.610589,
-0.996814,4.707660,-1.126055,4.800645,-1.193145,4.848896,-1.193144,4.848896,-1.526707,5.088757,-2.969943,5.088875,-4.179382,5.088875,-4.196977,5.088894,-4.580894,5.088894,-5.032345,5.088893,-5.032345,5.340346,-5.012538,5.427123,-4.957043,5.496712,-4.876849,5.535332,-4.832345,5.540346,-3.672979,5.540346,-3.671844,5.541921,-2.774877,5.541921,-2.654613,5.541104,-2.503084,5.540526,
-2.354041,5.540346,-2.192679,5.540502,-2.154401,5.540618,-2.179528,5.558770,-2.410073,5.725327,-2.472505,5.770435,-2.549554,5.824927,-2.563214,5.834142,-2.593747,5.792542,-2.653498,5.710414,-2.716249,5.623563,-2.774877,5.541921,-3.671844,5.541921,-3.451646,5.847456,-3.331591,6.014124,-3.229883,6.155310,-3.144709,6.273254,-3.074211,6.370242,-3.016438,6.448685,-2.969891,6.510352,
-2.968577,6.512055,-2.931280,6.559320,-2.928782,6.562361,-2.897756,6.598645,-2.892800,6.604029,-2.864383,6.632720,-2.854177,6.641712,-2.832303,6.658487,-2.792701,6.682153,-2.779068,6.688291,-2.724859,6.703967,-2.712337,6.705731,-2.677032,6.707549,-2.663564,6.707050,-2.663564,6.707050,$1*%
G04 Aperture macros list end*
%ADD10C,0.100000*%
%ADD11C,2.200000*%
%ADD12C,3.400000*%
%ADD13C,3.800000*%
%ADD14RoundRect,0.200000X-0.800000X-1.100000X0.800000X-1.100000X0.800000X1.100000X-0.800000X1.100000X0*%
%ADD15RoundRect,0.200000X-0.600000X-0.700000X0.600000X-0.700000X0.600000X0.700000X-0.600000X0.700000X0*%
%ADD16C,3.600000*%
%ADD17RoundRect,0.200000X0.978859X0.944370X-0.596833X1.222207X-0.978859X-0.944370X0.596833X-1.222207X0*%
%ADD18RoundRect,0.200000X-0.701084X-1.165539X0.892827X-1.026090X0.701084X1.165539X-0.892827X1.026090X0*%
%ADD19RoundRect,0.200000X1.127976X0.760046X-0.375532X1.307278X-1.127976X-0.760046X0.375532X-1.307278X0*%
%ADD20C,2.000000*%
%ADD21FreePoly0,185.000000*%
%ADD22FreePoly0,5.000000*%
%ADD23FreePoly1,5.000000*%
%ADD24FreePoly1,185.000000*%
%ADD25RoundRect,0.200000X-0.803230X-0.452573X0.324401X-0.862997X0.803230X0.452573X-0.324401X0.862997X0*%
%ADD26RoundRect,0.200000X-0.712438X-0.585177X0.469331X-0.793554X0.712438X0.585177X-0.469331X0.793554X0*%
%ADD27RoundRect,0.200000X0.536708X0.749630X-0.658726X0.645043X-0.536708X-0.749630X0.658726X-0.645043X0*%
%ADD28RoundRect,0.200000X0.600000X0.700000X-0.600000X0.700000X-0.600000X-0.700000X0.600000X-0.700000X0*%
%ADD29C,1.200000*%
%ADD30HorizOval,2.000000X0.051764X0.193185X-0.051764X-0.193185X0*%
%ADD31HorizOval,2.000000X-0.051764X-0.193185X0.051764X0.193185X0*%
%ADD32FreePoly2,35.000000*%
%ADD33C,1.100000*%
G04 APERTURE END LIST*
D10*
X115311113Y-135836693D02*
X114298979Y-135925243D01*
X114210429Y-134913109D01*
X115222563Y-134824559D01*
X115311113Y-135836693D01*
G36*
X115311113Y-135836693D02*
G01*
X114298979Y-135925243D01*
X114210429Y-134913109D01*
X115222563Y-134824559D01*
X115311113Y-135836693D01*
G37*
X117841447Y-135615317D02*
X116829314Y-135703868D01*
X116740763Y-134691734D01*
X117752897Y-134603184D01*
X117841447Y-135615317D01*
G36*
X117841447Y-135615317D02*
G01*
X116829314Y-135703868D01*
X116740763Y-134691734D01*
X117752897Y-134603184D01*
X117841447Y-135615317D01*
G37*
X120371782Y-135393942D02*
X119359648Y-135482492D01*
X119271098Y-134470358D01*
X120283232Y-134381808D01*
X120371782Y-135393942D01*
G36*
X120371782Y-135393942D02*
G01*
X119359648Y-135482492D01*
X119271098Y-134470358D01*
X120283232Y-134381808D01*
X120371782Y-135393942D01*
G37*
X122902116Y-135172566D02*
X121889983Y-135261116D01*
X121801432Y-134248983D01*
X122813566Y-134160432D01*
X122902116Y-135172566D01*
G36*
X122902116Y-135172566D02*
G01*
X121889983Y-135261116D01*
X121801432Y-134248983D01*
X122813566Y-134160432D01*
X122902116Y-135172566D01*
G37*
X125432451Y-134951191D02*
X124420317Y-135039741D01*
X124331767Y-134027607D01*
X125343901Y-133939057D01*
X125432451Y-134951191D01*
G36*
X125432451Y-134951191D02*
G01*
X124420317Y-135039741D01*
X124331767Y-134027607D01*
X125343901Y-133939057D01*
X125432451Y-134951191D01*
G37*
X127962786Y-134729815D02*
X126950652Y-134818365D01*
X126862102Y-133806231D01*
X127874235Y-133717681D01*
X127962786Y-134729815D01*
G36*
X127962786Y-134729815D02*
G01*
X126950652Y-134818365D01*
X126862102Y-133806231D01*
X127874235Y-133717681D01*
X127962786Y-134729815D01*
G37*
X130493120Y-134508439D02*
X129480986Y-134596990D01*
X129392436Y-133584856D01*
X130404570Y-133496306D01*
X130493120Y-134508439D01*
G36*
X130493120Y-134508439D02*
G01*
X129480986Y-134596990D01*
X129392436Y-133584856D01*
X130404570Y-133496306D01*
X130493120Y-134508439D01*
G37*
X114319350Y-124500794D02*
X113307216Y-124589345D01*
X113218666Y-123577211D01*
X114230800Y-123488660D01*
X114319350Y-124500794D01*
G36*
X114319350Y-124500794D02*
G01*
X113307216Y-124589345D01*
X113218666Y-123577211D01*
X114230800Y-123488660D01*
X114319350Y-124500794D01*
G37*
X116849685Y-124279419D02*
X115837551Y-124367969D01*
X115749001Y-123355835D01*
X116761135Y-123267285D01*
X116849685Y-124279419D01*
G36*
X116849685Y-124279419D02*
G01*
X115837551Y-124367969D01*
X115749001Y-123355835D01*
X116761135Y-123267285D01*
X116849685Y-124279419D01*
G37*
X119380019Y-124058043D02*
X118367886Y-124146593D01*
X118279335Y-123134460D01*
X119291469Y-123045909D01*
X119380019Y-124058043D01*
G36*
X119380019Y-124058043D02*
G01*
X118367886Y-124146593D01*
X118279335Y-123134460D01*
X119291469Y-123045909D01*
X119380019Y-124058043D01*
G37*
X121910354Y-123836668D02*
X120898220Y-123925218D01*
X120809670Y-122913084D01*
X121821804Y-122824534D01*
X121910354Y-123836668D01*
G36*
X121910354Y-123836668D02*
G01*
X120898220Y-123925218D01*
X120809670Y-122913084D01*
X121821804Y-122824534D01*
X121910354Y-123836668D01*
G37*
X124440688Y-123615292D02*
X123428555Y-123703842D01*
X123340004Y-122691708D01*
X124352138Y-122603158D01*
X124440688Y-123615292D01*
G36*
X124440688Y-123615292D02*
G01*
X123428555Y-123703842D01*
X123340004Y-122691708D01*
X124352138Y-122603158D01*
X124440688Y-123615292D01*
G37*
X126971023Y-123393916D02*
X125958889Y-123482467D01*
X125870339Y-122470333D01*
X126882473Y-122381783D01*
X126971023Y-123393916D01*
G36*
X126971023Y-123393916D02*
G01*
X125958889Y-123482467D01*
X125870339Y-122470333D01*
X126882473Y-122381783D01*
X126971023Y-123393916D01*
G37*
X129501357Y-123172541D02*
X128489224Y-123261091D01*
X128400673Y-122248957D01*
X129412807Y-122160407D01*
X129501357Y-123172541D01*
G36*
X129501357Y-123172541D02*
G01*
X128489224Y-123261091D01*
X128400673Y-122248957D01*
X129412807Y-122160407D01*
X129501357Y-123172541D01*
G37*
D11*
X124613328Y-107786994D03*
D12*
X125113328Y-104086994D03*
X130113328Y-101886994D03*
D13*
X130113328Y-107786994D03*
D12*
X135113328Y-104086994D03*
D11*
X135613328Y-107786994D03*
D14*
X122213328Y-104086994D03*
X132913328Y-101886994D03*
D15*
X164490000Y-111488000D03*
X167890000Y-111488000D03*
D11*
X124613328Y-90787394D03*
D12*
X125113328Y-87087394D03*
X130113328Y-84887394D03*
D13*
X130113328Y-90787394D03*
D12*
X135113328Y-87087394D03*
D11*
X135613328Y-90787394D03*
D14*
X122213328Y-87087394D03*
X132913328Y-84887394D03*
D16*
X178421800Y-63833186D03*
D15*
X164490000Y-94487600D03*
X167890000Y-94487600D03*
D11*
X184676360Y-134804242D03*
D12*
X183541458Y-138361207D03*
X178235393Y-139659543D03*
D13*
X179259917Y-133849177D03*
D12*
X173693380Y-136624725D03*
D11*
X173843474Y-132894112D03*
D17*
X186397400Y-138864786D03*
X175477931Y-139173328D03*
D11*
X106613128Y-75911104D03*
D12*
X107113128Y-72211104D03*
X112113128Y-70011104D03*
D13*
X112113128Y-75911104D03*
D12*
X117113128Y-72211104D03*
D11*
X117613128Y-75911104D03*
D14*
X104213128Y-72211104D03*
X114913128Y-70011104D03*
D11*
X104684341Y-94064498D03*
D12*
X104859962Y-90334999D03*
X109649193Y-87707592D03*
D13*
X110163412Y-93585141D03*
D12*
X114821909Y-89463442D03*
D11*
X115642483Y-93105784D03*
D18*
X101970998Y-90587751D03*
X112438538Y-87463556D03*
D15*
X128390000Y-112487400D03*
X131790000Y-112487400D03*
X164490000Y-77487640D03*
X167890000Y-77487640D03*
D16*
X173595800Y-117731986D03*
D15*
X182413000Y-96243586D03*
X185813000Y-96243586D03*
X146413102Y-74177440D03*
X149813102Y-74177440D03*
X182413000Y-113287000D03*
X185813000Y-113287000D03*
D16*
X136664200Y-133479986D03*
D11*
X203364600Y-140795186D03*
D12*
X201629280Y-144101038D03*
X196178372Y-144458261D03*
D13*
X198196291Y-138914075D03*
D12*
X192232353Y-140680837D03*
D11*
X193027982Y-137032964D03*
D19*
X204354388Y-145092897D03*
X193547233Y-143500605D03*
D20*
X114923682Y-137236988D03*
X117454017Y-137015613D03*
X119984351Y-136794237D03*
X122514686Y-136572862D03*
X125045021Y-136351486D03*
X127575355Y-136130110D03*
X130105690Y-135908735D03*
D21*
X114782908Y-135627935D03*
X117313243Y-135406559D03*
X119843577Y-135185183D03*
X122373912Y-134963808D03*
X124904247Y-134742432D03*
X127434581Y-134521057D03*
X129964916Y-134299681D03*
D22*
X113746871Y-123785969D03*
X116277205Y-123564593D03*
X118807540Y-123343218D03*
X121337874Y-123121842D03*
X123868209Y-122900467D03*
X126398543Y-122679091D03*
X128928878Y-122457716D03*
D20*
X113607404Y-122191858D03*
X116137739Y-121970483D03*
X118668073Y-121749107D03*
X121198408Y-121527732D03*
X123728742Y-121306356D03*
X126259077Y-121084980D03*
X128789411Y-120863605D03*
D23*
X113835421Y-124798103D03*
X116365755Y-124576727D03*
X118896090Y-124355352D03*
X121426425Y-124133976D03*
X123956759Y-123912601D03*
X126487094Y-123691225D03*
X129017428Y-123469849D03*
D24*
X129876365Y-133287547D03*
X127346031Y-133508923D03*
X124815696Y-133730298D03*
X122285362Y-133951674D03*
X119755027Y-134173050D03*
X117224693Y-134394425D03*
X114694358Y-134615801D03*
D15*
X182413000Y-79287200D03*
X185813000Y-79287200D03*
D11*
X142612728Y-103477194D03*
D12*
X143112728Y-99777194D03*
X148112728Y-97577194D03*
D13*
X148112728Y-103477194D03*
D12*
X153112728Y-99777194D03*
D11*
X153612728Y-103477194D03*
D14*
X140212728Y-99777194D03*
X150912728Y-97577194D03*
D16*
X190156600Y-131143186D03*
D25*
X198187135Y-133889558D03*
X201382089Y-135052426D03*
D11*
X160612928Y-72787234D03*
D12*
X161112928Y-69087234D03*
X166112928Y-66887234D03*
D13*
X166112928Y-72787234D03*
D12*
X171112928Y-69087234D03*
D11*
X171612928Y-72787234D03*
D14*
X158212928Y-69087234D03*
X168912928Y-66887234D03*
D11*
X124613328Y-73787794D03*
D12*
X125113328Y-70087794D03*
X130113328Y-67887794D03*
D13*
X130113328Y-73787794D03*
D12*
X135113328Y-70087794D03*
D11*
X135613328Y-73787794D03*
D14*
X122213328Y-70087794D03*
X132913328Y-67887794D03*
D11*
X178612626Y-74586794D03*
D12*
X179112626Y-70886794D03*
X184112626Y-68686794D03*
D13*
X184112626Y-74586794D03*
D12*
X189112626Y-70886794D03*
D11*
X189612626Y-74586794D03*
D14*
X176212626Y-70886794D03*
X186912626Y-68686794D03*
D26*
X178387241Y-128875674D03*
X181735587Y-129466078D03*
D27*
X113778800Y-115046186D03*
X110391738Y-115342516D03*
D15*
X128390000Y-95487800D03*
X131790000Y-95487800D03*
D27*
X112267000Y-98104386D03*
X108879938Y-98400716D03*
D15*
X128390000Y-78488200D03*
X131790000Y-78488200D03*
D11*
X160612928Y-106787594D03*
D12*
X161112928Y-103087594D03*
X166112928Y-100887594D03*
D13*
X166112928Y-106787594D03*
D12*
X171112928Y-103087594D03*
D11*
X171612928Y-106787594D03*
D14*
X158212928Y-103087594D03*
X168912928Y-100887594D03*
D15*
X146413102Y-108177600D03*
X149813102Y-108177600D03*
D28*
X113740000Y-80611510D03*
X110340000Y-80611510D03*
D16*
X122237000Y-117731986D03*
D29*
X197744692Y-115411243D03*
X195932958Y-122172724D03*
D30*
X193263064Y-123134476D03*
D31*
X197740477Y-124313489D03*
D30*
X194298340Y-119270772D03*
D31*
X198775753Y-120449786D03*
D30*
X195074797Y-116372995D03*
D31*
X199552210Y-117552008D03*
X193012517Y-124185440D03*
D30*
X197421622Y-125387562D03*
D11*
X178612626Y-108586594D03*
D12*
X179112626Y-104886594D03*
X184112626Y-102686594D03*
D13*
X184112626Y-108586594D03*
D12*
X189112626Y-104886594D03*
D11*
X189612626Y-108586594D03*
D14*
X176212626Y-104886594D03*
X186912626Y-102686594D03*
D11*
X160612928Y-89787194D03*
D12*
X161112928Y-86087194D03*
X166112928Y-83887194D03*
D13*
X166112928Y-89787194D03*
D12*
X171112928Y-86087194D03*
D11*
X171612928Y-89787194D03*
D14*
X158212928Y-86087194D03*
X168912928Y-83887194D03*
D15*
X146413102Y-91177400D03*
X149813102Y-91177400D03*
D11*
X178612626Y-91586594D03*
D12*
X179112626Y-87886594D03*
X184112626Y-85686594D03*
D13*
X184112626Y-91586594D03*
D12*
X189112626Y-87886594D03*
D11*
X189612626Y-91586594D03*
D14*
X176212626Y-87886594D03*
X186912626Y-85686594D03*
D32*
X149029600Y-129593238D03*
D11*
X142612728Y-69477034D03*
D12*
X143112728Y-65777034D03*
X148112728Y-63577034D03*
D13*
X148112728Y-69477034D03*
D12*
X153112728Y-65777034D03*
D11*
X153612728Y-69477034D03*
D14*
X140212728Y-65777034D03*
X150912728Y-63577034D03*
D16*
X119417600Y-64839600D03*
D11*
X142612728Y-86476994D03*
D12*
X143112728Y-82776994D03*
X148112728Y-80576994D03*
D13*
X148112728Y-86476994D03*
D12*
X153112728Y-82776994D03*
D11*
X153612728Y-86476994D03*
D14*
X140212728Y-82776994D03*
X150912728Y-80576994D03*
D11*
X106198087Y-110992197D03*
D12*
X106373708Y-107262698D03*
X111162939Y-104635291D03*
D13*
X111677158Y-110512840D03*
D12*
X116335655Y-106391141D03*
D11*
X117156229Y-110033483D03*
D18*
X103484744Y-107515450D03*
X113952284Y-104391255D03*
D29*
X117216300Y-131752786D03*
D33*
X128390000Y-78488200D03*
X113740000Y-80611510D03*
X146413102Y-74177440D03*
X164490000Y-77487640D03*
X121432700Y-132591772D03*
X182413000Y-79287200D03*
X146413102Y-91177400D03*
X112267000Y-98104386D03*
X118896090Y-132794972D03*
X128390000Y-95487800D03*
X164490000Y-94487600D03*
X182413000Y-96243586D03*
X116365755Y-133035917D03*
X128390000Y-112487400D03*
X113778800Y-115046186D03*
X146413102Y-108177600D03*
X182413000Y-113287000D03*
X164490000Y-111488000D03*
X127325500Y-126990472D03*
X178387241Y-128875674D03*
X198187135Y-133889558D03*
X127325500Y-124819372D03*
X119913128Y-72211104D03*
X110340000Y-80611510D03*
X131790000Y-78488200D03*
X137913328Y-70087794D03*
X155912728Y-65777034D03*
X149813102Y-74177440D03*
X173912928Y-69087234D03*
X167890000Y-77487640D03*
X185813000Y-79287200D03*
X191912626Y-70886794D03*
X117611254Y-89219406D03*
X108879938Y-98400716D03*
D29*
X117216300Y-125784572D03*
X117614200Y-115395186D03*
X114007400Y-84254786D03*
X124777000Y-99088386D03*
X117004600Y-99189986D03*
X109283000Y-108079986D03*
X107098600Y-95583186D03*
D33*
X108373594Y-104879327D03*
X113835421Y-133353772D03*
X106859848Y-87951628D03*
X109313128Y-70011104D03*
X127313328Y-67887794D03*
X127313328Y-101886994D03*
X127313328Y-84887394D03*
X123956759Y-132439372D03*
X126512700Y-132236172D03*
X145312728Y-63577034D03*
X145312728Y-80576994D03*
X145312728Y-97577194D03*
X163312928Y-100887594D03*
X163312928Y-83887194D03*
X158212928Y-113420386D03*
X180992854Y-140145758D03*
X122285362Y-125276572D03*
X163312928Y-66887234D03*
X131790000Y-95487800D03*
X137913328Y-87087394D03*
X149813102Y-91177400D03*
X155912728Y-82776994D03*
X173912928Y-86087194D03*
X167890000Y-94487600D03*
X129865500Y-124666972D03*
X185813000Y-96243586D03*
X191912626Y-87886594D03*
X119125000Y-106147105D03*
X110391738Y-115342516D03*
X131790000Y-112487400D03*
X137913328Y-104086994D03*
X155912728Y-99777194D03*
X149813102Y-108177600D03*
X173912928Y-103087594D03*
X167890000Y-111488000D03*
X191912626Y-104886594D03*
X185813000Y-113287000D03*
X181735587Y-129466077D03*
X170935918Y-136138510D03*
X193547233Y-143500605D03*
X201382090Y-135052426D03*
X129001900Y-131982172D03*
D29*
X114676300Y-125987772D03*
D33*
X124785500Y-125073372D03*
X181312626Y-68686794D03*
X181312626Y-102686594D03*
X174275944Y-114094886D03*
X181312626Y-85686594D03*
X198809511Y-145415918D03*
D29*
X119705500Y-125428972D03*
M02*
