  0
SECTION
  2
HEADER
  9
$ANGBASE
  50
0.0
  9
$ANGDIR
  70
1
  9
$MEASUREMENT
  70
1
  0
ENDSEC
  0
SECTION
  2
TABLES
  0
TABLE
  2
LTYPE
  70
4
  0
LTYPE
  5
40F
  2
CONTINUOUS
  70
0
  3
Solid line
  72
65
  73
0
  40
0.0
  0
LTYPE
  5
410
  2
DASHDOT
 70
0
  3
Dash Dot ____ _ ____ _
 72
65
 73
4
 40
2.0
 49
1.25
 49
-0.25
 49
0.25
 49
-0.25
  0
LTYPE
  5
411
  2
DASHED
 70
0
  3
Dashed __ __ __ __ __
 72
65
 73
2
 40
0.75
 49
0.5
 49
-0.25
  0
LTYPE
  5
43B
  2
DOTTED
 70
0
  3
Dotted .  .  .  .
 72
65
 73
2
 40
0.2
 49
0.0
 49
-0.2
  0
ENDTAB
  0
TABLE
  2
STYLE
  70
4
  0
STYLE
  2
KICAD
  70
0
  40
0
  41
1
  42
1
  50
0
  71
0
  3
isocp.shx
  0
STYLE
  2
KICADB
  70
0
  40
0
  41
1
  42
1
  50
0
  71
0
  3
isocp.shx
  0
STYLE
  2
KICADI
  70
0
  40
0
  41
1
  42
1
  50
15
  71
0
  3
isocp.shx
  0
STYLE
  2
KICADBI
  70
0
  40
0
  41
1
  42
1
  50
15
  71
0
  3
isocp.shx
  0
ENDTAB
  0
TABLE
  2
LAYER
  70
1
  0
LAYER
  2
BLACK
  70
0
  62
7
  6
CONTINUOUS
  0
ENDTAB
  0
ENDSEC
  0
SECTION
  2
ENTITIES
0
LINE
8
BLACK
6
CONTINUOUS
10
77.8114439999999945
20
-437.4450279999999793
11
77.8333080000000024
21
-437.3464050000000043
0
CIRCLE
8
BLACK
10
143.8195690000000013
20
-425.8045199999999681
40
3.1499999999999999
0
LINE
8
BLACK
6
CONTINUOUS
10
158.819564999999983
20
-462.7042799999999829
11
177.23994399999998
21
-462.7042799999999829
0
LINE
8
BLACK
6
CONTINUOUS
10
39.2738209999999981
20
-434.0181089999999813
11
59.9440209999999993
21
-438.0359889999999723
0
LINE
8
BLACK
6
CONTINUOUS
10
64.6115959999999916
20
-376.0681500000000028
11
51.0505390000000006
21
-373.4321469999999863
0
ARC
8
BLACK
10
267.1609530000000063
20
-376.3771429999999896
40
3.0000999481783936
50
11.00189893
51
100.99836464
0
ARC
8
BLACK
10
225.9761529999999823
20
-440.4123429999999644
40
0.4000423875903653
50
-257.49390806
51
-164.99652863
0
ARC
8
BLACK
10
91.6629530000000017
20
-440.4124429999999961
40
0.4000780407882942
50
-14.98874723
51
77.49365369
0
LINE
8
BLACK
6
CONTINUOUS
10
85.316400999999999
20
-461.0470899999999688
11
126.4338829999999945
21
-482.4514939999999683
0
LINE
8
BLACK
6
CONTINUOUS
10
208.2108619999999917
20
-384.38854699999996
11
172.2412850000000049
21
-394.0265640000000076
0
LINE
8
BLACK
6
CONTINUOUS
10
158.819564999999983
20
-408.4782799999999838
11
151.206750999999997
21
-408.4782799999999838
0
LINE
8
BLACK
6
CONTINUOUS
10
158.819564999999983
20
-408.4782799999999838
11
166.4323789999999974
21
-408.4782799999999838
0
CIRCLE
8
BLACK
10
277.3047530000000052
20
-430.7080339999999978
40
3.1499999999999999
0
LINE
8
BLACK
6
CONTINUOUS
10
62.8751109999999969
20
-436.0589429999999993
11
62.8903019999999984
21
-435.9807950000000005
0
ARC
8
BLACK
10
177.2399529999999856
20
-463.2043429999999944
40
0.5000630000809898
50
27.50687038
51
90.00103119
0
ARC
8
BLACK
10
208.9018529999999885
20
-383.4276429999999891
40
0.5000390683826614
50
-257.49544337
51
-167.49568833
0
LINE
8
BLACK
6
CONTINUOUS
10
64.6688639999999992
20
-375.7735349999999812
11
64.6115959999999916
21
-376.0681500000000028
0
LINE
8
BLACK
6
CONTINUOUS
10
91.2901789999999949
20
-443.0745299999999816
11
84.0406150000000025
21
-457.0008109999999988
0
ARC
8
BLACK
10
277.7929530000000113
20
-431.0732429999999908
40
2.9999338015979622
50
-79.00127417
51
11.00055733
0
ARC
8
BLACK
10
76.0541929999999979
20
-437.0555729999999812
40
1.7998906283510674
50
-102.50343672
51
-12.49632754
0
LINE
8
BLACK
6
CONTINUOUS
10
78.3104029999999938
20
-437.0424620000000004
11
91.7495890000000003
21
-440.021857999999952
0
ARC
8
BLACK
10
189.8199529999999982
20
-479.7905429999999569
40
2.9999499480553005
50
-152.50095062
51
-62.49846538
0
ARC
8
BLACK
10
208.1073529999999892
20
-384.0021429999999896
40
0.3999747089054506
50
-75.00382393
51
12.49583717
0
ARC
8
BLACK
10
39.8461599999999976
20
-431.073285999999996
40
2.9999257377891868
50
-191.00142546
51
-100.99856380
0
LINE
8
BLACK
6
CONTINUOUS
10
257.6951090000000022
20
-438.0359889999999723
11
278.3653089999999679
21
-434.0181089999999813
0
ARC
8
BLACK
10
173.017752999999999
20
-396.9244429999999966
40
3.0000367875317795
50
104.99969861
51
164.99815440
0
LINE
8
BLACK
6
CONTINUOUS
10
109.2254549999999966
20
-383.5359080000000063
11
109.1412769999999881
21
-383.915600999999981
0
ARC
8
BLACK
10
144.6213529999999992
20
-396.9243429999999648
40
3.000010493132482
50
14.99988221
51
74.99936434
0
CIRCLE
8
BLACK
10
190.0178699999999878
20
-479.1957830000000058
40
3.1499999999999999
0
LINE
8
BLACK
6
CONTINUOUS
10
187.1589679999999873
20
-481.175707999999986
11
177.683448999999996
21
-462.9734059999999545
0
LINE
8
BLACK
6
CONTINUOUS
10
108.8455280000000016
20
-382.9395379999999705
11
67.6640299999999968
21
-373.809820000000002
0
LINE
8
BLACK
6
CONTINUOUS
10
225.8895409999999799
20
-440.021857999999952
11
239.3287269999999864
21
-437.0424620000000004
0
CIRCLE
8
BLACK
10
127.6212599999999924
20
-479.1957830000000058
40
3.1499999999999999
0
ARC
8
BLACK
10
239.4153529999999819
20
-437.4328429999999912
40
0.3998767172979692
50
12.48225127
51
102.51127713
0
ARC
8
BLACK
10
127.819153
20
-479.790442999999982
40
2.9999880030270121
50
-117.50024614
51
-27.50053183
0
CIRCLE
8
BLACK
10
40.3343769999999964
20
-430.7080339999999978
40
3.1499999999999999
0
ARC
8
BLACK
10
67.1228929999999906
20
-376.2504930000000058
40
2.4999494528099961
50
77.49881806
51
169.00128047
0
ARC
8
BLACK
10
88.6296529999999905
20
-441.6894429999999829
40
2.9994705577464833
50
-27.50177615
51
-14.99956284
0
CIRCLE
8
BLACK
10
170.8195259999999962
20
-410.6935770000000048
40
2.1499999999999999
0
LINE
8
BLACK
6
CONTINUOUS
10
253.0275339999999744
20
-376.0681500000000028
11
252.970265999999981
21
-375.7735349999999812
0
ARC
8
BLACK
10
108.7371529999999922
20
-383.427742999999964
40
0.5000892546836014
50
-12.49005177
51
77.48405422
0
CIRCLE
8
BLACK
10
180.3194979999999816
20
-450.527281999999957
40
2.1999999999999997
0
ARC
8
BLACK
10
50.4781720000000007
20
-376.3771189999999933
40
3.0000765154663971
50
79.00145418
51
168.99853277
0
LINE
8
BLACK
6
CONTINUOUS
10
208.4978529999999921
20
-383.915600999999981
11
208.4136749999999836
21
-383.5359080000000063
0
CIRCLE
8
BLACK
10
125.7525659999999874
20
-412.9560799999999858
40
1.
0
LINE
8
BLACK
6
CONTINUOUS
10
254.7488279999999747
20
-435.9807950000000005
11
254.7640189999999905
21
-436.0589429999999993
0
LINE
8
BLACK
6
CONTINUOUS
10
233.5985149999999919
20
-457.0008109999999988
11
226.3489509999999996
21
-443.0745299999999816
0
LINE
8
BLACK
6
CONTINUOUS
10
62.8903019999999984
20
-435.9807950000000005
11
75.6645209999999935
21
-438.8127709999999979
0
LINE
8
BLACK
6
CONTINUOUS
10
266.5885910000000081
20
-373.4321469999999863
11
253.0275339999999744
21
-376.0681500000000028
0
ARC
8
BLACK
10
250.5160529999999994
20
-376.2507429999999999
40
2.50014704370323
50
11.00353898
51
102.49582504
0
LINE
8
BLACK
6
CONTINUOUS
10
270.1058999999999628
20
-375.8046019999999885
11
280.7377639999999701
21
-430.5007999999999697
0
LINE
8
BLACK
6
CONTINUOUS
10
225.589747999999986
20
-440.5159049999999752
11
226.1122049999999888
21
-442.46574099999998
0
ARC
8
BLACK
10
166.4323530000000062
20
-407.9783429999999953
40
0.5000090204486315
50
-89.99702024
51
-14.99230601
0
LINE
8
BLACK
6
CONTINUOUS
10
147.5191649999999868
20
-396.1478829999999789
11
150.7237879999999848
21
-408.107689999999991
0
ARC
8
BLACK
10
151.206752999999992
20
-407.9782429999999636
40
0.5000370000039996
50
-164.99591372
51
-90.00022917
0
CIRCLE
8
BLACK
10
137.3195010000000025
20
-457.5272809999999595
40
2.1999999999999997
0
LINE
8
BLACK
6
CONTINUOUS
10
191.2052469999999857
20
-482.4514939999999683
11
232.3227289999999812
21
-461.0470899999999688
0
ARC
8
BLACK
10
241.5849529999999845
20
-437.0555430000000001
40
1.7999116762552545
50
-167.50285031
51
-77.49726727
0
LINE
8
BLACK
6
CONTINUOUS
10
91.5269249999999914
20
-442.46574099999998
11
92.0493819999999943
21
-440.5159049999999752
0
LINE
8
BLACK
6
CONTINUOUS
10
241.9746089999999867
20
-438.8127709999999979
11
254.7488279999999747
21
-435.9807950000000005
0
CIRCLE
8
BLACK
10
173.3771649999999909
20
-397.31347999999997
40
3.1499999999999999
0
CIRCLE
8
BLACK
10
266.7901749999999765
20
-376.9101909999999975
40
3.1499999999999999
0
LINE
8
BLACK
6
CONTINUOUS
10
145.3978449999999896
20
-394.0265640000000076
11
109.4282679999999885
21
-384.38854699999996
0
LINE
8
BLACK
6
CONTINUOUS
10
158.819564999999983
20
-462.7042799999999829
11
140.3991859999999861
21
-462.7042799999999829
0
ARC
8
BLACK
10
230.9375529999999799
20
-458.3860429999999724
40
2.9999310757529076
50
-62.50131102
51
27.50038727
0
LINE
8
BLACK
6
CONTINUOUS
10
130.4801620000000071
20
-481.175707999999986
11
139.9556809999999984
21
-462.9734059999999545
0
ARC
8
BLACK
10
109.5317529999999948
20
-384.0022429999999645
40
0.3999249000012378
50
-192.51056662
51
-104.99656186
0
CIRCLE
8
BLACK
10
50.8489549999999966
20
-376.9101909999999975
40
3.1499999999999999
0
LINE
8
BLACK
6
CONTINUOUS
10
170.1199649999999792
20
-396.1478829999999789
11
166.9153419999999812
21
-408.107689999999991
0
CIRCLE
8
BLACK
10
173.8195690000000013
20
-425.8045199999999681
40
3.1499999999999999
0
ARC
8
BLACK
10
229.0100529999999992
20
-441.6892429999999763
40
3.0000806533780056
50
-164.99959474
51
-152.49991563
0
CIRCLE
8
BLACK
10
144.2539710000000071
20
-397.3272779999999784
40
3.1499999999999999
0
ARC
8
BLACK
10
140.3992529999999874
20
-463.2043429999999944
40
0.5000880094073442
50
90.00767667
51
152.49715119
0
ARC
8
BLACK
10
78.2239529999999945
20
-437.4331429999999727
40
0.4001587143484445
50
77.52263227
51
167.48125595
0
CIRCLE
8
BLACK
10
146.8195259999999962
20
-410.7201949999999897
40
2.1499999999999999
0
LINE
8
BLACK
6
CONTINUOUS
10
249.9750999999999976
20
-373.809820000000002
11
208.7936019999999928
21
-382.9395379999999705
0
ARC
8
BLACK
10
257.2179529999999659
20
-435.5821429999999737
40
2.4998076006068946
50
-169.00441988
51
-78.99602542
0
ARC
8
BLACK
10
60.4210929999999991
20
-435.5820029999999861
40
2.4999352207455292
50
-101.00147232
51
-10.99836267
0
LINE
8
BLACK
6
CONTINUOUS
10
36.9013659999999959
20
-430.5007999999999697
11
47.5332299999999961
21
-375.8046019999999885
0
LINE
8
BLACK
6
CONTINUOUS
10
239.8058219999999778
20
-437.3464050000000043
11
239.8276859999999999
21
-437.4450279999999793
0
ARC
8
BLACK
10
86.7015529999999899
20
-458.3860429999999724
40
2.9999695330641272
50
-207.50059893
51
-117.49828240
0
CIRCLE
8
BLACK
10
84.6745189999999894
20
-397.4670800000000099
40
0.75
0
CIRCLE
8
BLACK
10
103.3435190000000006
20
-444.7110799999999813
40
0.75
0
CIRCLE
8
BLACK
10
107.6615189999999984
20
-386.4180799999999749
40
0.75
0
CIRCLE
8
BLACK
10
119.4725189999999913
20
-476.2070799999999622
40
0.75
0
CIRCLE
8
BLACK
10
115.2815189999999888
20
-425.5340799999999604
40
0.75
0
CIRCLE
8
BLACK
10
51.5275189999999981
20
-433.6620800000000031
40
0.75
0
CIRCLE
8
BLACK
10
44.9235189999999989
20
-404.1980800000000045
40
0.75
0
CIRCLE
8
BLACK
10
146.3210420000000056
20
-457.8272799999999734
40
0.75
0
CIRCLE
8
BLACK
10
146.3210420000000056
20
-403.8272799999999734
40
0.75
0
CIRCLE
8
BLACK
10
58.8935189999999977
20
-377.401079999999979
40
0.75
0
CIRCLE
8
BLACK
10
202.3585649999999987
20
-425.5340799999999604
40
0.75
0
CIRCLE
8
BLACK
10
171.3190419999999961
20
-403.8272799999999734
40
0.75
0
CIRCLE
8
BLACK
10
209.9785650000000032
20
-386.4180799999999749
40
0.75
0
CIRCLE
8
BLACK
10
198.1675649999999962
20
-476.2070799999999622
40
0.75
0
CIRCLE
8
BLACK
10
214.2965649999999869
20
-444.7110799999999813
40
0.75
0
CIRCLE
8
BLACK
10
232.965564999999998
20
-397.4670800000000099
40
0.75
0
CIRCLE
8
BLACK
10
171.3190419999999961
20
-457.8272799999999734
40
0.75
0
CIRCLE
8
BLACK
10
266.1125649999999609
20
-433.6620800000000031
40
0.75
0
CIRCLE
8
BLACK
10
258.7465649999999755
20
-377.401079999999979
40
0.75
0
CIRCLE
8
BLACK
10
272.7165650000000028
20
-404.1980800000000045
40
0.75
0
ARC
8
BLACK
10
208.1068739999999764
20
-234.0024679999999933
40
0.4000038723037566
50
-74.99949269
51
12.49945954
0
LINE
8
BLACK
6
CONTINUOUS
10
257.6946530000000166
20
-288.036282999999969
11
278.3648529999999823
21
-284.018402999999978
0
LINE
8
BLACK
6
CONTINUOUS
10
158.8191089999999974
20
-312.7045739999999796
11
177.2394879999999944
21
-312.7045739999999796
0
LINE
8
BLACK
6
CONTINUOUS
10
108.8450720000000018
20
-232.9398319999999956
11
67.663573999999997
21
-223.8101139999999987
0
LINE
8
BLACK
6
CONTINUOUS
10
39.2733649999999983
20
-284.018402999999978
11
59.9435649999999995
21
-288.036282999999969
0
LINE
8
BLACK
6
CONTINUOUS
10
78.309946999999994
20
-287.0427559999999971
11
91.7491330000000005
21
-290.0221520000000055
0
LINE
8
BLACK
6
CONTINUOUS
10
187.1585120000000018
20
-331.1760019999999827
11
177.682992999999982
21
-312.973700000000008
0
LINE
8
BLACK
6
CONTINUOUS
10
85.3159449999999993
20
-311.0473839999999655
11
126.4334269999999947
21
-332.451787999999965
0
LINE
8
BLACK
6
CONTINUOUS
10
130.0021099999999876
20
-265.95637499999998
11
121.5021099999999876
21
-265.956372999999985
0
ARC
8
BLACK
10
267.1605000000000132
20
-226.3774139999999875
40
3.0000779429798152
50
11.00147868
51
100.99850468
0
LINE
8
BLACK
6
CONTINUOUS
10
64.6684079999999994
20
-225.7738289999999779
11
64.6111399999999918
21
-226.0684439999999995
0
LINE
8
BLACK
6
CONTINUOUS
10
130.5021099999999876
20
-260.45637499999998
11
130.5021099999999876
21
-265.45637499999998
0
ARC
8
BLACK
10
208.9013759999999991
20
-233.4279859999999758
40
0.5000079592416504
50
-257.49900839
51
-167.50064903
0
ARC
8
BLACK
10
173.0173460000000034
20
-246.9246959999999831
40
3.0000735050878338
50
105.00080519
51
164.99915297
0
LINE
8
BLACK
6
CONTINUOUS
10
62.8746549999999971
20
-286.059236999999996
11
62.8898459999999986
21
-285.9810889999999972
0
CIRCLE
8
BLACK
10
170.8190699999999822
20
-260.6938710000000015
40
1.0999999999999999
0
ARC
8
BLACK
10
189.8195089999999823
20
-329.790867999999989
40
2.9999169098366707
50
-152.50158162
51
-62.49839527
0
ARC
8
BLACK
10
76.0537410000000023
20
-287.0558659999999804
40
1.7998869394895336
50
-102.50355414
51
-12.49638618
0
ARC
8
BLACK
10
91.6625279999999947
20
-290.4126870000000054
40
0.4000225146788615
50
-14.99681350
51
77.49643768
0
ARC
8
BLACK
10
121.5021079999999927
20
-265.45637499999998
40
0.499998000004
50
-180.00022918
51
-89.99977082
0
ARC
8
BLACK
10
277.7925030000000106
20
-281.0735730000000103
40
2.9999347815354249
50
-79.00125548
51
11.00125413
0
LINE
8
BLACK
6
CONTINUOUS
10
208.2104059999999777
20
-234.3888409999999851
11
172.2408289999999909
21
-244.0268579999999758
0
LINE
8
BLACK
6
CONTINUOUS
10
151.7297690000000046
20
-260.7185739999999896
11
153.3427089999999851
21
-260.7185739999999896
0
ARC
8
BLACK
10
164.2955099999999788
20
-261.2185749999999871
40
0.500001000001
50
90.00011459
51
179.99988541
0
LINE
8
BLACK
6
CONTINUOUS
10
121.0021099999999876
20
-265.456372999999985
11
121.0021099999999876
21
-260.456372999999985
0
LINE
8
BLACK
6
CONTINUOUS
10
270.1054439999999772
20
-225.8048959999999852
11
280.7373079999999845
21
-280.5010939999999664
0
ARC
8
BLACK
10
88.6292309999999901
20
-291.6897839999999746
40
2.999425552275802
50
-27.50127971
51
-14.99886372
0
ARC
8
BLACK
10
67.1224339999999984
20
-226.2507909999999924
40
2.4999472710679318
50
77.49877078
51
169.00117736
0
ARC
8
BLACK
10
130.0021069999999952
20
-260.4563779999999724
40
0.5000030000089999
50
0.00034377
51
89.99965623
0
ARC
8
BLACK
10
153.3427079999999876
20
-261.2185749999999871
40
0.500001000001
50
0.00011459
51
89.99988541
0
ARC
8
BLACK
10
239.4149089999999944
20
-287.4331770000000006
40
0.399918367026322
50
12.48821814
51
102.51171407
0
ARC
8
BLACK
10
127.8186609999999916
20
-329.7907169999999724
40
3.0000291703998476
50
-117.49945991
51
-27.50055316
0
ARC
8
BLACK
10
177.2394749999999988
20
-313.204593999999986
40
0.5000200001689933
50
27.50133584
51
89.99851037
0
ARC
8
BLACK
10
39.8457039999999978
20
-281.0735799999999927
40
2.9999257377891868
50
-191.00142546
51
-100.99856380
0
LINE
8
BLACK
6
CONTINUOUS
10
225.5892920000000004
20
-290.5161989999999719
11
226.1117490000000032
21
-292.4660349999999767
0
ARC
8
BLACK
10
144.6209319999999821
20
-246.9246359999999925
40
3.0000004683554633
50
15.00003677
51
75.00000507
0
LINE
8
BLACK
6
CONTINUOUS
10
266.5881349999999657
20
-223.432440999999983
11
253.0270779999999888
21
-226.0684439999999995
0
LINE
8
BLACK
6
CONTINUOUS
10
62.8898459999999986
20
-285.9810889999999972
11
75.6640649999999937
21
-288.8130649999999946
0
LINE
8
BLACK
6
CONTINUOUS
10
109.2249989999999968
20
-233.536202000000003
11
109.1408209999999883
21
-233.9158949999999777
0
LINE
8
BLACK
6
CONTINUOUS
10
158.8191089999999974
20
-267.6403740000000084
11
163.2955089999999814
21
-267.6403740000000084
0
LINE
8
BLACK
6
CONTINUOUS
10
77.8109879999999947
20
-287.445321999999976
11
77.8328520000000026
21
-287.346699000000001
0
LINE
8
BLACK
6
CONTINUOUS
10
225.8890849999999944
20
-290.0221520000000055
11
239.3282710000000009
21
-287.0427559999999971
0
ARC
8
BLACK
10
130.0021089999999901
20
-265.4563739999999825
40
0.500001000001
50
-89.99988541
51
-0.00011459
0
ARC
8
BLACK
10
225.9756859999999961
20
-290.4126850000000104
40
0.4000193388225124
50
-257.49693500
51
-165.00276154
0
LINE
8
BLACK
6
CONTINUOUS
10
91.2897229999999951
20
-293.0748239999999782
11
84.0401590000000027
21
-307.0011049999999955
0
LINE
8
BLACK
6
CONTINUOUS
10
151.3433979999999792
20
-260.4221019999999953
11
147.5187090000000012
21
-246.1481769999999756
0
ARC
8
BLACK
10
250.5156139999999994
20
-226.2510509999999897
40
2.500164390368961
50
11.00392827
51
102.49613598
0
LINE
8
BLACK
6
CONTINUOUS
10
64.6111399999999918
20
-226.0684439999999995
11
51.0500830000000008
21
-223.432440999999983
0
LINE
8
BLACK
6
CONTINUOUS
10
191.2047910000000002
20
-332.451787999999965
11
232.3222729999999956
21
-311.0473839999999655
0
LINE
8
BLACK
6
CONTINUOUS
10
163.7955089999999814
20
-267.1403740000000084
11
163.7955089999999814
21
-261.2185739999999896
0
LINE
8
BLACK
6
CONTINUOUS
10
253.0270779999999888
20
-226.0684439999999995
11
252.9698099999999954
21
-225.7738289999999779
0
ARC
8
BLACK
10
108.7367129999999946
20
-233.4280679999999961
40
0.50011605110914
50
-12.48698074
51
77.48661335
0
LINE
8
BLACK
6
CONTINUOUS
10
154.3427089999999851
20
-267.6403740000000084
11
158.8191089999999974
21
-267.6403740000000084
0
CIRCLE
8
BLACK
10
137.3190449999999885
20
-307.527575000000013
40
2.1999999999999997
0
ARC
8
BLACK
10
121.5021129999999943
20
-260.4563759999999775
40
0.5000030000089999
50
90.00034377
51
179.99965623
0
ARC
8
BLACK
10
50.4777160000000009
20
-226.37741299999999
40
3.0000765154663971
50
79.00145418
51
168.99853277
0
LINE
8
BLACK
6
CONTINUOUS
10
254.7483719999999892
20
-285.9810889999999972
11
254.7635629999999765
21
-286.059236999999996
0
ARC
8
BLACK
10
163.2955079999999839
20
-267.140373000000011
40
0.500001000001
50
-89.99988541
51
-0.00011459
0
ARC
8
BLACK
10
241.5845239999999876
20
-287.0557939999999917
40
1.7999478117662189
50
-167.50169995
51
-77.49840267
0
ARC
8
BLACK
10
165.9084909999999979
20
-260.3186279999999897
40
0.3999462025285401
50
-90.00601687
51
-14.99411294
0
LINE
8
BLACK
6
CONTINUOUS
10
241.9741530000000012
20
-288.8130649999999946
11
254.7483719999999892
21
-285.9810889999999972
0
ARC
8
BLACK
10
151.7297800000000052
20
-260.3185589999999934
40
0.4000150001512443
50
-164.99830446
51
-90.00157557
0
LINE
8
BLACK
6
CONTINUOUS
10
145.397389000000004
20
-244.0268579999999758
11
109.4278119999999888
21
-234.3888409999999851
0
ARC
8
BLACK
10
60.4206419999999937
20
-285.5822959999999853
40
2.4999305033640433
50
-101.00158044
51
-10.99840703
0
LINE
8
BLACK
6
CONTINUOUS
10
170.1195089999999936
20
-246.1481769999999756
11
166.2948199999999872
21
-260.4221019999999953
0
LINE
8
BLACK
6
CONTINUOUS
10
121.5021099999999876
20
-259.956372999999985
11
130.0021099999999876
21
-259.95637499999998
0
ARC
8
BLACK
10
229.0096289999999897
20
-291.6895339999999806
40
3.0001104229771274
50
-164.99969757
51
-152.50014700
0
ARC
8
BLACK
10
154.3427099999999825
20
-267.140373000000011
40
0.500001000001
50
-179.99988541
51
-90.00011459
0
ARC
8
BLACK
10
109.5312879999999893
20
-234.0025019999999927
40
0.3999563794928142
50
-192.50595104
51
-104.99401906
0
LINE
8
BLACK
6
CONTINUOUS
10
239.8053659999999923
20
-287.346699000000001
11
239.8272299999999859
21
-287.445321999999976
0
ARC
8
BLACK
10
257.2175029999999651
20
-285.5824039999999968
40
2.4998388486342478
50
-169.00370364
51
-78.99630478
0
LINE
8
BLACK
6
CONTINUOUS
10
130.4797059999999931
20
-331.1760019999999827
11
139.9552249999999844
21
-312.973700000000008
0
LINE
8
BLACK
6
CONTINUOUS
10
36.9009099999999961
20
-280.5010939999999664
11
47.5327739999999963
21
-225.8048959999999852
0
ARC
8
BLACK
10
78.2234899999999982
20
-287.4334619999999632
40
0.4001573005869067
50
77.52242704
51
167.47754422
0
ARC
8
BLACK
10
140.3987569999999891
20
-313.2046169999999847
40
0.5000432940386261
50
90.00309371
51
152.49706732
0
ARC
8
BLACK
10
86.7011029999999892
20
-308.3863789999999767
40
2.9999350484617162
50
-207.50125754
51
-117.49875442
0
LINE
8
BLACK
6
CONTINUOUS
10
91.5264689999999916
20
-292.4660349999999767
11
92.0489259999999945
21
-290.5161989999999719
0
LINE
8
BLACK
6
CONTINUOUS
10
249.9746439999999836
20
-223.8101139999999987
11
208.7931459999999788
21
-232.9398319999999956
0
LINE
8
BLACK
6
CONTINUOUS
10
158.8191089999999974
20
-312.7045739999999796
11
140.3987300000000005
21
-312.7045739999999796
0
CIRCLE
8
BLACK
10
146.8190699999999822
20
-260.7204889999999864
40
1.0999999999999999
0
LINE
8
BLACK
6
CONTINUOUS
10
153.8427089999999851
20
-261.2185739999999896
11
153.8427089999999851
21
-267.1403740000000084
0
LINE
8
BLACK
6
CONTINUOUS
10
208.4973969999999781
20
-233.9158949999999777
11
208.413218999999998
21
-233.536202000000003
0
ARC
8
BLACK
10
230.9371009999999842
20
-308.3863749999999868
40
2.9999450746078669
50
-62.50104368
51
27.50106630
0
LINE
8
BLACK
6
CONTINUOUS
10
233.5980589999999779
20
-307.0011049999999955
11
226.3484949999999856
21
-293.0748239999999782
0
CIRCLE
8
BLACK
10
180.3190419999999961
20
-300.5275760000000105
40
2.1999999999999997
0
LINE
8
BLACK
6
CONTINUOUS
10
164.2955089999999814
20
-260.7185739999999896
11
165.9084489999999903
21
-260.7185739999999896
0
CIRCLE
8
BLACK
10
202.3581089999999847
20
-275.5343740000000139
40
0.75
0
CIRCLE
8
BLACK
10
171.3185859999999821
20
-253.8275739999999985
40
0.75
0
CIRCLE
8
BLACK
10
266.1121089999999754
20
-283.6623739999999998
40
0.75
0
CIRCLE
8
BLACK
10
214.2961090000000013
20
-294.711373999999978
40
0.75
0
CIRCLE
8
BLACK
10
209.9781089999999892
20
-236.418374
40
0.75
0
CIRCLE
8
BLACK
10
272.7161089999999604
20
-254.1983740000000012
40
0.75
0
CIRCLE
8
BLACK
10
232.965108999999984
20
-247.4673739999999782
40
0.75
0
CIRCLE
8
BLACK
10
171.3185859999999821
20
-307.8275739999999701
40
0.75
0
CIRCLE
8
BLACK
10
258.7461089999999899
20
-227.4013739999999757
40
0.75
0
CIRCLE
8
BLACK
10
198.1671089999999822
20
-326.2073739999999589
40
0.75
0
CIRCLE
8
BLACK
10
84.6740629999999896
20
-247.4673739999999782
40
0.75
0
CIRCLE
8
BLACK
10
103.3430630000000008
20
-294.711373999999978
40
0.75
0
CIRCLE
8
BLACK
10
58.8930629999999979
20
-227.4013739999999757
40
0.75
0
CIRCLE
8
BLACK
10
51.5270629999999983
20
-283.6623739999999998
40
0.75
0
CIRCLE
8
BLACK
10
119.4720629999999915
20
-326.2073739999999589
40
0.75
0
CIRCLE
8
BLACK
10
115.281062999999989
20
-275.5343740000000139
40
0.75
0
CIRCLE
8
BLACK
10
44.9230629999999991
20
-254.1983740000000012
40
0.75
0
CIRCLE
8
BLACK
10
146.3205859999999916
20
-253.8275739999999985
40
0.75
0
CIRCLE
8
BLACK
10
146.3205859999999916
20
-307.8275739999999701
40
0.75
0
CIRCLE
8
BLACK
10
107.6610629999999986
20
-236.418374
40
0.75
0
ARC
8
BLACK
10
381.156283999999971
20
-142.2408839999999941
40
3.4999400008470145
50
-15.00128208
51
90.00126053
0
LINE
8
BLACK
6
CONTINUOUS
10
359.6562109999999848
20
-138.7409429999999873
11
338.8808689999999615
21
-138.7409419999999898
0
ARC
8
BLACK
10
338.8808629999999766
20
-140.7409350000000074
40
1.9999927049559454
50
89.99982811
51
165.00015429
0
LINE
8
BLACK
6
CONTINUOUS
10
334.7754749999999717
20
-148.3350739999999917
11
336.9490169999999694
21
-140.2233039999999846
0
ARC
8
BLACK
10
338.1562020000000075
20
-149.2409509999999955
40
3.4999900000241428
50
-195.00022028
51
-89.99978719
0
ARC
8
BLACK
10
380.4316339999999741
20
-150.7410480000000064
40
1.9998948978708855
50
-90.00232060
51
-14.99768986
0
LINE
8
BLACK
6
CONTINUOUS
10
359.6562109999999848
20
-152.7409419999999898
11
380.4315530000000081
21
-152.7409429999999873
0
LINE
8
BLACK
6
CONTINUOUS
10
384.5369469999999978
20
-143.1468109999999854
11
382.3634050000000002
21
-151.2585809999999924
0
LINE
8
BLACK
6
CONTINUOUS
10
359.6562109999999848
20
-138.7409429999999873
11
381.1562069999999949
21
-138.7409439999999847
0
LINE
8
BLACK
6
CONTINUOUS
10
359.6562109999999848
20
-152.7409419999999898
11
338.1562149999999747
21
-152.7409409999999923
0
CIRCLE
8
BLACK
10
380.6890219999999658
20
-74.3973859999999974
40
1.0999999999999999
0
CIRCLE
8
BLACK
10
356.689185000000009
20
-100.3444229999999919
40
1.0999999999999999
0
ARC
8
BLACK
10
358.2797879999999964
20
-87.3575489999999917
40
27.9999940049525335
50
-15.00000273
51
15.00000273
0
LINE
8
BLACK
6
CONTINUOUS
10
356.688966999999991
20
-103.3177109999999885
11
368.6889939999999797
21
-103.3177109999999885
0
CIRCLE
8
BLACK
10
380.6890219999999658
20
-100.3177109999999885
40
1.0999999999999999
0
ARC
8
BLACK
10
380.6888920000000098
20
-100.3175419999999889
40
3.0001688160043596
50
-89.99753642
51
-15.00247481
0
ARC
8
BLACK
10
380.6890349999999899
20
-74.3973689999999976
40
2.999983000032667
50
14.99975052
51
90.00026738
0
LINE
8
BLACK
6
CONTINUOUS
10
368.6889939999999797
20
-71.3973859999999974
11
380.6890209999999684
21
-71.3973859999999974
0
ARC
8
BLACK
10
356.688824000000011
20
-100.3178970000000021
40
2.9998140034083778
50
-165.00272968
51
-89.99726873
0
LINE
8
BLACK
6
CONTINUOUS
10
352.0522829999999885
20
-94.6044819999999902
11
353.7911889999999744
21
-101.0941679999999963
0
LINE
8
BLACK
6
CONTINUOUS
10
383.586798999999985
20
-101.0941679999999963
11
385.3257049999999708
21
-94.6044819999999902
0
LINE
8
BLACK
6
CONTINUOUS
10
352.0522829999999885
20
-80.1106159999999932
11
353.7911889999999744
21
-73.6209289999999896
0
ARC
8
BLACK
10
356.6890280000000075
20
-74.3974659999999943
40
3.0000800959791056
50
90.00116498
51
164.99883081
0
LINE
8
BLACK
6
CONTINUOUS
10
368.6889939999999797
20
-103.3177109999999885
11
380.6890209999999684
21
-103.3177109999999885
0
ARC
8
BLACK
10
379.098199999999963
20
-87.3575489999999917
40
27.9999940049525335
50
-195.00000273
51
-164.99999727
0
CIRCLE
8
BLACK
10
356.6890219999999658
20
-74.371145999999996
40
1.0999999999999999
0
LINE
8
BLACK
6
CONTINUOUS
10
356.688966999999991
20
-71.3973859999999974
11
368.6889939999999797
21
-71.3973859999999974
0
LINE
8
BLACK
6
CONTINUOUS
10
383.586798999999985
20
-73.6209289999999896
11
385.3257049999999708
21
-80.1106159999999932
0
ARC
8
BLACK
10
257.2172999999999661
20
-135.5824020000000019
40
2.499867151873675
50
-169.00305491
51
-78.99657101
0
ARC
8
BLACK
10
140.3984999999999843
20
-163.2046019999999942
40
0.499980861765728
50
89.99759358
51
152.49889792
0
LINE
8
BLACK
6
CONTINUOUS
10
249.9744349999999997
20
-73.810141999999999
11
208.7929369999999949
21
-82.9398599999999959
0
LINE
8
BLACK
6
CONTINUOUS
10
239.8051569999999799
20
-137.3467269999999871
11
239.827021000000002
21
-137.4453499999999906
0
ARC
8
BLACK
10
78.2232999999999947
20
-137.4335020000000043
40
0.4001784505367574
50
77.52545444
51
167.47645682
0
LINE
8
BLACK
6
CONTINUOUS
10
36.900700999999998
20
-130.501121999999981
11
47.5325649999999982
21
-75.8049239999999998
0
ARC
8
BLACK
10
60.4204000000000008
20
-135.5823019999999985
40
2.4999670944804451
50
-101.00074179
51
-10.99875768
0
LINE
8
BLACK
6
CONTINUOUS
10
170.1192999999999813
20
-96.1482049999999902
11
166.3787779999999827
21
-110.108011999999988
0
ARC
8
BLACK
10
177.9188000000000045
20
-147.9276020000000074
40
0.400000001445
50
0.00000000
51
89.99512986
0
LINE
8
BLACK
6
CONTINUOUS
10
130.4794969999999807
20
-181.1760299999999972
11
139.9550160000000005
21
-162.9737279999999942
0
ARC
8
BLACK
10
230.9368999999999801
20
-158.3864020000000039
40
2.999937516826142
50
-62.50118802
51
27.50111992
0
LINE
8
BLACK
6
CONTINUOUS
10
158.8188999999999851
20
-162.7046019999999942
11
140.3985209999999881
21
-162.7046019999999942
0
ARC
8
BLACK
10
229.0088999999999828
20
-141.689801999999986
40
2.9995383577304024
50
-165.00155487
51
-152.49962695
0
ARC
8
BLACK
10
94.2776999999999958
20
-164.0216020000000015
40
1.50003584326842
50
-207.49863098
51
-117.50058261
0
ARC
8
BLACK
10
165.8957999999999799
20
-109.9786019999999951
40
0.5000146963680168
50
-89.99816654
51
-14.99960541
0
ARC
8
BLACK
10
109.531099999999995
20
-84.0025019999999927
40
0.3999888594673606
50
-192.50138380
51
-104.99588709
0
LINE
8
BLACK
6
CONTINUOUS
10
139.7188339999999869
20
-147.5276020000000017
11
177.9188340000000039
21
-147.5276020000000017
0
CIRCLE
8
BLACK
10
137.3188360000000046
20
-157.5276029999999992
40
1.5999999999999999
0
LINE
8
BLACK
6
CONTINUOUS
10
92.0365070000000003
20
-140.5617949999999894
11
92.0487169999999963
21
-140.5162269999999864
0
LINE
8
BLACK
6
CONTINUOUS
10
145.3971799999999917
20
-94.0268859999999904
11
109.4276029999999906
21
-84.3888689999999997
0
LINE
8
BLACK
6
CONTINUOUS
10
241.9739439999999888
20
-138.8130929999999807
11
254.7481629999999768
21
-135.9811169999999834
0
LINE
8
BLACK
6
CONTINUOUS
10
173.2628609999999867
20
-117.6543089999999978
11
167.5128609999999867
21
-117.6543089999999978
0
CIRCLE
8
BLACK
10
146.8188999999999851
20
-110.6934019999999919
40
1.0999999999999999
0
ARC
8
BLACK
10
241.5842999999999847
20
-137.0559020000000032
40
1.7998729558546624
50
-167.50408286
51
-77.49738523
0
ARC
8
BLACK
10
151.7419999999999902
20
-109.9786019999999951
40
0.500000000256
50
-165.00039459
51
-90.00183346
0
LINE
8
BLACK
6
CONTINUOUS
10
233.597849999999994
20
-157.0011329999999816
11
226.3482860000000016
21
-143.0748519999999928
0
CIRCLE
8
BLACK
10
179.4988989999999944
20
-139.2758019999999988
40
0.75
0
CIRCLE
8
BLACK
10
180.3188329999999837
20
-150.5276039999999966
40
1.5999999999999999
0
LINE
8
BLACK
6
CONTINUOUS
10
254.7481629999999768
20
-135.9811169999999834
11
254.7633539999999925
21
-136.0592649999999821
0
ARC
8
BLACK
10
50.4775099999999952
20
-76.3774420000000021
40
3.0000796511674483
50
79.00151407
51
168.99852496
0
LINE
8
BLACK
6
CONTINUOUS
10
178.3188339999999812
20
-147.9276020000000074
11
178.3188349999999787
21
-160.127601999999996
0
LINE
8
BLACK
6
CONTINUOUS
10
147.5184999999999889
20
-96.1482049999999902
11
151.2590219999999874
21
-110.108011999999988
0
ARC
8
BLACK
10
108.7364999999999924
20
-83.4281019999999955
40
0.5001227752592357
50
-12.48621053
51
77.48631491
0
LINE
8
BLACK
6
CONTINUOUS
10
253.0268689999999765
20
-76.0684719999999999
11
252.9696009999999831
21
-75.7738569999999925
0
LINE
8
BLACK
6
CONTINUOUS
10
167.5128609999999867
20
-129.6543099999999811
11
173.2628609999999867
21
-129.6543099999999811
0
ARC
8
BLACK
10
143.8508999999999958
20
-132.0730020000000025
40
0.5
50
-180.00000000
51
-90.00000000
0
LINE
8
BLACK
6
CONTINUOUS
10
208.4971879999999942
20
-83.9159229999999923
11
208.4130099999999857
21
-83.5362300000000033
0
LINE
8
BLACK
6
CONTINUOUS
10
191.2045819999999878
20
-182.4518159999999796
11
232.3220639999999833
21
-161.04741199999998
0
LINE
8
BLACK
6
CONTINUOUS
10
139.3188350000000071
20
-160.127601999999996
11
139.3188339999999812
21
-147.9276020000000074
0
LINE
8
BLACK
6
CONTINUOUS
10
173.7628609999999867
20
-118.1543089999999978
11
173.7628609999999867
21
-129.1543099999999811
0
LINE
8
BLACK
6
CONTINUOUS
10
62.8896370000000005
20
-135.9811169999999834
11
75.6638559999999956
21
-138.8130929999999807
0
ARC
8
BLACK
10
101.8906999999999954
20
-145.0657019999999875
40
0.4999883262247229
50
-27.50049344
51
74.99661896
0
LINE
8
BLACK
6
CONTINUOUS
10
225.589082999999988
20
-140.5162269999999864
11
226.1115399999999909
21
-142.4660629999999912
0
LINE
8
BLACK
6
CONTINUOUS
10
270.1052349999999933
20
-75.8049239999999998
11
280.7370990000000006
21
-130.501121999999981
0
CIRCLE
8
BLACK
10
146.8188999999999851
20
-136.613726999999983
40
1.0999999999999999
0
ARC
8
BLACK
10
250.5153999999999996
20
-76.251102000000003
40
2.5001857636633722
50
11.00442380
51
102.49591006
0
LINE
8
BLACK
6
CONTINUOUS
10
158.8188999999999851
20
-110.4786019999999951
11
151.7419840000000022
21
-110.4786019999999951
0
LINE
8
BLACK
6
CONTINUOUS
10
266.5879259999999817
20
-73.4324689999999975
11
253.0268689999999765
21
-76.0684719999999999
0
ARC
8
BLACK
10
93.292199999999994
20
-140.898302000000001
40
1.2999560919650324
50
-195.00191892
51
-105.00002763
0
ARC
8
BLACK
10
189.8192999999999984
20
-179.7909019999999884
40
2.9999115878505487
50
-152.50168327
51
-62.49834235
0
ARC
8
BLACK
10
225.9753999999999792
20
-140.4127019999999959
40
0.3999478092376554
50
-257.50736196
51
-164.99838489
0
CIRCLE
8
BLACK
10
170.8188609999999983
20
-110.6938990000000018
40
1.0999999999999999
0
LINE
8
BLACK
6
CONTINUOUS
10
167.0128609999999867
20
-129.1543099999999811
11
167.0128609999999867
21
-118.1543089999999978
0
ARC
8
BLACK
10
76.0533999999999963
20
-137.0558019999999999
40
1.8000357201858523
50
-102.49881796
51
-12.49833606
0
ARC
8
BLACK
10
127.8185000000000002
20
-179.7908019999999851
40
2.9999602740691413
50
-117.50077572
51
-27.50001085
0
ARC
8
BLACK
10
139.7187999999999874
20
-160.127601999999996
40
0.40000000153125
50
-180.00000000
51
-89.99498662
0
LINE
8
BLACK
6
CONTINUOUS
10
64.6681990000000013
20
-75.7738569999999925
11
64.6109309999999937
21
-76.0684719999999999
0
LINE
8
BLACK
6
CONTINUOUS
10
146.4508999999999901
20
-122.5730019999999882
11
143.8508999999999958
21
-122.5730019999999882
0
ARC
8
BLACK
10
146.4508999999999901
20
-123.0730019999999882
40
0.5
50
0.00000000
51
90.00000000
0
ARC
8
BLACK
10
67.1221999999999923
20
-76.2508019999999931
40
2.4999194869087282
50
77.49812706
51
169.00145051
0
ARC
8
BLACK
10
173.2629000000000019
20
-118.154201999999998
40
0.4998930015213255
50
-0.01226225
51
90.00447003
0
ARC
8
BLACK
10
39.8455000000000013
20
-131.073601999999994
40
2.9999325815052909
50
-191.00129475
51
-100.99863567
0
LINE
8
BLACK
6
CONTINUOUS
10
143.3508999999999958
20
-132.0730020000000025
11
143.3508999999999958
21
-123.0730019999999882
0
ARC
8
BLACK
10
167.5129000000000019
20
-129.1543020000000013
40
0.5000080015209757
50
-179.99908334
51
-90.00446900
0
ARC
8
BLACK
10
239.4146999999999821
20
-137.4332019999999943
40
0.3999154382716426
50
12.48779850
51
102.51180718
0
ARC
8
BLACK
10
267.1603000000000065
20
-76.3774020000000036
40
3.0000403947888765
50
11.00076160
51
100.99881916
0
ARC
8
BLACK
10
144.6206999999999994
20
-96.9247019999999964
40
3.0000431263993521
50
15.00062409
51
74.99976861
0
LINE
8
BLACK
6
CONTINUOUS
10
109.2247899999999987
20
-83.5362300000000033
11
109.1406119999999902
21
-83.9159229999999923
0
ARC
8
BLACK
10
146.4508999999999901
20
-132.0730020000000025
40
0.5
50
-90.00000000
51
-0.00000000
0
LINE
8
BLACK
6
CONTINUOUS
10
77.8107789999999966
20
-137.4453499999999906
11
77.8326429999999903
21
-137.3467269999999871
0
LINE
8
BLACK
6
CONTINUOUS
10
64.6109309999999937
20
-76.0684719999999999
11
51.0498739999999955
21
-73.4324689999999975
0
LINE
8
BLACK
6
CONTINUOUS
10
126.4332179999999966
20
-182.4518159999999796
11
93.5850469999999888
21
-165.3521429999999839
0
LINE
8
BLACK
6
CONTINUOUS
10
62.8744459999999989
20
-136.0592649999999821
11
62.8896370000000005
21
-135.9811169999999834
0
ARC
8
BLACK
10
177.2392999999999859
20
-163.2045019999999909
40
0.4999000004410882
50
27.49093646
51
90.00240690
0
LINE
8
BLACK
6
CONTINUOUS
10
158.8188999999999851
20
-110.4786019999999951
11
165.8958159999999964
21
-110.4786019999999951
0
ARC
8
BLACK
10
208.9010999999999854
20
-83.4280019999999922
40
0.4999451450749372
50
-257.50620662
51
-167.49764453
0
LINE
8
BLACK
6
CONTINUOUS
10
177.9188350000000014
20
-160.5276020000000017
11
139.7188349999999843
21
-160.5276020000000017
0
ARC
8
BLACK
10
173.0170999999999992
20
-96.9247019999999964
40
3.0000320716634015
50
105.00023139
51
164.99937591
0
ARC
8
BLACK
10
167.5129000000000019
20
-118.1543020000000013
40
0.5000390000489962
50
-269.99553087
51
-179.99919792
0
ARC
8
BLACK
10
143.8508999999999958
20
-123.0730019999999882
40
0.5
50
90.00000000
51
180.00000000
0
LINE
8
BLACK
6
CONTINUOUS
10
187.1583029999999894
20
-181.1760299999999972
11
177.6827839999999981
21
-162.9737279999999942
0
LINE
8
BLACK
6
CONTINUOUS
10
208.2101969999999937
20
-84.3888689999999997
11
172.2406199999999785
21
-94.0268859999999904
0
ARC
8
BLACK
10
277.7923000000000116
20
-131.073601999999994
40
2.9999290826286211
50
-79.00136433
51
11.00129475
0
LINE
8
BLACK
6
CONTINUOUS
10
143.8508999999999958
20
-132.5730020000000025
11
146.4508999999999901
21
-132.5730020000000025
0
ARC
8
BLACK
10
177.9188999999999794
20
-160.127601999999996
40
0.399935
50
-90.00931056
51
-0.00000000
0
ARC
8
BLACK
10
91.662399999999991
20
-140.4126019999999926
40
0.3998946619548703
50
-15.01545178
51
77.50426267
0
ARC
8
BLACK
10
173.2627999999999986
20
-129.1543020000000013
40
0.5000610000639922
50
-89.99301003
51
-0.00091662
0
LINE
8
BLACK
6
CONTINUOUS
10
78.3097379999999958
20
-137.0427839999999833
11
91.7489240000000024
21
-140.0221799999999917
0
LINE
8
BLACK
6
CONTINUOUS
10
39.2731560000000002
20
-134.0184309999999925
11
59.9433559999999943
21
-138.0363109999999836
0
LINE
8
BLACK
6
CONTINUOUS
10
102.3342320000000001
20
-145.2965949999999964
11
92.9471539999999976
21
-163.3290039999999976
0
LINE
8
BLACK
6
CONTINUOUS
10
225.888875999999982
20
-140.0221799999999917
11
239.3280619999999885
21
-137.0427839999999833
0
LINE
8
BLACK
6
CONTINUOUS
10
146.9508999999999901
20
-123.0730019999999882
11
146.9508999999999901
21
-132.0730020000000025
0
ARC
8
BLACK
10
139.7187999999999874
20
-147.9276020000000074
40
0.399966
50
89.99512986
51
180.00000000
0
LINE
8
BLACK
6
CONTINUOUS
10
108.8448629999999895
20
-82.9398599999999959
11
67.6633649999999989
21
-73.810141999999999
0
LINE
8
BLACK
6
CONTINUOUS
10
257.6944439999999759
20
-138.0363109999999836
11
278.3646439999999984
21
-134.0184309999999925
0
CIRCLE
8
BLACK
10
170.8188609999999983
20
-136.6142240000000072
40
1.0999999999999999
0
LINE
8
BLACK
6
CONTINUOUS
10
102.0201349999999962
20
-144.5827579999999841
11
92.9557459999999907
21
-142.1539630000000045
0
LINE
8
BLACK
6
CONTINUOUS
10
158.8188999999999851
20
-162.7046019999999942
11
177.239278999999982
21
-162.7046019999999942
0
ARC
8
BLACK
10
208.1066999999999894
20
-84.0025019999999927
40
0.3999710006800493
50
-75.00411291
51
12.50138380
0
CIRCLE
8
BLACK
10
249.2936369999999897
20
-377.7712270000000103
40
2.1499999999999999
0
CIRCLE
8
BLACK
10
68.3454929999999905
20
-377.7712270000000103
40
2.1499999999999999
0
CIRCLE
8
BLACK
10
258.9813980000000129
20
-434.2291369999999802
40
2.1499999999999999
0
CIRCLE
8
BLACK
10
146.8196889999999826
20
-436.6406139999999709
40
2.1499999999999999
0
CIRCLE
8
BLACK
10
180.5694989999999791
20
-395.2937979999999811
40
2.1499999999999999
0
CIRCLE
8
BLACK
10
58.6577319999999958
20
-434.2291369999999802
40
2.1499999999999999
0
CIRCLE
8
BLACK
10
188.5704989999999839
20
-456.8887979999999516
40
2.1499999999999999
0
CIRCLE
8
BLACK
10
170.8195259999999962
20
-436.613901999999996
40
2.1499999999999999
0
CIRCLE
8
BLACK
10
129.0686309999999821
20
-456.8887979999999516
40
2.1499999999999999
0
CIRCLE
8
BLACK
10
137.0696309999999869
20
-395.2937979999999811
40
2.1499999999999999
0
LINE
8
BLACK
6
CONTINUOUS
10
94.28873999999999
20
-281.0397229999999809
11
96.3207400000000007
21
-281.0397229999999809
0
LINE
8
BLACK
6
CONTINUOUS
10
96.3207400000000007
20
-281.0397229999999809
11
96.3207400000000007
21
-275.8581229999999778
0
LINE
8
BLACK
6
CONTINUOUS
10
96.3207400000000007
20
-275.8581229999999778
11
94.28873999999999
21
-275.8581229999999778
0
LINE
8
BLACK
6
CONTINUOUS
10
94.28873999999999
20
-275.8581229999999778
11
94.28873999999999
21
-281.0397229999999809
0
LINE
8
BLACK
6
CONTINUOUS
10
119.1223090000000013
20
-304.4001739999999927
11
117.0903089999999906
21
-304.4001739999999927
0
LINE
8
BLACK
6
CONTINUOUS
10
117.0903089999999906
20
-304.4001739999999927
11
117.0903089999999906
21
-309.5817739999999958
0
LINE
8
BLACK
6
CONTINUOUS
10
117.0903089999999906
20
-309.5817739999999958
11
119.1223090000000013
21
-309.5817739999999958
0
LINE
8
BLACK
6
CONTINUOUS
10
119.1223090000000013
20
-309.5817739999999958
11
119.1223090000000013
21
-304.4001739999999927
0
LINE
8
BLACK
6
CONTINUOUS
10
231.8453899999999805
20
-244.6216359999999952
11
233.8773899999999912
21
-244.6216359999999952
0
LINE
8
BLACK
6
CONTINUOUS
10
233.8773899999999912
20
-244.6216359999999952
11
233.8773899999999912
21
-239.4400359999999921
0
LINE
8
BLACK
6
CONTINUOUS
10
233.8773899999999912
20
-239.4400359999999921
11
231.8453899999999805
21
-239.4400359999999921
0
LINE
8
BLACK
6
CONTINUOUS
10
231.8453899999999805
20
-239.4400359999999921
11
231.8453899999999805
21
-244.6216359999999952
0
LINE
8
BLACK
6
CONTINUOUS
10
77.2729339999999922
20
-273.9948029999999903
11
75.2409339999999958
21
-273.9948029999999903
0
LINE
8
BLACK
6
CONTINUOUS
10
75.2409339999999958
20
-273.9948029999999903
11
75.2409339999999958
21
-279.1764029999999934
0
LINE
8
BLACK
6
CONTINUOUS
10
75.2409339999999958
20
-279.1764029999999934
11
77.2729339999999922
21
-279.1764029999999934
0
LINE
8
BLACK
6
CONTINUOUS
10
77.2729339999999922
20
-279.1764029999999934
11
77.2729339999999922
21
-273.9948029999999903
0
LINE
8
BLACK
6
CONTINUOUS
10
185.1607779999999934
20
-312.9740830000000074
11
183.1287779999999827
21
-312.9740830000000074
0
LINE
8
BLACK
6
CONTINUOUS
10
183.1287779999999827
20
-312.9740830000000074
11
183.1287779999999827
21
-318.1556830000000105
0
LINE
8
BLACK
6
CONTINUOUS
10
183.1287779999999827
20
-318.1556830000000105
11
185.1607779999999934
21
-318.1556830000000105
0
LINE
8
BLACK
6
CONTINUOUS
10
185.1607779999999934
20
-318.1556830000000105
11
185.1607779999999934
21
-312.9740830000000074
0
LINE
8
BLACK
6
CONTINUOUS
10
60.2069619999999972
20
-258.6114129999999705
11
62.2389619999999937
21
-258.6114129999999705
0
LINE
8
BLACK
6
CONTINUOUS
10
62.2389619999999937
20
-258.6114129999999705
11
62.2389619999999937
21
-253.4298129999999958
0
LINE
8
BLACK
6
CONTINUOUS
10
62.2389619999999937
20
-253.4298129999999958
11
60.2069619999999972
21
-253.4298129999999958
0
LINE
8
BLACK
6
CONTINUOUS
10
60.2069619999999972
20
-253.4298129999999958
11
60.2069619999999972
21
-258.6114129999999705
0
LINE
8
BLACK
6
CONTINUOUS
10
235.9518520000000024
20
-263.1835879999999861
11
237.9838519999999846
21
-263.1835879999999861
0
LINE
8
BLACK
6
CONTINUOUS
10
237.9838519999999846
20
-263.1835879999999861
11
237.9838519999999846
21
-258.001987999999983
0
LINE
8
BLACK
6
CONTINUOUS
10
237.9838519999999846
20
-258.001987999999983
11
235.9518520000000024
21
-258.001987999999983
0
LINE
8
BLACK
6
CONTINUOUS
10
235.9518520000000024
20
-258.001987999999983
11
235.9518520000000024
21
-263.1835879999999861
0
LINE
8
BLACK
6
CONTINUOUS
10
187.6844030000000032
20
-293.9748829999999771
11
185.6524029999999925
21
-293.9748829999999771
0
LINE
8
BLACK
6
CONTINUOUS
10
185.6524029999999925
20
-293.9748829999999771
11
185.6524029999999925
21
-299.1564829999999802
0
LINE
8
BLACK
6
CONTINUOUS
10
185.6524029999999925
20
-299.1564829999999802
11
187.6844030000000032
21
-299.1564829999999802
0
LINE
8
BLACK
6
CONTINUOUS
10
187.6844030000000032
20
-299.1564829999999802
11
187.6844030000000032
21
-293.9748829999999771
0
LINE
8
BLACK
6
CONTINUOUS
10
102.543580999999989
20
-243.965800999999999
11
104.5755809999999997
21
-243.965800999999999
0
LINE
8
BLACK
6
CONTINUOUS
10
104.5755809999999997
20
-243.965800999999999
11
104.5755809999999997
21
-238.7842009999999959
0
LINE
8
BLACK
6
CONTINUOUS
10
104.5755809999999997
20
-238.7842009999999959
11
102.543580999999989
21
-238.7842009999999959
0
LINE
8
BLACK
6
CONTINUOUS
10
102.543580999999989
20
-238.7842009999999959
11
102.543580999999989
21
-243.965800999999999
0
LINE
8
BLACK
6
CONTINUOUS
10
114.0911079999999913
20
-283.6160029999999779
11
112.0591079999999948
21
-283.6160029999999779
0
LINE
8
BLACK
6
CONTINUOUS
10
112.0591079999999948
20
-283.6160029999999779
11
112.0591079999999948
21
-288.797602999999981
0
LINE
8
BLACK
6
CONTINUOUS
10
112.0591079999999948
20
-288.797602999999981
11
114.0911079999999913
21
-288.797602999999981
0
LINE
8
BLACK
6
CONTINUOUS
10
114.0911079999999913
20
-288.797602999999981
11
114.0911079999999913
21
-283.6160029999999779
0
LINE
8
BLACK
6
CONTINUOUS
10
198.6227779999999825
20
-311.0436829999999873
11
200.6547779999999932
21
-311.0436829999999873
0
LINE
8
BLACK
6
CONTINUOUS
10
200.6547779999999932
20
-311.0436829999999873
11
200.6547779999999932
21
-305.8620829999999842
0
LINE
8
BLACK
6
CONTINUOUS
10
200.6547779999999932
20
-305.8620829999999842
11
198.6227779999999825
21
-305.8620829999999842
0
LINE
8
BLACK
6
CONTINUOUS
10
198.6227779999999825
20
-305.8620829999999842
11
198.6227779999999825
21
-311.0436829999999873
0
LINE
8
BLACK
6
CONTINUOUS
10
260.9820950000000153
20
-274.5152830000000108
11
258.9500949999999762
21
-274.5152830000000108
0
LINE
8
BLACK
6
CONTINUOUS
10
258.9500949999999762
20
-274.5152830000000108
11
258.9500949999999762
21
-279.6968830000000139
0
LINE
8
BLACK
6
CONTINUOUS
10
258.9500949999999762
20
-279.6968830000000139
11
260.9820950000000153
21
-279.6968830000000139
0
LINE
8
BLACK
6
CONTINUOUS
10
260.9820950000000153
20
-279.6968830000000139
11
260.9820950000000153
21
-274.5152830000000108
0
LINE
8
BLACK
6
CONTINUOUS
10
214.8041879999999821
20
-241.8198999999999899
11
212.7721879999999999
21
-241.8198999999999899
0
LINE
8
BLACK
6
CONTINUOUS
10
212.7721879999999999
20
-241.8198999999999899
11
212.7721879999999999
21
-247.001499999999993
0
LINE
8
BLACK
6
CONTINUOUS
10
212.7721879999999999
20
-247.001499999999993
11
214.8041879999999821
21
-247.001499999999993
0
LINE
8
BLACK
6
CONTINUOUS
10
214.8041879999999821
20
-247.001499999999993
11
214.8041879999999821
21
-241.8198999999999899
0
LINE
8
BLACK
6
CONTINUOUS
10
98.4116810000000015
20
-262.502475000000004
11
100.443680999999998
21
-262.502475000000004
0
LINE
8
BLACK
6
CONTINUOUS
10
100.443680999999998
20
-262.502475000000004
11
100.443680999999998
21
-257.3208750000000009
0
LINE
8
BLACK
6
CONTINUOUS
10
100.443680999999998
20
-257.3208750000000009
11
98.4116810000000015
21
-257.3208750000000009
0
LINE
8
BLACK
6
CONTINUOUS
10
98.4116810000000015
20
-257.3208750000000009
11
98.4116810000000015
21
-262.502475000000004
0
LINE
8
BLACK
6
CONTINUOUS
10
240.0748349999999789
20
-281.7198730000000069
11
242.1068349999999896
21
-281.7198730000000069
0
LINE
8
BLACK
6
CONTINUOUS
10
242.1068349999999896
20
-281.7198730000000069
11
242.1068349999999896
21
-276.5382730000000038
0
LINE
8
BLACK
6
CONTINUOUS
10
242.1068349999999896
20
-276.5382730000000038
11
240.0748349999999789
21
-276.5382730000000038
0
LINE
8
BLACK
6
CONTINUOUS
10
240.0748349999999789
20
-276.5382730000000038
11
240.0748349999999789
21
-281.7198730000000069
0
LINE
8
BLACK
6
CONTINUOUS
10
133.6003089999999816
20
-315.9793740000000071
11
135.6323089999999922
21
-315.9793740000000071
0
LINE
8
BLACK
6
CONTINUOUS
10
135.6323089999999922
20
-315.9793740000000071
11
135.6323089999999922
21
-310.797774000000004
0
LINE
8
BLACK
6
CONTINUOUS
10
135.6323089999999922
20
-310.797774000000004
11
133.6003089999999816
21
-310.797774000000004
0
LINE
8
BLACK
6
CONTINUOUS
10
133.6003089999999816
20
-310.797774000000004
11
133.6003089999999816
21
-315.9793740000000071
0
LINE
8
BLACK
6
CONTINUOUS
10
199.0822269999999889
20
-272.8186159999999632
11
201.1142269999999996
21
-272.8186159999999632
0
LINE
8
BLACK
6
CONTINUOUS
10
201.1142269999999996
20
-272.8186159999999632
11
201.1142269999999996
21
-267.6370159999999601
0
LINE
8
BLACK
6
CONTINUOUS
10
201.1142269999999996
20
-267.6370159999999601
11
199.0822269999999889
21
-267.6370159999999601
0
LINE
8
BLACK
6
CONTINUOUS
10
199.0822269999999889
20
-267.6370159999999601
11
199.0822269999999889
21
-272.8186159999999632
0
LINE
8
BLACK
6
CONTINUOUS
10
203.2566609999999798
20
-291.3410729999999944
11
205.2886609999999905
21
-291.3410729999999944
0
LINE
8
BLACK
6
CONTINUOUS
10
205.2886609999999905
20
-291.3410729999999944
11
205.2886609999999905
21
-286.1594729999999913
0
LINE
8
BLACK
6
CONTINUOUS
10
205.2886609999999905
20
-286.1594729999999913
11
203.2566609999999798
21
-286.1594729999999913
0
LINE
8
BLACK
6
CONTINUOUS
10
203.2566609999999798
20
-286.1594729999999913
11
203.2566609999999798
21
-291.3410729999999944
0
LINE
8
BLACK
6
CONTINUOUS
10
129.6633659999999963
20
-296.6130129999999667
11
131.695366000000007
21
-296.6130129999999667
0
LINE
8
BLACK
6
CONTINUOUS
10
131.695366000000007
20
-296.6130129999999667
11
131.695366000000007
21
-291.4314129999999636
0
LINE
8
BLACK
6
CONTINUOUS
10
131.695366000000007
20
-291.4314129999999636
11
129.6633659999999963
21
-291.4314129999999636
0
LINE
8
BLACK
6
CONTINUOUS
10
129.6633659999999963
20
-291.4314129999999636
11
129.6633659999999963
21
-296.6130129999999667
0
LINE
8
BLACK
6
CONTINUOUS
10
56.3656739999999985
20
-277.1534130000000005
11
58.397673999999995
21
-277.1534130000000005
0
LINE
8
BLACK
6
CONTINUOUS
10
58.397673999999995
20
-277.1534130000000005
11
58.397673999999995
21
-271.9718129999999974
0
LINE
8
BLACK
6
CONTINUOUS
10
58.397673999999995
20
-271.9718129999999974
11
56.3656739999999985
21
-271.9718129999999974
0
LINE
8
BLACK
6
CONTINUOUS
10
56.3656739999999985
20
-271.9718129999999974
11
56.3656739999999985
21
-277.1534130000000005
0
LINE
8
BLACK
6
CONTINUOUS
10
178.8836379999999906
20
-256.9859339999999861
11
176.8516379999999799
21
-256.9859339999999861
0
LINE
8
BLACK
6
CONTINUOUS
10
176.8516379999999799
20
-256.9859339999999861
11
176.8516379999999799
21
-262.1675339999999892
0
LINE
8
BLACK
6
CONTINUOUS
10
176.8516379999999799
20
-262.1675339999999892
11
178.8836379999999906
21
-262.1675339999999892
0
LINE
8
BLACK
6
CONTINUOUS
10
178.8836379999999906
20
-262.1675339999999892
11
178.8836379999999906
21
-256.9859339999999861
0
LINE
8
BLACK
6
CONTINUOUS
10
223.0590289999999811
20
-278.8938220000000001
11
221.0270289999999989
21
-278.8938220000000001
0
LINE
8
BLACK
6
CONTINUOUS
10
221.0270289999999989
20
-278.8938220000000001
11
221.0270289999999989
21
-284.0754220000000032
0
LINE
8
BLACK
6
CONTINUOUS
10
221.0270289999999989
20
-284.0754220000000032
11
223.0590289999999811
21
-284.0754220000000032
0
LINE
8
BLACK
6
CONTINUOUS
10
223.0590289999999811
20
-284.0754220000000032
11
223.0590289999999811
21
-278.8938220000000001
0
LINE
8
BLACK
6
CONTINUOUS
10
257.1408069999999952
20
-255.9732829999999808
11
255.1088069999999846
21
-255.9732829999999808
0
LINE
8
BLACK
6
CONTINUOUS
10
255.1088069999999846
20
-255.9732829999999808
11
255.1088069999999846
21
-261.1548829999999839
0
LINE
8
BLACK
6
CONTINUOUS
10
255.1088069999999846
20
-261.1548829999999839
11
257.1408069999999952
21
-261.1548829999999839
0
LINE
8
BLACK
6
CONTINUOUS
10
257.1408069999999952
20
-261.1548829999999839
11
257.1408069999999952
21
-255.9732829999999808
0
LINE
8
BLACK
6
CONTINUOUS
10
218.9360879999999838
20
-260.3565739999999664
11
216.9040880000000016
21
-260.3565739999999664
0
LINE
8
BLACK
6
CONTINUOUS
10
216.9040880000000016
20
-260.3565739999999664
11
216.9040880000000016
21
-265.5381739999999695
0
LINE
8
BLACK
6
CONTINUOUS
10
216.9040880000000016
20
-265.5381739999999695
11
218.9360879999999838
21
-265.5381739999999695
0
LINE
8
BLACK
6
CONTINUOUS
10
218.9360879999999838
20
-265.5381739999999695
11
218.9360879999999838
21
-260.3565739999999664
0
LINE
8
BLACK
6
CONTINUOUS
10
138.4641309999999805
20
-259.6240639999999757
11
140.4961309999999912
21
-259.6240639999999757
0
LINE
8
BLACK
6
CONTINUOUS
10
140.4961309999999912
20
-259.6240639999999757
11
140.4961309999999912
21
-254.4424640000000011
0
LINE
8
BLACK
6
CONTINUOUS
10
140.4961309999999912
20
-254.4424640000000011
11
138.4641309999999805
21
-254.4424640000000011
0
LINE
8
BLACK
6
CONTINUOUS
10
138.4641309999999805
20
-254.4424640000000011
11
138.4641309999999805
21
-259.6240639999999757
0
LINE
8
BLACK
6
CONTINUOUS
10
194.4309279999999944
20
-254.3416839999999866
11
196.4629280000000051
21
-254.3416839999999866
0
LINE
8
BLACK
6
CONTINUOUS
10
196.4629280000000051
20
-254.3416839999999866
11
196.4629280000000051
21
-249.1600839999999835
0
LINE
8
BLACK
6
CONTINUOUS
10
196.4629280000000051
20
-249.1600839999999835
11
194.4309279999999944
21
-249.1600839999999835
0
LINE
8
BLACK
6
CONTINUOUS
10
194.4309279999999944
20
-249.1600839999999835
11
194.4309279999999944
21
-254.3416839999999866
0
LINE
8
BLACK
6
CONTINUOUS
10
118.2655419999999964
20
-265.0935460000000035
11
116.2335419999999999
21
-265.0935460000000035
0
LINE
8
BLACK
6
CONTINUOUS
10
116.2335419999999999
20
-265.0935460000000035
11
116.2335419999999999
21
-270.2751460000000066
0
LINE
8
BLACK
6
CONTINUOUS
10
116.2335419999999999
20
-270.2751460000000066
11
118.2655419999999964
21
-270.2751460000000066
0
LINE
8
BLACK
6
CONTINUOUS
10
118.2655419999999964
20
-270.2751460000000066
11
118.2655419999999964
21
-265.0935460000000035
0
CIRCLE
8
BLACK
10
249.2931809999999757
20
-227.7715209999999786
40
1.0999999999999999
0
CIRCLE
8
BLACK
10
272.9045019999999795
20
-272.6514980000000037
40
0.85
0
CIRCLE
8
BLACK
10
267.9178359999999657
20
-273.6208080000000109
40
2.
0
ARC
8
BLACK
10
267.5824969999999894
20
-273.4086409999999887
40
2.2678882812982653
50
-259.64438993
51
-178.84437458
0
ARC
8
BLACK
10
262.9291309999999839
20
-274.5784189999999967
40
0.855913103479553
50
-218.22121830
51
60.26204342
0
ARC
8
BLACK
10
262.5220749999999725
20
-269.3754419999999641
40
1.8806440531554607
50
-260.26663205
51
-169.30690836
0
LINE
8
BLACK
6
CONTINUOUS
10
274.090282000000002
20
-268.5918530000000146
11
273.5717019999999593
21
-265.9239860000000135
0
LINE
8
BLACK
6
CONTINUOUS
10
274.090282000000002
20
-268.5918530000000146
11
272.2371559999999704
21
-268.9520640000000071
0
LINE
8
BLACK
6
CONTINUOUS
10
273.5717019999999593
20
-265.9239860000000135
11
271.7185749999999871
21
-266.2841980000000035
0
LINE
8
BLACK
6
CONTINUOUS
10
272.4697140000000104
20
-270.1484719999999697
11
272.2371559999999704
21
-268.9520640000000071
0
LINE
8
BLACK
6
CONTINUOUS
10
272.4697140000000104
20
-270.1484719999999697
11
267.1748279999999909
21
-271.177693999999974
0
LINE
8
BLACK
6
CONTINUOUS
10
271.7185749999999871
20
-266.2841980000000035
11
271.6039930000000027
21
-265.6947220000000129
0
LINE
8
BLACK
6
CONTINUOUS
10
271.6039930000000027
20
-265.6947220000000129
11
262.2041269999999713
21
-267.5218699999999785
0
LINE
8
BLACK
6
CONTINUOUS
10
263.3536929999999643
20
-273.8352269999999749
11
265.3150699999999915
21
-273.4543800000000147
0
LINE
8
BLACK
6
CONTINUOUS
10
261.5416960000000017
20
-274.187849999999969
11
262.2567030000000159
21
-274.0488669999999729
0
LINE
8
BLACK
6
CONTINUOUS
10
261.4495359999999664
20
-273.7137250000000108
11
261.5416960000000017
21
-274.187849999999969
0
LINE
8
BLACK
6
CONTINUOUS
10
260.6740879999999834
20
-269.7243919999999662
11
260.9309549999999831
21
-271.0458590000000072
0
LINE
8
BLACK
6
CONTINUOUS
10
259.5964089999999942
20
-274.0739360000000033
11
261.4495359999999664
21
-273.7137250000000108
0
LINE
8
BLACK
6
CONTINUOUS
10
259.0778280000000109
20
-271.4060699999999997
11
260.9309549999999831
21
-271.0458590000000072
0
LINE
8
BLACK
6
CONTINUOUS
10
259.0778280000000109
20
-271.4060699999999997
11
259.5964089999999942
21
-274.0739360000000033
0
CIRCLE
8
BLACK
10
194.8976129999999785
20
-272.6204559999999901
40
0.85
0
CIRCLE
8
BLACK
10
189.9907099999999787
20
-273.9352569999999787
40
2.
0
ARC
8
BLACK
10
189.6413879999999779
20
-273.7469979999999623
40
2.2678883644434529
50
-255.64438224
51
-174.84433149
0
ARC
8
BLACK
10
185.0809569999999837
20
-275.2385299999999688
40
0.855913345630853
50
-214.22121554
51
64.26207614
0
ARC
8
BLACK
10
184.3119509999999934
20
-270.0766219999999862
40
1.8806441659221449
50
-256.26663724
51
-165.30691027
0
LINE
8
BLACK
6
CONTINUOUS
10
195.79731799999999
20
-268.4879839999999831
11
195.0938999999999908
21
-265.8627910000000156
0
LINE
8
BLACK
6
CONTINUOUS
10
195.79731799999999
20
-268.4879839999999831
11
193.9738329999999848
21
-268.976585
0
LINE
8
BLACK
6
CONTINUOUS
10
195.0938999999999908
20
-265.8627910000000156
11
193.2704149999999856
21
-266.3513919999999757
0
LINE
8
BLACK
6
CONTINUOUS
10
194.2892819999999858
20
-270.1538569999999595
11
193.9738329999999848
21
-268.976585
0
LINE
8
BLACK
6
CONTINUOUS
10
194.2892819999999858
20
-270.1538569999999595
11
189.079088999999982
21
-271.5499239999999759
0
LINE
8
BLACK
6
CONTINUOUS
10
193.2704149999999856
20
-266.3513919999999757
11
193.1149910000000034
21
-265.7713449999999966
0
LINE
8
BLACK
6
CONTINUOUS
10
193.1149910000000034
20
-265.7713449999999966
11
183.8654789999999934
21
-268.2497439999999642
0
LINE
8
BLACK
6
CONTINUOUS
10
185.4526419999999973
20
-274.4675320000000056
11
187.3826749999999777
21
-273.950794999999971
0
LINE
8
BLACK
6
CONTINUOUS
10
183.6696570000000008
20
-274.9456950000000006
11
184.3732269999999858
21
-274.7571739999999636
0
LINE
8
BLACK
6
CONTINUOUS
10
183.5446479999999951
20
-274.4791549999999916
11
183.6696570000000008
21
-274.9456950000000006
0
LINE
8
BLACK
6
CONTINUOUS
10
182.4928069999999991
20
-270.5536309999999958
11
182.8412289999999985
21
-271.8539599999999723
0
LINE
8
BLACK
6
CONTINUOUS
10
181.7211619999999925
20
-274.967755000000011
11
183.5446479999999951
21
-274.4791549999999916
0
LINE
8
BLACK
6
CONTINUOUS
10
181.0177439999999933
20
-272.3425619999999867
11
182.8412289999999985
21
-271.8539599999999723
0
LINE
8
BLACK
6
CONTINUOUS
10
181.0177439999999933
20
-272.3425619999999867
11
181.7211619999999925
21
-274.967755000000011
0
CIRCLE
8
BLACK
10
77.7566079999999999
20
-258.03755799999999
40
0.85
0
CIRCLE
8
BLACK
10
72.7970239999999933
20
-256.9380449999999882
40
2.
0
ARC
8
BLACK
10
72.5740909999999957
20
-256.6097419999999829
40
2.2678742760552222
50
76.85531712
51
157.65594419
0
ARC
8
BLACK
10
67.8402359999999902
20
-255.826989999999995
40
0.8559123153623857
50
-241.72112903
51
36.76208212
0
ARC
8
BLACK
10
69.5416239999999988
20
-250.8932369999999992
40
1.8806458817993885
50
76.23343004
51
167.19304127
0
LINE
8
BLACK
6
CONTINUOUS
10
81.0510589999999951
20
-252.1340709999999774
11
79.2079969999999918
21
-251.7254739999999913
0
LINE
8
BLACK
6
CONTINUOUS
10
80.4628189999999961
20
-254.7874479999999835
11
81.0510589999999951
21
-252.1340709999999774
0
LINE
8
BLACK
6
CONTINUOUS
10
80.4628189999999961
20
-254.7874479999999835
11
78.6197569999999928
21
-254.3788509999999974
0
LINE
8
BLACK
6
CONTINUOUS
10
79.337970999999996
20
-251.1391989999999907
11
69.9891549999999967
21
-249.0666169999999795
0
LINE
8
BLACK
6
CONTINUOUS
10
79.2079969999999918
20
-251.7254739999999913
11
79.337970999999996
21
-251.1391989999999907
0
LINE
8
BLACK
6
CONTINUOUS
10
78.3559599999999961
20
-255.5687619999999924
11
78.6197569999999928
21
-254.3788509999999974
0
LINE
8
BLACK
6
CONTINUOUS
10
78.3559599999999961
20
-255.5687619999999924
11
73.0898299999999921
21
-254.4012889999999913
0
LINE
8
BLACK
6
CONTINUOUS
10
68.5259309999999999
20
-255.3147319999999922
11
70.4764940000000024
21
-255.7475699999999961
0
LINE
8
BLACK
6
CONTINUOUS
10
67.7077639999999974
20
-250.4763599999999997
11
67.4163929999999993
21
-251.7906490000000019
0
LINE
8
BLACK
6
CONTINUOUS
10
66.8281530000000004
20
-254.4440269999999771
11
66.7236130000000003
21
-254.9155769999999848
0
LINE
8
BLACK
6
CONTINUOUS
10
66.7236130000000003
20
-254.9155769999999848
11
67.4347360000000009
21
-255.0732289999999978
0
LINE
8
BLACK
6
CONTINUOUS
10
65.573330999999996
20
-251.3820519999999874
11
67.4163929999999993
21
-251.7906490000000019
0
LINE
8
BLACK
6
CONTINUOUS
10
65.573330999999996
20
-251.3820519999999874
11
64.9850909999999971
21
-254.035429999999991
0
LINE
8
BLACK
6
CONTINUOUS
10
64.9850909999999971
20
-254.035429999999991
11
66.8281530000000004
21
-254.4440269999999771
0
CIRCLE
8
BLACK
10
166.429113000000001
20
-296.2353739999999789
40
0.85
0
CIRCLE
8
BLACK
10
166.429113000000001
20
-293.6953739999999584
40
0.85
0
CIRCLE
8
BLACK
10
166.429113000000001
20
-291.1553739999999948
40
0.85
0
CIRCLE
8
BLACK
10
166.429113000000001
20
-288.6153739999999743
40
0.85
0
CIRCLE
8
BLACK
10
166.429113000000001
20
-286.0753740000000107
40
0.85
0
CIRCLE
8
BLACK
10
166.429113000000001
20
-283.5353739999999902
40
0.85
0
CIRCLE
8
BLACK
10
166.429113000000001
20
-280.9953739999999698
40
0.85
0
CIRCLE
8
BLACK
10
166.429113000000001
20
-278.4553740000000062
40
0.85
0
CIRCLE
8
BLACK
10
166.429113000000001
20
-275.9153739999999857
40
0.85
0
CIRCLE
8
BLACK
10
166.429113000000001
20
-273.3753739999999652
40
0.85
0
CIRCLE
8
BLACK
10
166.429113000000001
20
-270.8353740000000016
40
0.85
0
CIRCLE
8
BLACK
10
166.429113000000001
20
-268.2953739999999812
40
0.85
0
CIRCLE
8
BLACK
10
151.1891129999999919
20
-296.2353739999999789
40
0.85
0
CIRCLE
8
BLACK
10
151.1891129999999919
20
-293.6953739999999584
40
0.85
0
CIRCLE
8
BLACK
10
151.1891129999999919
20
-291.1553739999999948
40
0.85
0
CIRCLE
8
BLACK
10
151.1891129999999919
20
-288.6153739999999743
40
0.85
0
CIRCLE
8
BLACK
10
151.1891129999999919
20
-286.0753740000000107
40
0.85
0
CIRCLE
8
BLACK
10
151.1891129999999919
20
-283.5353739999999902
40
0.85
0
CIRCLE
8
BLACK
10
151.1891129999999919
20
-280.9953739999999698
40
0.85
0
CIRCLE
8
BLACK
10
151.1891129999999919
20
-278.4553740000000062
40
0.85
0
CIRCLE
8
BLACK
10
151.1891129999999919
20
-275.9153739999999857
40
0.85
0
CIRCLE
8
BLACK
10
151.1891129999999919
20
-273.3753739999999652
40
0.85
0
CIRCLE
8
BLACK
10
151.1891129999999919
20
-270.8353740000000016
40
0.85
0
CIRCLE
8
BLACK
10
151.1891129999999919
20
-268.2953739999999812
40
0.85
0
LINE
8
BLACK
6
CONTINUOUS
10
252.6322600000000023
20
-237.5744439999999997
11
250.6002599999999916
21
-237.5744439999999997
0
LINE
8
BLACK
6
CONTINUOUS
10
250.6002599999999916
20
-237.5744439999999997
11
250.6002599999999916
21
-242.7560440000000028
0
LINE
8
BLACK
6
CONTINUOUS
10
250.6002599999999916
20
-242.7560440000000028
11
252.6322600000000023
21
-242.7560440000000028
0
LINE
8
BLACK
6
CONTINUOUS
10
252.6322600000000023
20
-242.7560440000000028
11
252.6322600000000023
21
-237.5744439999999997
0
LINE
8
BLACK
6
CONTINUOUS
10
85.5023789999999906
20
-236.8965659999999787
11
83.4703789999999941
21
-236.8965659999999787
0
LINE
8
BLACK
6
CONTINUOUS
10
83.4703789999999941
20
-236.8965659999999787
11
83.4703789999999941
21
-242.0781659999999818
0
LINE
8
BLACK
6
CONTINUOUS
10
83.4703789999999941
20
-242.0781659999999818
11
85.5023789999999906
21
-242.0781659999999818
0
LINE
8
BLACK
6
CONTINUOUS
10
85.5023789999999906
20
-242.0781659999999818
11
85.5023789999999906
21
-236.8965659999999787
0
CIRCLE
8
BLACK
10
111.8949769999999972
20
-310.6722509999999602
40
0.85
0
CIRCLE
8
BLACK
10
107.3889619999999923
20
-308.3265680000000089
40
2.
0
ARC
8
BLACK
10
107.2586009999999987
20
-307.9517710000000079
40
2.2678891599639517
50
61.85564311
51
142.65563538
0
ARC
8
BLACK
10
105.8089939999999984
20
-301.6451609999999732
40
1.880637114684808
50
61.23313142
51
152.19328461
0
ARC
8
BLACK
10
102.8886339999999961
20
-305.9704600000000028
40
0.8559125398035713
50
-256.72120331
51
21.76205401
0
LINE
8
BLACK
6
CONTINUOUS
10
116.6051080000000013
20
-305.8225869999999986
11
114.9305990000000008
21
-304.9508930000000078
0
LINE
8
BLACK
6
CONTINUOUS
10
115.350166999999999
20
-308.233304999999973
11
116.6051080000000013
21
-305.8225869999999986
0
LINE
8
BLACK
6
CONTINUOUS
10
115.350166999999999
20
-308.233304999999973
11
113.6756579999999985
21
-307.3616109999999821
0
LINE
8
BLACK
6
CONTINUOUS
10
115.2078829999999954
20
-304.4182349999999815
11
106.7140449999999987
21
-299.9966220000000021
0
LINE
8
BLACK
6
CONTINUOUS
10
114.9305990000000008
20
-304.9508930000000078
11
115.2078829999999954
21
-304.4182349999999815
0
LINE
8
BLACK
6
CONTINUOUS
10
113.1128789999999924
20
-308.4427000000000021
11
113.6756579999999985
21
-307.3616109999999821
0
LINE
8
BLACK
6
CONTINUOUS
10
113.1128789999999924
20
-308.4427000000000021
11
108.3283519999999953
21
-305.9520329999999717
0
LINE
8
BLACK
6
CONTINUOUS
10
104.1455210000000022
20
-300.7678619999999796
11
103.5239150000000024
21
-301.9619559999999865
0
LINE
8
BLACK
6
CONTINUOUS
10
103.6835469999999901
20
-305.6531279999999811
11
105.4556199999999961
21
-306.576059999999984
0
LINE
8
BLACK
6
CONTINUOUS
10
102.2689749999999975
20
-304.3726739999999609
11
102.0459510000000023
21
-304.8010989999999651
0
LINE
8
BLACK
6
CONTINUOUS
10
102.0459510000000023
20
-304.8010989999999651
11
102.6920399999999916
21
-305.1374319999999898
0
LINE
8
BLACK
6
CONTINUOUS
10
101.8494069999999994
20
-301.0902619999999956
11
103.5239150000000024
21
-301.9619559999999865
0
LINE
8
BLACK
6
CONTINUOUS
10
101.8494069999999994
20
-301.0902619999999956
11
100.5944659999999971
21
-303.50097999999997
0
LINE
8
BLACK
6
CONTINUOUS
10
100.5944659999999971
20
-303.50097999999997
11
102.2689749999999975
21
-304.3726739999999609
0
LINE
8
BLACK
6
CONTINUOUS
10
64.664709000000002
20
-239.734973999999994
11
66.6967089999999985
21
-239.734973999999994
0
LINE
8
BLACK
6
CONTINUOUS
10
66.6967089999999985
20
-239.734973999999994
11
66.6967089999999985
21
-234.5533739999999909
0
LINE
8
BLACK
6
CONTINUOUS
10
66.6967089999999985
20
-234.5533739999999909
11
64.664709000000002
21
-234.5533739999999909
0
LINE
8
BLACK
6
CONTINUOUS
10
64.664709000000002
20
-234.5533739999999909
11
64.664709000000002
21
-239.734973999999994
0
LINE
8
BLACK
6
CONTINUOUS
10
81.3959169999999972
20
-255.458517999999998
11
79.3639170000000007
21
-255.458517999999998
0
LINE
8
BLACK
6
CONTINUOUS
10
79.3639170000000007
20
-255.458517999999998
11
79.3639170000000007
21
-260.6401179999999727
0
LINE
8
BLACK
6
CONTINUOUS
10
79.3639170000000007
20
-260.6401179999999727
11
81.3959169999999972
21
-260.6401179999999727
0
LINE
8
BLACK
6
CONTINUOUS
10
81.3959169999999972
20
-260.6401179999999727
11
81.3959169999999972
21
-255.458517999999998
0
LINE
8
BLACK
6
CONTINUOUS
10
122.9168409999999909
20
-246.6166139999999984
11
120.8848409999999944
21
-246.6166139999999984
0
LINE
8
BLACK
6
CONTINUOUS
10
120.8848409999999944
20
-246.6166139999999984
11
120.8848409999999944
21
-251.7982140000000015
0
LINE
8
BLACK
6
CONTINUOUS
10
120.8848409999999944
20
-251.7982140000000015
11
122.9168409999999909
21
-251.7982140000000015
0
LINE
8
BLACK
6
CONTINUOUS
10
122.9168409999999909
20
-251.7982140000000015
11
122.9168409999999909
21
-246.6166139999999984
0
LINE
8
BLACK
6
CONTINUOUS
10
134.0665909999999883
20
-278.089917000000014
11
136.098590999999999
21
-278.089917000000014
0
LINE
8
BLACK
6
CONTINUOUS
10
136.098590999999999
20
-278.089917000000014
11
136.098590999999999
21
-272.9083170000000109
0
LINE
8
BLACK
6
CONTINUOUS
10
136.098590999999999
20
-272.9083170000000109
11
134.0665909999999883
21
-272.9083170000000109
0
LINE
8
BLACK
6
CONTINUOUS
10
134.0665909999999883
20
-272.9083170000000109
11
134.0665909999999883
21
-278.089917000000014
0
LINE
8
BLACK
6
CONTINUOUS
10
183.2811779999999828
20
-275.4517869999999675
11
181.2491780000000006
21
-275.4517869999999675
0
LINE
8
BLACK
6
CONTINUOUS
10
181.2491780000000006
20
-275.4517869999999675
11
181.2491780000000006
21
-280.6333869999999706
0
LINE
8
BLACK
6
CONTINUOUS
10
181.2491780000000006
20
-280.6333869999999706
11
183.2811779999999828
21
-280.6333869999999706
0
LINE
8
BLACK
6
CONTINUOUS
10
183.2811779999999828
20
-280.6333869999999706
11
183.2811779999999828
21
-275.4517869999999675
0
CIRCLE
8
BLACK
10
114.7349320000000006
20
-267.4450539999999705
40
0.85
0
CIRCLE
8
BLACK
10
109.8280290000000008
20
-266.130252999999982
40
2.
0
ARC
8
BLACK
10
109.6196289999999891
20
-265.7925409999999715
40
2.2678771004013867
50
74.35535087
51
155.15590204
0
ARC
8
BLACK
10
104.9244219999999927
20
-264.8040439999999762
40
0.8559126071568288
50
-244.22117869
51
34.26208112
0
ARC
8
BLACK
10
106.8393959999999936
20
-259.9491969999999696
40
1.8806437403030378
50
73.73332430
51
164.69308896
0
LINE
8
BLACK
6
CONTINUOUS
10
118.2837539999999876
20
-261.6908869999999752
11
116.4602689999999967
21
-261.2022860000000151
0
LINE
8
BLACK
6
CONTINUOUS
10
117.5803359999999884
20
-264.3160799999999995
11
118.2837539999999876
21
-261.6908869999999752
0
LINE
8
BLACK
6
CONTINUOUS
10
117.5803359999999884
20
-264.3160799999999995
11
115.7568509999999975
21
-263.8274789999999825
0
LINE
8
BLACK
6
CONTINUOUS
10
116.6156919999999957
20
-260.6222379999999816
11
107.3661799999999999
21
-258.143839000000014
0
LINE
8
BLACK
6
CONTINUOUS
10
116.4602689999999967
20
-261.2022860000000151
11
116.6156919999999957
21
-260.6222379999999816
0
LINE
8
BLACK
6
CONTINUOUS
10
115.4414019999999965
20
-265.0047500000000014
11
115.7568509999999975
21
-263.8274789999999825
0
LINE
8
BLACK
6
CONTINUOUS
10
115.4414019999999965
20
-265.0047500000000014
11
110.2312079999999952
21
-263.608682999999985
0
LINE
8
BLACK
6
CONTINUOUS
10
105.6318089999999899
20
-264.3221829999999954
11
107.561633999999998
21
-264.8396910000000162
0
LINE
8
BLACK
6
CONTINUOUS
10
105.0254669999999919
20
-259.4527269999999817
11
104.6770449999999926
21
-260.7530570000000125
0
LINE
8
BLACK
6
CONTINUOUS
10
103.9736269999999934
20
-263.37824999999998
11
103.8486180000000019
21
-263.8447909999999865
0
LINE
8
BLACK
6
CONTINUOUS
10
103.8486180000000019
20
-263.8447909999999865
11
104.5521869999999893
21
-264.0333119999999667
0
LINE
8
BLACK
6
CONTINUOUS
10
102.8535600000000017
20
-260.2644549999999981
11
104.6770449999999926
21
-260.7530570000000125
0
LINE
8
BLACK
6
CONTINUOUS
10
102.8535600000000017
20
-260.2644549999999981
11
102.1501409999999908
21
-262.8896499999999605
0
LINE
8
BLACK
6
CONTINUOUS
10
102.1501409999999908
20
-262.8896499999999605
11
103.9736269999999934
21
-263.37824999999998
0
CIRCLE
8
BLACK
10
73.6443409999999972
20
-276.5867900000000077
40
0.85
0
CIRCLE
8
BLACK
10
68.6847569999999905
20
-275.487277000000006
40
2.
0
ARC
8
BLACK
10
68.4618239999999929
20
-275.1589740000000006
40
2.2678742760552222
50
76.85531712
51
157.65594419
0
ARC
8
BLACK
10
63.7279689999999945
20
-274.3762219999999843
40
0.8559123153623857
50
-241.72112903
51
36.76208212
0
ARC
8
BLACK
10
65.429356999999996
20
-269.44246899999996
40
1.8806458817993885
50
76.23343004
51
167.19304127
0
LINE
8
BLACK
6
CONTINUOUS
10
76.9387919999999923
20
-270.6833029999999667
11
75.0957300000000032
21
-270.2747059999999806
0
LINE
8
BLACK
6
CONTINUOUS
10
76.3505519999999933
20
-273.3366800000000012
11
76.9387919999999923
21
-270.6833029999999667
0
LINE
8
BLACK
6
CONTINUOUS
10
76.3505519999999933
20
-273.3366800000000012
11
74.50748999999999
21
-272.9280830000000151
0
LINE
8
BLACK
6
CONTINUOUS
10
75.2257039999999932
20
-269.68843099999998
11
65.8768879999999939
21
-267.6158489999999688
0
LINE
8
BLACK
6
CONTINUOUS
10
75.0957300000000032
20
-270.2747059999999806
11
75.2257039999999932
21
-269.68843099999998
0
LINE
8
BLACK
6
CONTINUOUS
10
74.2436929999999933
20
-274.1179940000000101
11
74.50748999999999
21
-272.9280830000000151
0
LINE
8
BLACK
6
CONTINUOUS
10
74.2436929999999933
20
-274.1179940000000101
11
68.9775630000000035
21
-272.9505209999999806
0
LINE
8
BLACK
6
CONTINUOUS
10
64.4136639999999971
20
-273.8639640000000099
11
66.3642269999999996
21
-274.2968020000000138
0
LINE
8
BLACK
6
CONTINUOUS
10
63.5954969999999946
20
-269.0255919999999605
11
63.3041259999999966
21
-270.3398809999999912
0
LINE
8
BLACK
6
CONTINUOUS
10
62.7158859999999976
20
-272.9932589999999664
11
62.6113459999999975
21
-273.4648090000000025
0
LINE
8
BLACK
6
CONTINUOUS
10
62.6113459999999975
20
-273.4648090000000025
11
63.3224689999999981
21
-273.6224609999999871
0
LINE
8
BLACK
6
CONTINUOUS
10
61.4610640000000004
20
-269.9312840000000051
11
63.3041259999999966
21
-270.3398809999999912
0
LINE
8
BLACK
6
CONTINUOUS
10
61.4610640000000004
20
-269.9312840000000051
11
60.8728239999999943
21
-272.5846619999999803
0
LINE
8
BLACK
6
CONTINUOUS
10
60.8728239999999943
20
-272.5846619999999803
11
62.7158859999999976
21
-272.9932589999999664
0
CIRCLE
8
BLACK
10
81.8688729999999936
20
-239.4883229999999799
40
0.85
0
CIRCLE
8
BLACK
10
76.9092890000000011
20
-238.3888099999999781
40
2.
0
ARC
8
BLACK
10
76.6863560000000035
20
-238.0605070000000012
40
2.2678742760552222
50
76.85531712
51
157.65594419
0
ARC
8
BLACK
10
71.952500999999998
20
-237.2777549999999849
40
0.8559123153623857
50
-241.72112903
51
36.76208212
0
ARC
8
BLACK
10
73.6538889999999924
20
-232.344001999999989
40
1.8806458817993885
50
76.23343004
51
167.19304127
0
LINE
8
BLACK
6
CONTINUOUS
10
85.1633240000000029
20
-233.5848359999999957
11
83.3202619999999996
21
-233.1762389999999812
0
LINE
8
BLACK
6
CONTINUOUS
10
84.5750839999999897
20
-236.2382130000000018
11
85.1633240000000029
21
-233.5848359999999957
0
LINE
8
BLACK
6
CONTINUOUS
10
84.5750839999999897
20
-236.2382130000000018
11
82.7320220000000006
21
-235.8296159999999873
0
LINE
8
BLACK
6
CONTINUOUS
10
83.4502359999999896
20
-232.5899639999999806
11
74.1014199999999903
21
-230.5173819999999978
0
LINE
8
BLACK
6
CONTINUOUS
10
83.3202619999999996
20
-233.1762389999999812
11
83.4502359999999896
21
-232.5899639999999806
0
LINE
8
BLACK
6
CONTINUOUS
10
82.4682249999999897
20
-237.0195269999999823
11
82.7320220000000006
21
-235.8296159999999873
0
LINE
8
BLACK
6
CONTINUOUS
10
82.4682249999999897
20
-237.0195269999999823
11
77.2020949999999999
21
-235.8520539999999812
0
LINE
8
BLACK
6
CONTINUOUS
10
72.6381959999999935
20
-236.7654969999999821
11
74.588758999999996
21
-237.1983349999999859
0
LINE
8
BLACK
6
CONTINUOUS
10
71.820028999999991
20
-231.9271249999999895
11
71.528657999999993
21
-233.2414139999999918
0
LINE
8
BLACK
6
CONTINUOUS
10
70.940417999999994
20
-235.8947919999999954
11
70.8358779999999939
21
-236.3663420000000031
0
LINE
8
BLACK
6
CONTINUOUS
10
70.8358779999999939
20
-236.3663420000000031
11
71.5470009999999945
21
-236.5239939999999876
0
LINE
8
BLACK
6
CONTINUOUS
10
69.6855960000000039
20
-232.8328169999999773
11
71.528657999999993
21
-233.2414139999999918
0
LINE
8
BLACK
6
CONTINUOUS
10
69.6855960000000039
20
-232.8328169999999773
11
69.0973559999999907
21
-235.4861949999999808
0
LINE
8
BLACK
6
CONTINUOUS
10
69.0973559999999907
20
-235.4861949999999808
11
70.940417999999994
21
-235.8947919999999954
0
CIRCLE
8
BLACK
10
214.7552709999999934
20
-305.9808850000000007
40
0.85
0
CIRCLE
8
BLACK
10
210.2492560000000026
20
-308.3265680000000089
40
2.
0
ARC
8
BLACK
10
209.867465999999979
20
-308.2183779999999729
40
2.2678866565598024
50
-243.14439834
51
-162.34432219
0
ARC
8
BLACK
10
205.7379639999999767
20
-310.6616129999999885
40
0.8559127190087783
50
-201.72119439
51
76.76207122
0
ARC
8
BLACK
10
203.8699419999999805
20
-305.7885069999999814
40
1.8806416803381232
50
-243.76671543
51
-152.80689901
0
LINE
8
BLACK
6
CONTINUOUS
10
214.7392189999999914
20
-301.7516369999999597
11
213.4842779999999891
21
-299.3409189999999853
0
LINE
8
BLACK
6
CONTINUOUS
10
214.7392189999999914
20
-301.7516369999999597
11
213.0647099999999909
21
-302.6233310000000074
0
LINE
8
BLACK
6
CONTINUOUS
10
213.6274899999999946
20
-303.704420999999968
11
213.0647099999999909
21
-302.6233310000000074
0
LINE
8
BLACK
6
CONTINUOUS
10
213.6274899999999946
20
-303.704420999999968
11
208.8429629999999975
21
-306.1950879999999984
0
LINE
8
BLACK
6
CONTINUOUS
10
213.4842779999999891
20
-299.3409189999999853
11
211.8097699999999861
21
-300.2126129999999762
0
LINE
8
BLACK
6
CONTINUOUS
10
211.8097699999999861
20
-300.2126129999999762
11
211.5324849999999799
21
-299.6799550000000067
0
LINE
8
BLACK
6
CONTINUOUS
10
211.5324849999999799
20
-299.6799550000000067
11
203.0386469999999974
21
-304.1015669999999886
0
LINE
8
BLACK
6
CONTINUOUS
10
205.9339640000000031
20
-309.8284439999999904
11
207.7064049999999895
21
-308.9062189999999646
0
LINE
8
BLACK
6
CONTINUOUS
10
204.2967359999999815
20
-310.6811809999999809
11
204.9428249999999991
21
-310.3448480000000131
0
LINE
8
BLACK
6
CONTINUOUS
10
204.0737120000000004
20
-310.2527549999999792
11
204.2967359999999815
21
-310.6811809999999809
0
LINE
8
BLACK
6
CONTINUOUS
10
202.399203
20
-311.1244489999999701
11
204.0737120000000004
21
-310.2527549999999792
0
LINE
8
BLACK
6
CONTINUOUS
10
202.197164999999984
20
-306.6479429999999979
11
202.8187709999999981
21
-307.8420370000000048
0
LINE
8
BLACK
6
CONTINUOUS
10
201.1442629999999951
20
-308.7137309999999957
11
202.8187709999999981
21
-307.8420370000000048
0
LINE
8
BLACK
6
CONTINUOUS
10
201.1442629999999951
20
-308.7137309999999957
11
202.399203
21
-311.1244489999999701
0
CIRCLE
8
BLACK
10
226.6414989999999818
20
-239.1552969999999902
40
0.85
0
CIRCLE
8
BLACK
10
221.6819150000000036
20
-240.254809999999992
40
2.
0
ARC
8
BLACK
10
221.34113499999998
20
-240.0514919999999961
40
2.267886690247332
50
-258.14442135
51
-177.34431317
0
ARC
8
BLACK
10
216.7199870000000033
20
-241.3426819999999964
40
0.8559130400017282
50
-216.72123450
51
61.76204226
0
ARC
8
BLACK
10
216.1768699999999797
20
-236.1521429999999953
40
1.8806420035522442
50
-258.76668354
51
-167.80686631
0
LINE
8
BLACK
6
CONTINUOUS
10
227.7206029999999828
20
-235.0660019999999975
11
227.1323639999999955
21
-232.4126249999999914
0
LINE
8
BLACK
6
CONTINUOUS
10
227.7206029999999828
20
-235.0660019999999975
11
225.8775409999999795
21
-235.4745989999999836
0
LINE
8
BLACK
6
CONTINUOUS
10
227.1323639999999955
20
-232.4126249999999914
11
225.2893019999999922
21
-232.8212219999999775
0
LINE
8
BLACK
6
CONTINUOUS
10
226.1413379999999904
20
-236.6645099999999786
11
225.8775409999999795
21
-235.4745989999999836
0
LINE
8
BLACK
6
CONTINUOUS
10
226.1413379999999904
20
-236.6645099999999786
11
220.8752079999999864
21
-237.8319829999999797
0
LINE
8
BLACK
6
CONTINUOUS
10
225.2893019999999922
20
-232.8212219999999775
11
225.1593279999999879
21
-232.2349469999999769
0
LINE
8
BLACK
6
CONTINUOUS
10
225.1593279999999879
20
-232.2349469999999769
11
215.8105119999999886
21
-234.3075299999999856
0
LINE
8
BLACK
6
CONTINUOUS
10
217.1249489999999867
20
-240.5886309999999924
11
219.0756839999999954
21
-240.1565719999999828
0
LINE
8
BLACK
6
CONTINUOUS
10
215.3228019999999958
20
-240.9885659999999916
11
216.0339269999999772
21
-240.8309129999999811
0
LINE
8
BLACK
6
CONTINUOUS
10
215.218262999999979
20
-240.5170159999999839
11
215.3228019999999958
21
-240.9885659999999916
0
LINE
8
BLACK
6
CONTINUOUS
10
214.3386529999999937
20
-236.5493489999999781
11
214.6300239999999917
21
-237.8636379999999804
0
LINE
8
BLACK
6
CONTINUOUS
10
213.3752010000000041
20
-240.9256129999999985
11
215.218262999999979
21
-240.5170159999999839
0
LINE
8
BLACK
6
CONTINUOUS
10
212.7869609999999909
20
-238.2722349999999949
11
214.6300239999999917
21
-237.8636379999999804
0
LINE
8
BLACK
6
CONTINUOUS
10
212.7869609999999909
20
-238.2722349999999949
11
213.3752010000000041
21
-240.9256129999999985
0
CIRCLE
8
BLACK
10
136.9661250000000052
20
-256.7797949999999787
40
0.85
0
CIRCLE
8
BLACK
10
132.0592220000000054
20
-255.4649939999999901
40
2.
0
ARC
8
BLACK
10
131.8508219999999937
20
-255.1272819999999797
40
2.2678771004013867
50
74.35535087
51
155.15590204
0
ARC
8
BLACK
10
127.1556149999999974
20
-254.1387849999999844
40
0.8559126071568288
50
-244.22117869
51
34.26208112
0
ARC
8
BLACK
10
129.070588999999984
20
-249.2839379999999778
40
1.8806437403030378
50
73.73332430
51
164.69308896
0
LINE
8
BLACK
6
CONTINUOUS
10
140.5149470000000065
20
-251.0256279999999833
11
138.6914620000000014
21
-250.5370269999999948
0
LINE
8
BLACK
6
CONTINUOUS
10
139.8115290000000073
20
-253.6508209999999792
11
140.5149470000000065
21
-251.0256279999999833
0
LINE
8
BLACK
6
CONTINUOUS
10
139.8115290000000073
20
-253.6508209999999792
11
137.9880440000000021
21
-253.1622199999999907
0
LINE
8
BLACK
6
CONTINUOUS
10
138.8468849999999861
20
-249.9569789999999898
11
129.5973730000000046
21
-247.4785799999999938
0
LINE
8
BLACK
6
CONTINUOUS
10
138.6914620000000014
20
-250.5370269999999948
11
138.8468849999999861
21
-249.9569789999999898
0
LINE
8
BLACK
6
CONTINUOUS
10
137.6725950000000012
20
-254.3394909999999811
11
137.9880440000000021
21
-253.1622199999999907
0
LINE
8
BLACK
6
CONTINUOUS
10
137.6725950000000012
20
-254.3394909999999811
11
132.4624009999999998
21
-252.9434239999999932
0
LINE
8
BLACK
6
CONTINUOUS
10
127.8630019999999945
20
-253.6569239999999752
11
129.7928269999999884
21
-254.1744319999999959
0
LINE
8
BLACK
6
CONTINUOUS
10
127.2566599999999966
20
-248.7874679999999898
11
126.9082379999999972
21
-250.0877979999999923
0
LINE
8
BLACK
6
CONTINUOUS
10
126.204819999999998
20
-252.7129909999999882
11
126.0798109999999923
21
-253.1795319999999947
0
LINE
8
BLACK
6
CONTINUOUS
10
126.0798109999999923
20
-253.1795319999999947
11
126.783379999999994
21
-253.3680529999999749
0
LINE
8
BLACK
6
CONTINUOUS
10
125.0847529999999921
20
-249.5991959999999779
11
126.9082379999999972
21
-250.0877979999999923
0
LINE
8
BLACK
6
CONTINUOUS
10
125.0847529999999921
20
-249.5991959999999779
11
124.3813339999999954
21
-252.2243909999999971
0
LINE
8
BLACK
6
CONTINUOUS
10
124.3813339999999954
20
-252.2243909999999971
11
126.204819999999998
21
-252.7129909999999882
0
CIRCLE
8
BLACK
10
92.6911470000000008
20
-278.4537270000000149
40
0.85
0
CIRCLE
8
BLACK
10
87.7315629999999942
20
-277.3542140000000131
40
2.
0
ARC
8
BLACK
10
87.5086299999999966
20
-277.0259110000000078
40
2.2678742760552222
50
76.85531712
51
157.65594419
0
ARC
8
BLACK
10
82.7747749999999911
20
-276.2431589999999915
40
0.8559123153623857
50
-241.72112903
51
36.76208212
0
ARC
8
BLACK
10
84.4761629999999997
20
-271.3094059999999672
40
1.8806458817993885
50
76.23343004
51
167.19304127
0
LINE
8
BLACK
6
CONTINUOUS
10
95.985597999999996
20
-272.5502399999999739
11
94.1425359999999927
21
-272.1416429999999878
0
LINE
8
BLACK
6
CONTINUOUS
10
95.397357999999997
20
-275.2036170000000084
11
95.985597999999996
21
-272.5502399999999739
0
LINE
8
BLACK
6
CONTINUOUS
10
95.397357999999997
20
-275.2036170000000084
11
93.5542959999999937
21
-274.7950199999999654
0
LINE
8
BLACK
6
CONTINUOUS
10
94.2725099999999969
20
-271.5553679999999872
11
84.9236939999999976
21
-269.482785999999976
0
LINE
8
BLACK
6
CONTINUOUS
10
94.1425359999999927
20
-272.1416429999999878
11
94.2725099999999969
21
-271.5553679999999872
0
LINE
8
BLACK
6
CONTINUOUS
10
93.290498999999997
20
-275.9849309999999605
11
93.5542959999999937
21
-274.7950199999999654
0
LINE
8
BLACK
6
CONTINUOUS
10
93.290498999999997
20
-275.9849309999999605
11
88.024368999999993
21
-274.8174579999999878
0
LINE
8
BLACK
6
CONTINUOUS
10
83.4604700000000008
20
-275.7309009999999603
11
85.4110329999999891
21
-276.1637389999999641
0
LINE
8
BLACK
6
CONTINUOUS
10
82.6423029999999983
20
-270.8925289999999677
11
82.3509320000000002
21
-272.2068179999999984
0
LINE
8
BLACK
6
CONTINUOUS
10
81.7626920000000013
20
-274.8601959999999735
11
81.6581520000000012
21
-275.3317460000000096
0
LINE
8
BLACK
6
CONTINUOUS
10
81.6581520000000012
20
-275.3317460000000096
11
82.3692750000000018
21
-275.4893979999999942
0
LINE
8
BLACK
6
CONTINUOUS
10
80.5078699999999969
20
-271.7982210000000123
11
82.3509320000000002
21
-272.2068179999999984
0
LINE
8
BLACK
6
CONTINUOUS
10
80.5078699999999969
20
-271.7982210000000123
11
79.9196299999999979
21
-274.4515989999999874
0
LINE
8
BLACK
6
CONTINUOUS
10
79.9196299999999979
20
-274.4515989999999874
11
81.7626920000000013
21
-274.8601959999999735
0
CIRCLE
8
BLACK
10
62.8424369999999968
20
-237.5616049999999859
40
0.85
0
CIRCLE
8
BLACK
10
57.8828529999999972
20
-236.4620919999999842
40
2.
0
ARC
8
BLACK
10
57.6599199999999996
20
-236.1337889999999788
40
2.2678742760552222
50
76.85531712
51
157.65594419
0
ARC
8
BLACK
10
52.9260649999999941
20
-235.3510369999999909
40
0.8559123153623857
50
-241.72112903
51
36.76208212
0
ARC
8
BLACK
10
54.6274529999999956
20
-230.4172839999999951
40
1.8806458817993885
50
76.23343004
51
167.19304127
0
LINE
8
BLACK
6
CONTINUOUS
10
66.136887999999999
20
-231.6581180000000018
11
64.2938259999999957
21
-231.2495209999999872
0
LINE
8
BLACK
6
CONTINUOUS
10
65.548648
20
-234.3114949999999794
11
66.136887999999999
21
-231.6581180000000018
0
LINE
8
BLACK
6
CONTINUOUS
10
65.548648
20
-234.3114949999999794
11
63.7055859999999967
21
-233.9028979999999933
0
LINE
8
BLACK
6
CONTINUOUS
10
64.4238
20
-230.6632459999999867
11
55.0749840000000006
21
-228.5906640000000039
0
LINE
8
BLACK
6
CONTINUOUS
10
64.2938259999999957
20
-231.2495209999999872
11
64.4238
21
-230.6632459999999867
0
LINE
8
BLACK
6
CONTINUOUS
10
63.441789
20
-235.0928089999999884
11
63.7055859999999967
21
-233.9028979999999933
0
LINE
8
BLACK
6
CONTINUOUS
10
63.441789
20
-235.0928089999999884
11
58.175658999999996
21
-233.9253359999999873
0
LINE
8
BLACK
6
CONTINUOUS
10
53.6117599999999968
20
-234.8387789999999882
11
55.5623229999999992
21
-235.271616999999992
0
LINE
8
BLACK
6
CONTINUOUS
10
52.7935929999999942
20
-230.0004069999999956
11
52.5022219999999962
21
-231.3146959999999979
0
LINE
8
BLACK
6
CONTINUOUS
10
51.9139819999999972
20
-233.9680740000000014
11
51.8094419999999971
21
-234.4396239999999807
0
LINE
8
BLACK
6
CONTINUOUS
10
51.8094419999999971
20
-234.4396239999999807
11
52.5205649999999977
21
-234.5972759999999937
0
LINE
8
BLACK
6
CONTINUOUS
10
50.65916
20
-230.9060989999999833
11
52.5022219999999962
21
-231.3146959999999979
0
LINE
8
BLACK
6
CONTINUOUS
10
50.65916
20
-230.9060989999999833
11
50.070920000000001
21
-233.5594769999999869
0
LINE
8
BLACK
6
CONTINUOUS
10
50.070920000000001
20
-233.5594769999999869
11
51.9139819999999972
21
-233.9680740000000014
0
CIRCLE
8
BLACK
10
258.9809419999999704
20
-284.2294309999999768
40
1.0999999999999999
0
CIRCLE
8
BLACK
10
249.8007779999999798
20
-255.8385319999999865
40
0.85
0
CIRCLE
8
BLACK
10
244.8411940000000016
20
-256.9380449999999882
40
2.
0
ARC
8
BLACK
10
244.5004139999999779
20
-256.7347269999999639
40
2.267886690247332
50
-258.14442135
51
-177.34431317
0
ARC
8
BLACK
10
239.8792660000000012
20
-258.0259169999999926
40
0.8559130400017282
50
-216.72123450
51
61.76204226
0
ARC
8
BLACK
10
239.3361489999999776
20
-252.8353779999999915
40
1.8806420035522442
50
-258.76668354
51
-167.80686631
0
LINE
8
BLACK
6
CONTINUOUS
10
250.8798819999999807
20
-251.7492369999999937
11
250.2916429999999934
21
-249.0958599999999876
0
LINE
8
BLACK
6
CONTINUOUS
10
250.8798819999999807
20
-251.7492369999999937
11
249.0368199999999774
21
-252.1578339999999798
0
LINE
8
BLACK
6
CONTINUOUS
10
250.2916429999999934
20
-249.0958599999999876
11
248.4485809999999901
21
-249.5044570000000022
0
LINE
8
BLACK
6
CONTINUOUS
10
249.3006169999999884
20
-253.3477449999999749
11
249.0368199999999774
21
-252.1578339999999798
0
LINE
8
BLACK
6
CONTINUOUS
10
249.3006169999999884
20
-253.3477449999999749
11
244.0344869999999844
21
-254.515217999999976
0
LINE
8
BLACK
6
CONTINUOUS
10
248.4485809999999901
20
-249.5044570000000022
11
248.3186069999999859
21
-248.9181820000000016
0
LINE
8
BLACK
6
CONTINUOUS
10
248.3186069999999859
20
-248.9181820000000016
11
238.9697909999999865
21
-250.9907649999999819
0
LINE
8
BLACK
6
CONTINUOUS
10
240.2842279999999846
20
-257.2718659999999886
11
242.2349629999999934
21
-256.8398070000000075
0
LINE
8
BLACK
6
CONTINUOUS
10
238.4820809999999938
20
-257.6718010000000163
11
239.1932059999999751
21
-257.5141479999999774
0
LINE
8
BLACK
6
CONTINUOUS
10
238.377541999999977
20
-257.2002509999999802
11
238.4820809999999938
21
-257.6718010000000163
0
LINE
8
BLACK
6
CONTINUOUS
10
237.4979319999999916
20
-253.2325839999999744
11
237.7893029999999897
21
-254.5468729999999766
0
LINE
8
BLACK
6
CONTINUOUS
10
236.5344800000000021
20
-257.6088479999999663
11
238.377541999999977
21
-257.2002509999999802
0
LINE
8
BLACK
6
CONTINUOUS
10
235.9462399999999889
20
-254.9554699999999912
11
237.7893029999999897
21
-254.5468729999999766
0
LINE
8
BLACK
6
CONTINUOUS
10
235.9462399999999889
20
-254.9554699999999912
11
236.5344800000000021
21
-257.6088479999999663
0
CIRCLE
8
BLACK
10
54.7070480000000003
20
-274.5901179999999613
40
0.85
0
CIRCLE
8
BLACK
10
49.7203820000000007
20
-273.6208080000000109
40
2.
0
ARC
8
BLACK
10
49.488940999999997
20
-273.2984700000000089
40
2.2678891399504075
50
78.35564562
51
159.15565104
0
ARC
8
BLACK
10
44.7362079999999978
20
-272.6398879999999849
40
0.8559126518664156
50
-240.22123404
51
38.26207590
0
ARC
8
BLACK
10
46.3078629999999976
20
-267.6632879999999659
40
1.8806458745962782
50
77.73344521
51
168.69301911
0
LINE
8
BLACK
6
CONTINUOUS
10
57.8458349999999939
20
-268.6024150000000077
11
55.9927080000000004
21
-268.2422029999999609
0
LINE
8
BLACK
6
CONTINUOUS
10
57.3272539999999964
20
-271.2702810000000113
11
57.8458349999999939
21
-268.6024150000000077
0
LINE
8
BLACK
6
CONTINUOUS
10
57.3272539999999964
20
-271.2702810000000113
11
55.4741280000000003
21
-270.910069999999962
0
LINE
8
BLACK
6
CONTINUOUS
10
56.1072909999999965
20
-267.6527269999999703
11
46.7074250000000006
21
-265.8255780000000073
0
LINE
8
BLACK
6
CONTINUOUS
10
55.9927080000000004
20
-268.2422029999999609
11
56.1072909999999965
21
-267.6527269999999703
0
LINE
8
BLACK
6
CONTINUOUS
10
55.2415699999999958
20
-272.1064779999999814
11
55.4741280000000003
21
-270.910069999999962
0
LINE
8
BLACK
6
CONTINUOUS
10
55.2415699999999958
20
-272.1064779999999814
11
49.9466830000000002
21
-271.0772559999999771
0
LINE
8
BLACK
6
CONTINUOUS
10
45.408259000000001
20
-272.1098559999999793
11
47.3694839999999999
21
-272.491486000000009
0
LINE
8
BLACK
6
CONTINUOUS
10
44.4637189999999975
20
-267.294557999999995
11
44.2068519999999978
21
-268.6160249999999792
0
LINE
8
BLACK
6
CONTINUOUS
10
43.6882710000000003
20
-271.2838909999999828
11
43.5961099999999959
21
-271.7580159999999978
0
LINE
8
BLACK
6
CONTINUOUS
10
43.5961099999999959
20
-271.7580159999999978
11
44.3111169999999959
21
-271.8969989999999939
0
LINE
8
BLACK
6
CONTINUOUS
10
42.3537249999999972
20
-268.2558139999999867
11
44.2068519999999978
21
-268.6160249999999792
0
LINE
8
BLACK
6
CONTINUOUS
10
42.3537249999999972
20
-268.2558139999999867
11
41.8351439999999997
21
-270.9236799999999903
0
LINE
8
BLACK
6
CONTINUOUS
10
41.8351439999999997
20
-270.9236799999999903
11
43.6882710000000003
21
-271.2838909999999828
0
CIRCLE
8
BLACK
10
264.7149489999999901
20
-235.3625789999999824
40
0.85
0
CIRCLE
8
BLACK
10
259.7553649999999834
20
-236.4620919999999842
40
2.
0
ARC
8
BLACK
10
259.4145849999999882
20
-236.2587739999999883
40
2.267886690247332
50
-258.14442135
51
-177.34431317
0
ARC
8
BLACK
10
254.7934369999999831
20
-237.5499639999999886
40
0.8559130400017282
50
-216.72123450
51
61.76204226
0
ARC
8
BLACK
10
254.2503199999999879
20
-232.3594249999999874
40
1.8806420035522442
50
-258.76668354
51
-167.80686631
0
LINE
8
BLACK
6
CONTINUOUS
10
265.7940529999999626
20
-231.2732839999999896
11
265.2058139999999753
21
-228.6199069999999836
0
LINE
8
BLACK
6
CONTINUOUS
10
265.7940529999999626
20
-231.2732839999999896
11
263.9509909999999877
21
-231.6818809999999758
0
LINE
8
BLACK
6
CONTINUOUS
10
265.2058139999999753
20
-228.6199069999999836
11
263.3627520000000004
21
-229.0285039999999981
0
LINE
8
BLACK
6
CONTINUOUS
10
264.2147879999999986
20
-232.8717919999999992
11
263.9509909999999877
21
-231.6818809999999758
0
LINE
8
BLACK
6
CONTINUOUS
10
264.2147879999999986
20
-232.8717919999999992
11
258.9486579999999663
21
-234.0392650000000003
0
LINE
8
BLACK
6
CONTINUOUS
10
263.3627520000000004
20
-229.0285039999999981
11
263.2327779999999962
21
-228.4422289999999975
0
LINE
8
BLACK
6
CONTINUOUS
10
263.2327779999999962
20
-228.4422289999999975
11
253.8839619999999968
21
-230.5148119999999778
0
LINE
8
BLACK
6
CONTINUOUS
10
255.1983989999999949
20
-236.7959129999999845
11
257.1491340000000037
21
-236.3638540000000035
0
LINE
8
BLACK
6
CONTINUOUS
10
253.3962519999999756
20
-237.1958479999999838
11
254.1073769999999854
21
-237.0381950000000018
0
LINE
8
BLACK
6
CONTINUOUS
10
253.2917129999999872
20
-236.7242979999999761
11
253.3962519999999756
21
-237.1958479999999838
0
LINE
8
BLACK
6
CONTINUOUS
10
252.4121030000000019
20
-232.7566309999999987
11
252.7034739999999999
21
-234.070920000000001
0
LINE
8
BLACK
6
CONTINUOUS
10
251.4486509999999839
20
-237.1328949999999907
11
253.2917129999999872
21
-236.7242979999999761
0
LINE
8
BLACK
6
CONTINUOUS
10
250.8604109999999991
20
-234.4795169999999871
11
252.7034739999999999
21
-234.070920000000001
0
LINE
8
BLACK
6
CONTINUOUS
10
250.8604109999999991
20
-234.4795169999999871
11
251.4486509999999839
21
-237.1328949999999907
0
CIRCLE
8
BLACK
10
58.7136080000000007
20
-256.1308559999999943
40
0.85
0
CIRCLE
8
BLACK
10
53.7269420000000011
20
-255.1615459999999871
40
2.
0
ARC
8
BLACK
10
53.4955009999999973
20
-254.8392079999999851
40
2.2678891399504075
50
78.35564562
51
159.15565104
0
ARC
8
BLACK
10
48.7427679999999981
20
-254.1806259999999895
40
0.8559126518664156
50
-240.22123404
51
38.26207590
0
ARC
8
BLACK
10
50.3144229999999979
20
-249.2040259999999989
40
1.8806458745962782
50
77.73344521
51
168.69301911
0
LINE
8
BLACK
6
CONTINUOUS
10
61.8523949999999942
20
-250.1431529999999839
11
59.9992680000000007
21
-249.7829409999999939
0
LINE
8
BLACK
6
CONTINUOUS
10
61.3338139999999967
20
-252.8110189999999875
11
61.8523949999999942
21
-250.1431529999999839
0
LINE
8
BLACK
6
CONTINUOUS
10
61.3338139999999967
20
-252.8110189999999875
11
59.4806880000000007
21
-252.450807999999995
0
LINE
8
BLACK
6
CONTINUOUS
10
60.1138509999999968
20
-249.1934649999999749
11
50.713985000000001
21
-247.3663159999999834
0
LINE
8
BLACK
6
CONTINUOUS
10
59.9992680000000007
20
-249.7829409999999939
11
60.1138509999999968
21
-249.1934649999999749
0
LINE
8
BLACK
6
CONTINUOUS
10
59.2481299999999962
20
-253.647215999999986
11
59.4806880000000007
21
-252.450807999999995
0
LINE
8
BLACK
6
CONTINUOUS
10
59.2481299999999962
20
-253.647215999999986
11
53.9532430000000005
21
-252.6179939999999817
0
LINE
8
BLACK
6
CONTINUOUS
10
49.4148189999999943
20
-253.6505939999999839
11
51.3760440000000003
21
-254.0322239999999852
0
LINE
8
BLACK
6
CONTINUOUS
10
48.4702789999999979
20
-248.8352959999999996
11
48.2134119999999982
21
-250.1567629999999838
0
LINE
8
BLACK
6
CONTINUOUS
10
47.6948310000000006
20
-252.8246289999999874
11
47.6026699999999963
21
-253.2987540000000024
0
LINE
8
BLACK
6
CONTINUOUS
10
47.6026699999999963
20
-253.2987540000000024
11
48.3176769999999962
21
-253.4377369999999985
0
LINE
8
BLACK
6
CONTINUOUS
10
46.3602849999999975
20
-249.7965519999999913
11
48.2134119999999982
21
-250.1567629999999838
0
LINE
8
BLACK
6
CONTINUOUS
10
46.3602849999999975
20
-249.7965519999999913
11
45.841704
21
-252.4644179999999949
0
LINE
8
BLACK
6
CONTINUOUS
10
45.841704
20
-252.4644179999999949
11
47.6948310000000006
21
-252.8246289999999874
0
CIRCLE
8
BLACK
10
234.8662389999999789
20
-276.2547010000000114
40
0.85
0
CIRCLE
8
BLACK
10
229.9066550000000007
20
-277.3542140000000131
40
2.
0
ARC
8
BLACK
10
229.565874999999977
20
-277.1508959999999888
40
2.267886690247332
50
-258.14442135
51
-177.34431317
0
ARC
8
BLACK
10
224.9447270000000003
20
-278.4420859999999607
40
0.8559130400017282
50
-216.72123450
51
61.76204226
0
ARC
8
BLACK
10
224.4016099999999767
20
-273.2515469999999596
40
1.8806420035522442
50
-258.76668354
51
-167.80686631
0
LINE
8
BLACK
6
CONTINUOUS
10
235.9453429999999798
20
-272.1654059999999618
11
235.3571039999999925
21
-269.5120289999999841
0
LINE
8
BLACK
6
CONTINUOUS
10
235.9453429999999798
20
-272.1654059999999618
11
234.1022809999999765
21
-272.5740030000000047
0
LINE
8
BLACK
6
CONTINUOUS
10
235.3571039999999925
20
-269.5120289999999841
11
233.5140419999999892
21
-269.9206259999999702
0
LINE
8
BLACK
6
CONTINUOUS
10
234.3660779999999875
20
-273.7639139999999998
11
234.1022809999999765
21
-272.5740030000000047
0
LINE
8
BLACK
6
CONTINUOUS
10
234.3660779999999875
20
-273.7639139999999998
11
229.0999479999999835
21
-274.9313869999999724
0
LINE
8
BLACK
6
CONTINUOUS
10
233.5140419999999892
20
-269.9206259999999702
11
233.384067999999985
21
-269.3343509999999696
0
LINE
8
BLACK
6
CONTINUOUS
10
233.384067999999985
20
-269.3343509999999696
11
224.0352519999999856
21
-271.4069339999999784
0
LINE
8
BLACK
6
CONTINUOUS
10
225.3496889999999837
20
-277.6880350000000135
11
227.3004239999999925
21
-277.2559759999999756
0
LINE
8
BLACK
6
CONTINUOUS
10
223.5475419999999929
20
-278.0879699999999843
11
224.2586670000000026
21
-277.9303170000000023
0
LINE
8
BLACK
6
CONTINUOUS
10
223.4430029999999761
20
-277.6164200000000051
11
223.5475419999999929
21
-278.0879699999999843
0
LINE
8
BLACK
6
CONTINUOUS
10
222.5633929999999907
20
-273.6487529999999992
11
222.8547639999999888
21
-274.9630419999999731
0
LINE
8
BLACK
6
CONTINUOUS
10
221.5999410000000012
20
-278.0250169999999912
11
223.4430029999999761
21
-277.6164200000000051
0
LINE
8
BLACK
6
CONTINUOUS
10
221.011700999999988
20
-275.3716389999999592
11
222.8547639999999888
21
-274.9630419999999731
0
LINE
8
BLACK
6
CONTINUOUS
10
221.011700999999988
20
-275.3716389999999592
11
221.5999410000000012
21
-278.0250169999999912
0
CIRCLE
8
BLACK
10
212.7170919999999796
20
-264.8154519999999934
40
0.85
0
CIRCLE
8
BLACK
10
207.8101889999999798
20
-266.130252999999982
40
2.
0
ARC
8
BLACK
10
207.460866999999979
20
-265.9419939999999656
40
2.2678883644434529
50
-255.64438224
51
-174.84433149
0
ARC
8
BLACK
10
202.9004359999999849
20
-267.4335259999999721
40
0.855913345630853
50
-214.22121554
51
64.26207614
0
ARC
8
BLACK
10
202.1314299999999946
20
-262.2716179999999895
40
1.8806441659221449
50
-256.26663724
51
-165.30691027
0
LINE
8
BLACK
6
CONTINUOUS
10
213.6167969999999912
20
-260.6829799999999864
11
212.9133789999999919
21
-258.0577869999999621
0
LINE
8
BLACK
6
CONTINUOUS
10
213.6167969999999912
20
-260.6829799999999864
11
211.793311999999986
21
-261.1715810000000033
0
LINE
8
BLACK
6
CONTINUOUS
10
212.9133789999999919
20
-258.0577869999999621
11
211.0898939999999868
21
-258.546387999999979
0
LINE
8
BLACK
6
CONTINUOUS
10
212.108760999999987
20
-262.3488529999999628
11
211.793311999999986
21
-261.1715810000000033
0
LINE
8
BLACK
6
CONTINUOUS
10
212.108760999999987
20
-262.3488529999999628
11
206.8985679999999832
21
-263.7449199999999792
0
LINE
8
BLACK
6
CONTINUOUS
10
211.0898939999999868
20
-258.546387999999979
11
210.9344700000000046
21
-257.9663409999999999
0
LINE
8
BLACK
6
CONTINUOUS
10
210.9344700000000046
20
-257.9663409999999999
11
201.6849579999999946
21
-260.4447399999999675
0
LINE
8
BLACK
6
CONTINUOUS
10
203.2721209999999985
20
-266.6625280000000089
11
205.2021539999999789
21
-266.1457909999999742
0
LINE
8
BLACK
6
CONTINUOUS
10
201.489136000000002
20
-267.1406910000000039
11
202.1927059999999869
21
-266.9521699999999669
0
LINE
8
BLACK
6
CONTINUOUS
10
201.3641269999999963
20
-266.6741509999999948
11
201.489136000000002
21
-267.1406910000000039
0
LINE
8
BLACK
6
CONTINUOUS
10
200.3122860000000003
20
-262.748626999999999
11
200.6607079999999996
21
-264.0489559999999756
0
LINE
8
BLACK
6
CONTINUOUS
10
199.5406409999999937
20
-267.1627510000000143
11
201.3641269999999963
21
-266.6741509999999948
0
LINE
8
BLACK
6
CONTINUOUS
10
198.8372229999999945
20
-264.53755799999999
11
200.6607079999999996
21
-264.0489559999999756
0
LINE
8
BLACK
6
CONTINUOUS
10
198.8372229999999945
20
-264.53755799999999
11
199.5406409999999937
21
-267.1627510000000143
0
CIRCLE
8
BLACK
10
58.657275999999996
20
-284.2294309999999768
40
1.0999999999999999
0
CIRCLE
8
BLACK
10
119.3904299999999949
20
-248.9639929999999879
40
0.85
0
CIRCLE
8
BLACK
10
114.4835269999999952
20
-247.6491919999999993
40
2.
0
ARC
8
BLACK
10
114.2751269999999977
20
-247.3114799999999889
40
2.2678771004013867
50
74.35535087
51
155.15590204
0
ARC
8
BLACK
10
109.5799200000000013
20
-246.3229829999999936
40
0.8559126071568288
50
-244.22117869
51
34.26208112
0
ARC
8
BLACK
10
111.494893999999988
20
-241.468135999999987
40
1.8806437403030378
50
73.73332430
51
164.69308896
0
LINE
8
BLACK
6
CONTINUOUS
10
122.9392519999999962
20
-243.2098259999999925
11
121.1157669999999911
21
-242.7212249999999756
0
LINE
8
BLACK
6
CONTINUOUS
10
122.235833999999997
20
-245.8350189999999884
11
122.9392519999999962
21
-243.2098259999999925
0
LINE
8
BLACK
6
CONTINUOUS
10
122.235833999999997
20
-245.8350189999999884
11
120.4123489999999919
21
-245.3464179999999999
0
LINE
8
BLACK
6
CONTINUOUS
10
121.2711899999999901
20
-242.141176999999999
11
112.0216779999999943
21
-239.662778000000003
0
LINE
8
BLACK
6
CONTINUOUS
10
121.1157669999999911
20
-242.7212249999999756
11
121.2711899999999901
21
-242.141176999999999
0
LINE
8
BLACK
6
CONTINUOUS
10
120.0968999999999909
20
-246.5236889999999903
11
120.4123489999999919
21
-245.3464179999999999
0
LINE
8
BLACK
6
CONTINUOUS
10
120.0968999999999909
20
-246.5236889999999903
11
114.8867059999999896
21
-245.1276220000000023
0
LINE
8
BLACK
6
CONTINUOUS
10
110.2873069999999984
20
-245.8411219999999844
11
112.2171319999999923
21
-246.3586299999999767
0
LINE
8
BLACK
6
CONTINUOUS
10
109.6809650000000005
20
-240.971665999999999
11
109.3325430000000011
21
-242.2719960000000015
0
LINE
8
BLACK
6
CONTINUOUS
10
108.6291250000000019
20
-244.8971889999999973
11
108.5041159999999962
21
-245.3637299999999755
0
LINE
8
BLACK
6
CONTINUOUS
10
108.5041159999999962
20
-245.3637299999999755
11
109.2076849999999979
21
-245.5522509999999841
0
LINE
8
BLACK
6
CONTINUOUS
10
107.509057999999996
20
-241.783393999999987
11
109.3325430000000011
21
-242.2719960000000015
0
LINE
8
BLACK
6
CONTINUOUS
10
107.509057999999996
20
-241.783393999999987
11
106.8056389999999993
21
-244.4085889999999779
0
LINE
8
BLACK
6
CONTINUOUS
10
106.8056389999999993
20
-244.4085889999999779
11
108.6291250000000019
21
-244.8971889999999973
0
CIRCLE
8
BLACK
10
68.3450369999999907
20
-227.7715209999999786
40
1.0999999999999999
0
CIRCLE
8
BLACK
10
180.5690429999999935
20
-245.2940919999999778
40
1.0999999999999999
0
CIRCLE
8
BLACK
10
170.8190699999999822
20
-286.6141959999999926
40
1.0999999999999999
0
CIRCLE
8
BLACK
10
199.3992769999999837
20
-291.0765409999999633
40
0.85
0
CIRCLE
8
BLACK
10
194.4923739999999839
20
-292.3913420000000087
40
2.
0
ARC
8
BLACK
10
194.1430519999999831
20
-292.2030829999999924
40
2.2678883644434529
50
-255.64438224
51
-174.84433149
0
ARC
8
BLACK
10
189.582620999999989
20
-293.6946149999999989
40
0.855913345630853
50
-214.22121554
51
64.26207614
0
ARC
8
BLACK
10
188.8136149999999986
20
-288.5327069999999594
40
1.8806441659221449
50
-256.26663724
51
-165.30691027
0
LINE
8
BLACK
6
CONTINUOUS
10
200.2989819999999952
20
-286.9440690000000131
11
199.595563999999996
21
-284.3188759999999888
0
LINE
8
BLACK
6
CONTINUOUS
10
200.2989819999999952
20
-286.9440690000000131
11
198.4754969999999901
21
-287.4326699999999732
0
LINE
8
BLACK
6
CONTINUOUS
10
199.595563999999996
20
-284.3188759999999888
11
197.7720789999999909
21
-284.8074770000000058
0
LINE
8
BLACK
6
CONTINUOUS
10
198.790945999999991
20
-288.6099419999999895
11
198.4754969999999901
21
-287.4326699999999732
0
LINE
8
BLACK
6
CONTINUOUS
10
198.790945999999991
20
-288.6099419999999895
11
193.5807529999999872
21
-290.0060090000000059
0
LINE
8
BLACK
6
CONTINUOUS
10
197.7720789999999909
20
-284.8074770000000058
11
197.6166549999999802
21
-284.2274299999999698
0
LINE
8
BLACK
6
CONTINUOUS
10
197.6166549999999802
20
-284.2274299999999698
11
188.3671429999999987
21
-286.7058289999999943
0
LINE
8
BLACK
6
CONTINUOUS
10
189.9543060000000025
20
-292.9236169999999788
11
191.8843389999999829
21
-292.406880000000001
0
LINE
8
BLACK
6
CONTINUOUS
10
188.1713209999999776
20
-293.4017799999999738
11
188.874890999999991
21
-293.2132589999999936
0
LINE
8
BLACK
6
CONTINUOUS
10
188.0463120000000004
20
-292.9352399999999648
11
188.1713209999999776
21
-293.4017799999999738
0
LINE
8
BLACK
6
CONTINUOUS
10
186.9944710000000043
20
-289.009715999999969
11
187.3428930000000037
21
-290.3100450000000023
0
LINE
8
BLACK
6
CONTINUOUS
10
186.2228259999999977
20
-293.4238399999999842
11
188.0463120000000004
21
-292.9352399999999648
0
LINE
8
BLACK
6
CONTINUOUS
10
185.5194079999999985
20
-290.7986469999999599
11
187.3428930000000037
21
-290.3100450000000023
0
LINE
8
BLACK
6
CONTINUOUS
10
185.5194079999999985
20
-290.7986469999999599
11
186.2228259999999977
21
-293.4238399999999842
0
CIRCLE
8
BLACK
10
197.9783180000000016
20
-316.0536720000000059
40
0.85
0
CIRCLE
8
BLACK
10
193.4723029999999824
20
-318.3993549999999573
40
2.
0
ARC
8
BLACK
10
193.0905129999999872
20
-318.2911649999999781
40
2.2678866565598024
50
-243.14439834
51
-162.34432219
0
ARC
8
BLACK
10
188.961010999999985
20
-320.7343999999999937
40
0.8559127190087783
50
-201.72119439
51
76.76207122
0
ARC
8
BLACK
10
187.0929889999999887
20
-315.8612939999999867
40
1.8806416803381232
50
-243.76671543
51
-152.80689901
0
LINE
8
BLACK
6
CONTINUOUS
10
197.9622659999999996
20
-311.824423999999965
11
196.7073249999999973
21
-309.4137059999999906
0
LINE
8
BLACK
6
CONTINUOUS
10
197.9622659999999996
20
-311.824423999999965
11
196.2877569999999992
21
-312.6961180000000127
0
LINE
8
BLACK
6
CONTINUOUS
10
196.8505370000000028
20
-313.7772079999999733
11
196.2877569999999992
21
-312.6961180000000127
0
LINE
8
BLACK
6
CONTINUOUS
10
196.8505370000000028
20
-313.7772079999999733
11
192.0660099999999773
21
-316.2678750000000036
0
LINE
8
BLACK
6
CONTINUOUS
10
196.7073249999999973
20
-309.4137059999999906
11
195.0328169999999943
21
-310.2853999999999814
0
LINE
8
BLACK
6
CONTINUOUS
10
195.0328169999999943
20
-310.2853999999999814
11
194.7555319999999881
21
-309.752742000000012
0
LINE
8
BLACK
6
CONTINUOUS
10
194.7555319999999881
20
-309.752742000000012
11
186.2616940000000056
21
-314.1743539999999939
0
LINE
8
BLACK
6
CONTINUOUS
10
189.1570109999999829
20
-319.9012309999999957
11
190.9294519999999977
21
-318.9790059999999698
0
LINE
8
BLACK
6
CONTINUOUS
10
187.5197829999999897
20
-320.7539679999999862
11
188.1658719999999789
21
-320.4176349999999616
0
LINE
8
BLACK
6
CONTINUOUS
10
187.2967589999999802
20
-320.3255419999999845
11
187.5197829999999897
21
-320.7539679999999862
0
LINE
8
BLACK
6
CONTINUOUS
10
185.6222499999999798
20
-321.1972359999999753
11
187.2967589999999802
21
-320.3255419999999845
0
LINE
8
BLACK
6
CONTINUOUS
10
185.4202119999999923
20
-316.7207300000000032
11
186.0418179999999779
21
-317.9148240000000101
0
LINE
8
BLACK
6
CONTINUOUS
10
184.3673100000000034
20
-318.7865180000000009
11
186.0418179999999779
21
-317.9148240000000101
0
LINE
8
BLACK
6
CONTINUOUS
10
184.3673100000000034
20
-318.7865180000000009
11
185.6222499999999798
21
-321.1972359999999753
0
CIRCLE
8
BLACK
10
245.6885130000000004
20
-237.2892969999999764
40
0.85
0
CIRCLE
8
BLACK
10
240.7289289999999937
20
-238.3888099999999781
40
2.
0
ARC
8
BLACK
10
240.3881489999999985
20
-238.1854919999999822
40
2.267886690247332
50
-258.14442135
51
-177.34431317
0
ARC
8
BLACK
10
235.7670009999999934
20
-239.4766819999999825
40
0.8559130400017282
50
-216.72123450
51
61.76204226
0
ARC
8
BLACK
10
235.2238839999999982
20
-234.2861429999999814
40
1.8806420035522442
50
-258.76668354
51
-167.80686631
0
LINE
8
BLACK
6
CONTINUOUS
10
246.7676170000000013
20
-233.2000019999999836
11
246.1793779999999856
21
-230.5466249999999775
0
LINE
8
BLACK
6
CONTINUOUS
10
246.7676170000000013
20
-233.2000019999999836
11
244.924554999999998
21
-233.6085989999999981
0
LINE
8
BLACK
6
CONTINUOUS
10
246.1793779999999856
20
-230.5466249999999775
11
244.3363159999999823
21
-230.955221999999992
0
LINE
8
BLACK
6
CONTINUOUS
10
245.1883519999999805
20
-234.7985099999999932
11
244.924554999999998
21
-233.6085989999999981
0
LINE
8
BLACK
6
CONTINUOUS
10
245.1883519999999805
20
-234.7985099999999932
11
239.9222219999999766
21
-235.9659829999999943
0
LINE
8
BLACK
6
CONTINUOUS
10
244.3363159999999823
20
-230.955221999999992
11
244.206341999999978
21
-230.3689469999999915
0
LINE
8
BLACK
6
CONTINUOUS
10
244.206341999999978
20
-230.3689469999999915
11
234.8575259999999787
21
-232.4415300000000002
0
LINE
8
BLACK
6
CONTINUOUS
10
236.1719629999999768
20
-238.7226309999999785
11
238.1226979999999855
21
-238.2905719999999974
0
LINE
8
BLACK
6
CONTINUOUS
10
234.3698159999999859
20
-239.1225659999999777
11
235.0809409999999957
21
-238.9649129999999957
0
LINE
8
BLACK
6
CONTINUOUS
10
234.2652769999999975
20
-238.6510159999999985
11
234.3698159999999859
21
-239.1225659999999777
0
LINE
8
BLACK
6
CONTINUOUS
10
233.3856669999999838
20
-234.6833489999999927
11
233.6770379999999818
21
-235.9976379999999949
0
LINE
8
BLACK
6
CONTINUOUS
10
232.4222149999999942
20
-239.0596129999999846
11
234.2652769999999975
21
-238.6510159999999985
0
LINE
8
BLACK
6
CONTINUOUS
10
231.833974999999981
20
-236.406234999999981
11
233.6770379999999818
21
-235.9976379999999949
0
LINE
8
BLACK
6
CONTINUOUS
10
231.833974999999981
20
-236.406234999999981
11
232.4222149999999942
21
-239.0596129999999846
0
CIRCLE
8
BLACK
10
110.4329019999999986
20
-285.9664679999999635
40
0.85
0
CIRCLE
8
BLACK
10
105.5259989999999988
20
-284.6516669999999749
40
2.
0
ARC
8
BLACK
10
105.3175990000000013
20
-284.3139549999999645
40
2.2678771004013867
50
74.35535087
51
155.15590204
0
ARC
8
BLACK
10
100.6223919999999907
20
-283.3254579999999692
40
0.8559126071568288
50
-244.22117869
51
34.26208112
0
ARC
8
BLACK
10
102.5373659999999916
20
-278.4706109999999626
40
1.8806437403030378
50
73.73332430
51
164.69308896
0
LINE
8
BLACK
6
CONTINUOUS
10
113.9817239999999998
20
-280.2123009999999681
11
112.1582389999999947
21
-279.723700000000008
0
LINE
8
BLACK
6
CONTINUOUS
10
113.2783060000000006
20
-282.8374939999999924
11
113.9817239999999998
21
-280.2123009999999681
0
LINE
8
BLACK
6
CONTINUOUS
10
113.2783060000000006
20
-282.8374939999999924
11
111.4548209999999955
21
-282.3488929999999755
0
LINE
8
BLACK
6
CONTINUOUS
10
112.3136619999999937
20
-279.1436519999999746
11
103.0641499999999979
21
-276.665253000000007
0
LINE
8
BLACK
6
CONTINUOUS
10
112.1582389999999947
20
-279.723700000000008
11
112.3136619999999937
21
-279.1436519999999746
0
LINE
8
BLACK
6
CONTINUOUS
10
111.1393719999999945
20
-283.5261639999999943
11
111.4548209999999955
21
-282.3488929999999755
0
LINE
8
BLACK
6
CONTINUOUS
10
111.1393719999999945
20
-283.5261639999999943
11
105.9291779999999932
21
-282.1300969999999779
0
LINE
8
BLACK
6
CONTINUOUS
10
101.329779000000002
20
-282.8435969999999884
11
103.2596039999999959
21
-283.3611050000000091
0
LINE
8
BLACK
6
CONTINUOUS
10
100.7234369999999899
20
-277.9741409999999746
11
100.3750149999999906
21
-279.2744710000000055
0
LINE
8
BLACK
6
CONTINUOUS
10
99.6715969999999913
20
-281.8996639999999729
11
99.5465879999999999
21
-282.3662049999999795
0
LINE
8
BLACK
6
CONTINUOUS
10
99.5465879999999999
20
-282.3662049999999795
11
100.2501570000000015
21
-282.5547259999999596
0
LINE
8
BLACK
6
CONTINUOUS
10
98.5515299999999996
20
-278.785868999999991
11
100.3750149999999906
21
-279.2744710000000055
0
LINE
8
BLACK
6
CONTINUOUS
10
98.5515299999999996
20
-278.785868999999991
11
97.8481109999999887
21
-281.4110640000000103
0
LINE
8
BLACK
6
CONTINUOUS
10
97.8481109999999887
20
-281.4110640000000103
11
99.6715969999999913
21
-281.8996639999999729
0
CIRCLE
8
BLACK
10
188.5700429999999983
20
-306.8890920000000051
40
1.0999999999999999
0
CIRCLE
8
BLACK
10
253.9130449999999826
20
-274.3877640000000042
40
0.85
0
CIRCLE
8
BLACK
10
248.9534609999999759
20
-275.487277000000006
40
2.
0
ARC
8
BLACK
10
248.6126809999999807
20
-275.2839589999999816
40
2.267886690247332
50
-258.14442135
51
-177.34431317
0
ARC
8
BLACK
10
243.9915329999999756
20
-276.5751490000000103
40
0.8559130400017282
50
-216.72123450
51
61.76204226
0
ARC
8
BLACK
10
243.4484159999999804
20
-271.3846100000000092
40
1.8806420035522442
50
-258.76668354
51
-167.80686631
0
LINE
8
BLACK
6
CONTINUOUS
10
254.9921489999999835
20
-270.2984690000000114
11
254.4039099999999962
21
-267.6450919999999769
0
LINE
8
BLACK
6
CONTINUOUS
10
254.9921489999999835
20
-270.2984690000000114
11
253.1490869999999802
21
-270.7070659999999975
0
LINE
8
BLACK
6
CONTINUOUS
10
254.4039099999999962
20
-267.6450919999999769
11
252.5608479999999929
21
-268.053688999999963
0
LINE
8
BLACK
6
CONTINUOUS
10
253.4128839999999911
20
-271.8969769999999926
11
253.1490869999999802
21
-270.7070659999999975
0
LINE
8
BLACK
6
CONTINUOUS
10
253.4128839999999911
20
-271.8969769999999926
11
248.1467539999999872
21
-273.0644499999999653
0
LINE
8
BLACK
6
CONTINUOUS
10
252.5608479999999929
20
-268.053688999999963
11
252.4308739999999887
21
-267.4674139999999625
0
LINE
8
BLACK
6
CONTINUOUS
10
252.4308739999999887
20
-267.4674139999999625
11
243.0820579999999893
21
-269.5399969999999712
0
LINE
8
BLACK
6
CONTINUOUS
10
244.3964949999999874
20
-275.8210980000000063
11
246.3472299999999962
21
-275.3890389999999684
0
LINE
8
BLACK
6
CONTINUOUS
10
242.5943479999999965
20
-276.2210329999999772
11
243.3054729999999779
21
-276.0633799999999951
0
LINE
8
BLACK
6
CONTINUOUS
10
242.4898089999999797
20
-275.7494829999999979
11
242.5943479999999965
21
-276.2210329999999772
0
LINE
8
BLACK
6
CONTINUOUS
10
241.6101989999999944
20
-271.7818159999999921
11
241.9015699999999924
21
-273.0961049999999659
0
LINE
8
BLACK
6
CONTINUOUS
10
240.6467469999999764
20
-276.158079999999984
11
242.4898089999999797
21
-275.7494829999999979
0
LINE
8
BLACK
6
CONTINUOUS
10
240.0585069999999916
20
-273.5047020000000089
11
241.9015699999999924
21
-273.0961049999999659
0
LINE
8
BLACK
6
CONTINUOUS
10
240.0585069999999916
20
-273.5047020000000089
11
240.6467469999999764
21
-276.158079999999984
0
CIRCLE
8
BLACK
10
100.9158869999999979
20
-241.3543229999999937
40
0.85
0
CIRCLE
8
BLACK
10
95.9563029999999912
20
-240.254809999999992
40
2.
0
ARC
8
BLACK
10
95.7333699999999936
20
-239.9265069999999866
40
2.2678742760552222
50
76.85531712
51
157.65594419
0
ARC
8
BLACK
10
90.9995150000000024
20
-239.1437549999999987
40
0.8559123153623857
50
-241.72112903
51
36.76208212
0
ARC
8
BLACK
10
92.7009029999999967
20
-234.2100020000000029
40
1.8806458817993885
50
76.23343004
51
167.19304127
0
LINE
8
BLACK
6
CONTINUOUS
10
104.210337999999993
20
-235.4508359999999811
11
102.3672759999999897
21
-235.042238999999995
0
LINE
8
BLACK
6
CONTINUOUS
10
103.622097999999994
20
-238.1042129999999872
11
104.210337999999993
21
-235.4508359999999811
0
LINE
8
BLACK
6
CONTINUOUS
10
103.622097999999994
20
-238.1042129999999872
11
101.7790359999999907
21
-237.6956160000000011
0
LINE
8
BLACK
6
CONTINUOUS
10
102.497249999999994
20
-234.4559639999999945
11
93.1484339999999946
21
-232.3833819999999832
0
LINE
8
BLACK
6
CONTINUOUS
10
102.3672759999999897
20
-235.042238999999995
11
102.497249999999994
21
-234.4559639999999945
0
LINE
8
BLACK
6
CONTINUOUS
10
101.515238999999994
20
-238.8855269999999962
11
101.7790359999999907
21
-237.6956160000000011
0
LINE
8
BLACK
6
CONTINUOUS
10
101.515238999999994
20
-238.8855269999999962
11
96.24910899999999
21
-237.7180539999999951
0
LINE
8
BLACK
6
CONTINUOUS
10
91.6852099999999979
20
-238.631496999999996
11
93.6357730000000004
21
-239.0643349999999998
0
LINE
8
BLACK
6
CONTINUOUS
10
90.8670429999999953
20
-233.7931250000000034
11
90.5756719999999973
21
-235.1074139999999772
0
LINE
8
BLACK
6
CONTINUOUS
10
89.9874319999999983
20
-237.7607919999999808
11
89.8828919999999982
21
-238.2323419999999885
0
LINE
8
BLACK
6
CONTINUOUS
10
89.8828919999999982
20
-238.2323419999999885
11
90.5940149999999988
21
-238.3899940000000015
0
LINE
8
BLACK
6
CONTINUOUS
10
88.732609999999994
20
-234.6988169999999911
11
90.5756719999999973
21
-235.1074139999999772
0
LINE
8
BLACK
6
CONTINUOUS
10
88.732609999999994
20
-234.6988169999999911
11
88.144369999999995
21
-237.3521949999999947
0
LINE
8
BLACK
6
CONTINUOUS
10
88.144369999999995
20
-237.3521949999999947
11
89.9874319999999983
21
-237.7607919999999808
0
CIRCLE
8
BLACK
10
230.7538429999999892
20
-257.7048810000000003
40
0.85
0
CIRCLE
8
BLACK
10
225.7942589999999825
20
-258.8043940000000021
40
2.
0
ARC
8
BLACK
10
225.4534789999999873
20
-258.6010759999999777
40
2.267886690247332
50
-258.14442135
51
-177.34431317
0
ARC
8
BLACK
10
220.8323309999999822
20
-259.8922660000000064
40
0.8559130400017282
50
-216.72123450
51
61.76204226
0
ARC
8
BLACK
10
220.289213999999987
20
-254.7017269999999769
40
1.8806420035522442
50
-258.76668354
51
-167.80686631
0
LINE
8
BLACK
6
CONTINUOUS
10
231.8329469999999901
20
-253.6155859999999791
11
231.2447080000000028
21
-250.9622090000000014
0
LINE
8
BLACK
6
CONTINUOUS
10
231.8329469999999901
20
-253.6155859999999791
11
229.9898849999999868
21
-254.0241829999999936
0
LINE
8
BLACK
6
CONTINUOUS
10
231.2447080000000028
20
-250.9622090000000014
11
229.4016459999999995
21
-251.3708059999999875
0
LINE
8
BLACK
6
CONTINUOUS
10
230.2536819999999977
20
-255.2140939999999887
11
229.9898849999999868
21
-254.0241829999999936
0
LINE
8
BLACK
6
CONTINUOUS
10
230.2536819999999977
20
-255.2140939999999887
11
224.9875519999999938
21
-256.3815669999999614
0
LINE
8
BLACK
6
CONTINUOUS
10
229.4016459999999995
20
-251.3708059999999875
11
229.2716719999999953
21
-250.784530999999987
0
LINE
8
BLACK
6
CONTINUOUS
10
229.2716719999999953
20
-250.784530999999987
11
219.9228559999999959
21
-252.8571139999999957
0
LINE
8
BLACK
6
CONTINUOUS
10
221.237292999999994
20
-259.1382150000000024
11
223.1880280000000027
21
-258.7061559999999645
0
LINE
8
BLACK
6
CONTINUOUS
10
219.4351460000000031
20
-259.5381499999999733
11
220.1462709999999845
21
-259.3804969999999912
0
LINE
8
BLACK
6
CONTINUOUS
10
219.3306069999999863
20
-259.066599999999994
11
219.4351460000000031
21
-259.5381499999999733
0
LINE
8
BLACK
6
CONTINUOUS
10
218.450997000000001
20
-255.0989329999999882
11
218.742367999999999
21
-256.413221999999962
0
LINE
8
BLACK
6
CONTINUOUS
10
217.487544999999983
20
-259.4751969999999801
11
219.3306069999999863
21
-259.066599999999994
0
LINE
8
BLACK
6
CONTINUOUS
10
216.8993049999999982
20
-256.821819000000005
11
218.742367999999999
21
-256.413221999999962
0
LINE
8
BLACK
6
CONTINUOUS
10
216.8993049999999982
20
-256.821819000000005
11
217.487544999999983
21
-259.4751969999999801
0
CIRCLE
8
BLACK
10
208.0615939999999853
20
-246.3343909999999823
40
0.85
0
CIRCLE
8
BLACK
10
203.1546909999999855
20
-247.6491919999999993
40
2.
0
ARC
8
BLACK
10
202.8053689999999847
20
-247.4609329999999829
40
2.2678883644434529
50
-255.64438224
51
-174.84433149
0
ARC
8
BLACK
10
198.2449379999999906
20
-248.9524649999999895
40
0.855913345630853
50
-214.22121554
51
64.26207614
0
ARC
8
BLACK
10
197.4759320000000002
20
-243.7905569999999784
40
1.8806441659221449
50
-256.26663724
51
-165.30691027
0
LINE
8
BLACK
6
CONTINUOUS
10
208.9612989999999968
20
-242.2019189999999753
11
208.2578809999999976
21
-239.5767259999999794
0
LINE
8
BLACK
6
CONTINUOUS
10
208.9612989999999968
20
-242.2019189999999753
11
207.1378139999999917
21
-242.6905199999999923
0
LINE
8
BLACK
6
CONTINUOUS
10
208.2578809999999976
20
-239.5767259999999794
11
206.4343959999999925
21
-240.0653269999999964
0
LINE
8
BLACK
6
CONTINUOUS
10
207.4532629999999926
20
-243.8677919999999801
11
207.1378139999999917
21
-242.6905199999999923
0
LINE
8
BLACK
6
CONTINUOUS
10
207.4532629999999926
20
-243.8677919999999801
11
202.2430699999999888
21
-245.2638589999999965
0
LINE
8
BLACK
6
CONTINUOUS
10
206.4343959999999925
20
-240.0653269999999964
11
206.2789719999999818
21
-239.4852799999999888
0
LINE
8
BLACK
6
CONTINUOUS
10
206.2789719999999818
20
-239.4852799999999888
11
197.0294600000000003
21
-241.9636789999999849
0
LINE
8
BLACK
6
CONTINUOUS
10
198.6166230000000041
20
-248.1814669999999978
11
200.5466559999999845
21
-247.6647299999999916
0
LINE
8
BLACK
6
CONTINUOUS
10
196.8336379999999792
20
-248.6596299999999928
11
197.5372079999999926
21
-248.4711089999999842
0
LINE
8
BLACK
6
CONTINUOUS
10
196.708629000000002
20
-248.1930899999999838
11
196.8336379999999792
21
-248.6596299999999928
0
LINE
8
BLACK
6
CONTINUOUS
10
195.6567879999999775
20
-244.267565999999988
11
196.0052100000000053
21
-245.5678949999999929
0
LINE
8
BLACK
6
CONTINUOUS
10
194.8851429999999993
20
-248.6816899999999748
11
196.708629000000002
21
-248.1930899999999838
0
LINE
8
BLACK
6
CONTINUOUS
10
194.1817250000000001
20
-246.0564969999999789
11
196.0052100000000053
21
-245.5678949999999929
0
LINE
8
BLACK
6
CONTINUOUS
10
194.1817250000000001
20
-246.0564969999999789
11
194.8851429999999993
21
-248.6816899999999748
0
CIRCLE
8
BLACK
10
129.0681749999999965
20
-306.8890920000000051
40
1.0999999999999999
0
CIRCLE
8
BLACK
10
128.0527469999999823
20
-293.7061429999999973
40
0.85
0
CIRCLE
8
BLACK
10
123.1458439999999968
20
-292.3913420000000087
40
2.
0
ARC
8
BLACK
10
122.9374439999999993
20
-292.0536299999999983
40
2.2678771004013867
50
74.35535087
51
155.15590204
0
ARC
8
BLACK
10
118.2422369999999887
20
-291.065133000000003
40
0.8559126071568288
50
-244.22117869
51
34.26208112
0
ARC
8
BLACK
10
120.1572109999999896
20
-286.2102859999999964
40
1.8806437403030378
50
73.73332430
51
164.69308896
0
LINE
8
BLACK
6
CONTINUOUS
10
131.6015689999999836
20
-287.9519760000000019
11
129.7780840000000069
21
-287.463374999999985
0
LINE
8
BLACK
6
CONTINUOUS
10
130.8981509999999844
20
-290.5771689999999694
11
131.6015689999999836
21
-287.9519760000000019
0
LINE
8
BLACK
6
CONTINUOUS
10
130.8981509999999844
20
-290.5771689999999694
11
129.0746660000000077
21
-290.0885680000000093
0
LINE
8
BLACK
6
CONTINUOUS
10
129.9335069999999916
20
-286.8833270000000084
11
120.6839949999999959
21
-284.404927999999984
0
LINE
8
BLACK
6
CONTINUOUS
10
129.7780840000000069
20
-287.463374999999985
11
129.9335069999999916
21
-286.8833270000000084
0
LINE
8
BLACK
6
CONTINUOUS
10
128.7592170000000067
20
-291.2658389999999713
11
129.0746660000000077
21
-290.0885680000000093
0
LINE
8
BLACK
6
CONTINUOUS
10
128.7592170000000067
20
-291.2658389999999713
11
123.5490229999999912
21
-289.8697720000000118
0
LINE
8
BLACK
6
CONTINUOUS
10
118.949624
20
-290.5832719999999654
11
120.8794489999999939
21
-291.1007799999999861
0
LINE
8
BLACK
6
CONTINUOUS
10
118.3432819999999879
20
-285.7138160000000084
11
117.9948599999999885
21
-287.0141459999999825
0
LINE
8
BLACK
6
CONTINUOUS
10
117.2914419999999893
20
-289.6393390000000068
11
117.1664329999999978
21
-290.1058800000000133
0
LINE
8
BLACK
6
CONTINUOUS
10
117.1664329999999978
20
-290.1058800000000133
11
117.8700019999999995
21
-290.2944009999999935
0
LINE
8
BLACK
6
CONTINUOUS
10
116.1713749999999976
20
-286.525543999999968
11
117.9948599999999885
21
-287.0141459999999825
0
LINE
8
BLACK
6
CONTINUOUS
10
116.1713749999999976
20
-286.525543999999968
11
115.4679560000000009
21
-289.1507389999999873
0
LINE
8
BLACK
6
CONTINUOUS
10
115.4679560000000009
20
-289.1507389999999873
11
117.2914419999999893
21
-289.6393390000000068
0
CIRCLE
8
BLACK
10
137.0691750000000013
20
-245.2940919999999778
40
1.0999999999999999
0
CIRCLE
8
BLACK
10
146.819232999999997
20
-286.6409079999999676
40
1.0999999999999999
0
CIRCLE
8
BLACK
10
96.8035429999999906
20
-259.9039070000000038
40
0.85
0
CIRCLE
8
BLACK
10
91.8439589999999981
20
-258.8043940000000021
40
2.
0
ARC
8
BLACK
10
91.6210260000000005
20
-258.4760909999999967
40
2.2678742760552222
50
76.85531712
51
157.65594419
0
ARC
8
BLACK
10
86.887170999999995
20
-257.6933389999999804
40
0.8559123153623857
50
-241.72112903
51
36.76208212
0
ARC
8
BLACK
10
88.5885589999999894
20
-252.7595859999999846
40
1.8806458817993885
50
76.23343004
51
167.19304127
0
LINE
8
BLACK
6
CONTINUOUS
10
100.0979939999999999
20
-254.0004199999999912
11
98.2549319999999966
21
-253.5918229999999767
0
LINE
8
BLACK
6
CONTINUOUS
10
99.5097540000000009
20
-256.6537969999999973
11
100.0979939999999999
21
-254.0004199999999912
0
LINE
8
BLACK
6
CONTINUOUS
10
99.5097540000000009
20
-256.6537969999999973
11
97.6666919999999976
21
-256.2452000000000112
0
LINE
8
BLACK
6
CONTINUOUS
10
98.3849060000000009
20
-253.0055479999999761
11
89.0360900000000015
21
-250.9329659999999933
0
LINE
8
BLACK
6
CONTINUOUS
10
98.2549319999999966
20
-253.5918229999999767
11
98.3849060000000009
21
-253.0055479999999761
0
LINE
8
BLACK
6
CONTINUOUS
10
97.4028950000000009
20
-257.4351110000000062
11
97.6666919999999976
21
-256.2452000000000112
0
LINE
8
BLACK
6
CONTINUOUS
10
97.4028950000000009
20
-257.4351110000000062
11
92.1367649999999969
21
-256.2676379999999767
0
LINE
8
BLACK
6
CONTINUOUS
10
87.5728659999999905
20
-257.181081000000006
11
89.523428999999993
21
-257.6139190000000099
0
LINE
8
BLACK
6
CONTINUOUS
10
86.7546990000000022
20
-252.3427089999999851
11
86.46332799999999
21
-253.6569979999999873
0
LINE
8
BLACK
6
CONTINUOUS
10
85.875087999999991
20
-256.3103759999999625
11
85.7705479999999909
21
-256.7819259999999986
0
LINE
8
BLACK
6
CONTINUOUS
10
85.7705479999999909
20
-256.7819259999999986
11
86.4816709999999915
21
-256.9395779999999831
0
LINE
8
BLACK
6
CONTINUOUS
10
84.6202660000000009
20
-253.2484010000000012
11
86.46332799999999
21
-253.6569979999999873
0
LINE
8
BLACK
6
CONTINUOUS
10
84.6202660000000009
20
-253.2484010000000012
11
84.0320260000000019
21
-255.9017789999999763
0
LINE
8
BLACK
6
CONTINUOUS
10
84.0320260000000019
20
-255.9017789999999763
11
85.875087999999991
21
-256.3103759999999625
0
CIRCLE
8
BLACK
10
132.5544109999999876
20
-275.2500579999999673
40
0.85
0
CIRCLE
8
BLACK
10
127.6475079999999878
20
-273.9352569999999787
40
2.
0
ARC
8
BLACK
10
127.4391079999999903
20
-273.5975449999999682
40
2.2678771004013867
50
74.35535087
51
155.15590204
0
ARC
8
BLACK
10
122.7439009999999939
20
-272.6090479999999729
40
0.8559126071568288
50
-244.22117869
51
34.26208112
0
ARC
8
BLACK
10
124.6588749999999948
20
-267.7542009999999664
40
1.8806437403030378
50
73.73332430
51
164.69308896
0
LINE
8
BLACK
6
CONTINUOUS
10
136.1032329999999888
20
-269.4958909999999719
11
134.2797479999999837
21
-269.0072900000000118
0
LINE
8
BLACK
6
CONTINUOUS
10
135.3998149999999896
20
-272.1210839999999962
11
136.1032329999999888
21
-269.4958909999999719
0
LINE
8
BLACK
6
CONTINUOUS
10
135.3998149999999896
20
-272.1210839999999962
11
133.5763299999999845
21
-271.6324829999999793
0
LINE
8
BLACK
6
CONTINUOUS
10
134.4351709999999969
20
-268.4272419999999784
11
125.1856590000000011
21
-265.9488430000000108
0
LINE
8
BLACK
6
CONTINUOUS
10
134.2797479999999837
20
-269.0072900000000118
11
134.4351709999999969
21
-268.4272419999999784
0
LINE
8
BLACK
6
CONTINUOUS
10
133.2608809999999835
20
-272.8097539999999981
11
133.5763299999999845
21
-271.6324829999999793
0
LINE
8
BLACK
6
CONTINUOUS
10
133.2608809999999835
20
-272.8097539999999981
11
128.0506869999999822
21
-271.4136869999999817
0
LINE
8
BLACK
6
CONTINUOUS
10
123.451287999999991
20
-272.1271869999999922
11
125.3811129999999991
21
-272.6446950000000129
0
LINE
8
BLACK
6
CONTINUOUS
10
122.8449459999999931
20
-267.2577309999999784
11
122.4965239999999937
21
-268.5580610000000092
0
LINE
8
BLACK
6
CONTINUOUS
10
121.7931059999999945
20
-271.1832539999999767
11
121.6680969999999888
21
-271.6497949999999832
0
LINE
8
BLACK
6
CONTINUOUS
10
121.6680969999999888
20
-271.6497949999999832
11
122.3716659999999905
21
-271.8383159999999634
0
LINE
8
BLACK
6
CONTINUOUS
10
120.6730389999999886
20
-268.0694589999999948
11
122.4965239999999937
21
-268.5580610000000092
0
LINE
8
BLACK
6
CONTINUOUS
10
120.6730389999999886
20
-268.0694589999999948
11
119.9696199999999919
21
-270.6946540000000141
0
LINE
8
BLACK
6
CONTINUOUS
10
119.9696199999999919
20
-270.6946540000000141
11
121.7931059999999945
21
-271.1832539999999767
0
CIRCLE
8
BLACK
10
176.3185859999999821
20
-307.8275739999999701
40
0.8999999999999999
0
CIRCLE
8
BLACK
10
176.3185859999999821
20
-305.2875740000000064
40
0.8999999999999999
0
CIRCLE
8
BLACK
10
176.3185859999999821
20
-302.747573999999986
40
0.8999999999999999
0
CIRCLE
8
BLACK
10
176.3185859999999821
20
-300.2075739999999655
40
0.8999999999999999
0
CIRCLE
8
BLACK
10
128.6719300000000032
20
-320.7450379999999655
40
0.85
0
CIRCLE
8
BLACK
10
124.1659149999999983
20
-318.3993549999999573
40
2.
0
ARC
8
BLACK
10
124.0355539999999905
20
-318.0245580000000132
40
2.2678891599639517
50
61.85564311
51
142.65563538
0
ARC
8
BLACK
10
122.5859469999999902
20
-311.7179479999999785
40
1.880637114684808
50
61.23313142
51
152.19328461
0
ARC
8
BLACK
10
119.6655869999999879
20
-316.043247000000008
40
0.8559125398035713
50
-256.72120331
51
21.76205401
0
LINE
8
BLACK
6
CONTINUOUS
10
133.3820609999999931
20
-315.8953740000000039
11
131.7075519999999926
21
-315.023680000000013
0
LINE
8
BLACK
6
CONTINUOUS
10
132.1271199999999908
20
-318.3060919999999783
11
133.3820609999999931
21
-315.8953740000000039
0
LINE
8
BLACK
6
CONTINUOUS
10
132.1271199999999908
20
-318.3060919999999783
11
130.4526109999999903
21
-317.4343979999999874
0
LINE
8
BLACK
6
CONTINUOUS
10
131.9848360000000014
20
-314.4910219999999867
11
123.4909979999999905
21
-310.0694090000000074
0
LINE
8
BLACK
6
CONTINUOUS
10
131.7075519999999926
20
-315.023680000000013
11
131.9848360000000014
21
-314.4910219999999867
0
LINE
8
BLACK
6
CONTINUOUS
10
129.8898319999999842
20
-318.5154870000000074
11
130.4526109999999903
21
-317.4343979999999874
0
LINE
8
BLACK
6
CONTINUOUS
10
129.8898319999999842
20
-318.5154870000000074
11
125.1053050000000013
21
-316.024819999999977
0
LINE
8
BLACK
6
CONTINUOUS
10
120.922473999999994
20
-310.8406489999999849
11
120.3008679999999941
21
-312.0347429999999918
0
LINE
8
BLACK
6
CONTINUOUS
10
120.4604999999999961
20
-315.7259149999999863
11
122.2325729999999879
21
-316.6488469999999893
0
LINE
8
BLACK
6
CONTINUOUS
10
119.0459279999999893
20
-314.4454609999999661
11
118.8229039999999941
21
-314.8738859999999704
0
LINE
8
BLACK
6
CONTINUOUS
10
118.8229039999999941
20
-314.8738859999999704
11
119.4689929999999976
21
-315.210218999999995
0
LINE
8
BLACK
6
CONTINUOUS
10
118.6263599999999911
20
-311.1630490000000009
11
120.3008679999999941
21
-312.0347429999999918
0
LINE
8
BLACK
6
CONTINUOUS
10
118.6263599999999911
20
-311.1630490000000009
11
117.3714189999999888
21
-313.5737669999999753
0
LINE
8
BLACK
6
CONTINUOUS
10
117.3714189999999888
20
-313.5737669999999753
11
119.0459279999999893
21
-314.4454609999999661
0
CIRCLE
8
BLACK
10
190.4858989999999892
20
-254.1501930000000016
40
0.85
0
CIRCLE
8
BLACK
10
185.5789959999999894
20
-255.4649939999999901
40
2.
0
ARC
8
BLACK
10
185.2296739999999886
20
-255.2767350000000022
40
2.2678883644434529
50
-255.64438224
51
-174.84433149
0
ARC
8
BLACK
10
180.6692429999999945
20
-256.7682669999999803
40
0.855913345630853
50
-214.22121554
51
64.26207614
0
ARC
8
BLACK
10
179.9002370000000042
20
-251.6063589999999976
40
1.8806441659221449
50
-256.26663724
51
-165.30691027
0
LINE
8
BLACK
6
CONTINUOUS
10
191.3856040000000007
20
-250.0177209999999945
11
190.6821860000000015
21
-247.3925279999999987
0
LINE
8
BLACK
6
CONTINUOUS
10
191.3856040000000007
20
-250.0177209999999945
11
189.5621189999999956
21
-250.5063219999999831
0
LINE
8
BLACK
6
CONTINUOUS
10
190.6821860000000015
20
-247.3925279999999987
11
188.8587009999999964
21
-247.8811289999999872
0
LINE
8
BLACK
6
CONTINUOUS
10
189.8775679999999966
20
-251.6835939999999994
11
189.5621189999999956
21
-250.5063219999999831
0
LINE
8
BLACK
6
CONTINUOUS
10
189.8775679999999966
20
-251.6835939999999994
11
184.6673749999999927
21
-253.0796609999999873
0
LINE
8
BLACK
6
CONTINUOUS
10
188.8587009999999964
20
-247.8811289999999872
11
188.7032769999999857
21
-247.3010819999999796
0
LINE
8
BLACK
6
CONTINUOUS
10
188.7032769999999857
20
-247.3010819999999796
11
179.4537650000000042
21
-249.7794809999999757
0
LINE
8
BLACK
6
CONTINUOUS
10
181.0409279999999796
20
-255.9972689999999886
11
182.9709609999999884
21
-255.4805319999999824
0
LINE
8
BLACK
6
CONTINUOUS
10
179.2579429999999832
20
-256.4754320000000121
11
179.9615129999999965
21
-256.286910999999975
0
LINE
8
BLACK
6
CONTINUOUS
10
179.1329340000000059
20
-256.008892000000003
11
179.2579429999999832
21
-256.4754320000000121
0
LINE
8
BLACK
6
CONTINUOUS
10
178.0810929999999814
20
-252.0833679999999788
11
178.4295149999999808
21
-253.3836969999999837
0
LINE
8
BLACK
6
CONTINUOUS
10
177.3094480000000033
20
-256.4974919999999656
11
179.1329340000000059
21
-256.008892000000003
0
LINE
8
BLACK
6
CONTINUOUS
10
176.6060300000000041
20
-253.8722989999999982
11
178.4295149999999808
21
-253.3836969999999837
0
LINE
8
BLACK
6
CONTINUOUS
10
176.6060300000000041
20
-253.8722989999999982
11
177.3094480000000033
21
-256.4974919999999656
0
CIRCLE
8
BLACK
10
217.0191219999999817
20
-283.3368659999999863
40
0.85
0
CIRCLE
8
BLACK
10
212.1122189999999819
20
-284.6516669999999749
40
2.
0
ARC
8
BLACK
10
211.7628969999999811
20
-284.4634080000000154
40
2.2678883644434529
50
-255.64438224
51
-174.84433149
0
ARC
8
BLACK
10
207.2024659999999869
20
-285.954939999999965
40
0.855913345630853
50
-214.22121554
51
64.26207614
0
ARC
8
BLACK
10
206.4334599999999966
20
-280.7930319999999824
40
1.8806441659221449
50
-256.26663724
51
-165.30691027
0
LINE
8
BLACK
6
CONTINUOUS
10
217.9188269999999932
20
-279.2043939999999793
11
217.215408999999994
21
-276.5792010000000118
0
LINE
8
BLACK
6
CONTINUOUS
10
217.9188269999999932
20
-279.2043939999999793
11
216.095341999999988
21
-279.6929949999999963
0
LINE
8
BLACK
6
CONTINUOUS
10
217.215408999999994
20
-276.5792010000000118
11
215.3919239999999888
21
-277.0678019999999719
0
LINE
8
BLACK
6
CONTINUOUS
10
216.410790999999989
20
-280.8702670000000126
11
216.095341999999988
21
-279.6929949999999963
0
LINE
8
BLACK
6
CONTINUOUS
10
216.410790999999989
20
-280.8702670000000126
11
211.2005979999999852
21
-282.2663339999999721
0
LINE
8
BLACK
6
CONTINUOUS
10
215.3919239999999888
20
-277.0678019999999719
11
215.2364999999999782
21
-276.4877549999999928
0
LINE
8
BLACK
6
CONTINUOUS
10
215.2364999999999782
20
-276.4877549999999928
11
205.9869879999999966
21
-278.9661539999999604
0
LINE
8
BLACK
6
CONTINUOUS
10
207.5741510000000005
20
-285.1839420000000018
11
209.5041839999999809
21
-284.6672049999999672
0
LINE
8
BLACK
6
CONTINUOUS
10
205.791166000000004
20
-285.6621049999999968
11
206.494735999999989
21
-285.4735839999999598
0
LINE
8
BLACK
6
CONTINUOUS
10
205.6661569999999983
20
-285.1955649999999878
11
205.791166000000004
21
-285.6621049999999968
0
LINE
8
BLACK
6
CONTINUOUS
10
204.6143160000000023
20
-281.270040999999992
11
204.9627380000000016
21
-282.5703699999999685
0
LINE
8
BLACK
6
CONTINUOUS
10
203.8426709999999957
20
-285.6841650000000072
11
205.6661569999999983
21
-285.1955649999999878
0
LINE
8
BLACK
6
CONTINUOUS
10
203.1392529999999965
20
-283.0589719999999829
11
204.9627380000000016
21
-282.5703699999999685
0
LINE
8
BLACK
6
CONTINUOUS
10
203.1392529999999965
20
-283.0589719999999829
11
203.8426709999999957
21
-285.6841650000000072
0
CIRCLE
8
BLACK
10
268.8979420000000005
20
-254.1922359999999799
40
0.85
0
CIRCLE
8
BLACK
10
263.9112759999999867
20
-255.1615459999999871
40
2.
0
ARC
8
BLACK
10
263.5759370000000104
20
-254.9493789999999933
40
2.2678882812982653
50
-259.64438993
51
-178.84437458
0
ARC
8
BLACK
10
258.9225710000000049
20
-256.1191569999999729
40
0.855913103479553
50
-218.22121830
51
60.26204342
0
ARC
8
BLACK
10
258.5155149999999935
20
-250.9161799999999971
40
1.8806440531554607
50
-260.26663205
51
-169.30690836
0
LINE
8
BLACK
6
CONTINUOUS
10
270.0837219999999661
20
-250.1325909999999908
11
269.5651419999999803
21
-247.4647239999999897
0
LINE
8
BLACK
6
CONTINUOUS
10
270.0837219999999661
20
-250.1325909999999908
11
268.2305959999999914
21
-250.4928019999999833
0
LINE
8
BLACK
6
CONTINUOUS
10
269.5651419999999803
20
-247.4647239999999897
11
267.7120150000000081
21
-247.8249359999999797
0
LINE
8
BLACK
6
CONTINUOUS
10
268.4631539999999745
20
-251.6892100000000028
11
268.2305959999999914
21
-250.4928019999999833
0
LINE
8
BLACK
6
CONTINUOUS
10
268.4631539999999745
20
-251.6892100000000028
11
263.1682680000000119
21
-252.7184319999999786
0
LINE
8
BLACK
6
CONTINUOUS
10
267.7120150000000081
20
-247.8249359999999797
11
267.5974329999999668
21
-247.2354599999999891
0
LINE
8
BLACK
6
CONTINUOUS
10
267.5974329999999668
20
-247.2354599999999891
11
258.1975669999999923
21
-249.0626079999999831
0
LINE
8
BLACK
6
CONTINUOUS
10
259.3471329999999853
20
-255.3759649999999795
11
261.3085100000000125
21
-254.9951179999999908
0
LINE
8
BLACK
6
CONTINUOUS
10
257.5351359999999659
20
-255.728588000000002
11
258.25014299999998
21
-255.5896049999999775
0
LINE
8
BLACK
6
CONTINUOUS
10
257.4429759999999874
20
-255.254462999999987
11
257.5351359999999659
21
-255.728588000000002
0
LINE
8
BLACK
6
CONTINUOUS
10
256.6675280000000043
20
-251.2651299999999992
11
256.9243950000000041
21
-252.5865969999999834
0
LINE
8
BLACK
6
CONTINUOUS
10
255.5898489999999867
20
-255.6146739999999795
11
257.4429759999999874
21
-255.254462999999987
0
LINE
8
BLACK
6
CONTINUOUS
10
255.071267999999975
20
-252.9468079999999759
11
256.9243950000000041
21
-252.5865969999999834
0
LINE
8
BLACK
6
CONTINUOUS
10
255.071267999999975
20
-252.9468079999999759
11
255.5898489999999867
21
-255.6146739999999795
0
CIRCLE
8
BLACK
10
381.1562109999999848
20
-142.2409439999999847
40
1.0999999999999999
0
CIRCLE
8
BLACK
10
338.1562139999999772
20
-149.2409429999999873
40
1.0999999999999999
0
LINE
8
BLACK
6
CONTINUOUS
10
133.6070220000000006
20
-165.4225469999999802
11
127.1425419999999917
21
-177.8406990000000008
0
LINE
8
BLACK
6
CONTINUOUS
10
127.1425419999999917
20
-177.8406990000000008
11
114.7243899999999996
21
-171.3762189999999919
0
LINE
8
BLACK
6
CONTINUOUS
10
114.7243899999999996
20
-171.3762189999999919
11
121.1888699999999943
21
-158.9580669999999998
0
LINE
8
BLACK
6
CONTINUOUS
10
121.1888699999999943
20
-158.9580669999999998
11
133.6070220000000006
21
-165.4225469999999802
0
LINE
8
BLACK
6
CONTINUOUS
10
272.1181199999999762
20
-110.697300999999996
11
258.3753399999999942
21
-113.3686269999999894
0
LINE
8
BLACK
6
CONTINUOUS
10
258.3753399999999942
20
-113.3686269999999894
11
255.7040140000000008
21
-99.6258469999999932
0
LINE
8
BLACK
6
CONTINUOUS
10
255.7040140000000008
20
-99.6258469999999932
11
269.4467940000000112
21
-96.9545209999999997
0
LINE
8
BLACK
6
CONTINUOUS
10
269.4467940000000112
20
-96.9545209999999997
11
272.1181199999999762
21
-110.697300999999996
0
LINE
8
BLACK
6
CONTINUOUS
10
220.6852239999999767
20
-139.6014419999999916
11
207.1622629999999958
21
-143.2249089999999967
0
LINE
8
BLACK
6
CONTINUOUS
10
207.1622629999999958
20
-143.2249089999999967
11
203.5387959999999907
21
-129.7019479999999874
0
LINE
8
BLACK
6
CONTINUOUS
10
203.5387959999999907
20
-129.7019479999999874
11
217.0617570000000001
21
-126.0784809999999965
0
LINE
8
BLACK
6
CONTINUOUS
10
217.0617570000000001
20
-126.0784809999999965
11
220.6852239999999767
21
-139.6014419999999916
0
LINE
8
BLACK
6
CONTINUOUS
10
194.1520009999999843
20
-110.4147689999999926
11
180.6290400000000034
21
-114.0382359999999977
0
LINE
8
BLACK
6
CONTINUOUS
10
180.6290400000000034
20
-114.0382359999999977
11
177.0055729999999983
21
-100.5152749999999884
0
LINE
8
BLACK
6
CONTINUOUS
10
177.0055729999999983
20
-100.5152749999999884
11
190.5285339999999792
21
-96.8918079999999975
0
LINE
8
BLACK
6
CONTINUOUS
10
190.5285339999999792
20
-96.8918079999999975
11
194.1520009999999843
21
-110.4147689999999926
0
LINE
8
BLACK
6
CONTINUOUS
10
136.2205129999999826
20
-118.9855379999999911
11
132.597046000000006
21
-132.5084990000000005
0
LINE
8
BLACK
6
CONTINUOUS
10
132.597046000000006
20
-132.5084990000000005
11
119.0740849999999966
21
-128.8850319999999954
0
LINE
8
BLACK
6
CONTINUOUS
10
119.0740849999999966
20
-128.8850319999999954
11
122.6975519999999875
21
-115.3620710000000003
0
LINE
8
BLACK
6
CONTINUOUS
10
122.6975519999999875
20
-115.3620710000000003
11
136.2205129999999826
21
-118.9855379999999911
0
LINE
8
BLACK
6
CONTINUOUS
10
100.192898999999997
20
-103.4854270000000014
11
97.162745000000001
21
-117.1535709999999995
0
LINE
8
BLACK
6
CONTINUOUS
10
97.162745000000001
20
-117.1535709999999995
11
83.494601000000003
21
-114.1234169999999892
0
LINE
8
BLACK
6
CONTINUOUS
10
83.494601000000003
20
-114.1234169999999892
11
86.524754999999999
21
-100.4552729999999912
0
LINE
8
BLACK
6
CONTINUOUS
10
86.524754999999999
20
-100.4552729999999912
11
100.192898999999997
21
-103.4854270000000014
0
CIRCLE
8
BLACK
10
146.8190239999999847
20
-136.6409359999999822
40
1.0999999999999999
0
CIRCLE
8
BLACK
10
137.068965999999989
20
-95.2941199999999924
40
1.0999999999999999
0
LINE
8
BLACK
6
CONTINUOUS
10
131.7188490000000058
20
-137.4416229999999928
11
128.0953820000000007
21
-150.9645840000000021
0
LINE
8
BLACK
6
CONTINUOUS
10
128.0953820000000007
20
-150.9645840000000021
11
114.5724209999999914
21
-147.341116999999997
0
LINE
8
BLACK
6
CONTINUOUS
10
114.5724209999999914
20
-147.341116999999997
11
118.1958879999999965
21
-133.8181559999999877
0
LINE
8
BLACK
6
CONTINUOUS
10
118.1958879999999965
20
-133.8181559999999877
11
131.7188490000000058
21
-137.4416229999999928
0
CIRCLE
8
BLACK
10
129.0679659999999842
20
-156.8891199999999913
40
1.0999999999999999
0
LINE
8
BLACK
6
CONTINUOUS
10
211.7276959999999804
20
-102.5989670000000018
11
198.2047349999999994
21
-106.2224339999999927
0
LINE
8
BLACK
6
CONTINUOUS
10
198.2047349999999994
20
-106.2224339999999927
11
194.5812679999999943
21
-92.6994729999999976
0
LINE
8
BLACK
6
CONTINUOUS
10
194.5812679999999943
20
-92.6994729999999976
11
208.1042290000000037
21
-89.0760059999999925
0
LINE
8
BLACK
6
CONTINUOUS
10
208.1042290000000037
20
-89.0760059999999925
11
211.7276959999999804
21
-102.5989670000000018
0
LINE
8
BLACK
6
CONTINUOUS
10
114.0990039999999937
20
-129.7019479999999874
11
110.4755369999999886
21
-143.2249089999999967
0
LINE
8
BLACK
6
CONTINUOUS
10
110.4755369999999886
20
-143.2249089999999967
11
96.9525759999999934
21
-139.6014419999999916
0
LINE
8
BLACK
6
CONTINUOUS
10
96.9525759999999934
20
-139.6014419999999916
11
100.5760429999999985
21
-126.0784809999999965
0
LINE
8
BLACK
6
CONTINUOUS
10
100.5760429999999985
20
-126.0784809999999965
11
114.0990039999999937
21
-129.7019479999999874
0
LINE
8
BLACK
6
CONTINUOUS
10
249.0778689999999926
20
-93.7078329999999937
11
235.4097249999999804
21
-96.7379869999999897
0
LINE
8
BLACK
6
CONTINUOUS
10
235.4097249999999804
20
-96.7379869999999897
11
232.3795709999999985
21
-83.0698429999999917
0
LINE
8
BLACK
6
CONTINUOUS
10
232.3795709999999985
20
-83.0698429999999917
11
246.0477149999999824
21
-80.0396889999999956
0
LINE
8
BLACK
6
CONTINUOUS
10
246.0477149999999824
20
-80.0396889999999956
11
249.0778689999999926
21
-93.7078329999999937
0
LINE
8
BLACK
6
CONTINUOUS
10
202.4494100000000003
20
-171.6872189999999989
11
190.0312579999999798
21
-178.1516989999999794
0
LINE
8
BLACK
6
CONTINUOUS
10
190.0312579999999798
20
-178.1516989999999794
11
183.5667779999999993
21
-165.7335469999999873
0
LINE
8
BLACK
6
CONTINUOUS
10
183.5667779999999993
20
-165.7335469999999873
11
195.9849299999999914
21
-159.2690670000000068
0
LINE
8
BLACK
6
CONTINUOUS
10
195.9849299999999914
20
-159.2690670000000068
11
202.4494100000000003
21
-171.6872189999999989
0
LINE
8
BLACK
6
CONTINUOUS
10
234.1431989999999814
20
-114.1234169999999892
11
220.4750549999999976
21
-117.1535709999999995
0
LINE
8
BLACK
6
CONTINUOUS
10
220.4750549999999976
20
-117.1535709999999995
11
217.4449009999999873
21
-103.4854270000000014
0
LINE
8
BLACK
6
CONTINUOUS
10
217.4449009999999873
20
-103.4854270000000014
11
231.1130449999999996
21
-100.4552729999999912
0
LINE
8
BLACK
6
CONTINUOUS
10
231.1130449999999996
20
-100.4552729999999912
11
234.1431989999999814
21
-114.1234169999999892
0
LINE
8
BLACK
6
CONTINUOUS
10
203.0653789999999788
20
-147.341116999999997
11
189.5424179999999978
21
-150.9645840000000021
0
LINE
8
BLACK
6
CONTINUOUS
10
189.5424179999999978
20
-150.9645840000000021
11
185.9189509999999927
21
-137.4416229999999928
0
LINE
8
BLACK
6
CONTINUOUS
10
185.9189509999999927
20
-137.4416229999999928
11
199.4419120000000021
21
-133.8181559999999877
0
LINE
8
BLACK
6
CONTINUOUS
10
199.4419120000000021
20
-133.8181559999999877
11
203.0653789999999788
21
-147.341116999999997
0
LINE
8
BLACK
6
CONTINUOUS
10
104.3052429999999902
20
-84.9358429999999913
11
101.2750889999999941
21
-98.6039869999999894
0
LINE
8
BLACK
6
CONTINUOUS
10
101.2750889999999941
20
-98.6039869999999894
11
87.6069449999999961
21
-95.5738329999999934
0
LINE
8
BLACK
6
CONTINUOUS
10
87.6069449999999961
20
-95.5738329999999934
11
90.6370989999999921
21
-81.9056889999999953
0
LINE
8
BLACK
6
CONTINUOUS
10
90.6370989999999921
20
-81.9056889999999953
11
104.3052429999999902
21
-84.9358429999999913
0
CIRCLE
8
BLACK
10
170.8188609999999983
20
-136.6142240000000072
40
1.0999999999999999
0
LINE
8
BLACK
6
CONTINUOUS
10
257.3024009999999748
20
-130.8062999999999931
11
243.634256999999991
21
-133.8364540000000034
0
LINE
8
BLACK
6
CONTINUOUS
10
243.634256999999991
20
-133.8364540000000034
11
240.6041029999999807
21
-120.1683099999999911
0
LINE
8
BLACK
6
CONTINUOUS
10
240.6041029999999807
20
-120.1683099999999911
11
254.272246999999993
21
-117.1381559999999951
0
LINE
8
BLACK
6
CONTINUOUS
10
254.272246999999993
20
-117.1381559999999951
11
257.3024009999999748
21
-130.8062999999999931
0
CIRCLE
8
BLACK
10
188.569833999999986
20
-156.8891199999999913
40
1.0999999999999999
0
LINE
8
BLACK
6
CONTINUOUS
10
61.9337859999999978
20
-99.6258469999999932
11
59.2624599999999973
21
-113.3686269999999894
0
LINE
8
BLACK
6
CONTINUOUS
10
59.2624599999999973
20
-113.3686269999999894
11
45.519680000000001
21
-110.697300999999996
0
LINE
8
BLACK
6
CONTINUOUS
10
45.519680000000001
20
-110.697300999999996
11
48.1910059999999945
21
-96.9545209999999997
0
LINE
8
BLACK
6
CONTINUOUS
10
48.1910059999999945
20
-96.9545209999999997
11
61.9337859999999978
21
-99.6258469999999932
0
LINE
8
BLACK
6
CONTINUOUS
10
268.1043050000000108
20
-91.7811149999999998
11
254.4361609999999985
21
-94.8112689999999958
0
LINE
8
BLACK
6
CONTINUOUS
10
254.4361609999999985
20
-94.8112689999999958
11
251.4060069999999882
21
-81.1431249999999977
0
LINE
8
BLACK
6
CONTINUOUS
10
251.4060069999999882
20
-81.1431249999999977
11
265.0741509999999721
21
-78.1129710000000017
0
LINE
8
BLACK
6
CONTINUOUS
10
265.0741509999999721
20
-78.1129710000000017
11
268.1043050000000108
21
-91.7811149999999998
0
CIRCLE
8
BLACK
10
58.6570669999999978
20
-134.2294589999999914
40
1.0999999999999999
0
LINE
8
BLACK
6
CONTINUOUS
10
140.6322270000000003
20
-100.5152749999999884
11
137.0087599999999952
21
-114.0382359999999977
0
LINE
8
BLACK
6
CONTINUOUS
10
137.0087599999999952
20
-114.0382359999999977
11
123.4857990000000001
21
-110.4147689999999926
0
LINE
8
BLACK
6
CONTINUOUS
10
123.4857990000000001
20
-110.4147689999999926
11
127.109265999999991
21
-96.8918079999999975
0
LINE
8
BLACK
6
CONTINUOUS
10
127.109265999999991
20
-96.8918079999999975
11
140.6322270000000003
21
-100.5152749999999884
0
LINE
8
BLACK
6
CONTINUOUS
10
57.9272259999999974
20
-118.0851089999999886
11
55.2558999999999969
21
-131.827888999999999
0
LINE
8
BLACK
6
CONTINUOUS
10
55.2558999999999969
20
-131.827888999999999
11
41.5131200000000007
21
-129.1565630000000056
0
LINE
8
BLACK
6
CONTINUOUS
10
41.5131200000000007
20
-129.1565630000000056
11
44.1844460000000012
21
-115.4137829999999951
0
LINE
8
BLACK
6
CONTINUOUS
10
44.1844460000000012
20
-115.4137829999999951
11
57.9272259999999974
21
-118.0851089999999886
0
LINE
8
BLACK
6
CONTINUOUS
10
238.2555949999999996
20
-132.6732370000000003
11
224.5874509999999873
21
-135.7033909999999821
0
LINE
8
BLACK
6
CONTINUOUS
10
224.5874509999999873
20
-135.7033909999999821
11
221.5572969999999771
21
-122.0352469999999983
0
LINE
8
BLACK
6
CONTINUOUS
10
221.5572969999999771
20
-122.0352469999999983
11
235.2254409999999893
21
-119.005092999999988
0
LINE
8
BLACK
6
CONTINUOUS
10
235.2254409999999893
20
-119.005092999999988
11
238.2555949999999996
21
-132.6732370000000003
0
CIRCLE
8
BLACK
10
180.5688339999999812
20
-95.2941199999999924
40
1.0999999999999999
0
LINE
8
BLACK
6
CONTINUOUS
10
123.05653199999999
20
-92.6994729999999976
11
119.4330649999999991
21
-106.2224339999999927
0
LINE
8
BLACK
6
CONTINUOUS
10
119.4330649999999991
20
-106.2224339999999927
11
105.9101039999999898
21
-102.5989670000000018
0
LINE
8
BLACK
6
CONTINUOUS
10
105.9101039999999898
20
-102.5989670000000018
11
109.5335709999999949
21
-89.0760059999999925
0
LINE
8
BLACK
6
CONTINUOUS
10
109.5335709999999949
20
-89.0760059999999925
11
123.05653199999999
21
-92.6994729999999976
0
LINE
8
BLACK
6
CONTINUOUS
10
230.0308550000000025
20
-95.5738329999999934
11
216.3627109999999902
21
-98.6039869999999894
0
LINE
8
BLACK
6
CONTINUOUS
10
216.3627109999999902
20
-98.6039869999999894
11
213.33255699999998
21
-84.9358429999999913
0
LINE
8
BLACK
6
CONTINUOUS
10
213.33255699999998
20
-84.9358429999999913
11
227.0007009999999923
21
-81.9056889999999953
0
LINE
8
BLACK
6
CONTINUOUS
10
227.0007009999999923
20
-81.9056889999999953
11
230.0308550000000025
21
-95.5738329999999934
0
LINE
8
BLACK
6
CONTINUOUS
10
253.1901340000000005
20
-112.2570679999999896
11
239.5219899999999882
21
-115.2872219999999999
0
LINE
8
BLACK
6
CONTINUOUS
10
239.5219899999999882
20
-115.2872219999999999
11
236.491835999999978
21
-101.6190780000000018
0
LINE
8
BLACK
6
CONTINUOUS
10
236.491835999999978
20
-101.6190780000000018
11
250.1599799999999902
21
-98.5889239999999916
0
LINE
8
BLACK
6
CONTINUOUS
10
250.1599799999999902
20
-98.5889239999999916
11
253.1901340000000005
21
-112.2570679999999896
0
LINE
8
BLACK
6
CONTINUOUS
10
219.6903629999999907
20
-161.3034319999999866
11
207.2722109999999986
21
-167.7679119999999955
0
LINE
8
BLACK
6
CONTINUOUS
10
207.2722109999999986
20
-167.7679119999999955
11
200.8077309999999898
21
-155.3497600000000034
0
LINE
8
BLACK
6
CONTINUOUS
10
200.8077309999999898
20
-155.3497600000000034
11
213.2258829999999818
21
-148.8852799999999945
0
LINE
8
BLACK
6
CONTINUOUS
10
213.2258829999999818
20
-148.8852799999999945
11
219.6903629999999907
21
-161.3034319999999866
0
LINE
8
BLACK
6
CONTINUOUS
10
216.3831940000000031
20
-121.0800279999999987
11
202.8602329999999938
21
-124.7034949999999895
0
LINE
8
BLACK
6
CONTINUOUS
10
202.8602329999999938
20
-124.7034949999999895
11
199.2367659999999887
21
-111.1805339999999944
0
LINE
8
BLACK
6
CONTINUOUS
10
199.2367659999999887
20
-111.1805339999999944
11
212.759726999999998
21
-107.5570669999999893
0
LINE
8
BLACK
6
CONTINUOUS
10
212.759726999999998
20
-107.5570669999999893
11
216.3831940000000031
21
-121.0800279999999987
0
CIRCLE
8
BLACK
10
258.9807329999999865
20
-134.2294589999999914
40
1.0999999999999999
0
LINE
8
BLACK
6
CONTINUOUS
10
85.258229
20
-83.0698429999999917
11
82.2280749999999898
21
-96.7379869999999897
0
LINE
8
BLACK
6
CONTINUOUS
10
82.2280749999999898
20
-96.7379869999999897
11
68.5599309999999917
21
-93.7078329999999937
0
LINE
8
BLACK
6
CONTINUOUS
10
68.5599309999999917
20
-93.7078329999999937
11
71.590085000000002
21
-80.0396889999999956
0
LINE
8
BLACK
6
CONTINUOUS
10
71.590085000000002
20
-80.0396889999999956
11
85.258229
21
-83.0698429999999917
0
LINE
8
BLACK
6
CONTINUOUS
10
77.0336969999999894
20
-120.1683099999999911
11
74.0035429999999934
21
-133.8364540000000034
0
LINE
8
BLACK
6
CONTINUOUS
10
74.0035429999999934
20
-133.8364540000000034
11
60.3353989999999953
21
-130.8062999999999931
0
LINE
8
BLACK
6
CONTINUOUS
10
60.3353989999999953
20
-130.8062999999999931
11
63.3655529999999985
21
-117.1381559999999951
0
LINE
8
BLACK
6
CONTINUOUS
10
63.3655529999999985
20
-117.1381559999999951
11
77.0336969999999894
21
-120.1683099999999911
0
LINE
8
BLACK
6
CONTINUOUS
10
66.2317929999999961
20
-81.1431249999999977
11
63.2016390000000001
21
-94.8112689999999958
0
LINE
8
BLACK
6
CONTINUOUS
10
63.2016390000000001
20
-94.8112689999999958
11
49.5334949999999949
21
-91.7811149999999998
0
LINE
8
BLACK
6
CONTINUOUS
10
49.5334949999999949
20
-91.7811149999999998
11
52.5636489999999981
21
-78.1129710000000017
0
LINE
8
BLACK
6
CONTINUOUS
10
52.5636489999999981
20
-78.1129710000000017
11
66.2317929999999961
21
-81.1431249999999977
0
LINE
8
BLACK
6
CONTINUOUS
10
96.0805029999999931
20
-122.0352469999999983
11
93.0503489999999971
21
-135.7033909999999821
0
LINE
8
BLACK
6
CONTINUOUS
10
93.0503489999999971
20
-135.7033909999999821
11
79.382204999999999
21
-132.6732370000000003
0
LINE
8
BLACK
6
CONTINUOUS
10
79.382204999999999
20
-132.6732370000000003
11
82.412358999999995
21
-119.005092999999988
0
LINE
8
BLACK
6
CONTINUOUS
10
82.412358999999995
20
-119.005092999999988
11
96.0805029999999931
21
-122.0352469999999983
0
CIRCLE
8
BLACK
10
68.3448279999999926
20
-77.7715489999999932
40
1.0999999999999999
0
LINE
8
BLACK
6
CONTINUOUS
10
118.4010339999999957
20
-111.1805339999999944
11
114.7775669999999906
21
-124.7034949999999895
0
LINE
8
BLACK
6
CONTINUOUS
10
114.7775669999999906
20
-124.7034949999999895
11
101.2546059999999954
21
-121.0800279999999987
0
LINE
8
BLACK
6
CONTINUOUS
10
101.2546059999999954
20
-121.0800279999999987
11
104.8780730000000005
21
-107.5570669999999893
0
LINE
8
BLACK
6
CONTINUOUS
10
104.8780730000000005
20
-107.5570669999999893
11
118.4010339999999957
21
-111.1805339999999944
0
LINE
8
BLACK
6
CONTINUOUS
10
116.8300689999999946
20
-155.3497600000000034
11
110.3655889999999999
21
-167.7679119999999955
0
LINE
8
BLACK
6
CONTINUOUS
10
110.3655889999999999
20
-167.7679119999999955
11
97.9474369999999936
21
-161.3034319999999866
0
LINE
8
BLACK
6
CONTINUOUS
10
97.9474369999999936
20
-161.3034319999999866
11
104.4119169999999883
21
-148.8852799999999945
0
LINE
8
BLACK
6
CONTINUOUS
10
104.4119169999999883
20
-148.8852799999999945
11
116.8300689999999946
21
-155.3497600000000034
0
LINE
8
BLACK
6
CONTINUOUS
10
276.1246800000000121
20
-129.1565630000000056
11
262.3818999999999733
21
-131.827888999999999
0
LINE
8
BLACK
6
CONTINUOUS
10
262.3818999999999733
20
-131.827888999999999
11
259.7105740000000083
21
-118.0851089999999886
0
LINE
8
BLACK
6
CONTINUOUS
10
259.7105740000000083
20
-118.0851089999999886
11
273.4533539999999903
21
-115.4137829999999951
0
LINE
8
BLACK
6
CONTINUOUS
10
273.4533539999999903
20
-115.4137829999999951
11
276.1246800000000121
21
-129.1565630000000056
0
LINE
8
BLACK
6
CONTINUOUS
10
198.563715000000002
20
-128.8850319999999954
11
185.0407539999999926
21
-132.5084990000000005
0
LINE
8
BLACK
6
CONTINUOUS
10
185.0407539999999926
20
-132.5084990000000005
11
181.4172869999999875
21
-118.9855379999999911
0
LINE
8
BLACK
6
CONTINUOUS
10
181.4172869999999875
20
-118.9855379999999911
11
194.9402479999999969
21
-115.3620710000000003
0
LINE
8
BLACK
6
CONTINUOUS
10
194.9402479999999969
20
-115.3620710000000003
11
198.563715000000002
21
-128.8850319999999954
0
CIRCLE
8
BLACK
10
249.2929719999999918
20
-77.7715489999999932
40
1.0999999999999999
0
LINE
8
BLACK
6
CONTINUOUS
10
81.1459639999999922
20
-101.6190780000000018
11
78.1158099999999962
21
-115.2872219999999999
0
LINE
8
BLACK
6
CONTINUOUS
10
78.1158099999999962
20
-115.2872219999999999
11
64.4476659999999981
21
-112.2570679999999896
0
LINE
8
BLACK
6
CONTINUOUS
10
64.4476659999999981
20
-112.2570679999999896
11
67.4778199999999941
21
-98.5889239999999916
0
LINE
8
BLACK
6
CONTINUOUS
10
67.4778199999999941
20
-98.5889239999999916
11
81.1459639999999922
21
-101.6190780000000018
  0
ENDSEC
  0
EOF
