G04 #@! TF.GenerationSoftware,KiCad,Pcbnew,9.0.2*
G04 #@! TF.CreationDate,2026-01-21T12:12:24+08:00*
G04 #@! TF.ProjectId,36_split_v3,33365f73-706c-4697-945f-76332e6b6963,rev?*
G04 #@! TF.SameCoordinates,Original*
G04 #@! TF.FileFunction,Legend,Bot*
G04 #@! TF.FilePolarity,Positive*
%FSLAX46Y46*%
G04 Gerber Fmt 4.6, Leading zero omitted, Abs format (unit mm)*
G04 Created by KiCad (PCBNEW 9.0.2) date 2026-01-21 12:12:24*
%MOMM*%
%LPD*%
G01*
G04 APERTURE LIST*
G04 Aperture macros list*
%AMRoundRect*
0 Rectangle with rounded corners*
0 $1 Rounding radius*
0 $2 $3 $4 $5 $6 $7 $8 $9 X,Y pos of 4 corners*
0 Add a 4 corners polygon primitive as box body*
4,1,4,$2,$3,$4,$5,$6,$7,$8,$9,$2,$3,0*
0 Add four circle primitives for the rounded corners*
1,1,$1+$1,$2,$3*
1,1,$1+$1,$4,$5*
1,1,$1+$1,$6,$7*
1,1,$1+$1,$8,$9*
0 Add four rect primitives between the rounded corners*
20,1,$1+$1,$2,$3,$4,$5,0*
20,1,$1+$1,$4,$5,$6,$7,0*
20,1,$1+$1,$6,$7,$8,$9,0*
20,1,$1+$1,$8,$9,$2,$3,0*%
%AMHorizOval*
0 Thick line with rounded ends*
0 $1 width*
0 $2 $3 position (X,Y) of the first rounded end (center of the circle)*
0 $4 $5 position (X,Y) of the second rounded end (center of the circle)*
0 Add line between two ends*
20,1,$1,$2,$3,$4,$5,0*
0 Add two circle primitives to create the rounded ends*
1,1,$1,$2,$3*
1,1,$1,$4,$5*%
%AMFreePoly0*
4,1,22,1.331377,1.424793,1.400966,1.369297,1.439586,1.289104,1.444600,1.244600,1.444600,-0.497840,1.424794,-0.584617,1.386021,-0.639261,0.639261,-1.386021,0.563896,-1.433377,0.497840,-1.444600,-1.244600,-1.444600,-1.331377,-1.424793,-1.400966,-1.369297,-1.439586,-1.289104,-1.444600,-1.244600,-1.444600,1.244600,-1.424793,1.331377,-1.369297,1.400966,-1.289104,1.439586,-1.244600,1.444600,
1.244600,1.444600,1.331377,1.424793,1.331377,1.424793,$1*%
%AMFreePoly1*
4,1,22,1.301577,1.418794,1.371166,1.363298,1.409786,1.283104,1.414800,1.238600,1.414800,-1.238600,1.394994,-1.325377,1.339498,-1.394966,1.259304,-1.433586,1.214800,-1.438600,-0.485920,-1.438600,-0.572697,-1.418794,-0.627341,-1.380021,-1.356220,-0.651141,-1.403577,-0.575776,-1.414800,-0.509720,-1.414800,1.238600,-1.394994,1.325377,-1.339498,1.394966,-1.259304,1.433586,-1.214800,1.438600,
1.214800,1.438600,1.301577,1.418794,1.301577,1.418794,$1*%
%AMFreePoly2*
4,1,29,0.432777,0.970194,0.502366,0.914698,0.540986,0.834504,0.546000,0.790000,0.546000,0.250000,0.526194,0.163223,0.470698,0.093634,0.466000,0.090000,0.466000,-0.090000,0.523538,-0.157911,0.545912,-0.244061,0.546000,-0.250000,0.546000,-0.790000,0.526194,-0.876777,0.470698,-0.946366,0.390504,-0.984986,0.346000,-0.990000,-0.234000,-0.990000,-0.320777,-0.970194,-0.390366,-0.914698,
-0.428986,-0.834504,-0.434000,-0.790000,-0.434000,0.790000,-0.414194,0.876777,-0.358698,0.946366,-0.278504,0.984986,-0.234000,0.990000,0.346000,0.990000,0.432777,0.970194,0.432777,0.970194,$1*%
%AMFreePoly3*
4,1,22,0.106406,0.569345,0.141421,0.541421,0.741421,-0.058579,0.788777,-0.133944,0.800000,-0.200000,0.800000,-0.400000,0.780193,-0.486777,0.724698,-0.556366,0.644504,-0.594986,0.600000,-0.600000,-0.600000,-0.600000,-0.686777,-0.580194,-0.756366,-0.524698,-0.794986,-0.444504,-0.800000,-0.400000,-0.800000,-0.200000,-0.780194,-0.113223,-0.741421,-0.058579,-0.141421,0.541421,-0.066056,0.588777,
0.022393,0.598742,0.106406,0.569345,0.106406,0.569345,$1*%
%AMFreePoly4*
4,1,26,0.686777,0.430194,0.756366,0.374698,0.794986,0.294504,0.800000,0.250000,0.800000,-1.000000,0.780194,-1.086777,0.724698,-1.156366,0.644504,-1.194986,0.555496,-1.194986,0.475302,-1.156366,0.458579,-1.141421,0.000000,-0.682842,-0.458579,-1.141421,-0.533944,-1.188778,-0.622393,-1.198742,-0.706406,-1.169345,-0.769345,-1.106406,-0.798742,-1.022393,-0.800000,-1.000000,-0.800000,0.250000,
-0.780194,0.336777,-0.724699,0.406366,-0.644505,0.444986,-0.600000,0.450000,0.600000,0.450000,0.686777,0.430194,0.686777,0.430194,$1*%
G04 Aperture macros list end*
%ADD10C,0.125000*%
%ADD11C,0.150000*%
%ADD12C,0.200000*%
%ADD13C,0.120000*%
%ADD14C,0.050000*%
%ADD15C,0.100000*%
%ADD16RoundRect,0.200000X0.700000X-0.600000X0.700000X0.600000X-0.700000X0.600000X-0.700000X-0.600000X0*%
%ADD17O,1.900000X3.200000*%
%ADD18C,2.400000*%
%ADD19C,3.600000*%
%ADD20C,2.100000*%
%ADD21C,3.400000*%
%ADD22C,4.400000*%
%ADD23FreePoly0,342.000000*%
%ADD24FreePoly1,342.000000*%
%ADD25FreePoly0,0.000000*%
%ADD26FreePoly1,0.000000*%
%ADD27FreePoly0,357.000000*%
%ADD28FreePoly1,357.000000*%
%ADD29RoundRect,0.200000X-0.700000X0.600000X-0.700000X-0.600000X0.700000X-0.600000X0.700000X0.600000X0*%
%ADD30FreePoly0,348.000000*%
%ADD31FreePoly1,348.000000*%
%ADD32FreePoly0,177.000000*%
%ADD33FreePoly1,177.000000*%
%ADD34FreePoly0,181.500000*%
%ADD35FreePoly1,181.500000*%
%ADD36FreePoly0,3.000000*%
%ADD37FreePoly1,3.000000*%
%ADD38C,1.200000*%
%ADD39HorizOval,2.000000X-0.199726X0.010467X0.199726X-0.010467X0*%
%ADD40FreePoly0,0.500000*%
%ADD41FreePoly1,0.500000*%
%ADD42RoundRect,0.142500X-0.357500X-0.332500X0.357500X-0.332500X0.357500X0.332500X-0.357500X0.332500X0*%
%ADD43FreePoly2,0.000000*%
%ADD44FreePoly2,180.000000*%
%ADD45RoundRect,0.135000X-0.315000X-0.315000X0.315000X-0.315000X0.315000X0.315000X-0.315000X0.315000X0*%
%ADD46C,2.000000*%
%ADD47FreePoly3,187.500000*%
%ADD48FreePoly3,7.500000*%
%ADD49FreePoly4,7.500000*%
%ADD50FreePoly4,187.500000*%
%ADD51RoundRect,0.142500X0.205753X-0.442751X0.426700X0.237255X-0.205753X0.442751X-0.426700X-0.237255X0*%
%ADD52FreePoly2,72.000000*%
%ADD53FreePoly2,252.000000*%
%ADD54RoundRect,0.135000X0.202242X-0.396923X0.396923X0.202242X-0.202242X0.396923X-0.396923X-0.202242X0*%
%ADD55C,1.100000*%
G04 APERTURE END LIST*
D10*
X170804221Y-86638377D02*
X170736364Y-87238377D01*
X170736364Y-87238377D02*
X170568506Y-86809806D01*
X170568506Y-86809806D02*
X170507792Y-87238377D01*
X170507792Y-87238377D02*
X170289935Y-86638377D01*
X170136364Y-87238377D02*
X170061364Y-86638377D01*
X169879221Y-87238377D02*
X169839935Y-86924091D01*
X169839935Y-86924091D02*
X169861364Y-86866948D01*
X169861364Y-86866948D02*
X169914935Y-86838377D01*
X169914935Y-86838377D02*
X170000650Y-86838377D01*
X170000650Y-86838377D02*
X170061364Y-86866948D01*
X170061364Y-86866948D02*
X170093507Y-86895520D01*
X169600650Y-86838377D02*
X169507793Y-87238377D01*
X169314935Y-86838377D02*
X169507793Y-87238377D01*
X169507793Y-87238377D02*
X169582793Y-87381234D01*
X169582793Y-87381234D02*
X169614935Y-87409806D01*
X169614935Y-87409806D02*
X169675650Y-87438377D01*
X168661364Y-86638377D02*
X168593507Y-87238377D01*
X168593507Y-87238377D02*
X168425649Y-86809806D01*
X168425649Y-86809806D02*
X168364935Y-87238377D01*
X168364935Y-87238377D02*
X168147078Y-86638377D01*
X167761364Y-87209806D02*
X167822078Y-87238377D01*
X167822078Y-87238377D02*
X167936364Y-87238377D01*
X167936364Y-87238377D02*
X167989935Y-87209806D01*
X167989935Y-87209806D02*
X168011364Y-87152663D01*
X168011364Y-87152663D02*
X167982793Y-86924091D01*
X167982793Y-86924091D02*
X167947078Y-86866948D01*
X167947078Y-86866948D02*
X167886364Y-86838377D01*
X167886364Y-86838377D02*
X167772078Y-86838377D01*
X167772078Y-86838377D02*
X167718507Y-86866948D01*
X167718507Y-86866948D02*
X167697078Y-86924091D01*
X167697078Y-86924091D02*
X167704221Y-86981234D01*
X167704221Y-86981234D02*
X167997078Y-87038377D01*
X167479221Y-87238377D02*
X167429221Y-86838377D01*
X167404221Y-86638377D02*
X167436364Y-86666948D01*
X167436364Y-86666948D02*
X167411364Y-86695520D01*
X167411364Y-86695520D02*
X167379221Y-86666948D01*
X167379221Y-86666948D02*
X167404221Y-86638377D01*
X167404221Y-86638377D02*
X167411364Y-86695520D01*
X167193507Y-87238377D02*
X167143507Y-86838377D01*
X167157793Y-86952663D02*
X167122078Y-86895520D01*
X167122078Y-86895520D02*
X167089935Y-86866948D01*
X167089935Y-86866948D02*
X167029221Y-86838377D01*
X167029221Y-86838377D02*
X166972078Y-86838377D01*
X166564935Y-87238377D02*
X166489935Y-86638377D01*
X166561364Y-87209806D02*
X166622078Y-87238377D01*
X166622078Y-87238377D02*
X166736364Y-87238377D01*
X166736364Y-87238377D02*
X166789935Y-87209806D01*
X166789935Y-87209806D02*
X166814935Y-87181234D01*
X166814935Y-87181234D02*
X166836364Y-87124091D01*
X166836364Y-87124091D02*
X166814935Y-86952663D01*
X166814935Y-86952663D02*
X166779221Y-86895520D01*
X166779221Y-86895520D02*
X166747078Y-86866948D01*
X166747078Y-86866948D02*
X166686364Y-86838377D01*
X166686364Y-86838377D02*
X166572078Y-86838377D01*
X166572078Y-86838377D02*
X166518506Y-86866948D01*
X165822078Y-87238377D02*
X165772078Y-86838377D01*
X165747078Y-86638377D02*
X165779221Y-86666948D01*
X165779221Y-86666948D02*
X165754221Y-86695520D01*
X165754221Y-86695520D02*
X165722078Y-86666948D01*
X165722078Y-86666948D02*
X165747078Y-86638377D01*
X165747078Y-86638377D02*
X165754221Y-86695520D01*
X165561364Y-87209806D02*
X165507792Y-87238377D01*
X165507792Y-87238377D02*
X165393507Y-87238377D01*
X165393507Y-87238377D02*
X165332792Y-87209806D01*
X165332792Y-87209806D02*
X165297078Y-87152663D01*
X165297078Y-87152663D02*
X165293507Y-87124091D01*
X165293507Y-87124091D02*
X165314935Y-87066948D01*
X165314935Y-87066948D02*
X165368507Y-87038377D01*
X165368507Y-87038377D02*
X165454221Y-87038377D01*
X165454221Y-87038377D02*
X165507792Y-87009806D01*
X165507792Y-87009806D02*
X165529221Y-86952663D01*
X165529221Y-86952663D02*
X165525650Y-86924091D01*
X165525650Y-86924091D02*
X165489935Y-86866948D01*
X165489935Y-86866948D02*
X165429221Y-86838377D01*
X165429221Y-86838377D02*
X165343507Y-86838377D01*
X165343507Y-86838377D02*
X165289935Y-86866948D01*
X164575650Y-86638377D02*
X164507793Y-87238377D01*
X164507793Y-87238377D02*
X164339935Y-86809806D01*
X164339935Y-86809806D02*
X164279221Y-87238377D01*
X164279221Y-87238377D02*
X164061364Y-86638377D01*
X163822079Y-87238377D02*
X163875650Y-87209806D01*
X163875650Y-87209806D02*
X163900650Y-87181234D01*
X163900650Y-87181234D02*
X163922079Y-87124091D01*
X163922079Y-87124091D02*
X163900650Y-86952663D01*
X163900650Y-86952663D02*
X163864936Y-86895520D01*
X163864936Y-86895520D02*
X163832793Y-86866948D01*
X163832793Y-86866948D02*
X163772079Y-86838377D01*
X163772079Y-86838377D02*
X163686364Y-86838377D01*
X163686364Y-86838377D02*
X163632793Y-86866948D01*
X163632793Y-86866948D02*
X163607793Y-86895520D01*
X163607793Y-86895520D02*
X163586364Y-86952663D01*
X163586364Y-86952663D02*
X163607793Y-87124091D01*
X163607793Y-87124091D02*
X163643507Y-87181234D01*
X163643507Y-87181234D02*
X163675650Y-87209806D01*
X163675650Y-87209806D02*
X163736364Y-87238377D01*
X163736364Y-87238377D02*
X163822079Y-87238377D01*
X163314936Y-86838377D02*
X163364936Y-87238377D01*
X163322079Y-86895520D02*
X163289936Y-86866948D01*
X163289936Y-86866948D02*
X163229222Y-86838377D01*
X163229222Y-86838377D02*
X163143507Y-86838377D01*
X163143507Y-86838377D02*
X163089936Y-86866948D01*
X163089936Y-86866948D02*
X163068507Y-86924091D01*
X163068507Y-86924091D02*
X163107793Y-87238377D01*
X162564936Y-87238377D02*
X162489936Y-86638377D01*
X162561365Y-87209806D02*
X162622079Y-87238377D01*
X162622079Y-87238377D02*
X162736365Y-87238377D01*
X162736365Y-87238377D02*
X162789936Y-87209806D01*
X162789936Y-87209806D02*
X162814936Y-87181234D01*
X162814936Y-87181234D02*
X162836365Y-87124091D01*
X162836365Y-87124091D02*
X162814936Y-86952663D01*
X162814936Y-86952663D02*
X162779222Y-86895520D01*
X162779222Y-86895520D02*
X162747079Y-86866948D01*
X162747079Y-86866948D02*
X162686365Y-86838377D01*
X162686365Y-86838377D02*
X162572079Y-86838377D01*
X162572079Y-86838377D02*
X162518507Y-86866948D01*
X162047079Y-87209806D02*
X162107793Y-87238377D01*
X162107793Y-87238377D02*
X162222079Y-87238377D01*
X162222079Y-87238377D02*
X162275650Y-87209806D01*
X162275650Y-87209806D02*
X162297079Y-87152663D01*
X162297079Y-87152663D02*
X162268508Y-86924091D01*
X162268508Y-86924091D02*
X162232793Y-86866948D01*
X162232793Y-86866948D02*
X162172079Y-86838377D01*
X162172079Y-86838377D02*
X162057793Y-86838377D01*
X162057793Y-86838377D02*
X162004222Y-86866948D01*
X162004222Y-86866948D02*
X161982793Y-86924091D01*
X161982793Y-86924091D02*
X161989936Y-86981234D01*
X161989936Y-86981234D02*
X162282793Y-87038377D01*
X161764936Y-87238377D02*
X161714936Y-86838377D01*
X161729222Y-86952663D02*
X161693507Y-86895520D01*
X161693507Y-86895520D02*
X161661364Y-86866948D01*
X161661364Y-86866948D02*
X161600650Y-86838377D01*
X161600650Y-86838377D02*
X161543507Y-86838377D01*
X161429221Y-86838377D02*
X161200650Y-86838377D01*
X161393507Y-87238377D02*
X161329221Y-86724091D01*
X161329221Y-86724091D02*
X161293507Y-86666948D01*
X161293507Y-86666948D02*
X161232793Y-86638377D01*
X161232793Y-86638377D02*
X161175650Y-86638377D01*
X160743507Y-86838377D02*
X160793507Y-87238377D01*
X161000650Y-86838377D02*
X161039936Y-87152663D01*
X161039936Y-87152663D02*
X161018507Y-87209806D01*
X161018507Y-87209806D02*
X160964936Y-87238377D01*
X160964936Y-87238377D02*
X160879221Y-87238377D01*
X160879221Y-87238377D02*
X160818507Y-87209806D01*
X160818507Y-87209806D02*
X160786364Y-87181234D01*
X160422079Y-87238377D02*
X160475650Y-87209806D01*
X160475650Y-87209806D02*
X160497079Y-87152663D01*
X160497079Y-87152663D02*
X160432793Y-86638377D01*
X159593507Y-87466948D02*
X159618507Y-87438377D01*
X159618507Y-87438377D02*
X159664935Y-87352663D01*
X159664935Y-87352663D02*
X159686364Y-87295520D01*
X159686364Y-87295520D02*
X159704221Y-87209806D01*
X159704221Y-87209806D02*
X159714935Y-87066948D01*
X159714935Y-87066948D02*
X159700650Y-86952663D01*
X159700650Y-86952663D02*
X159654221Y-86809806D01*
X159654221Y-86809806D02*
X159614935Y-86724091D01*
X159614935Y-86724091D02*
X159579221Y-86666948D01*
X159579221Y-86666948D02*
X159511364Y-86581234D01*
X159511364Y-86581234D02*
X159479221Y-86552663D01*
X159079221Y-87238377D02*
X159039935Y-86924091D01*
X159039935Y-86924091D02*
X159061364Y-86866948D01*
X159061364Y-86866948D02*
X159114935Y-86838377D01*
X159114935Y-86838377D02*
X159229221Y-86838377D01*
X159229221Y-86838377D02*
X159289935Y-86866948D01*
X159075650Y-87209806D02*
X159136364Y-87238377D01*
X159136364Y-87238377D02*
X159279221Y-87238377D01*
X159279221Y-87238377D02*
X159332792Y-87209806D01*
X159332792Y-87209806D02*
X159354221Y-87152663D01*
X159354221Y-87152663D02*
X159347078Y-87095520D01*
X159347078Y-87095520D02*
X159311364Y-87038377D01*
X159311364Y-87038377D02*
X159250650Y-87009806D01*
X159250650Y-87009806D02*
X159107792Y-87009806D01*
X159107792Y-87009806D02*
X159047078Y-86981234D01*
X158743507Y-86838377D02*
X158793507Y-87238377D01*
X158750650Y-86895520D02*
X158718507Y-86866948D01*
X158718507Y-86866948D02*
X158657793Y-86838377D01*
X158657793Y-86838377D02*
X158572078Y-86838377D01*
X158572078Y-86838377D02*
X158518507Y-86866948D01*
X158518507Y-86866948D02*
X158497078Y-86924091D01*
X158497078Y-86924091D02*
X158536364Y-87238377D01*
X157993507Y-87238377D02*
X157918507Y-86638377D01*
X157989936Y-87209806D02*
X158050650Y-87238377D01*
X158050650Y-87238377D02*
X158164936Y-87238377D01*
X158164936Y-87238377D02*
X158218507Y-87209806D01*
X158218507Y-87209806D02*
X158243507Y-87181234D01*
X158243507Y-87181234D02*
X158264936Y-87124091D01*
X158264936Y-87124091D02*
X158243507Y-86952663D01*
X158243507Y-86952663D02*
X158207793Y-86895520D01*
X158207793Y-86895520D02*
X158175650Y-86866948D01*
X158175650Y-86866948D02*
X158114936Y-86838377D01*
X158114936Y-86838377D02*
X158000650Y-86838377D01*
X158000650Y-86838377D02*
X157947078Y-86866948D01*
X157011364Y-86924091D02*
X156929221Y-86952663D01*
X156929221Y-86952663D02*
X156904221Y-86981234D01*
X156904221Y-86981234D02*
X156882793Y-87038377D01*
X156882793Y-87038377D02*
X156893507Y-87124091D01*
X156893507Y-87124091D02*
X156929221Y-87181234D01*
X156929221Y-87181234D02*
X156961364Y-87209806D01*
X156961364Y-87209806D02*
X157022078Y-87238377D01*
X157022078Y-87238377D02*
X157250650Y-87238377D01*
X157250650Y-87238377D02*
X157175650Y-86638377D01*
X157175650Y-86638377D02*
X156975650Y-86638377D01*
X156975650Y-86638377D02*
X156922078Y-86666948D01*
X156922078Y-86666948D02*
X156897078Y-86695520D01*
X156897078Y-86695520D02*
X156875650Y-86752663D01*
X156875650Y-86752663D02*
X156882793Y-86809806D01*
X156882793Y-86809806D02*
X156918507Y-86866948D01*
X156918507Y-86866948D02*
X156950650Y-86895520D01*
X156950650Y-86895520D02*
X157011364Y-86924091D01*
X157011364Y-86924091D02*
X157211364Y-86924091D01*
X156393507Y-87238377D02*
X156354221Y-86924091D01*
X156354221Y-86924091D02*
X156375650Y-86866948D01*
X156375650Y-86866948D02*
X156429221Y-86838377D01*
X156429221Y-86838377D02*
X156543507Y-86838377D01*
X156543507Y-86838377D02*
X156604221Y-86866948D01*
X156389936Y-87209806D02*
X156450650Y-87238377D01*
X156450650Y-87238377D02*
X156593507Y-87238377D01*
X156593507Y-87238377D02*
X156647078Y-87209806D01*
X156647078Y-87209806D02*
X156668507Y-87152663D01*
X156668507Y-87152663D02*
X156661364Y-87095520D01*
X156661364Y-87095520D02*
X156625650Y-87038377D01*
X156625650Y-87038377D02*
X156564936Y-87009806D01*
X156564936Y-87009806D02*
X156422078Y-87009806D01*
X156422078Y-87009806D02*
X156361364Y-86981234D01*
X156057793Y-86838377D02*
X156107793Y-87238377D01*
X156064936Y-86895520D02*
X156032793Y-86866948D01*
X156032793Y-86866948D02*
X155972079Y-86838377D01*
X155972079Y-86838377D02*
X155886364Y-86838377D01*
X155886364Y-86838377D02*
X155832793Y-86866948D01*
X155832793Y-86866948D02*
X155811364Y-86924091D01*
X155811364Y-86924091D02*
X155850650Y-87238377D01*
X155564936Y-87238377D02*
X155489936Y-86638377D01*
X155479222Y-87009806D02*
X155336364Y-87238377D01*
X155286364Y-86838377D02*
X155543507Y-87066948D01*
X154822079Y-87238377D02*
X154782793Y-86924091D01*
X154782793Y-86924091D02*
X154804222Y-86866948D01*
X154804222Y-86866948D02*
X154857793Y-86838377D01*
X154857793Y-86838377D02*
X154972079Y-86838377D01*
X154972079Y-86838377D02*
X155032793Y-86866948D01*
X154818508Y-87209806D02*
X154879222Y-87238377D01*
X154879222Y-87238377D02*
X155022079Y-87238377D01*
X155022079Y-87238377D02*
X155075650Y-87209806D01*
X155075650Y-87209806D02*
X155097079Y-87152663D01*
X155097079Y-87152663D02*
X155089936Y-87095520D01*
X155089936Y-87095520D02*
X155054222Y-87038377D01*
X155054222Y-87038377D02*
X154993508Y-87009806D01*
X154993508Y-87009806D02*
X154850650Y-87009806D01*
X154850650Y-87009806D02*
X154789936Y-86981234D01*
X154536365Y-87238377D02*
X154461365Y-86638377D01*
X154489936Y-86866948D02*
X154429222Y-86838377D01*
X154429222Y-86838377D02*
X154314936Y-86838377D01*
X154314936Y-86838377D02*
X154261365Y-86866948D01*
X154261365Y-86866948D02*
X154236365Y-86895520D01*
X154236365Y-86895520D02*
X154214936Y-86952663D01*
X154214936Y-86952663D02*
X154236365Y-87124091D01*
X154236365Y-87124091D02*
X154272079Y-87181234D01*
X154272079Y-87181234D02*
X154304222Y-87209806D01*
X154304222Y-87209806D02*
X154364936Y-87238377D01*
X154364936Y-87238377D02*
X154479222Y-87238377D01*
X154479222Y-87238377D02*
X154532793Y-87209806D01*
X153907794Y-87238377D02*
X153961365Y-87209806D01*
X153961365Y-87209806D02*
X153982794Y-87152663D01*
X153982794Y-87152663D02*
X153918508Y-86638377D01*
X153447079Y-87209806D02*
X153507793Y-87238377D01*
X153507793Y-87238377D02*
X153622079Y-87238377D01*
X153622079Y-87238377D02*
X153675650Y-87209806D01*
X153675650Y-87209806D02*
X153697079Y-87152663D01*
X153697079Y-87152663D02*
X153668508Y-86924091D01*
X153668508Y-86924091D02*
X153632793Y-86866948D01*
X153632793Y-86866948D02*
X153572079Y-86838377D01*
X153572079Y-86838377D02*
X153457793Y-86838377D01*
X153457793Y-86838377D02*
X153404222Y-86866948D01*
X153404222Y-86866948D02*
X153382793Y-86924091D01*
X153382793Y-86924091D02*
X153389936Y-86981234D01*
X153389936Y-86981234D02*
X153682793Y-87038377D01*
X153250650Y-87466948D02*
X153218507Y-87438377D01*
X153218507Y-87438377D02*
X153150650Y-87352663D01*
X153150650Y-87352663D02*
X153114936Y-87295520D01*
X153114936Y-87295520D02*
X153075650Y-87209806D01*
X153075650Y-87209806D02*
X153029222Y-87066948D01*
X153029222Y-87066948D02*
X153014936Y-86952663D01*
X153014936Y-86952663D02*
X153025650Y-86809806D01*
X153025650Y-86809806D02*
X153043507Y-86724091D01*
X153043507Y-86724091D02*
X153064936Y-86666948D01*
X153064936Y-86666948D02*
X153111364Y-86581234D01*
X153111364Y-86581234D02*
X153136364Y-86552663D01*
X168325650Y-88856023D02*
X168243507Y-88884595D01*
X168243507Y-88884595D02*
X168218507Y-88913166D01*
X168218507Y-88913166D02*
X168197079Y-88970309D01*
X168197079Y-88970309D02*
X168207793Y-89056023D01*
X168207793Y-89056023D02*
X168243507Y-89113166D01*
X168243507Y-89113166D02*
X168275650Y-89141738D01*
X168275650Y-89141738D02*
X168336364Y-89170309D01*
X168336364Y-89170309D02*
X168564936Y-89170309D01*
X168564936Y-89170309D02*
X168489936Y-88570309D01*
X168489936Y-88570309D02*
X168289936Y-88570309D01*
X168289936Y-88570309D02*
X168236364Y-88598880D01*
X168236364Y-88598880D02*
X168211364Y-88627452D01*
X168211364Y-88627452D02*
X168189936Y-88684595D01*
X168189936Y-88684595D02*
X168197079Y-88741738D01*
X168197079Y-88741738D02*
X168232793Y-88798880D01*
X168232793Y-88798880D02*
X168264936Y-88827452D01*
X168264936Y-88827452D02*
X168325650Y-88856023D01*
X168325650Y-88856023D02*
X168525650Y-88856023D01*
X167732793Y-89141738D02*
X167793507Y-89170309D01*
X167793507Y-89170309D02*
X167907793Y-89170309D01*
X167907793Y-89170309D02*
X167961364Y-89141738D01*
X167961364Y-89141738D02*
X167982793Y-89084595D01*
X167982793Y-89084595D02*
X167954222Y-88856023D01*
X167954222Y-88856023D02*
X167918507Y-88798880D01*
X167918507Y-88798880D02*
X167857793Y-88770309D01*
X167857793Y-88770309D02*
X167743507Y-88770309D01*
X167743507Y-88770309D02*
X167689936Y-88798880D01*
X167689936Y-88798880D02*
X167668507Y-88856023D01*
X167668507Y-88856023D02*
X167675650Y-88913166D01*
X167675650Y-88913166D02*
X167968507Y-88970309D01*
X167450650Y-89170309D02*
X167400650Y-88770309D01*
X167375650Y-88570309D02*
X167407793Y-88598880D01*
X167407793Y-88598880D02*
X167382793Y-88627452D01*
X167382793Y-88627452D02*
X167350650Y-88598880D01*
X167350650Y-88598880D02*
X167375650Y-88570309D01*
X167375650Y-88570309D02*
X167382793Y-88627452D01*
X167114936Y-88770309D02*
X167164936Y-89170309D01*
X167122079Y-88827452D02*
X167089936Y-88798880D01*
X167089936Y-88798880D02*
X167029222Y-88770309D01*
X167029222Y-88770309D02*
X166943507Y-88770309D01*
X166943507Y-88770309D02*
X166889936Y-88798880D01*
X166889936Y-88798880D02*
X166868507Y-88856023D01*
X166868507Y-88856023D02*
X166907793Y-89170309D01*
X166314936Y-88770309D02*
X166375650Y-89256023D01*
X166375650Y-89256023D02*
X166411365Y-89313166D01*
X166411365Y-89313166D02*
X166443507Y-89341738D01*
X166443507Y-89341738D02*
X166504222Y-89370309D01*
X166504222Y-89370309D02*
X166589936Y-89370309D01*
X166589936Y-89370309D02*
X166643507Y-89341738D01*
X166361365Y-89141738D02*
X166422079Y-89170309D01*
X166422079Y-89170309D02*
X166536365Y-89170309D01*
X166536365Y-89170309D02*
X166589936Y-89141738D01*
X166589936Y-89141738D02*
X166614936Y-89113166D01*
X166614936Y-89113166D02*
X166636365Y-89056023D01*
X166636365Y-89056023D02*
X166614936Y-88884595D01*
X166614936Y-88884595D02*
X166579222Y-88827452D01*
X166579222Y-88827452D02*
X166547079Y-88798880D01*
X166547079Y-88798880D02*
X166486365Y-88770309D01*
X166486365Y-88770309D02*
X166372079Y-88770309D01*
X166372079Y-88770309D02*
X166318507Y-88798880D01*
X165629222Y-88770309D02*
X165564936Y-89170309D01*
X165564936Y-89170309D02*
X165414936Y-88884595D01*
X165414936Y-88884595D02*
X165336365Y-89170309D01*
X165336365Y-89170309D02*
X165172079Y-88770309D01*
X164761365Y-89141738D02*
X164822079Y-89170309D01*
X164822079Y-89170309D02*
X164936365Y-89170309D01*
X164936365Y-89170309D02*
X164989936Y-89141738D01*
X164989936Y-89141738D02*
X165011365Y-89084595D01*
X165011365Y-89084595D02*
X164982794Y-88856023D01*
X164982794Y-88856023D02*
X164947079Y-88798880D01*
X164947079Y-88798880D02*
X164886365Y-88770309D01*
X164886365Y-88770309D02*
X164772079Y-88770309D01*
X164772079Y-88770309D02*
X164718508Y-88798880D01*
X164718508Y-88798880D02*
X164697079Y-88856023D01*
X164697079Y-88856023D02*
X164704222Y-88913166D01*
X164704222Y-88913166D02*
X164997079Y-88970309D01*
X164479222Y-89170309D02*
X164429222Y-88770309D01*
X164404222Y-88570309D02*
X164436365Y-88598880D01*
X164436365Y-88598880D02*
X164411365Y-88627452D01*
X164411365Y-88627452D02*
X164379222Y-88598880D01*
X164379222Y-88598880D02*
X164404222Y-88570309D01*
X164404222Y-88570309D02*
X164411365Y-88627452D01*
X164193508Y-89170309D02*
X164143508Y-88770309D01*
X164157794Y-88884595D02*
X164122079Y-88827452D01*
X164122079Y-88827452D02*
X164089936Y-88798880D01*
X164089936Y-88798880D02*
X164029222Y-88770309D01*
X164029222Y-88770309D02*
X163972079Y-88770309D01*
X163564936Y-89170309D02*
X163489936Y-88570309D01*
X163561365Y-89141738D02*
X163622079Y-89170309D01*
X163622079Y-89170309D02*
X163736365Y-89170309D01*
X163736365Y-89170309D02*
X163789936Y-89141738D01*
X163789936Y-89141738D02*
X163814936Y-89113166D01*
X163814936Y-89113166D02*
X163836365Y-89056023D01*
X163836365Y-89056023D02*
X163814936Y-88884595D01*
X163814936Y-88884595D02*
X163779222Y-88827452D01*
X163779222Y-88827452D02*
X163747079Y-88798880D01*
X163747079Y-88798880D02*
X163686365Y-88770309D01*
X163686365Y-88770309D02*
X163572079Y-88770309D01*
X163572079Y-88770309D02*
X163518507Y-88798880D01*
X162822079Y-89170309D02*
X162772079Y-88770309D01*
X162779222Y-88827452D02*
X162747079Y-88798880D01*
X162747079Y-88798880D02*
X162686365Y-88770309D01*
X162686365Y-88770309D02*
X162600650Y-88770309D01*
X162600650Y-88770309D02*
X162547079Y-88798880D01*
X162547079Y-88798880D02*
X162525650Y-88856023D01*
X162525650Y-88856023D02*
X162564936Y-89170309D01*
X162525650Y-88856023D02*
X162489936Y-88798880D01*
X162489936Y-88798880D02*
X162429222Y-88770309D01*
X162429222Y-88770309D02*
X162343507Y-88770309D01*
X162343507Y-88770309D02*
X162289936Y-88798880D01*
X162289936Y-88798880D02*
X162268507Y-88856023D01*
X162268507Y-88856023D02*
X162307793Y-89170309D01*
X161789936Y-89141738D02*
X161850650Y-89170309D01*
X161850650Y-89170309D02*
X161964936Y-89170309D01*
X161964936Y-89170309D02*
X162018507Y-89141738D01*
X162018507Y-89141738D02*
X162039936Y-89084595D01*
X162039936Y-89084595D02*
X162011365Y-88856023D01*
X162011365Y-88856023D02*
X161975650Y-88798880D01*
X161975650Y-88798880D02*
X161914936Y-88770309D01*
X161914936Y-88770309D02*
X161800650Y-88770309D01*
X161800650Y-88770309D02*
X161747079Y-88798880D01*
X161747079Y-88798880D02*
X161725650Y-88856023D01*
X161725650Y-88856023D02*
X161732793Y-88913166D01*
X161732793Y-88913166D02*
X162025650Y-88970309D01*
X161250650Y-89170309D02*
X161211364Y-88856023D01*
X161211364Y-88856023D02*
X161232793Y-88798880D01*
X161232793Y-88798880D02*
X161286364Y-88770309D01*
X161286364Y-88770309D02*
X161400650Y-88770309D01*
X161400650Y-88770309D02*
X161461364Y-88798880D01*
X161247079Y-89141738D02*
X161307793Y-89170309D01*
X161307793Y-89170309D02*
X161450650Y-89170309D01*
X161450650Y-89170309D02*
X161504221Y-89141738D01*
X161504221Y-89141738D02*
X161525650Y-89084595D01*
X161525650Y-89084595D02*
X161518507Y-89027452D01*
X161518507Y-89027452D02*
X161482793Y-88970309D01*
X161482793Y-88970309D02*
X161422079Y-88941738D01*
X161422079Y-88941738D02*
X161279221Y-88941738D01*
X161279221Y-88941738D02*
X161218507Y-88913166D01*
X160914936Y-88770309D02*
X160964936Y-89170309D01*
X160922079Y-88827452D02*
X160889936Y-88798880D01*
X160889936Y-88798880D02*
X160829222Y-88770309D01*
X160829222Y-88770309D02*
X160743507Y-88770309D01*
X160743507Y-88770309D02*
X160689936Y-88798880D01*
X160689936Y-88798880D02*
X160668507Y-88856023D01*
X160668507Y-88856023D02*
X160707793Y-89170309D01*
X160447079Y-89141738D02*
X160393507Y-89170309D01*
X160393507Y-89170309D02*
X160279222Y-89170309D01*
X160279222Y-89170309D02*
X160218507Y-89141738D01*
X160218507Y-89141738D02*
X160182793Y-89084595D01*
X160182793Y-89084595D02*
X160179222Y-89056023D01*
X160179222Y-89056023D02*
X160200650Y-88998880D01*
X160200650Y-88998880D02*
X160254222Y-88970309D01*
X160254222Y-88970309D02*
X160339936Y-88970309D01*
X160339936Y-88970309D02*
X160393507Y-88941738D01*
X160393507Y-88941738D02*
X160414936Y-88884595D01*
X160414936Y-88884595D02*
X160411365Y-88856023D01*
X160411365Y-88856023D02*
X160375650Y-88798880D01*
X160375650Y-88798880D02*
X160314936Y-88770309D01*
X160314936Y-88770309D02*
X160229222Y-88770309D01*
X160229222Y-88770309D02*
X160175650Y-88798880D01*
X159479222Y-89170309D02*
X159404222Y-88570309D01*
X159432793Y-88798880D02*
X159372079Y-88770309D01*
X159372079Y-88770309D02*
X159257793Y-88770309D01*
X159257793Y-88770309D02*
X159204222Y-88798880D01*
X159204222Y-88798880D02*
X159179222Y-88827452D01*
X159179222Y-88827452D02*
X159157793Y-88884595D01*
X159157793Y-88884595D02*
X159179222Y-89056023D01*
X159179222Y-89056023D02*
X159214936Y-89113166D01*
X159214936Y-89113166D02*
X159247079Y-89141738D01*
X159247079Y-89141738D02*
X159307793Y-89170309D01*
X159307793Y-89170309D02*
X159422079Y-89170309D01*
X159422079Y-89170309D02*
X159475650Y-89141738D01*
X158704222Y-89141738D02*
X158764936Y-89170309D01*
X158764936Y-89170309D02*
X158879222Y-89170309D01*
X158879222Y-89170309D02*
X158932793Y-89141738D01*
X158932793Y-89141738D02*
X158954222Y-89084595D01*
X158954222Y-89084595D02*
X158925651Y-88856023D01*
X158925651Y-88856023D02*
X158889936Y-88798880D01*
X158889936Y-88798880D02*
X158829222Y-88770309D01*
X158829222Y-88770309D02*
X158714936Y-88770309D01*
X158714936Y-88770309D02*
X158661365Y-88798880D01*
X158661365Y-88798880D02*
X158639936Y-88856023D01*
X158639936Y-88856023D02*
X158647079Y-88913166D01*
X158647079Y-88913166D02*
X158939936Y-88970309D01*
X158422079Y-89170309D02*
X158372079Y-88770309D01*
X158347079Y-88570309D02*
X158379222Y-88598880D01*
X158379222Y-88598880D02*
X158354222Y-88627452D01*
X158354222Y-88627452D02*
X158322079Y-88598880D01*
X158322079Y-88598880D02*
X158347079Y-88570309D01*
X158347079Y-88570309D02*
X158354222Y-88627452D01*
X158086365Y-88770309D02*
X158136365Y-89170309D01*
X158093508Y-88827452D02*
X158061365Y-88798880D01*
X158061365Y-88798880D02*
X158000651Y-88770309D01*
X158000651Y-88770309D02*
X157914936Y-88770309D01*
X157914936Y-88770309D02*
X157861365Y-88798880D01*
X157861365Y-88798880D02*
X157839936Y-88856023D01*
X157839936Y-88856023D02*
X157879222Y-89170309D01*
X157286365Y-88770309D02*
X157347079Y-89256023D01*
X157347079Y-89256023D02*
X157382794Y-89313166D01*
X157382794Y-89313166D02*
X157414936Y-89341738D01*
X157414936Y-89341738D02*
X157475651Y-89370309D01*
X157475651Y-89370309D02*
X157561365Y-89370309D01*
X157561365Y-89370309D02*
X157614936Y-89341738D01*
X157332794Y-89141738D02*
X157393508Y-89170309D01*
X157393508Y-89170309D02*
X157507794Y-89170309D01*
X157507794Y-89170309D02*
X157561365Y-89141738D01*
X157561365Y-89141738D02*
X157586365Y-89113166D01*
X157586365Y-89113166D02*
X157607794Y-89056023D01*
X157607794Y-89056023D02*
X157586365Y-88884595D01*
X157586365Y-88884595D02*
X157550651Y-88827452D01*
X157550651Y-88827452D02*
X157518508Y-88798880D01*
X157518508Y-88798880D02*
X157457794Y-88770309D01*
X157457794Y-88770309D02*
X157343508Y-88770309D01*
X157343508Y-88770309D02*
X157289936Y-88798880D01*
X156543508Y-88770309D02*
X156593508Y-89170309D01*
X156550651Y-88827452D02*
X156518508Y-88798880D01*
X156518508Y-88798880D02*
X156457794Y-88770309D01*
X156457794Y-88770309D02*
X156372079Y-88770309D01*
X156372079Y-88770309D02*
X156318508Y-88798880D01*
X156318508Y-88798880D02*
X156297079Y-88856023D01*
X156297079Y-88856023D02*
X156336365Y-89170309D01*
X155964937Y-89170309D02*
X156018508Y-89141738D01*
X156018508Y-89141738D02*
X156043508Y-89113166D01*
X156043508Y-89113166D02*
X156064937Y-89056023D01*
X156064937Y-89056023D02*
X156043508Y-88884595D01*
X156043508Y-88884595D02*
X156007794Y-88827452D01*
X156007794Y-88827452D02*
X155975651Y-88798880D01*
X155975651Y-88798880D02*
X155914937Y-88770309D01*
X155914937Y-88770309D02*
X155829222Y-88770309D01*
X155829222Y-88770309D02*
X155775651Y-88798880D01*
X155775651Y-88798880D02*
X155750651Y-88827452D01*
X155750651Y-88827452D02*
X155729222Y-88884595D01*
X155729222Y-88884595D02*
X155750651Y-89056023D01*
X155750651Y-89056023D02*
X155786365Y-89113166D01*
X155786365Y-89113166D02*
X155818508Y-89141738D01*
X155818508Y-89141738D02*
X155879222Y-89170309D01*
X155879222Y-89170309D02*
X155964937Y-89170309D01*
X155543508Y-88770309D02*
X155314937Y-88770309D01*
X155432794Y-88570309D02*
X155497080Y-89084595D01*
X155497080Y-89084595D02*
X155475651Y-89141738D01*
X155475651Y-89141738D02*
X155422080Y-89170309D01*
X155422080Y-89170309D02*
X155364937Y-89170309D01*
X155164937Y-89170309D02*
X155114937Y-88770309D01*
X155089937Y-88570309D02*
X155122080Y-88598880D01*
X155122080Y-88598880D02*
X155097080Y-88627452D01*
X155097080Y-88627452D02*
X155064937Y-88598880D01*
X155064937Y-88598880D02*
X155089937Y-88570309D01*
X155089937Y-88570309D02*
X155097080Y-88627452D01*
X154618509Y-89141738D02*
X154679223Y-89170309D01*
X154679223Y-89170309D02*
X154793509Y-89170309D01*
X154793509Y-89170309D02*
X154847080Y-89141738D01*
X154847080Y-89141738D02*
X154872080Y-89113166D01*
X154872080Y-89113166D02*
X154893509Y-89056023D01*
X154893509Y-89056023D02*
X154872080Y-88884595D01*
X154872080Y-88884595D02*
X154836366Y-88827452D01*
X154836366Y-88827452D02*
X154804223Y-88798880D01*
X154804223Y-88798880D02*
X154743509Y-88770309D01*
X154743509Y-88770309D02*
X154629223Y-88770309D01*
X154629223Y-88770309D02*
X154575651Y-88798880D01*
X154132794Y-89141738D02*
X154193508Y-89170309D01*
X154193508Y-89170309D02*
X154307794Y-89170309D01*
X154307794Y-89170309D02*
X154361365Y-89141738D01*
X154361365Y-89141738D02*
X154382794Y-89084595D01*
X154382794Y-89084595D02*
X154354223Y-88856023D01*
X154354223Y-88856023D02*
X154318508Y-88798880D01*
X154318508Y-88798880D02*
X154257794Y-88770309D01*
X154257794Y-88770309D02*
X154143508Y-88770309D01*
X154143508Y-88770309D02*
X154089937Y-88798880D01*
X154089937Y-88798880D02*
X154068508Y-88856023D01*
X154068508Y-88856023D02*
X154075651Y-88913166D01*
X154075651Y-88913166D02*
X154368508Y-88970309D01*
X153593508Y-89170309D02*
X153554222Y-88856023D01*
X153554222Y-88856023D02*
X153575651Y-88798880D01*
X153575651Y-88798880D02*
X153629222Y-88770309D01*
X153629222Y-88770309D02*
X153743508Y-88770309D01*
X153743508Y-88770309D02*
X153804222Y-88798880D01*
X153589937Y-89141738D02*
X153650651Y-89170309D01*
X153650651Y-89170309D02*
X153793508Y-89170309D01*
X153793508Y-89170309D02*
X153847079Y-89141738D01*
X153847079Y-89141738D02*
X153868508Y-89084595D01*
X153868508Y-89084595D02*
X153861365Y-89027452D01*
X153861365Y-89027452D02*
X153825651Y-88970309D01*
X153825651Y-88970309D02*
X153764937Y-88941738D01*
X153764937Y-88941738D02*
X153622079Y-88941738D01*
X153622079Y-88941738D02*
X153561365Y-88913166D01*
X153307794Y-89170309D02*
X153232794Y-88570309D01*
X153261365Y-88798880D02*
X153200651Y-88770309D01*
X153200651Y-88770309D02*
X153086365Y-88770309D01*
X153086365Y-88770309D02*
X153032794Y-88798880D01*
X153032794Y-88798880D02*
X153007794Y-88827452D01*
X153007794Y-88827452D02*
X152986365Y-88884595D01*
X152986365Y-88884595D02*
X153007794Y-89056023D01*
X153007794Y-89056023D02*
X153043508Y-89113166D01*
X153043508Y-89113166D02*
X153075651Y-89141738D01*
X153075651Y-89141738D02*
X153136365Y-89170309D01*
X153136365Y-89170309D02*
X153250651Y-89170309D01*
X153250651Y-89170309D02*
X153304222Y-89141738D01*
X152679223Y-89170309D02*
X152732794Y-89141738D01*
X152732794Y-89141738D02*
X152754223Y-89084595D01*
X152754223Y-89084595D02*
X152689937Y-88570309D01*
X152457794Y-88770309D02*
X152364937Y-89170309D01*
X152172079Y-88770309D02*
X152364937Y-89170309D01*
X152364937Y-89170309D02*
X152439937Y-89313166D01*
X152439937Y-89313166D02*
X152472079Y-89341738D01*
X152472079Y-89341738D02*
X152532794Y-89370309D01*
X168307793Y-90136275D02*
X168232793Y-89536275D01*
X168304222Y-90107704D02*
X168364936Y-90136275D01*
X168364936Y-90136275D02*
X168479222Y-90136275D01*
X168479222Y-90136275D02*
X168532793Y-90107704D01*
X168532793Y-90107704D02*
X168557793Y-90079132D01*
X168557793Y-90079132D02*
X168579222Y-90021989D01*
X168579222Y-90021989D02*
X168557793Y-89850561D01*
X168557793Y-89850561D02*
X168522079Y-89793418D01*
X168522079Y-89793418D02*
X168489936Y-89764846D01*
X168489936Y-89764846D02*
X168429222Y-89736275D01*
X168429222Y-89736275D02*
X168314936Y-89736275D01*
X168314936Y-89736275D02*
X168261364Y-89764846D01*
X168022079Y-90136275D02*
X167972079Y-89736275D01*
X167947079Y-89536275D02*
X167979222Y-89564846D01*
X167979222Y-89564846D02*
X167954222Y-89593418D01*
X167954222Y-89593418D02*
X167922079Y-89564846D01*
X167922079Y-89564846D02*
X167947079Y-89536275D01*
X167947079Y-89536275D02*
X167954222Y-89593418D01*
X167772079Y-89736275D02*
X167543508Y-89736275D01*
X167736365Y-90136275D02*
X167672079Y-89621989D01*
X167672079Y-89621989D02*
X167636365Y-89564846D01*
X167636365Y-89564846D02*
X167575651Y-89536275D01*
X167575651Y-89536275D02*
X167518508Y-89536275D01*
X167429222Y-89736275D02*
X167200651Y-89736275D01*
X167393508Y-90136275D02*
X167329222Y-89621989D01*
X167329222Y-89621989D02*
X167293508Y-89564846D01*
X167293508Y-89564846D02*
X167232794Y-89536275D01*
X167232794Y-89536275D02*
X167175651Y-89536275D01*
X166818508Y-90107704D02*
X166879222Y-90136275D01*
X166879222Y-90136275D02*
X166993508Y-90136275D01*
X166993508Y-90136275D02*
X167047079Y-90107704D01*
X167047079Y-90107704D02*
X167068508Y-90050561D01*
X167068508Y-90050561D02*
X167039937Y-89821989D01*
X167039937Y-89821989D02*
X167004222Y-89764846D01*
X167004222Y-89764846D02*
X166943508Y-89736275D01*
X166943508Y-89736275D02*
X166829222Y-89736275D01*
X166829222Y-89736275D02*
X166775651Y-89764846D01*
X166775651Y-89764846D02*
X166754222Y-89821989D01*
X166754222Y-89821989D02*
X166761365Y-89879132D01*
X166761365Y-89879132D02*
X167054222Y-89936275D01*
X166536365Y-90136275D02*
X166486365Y-89736275D01*
X166500651Y-89850561D02*
X166464936Y-89793418D01*
X166464936Y-89793418D02*
X166432793Y-89764846D01*
X166432793Y-89764846D02*
X166372079Y-89736275D01*
X166372079Y-89736275D02*
X166314936Y-89736275D01*
X165932793Y-90107704D02*
X165993507Y-90136275D01*
X165993507Y-90136275D02*
X166107793Y-90136275D01*
X166107793Y-90136275D02*
X166161364Y-90107704D01*
X166161364Y-90107704D02*
X166182793Y-90050561D01*
X166182793Y-90050561D02*
X166154222Y-89821989D01*
X166154222Y-89821989D02*
X166118507Y-89764846D01*
X166118507Y-89764846D02*
X166057793Y-89736275D01*
X166057793Y-89736275D02*
X165943507Y-89736275D01*
X165943507Y-89736275D02*
X165889936Y-89764846D01*
X165889936Y-89764846D02*
X165868507Y-89821989D01*
X165868507Y-89821989D02*
X165875650Y-89879132D01*
X165875650Y-89879132D02*
X166168507Y-89936275D01*
X165600650Y-89736275D02*
X165650650Y-90136275D01*
X165607793Y-89793418D02*
X165575650Y-89764846D01*
X165575650Y-89764846D02*
X165514936Y-89736275D01*
X165514936Y-89736275D02*
X165429221Y-89736275D01*
X165429221Y-89736275D02*
X165375650Y-89764846D01*
X165375650Y-89764846D02*
X165354221Y-89821989D01*
X165354221Y-89821989D02*
X165393507Y-90136275D01*
X165143507Y-89736275D02*
X164914936Y-89736275D01*
X165032793Y-89536275D02*
X165097079Y-90050561D01*
X165097079Y-90050561D02*
X165075650Y-90107704D01*
X165075650Y-90107704D02*
X165022079Y-90136275D01*
X165022079Y-90136275D02*
X164964936Y-90136275D01*
X164757793Y-90079132D02*
X164732793Y-90107704D01*
X164732793Y-90107704D02*
X164764936Y-90136275D01*
X164764936Y-90136275D02*
X164789936Y-90107704D01*
X164789936Y-90107704D02*
X164757793Y-90079132D01*
X164757793Y-90079132D02*
X164764936Y-90136275D01*
X164022079Y-90136275D02*
X163947079Y-89536275D01*
X163772079Y-89736275D02*
X163543508Y-89736275D01*
X163661365Y-89536275D02*
X163725651Y-90050561D01*
X163725651Y-90050561D02*
X163704222Y-90107704D01*
X163704222Y-90107704D02*
X163650651Y-90136275D01*
X163650651Y-90136275D02*
X163593508Y-90136275D01*
X162936365Y-90136275D02*
X162886365Y-89736275D01*
X162893508Y-89793418D02*
X162861365Y-89764846D01*
X162861365Y-89764846D02*
X162800651Y-89736275D01*
X162800651Y-89736275D02*
X162714936Y-89736275D01*
X162714936Y-89736275D02*
X162661365Y-89764846D01*
X162661365Y-89764846D02*
X162639936Y-89821989D01*
X162639936Y-89821989D02*
X162679222Y-90136275D01*
X162639936Y-89821989D02*
X162604222Y-89764846D01*
X162604222Y-89764846D02*
X162543508Y-89736275D01*
X162543508Y-89736275D02*
X162457793Y-89736275D01*
X162457793Y-89736275D02*
X162404222Y-89764846D01*
X162404222Y-89764846D02*
X162382793Y-89821989D01*
X162382793Y-89821989D02*
X162422079Y-90136275D01*
X161904222Y-90107704D02*
X161964936Y-90136275D01*
X161964936Y-90136275D02*
X162079222Y-90136275D01*
X162079222Y-90136275D02*
X162132793Y-90107704D01*
X162132793Y-90107704D02*
X162154222Y-90050561D01*
X162154222Y-90050561D02*
X162125651Y-89821989D01*
X162125651Y-89821989D02*
X162089936Y-89764846D01*
X162089936Y-89764846D02*
X162029222Y-89736275D01*
X162029222Y-89736275D02*
X161914936Y-89736275D01*
X161914936Y-89736275D02*
X161861365Y-89764846D01*
X161861365Y-89764846D02*
X161839936Y-89821989D01*
X161839936Y-89821989D02*
X161847079Y-89879132D01*
X161847079Y-89879132D02*
X162139936Y-89936275D01*
X161364936Y-90136275D02*
X161325650Y-89821989D01*
X161325650Y-89821989D02*
X161347079Y-89764846D01*
X161347079Y-89764846D02*
X161400650Y-89736275D01*
X161400650Y-89736275D02*
X161514936Y-89736275D01*
X161514936Y-89736275D02*
X161575650Y-89764846D01*
X161361365Y-90107704D02*
X161422079Y-90136275D01*
X161422079Y-90136275D02*
X161564936Y-90136275D01*
X161564936Y-90136275D02*
X161618507Y-90107704D01*
X161618507Y-90107704D02*
X161639936Y-90050561D01*
X161639936Y-90050561D02*
X161632793Y-89993418D01*
X161632793Y-89993418D02*
X161597079Y-89936275D01*
X161597079Y-89936275D02*
X161536365Y-89907704D01*
X161536365Y-89907704D02*
X161393507Y-89907704D01*
X161393507Y-89907704D02*
X161332793Y-89879132D01*
X161029222Y-89736275D02*
X161079222Y-90136275D01*
X161036365Y-89793418D02*
X161004222Y-89764846D01*
X161004222Y-89764846D02*
X160943508Y-89736275D01*
X160943508Y-89736275D02*
X160857793Y-89736275D01*
X160857793Y-89736275D02*
X160804222Y-89764846D01*
X160804222Y-89764846D02*
X160782793Y-89821989D01*
X160782793Y-89821989D02*
X160822079Y-90136275D01*
X160561365Y-90107704D02*
X160507793Y-90136275D01*
X160507793Y-90136275D02*
X160393508Y-90136275D01*
X160393508Y-90136275D02*
X160332793Y-90107704D01*
X160332793Y-90107704D02*
X160297079Y-90050561D01*
X160297079Y-90050561D02*
X160293508Y-90021989D01*
X160293508Y-90021989D02*
X160314936Y-89964846D01*
X160314936Y-89964846D02*
X160368508Y-89936275D01*
X160368508Y-89936275D02*
X160454222Y-89936275D01*
X160454222Y-89936275D02*
X160507793Y-89907704D01*
X160507793Y-89907704D02*
X160529222Y-89850561D01*
X160529222Y-89850561D02*
X160525651Y-89821989D01*
X160525651Y-89821989D02*
X160489936Y-89764846D01*
X160489936Y-89764846D02*
X160429222Y-89736275D01*
X160429222Y-89736275D02*
X160343508Y-89736275D01*
X160343508Y-89736275D02*
X160289936Y-89764846D01*
X159593508Y-90136275D02*
X159518508Y-89536275D01*
X159547079Y-89764846D02*
X159486365Y-89736275D01*
X159486365Y-89736275D02*
X159372079Y-89736275D01*
X159372079Y-89736275D02*
X159318508Y-89764846D01*
X159318508Y-89764846D02*
X159293508Y-89793418D01*
X159293508Y-89793418D02*
X159272079Y-89850561D01*
X159272079Y-89850561D02*
X159293508Y-90021989D01*
X159293508Y-90021989D02*
X159329222Y-90079132D01*
X159329222Y-90079132D02*
X159361365Y-90107704D01*
X159361365Y-90107704D02*
X159422079Y-90136275D01*
X159422079Y-90136275D02*
X159536365Y-90136275D01*
X159536365Y-90136275D02*
X159589936Y-90107704D01*
X158818508Y-90107704D02*
X158879222Y-90136275D01*
X158879222Y-90136275D02*
X158993508Y-90136275D01*
X158993508Y-90136275D02*
X159047079Y-90107704D01*
X159047079Y-90107704D02*
X159068508Y-90050561D01*
X159068508Y-90050561D02*
X159039937Y-89821989D01*
X159039937Y-89821989D02*
X159004222Y-89764846D01*
X159004222Y-89764846D02*
X158943508Y-89736275D01*
X158943508Y-89736275D02*
X158829222Y-89736275D01*
X158829222Y-89736275D02*
X158775651Y-89764846D01*
X158775651Y-89764846D02*
X158754222Y-89821989D01*
X158754222Y-89821989D02*
X158761365Y-89879132D01*
X158761365Y-89879132D02*
X159054222Y-89936275D01*
X158536365Y-90136275D02*
X158486365Y-89736275D01*
X158461365Y-89536275D02*
X158493508Y-89564846D01*
X158493508Y-89564846D02*
X158468508Y-89593418D01*
X158468508Y-89593418D02*
X158436365Y-89564846D01*
X158436365Y-89564846D02*
X158461365Y-89536275D01*
X158461365Y-89536275D02*
X158468508Y-89593418D01*
X158200651Y-89736275D02*
X158250651Y-90136275D01*
X158207794Y-89793418D02*
X158175651Y-89764846D01*
X158175651Y-89764846D02*
X158114937Y-89736275D01*
X158114937Y-89736275D02*
X158029222Y-89736275D01*
X158029222Y-89736275D02*
X157975651Y-89764846D01*
X157975651Y-89764846D02*
X157954222Y-89821989D01*
X157954222Y-89821989D02*
X157993508Y-90136275D01*
X157400651Y-89736275D02*
X157461365Y-90221989D01*
X157461365Y-90221989D02*
X157497080Y-90279132D01*
X157497080Y-90279132D02*
X157529222Y-90307704D01*
X157529222Y-90307704D02*
X157589937Y-90336275D01*
X157589937Y-90336275D02*
X157675651Y-90336275D01*
X157675651Y-90336275D02*
X157729222Y-90307704D01*
X157447080Y-90107704D02*
X157507794Y-90136275D01*
X157507794Y-90136275D02*
X157622080Y-90136275D01*
X157622080Y-90136275D02*
X157675651Y-90107704D01*
X157675651Y-90107704D02*
X157700651Y-90079132D01*
X157700651Y-90079132D02*
X157722080Y-90021989D01*
X157722080Y-90021989D02*
X157700651Y-89850561D01*
X157700651Y-89850561D02*
X157664937Y-89793418D01*
X157664937Y-89793418D02*
X157632794Y-89764846D01*
X157632794Y-89764846D02*
X157572080Y-89736275D01*
X157572080Y-89736275D02*
X157457794Y-89736275D01*
X157457794Y-89736275D02*
X157404222Y-89764846D01*
X156622080Y-90136275D02*
X156675651Y-90107704D01*
X156675651Y-90107704D02*
X156700651Y-90079132D01*
X156700651Y-90079132D02*
X156722080Y-90021989D01*
X156722080Y-90021989D02*
X156700651Y-89850561D01*
X156700651Y-89850561D02*
X156664937Y-89793418D01*
X156664937Y-89793418D02*
X156632794Y-89764846D01*
X156632794Y-89764846D02*
X156572080Y-89736275D01*
X156572080Y-89736275D02*
X156486365Y-89736275D01*
X156486365Y-89736275D02*
X156432794Y-89764846D01*
X156432794Y-89764846D02*
X156407794Y-89793418D01*
X156407794Y-89793418D02*
X156386365Y-89850561D01*
X156386365Y-89850561D02*
X156407794Y-90021989D01*
X156407794Y-90021989D02*
X156443508Y-90079132D01*
X156443508Y-90079132D02*
X156475651Y-90107704D01*
X156475651Y-90107704D02*
X156536365Y-90136275D01*
X156536365Y-90136275D02*
X156622080Y-90136275D01*
X156164937Y-90136275D02*
X156114937Y-89736275D01*
X156129223Y-89850561D02*
X156093508Y-89793418D01*
X156093508Y-89793418D02*
X156061365Y-89764846D01*
X156061365Y-89764846D02*
X156000651Y-89736275D01*
X156000651Y-89736275D02*
X155943508Y-89736275D01*
X155079222Y-90136275D02*
X155004222Y-89536275D01*
X155075651Y-90107704D02*
X155136365Y-90136275D01*
X155136365Y-90136275D02*
X155250651Y-90136275D01*
X155250651Y-90136275D02*
X155304222Y-90107704D01*
X155304222Y-90107704D02*
X155329222Y-90079132D01*
X155329222Y-90079132D02*
X155350651Y-90021989D01*
X155350651Y-90021989D02*
X155329222Y-89850561D01*
X155329222Y-89850561D02*
X155293508Y-89793418D01*
X155293508Y-89793418D02*
X155261365Y-89764846D01*
X155261365Y-89764846D02*
X155200651Y-89736275D01*
X155200651Y-89736275D02*
X155086365Y-89736275D01*
X155086365Y-89736275D02*
X155032793Y-89764846D01*
X154707794Y-90136275D02*
X154761365Y-90107704D01*
X154761365Y-90107704D02*
X154786365Y-90079132D01*
X154786365Y-90079132D02*
X154807794Y-90021989D01*
X154807794Y-90021989D02*
X154786365Y-89850561D01*
X154786365Y-89850561D02*
X154750651Y-89793418D01*
X154750651Y-89793418D02*
X154718508Y-89764846D01*
X154718508Y-89764846D02*
X154657794Y-89736275D01*
X154657794Y-89736275D02*
X154572079Y-89736275D01*
X154572079Y-89736275D02*
X154518508Y-89764846D01*
X154518508Y-89764846D02*
X154493508Y-89793418D01*
X154493508Y-89793418D02*
X154472079Y-89850561D01*
X154472079Y-89850561D02*
X154493508Y-90021989D01*
X154493508Y-90021989D02*
X154529222Y-90079132D01*
X154529222Y-90079132D02*
X154561365Y-90107704D01*
X154561365Y-90107704D02*
X154622079Y-90136275D01*
X154622079Y-90136275D02*
X154707794Y-90136275D01*
X154250651Y-90136275D02*
X154200651Y-89736275D01*
X154175651Y-89536275D02*
X154207794Y-89564846D01*
X154207794Y-89564846D02*
X154182794Y-89593418D01*
X154182794Y-89593418D02*
X154150651Y-89564846D01*
X154150651Y-89564846D02*
X154175651Y-89536275D01*
X154175651Y-89536275D02*
X154182794Y-89593418D01*
X153914937Y-89736275D02*
X153964937Y-90136275D01*
X153922080Y-89793418D02*
X153889937Y-89764846D01*
X153889937Y-89764846D02*
X153829223Y-89736275D01*
X153829223Y-89736275D02*
X153743508Y-89736275D01*
X153743508Y-89736275D02*
X153689937Y-89764846D01*
X153689937Y-89764846D02*
X153668508Y-89821989D01*
X153668508Y-89821989D02*
X153707794Y-90136275D01*
X153114937Y-89736275D02*
X153175651Y-90221989D01*
X153175651Y-90221989D02*
X153211366Y-90279132D01*
X153211366Y-90279132D02*
X153243508Y-90307704D01*
X153243508Y-90307704D02*
X153304223Y-90336275D01*
X153304223Y-90336275D02*
X153389937Y-90336275D01*
X153389937Y-90336275D02*
X153443508Y-90307704D01*
X153161366Y-90107704D02*
X153222080Y-90136275D01*
X153222080Y-90136275D02*
X153336366Y-90136275D01*
X153336366Y-90136275D02*
X153389937Y-90107704D01*
X153389937Y-90107704D02*
X153414937Y-90079132D01*
X153414937Y-90079132D02*
X153436366Y-90021989D01*
X153436366Y-90021989D02*
X153414937Y-89850561D01*
X153414937Y-89850561D02*
X153379223Y-89793418D01*
X153379223Y-89793418D02*
X153347080Y-89764846D01*
X153347080Y-89764846D02*
X153286366Y-89736275D01*
X153286366Y-89736275D02*
X153172080Y-89736275D01*
X153172080Y-89736275D02*
X153118508Y-89764846D01*
X168589936Y-91073670D02*
X168536364Y-91102241D01*
X168536364Y-91102241D02*
X168422079Y-91102241D01*
X168422079Y-91102241D02*
X168361364Y-91073670D01*
X168361364Y-91073670D02*
X168325650Y-91016527D01*
X168325650Y-91016527D02*
X168322079Y-90987955D01*
X168322079Y-90987955D02*
X168343507Y-90930812D01*
X168343507Y-90930812D02*
X168397079Y-90902241D01*
X168397079Y-90902241D02*
X168482793Y-90902241D01*
X168482793Y-90902241D02*
X168536364Y-90873670D01*
X168536364Y-90873670D02*
X168557793Y-90816527D01*
X168557793Y-90816527D02*
X168554222Y-90787955D01*
X168554222Y-90787955D02*
X168518507Y-90730812D01*
X168518507Y-90730812D02*
X168457793Y-90702241D01*
X168457793Y-90702241D02*
X168372079Y-90702241D01*
X168372079Y-90702241D02*
X168318507Y-90730812D01*
X167993508Y-91102241D02*
X168047079Y-91073670D01*
X168047079Y-91073670D02*
X168072079Y-91045098D01*
X168072079Y-91045098D02*
X168093508Y-90987955D01*
X168093508Y-90987955D02*
X168072079Y-90816527D01*
X168072079Y-90816527D02*
X168036365Y-90759384D01*
X168036365Y-90759384D02*
X168004222Y-90730812D01*
X168004222Y-90730812D02*
X167943508Y-90702241D01*
X167943508Y-90702241D02*
X167857793Y-90702241D01*
X167857793Y-90702241D02*
X167804222Y-90730812D01*
X167804222Y-90730812D02*
X167779222Y-90759384D01*
X167779222Y-90759384D02*
X167757793Y-90816527D01*
X167757793Y-90816527D02*
X167779222Y-90987955D01*
X167779222Y-90987955D02*
X167814936Y-91045098D01*
X167814936Y-91045098D02*
X167847079Y-91073670D01*
X167847079Y-91073670D02*
X167907793Y-91102241D01*
X167907793Y-91102241D02*
X167993508Y-91102241D01*
X167536365Y-91102241D02*
X167486365Y-90702241D01*
X167493508Y-90759384D02*
X167461365Y-90730812D01*
X167461365Y-90730812D02*
X167400651Y-90702241D01*
X167400651Y-90702241D02*
X167314936Y-90702241D01*
X167314936Y-90702241D02*
X167261365Y-90730812D01*
X167261365Y-90730812D02*
X167239936Y-90787955D01*
X167239936Y-90787955D02*
X167279222Y-91102241D01*
X167239936Y-90787955D02*
X167204222Y-90730812D01*
X167204222Y-90730812D02*
X167143508Y-90702241D01*
X167143508Y-90702241D02*
X167057793Y-90702241D01*
X167057793Y-90702241D02*
X167004222Y-90730812D01*
X167004222Y-90730812D02*
X166982793Y-90787955D01*
X166982793Y-90787955D02*
X167022079Y-91102241D01*
X166504222Y-91073670D02*
X166564936Y-91102241D01*
X166564936Y-91102241D02*
X166679222Y-91102241D01*
X166679222Y-91102241D02*
X166732793Y-91073670D01*
X166732793Y-91073670D02*
X166754222Y-91016527D01*
X166754222Y-91016527D02*
X166725651Y-90787955D01*
X166725651Y-90787955D02*
X166689936Y-90730812D01*
X166689936Y-90730812D02*
X166629222Y-90702241D01*
X166629222Y-90702241D02*
X166514936Y-90702241D01*
X166514936Y-90702241D02*
X166461365Y-90730812D01*
X166461365Y-90730812D02*
X166439936Y-90787955D01*
X166439936Y-90787955D02*
X166447079Y-90845098D01*
X166447079Y-90845098D02*
X166739936Y-90902241D01*
X166257793Y-90702241D02*
X166029222Y-90702241D01*
X166147079Y-90502241D02*
X166211365Y-91016527D01*
X166211365Y-91016527D02*
X166189936Y-91073670D01*
X166189936Y-91073670D02*
X166136365Y-91102241D01*
X166136365Y-91102241D02*
X166079222Y-91102241D01*
X165879222Y-91102241D02*
X165804222Y-90502241D01*
X165622079Y-91102241D02*
X165582793Y-90787955D01*
X165582793Y-90787955D02*
X165604222Y-90730812D01*
X165604222Y-90730812D02*
X165657793Y-90702241D01*
X165657793Y-90702241D02*
X165743508Y-90702241D01*
X165743508Y-90702241D02*
X165804222Y-90730812D01*
X165804222Y-90730812D02*
X165836365Y-90759384D01*
X165336365Y-91102241D02*
X165286365Y-90702241D01*
X165261365Y-90502241D02*
X165293508Y-90530812D01*
X165293508Y-90530812D02*
X165268508Y-90559384D01*
X165268508Y-90559384D02*
X165236365Y-90530812D01*
X165236365Y-90530812D02*
X165261365Y-90502241D01*
X165261365Y-90502241D02*
X165268508Y-90559384D01*
X165000651Y-90702241D02*
X165050651Y-91102241D01*
X165007794Y-90759384D02*
X164975651Y-90730812D01*
X164975651Y-90730812D02*
X164914937Y-90702241D01*
X164914937Y-90702241D02*
X164829222Y-90702241D01*
X164829222Y-90702241D02*
X164775651Y-90730812D01*
X164775651Y-90730812D02*
X164754222Y-90787955D01*
X164754222Y-90787955D02*
X164793508Y-91102241D01*
X164200651Y-90702241D02*
X164261365Y-91187955D01*
X164261365Y-91187955D02*
X164297080Y-91245098D01*
X164297080Y-91245098D02*
X164329222Y-91273670D01*
X164329222Y-91273670D02*
X164389937Y-91302241D01*
X164389937Y-91302241D02*
X164475651Y-91302241D01*
X164475651Y-91302241D02*
X164529222Y-91273670D01*
X164247080Y-91073670D02*
X164307794Y-91102241D01*
X164307794Y-91102241D02*
X164422080Y-91102241D01*
X164422080Y-91102241D02*
X164475651Y-91073670D01*
X164475651Y-91073670D02*
X164500651Y-91045098D01*
X164500651Y-91045098D02*
X164522080Y-90987955D01*
X164522080Y-90987955D02*
X164500651Y-90816527D01*
X164500651Y-90816527D02*
X164464937Y-90759384D01*
X164464937Y-90759384D02*
X164432794Y-90730812D01*
X164432794Y-90730812D02*
X164372080Y-90702241D01*
X164372080Y-90702241D02*
X164257794Y-90702241D01*
X164257794Y-90702241D02*
X164204222Y-90730812D01*
X163543508Y-90702241D02*
X163314937Y-90702241D01*
X163432794Y-90502241D02*
X163497080Y-91016527D01*
X163497080Y-91016527D02*
X163475651Y-91073670D01*
X163475651Y-91073670D02*
X163422080Y-91102241D01*
X163422080Y-91102241D02*
X163364937Y-91102241D01*
X163164937Y-91102241D02*
X163089937Y-90502241D01*
X162907794Y-91102241D02*
X162868508Y-90787955D01*
X162868508Y-90787955D02*
X162889937Y-90730812D01*
X162889937Y-90730812D02*
X162943508Y-90702241D01*
X162943508Y-90702241D02*
X163029223Y-90702241D01*
X163029223Y-90702241D02*
X163089937Y-90730812D01*
X163089937Y-90730812D02*
X163122080Y-90759384D01*
X162364937Y-91102241D02*
X162325651Y-90787955D01*
X162325651Y-90787955D02*
X162347080Y-90730812D01*
X162347080Y-90730812D02*
X162400651Y-90702241D01*
X162400651Y-90702241D02*
X162514937Y-90702241D01*
X162514937Y-90702241D02*
X162575651Y-90730812D01*
X162361366Y-91073670D02*
X162422080Y-91102241D01*
X162422080Y-91102241D02*
X162564937Y-91102241D01*
X162564937Y-91102241D02*
X162618508Y-91073670D01*
X162618508Y-91073670D02*
X162639937Y-91016527D01*
X162639937Y-91016527D02*
X162632794Y-90959384D01*
X162632794Y-90959384D02*
X162597080Y-90902241D01*
X162597080Y-90902241D02*
X162536366Y-90873670D01*
X162536366Y-90873670D02*
X162393508Y-90873670D01*
X162393508Y-90873670D02*
X162332794Y-90845098D01*
X162114937Y-90702241D02*
X161886366Y-90702241D01*
X162004223Y-90502241D02*
X162068509Y-91016527D01*
X162068509Y-91016527D02*
X162047080Y-91073670D01*
X162047080Y-91073670D02*
X161993509Y-91102241D01*
X161993509Y-91102241D02*
X161936366Y-91102241D01*
X161279223Y-91102241D02*
X161229223Y-90702241D01*
X161236366Y-90759384D02*
X161204223Y-90730812D01*
X161204223Y-90730812D02*
X161143509Y-90702241D01*
X161143509Y-90702241D02*
X161057794Y-90702241D01*
X161057794Y-90702241D02*
X161004223Y-90730812D01*
X161004223Y-90730812D02*
X160982794Y-90787955D01*
X160982794Y-90787955D02*
X161022080Y-91102241D01*
X160982794Y-90787955D02*
X160947080Y-90730812D01*
X160947080Y-90730812D02*
X160886366Y-90702241D01*
X160886366Y-90702241D02*
X160800651Y-90702241D01*
X160800651Y-90702241D02*
X160747080Y-90730812D01*
X160747080Y-90730812D02*
X160725651Y-90787955D01*
X160725651Y-90787955D02*
X160764937Y-91102241D01*
X160222080Y-91102241D02*
X160182794Y-90787955D01*
X160182794Y-90787955D02*
X160204223Y-90730812D01*
X160204223Y-90730812D02*
X160257794Y-90702241D01*
X160257794Y-90702241D02*
X160372080Y-90702241D01*
X160372080Y-90702241D02*
X160432794Y-90730812D01*
X160218509Y-91073670D02*
X160279223Y-91102241D01*
X160279223Y-91102241D02*
X160422080Y-91102241D01*
X160422080Y-91102241D02*
X160475651Y-91073670D01*
X160475651Y-91073670D02*
X160497080Y-91016527D01*
X160497080Y-91016527D02*
X160489937Y-90959384D01*
X160489937Y-90959384D02*
X160454223Y-90902241D01*
X160454223Y-90902241D02*
X160393509Y-90873670D01*
X160393509Y-90873670D02*
X160250651Y-90873670D01*
X160250651Y-90873670D02*
X160189937Y-90845098D01*
X159936366Y-91102241D02*
X159861366Y-90502241D01*
X159850652Y-90873670D02*
X159707794Y-91102241D01*
X159657794Y-90702241D02*
X159914937Y-90930812D01*
X159218509Y-91073670D02*
X159279223Y-91102241D01*
X159279223Y-91102241D02*
X159393509Y-91102241D01*
X159393509Y-91102241D02*
X159447080Y-91073670D01*
X159447080Y-91073670D02*
X159468509Y-91016527D01*
X159468509Y-91016527D02*
X159439938Y-90787955D01*
X159439938Y-90787955D02*
X159404223Y-90730812D01*
X159404223Y-90730812D02*
X159343509Y-90702241D01*
X159343509Y-90702241D02*
X159229223Y-90702241D01*
X159229223Y-90702241D02*
X159175652Y-90730812D01*
X159175652Y-90730812D02*
X159154223Y-90787955D01*
X159154223Y-90787955D02*
X159161366Y-90845098D01*
X159161366Y-90845098D02*
X159454223Y-90902241D01*
X158961366Y-91073670D02*
X158907794Y-91102241D01*
X158907794Y-91102241D02*
X158793509Y-91102241D01*
X158793509Y-91102241D02*
X158732794Y-91073670D01*
X158732794Y-91073670D02*
X158697080Y-91016527D01*
X158697080Y-91016527D02*
X158693509Y-90987955D01*
X158693509Y-90987955D02*
X158714937Y-90930812D01*
X158714937Y-90930812D02*
X158768509Y-90902241D01*
X158768509Y-90902241D02*
X158854223Y-90902241D01*
X158854223Y-90902241D02*
X158907794Y-90873670D01*
X158907794Y-90873670D02*
X158929223Y-90816527D01*
X158929223Y-90816527D02*
X158925652Y-90787955D01*
X158925652Y-90787955D02*
X158889937Y-90730812D01*
X158889937Y-90730812D02*
X158829223Y-90702241D01*
X158829223Y-90702241D02*
X158743509Y-90702241D01*
X158743509Y-90702241D02*
X158689937Y-90730812D01*
X157907795Y-91102241D02*
X157961366Y-91073670D01*
X157961366Y-91073670D02*
X157986366Y-91045098D01*
X157986366Y-91045098D02*
X158007795Y-90987955D01*
X158007795Y-90987955D02*
X157986366Y-90816527D01*
X157986366Y-90816527D02*
X157950652Y-90759384D01*
X157950652Y-90759384D02*
X157918509Y-90730812D01*
X157918509Y-90730812D02*
X157857795Y-90702241D01*
X157857795Y-90702241D02*
X157772080Y-90702241D01*
X157772080Y-90702241D02*
X157718509Y-90730812D01*
X157718509Y-90730812D02*
X157693509Y-90759384D01*
X157693509Y-90759384D02*
X157672080Y-90816527D01*
X157672080Y-90816527D02*
X157693509Y-90987955D01*
X157693509Y-90987955D02*
X157729223Y-91045098D01*
X157729223Y-91045098D02*
X157761366Y-91073670D01*
X157761366Y-91073670D02*
X157822080Y-91102241D01*
X157822080Y-91102241D02*
X157907795Y-91102241D01*
X157486366Y-90702241D02*
X157257795Y-90702241D01*
X157375652Y-90502241D02*
X157439938Y-91016527D01*
X157439938Y-91016527D02*
X157418509Y-91073670D01*
X157418509Y-91073670D02*
X157364938Y-91102241D01*
X157364938Y-91102241D02*
X157307795Y-91102241D01*
X157107795Y-91102241D02*
X157032795Y-90502241D01*
X156850652Y-91102241D02*
X156811366Y-90787955D01*
X156811366Y-90787955D02*
X156832795Y-90730812D01*
X156832795Y-90730812D02*
X156886366Y-90702241D01*
X156886366Y-90702241D02*
X156972081Y-90702241D01*
X156972081Y-90702241D02*
X157032795Y-90730812D01*
X157032795Y-90730812D02*
X157064938Y-90759384D01*
X156332795Y-91073670D02*
X156393509Y-91102241D01*
X156393509Y-91102241D02*
X156507795Y-91102241D01*
X156507795Y-91102241D02*
X156561366Y-91073670D01*
X156561366Y-91073670D02*
X156582795Y-91016527D01*
X156582795Y-91016527D02*
X156554224Y-90787955D01*
X156554224Y-90787955D02*
X156518509Y-90730812D01*
X156518509Y-90730812D02*
X156457795Y-90702241D01*
X156457795Y-90702241D02*
X156343509Y-90702241D01*
X156343509Y-90702241D02*
X156289938Y-90730812D01*
X156289938Y-90730812D02*
X156268509Y-90787955D01*
X156268509Y-90787955D02*
X156275652Y-90845098D01*
X156275652Y-90845098D02*
X156568509Y-90902241D01*
X156050652Y-91102241D02*
X156000652Y-90702241D01*
X156014938Y-90816527D02*
X155979223Y-90759384D01*
X155979223Y-90759384D02*
X155947080Y-90730812D01*
X155947080Y-90730812D02*
X155886366Y-90702241D01*
X155886366Y-90702241D02*
X155829223Y-90702241D01*
X155172080Y-90702241D02*
X155247080Y-91302241D01*
X155175651Y-90730812D02*
X155114937Y-90702241D01*
X155114937Y-90702241D02*
X155000651Y-90702241D01*
X155000651Y-90702241D02*
X154947080Y-90730812D01*
X154947080Y-90730812D02*
X154922080Y-90759384D01*
X154922080Y-90759384D02*
X154900651Y-90816527D01*
X154900651Y-90816527D02*
X154922080Y-90987955D01*
X154922080Y-90987955D02*
X154957794Y-91045098D01*
X154957794Y-91045098D02*
X154989937Y-91073670D01*
X154989937Y-91073670D02*
X155050651Y-91102241D01*
X155050651Y-91102241D02*
X155164937Y-91102241D01*
X155164937Y-91102241D02*
X155218508Y-91073670D01*
X154447080Y-91073670D02*
X154507794Y-91102241D01*
X154507794Y-91102241D02*
X154622080Y-91102241D01*
X154622080Y-91102241D02*
X154675651Y-91073670D01*
X154675651Y-91073670D02*
X154697080Y-91016527D01*
X154697080Y-91016527D02*
X154668509Y-90787955D01*
X154668509Y-90787955D02*
X154632794Y-90730812D01*
X154632794Y-90730812D02*
X154572080Y-90702241D01*
X154572080Y-90702241D02*
X154457794Y-90702241D01*
X154457794Y-90702241D02*
X154404223Y-90730812D01*
X154404223Y-90730812D02*
X154382794Y-90787955D01*
X154382794Y-90787955D02*
X154389937Y-90845098D01*
X154389937Y-90845098D02*
X154682794Y-90902241D01*
X154079223Y-91102241D02*
X154132794Y-91073670D01*
X154132794Y-91073670D02*
X154157794Y-91045098D01*
X154157794Y-91045098D02*
X154179223Y-90987955D01*
X154179223Y-90987955D02*
X154157794Y-90816527D01*
X154157794Y-90816527D02*
X154122080Y-90759384D01*
X154122080Y-90759384D02*
X154089937Y-90730812D01*
X154089937Y-90730812D02*
X154029223Y-90702241D01*
X154029223Y-90702241D02*
X153943508Y-90702241D01*
X153943508Y-90702241D02*
X153889937Y-90730812D01*
X153889937Y-90730812D02*
X153864937Y-90759384D01*
X153864937Y-90759384D02*
X153843508Y-90816527D01*
X153843508Y-90816527D02*
X153864937Y-90987955D01*
X153864937Y-90987955D02*
X153900651Y-91045098D01*
X153900651Y-91045098D02*
X153932794Y-91073670D01*
X153932794Y-91073670D02*
X153993508Y-91102241D01*
X153993508Y-91102241D02*
X154079223Y-91102241D01*
X153572080Y-90702241D02*
X153647080Y-91302241D01*
X153575651Y-90730812D02*
X153514937Y-90702241D01*
X153514937Y-90702241D02*
X153400651Y-90702241D01*
X153400651Y-90702241D02*
X153347080Y-90730812D01*
X153347080Y-90730812D02*
X153322080Y-90759384D01*
X153322080Y-90759384D02*
X153300651Y-90816527D01*
X153300651Y-90816527D02*
X153322080Y-90987955D01*
X153322080Y-90987955D02*
X153357794Y-91045098D01*
X153357794Y-91045098D02*
X153389937Y-91073670D01*
X153389937Y-91073670D02*
X153450651Y-91102241D01*
X153450651Y-91102241D02*
X153564937Y-91102241D01*
X153564937Y-91102241D02*
X153618508Y-91073670D01*
X152993509Y-91102241D02*
X153047080Y-91073670D01*
X153047080Y-91073670D02*
X153068509Y-91016527D01*
X153068509Y-91016527D02*
X153004223Y-90502241D01*
X152532794Y-91073670D02*
X152593508Y-91102241D01*
X152593508Y-91102241D02*
X152707794Y-91102241D01*
X152707794Y-91102241D02*
X152761365Y-91073670D01*
X152761365Y-91073670D02*
X152782794Y-91016527D01*
X152782794Y-91016527D02*
X152754223Y-90787955D01*
X152754223Y-90787955D02*
X152718508Y-90730812D01*
X152718508Y-90730812D02*
X152657794Y-90702241D01*
X152657794Y-90702241D02*
X152543508Y-90702241D01*
X152543508Y-90702241D02*
X152489937Y-90730812D01*
X152489937Y-90730812D02*
X152468508Y-90787955D01*
X152468508Y-90787955D02*
X152475651Y-90845098D01*
X152475651Y-90845098D02*
X152768508Y-90902241D01*
X168589936Y-92039636D02*
X168536364Y-92068207D01*
X168536364Y-92068207D02*
X168422079Y-92068207D01*
X168422079Y-92068207D02*
X168361364Y-92039636D01*
X168361364Y-92039636D02*
X168325650Y-91982493D01*
X168325650Y-91982493D02*
X168322079Y-91953921D01*
X168322079Y-91953921D02*
X168343507Y-91896778D01*
X168343507Y-91896778D02*
X168397079Y-91868207D01*
X168397079Y-91868207D02*
X168482793Y-91868207D01*
X168482793Y-91868207D02*
X168536364Y-91839636D01*
X168536364Y-91839636D02*
X168557793Y-91782493D01*
X168557793Y-91782493D02*
X168554222Y-91753921D01*
X168554222Y-91753921D02*
X168518507Y-91696778D01*
X168518507Y-91696778D02*
X168457793Y-91668207D01*
X168457793Y-91668207D02*
X168372079Y-91668207D01*
X168372079Y-91668207D02*
X168318507Y-91696778D01*
X168114936Y-91668207D02*
X167886365Y-91668207D01*
X168004222Y-91468207D02*
X168068508Y-91982493D01*
X168068508Y-91982493D02*
X168047079Y-92039636D01*
X168047079Y-92039636D02*
X167993508Y-92068207D01*
X167993508Y-92068207D02*
X167936365Y-92068207D01*
X167479222Y-92068207D02*
X167439936Y-91753921D01*
X167439936Y-91753921D02*
X167461365Y-91696778D01*
X167461365Y-91696778D02*
X167514936Y-91668207D01*
X167514936Y-91668207D02*
X167629222Y-91668207D01*
X167629222Y-91668207D02*
X167689936Y-91696778D01*
X167475651Y-92039636D02*
X167536365Y-92068207D01*
X167536365Y-92068207D02*
X167679222Y-92068207D01*
X167679222Y-92068207D02*
X167732793Y-92039636D01*
X167732793Y-92039636D02*
X167754222Y-91982493D01*
X167754222Y-91982493D02*
X167747079Y-91925350D01*
X167747079Y-91925350D02*
X167711365Y-91868207D01*
X167711365Y-91868207D02*
X167650651Y-91839636D01*
X167650651Y-91839636D02*
X167507793Y-91839636D01*
X167507793Y-91839636D02*
X167447079Y-91811064D01*
X167193508Y-92068207D02*
X167143508Y-91668207D01*
X167157794Y-91782493D02*
X167122079Y-91725350D01*
X167122079Y-91725350D02*
X167089936Y-91696778D01*
X167089936Y-91696778D02*
X167029222Y-91668207D01*
X167029222Y-91668207D02*
X166972079Y-91668207D01*
X166589936Y-92039636D02*
X166650650Y-92068207D01*
X166650650Y-92068207D02*
X166764936Y-92068207D01*
X166764936Y-92068207D02*
X166818507Y-92039636D01*
X166818507Y-92039636D02*
X166839936Y-91982493D01*
X166839936Y-91982493D02*
X166811365Y-91753921D01*
X166811365Y-91753921D02*
X166775650Y-91696778D01*
X166775650Y-91696778D02*
X166714936Y-91668207D01*
X166714936Y-91668207D02*
X166600650Y-91668207D01*
X166600650Y-91668207D02*
X166547079Y-91696778D01*
X166547079Y-91696778D02*
X166525650Y-91753921D01*
X166525650Y-91753921D02*
X166532793Y-91811064D01*
X166532793Y-91811064D02*
X166825650Y-91868207D01*
X166275650Y-92039636D02*
X166279221Y-92068207D01*
X166279221Y-92068207D02*
X166314936Y-92125350D01*
X166314936Y-92125350D02*
X166347079Y-92153921D01*
X165479222Y-92068207D02*
X165532793Y-92039636D01*
X165532793Y-92039636D02*
X165557793Y-92011064D01*
X165557793Y-92011064D02*
X165579222Y-91953921D01*
X165579222Y-91953921D02*
X165557793Y-91782493D01*
X165557793Y-91782493D02*
X165522079Y-91725350D01*
X165522079Y-91725350D02*
X165489936Y-91696778D01*
X165489936Y-91696778D02*
X165429222Y-91668207D01*
X165429222Y-91668207D02*
X165343507Y-91668207D01*
X165343507Y-91668207D02*
X165289936Y-91696778D01*
X165289936Y-91696778D02*
X165264936Y-91725350D01*
X165264936Y-91725350D02*
X165243507Y-91782493D01*
X165243507Y-91782493D02*
X165264936Y-91953921D01*
X165264936Y-91953921D02*
X165300650Y-92011064D01*
X165300650Y-92011064D02*
X165332793Y-92039636D01*
X165332793Y-92039636D02*
X165393507Y-92068207D01*
X165393507Y-92068207D02*
X165479222Y-92068207D01*
X165022079Y-92068207D02*
X164972079Y-91668207D01*
X164986365Y-91782493D02*
X164950650Y-91725350D01*
X164950650Y-91725350D02*
X164918507Y-91696778D01*
X164918507Y-91696778D02*
X164857793Y-91668207D01*
X164857793Y-91668207D02*
X164800650Y-91668207D01*
X164107793Y-92068207D02*
X164161364Y-92039636D01*
X164161364Y-92039636D02*
X164182793Y-91982493D01*
X164182793Y-91982493D02*
X164118507Y-91468207D01*
X163622078Y-92068207D02*
X163582792Y-91753921D01*
X163582792Y-91753921D02*
X163604221Y-91696778D01*
X163604221Y-91696778D02*
X163657792Y-91668207D01*
X163657792Y-91668207D02*
X163772078Y-91668207D01*
X163772078Y-91668207D02*
X163832792Y-91696778D01*
X163618507Y-92039636D02*
X163679221Y-92068207D01*
X163679221Y-92068207D02*
X163822078Y-92068207D01*
X163822078Y-92068207D02*
X163875649Y-92039636D01*
X163875649Y-92039636D02*
X163897078Y-91982493D01*
X163897078Y-91982493D02*
X163889935Y-91925350D01*
X163889935Y-91925350D02*
X163854221Y-91868207D01*
X163854221Y-91868207D02*
X163793507Y-91839636D01*
X163793507Y-91839636D02*
X163650649Y-91839636D01*
X163650649Y-91839636D02*
X163589935Y-91811064D01*
X163029221Y-91668207D02*
X163079221Y-92068207D01*
X163286364Y-91668207D02*
X163325650Y-91982493D01*
X163325650Y-91982493D02*
X163304221Y-92039636D01*
X163304221Y-92039636D02*
X163250650Y-92068207D01*
X163250650Y-92068207D02*
X163164935Y-92068207D01*
X163164935Y-92068207D02*
X163104221Y-92039636D01*
X163104221Y-92039636D02*
X163072078Y-92011064D01*
X162486364Y-91668207D02*
X162547078Y-92153921D01*
X162547078Y-92153921D02*
X162582793Y-92211064D01*
X162582793Y-92211064D02*
X162614935Y-92239636D01*
X162614935Y-92239636D02*
X162675650Y-92268207D01*
X162675650Y-92268207D02*
X162761364Y-92268207D01*
X162761364Y-92268207D02*
X162814935Y-92239636D01*
X162532793Y-92039636D02*
X162593507Y-92068207D01*
X162593507Y-92068207D02*
X162707793Y-92068207D01*
X162707793Y-92068207D02*
X162761364Y-92039636D01*
X162761364Y-92039636D02*
X162786364Y-92011064D01*
X162786364Y-92011064D02*
X162807793Y-91953921D01*
X162807793Y-91953921D02*
X162786364Y-91782493D01*
X162786364Y-91782493D02*
X162750650Y-91725350D01*
X162750650Y-91725350D02*
X162718507Y-91696778D01*
X162718507Y-91696778D02*
X162657793Y-91668207D01*
X162657793Y-91668207D02*
X162543507Y-91668207D01*
X162543507Y-91668207D02*
X162489935Y-91696778D01*
X162250650Y-92068207D02*
X162175650Y-91468207D01*
X161993507Y-92068207D02*
X161954221Y-91753921D01*
X161954221Y-91753921D02*
X161975650Y-91696778D01*
X161975650Y-91696778D02*
X162029221Y-91668207D01*
X162029221Y-91668207D02*
X162114936Y-91668207D01*
X162114936Y-91668207D02*
X162175650Y-91696778D01*
X162175650Y-91696778D02*
X162207793Y-91725350D01*
X161675650Y-92039636D02*
X161679221Y-92068207D01*
X161679221Y-92068207D02*
X161714936Y-92125350D01*
X161714936Y-92125350D02*
X161747079Y-92153921D01*
X160707793Y-92068207D02*
X160668507Y-91753921D01*
X160668507Y-91753921D02*
X160689936Y-91696778D01*
X160689936Y-91696778D02*
X160743507Y-91668207D01*
X160743507Y-91668207D02*
X160857793Y-91668207D01*
X160857793Y-91668207D02*
X160918507Y-91696778D01*
X160704222Y-92039636D02*
X160764936Y-92068207D01*
X160764936Y-92068207D02*
X160907793Y-92068207D01*
X160907793Y-92068207D02*
X160961364Y-92039636D01*
X160961364Y-92039636D02*
X160982793Y-91982493D01*
X160982793Y-91982493D02*
X160975650Y-91925350D01*
X160975650Y-91925350D02*
X160939936Y-91868207D01*
X160939936Y-91868207D02*
X160879222Y-91839636D01*
X160879222Y-91839636D02*
X160736364Y-91839636D01*
X160736364Y-91839636D02*
X160675650Y-91811064D01*
X160372079Y-91668207D02*
X160447079Y-92268207D01*
X160375650Y-91696778D02*
X160314936Y-91668207D01*
X160314936Y-91668207D02*
X160200650Y-91668207D01*
X160200650Y-91668207D02*
X160147079Y-91696778D01*
X160147079Y-91696778D02*
X160122079Y-91725350D01*
X160122079Y-91725350D02*
X160100650Y-91782493D01*
X160100650Y-91782493D02*
X160122079Y-91953921D01*
X160122079Y-91953921D02*
X160157793Y-92011064D01*
X160157793Y-92011064D02*
X160189936Y-92039636D01*
X160189936Y-92039636D02*
X160250650Y-92068207D01*
X160250650Y-92068207D02*
X160364936Y-92068207D01*
X160364936Y-92068207D02*
X160418507Y-92039636D01*
X159829222Y-91668207D02*
X159904222Y-92268207D01*
X159832793Y-91696778D02*
X159772079Y-91668207D01*
X159772079Y-91668207D02*
X159657793Y-91668207D01*
X159657793Y-91668207D02*
X159604222Y-91696778D01*
X159604222Y-91696778D02*
X159579222Y-91725350D01*
X159579222Y-91725350D02*
X159557793Y-91782493D01*
X159557793Y-91782493D02*
X159579222Y-91953921D01*
X159579222Y-91953921D02*
X159614936Y-92011064D01*
X159614936Y-92011064D02*
X159647079Y-92039636D01*
X159647079Y-92039636D02*
X159707793Y-92068207D01*
X159707793Y-92068207D02*
X159822079Y-92068207D01*
X159822079Y-92068207D02*
X159875650Y-92039636D01*
X159250651Y-92068207D02*
X159304222Y-92039636D01*
X159304222Y-92039636D02*
X159325651Y-91982493D01*
X159325651Y-91982493D02*
X159261365Y-91468207D01*
X158764936Y-92068207D02*
X158725650Y-91753921D01*
X158725650Y-91753921D02*
X158747079Y-91696778D01*
X158747079Y-91696778D02*
X158800650Y-91668207D01*
X158800650Y-91668207D02*
X158914936Y-91668207D01*
X158914936Y-91668207D02*
X158975650Y-91696778D01*
X158761365Y-92039636D02*
X158822079Y-92068207D01*
X158822079Y-92068207D02*
X158964936Y-92068207D01*
X158964936Y-92068207D02*
X159018507Y-92039636D01*
X159018507Y-92039636D02*
X159039936Y-91982493D01*
X159039936Y-91982493D02*
X159032793Y-91925350D01*
X159032793Y-91925350D02*
X158997079Y-91868207D01*
X158997079Y-91868207D02*
X158936365Y-91839636D01*
X158936365Y-91839636D02*
X158793507Y-91839636D01*
X158793507Y-91839636D02*
X158732793Y-91811064D01*
X158172079Y-91668207D02*
X158222079Y-92068207D01*
X158429222Y-91668207D02*
X158468508Y-91982493D01*
X158468508Y-91982493D02*
X158447079Y-92039636D01*
X158447079Y-92039636D02*
X158393508Y-92068207D01*
X158393508Y-92068207D02*
X158307793Y-92068207D01*
X158307793Y-92068207D02*
X158247079Y-92039636D01*
X158247079Y-92039636D02*
X158214936Y-92011064D01*
X157679222Y-92068207D02*
X157604222Y-91468207D01*
X157675651Y-92039636D02*
X157736365Y-92068207D01*
X157736365Y-92068207D02*
X157850651Y-92068207D01*
X157850651Y-92068207D02*
X157904222Y-92039636D01*
X157904222Y-92039636D02*
X157929222Y-92011064D01*
X157929222Y-92011064D02*
X157950651Y-91953921D01*
X157950651Y-91953921D02*
X157929222Y-91782493D01*
X157929222Y-91782493D02*
X157893508Y-91725350D01*
X157893508Y-91725350D02*
X157861365Y-91696778D01*
X157861365Y-91696778D02*
X157800651Y-91668207D01*
X157800651Y-91668207D02*
X157686365Y-91668207D01*
X157686365Y-91668207D02*
X157632793Y-91696778D01*
X157361365Y-92039636D02*
X157364936Y-92068207D01*
X157364936Y-92068207D02*
X157400651Y-92125350D01*
X157400651Y-92125350D02*
X157432794Y-92153921D01*
X156564937Y-92068207D02*
X156618508Y-92039636D01*
X156618508Y-92039636D02*
X156643508Y-92011064D01*
X156643508Y-92011064D02*
X156664937Y-91953921D01*
X156664937Y-91953921D02*
X156643508Y-91782493D01*
X156643508Y-91782493D02*
X156607794Y-91725350D01*
X156607794Y-91725350D02*
X156575651Y-91696778D01*
X156575651Y-91696778D02*
X156514937Y-91668207D01*
X156514937Y-91668207D02*
X156429222Y-91668207D01*
X156429222Y-91668207D02*
X156375651Y-91696778D01*
X156375651Y-91696778D02*
X156350651Y-91725350D01*
X156350651Y-91725350D02*
X156329222Y-91782493D01*
X156329222Y-91782493D02*
X156350651Y-91953921D01*
X156350651Y-91953921D02*
X156386365Y-92011064D01*
X156386365Y-92011064D02*
X156418508Y-92039636D01*
X156418508Y-92039636D02*
X156479222Y-92068207D01*
X156479222Y-92068207D02*
X156564937Y-92068207D01*
X156107794Y-92068207D02*
X156057794Y-91668207D01*
X156072080Y-91782493D02*
X156036365Y-91725350D01*
X156036365Y-91725350D02*
X156004222Y-91696778D01*
X156004222Y-91696778D02*
X155943508Y-91668207D01*
X155943508Y-91668207D02*
X155886365Y-91668207D01*
X155279222Y-92068207D02*
X155204222Y-91468207D01*
X155232793Y-91696778D02*
X155172079Y-91668207D01*
X155172079Y-91668207D02*
X155057793Y-91668207D01*
X155057793Y-91668207D02*
X155004222Y-91696778D01*
X155004222Y-91696778D02*
X154979222Y-91725350D01*
X154979222Y-91725350D02*
X154957793Y-91782493D01*
X154957793Y-91782493D02*
X154979222Y-91953921D01*
X154979222Y-91953921D02*
X155014936Y-92011064D01*
X155014936Y-92011064D02*
X155047079Y-92039636D01*
X155047079Y-92039636D02*
X155107793Y-92068207D01*
X155107793Y-92068207D02*
X155222079Y-92068207D01*
X155222079Y-92068207D02*
X155275650Y-92039636D01*
X154650651Y-92068207D02*
X154704222Y-92039636D01*
X154704222Y-92039636D02*
X154729222Y-92011064D01*
X154729222Y-92011064D02*
X154750651Y-91953921D01*
X154750651Y-91953921D02*
X154729222Y-91782493D01*
X154729222Y-91782493D02*
X154693508Y-91725350D01*
X154693508Y-91725350D02*
X154661365Y-91696778D01*
X154661365Y-91696778D02*
X154600651Y-91668207D01*
X154600651Y-91668207D02*
X154514936Y-91668207D01*
X154514936Y-91668207D02*
X154461365Y-91696778D01*
X154461365Y-91696778D02*
X154436365Y-91725350D01*
X154436365Y-91725350D02*
X154414936Y-91782493D01*
X154414936Y-91782493D02*
X154436365Y-91953921D01*
X154436365Y-91953921D02*
X154472079Y-92011064D01*
X154472079Y-92011064D02*
X154504222Y-92039636D01*
X154504222Y-92039636D02*
X154564936Y-92068207D01*
X154564936Y-92068207D02*
X154650651Y-92068207D01*
X154107794Y-92068207D02*
X154161365Y-92039636D01*
X154161365Y-92039636D02*
X154186365Y-92011064D01*
X154186365Y-92011064D02*
X154207794Y-91953921D01*
X154207794Y-91953921D02*
X154186365Y-91782493D01*
X154186365Y-91782493D02*
X154150651Y-91725350D01*
X154150651Y-91725350D02*
X154118508Y-91696778D01*
X154118508Y-91696778D02*
X154057794Y-91668207D01*
X154057794Y-91668207D02*
X153972079Y-91668207D01*
X153972079Y-91668207D02*
X153918508Y-91696778D01*
X153918508Y-91696778D02*
X153893508Y-91725350D01*
X153893508Y-91725350D02*
X153872079Y-91782493D01*
X153872079Y-91782493D02*
X153893508Y-91953921D01*
X153893508Y-91953921D02*
X153929222Y-92011064D01*
X153929222Y-92011064D02*
X153961365Y-92039636D01*
X153961365Y-92039636D02*
X154022079Y-92068207D01*
X154022079Y-92068207D02*
X154107794Y-92068207D01*
X153643508Y-92011064D02*
X153618508Y-92039636D01*
X153618508Y-92039636D02*
X153650651Y-92068207D01*
X153650651Y-92068207D02*
X153675651Y-92039636D01*
X153675651Y-92039636D02*
X153643508Y-92011064D01*
X153643508Y-92011064D02*
X153650651Y-92068207D01*
X168572079Y-92862744D02*
X168286364Y-92862744D01*
X168650650Y-93034173D02*
X168375650Y-92434173D01*
X168375650Y-92434173D02*
X168250650Y-93034173D01*
X168000650Y-92634173D02*
X168050650Y-93034173D01*
X168007793Y-92691316D02*
X167975650Y-92662744D01*
X167975650Y-92662744D02*
X167914936Y-92634173D01*
X167914936Y-92634173D02*
X167829221Y-92634173D01*
X167829221Y-92634173D02*
X167775650Y-92662744D01*
X167775650Y-92662744D02*
X167754221Y-92719887D01*
X167754221Y-92719887D02*
X167793507Y-93034173D01*
X167250650Y-93034173D02*
X167175650Y-92434173D01*
X167247079Y-93005602D02*
X167307793Y-93034173D01*
X167307793Y-93034173D02*
X167422079Y-93034173D01*
X167422079Y-93034173D02*
X167475650Y-93005602D01*
X167475650Y-93005602D02*
X167500650Y-92977030D01*
X167500650Y-92977030D02*
X167522079Y-92919887D01*
X167522079Y-92919887D02*
X167500650Y-92748459D01*
X167500650Y-92748459D02*
X167464936Y-92691316D01*
X167464936Y-92691316D02*
X167432793Y-92662744D01*
X167432793Y-92662744D02*
X167372079Y-92634173D01*
X167372079Y-92634173D02*
X167257793Y-92634173D01*
X167257793Y-92634173D02*
X167204221Y-92662744D01*
X166507793Y-93034173D02*
X166457793Y-92634173D01*
X166432793Y-92434173D02*
X166464936Y-92462744D01*
X166464936Y-92462744D02*
X166439936Y-92491316D01*
X166439936Y-92491316D02*
X166407793Y-92462744D01*
X166407793Y-92462744D02*
X166432793Y-92434173D01*
X166432793Y-92434173D02*
X166439936Y-92491316D01*
X166257793Y-92634173D02*
X166029222Y-92634173D01*
X166147079Y-92434173D02*
X166211365Y-92948459D01*
X166211365Y-92948459D02*
X166189936Y-93005602D01*
X166189936Y-93005602D02*
X166136365Y-93034173D01*
X166136365Y-93034173D02*
X166079222Y-93034173D01*
X165775650Y-92434173D02*
X165847079Y-92548459D01*
X165618508Y-93005602D02*
X165564936Y-93034173D01*
X165564936Y-93034173D02*
X165450651Y-93034173D01*
X165450651Y-93034173D02*
X165389936Y-93005602D01*
X165389936Y-93005602D02*
X165354222Y-92948459D01*
X165354222Y-92948459D02*
X165350651Y-92919887D01*
X165350651Y-92919887D02*
X165372079Y-92862744D01*
X165372079Y-92862744D02*
X165425651Y-92834173D01*
X165425651Y-92834173D02*
X165511365Y-92834173D01*
X165511365Y-92834173D02*
X165564936Y-92805602D01*
X165564936Y-92805602D02*
X165586365Y-92748459D01*
X165586365Y-92748459D02*
X165582794Y-92719887D01*
X165582794Y-92719887D02*
X165547079Y-92662744D01*
X165547079Y-92662744D02*
X165486365Y-92634173D01*
X165486365Y-92634173D02*
X165400651Y-92634173D01*
X165400651Y-92634173D02*
X165347079Y-92662744D01*
X164675651Y-93005602D02*
X164622079Y-93034173D01*
X164622079Y-93034173D02*
X164507794Y-93034173D01*
X164507794Y-93034173D02*
X164447079Y-93005602D01*
X164447079Y-93005602D02*
X164411365Y-92948459D01*
X164411365Y-92948459D02*
X164407794Y-92919887D01*
X164407794Y-92919887D02*
X164429222Y-92862744D01*
X164429222Y-92862744D02*
X164482794Y-92834173D01*
X164482794Y-92834173D02*
X164568508Y-92834173D01*
X164568508Y-92834173D02*
X164622079Y-92805602D01*
X164622079Y-92805602D02*
X164643508Y-92748459D01*
X164643508Y-92748459D02*
X164639937Y-92719887D01*
X164639937Y-92719887D02*
X164604222Y-92662744D01*
X164604222Y-92662744D02*
X164543508Y-92634173D01*
X164543508Y-92634173D02*
X164457794Y-92634173D01*
X164457794Y-92634173D02*
X164404222Y-92662744D01*
X164079223Y-93034173D02*
X164132794Y-93005602D01*
X164132794Y-93005602D02*
X164157794Y-92977030D01*
X164157794Y-92977030D02*
X164179223Y-92919887D01*
X164179223Y-92919887D02*
X164157794Y-92748459D01*
X164157794Y-92748459D02*
X164122080Y-92691316D01*
X164122080Y-92691316D02*
X164089937Y-92662744D01*
X164089937Y-92662744D02*
X164029223Y-92634173D01*
X164029223Y-92634173D02*
X163943508Y-92634173D01*
X163943508Y-92634173D02*
X163889937Y-92662744D01*
X163889937Y-92662744D02*
X163864937Y-92691316D01*
X163864937Y-92691316D02*
X163843508Y-92748459D01*
X163843508Y-92748459D02*
X163864937Y-92919887D01*
X163864937Y-92919887D02*
X163900651Y-92977030D01*
X163900651Y-92977030D02*
X163932794Y-93005602D01*
X163932794Y-93005602D02*
X163993508Y-93034173D01*
X163993508Y-93034173D02*
X164079223Y-93034173D01*
X163622080Y-93034173D02*
X163572080Y-92634173D01*
X163579223Y-92691316D02*
X163547080Y-92662744D01*
X163547080Y-92662744D02*
X163486366Y-92634173D01*
X163486366Y-92634173D02*
X163400651Y-92634173D01*
X163400651Y-92634173D02*
X163347080Y-92662744D01*
X163347080Y-92662744D02*
X163325651Y-92719887D01*
X163325651Y-92719887D02*
X163364937Y-93034173D01*
X163325651Y-92719887D02*
X163289937Y-92662744D01*
X163289937Y-92662744D02*
X163229223Y-92634173D01*
X163229223Y-92634173D02*
X163143508Y-92634173D01*
X163143508Y-92634173D02*
X163089937Y-92662744D01*
X163089937Y-92662744D02*
X163068508Y-92719887D01*
X163068508Y-92719887D02*
X163107794Y-93034173D01*
X162589937Y-93005602D02*
X162650651Y-93034173D01*
X162650651Y-93034173D02*
X162764937Y-93034173D01*
X162764937Y-93034173D02*
X162818508Y-93005602D01*
X162818508Y-93005602D02*
X162839937Y-92948459D01*
X162839937Y-92948459D02*
X162811366Y-92719887D01*
X162811366Y-92719887D02*
X162775651Y-92662744D01*
X162775651Y-92662744D02*
X162714937Y-92634173D01*
X162714937Y-92634173D02*
X162600651Y-92634173D01*
X162600651Y-92634173D02*
X162547080Y-92662744D01*
X162547080Y-92662744D02*
X162525651Y-92719887D01*
X162525651Y-92719887D02*
X162532794Y-92777030D01*
X162532794Y-92777030D02*
X162825651Y-92834173D01*
X162343508Y-92634173D02*
X162114937Y-92634173D01*
X162232794Y-92434173D02*
X162297080Y-92948459D01*
X162297080Y-92948459D02*
X162275651Y-93005602D01*
X162275651Y-93005602D02*
X162222080Y-93034173D01*
X162222080Y-93034173D02*
X162164937Y-93034173D01*
X161964937Y-93034173D02*
X161889937Y-92434173D01*
X161707794Y-93034173D02*
X161668508Y-92719887D01*
X161668508Y-92719887D02*
X161689937Y-92662744D01*
X161689937Y-92662744D02*
X161743508Y-92634173D01*
X161743508Y-92634173D02*
X161829223Y-92634173D01*
X161829223Y-92634173D02*
X161889937Y-92662744D01*
X161889937Y-92662744D02*
X161922080Y-92691316D01*
X161422080Y-93034173D02*
X161372080Y-92634173D01*
X161347080Y-92434173D02*
X161379223Y-92462744D01*
X161379223Y-92462744D02*
X161354223Y-92491316D01*
X161354223Y-92491316D02*
X161322080Y-92462744D01*
X161322080Y-92462744D02*
X161347080Y-92434173D01*
X161347080Y-92434173D02*
X161354223Y-92491316D01*
X161086366Y-92634173D02*
X161136366Y-93034173D01*
X161093509Y-92691316D02*
X161061366Y-92662744D01*
X161061366Y-92662744D02*
X161000652Y-92634173D01*
X161000652Y-92634173D02*
X160914937Y-92634173D01*
X160914937Y-92634173D02*
X160861366Y-92662744D01*
X160861366Y-92662744D02*
X160839937Y-92719887D01*
X160839937Y-92719887D02*
X160879223Y-93034173D01*
X160286366Y-92634173D02*
X160347080Y-93119887D01*
X160347080Y-93119887D02*
X160382795Y-93177030D01*
X160382795Y-93177030D02*
X160414937Y-93205602D01*
X160414937Y-93205602D02*
X160475652Y-93234173D01*
X160475652Y-93234173D02*
X160561366Y-93234173D01*
X160561366Y-93234173D02*
X160614937Y-93205602D01*
X160332795Y-93005602D02*
X160393509Y-93034173D01*
X160393509Y-93034173D02*
X160507795Y-93034173D01*
X160507795Y-93034173D02*
X160561366Y-93005602D01*
X160561366Y-93005602D02*
X160586366Y-92977030D01*
X160586366Y-92977030D02*
X160607795Y-92919887D01*
X160607795Y-92919887D02*
X160586366Y-92748459D01*
X160586366Y-92748459D02*
X160550652Y-92691316D01*
X160550652Y-92691316D02*
X160518509Y-92662744D01*
X160518509Y-92662744D02*
X160457795Y-92634173D01*
X160457795Y-92634173D02*
X160343509Y-92634173D01*
X160343509Y-92634173D02*
X160289937Y-92662744D01*
X159600652Y-92634173D02*
X159536366Y-93034173D01*
X159536366Y-93034173D02*
X159386366Y-92748459D01*
X159386366Y-92748459D02*
X159307795Y-93034173D01*
X159307795Y-93034173D02*
X159143509Y-92634173D01*
X158732795Y-93005602D02*
X158793509Y-93034173D01*
X158793509Y-93034173D02*
X158907795Y-93034173D01*
X158907795Y-93034173D02*
X158961366Y-93005602D01*
X158961366Y-93005602D02*
X158982795Y-92948459D01*
X158982795Y-92948459D02*
X158954224Y-92719887D01*
X158954224Y-92719887D02*
X158918509Y-92662744D01*
X158918509Y-92662744D02*
X158857795Y-92634173D01*
X158857795Y-92634173D02*
X158743509Y-92634173D01*
X158743509Y-92634173D02*
X158689938Y-92662744D01*
X158689938Y-92662744D02*
X158668509Y-92719887D01*
X158668509Y-92719887D02*
X158675652Y-92777030D01*
X158675652Y-92777030D02*
X158968509Y-92834173D01*
X157736366Y-93034173D02*
X157697080Y-92719887D01*
X157697080Y-92719887D02*
X157718509Y-92662744D01*
X157718509Y-92662744D02*
X157772080Y-92634173D01*
X157772080Y-92634173D02*
X157886366Y-92634173D01*
X157886366Y-92634173D02*
X157947080Y-92662744D01*
X157732795Y-93005602D02*
X157793509Y-93034173D01*
X157793509Y-93034173D02*
X157936366Y-93034173D01*
X157936366Y-93034173D02*
X157989937Y-93005602D01*
X157989937Y-93005602D02*
X158011366Y-92948459D01*
X158011366Y-92948459D02*
X158004223Y-92891316D01*
X158004223Y-92891316D02*
X157968509Y-92834173D01*
X157968509Y-92834173D02*
X157907795Y-92805602D01*
X157907795Y-92805602D02*
X157764937Y-92805602D01*
X157764937Y-92805602D02*
X157704223Y-92777030D01*
X157364938Y-93034173D02*
X157418509Y-93005602D01*
X157418509Y-93005602D02*
X157439938Y-92948459D01*
X157439938Y-92948459D02*
X157375652Y-92434173D01*
X157050652Y-93034173D02*
X157104223Y-93005602D01*
X157104223Y-93005602D02*
X157125652Y-92948459D01*
X157125652Y-92948459D02*
X157061366Y-92434173D01*
X156314937Y-92634173D02*
X156364937Y-93034173D01*
X156322080Y-92691316D02*
X156289937Y-92662744D01*
X156289937Y-92662744D02*
X156229223Y-92634173D01*
X156229223Y-92634173D02*
X156143508Y-92634173D01*
X156143508Y-92634173D02*
X156089937Y-92662744D01*
X156089937Y-92662744D02*
X156068508Y-92719887D01*
X156068508Y-92719887D02*
X156107794Y-93034173D01*
X155589937Y-93005602D02*
X155650651Y-93034173D01*
X155650651Y-93034173D02*
X155764937Y-93034173D01*
X155764937Y-93034173D02*
X155818508Y-93005602D01*
X155818508Y-93005602D02*
X155839937Y-92948459D01*
X155839937Y-92948459D02*
X155811366Y-92719887D01*
X155811366Y-92719887D02*
X155775651Y-92662744D01*
X155775651Y-92662744D02*
X155714937Y-92634173D01*
X155714937Y-92634173D02*
X155600651Y-92634173D01*
X155600651Y-92634173D02*
X155547080Y-92662744D01*
X155547080Y-92662744D02*
X155525651Y-92719887D01*
X155525651Y-92719887D02*
X155532794Y-92777030D01*
X155532794Y-92777030D02*
X155825651Y-92834173D01*
X155075651Y-93005602D02*
X155136365Y-93034173D01*
X155136365Y-93034173D02*
X155250651Y-93034173D01*
X155250651Y-93034173D02*
X155304222Y-93005602D01*
X155304222Y-93005602D02*
X155325651Y-92948459D01*
X155325651Y-92948459D02*
X155297080Y-92719887D01*
X155297080Y-92719887D02*
X155261365Y-92662744D01*
X155261365Y-92662744D02*
X155200651Y-92634173D01*
X155200651Y-92634173D02*
X155086365Y-92634173D01*
X155086365Y-92634173D02*
X155032794Y-92662744D01*
X155032794Y-92662744D02*
X155011365Y-92719887D01*
X155011365Y-92719887D02*
X155018508Y-92777030D01*
X155018508Y-92777030D02*
X155311365Y-92834173D01*
X154536365Y-93034173D02*
X154461365Y-92434173D01*
X154532794Y-93005602D02*
X154593508Y-93034173D01*
X154593508Y-93034173D02*
X154707794Y-93034173D01*
X154707794Y-93034173D02*
X154761365Y-93005602D01*
X154761365Y-93005602D02*
X154786365Y-92977030D01*
X154786365Y-92977030D02*
X154807794Y-92919887D01*
X154807794Y-92919887D02*
X154786365Y-92748459D01*
X154786365Y-92748459D02*
X154750651Y-92691316D01*
X154750651Y-92691316D02*
X154718508Y-92662744D01*
X154718508Y-92662744D02*
X154657794Y-92634173D01*
X154657794Y-92634173D02*
X154543508Y-92634173D01*
X154543508Y-92634173D02*
X154489936Y-92662744D01*
X153829222Y-92634173D02*
X153600651Y-92634173D01*
X153718508Y-92434173D02*
X153782794Y-92948459D01*
X153782794Y-92948459D02*
X153761365Y-93005602D01*
X153761365Y-93005602D02*
X153707794Y-93034173D01*
X153707794Y-93034173D02*
X153650651Y-93034173D01*
X153364937Y-93034173D02*
X153418508Y-93005602D01*
X153418508Y-93005602D02*
X153443508Y-92977030D01*
X153443508Y-92977030D02*
X153464937Y-92919887D01*
X153464937Y-92919887D02*
X153443508Y-92748459D01*
X153443508Y-92748459D02*
X153407794Y-92691316D01*
X153407794Y-92691316D02*
X153375651Y-92662744D01*
X153375651Y-92662744D02*
X153314937Y-92634173D01*
X153314937Y-92634173D02*
X153229222Y-92634173D01*
X153229222Y-92634173D02*
X153175651Y-92662744D01*
X153175651Y-92662744D02*
X153150651Y-92691316D01*
X153150651Y-92691316D02*
X153129222Y-92748459D01*
X153129222Y-92748459D02*
X153150651Y-92919887D01*
X153150651Y-92919887D02*
X153186365Y-92977030D01*
X153186365Y-92977030D02*
X153218508Y-93005602D01*
X153218508Y-93005602D02*
X153279222Y-93034173D01*
X153279222Y-93034173D02*
X153364937Y-93034173D01*
X168304222Y-93971568D02*
X168364936Y-94000139D01*
X168364936Y-94000139D02*
X168479222Y-94000139D01*
X168479222Y-94000139D02*
X168532793Y-93971568D01*
X168532793Y-93971568D02*
X168557793Y-93942996D01*
X168557793Y-93942996D02*
X168579222Y-93885853D01*
X168579222Y-93885853D02*
X168557793Y-93714425D01*
X168557793Y-93714425D02*
X168522079Y-93657282D01*
X168522079Y-93657282D02*
X168489936Y-93628710D01*
X168489936Y-93628710D02*
X168429222Y-93600139D01*
X168429222Y-93600139D02*
X168314936Y-93600139D01*
X168314936Y-93600139D02*
X168261364Y-93628710D01*
X167743507Y-93600139D02*
X167793507Y-94000139D01*
X168000650Y-93600139D02*
X168039936Y-93914425D01*
X168039936Y-93914425D02*
X168018507Y-93971568D01*
X168018507Y-93971568D02*
X167964936Y-94000139D01*
X167964936Y-94000139D02*
X167879221Y-94000139D01*
X167879221Y-94000139D02*
X167818507Y-93971568D01*
X167818507Y-93971568D02*
X167786364Y-93942996D01*
X167422079Y-94000139D02*
X167475650Y-93971568D01*
X167475650Y-93971568D02*
X167497079Y-93914425D01*
X167497079Y-93914425D02*
X167432793Y-93400139D01*
X167229221Y-93600139D02*
X167000650Y-93600139D01*
X167118507Y-93400139D02*
X167182793Y-93914425D01*
X167182793Y-93914425D02*
X167161364Y-93971568D01*
X167161364Y-93971568D02*
X167107793Y-94000139D01*
X167107793Y-94000139D02*
X167050650Y-94000139D01*
X166850650Y-94000139D02*
X166800650Y-93600139D01*
X166775650Y-93400139D02*
X166807793Y-93428710D01*
X166807793Y-93428710D02*
X166782793Y-93457282D01*
X166782793Y-93457282D02*
X166750650Y-93428710D01*
X166750650Y-93428710D02*
X166775650Y-93400139D01*
X166775650Y-93400139D02*
X166782793Y-93457282D01*
X166572079Y-93600139D02*
X166479222Y-94000139D01*
X166479222Y-94000139D02*
X166286364Y-93600139D01*
X165850650Y-94000139D02*
X165811364Y-93685853D01*
X165811364Y-93685853D02*
X165832793Y-93628710D01*
X165832793Y-93628710D02*
X165886364Y-93600139D01*
X165886364Y-93600139D02*
X166000650Y-93600139D01*
X166000650Y-93600139D02*
X166061364Y-93628710D01*
X165847079Y-93971568D02*
X165907793Y-94000139D01*
X165907793Y-94000139D02*
X166050650Y-94000139D01*
X166050650Y-94000139D02*
X166104221Y-93971568D01*
X166104221Y-93971568D02*
X166125650Y-93914425D01*
X166125650Y-93914425D02*
X166118507Y-93857282D01*
X166118507Y-93857282D02*
X166082793Y-93800139D01*
X166082793Y-93800139D02*
X166022079Y-93771568D01*
X166022079Y-93771568D02*
X165879221Y-93771568D01*
X165879221Y-93771568D02*
X165818507Y-93742996D01*
X165600650Y-93600139D02*
X165372079Y-93600139D01*
X165489936Y-93400139D02*
X165554222Y-93914425D01*
X165554222Y-93914425D02*
X165532793Y-93971568D01*
X165532793Y-93971568D02*
X165479222Y-94000139D01*
X165479222Y-94000139D02*
X165422079Y-94000139D01*
X164989936Y-93971568D02*
X165050650Y-94000139D01*
X165050650Y-94000139D02*
X165164936Y-94000139D01*
X165164936Y-94000139D02*
X165218507Y-93971568D01*
X165218507Y-93971568D02*
X165239936Y-93914425D01*
X165239936Y-93914425D02*
X165211365Y-93685853D01*
X165211365Y-93685853D02*
X165175650Y-93628710D01*
X165175650Y-93628710D02*
X165114936Y-93600139D01*
X165114936Y-93600139D02*
X165000650Y-93600139D01*
X165000650Y-93600139D02*
X164947079Y-93628710D01*
X164947079Y-93628710D02*
X164925650Y-93685853D01*
X164925650Y-93685853D02*
X164932793Y-93742996D01*
X164932793Y-93742996D02*
X165225650Y-93800139D01*
X164700650Y-93942996D02*
X164675650Y-93971568D01*
X164675650Y-93971568D02*
X164707793Y-94000139D01*
X164707793Y-94000139D02*
X164732793Y-93971568D01*
X164732793Y-93971568D02*
X164700650Y-93942996D01*
X164700650Y-93942996D02*
X164707793Y-94000139D01*
X161336364Y-95703500D02*
X160879222Y-95703500D01*
X160593507Y-95703500D02*
X160136365Y-95703500D01*
X159182793Y-95617785D02*
X159382793Y-95617785D01*
X159422079Y-95932071D02*
X159347079Y-95332071D01*
X159347079Y-95332071D02*
X159061365Y-95332071D01*
X158822079Y-95932071D02*
X158875650Y-95903500D01*
X158875650Y-95903500D02*
X158900650Y-95874928D01*
X158900650Y-95874928D02*
X158922079Y-95817785D01*
X158922079Y-95817785D02*
X158900650Y-95646357D01*
X158900650Y-95646357D02*
X158864936Y-95589214D01*
X158864936Y-95589214D02*
X158832793Y-95560642D01*
X158832793Y-95560642D02*
X158772079Y-95532071D01*
X158772079Y-95532071D02*
X158686364Y-95532071D01*
X158686364Y-95532071D02*
X158632793Y-95560642D01*
X158632793Y-95560642D02*
X158607793Y-95589214D01*
X158607793Y-95589214D02*
X158586364Y-95646357D01*
X158586364Y-95646357D02*
X158607793Y-95817785D01*
X158607793Y-95817785D02*
X158643507Y-95874928D01*
X158643507Y-95874928D02*
X158675650Y-95903500D01*
X158675650Y-95903500D02*
X158736364Y-95932071D01*
X158736364Y-95932071D02*
X158822079Y-95932071D01*
X158364936Y-95932071D02*
X158314936Y-95532071D01*
X158329222Y-95646357D02*
X158293507Y-95589214D01*
X158293507Y-95589214D02*
X158261364Y-95560642D01*
X158261364Y-95560642D02*
X158200650Y-95532071D01*
X158200650Y-95532071D02*
X158143507Y-95532071D01*
X157993507Y-95932071D02*
X157918507Y-95332071D01*
X157947078Y-95560642D02*
X157886364Y-95532071D01*
X157886364Y-95532071D02*
X157772078Y-95532071D01*
X157772078Y-95532071D02*
X157718507Y-95560642D01*
X157718507Y-95560642D02*
X157693507Y-95589214D01*
X157693507Y-95589214D02*
X157672078Y-95646357D01*
X157672078Y-95646357D02*
X157693507Y-95817785D01*
X157693507Y-95817785D02*
X157729221Y-95874928D01*
X157729221Y-95874928D02*
X157761364Y-95903500D01*
X157761364Y-95903500D02*
X157822078Y-95932071D01*
X157822078Y-95932071D02*
X157936364Y-95932071D01*
X157936364Y-95932071D02*
X157989935Y-95903500D01*
X157218507Y-95903500D02*
X157279221Y-95932071D01*
X157279221Y-95932071D02*
X157393507Y-95932071D01*
X157393507Y-95932071D02*
X157447078Y-95903500D01*
X157447078Y-95903500D02*
X157468507Y-95846357D01*
X157468507Y-95846357D02*
X157439936Y-95617785D01*
X157439936Y-95617785D02*
X157404221Y-95560642D01*
X157404221Y-95560642D02*
X157343507Y-95532071D01*
X157343507Y-95532071D02*
X157229221Y-95532071D01*
X157229221Y-95532071D02*
X157175650Y-95560642D01*
X157175650Y-95560642D02*
X157154221Y-95617785D01*
X157154221Y-95617785D02*
X157161364Y-95674928D01*
X157161364Y-95674928D02*
X157454221Y-95732071D01*
X156961364Y-95903500D02*
X156907792Y-95932071D01*
X156907792Y-95932071D02*
X156793507Y-95932071D01*
X156793507Y-95932071D02*
X156732792Y-95903500D01*
X156732792Y-95903500D02*
X156697078Y-95846357D01*
X156697078Y-95846357D02*
X156693507Y-95817785D01*
X156693507Y-95817785D02*
X156714935Y-95760642D01*
X156714935Y-95760642D02*
X156768507Y-95732071D01*
X156768507Y-95732071D02*
X156854221Y-95732071D01*
X156854221Y-95732071D02*
X156907792Y-95703500D01*
X156907792Y-95703500D02*
X156929221Y-95646357D01*
X156929221Y-95646357D02*
X156925650Y-95617785D01*
X156925650Y-95617785D02*
X156889935Y-95560642D01*
X156889935Y-95560642D02*
X156829221Y-95532071D01*
X156829221Y-95532071D02*
X156743507Y-95532071D01*
X156743507Y-95532071D02*
X156689935Y-95560642D01*
X155850650Y-96160642D02*
X155875650Y-96132071D01*
X155875650Y-96132071D02*
X155922078Y-96046357D01*
X155922078Y-96046357D02*
X155943507Y-95989214D01*
X155943507Y-95989214D02*
X155961364Y-95903500D01*
X155961364Y-95903500D02*
X155972078Y-95760642D01*
X155972078Y-95760642D02*
X155957793Y-95646357D01*
X155957793Y-95646357D02*
X155911364Y-95503500D01*
X155911364Y-95503500D02*
X155872078Y-95417785D01*
X155872078Y-95417785D02*
X155836364Y-95360642D01*
X155836364Y-95360642D02*
X155768507Y-95274928D01*
X155768507Y-95274928D02*
X155736364Y-95246357D01*
X155554221Y-95389214D02*
X155522078Y-95360642D01*
X155522078Y-95360642D02*
X155461364Y-95332071D01*
X155461364Y-95332071D02*
X155318507Y-95332071D01*
X155318507Y-95332071D02*
X155264935Y-95360642D01*
X155264935Y-95360642D02*
X155239935Y-95389214D01*
X155239935Y-95389214D02*
X155218507Y-95446357D01*
X155218507Y-95446357D02*
X155225650Y-95503500D01*
X155225650Y-95503500D02*
X155264935Y-95589214D01*
X155264935Y-95589214D02*
X155650650Y-95932071D01*
X155650650Y-95932071D02*
X155279221Y-95932071D01*
X154832792Y-95332071D02*
X154775649Y-95332071D01*
X154775649Y-95332071D02*
X154722078Y-95360642D01*
X154722078Y-95360642D02*
X154697078Y-95389214D01*
X154697078Y-95389214D02*
X154675649Y-95446357D01*
X154675649Y-95446357D02*
X154661364Y-95560642D01*
X154661364Y-95560642D02*
X154679221Y-95703500D01*
X154679221Y-95703500D02*
X154722078Y-95817785D01*
X154722078Y-95817785D02*
X154757792Y-95874928D01*
X154757792Y-95874928D02*
X154789935Y-95903500D01*
X154789935Y-95903500D02*
X154850649Y-95932071D01*
X154850649Y-95932071D02*
X154907792Y-95932071D01*
X154907792Y-95932071D02*
X154961364Y-95903500D01*
X154961364Y-95903500D02*
X154986364Y-95874928D01*
X154986364Y-95874928D02*
X155007792Y-95817785D01*
X155007792Y-95817785D02*
X155022078Y-95703500D01*
X155022078Y-95703500D02*
X155004221Y-95560642D01*
X155004221Y-95560642D02*
X154961364Y-95446357D01*
X154961364Y-95446357D02*
X154925649Y-95389214D01*
X154925649Y-95389214D02*
X154893506Y-95360642D01*
X154893506Y-95360642D02*
X154832792Y-95332071D01*
X154136363Y-95932071D02*
X154479220Y-95932071D01*
X154307792Y-95932071D02*
X154232792Y-95332071D01*
X154232792Y-95332071D02*
X154300649Y-95417785D01*
X154300649Y-95417785D02*
X154364935Y-95474928D01*
X154364935Y-95474928D02*
X154425649Y-95503500D01*
X153564934Y-95932071D02*
X153907791Y-95932071D01*
X153736363Y-95932071D02*
X153661363Y-95332071D01*
X153661363Y-95332071D02*
X153729220Y-95417785D01*
X153729220Y-95417785D02*
X153793506Y-95474928D01*
X153793506Y-95474928D02*
X153854220Y-95503500D01*
X153393505Y-96160642D02*
X153361362Y-96132071D01*
X153361362Y-96132071D02*
X153293505Y-96046357D01*
X153293505Y-96046357D02*
X153257791Y-95989214D01*
X153257791Y-95989214D02*
X153218505Y-95903500D01*
X153218505Y-95903500D02*
X153172077Y-95760642D01*
X153172077Y-95760642D02*
X153157791Y-95646357D01*
X153157791Y-95646357D02*
X153168505Y-95503500D01*
X153168505Y-95503500D02*
X153186362Y-95417785D01*
X153186362Y-95417785D02*
X153207791Y-95360642D01*
X153207791Y-95360642D02*
X153254219Y-95274928D01*
X153254219Y-95274928D02*
X153279219Y-95246357D01*
D11*
G36*
X121233611Y-158779401D02*
G01*
X121264018Y-158809808D01*
X121298276Y-158878324D01*
X121298276Y-159128628D01*
X121264017Y-159197144D01*
X121233610Y-159227552D01*
X121165095Y-159261810D01*
X121057648Y-159261810D01*
X120989132Y-159227552D01*
X120958725Y-159197144D01*
X120924467Y-159128628D01*
X120924467Y-158878324D01*
X120958725Y-158809808D01*
X120989132Y-158779401D01*
X121057648Y-158745143D01*
X121165095Y-158745143D01*
X121233611Y-158779401D01*
G37*
G36*
X122686800Y-159028194D02*
G01*
X122689489Y-159028385D01*
X122691978Y-159029416D01*
X122706610Y-159030857D01*
X122927000Y-159030857D01*
X122984041Y-159059377D01*
X123012562Y-159116419D01*
X123012562Y-159176247D01*
X122984041Y-159233289D01*
X122927000Y-159261810D01*
X122724315Y-159261810D01*
X122686372Y-159242838D01*
X122686372Y-159028030D01*
X122686800Y-159028194D01*
G37*
G36*
X123841184Y-158773663D02*
G01*
X123869705Y-158830705D01*
X123869705Y-158911990D01*
X123543515Y-158846752D01*
X123543515Y-158830705D01*
X123572035Y-158773663D01*
X123629077Y-158745143D01*
X123784143Y-158745143D01*
X123841184Y-158773663D01*
G37*
G36*
X125345896Y-158764114D02*
G01*
X125345896Y-159242838D01*
X125307953Y-159261810D01*
X125152887Y-159261810D01*
X125084371Y-159227552D01*
X125053964Y-159197144D01*
X125019706Y-159128628D01*
X125019706Y-158878324D01*
X125053964Y-158809808D01*
X125084371Y-158779401D01*
X125152887Y-158745143D01*
X125307953Y-158745143D01*
X125345896Y-158764114D01*
G37*
G36*
X127043136Y-158827020D02*
G01*
X127073543Y-158857427D01*
X127107801Y-158925943D01*
X127107801Y-159128628D01*
X127073542Y-159197144D01*
X127043135Y-159227552D01*
X126974620Y-159261810D01*
X126819554Y-159261810D01*
X126751038Y-159227552D01*
X126720631Y-159197144D01*
X126686373Y-159128628D01*
X126686373Y-158925943D01*
X126720631Y-158857427D01*
X126751038Y-158827020D01*
X126819554Y-158792762D01*
X126974620Y-158792762D01*
X127043136Y-158827020D01*
G37*
G36*
X130416531Y-159522921D02*
G01*
X119093368Y-159522921D01*
X119093368Y-158655511D01*
X119204479Y-158655511D01*
X119204479Y-158684775D01*
X119215678Y-158711811D01*
X119236370Y-158732503D01*
X119263406Y-158743702D01*
X119278038Y-158745143D01*
X119441133Y-158745143D01*
X119441133Y-159176247D01*
X119412612Y-159233289D01*
X119355571Y-159261810D01*
X119278038Y-159261810D01*
X119263406Y-159263251D01*
X119236370Y-159274450D01*
X119215678Y-159295142D01*
X119204479Y-159322178D01*
X119204479Y-159351442D01*
X119215678Y-159378478D01*
X119236370Y-159399170D01*
X119263406Y-159410369D01*
X119278038Y-159411810D01*
X119373276Y-159411810D01*
X119387908Y-159410369D01*
X119390397Y-159409337D01*
X119393085Y-159409147D01*
X119406817Y-159403892D01*
X119502055Y-159356273D01*
X119504502Y-159354732D01*
X119505656Y-159354348D01*
X119507092Y-159353102D01*
X119514498Y-159348441D01*
X119520659Y-159341336D01*
X119527764Y-159335175D01*
X119532425Y-159327769D01*
X119533671Y-159326333D01*
X119534055Y-159325179D01*
X119535596Y-159322732D01*
X119583215Y-159227493D01*
X119588470Y-159213761D01*
X119588660Y-159211073D01*
X119589692Y-159208584D01*
X119591133Y-159193952D01*
X119591133Y-158745143D01*
X119658990Y-158745143D01*
X119673622Y-158743702D01*
X119700658Y-158732503D01*
X119721350Y-158711811D01*
X119732549Y-158684775D01*
X119732549Y-158670143D01*
X119917324Y-158670143D01*
X119917324Y-159336810D01*
X119918765Y-159351442D01*
X119929964Y-159378478D01*
X119950656Y-159399170D01*
X119977692Y-159410369D01*
X120006956Y-159410369D01*
X120033992Y-159399170D01*
X120053393Y-159379768D01*
X120101640Y-159403892D01*
X120115371Y-159409147D01*
X120118060Y-159409338D01*
X120120549Y-159410369D01*
X120135181Y-159411810D01*
X120278038Y-159411810D01*
X120292670Y-159410369D01*
X120295159Y-159409337D01*
X120297847Y-159409147D01*
X120311579Y-159403892D01*
X120406817Y-159356273D01*
X120409264Y-159354732D01*
X120410418Y-159354348D01*
X120411854Y-159353102D01*
X120419260Y-159348441D01*
X120425421Y-159341336D01*
X120432526Y-159335175D01*
X120437187Y-159327769D01*
X120438433Y-159326333D01*
X120438817Y-159325179D01*
X120440358Y-159322732D01*
X120487977Y-159227493D01*
X120493232Y-159213761D01*
X120493422Y-159211073D01*
X120494454Y-159208584D01*
X120495895Y-159193952D01*
X120495895Y-158860619D01*
X120774467Y-158860619D01*
X120774467Y-159146333D01*
X120775908Y-159160965D01*
X120776939Y-159163454D01*
X120777130Y-159166142D01*
X120782385Y-159179874D01*
X120830004Y-159275112D01*
X120833967Y-159281408D01*
X120834725Y-159283238D01*
X120836414Y-159285296D01*
X120837836Y-159287555D01*
X120839334Y-159288854D01*
X120844052Y-159294603D01*
X120891671Y-159342223D01*
X120897420Y-159346941D01*
X120898721Y-159348441D01*
X120900980Y-159349863D01*
X120903037Y-159351551D01*
X120904864Y-159352308D01*
X120911164Y-159356273D01*
X121006402Y-159403892D01*
X121020133Y-159409147D01*
X121022822Y-159409338D01*
X121025311Y-159410369D01*
X121039943Y-159411810D01*
X121182800Y-159411810D01*
X121197432Y-159410369D01*
X121199921Y-159409337D01*
X121202609Y-159409147D01*
X121216341Y-159403892D01*
X121311579Y-159356273D01*
X121317878Y-159352308D01*
X121319706Y-159351551D01*
X121321762Y-159349863D01*
X121324022Y-159348441D01*
X121325322Y-159346941D01*
X121331072Y-159342223D01*
X121340567Y-159332728D01*
X121679340Y-159332728D01*
X121683479Y-159361697D01*
X121698388Y-159386878D01*
X121721799Y-159404436D01*
X121750147Y-159411699D01*
X121779116Y-159407560D01*
X121804297Y-159392651D01*
X121814229Y-159381810D01*
X122048057Y-159070037D01*
X122060181Y-159082161D01*
X122060181Y-159336810D01*
X122061622Y-159351442D01*
X122072821Y-159378478D01*
X122093513Y-159399170D01*
X122120549Y-159410369D01*
X122149813Y-159410369D01*
X122176849Y-159399170D01*
X122197541Y-159378478D01*
X122208740Y-159351442D01*
X122210181Y-159336810D01*
X122210181Y-158813000D01*
X122536372Y-158813000D01*
X122536372Y-159336810D01*
X122537813Y-159351442D01*
X122549012Y-159378478D01*
X122569704Y-159399170D01*
X122596740Y-159410369D01*
X122626004Y-159410369D01*
X122653040Y-159399170D01*
X122656568Y-159395641D01*
X122673069Y-159403892D01*
X122686800Y-159409147D01*
X122689489Y-159409338D01*
X122691978Y-159410369D01*
X122706610Y-159411810D01*
X122944705Y-159411810D01*
X122959337Y-159410369D01*
X122961826Y-159409337D01*
X122964514Y-159409147D01*
X122978246Y-159403892D01*
X123073484Y-159356273D01*
X123075931Y-159354732D01*
X123077085Y-159354348D01*
X123078521Y-159353102D01*
X123085927Y-159348441D01*
X123092088Y-159341336D01*
X123099193Y-159335175D01*
X123103854Y-159327769D01*
X123105100Y-159326333D01*
X123105484Y-159325179D01*
X123107025Y-159322732D01*
X123154644Y-159227493D01*
X123159899Y-159213761D01*
X123160089Y-159211073D01*
X123161121Y-159208584D01*
X123162562Y-159193952D01*
X123162562Y-159098714D01*
X123161121Y-159084082D01*
X123160090Y-159081593D01*
X123159899Y-159078904D01*
X123154644Y-159065173D01*
X123107025Y-158969935D01*
X123105484Y-158967487D01*
X123105100Y-158966334D01*
X123103854Y-158964897D01*
X123099193Y-158957492D01*
X123092088Y-158951330D01*
X123085927Y-158944226D01*
X123078521Y-158939564D01*
X123077085Y-158938319D01*
X123075931Y-158937934D01*
X123073484Y-158936394D01*
X122978246Y-158888775D01*
X122964514Y-158883520D01*
X122961826Y-158883329D01*
X122959337Y-158882298D01*
X122944705Y-158880857D01*
X122724315Y-158880857D01*
X122686372Y-158861885D01*
X122686372Y-158830705D01*
X122695224Y-158813000D01*
X123393515Y-158813000D01*
X123393515Y-158908238D01*
X123394956Y-158922870D01*
X123397767Y-158929658D01*
X123399194Y-158936867D01*
X123403313Y-158943046D01*
X123406155Y-158949906D01*
X123411350Y-158955101D01*
X123415426Y-158961215D01*
X123421596Y-158965347D01*
X123426847Y-158970598D01*
X123433635Y-158973409D01*
X123439741Y-158977499D01*
X123453806Y-158981782D01*
X123869705Y-159064960D01*
X123869705Y-159176247D01*
X123841184Y-159233289D01*
X123784143Y-159261810D01*
X123629077Y-159261810D01*
X123549675Y-159222109D01*
X123535943Y-159216854D01*
X123506753Y-159214780D01*
X123478992Y-159224034D01*
X123456884Y-159243207D01*
X123443797Y-159269382D01*
X123441723Y-159298572D01*
X123450977Y-159326333D01*
X123470150Y-159348441D01*
X123482593Y-159356273D01*
X123577831Y-159403892D01*
X123591562Y-159409147D01*
X123594251Y-159409338D01*
X123596740Y-159410369D01*
X123611372Y-159411810D01*
X123801848Y-159411810D01*
X123816480Y-159410369D01*
X123818969Y-159409337D01*
X123821657Y-159409147D01*
X123835389Y-159403892D01*
X123930627Y-159356273D01*
X123933074Y-159354732D01*
X123934228Y-159354348D01*
X123935664Y-159353102D01*
X123943070Y-159348441D01*
X123949231Y-159341336D01*
X123956336Y-159335175D01*
X123960997Y-159327769D01*
X123962243Y-159326333D01*
X123962627Y-159325179D01*
X123964168Y-159322732D01*
X124011787Y-159227493D01*
X124017042Y-159213761D01*
X124017232Y-159211073D01*
X124018264Y-159208584D01*
X124019705Y-159193952D01*
X124019705Y-158813000D01*
X124018264Y-158798368D01*
X124017233Y-158795879D01*
X124017042Y-158793190D01*
X124011787Y-158779459D01*
X123964168Y-158684221D01*
X123962627Y-158681773D01*
X123962243Y-158680620D01*
X123960997Y-158679183D01*
X123956336Y-158671778D01*
X123949231Y-158665616D01*
X123943070Y-158658512D01*
X123938303Y-158655511D01*
X124156861Y-158655511D01*
X124156861Y-158684775D01*
X124168060Y-158711811D01*
X124188752Y-158732503D01*
X124215788Y-158743702D01*
X124230420Y-158745143D01*
X124307953Y-158745143D01*
X124376469Y-158779401D01*
X124406876Y-158809808D01*
X124441134Y-158878324D01*
X124441134Y-159336810D01*
X124442575Y-159351442D01*
X124453774Y-159378478D01*
X124474466Y-159399170D01*
X124501502Y-159410369D01*
X124530766Y-159410369D01*
X124557802Y-159399170D01*
X124578494Y-159378478D01*
X124589693Y-159351442D01*
X124591134Y-159336810D01*
X124591134Y-158860619D01*
X124869706Y-158860619D01*
X124869706Y-159146333D01*
X124871147Y-159160965D01*
X124872178Y-159163454D01*
X124872369Y-159166142D01*
X124877624Y-159179874D01*
X124925243Y-159275112D01*
X124929206Y-159281408D01*
X124929964Y-159283238D01*
X124931653Y-159285296D01*
X124933075Y-159287555D01*
X124934573Y-159288854D01*
X124939291Y-159294603D01*
X124986910Y-159342223D01*
X124992659Y-159346941D01*
X124993960Y-159348441D01*
X124996219Y-159349863D01*
X124998276Y-159351551D01*
X125000103Y-159352308D01*
X125006403Y-159356273D01*
X125101641Y-159403892D01*
X125115372Y-159409147D01*
X125118061Y-159409338D01*
X125120550Y-159410369D01*
X125135182Y-159411810D01*
X125325658Y-159411810D01*
X125340290Y-159410369D01*
X125342779Y-159409337D01*
X125345467Y-159409147D01*
X125359199Y-159403892D01*
X125375699Y-159395641D01*
X125379228Y-159399170D01*
X125406264Y-159410369D01*
X125435528Y-159410369D01*
X125462564Y-159399170D01*
X125483256Y-159378478D01*
X125494455Y-159351442D01*
X125495896Y-159336810D01*
X125495896Y-158908238D01*
X126536373Y-158908238D01*
X126536373Y-159146333D01*
X126537814Y-159160965D01*
X126538845Y-159163454D01*
X126539036Y-159166142D01*
X126544291Y-159179874D01*
X126591910Y-159275112D01*
X126595873Y-159281408D01*
X126596631Y-159283238D01*
X126598320Y-159285296D01*
X126599742Y-159287555D01*
X126601240Y-159288854D01*
X126605958Y-159294603D01*
X126653577Y-159342223D01*
X126659326Y-159346941D01*
X126660627Y-159348441D01*
X126662886Y-159349863D01*
X126664943Y-159351551D01*
X126666770Y-159352308D01*
X126673070Y-159356273D01*
X126768308Y-159403892D01*
X126782039Y-159409147D01*
X126784728Y-159409338D01*
X126787217Y-159410369D01*
X126801849Y-159411810D01*
X126992325Y-159411810D01*
X127006957Y-159410369D01*
X127009446Y-159409337D01*
X127012134Y-159409147D01*
X127025866Y-159403892D01*
X127121104Y-159356273D01*
X127127403Y-159352308D01*
X127129231Y-159351551D01*
X127131287Y-159349863D01*
X127133547Y-159348441D01*
X127134847Y-159346941D01*
X127140597Y-159342223D01*
X127160642Y-159322178D01*
X127490195Y-159322178D01*
X127490195Y-159351442D01*
X127501394Y-159378478D01*
X127522086Y-159399170D01*
X127549122Y-159410369D01*
X127563754Y-159411810D01*
X128135182Y-159411810D01*
X128149814Y-159410369D01*
X128176850Y-159399170D01*
X128197542Y-159378478D01*
X128208741Y-159351442D01*
X128208741Y-159322178D01*
X128197542Y-159295142D01*
X128176850Y-159274450D01*
X128149814Y-159263251D01*
X128135182Y-159261810D01*
X127924468Y-159261810D01*
X127924468Y-158565495D01*
X127986911Y-158627938D01*
X127992661Y-158632658D01*
X127993960Y-158634155D01*
X127996214Y-158635574D01*
X127998276Y-158637266D01*
X128000108Y-158638024D01*
X128006403Y-158641987D01*
X128101641Y-158689606D01*
X128115372Y-158694861D01*
X128144562Y-158696935D01*
X128172324Y-158687681D01*
X128194431Y-158668508D01*
X128207519Y-158642333D01*
X128209593Y-158613143D01*
X128200339Y-158585382D01*
X128181166Y-158563274D01*
X128168723Y-158555442D01*
X128084371Y-158513266D01*
X128002990Y-158431885D01*
X127941476Y-158339614D01*
X128393568Y-158339614D01*
X128395556Y-158354182D01*
X128633651Y-159354182D01*
X128635380Y-159359201D01*
X128635620Y-159361003D01*
X128636562Y-159362631D01*
X128638441Y-159368082D01*
X128644827Y-159376906D01*
X128650282Y-159386328D01*
X128653339Y-159388668D01*
X128655598Y-159391789D01*
X128664873Y-159397496D01*
X128673520Y-159404115D01*
X128677240Y-159405107D01*
X128680520Y-159407125D01*
X128691274Y-159408849D01*
X128701796Y-159411655D01*
X128705611Y-159411148D01*
X128709415Y-159411758D01*
X128720013Y-159409234D01*
X128730804Y-159407801D01*
X128734135Y-159405872D01*
X128737883Y-159404980D01*
X128746707Y-159398593D01*
X128756129Y-159393139D01*
X128758469Y-159390081D01*
X128761590Y-159387823D01*
X128767297Y-159378547D01*
X128773916Y-159369901D01*
X128775941Y-159364501D01*
X128776926Y-159362901D01*
X128777213Y-159361109D01*
X128779079Y-159356135D01*
X128897086Y-158913604D01*
X129015095Y-159356135D01*
X129016960Y-159361110D01*
X129017248Y-159362901D01*
X129018232Y-159364500D01*
X129020258Y-159369902D01*
X129026878Y-159378550D01*
X129032584Y-159387823D01*
X129035704Y-159390081D01*
X129038045Y-159393139D01*
X129047466Y-159398593D01*
X129056291Y-159404980D01*
X129060038Y-159405872D01*
X129063370Y-159407801D01*
X129074163Y-159409235D01*
X129084759Y-159411758D01*
X129088560Y-159411148D01*
X129092379Y-159411656D01*
X129102910Y-159408847D01*
X129113654Y-159407125D01*
X129116930Y-159405109D01*
X129120654Y-159404116D01*
X129129304Y-159397494D01*
X129138576Y-159391789D01*
X129140834Y-159388668D01*
X129143892Y-159386328D01*
X129149347Y-159376905D01*
X129155733Y-159368082D01*
X129157610Y-159362633D01*
X129158554Y-159361004D01*
X129158793Y-159359200D01*
X129160523Y-159354182D01*
X129232686Y-159051095D01*
X129583992Y-159051095D01*
X129583992Y-159146333D01*
X129585433Y-159160965D01*
X129586464Y-159163454D01*
X129586655Y-159166142D01*
X129591910Y-159179874D01*
X129639529Y-159275112D01*
X129643492Y-159281408D01*
X129644250Y-159283238D01*
X129645939Y-159285296D01*
X129647361Y-159287555D01*
X129648859Y-159288854D01*
X129653577Y-159294603D01*
X129701196Y-159342223D01*
X129706945Y-159346941D01*
X129708246Y-159348441D01*
X129710505Y-159349863D01*
X129712562Y-159351551D01*
X129714389Y-159352308D01*
X129720689Y-159356273D01*
X129815927Y-159403892D01*
X129829658Y-159409147D01*
X129832347Y-159409338D01*
X129834836Y-159410369D01*
X129849468Y-159411810D01*
X130087563Y-159411810D01*
X130094968Y-159411080D01*
X130096943Y-159411221D01*
X130099540Y-159410630D01*
X130102195Y-159410369D01*
X130104026Y-159409610D01*
X130111280Y-159407961D01*
X130254137Y-159360342D01*
X130267562Y-159354348D01*
X130289669Y-159335174D01*
X130302756Y-159309001D01*
X130304831Y-159279811D01*
X130295577Y-159252049D01*
X130276403Y-159229941D01*
X130250229Y-159216855D01*
X130221039Y-159214780D01*
X130206702Y-159218040D01*
X130075393Y-159261810D01*
X129867173Y-159261810D01*
X129798657Y-159227552D01*
X129768250Y-159197144D01*
X129733992Y-159128628D01*
X129733992Y-159068800D01*
X129768250Y-159000284D01*
X129798657Y-158969877D01*
X129875644Y-158931383D01*
X130058134Y-158885761D01*
X130059213Y-158885375D01*
X130059753Y-158885337D01*
X130065834Y-158883009D01*
X130071980Y-158880814D01*
X130072415Y-158880491D01*
X130073485Y-158880082D01*
X130168723Y-158832463D01*
X130175022Y-158828498D01*
X130176850Y-158827741D01*
X130178906Y-158826052D01*
X130181166Y-158824631D01*
X130182465Y-158823132D01*
X130188215Y-158818414D01*
X130235834Y-158770795D01*
X130240552Y-158765045D01*
X130242051Y-158763746D01*
X130243472Y-158761486D01*
X130245161Y-158759430D01*
X130245918Y-158757602D01*
X130249883Y-158751303D01*
X130297502Y-158656065D01*
X130302757Y-158642334D01*
X130302948Y-158639644D01*
X130303979Y-158637156D01*
X130305420Y-158622524D01*
X130305420Y-158527286D01*
X130303979Y-158512654D01*
X130302948Y-158510165D01*
X130302757Y-158507476D01*
X130297502Y-158493745D01*
X130249883Y-158398507D01*
X130245918Y-158392207D01*
X130245161Y-158390380D01*
X130243472Y-158388323D01*
X130242051Y-158386064D01*
X130240552Y-158384764D01*
X130235834Y-158379015D01*
X130188215Y-158331396D01*
X130182465Y-158326677D01*
X130181166Y-158325179D01*
X130178906Y-158323757D01*
X130176850Y-158322069D01*
X130175022Y-158321311D01*
X130168723Y-158317347D01*
X130073485Y-158269728D01*
X130059753Y-158264473D01*
X130057065Y-158264282D01*
X130054576Y-158263251D01*
X130039944Y-158261810D01*
X129801849Y-158261810D01*
X129794442Y-158262539D01*
X129792468Y-158262399D01*
X129789870Y-158262989D01*
X129787217Y-158263251D01*
X129785386Y-158264009D01*
X129778131Y-158265659D01*
X129635275Y-158313278D01*
X129621849Y-158319272D01*
X129599742Y-158338446D01*
X129586656Y-158364619D01*
X129584581Y-158393809D01*
X129593835Y-158421572D01*
X129613009Y-158443679D01*
X129639182Y-158456765D01*
X129668372Y-158458840D01*
X129682709Y-158455580D01*
X129814019Y-158411810D01*
X130022239Y-158411810D01*
X130090755Y-158446068D01*
X130121162Y-158476475D01*
X130155420Y-158544991D01*
X130155420Y-158604819D01*
X130121162Y-158673335D01*
X130090755Y-158703742D01*
X130013768Y-158742235D01*
X129831278Y-158787858D01*
X129830198Y-158788243D01*
X129829658Y-158788282D01*
X129823568Y-158790612D01*
X129817432Y-158792805D01*
X129816996Y-158793127D01*
X129815927Y-158793537D01*
X129720689Y-158841156D01*
X129714389Y-158845120D01*
X129712562Y-158845878D01*
X129710505Y-158847566D01*
X129708246Y-158848988D01*
X129706946Y-158850486D01*
X129701197Y-158855205D01*
X129653578Y-158902824D01*
X129648859Y-158908573D01*
X129647361Y-158909873D01*
X129645939Y-158912132D01*
X129644251Y-158914189D01*
X129643493Y-158916016D01*
X129639529Y-158922316D01*
X129591910Y-159017554D01*
X129586655Y-159031286D01*
X129586464Y-159033973D01*
X129585433Y-159036463D01*
X129583992Y-159051095D01*
X129232686Y-159051095D01*
X129398618Y-158354181D01*
X129400606Y-158339614D01*
X129395973Y-158310719D01*
X129380637Y-158285797D01*
X129356930Y-158268640D01*
X129328462Y-158261862D01*
X129299567Y-158266495D01*
X129274645Y-158281831D01*
X129257488Y-158305538D01*
X129252698Y-158319438D01*
X129083446Y-159030294D01*
X128969555Y-158603199D01*
X128968269Y-158599771D01*
X128968078Y-158598330D01*
X128967086Y-158596617D01*
X128964392Y-158589433D01*
X128958377Y-158581574D01*
X128953416Y-158573006D01*
X128949557Y-158570052D01*
X128946605Y-158566195D01*
X128938040Y-158561236D01*
X128930178Y-158555218D01*
X128925481Y-158553965D01*
X128921280Y-158551533D01*
X128911473Y-158550230D01*
X128901903Y-158547678D01*
X128897084Y-158548318D01*
X128892272Y-158547679D01*
X128882711Y-158550228D01*
X128872894Y-158551533D01*
X128868688Y-158553967D01*
X128863996Y-158555219D01*
X128856136Y-158561234D01*
X128847569Y-158566195D01*
X128844615Y-158570053D01*
X128840758Y-158573006D01*
X128835799Y-158581571D01*
X128829782Y-158589432D01*
X128827085Y-158596621D01*
X128826096Y-158598331D01*
X128825904Y-158599770D01*
X128824619Y-158603199D01*
X128710727Y-159030294D01*
X128541476Y-158319438D01*
X128536686Y-158305538D01*
X128519529Y-158281831D01*
X128494607Y-158266495D01*
X128465712Y-158261862D01*
X128437244Y-158268640D01*
X128413537Y-158285797D01*
X128398201Y-158310719D01*
X128393568Y-158339614D01*
X127941476Y-158339614D01*
X127911872Y-158295207D01*
X127911837Y-158295164D01*
X127911828Y-158295142D01*
X127911776Y-158295090D01*
X127902556Y-158283832D01*
X127896386Y-158279700D01*
X127891136Y-158274450D01*
X127884346Y-158271637D01*
X127878241Y-158267549D01*
X127870960Y-158266092D01*
X127864100Y-158263251D01*
X127856752Y-158263251D01*
X127849547Y-158261810D01*
X127842263Y-158263251D01*
X127834836Y-158263251D01*
X127828047Y-158266063D01*
X127820839Y-158267489D01*
X127814660Y-158271608D01*
X127807800Y-158274450D01*
X127802604Y-158279645D01*
X127796490Y-158283722D01*
X127792358Y-158289891D01*
X127787108Y-158295142D01*
X127784295Y-158301931D01*
X127780207Y-158308037D01*
X127778750Y-158315317D01*
X127775909Y-158322178D01*
X127774483Y-158336654D01*
X127774468Y-158336731D01*
X127774473Y-158336757D01*
X127774468Y-158336810D01*
X127774468Y-159261810D01*
X127563754Y-159261810D01*
X127549122Y-159263251D01*
X127522086Y-159274450D01*
X127501394Y-159295142D01*
X127490195Y-159322178D01*
X127160642Y-159322178D01*
X127188215Y-159294604D01*
X127192933Y-159288854D01*
X127194432Y-159287555D01*
X127195853Y-159285296D01*
X127197543Y-159283238D01*
X127198300Y-159281408D01*
X127202264Y-159275112D01*
X127249883Y-159179874D01*
X127255138Y-159166143D01*
X127255329Y-159163453D01*
X127256360Y-159160965D01*
X127257801Y-159146333D01*
X127257801Y-158765381D01*
X127257549Y-158762827D01*
X127257712Y-158761735D01*
X127256902Y-158756261D01*
X127256360Y-158750749D01*
X127255937Y-158749727D01*
X127255562Y-158747191D01*
X127207943Y-158556715D01*
X127204861Y-158548091D01*
X127204503Y-158546277D01*
X127203625Y-158544631D01*
X127202996Y-158542869D01*
X127201890Y-158541377D01*
X127197586Y-158533303D01*
X127102348Y-158390445D01*
X127102313Y-158390402D01*
X127102304Y-158390380D01*
X127097815Y-158384911D01*
X127093032Y-158379070D01*
X127093010Y-158379055D01*
X127092977Y-158379015D01*
X127045358Y-158331396D01*
X127039608Y-158326677D01*
X127038309Y-158325179D01*
X127036049Y-158323757D01*
X127033993Y-158322069D01*
X127032165Y-158321311D01*
X127025866Y-158317347D01*
X126930628Y-158269728D01*
X126916896Y-158264473D01*
X126914208Y-158264282D01*
X126911719Y-158263251D01*
X126897087Y-158261810D01*
X126706611Y-158261810D01*
X126691979Y-158263251D01*
X126664943Y-158274450D01*
X126644251Y-158295142D01*
X126633052Y-158322178D01*
X126633052Y-158351442D01*
X126644251Y-158378478D01*
X126664943Y-158399170D01*
X126691979Y-158410369D01*
X126706611Y-158411810D01*
X126879382Y-158411810D01*
X126947898Y-158446068D01*
X126981658Y-158479828D01*
X127065572Y-158605699D01*
X127084096Y-158679795D01*
X127025866Y-158650680D01*
X127012134Y-158645425D01*
X127009446Y-158645234D01*
X127006957Y-158644203D01*
X126992325Y-158642762D01*
X126801849Y-158642762D01*
X126787217Y-158644203D01*
X126784728Y-158645233D01*
X126782039Y-158645425D01*
X126768308Y-158650680D01*
X126673070Y-158698299D01*
X126666770Y-158702263D01*
X126664943Y-158703021D01*
X126662886Y-158704709D01*
X126660627Y-158706131D01*
X126659327Y-158707629D01*
X126653578Y-158712348D01*
X126605959Y-158759967D01*
X126601240Y-158765716D01*
X126599742Y-158767016D01*
X126598320Y-158769275D01*
X126596632Y-158771332D01*
X126595874Y-158773159D01*
X126591910Y-158779459D01*
X126544291Y-158874697D01*
X126539036Y-158888429D01*
X126538845Y-158891116D01*
X126537814Y-158893606D01*
X126536373Y-158908238D01*
X125495896Y-158908238D01*
X125495896Y-158336810D01*
X125494455Y-158322178D01*
X125483256Y-158295142D01*
X125462564Y-158274450D01*
X125435528Y-158263251D01*
X125406264Y-158263251D01*
X125379228Y-158274450D01*
X125358536Y-158295142D01*
X125347337Y-158322178D01*
X125345896Y-158336810D01*
X125345896Y-158597970D01*
X125345467Y-158597806D01*
X125342779Y-158597615D01*
X125340290Y-158596584D01*
X125325658Y-158595143D01*
X125135182Y-158595143D01*
X125120550Y-158596584D01*
X125118061Y-158597614D01*
X125115372Y-158597806D01*
X125101641Y-158603061D01*
X125006403Y-158650680D01*
X125000103Y-158654644D01*
X124998276Y-158655402D01*
X124996219Y-158657090D01*
X124993960Y-158658512D01*
X124992660Y-158660010D01*
X124986911Y-158664729D01*
X124939292Y-158712348D01*
X124934573Y-158718097D01*
X124933075Y-158719397D01*
X124931653Y-158721656D01*
X124929965Y-158723713D01*
X124929207Y-158725540D01*
X124925243Y-158731840D01*
X124877624Y-158827078D01*
X124872369Y-158840810D01*
X124872178Y-158843497D01*
X124871147Y-158845987D01*
X124869706Y-158860619D01*
X124591134Y-158860619D01*
X124591134Y-158670143D01*
X124589693Y-158655511D01*
X124578494Y-158628475D01*
X124557802Y-158607783D01*
X124530766Y-158596584D01*
X124501502Y-158596584D01*
X124474466Y-158607783D01*
X124453774Y-158628475D01*
X124446268Y-158646595D01*
X124359199Y-158603061D01*
X124345467Y-158597806D01*
X124342779Y-158597615D01*
X124340290Y-158596584D01*
X124325658Y-158595143D01*
X124230420Y-158595143D01*
X124215788Y-158596584D01*
X124188752Y-158607783D01*
X124168060Y-158628475D01*
X124156861Y-158655511D01*
X123938303Y-158655511D01*
X123935664Y-158653850D01*
X123934228Y-158652605D01*
X123933074Y-158652220D01*
X123930627Y-158650680D01*
X123835389Y-158603061D01*
X123821657Y-158597806D01*
X123818969Y-158597615D01*
X123816480Y-158596584D01*
X123801848Y-158595143D01*
X123611372Y-158595143D01*
X123596740Y-158596584D01*
X123594251Y-158597614D01*
X123591562Y-158597806D01*
X123577831Y-158603061D01*
X123482593Y-158650680D01*
X123480145Y-158652220D01*
X123478992Y-158652605D01*
X123477555Y-158653850D01*
X123470150Y-158658512D01*
X123463988Y-158665616D01*
X123456884Y-158671778D01*
X123452222Y-158679183D01*
X123450977Y-158680620D01*
X123450592Y-158681773D01*
X123449052Y-158684221D01*
X123401433Y-158779459D01*
X123396178Y-158793191D01*
X123395987Y-158795878D01*
X123394956Y-158798368D01*
X123393515Y-158813000D01*
X122695224Y-158813000D01*
X122714892Y-158773663D01*
X122771934Y-158745143D01*
X122927000Y-158745143D01*
X123006402Y-158784844D01*
X123020133Y-158790099D01*
X123049323Y-158792173D01*
X123077085Y-158782919D01*
X123099192Y-158763746D01*
X123112280Y-158737571D01*
X123114354Y-158708381D01*
X123105100Y-158680620D01*
X123085927Y-158658512D01*
X123073484Y-158650680D01*
X122978246Y-158603061D01*
X122964514Y-158597806D01*
X122961826Y-158597615D01*
X122959337Y-158596584D01*
X122944705Y-158595143D01*
X122754229Y-158595143D01*
X122739597Y-158596584D01*
X122737108Y-158597614D01*
X122734419Y-158597806D01*
X122720688Y-158603061D01*
X122625450Y-158650680D01*
X122623002Y-158652220D01*
X122621849Y-158652605D01*
X122620412Y-158653850D01*
X122613007Y-158658512D01*
X122606845Y-158665616D01*
X122599741Y-158671778D01*
X122595079Y-158679183D01*
X122593834Y-158680620D01*
X122593449Y-158681773D01*
X122591909Y-158684221D01*
X122544290Y-158779459D01*
X122539035Y-158793191D01*
X122538844Y-158795878D01*
X122537813Y-158798368D01*
X122536372Y-158813000D01*
X122210181Y-158813000D01*
X122210181Y-158336810D01*
X122208740Y-158322178D01*
X122197541Y-158295142D01*
X122176849Y-158274450D01*
X122149813Y-158263251D01*
X122120549Y-158263251D01*
X122093513Y-158274450D01*
X122072821Y-158295142D01*
X122061622Y-158322178D01*
X122060181Y-158336810D01*
X122060181Y-158870029D01*
X121807262Y-158617110D01*
X121795897Y-158607783D01*
X121768860Y-158596584D01*
X121739598Y-158596584D01*
X121712561Y-158607783D01*
X121691869Y-158628475D01*
X121680670Y-158655512D01*
X121680670Y-158684774D01*
X121691869Y-158711811D01*
X121701196Y-158723176D01*
X121940914Y-158962894D01*
X121694229Y-159291810D01*
X121686603Y-159304380D01*
X121679340Y-159332728D01*
X121340567Y-159332728D01*
X121378690Y-159294604D01*
X121383408Y-159288854D01*
X121384907Y-159287555D01*
X121386328Y-159285296D01*
X121388018Y-159283238D01*
X121388775Y-159281408D01*
X121392739Y-159275112D01*
X121440358Y-159179874D01*
X121445613Y-159166143D01*
X121445804Y-159163453D01*
X121446835Y-159160965D01*
X121448276Y-159146333D01*
X121448276Y-158860619D01*
X121446835Y-158845987D01*
X121445804Y-158843498D01*
X121445613Y-158840809D01*
X121440358Y-158827078D01*
X121392739Y-158731840D01*
X121388774Y-158725540D01*
X121388017Y-158723713D01*
X121386328Y-158721656D01*
X121384907Y-158719397D01*
X121383408Y-158718097D01*
X121378690Y-158712348D01*
X121331071Y-158664729D01*
X121325321Y-158660010D01*
X121324022Y-158658512D01*
X121321762Y-158657090D01*
X121319706Y-158655402D01*
X121317878Y-158654644D01*
X121311579Y-158650680D01*
X121216341Y-158603061D01*
X121202609Y-158597806D01*
X121199921Y-158597615D01*
X121197432Y-158596584D01*
X121182800Y-158595143D01*
X121039943Y-158595143D01*
X121025311Y-158596584D01*
X121022822Y-158597614D01*
X121020133Y-158597806D01*
X121006402Y-158603061D01*
X120911164Y-158650680D01*
X120904864Y-158654644D01*
X120903037Y-158655402D01*
X120900980Y-158657090D01*
X120898721Y-158658512D01*
X120897421Y-158660010D01*
X120891672Y-158664729D01*
X120844053Y-158712348D01*
X120839334Y-158718097D01*
X120837836Y-158719397D01*
X120836414Y-158721656D01*
X120834726Y-158723713D01*
X120833968Y-158725540D01*
X120830004Y-158731840D01*
X120782385Y-158827078D01*
X120777130Y-158840810D01*
X120776939Y-158843497D01*
X120775908Y-158845987D01*
X120774467Y-158860619D01*
X120495895Y-158860619D01*
X120495895Y-158670143D01*
X120494454Y-158655511D01*
X120483255Y-158628475D01*
X120462563Y-158607783D01*
X120435527Y-158596584D01*
X120406263Y-158596584D01*
X120379227Y-158607783D01*
X120358535Y-158628475D01*
X120347336Y-158655511D01*
X120345895Y-158670143D01*
X120345895Y-159176247D01*
X120317374Y-159233289D01*
X120260333Y-159261810D01*
X120152886Y-159261810D01*
X120084370Y-159227552D01*
X120067324Y-159210505D01*
X120067324Y-158670143D01*
X120065883Y-158655511D01*
X120054684Y-158628475D01*
X120033992Y-158607783D01*
X120006956Y-158596584D01*
X119977692Y-158596584D01*
X119950656Y-158607783D01*
X119929964Y-158628475D01*
X119918765Y-158655511D01*
X119917324Y-158670143D01*
X119732549Y-158670143D01*
X119732549Y-158655511D01*
X119721350Y-158628475D01*
X119700658Y-158607783D01*
X119673622Y-158596584D01*
X119658990Y-158595143D01*
X119591133Y-158595143D01*
X119591133Y-158336810D01*
X119589692Y-158322178D01*
X119578493Y-158295142D01*
X119557801Y-158274450D01*
X119530765Y-158263251D01*
X119501501Y-158263251D01*
X119474465Y-158274450D01*
X119453773Y-158295142D01*
X119442574Y-158322178D01*
X119441133Y-158336810D01*
X119441133Y-158595143D01*
X119278038Y-158595143D01*
X119263406Y-158596584D01*
X119236370Y-158607783D01*
X119215678Y-158628475D01*
X119204479Y-158655511D01*
X119093368Y-158655511D01*
X119093368Y-158150699D01*
X130416531Y-158150699D01*
X130416531Y-159522921D01*
G37*
D12*
X131913952Y-75354394D02*
X129513952Y-75354394D01*
X129513952Y-74795994D01*
X131913952Y-74795994D01*
X131913952Y-75354394D01*
G36*
X131913952Y-75354394D02*
G01*
X129513952Y-75354394D01*
X129513952Y-74795994D01*
X131913952Y-74795994D01*
X131913952Y-75354394D01*
G37*
X131913952Y-75353994D02*
X131913952Y-73627194D01*
X129513952Y-75353994D02*
X129513952Y-73627194D01*
X117803252Y-75354394D02*
X115403252Y-75354394D01*
X115403252Y-74795994D01*
X117803252Y-74795994D01*
X117803252Y-75354394D01*
G36*
X117803252Y-75354394D02*
G01*
X115403252Y-75354394D01*
X115403252Y-74795994D01*
X117803252Y-74795994D01*
X117803252Y-75354394D01*
G37*
X117803252Y-75353994D02*
X117803252Y-73627194D01*
X115403252Y-75353994D02*
X115403252Y-73627194D01*
D13*
X117789258Y-102695619D02*
X117789258Y-106795617D01*
X117789258Y-110795619D02*
X117789258Y-114895617D01*
X119589258Y-115995618D02*
X119589258Y-116595618D01*
X119589258Y-116595618D02*
X119889258Y-116295618D01*
X119889258Y-116295618D02*
X119589258Y-115995618D01*
X120189258Y-102695618D02*
X117789258Y-102695619D01*
X123689258Y-109295617D02*
X123689258Y-108295619D01*
X124189257Y-108795618D02*
X123189259Y-108795618D01*
X124989258Y-102695618D02*
X122389258Y-102695618D01*
X129589258Y-102695619D02*
X127189258Y-102695618D01*
X129589258Y-106795617D02*
X129589258Y-102695619D01*
X129589258Y-110795619D02*
X129589258Y-114895617D01*
X129589258Y-114895617D02*
X117789258Y-114895617D01*
X126689258Y-108795618D02*
G75*
G02*
X120689258Y-108795618I-3000000J0D01*
G01*
X120689258Y-108795618D02*
G75*
G02*
X126689258Y-108795618I3000000J0D01*
G01*
D11*
X160844835Y-120412145D02*
X164278149Y-121527696D01*
X162066688Y-116651667D02*
X160847616Y-120403585D01*
X171815171Y-121922064D02*
X166998120Y-120405278D01*
X171829385Y-121878317D02*
X173037024Y-118161588D01*
X173037024Y-118161588D02*
X164834161Y-115496316D01*
X162098781Y-116588492D02*
G75*
G02*
X164834161Y-115496316I1913777J-821600D01*
G01*
X164290322Y-121506415D02*
G75*
G02*
X167020661Y-120416808I1909974J-820369D01*
G01*
D12*
X96379649Y-95767594D02*
X96379649Y-94040794D01*
X98779649Y-95767594D02*
X98779649Y-94040794D01*
X98779649Y-95767994D02*
X96379649Y-95767994D01*
X96379649Y-95209594D01*
X98779649Y-95209594D01*
X98779649Y-95767994D01*
G36*
X98779649Y-95767994D02*
G01*
X96379649Y-95767994D01*
X96379649Y-95209594D01*
X98779649Y-95209594D01*
X98779649Y-95767994D01*
G37*
D11*
X118715038Y-148012881D02*
X118715038Y-151957881D01*
X118715038Y-151966881D02*
X122325038Y-151966881D01*
X129615038Y-146058881D02*
X120990038Y-146058881D01*
X129615038Y-149966881D02*
X129615038Y-146058881D01*
X129615038Y-150012881D02*
X124565038Y-150058881D01*
X118726038Y-147942881D02*
G75*
G02*
X120990038Y-146058881I2074000J-190000D01*
G01*
X122330039Y-151942880D02*
G75*
G02*
X124590038Y-150062881I2069998J-189999D01*
G01*
X139437421Y-54584146D02*
X143042474Y-54773079D01*
X139644357Y-50635565D02*
X139437892Y-54575158D01*
X150424747Y-53203286D02*
X145379261Y-52984926D01*
X150427155Y-53157349D02*
X150631684Y-49254705D01*
X150631684Y-49254705D02*
X142018504Y-48803307D01*
X139659006Y-50566236D02*
G75*
G02*
X142018504Y-48803307I2061214J-298285D01*
G01*
X143048724Y-54749372D02*
G75*
G02*
X145404017Y-52990229I2057217J-298074D01*
G01*
X138443038Y-73558101D02*
X142048091Y-73747034D01*
X138649974Y-69609520D02*
X138443509Y-73549113D01*
X149430364Y-72177241D02*
X144384878Y-71958881D01*
X149432772Y-72131304D02*
X149637301Y-68228660D01*
X149637301Y-68228660D02*
X141024121Y-67777262D01*
X138664623Y-69540191D02*
G75*
G02*
X141024121Y-67777262I2061214J-298285D01*
G01*
X142054341Y-73723327D02*
G75*
G02*
X144409634Y-71964184I2057217J-298074D01*
G01*
D12*
X155188527Y-54813600D02*
X155188527Y-56540400D01*
X157588527Y-54813600D02*
X157588527Y-56540400D01*
X157588527Y-55371600D02*
X155188527Y-55371600D01*
X155188527Y-54813200D01*
X157588527Y-54813200D01*
X157588527Y-55371600D01*
G36*
X157588527Y-55371600D02*
G01*
X155188527Y-55371600D01*
X155188527Y-54813200D01*
X157588527Y-54813200D01*
X157588527Y-55371600D01*
G37*
D11*
X141299475Y-115834574D02*
X144830588Y-116585135D01*
X142121558Y-111966979D02*
X141301347Y-115825771D01*
X152367544Y-116189511D02*
X147418334Y-115184552D01*
X152377108Y-116144516D02*
X153189627Y-112321916D01*
X153189627Y-112321916D02*
X144753104Y-110528677D01*
X142146872Y-111900795D02*
G75*
G02*
X144753104Y-110528677I1989175J-617057D01*
G01*
X144840470Y-116562699D02*
G75*
G02*
X147441957Y-115193662I1985261J-616223D01*
G01*
X138315557Y-100326066D02*
X146928737Y-100777464D01*
X138520086Y-96423422D02*
X138315557Y-100326066D01*
X138522494Y-96377485D02*
X143567980Y-96595845D01*
X149302884Y-98945206D02*
X149509349Y-95005613D01*
X149509820Y-94996625D02*
X145904767Y-94807692D01*
X145898517Y-94831399D02*
G75*
G02*
X143543224Y-96590542I-2057217J298074D01*
G01*
X149288235Y-99014535D02*
G75*
G02*
X146928737Y-100777464I-2061214J298285D01*
G01*
X80357550Y-57347254D02*
X85404615Y-57169077D01*
X80358754Y-57393239D02*
X80461054Y-61299899D01*
X80461054Y-61299899D02*
X89083098Y-61074123D01*
X91202665Y-55108595D02*
X87593902Y-55203094D01*
X91306169Y-59061240D02*
X91202901Y-55117592D01*
X87589531Y-55227218D02*
G75*
G02*
X85379519Y-57165732I-2074262J135748D01*
G01*
X91297005Y-59131504D02*
G75*
G02*
X89083098Y-61074123I-2078263J135644D01*
G01*
D12*
X155188527Y-86373000D02*
X155188527Y-84646200D01*
X157588527Y-86373000D02*
X157588527Y-84646200D01*
X157588527Y-86373400D02*
X155188527Y-86373400D01*
X155188527Y-85815000D01*
X157588527Y-85815000D01*
X157588527Y-86373400D01*
G36*
X157588527Y-86373400D02*
G01*
X155188527Y-86373400D01*
X155188527Y-85815000D01*
X157588527Y-85815000D01*
X157588527Y-86373400D01*
G37*
X147222100Y-103656000D02*
X147222100Y-105382800D01*
X149622100Y-103656000D02*
X149622100Y-105382800D01*
X149622100Y-104214000D02*
X147222100Y-104214000D01*
X147222100Y-103655600D01*
X149622100Y-103655600D01*
X149622100Y-104214000D01*
G36*
X149622100Y-104214000D02*
G01*
X147222100Y-104214000D01*
X147222100Y-103655600D01*
X149622100Y-103655600D01*
X149622100Y-104214000D01*
G37*
D11*
X157215786Y-78397956D02*
X160820839Y-78586889D01*
X157422722Y-74449375D02*
X157216257Y-78388968D01*
X168203112Y-77017096D02*
X163157626Y-76798736D01*
X168205520Y-76971159D02*
X168410049Y-73068515D01*
X168410049Y-73068515D02*
X159796869Y-72617117D01*
X157437371Y-74380046D02*
G75*
G02*
X159796869Y-72617117I2061214J-298285D01*
G01*
X160827089Y-78563182D02*
G75*
G02*
X163182382Y-76804039I2057217J-298074D01*
G01*
X159076758Y-67218098D02*
X167689938Y-67669496D01*
X159281287Y-63315454D02*
X159076758Y-67218098D01*
X159283695Y-63269517D02*
X164329181Y-63487877D01*
X170064085Y-65837238D02*
X170270550Y-61897645D01*
X170271021Y-61888657D02*
X166665968Y-61699724D01*
X166659718Y-61723431D02*
G75*
G02*
X164304425Y-63482574I-2057217J298074D01*
G01*
X170049436Y-65906567D02*
G75*
G02*
X167689938Y-67669496I-2061214J298285D01*
G01*
D12*
X96379649Y-57051594D02*
X96379649Y-55324794D01*
X98779649Y-57051594D02*
X98779649Y-55324794D01*
X98779649Y-57051994D02*
X96379649Y-57051994D01*
X96379649Y-56493594D01*
X98779649Y-56493594D01*
X98779649Y-57051994D01*
G36*
X98779649Y-57051994D02*
G01*
X96379649Y-57051994D01*
X96379649Y-56493594D01*
X98779649Y-56493594D01*
X98779649Y-57051994D01*
G37*
X91462154Y-80291194D02*
X91462154Y-78564394D01*
X93862154Y-80291194D02*
X93862154Y-78564394D01*
X93862154Y-80291594D02*
X91462154Y-80291594D01*
X91462154Y-79733194D01*
X93862154Y-79733194D01*
X93862154Y-80291594D01*
G36*
X93862154Y-80291594D02*
G01*
X91462154Y-80291594D01*
X91462154Y-79733194D01*
X93862154Y-79733194D01*
X93862154Y-80291594D01*
G37*
D11*
X79560532Y-88676125D02*
X79766998Y-92615719D01*
X79767469Y-92624706D02*
X83372521Y-92435773D01*
X90343330Y-86154341D02*
X81730150Y-86605739D01*
X90547859Y-90056985D02*
X90343330Y-86154341D01*
X90550266Y-90102922D02*
X85509594Y-90413156D01*
X79567854Y-88605645D02*
G75*
G02*
X81730150Y-86605739I2081101J-81195D01*
G01*
X83376259Y-92411544D02*
G75*
G02*
X85534769Y-90415842I2077105J-81403D01*
G01*
X161106560Y-44456109D02*
X160787310Y-50547749D01*
X172870727Y-51181015D02*
X160787310Y-50547749D01*
X172883812Y-50931357D02*
X174881070Y-51036029D01*
X173176892Y-45339031D02*
X175174152Y-45443703D01*
X173189977Y-45089373D02*
X161106560Y-44456109D01*
X173189977Y-45089373D02*
X172870727Y-51181015D01*
X175174152Y-45443703D02*
X174881070Y-51036029D01*
D12*
X91462154Y-100739594D02*
X91462154Y-99012794D01*
X93862154Y-100739594D02*
X93862154Y-99012794D01*
X93862154Y-100739994D02*
X91462154Y-100739994D01*
X91462154Y-100181594D01*
X93862154Y-100181594D01*
X93862154Y-100739994D01*
G36*
X93862154Y-100739994D02*
G01*
X91462154Y-100739994D01*
X91462154Y-100181594D01*
X93862154Y-100181594D01*
X93862154Y-100739994D01*
G37*
X135228172Y-80138794D02*
X135228172Y-78411994D01*
X137628172Y-80138794D02*
X137628172Y-78411994D01*
X137628172Y-80139194D02*
X135228172Y-80139194D01*
X135228172Y-79580794D01*
X137628172Y-79580794D01*
X137628172Y-80139194D01*
G36*
X137628172Y-80139194D02*
G01*
X135228172Y-80139194D01*
X135228172Y-79580794D01*
X137628172Y-79580794D01*
X137628172Y-80139194D01*
G37*
X115403252Y-94067794D02*
X115403252Y-92340994D01*
X117803252Y-94067794D02*
X117803252Y-92340994D01*
X117803252Y-94068194D02*
X115403252Y-94068194D01*
X115403252Y-93509794D01*
X117803252Y-93509794D01*
X117803252Y-94068194D01*
G36*
X117803252Y-94068194D02*
G01*
X115403252Y-94068194D01*
X115403252Y-93509794D01*
X117803252Y-93509794D01*
X117803252Y-94068194D01*
G37*
D11*
X98638801Y-84347488D02*
X98673227Y-88292338D01*
X98673306Y-88301338D02*
X102283169Y-88269835D01*
X109521335Y-82298443D02*
X100896663Y-82373710D01*
X109555438Y-86206295D02*
X109521335Y-82298443D01*
X109555839Y-86252293D02*
X104506433Y-86342360D01*
X98649190Y-84277395D02*
G75*
G02*
X100896663Y-82373710I2075579J-171894D01*
G01*
X102287960Y-88245791D02*
G75*
G02*
X104531467Y-86346142I2071574J-171924D01*
G01*
X117602447Y-103926508D02*
X117602447Y-107871508D01*
X117602447Y-107880508D02*
X121212447Y-107880508D01*
X128502447Y-101972508D02*
X119877447Y-101972508D01*
X128502447Y-105880508D02*
X128502447Y-101972508D01*
X128502447Y-105926508D02*
X123452447Y-105972508D01*
X117613447Y-103856508D02*
G75*
G02*
X119877447Y-101972508I2074000J-190000D01*
G01*
X121217448Y-107856507D02*
G75*
G02*
X123477447Y-105976508I2069998J-189999D01*
G01*
D12*
X115403252Y-56187994D02*
X115403252Y-54461194D01*
X117803252Y-56187994D02*
X117803252Y-54461194D01*
X117803252Y-56188394D02*
X115403252Y-56188394D01*
X115403252Y-55629994D01*
X117803252Y-55629994D01*
X117803252Y-56188394D01*
G36*
X117803252Y-56188394D02*
G01*
X115403252Y-56188394D01*
X115403252Y-55629994D01*
X117803252Y-55629994D01*
X117803252Y-56188394D01*
G37*
D11*
X98305008Y-45486784D02*
X98339434Y-49431634D01*
X98339513Y-49440634D02*
X101949376Y-49409131D01*
X109187542Y-43437739D02*
X100562870Y-43513006D01*
X109221645Y-47345591D02*
X109187542Y-43437739D01*
X109222046Y-47391589D02*
X104172640Y-47481656D01*
X98315397Y-45416691D02*
G75*
G02*
X100562870Y-43513006I2075579J-171894D01*
G01*
X101954167Y-49385087D02*
G75*
G02*
X104197674Y-47485438I2071574J-171924D01*
G01*
D12*
X114497000Y-114690000D02*
X114497000Y-112963200D01*
X116897000Y-114690000D02*
X116897000Y-112963200D01*
X116897000Y-114690400D02*
X114497000Y-114690400D01*
X114497000Y-114132000D01*
X116897000Y-114132000D01*
X116897000Y-114690400D01*
G36*
X116897000Y-114690400D02*
G01*
X114497000Y-114690400D01*
X114497000Y-114132000D01*
X116897000Y-114132000D01*
X116897000Y-114690400D01*
G37*
D11*
X78568543Y-69747855D02*
X78775009Y-73687449D01*
X78775480Y-73696436D02*
X82380532Y-73507503D01*
X89351341Y-67226071D02*
X80738161Y-67677469D01*
X89555870Y-71128715D02*
X89351341Y-67226071D01*
X89558277Y-71174652D02*
X84517605Y-71484886D01*
X78575865Y-69677375D02*
G75*
G02*
X80738161Y-67677469I2081101J-81195D01*
G01*
X82384270Y-73483274D02*
G75*
G02*
X84542780Y-71487572I2077105J-81403D01*
G01*
D12*
X96379649Y-76397200D02*
X96379649Y-74670400D01*
X98779649Y-76397200D02*
X98779649Y-74670400D01*
X98779649Y-76397600D02*
X96379649Y-76397600D01*
X96379649Y-75839200D01*
X98779649Y-75839200D01*
X98779649Y-76397600D01*
G36*
X98779649Y-76397600D02*
G01*
X96379649Y-76397600D01*
X96379649Y-75839200D01*
X98779649Y-75839200D01*
X98779649Y-76397600D01*
G37*
X135228172Y-81624797D02*
X135228172Y-83351597D01*
X137628172Y-81624797D02*
X137628172Y-83351597D01*
X137628172Y-82182797D02*
X135228172Y-82182797D01*
X135228172Y-81624397D01*
X137628172Y-81624397D01*
X137628172Y-82182797D01*
G36*
X137628172Y-82182797D02*
G01*
X135228172Y-82182797D01*
X135228172Y-81624397D01*
X137628172Y-81624397D01*
X137628172Y-82182797D01*
G37*
X150105000Y-110056000D02*
X150105000Y-108329200D01*
X152505000Y-110056000D02*
X152505000Y-108329200D01*
X152505000Y-110056400D02*
X150105000Y-110056400D01*
X150105000Y-109498000D01*
X152505000Y-109498000D01*
X152505000Y-110056400D01*
G36*
X152505000Y-110056400D02*
G01*
X150105000Y-110056400D01*
X150105000Y-109498000D01*
X152505000Y-109498000D01*
X152505000Y-110056400D01*
G37*
X144339200Y-103656000D02*
X144339200Y-105382800D01*
X146739200Y-103656000D02*
X146739200Y-105382800D01*
X146739200Y-104214000D02*
X144339200Y-104214000D01*
X144339200Y-103655600D01*
X146739200Y-103655600D01*
X146739200Y-104214000D01*
G36*
X146739200Y-104214000D02*
G01*
X144339200Y-104214000D01*
X144339200Y-103655600D01*
X146739200Y-103655600D01*
X146739200Y-104214000D01*
G37*
D11*
X117514141Y-44794324D02*
X117514141Y-48739324D01*
X117514141Y-48748324D02*
X121124141Y-48748324D01*
X128414141Y-42840324D02*
X119789141Y-42840324D01*
X128414141Y-46748324D02*
X128414141Y-42840324D01*
X128414141Y-46794324D02*
X123364141Y-46840324D01*
X117525141Y-44724324D02*
G75*
G02*
X119789141Y-42840324I2074000J-190000D01*
G01*
X121129142Y-48724323D02*
G75*
G02*
X123389141Y-46844324I2069998J-189999D01*
G01*
D12*
X151319069Y-57286800D02*
X151319069Y-59013600D01*
X153719069Y-57286800D02*
X153719069Y-59013600D01*
X153719069Y-57844800D02*
X151319069Y-57844800D01*
X151319069Y-57286400D01*
X153719069Y-57286400D01*
X153719069Y-57844800D01*
G36*
X153719069Y-57844800D02*
G01*
X151319069Y-57844800D01*
X151319069Y-57286400D01*
X153719069Y-57286400D01*
X153719069Y-57844800D01*
G37*
X151555600Y-79959600D02*
X151555600Y-81686400D01*
X153955600Y-79959600D02*
X153955600Y-81686400D01*
X153955600Y-80517600D02*
X151555600Y-80517600D01*
X151555600Y-79959200D01*
X153955600Y-79959200D01*
X153955600Y-80517600D01*
G36*
X153955600Y-80517600D02*
G01*
X151555600Y-80517600D01*
X151555600Y-79959200D01*
X153955600Y-79959200D01*
X153955600Y-80517600D01*
G37*
X91462154Y-53551594D02*
X91462154Y-51824794D01*
X93862154Y-53551594D02*
X93862154Y-51824794D01*
X93862154Y-53551994D02*
X91462154Y-53551994D01*
X91462154Y-52993594D01*
X93862154Y-52993594D01*
X93862154Y-53551994D01*
G36*
X93862154Y-53551994D02*
G01*
X91462154Y-53551994D01*
X91462154Y-52993594D01*
X93862154Y-52993594D01*
X93862154Y-53551994D01*
G37*
X110455060Y-89383000D02*
X110455060Y-91109800D01*
X112855060Y-89383000D02*
X112855060Y-91109800D01*
X112855060Y-89941000D02*
X110455060Y-89941000D01*
X110455060Y-89382600D01*
X112855060Y-89382600D01*
X112855060Y-89941000D01*
G36*
X112855060Y-89941000D02*
G01*
X110455060Y-89941000D01*
X110455060Y-89382600D01*
X112855060Y-89382600D01*
X112855060Y-89941000D01*
G37*
X132921152Y-108278505D02*
X132921152Y-110005305D01*
X135321152Y-108278505D02*
X135321152Y-110005305D01*
X135321152Y-108836505D02*
X132921152Y-108836505D01*
X132921152Y-108278105D01*
X135321152Y-108278105D01*
X135321152Y-108836505D01*
G36*
X135321152Y-108836505D02*
G01*
X132921152Y-108836505D01*
X132921152Y-108278105D01*
X135321152Y-108278105D01*
X135321152Y-108836505D01*
G37*
D11*
X157087984Y-105166171D02*
X165701164Y-105617569D01*
X157292513Y-101263527D02*
X157087984Y-105166171D01*
X157294921Y-101217590D02*
X162340407Y-101435950D01*
X168075311Y-103785311D02*
X168281776Y-99845718D01*
X168282247Y-99836730D02*
X164677194Y-99647797D01*
X164670944Y-99671504D02*
G75*
G02*
X162315651Y-101430647I-2057217J298074D01*
G01*
X168060662Y-103854640D02*
G75*
G02*
X165701164Y-105617569I-2061214J298285D01*
G01*
X117514141Y-82794484D02*
X117514141Y-86739484D01*
X117514141Y-86748484D02*
X121124141Y-86748484D01*
X128414141Y-80840484D02*
X119789141Y-80840484D01*
X128414141Y-84748484D02*
X128414141Y-80840484D01*
X128414141Y-84794484D02*
X123364141Y-84840484D01*
X117525141Y-82724484D02*
G75*
G02*
X119789141Y-80840484I2074000J-190000D01*
G01*
X121129142Y-86724483D02*
G75*
G02*
X123389141Y-84844484I2069998J-189999D01*
G01*
X117514141Y-63794284D02*
X117514141Y-67739284D01*
X117514141Y-67748284D02*
X121124141Y-67748284D01*
X128414141Y-61840284D02*
X119789141Y-61840284D01*
X128414141Y-65748284D02*
X128414141Y-61840284D01*
X128414141Y-65794284D02*
X123364141Y-65840284D01*
X117525141Y-63724284D02*
G75*
G02*
X119789141Y-61840284I2074000J-190000D01*
G01*
X121129142Y-67724283D02*
G75*
G02*
X123389141Y-65844284I2069998J-189999D01*
G01*
X98472994Y-64848010D02*
X98507420Y-68792860D01*
X98507499Y-68801860D02*
X102117362Y-68770357D01*
X109355528Y-62798965D02*
X100730856Y-62874232D01*
X109389631Y-66706817D02*
X109355528Y-62798965D01*
X109390032Y-66752815D02*
X104340626Y-66842882D01*
X98483383Y-64777917D02*
G75*
G02*
X100730856Y-62874232I2075579J-171894D01*
G01*
X102122153Y-68746313D02*
G75*
G02*
X104365660Y-66846664I2071574J-171924D01*
G01*
D12*
X135228172Y-60707794D02*
X135228172Y-58980994D01*
X137628172Y-60707794D02*
X137628172Y-58980994D01*
X137628172Y-60708194D02*
X135228172Y-60708194D01*
X135228172Y-60149794D01*
X137628172Y-60149794D01*
X137628172Y-60708194D01*
G36*
X137628172Y-60708194D02*
G01*
X135228172Y-60708194D01*
X135228172Y-60149794D01*
X137628172Y-60149794D01*
X137628172Y-60708194D01*
G37*
D14*
X110576331Y-157364972D02*
X110576331Y-159044972D01*
X110576331Y-157364972D02*
X110576331Y-159044972D01*
X110576331Y-157364972D02*
X112336331Y-157364972D01*
X110576331Y-159044972D02*
X112036331Y-159044972D01*
X110576331Y-159044972D02*
X112036331Y-159044972D01*
X112336331Y-157364972D02*
X112336331Y-158744972D01*
X112336331Y-157364972D02*
X112336331Y-158744972D01*
X112336331Y-158744972D02*
X112036331Y-159044972D01*
X112336331Y-158744972D02*
X112036331Y-159044972D01*
D11*
X80410033Y-109490467D02*
G75*
G02*
X82131870Y-107246525I1982892J261051D01*
G01*
X84455236Y-124894244D02*
G75*
G02*
X82211294Y-123172406I-261052J1982890D01*
G01*
X98875589Y-105042173D02*
G75*
G02*
X101119531Y-106764010I261051J-1982892D01*
G01*
X102920793Y-120445949D02*
G75*
G02*
X101198955Y-122689891I-1982890J-261052D01*
G01*
D14*
X174614236Y-113898917D02*
X175158104Y-112225057D01*
X174614236Y-113898917D02*
X176212010Y-114418065D01*
X174614236Y-113898917D02*
X176212010Y-114418065D01*
X175158104Y-112225057D02*
X176470563Y-112651501D01*
X175158104Y-112225057D02*
X176470563Y-112651501D01*
X176212010Y-114418065D02*
X176663175Y-113029522D01*
X176212010Y-114418065D02*
X176663175Y-113029522D01*
X176470563Y-112651501D02*
X176663175Y-113029522D01*
X176470563Y-112651501D02*
X176663175Y-113029522D01*
%LPC*%
D15*
X83874371Y-110767606D02*
X82867063Y-110900221D01*
X82734448Y-109892913D01*
X83741756Y-109760298D01*
X83874371Y-110767606D01*
G36*
X83874371Y-110767606D02*
G01*
X82867063Y-110900221D01*
X82734448Y-109892913D01*
X83741756Y-109760298D01*
X83874371Y-110767606D01*
G37*
X85359654Y-122049456D02*
X84352346Y-122182070D01*
X84219732Y-121174762D01*
X85227040Y-121042148D01*
X85359654Y-122049456D01*
G36*
X85359654Y-122049456D02*
G01*
X84352346Y-122182070D01*
X84219732Y-121174762D01*
X85227040Y-121042148D01*
X85359654Y-122049456D01*
G37*
X86392641Y-110436070D02*
X85385333Y-110568684D01*
X85252718Y-109561376D01*
X86260026Y-109428762D01*
X86392641Y-110436070D01*
G36*
X86392641Y-110436070D02*
G01*
X85385333Y-110568684D01*
X85252718Y-109561376D01*
X86260026Y-109428762D01*
X86392641Y-110436070D01*
G37*
X87877924Y-121717919D02*
X86870616Y-121850534D01*
X86738002Y-120843226D01*
X87745310Y-120710611D01*
X87877924Y-121717919D01*
G36*
X87877924Y-121717919D02*
G01*
X86870616Y-121850534D01*
X86738002Y-120843226D01*
X87745310Y-120710611D01*
X87877924Y-121717919D01*
G37*
X88910911Y-110104533D02*
X87903603Y-110237148D01*
X87770988Y-109229840D01*
X88778296Y-109097225D01*
X88910911Y-110104533D01*
G36*
X88910911Y-110104533D02*
G01*
X87903603Y-110237148D01*
X87770988Y-109229840D01*
X88778296Y-109097225D01*
X88910911Y-110104533D01*
G37*
X90396194Y-121386383D02*
X89388886Y-121518997D01*
X89256272Y-120511689D01*
X90263580Y-120379075D01*
X90396194Y-121386383D01*
G36*
X90396194Y-121386383D02*
G01*
X89388886Y-121518997D01*
X89256272Y-120511689D01*
X90263580Y-120379075D01*
X90396194Y-121386383D01*
G37*
X91429181Y-109772997D02*
X90421873Y-109905611D01*
X90289258Y-108898303D01*
X91296566Y-108765689D01*
X91429181Y-109772997D01*
G36*
X91429181Y-109772997D02*
G01*
X90421873Y-109905611D01*
X90289258Y-108898303D01*
X91296566Y-108765689D01*
X91429181Y-109772997D01*
G37*
X92914464Y-121054846D02*
X91907156Y-121187461D01*
X91774542Y-120180153D01*
X92781850Y-120047538D01*
X92914464Y-121054846D01*
G36*
X92914464Y-121054846D02*
G01*
X91907156Y-121187461D01*
X91774542Y-120180153D01*
X92781850Y-120047538D01*
X92914464Y-121054846D01*
G37*
X93947451Y-109441460D02*
X92940143Y-109574075D01*
X92807528Y-108566767D01*
X93814836Y-108434152D01*
X93947451Y-109441460D01*
G36*
X93947451Y-109441460D02*
G01*
X92940143Y-109574075D01*
X92807528Y-108566767D01*
X93814836Y-108434152D01*
X93947451Y-109441460D01*
G37*
X95432734Y-120723310D02*
X94425426Y-120855924D01*
X94292812Y-119848616D01*
X95300120Y-119716002D01*
X95432734Y-120723310D01*
G36*
X95432734Y-120723310D02*
G01*
X94425426Y-120855924D01*
X94292812Y-119848616D01*
X95300120Y-119716002D01*
X95432734Y-120723310D01*
G37*
X96465721Y-109109924D02*
X95458413Y-109242538D01*
X95325798Y-108235230D01*
X96333106Y-108102616D01*
X96465721Y-109109924D01*
G36*
X96465721Y-109109924D02*
G01*
X95458413Y-109242538D01*
X95325798Y-108235230D01*
X96333106Y-108102616D01*
X96465721Y-109109924D01*
G37*
X97951004Y-120391773D02*
X96943696Y-120524388D01*
X96811082Y-119517080D01*
X97818390Y-119384465D01*
X97951004Y-120391773D01*
G36*
X97951004Y-120391773D02*
G01*
X96943696Y-120524388D01*
X96811082Y-119517080D01*
X97818390Y-119384465D01*
X97951004Y-120391773D01*
G37*
X98983990Y-108778387D02*
X97976683Y-108911002D01*
X97844068Y-107903694D01*
X98851376Y-107771079D01*
X98983990Y-108778387D01*
G36*
X98983990Y-108778387D02*
G01*
X97976683Y-108911002D01*
X97844068Y-107903694D01*
X98851376Y-107771079D01*
X98983990Y-108778387D01*
G37*
X100469274Y-120060237D02*
X99461966Y-120192851D01*
X99329352Y-119185543D01*
X100336660Y-119052929D01*
X100469274Y-120060237D01*
G36*
X100469274Y-120060237D02*
G01*
X99461966Y-120192851D01*
X99329352Y-119185543D01*
X100336660Y-119052929D01*
X100469274Y-120060237D01*
G37*
D16*
X130713952Y-70453994D03*
X130713952Y-73853994D03*
X116603252Y-70453994D03*
X116603252Y-73853994D03*
D17*
X129289258Y-108795618D03*
X118089258Y-108795618D03*
D18*
X121189258Y-116295618D03*
X126189258Y-116295618D03*
X123689258Y-116295618D03*
X126189257Y-101795618D03*
X121189259Y-101795618D03*
D19*
X159297816Y-110910179D03*
D20*
X161519585Y-121593588D03*
D21*
X163512330Y-119570355D03*
X165505075Y-117547124D03*
D22*
X166350952Y-123163394D03*
D21*
X170336442Y-119116930D03*
X170759380Y-121925065D03*
D20*
X171182319Y-124733200D03*
D23*
X160464949Y-118633616D03*
D24*
X173285386Y-120054702D03*
D16*
X97579649Y-94267594D03*
X97579649Y-90867594D03*
D20*
X119721849Y-152881991D03*
D21*
X120991849Y-150341990D03*
X122261849Y-147801991D03*
D22*
X124801849Y-152881991D03*
D21*
X127341849Y-147801991D03*
X128611849Y-150341991D03*
D20*
X129881849Y-152881991D03*
D25*
X117804149Y-150392791D03*
D26*
X130436249Y-147782591D03*
D20*
X140394959Y-55550694D03*
D21*
X141796152Y-53080641D03*
X143197345Y-50610590D03*
D22*
X145467997Y-55816561D03*
D21*
X148270383Y-50876456D03*
X149405709Y-53479442D03*
D20*
X150541035Y-56082428D03*
D27*
X138610162Y-52964541D03*
D28*
X151361557Y-51019031D03*
D20*
X139400576Y-74524649D03*
D21*
X140801769Y-72054596D03*
X142202962Y-69584545D03*
D22*
X144473614Y-74790516D03*
D21*
X147276000Y-69850411D03*
X148411326Y-72453397D03*
D20*
X149546652Y-75056383D03*
D27*
X137615779Y-71938496D03*
D28*
X150367174Y-69992986D03*
D19*
X111459625Y-145881102D03*
D29*
X156388527Y-56313600D03*
X156388527Y-59713600D03*
D20*
X142094023Y-116939015D03*
D21*
X143864369Y-114718567D03*
X145634709Y-112498120D03*
D22*
X147063013Y-117995206D03*
D21*
X150603699Y-113554312D03*
X151317851Y-116302855D03*
D20*
X152032003Y-119051397D03*
D30*
X140735763Y-114105497D03*
D31*
X153634513Y-114178698D03*
D20*
X148552282Y-94030077D03*
D21*
X147151089Y-96500130D03*
X145749896Y-98970181D03*
D22*
X143479244Y-93764210D03*
D21*
X140676858Y-98704315D03*
X139541532Y-96101329D03*
D20*
X138406206Y-93498343D03*
D32*
X150337079Y-96616230D03*
D33*
X137585684Y-98561740D03*
D20*
X90172244Y-54220154D03*
D21*
X88969169Y-56792529D03*
X87766094Y-59364903D03*
D22*
X85093985Y-54353133D03*
D21*
X82687834Y-59497882D03*
X81351780Y-56991997D03*
D20*
X80015726Y-54486112D03*
D34*
X92154447Y-56658302D03*
D35*
X79595002Y-59598277D03*
D16*
X156388527Y-84873000D03*
X156388527Y-81473000D03*
D29*
X148422100Y-105156000D03*
X148422100Y-108556000D03*
D20*
X158173324Y-79364504D03*
D21*
X159574517Y-76894451D03*
X160975710Y-74424400D03*
D22*
X163246362Y-79630371D03*
D21*
X166048748Y-74690266D03*
X167184074Y-77293252D03*
D20*
X168319400Y-79896238D03*
D27*
X156388527Y-76778351D03*
D28*
X169139922Y-74832841D03*
D20*
X169313483Y-60922109D03*
D21*
X167912290Y-63392162D03*
X166511097Y-65862213D03*
D22*
X164240445Y-60656242D03*
D21*
X161438059Y-65596347D03*
X160302733Y-62993361D03*
D20*
X159167407Y-60390375D03*
D32*
X171098280Y-63508262D03*
D33*
X158346885Y-65453772D03*
D16*
X97579649Y-55551594D03*
X97579649Y-52151594D03*
X92662154Y-78791194D03*
X92662154Y-75391194D03*
D20*
X80820793Y-93485870D03*
D21*
X81956119Y-90882883D03*
X83091445Y-88279898D03*
D22*
X85893831Y-93220003D03*
D21*
X88164483Y-88014032D03*
X89565676Y-90484084D03*
D20*
X90966869Y-92954136D03*
D36*
X78775446Y-91100446D03*
D37*
X91253627Y-87832710D03*
D38*
X171432545Y-48051456D03*
X164442138Y-47685105D03*
D39*
X162946301Y-45273514D03*
X162723958Y-49898215D03*
X166940819Y-45482858D03*
X166718476Y-50107559D03*
X169936708Y-45639865D03*
X169714365Y-50264567D03*
X161866211Y-45246950D03*
X161607063Y-49809640D03*
D19*
X97643152Y-99951194D03*
D16*
X92662154Y-99239594D03*
X92662154Y-95839594D03*
X136428172Y-78638794D03*
X136428172Y-75238794D03*
X116603252Y-92567794D03*
X116603252Y-89167794D03*
D20*
X99688064Y-89207627D03*
D21*
X100935851Y-86656640D03*
X102183637Y-84105655D03*
D22*
X104767871Y-89163296D03*
D21*
X107263443Y-84061324D03*
X108555561Y-86590145D03*
D20*
X109847678Y-89118965D03*
D40*
X97748715Y-86735256D03*
D41*
X110357556Y-84014921D03*
D20*
X118609258Y-108795618D03*
D21*
X119879258Y-106255617D03*
X121149258Y-103715618D03*
D22*
X123689258Y-108795618D03*
D21*
X126229258Y-103715618D03*
X127499258Y-106255618D03*
D20*
X128769258Y-108795618D03*
D25*
X116691558Y-106306418D03*
D26*
X129323658Y-103696218D03*
D16*
X116603252Y-54687994D03*
X116603252Y-51287994D03*
D20*
X99354271Y-50346923D03*
D21*
X100602058Y-47795936D03*
X101849844Y-45244951D03*
D22*
X104434078Y-50302592D03*
D21*
X106929650Y-45200620D03*
X108221768Y-47729441D03*
D20*
X109513885Y-50258261D03*
D40*
X97414922Y-47874552D03*
D41*
X110023763Y-45154217D03*
D19*
X156464000Y-49403000D03*
D16*
X115697000Y-113190000D03*
X115697000Y-109790000D03*
D20*
X79828804Y-74557600D03*
D21*
X80964130Y-71954613D03*
X82099456Y-69351628D03*
D22*
X84901842Y-74291733D03*
D21*
X87172494Y-69085762D03*
X88573687Y-71555814D03*
D20*
X89974880Y-74025866D03*
D36*
X77783457Y-72172176D03*
D37*
X90261638Y-68904440D03*
D16*
X97579649Y-74897200D03*
X97579649Y-71497200D03*
D29*
X136428172Y-83124797D03*
X136428172Y-86524797D03*
D16*
X151305000Y-108556000D03*
X151305000Y-105156000D03*
D29*
X145539200Y-105156000D03*
X145539200Y-108556000D03*
D20*
X118520952Y-49663434D03*
D21*
X119790952Y-47123433D03*
X121060952Y-44583434D03*
D22*
X123600952Y-49663434D03*
D21*
X126140952Y-44583434D03*
X127410952Y-47123434D03*
D20*
X128680952Y-49663434D03*
D25*
X116603252Y-47174234D03*
D26*
X129235352Y-44564034D03*
D29*
X152519069Y-58786800D03*
X152519069Y-62186800D03*
X152755600Y-81459600D03*
X152755600Y-84859600D03*
D16*
X92662154Y-52051594D03*
X92662154Y-48651594D03*
D29*
X111655060Y-90883000D03*
X111655060Y-94283000D03*
D19*
X93573600Y-43891200D03*
D29*
X134121152Y-109778505D03*
X134121152Y-113178505D03*
D20*
X167324709Y-98870182D03*
D21*
X165923516Y-101340235D03*
X164522323Y-103810286D03*
D22*
X162251671Y-98604315D03*
D21*
X159449285Y-103544420D03*
X158313959Y-100941434D03*
D20*
X157178633Y-98338448D03*
D32*
X169109506Y-101456335D03*
D33*
X156358111Y-103401845D03*
D20*
X118520952Y-87663594D03*
D21*
X119790952Y-85123593D03*
X121060952Y-82583594D03*
D22*
X123600952Y-87663594D03*
D21*
X126140952Y-82583594D03*
X127410952Y-85123594D03*
D20*
X128680952Y-87663594D03*
D25*
X116603252Y-85174394D03*
D26*
X129235352Y-82564194D03*
D20*
X118520952Y-68663394D03*
D21*
X119790952Y-66123393D03*
X121060952Y-63583394D03*
D22*
X123600952Y-68663394D03*
D21*
X126140952Y-63583394D03*
X127410952Y-66123394D03*
D20*
X128680952Y-68663394D03*
D25*
X116603252Y-66174194D03*
D26*
X129235352Y-63563994D03*
D20*
X99522257Y-69708149D03*
D21*
X100770044Y-67157162D03*
X102017830Y-64606177D03*
D22*
X104602064Y-69663818D03*
D21*
X107097636Y-64561846D03*
X108389754Y-67090667D03*
D20*
X109681871Y-69619487D03*
D40*
X97582908Y-67235778D03*
D41*
X110191749Y-64515443D03*
D16*
X136428172Y-59207794D03*
X136428172Y-55807794D03*
D42*
X111456331Y-157229972D03*
X111456331Y-157229972D03*
D43*
X110440331Y-158204972D03*
D44*
X112472331Y-158204972D03*
D45*
X111456331Y-159204972D03*
D46*
X98170050Y-106487832D03*
X95651780Y-106819368D03*
X93133510Y-107150905D03*
X90615240Y-107482441D03*
X88096970Y-107813978D03*
X85578700Y-108145514D03*
X83060430Y-108477051D03*
D47*
X95862606Y-108420750D03*
X93344336Y-108752287D03*
X90826066Y-109083823D03*
X88307796Y-109415360D03*
X85789526Y-109746896D03*
X83271256Y-110078433D03*
X98380876Y-108089216D03*
D48*
X99932466Y-119874717D03*
X97414198Y-120206253D03*
X94895927Y-120537790D03*
X92377657Y-120869326D03*
X89859387Y-121200863D03*
X87341117Y-121532400D03*
X84822847Y-121863936D03*
D46*
X100141335Y-121461227D03*
X97623065Y-121792763D03*
X95104795Y-122124300D03*
X92586525Y-122455837D03*
X90068255Y-122787373D03*
X87549985Y-123118910D03*
X85031715Y-123450446D03*
D49*
X84690232Y-120856628D03*
X87208502Y-120525092D03*
X89726772Y-120193555D03*
X92245042Y-119862019D03*
X94763312Y-119530482D03*
X97281582Y-119198945D03*
X99799852Y-118867409D03*
D50*
X98513490Y-109096522D03*
X95995220Y-109428058D03*
X93476950Y-109759595D03*
X90958680Y-110091131D03*
X88440410Y-110422668D03*
X85922140Y-110754204D03*
X83403869Y-111085741D03*
D51*
X174757777Y-113020269D03*
X174757777Y-113020269D03*
D52*
X175371096Y-114287834D03*
D53*
X175999018Y-112355288D03*
D54*
X176636114Y-113630578D03*
D55*
X118948200Y-72745600D03*
X114731800Y-71577200D03*
X92024200Y-80252780D03*
X134424800Y-84802600D03*
X152501600Y-77488002D03*
X85908352Y-112549594D03*
X130510348Y-47148837D03*
X111321267Y-47727795D03*
X90902584Y-59308180D03*
X152499528Y-53667020D03*
X88448352Y-112168594D03*
X89357200Y-100939600D03*
X111489253Y-67089022D03*
X130510348Y-66148797D03*
X169642369Y-66051751D03*
X78946502Y-69491433D03*
X153466800Y-67945000D03*
X91846400Y-101650800D03*
X113690400Y-110896400D03*
X90958680Y-111533594D03*
X111655060Y-86588500D03*
X79938491Y-88419703D03*
X151505145Y-72640975D03*
X170277893Y-77480830D03*
X167653595Y-103999824D03*
X148881168Y-99159719D03*
X143560800Y-105714800D03*
X130598654Y-106281021D03*
X130510348Y-85148997D03*
X93469853Y-111159691D03*
X173699232Y-122906991D03*
X142553006Y-111817116D03*
X94742000Y-101219000D03*
X99136200Y-76682600D03*
X95995220Y-110923994D03*
X96012000Y-115316000D03*
X136423400Y-67233800D03*
X78252781Y-57047736D03*
X98712842Y-45246926D03*
X117924052Y-44558034D03*
X140066073Y-50421052D03*
X157208914Y-62805783D03*
X91670165Y-71418972D03*
X98861778Y-64608318D03*
X117924052Y-63557994D03*
X139071690Y-69395007D03*
X157844438Y-74234862D03*
X92662154Y-90347242D03*
X99027585Y-84107796D03*
X117924052Y-82558194D03*
X136447713Y-95913751D03*
X155220140Y-100753856D03*
X118012358Y-103690218D03*
X172974000Y-113020269D03*
X154344236Y-116972103D03*
X162511437Y-116547725D03*
D38*
X87208502Y-118772594D03*
D55*
X92245042Y-118442394D03*
X101580152Y-102338794D03*
X83403869Y-112676594D03*
X101580152Y-110794800D03*
X101580152Y-106529794D03*
X101580152Y-105132794D03*
X99799852Y-117781994D03*
D38*
X89726772Y-112725200D03*
X154432000Y-91440000D03*
X89726772Y-118467794D03*
D55*
X133406352Y-90908794D03*
X140182600Y-46609000D03*
X98513490Y-110794800D03*
X84683600Y-119430800D03*
X119105899Y-147776591D03*
X131711245Y-150367395D03*
X101580152Y-103735794D03*
X94763312Y-118237000D03*
X100056152Y-105132794D03*
X97281582Y-117908994D03*
%LPD*%
M02*
