M48
; DRILL file {KiCad 9.0.2} date 2026-01-21T12:12:22+0800
; FORMAT={-:-/ absolute / inch / decimal}
; #@! TF.CreationDate,2026-01-21T12:12:22+08:00
; #@! TF.GenerationSoftware,Kicad,Pcbnew,9.0.2
; #@! TF.FileFunction,Plated,1,2,PTH
FMAT,2
INCH
; #@! TA.AperFunction,Plated,PTH,ViaDrill
T1C0.0118
; #@! TA.AperFunction,Plated,PTH,ComponentDrill
T2C0.0118
; #@! TA.AperFunction,Plated,PTH,ViaDrill
T3C0.0157
; #@! TA.AperFunction,Plated,PTH,ComponentDrill
T4C0.0354
; #@! TA.AperFunction,Plated,PTH,ComponentDrill
T5C0.0394
; #@! TA.AperFunction,Plated,PTH,ComponentDrill
T6C0.0433
%
G90
G05
T1
X3.0808Y-2.246
X3.1081Y-2.7359
X3.1472Y-3.4811
X3.2836Y-4.4361
X3.334Y-4.702
X3.3822Y-4.4311
X3.4822Y-4.4161
X3.518Y-3.974
X3.5788Y-2.335
X3.5811Y-4.3911
X3.6091Y-2.8118
X3.616Y-4.002
X3.623Y-3.1596
X3.6317Y-4.6631
X3.6481Y-3.557
X3.6799Y-4.3764
X3.73Y-3.985
X3.7308Y-4.655
X3.7793Y-4.3671
X3.78Y-4.54
X3.83Y-4.6421
X3.8785Y-4.362
X3.8863Y-1.7814
X3.8922Y-2.5436
X3.8987Y-3.3113
X3.903Y-3.019
X3.9291Y-4.6371
X3.9392Y-4.1391
X3.9992Y-4.0291
X3.9992Y-4.0841
X3.9992Y-4.1391
X3.9992Y-4.1941
X3.9992Y-4.362
X4.3827Y-1.879
X4.3893Y-2.6413
X4.3959Y-3.409
X4.476Y-4.366
X4.517Y-2.818
X4.6427Y-1.7543
X4.6427Y-2.5023
X4.6427Y-3.2503
X4.6462Y-4.0823
X4.683Y-2.864
X4.6892Y-5.818
X5.1382Y-1.8563
X5.1382Y-2.6043
X5.1382Y-3.3523
X5.1417Y-4.1843
X5.1855Y-5.92
X5.2522Y-3.5791
X5.2923Y-3.3387
X5.371Y-2.647
X5.372Y-3.7761
X5.4753Y-2.7321
X5.5144Y-1.9851
X5.519Y-1.835
X5.6123Y-4.4022
X5.652Y-4.162
X5.8615Y-3.9039
X5.9648Y-2.8599
X6.0039Y-2.1129
X6.004Y-3.0507
X6.042Y-2.675
X6.0765Y-4.6052
X6.111Y-3.9667
X6.1893Y-2.4727
X6.2143Y-2.9226
X6.3981Y-4.5885
X6.6005Y-4.0945
X6.6788Y-2.6005
X6.7039Y-3.0504
X6.81Y-4.4496
X6.8386Y-4.8389
T2
X3.6481Y-1.9154
X3.6481Y-2.0493
X3.6481Y-2.9682
X3.6481Y-3.102
X3.6481Y-3.7732
X3.6481Y-3.9071
X3.8417Y-2.0532
X3.8417Y-2.1871
X3.8417Y-2.8149
X3.8417Y-2.9487
X3.8417Y-3.5775
X3.8417Y-3.7113
X4.3959Y-3.5781
X4.3959Y-3.7119
X4.555Y-4.3224
X4.555Y-4.4563
X4.5907Y-2.0192
X4.5907Y-2.1531
X4.5907Y-2.7738
X4.5907Y-2.9076
X4.5907Y-3.5105
X4.5907Y-3.6444
X5.1462Y-2.7738
X5.1462Y-2.9076
X5.2804Y-4.322
X5.2804Y-4.4558
X5.3712Y-2.1972
X5.3712Y-2.331
X5.3712Y-2.9622
X5.3712Y-3.096
X5.3712Y-3.2726
X5.3712Y-3.4065
X5.7299Y-4.14
X5.7299Y-4.2739
X5.8434Y-4.14
X5.8434Y-4.2739
X5.9569Y-4.14
X5.9569Y-4.2739
X6.0047Y-2.3144
X6.0047Y-2.4483
X6.014Y-3.2071
X6.014Y-3.3409
X6.157Y-2.2171
X6.157Y-2.3509
X6.157Y-3.2076
X6.157Y-3.3415
T3
X3.4334Y-4.6761
X3.5326Y-4.438
X3.5326Y-4.6641
X6.08Y-3.6
T5
X4.7712Y-4.5786
X4.7712Y-4.0077
X4.8697Y-4.5786
X4.9681Y-4.0077
X4.9681Y-4.5786
T6
X3.2701Y-4.2708
X3.3477Y-4.8603
X3.3692Y-4.2577
X3.4468Y-4.8472
X3.4684Y-4.2446
X3.546Y-4.8341
X3.5675Y-4.2316
X3.6451Y-4.8211
X3.6667Y-4.2185
X3.7443Y-4.808
X3.7658Y-4.2055
X3.8434Y-4.795
X3.865Y-4.1924
X3.9426Y-4.7819
T4
G00X6.3546Y-1.9606
M15
G01X6.3703Y-1.9614
M16
G05
G00X6.3805Y-1.7818
M15
G01X6.3648Y-1.781
M16
G05
G00X6.4143Y-1.9649
M15
G01X6.3986Y-1.9641
M16
G05
G00X6.4073Y-1.782
M15
G01X6.4231Y-1.7828
M16
G05
G00X6.5716Y-1.9732
M15
G01X6.5559Y-1.9723
M16
G05
G00X6.5646Y-1.7903
M15
G01X6.5803Y-1.7911
M16
G05
G00X6.6895Y-1.9793
M15
G01X6.6738Y-1.9785
M16
G05
G00X6.6826Y-1.7964
M15
G01X6.6983Y-1.7973
M16
G05
M30
