G04 #@! TF.GenerationSoftware,KiCad,Pcbnew,9.0.2*
G04 #@! TF.CreationDate,2026-01-21T12:12:24+08:00*
G04 #@! TF.ProjectId,36_split_v3,33365f73-706c-4697-945f-76332e6b6963,rev?*
G04 #@! TF.SameCoordinates,Original*
G04 #@! TF.FileFunction,Profile,NP*
%FSLAX46Y46*%
G04 Gerber Fmt 4.6, Leading zero omitted, Abs format (unit mm)*
G04 Created by KiCad (PCBNEW 9.0.2) date 2026-01-21 12:12:24*
%MOMM*%
%LPD*%
G01*
G04 APERTURE LIST*
G04 #@! TA.AperFunction,Profile*
%ADD10C,0.150000*%
G04 #@! TD*
G04 APERTURE END LIST*
D10*
X90155062Y-42089937D02*
G75*
G02*
X92336241Y-40177140I2181138J-287163D01*
G01*
X78347327Y-107879784D02*
G75*
G02*
X78993018Y-107038327I743573J97884D01*
G01*
X108919625Y-145879382D02*
G75*
G02*
X111459614Y-143339325I2540075J-18D01*
G01*
X80349641Y-105851076D02*
G75*
G02*
X80480183Y-106842521I65259J-495724D01*
G01*
X174390237Y-132399728D02*
G75*
G02*
X169097921Y-135096320I-3994437J1297828D01*
G01*
X134205628Y-160139297D02*
G75*
G02*
X132005629Y-162343025I-2203828J97D01*
G01*
X80480182Y-106842516D02*
X78993015Y-107038305D01*
X172657292Y-109985816D02*
G75*
G02*
X171898757Y-108882089I339908J1046116D01*
G01*
X76389291Y-105176105D02*
X73413226Y-48389405D01*
X135408520Y-44380342D02*
G75*
G02*
X136157492Y-43669592I748980J-39258D01*
G01*
X104966625Y-120550464D02*
G75*
G02*
X103072604Y-123018816I-2181225J-287136D01*
G01*
X180132198Y-114727789D02*
X174390237Y-132399728D01*
X132077680Y-40177094D02*
X92336241Y-40177094D01*
X106000832Y-118878618D02*
X134782279Y-118878618D01*
X136762454Y-126534733D02*
G75*
G02*
X135067956Y-123925407I457446J2151933D01*
G01*
X111119625Y-162343102D02*
G75*
G02*
X108919598Y-160143102I-25J2200002D01*
G01*
X102521359Y-123091372D02*
X82908885Y-125673402D01*
X154619783Y-130392061D02*
X169097929Y-135096295D01*
X134782279Y-118878618D02*
G75*
G02*
X135858240Y-120207321I21J-1099982D01*
G01*
X90033516Y-43013172D02*
X90155062Y-42089937D01*
X102521359Y-123091372D02*
X103072602Y-123018799D01*
X178719714Y-111955628D02*
G75*
G02*
X180132211Y-114727793I-679914J-2092372D01*
G01*
X172997935Y-43669594D02*
X136157500Y-43669594D01*
X178719714Y-111955628D02*
X172657292Y-109985816D01*
X134277680Y-46876916D02*
X134277680Y-42377094D01*
X175194920Y-45984729D02*
X171898719Y-108882087D01*
X80440548Y-123779382D02*
X78347327Y-107879784D01*
X88942927Y-43969594D02*
X77607471Y-43969594D01*
X104910243Y-120122196D02*
G75*
G02*
X106000832Y-118878630I1090557J143596D01*
G01*
X153507644Y-130094063D02*
G75*
G02*
X154619783Y-130392060I-2287044J-10759637D01*
G01*
X132005631Y-143339297D02*
X111459614Y-143339382D01*
X135067938Y-123925403D02*
X135858241Y-120207321D01*
X172997935Y-43669594D02*
G75*
G02*
X175194892Y-45984728I-35J-2200006D01*
G01*
X135408520Y-44380342D02*
X135277680Y-46876916D01*
X153507644Y-130094063D02*
X136762454Y-126534733D01*
X132005629Y-162343102D02*
X111119600Y-162343102D01*
X132077680Y-40177094D02*
G75*
G02*
X134277706Y-42377094I20J-2200006D01*
G01*
X104966625Y-120550464D02*
X104910243Y-120122196D01*
X82908885Y-125673402D02*
G75*
G02*
X80440584Y-123779377I-287185J2181102D01*
G01*
X90033516Y-43013172D02*
G75*
G02*
X88942927Y-43969539I-1090616J143672D01*
G01*
X135277680Y-46876916D02*
G75*
G02*
X134277680Y-46876916I-500000J0D01*
G01*
X134205629Y-145539298D02*
X134205628Y-160139297D01*
X108919625Y-160143102D02*
X108919625Y-145879382D01*
X77611686Y-106211534D02*
G75*
G02*
X76389292Y-105176384I-123886J1093034D01*
G01*
X132005627Y-143339297D02*
G75*
G02*
X134205603Y-145539298I-27J-2200003D01*
G01*
X80349641Y-105851076D02*
X77611683Y-106211534D01*
X73413226Y-48389405D02*
G75*
G02*
X77607471Y-43969570I4194274J219805D01*
G01*
M02*
