M48
; DRILL file {KiCad 9.0.2} date 2026-01-21T12:12:22+0800
; FORMAT={-:-/ absolute / inch / decimal}
; #@! TF.CreationDate,2026-01-21T12:12:22+08:00
; #@! TF.GenerationSoftware,Kicad,Pcbnew,9.0.2
; #@! TF.FileFunction,NonPlated,1,2,NPTH
FMAT,2
INCH
; #@! TA.AperFunction,NonPlated,NPTH,ComponentDrill
T1C0.0315
; #@! TA.AperFunction,NonPlated,NPTH,ComponentDrill
T2C0.0591
; #@! TA.AperFunction,NonPlated,NPTH,ComponentDrill
T3C0.0669
; #@! TA.AperFunction,NonPlated,NPTH,ComponentDrill
T4C0.1181
; #@! TA.AperFunction,NonPlated,NPTH,ComponentDrill
T5C0.1260
; #@! TA.AperFunction,NonPlated,NPTH,ComponentDrill
T6C0.1575
%
G90
G05
T1
X6.4741Y-1.8774
X6.7493Y-1.8918
T3
X3.1429Y-2.9353
X3.1502Y-2.1451
X3.1819Y-3.6805
X3.5423Y-2.9144
X3.5501Y-2.1347
X3.5814Y-3.6596
X3.9116Y-1.9822
X3.9182Y-2.7444
X3.9247Y-3.5121
X4.3116Y-1.9787
X4.3182Y-2.7409
X4.3247Y-3.5086
X4.6662Y-1.9553
X4.6662Y-2.7033
X4.6662Y-3.4513
X4.6697Y-4.2833
X4.7135Y-6.019
X5.0662Y-1.9553
X5.0662Y-2.7033
X5.0662Y-3.4513
X5.0697Y-4.2833
X5.1135Y-6.019
X5.4491Y-3.681
X5.4882Y-2.934
X5.5274Y-2.187
X5.5943Y-4.6039
X5.8485Y-3.702
X5.8877Y-2.955
X5.9268Y-2.208
X5.9855Y-4.6871
X6.1881Y-3.8716
X6.2273Y-3.1246
X6.2664Y-2.3776
X6.359Y-4.7871
X6.5876Y-3.8925
X6.6267Y-3.1455
X6.6659Y-2.3985
X6.7395Y-4.9108
T4
X3.1876Y-2.8329
X3.2028Y-2.2438
X3.2266Y-3.5781
X3.2323Y-2.7304
X3.2554Y-2.3424
X3.2713Y-3.4756
X3.432Y-2.7199
X3.4554Y-2.3372
X3.471Y-3.4651
X3.4872Y-2.8172
X3.5027Y-2.2359
X3.5262Y-3.5624
X3.9607Y-1.8817
X3.9673Y-2.644
X3.9739Y-3.4117
X4.0098Y-1.7813
X4.0164Y-2.5436
X4.023Y-3.3112
X4.2098Y-1.7796
X4.2164Y-2.5418
X4.223Y-3.3095
X4.2607Y-1.8791
X4.2673Y-2.6414
X4.2738Y-3.4091
X4.7162Y-1.8553
X4.7162Y-2.6033
X4.7162Y-3.3513
X4.7197Y-4.1833
X4.7635Y-5.919
X4.7662Y-1.7553
X4.7662Y-2.5033
X4.7662Y-3.2513
X4.7697Y-4.0833
X4.8135Y-5.819
X4.9662Y-1.7553
X4.9662Y-2.5033
X4.9662Y-3.2513
X4.9697Y-4.0833
X5.0135Y-5.819
X5.0162Y-1.8553
X5.0162Y-2.6033
X5.0162Y-3.3513
X5.0197Y-4.1833
X5.0635Y-5.919
X5.4938Y-3.7835
X5.5385Y-3.886
X5.5434Y-2.8368
X5.5825Y-2.0898
X5.5985Y-2.7395
X5.6377Y-1.9925
X5.664Y-4.5165
X5.7336Y-4.4291
X5.7382Y-3.8965
X5.7933Y-3.7992
X5.7983Y-2.75
X5.8374Y-2.003
X5.843Y-2.8525
X5.8821Y-2.1055
X5.9293Y-4.4706
X5.9574Y-4.5789
X6.2328Y-3.9741
X6.2775Y-4.0766
X6.2825Y-3.0273
X6.3111Y-2.4801
X6.3376Y-2.9301
X6.3558Y-2.5825
X6.4375Y-4.7075
X6.4773Y-4.087
X6.5159Y-4.6278
X6.5324Y-3.9898
X6.5374Y-2.9406
X6.5556Y-2.593
X6.5821Y-3.043
X6.6107Y-2.4958
X6.7062Y-4.6896
X6.7228Y-4.8002
T5
X3.684Y-1.728
X3.8442Y-3.9351
X4.3882Y-5.7434
X6.16Y-1.945
X6.2716Y-4.3665
T6
X3.3426Y-2.9249
X3.3502Y-2.1399
X3.3816Y-3.6701
X4.1116Y-1.9804
X4.1182Y-2.7427
X4.1247Y-3.5104
X4.8662Y-1.9553
X4.8662Y-2.7033
X4.8662Y-3.4513
X4.8697Y-4.2833
X4.9135Y-6.019
X5.6488Y-3.6915
X5.6879Y-2.9445
X5.7271Y-2.1975
X5.7899Y-4.6455
X6.3879Y-3.8821
X6.427Y-3.1351
X6.4662Y-2.388
X6.5493Y-4.849
T2
G00X4.6492Y-4.3089
M15
G01X4.6492Y-4.2577
M16
G05
G00X5.0901Y-4.3089
M15
G01X5.0901Y-4.2577
M16
G05
M30
