G04 #@! TF.GenerationSoftware,KiCad,Pcbnew,7.0.5*
G04 #@! TF.CreationDate,2024-01-08T16:38:30+08:00*
G04 #@! TF.ProjectId,awkb_v2_mx,61776b62-5f76-4325-9f6d-782e6b696361,rev?*
G04 #@! TF.SameCoordinates,Original*
G04 #@! TF.FileFunction,Legend,Top*
G04 #@! TF.FilePolarity,Positive*
%FSLAX46Y46*%
G04 Gerber Fmt 4.6, Leading zero omitted, Abs format (unit mm)*
G04 Created by KiCad (PCBNEW 7.0.5) date 2024-01-08 16:38:30*
%MOMM*%
%LPD*%
G01*
G04 APERTURE LIST*
G04 Aperture macros list*
%AMRoundRect*
0 Rectangle with rounded corners*
0 $1 Rounding radius*
0 $2 $3 $4 $5 $6 $7 $8 $9 X,Y pos of 4 corners*
0 Add a 4 corners polygon primitive as box body*
4,1,4,$2,$3,$4,$5,$6,$7,$8,$9,$2,$3,0*
0 Add four circle primitives for the rounded corners*
1,1,$1+$1,$2,$3*
1,1,$1+$1,$4,$5*
1,1,$1+$1,$6,$7*
1,1,$1+$1,$8,$9*
0 Add four rect primitives between the rounded corners*
20,1,$1+$1,$2,$3,$4,$5,0*
20,1,$1+$1,$4,$5,$6,$7,0*
20,1,$1+$1,$6,$7,$8,$9,0*
20,1,$1+$1,$8,$9,$2,$3,0*%
%AMHorizOval*
0 Thick line with rounded ends*
0 $1 width*
0 $2 $3 position (X,Y) of the first rounded end (center of the circle)*
0 $4 $5 position (X,Y) of the second rounded end (center of the circle)*
0 Add line between two ends*
20,1,$1,$2,$3,$4,$5,0*
0 Add two circle primitives to create the rounded ends*
1,1,$1,$2,$3*
1,1,$1,$4,$5*%
%AMFreePoly0*
4,1,37,1.246537,1.440756,1.265589,1.436966,1.337677,1.407108,1.353828,1.396317,1.409017,1.341128,1.419808,1.324977,1.449666,1.252889,1.453456,1.233837,1.457300,1.194816,1.457300,-0.746760,1.437494,-0.833537,1.398722,-0.888181,0.900881,-1.386021,0.825516,-1.433377,0.759460,-1.444600,-1.207516,-1.444600,-1.246537,-1.440756,-1.265589,-1.436966,-1.337677,-1.407108,-1.353828,-1.396317,
-1.409017,-1.341128,-1.419808,-1.324977,-1.449666,-1.252889,-1.453456,-1.233837,-1.457300,-1.194816,-1.457301,1.194816,-1.453456,1.233837,-1.449666,1.252889,-1.419808,1.324977,-1.409017,1.341128,-1.353828,1.396317,-1.337677,1.407108,-1.265589,1.436966,-1.246537,1.440756,-1.207516,1.444600,1.207516,1.444600,1.246537,1.440756,1.246537,1.440756,$1*%
%AMFreePoly1*
4,1,414,-2.663564,6.707050,-2.641221,6.706150,-2.627714,6.704682,-2.557310,6.692154,-2.496946,6.671026,-2.423852,6.631355,-2.413687,6.625023,-2.398814,6.614472,-2.158972,6.440888,-1.894926,6.250226,-1.604825,6.041150,-1.340970,5.851270,-1.340970,5.851269,-0.908659,5.540346,1.016000,5.540345,1.102777,5.520541,1.172366,5.465043,1.210986,5.384850,1.216000,5.340346,1.216000,4.009931,
1.299751,3.950054,1.397604,3.879440,1.472196,3.823385,1.475820,3.820528,1.531511,3.774507,1.538834,3.767818,1.574924,3.731412,1.599100,3.701843,1.617824,3.673864,1.642241,3.623128,1.650707,3.596451,1.659584,3.549979,1.661424,3.523819,1.657476,3.467890,1.643544,3.402871,1.621142,3.344696,1.575521,3.265763,1.570063,3.257327,1.474398,3.124598,1.474399,3.124598,
1.399655,3.020777,1.341070,2.939228,1.295956,2.876188,1.262955,2.829761,1.239581,2.796469,1.228629,2.780518,1.228382,2.778534,1.226098,2.749223,1.223899,2.705055,1.221971,2.645262,1.220353,2.568240,1.219044,2.472608,1.218021,2.356402,1.217250,2.217703,1.216700,2.054330,1.216701,2.054330,1.216336,1.864310,1.216122,1.646064,1.216022,1.397277,1.216000,1.156191,
1.216000,-0.508000,1.196194,-0.594777,1.140698,-0.664366,1.060504,-0.702986,1.016000,-0.708000,-1.300867,-0.708000,-1.317305,-0.721955,-1.374130,-0.762724,-1.456184,-0.797217,-1.462328,-0.798196,-1.521438,-0.806672,-1.610148,-0.799384,-1.618523,-0.796529,-1.683626,-0.772720,-1.726325,-0.750993,-1.765907,-0.724447,-1.770550,-0.721139,-1.786681,-0.708933,-4.832406,-0.708000,-4.919177,-0.688166,
-4.988750,-0.632650,-5.027344,-0.552444,-5.032345,-0.508064,-5.032395,-0.352086,-5.032421,-0.271829,-3.059387,-0.271830,-2.944889,-0.271615,-2.944888,-0.271615,-2.758679,-0.271042,-2.580739,-0.270256,-2.580738,-0.270256,-2.414939,-0.269261,-2.414940,-0.269261,-2.402157,-0.269159,-2.423194,-0.254061,-2.551428,-0.161856,-2.680405,-0.068976,-2.801942,0.018686,-2.907841,0.095225,-2.951636,0.126949,
-3.041522,0.192069,-3.054493,0.201448,-3.054493,-0.250384,-3.059387,-0.271830,-5.032421,-0.271829,-5.033035,1.627051,-5.116088,1.686225,-5.284226,1.806363,-5.425283,1.907915,-5.540186,1.991566,-5.630162,2.058240,-5.695871,2.108467,-5.698372,2.110442,-5.741778,2.145869,-5.747390,2.150809,-5.763238,2.165850,-5.804603,2.221793,-5.831146,2.275116,-5.852084,2.361626,-5.851576,2.378731,
-5.846892,2.443206,-5.827099,2.516549,-5.820642,2.529758,-5.788356,2.595805,-5.784989,2.601633,-4.580894,2.601633,-4.580837,2.458573,-4.580478,2.346570,-4.579555,2.262461,-4.577881,2.203736,-4.577285,2.194667,-4.548415,2.172831,-4.483289,2.124673,-4.404467,2.067194,-4.317291,2.004343,-4.304320,1.995049,-3.789717,1.626690,-3.693155,1.557418,-3.588658,1.482202,-3.493513,1.413516,
-3.493469,1.417579,-3.492215,1.570234,-3.491128,1.743282,-3.490225,1.934674,-3.489527,2.141404,-3.489052,2.361431,-3.488816,2.592405,-3.488794,2.690627,-3.488794,4.145613,-3.780439,4.145613,-3.797838,4.121466,-3.833847,4.071538,-3.884822,4.000919,-3.945645,3.916699,-4.011204,3.825953,-4.061105,3.756906,-4.138874,3.649180,-4.227667,3.525969,-4.318193,3.400180,-4.401743,3.283907,
-4.432523,3.241007,-4.580894,3.034101,-4.580894,2.601633,-5.784989,2.601633,-5.781445,2.607769,-5.775409,2.616730,-5.747746,2.656569,-5.702905,2.720059,-5.642947,2.804351,-5.569964,2.906530,-5.486213,3.023444,-5.393993,3.151881,-5.295612,3.288617,-5.193407,3.430389,-5.157803,3.479711,-5.032345,3.653438,-5.032345,4.562763,-3.478749,4.562763,-3.254493,4.562763,-3.167716,4.542957,
-3.098127,4.487461,-3.059507,4.407267,-3.054493,4.362825,-3.053482,1.095367,-2.755790,0.881825,-2.538863,0.726188,-2.348318,0.589414,-2.182662,0.470425,-2.040390,0.368136,-1.919993,0.281460,-1.830611,0.216986,-1.818379,1.744532,-1.390887,1.744532,-1.390887,0.872621,-1.390687,0.684777,-1.390113,0.507776,-1.389488,0.395984,-1.362208,0.434001,-1.282405,0.545014,-1.202983,0.655306,
-1.126858,0.760817,-1.056931,0.857505,-0.996121,0.941303,-0.964901,0.984151,-0.913707,1.054538,-0.851488,1.140514,-0.788030,1.228536,-0.750017,1.281458,-0.468879,1.673602,-0.418955,1.742967,-0.420240,1.742985,-0.587428,1.744095,-0.788602,1.744526,-0.788601,1.744526,-0.819150,1.744532,-1.390887,1.744532,-1.818379,1.744532,-1.816764,1.946135,-1.816608,1.965721,-1.796105,2.052336,
-1.740054,2.121479,-1.659553,2.159454,-1.617377,2.164117,-0.111097,2.169868,0.138817,2.516086,0.227450,2.638853,0.320064,2.767098,0.411852,2.894166,0.498011,3.013410,0.573742,3.118189,0.634535,3.202258,0.779387,3.402484,0.778132,3.427196,0.736528,3.458396,0.663454,3.512361,0.580098,3.572686,0.503228,3.627241,0.499236,3.630032,0.490935,3.635826,-0.332040,3.040808,
-0.491563,2.925814,-0.643339,2.817068,-0.784955,2.716258,-0.914136,2.624974,-1.028637,2.544784,-1.126312,2.477194,-1.205320,2.423507,-1.263590,2.385237,-1.267202,2.382973,-1.300050,2.363349,-1.335772,2.346546,-1.341637,2.344468,-1.430043,2.334129,-1.514180,2.363173,-1.549349,2.390986,-1.568831,2.410314,-1.575615,2.417759,-1.612287,2.462315,-1.614024,2.464486,-1.661873,2.526034,
-1.719812,2.602912,-1.784355,2.690558,-1.813064,2.730129,-1.897224,2.846653,-1.992502,2.978597,-2.090826,3.114777,-2.184002,3.243845,-2.251013,3.336686,-2.319043,3.430882,-2.402203,3.545922,-2.402202,3.545922,-2.495312,3.674648,-2.495313,3.674648,-2.593439,3.810237,-2.593438,3.810237,-2.691394,3.945522,-2.790634,4.082500,-2.879547,4.205244,-2.970969,4.331572,-3.060519,4.455420,
-3.143837,4.570758,-3.216578,4.671573,-3.274379,4.751822,-3.283113,4.763969,-3.308252,4.798680,-3.309485,4.796953,-3.367768,4.715859,-3.427376,4.633472,-3.478749,4.562763,-5.032345,4.562763,-5.032345,5.088893,-4.580894,5.088894,-4.580894,4.835834,-4.580509,4.692777,-4.579279,4.581848,-4.578828,4.564933,-4.530979,4.564588,-4.453634,4.565158,-4.384004,4.566788,-4.373602,4.567285,
-4.372294,4.568938,-4.320581,4.638596,-4.253334,4.732398,-4.221007,4.778279,-4.190391,4.821521,-4.144475,4.885859,-4.088149,4.964468,-4.026093,5.050817,-3.998998,5.088421,-4.071032,5.088758,-4.179382,5.088875,-2.969943,5.088875,-2.904744,4.998038,-2.807937,4.863599,-2.691454,4.702178,-2.555289,4.513770,-2.555289,4.513770,-2.399346,4.298241,-2.399346,4.298240,-2.223932,4.056015,
-2.191157,4.010778,-2.057824,3.826715,-1.942489,3.667405,-1.843008,3.529873,-1.757234,3.411137,-1.683021,3.308215,-1.618222,3.218130,-1.560700,3.137912,-1.508322,3.064603,-1.458972,2.995262,-1.414225,2.932165,-1.359497,2.855894,-1.355693,2.850744,-1.307082,2.885041,-1.205315,2.957385,-1.088324,3.041002,-0.958198,3.134408,-0.818136,3.235324,-0.818137,3.235325,-0.691009,3.327222,
-0.540362,3.436266,-0.395328,3.541212,-0.258867,3.639921,-0.133822,3.730337,-0.023033,3.810409,0.070663,3.878086,0.112494,3.908272,0.101072,3.916610,0.054852,3.950351,-0.046932,4.023566,-0.165523,4.108922,-0.291229,4.199442,-0.413710,4.287679,-0.507292,4.355131,-0.507291,4.355131,-0.608845,4.428321,-0.608843,4.428321,-0.729816,4.515456,-0.729816,4.515456,-0.861943,4.610589,
-0.996814,4.707660,-1.126055,4.800645,-1.193145,4.848896,-1.193144,4.848896,-1.526707,5.088757,-2.969943,5.088875,-4.179382,5.088875,-4.196977,5.088894,-4.580894,5.088894,-5.032345,5.088893,-5.032345,5.340346,-5.012538,5.427123,-4.957043,5.496712,-4.876849,5.535332,-4.832345,5.540346,-3.672979,5.540346,-3.671844,5.541921,-2.774877,5.541921,-2.654613,5.541104,-2.503084,5.540526,
-2.354041,5.540346,-2.192679,5.540502,-2.154401,5.540618,-2.179528,5.558770,-2.410073,5.725327,-2.472505,5.770435,-2.549554,5.824927,-2.563214,5.834142,-2.593747,5.792542,-2.653498,5.710414,-2.716249,5.623563,-2.774877,5.541921,-3.671844,5.541921,-3.451646,5.847456,-3.331591,6.014124,-3.229883,6.155310,-3.144709,6.273254,-3.074211,6.370242,-3.016438,6.448685,-2.969891,6.510352,
-2.968577,6.512055,-2.931280,6.559320,-2.928782,6.562361,-2.897756,6.598645,-2.892800,6.604029,-2.864383,6.632720,-2.854177,6.641712,-2.832303,6.658487,-2.792701,6.682153,-2.779068,6.688291,-2.724859,6.703967,-2.712337,6.705731,-2.677032,6.707549,-2.663564,6.707050,-2.663564,6.707050,$1*%
%AMFreePoly2*
4,1,22,0.106406,0.569345,0.141421,0.541421,0.741421,-0.058579,0.788777,-0.133944,0.800000,-0.200000,0.800000,-0.400000,0.780193,-0.486777,0.724698,-0.556366,0.644504,-0.594986,0.600000,-0.600000,-0.600000,-0.600000,-0.686777,-0.580194,-0.756366,-0.524698,-0.794986,-0.444504,-0.800000,-0.400000,-0.800000,-0.200000,-0.780194,-0.113223,-0.741421,-0.058579,-0.141421,0.541421,-0.066056,0.588777,
0.022393,0.598742,0.106406,0.569345,0.106406,0.569345,$1*%
%AMFreePoly3*
4,1,26,0.686777,0.430194,0.756366,0.374698,0.794986,0.294504,0.800000,0.250000,0.800000,-1.000000,0.780194,-1.086777,0.724698,-1.156366,0.644504,-1.194986,0.555496,-1.194986,0.475302,-1.156366,0.458579,-1.141421,0.000000,-0.682842,-0.458579,-1.141421,-0.533944,-1.188778,-0.622393,-1.198742,-0.706406,-1.169345,-0.769345,-1.106406,-0.798742,-1.022393,-0.800000,-1.000000,-0.800000,0.250000,
-0.780194,0.336777,-0.724699,0.406366,-0.644505,0.444986,-0.600000,0.450000,0.600000,0.450000,0.686777,0.430194,0.686777,0.430194,$1*%
G04 Aperture macros list end*
%ADD10C,0.150000*%
%ADD11C,0.200000*%
%ADD12C,0.120000*%
%ADD13C,0.100000*%
%ADD14RoundRect,0.200000X0.700000X-0.600000X0.700000X0.600000X-0.700000X0.600000X-0.700000X-0.600000X0*%
%ADD15RoundRect,0.200000X-0.700000X0.600000X-0.700000X-0.600000X0.700000X-0.600000X0.700000X0.600000X0*%
%ADD16C,3.600000*%
%ADD17C,2.100000*%
%ADD18C,3.400000*%
%ADD19C,4.400000*%
%ADD20FreePoly0,345.000000*%
%ADD21RoundRect,0.200000X-1.524314X-0.880063X0.880063X-1.524314X1.524314X0.880063X-0.880063X1.524314X0*%
%ADD22FreePoly0,0.000000*%
%ADD23RoundRect,0.200000X-1.244597X-1.244597X1.244597X-1.244597X1.244597X1.244597X-1.244597X1.244597X0*%
%ADD24RoundRect,0.200000X0.553426X0.886986X-0.035788X1.044866X-0.553426X-0.886986X0.035788X-1.044866X0*%
%ADD25RoundRect,0.200000X1.760215X1.391849X-0.828466X2.085484X-1.760215X-1.391849X0.828466X-2.085484X0*%
%ADD26FreePoly1,35.000000*%
%ADD27C,1.200000*%
%ADD28HorizOval,2.000000X-0.193185X0.051764X0.193185X-0.051764X0*%
%ADD29C,2.400000*%
%ADD30RoundRect,0.200000X0.551815X-1.804300X1.380036X1.286662X-0.551815X1.804300X-1.380036X-1.286662X0*%
%ADD31C,2.000000*%
%ADD32FreePoly2,187.500000*%
%ADD33FreePoly2,7.500000*%
%ADD34FreePoly3,187.500000*%
%ADD35FreePoly3,7.500000*%
%ADD36RoundRect,0.425000X0.340272X0.400580X-0.094394X0.517049X-0.340272X-0.400580X0.094394X-0.517049X0*%
%ADD37HorizOval,1.300000X0.064705X0.241481X-0.064705X-0.241481X0*%
%ADD38C,1.100000*%
G04 APERTURE END LIST*
D10*
X131446026Y-129412917D02*
X131826978Y-129412917D01*
X131341264Y-129641489D02*
X131707931Y-128841489D01*
X131707931Y-128841489D02*
X131874597Y-129641489D01*
X132165073Y-128841489D02*
X132255550Y-129641489D01*
X132255550Y-129641489D02*
X132479359Y-129070060D01*
X132479359Y-129070060D02*
X132560311Y-129641489D01*
X132560311Y-129641489D02*
X132850788Y-128841489D01*
X133055550Y-129641489D02*
X133155550Y-128841489D01*
X133512693Y-129641489D02*
X133226978Y-129184346D01*
X133612693Y-128841489D02*
X133098407Y-129298632D01*
X134174597Y-129222441D02*
X134284121Y-129260536D01*
X134284121Y-129260536D02*
X134317455Y-129298632D01*
X134317455Y-129298632D02*
X134346026Y-129374822D01*
X134346026Y-129374822D02*
X134331740Y-129489108D01*
X134331740Y-129489108D02*
X134284121Y-129565298D01*
X134284121Y-129565298D02*
X134241264Y-129603394D01*
X134241264Y-129603394D02*
X134160312Y-129641489D01*
X134160312Y-129641489D02*
X133855550Y-129641489D01*
X133855550Y-129641489D02*
X133955550Y-128841489D01*
X133955550Y-128841489D02*
X134222216Y-128841489D01*
X134222216Y-128841489D02*
X134293645Y-128879584D01*
X134293645Y-128879584D02*
X134326978Y-128917679D01*
X134326978Y-128917679D02*
X134355550Y-128993870D01*
X134355550Y-128993870D02*
X134346026Y-129070060D01*
X134346026Y-129070060D02*
X134298407Y-129146251D01*
X134298407Y-129146251D02*
X134255550Y-129184346D01*
X134255550Y-129184346D02*
X134174597Y-129222441D01*
X134174597Y-129222441D02*
X133907931Y-129222441D01*
X135303169Y-129336727D02*
X135912693Y-129336727D01*
X136855550Y-129412917D02*
X137236502Y-129412917D01*
X136750788Y-129641489D02*
X137117455Y-128841489D01*
X137117455Y-128841489D02*
X137284121Y-129641489D01*
X138184121Y-128841489D02*
X138274598Y-129641489D01*
X138274598Y-129641489D02*
X138498407Y-129070060D01*
X138498407Y-129070060D02*
X138579359Y-129641489D01*
X138579359Y-129641489D02*
X138869836Y-128841489D01*
X139384122Y-129603394D02*
X139303169Y-129641489D01*
X139303169Y-129641489D02*
X139150788Y-129641489D01*
X139150788Y-129641489D02*
X139079360Y-129603394D01*
X139079360Y-129603394D02*
X139050788Y-129527203D01*
X139050788Y-129527203D02*
X139088884Y-129222441D01*
X139088884Y-129222441D02*
X139136503Y-129146251D01*
X139136503Y-129146251D02*
X139217455Y-129108155D01*
X139217455Y-129108155D02*
X139369836Y-129108155D01*
X139369836Y-129108155D02*
X139441264Y-129146251D01*
X139441264Y-129146251D02*
X139469836Y-129222441D01*
X139469836Y-129222441D02*
X139460312Y-129298632D01*
X139460312Y-129298632D02*
X139069836Y-129374822D01*
X139760312Y-129641489D02*
X139826978Y-129108155D01*
X139860312Y-128841489D02*
X139817455Y-128879584D01*
X139817455Y-128879584D02*
X139850788Y-128917679D01*
X139850788Y-128917679D02*
X139893645Y-128879584D01*
X139893645Y-128879584D02*
X139860312Y-128841489D01*
X139860312Y-128841489D02*
X139850788Y-128917679D01*
X140141264Y-129641489D02*
X140207930Y-129108155D01*
X140188883Y-129260536D02*
X140236502Y-129184346D01*
X140236502Y-129184346D02*
X140279359Y-129146251D01*
X140279359Y-129146251D02*
X140360311Y-129108155D01*
X140360311Y-129108155D02*
X140436502Y-129108155D01*
X140979359Y-129641489D02*
X141079359Y-128841489D01*
X140984121Y-129603394D02*
X140903168Y-129641489D01*
X140903168Y-129641489D02*
X140750788Y-129641489D01*
X140750788Y-129641489D02*
X140679359Y-129603394D01*
X140679359Y-129603394D02*
X140646026Y-129565298D01*
X140646026Y-129565298D02*
X140617454Y-129489108D01*
X140617454Y-129489108D02*
X140646026Y-129260536D01*
X140646026Y-129260536D02*
X140693645Y-129184346D01*
X140693645Y-129184346D02*
X140736502Y-129146251D01*
X140736502Y-129146251D02*
X140817454Y-129108155D01*
X140817454Y-129108155D02*
X140969835Y-129108155D01*
X140969835Y-129108155D02*
X141041264Y-129146251D01*
X141969836Y-129641489D02*
X142069836Y-128841489D01*
X142426979Y-129641489D02*
X142141264Y-129184346D01*
X142526979Y-128841489D02*
X142012693Y-129298632D01*
X143079360Y-129603394D02*
X142998407Y-129641489D01*
X142998407Y-129641489D02*
X142846026Y-129641489D01*
X142846026Y-129641489D02*
X142774598Y-129603394D01*
X142774598Y-129603394D02*
X142746026Y-129527203D01*
X142746026Y-129527203D02*
X142784122Y-129222441D01*
X142784122Y-129222441D02*
X142831741Y-129146251D01*
X142831741Y-129146251D02*
X142912693Y-129108155D01*
X142912693Y-129108155D02*
X143065074Y-129108155D01*
X143065074Y-129108155D02*
X143136502Y-129146251D01*
X143136502Y-129146251D02*
X143165074Y-129222441D01*
X143165074Y-129222441D02*
X143155550Y-129298632D01*
X143155550Y-129298632D02*
X142765074Y-129374822D01*
X143446026Y-129108155D02*
X143569836Y-129641489D01*
X143826978Y-129108155D02*
X143569836Y-129641489D01*
X143569836Y-129641489D02*
X143469836Y-129831965D01*
X143469836Y-129831965D02*
X143426978Y-129870060D01*
X143426978Y-129870060D02*
X143346026Y-129908155D01*
X144065074Y-129641489D02*
X144165074Y-128841489D01*
X144126979Y-129146251D02*
X144207931Y-129108155D01*
X144207931Y-129108155D02*
X144360312Y-129108155D01*
X144360312Y-129108155D02*
X144431740Y-129146251D01*
X144431740Y-129146251D02*
X144465074Y-129184346D01*
X144465074Y-129184346D02*
X144493645Y-129260536D01*
X144493645Y-129260536D02*
X144465074Y-129489108D01*
X144465074Y-129489108D02*
X144417455Y-129565298D01*
X144417455Y-129565298D02*
X144374598Y-129603394D01*
X144374598Y-129603394D02*
X144293645Y-129641489D01*
X144293645Y-129641489D02*
X144141264Y-129641489D01*
X144141264Y-129641489D02*
X144069836Y-129603394D01*
X144903170Y-129641489D02*
X144831741Y-129603394D01*
X144831741Y-129603394D02*
X144798408Y-129565298D01*
X144798408Y-129565298D02*
X144769836Y-129489108D01*
X144769836Y-129489108D02*
X144798408Y-129260536D01*
X144798408Y-129260536D02*
X144846027Y-129184346D01*
X144846027Y-129184346D02*
X144888884Y-129146251D01*
X144888884Y-129146251D02*
X144969836Y-129108155D01*
X144969836Y-129108155D02*
X145084122Y-129108155D01*
X145084122Y-129108155D02*
X145155550Y-129146251D01*
X145155550Y-129146251D02*
X145188884Y-129184346D01*
X145188884Y-129184346D02*
X145217455Y-129260536D01*
X145217455Y-129260536D02*
X145188884Y-129489108D01*
X145188884Y-129489108D02*
X145141265Y-129565298D01*
X145141265Y-129565298D02*
X145098408Y-129603394D01*
X145098408Y-129603394D02*
X145017455Y-129641489D01*
X145017455Y-129641489D02*
X144903170Y-129641489D01*
X145855551Y-129641489D02*
X145907932Y-129222441D01*
X145907932Y-129222441D02*
X145879360Y-129146251D01*
X145879360Y-129146251D02*
X145807932Y-129108155D01*
X145807932Y-129108155D02*
X145655551Y-129108155D01*
X145655551Y-129108155D02*
X145574599Y-129146251D01*
X145860313Y-129603394D02*
X145779360Y-129641489D01*
X145779360Y-129641489D02*
X145588884Y-129641489D01*
X145588884Y-129641489D02*
X145517456Y-129603394D01*
X145517456Y-129603394D02*
X145488884Y-129527203D01*
X145488884Y-129527203D02*
X145498408Y-129451013D01*
X145498408Y-129451013D02*
X145546027Y-129374822D01*
X145546027Y-129374822D02*
X145626980Y-129336727D01*
X145626980Y-129336727D02*
X145817456Y-129336727D01*
X145817456Y-129336727D02*
X145898408Y-129298632D01*
X146236504Y-129641489D02*
X146303170Y-129108155D01*
X146284123Y-129260536D02*
X146331742Y-129184346D01*
X146331742Y-129184346D02*
X146374599Y-129146251D01*
X146374599Y-129146251D02*
X146455551Y-129108155D01*
X146455551Y-129108155D02*
X146531742Y-129108155D01*
X147074599Y-129641489D02*
X147174599Y-128841489D01*
X147079361Y-129603394D02*
X146998408Y-129641489D01*
X146998408Y-129641489D02*
X146846028Y-129641489D01*
X146846028Y-129641489D02*
X146774599Y-129603394D01*
X146774599Y-129603394D02*
X146741266Y-129565298D01*
X146741266Y-129565298D02*
X146712694Y-129489108D01*
X146712694Y-129489108D02*
X146741266Y-129260536D01*
X146741266Y-129260536D02*
X146788885Y-129184346D01*
X146788885Y-129184346D02*
X146831742Y-129146251D01*
X146831742Y-129146251D02*
X146912694Y-129108155D01*
X146912694Y-129108155D02*
X147065075Y-129108155D01*
X147065075Y-129108155D02*
X147136504Y-129146251D01*
X131455550Y-130929489D02*
X131555550Y-130129489D01*
X131555550Y-130129489D02*
X131860312Y-130129489D01*
X131860312Y-130129489D02*
X131931740Y-130167584D01*
X131931740Y-130167584D02*
X131965074Y-130205679D01*
X131965074Y-130205679D02*
X131993645Y-130281870D01*
X131993645Y-130281870D02*
X131979359Y-130396155D01*
X131979359Y-130396155D02*
X131931740Y-130472346D01*
X131931740Y-130472346D02*
X131888883Y-130510441D01*
X131888883Y-130510441D02*
X131807931Y-130548536D01*
X131807931Y-130548536D02*
X131503169Y-130548536D01*
X132722216Y-130853298D02*
X132679359Y-130891394D01*
X132679359Y-130891394D02*
X132560312Y-130929489D01*
X132560312Y-130929489D02*
X132484121Y-130929489D01*
X132484121Y-130929489D02*
X132374597Y-130891394D01*
X132374597Y-130891394D02*
X132307931Y-130815203D01*
X132307931Y-130815203D02*
X132279359Y-130739013D01*
X132279359Y-130739013D02*
X132260312Y-130586632D01*
X132260312Y-130586632D02*
X132274597Y-130472346D01*
X132274597Y-130472346D02*
X132331740Y-130319965D01*
X132331740Y-130319965D02*
X132379359Y-130243774D01*
X132379359Y-130243774D02*
X132465074Y-130167584D01*
X132465074Y-130167584D02*
X132584121Y-130129489D01*
X132584121Y-130129489D02*
X132660312Y-130129489D01*
X132660312Y-130129489D02*
X132769836Y-130167584D01*
X132769836Y-130167584D02*
X132803169Y-130205679D01*
X133374597Y-130510441D02*
X133484121Y-130548536D01*
X133484121Y-130548536D02*
X133517455Y-130586632D01*
X133517455Y-130586632D02*
X133546026Y-130662822D01*
X133546026Y-130662822D02*
X133531740Y-130777108D01*
X133531740Y-130777108D02*
X133484121Y-130853298D01*
X133484121Y-130853298D02*
X133441264Y-130891394D01*
X133441264Y-130891394D02*
X133360312Y-130929489D01*
X133360312Y-130929489D02*
X133055550Y-130929489D01*
X133055550Y-130929489D02*
X133155550Y-130129489D01*
X133155550Y-130129489D02*
X133422216Y-130129489D01*
X133422216Y-130129489D02*
X133493645Y-130167584D01*
X133493645Y-130167584D02*
X133526978Y-130205679D01*
X133526978Y-130205679D02*
X133555550Y-130281870D01*
X133555550Y-130281870D02*
X133546026Y-130358060D01*
X133546026Y-130358060D02*
X133498407Y-130434251D01*
X133498407Y-130434251D02*
X133455550Y-130472346D01*
X133455550Y-130472346D02*
X133374597Y-130510441D01*
X133374597Y-130510441D02*
X133107931Y-130510441D01*
X134807931Y-130929489D02*
X134907931Y-130129489D01*
X134812693Y-130891394D02*
X134731740Y-130929489D01*
X134731740Y-130929489D02*
X134579360Y-130929489D01*
X134579360Y-130929489D02*
X134507931Y-130891394D01*
X134507931Y-130891394D02*
X134474598Y-130853298D01*
X134474598Y-130853298D02*
X134446026Y-130777108D01*
X134446026Y-130777108D02*
X134474598Y-130548536D01*
X134474598Y-130548536D02*
X134522217Y-130472346D01*
X134522217Y-130472346D02*
X134565074Y-130434251D01*
X134565074Y-130434251D02*
X134646026Y-130396155D01*
X134646026Y-130396155D02*
X134798407Y-130396155D01*
X134798407Y-130396155D02*
X134869836Y-130434251D01*
X135498408Y-130891394D02*
X135417455Y-130929489D01*
X135417455Y-130929489D02*
X135265074Y-130929489D01*
X135265074Y-130929489D02*
X135193646Y-130891394D01*
X135193646Y-130891394D02*
X135165074Y-130815203D01*
X135165074Y-130815203D02*
X135203170Y-130510441D01*
X135203170Y-130510441D02*
X135250789Y-130434251D01*
X135250789Y-130434251D02*
X135331741Y-130396155D01*
X135331741Y-130396155D02*
X135484122Y-130396155D01*
X135484122Y-130396155D02*
X135555550Y-130434251D01*
X135555550Y-130434251D02*
X135584122Y-130510441D01*
X135584122Y-130510441D02*
X135574598Y-130586632D01*
X135574598Y-130586632D02*
X135184122Y-130662822D01*
X135841264Y-130891394D02*
X135912693Y-130929489D01*
X135912693Y-130929489D02*
X136065074Y-130929489D01*
X136065074Y-130929489D02*
X136146026Y-130891394D01*
X136146026Y-130891394D02*
X136193645Y-130815203D01*
X136193645Y-130815203D02*
X136198407Y-130777108D01*
X136198407Y-130777108D02*
X136169836Y-130700917D01*
X136169836Y-130700917D02*
X136098407Y-130662822D01*
X136098407Y-130662822D02*
X135984122Y-130662822D01*
X135984122Y-130662822D02*
X135912693Y-130624727D01*
X135912693Y-130624727D02*
X135884122Y-130548536D01*
X135884122Y-130548536D02*
X135888884Y-130510441D01*
X135888884Y-130510441D02*
X135936503Y-130434251D01*
X135936503Y-130434251D02*
X136017455Y-130396155D01*
X136017455Y-130396155D02*
X136131741Y-130396155D01*
X136131741Y-130396155D02*
X136203169Y-130434251D01*
X136522217Y-130929489D02*
X136588883Y-130396155D01*
X136622217Y-130129489D02*
X136579360Y-130167584D01*
X136579360Y-130167584D02*
X136612693Y-130205679D01*
X136612693Y-130205679D02*
X136655550Y-130167584D01*
X136655550Y-130167584D02*
X136622217Y-130129489D01*
X136622217Y-130129489D02*
X136612693Y-130205679D01*
X137312693Y-130396155D02*
X137231740Y-131043774D01*
X137231740Y-131043774D02*
X137184121Y-131119965D01*
X137184121Y-131119965D02*
X137141264Y-131158060D01*
X137141264Y-131158060D02*
X137060312Y-131196155D01*
X137060312Y-131196155D02*
X136946026Y-131196155D01*
X136946026Y-131196155D02*
X136874597Y-131158060D01*
X137250788Y-130891394D02*
X137169835Y-130929489D01*
X137169835Y-130929489D02*
X137017455Y-130929489D01*
X137017455Y-130929489D02*
X136946026Y-130891394D01*
X136946026Y-130891394D02*
X136912693Y-130853298D01*
X136912693Y-130853298D02*
X136884121Y-130777108D01*
X136884121Y-130777108D02*
X136912693Y-130548536D01*
X136912693Y-130548536D02*
X136960312Y-130472346D01*
X136960312Y-130472346D02*
X137003169Y-130434251D01*
X137003169Y-130434251D02*
X137084121Y-130396155D01*
X137084121Y-130396155D02*
X137236502Y-130396155D01*
X137236502Y-130396155D02*
X137307931Y-130434251D01*
X137693645Y-130396155D02*
X137626979Y-130929489D01*
X137684122Y-130472346D02*
X137726979Y-130434251D01*
X137726979Y-130434251D02*
X137807931Y-130396155D01*
X137807931Y-130396155D02*
X137922217Y-130396155D01*
X137922217Y-130396155D02*
X137993645Y-130434251D01*
X137993645Y-130434251D02*
X138022217Y-130510441D01*
X138022217Y-130510441D02*
X137969836Y-130929489D01*
X138660313Y-130891394D02*
X138579360Y-130929489D01*
X138579360Y-130929489D02*
X138426979Y-130929489D01*
X138426979Y-130929489D02*
X138355551Y-130891394D01*
X138355551Y-130891394D02*
X138326979Y-130815203D01*
X138326979Y-130815203D02*
X138365075Y-130510441D01*
X138365075Y-130510441D02*
X138412694Y-130434251D01*
X138412694Y-130434251D02*
X138493646Y-130396155D01*
X138493646Y-130396155D02*
X138646027Y-130396155D01*
X138646027Y-130396155D02*
X138717455Y-130434251D01*
X138717455Y-130434251D02*
X138746027Y-130510441D01*
X138746027Y-130510441D02*
X138736503Y-130586632D01*
X138736503Y-130586632D02*
X138346027Y-130662822D01*
X139379360Y-130929489D02*
X139479360Y-130129489D01*
X139384122Y-130891394D02*
X139303169Y-130929489D01*
X139303169Y-130929489D02*
X139150789Y-130929489D01*
X139150789Y-130929489D02*
X139079360Y-130891394D01*
X139079360Y-130891394D02*
X139046027Y-130853298D01*
X139046027Y-130853298D02*
X139017455Y-130777108D01*
X139017455Y-130777108D02*
X139046027Y-130548536D01*
X139046027Y-130548536D02*
X139093646Y-130472346D01*
X139093646Y-130472346D02*
X139136503Y-130434251D01*
X139136503Y-130434251D02*
X139217455Y-130396155D01*
X139217455Y-130396155D02*
X139369836Y-130396155D01*
X139369836Y-130396155D02*
X139441265Y-130434251D01*
X140369837Y-130929489D02*
X140469837Y-130129489D01*
X140431742Y-130434251D02*
X140512694Y-130396155D01*
X140512694Y-130396155D02*
X140665075Y-130396155D01*
X140665075Y-130396155D02*
X140736503Y-130434251D01*
X140736503Y-130434251D02*
X140769837Y-130472346D01*
X140769837Y-130472346D02*
X140798408Y-130548536D01*
X140798408Y-130548536D02*
X140769837Y-130777108D01*
X140769837Y-130777108D02*
X140722218Y-130853298D01*
X140722218Y-130853298D02*
X140679361Y-130891394D01*
X140679361Y-130891394D02*
X140598408Y-130929489D01*
X140598408Y-130929489D02*
X140446027Y-130929489D01*
X140446027Y-130929489D02*
X140374599Y-130891394D01*
X141084123Y-130396155D02*
X141207933Y-130929489D01*
X141465075Y-130396155D02*
X141207933Y-130929489D01*
X141207933Y-130929489D02*
X141107933Y-131119965D01*
X141107933Y-131119965D02*
X141065075Y-131158060D01*
X141065075Y-131158060D02*
X140984123Y-131196155D01*
X142641266Y-130129489D02*
X142569838Y-130700917D01*
X142569838Y-130700917D02*
X142517457Y-130815203D01*
X142517457Y-130815203D02*
X142431742Y-130891394D01*
X142431742Y-130891394D02*
X142312695Y-130929489D01*
X142312695Y-130929489D02*
X142236504Y-130929489D01*
X142946028Y-130129489D02*
X143036505Y-130929489D01*
X143036505Y-130929489D02*
X143260314Y-130358060D01*
X143260314Y-130358060D02*
X143341266Y-130929489D01*
X143341266Y-130929489D02*
X143631743Y-130129489D01*
X143846029Y-130853298D02*
X143879362Y-130891394D01*
X143879362Y-130891394D02*
X143836505Y-130929489D01*
X143836505Y-130929489D02*
X143803171Y-130891394D01*
X143803171Y-130891394D02*
X143846029Y-130853298D01*
X143846029Y-130853298D02*
X143836505Y-130929489D01*
X191510881Y-129669978D02*
X191326011Y-130359925D01*
X191326011Y-130359925D02*
X191243040Y-130485590D01*
X191243040Y-130485590D02*
X191126398Y-130552933D01*
X191126398Y-130552933D02*
X190976083Y-130561956D01*
X190976083Y-130561956D02*
X190884091Y-130537306D01*
X191878853Y-129768576D02*
X192476807Y-129928797D01*
X192476807Y-129928797D02*
X192056234Y-130210496D01*
X192056234Y-130210496D02*
X192194224Y-130247470D01*
X192194224Y-130247470D02*
X192273892Y-130318116D01*
X192273892Y-130318116D02*
X192307564Y-130376437D01*
X192307564Y-130376437D02*
X192328911Y-130480755D01*
X192328911Y-130480755D02*
X192267287Y-130710737D01*
X192267287Y-130710737D02*
X192196641Y-130790405D01*
X192196641Y-130790405D02*
X192138320Y-130824077D01*
X192138320Y-130824077D02*
X192034002Y-130845424D01*
X192034002Y-130845424D02*
X191758024Y-130771476D01*
X191758024Y-130771476D02*
X191678355Y-130700830D01*
X191678355Y-130700830D02*
X191644684Y-130642509D01*
D11*
X181167650Y-93985194D02*
X183567650Y-93985194D01*
X183567650Y-93985194D02*
X183567650Y-99985194D01*
X183567650Y-99985194D02*
X181167650Y-99985194D01*
X181167650Y-99985194D02*
X181167650Y-93985194D01*
X183567650Y-99985194D02*
X181167650Y-99985194D01*
X181167650Y-99426794D01*
X183567650Y-99426794D01*
X183567650Y-99985194D01*
G36*
X183567650Y-99985194D02*
G01*
X181167650Y-99985194D01*
X181167650Y-99426794D01*
X183567650Y-99426794D01*
X183567650Y-99985194D01*
G37*
X164567952Y-96784794D02*
X162167952Y-96784794D01*
X162167952Y-96784794D02*
X162167952Y-90784794D01*
X162167952Y-90784794D02*
X164567952Y-90784794D01*
X164567952Y-90784794D02*
X164567952Y-96784794D01*
X164567952Y-91343194D02*
X162167952Y-91343194D01*
X162167952Y-90784794D01*
X164567952Y-90784794D01*
X164567952Y-91343194D01*
G36*
X164567952Y-91343194D02*
G01*
X162167952Y-91343194D01*
X162167952Y-90784794D01*
X164567952Y-90784794D01*
X164567952Y-91343194D01*
G37*
X126568352Y-115584594D02*
X124168352Y-115584594D01*
X124168352Y-115584594D02*
X124168352Y-109584594D01*
X124168352Y-109584594D02*
X126568352Y-109584594D01*
X126568352Y-109584594D02*
X126568352Y-115584594D01*
X126568352Y-110142994D02*
X124168352Y-110142994D01*
X124168352Y-109584594D01*
X126568352Y-109584594D01*
X126568352Y-110142994D01*
G36*
X126568352Y-110142994D02*
G01*
X124168352Y-110142994D01*
X124168352Y-109584594D01*
X126568352Y-109584594D01*
X126568352Y-110142994D01*
G37*
X170114152Y-121206794D02*
X172514152Y-121206794D01*
X172514152Y-121206794D02*
X172514152Y-127206794D01*
X172514152Y-127206794D02*
X170114152Y-127206794D01*
X170114152Y-127206794D02*
X170114152Y-121206794D01*
X172514152Y-127206794D02*
X170114152Y-127206794D01*
X170114152Y-126648394D01*
X172514152Y-126648394D01*
X172514152Y-127206794D01*
G36*
X172514152Y-127206794D02*
G01*
X170114152Y-127206794D01*
X170114152Y-126648394D01*
X172514152Y-126648394D01*
X172514152Y-127206794D01*
G37*
D10*
X175638301Y-129733059D02*
X183969412Y-131965373D01*
X174626837Y-133507897D02*
X175638301Y-129733059D01*
X174614931Y-133552330D02*
X179480951Y-134903798D01*
X185661161Y-134441606D02*
X184640119Y-138252183D01*
X184637790Y-138260876D02*
X181150798Y-137326540D01*
X181152181Y-137302063D02*
G75*
G03*
X179455767Y-134901192I-2048642J352229D01*
G01*
X185668653Y-134371144D02*
G75*
G03*
X183969412Y-131965374I-2052505J353265D01*
G01*
D11*
X164567952Y-115785194D02*
X162167952Y-115785194D01*
X162167952Y-115785194D02*
X162167952Y-109785194D01*
X162167952Y-109785194D02*
X164567952Y-109785194D01*
X164567952Y-109785194D02*
X164567952Y-115785194D01*
X164567952Y-110343594D02*
X162167952Y-110343594D01*
X162167952Y-109785194D01*
X164567952Y-109785194D01*
X164567952Y-110343594D01*
G36*
X164567952Y-110343594D02*
G01*
X162167952Y-110343594D01*
X162167952Y-109785194D01*
X164567952Y-109785194D01*
X164567952Y-110343594D01*
G37*
X143167752Y-107684794D02*
X145567752Y-107684794D01*
X145567752Y-107684794D02*
X145567752Y-113684794D01*
X145567752Y-113684794D02*
X143167752Y-113684794D01*
X143167752Y-113684794D02*
X143167752Y-107684794D01*
X145567752Y-113684794D02*
X143167752Y-113684794D01*
X143167752Y-113126394D01*
X145567752Y-113126394D01*
X145567752Y-113684794D01*
G36*
X145567752Y-113684794D02*
G01*
X143167752Y-113684794D01*
X143167752Y-113126394D01*
X145567752Y-113126394D01*
X145567752Y-113684794D01*
G37*
X181167650Y-74985394D02*
X183567650Y-74985394D01*
X183567650Y-74985394D02*
X183567650Y-80985394D01*
X183567650Y-80985394D02*
X181167650Y-80985394D01*
X181167650Y-80985394D02*
X181167650Y-74985394D01*
X183567650Y-80985394D02*
X181167650Y-80985394D01*
X181167650Y-80426994D01*
X183567650Y-80426994D01*
X183567650Y-80985394D01*
G36*
X183567650Y-80985394D02*
G01*
X181167650Y-80985394D01*
X181167650Y-80426994D01*
X183567650Y-80426994D01*
X183567650Y-80985394D01*
G37*
D10*
X151581141Y-63561724D02*
X160206141Y-63561724D01*
X151581141Y-67469724D02*
X151581141Y-63561724D01*
X151581141Y-67515724D02*
X156631141Y-67561724D01*
X162481141Y-65515724D02*
X162481141Y-69460724D01*
X162481141Y-69469724D02*
X158871141Y-69469724D01*
X158866141Y-69445723D02*
G75*
G03*
X156606141Y-67565725I-2069999J-190001D01*
G01*
X162470141Y-65445724D02*
G75*
G03*
X160206141Y-63561725I-2073999J-190000D01*
G01*
X151581141Y-82561684D02*
X160206141Y-82561684D01*
X151581141Y-86469684D02*
X151581141Y-82561684D01*
X151581141Y-86515684D02*
X156631141Y-86561684D01*
X162481141Y-84515684D02*
X162481141Y-88460684D01*
X162481141Y-88469684D02*
X158871141Y-88469684D01*
X158866141Y-88445683D02*
G75*
G03*
X156606141Y-86565685I-2069999J-190001D01*
G01*
X162470141Y-84445684D02*
G75*
G03*
X160206141Y-82561685I-2073999J-190000D01*
G01*
D11*
X143167752Y-69484634D02*
X145567752Y-69484634D01*
X145567752Y-69484634D02*
X145567752Y-75484634D01*
X145567752Y-75484634D02*
X143167752Y-75484634D01*
X143167752Y-75484634D02*
X143167752Y-69484634D01*
X145567752Y-75484634D02*
X143167752Y-75484634D01*
X143167752Y-74926234D01*
X145567752Y-74926234D01*
X145567752Y-75484634D01*
G36*
X145567752Y-75484634D02*
G01*
X143167752Y-75484634D01*
X143167752Y-74926234D01*
X145567752Y-74926234D01*
X145567752Y-75484634D01*
G37*
X126568352Y-96584994D02*
X124168352Y-96584994D01*
X124168352Y-96584994D02*
X124168352Y-90584994D01*
X124168352Y-90584994D02*
X126568352Y-90584994D01*
X126568352Y-90584994D02*
X126568352Y-96584994D01*
X126568352Y-91143394D02*
X124168352Y-91143394D01*
X124168352Y-90584994D01*
X126568352Y-90584994D01*
X126568352Y-91143394D01*
G36*
X126568352Y-91143394D02*
G01*
X124168352Y-91143394D01*
X124168352Y-90584994D01*
X126568352Y-90584994D01*
X126568352Y-91143394D01*
G37*
D10*
X157084676Y-124036198D02*
X165415787Y-126268512D01*
X156073212Y-127811036D02*
X157084676Y-124036198D01*
X156061306Y-127855469D02*
X160927326Y-129206937D01*
X167107536Y-128744745D02*
X166086494Y-132555322D01*
X166084165Y-132564015D02*
X162597173Y-131629679D01*
X162598556Y-131605202D02*
G75*
G03*
X160902142Y-129204331I-2048642J352229D01*
G01*
X167115028Y-128674283D02*
G75*
G03*
X165415787Y-126268513I-2052505J353265D01*
G01*
X151581141Y-101562084D02*
X160206141Y-101562084D01*
X151581141Y-105470084D02*
X151581141Y-101562084D01*
X151581141Y-105516084D02*
X156631141Y-105562084D01*
X162481141Y-103516084D02*
X162481141Y-107461084D01*
X162481141Y-107470084D02*
X158871141Y-107470084D01*
X158866141Y-107446083D02*
G75*
G03*
X156606141Y-105566085I-2069999J-190001D01*
G01*
X162470141Y-103446084D02*
G75*
G03*
X160206141Y-101562085I-2073999J-190000D01*
G01*
D11*
X181167650Y-112985194D02*
X183567650Y-112985194D01*
X183567650Y-112985194D02*
X183567650Y-118985194D01*
X183567650Y-118985194D02*
X181167650Y-118985194D01*
X181167650Y-118985194D02*
X181167650Y-112985194D01*
X183567650Y-118985194D02*
X181167650Y-118985194D01*
X181167650Y-118426794D01*
X183567650Y-118426794D01*
X183567650Y-118985194D01*
G36*
X183567650Y-118985194D02*
G01*
X181167650Y-118985194D01*
X181167650Y-118426794D01*
X183567650Y-118426794D01*
X183567650Y-118985194D01*
G37*
X105168152Y-74684994D02*
X107568152Y-74684994D01*
X107568152Y-74684994D02*
X107568152Y-80684994D01*
X107568152Y-80684994D02*
X105168152Y-80684994D01*
X105168152Y-80684994D02*
X105168152Y-74684994D01*
X107568152Y-80684994D02*
X105168152Y-80684994D01*
X105168152Y-80126594D01*
X107568152Y-80126594D01*
X107568152Y-80684994D01*
G36*
X107568152Y-80684994D02*
G01*
X105168152Y-80684994D01*
X105168152Y-80126594D01*
X107568152Y-80126594D01*
X107568152Y-80684994D01*
G37*
D10*
X94581341Y-65861884D02*
X103206341Y-65861884D01*
X94581341Y-69769884D02*
X94581341Y-65861884D01*
X94581341Y-69815884D02*
X99631341Y-69861884D01*
X105481341Y-67815884D02*
X105481341Y-71760884D01*
X105481341Y-71769884D02*
X101871341Y-71769884D01*
X101866341Y-71745883D02*
G75*
G03*
X99606341Y-69865885I-2069999J-190001D01*
G01*
X105470341Y-67745884D02*
G75*
G03*
X103206341Y-65861885I-2073999J-190000D01*
G01*
X170580839Y-85562084D02*
X179205839Y-85562084D01*
X170580839Y-89470084D02*
X170580839Y-85562084D01*
X170580839Y-89516084D02*
X175630839Y-89562084D01*
X181480839Y-87516084D02*
X181480839Y-91461084D01*
X181480839Y-91470084D02*
X177870839Y-91470084D01*
X177865839Y-91446083D02*
G75*
G03*
X175605839Y-89566085I-2069999J-190001D01*
G01*
X181469839Y-87446084D02*
G75*
G03*
X179205839Y-85562085I-2073999J-190000D01*
G01*
D11*
X143167752Y-88684594D02*
X145567752Y-88684594D01*
X145567752Y-88684594D02*
X145567752Y-94684594D01*
X145567752Y-94684594D02*
X143167752Y-94684594D01*
X143167752Y-94684594D02*
X143167752Y-88684594D01*
X145567752Y-94684594D02*
X143167752Y-94684594D01*
X143167752Y-94126194D01*
X145567752Y-94126194D01*
X145567752Y-94684594D01*
G36*
X145567752Y-94684594D02*
G01*
X143167752Y-94684594D01*
X143167752Y-94126194D01*
X145567752Y-94126194D01*
X145567752Y-94684594D01*
G37*
D10*
X170580839Y-66562284D02*
X179205839Y-66562284D01*
X170580839Y-70470284D02*
X170580839Y-66562284D01*
X170580839Y-70516284D02*
X175630839Y-70562284D01*
X181480839Y-68516284D02*
X181480839Y-72461284D01*
X181480839Y-72470284D02*
X177870839Y-72470284D01*
X177865839Y-72446283D02*
G75*
G03*
X175605839Y-70566285I-2069999J-190001D01*
G01*
X181469839Y-68446284D02*
G75*
G03*
X179205839Y-66562285I-2073999J-190000D01*
G01*
D11*
X126568352Y-77585394D02*
X124168352Y-77585394D01*
X124168352Y-77585394D02*
X124168352Y-71585394D01*
X124168352Y-71585394D02*
X126568352Y-71585394D01*
X126568352Y-71585394D02*
X126568352Y-77585394D01*
X126568352Y-72143794D02*
X124168352Y-72143794D01*
X124168352Y-71585394D01*
X126568352Y-71585394D01*
X126568352Y-72143794D01*
G36*
X126568352Y-72143794D02*
G01*
X124168352Y-72143794D01*
X124168352Y-71585394D01*
X126568352Y-71585394D01*
X126568352Y-72143794D01*
G37*
X173728152Y-121206794D02*
X176128152Y-121206794D01*
X176128152Y-121206794D02*
X176128152Y-127206794D01*
X176128152Y-127206794D02*
X173728152Y-127206794D01*
X173728152Y-127206794D02*
X173728152Y-121206794D01*
X176128152Y-127206794D02*
X173728152Y-127206794D01*
X173728152Y-126648394D01*
X176128152Y-126648394D01*
X176128152Y-127206794D01*
G36*
X176128152Y-127206794D02*
G01*
X173728152Y-127206794D01*
X173728152Y-126648394D01*
X176128152Y-126648394D01*
X176128152Y-127206794D01*
G37*
D12*
X200229056Y-125737598D02*
X199238982Y-125472308D01*
X200516345Y-124665420D02*
X200229056Y-125737598D01*
X199238982Y-125472308D02*
X199099220Y-125993908D01*
X195990138Y-129270879D02*
X195193249Y-129057353D01*
X195193249Y-129057353D02*
X194727375Y-130796019D01*
X189272124Y-127470792D02*
X188475235Y-127257266D01*
X187421177Y-122864786D02*
X187560939Y-122343186D01*
X187560939Y-122343186D02*
X186570865Y-122077896D01*
X186570865Y-122077896D02*
X186858154Y-121005719D01*
X186858154Y-121005719D02*
X200516345Y-124665420D01*
D10*
X94581341Y-104361684D02*
X103206341Y-104361684D01*
X94581341Y-108269684D02*
X94581341Y-104361684D01*
X94581341Y-108315684D02*
X99631341Y-108361684D01*
X105481341Y-106315684D02*
X105481341Y-110260684D01*
X105481341Y-110269684D02*
X101871341Y-110269684D01*
X101866341Y-110245683D02*
G75*
G03*
X99606341Y-108365685I-2069999J-190001D01*
G01*
X105470341Y-106245684D02*
G75*
G03*
X103206341Y-104361685I-2073999J-190000D01*
G01*
D11*
X177342152Y-121206794D02*
X179742152Y-121206794D01*
X179742152Y-121206794D02*
X179742152Y-127206794D01*
X179742152Y-127206794D02*
X177342152Y-127206794D01*
X177342152Y-127206794D02*
X177342152Y-121206794D01*
X179742152Y-127206794D02*
X177342152Y-127206794D01*
X177342152Y-126648394D01*
X179742152Y-126648394D01*
X179742152Y-127206794D01*
G36*
X179742152Y-127206794D02*
G01*
X177342152Y-127206794D01*
X177342152Y-126648394D01*
X179742152Y-126648394D01*
X179742152Y-127206794D01*
G37*
D10*
X113581541Y-101361484D02*
X122206541Y-101361484D01*
X113581541Y-105269484D02*
X113581541Y-101361484D01*
X113581541Y-105315484D02*
X118631541Y-105361484D01*
X124481541Y-103315484D02*
X124481541Y-107260484D01*
X124481541Y-107269484D02*
X120871541Y-107269484D01*
X120866541Y-107245483D02*
G75*
G03*
X118606541Y-105365485I-2069999J-190001D01*
G01*
X124470541Y-103245484D02*
G75*
G03*
X122206541Y-101361485I-2073999J-190000D01*
G01*
X198457075Y-135463186D02*
X206788186Y-137695500D01*
X197445611Y-139238024D02*
X198457075Y-135463186D01*
X197433705Y-139282457D02*
X202299725Y-140633925D01*
X208479935Y-140171733D02*
X207458893Y-143982310D01*
X207456564Y-143991003D02*
X203969572Y-143056667D01*
X203970955Y-143032190D02*
G75*
G03*
X202274541Y-140631319I-2048642J352229D01*
G01*
X208487427Y-140101271D02*
G75*
G03*
X206788186Y-137695501I-2052505J353265D01*
G01*
X113581541Y-63362284D02*
X122206541Y-63362284D01*
X113581541Y-67270284D02*
X113581541Y-63362284D01*
X113581541Y-67316284D02*
X118631541Y-67362284D01*
X124481541Y-65316284D02*
X124481541Y-69261284D01*
X124481541Y-69270284D02*
X120871541Y-69270284D01*
X120866541Y-69246283D02*
G75*
G03*
X118606541Y-67366285I-2069999J-190001D01*
G01*
X124470541Y-65246284D02*
G75*
G03*
X122206541Y-63362285I-2073999J-190000D01*
G01*
X94581341Y-85361284D02*
X103206341Y-85361284D01*
X94581341Y-89269284D02*
X94581341Y-85361284D01*
X94581341Y-89315284D02*
X99631341Y-89361284D01*
X105481341Y-87315284D02*
X105481341Y-91260284D01*
X105481341Y-91269284D02*
X101871341Y-91269284D01*
X101866341Y-91245283D02*
G75*
G03*
X99606341Y-89365285I-2069999J-190001D01*
G01*
X105470341Y-87245284D02*
G75*
G03*
X103206341Y-85361285I-2073999J-190000D01*
G01*
X132580941Y-61061524D02*
X141205941Y-61061524D01*
X132580941Y-64969524D02*
X132580941Y-61061524D01*
X132580941Y-65015524D02*
X137630941Y-65061524D01*
X143480941Y-63015524D02*
X143480941Y-66960524D01*
X143480941Y-66969524D02*
X139870941Y-66969524D01*
X139865941Y-66945523D02*
G75*
G03*
X137605941Y-65065525I-2069999J-190001D01*
G01*
X143469941Y-62945524D02*
G75*
G03*
X141205941Y-61061525I-2073999J-190000D01*
G01*
X214542438Y-128688035D02*
X202854736Y-125556325D01*
X214477733Y-128929517D02*
X216409585Y-129447155D01*
X214960198Y-134856339D02*
X216409585Y-129447155D01*
X213028347Y-134338701D02*
X214960198Y-134856339D01*
X212963642Y-134580183D02*
X214542438Y-128688035D01*
X212963642Y-134580183D02*
X201275939Y-131448472D01*
X201275939Y-131448472D02*
X202854736Y-125556325D01*
D11*
X105168152Y-112984794D02*
X107568152Y-112984794D01*
X107568152Y-112984794D02*
X107568152Y-118984794D01*
X107568152Y-118984794D02*
X105168152Y-118984794D01*
X105168152Y-118984794D02*
X105168152Y-112984794D01*
X107568152Y-118984794D02*
X105168152Y-118984794D01*
X105168152Y-118426394D01*
X107568152Y-118426394D01*
X107568152Y-118984794D01*
G36*
X107568152Y-118984794D02*
G01*
X105168152Y-118984794D01*
X105168152Y-118426394D01*
X107568152Y-118426394D01*
X107568152Y-118984794D01*
G37*
D10*
X170580839Y-104562084D02*
X179205839Y-104562084D01*
X170580839Y-108470084D02*
X170580839Y-104562084D01*
X170580839Y-108516084D02*
X175630839Y-108562084D01*
X181480839Y-106516084D02*
X181480839Y-110461084D01*
X181480839Y-110470084D02*
X177870839Y-110470084D01*
X177865839Y-110446083D02*
G75*
G03*
X175605839Y-108566085I-2069999J-190001D01*
G01*
X181469839Y-106446084D02*
G75*
G03*
X179205839Y-104562085I-2073999J-190000D01*
G01*
X132580941Y-99061684D02*
X141205941Y-99061684D01*
X132580941Y-102969684D02*
X132580941Y-99061684D01*
X132580941Y-103015684D02*
X137630941Y-103061684D01*
X143480941Y-101015684D02*
X143480941Y-104960684D01*
X143480941Y-104969684D02*
X139870941Y-104969684D01*
X139865941Y-104945683D02*
G75*
G03*
X137605941Y-103065685I-2069999J-190001D01*
G01*
X143469941Y-100945684D02*
G75*
G03*
X141205941Y-99061685I-2073999J-190000D01*
G01*
D12*
X206496153Y-146751606D02*
X205434995Y-150711902D01*
X208592588Y-138927607D02*
X207531429Y-142887903D01*
X206274366Y-138306441D02*
X208592588Y-138927607D01*
X201185419Y-143775685D02*
X201444239Y-142809759D01*
X200831866Y-143163312D02*
X201797792Y-143422132D01*
X201637922Y-137064110D02*
X204149329Y-137737039D01*
X195703168Y-149553653D02*
X195335745Y-149765785D01*
X195335745Y-149765785D02*
X195491036Y-149186230D01*
X195491036Y-149186230D02*
X195703168Y-149553653D01*
X194037070Y-147657837D02*
X205434995Y-150711902D01*
X195098229Y-143697541D02*
X194037070Y-147657837D01*
X196133505Y-139833838D02*
X197194663Y-135873542D01*
X197194663Y-135873542D02*
X199512885Y-136494708D01*
X204314829Y-143292722D02*
G75*
G03*
X204314829Y-143292722I-3000000J0D01*
G01*
D10*
X132580941Y-80061484D02*
X141205941Y-80061484D01*
X132580941Y-83969484D02*
X132580941Y-80061484D01*
X132580941Y-84015484D02*
X137630941Y-84061484D01*
X143480941Y-82015484D02*
X143480941Y-85960484D01*
X143480941Y-85969484D02*
X139870941Y-85969484D01*
X139865941Y-85945483D02*
G75*
G03*
X137605941Y-84065485I-2069999J-190001D01*
G01*
X143469941Y-81945484D02*
G75*
G03*
X141205941Y-80061485I-2073999J-190000D01*
G01*
D11*
X105168152Y-93984394D02*
X107568152Y-93984394D01*
X107568152Y-93984394D02*
X107568152Y-99984394D01*
X107568152Y-99984394D02*
X105168152Y-99984394D01*
X105168152Y-99984394D02*
X105168152Y-93984394D01*
X107568152Y-99984394D02*
X105168152Y-99984394D01*
X105168152Y-99425994D01*
X107568152Y-99425994D01*
X107568152Y-99984394D01*
G36*
X107568152Y-99984394D02*
G01*
X105168152Y-99984394D01*
X105168152Y-99425994D01*
X107568152Y-99425994D01*
X107568152Y-99984394D01*
G37*
X164567952Y-77784834D02*
X162167952Y-77784834D01*
X162167952Y-77784834D02*
X162167952Y-71784834D01*
X162167952Y-71784834D02*
X164567952Y-71784834D01*
X164567952Y-71784834D02*
X164567952Y-77784834D01*
X164567952Y-72343234D02*
X162167952Y-72343234D01*
X162167952Y-71784834D01*
X164567952Y-71784834D01*
X164567952Y-72343234D01*
G36*
X164567952Y-72343234D02*
G01*
X162167952Y-72343234D01*
X162167952Y-71784834D01*
X164567952Y-71784834D01*
X164567952Y-72343234D01*
G37*
D10*
X113581541Y-82361884D02*
X122206541Y-82361884D01*
X113581541Y-86269884D02*
X113581541Y-82361884D01*
X113581541Y-86315884D02*
X118631541Y-86361884D01*
X124481541Y-84315884D02*
X124481541Y-88260884D01*
X124481541Y-88269884D02*
X120871541Y-88269884D01*
X120866541Y-88245883D02*
G75*
G03*
X118606541Y-86365885I-2069999J-190001D01*
G01*
X124470541Y-84245884D02*
G75*
G03*
X122206541Y-82361885I-2073999J-190000D01*
G01*
X114600295Y-122005609D02*
X114732126Y-123006969D01*
X113608850Y-122136136D02*
X114600295Y-122005609D01*
X93890796Y-124732067D02*
X94882241Y-124601540D01*
X93890796Y-124732067D02*
X94014796Y-125673939D01*
X116923661Y-139653328D02*
X116793135Y-138661883D01*
X115882644Y-139790381D02*
X116923661Y-139653328D01*
X96214162Y-142379785D02*
X96083636Y-141388340D01*
X96214162Y-142379785D02*
X97205607Y-142249259D01*
%LPC*%
D13*
X112750790Y-125999587D02*
X111743483Y-126132202D01*
X111610868Y-125124894D01*
X112618176Y-124992279D01*
X112750790Y-125999587D01*
G36*
X112750790Y-125999587D02*
G01*
X111743483Y-126132202D01*
X111610868Y-125124894D01*
X112618176Y-124992279D01*
X112750790Y-125999587D01*
G37*
X110232521Y-126331124D02*
X109225213Y-126463738D01*
X109092598Y-125456430D01*
X110099906Y-125323816D01*
X110232521Y-126331124D01*
G36*
X110232521Y-126331124D02*
G01*
X109225213Y-126463738D01*
X109092598Y-125456430D01*
X110099906Y-125323816D01*
X110232521Y-126331124D01*
G37*
X107714251Y-126662660D02*
X106706943Y-126795275D01*
X106574328Y-125787967D01*
X107581636Y-125655352D01*
X107714251Y-126662660D01*
G36*
X107714251Y-126662660D02*
G01*
X106706943Y-126795275D01*
X106574328Y-125787967D01*
X107581636Y-125655352D01*
X107714251Y-126662660D01*
G37*
X105195981Y-126994197D02*
X104188673Y-127126811D01*
X104056058Y-126119503D01*
X105063366Y-125986889D01*
X105195981Y-126994197D01*
G36*
X105195981Y-126994197D02*
G01*
X104188673Y-127126811D01*
X104056058Y-126119503D01*
X105063366Y-125986889D01*
X105195981Y-126994197D01*
G37*
X102677711Y-127325733D02*
X101670403Y-127458348D01*
X101537788Y-126451040D01*
X102545096Y-126318425D01*
X102677711Y-127325733D01*
G36*
X102677711Y-127325733D02*
G01*
X101670403Y-127458348D01*
X101537788Y-126451040D01*
X102545096Y-126318425D01*
X102677711Y-127325733D01*
G37*
X100159441Y-127657270D02*
X99152133Y-127789884D01*
X99019518Y-126782576D01*
X100026826Y-126649962D01*
X100159441Y-127657270D01*
G36*
X100159441Y-127657270D02*
G01*
X99152133Y-127789884D01*
X99019518Y-126782576D01*
X100026826Y-126649962D01*
X100159441Y-127657270D01*
G37*
X97641171Y-127988806D02*
X96633863Y-128121421D01*
X96501248Y-127114113D01*
X97508556Y-126981498D01*
X97641171Y-127988806D01*
G36*
X97641171Y-127988806D02*
G01*
X96633863Y-128121421D01*
X96501248Y-127114113D01*
X97508556Y-126981498D01*
X97641171Y-127988806D01*
G37*
X114236074Y-137281437D02*
X113228766Y-137414051D01*
X113096152Y-136406743D01*
X114103460Y-136274129D01*
X114236074Y-137281437D01*
G36*
X114236074Y-137281437D02*
G01*
X113228766Y-137414051D01*
X113096152Y-136406743D01*
X114103460Y-136274129D01*
X114236074Y-137281437D01*
G37*
X111717804Y-137612973D02*
X110710496Y-137745588D01*
X110577882Y-136738280D01*
X111585190Y-136605665D01*
X111717804Y-137612973D01*
G36*
X111717804Y-137612973D02*
G01*
X110710496Y-137745588D01*
X110577882Y-136738280D01*
X111585190Y-136605665D01*
X111717804Y-137612973D01*
G37*
X109199534Y-137944510D02*
X108192226Y-138077124D01*
X108059612Y-137069816D01*
X109066920Y-136937202D01*
X109199534Y-137944510D01*
G36*
X109199534Y-137944510D02*
G01*
X108192226Y-138077124D01*
X108059612Y-137069816D01*
X109066920Y-136937202D01*
X109199534Y-137944510D01*
G37*
X106681264Y-138276046D02*
X105673956Y-138408661D01*
X105541342Y-137401353D01*
X106548650Y-137268738D01*
X106681264Y-138276046D01*
G36*
X106681264Y-138276046D02*
G01*
X105673956Y-138408661D01*
X105541342Y-137401353D01*
X106548650Y-137268738D01*
X106681264Y-138276046D01*
G37*
X104162994Y-138607583D02*
X103155686Y-138740197D01*
X103023072Y-137732889D01*
X104030380Y-137600275D01*
X104162994Y-138607583D01*
G36*
X104162994Y-138607583D02*
G01*
X103155686Y-138740197D01*
X103023072Y-137732889D01*
X104030380Y-137600275D01*
X104162994Y-138607583D01*
G37*
X101644724Y-138939119D02*
X100637416Y-139071734D01*
X100504802Y-138064426D01*
X101512110Y-137931811D01*
X101644724Y-138939119D01*
G36*
X101644724Y-138939119D02*
G01*
X100637416Y-139071734D01*
X100504802Y-138064426D01*
X101512110Y-137931811D01*
X101644724Y-138939119D01*
G37*
X99126454Y-139270656D02*
X98119146Y-139403270D01*
X97986532Y-138395962D01*
X98993840Y-138263348D01*
X99126454Y-139270656D01*
G36*
X99126454Y-139270656D02*
G01*
X98119146Y-139403270D01*
X97986532Y-138395962D01*
X98993840Y-138263348D01*
X99126454Y-139270656D01*
G37*
D14*
X182367650Y-98485194D03*
X182367650Y-95085194D03*
D15*
X163367952Y-92284794D03*
X163367952Y-95684794D03*
X125368352Y-111084594D03*
X125368352Y-114484594D03*
D16*
X188067152Y-147042794D03*
D14*
X171314152Y-125706794D03*
X171314152Y-122306794D03*
D16*
X164318152Y-120626794D03*
D17*
X173589152Y-136247794D03*
D18*
X175473278Y-134123042D03*
X177357404Y-131998291D03*
D19*
X178496055Y-137562595D03*
D18*
X182264307Y-133313092D03*
X182833633Y-136095244D03*
D17*
X183402958Y-138877396D03*
D20*
X174333965Y-131161867D03*
D21*
X185820845Y-136921964D03*
D15*
X163367952Y-111285194D03*
X163367952Y-114685194D03*
D14*
X144367752Y-112184794D03*
X144367752Y-108784794D03*
X182367650Y-79485394D03*
X182367650Y-76085394D03*
D17*
X151287952Y-70384834D03*
D18*
X152557952Y-67844833D03*
X153827952Y-65304834D03*
D19*
X156367952Y-70384834D03*
D18*
X158907952Y-65304834D03*
X160177952Y-67844834D03*
D17*
X161447952Y-70384834D03*
D22*
X150691052Y-65279434D03*
D23*
X163277348Y-67870237D03*
D17*
X151287952Y-89384794D03*
D18*
X152557952Y-86844793D03*
X153827952Y-84304794D03*
D19*
X156367952Y-89384794D03*
D18*
X158907952Y-84304794D03*
X160177952Y-86844794D03*
D17*
X161447952Y-89384794D03*
D22*
X150691052Y-84279394D03*
D23*
X163277348Y-86870197D03*
D14*
X144367752Y-73984634D03*
X144367752Y-70584634D03*
D15*
X125368352Y-92084994D03*
X125368352Y-95484994D03*
D17*
X155035527Y-130550933D03*
D18*
X156919653Y-128426181D03*
X158803779Y-126301430D03*
D19*
X159942430Y-131865734D03*
D18*
X163710682Y-127616231D03*
X164280008Y-130398383D03*
D17*
X164849333Y-133180535D03*
D20*
X155780340Y-125465006D03*
D21*
X167267220Y-131225103D03*
D17*
X151287952Y-108385194D03*
D18*
X152557952Y-105845193D03*
X153827952Y-103305194D03*
D19*
X156367952Y-108385194D03*
D18*
X158907952Y-103305194D03*
X160177952Y-105845194D03*
D17*
X161447952Y-108385194D03*
D22*
X150691052Y-103279794D03*
D23*
X163277348Y-105870597D03*
D14*
X182367650Y-117485194D03*
X182367650Y-114085194D03*
X106368152Y-79184994D03*
X106368152Y-75784994D03*
D17*
X94288152Y-72684994D03*
D18*
X95558152Y-70144993D03*
X96828152Y-67604994D03*
D19*
X99368152Y-72684994D03*
D18*
X101908152Y-67604994D03*
X103178152Y-70144994D03*
D17*
X104448152Y-72684994D03*
D22*
X93691252Y-67579594D03*
D23*
X106277548Y-70170397D03*
D17*
X170287650Y-92385194D03*
D18*
X171557650Y-89845193D03*
X172827650Y-87305194D03*
D19*
X175367650Y-92385194D03*
D18*
X177907650Y-87305194D03*
X179177650Y-89845194D03*
D17*
X180447650Y-92385194D03*
D22*
X169690750Y-87279794D03*
D23*
X182277046Y-89870597D03*
D14*
X144367752Y-93184594D03*
X144367752Y-89784594D03*
D17*
X170287650Y-73385394D03*
D18*
X171557650Y-70845393D03*
X172827650Y-68305394D03*
D19*
X175367650Y-73385394D03*
D18*
X177907650Y-68305394D03*
X179177650Y-70845394D03*
D17*
X180447650Y-73385394D03*
D22*
X169690750Y-68279994D03*
D23*
X182277046Y-70870797D03*
D15*
X125368352Y-73085394D03*
X125368352Y-76485394D03*
D14*
X174928152Y-125706794D03*
X174928152Y-122306794D03*
D24*
X194417152Y-129770794D03*
X193451226Y-129511975D03*
X192485301Y-129253156D03*
X191519375Y-128994337D03*
X190553449Y-128735518D03*
X189587523Y-128476699D03*
D25*
X198029964Y-127840071D03*
X187424098Y-124998238D03*
D17*
X94288152Y-111184794D03*
D18*
X95558152Y-108644793D03*
X96828152Y-106104794D03*
D19*
X99368152Y-111184794D03*
D18*
X101908152Y-106104794D03*
X103178152Y-108644794D03*
D17*
X104448152Y-111184794D03*
D22*
X93691252Y-106079394D03*
D23*
X106277548Y-108670197D03*
D14*
X178542152Y-125706794D03*
X178542152Y-122306794D03*
D16*
X110597152Y-118975794D03*
D17*
X113288352Y-108184594D03*
D18*
X114558352Y-105644593D03*
X115828352Y-103104594D03*
D19*
X118368352Y-108184594D03*
D18*
X120908352Y-103104594D03*
X122178352Y-105644594D03*
D17*
X123448352Y-108184594D03*
D22*
X112691452Y-103079194D03*
D23*
X125277748Y-105669997D03*
D17*
X196407926Y-141977921D03*
D18*
X198292052Y-139853169D03*
X200176178Y-137728418D03*
D19*
X201314829Y-143292722D03*
D18*
X205083081Y-139043219D03*
X205652407Y-141825371D03*
D17*
X206221732Y-144607523D03*
D20*
X197152739Y-136891994D03*
D21*
X208639619Y-142652091D03*
D26*
X130631530Y-127949309D03*
D17*
X113288352Y-70185394D03*
D18*
X114558352Y-67645393D03*
X115828352Y-65105394D03*
D19*
X118368352Y-70185394D03*
D18*
X120908352Y-65105394D03*
X122178352Y-67645394D03*
D17*
X123448352Y-70185394D03*
D22*
X112691452Y-65079994D03*
D23*
X125277748Y-67670797D03*
D16*
X167569179Y-62196750D03*
D17*
X94288152Y-92184394D03*
D18*
X95558152Y-89644393D03*
X96828152Y-87104394D03*
D19*
X99368152Y-92184394D03*
D18*
X101908152Y-87104394D03*
X103178152Y-89644394D03*
D17*
X104448152Y-92184394D03*
D22*
X93691252Y-87078994D03*
D23*
X106277548Y-89669797D03*
D17*
X132287752Y-67884634D03*
D18*
X133557752Y-65344633D03*
X134827752Y-62804634D03*
D19*
X137367752Y-67884634D03*
D18*
X139907752Y-62804634D03*
X141177752Y-65344634D03*
D17*
X142447752Y-67884634D03*
D22*
X131690852Y-62779234D03*
D23*
X144277148Y-65370037D03*
D27*
X212207559Y-131219999D03*
X205446078Y-129408265D03*
D28*
X204484326Y-126738371D03*
X203305313Y-131215784D03*
X208348030Y-127773647D03*
X207169016Y-132251060D03*
X211245807Y-128550104D03*
X210066794Y-133027517D03*
X203433362Y-126487824D03*
X202231240Y-130896929D03*
D14*
X106368152Y-117484794D03*
X106368152Y-114084794D03*
D16*
X107320552Y-61749594D03*
X119893552Y-136527194D03*
D17*
X170287650Y-111385194D03*
D18*
X171557650Y-108845193D03*
X172827650Y-106305194D03*
D19*
X175367650Y-111385194D03*
D18*
X177907650Y-106305194D03*
X179177650Y-108845194D03*
D17*
X180447650Y-111385194D03*
D22*
X169690750Y-106279794D03*
D23*
X182277046Y-108870597D03*
D17*
X132287752Y-105884794D03*
D18*
X133557752Y-103344793D03*
X134827752Y-100804794D03*
D19*
X137367752Y-105884794D03*
D18*
X139907752Y-100804794D03*
X141177752Y-103344794D03*
D17*
X142447752Y-105884794D03*
D22*
X131690852Y-100779394D03*
D23*
X144277148Y-103370197D03*
D29*
X196958872Y-149890118D03*
X201788501Y-151184213D03*
X199373686Y-150537166D03*
D30*
X206724014Y-144742109D03*
X195905644Y-141843335D03*
D29*
X205541377Y-137178289D03*
X200711748Y-135884194D03*
D17*
X132287752Y-86884594D03*
D18*
X133557752Y-84344593D03*
X134827752Y-81804594D03*
D19*
X137367752Y-86884594D03*
D18*
X139907752Y-81804594D03*
X141177752Y-84344594D03*
D17*
X142447752Y-86884594D03*
D22*
X131690852Y-81779194D03*
D23*
X144277148Y-84369997D03*
D14*
X106368152Y-98484394D03*
X106368152Y-95084394D03*
D15*
X163367952Y-73284834D03*
X163367952Y-76684834D03*
D17*
X113288352Y-89184994D03*
D18*
X114558352Y-86644993D03*
X115828352Y-84104994D03*
D19*
X118368352Y-89184994D03*
D18*
X120908352Y-84104994D03*
X122178352Y-86644994D03*
D17*
X123448352Y-89184994D03*
D22*
X112691452Y-84079594D03*
D23*
X125277748Y-86670397D03*
D31*
X111936850Y-123709032D03*
X109418580Y-124040568D03*
X106900310Y-124372105D03*
X104382040Y-124703641D03*
X101863770Y-125035178D03*
X99345500Y-125366714D03*
X96827230Y-125698251D03*
D32*
X112147676Y-125310414D03*
X109629406Y-125641950D03*
X107111136Y-125973487D03*
X104592866Y-126305023D03*
X102074596Y-126636560D03*
X99556326Y-126968096D03*
X97038056Y-127299633D03*
D33*
X113699266Y-137095917D03*
X111180997Y-137427453D03*
X108662727Y-137758990D03*
X106144457Y-138090526D03*
X103626187Y-138422063D03*
X101107917Y-138753600D03*
X98589647Y-139085136D03*
D31*
X113908135Y-138682427D03*
X111389865Y-139013963D03*
X108871595Y-139345500D03*
X106353325Y-139677037D03*
X103835055Y-140008573D03*
X101316785Y-140340110D03*
X98798515Y-140671646D03*
D34*
X97170670Y-128306941D03*
X99688940Y-127975404D03*
X102207210Y-127643868D03*
X104725480Y-127312331D03*
X107243750Y-126980795D03*
X109762020Y-126649258D03*
X112280290Y-126317722D03*
D35*
X113566652Y-136088609D03*
X111048382Y-136420145D03*
X108530112Y-136751682D03*
X106011842Y-137083219D03*
X103493572Y-137414755D03*
X100975302Y-137746292D03*
X98457032Y-138077828D03*
D36*
X195699771Y-127398807D03*
D37*
X194492364Y-127075283D03*
X193284956Y-126751759D03*
X192077549Y-126428236D03*
X190870142Y-126104712D03*
X189662735Y-125781188D03*
D38*
X98457850Y-136947982D03*
X100975302Y-136542400D03*
X103501100Y-136288400D03*
X102471500Y-119509194D03*
X92458756Y-70170397D03*
X130370052Y-65395434D03*
X168369950Y-70896194D03*
D27*
X100184869Y-134713600D03*
X194417152Y-129770794D03*
X100184869Y-129495931D03*
D38*
X111370652Y-67696194D03*
X104978752Y-106085394D03*
X111370652Y-105695394D03*
X106004656Y-136122144D03*
X111370652Y-86695794D03*
X104978752Y-67585594D03*
X104978752Y-87084994D03*
X112586308Y-113810094D03*
X149370252Y-86895594D03*
X149370252Y-67895634D03*
X108530800Y-135678800D03*
X149370252Y-105895994D03*
X142978352Y-100785394D03*
X142978352Y-81785194D03*
X142978352Y-62785234D03*
X180978250Y-68285994D03*
X113543552Y-113810094D03*
X111038863Y-135456737D03*
X180644624Y-105952168D03*
X180978250Y-87285794D03*
X153827423Y-127650213D03*
X179050152Y-114759694D03*
X180707752Y-116417294D03*
X195199822Y-139077201D03*
X172381048Y-133347074D03*
X113560000Y-135018400D03*
X113560000Y-127597432D03*
X123978952Y-65085994D03*
X161978552Y-65285434D03*
X166681675Y-128392222D03*
X193451226Y-129511975D03*
X107815283Y-128506217D03*
X208054074Y-139819210D03*
X112848800Y-131206494D03*
X185527152Y-124055794D03*
X112280290Y-127578394D03*
X190553449Y-128735518D03*
D27*
X97608800Y-129786000D03*
X189587523Y-128476699D03*
X102701972Y-129163228D03*
D38*
X123978952Y-103085194D03*
X130370052Y-103395594D03*
X168369950Y-108895994D03*
X92370452Y-108695594D03*
X161978552Y-103285794D03*
X92370452Y-89695194D03*
X123978952Y-84085594D03*
X130370052Y-84395394D03*
X161978552Y-84285394D03*
X168369950Y-89895994D03*
X185235300Y-134089083D03*
X110359600Y-129596900D03*
X192485300Y-129253156D03*
X110364837Y-128205963D03*
X191519374Y-128994337D03*
X184561952Y-123381294D03*
X105279600Y-128820800D03*
%LPD*%
M02*
