G04 #@! TF.GenerationSoftware,KiCad,Pcbnew,7.0.5*
G04 #@! TF.CreationDate,2024-01-08T16:38:30+08:00*
G04 #@! TF.ProjectId,awkb_v2_mx,61776b62-5f76-4325-9f6d-782e6b696361,rev?*
G04 #@! TF.SameCoordinates,Original*
G04 #@! TF.FileFunction,Paste,Top*
G04 #@! TF.FilePolarity,Positive*
%FSLAX46Y46*%
G04 Gerber Fmt 4.6, Leading zero omitted, Abs format (unit mm)*
G04 Created by KiCad (PCBNEW 7.0.5) date 2024-01-08 16:38:30*
%MOMM*%
%LPD*%
G01*
G04 APERTURE LIST*
G04 Aperture macros list*
%AMRotRect*
0 Rectangle, with rotation*
0 The origin of the aperture is its center*
0 $1 length*
0 $2 width*
0 $3 Rotation angle, in degrees counterclockwise*
0 Add horizontal line*
21,1,$1,$2,0,0,$3*%
%AMFreePoly0*
4,1,19,1.226568,1.240810,1.242719,1.230019,1.253510,1.213868,1.257300,1.194816,1.257300,-0.746760,0.759460,-1.244600,0.000000,-1.244600,-1.207516,-1.244600,-1.226568,-1.240810,-1.242719,-1.230019,-1.253510,-1.213868,-1.257300,-1.194816,-1.257300,1.194816,-1.253511,1.213868,-1.242719,1.230019,-1.226568,1.240811,-1.207516,1.244600,1.207516,1.244600,1.226568,1.240810,1.226568,1.240810,
$1*%
%AMFreePoly1*
4,1,592,-2.671295,6.507199,-2.656065,6.506585,-2.592349,6.495248,-2.524517,6.458432,-2.515304,6.451896,-2.276055,6.278741,-2.011862,6.087973,-1.721647,5.878815,-1.457791,5.688935,-0.973110,5.340346,1.016000,5.340346,1.016000,3.907063,1.183074,3.787614,1.278999,3.718392,1.350198,3.664886,1.400288,3.623494,1.432886,3.590610,1.451610,3.562631,1.460076,3.535954,1.461915,3.509794,
1.447983,3.444776,1.404875,3.370192,1.312087,3.241452,1.237343,3.137631,1.178429,3.055624,1.133210,2.992439,1.099552,2.945085,1.075321,2.910571,1.058383,2.885906,1.046605,2.868095,1.045887,2.866979,1.040915,2.857575,1.036525,2.844426,1.032681,2.825477,1.029347,2.798672,1.026484,2.761954,1.024061,2.713269,1.022039,2.650560,1.020383,2.571772,1.019058,2.474849,
1.018026,2.357736,1.017252,2.218376,1.016701,2.054714,1.016336,1.864694,1.016122,1.646260,1.016022,1.397357,1.016000,1.156209,1.016000,-0.508000,-1.382441,-0.508000,-1.433893,-0.559452,-1.490718,-0.600221,-1.549827,-0.608697,-1.614930,-0.584887,-1.652146,-0.559929,-1.719516,-0.508954,-4.832344,-0.508000,-4.832395,-0.352021,-4.777595,-0.352021,-4.776902,-0.419062,-4.765228,-0.454809,
-4.760445,-0.459086,-4.740103,-0.461403,-4.688710,-0.463491,-4.609308,-0.465348,-4.504942,-0.466978,-4.378656,-0.468381,-4.233493,-0.469560,-4.072499,-0.470514,-3.898715,-0.471246,-3.715188,-0.471756,-3.524960,-0.472047,-3.331075,-0.472120,-3.136579,-0.471975,-2.944514,-0.471615,-2.757924,-0.471041,-2.579855,-0.470254,-2.413348,-0.469255,-2.261450,-0.468046,-2.127203,-0.466628,-2.013652,-0.465002,
-1.923840,-0.463171,-1.860812,-0.461135,-1.827611,-0.458895,-1.823177,-0.457774,-1.834305,-0.444623,-1.869932,-0.414422,-1.926527,-0.369892,-2.000558,-0.313755,-2.088495,-0.248731,-2.186806,-0.177542,-2.306506,-0.091629,-2.434613,0.000483,-2.563468,0.093276,-2.684865,0.180838,-2.790600,0.257258,-2.834304,0.288916,-2.924320,0.354129,-3.009824,0.415965,-3.085020,0.470241,-3.144116,0.512776,
-3.181603,0.539590,-3.254493,0.591285,-3.254493,-0.250384,-4.772318,-0.259317,-4.777595,-0.352021,-4.832395,-0.352021,-4.833070,1.730150,-4.999925,1.849032,-5.167662,1.968884,-5.307999,2.069917,-5.421790,2.152759,-5.509889,2.218042,-5.573148,2.266396,-5.612424,2.298450,-5.625559,2.310917,-5.652102,2.364240,-5.647418,2.428715,-5.640961,2.441922,-5.243959,2.441922,-5.230786,2.427163,
-5.194559,2.396518,-5.140215,2.353924,-5.072694,2.303319,-5.042440,2.281236,-4.840921,2.135255,-4.836128,2.347592,-4.834589,2.454647,-4.834159,2.578804,-4.834283,2.601633,-4.780894,2.601633,-4.780837,2.458211,-4.780475,2.345149,-4.779524,2.258505,-4.777695,2.194340,-4.774705,2.148711,-4.770265,2.117677,-4.764091,2.097299,-4.755896,2.083633,-4.745395,2.072740,-4.742305,2.069924,
-4.716774,2.049403,-4.668226,2.012686,-4.601615,1.963430,-4.521894,1.905295,-4.434016,1.841937,-4.420732,1.832420,-3.906214,1.464122,-3.809865,1.395002,-3.705609,1.319960,-3.604292,1.246819,-3.516765,1.183402,-3.494601,1.167284,-3.426311,1.118228,-3.367853,1.077478,-3.324838,1.048850,-3.302870,1.036164,-3.301657,1.035868,-3.299830,1.052584,-3.298081,1.101263,-3.296427,1.179569,
-3.294888,1.285168,-3.293478,1.415720,-3.292220,1.568889,-3.291130,1.742338,-3.290227,1.933730,-3.289528,2.140729,-3.289052,2.360999,-3.288816,2.592201,-3.288794,2.690582,-3.288794,4.345613,-3.882841,4.345613,-3.960078,4.238421,-3.996036,4.188562,-4.046974,4.117995,-4.107773,4.033808,-4.173313,3.943089,-4.223264,3.873971,-4.301130,3.766113,-4.389923,3.642902,-4.480610,3.516888,
-4.564160,3.400615,-4.595054,3.357557,-4.780893,3.098400,-4.780894,2.601633,-4.834283,2.601633,-4.834837,2.702882,-4.836128,2.788186,-4.840921,3.016443,-5.042440,2.736535,-5.103753,2.650672,-5.157552,2.573993,-5.200809,2.510924,-5.230500,2.465888,-5.243596,2.443310,-5.243959,2.441922,-5.640961,2.441922,-5.611710,2.501761,-5.610323,2.503820,-5.583922,2.541842,-5.539735,2.604405,
-5.480085,2.688264,-5.407295,2.790173,-5.323689,2.906885,-5.231590,3.035154,-5.133322,3.171734,-5.031208,3.313379,-4.995651,3.362635,-4.832345,3.588772,-4.832345,5.288894,-4.780894,5.288894,-4.780894,4.835833,-4.780506,4.691331,-4.779250,4.578089,-4.776983,4.493072,-4.773566,4.433246,-4.768857,4.395578,-4.762716,4.377033,-4.759455,4.374122,-4.732160,4.369893,-4.679677,4.366912,
-4.609954,4.365152,-4.530946,4.364583,-4.450599,4.365175,-4.376863,4.366901,-4.317690,4.369731,-4.281028,4.373636,-4.280053,4.373938,-3.843070,4.373938,-3.823017,4.370239,-3.774553,4.367057,-3.703566,4.364611,-3.615944,4.363121,-3.543194,4.362763,-3.254493,4.362763,-3.253451,0.992675,-2.872372,0.719317,-2.655470,0.563699,-2.464970,0.426957,-2.299376,0.308014,-2.157192,0.205787,
-2.036921,0.119201,-1.937068,0.047174,-1.856135,-0.011371,-1.792626,-0.057514,-1.745046,-0.092334,-1.711898,-0.116911,-1.693790,-0.130679,-1.633763,-0.177355,-1.616770,1.944532,-1.590887,1.944532,-1.590887,0.872621,-1.590687,0.684374,-1.590110,0.506658,-1.589192,0.342375,-1.587966,0.194430,-1.586468,0.065727,-1.584733,-0.040831,-1.582795,-0.122337,-1.580690,-0.175892,-1.578452,-0.198588,
-1.578024,-0.199173,-1.561568,-0.186103,-1.535007,-0.153255,-1.522285,-0.135054,-1.501701,-0.105380,-1.463948,-0.051982,-1.411951,0.021063,-1.348637,0.109680,-1.276934,0.209793,-1.199765,0.317328,-1.120058,0.428208,-1.040738,0.538360,-0.964732,0.643705,-0.894966,0.740171,-0.834366,0.823680,-0.803260,0.866369,-0.751704,0.937257,-0.689465,1.023259,-0.625794,1.111575,-0.587578,1.164781,
-0.306442,1.556922,-0.247465,1.638868,-0.191537,1.716007,-0.143461,1.781755,-0.108037,1.829530,-0.096347,1.844911,-0.067061,1.886362,-0.049541,1.918153,-0.047334,1.926376,-0.061611,1.931230,-0.104999,1.935297,-0.178344,1.938598,-0.282490,1.941151,-0.418282,1.942977,-0.586561,1.944095,-0.788175,1.944526,-0.819111,1.944532,-1.590887,1.944532,-1.616770,1.944532,-1.616613,1.964118,
-0.008523,1.970258,0.001444,1.984065,0.415730,1.984065,0.431929,1.979470,0.476730,1.975693,0.544438,1.972990,0.629357,1.971617,0.694427,1.971574,0.973124,1.973048,0.977737,2.363367,0.978592,2.494309,0.977836,2.600566,0.975539,2.679806,0.971774,2.729691,0.966611,2.747889,0.965971,2.747859,0.950469,2.732426,0.919475,2.694226,0.877142,2.638612,0.827625,2.570935,
0.815051,2.553378,0.748357,2.460060,0.672674,2.354480,0.598384,2.251111,0.548121,2.181376,0.498940,2.112262,0.458036,2.052865,0.429173,2.008795,0.416114,1.985662,0.415730,1.984065,0.001444,1.984065,0.300978,2.399022,0.389598,2.521772,0.482196,2.649996,0.573972,2.777044,0.660113,2.896266,0.735822,3.001012,0.796589,3.085046,0.982700,3.342304,0.977528,3.444195,
1.016000,3.444195,1.021445,3.415016,1.033151,3.410907,1.047558,3.435097,1.050301,3.454795,1.042924,3.482110,1.033151,3.488084,1.020368,3.473376,1.016000,3.444195,0.977528,3.444195,0.973124,3.530960,0.855836,3.618915,0.781560,3.673768,0.696566,3.735278,0.618436,3.790728,0.613730,3.794017,0.488914,3.881164,-0.449107,3.202966,-0.608282,3.088223,-0.759574,2.979824,
-0.900658,2.879393,-1.029211,2.788552,-1.142906,2.708927,-1.239420,2.642140,-1.316427,2.589814,-1.371603,2.553575,-1.402622,2.535044,-1.408486,2.532964,-1.424394,2.548745,-1.456981,2.588339,-1.503056,2.647604,-1.559424,2.722398,-1.622889,2.808581,-1.651056,2.847404,-1.735085,2.963747,-1.830354,3.095678,-1.928670,3.231847,-2.021837,3.360904,-2.088877,3.453783,-2.156958,3.548052,
-2.240118,3.663091,-2.333291,3.791904,-2.431418,3.927493,-2.529433,4.062862,-2.628668,4.199833,-2.717550,4.322535,-2.808922,4.448793,-2.898421,4.572571,-2.981681,4.687829,-3.054342,4.788531,-3.112041,4.868639,-3.120837,4.880874,-3.177562,4.959194,-3.227855,5.027492,-3.268128,5.080984,-3.294788,5.114883,-3.303674,5.124560,-3.319501,5.115893,-3.348061,5.085020,-3.383358,5.038479,
-3.385640,5.035214,-3.421886,4.983771,-3.472095,4.913392,-3.529991,4.832837,-3.589297,4.750867,-3.654673,4.660884,-3.710321,4.584210,-3.758331,4.517977,-3.792959,4.470110,-3.797381,4.463979,-3.826403,4.419445,-3.842410,4.386164,-3.843070,4.373938,-4.280053,4.373938,-4.273753,4.375888,-4.252321,4.398273,-4.213562,4.447226,-4.159031,4.520681,-4.090286,4.616571,-4.057645,4.662898,
-4.027379,4.705646,-3.981791,4.769524,-3.925658,4.847864,-3.863754,4.934000,-3.818121,4.997334,-3.759435,5.078878,-3.707305,5.151650,-3.694493,5.169642,-3.266097,5.169642,-3.254676,5.145189,-3.237873,5.120473,-3.200945,5.068155,-3.143975,4.988347,-3.067045,4.881168,-2.970238,4.746729,-2.853637,4.585145,-2.717324,4.396532,-2.561381,4.181003,-2.385892,3.938673,-2.353121,3.893443,
-2.219810,3.709409,-2.104515,3.550155,-2.005095,3.412707,-1.919408,3.294091,-1.845313,3.191334,-1.780668,3.101463,-1.723331,3.021504,-1.671161,2.948484,-1.622015,2.879430,-1.577030,2.815998,-1.521177,2.738160,-1.471653,2.671101,-1.432003,2.619464,-1.405770,2.587891,-1.397070,2.580177,-1.381053,2.589768,-1.339779,2.617761,-1.275734,2.662391,-1.191403,2.721889,-1.089276,2.794490,
-0.971837,2.878427,-0.841573,2.971932,-0.700969,3.073239,-0.573842,3.165136,-0.423105,3.274245,-0.278097,3.379172,-0.141664,3.477861,-0.016651,3.568254,0.094097,3.648296,0.187733,3.715930,0.261412,3.769098,0.312290,3.805745,0.333765,3.821146,0.382461,3.858139,0.417614,3.889159,0.431964,3.907767,0.432006,3.908273,0.418749,3.923223,0.381796,3.954512,0.325494,3.998728,
0.254188,4.052457,0.218996,4.078148,0.772812,4.078148,0.864393,4.015727,0.913483,3.983375,0.951397,3.960429,0.968836,3.952227,0.974786,3.967502,0.979277,4.009068,0.981559,4.068920,0.981699,4.089324,0.981699,4.227498,0.934535,4.199608,0.889733,4.169959,0.839385,4.132400,0.830092,4.124934,0.772812,4.078148,0.218996,4.078148,0.172227,4.112289,0.069879,4.185909,
-0.048671,4.271235,-0.174341,4.361729,-0.296785,4.449940,-0.390347,4.517378,-0.491909,4.590574,-0.612955,4.677762,-0.745111,4.772916,-0.880010,4.870008,-1.009280,4.963014,-1.076370,5.011265,-1.462258,5.288752,-3.200705,5.288894,-3.238918,5.235230,-3.262738,5.196686,-3.266097,5.169642,-3.694493,5.169642,-3.665233,5.210734,-3.636725,5.251214,-3.625689,5.267456,-3.628573,5.273416,
-3.647066,5.278230,-3.683934,5.282003,-3.741940,5.284839,-3.823850,5.286841,-3.932427,5.288113,-4.070438,5.288759,-4.196762,5.288894,-4.780894,5.288894,-4.832345,5.288894,-4.832345,5.340346,-3.570590,5.340346,-3.563244,5.350539,-3.151589,5.350539,-3.135000,5.348472,-3.087477,5.346545,-3.012387,5.344803,-2.913098,5.343286,-2.792976,5.342040,-2.655390,5.341106,-2.503706,5.340527,
-2.354088,5.340346,-2.192378,5.340504,-2.041659,5.340957,-1.905296,5.341670,-1.786657,5.342614,-1.689110,5.343757,-1.616021,5.345065,-1.570758,5.346508,-1.556586,5.347931,-1.569833,5.359805,-1.606791,5.388524,-1.663284,5.430957,-1.735137,5.483975,-1.818174,5.544450,-1.835283,5.556822,-1.943058,5.634674,-2.062409,5.720891,-2.292947,5.887442,-2.356237,5.933171,-2.435853,5.989478,
-2.506300,6.037001,-2.562797,6.072696,-2.600561,6.093523,-2.614302,6.097305,-2.628334,6.080897,-2.658659,6.041298,-2.702062,5.982980,-2.755323,5.910414,-2.815227,5.828073,-2.878554,5.740429,-2.942087,5.651953,-3.002609,5.567119,-3.056902,5.490398,-3.101747,5.426263,-3.133929,5.379186,-3.150228,5.353639,-3.151589,5.350539,-3.563244,5.350539,-3.289393,5.730521,-3.169311,5.897225,
-3.067674,6.038313,-2.982748,6.155912,-2.912800,6.252144,-2.856098,6.329135,-2.810907,6.389005,-2.775495,6.433881,-2.748127,6.465888,-2.727071,6.487147,-2.710593,6.499784,-2.696960,6.505922,-2.684438,6.507686,-2.671295,6.507199,-2.671295,6.507199,$1*%
G04 Aperture macros list end*
%ADD10FreePoly0,345.000000*%
%ADD11RotRect,2.489194X2.489194X345.000000*%
%ADD12FreePoly0,0.000000*%
%ADD13R,2.489194X2.489194*%
%ADD14RotRect,0.610000X2.000000X165.000000*%
%ADD15RotRect,2.680000X3.600000X165.000000*%
%ADD16FreePoly1,35.000000*%
G04 APERTURE END LIST*
D10*
X174333965Y-131161867D03*
D11*
X185820845Y-136921964D03*
D12*
X150691052Y-65279434D03*
D13*
X163277348Y-67870237D03*
D12*
X150691052Y-84279394D03*
D13*
X163277348Y-86870197D03*
D10*
X155780340Y-125465006D03*
D11*
X167267220Y-131225103D03*
D12*
X150691052Y-103279794D03*
D13*
X163277348Y-105870597D03*
D12*
X93691252Y-67579594D03*
D13*
X106277548Y-70170397D03*
D12*
X169690750Y-87279794D03*
D13*
X182277046Y-89870597D03*
D12*
X169690750Y-68279994D03*
D13*
X182277046Y-70870797D03*
D14*
X194417152Y-129770794D03*
X193451226Y-129511975D03*
X192485301Y-129253156D03*
X191519375Y-128994337D03*
X190553449Y-128735518D03*
X189587523Y-128476699D03*
D15*
X198029964Y-127840071D03*
X187424098Y-124998238D03*
D12*
X93691252Y-106079394D03*
D13*
X106277548Y-108670197D03*
D12*
X112691452Y-103079194D03*
D13*
X125277748Y-105669997D03*
D10*
X197152739Y-136891994D03*
D11*
X208639619Y-142652091D03*
D16*
X130631530Y-127949309D03*
D12*
X112691452Y-65079994D03*
D13*
X125277748Y-67670797D03*
D12*
X93691252Y-87078994D03*
D13*
X106277548Y-89669797D03*
D12*
X131690852Y-62779234D03*
D13*
X144277148Y-65370037D03*
D12*
X169690750Y-106279794D03*
D13*
X182277046Y-108870597D03*
D12*
X131690852Y-100779394D03*
D13*
X144277148Y-103370197D03*
D12*
X131690852Y-81779194D03*
D13*
X144277148Y-84369997D03*
D12*
X112691452Y-84079594D03*
D13*
X125277748Y-86670397D03*
M02*
