M48
; DRILL file {KiCad 8.0.2-1} date 2024-09-10T00:57:13+0800
; FORMAT={-:-/ absolute / metric / decimal}
; #@! TF.CreationDate,2024-09-10T00:57:13+08:00
; #@! TF.GenerationSoftware,Kicad,Pcbnew,8.0.2-1
; #@! TF.FileFunction,Plated,1,2,PTH
FMAT,2
METRIC
; #@! TA.AperFunction,Plated,PTH,ViaDrill
T1C0.400
; #@! TA.AperFunction,Plated,PTH,ComponentDrill
T2C1.000
; #@! TA.AperFunction,Plated,PTH,ComponentDrill
T3C1.100
; #@! TA.AperFunction,Plated,PTH,ComponentDrill
T4C2.200
%
G90
G05
T1
X51.612Y-54.811
X53.498Y-74.995
X55.867Y-36.288
X57.611Y-56.446
X89.932Y-58.646
X90.339Y-104.075
X90.521Y-83.886
X93.94Y-40.081
X94.823Y-65.364
X121.284Y-92.518
X125.369Y-100.629
X125.786Y-74.062
X125.797Y-115.21
X126.259Y-102.079
X126.263Y-80.721
X127.216Y-102.529
X128.109Y-102.979
X129.055Y-107.451
X129.78Y-108.27
X130.198Y-55.592
X130.661Y-62.255
X131.385Y-103.567
X131.563Y-85.406
X133.781Y-89.089
X138.533Y-67.868
X139.552Y-67.862
X140.044Y-78.129
X140.961Y-78.675
X141.139Y-85.787
X142.37Y-104.901
X158.817Y-104.176
X158.839Y-101.929
X158.845Y-102.948
X158.919Y-100.824
X160.29Y-76.389
X160.671Y-84.568
X160.697Y-82.028
X165.814Y-57.462
X165.816Y-58.486
X166.615Y-63.079
X168.291Y-71.817
X169.049Y-64.798
X169.053Y-86.473
X169.282Y-58.341
X173.651Y-92.137
X173.671Y-76.837
X175.326Y-99.482
X175.326Y-117.386
X177.849Y-101.787
X178.172Y-95.293
X178.68Y-100.214
X193.973Y-112.866
X203.319Y-63.233
X205.35Y-42.847
X207.621Y-81.754
X209.414Y-61.389
X240.626Y-54.235
X243.469Y-39.037
X244.738Y-72.785
X247.653Y-57.542
T2
X167.499Y-108.809
X167.499Y-103.729
X167.499Y-111.349
X167.499Y-106.269
X203.953Y-23.573
X204.611Y-26.026
X205.268Y-28.48
X205.925Y-30.933
T3
X142.37Y-71.817
X142.37Y-74.357
X142.37Y-76.897
X142.37Y-79.437
X142.37Y-81.977
X142.37Y-84.517
X142.37Y-87.057
X142.37Y-89.597
X142.37Y-92.137
X142.37Y-94.677
X142.37Y-97.217
X142.37Y-99.757
X157.61Y-87.057
X157.61Y-71.817
X157.61Y-74.357
X157.61Y-76.897
X157.61Y-79.437
X157.61Y-81.977
X157.61Y-84.517
X157.61Y-89.597
X157.61Y-92.137
X157.61Y-94.677
X157.61Y-97.217
X157.61Y-99.757
T4
X128.5Y-111.049
X168.177Y-40.737
X171.5Y-104.049
X207.9Y-22.847
M30
