G04 #@! TF.GenerationSoftware,KiCad,Pcbnew,8.0.2-1*
G04 #@! TF.CreationDate,2024-09-10T00:57:15+08:00*
G04 #@! TF.ProjectId,34_monosplit,33345f6d-6f6e-46f7-9370-6c69742e6b69,rev?*
G04 #@! TF.SameCoordinates,Original*
G04 #@! TF.FileFunction,Legend,Bot*
G04 #@! TF.FilePolarity,Positive*
%FSLAX46Y46*%
G04 Gerber Fmt 4.6, Leading zero omitted, Abs format (unit mm)*
G04 Created by KiCad (PCBNEW 8.0.2-1) date 2024-09-10 00:57:15*
%MOMM*%
%LPD*%
G01*
G04 APERTURE LIST*
%ADD10C,0.125000*%
%ADD11C,0.150000*%
%ADD12C,0.500000*%
%ADD13C,0.800000*%
%ADD14C,0.300000*%
%ADD15C,3.000000*%
%ADD16C,3.500000*%
%ADD17C,1.000000*%
%ADD18C,0.400000*%
%ADD19C,0.200000*%
%ADD20C,0.120000*%
G04 APERTURE END LIST*
D10*
X85581625Y-93155990D02*
X86165977Y-93549435D01*
X86165977Y-93549435D02*
X85632046Y-93492267D01*
X85632046Y-93492267D02*
X86042844Y-93785972D01*
X86042844Y-93785972D02*
X85304576Y-93688196D01*
X85842753Y-94170343D02*
X85181443Y-93924732D01*
X85704229Y-94436446D02*
X85357828Y-94307793D01*
X85357828Y-94307793D02*
X85310237Y-94254834D01*
X85310237Y-94254834D02*
X85309530Y-94184005D01*
X85309530Y-94184005D02*
X85355705Y-94095304D01*
X85355705Y-94095304D02*
X85417979Y-94047865D01*
X85417979Y-94047865D02*
X85464861Y-94029994D01*
X85140222Y-94509242D02*
X85504138Y-94820817D01*
X84986306Y-94804912D02*
X85504138Y-94820817D01*
X85504138Y-94820817D02*
X85692376Y-94820162D01*
X85692376Y-94820162D02*
X85739258Y-94802291D01*
X85739258Y-94802291D02*
X85801533Y-94754852D01*
X84427254Y-95373516D02*
X85011606Y-95766961D01*
X85011606Y-95766961D02*
X84477675Y-95709793D01*
X84477675Y-95709793D02*
X84888473Y-96003498D01*
X84888473Y-96003498D02*
X84150205Y-95905722D01*
X84533758Y-96612710D02*
X84596032Y-96565271D01*
X84596032Y-96565271D02*
X84657599Y-96447003D01*
X84657599Y-96447003D02*
X84656891Y-96376173D01*
X84656891Y-96376173D02*
X84609301Y-96323215D01*
X84609301Y-96323215D02*
X84357373Y-96229649D01*
X84357373Y-96229649D02*
X84278999Y-96235824D01*
X84278999Y-96235824D02*
X84216725Y-96283263D01*
X84216725Y-96283263D02*
X84155159Y-96401531D01*
X84155159Y-96401531D02*
X84155866Y-96472361D01*
X84155866Y-96472361D02*
X84203457Y-96525319D01*
X84203457Y-96525319D02*
X84266439Y-96548711D01*
X84266439Y-96548711D02*
X84483337Y-96276432D01*
X84411333Y-96920076D02*
X83970459Y-96756335D01*
X83750022Y-96674465D02*
X83796905Y-96656594D01*
X83796905Y-96656594D02*
X83813004Y-96697856D01*
X83813004Y-96697856D02*
X83766122Y-96715728D01*
X83766122Y-96715728D02*
X83750022Y-96674465D01*
X83750022Y-96674465D02*
X83813004Y-96697856D01*
X84257417Y-97215746D02*
X83816543Y-97052005D01*
X83942507Y-97098788D02*
X83864134Y-97104964D01*
X83864134Y-97104964D02*
X83817251Y-97122835D01*
X83817251Y-97122835D02*
X83754977Y-97170273D01*
X83754977Y-97170273D02*
X83724193Y-97229407D01*
X83918801Y-97866220D02*
X83257491Y-97620609D01*
X83887310Y-97854524D02*
X83949585Y-97807086D01*
X83949585Y-97807086D02*
X84011151Y-97688818D01*
X84011151Y-97688818D02*
X84010443Y-97617988D01*
X84010443Y-97617988D02*
X83994344Y-97576725D01*
X83994344Y-97576725D02*
X83946754Y-97523767D01*
X83946754Y-97523767D02*
X83757808Y-97453592D01*
X83757808Y-97453592D02*
X83679434Y-97459768D01*
X83679434Y-97459768D02*
X83632552Y-97477639D01*
X83632552Y-97477639D02*
X83570277Y-97525077D01*
X83570277Y-97525077D02*
X83508711Y-97643345D01*
X83508711Y-97643345D02*
X83509419Y-97714175D01*
X83518620Y-98634962D02*
X83077746Y-98471222D01*
X82857309Y-98389351D02*
X82904192Y-98371480D01*
X82904192Y-98371480D02*
X82920291Y-98412743D01*
X82920291Y-98412743D02*
X82873408Y-98430614D01*
X82873408Y-98430614D02*
X82857309Y-98389351D01*
X82857309Y-98389351D02*
X82920291Y-98412743D01*
X83348604Y-98889369D02*
X83349312Y-98960199D01*
X83349312Y-98960199D02*
X83287745Y-99078467D01*
X83287745Y-99078467D02*
X83225471Y-99125905D01*
X83225471Y-99125905D02*
X83147098Y-99132081D01*
X83147098Y-99132081D02*
X83115607Y-99120385D01*
X83115607Y-99120385D02*
X83068016Y-99067427D01*
X83068016Y-99067427D02*
X83067309Y-98996597D01*
X83067309Y-98996597D02*
X83113483Y-98907896D01*
X83113483Y-98907896D02*
X83112776Y-98837066D01*
X83112776Y-98837066D02*
X83065185Y-98784108D01*
X83065185Y-98784108D02*
X83033694Y-98772412D01*
X83033694Y-98772412D02*
X82955321Y-98778587D01*
X82955321Y-98778587D02*
X82893047Y-98826026D01*
X82893047Y-98826026D02*
X82846872Y-98914727D01*
X82846872Y-98914727D02*
X82847579Y-98985557D01*
X82226253Y-99601599D02*
X82810605Y-99995045D01*
X82810605Y-99995045D02*
X82276674Y-99937877D01*
X82276674Y-99937877D02*
X82687472Y-100231581D01*
X82687472Y-100231581D02*
X81949204Y-100133806D01*
X82441206Y-100704654D02*
X82440499Y-100633824D01*
X82440499Y-100633824D02*
X82424399Y-100592561D01*
X82424399Y-100592561D02*
X82376809Y-100539603D01*
X82376809Y-100539603D02*
X82187863Y-100469428D01*
X82187863Y-100469428D02*
X82109489Y-100475604D01*
X82109489Y-100475604D02*
X82062607Y-100493475D01*
X82062607Y-100493475D02*
X82000333Y-100540913D01*
X82000333Y-100540913D02*
X81954158Y-100629614D01*
X81954158Y-100629614D02*
X81954865Y-100700444D01*
X81954865Y-100700444D02*
X81970965Y-100741707D01*
X81970965Y-100741707D02*
X82018555Y-100794665D01*
X82018555Y-100794665D02*
X82207501Y-100864840D01*
X82207501Y-100864840D02*
X82285875Y-100858664D01*
X82285875Y-100858664D02*
X82332757Y-100840793D01*
X82332757Y-100840793D02*
X82395031Y-100793355D01*
X82395031Y-100793355D02*
X82441206Y-100704654D01*
X81754067Y-101013985D02*
X82194941Y-101177726D01*
X81817049Y-101037377D02*
X81770166Y-101055248D01*
X81770166Y-101055248D02*
X81707892Y-101102686D01*
X81707892Y-101102686D02*
X81661717Y-101191388D01*
X81661717Y-101191388D02*
X81662425Y-101262217D01*
X81662425Y-101262217D02*
X81710015Y-101315176D01*
X81710015Y-101315176D02*
X82056416Y-101443829D01*
X81763975Y-102005602D02*
X81102665Y-101759992D01*
X81732484Y-101993907D02*
X81794759Y-101946468D01*
X81794759Y-101946468D02*
X81856325Y-101828200D01*
X81856325Y-101828200D02*
X81855617Y-101757370D01*
X81855617Y-101757370D02*
X81839518Y-101716108D01*
X81839518Y-101716108D02*
X81791928Y-101663149D01*
X81791928Y-101663149D02*
X81602982Y-101592975D01*
X81602982Y-101592975D02*
X81524608Y-101599150D01*
X81524608Y-101599150D02*
X81477726Y-101617021D01*
X81477726Y-101617021D02*
X81415451Y-101664460D01*
X81415451Y-101664460D02*
X81353885Y-101782728D01*
X81353885Y-101782728D02*
X81354593Y-101853558D01*
X81455435Y-102526113D02*
X81517710Y-102478674D01*
X81517710Y-102478674D02*
X81579276Y-102360406D01*
X81579276Y-102360406D02*
X81578568Y-102289577D01*
X81578568Y-102289577D02*
X81530978Y-102236618D01*
X81530978Y-102236618D02*
X81279050Y-102143052D01*
X81279050Y-102143052D02*
X81200677Y-102149228D01*
X81200677Y-102149228D02*
X81138402Y-102196666D01*
X81138402Y-102196666D02*
X81076836Y-102314934D01*
X81076836Y-102314934D02*
X81077544Y-102385764D01*
X81077544Y-102385764D02*
X81125134Y-102438722D01*
X81125134Y-102438722D02*
X81188116Y-102462114D01*
X81188116Y-102462114D02*
X81405014Y-102189835D01*
X81333010Y-102833479D02*
X80892136Y-102669738D01*
X81018100Y-102716521D02*
X80939727Y-102722697D01*
X80939727Y-102722697D02*
X80892844Y-102740568D01*
X80892844Y-102740568D02*
X80830570Y-102788006D01*
X80830570Y-102788006D02*
X80799787Y-102847141D01*
X80738220Y-102965408D02*
X80615087Y-103201945D01*
X81132919Y-103217850D02*
X80566082Y-103007326D01*
X80566082Y-103007326D02*
X80487708Y-103013502D01*
X80487708Y-103013502D02*
X80425434Y-103060940D01*
X80425434Y-103060940D02*
X80394651Y-103120074D01*
X80368821Y-103675017D02*
X80809695Y-103838757D01*
X80507346Y-103408914D02*
X80853747Y-103537567D01*
X80853747Y-103537567D02*
X80901337Y-103590525D01*
X80901337Y-103590525D02*
X80902045Y-103661355D01*
X80902045Y-103661355D02*
X80855870Y-103750056D01*
X80855870Y-103750056D02*
X80793596Y-103797495D01*
X80793596Y-103797495D02*
X80746713Y-103815366D01*
X80609604Y-104223128D02*
X80608897Y-104152299D01*
X80608897Y-104152299D02*
X80561306Y-104099340D01*
X80561306Y-104099340D02*
X79994469Y-103888817D01*
X80399783Y-105203705D02*
X80383684Y-105162442D01*
X80383684Y-105162442D02*
X80319994Y-105068221D01*
X80319994Y-105068221D02*
X80272404Y-105015263D01*
X80272404Y-105015263D02*
X80193323Y-104950608D01*
X80193323Y-104950608D02*
X80051259Y-104862563D01*
X80051259Y-104862563D02*
X79925296Y-104815780D01*
X79925296Y-104815780D02*
X79752449Y-104786868D01*
X79752449Y-104786868D02*
X79642584Y-104781348D01*
X79642584Y-104781348D02*
X79564211Y-104787523D01*
X79564211Y-104787523D02*
X79438955Y-104811570D01*
X79438955Y-104811570D02*
X79392072Y-104829442D01*
X79886198Y-105612779D02*
X79539797Y-105484126D01*
X79539797Y-105484126D02*
X79492207Y-105431167D01*
X79492207Y-105431167D02*
X79491499Y-105360338D01*
X79491499Y-105360338D02*
X79553066Y-105242069D01*
X79553066Y-105242069D02*
X79615340Y-105194631D01*
X79854707Y-105601083D02*
X79916981Y-105553645D01*
X79916981Y-105553645D02*
X79993939Y-105405810D01*
X79993939Y-105405810D02*
X79993232Y-105334980D01*
X79993232Y-105334980D02*
X79945641Y-105282022D01*
X79945641Y-105282022D02*
X79882659Y-105258630D01*
X79882659Y-105258630D02*
X79804286Y-105264806D01*
X79804286Y-105264806D02*
X79742011Y-105312244D01*
X79742011Y-105312244D02*
X79665053Y-105460079D01*
X79665053Y-105460079D02*
X79602779Y-105507517D01*
X79291408Y-105744709D02*
X79732282Y-105908449D01*
X79354390Y-105768100D02*
X79307508Y-105785971D01*
X79307508Y-105785971D02*
X79245233Y-105833410D01*
X79245233Y-105833410D02*
X79199058Y-105922111D01*
X79199058Y-105922111D02*
X79199766Y-105992941D01*
X79199766Y-105992941D02*
X79247357Y-106045899D01*
X79247357Y-106045899D02*
X79593757Y-106174552D01*
X79301317Y-106736326D02*
X78640006Y-106490715D01*
X79269826Y-106724630D02*
X79332100Y-106677191D01*
X79332100Y-106677191D02*
X79393666Y-106558923D01*
X79393666Y-106558923D02*
X79392959Y-106488094D01*
X79392959Y-106488094D02*
X79376859Y-106446831D01*
X79376859Y-106446831D02*
X79329269Y-106393872D01*
X79329269Y-106393872D02*
X79140323Y-106323698D01*
X79140323Y-106323698D02*
X79061949Y-106329873D01*
X79061949Y-106329873D02*
X79015067Y-106347745D01*
X79015067Y-106347745D02*
X78952793Y-106395183D01*
X78952793Y-106395183D02*
X78891226Y-106513451D01*
X78891226Y-106513451D02*
X78891934Y-106584281D01*
X78446993Y-107583384D02*
X78432309Y-107683781D01*
X78432309Y-107683781D02*
X78448408Y-107725043D01*
X78448408Y-107725043D02*
X78495999Y-107778002D01*
X78495999Y-107778002D02*
X78590471Y-107813089D01*
X78590471Y-107813089D02*
X78668845Y-107806913D01*
X78668845Y-107806913D02*
X78715728Y-107789042D01*
X78715728Y-107789042D02*
X78778002Y-107741604D01*
X78778002Y-107741604D02*
X78901135Y-107505068D01*
X78901135Y-107505068D02*
X78239824Y-107259457D01*
X78239824Y-107259457D02*
X78132083Y-107466426D01*
X78132083Y-107466426D02*
X78132791Y-107537256D01*
X78132791Y-107537256D02*
X78148890Y-107578519D01*
X78148890Y-107578519D02*
X78196480Y-107631477D01*
X78196480Y-107631477D02*
X78259462Y-107654869D01*
X78259462Y-107654869D02*
X78337836Y-107648693D01*
X78337836Y-107648693D02*
X78384719Y-107630822D01*
X78384719Y-107630822D02*
X78446993Y-107583384D01*
X78446993Y-107583384D02*
X78554734Y-107376415D01*
X78439386Y-108392079D02*
X78092985Y-108263425D01*
X78092985Y-108263425D02*
X78045395Y-108210467D01*
X78045395Y-108210467D02*
X78044687Y-108139637D01*
X78044687Y-108139637D02*
X78106254Y-108021369D01*
X78106254Y-108021369D02*
X78168528Y-107973931D01*
X78407895Y-108380383D02*
X78470169Y-108332944D01*
X78470169Y-108332944D02*
X78547128Y-108185109D01*
X78547128Y-108185109D02*
X78546420Y-108114280D01*
X78546420Y-108114280D02*
X78498829Y-108061321D01*
X78498829Y-108061321D02*
X78435848Y-108037930D01*
X78435848Y-108037930D02*
X78357474Y-108044105D01*
X78357474Y-108044105D02*
X78295200Y-108091543D01*
X78295200Y-108091543D02*
X78218242Y-108239379D01*
X78218242Y-108239379D02*
X78155967Y-108286817D01*
X77844596Y-108524008D02*
X78285470Y-108687748D01*
X77907578Y-108547400D02*
X77860696Y-108565271D01*
X77860696Y-108565271D02*
X77798422Y-108612709D01*
X77798422Y-108612709D02*
X77752247Y-108701410D01*
X77752247Y-108701410D02*
X77752954Y-108772240D01*
X77752954Y-108772240D02*
X77800545Y-108825199D01*
X77800545Y-108825199D02*
X78146946Y-108953852D01*
X77993030Y-109249522D02*
X77331719Y-109003911D01*
X77710318Y-109215090D02*
X77869897Y-109486058D01*
X77429023Y-109322318D02*
X77804084Y-109179347D01*
X77592847Y-110018265D02*
X77246446Y-109889612D01*
X77246446Y-109889612D02*
X77198856Y-109836653D01*
X77198856Y-109836653D02*
X77198148Y-109765823D01*
X77198148Y-109765823D02*
X77259715Y-109647555D01*
X77259715Y-109647555D02*
X77321989Y-109600117D01*
X77561356Y-110006569D02*
X77623631Y-109959131D01*
X77623631Y-109959131D02*
X77700589Y-109811296D01*
X77700589Y-109811296D02*
X77699881Y-109740466D01*
X77699881Y-109740466D02*
X77652291Y-109687507D01*
X77652291Y-109687507D02*
X77589309Y-109664116D01*
X77589309Y-109664116D02*
X77510935Y-109670291D01*
X77510935Y-109670291D02*
X77448661Y-109717730D01*
X77448661Y-109717730D02*
X77371703Y-109865565D01*
X77371703Y-109865565D02*
X77309428Y-109913003D01*
X77438931Y-110313935D02*
X76777621Y-110068324D01*
X77029548Y-110161890D02*
X76967274Y-110209328D01*
X76967274Y-110209328D02*
X76905708Y-110327596D01*
X76905708Y-110327596D02*
X76906416Y-110398426D01*
X76906416Y-110398426D02*
X76922515Y-110439689D01*
X76922515Y-110439689D02*
X76970105Y-110492648D01*
X76970105Y-110492648D02*
X77159051Y-110562822D01*
X77159051Y-110562822D02*
X77237425Y-110556646D01*
X77237425Y-110556646D02*
X77284307Y-110538775D01*
X77284307Y-110538775D02*
X77346581Y-110491337D01*
X77346581Y-110491337D02*
X77408148Y-110373069D01*
X77408148Y-110373069D02*
X77407440Y-110302239D01*
X77100316Y-110964409D02*
X77099608Y-110893579D01*
X77099608Y-110893579D02*
X77052018Y-110840621D01*
X77052018Y-110840621D02*
X76485180Y-110630097D01*
X76822559Y-111425786D02*
X76884833Y-111378348D01*
X76884833Y-111378348D02*
X76946399Y-111260080D01*
X76946399Y-111260080D02*
X76945692Y-111189250D01*
X76945692Y-111189250D02*
X76898101Y-111136291D01*
X76898101Y-111136291D02*
X76646173Y-111042725D01*
X76646173Y-111042725D02*
X76567800Y-111048901D01*
X76567800Y-111048901D02*
X76505526Y-111096339D01*
X76505526Y-111096339D02*
X76443959Y-111214607D01*
X76443959Y-111214607D02*
X76444667Y-111285437D01*
X76444667Y-111285437D02*
X76492257Y-111338396D01*
X76492257Y-111338396D02*
X76555239Y-111361787D01*
X76555239Y-111361787D02*
X76772137Y-111089508D01*
X76982845Y-111767584D02*
X76935962Y-111785455D01*
X76935962Y-111785455D02*
X76810706Y-111809502D01*
X76810706Y-111809502D02*
X76732332Y-111815678D01*
X76732332Y-111815678D02*
X76622468Y-111810157D01*
X76622468Y-111810157D02*
X76449621Y-111781246D01*
X76449621Y-111781246D02*
X76323657Y-111734463D01*
X76323657Y-111734463D02*
X76181594Y-111646417D01*
X76181594Y-111646417D02*
X76102513Y-111581763D01*
X76102513Y-111581763D02*
X76054922Y-111528804D01*
X76054922Y-111528804D02*
X75991233Y-111434583D01*
X75991233Y-111434583D02*
X75975133Y-111393320D01*
X86541326Y-96915591D02*
X86526642Y-97015988D01*
X86526642Y-97015988D02*
X86542742Y-97057251D01*
X86542742Y-97057251D02*
X86590332Y-97110209D01*
X86590332Y-97110209D02*
X86684805Y-97145296D01*
X86684805Y-97145296D02*
X86763178Y-97139121D01*
X86763178Y-97139121D02*
X86810061Y-97121250D01*
X86810061Y-97121250D02*
X86872335Y-97073811D01*
X86872335Y-97073811D02*
X86995468Y-96837275D01*
X86995468Y-96837275D02*
X86334158Y-96591665D01*
X86334158Y-96591665D02*
X86226416Y-96798634D01*
X86226416Y-96798634D02*
X86227124Y-96869464D01*
X86227124Y-96869464D02*
X86243223Y-96910726D01*
X86243223Y-96910726D02*
X86290814Y-96963685D01*
X86290814Y-96963685D02*
X86353796Y-96987076D01*
X86353796Y-96987076D02*
X86432169Y-96980901D01*
X86432169Y-96980901D02*
X86479052Y-96963029D01*
X86479052Y-96963029D02*
X86541326Y-96915591D01*
X86541326Y-96915591D02*
X86649067Y-96708622D01*
X86517620Y-97683023D02*
X86579894Y-97635585D01*
X86579894Y-97635585D02*
X86641461Y-97517317D01*
X86641461Y-97517317D02*
X86640753Y-97446487D01*
X86640753Y-97446487D02*
X86593163Y-97393528D01*
X86593163Y-97393528D02*
X86341235Y-97299963D01*
X86341235Y-97299963D02*
X86262861Y-97306138D01*
X86262861Y-97306138D02*
X86200587Y-97353576D01*
X86200587Y-97353576D02*
X86139021Y-97471844D01*
X86139021Y-97471844D02*
X86139728Y-97542674D01*
X86139728Y-97542674D02*
X86187319Y-97595633D01*
X86187319Y-97595633D02*
X86250301Y-97619024D01*
X86250301Y-97619024D02*
X86467199Y-97346745D01*
X86395195Y-97990389D02*
X85954321Y-97826649D01*
X85733884Y-97744779D02*
X85780767Y-97726907D01*
X85780767Y-97726907D02*
X85796866Y-97768170D01*
X85796866Y-97768170D02*
X85749984Y-97786041D01*
X85749984Y-97786041D02*
X85733884Y-97744779D01*
X85733884Y-97744779D02*
X85796866Y-97768170D01*
X85800405Y-98122319D02*
X86241279Y-98286059D01*
X85863387Y-98145710D02*
X85816505Y-98163582D01*
X85816505Y-98163582D02*
X85754230Y-98211020D01*
X85754230Y-98211020D02*
X85708056Y-98299721D01*
X85708056Y-98299721D02*
X85708763Y-98370551D01*
X85708763Y-98370551D02*
X85756354Y-98423509D01*
X85756354Y-98423509D02*
X86102754Y-98552162D01*
X85369440Y-98950195D02*
X85904787Y-99149023D01*
X85904787Y-99149023D02*
X85983160Y-99142847D01*
X85983160Y-99142847D02*
X86030043Y-99124976D01*
X86030043Y-99124976D02*
X86092317Y-99077538D01*
X86092317Y-99077538D02*
X86138492Y-98988837D01*
X86138492Y-98988837D02*
X86137784Y-98918007D01*
X85778823Y-99102240D02*
X85841097Y-99054802D01*
X85841097Y-99054802D02*
X85902663Y-98936533D01*
X85902663Y-98936533D02*
X85901956Y-98865704D01*
X85901956Y-98865704D02*
X85885856Y-98824441D01*
X85885856Y-98824441D02*
X85838266Y-98771482D01*
X85838266Y-98771482D02*
X85649320Y-98701308D01*
X85649320Y-98701308D02*
X85570947Y-98707484D01*
X85570947Y-98707484D02*
X85524064Y-98725355D01*
X85524064Y-98725355D02*
X85461790Y-98772793D01*
X85461790Y-98772793D02*
X85400223Y-98891061D01*
X85400223Y-98891061D02*
X85400931Y-98961891D01*
X85000041Y-99659803D02*
X85379349Y-99941812D01*
X85379349Y-99941812D02*
X85002872Y-99943123D01*
X85002872Y-99943123D02*
X85256216Y-100178348D01*
X85256216Y-100178348D02*
X84753776Y-100132876D01*
X84916893Y-100757993D02*
X84979167Y-100710554D01*
X84979167Y-100710554D02*
X85040733Y-100592286D01*
X85040733Y-100592286D02*
X85040025Y-100521456D01*
X85040025Y-100521456D02*
X84992435Y-100468498D01*
X84992435Y-100468498D02*
X84740507Y-100374932D01*
X84740507Y-100374932D02*
X84662134Y-100381107D01*
X84662134Y-100381107D02*
X84599859Y-100428546D01*
X84599859Y-100428546D02*
X84538293Y-100546814D01*
X84538293Y-100546814D02*
X84539001Y-100617644D01*
X84539001Y-100617644D02*
X84586591Y-100670602D01*
X84586591Y-100670602D02*
X84649573Y-100693994D01*
X84649573Y-100693994D02*
X84866471Y-100421715D01*
X84794467Y-101065359D02*
X84353594Y-100901618D01*
X84133157Y-100819748D02*
X84180039Y-100801877D01*
X84180039Y-100801877D02*
X84196139Y-100843140D01*
X84196139Y-100843140D02*
X84149256Y-100861011D01*
X84149256Y-100861011D02*
X84133157Y-100819748D01*
X84133157Y-100819748D02*
X84196139Y-100843140D01*
X84640551Y-101361029D02*
X84199678Y-101197288D01*
X84325641Y-101244071D02*
X84247268Y-101250247D01*
X84247268Y-101250247D02*
X84200385Y-101268118D01*
X84200385Y-101268118D02*
X84138111Y-101315556D01*
X84138111Y-101315556D02*
X84107328Y-101374690D01*
X84301936Y-102011503D02*
X83640625Y-101765892D01*
X84270445Y-101999807D02*
X84332719Y-101952369D01*
X84332719Y-101952369D02*
X84394285Y-101834101D01*
X84394285Y-101834101D02*
X84393578Y-101763271D01*
X84393578Y-101763271D02*
X84377478Y-101722008D01*
X84377478Y-101722008D02*
X84329888Y-101669050D01*
X84329888Y-101669050D02*
X84140942Y-101598875D01*
X84140942Y-101598875D02*
X84062569Y-101605051D01*
X84062569Y-101605051D02*
X84015686Y-101622922D01*
X84015686Y-101622922D02*
X83953412Y-101670360D01*
X83953412Y-101670360D02*
X83891845Y-101788628D01*
X83891845Y-101788628D02*
X83892553Y-101859458D01*
X83901754Y-102780245D02*
X83460880Y-102616505D01*
X83523862Y-102639896D02*
X83476980Y-102657767D01*
X83476980Y-102657767D02*
X83414705Y-102705206D01*
X83414705Y-102705206D02*
X83368530Y-102793907D01*
X83368530Y-102793907D02*
X83369238Y-102864737D01*
X83369238Y-102864737D02*
X83416829Y-102917695D01*
X83416829Y-102917695D02*
X83763229Y-103046348D01*
X83416829Y-102917695D02*
X83338455Y-102923871D01*
X83338455Y-102923871D02*
X83276181Y-102971309D01*
X83276181Y-102971309D02*
X83230006Y-103060010D01*
X83230006Y-103060010D02*
X83230714Y-103130840D01*
X83230714Y-103130840D02*
X83278304Y-103183798D01*
X83278304Y-103183798D02*
X83624705Y-103312452D01*
X83316165Y-103832962D02*
X83378439Y-103785524D01*
X83378439Y-103785524D02*
X83440005Y-103667256D01*
X83440005Y-103667256D02*
X83439298Y-103596426D01*
X83439298Y-103596426D02*
X83391707Y-103543467D01*
X83391707Y-103543467D02*
X83139780Y-103449901D01*
X83139780Y-103449901D02*
X83061406Y-103456077D01*
X83061406Y-103456077D02*
X82999132Y-103503515D01*
X82999132Y-103503515D02*
X82937565Y-103621783D01*
X82937565Y-103621783D02*
X82938273Y-103692613D01*
X82938273Y-103692613D02*
X82985863Y-103745572D01*
X82985863Y-103745572D02*
X83048845Y-103768963D01*
X83048845Y-103768963D02*
X83265743Y-103496684D01*
X83055215Y-104406431D02*
X82708814Y-104277778D01*
X82708814Y-104277778D02*
X82661224Y-104224820D01*
X82661224Y-104224820D02*
X82660516Y-104153990D01*
X82660516Y-104153990D02*
X82722083Y-104035722D01*
X82722083Y-104035722D02*
X82784357Y-103988283D01*
X83023724Y-104394736D02*
X83085998Y-104347297D01*
X83085998Y-104347297D02*
X83162956Y-104199462D01*
X83162956Y-104199462D02*
X83162249Y-104128632D01*
X83162249Y-104128632D02*
X83114658Y-104075674D01*
X83114658Y-104075674D02*
X83051676Y-104052282D01*
X83051676Y-104052282D02*
X82973303Y-104058458D01*
X82973303Y-104058458D02*
X82911028Y-104105896D01*
X82911028Y-104105896D02*
X82834070Y-104253731D01*
X82834070Y-104253731D02*
X82771796Y-104301170D01*
X82460425Y-104538361D02*
X82901299Y-104702101D01*
X82523407Y-104561752D02*
X82476525Y-104579624D01*
X82476525Y-104579624D02*
X82414250Y-104627062D01*
X82414250Y-104627062D02*
X82368075Y-104715763D01*
X82368075Y-104715763D02*
X82368783Y-104786593D01*
X82368783Y-104786593D02*
X82416374Y-104839551D01*
X82416374Y-104839551D02*
X82762774Y-104968204D01*
X82592759Y-105222612D02*
X82593467Y-105293442D01*
X82593467Y-105293442D02*
X82531900Y-105411710D01*
X82531900Y-105411710D02*
X82469626Y-105459148D01*
X82469626Y-105459148D02*
X82391252Y-105465323D01*
X82391252Y-105465323D02*
X82359761Y-105453628D01*
X82359761Y-105453628D02*
X82312171Y-105400669D01*
X82312171Y-105400669D02*
X82311463Y-105329839D01*
X82311463Y-105329839D02*
X82357638Y-105241138D01*
X82357638Y-105241138D02*
X82356930Y-105170309D01*
X82356930Y-105170309D02*
X82309340Y-105117350D01*
X82309340Y-105117350D02*
X82277849Y-105105654D01*
X82277849Y-105105654D02*
X82199476Y-105111830D01*
X82199476Y-105111830D02*
X82137201Y-105159268D01*
X82137201Y-105159268D02*
X82091026Y-105247969D01*
X82091026Y-105247969D02*
X82091734Y-105318799D01*
X82100935Y-106239586D02*
X81439624Y-105993976D01*
X81691552Y-106087542D02*
X81629278Y-106134980D01*
X81629278Y-106134980D02*
X81567711Y-106253248D01*
X81567711Y-106253248D02*
X81568419Y-106324078D01*
X81568419Y-106324078D02*
X81584518Y-106365341D01*
X81584518Y-106365341D02*
X81632109Y-106418299D01*
X81632109Y-106418299D02*
X81821055Y-106488474D01*
X81821055Y-106488474D02*
X81899428Y-106482298D01*
X81899428Y-106482298D02*
X81946311Y-106464427D01*
X81946311Y-106464427D02*
X82008585Y-106416989D01*
X82008585Y-106416989D02*
X82070152Y-106298720D01*
X82070152Y-106298720D02*
X82069444Y-106227891D01*
X81653870Y-107026200D02*
X81716144Y-106978762D01*
X81716144Y-106978762D02*
X81777711Y-106860494D01*
X81777711Y-106860494D02*
X81777003Y-106789664D01*
X81777003Y-106789664D02*
X81729413Y-106736705D01*
X81729413Y-106736705D02*
X81477485Y-106643139D01*
X81477485Y-106643139D02*
X81399111Y-106649315D01*
X81399111Y-106649315D02*
X81336837Y-106696753D01*
X81336837Y-106696753D02*
X81275271Y-106815021D01*
X81275271Y-106815021D02*
X81275978Y-106885851D01*
X81275978Y-106885851D02*
X81323569Y-106938810D01*
X81323569Y-106938810D02*
X81386551Y-106962201D01*
X81386551Y-106962201D02*
X81603449Y-106689922D01*
X81531445Y-107333566D02*
X81090571Y-107169826D01*
X80870134Y-107087956D02*
X80917017Y-107070084D01*
X80917017Y-107070084D02*
X80933116Y-107111347D01*
X80933116Y-107111347D02*
X80886234Y-107129218D01*
X80886234Y-107129218D02*
X80870134Y-107087956D01*
X80870134Y-107087956D02*
X80933116Y-107111347D01*
X80936655Y-107465496D02*
X81377529Y-107629236D01*
X80999637Y-107488887D02*
X80952755Y-107506758D01*
X80952755Y-107506758D02*
X80890480Y-107554197D01*
X80890480Y-107554197D02*
X80844305Y-107642898D01*
X80844305Y-107642898D02*
X80845013Y-107713728D01*
X80845013Y-107713728D02*
X80892604Y-107766686D01*
X80892604Y-107766686D02*
X81239004Y-107895339D01*
X80505690Y-108293372D02*
X81041037Y-108492200D01*
X81041037Y-108492200D02*
X81119410Y-108486024D01*
X81119410Y-108486024D02*
X81166293Y-108468153D01*
X81166293Y-108468153D02*
X81228567Y-108420715D01*
X81228567Y-108420715D02*
X81274742Y-108332014D01*
X81274742Y-108332014D02*
X81274034Y-108261184D01*
X80915073Y-108445417D02*
X80977347Y-108397979D01*
X80977347Y-108397979D02*
X81038913Y-108279710D01*
X81038913Y-108279710D02*
X81038206Y-108208881D01*
X81038206Y-108208881D02*
X81022106Y-108167618D01*
X81022106Y-108167618D02*
X80974516Y-108114659D01*
X80974516Y-108114659D02*
X80785570Y-108044485D01*
X80785570Y-108044485D02*
X80707197Y-108050660D01*
X80707197Y-108050660D02*
X80660314Y-108068532D01*
X80660314Y-108068532D02*
X80598040Y-108115970D01*
X80598040Y-108115970D02*
X80536473Y-108234238D01*
X80536473Y-108234238D02*
X80537181Y-108305068D01*
X80105508Y-109062114D02*
X80546382Y-109225855D01*
X80168490Y-109085506D02*
X80121608Y-109103377D01*
X80121608Y-109103377D02*
X80059333Y-109150815D01*
X80059333Y-109150815D02*
X80013158Y-109239516D01*
X80013158Y-109239516D02*
X80013866Y-109310346D01*
X80013866Y-109310346D02*
X80061457Y-109363305D01*
X80061457Y-109363305D02*
X80407857Y-109491958D01*
X80207766Y-109876329D02*
X80207059Y-109805499D01*
X80207059Y-109805499D02*
X80190959Y-109764236D01*
X80190959Y-109764236D02*
X80143369Y-109711278D01*
X80143369Y-109711278D02*
X79954423Y-109641104D01*
X79954423Y-109641104D02*
X79876049Y-109647279D01*
X79876049Y-109647279D02*
X79829167Y-109665150D01*
X79829167Y-109665150D02*
X79766893Y-109712589D01*
X79766893Y-109712589D02*
X79720718Y-109801290D01*
X79720718Y-109801290D02*
X79721426Y-109872120D01*
X79721426Y-109872120D02*
X79737525Y-109913382D01*
X79737525Y-109913382D02*
X79785115Y-109966341D01*
X79785115Y-109966341D02*
X79974061Y-110036515D01*
X79974061Y-110036515D02*
X80052435Y-110030340D01*
X80052435Y-110030340D02*
X80099317Y-110012468D01*
X80099317Y-110012468D02*
X80161592Y-109965030D01*
X80161592Y-109965030D02*
X80207766Y-109876329D01*
X79566802Y-110096960D02*
X79443669Y-110333496D01*
X79300190Y-110103791D02*
X79867028Y-110314314D01*
X79867028Y-110314314D02*
X79914618Y-110367272D01*
X79914618Y-110367272D02*
X79915326Y-110438102D01*
X79915326Y-110438102D02*
X79884543Y-110497236D01*
X79776801Y-110704206D02*
X79335927Y-110540465D01*
X79115491Y-110458595D02*
X79162373Y-110440724D01*
X79162373Y-110440724D02*
X79178473Y-110481986D01*
X79178473Y-110481986D02*
X79131590Y-110499858D01*
X79131590Y-110499858D02*
X79115491Y-110458595D01*
X79115491Y-110458595D02*
X79178473Y-110481986D01*
X79452870Y-111254283D02*
X79515144Y-111206845D01*
X79515144Y-111206845D02*
X79576710Y-111088577D01*
X79576710Y-111088577D02*
X79576003Y-111017747D01*
X79576003Y-111017747D02*
X79559903Y-110976484D01*
X79559903Y-110976484D02*
X79512313Y-110923526D01*
X79512313Y-110923526D02*
X79323367Y-110853351D01*
X79323367Y-110853351D02*
X79244993Y-110859527D01*
X79244993Y-110859527D02*
X79198111Y-110877398D01*
X79198111Y-110877398D02*
X79135837Y-110924836D01*
X79135837Y-110924836D02*
X79074270Y-111043104D01*
X79074270Y-111043104D02*
X79074978Y-111113934D01*
X79191212Y-111756922D02*
X79253486Y-111709484D01*
X79253486Y-111709484D02*
X79315053Y-111591216D01*
X79315053Y-111591216D02*
X79314345Y-111520386D01*
X79314345Y-111520386D02*
X79266755Y-111467428D01*
X79266755Y-111467428D02*
X79014827Y-111373862D01*
X79014827Y-111373862D02*
X78936453Y-111380037D01*
X78936453Y-111380037D02*
X78874179Y-111427476D01*
X78874179Y-111427476D02*
X78812613Y-111545744D01*
X78812613Y-111545744D02*
X78813320Y-111616574D01*
X78813320Y-111616574D02*
X78860911Y-111669532D01*
X78860911Y-111669532D02*
X78923893Y-111692924D01*
X78923893Y-111692924D02*
X79140791Y-111420645D01*
X78930262Y-112330392D02*
X78583861Y-112201739D01*
X78583861Y-112201739D02*
X78536271Y-112148780D01*
X78536271Y-112148780D02*
X78535563Y-112077950D01*
X78535563Y-112077950D02*
X78597130Y-111959682D01*
X78597130Y-111959682D02*
X78659404Y-111912244D01*
X78898771Y-112318696D02*
X78961045Y-112271258D01*
X78961045Y-112271258D02*
X79038004Y-112123423D01*
X79038004Y-112123423D02*
X79037296Y-112052593D01*
X79037296Y-112052593D02*
X78989705Y-111999634D01*
X78989705Y-111999634D02*
X78926724Y-111976243D01*
X78926724Y-111976243D02*
X78848350Y-111982418D01*
X78848350Y-111982418D02*
X78786076Y-112029857D01*
X78786076Y-112029857D02*
X78709118Y-112177692D01*
X78709118Y-112177692D02*
X78646843Y-112225130D01*
X78776346Y-112626062D02*
X78115036Y-112380451D01*
X78366963Y-112474017D02*
X78304689Y-112521455D01*
X78304689Y-112521455D02*
X78243123Y-112639724D01*
X78243123Y-112639724D02*
X78243830Y-112710553D01*
X78243830Y-112710553D02*
X78259930Y-112751816D01*
X78259930Y-112751816D02*
X78307520Y-112804775D01*
X78307520Y-112804775D02*
X78496466Y-112874949D01*
X78496466Y-112874949D02*
X78574840Y-112868773D01*
X78574840Y-112868773D02*
X78621722Y-112850902D01*
X78621722Y-112850902D02*
X78683996Y-112803464D01*
X78683996Y-112803464D02*
X78745563Y-112685196D01*
X78745563Y-112685196D02*
X78744855Y-112614366D01*
X78437731Y-113276536D02*
X78437023Y-113205706D01*
X78437023Y-113205706D02*
X78389433Y-113152748D01*
X78389433Y-113152748D02*
X77822595Y-112942224D01*
X77904507Y-113290198D02*
X78268423Y-113601774D01*
X77750591Y-113585868D02*
X78268423Y-113601774D01*
X78268423Y-113601774D02*
X78456661Y-113601118D01*
X78456661Y-113601118D02*
X78503543Y-113583247D01*
X78503543Y-113583247D02*
X78565818Y-113535809D01*
X87856571Y-97623751D02*
X87195260Y-97378141D01*
X87825080Y-97612056D02*
X87887354Y-97564617D01*
X87887354Y-97564617D02*
X87948920Y-97446349D01*
X87948920Y-97446349D02*
X87948213Y-97375519D01*
X87948213Y-97375519D02*
X87932113Y-97334257D01*
X87932113Y-97334257D02*
X87884523Y-97281298D01*
X87884523Y-97281298D02*
X87695577Y-97211124D01*
X87695577Y-97211124D02*
X87617203Y-97217299D01*
X87617203Y-97217299D02*
X87570321Y-97235170D01*
X87570321Y-97235170D02*
X87508047Y-97282609D01*
X87508047Y-97282609D02*
X87446480Y-97400877D01*
X87446480Y-97400877D02*
X87447188Y-97471707D01*
X87702655Y-97919421D02*
X87261781Y-97755681D01*
X87041344Y-97673811D02*
X87088227Y-97655939D01*
X87088227Y-97655939D02*
X87104326Y-97697202D01*
X87104326Y-97697202D02*
X87057443Y-97715074D01*
X87057443Y-97715074D02*
X87041344Y-97673811D01*
X87041344Y-97673811D02*
X87104326Y-97697202D01*
X87154040Y-97962650D02*
X87030907Y-98199186D01*
X87548739Y-98215091D02*
X86981901Y-98004568D01*
X86981901Y-98004568D02*
X86903527Y-98010744D01*
X86903527Y-98010744D02*
X86841253Y-98058182D01*
X86841253Y-98058182D02*
X86810470Y-98117316D01*
X86969340Y-98317454D02*
X86846207Y-98553990D01*
X87364039Y-98569896D02*
X86797201Y-98359372D01*
X86797201Y-98359372D02*
X86718828Y-98365548D01*
X86718828Y-98365548D02*
X86656554Y-98412986D01*
X86656554Y-98412986D02*
X86625770Y-98472120D01*
X87024716Y-99149540D02*
X87086990Y-99102102D01*
X87086990Y-99102102D02*
X87148556Y-98983834D01*
X87148556Y-98983834D02*
X87147849Y-98913004D01*
X87147849Y-98913004D02*
X87100258Y-98860046D01*
X87100258Y-98860046D02*
X86848330Y-98766480D01*
X86848330Y-98766480D02*
X86769957Y-98772655D01*
X86769957Y-98772655D02*
X86707683Y-98820094D01*
X86707683Y-98820094D02*
X86646116Y-98938362D01*
X86646116Y-98938362D02*
X86646824Y-99009192D01*
X86646824Y-99009192D02*
X86694414Y-99062150D01*
X86694414Y-99062150D02*
X86757396Y-99085542D01*
X86757396Y-99085542D02*
X86974294Y-98813263D01*
X86902290Y-99456906D02*
X86461417Y-99293166D01*
X86587381Y-99339949D02*
X86509007Y-99346125D01*
X86509007Y-99346125D02*
X86462125Y-99363996D01*
X86462125Y-99363996D02*
X86399850Y-99411434D01*
X86399850Y-99411434D02*
X86369067Y-99470568D01*
X86547576Y-100066118D02*
X86609850Y-100018680D01*
X86609850Y-100018680D02*
X86671416Y-99900412D01*
X86671416Y-99900412D02*
X86670709Y-99829582D01*
X86670709Y-99829582D02*
X86623118Y-99776623D01*
X86623118Y-99776623D02*
X86371190Y-99683057D01*
X86371190Y-99683057D02*
X86292817Y-99689233D01*
X86292817Y-99689233D02*
X86230543Y-99736671D01*
X86230543Y-99736671D02*
X86168976Y-99854939D01*
X86168976Y-99854939D02*
X86169684Y-99925769D01*
X86169684Y-99925769D02*
X86217274Y-99978728D01*
X86217274Y-99978728D02*
X86280256Y-100002119D01*
X86280256Y-100002119D02*
X86497154Y-99729840D01*
X85984277Y-100209744D02*
X86425150Y-100373484D01*
X86047259Y-100233135D02*
X86000376Y-100251006D01*
X86000376Y-100251006D02*
X85938102Y-100298445D01*
X85938102Y-100298445D02*
X85891927Y-100387146D01*
X85891927Y-100387146D02*
X85892635Y-100457976D01*
X85892635Y-100457976D02*
X85940225Y-100510934D01*
X85940225Y-100510934D02*
X86286626Y-100639587D01*
X85738011Y-100682816D02*
X85614878Y-100919352D01*
X85471399Y-100689647D02*
X86038237Y-100900170D01*
X86038237Y-100900170D02*
X86085827Y-100953129D01*
X86085827Y-100953129D02*
X86086535Y-101023958D01*
X86086535Y-101023958D02*
X86055752Y-101083092D01*
X85885028Y-101266670D02*
X85901128Y-101307933D01*
X85901128Y-101307933D02*
X85948010Y-101290062D01*
X85948010Y-101290062D02*
X85931911Y-101248799D01*
X85931911Y-101248799D02*
X85885028Y-101266670D01*
X85885028Y-101266670D02*
X85948010Y-101290062D01*
X85547829Y-102058804D02*
X84886518Y-101813193D01*
X84999214Y-102102032D02*
X84876081Y-102338568D01*
X84732602Y-102108863D02*
X85299440Y-102319387D01*
X85299440Y-102319387D02*
X85347030Y-102372345D01*
X85347030Y-102372345D02*
X85347738Y-102443175D01*
X85347738Y-102443175D02*
X85316954Y-102502309D01*
X84962947Y-103182350D02*
X84522074Y-103018610D01*
X84585055Y-103042001D02*
X84538173Y-103059873D01*
X84538173Y-103059873D02*
X84475899Y-103107311D01*
X84475899Y-103107311D02*
X84429724Y-103196012D01*
X84429724Y-103196012D02*
X84430432Y-103266842D01*
X84430432Y-103266842D02*
X84478022Y-103319800D01*
X84478022Y-103319800D02*
X84824423Y-103448453D01*
X84478022Y-103319800D02*
X84399648Y-103325976D01*
X84399648Y-103325976D02*
X84337374Y-103373414D01*
X84337374Y-103373414D02*
X84291199Y-103462115D01*
X84291199Y-103462115D02*
X84291907Y-103532945D01*
X84291907Y-103532945D02*
X84339497Y-103585904D01*
X84339497Y-103585904D02*
X84685898Y-103714557D01*
X84377358Y-104235067D02*
X84439632Y-104187629D01*
X84439632Y-104187629D02*
X84501199Y-104069361D01*
X84501199Y-104069361D02*
X84500491Y-103998531D01*
X84500491Y-103998531D02*
X84452901Y-103945572D01*
X84452901Y-103945572D02*
X84200973Y-103852007D01*
X84200973Y-103852007D02*
X84122599Y-103858182D01*
X84122599Y-103858182D02*
X84060325Y-103905620D01*
X84060325Y-103905620D02*
X83998759Y-104023888D01*
X83998759Y-104023888D02*
X83999466Y-104094718D01*
X83999466Y-104094718D02*
X84047057Y-104147677D01*
X84047057Y-104147677D02*
X84110039Y-104171068D01*
X84110039Y-104171068D02*
X84326937Y-103898789D01*
X84116408Y-104808536D02*
X83770007Y-104679883D01*
X83770007Y-104679883D02*
X83722417Y-104626925D01*
X83722417Y-104626925D02*
X83721709Y-104556095D01*
X83721709Y-104556095D02*
X83783276Y-104437827D01*
X83783276Y-104437827D02*
X83845550Y-104390389D01*
X84084917Y-104796841D02*
X84147192Y-104749402D01*
X84147192Y-104749402D02*
X84224150Y-104601567D01*
X84224150Y-104601567D02*
X84223442Y-104530737D01*
X84223442Y-104530737D02*
X84175852Y-104477779D01*
X84175852Y-104477779D02*
X84112870Y-104454387D01*
X84112870Y-104454387D02*
X84034496Y-104460563D01*
X84034496Y-104460563D02*
X83972222Y-104508001D01*
X83972222Y-104508001D02*
X83895264Y-104655836D01*
X83895264Y-104655836D02*
X83832989Y-104703275D01*
X83521618Y-104940466D02*
X83962492Y-105104206D01*
X83584600Y-104963858D02*
X83537718Y-104981729D01*
X83537718Y-104981729D02*
X83475444Y-105029167D01*
X83475444Y-105029167D02*
X83429269Y-105117868D01*
X83429269Y-105117868D02*
X83429977Y-105188698D01*
X83429977Y-105188698D02*
X83477567Y-105241657D01*
X83477567Y-105241657D02*
X83823968Y-105370310D01*
X83653952Y-105624717D02*
X83654660Y-105695547D01*
X83654660Y-105695547D02*
X83593093Y-105813815D01*
X83593093Y-105813815D02*
X83530819Y-105861253D01*
X83530819Y-105861253D02*
X83452446Y-105867429D01*
X83452446Y-105867429D02*
X83420955Y-105855733D01*
X83420955Y-105855733D02*
X83373364Y-105802774D01*
X83373364Y-105802774D02*
X83372657Y-105731945D01*
X83372657Y-105731945D02*
X83418831Y-105643244D01*
X83418831Y-105643244D02*
X83418124Y-105572414D01*
X83418124Y-105572414D02*
X83370533Y-105519455D01*
X83370533Y-105519455D02*
X83339042Y-105507759D01*
X83339042Y-105507759D02*
X83260669Y-105513935D01*
X83260669Y-105513935D02*
X83198395Y-105561373D01*
X83198395Y-105561373D02*
X83152220Y-105650074D01*
X83152220Y-105650074D02*
X83152927Y-105720904D01*
X83162128Y-106641692D02*
X82500818Y-106396081D01*
X82752745Y-106489647D02*
X82690471Y-106537085D01*
X82690471Y-106537085D02*
X82628905Y-106655353D01*
X82628905Y-106655353D02*
X82629612Y-106726183D01*
X82629612Y-106726183D02*
X82645712Y-106767446D01*
X82645712Y-106767446D02*
X82693302Y-106820404D01*
X82693302Y-106820404D02*
X82882248Y-106890579D01*
X82882248Y-106890579D02*
X82960622Y-106884403D01*
X82960622Y-106884403D02*
X83007504Y-106866532D01*
X83007504Y-106866532D02*
X83069778Y-106819094D01*
X83069778Y-106819094D02*
X83131345Y-106700826D01*
X83131345Y-106700826D02*
X83130637Y-106629996D01*
X82715064Y-107428305D02*
X82777338Y-107380867D01*
X82777338Y-107380867D02*
X82838904Y-107262599D01*
X82838904Y-107262599D02*
X82838196Y-107191769D01*
X82838196Y-107191769D02*
X82790606Y-107138811D01*
X82790606Y-107138811D02*
X82538678Y-107045245D01*
X82538678Y-107045245D02*
X82460305Y-107051420D01*
X82460305Y-107051420D02*
X82398031Y-107098858D01*
X82398031Y-107098858D02*
X82336464Y-107217127D01*
X82336464Y-107217127D02*
X82337172Y-107287956D01*
X82337172Y-107287956D02*
X82384762Y-107340915D01*
X82384762Y-107340915D02*
X82447744Y-107364306D01*
X82447744Y-107364306D02*
X82664642Y-107092028D01*
X82592638Y-107735671D02*
X82151765Y-107571931D01*
X81931328Y-107490061D02*
X81978210Y-107472189D01*
X81978210Y-107472189D02*
X81994310Y-107513452D01*
X81994310Y-107513452D02*
X81947427Y-107531323D01*
X81947427Y-107531323D02*
X81931328Y-107490061D01*
X81931328Y-107490061D02*
X81994310Y-107513452D01*
X81997849Y-107867601D02*
X82438722Y-108031341D01*
X82060830Y-107890992D02*
X82013948Y-107908864D01*
X82013948Y-107908864D02*
X81951674Y-107956302D01*
X81951674Y-107956302D02*
X81905499Y-108045003D01*
X81905499Y-108045003D02*
X81906207Y-108115833D01*
X81906207Y-108115833D02*
X81953797Y-108168791D01*
X81953797Y-108168791D02*
X82300198Y-108297445D01*
X81566883Y-108695477D02*
X82102230Y-108894305D01*
X82102230Y-108894305D02*
X82180604Y-108888129D01*
X82180604Y-108888129D02*
X82227486Y-108870258D01*
X82227486Y-108870258D02*
X82289760Y-108822820D01*
X82289760Y-108822820D02*
X82335935Y-108734119D01*
X82335935Y-108734119D02*
X82335228Y-108663289D01*
X81976266Y-108847522D02*
X82038540Y-108800084D01*
X82038540Y-108800084D02*
X82100107Y-108681816D01*
X82100107Y-108681816D02*
X82099399Y-108610986D01*
X82099399Y-108610986D02*
X82083300Y-108569723D01*
X82083300Y-108569723D02*
X82035709Y-108516765D01*
X82035709Y-108516765D02*
X81846763Y-108446590D01*
X81846763Y-108446590D02*
X81768390Y-108452766D01*
X81768390Y-108452766D02*
X81721507Y-108470637D01*
X81721507Y-108470637D02*
X81659233Y-108518075D01*
X81659233Y-108518075D02*
X81597667Y-108636343D01*
X81597667Y-108636343D02*
X81598374Y-108707173D01*
X81561400Y-109716661D02*
X81560693Y-109645831D01*
X81560693Y-109645831D02*
X81544593Y-109604568D01*
X81544593Y-109604568D02*
X81497003Y-109551610D01*
X81497003Y-109551610D02*
X81308057Y-109481435D01*
X81308057Y-109481435D02*
X81229683Y-109487611D01*
X81229683Y-109487611D02*
X81182801Y-109505482D01*
X81182801Y-109505482D02*
X81120527Y-109552921D01*
X81120527Y-109552921D02*
X81074352Y-109641622D01*
X81074352Y-109641622D02*
X81075060Y-109712451D01*
X81075060Y-109712451D02*
X81091159Y-109753714D01*
X81091159Y-109753714D02*
X81138749Y-109806673D01*
X81138749Y-109806673D02*
X81327695Y-109876847D01*
X81327695Y-109876847D02*
X81406069Y-109870672D01*
X81406069Y-109870672D02*
X81452951Y-109852800D01*
X81452951Y-109852800D02*
X81515225Y-109805362D01*
X81515225Y-109805362D02*
X81561400Y-109716661D01*
X81315135Y-110189733D02*
X80874261Y-110025993D01*
X81000225Y-110072776D02*
X80921851Y-110078951D01*
X80921851Y-110078951D02*
X80874969Y-110096823D01*
X80874969Y-110096823D02*
X80812694Y-110144261D01*
X80812694Y-110144261D02*
X80781911Y-110203395D01*
X80730253Y-111313280D02*
X80068943Y-111067669D01*
X80698762Y-111301584D02*
X80761037Y-111254146D01*
X80761037Y-111254146D02*
X80822603Y-111135877D01*
X80822603Y-111135877D02*
X80821895Y-111065048D01*
X80821895Y-111065048D02*
X80805796Y-111023785D01*
X80805796Y-111023785D02*
X80758206Y-110970826D01*
X80758206Y-110970826D02*
X80569260Y-110900652D01*
X80569260Y-110900652D02*
X80490886Y-110906827D01*
X80490886Y-110906827D02*
X80444004Y-110924699D01*
X80444004Y-110924699D02*
X80381729Y-110972137D01*
X80381729Y-110972137D02*
X80320163Y-111090405D01*
X80320163Y-111090405D02*
X80320871Y-111161235D01*
X80530162Y-111697651D02*
X80529455Y-111626821D01*
X80529455Y-111626821D02*
X80513355Y-111585558D01*
X80513355Y-111585558D02*
X80465765Y-111532600D01*
X80465765Y-111532600D02*
X80276819Y-111462425D01*
X80276819Y-111462425D02*
X80198445Y-111468601D01*
X80198445Y-111468601D02*
X80151563Y-111486472D01*
X80151563Y-111486472D02*
X80089289Y-111533910D01*
X80089289Y-111533910D02*
X80043114Y-111622611D01*
X80043114Y-111622611D02*
X80043822Y-111693441D01*
X80043822Y-111693441D02*
X80059921Y-111734704D01*
X80059921Y-111734704D02*
X80107511Y-111787662D01*
X80107511Y-111787662D02*
X80296457Y-111857837D01*
X80296457Y-111857837D02*
X80374831Y-111851661D01*
X80374831Y-111851661D02*
X80421713Y-111833790D01*
X80421713Y-111833790D02*
X80483988Y-111786352D01*
X80483988Y-111786352D02*
X80530162Y-111697651D01*
X80283897Y-112170723D02*
X79843023Y-112006982D01*
X79622586Y-111925112D02*
X79669469Y-111907241D01*
X79669469Y-111907241D02*
X79685568Y-111948504D01*
X79685568Y-111948504D02*
X79638685Y-111966375D01*
X79638685Y-111966375D02*
X79622586Y-111925112D01*
X79622586Y-111925112D02*
X79685568Y-111948504D01*
X79689107Y-112302652D02*
X80129981Y-112466393D01*
X79752089Y-112326044D02*
X79705206Y-112343915D01*
X79705206Y-112343915D02*
X79642932Y-112391353D01*
X79642932Y-112391353D02*
X79596757Y-112480055D01*
X79596757Y-112480055D02*
X79597465Y-112550884D01*
X79597465Y-112550884D02*
X79645055Y-112603843D01*
X79645055Y-112603843D02*
X79991456Y-112732496D01*
X79258142Y-113130529D02*
X79793488Y-113329357D01*
X79793488Y-113329357D02*
X79871862Y-113323181D01*
X79871862Y-113323181D02*
X79918744Y-113305310D01*
X79918744Y-113305310D02*
X79981019Y-113257871D01*
X79981019Y-113257871D02*
X80027194Y-113169170D01*
X80027194Y-113169170D02*
X80026486Y-113098340D01*
X79667524Y-113282574D02*
X79729799Y-113235135D01*
X79729799Y-113235135D02*
X79791365Y-113116867D01*
X79791365Y-113116867D02*
X79790657Y-113046037D01*
X79790657Y-113046037D02*
X79774558Y-113004775D01*
X79774558Y-113004775D02*
X79726968Y-112951816D01*
X79726968Y-112951816D02*
X79538022Y-112881642D01*
X79538022Y-112881642D02*
X79459648Y-112887817D01*
X79459648Y-112887817D02*
X79412766Y-112905688D01*
X79412766Y-112905688D02*
X79350491Y-112953127D01*
X79350491Y-112953127D02*
X79288925Y-113071395D01*
X79288925Y-113071395D02*
X79289633Y-113142225D01*
X88978623Y-97836758D02*
X88979331Y-97907588D01*
X88979331Y-97907588D02*
X88917764Y-98025856D01*
X88917764Y-98025856D02*
X88855490Y-98073295D01*
X88855490Y-98073295D02*
X88777116Y-98079470D01*
X88777116Y-98079470D02*
X88745625Y-98067774D01*
X88745625Y-98067774D02*
X88698035Y-98014816D01*
X88698035Y-98014816D02*
X88697327Y-97943986D01*
X88697327Y-97943986D02*
X88743502Y-97855285D01*
X88743502Y-97855285D02*
X88742794Y-97784455D01*
X88742794Y-97784455D02*
X88695204Y-97731497D01*
X88695204Y-97731497D02*
X88663713Y-97719801D01*
X88663713Y-97719801D02*
X88585339Y-97725976D01*
X88585339Y-97725976D02*
X88523065Y-97773415D01*
X88523065Y-97773415D02*
X88476890Y-97862116D01*
X88476890Y-97862116D02*
X88477598Y-97932946D01*
X88686890Y-98469362D02*
X88686182Y-98398532D01*
X88686182Y-98398532D02*
X88670083Y-98357269D01*
X88670083Y-98357269D02*
X88622492Y-98304311D01*
X88622492Y-98304311D02*
X88433546Y-98234136D01*
X88433546Y-98234136D02*
X88355173Y-98240312D01*
X88355173Y-98240312D02*
X88308290Y-98258183D01*
X88308290Y-98258183D02*
X88246016Y-98305622D01*
X88246016Y-98305622D02*
X88199841Y-98394323D01*
X88199841Y-98394323D02*
X88200549Y-98465152D01*
X88200549Y-98465152D02*
X88216648Y-98506415D01*
X88216648Y-98506415D02*
X88264239Y-98559374D01*
X88264239Y-98559374D02*
X88453184Y-98629548D01*
X88453184Y-98629548D02*
X88531558Y-98623373D01*
X88531558Y-98623373D02*
X88578441Y-98605501D01*
X88578441Y-98605501D02*
X88640715Y-98558063D01*
X88640715Y-98558063D02*
X88686890Y-98469362D01*
X88440624Y-98942434D02*
X87999750Y-98778694D01*
X88062732Y-98802085D02*
X88015850Y-98819956D01*
X88015850Y-98819956D02*
X87953575Y-98867395D01*
X87953575Y-98867395D02*
X87907400Y-98956096D01*
X87907400Y-98956096D02*
X87908108Y-99026926D01*
X87908108Y-99026926D02*
X87955699Y-99079884D01*
X87955699Y-99079884D02*
X88302099Y-99208537D01*
X87955699Y-99079884D02*
X87877325Y-99086060D01*
X87877325Y-99086060D02*
X87815051Y-99133498D01*
X87815051Y-99133498D02*
X87768876Y-99222199D01*
X87768876Y-99222199D02*
X87769584Y-99293029D01*
X87769584Y-99293029D02*
X87817174Y-99345987D01*
X87817174Y-99345987D02*
X88163575Y-99474641D01*
X87855035Y-99995151D02*
X87917309Y-99947713D01*
X87917309Y-99947713D02*
X87978875Y-99829445D01*
X87978875Y-99829445D02*
X87978168Y-99758615D01*
X87978168Y-99758615D02*
X87930577Y-99705656D01*
X87930577Y-99705656D02*
X87678650Y-99612090D01*
X87678650Y-99612090D02*
X87600276Y-99618266D01*
X87600276Y-99618266D02*
X87538002Y-99665704D01*
X87538002Y-99665704D02*
X87476435Y-99783972D01*
X87476435Y-99783972D02*
X87477143Y-99854802D01*
X87477143Y-99854802D02*
X87524733Y-99907761D01*
X87524733Y-99907761D02*
X87587715Y-99931152D01*
X87587715Y-99931152D02*
X87804613Y-99658873D01*
X87337911Y-100050076D02*
X87214778Y-100286612D01*
X87071299Y-100056907D02*
X87638137Y-100267430D01*
X87638137Y-100267430D02*
X87685727Y-100320388D01*
X87685727Y-100320388D02*
X87686435Y-100391218D01*
X87686435Y-100391218D02*
X87655651Y-100450352D01*
X87547910Y-100657321D02*
X86886599Y-100411711D01*
X87409385Y-100923425D02*
X87062985Y-100794772D01*
X87062985Y-100794772D02*
X87015394Y-100741813D01*
X87015394Y-100741813D02*
X87014687Y-100670983D01*
X87014687Y-100670983D02*
X87060861Y-100582282D01*
X87060861Y-100582282D02*
X87123136Y-100534844D01*
X87123136Y-100534844D02*
X87170018Y-100516973D01*
X87255469Y-101219095D02*
X86814596Y-101055354D01*
X86594159Y-100973484D02*
X86641041Y-100955613D01*
X86641041Y-100955613D02*
X86657141Y-100996876D01*
X86657141Y-100996876D02*
X86610258Y-101014747D01*
X86610258Y-101014747D02*
X86594159Y-100973484D01*
X86594159Y-100973484D02*
X86657141Y-100996876D01*
X86660680Y-101351024D02*
X87101553Y-101514765D01*
X86723662Y-101374416D02*
X86676779Y-101392287D01*
X86676779Y-101392287D02*
X86614505Y-101439725D01*
X86614505Y-101439725D02*
X86568330Y-101528426D01*
X86568330Y-101528426D02*
X86569038Y-101599256D01*
X86569038Y-101599256D02*
X86616628Y-101652215D01*
X86616628Y-101652215D02*
X86963029Y-101780868D01*
X86229714Y-102178901D02*
X86765061Y-102377728D01*
X86765061Y-102377728D02*
X86843435Y-102371553D01*
X86843435Y-102371553D02*
X86890317Y-102353682D01*
X86890317Y-102353682D02*
X86952592Y-102306243D01*
X86952592Y-102306243D02*
X86998766Y-102217542D01*
X86998766Y-102217542D02*
X86998059Y-102146712D01*
X86639097Y-102330945D02*
X86701371Y-102283507D01*
X86701371Y-102283507D02*
X86762938Y-102165239D01*
X86762938Y-102165239D02*
X86762230Y-102094409D01*
X86762230Y-102094409D02*
X86746131Y-102053146D01*
X86746131Y-102053146D02*
X86698540Y-102000188D01*
X86698540Y-102000188D02*
X86509595Y-101930013D01*
X86509595Y-101930013D02*
X86431221Y-101936189D01*
X86431221Y-101936189D02*
X86384338Y-101954060D01*
X86384338Y-101954060D02*
X86322064Y-102001499D01*
X86322064Y-102001499D02*
X86260498Y-102119767D01*
X86260498Y-102119767D02*
X86261205Y-102190596D01*
X85875707Y-102858942D02*
X85752575Y-103095478D01*
X85609096Y-102865773D02*
X86175933Y-103076296D01*
X86175933Y-103076296D02*
X86223524Y-103129255D01*
X86223524Y-103129255D02*
X86224231Y-103200084D01*
X86224231Y-103200084D02*
X86193448Y-103259218D01*
X86085707Y-103466188D02*
X85424396Y-103220577D01*
X85947182Y-103732291D02*
X85600782Y-103603638D01*
X85600782Y-103603638D02*
X85553191Y-103550679D01*
X85553191Y-103550679D02*
X85552483Y-103479849D01*
X85552483Y-103479849D02*
X85598658Y-103391148D01*
X85598658Y-103391148D02*
X85660933Y-103343710D01*
X85660933Y-103343710D02*
X85707815Y-103325839D01*
X85654742Y-104294064D02*
X85308341Y-104165411D01*
X85308341Y-104165411D02*
X85260751Y-104112452D01*
X85260751Y-104112452D02*
X85260043Y-104041623D01*
X85260043Y-104041623D02*
X85321609Y-103923354D01*
X85321609Y-103923354D02*
X85383884Y-103875916D01*
X85623251Y-104282368D02*
X85685525Y-104234930D01*
X85685525Y-104234930D02*
X85762483Y-104087095D01*
X85762483Y-104087095D02*
X85761775Y-104016265D01*
X85761775Y-104016265D02*
X85714185Y-103963307D01*
X85714185Y-103963307D02*
X85651203Y-103939915D01*
X85651203Y-103939915D02*
X85572829Y-103946091D01*
X85572829Y-103946091D02*
X85510555Y-103993529D01*
X85510555Y-103993529D02*
X85433597Y-104141364D01*
X85433597Y-104141364D02*
X85371323Y-104188802D01*
X85106127Y-104337293D02*
X84982994Y-104573829D01*
X84839515Y-104344123D02*
X85406353Y-104554647D01*
X85406353Y-104554647D02*
X85453943Y-104607605D01*
X85453943Y-104607605D02*
X85454651Y-104678435D01*
X85454651Y-104678435D02*
X85423868Y-104737569D01*
X85069860Y-105417611D02*
X84628987Y-105253870D01*
X84691969Y-105277262D02*
X84645086Y-105295133D01*
X84645086Y-105295133D02*
X84582812Y-105342571D01*
X84582812Y-105342571D02*
X84536637Y-105431272D01*
X84536637Y-105431272D02*
X84537345Y-105502102D01*
X84537345Y-105502102D02*
X84584935Y-105555061D01*
X84584935Y-105555061D02*
X84931336Y-105683714D01*
X84584935Y-105555061D02*
X84506561Y-105561236D01*
X84506561Y-105561236D02*
X84444287Y-105608674D01*
X84444287Y-105608674D02*
X84398112Y-105697376D01*
X84398112Y-105697376D02*
X84398820Y-105768205D01*
X84398820Y-105768205D02*
X84446410Y-105821164D01*
X84446410Y-105821164D02*
X84792811Y-105949817D01*
X84500371Y-106511590D02*
X84153970Y-106382937D01*
X84153970Y-106382937D02*
X84106379Y-106329979D01*
X84106379Y-106329979D02*
X84105672Y-106259149D01*
X84105672Y-106259149D02*
X84167238Y-106140881D01*
X84167238Y-106140881D02*
X84229512Y-106093442D01*
X84468880Y-106499895D02*
X84531154Y-106452456D01*
X84531154Y-106452456D02*
X84608112Y-106304621D01*
X84608112Y-106304621D02*
X84607404Y-106233791D01*
X84607404Y-106233791D02*
X84559814Y-106180833D01*
X84559814Y-106180833D02*
X84496832Y-106157441D01*
X84496832Y-106157441D02*
X84418458Y-106163617D01*
X84418458Y-106163617D02*
X84356184Y-106211055D01*
X84356184Y-106211055D02*
X84279226Y-106358890D01*
X84279226Y-106358890D02*
X84216952Y-106406329D01*
X84346455Y-106807260D02*
X83685144Y-106561650D01*
X84063743Y-106772828D02*
X84223322Y-107043796D01*
X83782448Y-106880056D02*
X84157509Y-106737086D01*
X83930173Y-107534740D02*
X83992447Y-107487302D01*
X83992447Y-107487302D02*
X84054014Y-107369034D01*
X84054014Y-107369034D02*
X84053306Y-107298204D01*
X84053306Y-107298204D02*
X84005716Y-107245246D01*
X84005716Y-107245246D02*
X83753788Y-107151680D01*
X83753788Y-107151680D02*
X83675414Y-107157855D01*
X83675414Y-107157855D02*
X83613140Y-107205294D01*
X83613140Y-107205294D02*
X83551573Y-107323562D01*
X83551573Y-107323562D02*
X83552281Y-107394392D01*
X83552281Y-107394392D02*
X83599871Y-107447350D01*
X83599871Y-107447350D02*
X83662853Y-107470742D01*
X83662853Y-107470742D02*
X83879752Y-107198463D01*
X83791648Y-107800844D02*
X83792356Y-107871674D01*
X83792356Y-107871674D02*
X83730790Y-107989942D01*
X83730790Y-107989942D02*
X83668515Y-108037380D01*
X83668515Y-108037380D02*
X83590142Y-108043556D01*
X83590142Y-108043556D02*
X83558651Y-108031860D01*
X83558651Y-108031860D02*
X83511060Y-107978901D01*
X83511060Y-107978901D02*
X83510353Y-107908071D01*
X83510353Y-107908071D02*
X83556528Y-107819370D01*
X83556528Y-107819370D02*
X83555820Y-107748541D01*
X83555820Y-107748541D02*
X83508230Y-107695582D01*
X83508230Y-107695582D02*
X83476739Y-107683886D01*
X83476739Y-107683886D02*
X83398365Y-107690062D01*
X83398365Y-107690062D02*
X83336091Y-107737500D01*
X83336091Y-107737500D02*
X83289916Y-107826201D01*
X83289916Y-107826201D02*
X83290624Y-107897031D01*
X83253649Y-108906520D02*
X83252942Y-108835690D01*
X83252942Y-108835690D02*
X83236842Y-108794427D01*
X83236842Y-108794427D02*
X83189252Y-108741468D01*
X83189252Y-108741468D02*
X83000306Y-108671294D01*
X83000306Y-108671294D02*
X82921932Y-108677470D01*
X82921932Y-108677470D02*
X82875050Y-108695341D01*
X82875050Y-108695341D02*
X82812776Y-108742779D01*
X82812776Y-108742779D02*
X82766601Y-108831480D01*
X82766601Y-108831480D02*
X82767309Y-108902310D01*
X82767309Y-108902310D02*
X82783408Y-108943573D01*
X82783408Y-108943573D02*
X82830998Y-108996531D01*
X82830998Y-108996531D02*
X83019944Y-109066706D01*
X83019944Y-109066706D02*
X83098318Y-109060530D01*
X83098318Y-109060530D02*
X83145200Y-109042659D01*
X83145200Y-109042659D02*
X83207474Y-108995221D01*
X83207474Y-108995221D02*
X83253649Y-108906520D01*
X82612685Y-109127150D02*
X82489552Y-109363686D01*
X82346073Y-109133981D02*
X82912911Y-109344504D01*
X82912911Y-109344504D02*
X82960501Y-109397463D01*
X82960501Y-109397463D02*
X82961209Y-109468293D01*
X82961209Y-109468293D02*
X82930425Y-109527427D01*
X82822684Y-109734396D02*
X82161374Y-109488785D01*
X82684160Y-110000499D02*
X82337759Y-109871846D01*
X82337759Y-109871846D02*
X82290168Y-109818888D01*
X82290168Y-109818888D02*
X82289461Y-109748058D01*
X82289461Y-109748058D02*
X82335636Y-109659357D01*
X82335636Y-109659357D02*
X82397910Y-109611918D01*
X82397910Y-109611918D02*
X82444792Y-109594047D01*
X82375620Y-110521010D02*
X82437894Y-110473571D01*
X82437894Y-110473571D02*
X82499460Y-110355303D01*
X82499460Y-110355303D02*
X82498753Y-110284473D01*
X82498753Y-110284473D02*
X82451162Y-110231515D01*
X82451162Y-110231515D02*
X82199234Y-110137949D01*
X82199234Y-110137949D02*
X82120861Y-110144125D01*
X82120861Y-110144125D02*
X82058587Y-110191563D01*
X82058587Y-110191563D02*
X81997020Y-110309831D01*
X81997020Y-110309831D02*
X81997728Y-110380661D01*
X81997728Y-110380661D02*
X82045318Y-110433619D01*
X82045318Y-110433619D02*
X82108300Y-110457011D01*
X82108300Y-110457011D02*
X82325198Y-110184732D01*
X82253194Y-110828376D02*
X81812321Y-110664635D01*
X81938285Y-110711418D02*
X81859911Y-110717594D01*
X81859911Y-110717594D02*
X81813028Y-110735465D01*
X81813028Y-110735465D02*
X81750754Y-110782903D01*
X81750754Y-110782903D02*
X81719971Y-110842038D01*
X81365964Y-111522079D02*
X82027275Y-111767689D01*
X81397455Y-111533774D02*
X81335181Y-111581213D01*
X81335181Y-111581213D02*
X81273614Y-111699481D01*
X81273614Y-111699481D02*
X81274322Y-111770311D01*
X81274322Y-111770311D02*
X81290421Y-111811573D01*
X81290421Y-111811573D02*
X81338012Y-111864532D01*
X81338012Y-111864532D02*
X81526958Y-111934706D01*
X81526958Y-111934706D02*
X81605331Y-111928531D01*
X81605331Y-111928531D02*
X81652214Y-111910659D01*
X81652214Y-111910659D02*
X81714488Y-111863221D01*
X81714488Y-111863221D02*
X81776054Y-111744953D01*
X81776054Y-111744953D02*
X81775347Y-111674123D01*
X81359773Y-112472433D02*
X81422047Y-112424994D01*
X81422047Y-112424994D02*
X81483614Y-112306726D01*
X81483614Y-112306726D02*
X81482906Y-112235896D01*
X81482906Y-112235896D02*
X81435316Y-112182938D01*
X81435316Y-112182938D02*
X81183388Y-112089372D01*
X81183388Y-112089372D02*
X81105014Y-112095548D01*
X81105014Y-112095548D02*
X81042740Y-112142986D01*
X81042740Y-112142986D02*
X80981174Y-112261254D01*
X80981174Y-112261254D02*
X80981881Y-112332084D01*
X80981881Y-112332084D02*
X81029472Y-112385042D01*
X81029472Y-112385042D02*
X81092454Y-112408434D01*
X81092454Y-112408434D02*
X81309352Y-112136155D01*
X81191173Y-112868500D02*
X81190465Y-112797670D01*
X81190465Y-112797670D02*
X81174366Y-112756407D01*
X81174366Y-112756407D02*
X81126776Y-112703449D01*
X81126776Y-112703449D02*
X80937830Y-112633274D01*
X80937830Y-112633274D02*
X80859456Y-112639450D01*
X80859456Y-112639450D02*
X80812573Y-112657321D01*
X80812573Y-112657321D02*
X80750299Y-112704759D01*
X80750299Y-112704759D02*
X80704124Y-112793460D01*
X80704124Y-112793460D02*
X80704832Y-112864290D01*
X80704832Y-112864290D02*
X80720931Y-112905553D01*
X80720931Y-112905553D02*
X80768522Y-112958512D01*
X80768522Y-112958512D02*
X80957468Y-113028686D01*
X80957468Y-113028686D02*
X81035841Y-113022510D01*
X81035841Y-113022510D02*
X81082724Y-113004639D01*
X81082724Y-113004639D02*
X81144998Y-112957201D01*
X81144998Y-112957201D02*
X81191173Y-112868500D01*
X80504033Y-113177832D02*
X81165344Y-113423442D01*
X80535524Y-113189527D02*
X80473250Y-113236966D01*
X80473250Y-113236966D02*
X80411684Y-113355234D01*
X80411684Y-113355234D02*
X80412391Y-113426063D01*
X80412391Y-113426063D02*
X80428491Y-113467326D01*
X80428491Y-113467326D02*
X80476081Y-113520285D01*
X80476081Y-113520285D02*
X80665027Y-113590459D01*
X80665027Y-113590459D02*
X80743401Y-113584284D01*
X80743401Y-113584284D02*
X80790283Y-113566412D01*
X80790283Y-113566412D02*
X80852557Y-113518974D01*
X80852557Y-113518974D02*
X80914124Y-113400706D01*
X80914124Y-113400706D02*
X80913416Y-113329876D01*
X80606292Y-113992046D02*
X80605584Y-113921216D01*
X80605584Y-113921216D02*
X80557994Y-113868258D01*
X80557994Y-113868258D02*
X79991156Y-113657735D01*
X80328535Y-114453423D02*
X80390809Y-114405985D01*
X80390809Y-114405985D02*
X80452375Y-114287717D01*
X80452375Y-114287717D02*
X80451668Y-114216887D01*
X80451668Y-114216887D02*
X80404077Y-114163928D01*
X80404077Y-114163928D02*
X80152149Y-114070363D01*
X80152149Y-114070363D02*
X80073776Y-114076538D01*
X80073776Y-114076538D02*
X80011502Y-114123976D01*
X80011502Y-114123976D02*
X79949935Y-114242245D01*
X79949935Y-114242245D02*
X79950643Y-114313074D01*
X79950643Y-114313074D02*
X79998233Y-114366033D01*
X79998233Y-114366033D02*
X80061215Y-114389424D01*
X80061215Y-114389424D02*
X80278113Y-114117146D01*
X89978250Y-98357131D02*
X89978958Y-98427961D01*
X89978958Y-98427961D02*
X89917391Y-98546229D01*
X89917391Y-98546229D02*
X89855117Y-98593668D01*
X89855117Y-98593668D02*
X89776743Y-98599843D01*
X89776743Y-98599843D02*
X89745252Y-98588147D01*
X89745252Y-98588147D02*
X89697662Y-98535189D01*
X89697662Y-98535189D02*
X89696954Y-98464359D01*
X89696954Y-98464359D02*
X89743129Y-98375658D01*
X89743129Y-98375658D02*
X89742421Y-98304828D01*
X89742421Y-98304828D02*
X89694831Y-98251870D01*
X89694831Y-98251870D02*
X89663340Y-98240174D01*
X89663340Y-98240174D02*
X89584966Y-98246349D01*
X89584966Y-98246349D02*
X89522692Y-98293788D01*
X89522692Y-98293788D02*
X89476517Y-98382489D01*
X89476517Y-98382489D02*
X89477225Y-98453319D01*
X89337993Y-98648592D02*
X89214860Y-98885129D01*
X89071381Y-98655423D02*
X89638219Y-98865947D01*
X89638219Y-98865947D02*
X89685809Y-98918905D01*
X89685809Y-98918905D02*
X89686517Y-98989735D01*
X89686517Y-98989735D02*
X89655733Y-99048869D01*
X89409468Y-99521941D02*
X89063067Y-99393288D01*
X89063067Y-99393288D02*
X89015476Y-99340330D01*
X89015476Y-99340330D02*
X89014769Y-99269500D01*
X89014769Y-99269500D02*
X89076335Y-99151232D01*
X89076335Y-99151232D02*
X89138609Y-99103794D01*
X89377977Y-99510246D02*
X89440251Y-99462807D01*
X89440251Y-99462807D02*
X89517209Y-99314972D01*
X89517209Y-99314972D02*
X89516501Y-99244142D01*
X89516501Y-99244142D02*
X89468911Y-99191184D01*
X89468911Y-99191184D02*
X89405929Y-99167792D01*
X89405929Y-99167792D02*
X89327555Y-99173968D01*
X89327555Y-99173968D02*
X89265281Y-99221406D01*
X89265281Y-99221406D02*
X89188323Y-99369241D01*
X89188323Y-99369241D02*
X89126049Y-99416680D01*
X89255551Y-99817611D02*
X88814678Y-99653871D01*
X88940642Y-99700654D02*
X88862268Y-99706830D01*
X88862268Y-99706830D02*
X88815385Y-99724701D01*
X88815385Y-99724701D02*
X88753111Y-99772139D01*
X88753111Y-99772139D02*
X88722328Y-99831273D01*
X88900837Y-100426823D02*
X88963111Y-100379385D01*
X88963111Y-100379385D02*
X89024677Y-100261117D01*
X89024677Y-100261117D02*
X89023970Y-100190287D01*
X89023970Y-100190287D02*
X88976379Y-100137328D01*
X88976379Y-100137328D02*
X88724451Y-100043762D01*
X88724451Y-100043762D02*
X88646078Y-100049938D01*
X88646078Y-100049938D02*
X88583804Y-100097376D01*
X88583804Y-100097376D02*
X88522237Y-100215644D01*
X88522237Y-100215644D02*
X88522945Y-100286474D01*
X88522945Y-100286474D02*
X88570535Y-100339433D01*
X88570535Y-100339433D02*
X88633517Y-100362824D01*
X88633517Y-100362824D02*
X88850415Y-100090545D01*
X88731529Y-100752060D02*
X88763020Y-100763756D01*
X88763020Y-100763756D02*
X88841393Y-100757580D01*
X88841393Y-100757580D02*
X88888276Y-100739709D01*
X88332055Y-101591632D02*
X88331347Y-101520802D01*
X88331347Y-101520802D02*
X88315248Y-101479540D01*
X88315248Y-101479540D02*
X88267657Y-101426581D01*
X88267657Y-101426581D02*
X88078711Y-101356407D01*
X88078711Y-101356407D02*
X88000338Y-101362582D01*
X88000338Y-101362582D02*
X87953455Y-101380454D01*
X87953455Y-101380454D02*
X87891181Y-101427892D01*
X87891181Y-101427892D02*
X87845006Y-101516593D01*
X87845006Y-101516593D02*
X87845714Y-101587423D01*
X87845714Y-101587423D02*
X87861813Y-101628685D01*
X87861813Y-101628685D02*
X87909404Y-101681644D01*
X87909404Y-101681644D02*
X88098349Y-101751818D01*
X88098349Y-101751818D02*
X88176723Y-101745643D01*
X88176723Y-101745643D02*
X88223606Y-101727772D01*
X88223606Y-101727772D02*
X88285880Y-101680333D01*
X88285880Y-101680333D02*
X88332055Y-101591632D01*
X88085789Y-102064704D02*
X87644915Y-101900964D01*
X87770879Y-101947747D02*
X87692506Y-101953922D01*
X87692506Y-101953922D02*
X87645623Y-101971794D01*
X87645623Y-101971794D02*
X87583349Y-102019232D01*
X87583349Y-102019232D02*
X87552565Y-102078366D01*
X87593257Y-103010849D02*
X87592550Y-102940019D01*
X87592550Y-102940019D02*
X87544959Y-102887060D01*
X87544959Y-102887060D02*
X86978122Y-102676537D01*
X87331600Y-103513488D02*
X86985199Y-103384835D01*
X86985199Y-103384835D02*
X86937609Y-103331877D01*
X86937609Y-103331877D02*
X86936901Y-103261047D01*
X86936901Y-103261047D02*
X86998467Y-103142779D01*
X86998467Y-103142779D02*
X87060742Y-103095341D01*
X87300109Y-103501793D02*
X87362383Y-103454354D01*
X87362383Y-103454354D02*
X87439341Y-103306519D01*
X87439341Y-103306519D02*
X87438633Y-103235689D01*
X87438633Y-103235689D02*
X87391043Y-103182731D01*
X87391043Y-103182731D02*
X87328061Y-103159339D01*
X87328061Y-103159339D02*
X87249687Y-103165515D01*
X87249687Y-103165515D02*
X87187413Y-103212953D01*
X87187413Y-103212953D02*
X87110455Y-103360788D01*
X87110455Y-103360788D02*
X87048181Y-103408227D01*
X86598285Y-103911521D02*
X87039159Y-104075262D01*
X86736810Y-103645418D02*
X87083211Y-103774071D01*
X87083211Y-103774071D02*
X87130801Y-103827030D01*
X87130801Y-103827030D02*
X87131509Y-103897859D01*
X87131509Y-103897859D02*
X87085334Y-103986561D01*
X87085334Y-103986561D02*
X87023060Y-104033999D01*
X87023060Y-104033999D02*
X86976177Y-104051870D01*
X86305845Y-104473295D02*
X86841191Y-104672122D01*
X86841191Y-104672122D02*
X86919565Y-104665947D01*
X86919565Y-104665947D02*
X86966448Y-104648075D01*
X86966448Y-104648075D02*
X87028722Y-104600637D01*
X87028722Y-104600637D02*
X87074897Y-104511936D01*
X87074897Y-104511936D02*
X87074189Y-104441106D01*
X86715227Y-104625339D02*
X86777502Y-104577901D01*
X86777502Y-104577901D02*
X86839068Y-104459633D01*
X86839068Y-104459633D02*
X86838360Y-104388803D01*
X86838360Y-104388803D02*
X86822261Y-104347540D01*
X86822261Y-104347540D02*
X86774671Y-104294582D01*
X86774671Y-104294582D02*
X86585725Y-104224407D01*
X86585725Y-104224407D02*
X86507351Y-104230583D01*
X86507351Y-104230583D02*
X86460469Y-104248454D01*
X86460469Y-104248454D02*
X86398194Y-104295892D01*
X86398194Y-104295892D02*
X86336628Y-104414160D01*
X86336628Y-104414160D02*
X86337336Y-104484990D01*
X86592802Y-104932705D02*
X85931492Y-104687094D01*
X86454278Y-105198808D02*
X86107877Y-105070155D01*
X86107877Y-105070155D02*
X86060287Y-105017196D01*
X86060287Y-105017196D02*
X86059579Y-104946367D01*
X86059579Y-104946367D02*
X86105754Y-104857666D01*
X86105754Y-104857666D02*
X86168028Y-104810227D01*
X86168028Y-104810227D02*
X86214911Y-104792356D01*
X86253479Y-105512349D02*
X86284970Y-105524045D01*
X86284970Y-105524045D02*
X86363344Y-105517870D01*
X86363344Y-105517870D02*
X86410226Y-105499998D01*
X85761655Y-106529323D02*
X85415255Y-106400670D01*
X85415255Y-106400670D02*
X85367664Y-106347712D01*
X85367664Y-106347712D02*
X85366956Y-106276882D01*
X85366956Y-106276882D02*
X85428523Y-106158614D01*
X85428523Y-106158614D02*
X85490797Y-106111176D01*
X85730164Y-106517628D02*
X85792439Y-106470189D01*
X85792439Y-106470189D02*
X85869397Y-106322354D01*
X85869397Y-106322354D02*
X85868689Y-106251525D01*
X85868689Y-106251525D02*
X85821099Y-106198566D01*
X85821099Y-106198566D02*
X85758117Y-106175175D01*
X85758117Y-106175175D02*
X85679743Y-106181350D01*
X85679743Y-106181350D02*
X85617469Y-106228788D01*
X85617469Y-106228788D02*
X85540511Y-106376624D01*
X85540511Y-106376624D02*
X85478236Y-106424062D01*
X85166866Y-106661253D02*
X85828176Y-106906864D01*
X85198357Y-106672949D02*
X85136082Y-106720387D01*
X85136082Y-106720387D02*
X85074516Y-106838655D01*
X85074516Y-106838655D02*
X85075224Y-106909485D01*
X85075224Y-106909485D02*
X85091323Y-106950748D01*
X85091323Y-106950748D02*
X85138913Y-107003706D01*
X85138913Y-107003706D02*
X85327859Y-107073881D01*
X85327859Y-107073881D02*
X85406233Y-107067705D01*
X85406233Y-107067705D02*
X85453115Y-107049834D01*
X85453115Y-107049834D02*
X85515390Y-107002396D01*
X85515390Y-107002396D02*
X85576956Y-106884128D01*
X85576956Y-106884128D02*
X85576248Y-106813298D01*
X84874425Y-107223026D02*
X85535735Y-107468637D01*
X84905916Y-107234722D02*
X84843642Y-107282160D01*
X84843642Y-107282160D02*
X84782075Y-107400428D01*
X84782075Y-107400428D02*
X84782783Y-107471258D01*
X84782783Y-107471258D02*
X84798882Y-107512521D01*
X84798882Y-107512521D02*
X84846473Y-107565480D01*
X84846473Y-107565480D02*
X85035418Y-107635654D01*
X85035418Y-107635654D02*
X85113792Y-107629478D01*
X85113792Y-107629478D02*
X85160675Y-107611607D01*
X85160675Y-107611607D02*
X85222949Y-107564169D01*
X85222949Y-107564169D02*
X85284515Y-107445901D01*
X85284515Y-107445901D02*
X85283808Y-107375071D01*
X84976683Y-108037241D02*
X84975975Y-107966411D01*
X84975975Y-107966411D02*
X84928385Y-107913453D01*
X84928385Y-107913453D02*
X84361547Y-107702929D01*
X84715025Y-108539881D02*
X84368625Y-108411228D01*
X84368625Y-108411228D02*
X84321034Y-108358269D01*
X84321034Y-108358269D02*
X84320327Y-108287439D01*
X84320327Y-108287439D02*
X84381893Y-108169171D01*
X84381893Y-108169171D02*
X84444167Y-108121733D01*
X84683534Y-108528185D02*
X84745809Y-108480747D01*
X84745809Y-108480747D02*
X84822767Y-108332912D01*
X84822767Y-108332912D02*
X84822059Y-108262082D01*
X84822059Y-108262082D02*
X84774469Y-108209123D01*
X84774469Y-108209123D02*
X84711487Y-108185732D01*
X84711487Y-108185732D02*
X84633113Y-108191907D01*
X84633113Y-108191907D02*
X84570839Y-108239346D01*
X84570839Y-108239346D02*
X84493881Y-108387181D01*
X84493881Y-108387181D02*
X84431607Y-108434619D01*
X83981711Y-108937914D02*
X84422585Y-109101654D01*
X84120236Y-108671810D02*
X84466636Y-108800464D01*
X84466636Y-108800464D02*
X84514227Y-108853422D01*
X84514227Y-108853422D02*
X84514935Y-108924252D01*
X84514935Y-108924252D02*
X84468760Y-109012953D01*
X84468760Y-109012953D02*
X84406485Y-109060391D01*
X84406485Y-109060391D02*
X84359603Y-109078263D01*
X84130144Y-109663427D02*
X83468834Y-109417817D01*
X84098653Y-109651732D02*
X84160927Y-109604293D01*
X84160927Y-109604293D02*
X84222494Y-109486025D01*
X84222494Y-109486025D02*
X84221786Y-109415195D01*
X84221786Y-109415195D02*
X84205687Y-109373933D01*
X84205687Y-109373933D02*
X84158096Y-109320974D01*
X84158096Y-109320974D02*
X83969151Y-109250800D01*
X83969151Y-109250800D02*
X83890777Y-109256975D01*
X83890777Y-109256975D02*
X83843894Y-109274846D01*
X83843894Y-109274846D02*
X83781620Y-109322285D01*
X83781620Y-109322285D02*
X83720054Y-109440553D01*
X83720054Y-109440553D02*
X83720761Y-109511383D01*
X83929346Y-109976969D02*
X83960836Y-109988664D01*
X83960836Y-109988664D02*
X84039210Y-109982489D01*
X84039210Y-109982489D02*
X84086093Y-109964617D01*
X83529871Y-110816540D02*
X83529164Y-110745711D01*
X83529164Y-110745711D02*
X83513064Y-110704448D01*
X83513064Y-110704448D02*
X83465474Y-110651489D01*
X83465474Y-110651489D02*
X83276528Y-110581315D01*
X83276528Y-110581315D02*
X83198155Y-110587490D01*
X83198155Y-110587490D02*
X83151272Y-110605362D01*
X83151272Y-110605362D02*
X83088998Y-110652800D01*
X83088998Y-110652800D02*
X83042823Y-110741501D01*
X83042823Y-110741501D02*
X83043531Y-110812331D01*
X83043531Y-110812331D02*
X83059630Y-110853594D01*
X83059630Y-110853594D02*
X83107220Y-110906552D01*
X83107220Y-110906552D02*
X83296166Y-110976727D01*
X83296166Y-110976727D02*
X83374540Y-110970551D01*
X83374540Y-110970551D02*
X83421422Y-110952680D01*
X83421422Y-110952680D02*
X83483697Y-110905242D01*
X83483697Y-110905242D02*
X83529871Y-110816540D01*
X83283606Y-111289613D02*
X82842732Y-111125872D01*
X82968696Y-111172655D02*
X82890322Y-111178831D01*
X82890322Y-111178831D02*
X82843440Y-111196702D01*
X82843440Y-111196702D02*
X82781165Y-111244140D01*
X82781165Y-111244140D02*
X82750382Y-111303274D01*
X82837249Y-112147056D02*
X82175938Y-111901445D01*
X82427866Y-111995011D02*
X82365592Y-112042449D01*
X82365592Y-112042449D02*
X82304026Y-112160718D01*
X82304026Y-112160718D02*
X82304733Y-112231547D01*
X82304733Y-112231547D02*
X82320833Y-112272810D01*
X82320833Y-112272810D02*
X82368423Y-112325769D01*
X82368423Y-112325769D02*
X82557369Y-112395943D01*
X82557369Y-112395943D02*
X82635742Y-112389768D01*
X82635742Y-112389768D02*
X82682625Y-112371896D01*
X82682625Y-112371896D02*
X82744899Y-112324458D01*
X82744899Y-112324458D02*
X82806466Y-112206190D01*
X82806466Y-112206190D02*
X82805758Y-112135360D01*
X82498633Y-112797530D02*
X82497926Y-112726700D01*
X82497926Y-112726700D02*
X82481826Y-112685438D01*
X82481826Y-112685438D02*
X82434236Y-112632479D01*
X82434236Y-112632479D02*
X82245290Y-112562305D01*
X82245290Y-112562305D02*
X82166917Y-112568480D01*
X82166917Y-112568480D02*
X82120034Y-112586351D01*
X82120034Y-112586351D02*
X82057760Y-112633790D01*
X82057760Y-112633790D02*
X82011585Y-112722491D01*
X82011585Y-112722491D02*
X82012293Y-112793321D01*
X82012293Y-112793321D02*
X82028392Y-112834583D01*
X82028392Y-112834583D02*
X82075982Y-112887542D01*
X82075982Y-112887542D02*
X82264928Y-112957716D01*
X82264928Y-112957716D02*
X82343302Y-112951541D01*
X82343302Y-112951541D02*
X82390184Y-112933670D01*
X82390184Y-112933670D02*
X82452459Y-112886231D01*
X82452459Y-112886231D02*
X82498633Y-112797530D01*
X82206193Y-113359303D02*
X82205485Y-113288474D01*
X82205485Y-113288474D02*
X82189386Y-113247211D01*
X82189386Y-113247211D02*
X82141795Y-113194252D01*
X82141795Y-113194252D02*
X81952850Y-113124078D01*
X81952850Y-113124078D02*
X81874476Y-113130253D01*
X81874476Y-113130253D02*
X81827593Y-113148125D01*
X81827593Y-113148125D02*
X81765319Y-113195563D01*
X81765319Y-113195563D02*
X81719144Y-113284264D01*
X81719144Y-113284264D02*
X81719852Y-113355094D01*
X81719852Y-113355094D02*
X81735951Y-113396357D01*
X81735951Y-113396357D02*
X81783542Y-113449315D01*
X81783542Y-113449315D02*
X81972488Y-113519490D01*
X81972488Y-113519490D02*
X82050861Y-113513314D01*
X82050861Y-113513314D02*
X82097744Y-113495443D01*
X82097744Y-113495443D02*
X82160018Y-113448004D01*
X82160018Y-113448004D02*
X82206193Y-113359303D01*
X81896945Y-113808984D02*
X81913044Y-113850247D01*
X81913044Y-113850247D02*
X81959927Y-113832376D01*
X81959927Y-113832376D02*
X81943828Y-113791113D01*
X81943828Y-113791113D02*
X81896945Y-113808984D01*
X81896945Y-113808984D02*
X81959927Y-113832376D01*
X90820422Y-98819026D02*
X90666506Y-99114696D01*
X91040151Y-98830066D02*
X90271099Y-98791425D01*
X90271099Y-98791425D02*
X90824668Y-99244004D01*
X90276053Y-99287233D02*
X90716927Y-99450974D01*
X90339035Y-99310625D02*
X90292153Y-99328496D01*
X90292153Y-99328496D02*
X90229878Y-99375934D01*
X90229878Y-99375934D02*
X90183704Y-99464635D01*
X90183704Y-99464635D02*
X90184411Y-99535465D01*
X90184411Y-99535465D02*
X90232002Y-99588424D01*
X90232002Y-99588424D02*
X90578402Y-99717077D01*
X90285962Y-100278850D02*
X89624651Y-100033240D01*
X90254471Y-100267154D02*
X90316745Y-100219716D01*
X90316745Y-100219716D02*
X90378312Y-100101448D01*
X90378312Y-100101448D02*
X90377604Y-100030618D01*
X90377604Y-100030618D02*
X90361504Y-99989355D01*
X90361504Y-99989355D02*
X90313914Y-99936397D01*
X90313914Y-99936397D02*
X90124968Y-99866222D01*
X90124968Y-99866222D02*
X90046595Y-99872398D01*
X90046595Y-99872398D02*
X89999712Y-99890269D01*
X89999712Y-99890269D02*
X89937438Y-99937708D01*
X89937438Y-99937708D02*
X89875871Y-100055976D01*
X89875871Y-100055976D02*
X89876579Y-100126805D01*
X89885780Y-101047592D02*
X89444906Y-100883852D01*
X89224469Y-100801982D02*
X89271352Y-100784110D01*
X89271352Y-100784110D02*
X89287451Y-100825373D01*
X89287451Y-100825373D02*
X89240569Y-100843244D01*
X89240569Y-100843244D02*
X89224469Y-100801982D01*
X89224469Y-100801982D02*
X89287451Y-100825373D01*
X89337165Y-101090821D02*
X89214032Y-101327357D01*
X89070553Y-101097652D02*
X89637391Y-101308175D01*
X89637391Y-101308175D02*
X89684981Y-101361133D01*
X89684981Y-101361133D02*
X89685689Y-101431963D01*
X89685689Y-101431963D02*
X89654906Y-101491097D01*
X88870462Y-101482023D02*
X89027209Y-101469672D01*
X89377149Y-101952474D02*
X89377857Y-102023304D01*
X89377857Y-102023304D02*
X89316290Y-102141572D01*
X89316290Y-102141572D02*
X89254016Y-102189010D01*
X89254016Y-102189010D02*
X89175643Y-102195186D01*
X89175643Y-102195186D02*
X89144152Y-102183490D01*
X89144152Y-102183490D02*
X89096561Y-102130531D01*
X89096561Y-102130531D02*
X89095854Y-102059701D01*
X89095854Y-102059701D02*
X89142028Y-101971000D01*
X89142028Y-101971000D02*
X89141321Y-101900171D01*
X89141321Y-101900171D02*
X89093730Y-101847212D01*
X89093730Y-101847212D02*
X89062239Y-101835516D01*
X89062239Y-101835516D02*
X88983866Y-101841692D01*
X88983866Y-101841692D02*
X88921592Y-101889130D01*
X88921592Y-101889130D02*
X88875417Y-101977831D01*
X88875417Y-101977831D02*
X88876124Y-102048661D01*
X88869226Y-102928186D02*
X88869933Y-102999015D01*
X88869933Y-102999015D02*
X88808367Y-103117284D01*
X88808367Y-103117284D02*
X88746093Y-103164722D01*
X88746093Y-103164722D02*
X88667719Y-103170897D01*
X88667719Y-103170897D02*
X88636228Y-103159202D01*
X88636228Y-103159202D02*
X88588638Y-103106243D01*
X88588638Y-103106243D02*
X88587930Y-103035413D01*
X88587930Y-103035413D02*
X88634105Y-102946712D01*
X88634105Y-102946712D02*
X88633397Y-102875882D01*
X88633397Y-102875882D02*
X88585807Y-102822924D01*
X88585807Y-102822924D02*
X88554316Y-102811228D01*
X88554316Y-102811228D02*
X88475942Y-102817404D01*
X88475942Y-102817404D02*
X88413668Y-102864842D01*
X88413668Y-102864842D02*
X88367493Y-102953543D01*
X88367493Y-102953543D02*
X88368201Y-103024373D01*
X88577492Y-103560789D02*
X88576785Y-103489959D01*
X88576785Y-103489959D02*
X88560685Y-103448697D01*
X88560685Y-103448697D02*
X88513095Y-103395738D01*
X88513095Y-103395738D02*
X88324149Y-103325564D01*
X88324149Y-103325564D02*
X88245776Y-103331739D01*
X88245776Y-103331739D02*
X88198893Y-103349611D01*
X88198893Y-103349611D02*
X88136619Y-103397049D01*
X88136619Y-103397049D02*
X88090444Y-103485750D01*
X88090444Y-103485750D02*
X88091152Y-103556580D01*
X88091152Y-103556580D02*
X88107251Y-103597843D01*
X88107251Y-103597843D02*
X88154841Y-103650801D01*
X88154841Y-103650801D02*
X88343787Y-103720976D01*
X88343787Y-103720976D02*
X88422161Y-103714800D01*
X88422161Y-103714800D02*
X88469043Y-103696929D01*
X88469043Y-103696929D02*
X88531318Y-103649490D01*
X88531318Y-103649490D02*
X88577492Y-103560789D01*
X88331227Y-104033861D02*
X87890353Y-103870121D01*
X87953335Y-103893513D02*
X87906452Y-103911384D01*
X87906452Y-103911384D02*
X87844178Y-103958822D01*
X87844178Y-103958822D02*
X87798003Y-104047523D01*
X87798003Y-104047523D02*
X87798711Y-104118353D01*
X87798711Y-104118353D02*
X87846301Y-104171312D01*
X87846301Y-104171312D02*
X88192702Y-104299965D01*
X87846301Y-104171312D02*
X87767928Y-104177487D01*
X87767928Y-104177487D02*
X87705653Y-104224925D01*
X87705653Y-104224925D02*
X87659479Y-104313626D01*
X87659479Y-104313626D02*
X87660186Y-104384456D01*
X87660186Y-104384456D02*
X87707777Y-104437415D01*
X87707777Y-104437415D02*
X88054178Y-104566068D01*
X87745638Y-105086578D02*
X87807912Y-105039140D01*
X87807912Y-105039140D02*
X87869478Y-104920872D01*
X87869478Y-104920872D02*
X87868770Y-104850042D01*
X87868770Y-104850042D02*
X87821180Y-104797084D01*
X87821180Y-104797084D02*
X87569252Y-104703518D01*
X87569252Y-104703518D02*
X87490879Y-104709693D01*
X87490879Y-104709693D02*
X87428604Y-104757132D01*
X87428604Y-104757132D02*
X87367038Y-104875400D01*
X87367038Y-104875400D02*
X87367746Y-104946229D01*
X87367746Y-104946229D02*
X87415336Y-104999188D01*
X87415336Y-104999188D02*
X87478318Y-105022579D01*
X87478318Y-105022579D02*
X87695216Y-104750301D01*
X87228513Y-105141503D02*
X87105380Y-105378039D01*
X86961902Y-105148334D02*
X87528739Y-105358857D01*
X87528739Y-105358857D02*
X87576330Y-105411816D01*
X87576330Y-105411816D02*
X87577037Y-105482645D01*
X87577037Y-105482645D02*
X87546254Y-105541780D01*
X87438513Y-105748749D02*
X86777202Y-105503138D01*
X87299988Y-106014852D02*
X86953587Y-105886199D01*
X86953587Y-105886199D02*
X86905997Y-105833240D01*
X86905997Y-105833240D02*
X86905289Y-105762411D01*
X86905289Y-105762411D02*
X86951464Y-105673709D01*
X86951464Y-105673709D02*
X87013738Y-105626271D01*
X87013738Y-105626271D02*
X87060621Y-105608400D01*
X87146072Y-106310522D02*
X86705198Y-106146782D01*
X86484762Y-106064911D02*
X86531644Y-106047040D01*
X86531644Y-106047040D02*
X86547744Y-106088303D01*
X86547744Y-106088303D02*
X86500861Y-106106174D01*
X86500861Y-106106174D02*
X86484762Y-106064911D01*
X86484762Y-106064911D02*
X86547744Y-106088303D01*
X86551282Y-106442452D02*
X86992156Y-106606192D01*
X86614264Y-106465843D02*
X86567382Y-106483714D01*
X86567382Y-106483714D02*
X86505108Y-106531153D01*
X86505108Y-106531153D02*
X86458933Y-106619854D01*
X86458933Y-106619854D02*
X86459640Y-106690684D01*
X86459640Y-106690684D02*
X86507231Y-106743642D01*
X86507231Y-106743642D02*
X86853632Y-106872295D01*
X86120317Y-107270328D02*
X86655664Y-107469156D01*
X86655664Y-107469156D02*
X86734037Y-107462980D01*
X86734037Y-107462980D02*
X86780920Y-107445109D01*
X86780920Y-107445109D02*
X86843194Y-107397671D01*
X86843194Y-107397671D02*
X86889369Y-107308969D01*
X86889369Y-107308969D02*
X86888661Y-107238140D01*
X86529700Y-107422373D02*
X86591974Y-107374934D01*
X86591974Y-107374934D02*
X86653541Y-107256666D01*
X86653541Y-107256666D02*
X86652833Y-107185836D01*
X86652833Y-107185836D02*
X86636734Y-107144574D01*
X86636734Y-107144574D02*
X86589143Y-107091615D01*
X86589143Y-107091615D02*
X86400197Y-107021441D01*
X86400197Y-107021441D02*
X86321824Y-107027616D01*
X86321824Y-107027616D02*
X86274941Y-107045488D01*
X86274941Y-107045488D02*
X86212667Y-107092926D01*
X86212667Y-107092926D02*
X86151100Y-107211194D01*
X86151100Y-107211194D02*
X86151808Y-107282024D01*
X85750919Y-107979936D02*
X86130226Y-108261945D01*
X86130226Y-108261945D02*
X85753750Y-108263255D01*
X85753750Y-108263255D02*
X86007093Y-108498481D01*
X86007093Y-108498481D02*
X85504653Y-108453009D01*
X85667770Y-109078125D02*
X85730044Y-109030687D01*
X85730044Y-109030687D02*
X85791610Y-108912419D01*
X85791610Y-108912419D02*
X85790903Y-108841589D01*
X85790903Y-108841589D02*
X85743312Y-108788631D01*
X85743312Y-108788631D02*
X85491384Y-108695065D01*
X85491384Y-108695065D02*
X85413011Y-108701240D01*
X85413011Y-108701240D02*
X85350737Y-108748679D01*
X85350737Y-108748679D02*
X85289170Y-108866947D01*
X85289170Y-108866947D02*
X85289878Y-108937776D01*
X85289878Y-108937776D02*
X85337468Y-108990735D01*
X85337468Y-108990735D02*
X85400450Y-109014126D01*
X85400450Y-109014126D02*
X85617348Y-108741848D01*
X85160554Y-110124667D02*
X84814153Y-109996014D01*
X84814153Y-109996014D02*
X84766563Y-109943055D01*
X84766563Y-109943055D02*
X84765855Y-109872225D01*
X84765855Y-109872225D02*
X84827422Y-109753957D01*
X84827422Y-109753957D02*
X84889696Y-109706519D01*
X85129063Y-110112971D02*
X85191337Y-110065533D01*
X85191337Y-110065533D02*
X85268295Y-109917698D01*
X85268295Y-109917698D02*
X85267588Y-109846868D01*
X85267588Y-109846868D02*
X85219997Y-109793909D01*
X85219997Y-109793909D02*
X85157015Y-109770518D01*
X85157015Y-109770518D02*
X85078642Y-109776693D01*
X85078642Y-109776693D02*
X85016368Y-109824132D01*
X85016368Y-109824132D02*
X84939409Y-109971967D01*
X84939409Y-109971967D02*
X84877135Y-110019405D01*
X84960463Y-110509038D02*
X84959755Y-110438208D01*
X84959755Y-110438208D02*
X84912165Y-110385250D01*
X84912165Y-110385250D02*
X84345327Y-110174726D01*
X84791155Y-110834275D02*
X84790447Y-110763446D01*
X84790447Y-110763446D02*
X84742857Y-110710487D01*
X84742857Y-110710487D02*
X84176019Y-110499964D01*
X83980883Y-111380144D02*
X84421756Y-111543884D01*
X84043865Y-111403535D02*
X83996982Y-111421407D01*
X83996982Y-111421407D02*
X83934708Y-111468845D01*
X83934708Y-111468845D02*
X83888533Y-111557546D01*
X83888533Y-111557546D02*
X83889241Y-111628376D01*
X83889241Y-111628376D02*
X83936831Y-111681334D01*
X83936831Y-111681334D02*
X84283232Y-111809987D01*
X83974692Y-112330498D02*
X84036966Y-112283060D01*
X84036966Y-112283060D02*
X84098532Y-112164791D01*
X84098532Y-112164791D02*
X84097825Y-112093962D01*
X84097825Y-112093962D02*
X84050234Y-112041003D01*
X84050234Y-112041003D02*
X83798307Y-111947437D01*
X83798307Y-111947437D02*
X83719933Y-111953613D01*
X83719933Y-111953613D02*
X83657659Y-112001051D01*
X83657659Y-112001051D02*
X83596092Y-112119319D01*
X83596092Y-112119319D02*
X83596800Y-112190149D01*
X83596800Y-112190149D02*
X83644390Y-112243107D01*
X83644390Y-112243107D02*
X83707372Y-112266499D01*
X83707372Y-112266499D02*
X83924270Y-111994220D01*
X83697643Y-112862704D02*
X83759917Y-112815266D01*
X83759917Y-112815266D02*
X83821483Y-112696998D01*
X83821483Y-112696998D02*
X83820776Y-112626168D01*
X83820776Y-112626168D02*
X83773185Y-112573210D01*
X83773185Y-112573210D02*
X83521257Y-112479644D01*
X83521257Y-112479644D02*
X83442884Y-112485819D01*
X83442884Y-112485819D02*
X83380610Y-112533258D01*
X83380610Y-112533258D02*
X83319043Y-112651526D01*
X83319043Y-112651526D02*
X83319751Y-112722355D01*
X83319751Y-112722355D02*
X83367341Y-112775314D01*
X83367341Y-112775314D02*
X83430323Y-112798705D01*
X83430323Y-112798705D02*
X83647221Y-112526427D01*
X83436693Y-113436174D02*
X82775382Y-113190563D01*
X83405202Y-113424478D02*
X83467476Y-113377040D01*
X83467476Y-113377040D02*
X83529042Y-113258771D01*
X83529042Y-113258771D02*
X83528335Y-113187942D01*
X83528335Y-113187942D02*
X83512235Y-113146679D01*
X83512235Y-113146679D02*
X83464645Y-113093720D01*
X83464645Y-113093720D02*
X83275699Y-113023546D01*
X83275699Y-113023546D02*
X83197326Y-113029721D01*
X83197326Y-113029721D02*
X83150443Y-113047593D01*
X83150443Y-113047593D02*
X83088169Y-113095031D01*
X83088169Y-113095031D02*
X83026602Y-113213299D01*
X83026602Y-113213299D02*
X83027310Y-113284129D01*
X82641812Y-113952474D02*
X82518679Y-114189010D01*
X82375200Y-113959305D02*
X82942038Y-114169829D01*
X82942038Y-114169829D02*
X82989628Y-114222787D01*
X82989628Y-114222787D02*
X82990336Y-114293617D01*
X82990336Y-114293617D02*
X82959553Y-114352751D01*
X82805637Y-114648421D02*
X82804929Y-114577591D01*
X82804929Y-114577591D02*
X82788830Y-114536329D01*
X82788830Y-114536329D02*
X82741239Y-114483370D01*
X82741239Y-114483370D02*
X82552293Y-114413196D01*
X82552293Y-114413196D02*
X82473920Y-114419371D01*
X82473920Y-114419371D02*
X82427037Y-114437242D01*
X82427037Y-114437242D02*
X82364763Y-114484681D01*
X82364763Y-114484681D02*
X82318588Y-114573382D01*
X82318588Y-114573382D02*
X82319296Y-114644212D01*
X82319296Y-114644212D02*
X82335395Y-114685474D01*
X82335395Y-114685474D02*
X82382985Y-114738433D01*
X82382985Y-114738433D02*
X82571931Y-114808607D01*
X82571931Y-114808607D02*
X82650305Y-114802432D01*
X82650305Y-114802432D02*
X82697188Y-114784561D01*
X82697188Y-114784561D02*
X82759462Y-114737122D01*
X82759462Y-114737122D02*
X82805637Y-114648421D01*
X91823588Y-99693548D02*
X91885862Y-99646109D01*
X91885862Y-99646109D02*
X91947428Y-99527841D01*
X91947428Y-99527841D02*
X91946721Y-99457011D01*
X91946721Y-99457011D02*
X91930621Y-99415749D01*
X91930621Y-99415749D02*
X91883031Y-99362790D01*
X91883031Y-99362790D02*
X91694085Y-99292616D01*
X91694085Y-99292616D02*
X91615711Y-99298791D01*
X91615711Y-99298791D02*
X91568829Y-99316662D01*
X91568829Y-99316662D02*
X91506555Y-99364101D01*
X91506555Y-99364101D02*
X91444988Y-99482369D01*
X91444988Y-99482369D02*
X91445696Y-99553199D01*
X91137156Y-100073709D02*
X91578029Y-100237450D01*
X91275680Y-99807606D02*
X91622081Y-99936259D01*
X91622081Y-99936259D02*
X91669671Y-99989218D01*
X91669671Y-99989218D02*
X91670379Y-100060048D01*
X91670379Y-100060048D02*
X91624204Y-100148749D01*
X91624204Y-100148749D02*
X91561930Y-100196187D01*
X91561930Y-100196187D02*
X91515048Y-100214058D01*
X91377939Y-100621821D02*
X91377231Y-100550991D01*
X91377231Y-100550991D02*
X91329640Y-100498033D01*
X91329640Y-100498033D02*
X90762803Y-100287509D01*
X90860107Y-100605916D02*
X90736974Y-100842452D01*
X90593495Y-100612747D02*
X91160333Y-100823270D01*
X91160333Y-100823270D02*
X91207923Y-100876229D01*
X91207923Y-100876229D02*
X91208631Y-100947059D01*
X91208631Y-100947059D02*
X91177847Y-101006193D01*
X91070106Y-101213162D02*
X90629232Y-101049421D01*
X90408795Y-100967551D02*
X90455678Y-100949680D01*
X90455678Y-100949680D02*
X90471777Y-100990943D01*
X90471777Y-100990943D02*
X90424895Y-101008814D01*
X90424895Y-101008814D02*
X90408795Y-100967551D01*
X90408795Y-100967551D02*
X90471777Y-100990943D01*
X90506099Y-101285957D02*
X90870015Y-101597533D01*
X90870015Y-101597533D02*
X90352183Y-101581628D01*
X90531400Y-102248007D02*
X90184999Y-102119354D01*
X90184999Y-102119354D02*
X90137408Y-102066395D01*
X90137408Y-102066395D02*
X90136701Y-101995566D01*
X90136701Y-101995566D02*
X90198267Y-101877298D01*
X90198267Y-101877298D02*
X90260541Y-101829859D01*
X90499909Y-102236311D02*
X90562183Y-102188873D01*
X90562183Y-102188873D02*
X90639141Y-102041038D01*
X90639141Y-102041038D02*
X90638433Y-101970208D01*
X90638433Y-101970208D02*
X90590843Y-101917250D01*
X90590843Y-101917250D02*
X90527861Y-101893858D01*
X90527861Y-101893858D02*
X90449487Y-101900034D01*
X90449487Y-101900034D02*
X90387213Y-101947472D01*
X90387213Y-101947472D02*
X90310255Y-102095307D01*
X90310255Y-102095307D02*
X90247981Y-102142745D01*
X89982785Y-102291236D02*
X89859652Y-102527772D01*
X89716173Y-102298067D02*
X90283011Y-102508590D01*
X90283011Y-102508590D02*
X90330601Y-102561548D01*
X90330601Y-102561548D02*
X90331309Y-102632378D01*
X90331309Y-102632378D02*
X90300525Y-102691512D01*
X90038160Y-103123322D02*
X90100434Y-103075884D01*
X90100434Y-103075884D02*
X90162001Y-102957616D01*
X90162001Y-102957616D02*
X90161293Y-102886786D01*
X90161293Y-102886786D02*
X90113703Y-102833827D01*
X90113703Y-102833827D02*
X89861775Y-102740261D01*
X89861775Y-102740261D02*
X89783401Y-102746437D01*
X89783401Y-102746437D02*
X89721127Y-102793875D01*
X89721127Y-102793875D02*
X89659561Y-102912143D01*
X89659561Y-102912143D02*
X89660268Y-102982973D01*
X89660268Y-102982973D02*
X89707859Y-103035932D01*
X89707859Y-103035932D02*
X89770841Y-103059323D01*
X89770841Y-103059323D02*
X89987739Y-102787044D01*
X89852753Y-103407296D02*
X89868852Y-103448559D01*
X89868852Y-103448559D02*
X89915735Y-103430688D01*
X89915735Y-103430688D02*
X89899636Y-103389425D01*
X89899636Y-103389425D02*
X89852753Y-103407296D01*
X89852753Y-103407296D02*
X89915735Y-103430688D01*
X89862241Y-107837211D02*
X89615975Y-108310284D01*
X89462059Y-108605954D02*
X89215793Y-109079027D01*
X88613396Y-110019651D02*
X88721138Y-109812682D01*
X89067539Y-109941335D02*
X88406228Y-109695725D01*
X88406228Y-109695725D02*
X88252312Y-109991395D01*
X88744315Y-110562243D02*
X88743607Y-110491413D01*
X88743607Y-110491413D02*
X88727507Y-110450150D01*
X88727507Y-110450150D02*
X88679917Y-110397192D01*
X88679917Y-110397192D02*
X88490971Y-110327017D01*
X88490971Y-110327017D02*
X88412598Y-110333193D01*
X88412598Y-110333193D02*
X88365715Y-110351064D01*
X88365715Y-110351064D02*
X88303441Y-110398502D01*
X88303441Y-110398502D02*
X88257266Y-110487204D01*
X88257266Y-110487204D02*
X88257974Y-110558033D01*
X88257974Y-110558033D02*
X88274073Y-110599296D01*
X88274073Y-110599296D02*
X88321663Y-110652255D01*
X88321663Y-110652255D02*
X88510609Y-110722429D01*
X88510609Y-110722429D02*
X88588983Y-110716254D01*
X88588983Y-110716254D02*
X88635865Y-110698382D01*
X88635865Y-110698382D02*
X88698140Y-110650944D01*
X88698140Y-110650944D02*
X88744315Y-110562243D01*
X88498049Y-111035315D02*
X88057175Y-110871575D01*
X88183139Y-110918358D02*
X88104765Y-110924533D01*
X88104765Y-110924533D02*
X88057883Y-110942404D01*
X88057883Y-110942404D02*
X87995609Y-110989843D01*
X87995609Y-110989843D02*
X87964825Y-111048977D01*
X88297958Y-111419686D02*
X87636647Y-111174076D01*
X87888575Y-111267641D02*
X87826301Y-111315080D01*
X87826301Y-111315080D02*
X87764734Y-111433348D01*
X87764734Y-111433348D02*
X87765442Y-111504178D01*
X87765442Y-111504178D02*
X87781541Y-111545440D01*
X87781541Y-111545440D02*
X87829132Y-111598399D01*
X87829132Y-111598399D02*
X88018078Y-111668573D01*
X88018078Y-111668573D02*
X88096451Y-111662398D01*
X88096451Y-111662398D02*
X88143334Y-111644527D01*
X88143334Y-111644527D02*
X88205608Y-111597088D01*
X88205608Y-111597088D02*
X88267175Y-111478820D01*
X88267175Y-111478820D02*
X88266467Y-111407990D01*
X87850893Y-112206300D02*
X87913167Y-112158861D01*
X87913167Y-112158861D02*
X87974734Y-112040593D01*
X87974734Y-112040593D02*
X87974026Y-111969764D01*
X87974026Y-111969764D02*
X87926436Y-111916805D01*
X87926436Y-111916805D02*
X87674508Y-111823239D01*
X87674508Y-111823239D02*
X87596134Y-111829415D01*
X87596134Y-111829415D02*
X87533860Y-111876853D01*
X87533860Y-111876853D02*
X87472294Y-111995121D01*
X87472294Y-111995121D02*
X87473001Y-112065951D01*
X87473001Y-112065951D02*
X87520592Y-112118909D01*
X87520592Y-112118909D02*
X87583574Y-112142301D01*
X87583574Y-112142301D02*
X87800472Y-111870022D01*
X87712369Y-112472403D02*
X87713076Y-112543233D01*
X87713076Y-112543233D02*
X87651510Y-112661501D01*
X87651510Y-112661501D02*
X87589236Y-112708939D01*
X87589236Y-112708939D02*
X87510862Y-112715115D01*
X87510862Y-112715115D02*
X87479371Y-112703419D01*
X87479371Y-112703419D02*
X87431781Y-112650461D01*
X87431781Y-112650461D02*
X87431073Y-112579631D01*
X87431073Y-112579631D02*
X87477248Y-112490930D01*
X87477248Y-112490930D02*
X87476540Y-112420100D01*
X87476540Y-112420100D02*
X87428950Y-112367141D01*
X87428950Y-112367141D02*
X87397459Y-112355446D01*
X87397459Y-112355446D02*
X87319085Y-112361621D01*
X87319085Y-112361621D02*
X87256811Y-112409059D01*
X87256811Y-112409059D02*
X87210636Y-112497761D01*
X87210636Y-112497761D02*
X87211344Y-112568590D01*
X87380123Y-113760346D02*
X87364023Y-113719083D01*
X87364023Y-113719083D02*
X87300334Y-113624862D01*
X87300334Y-113624862D02*
X87252743Y-113571903D01*
X87252743Y-113571903D02*
X87173662Y-113507249D01*
X87173662Y-113507249D02*
X87031599Y-113419203D01*
X87031599Y-113419203D02*
X86905635Y-113372420D01*
X86905635Y-113372420D02*
X86732788Y-113343509D01*
X86732788Y-113343509D02*
X86622924Y-113337988D01*
X86622924Y-113337988D02*
X86544550Y-113344164D01*
X86544550Y-113344164D02*
X86419294Y-113368211D01*
X86419294Y-113368211D02*
X86372411Y-113386082D01*
X86422125Y-113651530D02*
X86375242Y-113669402D01*
X86375242Y-113669402D02*
X86312968Y-113716840D01*
X86312968Y-113716840D02*
X86236010Y-113864675D01*
X86236010Y-113864675D02*
X86236718Y-113935505D01*
X86236718Y-113935505D02*
X86252817Y-113976768D01*
X86252817Y-113976768D02*
X86300407Y-114029726D01*
X86300407Y-114029726D02*
X86363389Y-114053118D01*
X86363389Y-114053118D02*
X86473254Y-114058638D01*
X86473254Y-114058638D02*
X87035845Y-113844182D01*
X87035845Y-113844182D02*
X86835754Y-114228554D01*
X85974352Y-114367315D02*
X85943569Y-114426449D01*
X85943569Y-114426449D02*
X85944277Y-114497279D01*
X85944277Y-114497279D02*
X85960376Y-114538541D01*
X85960376Y-114538541D02*
X86007966Y-114591500D01*
X86007966Y-114591500D02*
X86118539Y-114667850D01*
X86118539Y-114667850D02*
X86275993Y-114726329D01*
X86275993Y-114726329D02*
X86417349Y-114743545D01*
X86417349Y-114743545D02*
X86495723Y-114737369D01*
X86495723Y-114737369D02*
X86542605Y-114719498D01*
X86542605Y-114719498D02*
X86604879Y-114672059D01*
X86604879Y-114672059D02*
X86635663Y-114612925D01*
X86635663Y-114612925D02*
X86634955Y-114542096D01*
X86634955Y-114542096D02*
X86618856Y-114500833D01*
X86618856Y-114500833D02*
X86571265Y-114447874D01*
X86571265Y-114447874D02*
X86460693Y-114371524D01*
X86460693Y-114371524D02*
X86303238Y-114313046D01*
X86303238Y-114313046D02*
X86161882Y-114295830D01*
X86161882Y-114295830D02*
X86083509Y-114302005D01*
X86083509Y-114302005D02*
X86036626Y-114319876D01*
X86036626Y-114319876D02*
X85974352Y-114367315D01*
X86220089Y-115411235D02*
X86404788Y-115056431D01*
X86312438Y-115233833D02*
X85651128Y-114988223D01*
X85651128Y-114988223D02*
X85776384Y-114964176D01*
X85776384Y-114964176D02*
X85870149Y-114928433D01*
X85870149Y-114928433D02*
X85932423Y-114880995D01*
X85912256Y-116002576D02*
X86096956Y-115647772D01*
X86004606Y-115825174D02*
X85343295Y-115579564D01*
X85343295Y-115579564D02*
X85468552Y-115555517D01*
X85468552Y-115555517D02*
X85562317Y-115519774D01*
X85562317Y-115519774D02*
X85624591Y-115472336D01*
X86056443Y-116303112D02*
X86009560Y-116320983D01*
X86009560Y-116320983D02*
X85884304Y-116345030D01*
X85884304Y-116345030D02*
X85805930Y-116351205D01*
X85805930Y-116351205D02*
X85696066Y-116345685D01*
X85696066Y-116345685D02*
X85523219Y-116316773D01*
X85523219Y-116316773D02*
X85397255Y-116269991D01*
X85397255Y-116269991D02*
X85255192Y-116181945D01*
X85255192Y-116181945D02*
X85176111Y-116117291D01*
X85176111Y-116117291D02*
X85128520Y-116064332D01*
X85128520Y-116064332D02*
X85064831Y-115970111D01*
X85064831Y-115970111D02*
X85048731Y-115928848D01*
D11*
X181781872Y-46311922D02*
X181966742Y-47001869D01*
X181966742Y-47001869D02*
X182049713Y-47127534D01*
X182049713Y-47127534D02*
X182166355Y-47194877D01*
X182166355Y-47194877D02*
X182316670Y-47203900D01*
X182316670Y-47203900D02*
X182408662Y-47179250D01*
X180861942Y-46558416D02*
X181321907Y-46435169D01*
X181321907Y-46435169D02*
X181491150Y-46882809D01*
X181491150Y-46882809D02*
X181432829Y-46849138D01*
X181432829Y-46849138D02*
X181328512Y-46827790D01*
X181328512Y-46827790D02*
X181098529Y-46889414D01*
X181098529Y-46889414D02*
X181018861Y-46960060D01*
X181018861Y-46960060D02*
X180985189Y-47018381D01*
X180985189Y-47018381D02*
X180963842Y-47122699D01*
X180963842Y-47122699D02*
X181025466Y-47352681D01*
X181025466Y-47352681D02*
X181096112Y-47432349D01*
X181096112Y-47432349D02*
X181154433Y-47466021D01*
X181154433Y-47466021D02*
X181258751Y-47487368D01*
X181258751Y-47487368D02*
X181488733Y-47425745D01*
X181488733Y-47425745D02*
X181568401Y-47355099D01*
X181568401Y-47355099D02*
X181602073Y-47296777D01*
X198444477Y-29325672D02*
X197754530Y-29510542D01*
X197754530Y-29510542D02*
X197628865Y-29593513D01*
X197628865Y-29593513D02*
X197561522Y-29710155D01*
X197561522Y-29710155D02*
X197552499Y-29860470D01*
X197552499Y-29860470D02*
X197577149Y-29952462D01*
X197888332Y-28538012D02*
X197244381Y-28710558D01*
X198317927Y-28669396D02*
X197689604Y-29084249D01*
X197689604Y-29084249D02*
X197529383Y-28486295D01*
X110843118Y-118336189D02*
X113530762Y-119735287D01*
D12*
X111112870Y-118251137D02*
X113286047Y-119382423D01*
D13*
X111384446Y-118054294D02*
X112215593Y-116457678D01*
D11*
X111937349Y-115692771D02*
X112114750Y-115785122D01*
D14*
X112072226Y-115650246D02*
X112372363Y-115073689D01*
D11*
X112283662Y-115027514D02*
X111937349Y-115692771D01*
X112897899Y-114388991D02*
X110843118Y-118336189D01*
D15*
X114002889Y-115471534D02*
X112968573Y-117458437D01*
D11*
X116377248Y-119075049D02*
X120634899Y-121291443D01*
D16*
X119869427Y-118863676D02*
X113926454Y-115769959D01*
D12*
X120572935Y-120977339D02*
X119442908Y-120332716D01*
D11*
X120634899Y-121291443D02*
X122297196Y-118098204D01*
X121078908Y-120395198D02*
X122117843Y-118399421D01*
D17*
X121576639Y-118399535D02*
X120422269Y-120617062D01*
D18*
X122071793Y-118206343D02*
X120963029Y-117629157D01*
D11*
X122297196Y-118098204D02*
X115023705Y-114311864D01*
X112283660Y-115027513D02*
G75*
G02*
X115023705Y-114311864I1727844J-1012186D01*
G01*
D17*
X113373837Y-119178440D02*
G75*
G02*
X116207143Y-118535546I1773651J-1251883D01*
G01*
D11*
X113543941Y-119717942D02*
G75*
G02*
X116377247Y-119075050I1773653J-1251897D01*
G01*
X248403764Y-55195096D02*
X248546872Y-55931318D01*
X248486983Y-54313013D02*
X249336083Y-58681253D01*
X248546872Y-55931318D02*
X248743197Y-55893156D01*
D14*
X248625953Y-55814074D02*
X248501927Y-55176016D01*
D11*
X249336083Y-58681253D02*
X252310414Y-58103103D01*
D12*
X249494247Y-58446765D02*
X251899233Y-57979283D01*
D13*
X249584248Y-58123657D02*
X249240792Y-56356729D01*
D15*
X250025656Y-54472346D02*
X250453067Y-56671192D01*
D11*
X254127088Y-55814415D02*
X258838900Y-54898532D01*
D16*
X256728516Y-53475061D02*
X250151613Y-54753478D01*
D17*
X257775659Y-52049053D02*
X258252680Y-54503120D01*
D18*
X258042904Y-51589620D02*
X256815872Y-51828132D01*
D11*
X258151986Y-51364673D02*
X250102642Y-52929307D01*
D12*
X258594872Y-54691288D02*
X257309216Y-54890256D01*
D11*
X258628458Y-53920722D02*
X258199139Y-51712059D01*
X258838900Y-54898532D02*
X258151986Y-51364673D01*
X248403765Y-55195097D02*
G75*
G02*
X250102642Y-52929307I1982328J283461D01*
G01*
D17*
X251840957Y-57764996D02*
G75*
G02*
X253658115Y-55498086I2167403J124380D01*
G01*
D11*
X252309931Y-58081324D02*
G75*
G02*
X254127088Y-55814416I2167406J124376D01*
G01*
X196377697Y-85160274D02*
X196571812Y-85884718D01*
X196399183Y-84274533D02*
X197550928Y-88572901D01*
X196571812Y-85884718D02*
X196764999Y-85832954D01*
D14*
X196642523Y-85762244D02*
X196474290Y-85134393D01*
D11*
X197550928Y-88572901D02*
X200477682Y-87788681D01*
D12*
X197692349Y-88327954D02*
X200058867Y-87693845D01*
D13*
X197759592Y-87999353D02*
X197293718Y-86260687D01*
D15*
X197945222Y-84326147D02*
X198524976Y-86489820D01*
D11*
X202130282Y-85378844D02*
X206766726Y-84136512D01*
D16*
X204562185Y-82863720D02*
X198090482Y-84597808D01*
D17*
X205507306Y-81368144D02*
X206154353Y-83782958D01*
D18*
X205741854Y-80891187D02*
X204534448Y-81214710D01*
D11*
X205834977Y-80659179D02*
X197914386Y-82781496D01*
X206488589Y-83175763D02*
X205906246Y-81002429D01*
D12*
X206508836Y-83946797D02*
X205240192Y-84234963D01*
D11*
X206766726Y-84136512D02*
X205834977Y-80659179D01*
X196377698Y-85160275D02*
G75*
G02*
X197914386Y-82781496I1957724J421052D01*
G01*
D17*
X199985786Y-87484145D02*
G75*
G02*
X201640386Y-85096000I2153453J275262D01*
G01*
D11*
X200475683Y-87766989D02*
G75*
G02*
X202130282Y-85378845I2153451J275263D01*
G01*
X169844474Y-55973601D02*
X170038589Y-56698045D01*
X169865960Y-55087860D02*
X171017705Y-59386228D01*
X170038589Y-56698045D02*
X170231776Y-56646281D01*
D14*
X170109300Y-56575571D02*
X169941067Y-55947720D01*
D11*
X171017705Y-59386228D02*
X173944459Y-58602008D01*
D12*
X171159126Y-59141281D02*
X173525644Y-58507172D01*
D13*
X171226369Y-58812680D02*
X170760495Y-57074014D01*
D15*
X171411999Y-55139474D02*
X171991753Y-57303147D01*
D11*
X175597059Y-56192171D02*
X180233503Y-54949839D01*
D16*
X178028962Y-53677047D02*
X171557259Y-55411135D01*
D17*
X178974083Y-52181471D02*
X179621130Y-54596285D01*
D18*
X179208631Y-51704514D02*
X178001225Y-52028037D01*
D11*
X179301754Y-51472506D02*
X171381163Y-53594823D01*
X179955366Y-53989090D02*
X179373023Y-51815756D01*
D12*
X179975613Y-54760124D02*
X178706969Y-55048290D01*
D11*
X180233503Y-54949839D02*
X179301754Y-51472506D01*
X169844475Y-55973602D02*
G75*
G02*
X171381163Y-53594823I1957724J421052D01*
G01*
D17*
X173452563Y-58297472D02*
G75*
G02*
X175107163Y-55909327I2153453J275262D01*
G01*
D11*
X173942460Y-58580316D02*
G75*
G02*
X175597059Y-56192172I2153451J275263D01*
G01*
X113655620Y-74931836D02*
X116582373Y-75716058D01*
D12*
X113900567Y-74790416D02*
X116267086Y-75424521D01*
D13*
X114123102Y-74539460D02*
X114588976Y-72800795D01*
D11*
X114151772Y-72114243D02*
X114344959Y-72166008D01*
D14*
X114274246Y-72043533D02*
X114442478Y-71415682D01*
D11*
X114345885Y-71389799D02*
X114151772Y-72114243D01*
X114807363Y-70633468D02*
X113655620Y-74931836D01*
D15*
X116120465Y-71451186D02*
X115540710Y-73614859D01*
D11*
X119218485Y-74455378D02*
X123854929Y-75697709D01*
D16*
X122582137Y-73493170D02*
X116110435Y-71759081D01*
D12*
X123726447Y-75404465D02*
X122483686Y-75019703D01*
D11*
X123854929Y-75697709D02*
X124786677Y-72220376D01*
X124094430Y-74726608D02*
X124676773Y-72553274D01*
D17*
X124148423Y-72670522D02*
X123501376Y-75085336D01*
D18*
X124590027Y-72374739D02*
X123382620Y-72051215D01*
D11*
X124786677Y-72220376D02*
X116866086Y-70098061D01*
X114345886Y-71389800D02*
G75*
G02*
X116866086Y-70098061I1905966J-614223D01*
G01*
D17*
X116308646Y-75206375D02*
G75*
G02*
X118935645Y-73965480I2002578J-838345D01*
G01*
D11*
X116591488Y-75696273D02*
G75*
G02*
X119218485Y-74455378I2002577J-838344D01*
G01*
X77746863Y-60029009D02*
X80705036Y-60684823D01*
D12*
X77985409Y-59877040D02*
X80377333Y-60407315D01*
D11*
X78119641Y-57192458D02*
X78314901Y-57235745D01*
D13*
X78196784Y-59616616D02*
X78586374Y-57859283D01*
D14*
X78238915Y-57116472D02*
X78379598Y-56481880D01*
D11*
X78281970Y-56460234D02*
X78119641Y-57192458D01*
X78710017Y-55684493D02*
X77746863Y-60029009D01*
D15*
X80057537Y-56444158D02*
X79572712Y-58631060D01*
D11*
X83283649Y-59310357D02*
X87969872Y-60349267D01*
D16*
X86602131Y-58202343D02*
X80060947Y-56752197D01*
D12*
X87828720Y-60061905D02*
X86570358Y-59731718D01*
D11*
X87969872Y-60349267D02*
X88749053Y-56834600D01*
D17*
X88131042Y-57312158D02*
X87589943Y-59752898D01*
D11*
X88166785Y-59368641D02*
X88653775Y-57171976D01*
D18*
X88559323Y-56997393D02*
X87338951Y-56726844D01*
D11*
X88749053Y-56834600D02*
X80743427Y-55059796D01*
X78281969Y-56460236D02*
G75*
G02*
X80743427Y-55059796I1930947J-530505D01*
G01*
D17*
X80409337Y-60187563D02*
G75*
G02*
X82979708Y-58833263I2037241J-750201D01*
G01*
D11*
X80713280Y-60664657D02*
G75*
G02*
X83283649Y-59310357I2037239J-750198D01*
G01*
X109153956Y-93387921D02*
X112080709Y-94172143D01*
D12*
X109398903Y-93246501D02*
X111765422Y-93880606D01*
D13*
X109621438Y-92995545D02*
X110087312Y-91256880D01*
D11*
X109650108Y-90570328D02*
X109843295Y-90622093D01*
D14*
X109772582Y-90499618D02*
X109940814Y-89871767D01*
D11*
X109844221Y-89845884D02*
X109650108Y-90570328D01*
X110305699Y-89089553D02*
X109153956Y-93387921D01*
D15*
X111618801Y-89907271D02*
X111039046Y-92070944D01*
D11*
X114716821Y-92911463D02*
X119353265Y-94153794D01*
D16*
X118080473Y-91949255D02*
X111608771Y-90215166D01*
D12*
X119224783Y-93860550D02*
X117982022Y-93475788D01*
D11*
X119353265Y-94153794D02*
X120285013Y-90676461D01*
X119592766Y-93182693D02*
X120175109Y-91009359D01*
D17*
X119646759Y-91126607D02*
X118999712Y-93541421D01*
D18*
X120088363Y-90830824D02*
X118880956Y-90507300D01*
D11*
X120285013Y-90676461D02*
X112364422Y-88554146D01*
X109844222Y-89845885D02*
G75*
G02*
X112364422Y-88554146I1905966J-614223D01*
G01*
D17*
X111806982Y-93662460D02*
G75*
G02*
X114433981Y-92421565I2002578J-838345D01*
G01*
D11*
X112089824Y-94152358D02*
G75*
G02*
X114716821Y-92911463I2002577J-838344D01*
G01*
X187420169Y-48157799D02*
X187614284Y-48882243D01*
X187441655Y-47272058D02*
X188593400Y-51570426D01*
X187614284Y-48882243D02*
X187807471Y-48830479D01*
D14*
X187684995Y-48759769D02*
X187516762Y-48131918D01*
D11*
X188593400Y-51570426D02*
X191520154Y-50786206D01*
D12*
X188734821Y-51325479D02*
X191101339Y-50691370D01*
D13*
X188802064Y-50996878D02*
X188336190Y-49258212D01*
D15*
X188987694Y-47323672D02*
X189567448Y-49487345D01*
D11*
X193172754Y-48376369D02*
X197809198Y-47134037D01*
D16*
X195604657Y-45861245D02*
X189132954Y-47595333D01*
D17*
X196549778Y-44365669D02*
X197196825Y-46780483D01*
D18*
X196784326Y-43888712D02*
X195576920Y-44212235D01*
D11*
X196877449Y-43656704D02*
X188956858Y-45779021D01*
X197531061Y-46173288D02*
X196948718Y-43999954D01*
D12*
X197551308Y-46944322D02*
X196282664Y-47232488D01*
D11*
X197809198Y-47134037D02*
X196877449Y-43656704D01*
X187420170Y-48157800D02*
G75*
G02*
X188956858Y-45779021I1957724J421052D01*
G01*
D17*
X191028258Y-50481670D02*
G75*
G02*
X192682858Y-48093525I2153453J275262D01*
G01*
D11*
X191518155Y-50764514D02*
G75*
G02*
X193172754Y-48376370I2153451J275263D01*
G01*
X91534111Y-85648246D02*
X94460864Y-86432468D01*
D12*
X91779058Y-85506826D02*
X94145577Y-86140931D01*
D13*
X92001593Y-85255870D02*
X92467467Y-83517205D01*
D11*
X92030263Y-82830653D02*
X92223450Y-82882418D01*
D14*
X92152737Y-82759943D02*
X92320969Y-82132092D01*
D11*
X92224376Y-82106209D02*
X92030263Y-82830653D01*
X92685854Y-81349878D02*
X91534111Y-85648246D01*
D15*
X93998956Y-82167596D02*
X93419201Y-84331269D01*
D11*
X97096976Y-85171788D02*
X101733420Y-86414119D01*
D16*
X100460628Y-84209580D02*
X93988926Y-82475491D01*
D12*
X101604938Y-86120875D02*
X100362177Y-85736113D01*
D11*
X101733420Y-86414119D02*
X102665168Y-82936786D01*
X101972921Y-85443018D02*
X102555264Y-83269684D01*
D17*
X102026914Y-83386932D02*
X101379867Y-85801746D01*
D18*
X102468518Y-83091149D02*
X101261111Y-82767625D01*
D11*
X102665168Y-82936786D02*
X94744577Y-80814471D01*
X92224377Y-82106210D02*
G75*
G02*
X94744577Y-80814471I1905966J-614223D01*
G01*
D17*
X94187137Y-85922785D02*
G75*
G02*
X96814136Y-84681890I2002578J-838345D01*
G01*
D11*
X94469979Y-86412683D02*
G75*
G02*
X97096976Y-85171788I2002577J-838344D01*
G01*
X225132407Y-38598638D02*
X225294738Y-39330861D01*
X225192507Y-37714677D02*
X226155664Y-42059193D01*
X225294738Y-39330861D02*
X225489998Y-39287572D01*
D14*
X225370723Y-39211587D02*
X225230036Y-38576996D01*
D11*
X226155664Y-42059193D02*
X229113839Y-41403383D01*
D12*
X226307636Y-41820648D02*
X228699560Y-41290369D01*
D13*
X226389147Y-41495292D02*
X225999555Y-39737960D01*
D15*
X226734824Y-37833681D02*
X227219648Y-40020583D01*
D11*
X230869982Y-39067925D02*
X235556204Y-38029014D01*
D16*
X233409281Y-36661272D02*
X226868097Y-38111417D01*
D17*
X234418736Y-35208345D02*
X234959836Y-37649085D01*
D18*
X234673865Y-34742072D02*
X233453494Y-35012623D01*
D11*
X234777020Y-34514348D02*
X226771394Y-36289153D01*
D12*
X235306833Y-37828229D02*
X234026827Y-38060785D01*
D11*
X235320239Y-37057048D02*
X234833250Y-34860380D01*
X235556204Y-38029014D02*
X234777020Y-34514348D01*
X225132407Y-38598640D02*
G75*
G02*
X226771394Y-36289152I1974234J335253D01*
G01*
D17*
X228635694Y-41077680D02*
G75*
G02*
X230392889Y-38763982I2163413J181064D01*
G01*
D11*
X229112789Y-41381624D02*
G75*
G02*
X230869982Y-39067925I2163410J181068D01*
G01*
X177078878Y-119606751D02*
X179133659Y-123553949D01*
X177249613Y-120476146D02*
X177595923Y-121141405D01*
X177595923Y-121141405D02*
X177773325Y-121049057D01*
D14*
X177638450Y-121006529D02*
X177338314Y-120429971D01*
D15*
X178599441Y-119322517D02*
X179633758Y-121309420D01*
D11*
X179133659Y-123553949D02*
X181821302Y-122154850D01*
D13*
X179213237Y-122948831D02*
X178382092Y-121352213D01*
D12*
X179218712Y-123284197D02*
X181391890Y-122152913D01*
D11*
X182913144Y-119444448D02*
X187170796Y-117228055D01*
D16*
X184743029Y-116462583D02*
X178800055Y-119556299D01*
D17*
X185342044Y-114797897D02*
X186496416Y-117015423D01*
D18*
X185467799Y-114281480D02*
X184359035Y-114858666D01*
D11*
X185508502Y-114034815D02*
X178235011Y-117821154D01*
X186691308Y-116350279D02*
X185652372Y-114354503D01*
D12*
X186877956Y-117098651D02*
X185701755Y-117654574D01*
D11*
X187170796Y-117228055D02*
X185508502Y-114034815D01*
X177249611Y-120476147D02*
G75*
G02*
X178235011Y-117821154I1820187J834800D01*
G01*
D17*
X181275151Y-121964000D02*
G75*
G02*
X182373640Y-119274342I2042812J734838D01*
G01*
D11*
X181814653Y-122134105D02*
G75*
G02*
X182913144Y-119444448I2042817J734834D01*
G01*
X210197737Y-59014222D02*
X210360068Y-59746445D01*
X210257837Y-58130261D02*
X211220994Y-62474777D01*
X210360068Y-59746445D02*
X210555328Y-59703156D01*
D14*
X210436053Y-59627171D02*
X210295366Y-58992580D01*
D11*
X211220994Y-62474777D02*
X214179169Y-61818967D01*
D12*
X211372966Y-62236232D02*
X213764890Y-61705953D01*
D13*
X211454477Y-61910876D02*
X211064885Y-60153544D01*
D15*
X211800154Y-58249265D02*
X212284978Y-60436167D01*
D11*
X215935312Y-59483509D02*
X220621534Y-58444598D01*
D16*
X218474611Y-57076856D02*
X211933427Y-58527001D01*
D17*
X219484066Y-55623929D02*
X220025166Y-58064669D01*
D18*
X219739195Y-55157656D02*
X218518824Y-55428207D01*
D11*
X219842350Y-54929932D02*
X211836724Y-56704737D01*
D12*
X220372163Y-58243813D02*
X219092157Y-58476369D01*
D11*
X220385569Y-57472632D02*
X219898580Y-55275964D01*
X220621534Y-58444598D02*
X219842350Y-54929932D01*
X210197737Y-59014224D02*
G75*
G02*
X211836724Y-56704736I1974234J335253D01*
G01*
D17*
X213701024Y-61493264D02*
G75*
G02*
X215458219Y-59179566I2163413J181064D01*
G01*
D11*
X214178119Y-61797208D02*
G75*
G02*
X215935312Y-59483509I2163410J181068D01*
G01*
X178757852Y-92899949D02*
X178951967Y-93624393D01*
X178779338Y-92014208D02*
X179931083Y-96312576D01*
X178951967Y-93624393D02*
X179145154Y-93572629D01*
D14*
X179022678Y-93501919D02*
X178854445Y-92874068D01*
D11*
X179931083Y-96312576D02*
X182857837Y-95528356D01*
D12*
X180072504Y-96067629D02*
X182439022Y-95433520D01*
D13*
X180139747Y-95739028D02*
X179673873Y-94000362D01*
D15*
X180325377Y-92065822D02*
X180905131Y-94229495D01*
D11*
X184510437Y-93118519D02*
X189146881Y-91876187D01*
D16*
X186942340Y-90603395D02*
X180470637Y-92337483D01*
D17*
X187887461Y-89107819D02*
X188534508Y-91522633D01*
D18*
X188122009Y-88630862D02*
X186914603Y-88954385D01*
D11*
X188215132Y-88398854D02*
X180294541Y-90521171D01*
X188868744Y-90915438D02*
X188286401Y-88742104D01*
D12*
X188888991Y-91686472D02*
X187620347Y-91974638D01*
D11*
X189146881Y-91876187D02*
X188215132Y-88398854D01*
X178757853Y-92899950D02*
G75*
G02*
X180294541Y-90521171I1957724J421052D01*
G01*
D17*
X182365941Y-95223820D02*
G75*
G02*
X184020541Y-92835675I2153453J275262D01*
G01*
D11*
X182855838Y-95506664D02*
G75*
G02*
X184510437Y-93118520I2153451J275263D01*
G01*
X81859207Y-41479425D02*
X84817380Y-42135239D01*
D12*
X82097753Y-41327456D02*
X84489677Y-41857731D01*
D11*
X82231985Y-38642874D02*
X82427245Y-38686161D01*
D13*
X82309128Y-41067032D02*
X82698718Y-39309699D01*
D14*
X82351259Y-38566888D02*
X82491942Y-37932296D01*
D11*
X82394314Y-37910650D02*
X82231985Y-38642874D01*
X82822361Y-37134909D02*
X81859207Y-41479425D01*
D15*
X84169881Y-37894574D02*
X83685056Y-40081476D01*
D11*
X87395993Y-40760773D02*
X92082216Y-41799683D01*
D16*
X90714475Y-39652759D02*
X84173291Y-38202613D01*
D12*
X91941064Y-41512321D02*
X90682702Y-41182134D01*
D11*
X92082216Y-41799683D02*
X92861397Y-38285016D01*
D17*
X92243386Y-38762574D02*
X91702287Y-41203314D01*
D11*
X92279129Y-40819057D02*
X92766119Y-38622392D01*
D18*
X92671667Y-38447809D02*
X91451295Y-38177260D01*
D11*
X92861397Y-38285016D02*
X84855771Y-36510212D01*
X82394313Y-37910652D02*
G75*
G02*
X84855771Y-36510212I1930947J-530505D01*
G01*
D17*
X84521681Y-41637979D02*
G75*
G02*
X87092052Y-40283679I2037241J-750201D01*
G01*
D11*
X84825624Y-42115073D02*
G75*
G02*
X87395993Y-40760773I2037239J-750198D01*
G01*
X233356939Y-75697105D02*
X233519270Y-76429328D01*
X233417039Y-74813144D02*
X234380196Y-79157660D01*
X233519270Y-76429328D02*
X233714530Y-76386039D01*
D14*
X233595255Y-76310054D02*
X233454568Y-75675463D01*
D11*
X234380196Y-79157660D02*
X237338371Y-78501850D01*
D12*
X234532168Y-78919115D02*
X236924092Y-78388836D01*
D13*
X234613679Y-78593759D02*
X234224087Y-76836427D01*
D15*
X234959356Y-74932148D02*
X235444180Y-77119050D01*
D11*
X239094514Y-76166392D02*
X243780736Y-75127481D01*
D16*
X241633813Y-73759739D02*
X235092629Y-75209884D01*
D17*
X242643268Y-72306812D02*
X243184368Y-74747552D01*
D18*
X242898397Y-71840539D02*
X241678026Y-72111090D01*
D11*
X243001552Y-71612815D02*
X234995926Y-73387620D01*
D12*
X243531365Y-74926696D02*
X242251359Y-75159252D01*
D11*
X243544771Y-74155515D02*
X243057782Y-71958847D01*
X243780736Y-75127481D02*
X243001552Y-71612815D01*
X233356939Y-75697107D02*
G75*
G02*
X234995926Y-73387619I1974234J335253D01*
G01*
D17*
X236860226Y-78176147D02*
G75*
G02*
X238617421Y-75862449I2163413J181064D01*
G01*
D11*
X237337321Y-78480091D02*
G75*
G02*
X239094514Y-76166392I2163410J181068D01*
G01*
X39571529Y-56525111D02*
X42545859Y-57103264D01*
D12*
X39806017Y-56366947D02*
X42211003Y-56834429D01*
D11*
X39869929Y-53679772D02*
X40066254Y-53717936D01*
D14*
X39987172Y-53600690D02*
X40111198Y-52962632D01*
D13*
X40010503Y-56101081D02*
X40353959Y-54334153D01*
D11*
X40013035Y-52943550D02*
X39869929Y-53679772D01*
X40420628Y-52156871D02*
X39571529Y-56525111D01*
D15*
X41787574Y-52880999D02*
X41360160Y-55079846D01*
D11*
X45087608Y-55661767D02*
X49799420Y-56577651D01*
D16*
X48375947Y-54467268D02*
X41799045Y-53188845D01*
D12*
X49650796Y-56294083D02*
X48384221Y-55996948D01*
D11*
X49799420Y-56577651D02*
X50486331Y-53043792D01*
D17*
X49881033Y-53537363D02*
X49404010Y-55991430D01*
D11*
X49970595Y-55592208D02*
X50399917Y-53383546D01*
D18*
X50300925Y-53211496D02*
X49073893Y-52972986D01*
D11*
X50486331Y-53043792D02*
X42436987Y-51479158D01*
X40013036Y-52943551D02*
G75*
G02*
X42436987Y-51479158I1944172J-479779D01*
G01*
D17*
X42237243Y-56613915D02*
G75*
G02*
X44771282Y-55192793I2056170J-696594D01*
G01*
D11*
X42553570Y-57082890D02*
G75*
G02*
X45087608Y-55661766I2056181J-696611D01*
G01*
X244158843Y-36671920D02*
X244321174Y-37404143D01*
X244218943Y-35787960D02*
X245182100Y-40132476D01*
X244321174Y-37404143D02*
X244516433Y-37360854D01*
D14*
X244397159Y-37284869D02*
X244256472Y-36650276D01*
D11*
X245182100Y-40132476D02*
X248140277Y-39476666D01*
D12*
X245334072Y-39893929D02*
X247725996Y-39363651D01*
D13*
X245415583Y-39568575D02*
X245025991Y-37811242D01*
D15*
X245761259Y-35906961D02*
X246246084Y-38093864D01*
D11*
X249896418Y-37141207D02*
X254582640Y-36102297D01*
D16*
X252435718Y-34734557D02*
X245894533Y-36184699D01*
D17*
X253445172Y-33281627D02*
X253986270Y-35722366D01*
D18*
X253700301Y-32815355D02*
X252479930Y-33085905D01*
D11*
X253803456Y-32587630D02*
X245797828Y-34362435D01*
D12*
X254333270Y-35901511D02*
X253053264Y-36134067D01*
D11*
X254346674Y-35130331D02*
X253859686Y-32933662D01*
X254582640Y-36102297D02*
X253803456Y-32587630D01*
X244158845Y-36671921D02*
G75*
G02*
X245797828Y-34362435I1974228J335256D01*
G01*
D17*
X247662130Y-39150963D02*
G75*
G02*
X249419325Y-36837264I2163402J181073D01*
G01*
D11*
X248139225Y-39454906D02*
G75*
G02*
X249896418Y-37141207I2163410J181068D01*
G01*
X118067334Y-56461573D02*
X120994087Y-57245795D01*
D12*
X118312281Y-56320153D02*
X120678800Y-56954258D01*
D13*
X118534816Y-56069197D02*
X119000690Y-54330532D01*
D11*
X118563486Y-53643980D02*
X118756673Y-53695745D01*
D14*
X118685960Y-53573270D02*
X118854192Y-52945419D01*
D11*
X118757599Y-52919536D02*
X118563486Y-53643980D01*
X119219077Y-52163205D02*
X118067334Y-56461573D01*
D15*
X120532179Y-52980923D02*
X119952424Y-55144596D01*
D11*
X123630199Y-55985115D02*
X128266643Y-57227446D01*
D16*
X126993851Y-55022907D02*
X120522149Y-53288818D01*
D12*
X128138161Y-56934202D02*
X126895400Y-56549440D01*
D11*
X128266643Y-57227446D02*
X129198391Y-53750113D01*
X128506144Y-56256345D02*
X129088487Y-54083011D01*
D17*
X128560137Y-54200259D02*
X127913090Y-56615073D01*
D18*
X129001741Y-53904476D02*
X127794334Y-53580952D01*
D11*
X129198391Y-53750113D02*
X121277800Y-51627798D01*
X118757600Y-52919537D02*
G75*
G02*
X121277800Y-51627798I1905966J-614223D01*
G01*
D17*
X120720360Y-56736112D02*
G75*
G02*
X123347359Y-55495217I2002578J-838345D01*
G01*
D11*
X121003202Y-57226010D02*
G75*
G02*
X123630199Y-55985115I2002577J-838344D01*
G01*
X35564969Y-74984373D02*
X38539299Y-75562526D01*
D12*
X35799457Y-74826209D02*
X38204443Y-75293691D01*
D11*
X35863369Y-72139034D02*
X36059694Y-72177198D01*
D14*
X35980612Y-72059952D02*
X36104638Y-71421894D01*
D13*
X36003943Y-74560343D02*
X36347399Y-72793415D01*
D11*
X36006475Y-71402812D02*
X35863369Y-72139034D01*
X36414068Y-70616133D02*
X35564969Y-74984373D01*
D15*
X37781014Y-71340261D02*
X37353600Y-73539108D01*
D11*
X41081048Y-74121029D02*
X45792860Y-75036913D01*
D16*
X44369387Y-72926530D02*
X37792485Y-71648107D01*
D12*
X45644236Y-74753345D02*
X44377661Y-74456210D01*
D11*
X45792860Y-75036913D02*
X46479771Y-71503054D01*
D17*
X45874473Y-71996625D02*
X45397450Y-74450692D01*
D11*
X45964035Y-74051470D02*
X46393357Y-71842808D01*
D18*
X46294365Y-71670758D02*
X45067333Y-71432248D01*
D11*
X46479771Y-71503054D02*
X38430427Y-69938420D01*
X36006476Y-71402813D02*
G75*
G02*
X38430427Y-69938420I1944172J-479779D01*
G01*
D17*
X38230683Y-75073177D02*
G75*
G02*
X40764722Y-73652055I2056170J-696594D01*
G01*
D11*
X38547010Y-75542152D02*
G75*
G02*
X41081048Y-74121028I2056181J-696611D01*
G01*
X214310133Y-77564042D02*
X214472464Y-78296265D01*
X214370233Y-76680081D02*
X215333390Y-81024597D01*
X214472464Y-78296265D02*
X214667724Y-78252976D01*
D14*
X214548449Y-78176991D02*
X214407762Y-77542400D01*
D11*
X215333390Y-81024597D02*
X218291565Y-80368787D01*
D12*
X215485362Y-80786052D02*
X217877286Y-80255773D01*
D13*
X215566873Y-80460696D02*
X215177281Y-78703364D01*
D15*
X215912550Y-76799085D02*
X216397374Y-78985987D01*
D11*
X220047708Y-78033329D02*
X224733930Y-76994418D01*
D16*
X222587007Y-75626676D02*
X216045823Y-77076821D01*
D17*
X223596462Y-74173749D02*
X224137562Y-76614489D01*
D18*
X223851591Y-73707476D02*
X222631220Y-73978027D01*
D11*
X223954746Y-73479752D02*
X215949120Y-75254557D01*
D12*
X224484559Y-76793633D02*
X223204553Y-77026189D01*
D11*
X224497965Y-76022452D02*
X224010976Y-73825784D01*
X224733930Y-76994418D02*
X223954746Y-73479752D01*
X214310133Y-77564044D02*
G75*
G02*
X215949120Y-75254556I1974234J335253D01*
G01*
D17*
X217813420Y-80043084D02*
G75*
G02*
X219570615Y-77729386I2163413J181064D01*
G01*
D11*
X218290515Y-80347028D02*
G75*
G02*
X220047708Y-78033329I2163410J181068D01*
G01*
X100491639Y-48645771D02*
X103418392Y-49429993D01*
D12*
X100736586Y-48504351D02*
X103103105Y-49138456D01*
D13*
X100959121Y-48253395D02*
X101424995Y-46514730D01*
D11*
X100987791Y-45828178D02*
X101180978Y-45879943D01*
D14*
X101110265Y-45757468D02*
X101278497Y-45129617D01*
D11*
X101181904Y-45103734D02*
X100987791Y-45828178D01*
X101643382Y-44347403D02*
X100491639Y-48645771D01*
D15*
X102956484Y-45165121D02*
X102376729Y-47328794D01*
D11*
X106054504Y-48169313D02*
X110690948Y-49411644D01*
D16*
X109418156Y-47207105D02*
X102946454Y-45473016D01*
D12*
X110562466Y-49118400D02*
X109319705Y-48733638D01*
D11*
X110690948Y-49411644D02*
X111622696Y-45934311D01*
X110930449Y-48440543D02*
X111512792Y-46267209D01*
D17*
X110984442Y-46384457D02*
X110337395Y-48799271D01*
D18*
X111426046Y-46088674D02*
X110218639Y-45765150D01*
D11*
X111622696Y-45934311D02*
X103702105Y-43811996D01*
X101181905Y-45103735D02*
G75*
G02*
X103702105Y-43811996I1905966J-614223D01*
G01*
D17*
X103144665Y-48920310D02*
G75*
G02*
X105771664Y-47679415I2002578J-838345D01*
G01*
D11*
X103427507Y-49410208D02*
G75*
G02*
X106054504Y-48169313I2002577J-838344D01*
G01*
X206085393Y-40464638D02*
X206247724Y-41196861D01*
X206145493Y-39580677D02*
X207108650Y-43925193D01*
X206247724Y-41196861D02*
X206442984Y-41153572D01*
D14*
X206323709Y-41077587D02*
X206183022Y-40442996D01*
D11*
X207108650Y-43925193D02*
X210066825Y-43269383D01*
D12*
X207260622Y-43686648D02*
X209652546Y-43156369D01*
D13*
X207342133Y-43361292D02*
X206952541Y-41603960D01*
D15*
X207687810Y-39699681D02*
X208172634Y-41886583D01*
D11*
X211822968Y-40933925D02*
X216509190Y-39895014D01*
D16*
X214362267Y-38527272D02*
X207821083Y-39977417D01*
D17*
X215371722Y-37074345D02*
X215912822Y-39515085D01*
D18*
X215626851Y-36608072D02*
X214406480Y-36878623D01*
D11*
X215730006Y-36380348D02*
X207724380Y-38155153D01*
D12*
X216259819Y-39694229D02*
X214979813Y-39926785D01*
D11*
X216273225Y-38923048D02*
X215786236Y-36726380D01*
X216509190Y-39895014D02*
X215730006Y-36380348D01*
X206085393Y-40464640D02*
G75*
G02*
X207724380Y-38155152I1974234J335253D01*
G01*
D17*
X209588680Y-42943680D02*
G75*
G02*
X211345875Y-40629982I2163413J181064D01*
G01*
D11*
X210065775Y-43247624D02*
G75*
G02*
X211822968Y-40933925I2163410J181068D01*
G01*
X229244672Y-57147873D02*
X229407003Y-57880096D01*
X229304772Y-56263912D02*
X230267929Y-60608428D01*
X229407003Y-57880096D02*
X229602263Y-57836807D01*
D14*
X229482988Y-57760822D02*
X229342301Y-57126231D01*
D11*
X230267929Y-60608428D02*
X233226104Y-59952618D01*
D12*
X230419901Y-60369883D02*
X232811825Y-59839604D01*
D13*
X230501412Y-60044527D02*
X230111820Y-58287195D01*
D15*
X230847089Y-56382916D02*
X231331913Y-58569818D01*
D11*
X234982247Y-57617160D02*
X239668469Y-56578249D01*
D16*
X237521546Y-55210507D02*
X230980362Y-56660652D01*
D17*
X238531001Y-53757580D02*
X239072101Y-56198320D01*
D18*
X238786130Y-53291307D02*
X237565759Y-53561858D01*
D11*
X238889285Y-53063583D02*
X230883659Y-54838388D01*
D12*
X239419098Y-56377464D02*
X238139092Y-56610020D01*
D11*
X239432504Y-55606283D02*
X238945515Y-53409615D01*
X239668469Y-56578249D02*
X238889285Y-53063583D01*
X229244672Y-57147875D02*
G75*
G02*
X230883659Y-54838387I1974234J335253D01*
G01*
D17*
X232747959Y-59626915D02*
G75*
G02*
X234505154Y-57313217I2163413J181064D01*
G01*
D11*
X233225054Y-59930859D02*
G75*
G02*
X234982247Y-57617160I2163410J181068D01*
G01*
X193855831Y-109533964D02*
X195910612Y-113481162D01*
X194026564Y-110403360D02*
X194372876Y-111068618D01*
X194372876Y-111068618D02*
X194550278Y-110976270D01*
D14*
X194415403Y-110933742D02*
X194115266Y-110357185D01*
D15*
X195376394Y-109249730D02*
X196410711Y-111236633D01*
D11*
X195910612Y-113481162D02*
X198598255Y-112082063D01*
D13*
X195990190Y-112876044D02*
X195159045Y-111279424D01*
D12*
X195995665Y-113211410D02*
X198168843Y-112080126D01*
D11*
X199690097Y-109371661D02*
X203947749Y-107155268D01*
D16*
X201519982Y-106389796D02*
X195577008Y-109483512D01*
D17*
X202118997Y-104725110D02*
X203273369Y-106942636D01*
D18*
X202244752Y-104208693D02*
X201135988Y-104785878D01*
D11*
X202285454Y-103962029D02*
X195011964Y-107748368D01*
X203468260Y-106277491D02*
X202429325Y-104281716D01*
D12*
X203654909Y-107025864D02*
X202478708Y-107581787D01*
D11*
X203947749Y-107155268D02*
X202285454Y-103962029D01*
X194026564Y-110403360D02*
G75*
G02*
X195011964Y-107748368I1820196J834796D01*
G01*
D17*
X198052103Y-111891213D02*
G75*
G02*
X199150593Y-109201555I2042826J734832D01*
G01*
D11*
X198591607Y-112061319D02*
G75*
G02*
X199690096Y-109371660I2042828J734832D01*
G01*
X192075667Y-66638860D02*
X192269782Y-67363304D01*
X192097153Y-65753119D02*
X193248898Y-70051487D01*
X192269782Y-67363304D02*
X192462969Y-67311540D01*
D14*
X192340493Y-67240830D02*
X192172260Y-66612979D01*
D11*
X193248898Y-70051487D02*
X196175652Y-69267267D01*
D12*
X193390319Y-69806540D02*
X195756837Y-69172431D01*
D13*
X193457562Y-69477939D02*
X192991688Y-67739273D01*
D15*
X193643192Y-65804733D02*
X194222946Y-67968406D01*
D11*
X197828252Y-66857430D02*
X202464696Y-65615098D01*
D16*
X200260155Y-64342306D02*
X193788452Y-66076394D01*
D17*
X201205276Y-62846730D02*
X201852323Y-65261544D01*
D18*
X201439824Y-62369773D02*
X200232418Y-62693296D01*
D11*
X201532947Y-62137765D02*
X193612356Y-64260082D01*
X202186559Y-64654349D02*
X201604216Y-62481015D01*
D12*
X202206806Y-65425383D02*
X200938162Y-65713549D01*
D11*
X202464696Y-65615098D02*
X201532947Y-62137765D01*
X192075668Y-66638861D02*
G75*
G02*
X193612356Y-64260082I1957724J421052D01*
G01*
D17*
X195683756Y-68962731D02*
G75*
G02*
X197338356Y-66574586I2153453J275262D01*
G01*
D11*
X196173653Y-69245575D02*
G75*
G02*
X197828252Y-66857431I2153451J275263D01*
G01*
X62812193Y-39613425D02*
X65770366Y-40269239D01*
D12*
X63050739Y-39461456D02*
X65442663Y-39991731D01*
D11*
X63184971Y-36776874D02*
X63380231Y-36820161D01*
D13*
X63262114Y-39201032D02*
X63651704Y-37443699D01*
D14*
X63304245Y-36700888D02*
X63444928Y-36066296D01*
D11*
X63347300Y-36044650D02*
X63184971Y-36776874D01*
X63775347Y-35268909D02*
X62812193Y-39613425D01*
D15*
X65122867Y-36028574D02*
X64638042Y-38215476D01*
D11*
X68348979Y-38894773D02*
X73035202Y-39933683D01*
D16*
X71667461Y-37786759D02*
X65126277Y-36336613D01*
D12*
X72894050Y-39646321D02*
X71635688Y-39316134D01*
D11*
X73035202Y-39933683D02*
X73814383Y-36419016D01*
D17*
X73196372Y-36896574D02*
X72655273Y-39337314D01*
D11*
X73232115Y-38953057D02*
X73719105Y-36756392D01*
D18*
X73624653Y-36581809D02*
X72404281Y-36311260D01*
D11*
X73814383Y-36419016D02*
X65808757Y-34644212D01*
X63347299Y-36044652D02*
G75*
G02*
X65808757Y-34644212I1930947J-530505D01*
G01*
D17*
X65474667Y-39771979D02*
G75*
G02*
X68045038Y-38417679I2037241J-750201D01*
G01*
D11*
X65778610Y-40249073D02*
G75*
G02*
X68348979Y-38894773I2037239J-750198D01*
G01*
X54587661Y-76711892D02*
X57545834Y-77367706D01*
D12*
X54826207Y-76559923D02*
X57218131Y-77090198D01*
D11*
X54960439Y-73875341D02*
X55155699Y-73918628D01*
D13*
X55037582Y-76299499D02*
X55427172Y-74542166D01*
D14*
X55079713Y-73799355D02*
X55220396Y-73164763D01*
D11*
X55122768Y-73143117D02*
X54960439Y-73875341D01*
X55550815Y-72367376D02*
X54587661Y-76711892D01*
D15*
X56898335Y-73127041D02*
X56413510Y-75313943D01*
D11*
X60124447Y-75993240D02*
X64810670Y-77032150D01*
D16*
X63442929Y-74885226D02*
X56901745Y-73435080D01*
D12*
X64669518Y-76744788D02*
X63411156Y-76414601D01*
D11*
X64810670Y-77032150D02*
X65589851Y-73517483D01*
D17*
X64971840Y-73995041D02*
X64430741Y-76435781D01*
D11*
X65007583Y-76051524D02*
X65494573Y-73854859D01*
D18*
X65400121Y-73680276D02*
X64179749Y-73409727D01*
D11*
X65589851Y-73517483D02*
X57584225Y-71742679D01*
X55122767Y-73143119D02*
G75*
G02*
X57584225Y-71742679I1930947J-530505D01*
G01*
D17*
X57250135Y-76870446D02*
G75*
G02*
X59820506Y-75516146I2037241J-750201D01*
G01*
D11*
X57554078Y-77347540D02*
G75*
G02*
X60124447Y-75993240I2037239J-750198D01*
G01*
X43785755Y-37686708D02*
X46743931Y-38342522D01*
D12*
X44024303Y-37534738D02*
X46416227Y-38065013D01*
D11*
X44158535Y-34850156D02*
X44353794Y-34893443D01*
D13*
X44235678Y-37274315D02*
X44625268Y-35516981D01*
D14*
X44277809Y-34774170D02*
X44418493Y-34139576D01*
D11*
X44320864Y-34117932D02*
X44158535Y-34850156D01*
X44748910Y-33342192D02*
X43785755Y-37686708D01*
D15*
X46096431Y-34101854D02*
X45611607Y-36288758D01*
D11*
X49322543Y-36968055D02*
X54008765Y-38006966D01*
D16*
X52641025Y-35860044D02*
X46099841Y-34409895D01*
D12*
X53867615Y-37719603D02*
X52609253Y-37389417D01*
D11*
X54008765Y-38006966D02*
X54787947Y-34492298D01*
D17*
X54169936Y-34969856D02*
X53628836Y-37410594D01*
D11*
X54205678Y-37026342D02*
X54692669Y-34829674D01*
D18*
X54598216Y-34655092D02*
X53377845Y-34384542D01*
D11*
X54787947Y-34492298D02*
X46782319Y-32717493D01*
X44320865Y-34117934D02*
G75*
G02*
X46782319Y-32717494I1930943J-530500D01*
G01*
D17*
X46448231Y-37845261D02*
G75*
G02*
X49018602Y-36490960I2037232J-750183D01*
G01*
D11*
X46752174Y-38322355D02*
G75*
G02*
X49322543Y-36968055I2037239J-750198D01*
G01*
X73634467Y-78578829D02*
X76592640Y-79234643D01*
D12*
X73873013Y-78426860D02*
X76264937Y-78957135D01*
D11*
X74007245Y-75742278D02*
X74202505Y-75785565D01*
D13*
X74084388Y-78166436D02*
X74473978Y-76409103D01*
D14*
X74126519Y-75666292D02*
X74267202Y-75031700D01*
D11*
X74169574Y-75010054D02*
X74007245Y-75742278D01*
X74597621Y-74234313D02*
X73634467Y-78578829D01*
D15*
X75945141Y-74993978D02*
X75460316Y-77180880D01*
D11*
X79171253Y-77860177D02*
X83857476Y-78899087D01*
D16*
X82489735Y-76752163D02*
X75948551Y-75302017D01*
D12*
X83716324Y-78611725D02*
X82457962Y-78281538D01*
D11*
X83857476Y-78899087D02*
X84636657Y-75384420D01*
D17*
X84018646Y-75861978D02*
X83477547Y-78302718D01*
D11*
X84054389Y-77918461D02*
X84541379Y-75721796D01*
D18*
X84446927Y-75547213D02*
X83226555Y-75276664D01*
D11*
X84636657Y-75384420D02*
X76631031Y-73609616D01*
X74169573Y-75010056D02*
G75*
G02*
X76631031Y-73609616I1930947J-530505D01*
G01*
D17*
X76296941Y-78737383D02*
G75*
G02*
X78867312Y-77383083I2037241J-750201D01*
G01*
D11*
X76600884Y-79214477D02*
G75*
G02*
X79171253Y-77860177I2037239J-750198D01*
G01*
X95836141Y-67126832D02*
X98762894Y-67911054D01*
D12*
X96081088Y-66985412D02*
X98447607Y-67619517D01*
D13*
X96303623Y-66734456D02*
X96769497Y-64995791D01*
D11*
X96332293Y-64309239D02*
X96525480Y-64361004D01*
D14*
X96454767Y-64238529D02*
X96622999Y-63610678D01*
D11*
X96526406Y-63584795D02*
X96332293Y-64309239D01*
X96987884Y-62828464D02*
X95836141Y-67126832D01*
D15*
X98300986Y-63646182D02*
X97721231Y-65809855D01*
D11*
X101399006Y-66650374D02*
X106035450Y-67892705D01*
D16*
X104762658Y-65688166D02*
X98290956Y-63954077D01*
D12*
X105906968Y-67599461D02*
X104664207Y-67214699D01*
D11*
X106035450Y-67892705D02*
X106967198Y-64415372D01*
X106274951Y-66921604D02*
X106857294Y-64748270D01*
D17*
X106328944Y-64865518D02*
X105681897Y-67280332D01*
D18*
X106770548Y-64569735D02*
X105563141Y-64246211D01*
D11*
X106967198Y-64415372D02*
X99046607Y-62293057D01*
X96526407Y-63584796D02*
G75*
G02*
X99046607Y-62293057I1905966J-614223D01*
G01*
D17*
X98489167Y-67401371D02*
G75*
G02*
X101116166Y-66160476I2002578J-838345D01*
G01*
D11*
X98772009Y-67891269D02*
G75*
G02*
X101399006Y-66650374I2002577J-838344D01*
G01*
X94066165Y-108263402D02*
X96753809Y-109662500D01*
D12*
X94335917Y-108178350D02*
X96509094Y-109309636D01*
D13*
X94607493Y-107981507D02*
X95438642Y-106384890D01*
D11*
X95160396Y-105619984D02*
X95337797Y-105712335D01*
D14*
X95295273Y-105577459D02*
X95595409Y-105000901D01*
D11*
X95506707Y-104954726D02*
X95160396Y-105619984D01*
X96120946Y-104316204D02*
X94066165Y-108263402D01*
D15*
X97225936Y-105398747D02*
X96191620Y-107385650D01*
D11*
X99600295Y-109002262D02*
X103857946Y-111218656D01*
D16*
X103092474Y-108790889D02*
X97149501Y-105697172D01*
D12*
X103795982Y-110904552D02*
X102665955Y-110259929D01*
D11*
X103857946Y-111218656D02*
X105520241Y-108025417D01*
X104301956Y-110322409D02*
X105340890Y-108326634D01*
D17*
X104799686Y-108326748D02*
X103645316Y-110544275D01*
D18*
X105294840Y-108133556D02*
X104186077Y-107556370D01*
D11*
X105520241Y-108025417D02*
X98246751Y-104239077D01*
X95506707Y-104954726D02*
G75*
G02*
X98246751Y-104239078I1727846J-1012198D01*
G01*
D17*
X96596884Y-109105653D02*
G75*
G02*
X99430190Y-108462758I1773655J-1251899D01*
G01*
D11*
X96766988Y-109645156D02*
G75*
G02*
X99600295Y-109002262I1773657J-1251907D01*
G01*
X252410324Y-73654358D02*
X252553432Y-74390580D01*
X252493543Y-72772275D02*
X253342643Y-77140515D01*
X252553432Y-74390580D02*
X252749757Y-74352418D01*
D14*
X252632513Y-74273336D02*
X252508487Y-73635278D01*
D11*
X253342643Y-77140515D02*
X256316974Y-76562365D01*
D12*
X253500807Y-76906027D02*
X255905793Y-76438545D01*
D13*
X253590808Y-76582919D02*
X253247352Y-74815991D01*
D15*
X254032216Y-72931608D02*
X254459627Y-75130454D01*
D11*
X258133648Y-74273677D02*
X262845460Y-73357794D01*
D16*
X260735076Y-71934323D02*
X254158173Y-73212740D01*
D17*
X261782219Y-70508315D02*
X262259240Y-72962382D01*
D18*
X262049464Y-70048882D02*
X260822432Y-70287394D01*
D11*
X262158546Y-69823935D02*
X254109202Y-71388569D01*
D12*
X262601432Y-73150550D02*
X261315776Y-73349518D01*
D11*
X262635018Y-72379984D02*
X262205699Y-70171321D01*
X262845460Y-73357794D02*
X262158546Y-69823935D01*
X252410325Y-73654359D02*
G75*
G02*
X254109202Y-71388569I1982328J283461D01*
G01*
D17*
X255847517Y-76224258D02*
G75*
G02*
X257664675Y-73957348I2167403J124380D01*
G01*
D11*
X256316491Y-76540586D02*
G75*
G02*
X258133648Y-74273678I2167406J124376D01*
G01*
X174256188Y-74443864D02*
X174450303Y-75168308D01*
X174277674Y-73558123D02*
X175429419Y-77856491D01*
X174450303Y-75168308D02*
X174643490Y-75116544D01*
D14*
X174521014Y-75045834D02*
X174352781Y-74417983D01*
D11*
X175429419Y-77856491D02*
X178356173Y-77072271D01*
D12*
X175570840Y-77611544D02*
X177937358Y-76977435D01*
D13*
X175638083Y-77282943D02*
X175172209Y-75544277D01*
D15*
X175823713Y-73609737D02*
X176403467Y-75773410D01*
D11*
X180008773Y-74662434D02*
X184645217Y-73420102D01*
D16*
X182440676Y-72147310D02*
X175968973Y-73881398D01*
D17*
X183385797Y-70651734D02*
X184032844Y-73066548D01*
D18*
X183620345Y-70174777D02*
X182412939Y-70498300D01*
D11*
X183713468Y-69942769D02*
X175792877Y-72065086D01*
X184367080Y-72459353D02*
X183784737Y-70286019D01*
D12*
X184387327Y-73230387D02*
X183118683Y-73518553D01*
D11*
X184645217Y-73420102D02*
X183713468Y-69942769D01*
X174256189Y-74443865D02*
G75*
G02*
X175792877Y-72065086I1957724J421052D01*
G01*
D17*
X177864277Y-76767735D02*
G75*
G02*
X179518877Y-74379590I2153453J275262D01*
G01*
D11*
X178354174Y-77050579D02*
G75*
G02*
X180008773Y-74662435I2153451J275263D01*
G01*
X58699928Y-58162660D02*
X61658101Y-58818474D01*
D12*
X58938474Y-58010691D02*
X61330398Y-58540966D01*
D11*
X59072706Y-55326109D02*
X59267966Y-55369396D01*
D13*
X59149849Y-57750267D02*
X59539439Y-55992934D01*
D14*
X59191980Y-55250123D02*
X59332663Y-54615531D01*
D11*
X59235035Y-54593885D02*
X59072706Y-55326109D01*
X59663082Y-53818144D02*
X58699928Y-58162660D01*
D15*
X61010602Y-54577809D02*
X60525777Y-56764711D01*
D11*
X64236714Y-57444008D02*
X68922937Y-58482918D01*
D16*
X67555196Y-56335994D02*
X61014012Y-54885848D01*
D12*
X68781785Y-58195556D02*
X67523423Y-57865369D01*
D11*
X68922937Y-58482918D02*
X69702118Y-54968251D01*
D17*
X69084107Y-55445809D02*
X68543008Y-57886549D01*
D11*
X69119850Y-57502292D02*
X69606840Y-55305627D01*
D18*
X69512388Y-55131044D02*
X68292016Y-54860495D01*
D11*
X69702118Y-54968251D02*
X61696492Y-53193447D01*
X59235034Y-54593887D02*
G75*
G02*
X61696492Y-53193447I1930947J-530505D01*
G01*
D17*
X61362402Y-58321214D02*
G75*
G02*
X63932773Y-56966914I2037241J-750201D01*
G01*
D11*
X61666345Y-58798308D02*
G75*
G02*
X64236714Y-57444008I2037239J-750198D01*
G01*
D19*
X109630433Y-74005773D02*
X107230433Y-74005772D01*
X107230433Y-68005772D01*
X109630433Y-68005772D01*
X109630433Y-74005773D01*
X109630433Y-68564172D02*
X107230433Y-68564172D01*
X107230433Y-68005772D01*
X109630433Y-68005772D01*
X109630433Y-68564172D01*
G36*
X109630433Y-68564172D02*
G01*
X107230433Y-68564172D01*
X107230433Y-68005772D01*
X109630433Y-68005772D01*
X109630433Y-68564172D01*
G37*
X76867270Y-45808791D02*
X74467270Y-45808791D01*
X74467270Y-39808792D01*
X76867270Y-39808792D01*
X76867270Y-45808791D01*
X76867271Y-40367192D02*
X74467270Y-40367192D01*
X74467270Y-39808792D01*
X76867270Y-39808792D01*
X76867271Y-40367192D01*
G36*
X76867271Y-40367192D02*
G01*
X74467270Y-40367192D01*
X74467270Y-39808792D01*
X76867270Y-39808792D01*
X76867271Y-40367192D01*
G37*
D20*
X158636004Y-72830300D02*
X156604004Y-72830300D01*
X156604003Y-70798300D01*
X158636004Y-70798300D01*
X158636004Y-72830300D01*
X176554432Y-46617661D02*
X176632077Y-46907439D01*
X176990708Y-45154902D02*
X177327173Y-46410605D01*
X177103129Y-48665423D02*
X177633708Y-50645571D01*
X177327173Y-46410605D02*
X176554432Y-46617661D01*
X177633708Y-50645571D02*
X178377471Y-50446281D01*
X178286884Y-50108206D02*
X180199417Y-49595745D01*
X178377471Y-50446281D02*
X178286884Y-50108206D01*
X180199417Y-49595745D02*
X180352120Y-50165640D01*
X183985846Y-48581174D02*
X185898380Y-48068712D01*
X184544248Y-43130936D02*
X176990708Y-45154902D01*
X184880713Y-44386640D02*
X184544248Y-43130936D01*
X185653453Y-44179585D02*
X184880713Y-44386640D01*
X185731099Y-44469363D02*
X185653453Y-44179585D01*
X185898380Y-48068712D02*
X185988966Y-48406786D01*
X185988966Y-48406786D02*
X186732729Y-48207496D01*
X186732729Y-48207496D02*
X186202150Y-46227348D01*
X194004351Y-26145438D02*
X196028315Y-33698978D01*
X195053000Y-25036232D02*
X195260055Y-25808973D01*
X195260055Y-25808973D02*
X194004351Y-26145438D01*
X195342779Y-24958587D02*
X195053000Y-25036232D01*
X196028315Y-33698978D02*
X197284020Y-33362513D01*
X197284020Y-33362513D02*
X197491075Y-34135253D01*
X197491075Y-34135253D02*
X197780853Y-34057608D01*
X198942127Y-24791307D02*
X199280202Y-24700720D01*
X199080911Y-23956957D02*
X197100763Y-24487536D01*
X199280202Y-24700720D02*
X199080911Y-23956957D01*
X199454589Y-26703840D02*
X198942127Y-24791307D01*
X199538838Y-33586557D02*
X201518986Y-33055978D01*
X200469160Y-30490269D02*
X201039055Y-30337565D01*
X200981621Y-32402803D02*
X200469160Y-30490269D01*
X201319695Y-32312215D02*
X200981621Y-32402803D01*
X201518986Y-33055978D02*
X201319695Y-32312215D01*
D19*
X114281732Y-55528841D02*
X111881732Y-55528840D01*
X111881732Y-49528840D01*
X114281732Y-49528840D01*
X114281732Y-55528841D01*
X114281732Y-50087240D02*
X111881732Y-50087240D01*
X111881732Y-49528840D01*
X114281732Y-49528840D01*
X114281732Y-50087240D01*
G36*
X114281732Y-50087240D02*
G01*
X111881732Y-50087240D01*
X111881732Y-49528840D01*
X114281732Y-49528840D01*
X114281732Y-50087240D01*
G37*
X187827819Y-58472310D02*
X185427819Y-58472310D01*
X185427819Y-57913910D01*
X187827819Y-57913910D01*
X187827819Y-58472310D01*
G36*
X187827819Y-58472310D02*
G01*
X185427819Y-58472310D01*
X185427819Y-57913910D01*
X187827819Y-57913910D01*
X187827819Y-58472310D01*
G37*
X187827819Y-52472310D02*
X187827819Y-58472310D01*
X185427819Y-58472310D01*
X185427819Y-52472309D01*
X187827819Y-52472310D01*
X72760808Y-64370743D02*
X70360808Y-64370743D01*
X70360808Y-58370744D01*
X72760808Y-58370744D01*
X72760808Y-64370743D01*
X72760809Y-58929144D02*
X70360808Y-58929144D01*
X70360808Y-58370744D01*
X72760808Y-58370744D01*
X72760809Y-58929144D01*
G36*
X72760809Y-58929144D02*
G01*
X70360808Y-58929144D01*
X70360808Y-58370744D01*
X72760808Y-58370744D01*
X72760809Y-58929144D01*
G37*
D20*
X114183001Y-67477800D02*
X114183001Y-65477800D01*
X115683001Y-63727800D02*
X115233001Y-64177800D01*
X115683001Y-63727800D02*
X118183001Y-63727800D01*
X115683001Y-69227800D02*
X115233001Y-68777800D01*
X115683001Y-69227800D02*
X118183001Y-69227800D01*
X118183001Y-63727800D02*
X118633001Y-64177800D01*
X118183001Y-69227800D02*
X118633001Y-68777800D01*
X119683001Y-67477800D02*
X119683001Y-65477800D01*
D19*
X243997151Y-46486670D02*
X241597151Y-46486670D01*
X241597151Y-40486670D01*
X243997151Y-40486670D01*
X243997151Y-46486670D01*
X243997151Y-41045070D02*
X241597151Y-41045070D01*
X241597151Y-40486670D01*
X243997151Y-40486670D01*
X243997151Y-41045070D01*
G36*
X243997151Y-41045070D02*
G01*
X241597151Y-41045070D01*
X241597151Y-40486670D01*
X243997151Y-40486670D01*
X243997151Y-41045070D01*
G37*
X131861022Y-63754690D02*
X129461022Y-63754690D01*
X129461022Y-63196290D01*
X131861022Y-63196290D01*
X131861022Y-63754690D01*
G36*
X131861022Y-63754690D02*
G01*
X129461022Y-63754690D01*
X129461022Y-63196290D01*
X131861022Y-63196290D01*
X131861022Y-63754690D01*
G37*
X131861022Y-57754690D02*
X131861022Y-63754690D01*
X129461022Y-63754690D01*
X129461022Y-57754689D01*
X131861022Y-57754690D01*
X210300979Y-69268799D02*
X207900979Y-69268799D01*
X207900979Y-63268800D01*
X210300979Y-63268800D01*
X210300979Y-69268799D01*
X210300980Y-63827200D02*
X207900979Y-63827200D01*
X207900979Y-63268800D01*
X210300979Y-63268800D01*
X210300980Y-63827200D01*
G36*
X210300980Y-63827200D02*
G01*
X207900979Y-63827200D01*
X207900979Y-63268800D01*
X210300979Y-63268800D01*
X210300980Y-63827200D01*
G37*
X174646069Y-84364014D02*
X172246069Y-84364013D01*
X172246069Y-78364013D01*
X174646069Y-78364013D01*
X174646069Y-84364014D01*
X174646069Y-78922413D02*
X172246069Y-78922413D01*
X172246069Y-78364013D01*
X174646069Y-78364013D01*
X174646069Y-78922413D01*
G36*
X174646069Y-78922413D02*
G01*
X172246069Y-78922413D01*
X172246069Y-78364013D01*
X174646069Y-78364013D01*
X174646069Y-78922413D01*
G37*
X127463482Y-82220543D02*
X125063482Y-82220543D01*
X125063482Y-81662143D01*
X127463482Y-81662143D01*
X127463482Y-82220543D01*
G36*
X127463482Y-82220543D02*
G01*
X125063482Y-82220543D01*
X125063482Y-81662143D01*
X127463482Y-81662143D01*
X127463482Y-82220543D01*
G37*
X127463482Y-76220543D02*
X127463482Y-82220543D01*
X125063482Y-82220543D01*
X125063482Y-76220542D01*
X127463482Y-76220543D01*
X58061600Y-43865600D02*
X55661600Y-43865600D01*
X55661600Y-43307200D01*
X58061600Y-43307200D01*
X58061600Y-43865600D01*
G36*
X58061600Y-43865600D02*
G01*
X55661600Y-43865600D01*
X55661600Y-43307200D01*
X58061600Y-43307200D01*
X58061600Y-43865600D01*
G37*
X58061600Y-43865600D02*
X55661600Y-43865600D01*
X55661600Y-37865600D01*
X58061600Y-37865600D01*
X58061600Y-43865600D01*
X123060257Y-100743639D02*
X120660257Y-100743639D01*
X120660257Y-100185239D01*
X123060257Y-100185239D01*
X123060257Y-100743639D01*
G36*
X123060257Y-100743639D02*
G01*
X120660257Y-100743639D01*
X120660257Y-100185239D01*
X123060257Y-100185239D01*
X123060257Y-100743639D01*
G37*
X123060257Y-94743639D02*
X123060257Y-100743639D01*
X120660257Y-100743639D01*
X120660257Y-94743638D01*
X123060257Y-94743639D01*
X179049294Y-102887110D02*
X176649294Y-102887109D01*
X176649294Y-96887109D01*
X179049294Y-96887109D01*
X179049294Y-102887110D01*
X179049294Y-97445509D02*
X176649294Y-97445509D01*
X176649294Y-96887109D01*
X179049294Y-96887109D01*
X179049294Y-97445509D01*
G36*
X179049294Y-97445509D02*
G01*
X176649294Y-97445509D01*
X176649294Y-96887109D01*
X179049294Y-96887109D01*
X179049294Y-97445509D01*
G37*
X170248529Y-65898161D02*
X167848529Y-65898160D01*
X167848529Y-59898160D01*
X170248529Y-59898160D01*
X170248529Y-65898161D01*
X170248529Y-60456560D02*
X167848529Y-60456560D01*
X167848529Y-59898160D01*
X170248529Y-59898160D01*
X170248529Y-60456560D01*
G36*
X170248529Y-60456560D02*
G01*
X167848529Y-60456560D01*
X167848529Y-59898160D01*
X170248529Y-59898160D01*
X170248529Y-60456560D01*
G37*
X91808572Y-66633101D02*
X89408572Y-66633101D01*
X89408571Y-66074701D01*
X91808572Y-66074701D01*
X91808572Y-66633101D01*
G36*
X91808572Y-66633101D02*
G01*
X89408572Y-66633101D01*
X89408571Y-66074701D01*
X91808572Y-66074701D01*
X91808572Y-66633101D01*
G37*
X91808572Y-66633101D02*
X89408572Y-66633101D01*
X89408572Y-60633102D01*
X91808572Y-60633102D01*
X91808572Y-66633101D01*
X105455999Y-92528230D02*
X103055999Y-92528229D01*
X103055999Y-86528229D01*
X105455999Y-86528229D01*
X105455999Y-92528230D01*
X105455999Y-87086629D02*
X103055999Y-87086629D01*
X103055999Y-86528229D01*
X105455999Y-86528229D01*
X105455999Y-87086629D01*
G36*
X105455999Y-87086629D02*
G01*
X103055999Y-87086629D01*
X103055999Y-86528229D01*
X105455999Y-86528229D01*
X105455999Y-87086629D01*
G37*
X248505698Y-64885509D02*
X246105698Y-64885509D01*
X246105698Y-58885509D01*
X248505698Y-58885509D01*
X248505698Y-64885509D01*
X248505698Y-59443909D02*
X246105698Y-59443909D01*
X246105698Y-58885509D01*
X248505698Y-58885509D01*
X248505698Y-59443909D01*
G36*
X248505698Y-59443909D02*
G01*
X246105698Y-59443909D01*
X246105698Y-58885509D01*
X248505698Y-58885509D01*
X248505698Y-59443909D01*
G37*
X206169079Y-50732125D02*
X203769079Y-50732125D01*
X203769079Y-44732126D01*
X206169079Y-44732126D01*
X206169079Y-50732125D01*
X206169080Y-45290526D02*
X203769079Y-45290527D01*
X203769079Y-44732126D01*
X206169079Y-44732126D01*
X206169080Y-45290526D01*
G36*
X206169080Y-45290526D02*
G01*
X203769079Y-45290527D01*
X203769079Y-44732126D01*
X206169079Y-44732126D01*
X206169080Y-45290526D01*
G37*
X126997199Y-120110000D02*
X124597200Y-120110000D01*
X124597201Y-119551600D01*
X126997200Y-119551600D01*
X126997199Y-120110000D01*
G36*
X126997199Y-120110000D02*
G01*
X124597200Y-120110000D01*
X124597201Y-119551600D01*
X126997200Y-119551600D01*
X126997199Y-120110000D01*
G37*
X126997199Y-120110000D02*
X124597200Y-120110000D01*
X124597200Y-114110000D01*
X126997199Y-114109999D01*
X126997199Y-120110000D01*
X233471726Y-85850499D02*
X231071726Y-85850499D01*
X231071725Y-85292099D01*
X233471726Y-85292099D01*
X233471726Y-85850499D01*
G36*
X233471726Y-85850499D02*
G01*
X231071726Y-85850499D01*
X231071725Y-85292099D01*
X233471726Y-85292099D01*
X233471726Y-85850499D01*
G37*
X233471726Y-85850499D02*
X231071726Y-85850499D01*
X231071726Y-79850500D01*
X233471726Y-79850500D01*
X233471726Y-85850499D01*
X252346986Y-83427509D02*
X249946986Y-83427509D01*
X249946986Y-77427509D01*
X252346986Y-77427509D01*
X252346986Y-83427509D01*
X252346986Y-77985909D02*
X249946986Y-77985909D01*
X249946986Y-77427509D01*
X252346986Y-77427509D01*
X252346986Y-77985909D01*
G36*
X252346986Y-77985909D02*
G01*
X249946986Y-77985909D01*
X249946986Y-77427509D01*
X252346986Y-77427509D01*
X252346986Y-77985909D01*
G37*
X192019668Y-115174309D02*
X189619669Y-115174309D01*
X189619670Y-114615909D01*
X192019669Y-114615909D01*
X192019668Y-115174309D01*
G36*
X192019668Y-115174309D02*
G01*
X189619669Y-115174309D01*
X189619670Y-114615909D01*
X192019669Y-114615909D01*
X192019668Y-115174309D01*
G37*
X192019668Y-115174309D02*
X189619669Y-115174309D01*
X189619669Y-109174309D01*
X192019668Y-109174308D01*
X192019668Y-115174309D01*
X49762565Y-81284039D02*
X47362565Y-81284039D01*
X47362565Y-80725639D01*
X49762565Y-80725639D01*
X49762565Y-81284039D01*
G36*
X49762565Y-81284039D02*
G01*
X47362565Y-81284039D01*
X47362565Y-80725639D01*
X49762565Y-80725639D01*
X49762565Y-81284039D01*
G37*
X49762565Y-81284039D02*
X47362565Y-81284039D01*
X47362565Y-75284039D01*
X49762565Y-75284039D01*
X49762565Y-81284039D01*
X192479118Y-76949242D02*
X190079118Y-76949242D01*
X190079118Y-76390842D01*
X192479118Y-76390842D01*
X192479118Y-76949242D01*
G36*
X192479118Y-76949242D02*
G01*
X190079118Y-76949242D01*
X190079118Y-76390842D01*
X192479118Y-76390842D01*
X192479118Y-76949242D01*
G37*
X192479118Y-70949242D02*
X192479118Y-76949242D01*
X190079118Y-76949242D01*
X190079118Y-70949241D01*
X192479118Y-70949242D01*
X95940472Y-48096427D02*
X93540472Y-48096427D01*
X93540471Y-47538027D01*
X95940472Y-47538026D01*
X95940472Y-48096427D01*
G36*
X95940472Y-48096427D02*
G01*
X93540472Y-48096427D01*
X93540471Y-47538027D01*
X95940472Y-47538026D01*
X95940472Y-48096427D01*
G37*
X95940472Y-48096427D02*
X93540472Y-48096427D01*
X93540472Y-42096428D01*
X95940472Y-42096428D01*
X95940472Y-48096427D01*
X229348743Y-67314214D02*
X226948743Y-67314214D01*
X226948742Y-66755814D01*
X229348743Y-66755814D01*
X229348743Y-67314214D01*
G36*
X229348743Y-67314214D02*
G01*
X226948743Y-67314214D01*
X226948742Y-66755814D01*
X229348743Y-66755814D01*
X229348743Y-67314214D01*
G37*
X229348743Y-67314214D02*
X226948743Y-67314214D01*
X226948743Y-61314215D01*
X229348743Y-61314215D01*
X229348743Y-67314214D01*
X214423920Y-87806047D02*
X212023920Y-87806047D01*
X212023920Y-81806048D01*
X214423920Y-81806048D01*
X214423920Y-87806047D01*
X214423921Y-82364448D02*
X212023920Y-82364448D01*
X212023920Y-81806048D01*
X214423920Y-81806048D01*
X214423921Y-82364448D01*
G36*
X214423921Y-82364448D02*
G01*
X212023920Y-82364448D01*
X212023920Y-81806048D01*
X214423920Y-81806048D01*
X214423921Y-82364448D01*
G37*
X53603853Y-62742039D02*
X51203853Y-62742039D01*
X51203853Y-62183639D01*
X53603853Y-62183639D01*
X53603853Y-62742039D01*
G36*
X53603853Y-62742039D02*
G01*
X51203853Y-62742039D01*
X51203853Y-62183639D01*
X53603853Y-62183639D01*
X53603853Y-62742039D01*
G37*
X53603853Y-62742039D02*
X51203853Y-62742039D01*
X51203853Y-56742039D01*
X53603853Y-56742039D01*
X53603853Y-62742039D01*
X196653552Y-95471699D02*
X194253552Y-95471699D01*
X194253552Y-94913299D01*
X196653552Y-94913299D01*
X196653552Y-95471699D01*
G36*
X196653552Y-95471699D02*
G01*
X194253552Y-95471699D01*
X194253552Y-94913299D01*
X196653552Y-94913299D01*
X196653552Y-95471699D01*
G37*
X196653552Y-89471699D02*
X196653552Y-95471699D01*
X194253552Y-95471699D01*
X194253552Y-89471698D01*
X196653552Y-89471699D01*
X176525669Y-121886309D02*
X174125670Y-121886310D01*
X174125670Y-115886309D01*
X176525669Y-115886309D01*
X176525669Y-121886309D01*
X176525668Y-116444709D02*
X174125669Y-116444709D01*
X174125670Y-115886309D01*
X176525669Y-115886309D01*
X176525668Y-116444709D01*
G36*
X176525668Y-116444709D02*
G01*
X174125669Y-116444709D01*
X174125670Y-115886309D01*
X176525669Y-115886309D01*
X176525668Y-116444709D01*
G37*
X110487200Y-113312400D02*
X108087201Y-113312401D01*
X108087201Y-107312400D01*
X110487200Y-107312400D01*
X110487200Y-113312400D01*
X110487199Y-107870800D02*
X108087200Y-107870800D01*
X108087201Y-107312400D01*
X110487200Y-107312400D01*
X110487199Y-107870800D01*
G36*
X110487199Y-107870800D02*
G01*
X108087200Y-107870800D01*
X108087201Y-107312400D01*
X110487200Y-107312400D01*
X110487199Y-107870800D01*
G37*
X68637825Y-82907028D02*
X66237825Y-82907028D01*
X66237825Y-76907029D01*
X68637825Y-76907029D01*
X68637825Y-82907028D01*
X68637826Y-77465429D02*
X66237825Y-77465429D01*
X66237825Y-76907029D01*
X68637825Y-76907029D01*
X68637826Y-77465429D01*
G36*
X68637826Y-77465429D02*
G01*
X66237825Y-77465429D01*
X66237825Y-76907029D01*
X68637825Y-76907029D01*
X68637826Y-77465429D01*
G37*
X87685631Y-85170349D02*
X85285631Y-85170349D01*
X85285630Y-84611949D01*
X87685631Y-84611949D01*
X87685631Y-85170349D01*
G36*
X87685631Y-85170349D02*
G01*
X85285631Y-85170349D01*
X85285630Y-84611949D01*
X87685631Y-84611949D01*
X87685631Y-85170349D01*
G37*
X87685631Y-85170349D02*
X85285631Y-85170349D01*
X85285631Y-79170350D01*
X87685631Y-79170350D01*
X87685631Y-85170349D01*
X225242281Y-48752262D02*
X222842281Y-48752262D01*
X222842280Y-48193862D01*
X225242281Y-48193862D01*
X225242281Y-48752262D01*
G36*
X225242281Y-48752262D02*
G01*
X222842281Y-48752262D01*
X222842280Y-48193862D01*
X225242281Y-48193862D01*
X225242281Y-48752262D01*
G37*
X225242281Y-48752262D02*
X222842281Y-48752262D01*
X222842281Y-42752263D01*
X225242281Y-42752263D01*
X225242281Y-48752262D01*
M02*
