G04 #@! TF.GenerationSoftware,KiCad,Pcbnew,8.0.2-1*
G04 #@! TF.CreationDate,2024-09-10T00:57:15+08:00*
G04 #@! TF.ProjectId,34_monosplit,33345f6d-6f6e-46f7-9370-6c69742e6b69,rev?*
G04 #@! TF.SameCoordinates,Original*
G04 #@! TF.FileFunction,Soldermask,Bot*
G04 #@! TF.FilePolarity,Negative*
%FSLAX46Y46*%
G04 Gerber Fmt 4.6, Leading zero omitted, Abs format (unit mm)*
G04 Created by KiCad (PCBNEW 8.0.2-1) date 2024-09-10 00:57:15*
%MOMM*%
%LPD*%
G01*
G04 APERTURE LIST*
G04 Aperture macros list*
%AMRoundRect*
0 Rectangle with rounded corners*
0 $1 Rounding radius*
0 $2 $3 $4 $5 $6 $7 $8 $9 X,Y pos of 4 corners*
0 Add a 4 corners polygon primitive as box body*
4,1,4,$2,$3,$4,$5,$6,$7,$8,$9,$2,$3,0*
0 Add four circle primitives for the rounded corners*
1,1,$1+$1,$2,$3*
1,1,$1+$1,$4,$5*
1,1,$1+$1,$6,$7*
1,1,$1+$1,$8,$9*
0 Add four rect primitives between the rounded corners*
20,1,$1+$1,$2,$3,$4,$5,0*
20,1,$1+$1,$4,$5,$6,$7,0*
20,1,$1+$1,$6,$7,$8,$9,0*
20,1,$1+$1,$8,$9,$2,$3,0*%
%AMHorizOval*
0 Thick line with rounded ends*
0 $1 width*
0 $2 $3 position (X,Y) of the first rounded end (center of the circle)*
0 $4 $5 position (X,Y) of the second rounded end (center of the circle)*
0 Add line between two ends*
20,1,$1,$2,$3,$4,$5,0*
0 Add two circle primitives to create the rounded ends*
1,1,$1,$2,$3*
1,1,$1,$4,$5*%
G04 Aperture macros list end*
%ADD10C,2.300000*%
%ADD11C,3.400000*%
%ADD12C,4.500000*%
%ADD13RoundRect,0.200000X1.708125X0.520034X-0.553753X1.697493X-1.708125X-0.520034X0.553753X-1.697493X0*%
%ADD14C,3.900000*%
%ADD15RoundRect,0.200000X1.013063X1.470315X-1.490086X0.983753X-1.013063X-1.470315X1.490086X-0.983753X0*%
%ADD16RoundRect,0.200000X0.908032X1.537402X-1.555079X0.877413X-0.908032X-1.537402X1.555079X-0.877413X0*%
%ADD17RoundRect,0.200000X0.850000X0.850000X-0.850000X0.850000X-0.850000X-0.850000X0.850000X-0.850000X0*%
%ADD18O,2.100000X2.100000*%
%ADD19RoundRect,0.200000X1.555079X0.877413X-0.908032X1.537402X-1.555079X-0.877413X0.908032X-1.537402X0*%
%ADD20RoundRect,0.200000X1.515327X0.944410X-0.974228X1.496331X-1.515327X-0.944410X0.974228X-1.496331X0*%
%ADD21C,3.600000*%
%ADD22RoundRect,0.200000X0.601041X1.041033X-1.041033X0.601041X-0.601041X-1.041033X1.041033X-0.601041X0*%
%ADD23HorizOval,2.100000X0.000000X0.000000X0.000000X0.000000X0*%
%ADD24RoundRect,0.200000X0.974228X1.496331X-1.515327X0.944410X-0.974228X-1.496331X1.515327X-0.944410X0*%
%ADD25RoundRect,0.200000X0.553753X1.697493X-1.708125X0.520034X-0.553753X-1.697493X1.708125X-0.520034X0*%
%ADD26RoundRect,0.200000X1.490086X0.983753X-1.013063X1.470315X-1.490086X-0.983753X1.013063X-1.470315X0*%
%ADD27RoundRect,0.200000X-0.700000X0.600000X-0.700000X-0.600000X0.700000X-0.600000X0.700000X0.600000X0*%
%ADD28C,2.000000*%
%ADD29RoundRect,0.200000X-0.063776X-0.534727X0.322595X-0.431199X0.063776X0.534727X-0.322595X0.431199X0*%
%ADD30RoundRect,0.200000X-0.797693X-0.886671X1.134158X-0.369033X0.797693X0.886671X-1.134158X0.369033X0*%
%ADD31RoundRect,0.200000X0.534727X-0.063776X0.431199X0.322595X-0.534727X0.063776X-0.431199X-0.322595X0*%
%ADD32RoundRect,0.200000X0.886671X-0.797693X0.369033X1.134158X-0.886671X0.797693X-0.369033X-1.134158X0*%
%ADD33RoundRect,0.200000X0.700000X-0.600000X0.700000X0.600000X-0.700000X0.600000X-0.700000X-0.600000X0*%
%ADD34RoundRect,0.200000X0.850000X0.500000X-0.850000X0.500000X-0.850000X-0.500000X0.850000X-0.500000X0*%
G04 APERTURE END LIST*
D10*
X110840790Y-119575098D03*
D11*
X113140138Y-117908511D03*
D12*
X115346806Y-121920781D03*
D11*
X119945496Y-118587608D03*
D10*
X119852822Y-124266464D03*
D13*
X110235176Y-116396284D03*
X122874407Y-120112302D03*
D14*
X168177024Y-40737246D03*
D10*
X250105500Y-59652282D03*
D11*
X250867513Y-56916622D03*
D12*
X255092167Y-58682972D03*
D11*
X256616192Y-53211651D03*
D10*
X260078834Y-57713662D03*
D15*
X247652682Y-57541521D03*
X259857524Y-52581599D03*
D10*
X198386206Y-89487894D03*
D11*
X198955533Y-86705742D03*
D12*
X203293110Y-88173093D03*
D11*
X204431762Y-82608789D03*
D10*
X208200014Y-86858292D03*
D16*
X195792123Y-87553374D03*
X207621248Y-81754168D03*
D10*
X171852983Y-60301221D03*
D11*
X172422310Y-57519069D03*
D12*
X176759887Y-58986420D03*
D11*
X177898539Y-53422116D03*
D10*
X181666791Y-57671619D03*
D16*
X169258900Y-58366701D03*
X181088025Y-52567495D03*
D17*
X167499477Y-111349000D03*
D18*
X167499476Y-108808999D03*
X167499478Y-106269000D03*
X167499477Y-103729000D03*
D10*
X113921495Y-76141882D03*
D11*
X115805623Y-74017131D03*
D12*
X118828399Y-77456683D03*
D11*
X122596655Y-73207180D03*
D10*
X123735303Y-78771484D03*
D19*
X112642213Y-73169497D03*
X125786139Y-74061800D03*
D10*
X78065265Y-61226308D03*
D11*
X79854918Y-59021393D03*
D12*
X83024850Y-62325820D03*
D11*
X86604160Y-57915991D03*
D10*
X87984435Y-63425332D03*
D20*
X76657549Y-58312551D03*
X89827886Y-58630676D03*
D21*
X138000124Y-90162334D03*
X128250066Y-48815518D03*
D10*
X109419831Y-94597967D03*
D11*
X111303959Y-92473216D03*
D12*
X114326735Y-95912768D03*
D11*
X118094991Y-91663265D03*
D10*
X119233639Y-97227569D03*
D19*
X108140549Y-91625582D03*
X121284475Y-92517885D03*
D21*
X120249066Y-110410518D03*
D22*
X205925334Y-30933199D03*
D23*
X205267932Y-28479747D03*
X204610534Y-26026296D03*
X203953133Y-23572844D03*
D10*
X189428678Y-52485419D03*
D11*
X189998005Y-49703267D03*
D12*
X194335582Y-51170618D03*
D11*
X195474234Y-45606314D03*
D10*
X199242486Y-49855817D03*
D16*
X186834595Y-50550899D03*
X198663720Y-44751693D03*
D10*
X91799986Y-86858292D03*
D11*
X93684114Y-84733541D03*
D12*
X96706890Y-88173093D03*
D11*
X100475146Y-83923590D03*
D10*
X101613794Y-89487894D03*
D19*
X90520704Y-83885907D03*
X103664630Y-84778210D03*
D10*
X226950235Y-43009748D03*
D11*
X227640375Y-40255079D03*
D12*
X231909820Y-41910236D03*
D11*
X233290102Y-36400892D03*
D10*
X236869405Y-40810724D03*
D24*
X224443005Y-40963917D03*
X236513829Y-35686211D03*
D10*
X180147178Y-124266464D03*
D11*
X180100842Y-121427035D03*
D12*
X184653194Y-121920781D03*
D11*
X184560519Y-116241925D03*
D10*
X189159210Y-119575098D03*
D25*
X177195880Y-122939262D03*
X187489429Y-114717230D03*
D10*
X212015565Y-63425332D03*
D11*
X212705705Y-60670663D03*
D12*
X216975150Y-62325820D03*
D11*
X218355432Y-56816476D03*
D10*
X221934735Y-61226308D03*
D24*
X209508335Y-61379501D03*
X221579159Y-56101795D03*
D10*
X180766361Y-97227569D03*
D11*
X181335688Y-94445417D03*
D12*
X185673265Y-95912768D03*
D11*
X186811917Y-90348464D03*
D10*
X190580169Y-94597967D03*
D16*
X178172278Y-95293049D03*
X190001403Y-89493843D03*
D10*
X82177609Y-42676724D03*
D11*
X83967262Y-40471809D03*
D12*
X87137194Y-43776236D03*
D11*
X90716504Y-39366407D03*
D10*
X92096779Y-44875748D03*
D20*
X80769893Y-39762967D03*
X93940230Y-40081092D03*
D21*
X161999961Y-90135622D03*
D10*
X235174767Y-80108215D03*
D11*
X235864907Y-77353546D03*
D12*
X240134352Y-79008703D03*
D11*
X241514634Y-73499359D03*
D10*
X245093937Y-77909191D03*
D24*
X232667537Y-78062384D03*
X244738361Y-72784678D03*
D21*
X179750934Y-110410518D03*
D10*
X39921166Y-57713662D03*
D11*
X41652488Y-55462658D03*
D12*
X44907833Y-58682972D03*
D11*
X48370477Y-54180961D03*
D10*
X49894500Y-59652282D03*
D26*
X38437658Y-54837757D03*
X51611810Y-54811012D03*
D10*
X245976671Y-41083030D03*
D11*
X246666812Y-38328362D03*
D12*
X250936256Y-39983518D03*
D11*
X252316537Y-34474177D03*
D10*
X255895841Y-38884006D03*
D24*
X243469440Y-39037201D03*
X255540264Y-33759493D03*
D21*
X49838167Y-87750857D03*
D10*
X118333209Y-57671619D03*
D11*
X120217337Y-55546868D03*
D12*
X123240113Y-58986420D03*
D11*
X127008369Y-54736917D03*
D10*
X128147017Y-60301221D03*
D19*
X117053927Y-54699234D03*
X130197853Y-55591537D03*
D10*
X35914606Y-76172924D03*
D11*
X37645928Y-73921920D03*
D12*
X40901273Y-77142234D03*
D11*
X44363917Y-72640223D03*
D10*
X45887940Y-78111544D03*
D26*
X34431098Y-73297019D03*
X47605250Y-73270274D03*
D10*
X216127961Y-81975152D03*
D11*
X216818101Y-79220483D03*
D12*
X221087546Y-80875640D03*
D11*
X222467828Y-75366296D03*
D10*
X226047131Y-79776128D03*
D24*
X213620731Y-79929321D03*
X225691555Y-74651615D03*
D21*
X171749934Y-48815518D03*
D10*
X100757514Y-49855817D03*
D11*
X102641642Y-47731066D03*
D12*
X105664418Y-51170618D03*
D11*
X109432674Y-46921115D03*
D10*
X110571322Y-52485419D03*
D19*
X99478232Y-46883432D03*
X112622158Y-47775735D03*
D21*
X162000000Y-105784610D03*
D10*
X207903221Y-44875748D03*
D11*
X208593361Y-42121079D03*
D12*
X212862806Y-43776236D03*
D11*
X214243088Y-38266892D03*
D10*
X217822391Y-42676724D03*
D24*
X205395991Y-42829917D03*
X217466815Y-37552211D03*
D14*
X207900099Y-22846548D03*
D10*
X231062500Y-61558983D03*
D11*
X231752640Y-58804314D03*
D12*
X236022085Y-60459471D03*
D11*
X237402367Y-54950127D03*
D10*
X240981670Y-59359959D03*
D24*
X228555270Y-59513152D03*
X240626094Y-54235446D03*
D10*
X196924132Y-114193677D03*
D11*
X196877795Y-111354248D03*
D12*
X201430147Y-111847994D03*
D11*
X201337472Y-106169138D03*
D10*
X205936162Y-109502311D03*
D25*
X193972834Y-112866474D03*
X204266381Y-104644444D03*
D10*
X194084176Y-70966480D03*
D11*
X194653503Y-68184328D03*
D12*
X198991080Y-69651679D03*
D11*
X200129732Y-64087375D03*
D10*
X203897984Y-68336878D03*
D16*
X191490093Y-69031960D03*
X203319218Y-63232754D03*
D21*
X250161833Y-87750857D03*
X162000000Y-64215390D03*
D14*
X128499936Y-111049001D03*
D10*
X63130595Y-40810724D03*
D11*
X64920248Y-38605809D03*
D12*
X68090180Y-41910236D03*
D11*
X71669490Y-37500407D03*
D10*
X73049765Y-43009748D03*
D20*
X61722879Y-37896967D03*
X74893216Y-38215092D03*
D10*
X54906063Y-77909191D03*
D11*
X56695716Y-75704276D03*
D12*
X59865648Y-79008703D03*
D11*
X63444958Y-74598874D03*
D10*
X64825233Y-80108215D03*
D20*
X53498347Y-74995434D03*
X66668684Y-75313559D03*
D10*
X44104160Y-38884003D03*
D11*
X45893813Y-36679092D03*
D12*
X49063744Y-39983518D03*
D11*
X52643052Y-35573691D03*
D10*
X54023328Y-41083033D03*
D20*
X42696441Y-35970251D03*
X55866779Y-36288374D03*
D14*
X171499933Y-104049002D03*
D10*
X73952869Y-79776128D03*
D11*
X75742522Y-77571213D03*
D12*
X78912454Y-80875640D03*
D11*
X82491764Y-76465811D03*
D10*
X83872039Y-81975152D03*
D20*
X72545153Y-76862371D03*
X85715490Y-77180496D03*
D21*
X59525928Y-31292947D03*
D10*
X96102016Y-68336878D03*
D11*
X97986144Y-66212127D03*
D12*
X101008920Y-69651679D03*
D11*
X104777176Y-65402176D03*
D10*
X105915824Y-70966480D03*
D19*
X94822734Y-65364493D03*
X107966660Y-66256796D03*
D21*
X138000000Y-105758370D03*
D10*
X94063838Y-109502311D03*
D11*
X96363185Y-107835724D03*
D12*
X98569853Y-111847994D03*
D11*
X103168543Y-108514821D03*
D10*
X103075868Y-114193677D03*
D13*
X93458224Y-106323497D03*
X106097453Y-110039514D03*
D10*
X254112060Y-78111544D03*
D11*
X254874073Y-75375884D03*
D12*
X259098727Y-77142234D03*
D11*
X260622752Y-71670913D03*
D10*
X264085394Y-76172924D03*
D15*
X251659242Y-76000783D03*
X263864084Y-71040861D03*
D10*
X176264697Y-78771484D03*
D11*
X176834024Y-75989332D03*
D12*
X181171601Y-77456683D03*
D11*
X182310253Y-71892379D03*
D10*
X186078505Y-76141882D03*
D16*
X173670614Y-76836964D03*
X185499739Y-71037758D03*
D21*
X138000000Y-64189150D03*
X240474072Y-31292947D03*
D10*
X59018330Y-59359959D03*
D11*
X60807983Y-57155044D03*
D12*
X63977915Y-60459471D03*
D11*
X67557225Y-56049642D03*
D10*
X68937500Y-61558983D03*
D20*
X57610614Y-56446202D03*
X70780951Y-56764327D03*
D27*
X108430433Y-69505772D03*
X108430433Y-72905772D03*
X75667270Y-41308792D03*
X75667270Y-44708792D03*
D28*
X157610004Y-71816800D03*
X157610004Y-74356800D03*
X157610004Y-76896800D03*
X157610004Y-79436800D03*
X157610004Y-81976800D03*
X157610004Y-84516800D03*
X157610003Y-87056800D03*
X157610004Y-89596800D03*
X157610004Y-92136800D03*
X157610004Y-94676800D03*
X157610004Y-97216800D03*
X157610004Y-99756800D03*
X142370004Y-99756800D03*
X142370004Y-97216800D03*
X142370004Y-94676800D03*
X142370004Y-92136800D03*
X142370004Y-89596800D03*
X142370004Y-87056800D03*
X142370004Y-84516800D03*
X142370004Y-81976800D03*
X142370004Y-79436800D03*
X142370004Y-76896800D03*
X142370004Y-74356800D03*
X142370004Y-71816800D03*
D29*
X180667037Y-49563621D03*
X181632963Y-49304802D03*
X182598888Y-49045983D03*
X183564814Y-48787164D03*
D30*
X177263633Y-47680315D03*
X185570595Y-45454471D03*
D31*
X200437036Y-30022649D03*
X200178217Y-29056724D03*
X199919398Y-28090799D03*
X199660579Y-27124872D03*
D32*
X198553730Y-33426053D03*
X196327886Y-25119091D03*
D27*
X113081732Y-51028840D03*
X113081732Y-54428840D03*
D33*
X186627819Y-56972310D03*
X186627819Y-53572310D03*
D27*
X71560808Y-59870744D03*
X71560808Y-63270744D03*
D34*
X120083000Y-64577800D03*
X113783000Y-64577800D03*
X120083002Y-68377800D03*
X113783002Y-68377800D03*
D27*
X242797151Y-41986670D03*
X242797151Y-45386670D03*
D33*
X130661022Y-62254690D03*
X130661022Y-58854690D03*
D27*
X209100979Y-64768800D03*
X209100979Y-68168800D03*
X173446069Y-79864013D03*
X173446069Y-83264013D03*
D33*
X126263482Y-80720543D03*
X126263482Y-77320543D03*
X56861600Y-42365600D03*
X56861600Y-38965600D03*
X121860257Y-99243639D03*
X121860257Y-95843639D03*
D27*
X177849294Y-98387109D03*
X177849294Y-101787109D03*
X169048529Y-61398160D03*
X169048529Y-64798160D03*
D33*
X90608572Y-65133101D03*
X90608572Y-61733101D03*
D27*
X104255999Y-88028229D03*
X104255999Y-91428229D03*
X247305698Y-60385509D03*
X247305698Y-63785509D03*
X204969079Y-46232126D03*
X204969079Y-49632126D03*
D33*
X125797201Y-118610000D03*
X125797199Y-115210000D03*
X232271726Y-84350499D03*
X232271726Y-80950499D03*
D27*
X251146986Y-78927509D03*
X251146986Y-82327509D03*
D33*
X190819670Y-113674309D03*
X190819668Y-110274309D03*
X48562565Y-79784039D03*
X48562565Y-76384039D03*
X191279118Y-75449242D03*
X191279118Y-72049242D03*
X94740472Y-46596427D03*
X94740472Y-43196427D03*
X228148743Y-65814214D03*
X228148743Y-62414214D03*
D27*
X213223920Y-83306048D03*
X213223920Y-86706048D03*
D33*
X52403853Y-61242039D03*
X52403853Y-57842039D03*
X195453552Y-93971699D03*
X195453552Y-90571699D03*
D27*
X175325668Y-117386309D03*
X175325670Y-120786309D03*
X109287199Y-108812400D03*
X109287201Y-112212400D03*
X67437825Y-78407029D03*
X67437825Y-81807029D03*
D33*
X86485631Y-83670349D03*
X86485631Y-80270349D03*
X224042281Y-47252262D03*
X224042281Y-43852262D03*
M02*
