G04 #@! TF.GenerationSoftware,KiCad,Pcbnew,8.0.2-1*
G04 #@! TF.CreationDate,2024-09-10T00:57:15+08:00*
G04 #@! TF.ProjectId,34_monosplit,33345f6d-6f6e-46f7-9370-6c69742e6b69,rev?*
G04 #@! TF.SameCoordinates,Original*
G04 #@! TF.FileFunction,Legend,Top*
G04 #@! TF.FilePolarity,Positive*
%FSLAX46Y46*%
G04 Gerber Fmt 4.6, Leading zero omitted, Abs format (unit mm)*
G04 Created by KiCad (PCBNEW 8.0.2-1) date 2024-09-10 00:57:15*
%MOMM*%
%LPD*%
G01*
G04 APERTURE LIST*
%ADD10C,0.150000*%
%ADD11C,0.120000*%
G04 APERTURE END LIST*
D10*
X77454009Y-110074617D02*
X77629913Y-109736708D01*
X77608380Y-110273085D02*
X77068080Y-109578449D01*
X77068080Y-109578449D02*
X77854646Y-109800012D01*
X77279165Y-109172958D02*
X78030550Y-109462104D01*
X78030550Y-109462104D02*
X77627031Y-108999726D01*
X77627031Y-108999726D02*
X78171274Y-109191777D01*
X78171274Y-109191777D02*
X77595792Y-108564722D01*
X78399949Y-108752495D02*
X77736516Y-108294395D01*
X78611035Y-108347004D02*
X78073616Y-108389351D01*
X77947601Y-107888904D02*
X78115621Y-108556166D01*
X78544968Y-107566393D02*
X78629332Y-107486834D01*
X78629332Y-107486834D02*
X78678514Y-107474858D01*
X78678514Y-107474858D02*
X78759289Y-107484695D01*
X78759289Y-107484695D02*
X78854065Y-107550138D01*
X78854065Y-107550138D02*
X78899659Y-107627558D01*
X78899659Y-107627558D02*
X78913660Y-107683163D01*
X78913660Y-107683163D02*
X78910072Y-107772559D01*
X78910072Y-107772559D02*
X78769348Y-108042886D01*
X78769348Y-108042886D02*
X78105915Y-107584786D01*
X78105915Y-107584786D02*
X78229048Y-107348250D01*
X78229048Y-107348250D02*
X78295820Y-107302482D01*
X78295820Y-107302482D02*
X78345003Y-107290506D01*
X78345003Y-107290506D02*
X78425778Y-107300344D01*
X78425778Y-107300344D02*
X78488962Y-107343972D01*
X78488962Y-107343972D02*
X78534555Y-107421392D01*
X78534555Y-107421392D02*
X78548557Y-107476997D01*
X78548557Y-107476997D02*
X78544968Y-107566393D01*
X78544968Y-107566393D02*
X78421835Y-107802929D01*
X79167457Y-106618109D02*
X79448904Y-106077455D01*
X79951849Y-105276311D02*
X80127753Y-104938402D01*
X80106221Y-105474778D02*
X79565920Y-104780142D01*
X79565920Y-104780142D02*
X80352487Y-105001706D01*
X80058452Y-103833997D02*
X80809838Y-104123143D01*
X80809838Y-104123143D02*
X80406318Y-103660765D01*
X80406318Y-103660765D02*
X80950561Y-103852816D01*
X80950561Y-103852816D02*
X80375079Y-103225761D01*
X81288368Y-103121393D02*
X81284779Y-103210789D01*
X81284779Y-103210789D02*
X81214417Y-103345952D01*
X81214417Y-103345952D02*
X81147644Y-103391720D01*
X81147644Y-103391720D02*
X81066870Y-103381882D01*
X81066870Y-103381882D02*
X80814133Y-103207368D01*
X80814133Y-103207368D02*
X80768539Y-103129948D01*
X80768539Y-103129948D02*
X80772128Y-103040552D01*
X80772128Y-103040552D02*
X80842490Y-102905389D01*
X80842490Y-102905389D02*
X80909263Y-102859621D01*
X80909263Y-102859621D02*
X80990037Y-102869459D01*
X80990037Y-102869459D02*
X81053222Y-102913087D01*
X81053222Y-102913087D02*
X80940502Y-103294625D01*
X81495864Y-102805298D02*
X81053575Y-102499898D01*
X80832430Y-102347198D02*
X80846432Y-102402803D01*
X80846432Y-102402803D02*
X80895614Y-102390827D01*
X80895614Y-102390827D02*
X80881613Y-102335222D01*
X80881613Y-102335222D02*
X80832430Y-102347198D01*
X80832430Y-102347198D02*
X80895614Y-102390827D01*
X81671768Y-102467390D02*
X81229479Y-102161990D01*
X81355847Y-102249247D02*
X81310253Y-102171827D01*
X81310253Y-102171827D02*
X81296252Y-102116222D01*
X81296252Y-102116222D02*
X81299841Y-102026826D01*
X81299841Y-102026826D02*
X81335021Y-101959244D01*
X82058757Y-101723990D02*
X81395324Y-101265890D01*
X82027165Y-101702176D02*
X82023576Y-101791572D01*
X82023576Y-101791572D02*
X81953215Y-101926736D01*
X81953215Y-101926736D02*
X81886442Y-101972503D01*
X81886442Y-101972503D02*
X81837259Y-101984480D01*
X81837259Y-101984480D02*
X81756485Y-101974642D01*
X81756485Y-101974642D02*
X81566932Y-101843756D01*
X81566932Y-101843756D02*
X81521339Y-101766337D01*
X81521339Y-101766337D02*
X81507337Y-101710732D01*
X81507337Y-101710732D02*
X81510926Y-101621336D01*
X81510926Y-101621336D02*
X81581287Y-101486172D01*
X81581287Y-101486172D02*
X81648060Y-101440405D01*
X82516109Y-100845427D02*
X81852675Y-100387327D01*
X82727194Y-100439936D02*
X82189775Y-100482282D01*
X82063760Y-99981836D02*
X82231780Y-100649098D01*
X82994639Y-99843676D02*
X82991050Y-99933073D01*
X82991050Y-99933073D02*
X82920688Y-100068236D01*
X82920688Y-100068236D02*
X82853915Y-100114004D01*
X82853915Y-100114004D02*
X82773141Y-100104166D01*
X82773141Y-100104166D02*
X82520404Y-99929652D01*
X82520404Y-99929652D02*
X82474810Y-99852232D01*
X82474810Y-99852232D02*
X82478399Y-99762836D01*
X82478399Y-99762836D02*
X82548761Y-99627673D01*
X82548761Y-99627673D02*
X82615534Y-99581905D01*
X82615534Y-99581905D02*
X82696308Y-99591743D01*
X82696308Y-99591743D02*
X82759493Y-99635371D01*
X82759493Y-99635371D02*
X82646773Y-100016909D01*
X82724665Y-99289764D02*
X83254906Y-99426209D01*
X82900569Y-98951855D02*
X83254906Y-99426209D01*
X83254906Y-99426209D02*
X83377686Y-99602863D01*
X83377686Y-99602863D02*
X83391688Y-99658468D01*
X83391688Y-99658468D02*
X83388099Y-99747864D01*
X83483582Y-98986928D02*
X82820148Y-98528828D01*
X83072885Y-98703342D02*
X83076474Y-98613946D01*
X83076474Y-98613946D02*
X83146835Y-98478782D01*
X83146835Y-98478782D02*
X83213608Y-98433015D01*
X83213608Y-98433015D02*
X83262791Y-98421038D01*
X83262791Y-98421038D02*
X83343565Y-98430876D01*
X83343565Y-98430876D02*
X83533118Y-98561762D01*
X83533118Y-98561762D02*
X83578712Y-98639181D01*
X83578712Y-98639181D02*
X83592713Y-98694786D01*
X83592713Y-98694786D02*
X83589124Y-98784182D01*
X83589124Y-98784182D02*
X83518763Y-98919346D01*
X83518763Y-98919346D02*
X83451990Y-98965113D01*
X83870571Y-98243528D02*
X83803799Y-98289295D01*
X83803799Y-98289295D02*
X83754616Y-98301272D01*
X83754616Y-98301272D02*
X83673841Y-98291434D01*
X83673841Y-98291434D02*
X83484289Y-98160548D01*
X83484289Y-98160548D02*
X83438695Y-98083129D01*
X83438695Y-98083129D02*
X83424693Y-98027524D01*
X83424693Y-98027524D02*
X83428282Y-97938128D01*
X83428282Y-97938128D02*
X83481054Y-97836755D01*
X83481054Y-97836755D02*
X83547826Y-97790988D01*
X83547826Y-97790988D02*
X83597009Y-97779011D01*
X83597009Y-97779011D02*
X83677784Y-97788849D01*
X83677784Y-97788849D02*
X83867336Y-97919734D01*
X83867336Y-97919734D02*
X83912930Y-97997154D01*
X83912930Y-97997154D02*
X83926931Y-98052759D01*
X83926931Y-98052759D02*
X83923343Y-98142155D01*
X83923343Y-98142155D02*
X83870571Y-98243528D01*
X84310332Y-97398755D02*
X83962819Y-97158798D01*
X83962819Y-97158798D02*
X83882045Y-97148960D01*
X83882045Y-97148960D02*
X83815272Y-97194728D01*
X83815272Y-97194728D02*
X83744910Y-97329891D01*
X83744910Y-97329891D02*
X83741321Y-97419287D01*
X84278740Y-97376941D02*
X84275151Y-97466337D01*
X84275151Y-97466337D02*
X84187199Y-97635291D01*
X84187199Y-97635291D02*
X84120426Y-97681059D01*
X84120426Y-97681059D02*
X84039652Y-97671221D01*
X84039652Y-97671221D02*
X83976468Y-97627593D01*
X83976468Y-97627593D02*
X83930874Y-97550173D01*
X83930874Y-97550173D02*
X83934463Y-97460777D01*
X83934463Y-97460777D02*
X84022415Y-97291823D01*
X84022415Y-97291823D02*
X84026003Y-97202427D01*
X84486237Y-97060846D02*
X84043947Y-96755446D01*
X84170316Y-96842703D02*
X84124722Y-96765283D01*
X84124722Y-96765283D02*
X84110720Y-96709678D01*
X84110720Y-96709678D02*
X84114309Y-96620282D01*
X84114309Y-96620282D02*
X84149490Y-96552700D01*
X84873226Y-96317446D02*
X84209792Y-95859346D01*
X84841634Y-96295632D02*
X84838045Y-96385028D01*
X84838045Y-96385028D02*
X84767683Y-96520192D01*
X84767683Y-96520192D02*
X84700910Y-96565959D01*
X84700910Y-96565959D02*
X84651728Y-96577936D01*
X84651728Y-96577936D02*
X84570953Y-96568098D01*
X84570953Y-96568098D02*
X84381401Y-96437212D01*
X84381401Y-96437212D02*
X84335807Y-96359793D01*
X84335807Y-96359793D02*
X84321805Y-96304188D01*
X84321805Y-96304188D02*
X84325394Y-96214792D01*
X84325394Y-96214792D02*
X84395756Y-96079628D01*
X84395756Y-96079628D02*
X84462529Y-96033861D01*
X80298768Y-107894198D02*
X79635334Y-107436098D01*
X79635334Y-107436098D02*
X79776057Y-107165771D01*
X79776057Y-107165771D02*
X79842830Y-107120003D01*
X79842830Y-107120003D02*
X79892013Y-107108027D01*
X79892013Y-107108027D02*
X79972787Y-107117864D01*
X79972787Y-107117864D02*
X80067563Y-107183307D01*
X80067563Y-107183307D02*
X80113157Y-107260727D01*
X80113157Y-107260727D02*
X80127159Y-107316332D01*
X80127159Y-107316332D02*
X80123570Y-107405728D01*
X80123570Y-107405728D02*
X79982847Y-107676055D01*
X80816067Y-106735470D02*
X80830069Y-106791075D01*
X80830069Y-106791075D02*
X80808890Y-106914262D01*
X80808890Y-106914262D02*
X80773709Y-106981844D01*
X80773709Y-106981844D02*
X80689346Y-107061402D01*
X80689346Y-107061402D02*
X80590981Y-107085355D01*
X80590981Y-107085355D02*
X80510206Y-107075518D01*
X80510206Y-107075518D02*
X80366247Y-107022051D01*
X80366247Y-107022051D02*
X80271471Y-106956609D01*
X80271471Y-106956609D02*
X80162693Y-106835561D01*
X80162693Y-106835561D02*
X80117099Y-106758141D01*
X80117099Y-106758141D02*
X80089096Y-106646931D01*
X80089096Y-106646931D02*
X80110275Y-106523744D01*
X80110275Y-106523744D02*
X80145456Y-106456162D01*
X80145456Y-106456162D02*
X80229819Y-106376604D01*
X80229819Y-106376604D02*
X80279002Y-106364627D01*
X80813185Y-105998487D02*
X80897549Y-105918929D01*
X80897549Y-105918929D02*
X80946731Y-105906952D01*
X80946731Y-105906952D02*
X81027506Y-105916790D01*
X81027506Y-105916790D02*
X81122282Y-105982233D01*
X81122282Y-105982233D02*
X81167876Y-106059652D01*
X81167876Y-106059652D02*
X81181877Y-106115257D01*
X81181877Y-106115257D02*
X81178289Y-106204653D01*
X81178289Y-106204653D02*
X81037565Y-106474980D01*
X81037565Y-106474980D02*
X80374132Y-106016880D01*
X80374132Y-106016880D02*
X80497264Y-105780344D01*
X80497264Y-105780344D02*
X80564037Y-105734577D01*
X80564037Y-105734577D02*
X80613220Y-105722600D01*
X80613220Y-105722600D02*
X80693995Y-105732438D01*
X80693995Y-105732438D02*
X80757179Y-105776066D01*
X80757179Y-105776066D02*
X80802772Y-105853486D01*
X80802772Y-105853486D02*
X80816774Y-105909091D01*
X80816774Y-105909091D02*
X80813185Y-105998487D01*
X80813185Y-105998487D02*
X80690052Y-106235023D01*
X81846725Y-104920599D02*
X81183291Y-104462499D01*
X81815133Y-104898785D02*
X81811544Y-104988181D01*
X81811544Y-104988181D02*
X81741182Y-105123345D01*
X81741182Y-105123345D02*
X81674409Y-105169112D01*
X81674409Y-105169112D02*
X81625227Y-105181089D01*
X81625227Y-105181089D02*
X81544452Y-105171251D01*
X81544452Y-105171251D02*
X81354900Y-105040365D01*
X81354900Y-105040365D02*
X81309306Y-104962946D01*
X81309306Y-104962946D02*
X81295304Y-104907341D01*
X81295304Y-104907341D02*
X81298893Y-104817945D01*
X81298893Y-104817945D02*
X81369255Y-104682781D01*
X81369255Y-104682781D02*
X81436028Y-104637014D01*
X82131761Y-104290549D02*
X82128172Y-104379945D01*
X82128172Y-104379945D02*
X82057810Y-104515108D01*
X82057810Y-104515108D02*
X81991037Y-104560876D01*
X81991037Y-104560876D02*
X81910263Y-104551038D01*
X81910263Y-104551038D02*
X81657526Y-104376524D01*
X81657526Y-104376524D02*
X81611932Y-104299104D01*
X81611932Y-104299104D02*
X81615521Y-104209708D01*
X81615521Y-104209708D02*
X81685883Y-104074545D01*
X81685883Y-104074545D02*
X81752656Y-104028777D01*
X81752656Y-104028777D02*
X81833430Y-104038615D01*
X81833430Y-104038615D02*
X81896614Y-104082244D01*
X81896614Y-104082244D02*
X81783894Y-104463781D01*
X82290074Y-103986431D02*
X82356847Y-103940663D01*
X82356847Y-103940663D02*
X82427209Y-103805500D01*
X82427209Y-103805500D02*
X82430798Y-103716104D01*
X82430798Y-103716104D02*
X82385204Y-103638684D01*
X82385204Y-103638684D02*
X82353612Y-103616870D01*
X82353612Y-103616870D02*
X82272837Y-103607032D01*
X82272837Y-103607032D02*
X82206064Y-103652800D01*
X82206064Y-103652800D02*
X82153293Y-103754173D01*
X82153293Y-103754173D02*
X82086520Y-103799940D01*
X82086520Y-103799940D02*
X82005746Y-103790102D01*
X82005746Y-103790102D02*
X81974153Y-103768288D01*
X81974153Y-103768288D02*
X81928560Y-103690869D01*
X81928560Y-103690869D02*
X81932148Y-103601473D01*
X81932148Y-103601473D02*
X81984920Y-103500100D01*
X81984920Y-103500100D02*
X82051693Y-103454332D01*
X82638294Y-103400009D02*
X82196005Y-103094609D01*
X81974860Y-102941909D02*
X81988862Y-102997514D01*
X81988862Y-102997514D02*
X82038044Y-102985538D01*
X82038044Y-102985538D02*
X82024043Y-102929933D01*
X82024043Y-102929933D02*
X81974860Y-102941909D01*
X81974860Y-102941909D02*
X82038044Y-102985538D01*
X82530223Y-102452583D02*
X83067288Y-102823426D01*
X83067288Y-102823426D02*
X83112882Y-102900845D01*
X83112882Y-102900845D02*
X83126884Y-102956450D01*
X83126884Y-102956450D02*
X83123295Y-103045846D01*
X83123295Y-103045846D02*
X83070524Y-103147219D01*
X83070524Y-103147219D02*
X83003751Y-103192986D01*
X82940920Y-102736168D02*
X82937331Y-102825564D01*
X82937331Y-102825564D02*
X82866969Y-102960728D01*
X82866969Y-102960728D02*
X82800196Y-103006496D01*
X82800196Y-103006496D02*
X82751014Y-103018472D01*
X82751014Y-103018472D02*
X82670239Y-103008634D01*
X82670239Y-103008634D02*
X82480687Y-102877749D01*
X82480687Y-102877749D02*
X82435093Y-102800329D01*
X82435093Y-102800329D02*
X82421091Y-102744724D01*
X82421091Y-102744724D02*
X82424680Y-102655328D01*
X82424680Y-102655328D02*
X82495042Y-102520165D01*
X82495042Y-102520165D02*
X82561815Y-102474397D01*
X82706127Y-102114673D02*
X83148416Y-102420073D01*
X82769311Y-102158302D02*
X82755310Y-102102697D01*
X82755310Y-102102697D02*
X82758898Y-102013301D01*
X82758898Y-102013301D02*
X82811670Y-101911928D01*
X82811670Y-101911928D02*
X82878443Y-101866161D01*
X82878443Y-101866161D02*
X82959217Y-101875998D01*
X82959217Y-101875998D02*
X83306730Y-102115955D01*
X83591766Y-101485905D02*
X83588177Y-101575301D01*
X83588177Y-101575301D02*
X83517815Y-101710464D01*
X83517815Y-101710464D02*
X83451043Y-101756232D01*
X83451043Y-101756232D02*
X83370268Y-101746394D01*
X83370268Y-101746394D02*
X83117531Y-101571880D01*
X83117531Y-101571880D02*
X83071937Y-101494460D01*
X83071937Y-101494460D02*
X83075526Y-101405064D01*
X83075526Y-101405064D02*
X83145888Y-101269901D01*
X83145888Y-101269901D02*
X83212661Y-101224133D01*
X83212661Y-101224133D02*
X83293435Y-101233971D01*
X83293435Y-101233971D02*
X83356620Y-101277600D01*
X83356620Y-101277600D02*
X83243900Y-101659137D01*
X83957576Y-100865692D02*
X83294142Y-100407592D01*
X83925984Y-100843878D02*
X83922395Y-100933274D01*
X83922395Y-100933274D02*
X83852033Y-101068438D01*
X83852033Y-101068438D02*
X83785260Y-101114205D01*
X83785260Y-101114205D02*
X83736078Y-101126182D01*
X83736078Y-101126182D02*
X83655303Y-101116344D01*
X83655303Y-101116344D02*
X83465751Y-100985458D01*
X83465751Y-100985458D02*
X83420157Y-100908039D01*
X83420157Y-100908039D02*
X83406155Y-100852434D01*
X83406155Y-100852434D02*
X83409744Y-100763038D01*
X83409744Y-100763038D02*
X83480106Y-100627874D01*
X83480106Y-100627874D02*
X83546879Y-100582107D01*
X84414927Y-99987129D02*
X83751493Y-99529029D01*
X84004230Y-99703543D02*
X84007819Y-99614147D01*
X84007819Y-99614147D02*
X84078181Y-99478983D01*
X84078181Y-99478983D02*
X84144953Y-99433216D01*
X84144953Y-99433216D02*
X84194136Y-99421239D01*
X84194136Y-99421239D02*
X84274911Y-99431077D01*
X84274911Y-99431077D02*
X84464463Y-99561963D01*
X84464463Y-99561963D02*
X84510057Y-99639382D01*
X84510057Y-99639382D02*
X84524059Y-99694987D01*
X84524059Y-99694987D02*
X84520470Y-99784383D01*
X84520470Y-99784383D02*
X84450108Y-99919547D01*
X84450108Y-99919547D02*
X84383335Y-99965314D01*
X84271675Y-99107283D02*
X84801917Y-99243729D01*
X84447580Y-98769374D02*
X84801917Y-99243729D01*
X84801917Y-99243729D02*
X84924696Y-99420382D01*
X84924696Y-99420382D02*
X84938698Y-99475987D01*
X84938698Y-99475987D02*
X84935109Y-99565383D01*
X84754148Y-97602947D02*
X85228029Y-97930162D01*
X85228029Y-97930162D02*
X85305215Y-98029395D01*
X85305215Y-98029395D02*
X85333218Y-98140606D01*
X85333218Y-98140606D02*
X85312039Y-98263793D01*
X85312039Y-98263793D02*
X85276858Y-98331374D01*
X84894871Y-97332620D02*
X85646257Y-97621765D01*
X85646257Y-97621765D02*
X85242738Y-97159388D01*
X85242738Y-97159388D02*
X85786981Y-97351438D01*
X85786981Y-97351438D02*
X85211499Y-96724384D01*
X85952472Y-96868528D02*
X86001655Y-96856551D01*
X86001655Y-96856551D02*
X86015656Y-96912157D01*
X86015656Y-96912157D02*
X85966474Y-96924133D01*
X85966474Y-96924133D02*
X85952472Y-96868528D01*
X85952472Y-96868528D02*
X86015656Y-96912157D01*
X131309095Y-85893619D02*
X131309095Y-86703142D01*
X131309095Y-86703142D02*
X131356714Y-86798380D01*
X131356714Y-86798380D02*
X131404333Y-86846000D01*
X131404333Y-86846000D02*
X131499571Y-86893619D01*
X131499571Y-86893619D02*
X131690047Y-86893619D01*
X131690047Y-86893619D02*
X131785285Y-86846000D01*
X131785285Y-86846000D02*
X131832904Y-86798380D01*
X131832904Y-86798380D02*
X131880523Y-86703142D01*
X131880523Y-86703142D02*
X131880523Y-85893619D01*
X132309095Y-85988857D02*
X132356714Y-85941238D01*
X132356714Y-85941238D02*
X132451952Y-85893619D01*
X132451952Y-85893619D02*
X132690047Y-85893619D01*
X132690047Y-85893619D02*
X132785285Y-85941238D01*
X132785285Y-85941238D02*
X132832904Y-85988857D01*
X132832904Y-85988857D02*
X132880523Y-86084095D01*
X132880523Y-86084095D02*
X132880523Y-86179333D01*
X132880523Y-86179333D02*
X132832904Y-86322190D01*
X132832904Y-86322190D02*
X132261476Y-86893619D01*
X132261476Y-86893619D02*
X132880523Y-86893619D01*
X139526819Y-81427733D02*
X140241104Y-81427733D01*
X140241104Y-81427733D02*
X140383961Y-81475352D01*
X140383961Y-81475352D02*
X140479200Y-81570590D01*
X140479200Y-81570590D02*
X140526819Y-81713447D01*
X140526819Y-81713447D02*
X140526819Y-81808685D01*
X140526819Y-80427733D02*
X140526819Y-80999161D01*
X140526819Y-80713447D02*
X139526819Y-80713447D01*
X139526819Y-80713447D02*
X139669676Y-80808685D01*
X139669676Y-80808685D02*
X139764914Y-80903923D01*
X139764914Y-80903923D02*
X139812533Y-80999161D01*
X133772480Y-97038966D02*
X133820100Y-97086585D01*
X133820100Y-97086585D02*
X133867719Y-97229442D01*
X133867719Y-97229442D02*
X133867719Y-97324680D01*
X133867719Y-97324680D02*
X133820100Y-97467537D01*
X133820100Y-97467537D02*
X133724861Y-97562775D01*
X133724861Y-97562775D02*
X133629623Y-97610394D01*
X133629623Y-97610394D02*
X133439147Y-97658013D01*
X133439147Y-97658013D02*
X133296290Y-97658013D01*
X133296290Y-97658013D02*
X133105814Y-97610394D01*
X133105814Y-97610394D02*
X133010576Y-97562775D01*
X133010576Y-97562775D02*
X132915338Y-97467537D01*
X132915338Y-97467537D02*
X132867719Y-97324680D01*
X132867719Y-97324680D02*
X132867719Y-97229442D01*
X132867719Y-97229442D02*
X132915338Y-97086585D01*
X132915338Y-97086585D02*
X132962957Y-97038966D01*
X133867719Y-96086585D02*
X133867719Y-96658013D01*
X133867719Y-96372299D02*
X132867719Y-96372299D01*
X132867719Y-96372299D02*
X133010576Y-96467537D01*
X133010576Y-96467537D02*
X133105814Y-96562775D01*
X133105814Y-96562775D02*
X133153433Y-96658013D01*
X166047096Y-100413819D02*
X166237572Y-100413819D01*
X166237572Y-100413819D02*
X166332810Y-100461438D01*
X166332810Y-100461438D02*
X166428048Y-100556676D01*
X166428048Y-100556676D02*
X166475667Y-100747152D01*
X166475667Y-100747152D02*
X166475667Y-101080485D01*
X166475667Y-101080485D02*
X166428048Y-101270961D01*
X166428048Y-101270961D02*
X166332810Y-101366200D01*
X166332810Y-101366200D02*
X166237572Y-101413819D01*
X166237572Y-101413819D02*
X166047096Y-101413819D01*
X166047096Y-101413819D02*
X165951858Y-101366200D01*
X165951858Y-101366200D02*
X165856620Y-101270961D01*
X165856620Y-101270961D02*
X165809001Y-101080485D01*
X165809001Y-101080485D02*
X165809001Y-100747152D01*
X165809001Y-100747152D02*
X165856620Y-100556676D01*
X165856620Y-100556676D02*
X165951858Y-100461438D01*
X165951858Y-100461438D02*
X166047096Y-100413819D01*
X167380429Y-101413819D02*
X166904239Y-101413819D01*
X166904239Y-101413819D02*
X166904239Y-100413819D01*
X167713763Y-100890009D02*
X168047096Y-100890009D01*
X168189953Y-101413819D02*
X167713763Y-101413819D01*
X167713763Y-101413819D02*
X167713763Y-100413819D01*
X167713763Y-100413819D02*
X168189953Y-100413819D01*
X168618525Y-101413819D02*
X168618525Y-100413819D01*
X168618525Y-100413819D02*
X168856620Y-100413819D01*
X168856620Y-100413819D02*
X168999477Y-100461438D01*
X168999477Y-100461438D02*
X169094715Y-100556676D01*
X169094715Y-100556676D02*
X169142334Y-100651914D01*
X169142334Y-100651914D02*
X169189953Y-100842390D01*
X169189953Y-100842390D02*
X169189953Y-100985247D01*
X169189953Y-100985247D02*
X169142334Y-101175723D01*
X169142334Y-101175723D02*
X169094715Y-101270961D01*
X169094715Y-101270961D02*
X168999477Y-101366200D01*
X168999477Y-101366200D02*
X168856620Y-101413819D01*
X168856620Y-101413819D02*
X168618525Y-101413819D01*
X202833700Y-26330804D02*
X202882999Y-26514790D01*
X202882999Y-26514790D02*
X202861652Y-26619108D01*
X202861652Y-26619108D02*
X202794308Y-26735750D01*
X202794308Y-26735750D02*
X202622647Y-26831046D01*
X202622647Y-26831046D02*
X202300672Y-26917319D01*
X202300672Y-26917319D02*
X202104361Y-26920621D01*
X202104361Y-26920621D02*
X201987719Y-26853278D01*
X201987719Y-26853278D02*
X201917073Y-26773609D01*
X201917073Y-26773609D02*
X201867774Y-26589623D01*
X201867774Y-26589623D02*
X201889121Y-26485306D01*
X201889121Y-26485306D02*
X201956465Y-26368663D01*
X201956465Y-26368663D02*
X202128126Y-26273368D01*
X202128126Y-26273368D02*
X202450101Y-26187095D01*
X202450101Y-26187095D02*
X202646412Y-26183793D01*
X202646412Y-26183793D02*
X202763054Y-26251136D01*
X202763054Y-26251136D02*
X202833700Y-26330804D01*
X202212866Y-27877524D02*
X202089619Y-27417560D01*
X202089619Y-27417560D02*
X203055545Y-27158741D01*
X202805101Y-28063928D02*
X202891374Y-28385903D01*
X202422387Y-28659465D02*
X202299139Y-28199500D01*
X202299139Y-28199500D02*
X203265065Y-27940681D01*
X203265065Y-27940681D02*
X203388312Y-28400646D01*
X202533309Y-29073433D02*
X203499235Y-28814614D01*
X203499235Y-28814614D02*
X203560858Y-29044596D01*
X203560858Y-29044596D02*
X203551836Y-29194910D01*
X203551836Y-29194910D02*
X203484493Y-29311553D01*
X203484493Y-29311553D02*
X203404824Y-29382199D01*
X203404824Y-29382199D02*
X203233163Y-29477494D01*
X203233163Y-29477494D02*
X203095174Y-29514468D01*
X203095174Y-29514468D02*
X202898863Y-29517770D01*
X202898863Y-29517770D02*
X202794546Y-29496423D01*
X202794546Y-29496423D02*
X202677903Y-29429080D01*
X202677903Y-29429080D02*
X202594933Y-29303415D01*
X202594933Y-29303415D02*
X202533309Y-29073433D01*
X130652580Y-97038966D02*
X130700200Y-97086585D01*
X130700200Y-97086585D02*
X130747819Y-97229442D01*
X130747819Y-97229442D02*
X130747819Y-97324680D01*
X130747819Y-97324680D02*
X130700200Y-97467537D01*
X130700200Y-97467537D02*
X130604961Y-97562775D01*
X130604961Y-97562775D02*
X130509723Y-97610394D01*
X130509723Y-97610394D02*
X130319247Y-97658013D01*
X130319247Y-97658013D02*
X130176390Y-97658013D01*
X130176390Y-97658013D02*
X129985914Y-97610394D01*
X129985914Y-97610394D02*
X129890676Y-97562775D01*
X129890676Y-97562775D02*
X129795438Y-97467537D01*
X129795438Y-97467537D02*
X129747819Y-97324680D01*
X129747819Y-97324680D02*
X129747819Y-97229442D01*
X129747819Y-97229442D02*
X129795438Y-97086585D01*
X129795438Y-97086585D02*
X129843057Y-97038966D01*
X129843057Y-96658013D02*
X129795438Y-96610394D01*
X129795438Y-96610394D02*
X129747819Y-96515156D01*
X129747819Y-96515156D02*
X129747819Y-96277061D01*
X129747819Y-96277061D02*
X129795438Y-96181823D01*
X129795438Y-96181823D02*
X129843057Y-96134204D01*
X129843057Y-96134204D02*
X129938295Y-96086585D01*
X129938295Y-96086585D02*
X130033533Y-96086585D01*
X130033533Y-96086585D02*
X130176390Y-96134204D01*
X130176390Y-96134204D02*
X130747819Y-96705632D01*
X130747819Y-96705632D02*
X130747819Y-96086585D01*
X165902019Y-84683466D02*
X165425828Y-85016799D01*
X165902019Y-85254894D02*
X164902019Y-85254894D01*
X164902019Y-85254894D02*
X164902019Y-84873942D01*
X164902019Y-84873942D02*
X164949638Y-84778704D01*
X164949638Y-84778704D02*
X164997257Y-84731085D01*
X164997257Y-84731085D02*
X165092495Y-84683466D01*
X165092495Y-84683466D02*
X165235352Y-84683466D01*
X165235352Y-84683466D02*
X165330590Y-84731085D01*
X165330590Y-84731085D02*
X165378209Y-84778704D01*
X165378209Y-84778704D02*
X165425828Y-84873942D01*
X165425828Y-84873942D02*
X165425828Y-85254894D01*
X164997257Y-84302513D02*
X164949638Y-84254894D01*
X164949638Y-84254894D02*
X164902019Y-84159656D01*
X164902019Y-84159656D02*
X164902019Y-83921561D01*
X164902019Y-83921561D02*
X164949638Y-83826323D01*
X164949638Y-83826323D02*
X164997257Y-83778704D01*
X164997257Y-83778704D02*
X165092495Y-83731085D01*
X165092495Y-83731085D02*
X165187733Y-83731085D01*
X165187733Y-83731085D02*
X165330590Y-83778704D01*
X165330590Y-83778704D02*
X165902019Y-84350132D01*
X165902019Y-84350132D02*
X165902019Y-83731085D01*
X171134818Y-93916247D02*
X171134818Y-94392437D01*
X171134818Y-94392437D02*
X170134818Y-94392437D01*
X170611008Y-93582913D02*
X170611008Y-93249580D01*
X171134818Y-93106723D02*
X171134818Y-93582913D01*
X171134818Y-93582913D02*
X170134818Y-93582913D01*
X170134818Y-93582913D02*
X170134818Y-93106723D01*
X171134818Y-92678151D02*
X170134818Y-92678151D01*
X170134818Y-92678151D02*
X170134818Y-92440056D01*
X170134818Y-92440056D02*
X170182437Y-92297199D01*
X170182437Y-92297199D02*
X170277675Y-92201961D01*
X170277675Y-92201961D02*
X170372913Y-92154342D01*
X170372913Y-92154342D02*
X170563389Y-92106723D01*
X170563389Y-92106723D02*
X170706246Y-92106723D01*
X170706246Y-92106723D02*
X170896722Y-92154342D01*
X170896722Y-92154342D02*
X170991960Y-92201961D01*
X170991960Y-92201961D02*
X171087199Y-92297199D01*
X171087199Y-92297199D02*
X171134818Y-92440056D01*
X171134818Y-92440056D02*
X171134818Y-92678151D01*
X171134818Y-91154342D02*
X171134818Y-91725770D01*
X171134818Y-91440056D02*
X170134818Y-91440056D01*
X170134818Y-91440056D02*
X170277675Y-91535294D01*
X170277675Y-91535294D02*
X170372913Y-91630532D01*
X170372913Y-91630532D02*
X170420532Y-91725770D01*
X169534818Y-96661485D02*
X169534818Y-97232913D01*
X169534818Y-96947199D02*
X168534818Y-96947199D01*
X168534818Y-96947199D02*
X168677675Y-97042437D01*
X168677675Y-97042437D02*
X168772913Y-97137675D01*
X168772913Y-97137675D02*
X168820532Y-97232913D01*
X165952819Y-82194266D02*
X165476628Y-82527599D01*
X165952819Y-82765694D02*
X164952819Y-82765694D01*
X164952819Y-82765694D02*
X164952819Y-82384742D01*
X164952819Y-82384742D02*
X165000438Y-82289504D01*
X165000438Y-82289504D02*
X165048057Y-82241885D01*
X165048057Y-82241885D02*
X165143295Y-82194266D01*
X165143295Y-82194266D02*
X165286152Y-82194266D01*
X165286152Y-82194266D02*
X165381390Y-82241885D01*
X165381390Y-82241885D02*
X165429009Y-82289504D01*
X165429009Y-82289504D02*
X165476628Y-82384742D01*
X165476628Y-82384742D02*
X165476628Y-82765694D01*
X165952819Y-81241885D02*
X165952819Y-81813313D01*
X165952819Y-81527599D02*
X164952819Y-81527599D01*
X164952819Y-81527599D02*
X165095676Y-81622837D01*
X165095676Y-81622837D02*
X165190914Y-81718075D01*
X165190914Y-81718075D02*
X165238533Y-81813313D01*
D11*
X133016000Y-89758800D02*
X133016000Y-90648800D01*
X133016000Y-90648800D02*
X131166000Y-90648800D01*
X133031000Y-87528800D02*
X131181000Y-87528800D01*
X133031000Y-87528800D02*
X133031000Y-88418800D01*
X130791000Y-87538800D02*
X130551000Y-87208800D01*
X131031000Y-87208800D01*
X130791000Y-87538800D01*
G36*
X130791000Y-87538800D02*
G01*
X130551000Y-87208800D01*
X131031000Y-87208800D01*
X130791000Y-87538800D01*
G37*
D10*
X137707000Y-78344400D02*
G75*
G02*
X137557000Y-78344400I-75000J0D01*
G01*
X137557000Y-78344400D02*
G75*
G02*
X137707000Y-78344400I75000J0D01*
G01*
D11*
X132277900Y-91073800D02*
X132277900Y-95133800D01*
X134547900Y-91073800D02*
X132277900Y-91073800D01*
X134547900Y-95133800D02*
X134547900Y-91073800D01*
X166169477Y-110078999D02*
X166169478Y-102399000D01*
X166169477Y-112678999D02*
X166169476Y-111349000D01*
X167499477Y-112679001D02*
X166169477Y-112678999D01*
X168829477Y-110079000D02*
X166169477Y-110078999D01*
X168829477Y-110079000D02*
X168829478Y-102399001D01*
X168829478Y-102399001D02*
X166169478Y-102399000D01*
X204311952Y-30050702D02*
X202324223Y-22632392D01*
X204893586Y-21943934D02*
X202324223Y-22632392D01*
X204984882Y-32562109D02*
X204640652Y-31277429D01*
X206269564Y-32217881D02*
X204984882Y-32562109D01*
X206881315Y-29362244D02*
X204311952Y-30050702D01*
X206881315Y-29362244D02*
X204893586Y-21943934D01*
X129158000Y-91073800D02*
X129158000Y-95133800D01*
X131428000Y-91073800D02*
X129158000Y-91073800D01*
X131428000Y-95133800D02*
X131428000Y-91073800D01*
X161493736Y-83657600D02*
X162947864Y-83657600D01*
X161493736Y-85477600D02*
X162947864Y-85477600D01*
X167930000Y-96447200D02*
X167930000Y-89147200D01*
X173429998Y-89147200D02*
X172279999Y-89147199D01*
X173429998Y-96447200D02*
X173429998Y-89147200D01*
X161519736Y-81117600D02*
X162973864Y-81117600D01*
X161519736Y-82937600D02*
X162973864Y-82937600D01*
X158636004Y-72830300D02*
X156604004Y-72830300D01*
X156604003Y-70798300D01*
X158636004Y-70798300D01*
X158636004Y-72830300D01*
M02*
