G04 #@! TF.GenerationSoftware,KiCad,Pcbnew,8.0.2-1*
G04 #@! TF.CreationDate,2024-09-10T00:57:15+08:00*
G04 #@! TF.ProjectId,34_monosplit,33345f6d-6f6e-46f7-9370-6c69742e6b69,rev?*
G04 #@! TF.SameCoordinates,Original*
G04 #@! TF.FileFunction,Profile,NP*
%FSLAX46Y46*%
G04 Gerber Fmt 4.6, Leading zero omitted, Abs format (unit mm)*
G04 Created by KiCad (PCBNEW 8.0.2-1) date 2024-09-10 00:57:15*
%MOMM*%
%LPD*%
G01*
G04 APERTURE LIST*
G04 #@! TA.AperFunction,Profile*
%ADD10C,0.100000*%
G04 #@! TD*
G04 APERTURE END LIST*
D10*
X157360000Y-68001800D02*
X156726400Y-68001800D01*
X248875544Y-91557709D02*
G75*
G02*
X245944437Y-89580666I-477144J2453909D01*
G01*
X131136116Y-116495126D02*
G75*
G02*
X131579621Y-116226019I443484J-230874D01*
G01*
X241155535Y-27331540D02*
X199974037Y-36461258D01*
X76496836Y-114568810D02*
G75*
G02*
X75221046Y-110522529I1385164J2661010D01*
G01*
X230986257Y-90868125D02*
X231008121Y-90966748D01*
X69013743Y-90868125D02*
G75*
G02*
X69490841Y-90564169I390657J-86775D01*
G01*
X28081801Y-84022520D02*
X38713665Y-29326322D01*
X54055546Y-89580663D02*
G75*
G02*
X51124452Y-91557729I-2454046J476963D01*
G01*
X161300400Y-49669603D02*
X157962223Y-62127842D01*
X167650093Y-31043313D02*
G75*
G02*
X168003637Y-30430906I483007J129413D01*
G01*
X142140000Y-62904300D02*
X142140000Y-67501800D01*
X121660597Y-134697428D02*
X131136116Y-116495126D01*
X224778950Y-110522531D02*
G75*
G02*
X223503162Y-114568806I-2660950J-1385269D01*
G01*
X150000000Y-116226000D02*
X131579621Y-116226000D01*
X217529386Y-96596250D02*
G75*
G02*
X217292647Y-95987459I2660614J1385050D01*
G01*
X100608703Y-37910267D02*
G75*
G02*
X100321695Y-37437317I103497J386367D01*
G01*
X82707360Y-95987461D02*
X83229817Y-94037625D01*
X136578280Y-47548284D02*
X100608703Y-37910267D01*
X233155044Y-92334491D02*
X245929263Y-89502515D01*
X167400559Y-37839470D02*
X168849452Y-37451240D01*
X233155044Y-92334491D02*
G75*
G02*
X231008163Y-90966739I-389644J1757191D01*
G01*
X224778950Y-110522531D02*
X217529386Y-96596250D01*
X156226400Y-101161800D02*
G75*
G02*
X155726400Y-101661800I-500000J0D01*
G01*
X245929263Y-89502515D02*
X245944454Y-89580663D01*
X38713665Y-29326322D02*
G75*
G02*
X42230974Y-26953865I2944945J-572518D01*
G01*
X142037777Y-62127842D02*
X138699600Y-49669603D01*
X100025963Y-36461258D02*
G75*
G02*
X100405894Y-37057629I-108363J-488242D01*
G01*
X244207969Y-29589870D02*
X244150701Y-29295255D01*
X199678288Y-37437321D02*
X199594110Y-37057628D01*
X168953472Y-43635026D02*
X208073476Y-33152851D01*
X156226400Y-101161800D02*
X156226400Y-68501800D01*
X182385682Y-135973214D02*
X223503164Y-114568810D01*
X54070737Y-89502515D02*
X66844956Y-92334491D01*
X208676551Y-25744326D02*
X207227667Y-26132552D01*
X144273600Y-101661800D02*
G75*
G02*
X143773600Y-101161800I0J500000D01*
G01*
X216770183Y-94037625D02*
X217292640Y-95987461D01*
X261286335Y-29326322D02*
X271918199Y-84022520D01*
X241155535Y-27331540D02*
G75*
G02*
X244150713Y-29295253I540965J-2440960D01*
G01*
X257769026Y-26953867D02*
X244207969Y-29589870D01*
X157860000Y-62904300D02*
G75*
G02*
X157962226Y-62127843I2999900J0D01*
G01*
X182385682Y-135973214D02*
G75*
G02*
X178339405Y-134697427I-1385282J2660914D01*
G01*
X216770183Y-94037625D02*
G75*
G02*
X217069986Y-93543621I386317J103525D01*
G01*
X169203007Y-36838867D02*
X167650093Y-31043313D01*
X157860000Y-67501800D02*
G75*
G02*
X157360000Y-68001800I-500000J0D01*
G01*
X68991879Y-90966748D02*
G75*
G02*
X66844937Y-92334576I-1757379J389548D01*
G01*
X121660597Y-134697428D02*
G75*
G02*
X117614336Y-135973179I-2660997J1385228D01*
G01*
X82707360Y-95987461D02*
G75*
G02*
X82470608Y-96596247I-2896660J776061D01*
G01*
X55849299Y-29295255D02*
X55792031Y-29589870D01*
X206874116Y-26744925D02*
X208427029Y-32540480D01*
X55849299Y-29295255D02*
G75*
G02*
X58844461Y-27331556I2454001J-476945D01*
G01*
X143273600Y-68001800D02*
X142640000Y-68001800D01*
X30454256Y-87539829D02*
G75*
G02*
X28081798Y-84022519I572344J2944829D01*
G01*
X144273600Y-101661800D02*
X150000000Y-101661800D01*
X169203007Y-36838867D02*
G75*
G02*
X168849467Y-37451298I-483007J-129433D01*
G01*
X157860000Y-67501800D02*
X157860000Y-62904300D01*
X230509162Y-90564182D02*
G75*
G02*
X230986254Y-90868126I86638J-390418D01*
G01*
X208427029Y-32540480D02*
G75*
G02*
X208073487Y-33152891I-482829J-129520D01*
G01*
X142640000Y-68001800D02*
G75*
G02*
X142140000Y-67501800I0J500000D01*
G01*
X257769026Y-26953867D02*
G75*
G02*
X261286314Y-29326326I572374J-2944933D01*
G01*
X136578280Y-47548284D02*
G75*
G02*
X138699611Y-49669600I-776480J-2897816D01*
G01*
X100405890Y-37057628D02*
X100321712Y-37437321D01*
X207123635Y-19948771D02*
G75*
G02*
X208676578Y-25744426I776465J-2897829D01*
G01*
X143773600Y-68501800D02*
X143773600Y-101161800D01*
X68991879Y-90966748D02*
X69013743Y-90868125D01*
X55792031Y-29589870D02*
X42230974Y-26953867D01*
X76496836Y-114568810D02*
X117614318Y-135973214D01*
X54055546Y-89580663D02*
X54070737Y-89502515D01*
X168420379Y-116226000D02*
G75*
G02*
X168863853Y-116495142I21J-499900D01*
G01*
X150000000Y-101661800D02*
X155726400Y-101661800D01*
X199594110Y-37057628D02*
G75*
G02*
X199974045Y-36461294I488090J108228D01*
G01*
X168953472Y-43635026D02*
G75*
G02*
X167400570Y-37839509I-776572J2897726D01*
G01*
X161300400Y-49669603D02*
G75*
G02*
X163421723Y-47548295I2897800J-776497D01*
G01*
X178339403Y-134697428D02*
X168863884Y-116495126D01*
X199391297Y-37910267D02*
X163421720Y-47548284D01*
X156226400Y-68501800D02*
G75*
G02*
X156726400Y-68001800I500000J0D01*
G01*
X271918199Y-84022520D02*
G75*
G02*
X269545743Y-87539826I-2944799J-572480D01*
G01*
X82930024Y-93543578D02*
G75*
G02*
X83229741Y-94037605I-86524J-390422D01*
G01*
X69490838Y-90564182D02*
X82930024Y-93543578D01*
X30454256Y-87539829D02*
X51124456Y-91557709D01*
X82470614Y-96596250D02*
X75221050Y-110522531D01*
X217069976Y-93543578D02*
X230509162Y-90564182D01*
X100025963Y-36461258D02*
X58844465Y-27331540D01*
X143273600Y-68001800D02*
G75*
G02*
X143773600Y-68501800I0J-500000D01*
G01*
X248875544Y-91557709D02*
X269545744Y-87539829D01*
X142037777Y-62127842D02*
G75*
G02*
X142140010Y-62904300I-2897477J-776458D01*
G01*
X207123635Y-19948771D02*
X168003646Y-30430940D01*
X150000000Y-116226000D02*
X168420379Y-116226000D01*
X206874116Y-26744925D02*
G75*
G02*
X207227659Y-26132520I482984J129425D01*
G01*
X199678288Y-37437321D02*
G75*
G02*
X199391292Y-37910250I-390488J-86579D01*
G01*
M02*
