M48
; DRILL file {KiCad 8.0.2-1} date 2024-09-10T00:57:13+0800
; FORMAT={-:-/ absolute / metric / decimal}
; #@! TF.CreationDate,2024-09-10T00:57:13+08:00
; #@! TF.GenerationSoftware,Kicad,Pcbnew,8.0.2-1
; #@! TF.FileFunction,NonPlated,1,2,NPTH
FMAT,2
METRIC
; #@! TA.AperFunction,NonPlated,NPTH,ComponentDrill
T1C1.900
; #@! TA.AperFunction,NonPlated,NPTH,ComponentDrill
T2C3.000
; #@! TA.AperFunction,NonPlated,NPTH,ComponentDrill
T3C3.200
; #@! TA.AperFunction,NonPlated,NPTH,ComponentDrill
T4C4.100
%
G90
G05
T1
X35.915Y-76.173
X39.921Y-57.714
X44.104Y-38.884
X45.888Y-78.112
X49.895Y-59.652
X54.023Y-41.083
X54.906Y-77.909
X59.018Y-59.36
X63.131Y-40.811
X64.825Y-80.108
X68.938Y-61.559
X73.05Y-43.01
X73.953Y-79.776
X78.065Y-61.226
X82.178Y-42.677
X83.872Y-81.975
X87.984Y-63.425
X91.8Y-86.858
X92.097Y-44.876
X94.064Y-109.502
X96.102Y-68.337
X100.758Y-49.856
X101.614Y-89.488
X103.076Y-114.194
X105.916Y-70.966
X109.42Y-94.598
X110.571Y-52.485
X110.841Y-119.575
X113.921Y-76.142
X118.333Y-57.672
X119.234Y-97.228
X119.853Y-124.266
X123.735Y-78.771
X128.147Y-60.301
X171.853Y-60.301
X176.265Y-78.771
X180.147Y-124.266
X180.766Y-97.228
X181.667Y-57.672
X186.079Y-76.142
X189.159Y-119.575
X189.429Y-52.485
X190.58Y-94.598
X194.084Y-70.966
X196.924Y-114.194
X198.386Y-89.488
X199.242Y-49.856
X203.898Y-68.337
X205.936Y-109.502
X207.903Y-44.876
X208.2Y-86.858
X212.016Y-63.425
X216.128Y-81.975
X217.822Y-42.677
X221.935Y-61.226
X226.047Y-79.776
X226.95Y-43.01
X231.062Y-61.559
X235.175Y-80.108
X236.869Y-40.811
X240.982Y-59.36
X245.094Y-77.909
X245.977Y-41.083
X250.105Y-59.652
X254.112Y-78.112
X255.896Y-38.884
X260.079Y-57.714
X264.085Y-76.173
T2
X37.646Y-73.922
X41.652Y-55.463
X44.364Y-72.64
X45.894Y-36.679
X48.37Y-54.181
X52.643Y-35.574
X56.696Y-75.704
X60.808Y-57.155
X63.445Y-74.599
X64.92Y-38.606
X67.557Y-56.05
X71.669Y-37.5
X75.743Y-77.571
X79.855Y-59.021
X82.492Y-76.466
X83.967Y-40.472
X86.604Y-57.916
X90.717Y-39.366
X93.684Y-84.734
X96.363Y-107.836
X97.986Y-66.212
X100.475Y-83.924
X102.642Y-47.731
X103.169Y-108.515
X104.777Y-65.402
X109.433Y-46.921
X111.304Y-92.473
X113.14Y-117.909
X115.806Y-74.017
X118.095Y-91.663
X119.945Y-118.588
X120.217Y-55.547
X122.597Y-73.207
X127.008Y-54.737
X172.422Y-57.519
X176.834Y-75.989
X177.899Y-53.422
X180.101Y-121.427
X181.336Y-94.445
X182.31Y-71.892
X184.561Y-116.242
X186.812Y-90.348
X189.998Y-49.703
X194.654Y-68.184
X195.474Y-45.606
X196.878Y-111.354
X198.956Y-86.706
X200.13Y-64.087
X201.337Y-106.169
X204.432Y-82.609
X208.593Y-42.121
X212.706Y-60.671
X214.243Y-38.267
X216.818Y-79.22
X218.355Y-56.816
X222.468Y-75.366
X227.64Y-40.255
X231.753Y-58.804
X233.29Y-36.401
X235.865Y-77.354
X237.402Y-54.95
X241.515Y-73.499
X246.667Y-38.328
X250.868Y-56.917
X252.317Y-34.474
X254.874Y-75.376
X256.616Y-53.212
X260.623Y-71.671
T3
X49.838Y-87.751
X59.526Y-31.293
X120.249Y-110.411
X128.25Y-48.816
X138.0Y-64.189
X138.0Y-105.758
X138.0Y-90.162
X162.0Y-90.136
X162.0Y-64.215
X162.0Y-105.785
X171.75Y-48.816
X179.751Y-110.411
X240.474Y-31.293
X250.162Y-87.751
T4
X40.901Y-77.142
X44.908Y-58.683
X49.064Y-39.984
X59.866Y-79.009
X63.978Y-60.459
X68.09Y-41.91
X78.912Y-80.876
X83.025Y-62.326
X87.137Y-43.776
X96.707Y-88.173
X98.57Y-111.848
X101.009Y-69.652
X105.664Y-51.171
X114.327Y-95.913
X115.347Y-121.921
X118.828Y-77.457
X123.24Y-58.986
X176.76Y-58.986
X181.172Y-77.457
X184.653Y-121.921
X185.673Y-95.913
X194.336Y-51.171
X198.991Y-69.652
X201.43Y-111.848
X203.293Y-88.173
X212.863Y-43.776
X216.975Y-62.326
X221.088Y-80.876
X231.91Y-41.91
X236.022Y-60.459
X240.134Y-79.009
X250.936Y-39.984
X255.092Y-58.683
X259.099Y-77.142
M30
