G04 #@! TF.GenerationSoftware,KiCad,Pcbnew,8.0.3*
G04 #@! TF.CreationDate,2024-08-29T14:39:33+08:00*
G04 #@! TF.ProjectId,awkb_monosplit,61776b62-5f6d-46f6-9e6f-73706c69742e,rev?*
G04 #@! TF.SameCoordinates,Original*
G04 #@! TF.FileFunction,Profile,NP*
%FSLAX46Y46*%
G04 Gerber Fmt 4.6, Leading zero omitted, Abs format (unit mm)*
G04 Created by KiCad (PCBNEW 8.0.3) date 2024-08-29 14:39:33*
%MOMM*%
%LPD*%
G01*
G04 APERTURE LIST*
G04 #@! TA.AperFunction,Profile*
%ADD10C,0.100000*%
G04 #@! TD*
G04 #@! TA.AperFunction,Profile*
%ADD11C,0.150000*%
G04 #@! TD*
G04 APERTURE END LIST*
D10*
X155124800Y-66266753D02*
X156469541Y-66266753D01*
X248875544Y-91557709D02*
G75*
G02*
X245944437Y-89580666I-477144J2453909D01*
G01*
X131136116Y-116495126D02*
G75*
G02*
X131579621Y-116226019I443484J-230874D01*
G01*
X241155535Y-27331540D02*
X199974037Y-36461258D01*
D11*
X257831951Y-113218800D02*
X269831854Y-113218800D01*
D10*
X76496836Y-114568810D02*
G75*
G02*
X75221046Y-110522529I1385164J2661010D01*
G01*
X230986257Y-90868125D02*
X231008121Y-90966748D01*
X69013743Y-90868125D02*
G75*
G02*
X69490841Y-90564169I390657J-86775D01*
G01*
X28081801Y-84022520D02*
X38713665Y-29326322D01*
X54055546Y-89580663D02*
G75*
G02*
X51124452Y-91557729I-2454046J476963D01*
G01*
X161300400Y-49669603D02*
X156952503Y-65896162D01*
X167243837Y-31813762D02*
G75*
G02*
X167597387Y-31201377I483063J129362D01*
G01*
D11*
X269831854Y-113218800D02*
G75*
G02*
X273695527Y-116183532I-112J-4000103D01*
G01*
D10*
X121660597Y-134697428D02*
X131136116Y-116495126D01*
X224778950Y-110522531D02*
G75*
G02*
X223503162Y-114568806I-2660950J-1385269D01*
G01*
X150000000Y-116226000D02*
X131579621Y-116226000D01*
X217529386Y-96596250D02*
G75*
G02*
X217292647Y-95987459I2660614J1385050D01*
G01*
X100608703Y-37910267D02*
G75*
G02*
X100321695Y-37437317I103497J386367D01*
G01*
D11*
X240506884Y-138719831D02*
G75*
G02*
X240506886Y-121637769I31875558J8541028D01*
G01*
D10*
X82707360Y-95987461D02*
X83229817Y-94037625D01*
X136578280Y-47548284D02*
X100608703Y-37910267D01*
X233155044Y-92334491D02*
X245929263Y-89502515D01*
X166994303Y-38609919D02*
X168443197Y-38221688D01*
X233155044Y-92334491D02*
G75*
G02*
X231008163Y-90966739I-389644J1757191D01*
G01*
D11*
X241968345Y-116183524D02*
G75*
G02*
X245832048Y-113218808I3863697J-1035279D01*
G01*
X240506884Y-121637769D02*
X241968345Y-116183524D01*
D10*
X224778950Y-110522531D02*
X217529386Y-96596250D01*
X143530459Y-66266753D02*
X144875200Y-66266753D01*
X245929263Y-89502515D02*
X245944454Y-89580663D01*
X38713665Y-29326322D02*
G75*
G02*
X42230974Y-26953865I2944945J-572518D01*
G01*
D11*
X273695557Y-144174076D02*
G75*
G02*
X269831854Y-147138791I-3863615J1035173D01*
G01*
D10*
X100025963Y-36461258D02*
G75*
G02*
X100405894Y-37057629I-108363J-488242D01*
G01*
X244207969Y-29589870D02*
X244150701Y-29295255D01*
X199678288Y-37437321D02*
X199594110Y-37057628D01*
X168547217Y-44405474D02*
X207667220Y-33923300D01*
X154624800Y-66766753D02*
X154624800Y-72766753D01*
D11*
X245832048Y-147138800D02*
G75*
G02*
X241968320Y-144174083I-106J3999897D01*
G01*
D10*
X182385682Y-135973214D02*
X223503164Y-114568810D01*
X54070737Y-89502515D02*
X66844956Y-92334491D01*
X208270295Y-26514774D02*
X206821412Y-26903000D01*
X154624800Y-72766753D02*
G75*
G02*
X154124800Y-73266800I-500000J-47D01*
G01*
X216770183Y-94037625D02*
X217292640Y-95987461D01*
X261286335Y-29326322D02*
X271918199Y-84022520D01*
X241155535Y-27331540D02*
G75*
G02*
X244150713Y-29295253I540965J-2440960D01*
G01*
X257769026Y-26953867D02*
X244207969Y-29589870D01*
X182385682Y-135973214D02*
G75*
G02*
X178339405Y-134697427I-1385282J2660914D01*
G01*
X216770183Y-94037625D02*
G75*
G02*
X217069986Y-93543621I386317J103525D01*
G01*
X168796751Y-37609316D02*
X167243837Y-31813762D01*
X68991879Y-90966748D02*
G75*
G02*
X66844937Y-92334576I-1757379J389548D01*
G01*
X156952503Y-65896162D02*
G75*
G02*
X156469541Y-66266707I-482803J129262D01*
G01*
X121660597Y-134697428D02*
G75*
G02*
X117614336Y-135973179I-2660997J1385228D01*
G01*
X82707360Y-95987461D02*
G75*
G02*
X82470608Y-96596247I-2896660J776061D01*
G01*
D11*
X245832048Y-113218800D02*
X257831951Y-113218800D01*
D10*
X143047497Y-65896162D02*
X138699600Y-49669603D01*
X154624800Y-66766753D02*
G75*
G02*
X155124800Y-66266800I500000J-47D01*
G01*
X55849299Y-29295255D02*
X55792031Y-29589870D01*
X206467860Y-27515373D02*
X208020774Y-33310928D01*
X55849299Y-29295255D02*
G75*
G02*
X58844461Y-27331556I2454001J-476945D01*
G01*
X30454256Y-87539829D02*
G75*
G02*
X28081798Y-84022519I572344J2944829D01*
G01*
X168796751Y-37609316D02*
G75*
G02*
X168443205Y-38221719I-483051J-129384D01*
G01*
X230509162Y-90564182D02*
G75*
G02*
X230986254Y-90868126I86638J-390418D01*
G01*
X208020774Y-33310928D02*
G75*
G02*
X207667224Y-33923314I-482874J-129472D01*
G01*
X257769026Y-26953867D02*
G75*
G02*
X261286314Y-29326326I572374J-2944933D01*
G01*
D11*
X245832048Y-147138800D02*
X257831951Y-147138800D01*
D10*
X136578280Y-47548284D02*
G75*
G02*
X138699611Y-49669600I-776480J-2897816D01*
G01*
X143530459Y-66266753D02*
G75*
G02*
X143047518Y-65896156I141J500153D01*
G01*
X100405890Y-37057628D02*
X100321712Y-37437321D01*
X145375200Y-72766753D02*
X145375200Y-66766753D01*
D11*
X275157018Y-121637769D02*
G75*
G02*
X275157019Y-138719831I-31875576J-8541034D01*
G01*
D10*
X144875200Y-66266753D02*
G75*
G02*
X145375147Y-66766753I0J-499947D01*
G01*
X206717380Y-20719220D02*
G75*
G02*
X208270291Y-26514761I776420J-2897780D01*
G01*
D11*
X257831951Y-147138800D02*
X269831854Y-147138800D01*
D10*
X68991879Y-90966748D02*
X69013743Y-90868125D01*
X55792031Y-29589870D02*
X42230974Y-26953867D01*
X76496836Y-114568810D02*
X117614318Y-135973214D01*
X54055546Y-89580663D02*
X54070737Y-89502515D01*
X168420379Y-116226000D02*
G75*
G02*
X168863853Y-116495142I21J-499900D01*
G01*
X150000000Y-73266753D02*
X154124800Y-73266753D01*
X199594110Y-37057628D02*
G75*
G02*
X199974045Y-36461294I488090J108228D01*
G01*
X168547217Y-44405474D02*
G75*
G02*
X166994297Y-38609896I-776517J2897774D01*
G01*
X161300400Y-49669603D02*
G75*
G02*
X163421723Y-47548295I2897800J-776497D01*
G01*
X178339403Y-134697428D02*
X168863884Y-116495126D01*
X199391297Y-37910267D02*
X163421720Y-47548284D01*
D11*
X240506884Y-138719831D02*
X241968345Y-144174076D01*
D10*
X271918199Y-84022520D02*
G75*
G02*
X269545743Y-87539826I-2944799J-572480D01*
G01*
X82930024Y-93543578D02*
G75*
G02*
X83229741Y-94037605I-86524J-390422D01*
G01*
X145875200Y-73266753D02*
X150000000Y-73266753D01*
D11*
X273695557Y-116183524D02*
X275157018Y-121637769D01*
D10*
X69490838Y-90564182D02*
X82930024Y-93543578D01*
X30454256Y-87539829D02*
X51124456Y-91557709D01*
X82470614Y-96596250D02*
X75221050Y-110522531D01*
X217069976Y-93543578D02*
X230509162Y-90564182D01*
X100025963Y-36461258D02*
X58844465Y-27331540D01*
D11*
X273695557Y-144174076D02*
X275157018Y-138719831D01*
D10*
X248875544Y-91557709D02*
X269545744Y-87539829D01*
X206717380Y-20719220D02*
X167597390Y-31201389D01*
X150000000Y-116226000D02*
X168420379Y-116226000D01*
X145875200Y-73266753D02*
G75*
G02*
X145375147Y-72766753I0J500053D01*
G01*
X206467860Y-27515373D02*
G75*
G02*
X206821410Y-26902991I483040J129373D01*
G01*
X199678288Y-37437321D02*
G75*
G02*
X199391292Y-37910250I-390488J-86579D01*
G01*
M02*
