G04 #@! TF.GenerationSoftware,KiCad,Pcbnew,8.0.3*
G04 #@! TF.CreationDate,2024-08-29T14:39:33+08:00*
G04 #@! TF.ProjectId,awkb_monosplit,61776b62-5f6d-46f6-9e6f-73706c69742e,rev?*
G04 #@! TF.SameCoordinates,Original*
G04 #@! TF.FileFunction,Legend,Top*
G04 #@! TF.FilePolarity,Positive*
%FSLAX46Y46*%
G04 Gerber Fmt 4.6, Leading zero omitted, Abs format (unit mm)*
G04 Created by KiCad (PCBNEW 8.0.3) date 2024-08-29 14:39:33*
%MOMM*%
%LPD*%
G01*
G04 APERTURE LIST*
%ADD10C,0.150000*%
%ADD11C,0.125000*%
%ADD12C,0.120000*%
G04 APERTURE END LIST*
D10*
X274525855Y-130179676D02*
G75*
G02*
X251325855Y-130179676I-11600000J0D01*
G01*
X251325855Y-130179676D02*
G75*
G02*
X274525855Y-130179676I11600000J0D01*
G01*
D11*
X215770674Y-95969313D02*
X215269800Y-96306552D01*
X215269800Y-96306552D02*
X215727455Y-96257551D01*
X215727455Y-96257551D02*
X215375343Y-96509297D01*
X215375343Y-96509297D02*
X216008144Y-96425490D01*
X215546849Y-96838758D02*
X216113687Y-96628235D01*
X215665584Y-97066847D02*
X215962499Y-96956573D01*
X215962499Y-96956573D02*
X216003291Y-96911180D01*
X216003291Y-96911180D02*
X216003898Y-96850468D01*
X216003898Y-96850468D02*
X215964319Y-96774439D01*
X215964319Y-96774439D02*
X215910941Y-96733777D01*
X215910941Y-96733777D02*
X215870756Y-96718459D01*
X216149019Y-97129243D02*
X215837091Y-97396308D01*
X216280947Y-97382675D02*
X215837091Y-97396308D01*
X215837091Y-97396308D02*
X215675744Y-97395746D01*
X215675744Y-97395746D02*
X215635559Y-97380428D01*
X215635559Y-97380428D02*
X215582181Y-97339766D01*
X216760135Y-97870050D02*
X216259261Y-98207289D01*
X216259261Y-98207289D02*
X216716917Y-98158288D01*
X216716917Y-98158288D02*
X216364804Y-98410035D01*
X216364804Y-98410035D02*
X216997606Y-98326227D01*
X216668845Y-98932216D02*
X216615467Y-98891555D01*
X216615467Y-98891555D02*
X216562696Y-98790182D01*
X216562696Y-98790182D02*
X216563303Y-98729471D01*
X216563303Y-98729471D02*
X216604094Y-98684078D01*
X216604094Y-98684078D02*
X216820032Y-98603878D01*
X216820032Y-98603878D02*
X216887210Y-98609172D01*
X216887210Y-98609172D02*
X216940588Y-98649833D01*
X216940588Y-98649833D02*
X216993359Y-98751206D01*
X216993359Y-98751206D02*
X216992752Y-98811917D01*
X216992752Y-98811917D02*
X216951961Y-98857310D01*
X216951961Y-98857310D02*
X216897976Y-98877360D01*
X216897976Y-98877360D02*
X216712063Y-98643978D01*
X216773781Y-99195673D02*
X217151673Y-99055324D01*
X217340619Y-98985150D02*
X217300434Y-98969831D01*
X217300434Y-98969831D02*
X217286634Y-99005199D01*
X217286634Y-99005199D02*
X217326819Y-99020518D01*
X217326819Y-99020518D02*
X217340619Y-98985150D01*
X217340619Y-98985150D02*
X217286634Y-99005199D01*
X216905709Y-99449104D02*
X217283601Y-99308755D01*
X217175632Y-99348855D02*
X217242809Y-99354148D01*
X217242809Y-99354148D02*
X217282994Y-99369467D01*
X217282994Y-99369467D02*
X217336372Y-99410128D01*
X217336372Y-99410128D02*
X217362758Y-99460814D01*
X217195951Y-100006654D02*
X217762789Y-99796131D01*
X217222944Y-99996629D02*
X217169566Y-99955968D01*
X217169566Y-99955968D02*
X217116794Y-99854595D01*
X217116794Y-99854595D02*
X217117401Y-99793884D01*
X217117401Y-99793884D02*
X217131201Y-99758516D01*
X217131201Y-99758516D02*
X217171992Y-99713123D01*
X217171992Y-99713123D02*
X217333946Y-99652973D01*
X217333946Y-99652973D02*
X217401123Y-99658267D01*
X217401123Y-99658267D02*
X217441308Y-99673585D01*
X217441308Y-99673585D02*
X217494686Y-99714246D01*
X217494686Y-99714246D02*
X217547457Y-99815619D01*
X217547457Y-99815619D02*
X217546851Y-99876330D01*
X217538965Y-100665577D02*
X217916856Y-100525228D01*
X218105802Y-100455053D02*
X218065617Y-100439735D01*
X218065617Y-100439735D02*
X218051818Y-100475103D01*
X218051818Y-100475103D02*
X218092003Y-100490421D01*
X218092003Y-100490421D02*
X218105802Y-100455053D01*
X218105802Y-100455053D02*
X218051818Y-100475103D01*
X217684692Y-100883640D02*
X217684085Y-100944351D01*
X217684085Y-100944351D02*
X217736857Y-101045724D01*
X217736857Y-101045724D02*
X217790235Y-101086385D01*
X217790235Y-101086385D02*
X217857412Y-101091679D01*
X217857412Y-101091679D02*
X217884404Y-101081654D01*
X217884404Y-101081654D02*
X217925196Y-101036261D01*
X217925196Y-101036261D02*
X217925803Y-100975549D01*
X217925803Y-100975549D02*
X217886224Y-100899520D01*
X217886224Y-100899520D02*
X217886831Y-100838809D01*
X217886831Y-100838809D02*
X217927623Y-100793416D01*
X217927623Y-100793416D02*
X217954615Y-100783391D01*
X217954615Y-100783391D02*
X218021792Y-100788684D01*
X218021792Y-100788684D02*
X218075170Y-100829346D01*
X218075170Y-100829346D02*
X218114749Y-100905375D01*
X218114749Y-100905375D02*
X218114142Y-100966086D01*
X218646708Y-101494123D02*
X218145834Y-101831362D01*
X218145834Y-101831362D02*
X218603489Y-101782361D01*
X218603489Y-101782361D02*
X218251377Y-102034107D01*
X218251377Y-102034107D02*
X218884178Y-101950300D01*
X218462462Y-102439598D02*
X218463068Y-102378886D01*
X218463068Y-102378886D02*
X218476868Y-102343518D01*
X218476868Y-102343518D02*
X218517659Y-102298125D01*
X218517659Y-102298125D02*
X218679613Y-102237976D01*
X218679613Y-102237976D02*
X218746790Y-102243269D01*
X218746790Y-102243269D02*
X218786975Y-102258587D01*
X218786975Y-102258587D02*
X218840353Y-102299249D01*
X218840353Y-102299249D02*
X218879932Y-102375278D01*
X218879932Y-102375278D02*
X218879325Y-102435990D01*
X218879325Y-102435990D02*
X218865526Y-102471358D01*
X218865526Y-102471358D02*
X218824734Y-102516751D01*
X218824734Y-102516751D02*
X218662780Y-102576900D01*
X218662780Y-102576900D02*
X218595603Y-102571607D01*
X218595603Y-102571607D02*
X218555418Y-102556289D01*
X218555418Y-102556289D02*
X218502040Y-102515627D01*
X218502040Y-102515627D02*
X218462462Y-102439598D01*
X219051438Y-102704739D02*
X218673547Y-102845088D01*
X218997454Y-102724789D02*
X219037639Y-102740107D01*
X219037639Y-102740107D02*
X219091017Y-102780769D01*
X219091017Y-102780769D02*
X219130595Y-102856798D01*
X219130595Y-102856798D02*
X219129989Y-102917510D01*
X219129989Y-102917510D02*
X219089197Y-102962903D01*
X219089197Y-102962903D02*
X218792282Y-103073177D01*
X219042945Y-103554697D02*
X219609783Y-103344173D01*
X219069938Y-103544672D02*
X219016560Y-103504010D01*
X219016560Y-103504010D02*
X218963788Y-103402638D01*
X218963788Y-103402638D02*
X218964395Y-103341927D01*
X218964395Y-103341927D02*
X218978195Y-103306558D01*
X218978195Y-103306558D02*
X219018986Y-103261165D01*
X219018986Y-103261165D02*
X219180940Y-103201016D01*
X219180940Y-103201016D02*
X219248117Y-103206309D01*
X219248117Y-103206309D02*
X219288302Y-103221627D01*
X219288302Y-103221627D02*
X219341680Y-103262289D01*
X219341680Y-103262289D02*
X219394451Y-103363662D01*
X219394451Y-103363662D02*
X219393845Y-103424373D01*
X219307408Y-104000849D02*
X219254030Y-103960187D01*
X219254030Y-103960187D02*
X219201259Y-103858815D01*
X219201259Y-103858815D02*
X219201866Y-103798103D01*
X219201866Y-103798103D02*
X219242657Y-103752710D01*
X219242657Y-103752710D02*
X219458596Y-103672511D01*
X219458596Y-103672511D02*
X219525773Y-103677804D01*
X219525773Y-103677804D02*
X219579151Y-103718466D01*
X219579151Y-103718466D02*
X219631922Y-103819838D01*
X219631922Y-103819838D02*
X219631315Y-103880550D01*
X219631315Y-103880550D02*
X219590524Y-103925943D01*
X219590524Y-103925943D02*
X219536539Y-103945993D01*
X219536539Y-103945993D02*
X219350627Y-103712611D01*
X219412344Y-104264306D02*
X219790236Y-104123957D01*
X219682267Y-104164056D02*
X219749444Y-104169350D01*
X219749444Y-104169350D02*
X219789629Y-104184668D01*
X219789629Y-104184668D02*
X219843007Y-104225329D01*
X219843007Y-104225329D02*
X219869393Y-104276016D01*
X219922164Y-104377389D02*
X220027707Y-104580134D01*
X219583851Y-104593767D02*
X220069712Y-104413319D01*
X220069712Y-104413319D02*
X220136889Y-104418612D01*
X220136889Y-104418612D02*
X220190267Y-104459273D01*
X220190267Y-104459273D02*
X220216653Y-104509960D01*
X220238792Y-104985625D02*
X219860900Y-105125974D01*
X220120057Y-104757536D02*
X219823142Y-104867810D01*
X219823142Y-104867810D02*
X219782350Y-104913203D01*
X219782350Y-104913203D02*
X219781743Y-104973915D01*
X219781743Y-104973915D02*
X219821322Y-105049944D01*
X219821322Y-105049944D02*
X219874700Y-105090605D01*
X219874700Y-105090605D02*
X219914885Y-105105924D01*
X220032407Y-105455435D02*
X220033013Y-105394723D01*
X220033013Y-105394723D02*
X220073805Y-105349330D01*
X220073805Y-105349330D02*
X220559666Y-105168882D01*
X220212253Y-106295929D02*
X220226053Y-106260561D01*
X220226053Y-106260561D02*
X220280644Y-106179800D01*
X220280644Y-106179800D02*
X220321436Y-106134407D01*
X220321436Y-106134407D02*
X220389220Y-106078989D01*
X220389220Y-106078989D02*
X220510988Y-106003521D01*
X220510988Y-106003521D02*
X220618957Y-105963422D01*
X220618957Y-105963422D02*
X220767111Y-105938640D01*
X220767111Y-105938640D02*
X220861281Y-105933909D01*
X220861281Y-105933909D02*
X220928458Y-105939202D01*
X220928458Y-105939202D02*
X221035821Y-105959814D01*
X221035821Y-105959814D02*
X221076006Y-105975132D01*
X220652469Y-106646564D02*
X220949384Y-106536290D01*
X220949384Y-106536290D02*
X220990176Y-106490897D01*
X220990176Y-106490897D02*
X220990783Y-106430185D01*
X220990783Y-106430185D02*
X220938011Y-106328813D01*
X220938011Y-106328813D02*
X220884634Y-106288151D01*
X220679462Y-106636539D02*
X220626084Y-106595877D01*
X220626084Y-106595877D02*
X220560120Y-106469162D01*
X220560120Y-106469162D02*
X220560726Y-106408450D01*
X220560726Y-106408450D02*
X220601518Y-106363057D01*
X220601518Y-106363057D02*
X220655503Y-106343007D01*
X220655503Y-106343007D02*
X220722680Y-106348301D01*
X220722680Y-106348301D02*
X220776058Y-106388962D01*
X220776058Y-106388962D02*
X220842022Y-106515678D01*
X220842022Y-106515678D02*
X220895400Y-106556339D01*
X221162289Y-106759646D02*
X220784398Y-106899995D01*
X221108305Y-106779696D02*
X221148490Y-106795014D01*
X221148490Y-106795014D02*
X221201868Y-106835676D01*
X221201868Y-106835676D02*
X221241446Y-106911705D01*
X221241446Y-106911705D02*
X221240840Y-106972417D01*
X221240840Y-106972417D02*
X221200048Y-107017810D01*
X221200048Y-107017810D02*
X220903133Y-107128084D01*
X221153796Y-107609604D02*
X221720634Y-107399080D01*
X221180789Y-107599579D02*
X221127411Y-107558918D01*
X221127411Y-107558918D02*
X221074639Y-107457545D01*
X221074639Y-107457545D02*
X221075246Y-107396834D01*
X221075246Y-107396834D02*
X221089046Y-107361465D01*
X221089046Y-107361465D02*
X221129837Y-107316072D01*
X221129837Y-107316072D02*
X221291791Y-107255923D01*
X221291791Y-107255923D02*
X221358968Y-107261216D01*
X221358968Y-107261216D02*
X221399153Y-107276535D01*
X221399153Y-107276535D02*
X221452531Y-107317196D01*
X221452531Y-107317196D02*
X221505302Y-107418569D01*
X221505302Y-107418569D02*
X221504696Y-107479280D01*
X221886074Y-108335654D02*
X221898660Y-108421709D01*
X221898660Y-108421709D02*
X221884861Y-108457077D01*
X221884861Y-108457077D02*
X221844069Y-108502470D01*
X221844069Y-108502470D02*
X221763092Y-108532544D01*
X221763092Y-108532544D02*
X221695915Y-108527251D01*
X221695915Y-108527251D02*
X221655730Y-108511933D01*
X221655730Y-108511933D02*
X221602352Y-108471272D01*
X221602352Y-108471272D02*
X221496810Y-108268526D01*
X221496810Y-108268526D02*
X222063647Y-108058003D01*
X222063647Y-108058003D02*
X222155997Y-108235405D01*
X222155997Y-108235405D02*
X222155390Y-108296116D01*
X222155390Y-108296116D02*
X222141591Y-108331484D01*
X222141591Y-108331484D02*
X222100799Y-108376877D01*
X222100799Y-108376877D02*
X222046815Y-108396927D01*
X222046815Y-108396927D02*
X221979637Y-108391634D01*
X221979637Y-108391634D02*
X221939452Y-108376316D01*
X221939452Y-108376316D02*
X221886074Y-108335654D01*
X221886074Y-108335654D02*
X221793725Y-108158252D01*
X221892594Y-109028821D02*
X222189509Y-108918547D01*
X222189509Y-108918547D02*
X222230301Y-108873154D01*
X222230301Y-108873154D02*
X222230907Y-108812443D01*
X222230907Y-108812443D02*
X222178136Y-108711070D01*
X222178136Y-108711070D02*
X222124758Y-108670409D01*
X221919586Y-109018796D02*
X221866208Y-108978135D01*
X221866208Y-108978135D02*
X221800244Y-108851419D01*
X221800244Y-108851419D02*
X221800851Y-108790708D01*
X221800851Y-108790708D02*
X221841643Y-108745315D01*
X221841643Y-108745315D02*
X221895627Y-108725265D01*
X221895627Y-108725265D02*
X221962805Y-108730558D01*
X221962805Y-108730558D02*
X222016183Y-108771220D01*
X222016183Y-108771220D02*
X222082147Y-108897935D01*
X222082147Y-108897935D02*
X222135525Y-108938597D01*
X222402414Y-109141904D02*
X222024522Y-109282253D01*
X222348429Y-109161954D02*
X222388615Y-109177272D01*
X222388615Y-109177272D02*
X222441992Y-109217933D01*
X222441992Y-109217933D02*
X222481571Y-109293963D01*
X222481571Y-109293963D02*
X222480964Y-109354674D01*
X222480964Y-109354674D02*
X222440173Y-109400067D01*
X222440173Y-109400067D02*
X222143258Y-109510341D01*
X222275186Y-109763773D02*
X222842023Y-109553249D01*
X222517509Y-109734260D02*
X222380728Y-109966518D01*
X222758620Y-109826169D02*
X222437139Y-109703623D01*
X222618199Y-110422695D02*
X222915114Y-110312421D01*
X222915114Y-110312421D02*
X222955906Y-110267028D01*
X222955906Y-110267028D02*
X222956512Y-110206316D01*
X222956512Y-110206316D02*
X222903741Y-110104944D01*
X222903741Y-110104944D02*
X222850363Y-110064282D01*
X222645191Y-110412670D02*
X222591813Y-110372009D01*
X222591813Y-110372009D02*
X222525849Y-110245293D01*
X222525849Y-110245293D02*
X222526456Y-110184581D01*
X222526456Y-110184581D02*
X222567247Y-110139188D01*
X222567247Y-110139188D02*
X222621232Y-110119139D01*
X222621232Y-110119139D02*
X222688409Y-110124432D01*
X222688409Y-110124432D02*
X222741787Y-110165093D01*
X222741787Y-110165093D02*
X222807751Y-110291809D01*
X222807751Y-110291809D02*
X222861129Y-110332471D01*
X222750127Y-110676126D02*
X223316965Y-110465603D01*
X223101026Y-110545802D02*
X223154404Y-110586464D01*
X223154404Y-110586464D02*
X223207176Y-110687836D01*
X223207176Y-110687836D02*
X223206569Y-110748548D01*
X223206569Y-110748548D02*
X223192770Y-110783916D01*
X223192770Y-110783916D02*
X223151978Y-110829309D01*
X223151978Y-110829309D02*
X222990024Y-110889458D01*
X222990024Y-110889458D02*
X222922847Y-110884165D01*
X222922847Y-110884165D02*
X222882662Y-110868847D01*
X222882662Y-110868847D02*
X222829284Y-110828185D01*
X222829284Y-110828185D02*
X222776513Y-110726813D01*
X222776513Y-110726813D02*
X222777119Y-110666101D01*
X223040369Y-111233676D02*
X223040975Y-111172965D01*
X223040975Y-111172965D02*
X223081767Y-111127572D01*
X223081767Y-111127572D02*
X223567628Y-110947123D01*
X223278446Y-111629142D02*
X223225068Y-111588481D01*
X223225068Y-111588481D02*
X223172297Y-111487108D01*
X223172297Y-111487108D02*
X223172904Y-111426397D01*
X223172904Y-111426397D02*
X223213696Y-111381004D01*
X223213696Y-111381004D02*
X223429634Y-111300804D01*
X223429634Y-111300804D02*
X223496811Y-111306098D01*
X223496811Y-111306098D02*
X223550189Y-111346759D01*
X223550189Y-111346759D02*
X223602960Y-111448132D01*
X223602960Y-111448132D02*
X223602354Y-111508843D01*
X223602354Y-111508843D02*
X223561562Y-111554236D01*
X223561562Y-111554236D02*
X223507577Y-111574286D01*
X223507577Y-111574286D02*
X223321665Y-111340904D01*
X223141059Y-111922112D02*
X223181244Y-111937430D01*
X223181244Y-111937430D02*
X223288606Y-111958042D01*
X223288606Y-111958042D02*
X223355783Y-111963335D01*
X223355783Y-111963335D02*
X223449953Y-111958603D01*
X223449953Y-111958603D02*
X223598107Y-111933822D01*
X223598107Y-111933822D02*
X223706076Y-111893722D01*
X223706076Y-111893722D02*
X223827845Y-111818254D01*
X223827845Y-111818254D02*
X223895629Y-111762836D01*
X223895629Y-111762836D02*
X223936421Y-111717443D01*
X223936421Y-111717443D02*
X223991012Y-111636682D01*
X223991012Y-111636682D02*
X224004811Y-111601314D01*
X214948074Y-99191826D02*
X214960661Y-99277880D01*
X214960661Y-99277880D02*
X214946861Y-99313248D01*
X214946861Y-99313248D02*
X214906069Y-99358641D01*
X214906069Y-99358641D02*
X214825093Y-99388716D01*
X214825093Y-99388716D02*
X214757915Y-99383423D01*
X214757915Y-99383423D02*
X214717730Y-99368105D01*
X214717730Y-99368105D02*
X214664352Y-99327443D01*
X214664352Y-99327443D02*
X214558810Y-99124698D01*
X214558810Y-99124698D02*
X215125647Y-98914175D01*
X215125647Y-98914175D02*
X215217997Y-99091577D01*
X215217997Y-99091577D02*
X215217390Y-99152288D01*
X215217390Y-99152288D02*
X215203591Y-99187656D01*
X215203591Y-99187656D02*
X215162799Y-99233049D01*
X215162799Y-99233049D02*
X215108815Y-99253099D01*
X215108815Y-99253099D02*
X215041637Y-99247806D01*
X215041637Y-99247806D02*
X215001452Y-99232487D01*
X215001452Y-99232487D02*
X214948074Y-99191826D01*
X214948074Y-99191826D02*
X214855725Y-99014424D01*
X214968394Y-99849625D02*
X214915016Y-99808963D01*
X214915016Y-99808963D02*
X214862245Y-99707591D01*
X214862245Y-99707591D02*
X214862851Y-99646880D01*
X214862851Y-99646880D02*
X214903643Y-99601486D01*
X214903643Y-99601486D02*
X215119581Y-99521287D01*
X215119581Y-99521287D02*
X215186758Y-99526580D01*
X215186758Y-99526580D02*
X215240136Y-99567242D01*
X215240136Y-99567242D02*
X215292908Y-99668615D01*
X215292908Y-99668615D02*
X215292301Y-99729326D01*
X215292301Y-99729326D02*
X215251509Y-99774719D01*
X215251509Y-99774719D02*
X215197525Y-99794769D01*
X215197525Y-99794769D02*
X215011612Y-99561387D01*
X215073330Y-100113082D02*
X215451222Y-99972733D01*
X215640167Y-99902558D02*
X215599982Y-99887240D01*
X215599982Y-99887240D02*
X215586183Y-99922608D01*
X215586183Y-99922608D02*
X215626368Y-99937926D01*
X215626368Y-99937926D02*
X215640167Y-99902558D01*
X215640167Y-99902558D02*
X215586183Y-99922608D01*
X215583150Y-100226164D02*
X215205258Y-100366513D01*
X215529165Y-100246214D02*
X215569350Y-100261532D01*
X215569350Y-100261532D02*
X215622728Y-100302194D01*
X215622728Y-100302194D02*
X215662306Y-100378223D01*
X215662306Y-100378223D02*
X215661700Y-100438934D01*
X215661700Y-100438934D02*
X215620908Y-100484327D01*
X215620908Y-100484327D02*
X215323993Y-100594602D01*
X215952548Y-100935773D02*
X215493680Y-101106196D01*
X215493680Y-101106196D02*
X215426502Y-101100903D01*
X215426502Y-101100903D02*
X215386317Y-101085585D01*
X215386317Y-101085585D02*
X215332939Y-101044923D01*
X215332939Y-101044923D02*
X215293361Y-100968894D01*
X215293361Y-100968894D02*
X215293968Y-100908183D01*
X215601649Y-101066097D02*
X215548271Y-101025435D01*
X215548271Y-101025435D02*
X215495500Y-100924063D01*
X215495500Y-100924063D02*
X215496106Y-100863351D01*
X215496106Y-100863351D02*
X215509906Y-100827983D01*
X215509906Y-100827983D02*
X215550698Y-100782590D01*
X215550698Y-100782590D02*
X215712651Y-100722441D01*
X215712651Y-100722441D02*
X215779828Y-100727734D01*
X215779828Y-100727734D02*
X215820014Y-100743052D01*
X215820014Y-100743052D02*
X215873391Y-100783714D01*
X215873391Y-100783714D02*
X215926163Y-100885086D01*
X215926163Y-100885086D02*
X215925556Y-100945798D01*
X216269176Y-101544009D02*
X215944056Y-101785730D01*
X215944056Y-101785730D02*
X216266749Y-101786854D01*
X216266749Y-101786854D02*
X216049598Y-101988476D01*
X216049598Y-101988476D02*
X216480261Y-101949499D01*
X216340446Y-102485314D02*
X216287069Y-102444652D01*
X216287069Y-102444652D02*
X216234297Y-102343280D01*
X216234297Y-102343280D02*
X216234904Y-102282568D01*
X216234904Y-102282568D02*
X216275696Y-102237175D01*
X216275696Y-102237175D02*
X216491634Y-102156976D01*
X216491634Y-102156976D02*
X216558811Y-102162269D01*
X216558811Y-102162269D02*
X216612189Y-102202931D01*
X216612189Y-102202931D02*
X216664960Y-102304303D01*
X216664960Y-102304303D02*
X216664354Y-102365015D01*
X216664354Y-102365015D02*
X216623562Y-102410408D01*
X216623562Y-102410408D02*
X216569577Y-102430457D01*
X216569577Y-102430457D02*
X216383665Y-102197076D01*
X216445383Y-102748771D02*
X216823274Y-102608422D01*
X217012220Y-102538247D02*
X216972035Y-102522929D01*
X216972035Y-102522929D02*
X216958236Y-102558297D01*
X216958236Y-102558297D02*
X216998421Y-102573615D01*
X216998421Y-102573615D02*
X217012220Y-102538247D01*
X217012220Y-102538247D02*
X216958236Y-102558297D01*
X216577311Y-103002202D02*
X216955202Y-102861853D01*
X216847233Y-102901953D02*
X216914411Y-102907246D01*
X216914411Y-102907246D02*
X216954596Y-102922564D01*
X216954596Y-102922564D02*
X217007974Y-102963226D01*
X217007974Y-102963226D02*
X217034359Y-103013912D01*
X216867553Y-103559752D02*
X217434390Y-103349229D01*
X216894545Y-103549727D02*
X216841167Y-103509066D01*
X216841167Y-103509066D02*
X216788396Y-103407693D01*
X216788396Y-103407693D02*
X216789002Y-103346982D01*
X216789002Y-103346982D02*
X216802802Y-103311614D01*
X216802802Y-103311614D02*
X216843594Y-103266221D01*
X216843594Y-103266221D02*
X217005547Y-103206071D01*
X217005547Y-103206071D02*
X217072725Y-103211364D01*
X217072725Y-103211364D02*
X217112910Y-103226683D01*
X217112910Y-103226683D02*
X217166288Y-103267344D01*
X217166288Y-103267344D02*
X217219059Y-103368717D01*
X217219059Y-103368717D02*
X217218452Y-103429428D01*
X217210566Y-104218674D02*
X217588458Y-104078325D01*
X217534473Y-104098375D02*
X217574658Y-104113693D01*
X217574658Y-104113693D02*
X217628036Y-104154355D01*
X217628036Y-104154355D02*
X217667615Y-104230384D01*
X217667615Y-104230384D02*
X217667008Y-104291096D01*
X217667008Y-104291096D02*
X217626216Y-104336489D01*
X217626216Y-104336489D02*
X217329301Y-104446763D01*
X217626216Y-104336489D02*
X217693394Y-104341782D01*
X217693394Y-104341782D02*
X217746772Y-104382443D01*
X217746772Y-104382443D02*
X217786350Y-104458473D01*
X217786350Y-104458473D02*
X217785743Y-104519184D01*
X217785743Y-104519184D02*
X217744952Y-104564577D01*
X217744952Y-104564577D02*
X217448037Y-104674851D01*
X217712500Y-105121003D02*
X217659122Y-105080342D01*
X217659122Y-105080342D02*
X217606351Y-104978969D01*
X217606351Y-104978969D02*
X217606957Y-104918258D01*
X217606957Y-104918258D02*
X217647749Y-104872865D01*
X217647749Y-104872865D02*
X217863687Y-104792666D01*
X217863687Y-104792666D02*
X217930864Y-104797959D01*
X217930864Y-104797959D02*
X217984242Y-104838620D01*
X217984242Y-104838620D02*
X218037014Y-104939993D01*
X218037014Y-104939993D02*
X218036407Y-105000704D01*
X218036407Y-105000704D02*
X217995615Y-105046097D01*
X217995615Y-105046097D02*
X217941631Y-105066147D01*
X217941631Y-105066147D02*
X217755718Y-104832765D01*
X217936171Y-105612549D02*
X218233086Y-105502275D01*
X218233086Y-105502275D02*
X218273878Y-105456882D01*
X218273878Y-105456882D02*
X218274484Y-105396170D01*
X218274484Y-105396170D02*
X218221713Y-105294798D01*
X218221713Y-105294798D02*
X218168335Y-105254136D01*
X217963163Y-105602524D02*
X217909785Y-105561862D01*
X217909785Y-105561862D02*
X217843821Y-105435147D01*
X217843821Y-105435147D02*
X217844428Y-105374435D01*
X217844428Y-105374435D02*
X217885220Y-105329042D01*
X217885220Y-105329042D02*
X217939204Y-105308992D01*
X217939204Y-105308992D02*
X218006382Y-105314286D01*
X218006382Y-105314286D02*
X218059760Y-105354947D01*
X218059760Y-105354947D02*
X218125724Y-105481663D01*
X218125724Y-105481663D02*
X218179102Y-105522324D01*
X218445991Y-105725631D02*
X218068099Y-105865980D01*
X218392006Y-105745681D02*
X218432192Y-105760999D01*
X218432192Y-105760999D02*
X218485569Y-105801661D01*
X218485569Y-105801661D02*
X218525148Y-105877690D01*
X218525148Y-105877690D02*
X218524541Y-105938402D01*
X218524541Y-105938402D02*
X218483750Y-105983795D01*
X218483750Y-105983795D02*
X218186835Y-106094069D01*
X218332562Y-106312132D02*
X218331955Y-106372843D01*
X218331955Y-106372843D02*
X218384727Y-106474216D01*
X218384727Y-106474216D02*
X218438105Y-106514878D01*
X218438105Y-106514878D02*
X218505282Y-106520171D01*
X218505282Y-106520171D02*
X218532274Y-106510146D01*
X218532274Y-106510146D02*
X218573066Y-106464753D01*
X218573066Y-106464753D02*
X218573673Y-106404042D01*
X218573673Y-106404042D02*
X218534094Y-106328012D01*
X218534094Y-106328012D02*
X218534701Y-106267301D01*
X218534701Y-106267301D02*
X218575493Y-106221908D01*
X218575493Y-106221908D02*
X218602485Y-106211883D01*
X218602485Y-106211883D02*
X218669662Y-106217176D01*
X218669662Y-106217176D02*
X218723040Y-106257838D01*
X218723040Y-106257838D02*
X218762619Y-106333867D01*
X218762619Y-106333867D02*
X218762012Y-106394578D01*
X218754126Y-107183825D02*
X219320963Y-106973301D01*
X219105025Y-107053501D02*
X219158403Y-107094162D01*
X219158403Y-107094162D02*
X219211174Y-107195535D01*
X219211174Y-107195535D02*
X219210568Y-107256246D01*
X219210568Y-107256246D02*
X219196768Y-107291614D01*
X219196768Y-107291614D02*
X219155976Y-107337007D01*
X219155976Y-107337007D02*
X218994023Y-107397157D01*
X218994023Y-107397157D02*
X218926845Y-107391863D01*
X218926845Y-107391863D02*
X218886660Y-107376545D01*
X218886660Y-107376545D02*
X218833282Y-107335884D01*
X218833282Y-107335884D02*
X218780511Y-107234511D01*
X218780511Y-107234511D02*
X218781118Y-107173800D01*
X219137324Y-107858065D02*
X219083946Y-107817404D01*
X219083946Y-107817404D02*
X219031175Y-107716031D01*
X219031175Y-107716031D02*
X219031781Y-107655320D01*
X219031781Y-107655320D02*
X219072573Y-107609927D01*
X219072573Y-107609927D02*
X219288511Y-107529727D01*
X219288511Y-107529727D02*
X219355689Y-107535021D01*
X219355689Y-107535021D02*
X219409066Y-107575682D01*
X219409066Y-107575682D02*
X219461838Y-107677055D01*
X219461838Y-107677055D02*
X219461231Y-107737766D01*
X219461231Y-107737766D02*
X219420439Y-107783159D01*
X219420439Y-107783159D02*
X219366455Y-107803209D01*
X219366455Y-107803209D02*
X219180542Y-107569827D01*
X219242260Y-108121522D02*
X219620152Y-107981173D01*
X219809098Y-107910999D02*
X219768912Y-107895680D01*
X219768912Y-107895680D02*
X219755113Y-107931048D01*
X219755113Y-107931048D02*
X219795298Y-107946367D01*
X219795298Y-107946367D02*
X219809098Y-107910999D01*
X219809098Y-107910999D02*
X219755113Y-107931048D01*
X219752080Y-108234604D02*
X219374188Y-108374953D01*
X219698095Y-108254654D02*
X219738280Y-108269973D01*
X219738280Y-108269973D02*
X219791658Y-108310634D01*
X219791658Y-108310634D02*
X219831237Y-108386663D01*
X219831237Y-108386663D02*
X219830630Y-108447375D01*
X219830630Y-108447375D02*
X219789838Y-108492768D01*
X219789838Y-108492768D02*
X219492923Y-108603042D01*
X220121479Y-108944213D02*
X219662610Y-109114637D01*
X219662610Y-109114637D02*
X219595433Y-109109343D01*
X219595433Y-109109343D02*
X219555248Y-109094025D01*
X219555248Y-109094025D02*
X219501870Y-109053364D01*
X219501870Y-109053364D02*
X219462291Y-108977334D01*
X219462291Y-108977334D02*
X219462898Y-108916623D01*
X219770579Y-109074537D02*
X219717201Y-109033876D01*
X219717201Y-109033876D02*
X219664430Y-108932503D01*
X219664430Y-108932503D02*
X219665036Y-108871792D01*
X219665036Y-108871792D02*
X219678836Y-108836424D01*
X219678836Y-108836424D02*
X219719628Y-108791031D01*
X219719628Y-108791031D02*
X219881581Y-108730881D01*
X219881581Y-108730881D02*
X219948759Y-108736174D01*
X219948759Y-108736174D02*
X219988944Y-108751493D01*
X219988944Y-108751493D02*
X220042322Y-108792154D01*
X220042322Y-108792154D02*
X220095093Y-108893527D01*
X220095093Y-108893527D02*
X220094486Y-108954238D01*
X220464492Y-109603135D02*
X220086600Y-109743484D01*
X220410507Y-109623185D02*
X220450692Y-109638503D01*
X220450692Y-109638503D02*
X220504070Y-109679165D01*
X220504070Y-109679165D02*
X220543649Y-109755194D01*
X220543649Y-109755194D02*
X220543042Y-109815906D01*
X220543042Y-109815906D02*
X220502250Y-109861299D01*
X220502250Y-109861299D02*
X220205335Y-109971573D01*
X220376842Y-110301034D02*
X220377449Y-110240323D01*
X220377449Y-110240323D02*
X220391248Y-110204954D01*
X220391248Y-110204954D02*
X220432040Y-110159561D01*
X220432040Y-110159561D02*
X220593993Y-110099412D01*
X220593993Y-110099412D02*
X220661171Y-110104705D01*
X220661171Y-110104705D02*
X220701356Y-110120023D01*
X220701356Y-110120023D02*
X220754734Y-110160685D01*
X220754734Y-110160685D02*
X220794312Y-110236714D01*
X220794312Y-110236714D02*
X220793706Y-110297426D01*
X220793706Y-110297426D02*
X220779906Y-110332794D01*
X220779906Y-110332794D02*
X220739114Y-110378187D01*
X220739114Y-110378187D02*
X220577161Y-110438336D01*
X220577161Y-110438336D02*
X220509983Y-110433043D01*
X220509983Y-110433043D02*
X220469798Y-110417725D01*
X220469798Y-110417725D02*
X220416420Y-110377063D01*
X220416420Y-110377063D02*
X220376842Y-110301034D01*
X220926240Y-110490146D02*
X221031783Y-110692891D01*
X221154765Y-110496001D02*
X220668904Y-110676450D01*
X220668904Y-110676450D02*
X220628112Y-110721843D01*
X220628112Y-110721843D02*
X220627505Y-110782554D01*
X220627505Y-110782554D02*
X220653891Y-110833240D01*
X220746241Y-111010642D02*
X221124132Y-110870293D01*
X221313078Y-110800119D02*
X221272893Y-110784801D01*
X221272893Y-110784801D02*
X221259094Y-110820169D01*
X221259094Y-110820169D02*
X221299279Y-110835487D01*
X221299279Y-110835487D02*
X221313078Y-110800119D01*
X221313078Y-110800119D02*
X221259094Y-110820169D01*
X221023896Y-111482137D02*
X220970518Y-111441476D01*
X220970518Y-111441476D02*
X220917747Y-111340103D01*
X220917747Y-111340103D02*
X220918354Y-111279392D01*
X220918354Y-111279392D02*
X220932153Y-111244024D01*
X220932153Y-111244024D02*
X220972945Y-111198631D01*
X220972945Y-111198631D02*
X221134899Y-111138481D01*
X221134899Y-111138481D02*
X221202076Y-111143775D01*
X221202076Y-111143775D02*
X221242261Y-111159093D01*
X221242261Y-111159093D02*
X221295639Y-111199754D01*
X221295639Y-111199754D02*
X221348410Y-111301127D01*
X221348410Y-111301127D02*
X221347804Y-111361838D01*
X221248174Y-111912971D02*
X221194796Y-111872310D01*
X221194796Y-111872310D02*
X221142025Y-111770937D01*
X221142025Y-111770937D02*
X221142632Y-111710226D01*
X221142632Y-111710226D02*
X221183424Y-111664833D01*
X221183424Y-111664833D02*
X221399362Y-111584634D01*
X221399362Y-111584634D02*
X221466539Y-111589927D01*
X221466539Y-111589927D02*
X221519917Y-111630588D01*
X221519917Y-111630588D02*
X221572688Y-111731961D01*
X221572688Y-111731961D02*
X221572082Y-111792672D01*
X221572082Y-111792672D02*
X221531290Y-111838065D01*
X221531290Y-111838065D02*
X221477305Y-111858115D01*
X221477305Y-111858115D02*
X221291393Y-111624733D01*
X221471846Y-112404517D02*
X221768761Y-112294242D01*
X221768761Y-112294242D02*
X221809552Y-112248849D01*
X221809552Y-112248849D02*
X221810159Y-112188138D01*
X221810159Y-112188138D02*
X221757388Y-112086766D01*
X221757388Y-112086766D02*
X221704010Y-112046104D01*
X221498838Y-112394492D02*
X221445460Y-112353830D01*
X221445460Y-112353830D02*
X221379496Y-112227114D01*
X221379496Y-112227114D02*
X221380103Y-112166403D01*
X221380103Y-112166403D02*
X221420894Y-112121010D01*
X221420894Y-112121010D02*
X221474879Y-112100960D01*
X221474879Y-112100960D02*
X221542056Y-112106254D01*
X221542056Y-112106254D02*
X221595434Y-112146915D01*
X221595434Y-112146915D02*
X221661398Y-112273631D01*
X221661398Y-112273631D02*
X221714776Y-112314292D01*
X221603774Y-112657948D02*
X222170612Y-112447425D01*
X221954673Y-112527624D02*
X222008051Y-112568286D01*
X222008051Y-112568286D02*
X222060823Y-112669658D01*
X222060823Y-112669658D02*
X222060216Y-112730370D01*
X222060216Y-112730370D02*
X222046416Y-112765738D01*
X222046416Y-112765738D02*
X222005625Y-112811131D01*
X222005625Y-112811131D02*
X221843671Y-112871280D01*
X221843671Y-112871280D02*
X221776494Y-112865987D01*
X221776494Y-112865987D02*
X221736309Y-112850669D01*
X221736309Y-112850669D02*
X221682931Y-112810007D01*
X221682931Y-112810007D02*
X221630160Y-112708634D01*
X221630160Y-112708634D02*
X221630766Y-112647923D01*
X221894016Y-113215498D02*
X221894622Y-113154786D01*
X221894622Y-113154786D02*
X221935414Y-113109393D01*
X221935414Y-113109393D02*
X222421275Y-112928945D01*
X222351065Y-113227208D02*
X222039137Y-113494273D01*
X222482993Y-113480640D02*
X222039137Y-113494273D01*
X222039137Y-113494273D02*
X221877790Y-113493711D01*
X221877790Y-113493711D02*
X221837605Y-113478393D01*
X221837605Y-113478393D02*
X221784227Y-113437731D01*
X213820723Y-99798819D02*
X214387561Y-99588296D01*
X213847715Y-99788795D02*
X213794337Y-99748133D01*
X213794337Y-99748133D02*
X213741566Y-99646760D01*
X213741566Y-99646760D02*
X213742173Y-99586049D01*
X213742173Y-99586049D02*
X213755972Y-99550681D01*
X213755972Y-99550681D02*
X213796764Y-99505288D01*
X213796764Y-99505288D02*
X213958718Y-99445139D01*
X213958718Y-99445139D02*
X214025895Y-99450432D01*
X214025895Y-99450432D02*
X214066080Y-99465750D01*
X214066080Y-99465750D02*
X214119458Y-99506412D01*
X214119458Y-99506412D02*
X214172229Y-99607784D01*
X214172229Y-99607784D02*
X214171623Y-99668495D01*
X213952651Y-100052251D02*
X214330543Y-99911902D01*
X214519489Y-99841728D02*
X214479304Y-99826409D01*
X214479304Y-99826409D02*
X214465504Y-99861777D01*
X214465504Y-99861777D02*
X214505689Y-99877096D01*
X214505689Y-99877096D02*
X214519489Y-99841728D01*
X214519489Y-99841728D02*
X214465504Y-99861777D01*
X214422893Y-100089304D02*
X214528435Y-100292049D01*
X214084579Y-100305682D02*
X214570440Y-100125234D01*
X214570440Y-100125234D02*
X214637617Y-100130527D01*
X214637617Y-100130527D02*
X214690995Y-100171189D01*
X214690995Y-100171189D02*
X214717381Y-100221875D01*
X214581206Y-100393422D02*
X214686749Y-100596167D01*
X214242893Y-100609800D02*
X214728754Y-100429352D01*
X214728754Y-100429352D02*
X214795931Y-100434645D01*
X214795931Y-100434645D02*
X214849309Y-100475306D01*
X214849309Y-100475306D02*
X214875695Y-100525993D01*
X214533742Y-101106639D02*
X214480364Y-101065977D01*
X214480364Y-101065977D02*
X214427592Y-100964604D01*
X214427592Y-100964604D02*
X214428199Y-100903893D01*
X214428199Y-100903893D02*
X214468991Y-100858500D01*
X214468991Y-100858500D02*
X214684929Y-100778301D01*
X214684929Y-100778301D02*
X214752106Y-100783594D01*
X214752106Y-100783594D02*
X214805484Y-100824256D01*
X214805484Y-100824256D02*
X214858255Y-100925628D01*
X214858255Y-100925628D02*
X214857649Y-100986339D01*
X214857649Y-100986339D02*
X214816857Y-101031732D01*
X214816857Y-101031732D02*
X214762873Y-101051782D01*
X214762873Y-101051782D02*
X214576960Y-100818401D01*
X214638678Y-101370095D02*
X215016569Y-101229746D01*
X214908600Y-101269846D02*
X214975778Y-101275139D01*
X214975778Y-101275139D02*
X215015963Y-101290458D01*
X215015963Y-101290458D02*
X215069341Y-101331119D01*
X215069341Y-101331119D02*
X215095726Y-101381805D01*
X214942719Y-101892277D02*
X214889341Y-101851616D01*
X214889341Y-101851616D02*
X214836570Y-101750243D01*
X214836570Y-101750243D02*
X214837177Y-101689532D01*
X214837177Y-101689532D02*
X214877968Y-101644139D01*
X214877968Y-101644139D02*
X215093907Y-101563940D01*
X215093907Y-101563940D02*
X215161084Y-101569233D01*
X215161084Y-101569233D02*
X215214462Y-101609894D01*
X215214462Y-101609894D02*
X215267233Y-101711267D01*
X215267233Y-101711267D02*
X215266626Y-101771978D01*
X215266626Y-101771978D02*
X215225835Y-101817371D01*
X215225835Y-101817371D02*
X215171850Y-101837421D01*
X215171850Y-101837421D02*
X214985937Y-101604039D01*
X215425547Y-102015385D02*
X215047655Y-102155734D01*
X215371562Y-102035435D02*
X215411748Y-102050753D01*
X215411748Y-102050753D02*
X215465125Y-102091415D01*
X215465125Y-102091415D02*
X215504704Y-102167444D01*
X215504704Y-102167444D02*
X215504097Y-102228156D01*
X215504097Y-102228156D02*
X215463306Y-102273549D01*
X215463306Y-102273549D02*
X215166391Y-102383823D01*
X215636632Y-102420876D02*
X215742175Y-102623621D01*
X215865156Y-102426731D02*
X215379296Y-102607179D01*
X215379296Y-102607179D02*
X215338504Y-102652572D01*
X215338504Y-102652572D02*
X215337897Y-102713284D01*
X215337897Y-102713284D02*
X215364283Y-102763970D01*
X215510617Y-102921322D02*
X215496818Y-102956690D01*
X215496818Y-102956690D02*
X215456632Y-102941372D01*
X215456632Y-102941372D02*
X215470432Y-102906004D01*
X215470432Y-102906004D02*
X215510617Y-102921322D01*
X215510617Y-102921322D02*
X215456632Y-102941372D01*
X215799646Y-103600294D02*
X216366483Y-103389771D01*
X216269887Y-103637347D02*
X216375430Y-103840093D01*
X216498411Y-103643202D02*
X216012551Y-103823651D01*
X216012551Y-103823651D02*
X215971759Y-103869044D01*
X215971759Y-103869044D02*
X215971152Y-103929755D01*
X215971152Y-103929755D02*
X215997538Y-103980442D01*
X216300973Y-104563334D02*
X216678864Y-104422985D01*
X216624880Y-104443035D02*
X216665065Y-104458354D01*
X216665065Y-104458354D02*
X216718443Y-104499015D01*
X216718443Y-104499015D02*
X216758021Y-104575044D01*
X216758021Y-104575044D02*
X216757415Y-104635756D01*
X216757415Y-104635756D02*
X216716623Y-104681149D01*
X216716623Y-104681149D02*
X216419708Y-104791423D01*
X216716623Y-104681149D02*
X216783800Y-104686442D01*
X216783800Y-104686442D02*
X216837178Y-104727103D01*
X216837178Y-104727103D02*
X216876757Y-104803133D01*
X216876757Y-104803133D02*
X216876150Y-104863844D01*
X216876150Y-104863844D02*
X216835358Y-104909237D01*
X216835358Y-104909237D02*
X216538443Y-105019511D01*
X216802906Y-105465663D02*
X216749528Y-105425002D01*
X216749528Y-105425002D02*
X216696757Y-105323629D01*
X216696757Y-105323629D02*
X216697364Y-105262918D01*
X216697364Y-105262918D02*
X216738155Y-105217525D01*
X216738155Y-105217525D02*
X216954094Y-105137326D01*
X216954094Y-105137326D02*
X217021271Y-105142619D01*
X217021271Y-105142619D02*
X217074649Y-105183280D01*
X217074649Y-105183280D02*
X217127420Y-105284653D01*
X217127420Y-105284653D02*
X217126814Y-105345364D01*
X217126814Y-105345364D02*
X217086022Y-105390757D01*
X217086022Y-105390757D02*
X217032037Y-105410807D01*
X217032037Y-105410807D02*
X216846125Y-105177425D01*
X217026578Y-105957209D02*
X217323493Y-105846935D01*
X217323493Y-105846935D02*
X217364284Y-105801542D01*
X217364284Y-105801542D02*
X217364891Y-105740830D01*
X217364891Y-105740830D02*
X217312120Y-105639458D01*
X217312120Y-105639458D02*
X217258742Y-105598796D01*
X217053570Y-105947184D02*
X217000192Y-105906522D01*
X217000192Y-105906522D02*
X216934228Y-105779807D01*
X216934228Y-105779807D02*
X216934835Y-105719095D01*
X216934835Y-105719095D02*
X216975626Y-105673702D01*
X216975626Y-105673702D02*
X217029611Y-105653653D01*
X217029611Y-105653653D02*
X217096788Y-105658946D01*
X217096788Y-105658946D02*
X217150166Y-105699607D01*
X217150166Y-105699607D02*
X217216130Y-105826323D01*
X217216130Y-105826323D02*
X217269508Y-105866984D01*
X217536398Y-106070291D02*
X217158506Y-106210640D01*
X217482413Y-106090341D02*
X217522598Y-106105660D01*
X217522598Y-106105660D02*
X217575976Y-106146321D01*
X217575976Y-106146321D02*
X217615554Y-106222350D01*
X217615554Y-106222350D02*
X217614948Y-106283062D01*
X217614948Y-106283062D02*
X217574156Y-106328455D01*
X217574156Y-106328455D02*
X217277241Y-106438729D01*
X217422969Y-106656792D02*
X217422362Y-106717504D01*
X217422362Y-106717504D02*
X217475133Y-106818876D01*
X217475133Y-106818876D02*
X217528511Y-106859538D01*
X217528511Y-106859538D02*
X217595689Y-106864831D01*
X217595689Y-106864831D02*
X217622681Y-106854806D01*
X217622681Y-106854806D02*
X217663473Y-106809413D01*
X217663473Y-106809413D02*
X217664079Y-106748702D01*
X217664079Y-106748702D02*
X217624501Y-106672672D01*
X217624501Y-106672672D02*
X217625107Y-106611961D01*
X217625107Y-106611961D02*
X217665899Y-106566568D01*
X217665899Y-106566568D02*
X217692891Y-106556543D01*
X217692891Y-106556543D02*
X217760069Y-106561836D01*
X217760069Y-106561836D02*
X217813447Y-106602498D01*
X217813447Y-106602498D02*
X217853025Y-106678527D01*
X217853025Y-106678527D02*
X217852418Y-106739239D01*
X217844532Y-107528485D02*
X218411370Y-107317961D01*
X218195432Y-107398161D02*
X218248810Y-107438822D01*
X218248810Y-107438822D02*
X218301581Y-107540195D01*
X218301581Y-107540195D02*
X218300974Y-107600906D01*
X218300974Y-107600906D02*
X218287175Y-107636274D01*
X218287175Y-107636274D02*
X218246383Y-107681667D01*
X218246383Y-107681667D02*
X218084429Y-107741817D01*
X218084429Y-107741817D02*
X218017252Y-107736523D01*
X218017252Y-107736523D02*
X217977067Y-107721205D01*
X217977067Y-107721205D02*
X217923689Y-107680544D01*
X217923689Y-107680544D02*
X217870918Y-107579171D01*
X217870918Y-107579171D02*
X217871524Y-107518460D01*
X218227730Y-108202725D02*
X218174353Y-108162064D01*
X218174353Y-108162064D02*
X218121581Y-108060691D01*
X218121581Y-108060691D02*
X218122188Y-107999980D01*
X218122188Y-107999980D02*
X218162980Y-107954587D01*
X218162980Y-107954587D02*
X218378918Y-107874387D01*
X218378918Y-107874387D02*
X218446095Y-107879681D01*
X218446095Y-107879681D02*
X218499473Y-107920342D01*
X218499473Y-107920342D02*
X218552244Y-108021715D01*
X218552244Y-108021715D02*
X218551638Y-108082426D01*
X218551638Y-108082426D02*
X218510846Y-108127819D01*
X218510846Y-108127819D02*
X218456861Y-108147869D01*
X218456861Y-108147869D02*
X218270949Y-107914487D01*
X218332666Y-108466182D02*
X218710558Y-108325833D01*
X218899504Y-108255659D02*
X218859319Y-108240340D01*
X218859319Y-108240340D02*
X218845520Y-108275709D01*
X218845520Y-108275709D02*
X218885705Y-108291027D01*
X218885705Y-108291027D02*
X218899504Y-108255659D01*
X218899504Y-108255659D02*
X218845520Y-108275709D01*
X218842486Y-108579265D02*
X218464595Y-108719613D01*
X218788502Y-108599314D02*
X218828687Y-108614633D01*
X218828687Y-108614633D02*
X218882065Y-108655294D01*
X218882065Y-108655294D02*
X218921643Y-108731324D01*
X218921643Y-108731324D02*
X218921037Y-108792035D01*
X218921037Y-108792035D02*
X218880245Y-108837428D01*
X218880245Y-108837428D02*
X218583330Y-108947702D01*
X219211885Y-109288873D02*
X218753017Y-109459297D01*
X218753017Y-109459297D02*
X218685839Y-109454003D01*
X218685839Y-109454003D02*
X218645654Y-109438685D01*
X218645654Y-109438685D02*
X218592276Y-109398024D01*
X218592276Y-109398024D02*
X218552698Y-109321994D01*
X218552698Y-109321994D02*
X218553304Y-109261283D01*
X218860986Y-109419197D02*
X218807608Y-109378536D01*
X218807608Y-109378536D02*
X218754836Y-109277163D01*
X218754836Y-109277163D02*
X218755443Y-109216452D01*
X218755443Y-109216452D02*
X218769243Y-109181084D01*
X218769243Y-109181084D02*
X218810034Y-109135691D01*
X218810034Y-109135691D02*
X218971988Y-109075541D01*
X218971988Y-109075541D02*
X219039165Y-109080834D01*
X219039165Y-109080834D02*
X219079350Y-109096153D01*
X219079350Y-109096153D02*
X219132728Y-109136814D01*
X219132728Y-109136814D02*
X219185499Y-109238187D01*
X219185499Y-109238187D02*
X219184893Y-109298898D01*
X219216585Y-110164174D02*
X219217192Y-110103463D01*
X219217192Y-110103463D02*
X219230991Y-110068094D01*
X219230991Y-110068094D02*
X219271783Y-110022701D01*
X219271783Y-110022701D02*
X219433736Y-109962552D01*
X219433736Y-109962552D02*
X219500914Y-109967845D01*
X219500914Y-109967845D02*
X219541099Y-109983164D01*
X219541099Y-109983164D02*
X219594477Y-110023825D01*
X219594477Y-110023825D02*
X219634055Y-110099854D01*
X219634055Y-110099854D02*
X219633449Y-110160566D01*
X219633449Y-110160566D02*
X219619649Y-110195934D01*
X219619649Y-110195934D02*
X219578857Y-110241327D01*
X219578857Y-110241327D02*
X219416904Y-110301476D01*
X219416904Y-110301476D02*
X219349727Y-110296183D01*
X219349727Y-110296183D02*
X219309541Y-110280865D01*
X219309541Y-110280865D02*
X219256164Y-110240203D01*
X219256164Y-110240203D02*
X219216585Y-110164174D01*
X219427670Y-110569664D02*
X219805562Y-110429315D01*
X219697593Y-110469415D02*
X219764770Y-110474708D01*
X219764770Y-110474708D02*
X219804955Y-110490027D01*
X219804955Y-110490027D02*
X219858333Y-110530688D01*
X219858333Y-110530688D02*
X219884719Y-110581374D01*
X219928997Y-111532705D02*
X220495835Y-111322182D01*
X219955990Y-111522680D02*
X219902612Y-111482019D01*
X219902612Y-111482019D02*
X219849841Y-111380646D01*
X219849841Y-111380646D02*
X219850447Y-111319935D01*
X219850447Y-111319935D02*
X219864247Y-111284567D01*
X219864247Y-111284567D02*
X219905038Y-111239174D01*
X219905038Y-111239174D02*
X220066992Y-111179024D01*
X220066992Y-111179024D02*
X220134169Y-111184318D01*
X220134169Y-111184318D02*
X220174354Y-111199636D01*
X220174354Y-111199636D02*
X220227732Y-111240297D01*
X220227732Y-111240297D02*
X220280504Y-111341670D01*
X220280504Y-111341670D02*
X220279897Y-111402381D01*
X220100504Y-111862166D02*
X220101111Y-111801455D01*
X220101111Y-111801455D02*
X220114910Y-111766087D01*
X220114910Y-111766087D02*
X220155702Y-111720694D01*
X220155702Y-111720694D02*
X220317655Y-111660544D01*
X220317655Y-111660544D02*
X220384833Y-111665838D01*
X220384833Y-111665838D02*
X220425018Y-111681156D01*
X220425018Y-111681156D02*
X220478396Y-111721817D01*
X220478396Y-111721817D02*
X220517974Y-111797847D01*
X220517974Y-111797847D02*
X220517368Y-111858558D01*
X220517368Y-111858558D02*
X220503568Y-111893926D01*
X220503568Y-111893926D02*
X220462776Y-111939319D01*
X220462776Y-111939319D02*
X220300823Y-111999469D01*
X220300823Y-111999469D02*
X220233645Y-111994175D01*
X220233645Y-111994175D02*
X220193460Y-111978857D01*
X220193460Y-111978857D02*
X220140082Y-111938196D01*
X220140082Y-111938196D02*
X220100504Y-111862166D01*
X220311589Y-112267657D02*
X220689481Y-112127308D01*
X220878427Y-112057133D02*
X220838242Y-112041815D01*
X220838242Y-112041815D02*
X220824442Y-112077183D01*
X220824442Y-112077183D02*
X220864627Y-112092502D01*
X220864627Y-112092502D02*
X220878427Y-112057133D01*
X220878427Y-112057133D02*
X220824442Y-112077183D01*
X220821409Y-112380739D02*
X220443517Y-112521088D01*
X220767424Y-112400789D02*
X220807609Y-112416107D01*
X220807609Y-112416107D02*
X220860987Y-112456769D01*
X220860987Y-112456769D02*
X220900566Y-112532798D01*
X220900566Y-112532798D02*
X220899959Y-112593510D01*
X220899959Y-112593510D02*
X220859167Y-112638903D01*
X220859167Y-112638903D02*
X220562252Y-112749177D01*
X221190808Y-113090348D02*
X220731939Y-113260772D01*
X220731939Y-113260772D02*
X220664762Y-113255478D01*
X220664762Y-113255478D02*
X220624577Y-113240160D01*
X220624577Y-113240160D02*
X220571199Y-113199499D01*
X220571199Y-113199499D02*
X220531620Y-113123469D01*
X220531620Y-113123469D02*
X220532227Y-113062758D01*
X220839908Y-113220672D02*
X220786530Y-113180010D01*
X220786530Y-113180010D02*
X220733759Y-113078638D01*
X220733759Y-113078638D02*
X220734366Y-113017926D01*
X220734366Y-113017926D02*
X220748165Y-112982558D01*
X220748165Y-112982558D02*
X220788957Y-112937165D01*
X220788957Y-112937165D02*
X220950910Y-112877016D01*
X220950910Y-112877016D02*
X221018088Y-112882309D01*
X221018088Y-112882309D02*
X221058273Y-112897627D01*
X221058273Y-112897627D02*
X221111651Y-112938289D01*
X221111651Y-112938289D02*
X221164422Y-113039662D01*
X221164422Y-113039662D02*
X221163815Y-113100373D01*
X212858965Y-99981396D02*
X212858359Y-100042107D01*
X212858359Y-100042107D02*
X212911130Y-100143480D01*
X212911130Y-100143480D02*
X212964508Y-100184141D01*
X212964508Y-100184141D02*
X213031685Y-100189434D01*
X213031685Y-100189434D02*
X213058677Y-100179410D01*
X213058677Y-100179410D02*
X213099469Y-100134017D01*
X213099469Y-100134017D02*
X213100076Y-100073305D01*
X213100076Y-100073305D02*
X213060497Y-99997276D01*
X213060497Y-99997276D02*
X213061104Y-99936565D01*
X213061104Y-99936565D02*
X213101896Y-99891172D01*
X213101896Y-99891172D02*
X213128888Y-99881147D01*
X213128888Y-99881147D02*
X213196065Y-99886440D01*
X213196065Y-99886440D02*
X213249443Y-99927101D01*
X213249443Y-99927101D02*
X213289022Y-100003131D01*
X213289022Y-100003131D02*
X213288415Y-100063842D01*
X213109022Y-100523627D02*
X213109629Y-100462916D01*
X213109629Y-100462916D02*
X213123428Y-100427548D01*
X213123428Y-100427548D02*
X213164220Y-100382155D01*
X213164220Y-100382155D02*
X213326173Y-100322005D01*
X213326173Y-100322005D02*
X213393351Y-100327298D01*
X213393351Y-100327298D02*
X213433536Y-100342617D01*
X213433536Y-100342617D02*
X213486914Y-100383278D01*
X213486914Y-100383278D02*
X213526492Y-100459308D01*
X213526492Y-100459308D02*
X213525886Y-100520019D01*
X213525886Y-100520019D02*
X213512086Y-100555387D01*
X213512086Y-100555387D02*
X213471294Y-100600780D01*
X213471294Y-100600780D02*
X213309341Y-100660929D01*
X213309341Y-100660929D02*
X213242163Y-100655636D01*
X213242163Y-100655636D02*
X213201978Y-100640318D01*
X213201978Y-100640318D02*
X213148600Y-100599657D01*
X213148600Y-100599657D02*
X213109022Y-100523627D01*
X213320107Y-100929118D02*
X213697999Y-100788769D01*
X213644014Y-100808818D02*
X213684199Y-100824137D01*
X213684199Y-100824137D02*
X213737577Y-100864798D01*
X213737577Y-100864798D02*
X213777156Y-100940828D01*
X213777156Y-100940828D02*
X213776549Y-101001539D01*
X213776549Y-101001539D02*
X213735757Y-101046932D01*
X213735757Y-101046932D02*
X213438842Y-101157206D01*
X213735757Y-101046932D02*
X213802935Y-101052225D01*
X213802935Y-101052225D02*
X213856313Y-101092887D01*
X213856313Y-101092887D02*
X213895891Y-101168916D01*
X213895891Y-101168916D02*
X213895284Y-101229627D01*
X213895284Y-101229627D02*
X213854493Y-101275020D01*
X213854493Y-101275020D02*
X213557578Y-101385295D01*
X213822041Y-101831447D02*
X213768663Y-101790785D01*
X213768663Y-101790785D02*
X213715891Y-101689413D01*
X213715891Y-101689413D02*
X213716498Y-101628701D01*
X213716498Y-101628701D02*
X213757290Y-101583308D01*
X213757290Y-101583308D02*
X213973228Y-101503109D01*
X213973228Y-101503109D02*
X214040405Y-101508402D01*
X214040405Y-101508402D02*
X214093783Y-101549064D01*
X214093783Y-101549064D02*
X214146555Y-101650436D01*
X214146555Y-101650436D02*
X214145948Y-101711148D01*
X214145948Y-101711148D02*
X214105156Y-101756541D01*
X214105156Y-101756541D02*
X214051172Y-101776590D01*
X214051172Y-101776590D02*
X213865259Y-101543209D01*
X214265290Y-101878525D02*
X214370833Y-102081270D01*
X214493814Y-101884380D02*
X214007954Y-102064829D01*
X214007954Y-102064829D02*
X213967162Y-102110222D01*
X213967162Y-102110222D02*
X213966555Y-102170933D01*
X213966555Y-102170933D02*
X213992941Y-102221619D01*
X214085290Y-102399021D02*
X214652128Y-102188498D01*
X214204026Y-102627110D02*
X214500941Y-102516836D01*
X214500941Y-102516836D02*
X214541732Y-102471443D01*
X214541732Y-102471443D02*
X214542339Y-102410731D01*
X214542339Y-102410731D02*
X214502761Y-102334702D01*
X214502761Y-102334702D02*
X214449383Y-102294041D01*
X214449383Y-102294041D02*
X214409198Y-102278722D01*
X214335954Y-102880541D02*
X214713846Y-102740192D01*
X214902792Y-102670018D02*
X214862606Y-102654700D01*
X214862606Y-102654700D02*
X214848807Y-102690068D01*
X214848807Y-102690068D02*
X214888992Y-102705386D01*
X214888992Y-102705386D02*
X214902792Y-102670018D01*
X214902792Y-102670018D02*
X214848807Y-102690068D01*
X214845774Y-102993624D02*
X214467882Y-103133973D01*
X214791789Y-103013674D02*
X214831974Y-103028992D01*
X214831974Y-103028992D02*
X214885352Y-103069653D01*
X214885352Y-103069653D02*
X214924931Y-103145683D01*
X214924931Y-103145683D02*
X214924324Y-103206394D01*
X214924324Y-103206394D02*
X214883532Y-103251787D01*
X214883532Y-103251787D02*
X214586617Y-103362061D01*
X215215173Y-103703232D02*
X214756304Y-103873656D01*
X214756304Y-103873656D02*
X214689127Y-103868363D01*
X214689127Y-103868363D02*
X214648942Y-103853045D01*
X214648942Y-103853045D02*
X214595564Y-103812383D01*
X214595564Y-103812383D02*
X214555985Y-103736354D01*
X214555985Y-103736354D02*
X214556592Y-103675642D01*
X214864273Y-103833556D02*
X214810895Y-103792895D01*
X214810895Y-103792895D02*
X214758124Y-103691522D01*
X214758124Y-103691522D02*
X214758731Y-103630811D01*
X214758731Y-103630811D02*
X214772530Y-103595443D01*
X214772530Y-103595443D02*
X214813322Y-103550050D01*
X214813322Y-103550050D02*
X214975275Y-103489900D01*
X214975275Y-103489900D02*
X215042453Y-103495194D01*
X215042453Y-103495194D02*
X215082638Y-103510512D01*
X215082638Y-103510512D02*
X215136016Y-103551173D01*
X215136016Y-103551173D02*
X215188787Y-103652546D01*
X215188787Y-103652546D02*
X215188180Y-103713257D01*
X215518607Y-104286125D02*
X215624150Y-104488871D01*
X215747132Y-104291980D02*
X215261271Y-104472429D01*
X215261271Y-104472429D02*
X215220479Y-104517822D01*
X215220479Y-104517822D02*
X215219872Y-104578533D01*
X215219872Y-104578533D02*
X215246258Y-104629219D01*
X215338608Y-104806622D02*
X215905445Y-104596098D01*
X215457343Y-105034710D02*
X215754258Y-104924436D01*
X215754258Y-104924436D02*
X215795050Y-104879043D01*
X215795050Y-104879043D02*
X215795656Y-104818332D01*
X215795656Y-104818332D02*
X215756078Y-104742302D01*
X215756078Y-104742302D02*
X215702700Y-104701641D01*
X215702700Y-104701641D02*
X215662515Y-104686322D01*
X215708007Y-105516230D02*
X216004922Y-105405956D01*
X216004922Y-105405956D02*
X216045713Y-105360563D01*
X216045713Y-105360563D02*
X216046320Y-105299852D01*
X216046320Y-105299852D02*
X215993549Y-105198479D01*
X215993549Y-105198479D02*
X215940171Y-105157818D01*
X215734999Y-105506205D02*
X215681621Y-105465544D01*
X215681621Y-105465544D02*
X215615657Y-105338828D01*
X215615657Y-105338828D02*
X215616264Y-105278117D01*
X215616264Y-105278117D02*
X215657055Y-105232724D01*
X215657055Y-105232724D02*
X215711040Y-105212674D01*
X215711040Y-105212674D02*
X215778217Y-105217967D01*
X215778217Y-105217967D02*
X215831595Y-105258629D01*
X215831595Y-105258629D02*
X215897559Y-105385344D01*
X215897559Y-105385344D02*
X215950937Y-105426006D01*
X216178248Y-105553283D02*
X216283791Y-105756029D01*
X216406772Y-105559138D02*
X215920912Y-105739587D01*
X215920912Y-105739587D02*
X215880120Y-105784980D01*
X215880120Y-105784980D02*
X215879513Y-105845691D01*
X215879513Y-105845691D02*
X215905899Y-105896377D01*
X216209334Y-106479270D02*
X216587225Y-106338921D01*
X216533241Y-106358971D02*
X216573426Y-106374289D01*
X216573426Y-106374289D02*
X216626804Y-106414951D01*
X216626804Y-106414951D02*
X216666382Y-106490980D01*
X216666382Y-106490980D02*
X216665776Y-106551692D01*
X216665776Y-106551692D02*
X216624984Y-106597085D01*
X216624984Y-106597085D02*
X216328069Y-106707359D01*
X216624984Y-106597085D02*
X216692161Y-106602378D01*
X216692161Y-106602378D02*
X216745539Y-106643039D01*
X216745539Y-106643039D02*
X216785118Y-106719069D01*
X216785118Y-106719069D02*
X216784511Y-106779780D01*
X216784511Y-106779780D02*
X216743719Y-106825173D01*
X216743719Y-106825173D02*
X216446804Y-106935447D01*
X216697468Y-107416967D02*
X216994383Y-107306693D01*
X216994383Y-107306693D02*
X217035175Y-107261300D01*
X217035175Y-107261300D02*
X217035781Y-107200589D01*
X217035781Y-107200589D02*
X216983010Y-107099216D01*
X216983010Y-107099216D02*
X216929632Y-107058555D01*
X216724460Y-107406943D02*
X216671082Y-107366281D01*
X216671082Y-107366281D02*
X216605118Y-107239565D01*
X216605118Y-107239565D02*
X216605725Y-107178854D01*
X216605725Y-107178854D02*
X216646516Y-107133461D01*
X216646516Y-107133461D02*
X216700501Y-107113411D01*
X216700501Y-107113411D02*
X216767678Y-107118704D01*
X216767678Y-107118704D02*
X216821056Y-107159366D01*
X216821056Y-107159366D02*
X216887020Y-107286082D01*
X216887020Y-107286082D02*
X216940398Y-107326743D01*
X216829396Y-107670399D02*
X217396234Y-107459876D01*
X217071720Y-107640886D02*
X216934939Y-107873144D01*
X217312830Y-107732795D02*
X216991350Y-107610249D01*
X217186209Y-108293953D02*
X217132831Y-108253292D01*
X217132831Y-108253292D02*
X217080059Y-108151919D01*
X217080059Y-108151919D02*
X217080666Y-108091208D01*
X217080666Y-108091208D02*
X217121458Y-108045815D01*
X217121458Y-108045815D02*
X217337396Y-107965615D01*
X217337396Y-107965615D02*
X217404573Y-107970909D01*
X217404573Y-107970909D02*
X217457951Y-108011570D01*
X217457951Y-108011570D02*
X217510722Y-108112943D01*
X217510722Y-108112943D02*
X217510116Y-108173654D01*
X217510116Y-108173654D02*
X217469324Y-108219047D01*
X217469324Y-108219047D02*
X217415340Y-108239097D01*
X217415340Y-108239097D02*
X217229427Y-108005715D01*
X217304944Y-108522042D02*
X217304337Y-108582753D01*
X217304337Y-108582753D02*
X217357109Y-108684126D01*
X217357109Y-108684126D02*
X217410487Y-108724787D01*
X217410487Y-108724787D02*
X217477664Y-108730080D01*
X217477664Y-108730080D02*
X217504656Y-108720055D01*
X217504656Y-108720055D02*
X217545448Y-108674662D01*
X217545448Y-108674662D02*
X217546055Y-108613951D01*
X217546055Y-108613951D02*
X217506476Y-108537922D01*
X217506476Y-108537922D02*
X217507083Y-108477210D01*
X217507083Y-108477210D02*
X217547874Y-108431817D01*
X217547874Y-108431817D02*
X217574867Y-108421793D01*
X217574867Y-108421793D02*
X217642044Y-108427086D01*
X217642044Y-108427086D02*
X217695422Y-108467747D01*
X217695422Y-108467747D02*
X217735000Y-108543777D01*
X217735000Y-108543777D02*
X217734394Y-108604488D01*
X217766086Y-109469764D02*
X217766693Y-109409052D01*
X217766693Y-109409052D02*
X217780492Y-109373684D01*
X217780492Y-109373684D02*
X217821284Y-109328291D01*
X217821284Y-109328291D02*
X217983237Y-109268142D01*
X217983237Y-109268142D02*
X218050415Y-109273435D01*
X218050415Y-109273435D02*
X218090600Y-109288753D01*
X218090600Y-109288753D02*
X218143978Y-109329415D01*
X218143978Y-109329415D02*
X218183556Y-109405444D01*
X218183556Y-109405444D02*
X218182950Y-109466156D01*
X218182950Y-109466156D02*
X218169150Y-109501524D01*
X218169150Y-109501524D02*
X218128358Y-109546917D01*
X218128358Y-109546917D02*
X217966405Y-109607066D01*
X217966405Y-109607066D02*
X217899227Y-109601773D01*
X217899227Y-109601773D02*
X217859042Y-109586455D01*
X217859042Y-109586455D02*
X217805664Y-109545793D01*
X217805664Y-109545793D02*
X217766086Y-109469764D01*
X218315484Y-109658876D02*
X218421027Y-109861621D01*
X218544009Y-109664731D02*
X218058148Y-109845179D01*
X218058148Y-109845179D02*
X218017356Y-109890572D01*
X218017356Y-109890572D02*
X218016749Y-109951284D01*
X218016749Y-109951284D02*
X218043135Y-110001970D01*
X218135485Y-110179372D02*
X218702322Y-109968849D01*
X218254220Y-110407461D02*
X218551135Y-110297186D01*
X218551135Y-110297186D02*
X218591927Y-110251793D01*
X218591927Y-110251793D02*
X218592533Y-110191082D01*
X218592533Y-110191082D02*
X218552955Y-110115053D01*
X218552955Y-110115053D02*
X218499577Y-110074391D01*
X218499577Y-110074391D02*
X218459392Y-110059073D01*
X218518683Y-110853613D02*
X218465305Y-110812951D01*
X218465305Y-110812951D02*
X218412534Y-110711578D01*
X218412534Y-110711578D02*
X218413140Y-110650867D01*
X218413140Y-110650867D02*
X218453932Y-110605474D01*
X218453932Y-110605474D02*
X218669870Y-110525275D01*
X218669870Y-110525275D02*
X218737048Y-110530568D01*
X218737048Y-110530568D02*
X218790426Y-110571230D01*
X218790426Y-110571230D02*
X218843197Y-110672602D01*
X218843197Y-110672602D02*
X218842590Y-110733313D01*
X218842590Y-110733313D02*
X218801798Y-110778707D01*
X218801798Y-110778707D02*
X218747814Y-110798756D01*
X218747814Y-110798756D02*
X218561901Y-110565375D01*
X218623619Y-111117069D02*
X219001511Y-110976720D01*
X218893542Y-111016820D02*
X218960719Y-111022114D01*
X218960719Y-111022114D02*
X219000904Y-111037432D01*
X219000904Y-111037432D02*
X219054282Y-111078093D01*
X219054282Y-111078093D02*
X219080668Y-111128779D01*
X219384103Y-111711673D02*
X218817265Y-111922196D01*
X219357110Y-111721698D02*
X219410488Y-111762359D01*
X219410488Y-111762359D02*
X219463260Y-111863732D01*
X219463260Y-111863732D02*
X219462653Y-111924443D01*
X219462653Y-111924443D02*
X219448854Y-111959811D01*
X219448854Y-111959811D02*
X219408062Y-112005204D01*
X219408062Y-112005204D02*
X219246108Y-112065354D01*
X219246108Y-112065354D02*
X219178931Y-112060060D01*
X219178931Y-112060060D02*
X219138746Y-112044742D01*
X219138746Y-112044742D02*
X219085368Y-112004081D01*
X219085368Y-112004081D02*
X219032597Y-111902708D01*
X219032597Y-111902708D02*
X219033203Y-111841997D01*
X219389409Y-112526262D02*
X219336031Y-112485601D01*
X219336031Y-112485601D02*
X219283260Y-112384228D01*
X219283260Y-112384228D02*
X219283867Y-112323517D01*
X219283867Y-112323517D02*
X219324658Y-112278124D01*
X219324658Y-112278124D02*
X219540597Y-112197924D01*
X219540597Y-112197924D02*
X219607774Y-112203218D01*
X219607774Y-112203218D02*
X219661152Y-112243879D01*
X219661152Y-112243879D02*
X219713923Y-112345252D01*
X219713923Y-112345252D02*
X219713316Y-112405963D01*
X219713316Y-112405963D02*
X219672525Y-112451356D01*
X219672525Y-112451356D02*
X219618540Y-112471406D01*
X219618540Y-112471406D02*
X219432628Y-112238024D01*
X219533924Y-112865749D02*
X219534530Y-112805037D01*
X219534530Y-112805037D02*
X219548330Y-112769669D01*
X219548330Y-112769669D02*
X219589122Y-112724276D01*
X219589122Y-112724276D02*
X219751075Y-112664127D01*
X219751075Y-112664127D02*
X219818253Y-112669420D01*
X219818253Y-112669420D02*
X219858438Y-112684738D01*
X219858438Y-112684738D02*
X219911816Y-112725400D01*
X219911816Y-112725400D02*
X219951394Y-112801429D01*
X219951394Y-112801429D02*
X219950787Y-112862140D01*
X219950787Y-112862140D02*
X219936988Y-112897508D01*
X219936988Y-112897508D02*
X219896196Y-112942901D01*
X219896196Y-112942901D02*
X219734243Y-113003051D01*
X219734243Y-113003051D02*
X219667065Y-112997758D01*
X219667065Y-112997758D02*
X219626880Y-112982439D01*
X219626880Y-112982439D02*
X219573502Y-112941778D01*
X219573502Y-112941778D02*
X219533924Y-112865749D01*
X220122901Y-113130890D02*
X219556063Y-113341414D01*
X220095908Y-113140915D02*
X220149286Y-113181577D01*
X220149286Y-113181577D02*
X220202057Y-113282949D01*
X220202057Y-113282949D02*
X220201451Y-113343660D01*
X220201451Y-113343660D02*
X220187651Y-113379029D01*
X220187651Y-113379029D02*
X220146860Y-113424422D01*
X220146860Y-113424422D02*
X219984906Y-113484571D01*
X219984906Y-113484571D02*
X219917729Y-113479278D01*
X219917729Y-113479278D02*
X219877544Y-113463959D01*
X219877544Y-113463959D02*
X219824166Y-113423298D01*
X219824166Y-113423298D02*
X219771394Y-113321925D01*
X219771394Y-113321925D02*
X219772001Y-113261214D01*
X220035251Y-113828789D02*
X220035857Y-113768077D01*
X220035857Y-113768077D02*
X220076649Y-113722684D01*
X220076649Y-113722684D02*
X220562510Y-113542236D01*
X220273328Y-114224255D02*
X220219950Y-114183593D01*
X220219950Y-114183593D02*
X220167179Y-114082221D01*
X220167179Y-114082221D02*
X220167786Y-114021509D01*
X220167786Y-114021509D02*
X220208577Y-113976116D01*
X220208577Y-113976116D02*
X220424516Y-113895917D01*
X220424516Y-113895917D02*
X220491693Y-113901210D01*
X220491693Y-113901210D02*
X220545071Y-113941872D01*
X220545071Y-113941872D02*
X220597842Y-114043244D01*
X220597842Y-114043244D02*
X220597235Y-114103956D01*
X220597235Y-114103956D02*
X220556444Y-114149349D01*
X220556444Y-114149349D02*
X220502459Y-114169398D01*
X220502459Y-114169398D02*
X220316546Y-113936017D01*
X212002143Y-100427429D02*
X212001537Y-100488140D01*
X212001537Y-100488140D02*
X212054308Y-100589513D01*
X212054308Y-100589513D02*
X212107686Y-100630174D01*
X212107686Y-100630174D02*
X212174863Y-100635467D01*
X212174863Y-100635467D02*
X212201855Y-100625443D01*
X212201855Y-100625443D02*
X212242647Y-100580050D01*
X212242647Y-100580050D02*
X212243254Y-100519338D01*
X212243254Y-100519338D02*
X212203675Y-100443309D01*
X212203675Y-100443309D02*
X212204282Y-100382598D01*
X212204282Y-100382598D02*
X212245074Y-100337205D01*
X212245074Y-100337205D02*
X212272066Y-100327180D01*
X212272066Y-100327180D02*
X212339243Y-100332473D01*
X212339243Y-100332473D02*
X212392621Y-100373134D01*
X212392621Y-100373134D02*
X212432200Y-100449164D01*
X212432200Y-100449164D02*
X212431593Y-100509875D01*
X212550935Y-100677252D02*
X212656477Y-100879997D01*
X212779459Y-100683107D02*
X212293598Y-100863556D01*
X212293598Y-100863556D02*
X212252807Y-100908949D01*
X212252807Y-100908949D02*
X212252200Y-100969660D01*
X212252200Y-100969660D02*
X212278586Y-101020346D01*
X212489671Y-101425837D02*
X212786586Y-101315563D01*
X212786586Y-101315563D02*
X212827377Y-101270170D01*
X212827377Y-101270170D02*
X212827984Y-101209458D01*
X212827984Y-101209458D02*
X212775213Y-101108086D01*
X212775213Y-101108086D02*
X212721835Y-101067424D01*
X212516663Y-101415812D02*
X212463285Y-101375151D01*
X212463285Y-101375151D02*
X212397321Y-101248435D01*
X212397321Y-101248435D02*
X212397928Y-101187723D01*
X212397928Y-101187723D02*
X212438719Y-101142330D01*
X212438719Y-101142330D02*
X212492704Y-101122281D01*
X212492704Y-101122281D02*
X212559881Y-101127574D01*
X212559881Y-101127574D02*
X212613259Y-101168235D01*
X212613259Y-101168235D02*
X212679223Y-101294951D01*
X212679223Y-101294951D02*
X212732601Y-101335613D01*
X212621599Y-101679268D02*
X212999490Y-101538920D01*
X212891521Y-101579019D02*
X212958699Y-101584313D01*
X212958699Y-101584313D02*
X212998884Y-101599631D01*
X212998884Y-101599631D02*
X213052262Y-101640292D01*
X213052262Y-101640292D02*
X213078647Y-101690979D01*
X212925640Y-102201450D02*
X212872262Y-102160789D01*
X212872262Y-102160789D02*
X212819491Y-102059416D01*
X212819491Y-102059416D02*
X212820098Y-101998705D01*
X212820098Y-101998705D02*
X212860890Y-101953312D01*
X212860890Y-101953312D02*
X213076828Y-101873113D01*
X213076828Y-101873113D02*
X213144005Y-101878406D01*
X213144005Y-101878406D02*
X213197383Y-101919067D01*
X213197383Y-101919067D02*
X213250154Y-102020440D01*
X213250154Y-102020440D02*
X213249548Y-102081151D01*
X213249548Y-102081151D02*
X213208756Y-102126544D01*
X213208756Y-102126544D02*
X213154771Y-102146594D01*
X213154771Y-102146594D02*
X212968859Y-101913212D01*
X213070761Y-102480225D02*
X213043769Y-102490250D01*
X213043769Y-102490250D02*
X212976592Y-102484957D01*
X212976592Y-102484957D02*
X212936407Y-102469639D01*
X213413168Y-103199859D02*
X213413775Y-103139148D01*
X213413775Y-103139148D02*
X213427574Y-103103780D01*
X213427574Y-103103780D02*
X213468366Y-103058387D01*
X213468366Y-103058387D02*
X213630319Y-102998237D01*
X213630319Y-102998237D02*
X213697497Y-103003530D01*
X213697497Y-103003530D02*
X213737682Y-103018849D01*
X213737682Y-103018849D02*
X213791060Y-103059510D01*
X213791060Y-103059510D02*
X213830638Y-103135540D01*
X213830638Y-103135540D02*
X213830032Y-103196251D01*
X213830032Y-103196251D02*
X213816232Y-103231619D01*
X213816232Y-103231619D02*
X213775440Y-103277012D01*
X213775440Y-103277012D02*
X213613487Y-103337161D01*
X213613487Y-103337161D02*
X213546309Y-103331868D01*
X213546309Y-103331868D02*
X213506124Y-103316550D01*
X213506124Y-103316550D02*
X213452746Y-103275888D01*
X213452746Y-103275888D02*
X213413168Y-103199859D01*
X213624253Y-103605349D02*
X214002145Y-103465001D01*
X213894176Y-103505100D02*
X213961353Y-103510394D01*
X213961353Y-103510394D02*
X214001538Y-103525712D01*
X214001538Y-103525712D02*
X214054916Y-103566373D01*
X214054916Y-103566373D02*
X214081302Y-103617060D01*
X214046423Y-104416331D02*
X214047030Y-104355620D01*
X214047030Y-104355620D02*
X214087822Y-104310227D01*
X214087822Y-104310227D02*
X214573683Y-104129778D01*
X214270701Y-104847165D02*
X214567616Y-104736891D01*
X214567616Y-104736891D02*
X214608408Y-104691498D01*
X214608408Y-104691498D02*
X214609015Y-104630787D01*
X214609015Y-104630787D02*
X214556244Y-104529414D01*
X214556244Y-104529414D02*
X214502866Y-104488753D01*
X214297694Y-104837140D02*
X214244316Y-104796479D01*
X214244316Y-104796479D02*
X214178352Y-104669763D01*
X214178352Y-104669763D02*
X214178958Y-104609052D01*
X214178958Y-104609052D02*
X214219750Y-104563659D01*
X214219750Y-104563659D02*
X214273735Y-104543609D01*
X214273735Y-104543609D02*
X214340912Y-104548902D01*
X214340912Y-104548902D02*
X214394290Y-104589564D01*
X214394290Y-104589564D02*
X214460254Y-104716280D01*
X214460254Y-104716280D02*
X214513632Y-104756941D01*
X214899257Y-105188337D02*
X214521365Y-105328685D01*
X214780521Y-104960248D02*
X214483606Y-105070522D01*
X214483606Y-105070522D02*
X214442815Y-105115915D01*
X214442815Y-105115915D02*
X214442208Y-105176626D01*
X214442208Y-105176626D02*
X214481787Y-105252656D01*
X214481787Y-105252656D02*
X214535164Y-105293317D01*
X214535164Y-105293317D02*
X214575350Y-105308636D01*
X215149920Y-105669857D02*
X214691052Y-105840280D01*
X214691052Y-105840280D02*
X214623874Y-105834987D01*
X214623874Y-105834987D02*
X214583689Y-105819669D01*
X214583689Y-105819669D02*
X214530311Y-105779007D01*
X214530311Y-105779007D02*
X214490733Y-105702978D01*
X214490733Y-105702978D02*
X214491339Y-105642266D01*
X214799021Y-105800181D02*
X214745643Y-105759519D01*
X214745643Y-105759519D02*
X214692872Y-105658146D01*
X214692872Y-105658146D02*
X214693478Y-105597435D01*
X214693478Y-105597435D02*
X214707278Y-105562067D01*
X214707278Y-105562067D02*
X214748069Y-105516674D01*
X214748069Y-105516674D02*
X214910023Y-105456525D01*
X214910023Y-105456525D02*
X214977200Y-105461818D01*
X214977200Y-105461818D02*
X215017385Y-105477136D01*
X215017385Y-105477136D02*
X215070763Y-105517798D01*
X215070763Y-105517798D02*
X215123535Y-105619170D01*
X215123535Y-105619170D02*
X215122928Y-105679881D01*
X214903957Y-106063637D02*
X215470794Y-105853114D01*
X215022692Y-106291726D02*
X215319607Y-106181451D01*
X215319607Y-106181451D02*
X215360399Y-106136058D01*
X215360399Y-106136058D02*
X215361005Y-106075347D01*
X215361005Y-106075347D02*
X215321427Y-105999318D01*
X215321427Y-105999318D02*
X215268049Y-105958656D01*
X215268049Y-105958656D02*
X215227864Y-105943338D01*
X215194805Y-106560475D02*
X215167813Y-106570500D01*
X215167813Y-106570500D02*
X215100635Y-106565207D01*
X215100635Y-106565207D02*
X215060450Y-106549889D01*
X215616369Y-107432168D02*
X215913284Y-107321894D01*
X215913284Y-107321894D02*
X215954075Y-107276501D01*
X215954075Y-107276501D02*
X215954682Y-107215789D01*
X215954682Y-107215789D02*
X215901911Y-107114417D01*
X215901911Y-107114417D02*
X215848533Y-107073755D01*
X215643361Y-107422143D02*
X215589983Y-107381481D01*
X215589983Y-107381481D02*
X215524019Y-107254766D01*
X215524019Y-107254766D02*
X215524625Y-107194054D01*
X215524625Y-107194054D02*
X215565417Y-107148661D01*
X215565417Y-107148661D02*
X215619402Y-107128611D01*
X215619402Y-107128611D02*
X215686579Y-107133905D01*
X215686579Y-107133905D02*
X215739957Y-107174566D01*
X215739957Y-107174566D02*
X215805921Y-107301282D01*
X215805921Y-107301282D02*
X215859299Y-107341943D01*
X216126188Y-107545250D02*
X215559351Y-107755774D01*
X216099196Y-107555275D02*
X216152574Y-107595937D01*
X216152574Y-107595937D02*
X216205345Y-107697309D01*
X216205345Y-107697309D02*
X216204739Y-107758021D01*
X216204739Y-107758021D02*
X216190939Y-107793389D01*
X216190939Y-107793389D02*
X216150148Y-107838782D01*
X216150148Y-107838782D02*
X215988194Y-107898931D01*
X215988194Y-107898931D02*
X215921017Y-107893638D01*
X215921017Y-107893638D02*
X215880831Y-107878320D01*
X215880831Y-107878320D02*
X215827454Y-107837658D01*
X215827454Y-107837658D02*
X215774682Y-107736286D01*
X215774682Y-107736286D02*
X215775289Y-107675574D01*
X216376852Y-108026770D02*
X215810014Y-108237294D01*
X216349860Y-108036795D02*
X216403238Y-108077457D01*
X216403238Y-108077457D02*
X216456009Y-108178829D01*
X216456009Y-108178829D02*
X216455402Y-108239541D01*
X216455402Y-108239541D02*
X216441603Y-108274909D01*
X216441603Y-108274909D02*
X216400811Y-108320302D01*
X216400811Y-108320302D02*
X216238857Y-108380451D01*
X216238857Y-108380451D02*
X216171680Y-108375158D01*
X216171680Y-108375158D02*
X216131495Y-108359840D01*
X216131495Y-108359840D02*
X216078117Y-108319178D01*
X216078117Y-108319178D02*
X216025346Y-108217806D01*
X216025346Y-108217806D02*
X216025952Y-108157094D01*
X216289202Y-108724669D02*
X216289809Y-108663958D01*
X216289809Y-108663958D02*
X216330600Y-108618565D01*
X216330600Y-108618565D02*
X216816461Y-108438116D01*
X216513480Y-109155503D02*
X216810395Y-109045229D01*
X216810395Y-109045229D02*
X216851187Y-108999836D01*
X216851187Y-108999836D02*
X216851793Y-108939125D01*
X216851793Y-108939125D02*
X216799022Y-108837752D01*
X216799022Y-108837752D02*
X216745644Y-108797090D01*
X216540472Y-109145478D02*
X216487094Y-109104817D01*
X216487094Y-109104817D02*
X216421130Y-108978101D01*
X216421130Y-108978101D02*
X216421737Y-108917390D01*
X216421737Y-108917390D02*
X216462529Y-108871997D01*
X216462529Y-108871997D02*
X216516513Y-108851947D01*
X216516513Y-108851947D02*
X216583691Y-108857240D01*
X216583691Y-108857240D02*
X216637069Y-108897901D01*
X216637069Y-108897901D02*
X216703033Y-109024617D01*
X216703033Y-109024617D02*
X216756411Y-109065279D01*
X217142035Y-109496674D02*
X216764144Y-109637023D01*
X217023300Y-109268586D02*
X216726385Y-109378860D01*
X216726385Y-109378860D02*
X216685593Y-109424253D01*
X216685593Y-109424253D02*
X216684987Y-109484964D01*
X216684987Y-109484964D02*
X216724565Y-109560994D01*
X216724565Y-109560994D02*
X216777943Y-109601655D01*
X216777943Y-109601655D02*
X216818128Y-109616973D01*
X217014807Y-110118543D02*
X217581645Y-109908020D01*
X217041799Y-110108518D02*
X216988421Y-110067857D01*
X216988421Y-110067857D02*
X216935650Y-109966484D01*
X216935650Y-109966484D02*
X216936257Y-109905773D01*
X216936257Y-109905773D02*
X216950056Y-109870405D01*
X216950056Y-109870405D02*
X216990848Y-109825012D01*
X216990848Y-109825012D02*
X217152802Y-109764862D01*
X217152802Y-109764862D02*
X217219979Y-109770155D01*
X217219979Y-109770155D02*
X217260164Y-109785474D01*
X217260164Y-109785474D02*
X217313542Y-109826135D01*
X217313542Y-109826135D02*
X217366313Y-109927508D01*
X217366313Y-109927508D02*
X217365707Y-109988219D01*
X217186920Y-110387293D02*
X217159928Y-110397318D01*
X217159928Y-110397318D02*
X217092751Y-110392024D01*
X217092751Y-110392024D02*
X217052566Y-110376706D01*
X217529327Y-111106926D02*
X217529933Y-111046215D01*
X217529933Y-111046215D02*
X217543733Y-111010847D01*
X217543733Y-111010847D02*
X217584525Y-110965454D01*
X217584525Y-110965454D02*
X217746478Y-110905304D01*
X217746478Y-110905304D02*
X217813656Y-110910598D01*
X217813656Y-110910598D02*
X217853841Y-110925916D01*
X217853841Y-110925916D02*
X217907219Y-110966577D01*
X217907219Y-110966577D02*
X217946797Y-111042607D01*
X217946797Y-111042607D02*
X217946190Y-111103318D01*
X217946190Y-111103318D02*
X217932391Y-111138686D01*
X217932391Y-111138686D02*
X217891599Y-111184079D01*
X217891599Y-111184079D02*
X217729646Y-111244229D01*
X217729646Y-111244229D02*
X217662468Y-111238935D01*
X217662468Y-111238935D02*
X217622283Y-111223617D01*
X217622283Y-111223617D02*
X217568905Y-111182956D01*
X217568905Y-111182956D02*
X217529327Y-111106926D01*
X217740412Y-111512417D02*
X218118304Y-111372068D01*
X218010334Y-111412168D02*
X218077512Y-111417461D01*
X218077512Y-111417461D02*
X218117697Y-111432779D01*
X218117697Y-111432779D02*
X218171075Y-111473441D01*
X218171075Y-111473441D02*
X218197460Y-111524127D01*
X218123004Y-112247369D02*
X218689841Y-112036846D01*
X218473903Y-112117045D02*
X218527281Y-112157707D01*
X218527281Y-112157707D02*
X218580052Y-112259079D01*
X218580052Y-112259079D02*
X218579446Y-112319791D01*
X218579446Y-112319791D02*
X218565646Y-112355159D01*
X218565646Y-112355159D02*
X218524855Y-112400552D01*
X218524855Y-112400552D02*
X218362901Y-112460701D01*
X218362901Y-112460701D02*
X218295724Y-112455408D01*
X218295724Y-112455408D02*
X218255539Y-112440090D01*
X218255539Y-112440090D02*
X218202161Y-112399428D01*
X218202161Y-112399428D02*
X218149389Y-112298056D01*
X218149389Y-112298056D02*
X218149996Y-112237344D01*
X218413246Y-112804919D02*
X218413852Y-112744207D01*
X218413852Y-112744207D02*
X218427652Y-112708839D01*
X218427652Y-112708839D02*
X218468443Y-112663446D01*
X218468443Y-112663446D02*
X218630397Y-112603297D01*
X218630397Y-112603297D02*
X218697574Y-112608590D01*
X218697574Y-112608590D02*
X218737760Y-112623908D01*
X218737760Y-112623908D02*
X218791137Y-112664570D01*
X218791137Y-112664570D02*
X218830716Y-112740599D01*
X218830716Y-112740599D02*
X218830109Y-112801311D01*
X218830109Y-112801311D02*
X218816310Y-112836679D01*
X218816310Y-112836679D02*
X218775518Y-112882072D01*
X218775518Y-112882072D02*
X218613564Y-112942221D01*
X218613564Y-112942221D02*
X218546387Y-112936928D01*
X218546387Y-112936928D02*
X218506202Y-112921610D01*
X218506202Y-112921610D02*
X218452824Y-112880948D01*
X218452824Y-112880948D02*
X218413246Y-112804919D01*
X218663909Y-113286439D02*
X218664516Y-113225727D01*
X218664516Y-113225727D02*
X218678315Y-113190359D01*
X218678315Y-113190359D02*
X218719107Y-113144966D01*
X218719107Y-113144966D02*
X218881061Y-113084817D01*
X218881061Y-113084817D02*
X218948238Y-113090110D01*
X218948238Y-113090110D02*
X218988423Y-113105428D01*
X218988423Y-113105428D02*
X219041801Y-113146090D01*
X219041801Y-113146090D02*
X219081379Y-113222119D01*
X219081379Y-113222119D02*
X219080773Y-113282831D01*
X219080773Y-113282831D02*
X219066973Y-113318199D01*
X219066973Y-113318199D02*
X219026182Y-113363592D01*
X219026182Y-113363592D02*
X218864228Y-113423741D01*
X218864228Y-113423741D02*
X218797051Y-113418448D01*
X218797051Y-113418448D02*
X218756865Y-113403130D01*
X218756865Y-113403130D02*
X218703488Y-113362468D01*
X218703488Y-113362468D02*
X218663909Y-113286439D01*
X218928979Y-113671879D02*
X218915179Y-113707248D01*
X218915179Y-113707248D02*
X218874994Y-113691929D01*
X218874994Y-113691929D02*
X218888794Y-113656561D01*
X218888794Y-113656561D02*
X218928979Y-113671879D01*
X218928979Y-113671879D02*
X218874994Y-113691929D01*
X211280283Y-100823337D02*
X211412211Y-101076769D01*
X211091943Y-100832800D02*
X211751131Y-100799679D01*
X211751131Y-100799679D02*
X211276643Y-101187605D01*
X211746884Y-101224658D02*
X211368993Y-101365007D01*
X211692900Y-101244708D02*
X211733085Y-101260026D01*
X211733085Y-101260026D02*
X211786463Y-101300688D01*
X211786463Y-101300688D02*
X211826041Y-101376717D01*
X211826041Y-101376717D02*
X211825435Y-101437429D01*
X211825435Y-101437429D02*
X211784643Y-101482822D01*
X211784643Y-101482822D02*
X211487728Y-101593096D01*
X211738391Y-102074616D02*
X212305229Y-101864092D01*
X211765384Y-102064591D02*
X211712006Y-102023929D01*
X211712006Y-102023929D02*
X211659235Y-101922557D01*
X211659235Y-101922557D02*
X211659841Y-101861845D01*
X211659841Y-101861845D02*
X211673641Y-101826477D01*
X211673641Y-101826477D02*
X211714432Y-101781084D01*
X211714432Y-101781084D02*
X211876386Y-101720935D01*
X211876386Y-101720935D02*
X211943563Y-101726228D01*
X211943563Y-101726228D02*
X211983748Y-101741546D01*
X211983748Y-101741546D02*
X212037126Y-101782208D01*
X212037126Y-101782208D02*
X212089898Y-101883580D01*
X212089898Y-101883580D02*
X212089291Y-101944292D01*
X212081405Y-102733538D02*
X212459296Y-102593189D01*
X212648242Y-102523015D02*
X212608057Y-102507696D01*
X212608057Y-102507696D02*
X212594258Y-102543065D01*
X212594258Y-102543065D02*
X212634443Y-102558383D01*
X212634443Y-102558383D02*
X212648242Y-102523015D01*
X212648242Y-102523015D02*
X212594258Y-102543065D01*
X212551646Y-102770591D02*
X212657189Y-102973336D01*
X212780170Y-102776446D02*
X212294310Y-102956895D01*
X212294310Y-102956895D02*
X212253518Y-103002288D01*
X212253518Y-103002288D02*
X212252911Y-103062999D01*
X212252911Y-103062999D02*
X212279297Y-103113685D01*
X212951677Y-103105907D02*
X212817322Y-103095321D01*
X212517374Y-103509151D02*
X212516767Y-103569862D01*
X212516767Y-103569862D02*
X212569539Y-103671235D01*
X212569539Y-103671235D02*
X212622916Y-103711896D01*
X212622916Y-103711896D02*
X212690094Y-103717189D01*
X212690094Y-103717189D02*
X212717086Y-103707164D01*
X212717086Y-103707164D02*
X212757878Y-103661771D01*
X212757878Y-103661771D02*
X212758484Y-103601060D01*
X212758484Y-103601060D02*
X212718906Y-103525031D01*
X212718906Y-103525031D02*
X212719513Y-103464319D01*
X212719513Y-103464319D02*
X212760304Y-103418926D01*
X212760304Y-103418926D02*
X212787297Y-103408901D01*
X212787297Y-103408901D02*
X212854474Y-103414195D01*
X212854474Y-103414195D02*
X212907852Y-103454856D01*
X212907852Y-103454856D02*
X212947430Y-103530886D01*
X212947430Y-103530886D02*
X212946824Y-103591597D01*
X212952737Y-104345475D02*
X212952130Y-104406186D01*
X212952130Y-104406186D02*
X213004901Y-104507559D01*
X213004901Y-104507559D02*
X213058279Y-104548220D01*
X213058279Y-104548220D02*
X213125457Y-104553514D01*
X213125457Y-104553514D02*
X213152449Y-104543489D01*
X213152449Y-104543489D02*
X213193241Y-104498096D01*
X213193241Y-104498096D02*
X213193847Y-104437385D01*
X213193847Y-104437385D02*
X213154269Y-104361355D01*
X213154269Y-104361355D02*
X213154876Y-104300644D01*
X213154876Y-104300644D02*
X213195667Y-104255251D01*
X213195667Y-104255251D02*
X213222660Y-104245226D01*
X213222660Y-104245226D02*
X213289837Y-104250519D01*
X213289837Y-104250519D02*
X213343215Y-104291181D01*
X213343215Y-104291181D02*
X213382793Y-104367210D01*
X213382793Y-104367210D02*
X213382187Y-104427921D01*
X213202794Y-104887706D02*
X213203400Y-104826995D01*
X213203400Y-104826995D02*
X213217200Y-104791627D01*
X213217200Y-104791627D02*
X213257991Y-104746234D01*
X213257991Y-104746234D02*
X213419945Y-104686084D01*
X213419945Y-104686084D02*
X213487122Y-104691378D01*
X213487122Y-104691378D02*
X213527307Y-104706696D01*
X213527307Y-104706696D02*
X213580685Y-104747357D01*
X213580685Y-104747357D02*
X213620264Y-104823387D01*
X213620264Y-104823387D02*
X213619657Y-104884098D01*
X213619657Y-104884098D02*
X213605858Y-104919466D01*
X213605858Y-104919466D02*
X213565066Y-104964859D01*
X213565066Y-104964859D02*
X213403112Y-105025009D01*
X213403112Y-105025009D02*
X213335935Y-105019715D01*
X213335935Y-105019715D02*
X213295750Y-105004397D01*
X213295750Y-105004397D02*
X213242372Y-104963736D01*
X213242372Y-104963736D02*
X213202794Y-104887706D01*
X213413879Y-105293197D02*
X213791770Y-105152848D01*
X213737786Y-105172898D02*
X213777971Y-105188216D01*
X213777971Y-105188216D02*
X213831349Y-105228877D01*
X213831349Y-105228877D02*
X213870927Y-105304907D01*
X213870927Y-105304907D02*
X213870321Y-105365618D01*
X213870321Y-105365618D02*
X213829529Y-105411011D01*
X213829529Y-105411011D02*
X213532614Y-105521285D01*
X213829529Y-105411011D02*
X213896706Y-105416304D01*
X213896706Y-105416304D02*
X213950084Y-105456966D01*
X213950084Y-105456966D02*
X213989663Y-105532995D01*
X213989663Y-105532995D02*
X213989056Y-105593707D01*
X213989056Y-105593707D02*
X213948264Y-105639100D01*
X213948264Y-105639100D02*
X213651349Y-105749374D01*
X213915812Y-106195526D02*
X213862434Y-106154864D01*
X213862434Y-106154864D02*
X213809663Y-106053492D01*
X213809663Y-106053492D02*
X213810270Y-105992780D01*
X213810270Y-105992780D02*
X213851062Y-105947387D01*
X213851062Y-105947387D02*
X214067000Y-105867188D01*
X214067000Y-105867188D02*
X214134177Y-105872481D01*
X214134177Y-105872481D02*
X214187555Y-105913143D01*
X214187555Y-105913143D02*
X214240326Y-106014516D01*
X214240326Y-106014516D02*
X214239720Y-106075227D01*
X214239720Y-106075227D02*
X214198928Y-106120620D01*
X214198928Y-106120620D02*
X214144943Y-106140670D01*
X214144943Y-106140670D02*
X213959031Y-105907288D01*
X214359062Y-106242604D02*
X214464604Y-106445350D01*
X214587586Y-106248459D02*
X214101725Y-106428908D01*
X214101725Y-106428908D02*
X214060933Y-106474301D01*
X214060933Y-106474301D02*
X214060327Y-106535012D01*
X214060327Y-106535012D02*
X214086712Y-106585698D01*
X214179062Y-106763101D02*
X214745900Y-106552577D01*
X214297797Y-106991189D02*
X214594712Y-106880915D01*
X214594712Y-106880915D02*
X214635504Y-106835522D01*
X214635504Y-106835522D02*
X214636111Y-106774811D01*
X214636111Y-106774811D02*
X214596532Y-106698781D01*
X214596532Y-106698781D02*
X214543154Y-106658120D01*
X214543154Y-106658120D02*
X214502969Y-106642801D01*
X214429726Y-107244621D02*
X214807617Y-107104272D01*
X214996563Y-107034097D02*
X214956378Y-107018779D01*
X214956378Y-107018779D02*
X214942579Y-107054147D01*
X214942579Y-107054147D02*
X214982764Y-107069465D01*
X214982764Y-107069465D02*
X214996563Y-107034097D01*
X214996563Y-107034097D02*
X214942579Y-107054147D01*
X214939545Y-107357703D02*
X214561654Y-107498052D01*
X214885561Y-107377753D02*
X214925746Y-107393071D01*
X214925746Y-107393071D02*
X214979124Y-107433733D01*
X214979124Y-107433733D02*
X215018702Y-107509762D01*
X215018702Y-107509762D02*
X215018096Y-107570473D01*
X215018096Y-107570473D02*
X214977304Y-107615866D01*
X214977304Y-107615866D02*
X214680389Y-107726140D01*
X215308944Y-108067312D02*
X214850076Y-108237735D01*
X214850076Y-108237735D02*
X214782898Y-108232442D01*
X214782898Y-108232442D02*
X214742713Y-108217124D01*
X214742713Y-108217124D02*
X214689335Y-108176462D01*
X214689335Y-108176462D02*
X214649757Y-108100433D01*
X214649757Y-108100433D02*
X214650363Y-108039722D01*
X214958045Y-108197636D02*
X214904667Y-108156974D01*
X214904667Y-108156974D02*
X214851896Y-108055602D01*
X214851896Y-108055602D02*
X214852502Y-107994890D01*
X214852502Y-107994890D02*
X214866302Y-107959522D01*
X214866302Y-107959522D02*
X214907093Y-107914129D01*
X214907093Y-107914129D02*
X215069047Y-107853980D01*
X215069047Y-107853980D02*
X215136224Y-107859273D01*
X215136224Y-107859273D02*
X215176409Y-107874591D01*
X215176409Y-107874591D02*
X215229787Y-107915253D01*
X215229787Y-107915253D02*
X215282559Y-108016625D01*
X215282559Y-108016625D02*
X215281952Y-108077337D01*
X215625572Y-108675548D02*
X215300451Y-108917269D01*
X215300451Y-108917269D02*
X215623145Y-108918393D01*
X215623145Y-108918393D02*
X215405994Y-109120015D01*
X215405994Y-109120015D02*
X215836657Y-109081038D01*
X215696842Y-109616853D02*
X215643464Y-109576191D01*
X215643464Y-109576191D02*
X215590693Y-109474818D01*
X215590693Y-109474818D02*
X215591300Y-109414107D01*
X215591300Y-109414107D02*
X215632091Y-109368714D01*
X215632091Y-109368714D02*
X215848030Y-109288515D01*
X215848030Y-109288515D02*
X215915207Y-109293808D01*
X215915207Y-109293808D02*
X215968585Y-109334470D01*
X215968585Y-109334470D02*
X216021356Y-109435842D01*
X216021356Y-109435842D02*
X216020750Y-109496553D01*
X216020750Y-109496553D02*
X215979958Y-109541947D01*
X215979958Y-109541947D02*
X215925973Y-109561996D01*
X215925973Y-109561996D02*
X215740061Y-109328615D01*
X216131599Y-110513889D02*
X216428514Y-110403615D01*
X216428514Y-110403615D02*
X216469306Y-110358222D01*
X216469306Y-110358222D02*
X216469912Y-110297510D01*
X216469912Y-110297510D02*
X216417141Y-110196138D01*
X216417141Y-110196138D02*
X216363763Y-110155476D01*
X216158591Y-110503864D02*
X216105213Y-110463202D01*
X216105213Y-110463202D02*
X216039249Y-110336487D01*
X216039249Y-110336487D02*
X216039856Y-110275775D01*
X216039856Y-110275775D02*
X216080647Y-110230382D01*
X216080647Y-110230382D02*
X216134632Y-110210332D01*
X216134632Y-110210332D02*
X216201809Y-110215626D01*
X216201809Y-110215626D02*
X216255187Y-110256287D01*
X216255187Y-110256287D02*
X216321151Y-110383003D01*
X216321151Y-110383003D02*
X216374529Y-110423664D01*
X216303105Y-110843350D02*
X216303712Y-110782638D01*
X216303712Y-110782638D02*
X216344504Y-110737245D01*
X216344504Y-110737245D02*
X216830365Y-110556797D01*
X216448227Y-111122125D02*
X216448833Y-111061414D01*
X216448833Y-111061414D02*
X216489625Y-111016021D01*
X216489625Y-111016021D02*
X216975486Y-110835572D01*
X217142746Y-111590012D02*
X216764854Y-111730361D01*
X217088762Y-111610062D02*
X217128947Y-111625380D01*
X217128947Y-111625380D02*
X217182325Y-111666042D01*
X217182325Y-111666042D02*
X217221903Y-111742071D01*
X217221903Y-111742071D02*
X217221296Y-111802783D01*
X217221296Y-111802783D02*
X217180505Y-111848176D01*
X217180505Y-111848176D02*
X216883590Y-111958450D01*
X217148053Y-112404602D02*
X217094675Y-112363940D01*
X217094675Y-112363940D02*
X217041903Y-112262568D01*
X217041903Y-112262568D02*
X217042510Y-112201856D01*
X217042510Y-112201856D02*
X217083302Y-112156463D01*
X217083302Y-112156463D02*
X217299240Y-112076264D01*
X217299240Y-112076264D02*
X217366417Y-112081557D01*
X217366417Y-112081557D02*
X217419795Y-112122219D01*
X217419795Y-112122219D02*
X217472566Y-112223591D01*
X217472566Y-112223591D02*
X217471960Y-112284303D01*
X217471960Y-112284303D02*
X217431168Y-112329696D01*
X217431168Y-112329696D02*
X217377184Y-112349745D01*
X217377184Y-112349745D02*
X217191271Y-112116364D01*
X217385523Y-112860779D02*
X217332146Y-112820117D01*
X217332146Y-112820117D02*
X217279374Y-112718745D01*
X217279374Y-112718745D02*
X217279981Y-112658034D01*
X217279981Y-112658034D02*
X217320773Y-112612641D01*
X217320773Y-112612641D02*
X217536711Y-112532441D01*
X217536711Y-112532441D02*
X217603888Y-112537735D01*
X217603888Y-112537735D02*
X217657266Y-112578396D01*
X217657266Y-112578396D02*
X217710037Y-112679769D01*
X217710037Y-112679769D02*
X217709431Y-112740480D01*
X217709431Y-112740480D02*
X217668639Y-112785873D01*
X217668639Y-112785873D02*
X217614654Y-112805923D01*
X217614654Y-112805923D02*
X217428742Y-112572541D01*
X217609195Y-113352324D02*
X218176033Y-113141801D01*
X217636187Y-113342299D02*
X217582809Y-113301638D01*
X217582809Y-113301638D02*
X217530038Y-113200265D01*
X217530038Y-113200265D02*
X217530645Y-113139554D01*
X217530645Y-113139554D02*
X217544444Y-113104186D01*
X217544444Y-113104186D02*
X217585236Y-113058793D01*
X217585236Y-113058793D02*
X217747189Y-112998643D01*
X217747189Y-112998643D02*
X217814367Y-113003937D01*
X217814367Y-113003937D02*
X217854552Y-113019255D01*
X217854552Y-113019255D02*
X217907930Y-113059916D01*
X217907930Y-113059916D02*
X217960701Y-113161289D01*
X217960701Y-113161289D02*
X217960094Y-113222000D01*
X218290521Y-113794868D02*
X218396064Y-113997614D01*
X218519046Y-113800723D02*
X218033185Y-113981172D01*
X218033185Y-113981172D02*
X217992393Y-114026565D01*
X217992393Y-114026565D02*
X217991787Y-114087276D01*
X217991787Y-114087276D02*
X218018172Y-114137962D01*
X218150100Y-114391394D02*
X218150707Y-114330683D01*
X218150707Y-114330683D02*
X218164506Y-114295315D01*
X218164506Y-114295315D02*
X218205298Y-114249922D01*
X218205298Y-114249922D02*
X218367252Y-114189772D01*
X218367252Y-114189772D02*
X218434429Y-114195065D01*
X218434429Y-114195065D02*
X218474614Y-114210384D01*
X218474614Y-114210384D02*
X218527992Y-114251045D01*
X218527992Y-114251045D02*
X218567571Y-114327075D01*
X218567571Y-114327075D02*
X218566964Y-114387786D01*
X218566964Y-114387786D02*
X218553164Y-114423154D01*
X218553164Y-114423154D02*
X218512373Y-114468547D01*
X218512373Y-114468547D02*
X218350419Y-114528696D01*
X218350419Y-114528696D02*
X218283242Y-114523403D01*
X218283242Y-114523403D02*
X218243057Y-114508085D01*
X218243057Y-114508085D02*
X218189679Y-114467423D01*
X218189679Y-114467423D02*
X218150100Y-114391394D01*
X210420427Y-101572927D02*
X210367049Y-101532265D01*
X210367049Y-101532265D02*
X210314278Y-101430892D01*
X210314278Y-101430892D02*
X210314885Y-101370181D01*
X210314885Y-101370181D02*
X210328684Y-101334813D01*
X210328684Y-101334813D02*
X210369476Y-101289420D01*
X210369476Y-101289420D02*
X210531430Y-101229271D01*
X210531430Y-101229271D02*
X210598607Y-101234564D01*
X210598607Y-101234564D02*
X210638792Y-101249882D01*
X210638792Y-101249882D02*
X210692170Y-101290544D01*
X210692170Y-101290544D02*
X210744941Y-101391916D01*
X210744941Y-101391916D02*
X210744335Y-101452627D01*
X211008798Y-101898780D02*
X210630906Y-102039129D01*
X210890062Y-101670691D02*
X210593147Y-101780965D01*
X210593147Y-101780965D02*
X210552356Y-101826358D01*
X210552356Y-101826358D02*
X210551749Y-101887070D01*
X210551749Y-101887070D02*
X210591327Y-101963099D01*
X210591327Y-101963099D02*
X210644705Y-102003761D01*
X210644705Y-102003761D02*
X210684890Y-102019079D01*
X210802413Y-102368590D02*
X210803019Y-102307878D01*
X210803019Y-102307878D02*
X210843811Y-102262485D01*
X210843811Y-102262485D02*
X211329672Y-102082037D01*
X211246268Y-102354957D02*
X211351811Y-102557702D01*
X211474793Y-102360812D02*
X210988932Y-102541261D01*
X210988932Y-102541261D02*
X210948140Y-102586654D01*
X210948140Y-102586654D02*
X210947534Y-102647365D01*
X210947534Y-102647365D02*
X210973919Y-102698051D01*
X211066269Y-102875453D02*
X211444161Y-102735104D01*
X211633107Y-102664930D02*
X211592921Y-102649612D01*
X211592921Y-102649612D02*
X211579122Y-102684980D01*
X211579122Y-102684980D02*
X211619307Y-102700298D01*
X211619307Y-102700298D02*
X211633107Y-102664930D01*
X211633107Y-102664930D02*
X211579122Y-102684980D01*
X211549703Y-102937849D02*
X211237775Y-103204914D01*
X211237775Y-103204914D02*
X211681631Y-103191281D01*
X211528017Y-103762464D02*
X211824932Y-103652190D01*
X211824932Y-103652190D02*
X211865724Y-103606797D01*
X211865724Y-103606797D02*
X211866331Y-103546085D01*
X211866331Y-103546085D02*
X211813560Y-103444713D01*
X211813560Y-103444713D02*
X211760182Y-103404051D01*
X211555010Y-103752439D02*
X211501632Y-103711778D01*
X211501632Y-103711778D02*
X211435668Y-103585062D01*
X211435668Y-103585062D02*
X211436274Y-103524350D01*
X211436274Y-103524350D02*
X211477066Y-103478957D01*
X211477066Y-103478957D02*
X211531051Y-103458908D01*
X211531051Y-103458908D02*
X211598228Y-103464201D01*
X211598228Y-103464201D02*
X211651606Y-103504862D01*
X211651606Y-103504862D02*
X211717570Y-103631578D01*
X211717570Y-103631578D02*
X211770948Y-103672240D01*
X211998259Y-103799517D02*
X212103801Y-104002262D01*
X212226783Y-103805372D02*
X211740922Y-103985821D01*
X211740922Y-103985821D02*
X211700131Y-104031214D01*
X211700131Y-104031214D02*
X211699524Y-104091925D01*
X211699524Y-104091925D02*
X211725910Y-104142611D01*
X211950794Y-104512734D02*
X211897416Y-104472072D01*
X211897416Y-104472072D02*
X211844645Y-104370700D01*
X211844645Y-104370700D02*
X211845252Y-104309988D01*
X211845252Y-104309988D02*
X211886043Y-104264595D01*
X211886043Y-104264595D02*
X212101981Y-104184396D01*
X212101981Y-104184396D02*
X212169159Y-104189689D01*
X212169159Y-104189689D02*
X212222537Y-104230351D01*
X212222537Y-104230351D02*
X212275308Y-104331723D01*
X212275308Y-104331723D02*
X212274701Y-104392435D01*
X212274701Y-104392435D02*
X212233910Y-104437828D01*
X212233910Y-104437828D02*
X212179925Y-104457878D01*
X212179925Y-104457878D02*
X211994012Y-104224496D01*
X212109715Y-104756141D02*
X212095915Y-104791509D01*
X212095915Y-104791509D02*
X212055730Y-104776191D01*
X212055730Y-104776191D02*
X212069530Y-104740822D01*
X212069530Y-104740822D02*
X212109715Y-104756141D01*
X212109715Y-104756141D02*
X212055730Y-104776191D01*
X212101584Y-108553208D02*
X212312669Y-108958698D01*
X212444597Y-109212130D02*
X212655682Y-109617620D01*
X213172022Y-110423870D02*
X213079672Y-110246468D01*
X212782757Y-110356742D02*
X213349595Y-110146219D01*
X213349595Y-110146219D02*
X213481523Y-110399650D01*
X213059807Y-110888949D02*
X213060413Y-110828238D01*
X213060413Y-110828238D02*
X213074213Y-110792870D01*
X213074213Y-110792870D02*
X213115004Y-110747477D01*
X213115004Y-110747477D02*
X213276958Y-110687327D01*
X213276958Y-110687327D02*
X213344135Y-110692620D01*
X213344135Y-110692620D02*
X213384320Y-110707939D01*
X213384320Y-110707939D02*
X213437698Y-110748600D01*
X213437698Y-110748600D02*
X213477277Y-110824629D01*
X213477277Y-110824629D02*
X213476670Y-110885341D01*
X213476670Y-110885341D02*
X213462871Y-110920709D01*
X213462871Y-110920709D02*
X213422079Y-110966102D01*
X213422079Y-110966102D02*
X213260125Y-111026251D01*
X213260125Y-111026251D02*
X213192948Y-111020958D01*
X213192948Y-111020958D02*
X213152763Y-111005640D01*
X213152763Y-111005640D02*
X213099385Y-110964978D01*
X213099385Y-110964978D02*
X213059807Y-110888949D01*
X213270892Y-111294439D02*
X213648783Y-111154091D01*
X213540814Y-111194190D02*
X213607992Y-111199484D01*
X213607992Y-111199484D02*
X213648177Y-111214802D01*
X213648177Y-111214802D02*
X213701555Y-111255463D01*
X213701555Y-111255463D02*
X213727940Y-111306150D01*
X213442398Y-111623901D02*
X214009236Y-111413378D01*
X213793298Y-111493577D02*
X213846676Y-111534238D01*
X213846676Y-111534238D02*
X213899447Y-111635611D01*
X213899447Y-111635611D02*
X213898840Y-111696322D01*
X213898840Y-111696322D02*
X213885041Y-111731690D01*
X213885041Y-111731690D02*
X213844249Y-111777083D01*
X213844249Y-111777083D02*
X213682296Y-111837233D01*
X213682296Y-111837233D02*
X213615118Y-111831940D01*
X213615118Y-111831940D02*
X213574933Y-111816621D01*
X213574933Y-111816621D02*
X213521555Y-111775960D01*
X213521555Y-111775960D02*
X213468784Y-111674587D01*
X213468784Y-111674587D02*
X213469391Y-111613876D01*
X213825597Y-112298141D02*
X213772219Y-112257480D01*
X213772219Y-112257480D02*
X213719448Y-112156107D01*
X213719448Y-112156107D02*
X213720054Y-112095396D01*
X213720054Y-112095396D02*
X213760846Y-112050003D01*
X213760846Y-112050003D02*
X213976784Y-111969804D01*
X213976784Y-111969804D02*
X214043961Y-111975097D01*
X214043961Y-111975097D02*
X214097339Y-112015758D01*
X214097339Y-112015758D02*
X214150111Y-112117131D01*
X214150111Y-112117131D02*
X214149504Y-112177842D01*
X214149504Y-112177842D02*
X214108712Y-112223235D01*
X214108712Y-112223235D02*
X214054728Y-112243285D01*
X214054728Y-112243285D02*
X213868815Y-112009903D01*
X213944332Y-112526230D02*
X213943726Y-112586941D01*
X213943726Y-112586941D02*
X213996497Y-112688314D01*
X213996497Y-112688314D02*
X214049875Y-112728976D01*
X214049875Y-112728976D02*
X214117052Y-112734269D01*
X214117052Y-112734269D02*
X214144044Y-112724244D01*
X214144044Y-112724244D02*
X214184836Y-112678851D01*
X214184836Y-112678851D02*
X214185443Y-112618140D01*
X214185443Y-112618140D02*
X214145864Y-112542110D01*
X214145864Y-112542110D02*
X214146471Y-112481399D01*
X214146471Y-112481399D02*
X214187263Y-112436006D01*
X214187263Y-112436006D02*
X214214255Y-112425981D01*
X214214255Y-112425981D02*
X214281432Y-112431274D01*
X214281432Y-112431274D02*
X214334810Y-112471936D01*
X214334810Y-112471936D02*
X214374389Y-112547965D01*
X214374389Y-112547965D02*
X214373782Y-112608676D01*
X214229114Y-113630181D02*
X214242914Y-113594813D01*
X214242914Y-113594813D02*
X214297505Y-113514052D01*
X214297505Y-113514052D02*
X214338297Y-113468659D01*
X214338297Y-113468659D02*
X214406081Y-113413241D01*
X214406081Y-113413241D02*
X214527849Y-113337773D01*
X214527849Y-113337773D02*
X214635818Y-113297673D01*
X214635818Y-113297673D02*
X214783972Y-113272892D01*
X214783972Y-113272892D02*
X214878142Y-113268160D01*
X214878142Y-113268160D02*
X214945319Y-113273454D01*
X214945319Y-113273454D02*
X215052682Y-113294065D01*
X215052682Y-113294065D02*
X215092867Y-113309384D01*
X215050255Y-113536910D02*
X215090440Y-113552229D01*
X215090440Y-113552229D02*
X215143818Y-113592890D01*
X215143818Y-113592890D02*
X215209782Y-113719606D01*
X215209782Y-113719606D02*
X215209176Y-113780317D01*
X215209176Y-113780317D02*
X215195376Y-113815685D01*
X215195376Y-113815685D02*
X215154585Y-113861078D01*
X215154585Y-113861078D02*
X215100600Y-113881128D01*
X215100600Y-113881128D02*
X215006430Y-113885860D01*
X215006430Y-113885860D02*
X214524209Y-113702041D01*
X214524209Y-113702041D02*
X214695716Y-114031502D01*
X215434061Y-114150440D02*
X215460446Y-114201126D01*
X215460446Y-114201126D02*
X215459840Y-114261838D01*
X215459840Y-114261838D02*
X215446040Y-114297206D01*
X215446040Y-114297206D02*
X215405248Y-114342599D01*
X215405248Y-114342599D02*
X215310472Y-114408042D01*
X215310472Y-114408042D02*
X215175511Y-114458166D01*
X215175511Y-114458166D02*
X215054349Y-114472923D01*
X215054349Y-114472923D02*
X214987172Y-114467629D01*
X214987172Y-114467629D02*
X214946986Y-114452311D01*
X214946986Y-114452311D02*
X214893609Y-114411650D01*
X214893609Y-114411650D02*
X214867223Y-114360963D01*
X214867223Y-114360963D02*
X214867830Y-114300252D01*
X214867830Y-114300252D02*
X214881629Y-114264884D01*
X214881629Y-114264884D02*
X214922421Y-114219491D01*
X214922421Y-114219491D02*
X215017197Y-114154048D01*
X215017197Y-114154048D02*
X215152158Y-114103924D01*
X215152158Y-114103924D02*
X215273320Y-114089167D01*
X215273320Y-114089167D02*
X215340498Y-114094460D01*
X215340498Y-114094460D02*
X215380683Y-114109779D01*
X215380683Y-114109779D02*
X215434061Y-114150440D01*
X215223429Y-115045229D02*
X215065115Y-114741111D01*
X215144272Y-114893170D02*
X215711110Y-114682647D01*
X215711110Y-114682647D02*
X215603747Y-114662035D01*
X215603747Y-114662035D02*
X215523377Y-114631399D01*
X215523377Y-114631399D02*
X215469999Y-114590737D01*
X215487286Y-115552093D02*
X215328972Y-115247975D01*
X215408129Y-115400034D02*
X215974966Y-115189511D01*
X215974966Y-115189511D02*
X215867604Y-115168899D01*
X215867604Y-115168899D02*
X215787234Y-115138263D01*
X215787234Y-115138263D02*
X215733856Y-115097601D01*
X215363697Y-115809695D02*
X215403883Y-115825013D01*
X215403883Y-115825013D02*
X215511245Y-115845625D01*
X215511245Y-115845625D02*
X215578422Y-115850918D01*
X215578422Y-115850918D02*
X215672592Y-115846186D01*
X215672592Y-115846186D02*
X215820746Y-115821405D01*
X215820746Y-115821405D02*
X215928715Y-115781305D01*
X215928715Y-115781305D02*
X216050484Y-115705837D01*
X216050484Y-115705837D02*
X216118268Y-115650420D01*
X216118268Y-115650420D02*
X216159059Y-115605027D01*
X216159059Y-115605027D02*
X216213651Y-115524265D01*
X216213651Y-115524265D02*
X216227450Y-115488897D01*
D10*
X77454009Y-110074617D02*
X77629913Y-109736708D01*
X77608380Y-110273085D02*
X77068080Y-109578449D01*
X77068080Y-109578449D02*
X77854646Y-109800012D01*
X77279165Y-109172958D02*
X78030550Y-109462104D01*
X78030550Y-109462104D02*
X77627031Y-108999726D01*
X77627031Y-108999726D02*
X78171274Y-109191777D01*
X78171274Y-109191777D02*
X77595792Y-108564722D01*
X78399949Y-108752495D02*
X77736516Y-108294395D01*
X78611035Y-108347004D02*
X78073616Y-108389351D01*
X77947601Y-107888904D02*
X78115621Y-108556166D01*
X78544968Y-107566393D02*
X78629332Y-107486834D01*
X78629332Y-107486834D02*
X78678514Y-107474858D01*
X78678514Y-107474858D02*
X78759289Y-107484695D01*
X78759289Y-107484695D02*
X78854065Y-107550138D01*
X78854065Y-107550138D02*
X78899659Y-107627558D01*
X78899659Y-107627558D02*
X78913660Y-107683163D01*
X78913660Y-107683163D02*
X78910072Y-107772559D01*
X78910072Y-107772559D02*
X78769348Y-108042886D01*
X78769348Y-108042886D02*
X78105915Y-107584786D01*
X78105915Y-107584786D02*
X78229048Y-107348250D01*
X78229048Y-107348250D02*
X78295820Y-107302482D01*
X78295820Y-107302482D02*
X78345003Y-107290506D01*
X78345003Y-107290506D02*
X78425778Y-107300344D01*
X78425778Y-107300344D02*
X78488962Y-107343972D01*
X78488962Y-107343972D02*
X78534555Y-107421392D01*
X78534555Y-107421392D02*
X78548557Y-107476997D01*
X78548557Y-107476997D02*
X78544968Y-107566393D01*
X78544968Y-107566393D02*
X78421835Y-107802929D01*
X79167457Y-106618109D02*
X79448904Y-106077455D01*
X79951849Y-105276311D02*
X80127753Y-104938402D01*
X80106221Y-105474778D02*
X79565920Y-104780142D01*
X79565920Y-104780142D02*
X80352487Y-105001706D01*
X80058452Y-103833997D02*
X80809838Y-104123143D01*
X80809838Y-104123143D02*
X80406318Y-103660765D01*
X80406318Y-103660765D02*
X80950561Y-103852816D01*
X80950561Y-103852816D02*
X80375079Y-103225761D01*
X81288368Y-103121393D02*
X81284779Y-103210789D01*
X81284779Y-103210789D02*
X81214417Y-103345952D01*
X81214417Y-103345952D02*
X81147644Y-103391720D01*
X81147644Y-103391720D02*
X81066870Y-103381882D01*
X81066870Y-103381882D02*
X80814133Y-103207368D01*
X80814133Y-103207368D02*
X80768539Y-103129948D01*
X80768539Y-103129948D02*
X80772128Y-103040552D01*
X80772128Y-103040552D02*
X80842490Y-102905389D01*
X80842490Y-102905389D02*
X80909263Y-102859621D01*
X80909263Y-102859621D02*
X80990037Y-102869459D01*
X80990037Y-102869459D02*
X81053222Y-102913087D01*
X81053222Y-102913087D02*
X80940502Y-103294625D01*
X81495864Y-102805298D02*
X81053575Y-102499898D01*
X80832430Y-102347198D02*
X80846432Y-102402803D01*
X80846432Y-102402803D02*
X80895614Y-102390827D01*
X80895614Y-102390827D02*
X80881613Y-102335222D01*
X80881613Y-102335222D02*
X80832430Y-102347198D01*
X80832430Y-102347198D02*
X80895614Y-102390827D01*
X81671768Y-102467390D02*
X81229479Y-102161990D01*
X81355847Y-102249247D02*
X81310253Y-102171827D01*
X81310253Y-102171827D02*
X81296252Y-102116222D01*
X81296252Y-102116222D02*
X81299841Y-102026826D01*
X81299841Y-102026826D02*
X81335021Y-101959244D01*
X82058757Y-101723990D02*
X81395324Y-101265890D01*
X82027165Y-101702176D02*
X82023576Y-101791572D01*
X82023576Y-101791572D02*
X81953215Y-101926736D01*
X81953215Y-101926736D02*
X81886442Y-101972503D01*
X81886442Y-101972503D02*
X81837259Y-101984480D01*
X81837259Y-101984480D02*
X81756485Y-101974642D01*
X81756485Y-101974642D02*
X81566932Y-101843756D01*
X81566932Y-101843756D02*
X81521339Y-101766337D01*
X81521339Y-101766337D02*
X81507337Y-101710732D01*
X81507337Y-101710732D02*
X81510926Y-101621336D01*
X81510926Y-101621336D02*
X81581287Y-101486172D01*
X81581287Y-101486172D02*
X81648060Y-101440405D01*
X82516109Y-100845427D02*
X81852675Y-100387327D01*
X82727194Y-100439936D02*
X82189775Y-100482282D01*
X82063760Y-99981836D02*
X82231780Y-100649098D01*
X82994639Y-99843676D02*
X82991050Y-99933073D01*
X82991050Y-99933073D02*
X82920688Y-100068236D01*
X82920688Y-100068236D02*
X82853915Y-100114004D01*
X82853915Y-100114004D02*
X82773141Y-100104166D01*
X82773141Y-100104166D02*
X82520404Y-99929652D01*
X82520404Y-99929652D02*
X82474810Y-99852232D01*
X82474810Y-99852232D02*
X82478399Y-99762836D01*
X82478399Y-99762836D02*
X82548761Y-99627673D01*
X82548761Y-99627673D02*
X82615534Y-99581905D01*
X82615534Y-99581905D02*
X82696308Y-99591743D01*
X82696308Y-99591743D02*
X82759493Y-99635371D01*
X82759493Y-99635371D02*
X82646773Y-100016909D01*
X82724665Y-99289764D02*
X83254906Y-99426209D01*
X82900569Y-98951855D02*
X83254906Y-99426209D01*
X83254906Y-99426209D02*
X83377686Y-99602863D01*
X83377686Y-99602863D02*
X83391688Y-99658468D01*
X83391688Y-99658468D02*
X83388099Y-99747864D01*
X83483582Y-98986928D02*
X82820148Y-98528828D01*
X83072885Y-98703342D02*
X83076474Y-98613946D01*
X83076474Y-98613946D02*
X83146835Y-98478782D01*
X83146835Y-98478782D02*
X83213608Y-98433015D01*
X83213608Y-98433015D02*
X83262791Y-98421038D01*
X83262791Y-98421038D02*
X83343565Y-98430876D01*
X83343565Y-98430876D02*
X83533118Y-98561762D01*
X83533118Y-98561762D02*
X83578712Y-98639181D01*
X83578712Y-98639181D02*
X83592713Y-98694786D01*
X83592713Y-98694786D02*
X83589124Y-98784182D01*
X83589124Y-98784182D02*
X83518763Y-98919346D01*
X83518763Y-98919346D02*
X83451990Y-98965113D01*
X83870571Y-98243528D02*
X83803799Y-98289295D01*
X83803799Y-98289295D02*
X83754616Y-98301272D01*
X83754616Y-98301272D02*
X83673841Y-98291434D01*
X83673841Y-98291434D02*
X83484289Y-98160548D01*
X83484289Y-98160548D02*
X83438695Y-98083129D01*
X83438695Y-98083129D02*
X83424693Y-98027524D01*
X83424693Y-98027524D02*
X83428282Y-97938128D01*
X83428282Y-97938128D02*
X83481054Y-97836755D01*
X83481054Y-97836755D02*
X83547826Y-97790988D01*
X83547826Y-97790988D02*
X83597009Y-97779011D01*
X83597009Y-97779011D02*
X83677784Y-97788849D01*
X83677784Y-97788849D02*
X83867336Y-97919734D01*
X83867336Y-97919734D02*
X83912930Y-97997154D01*
X83912930Y-97997154D02*
X83926931Y-98052759D01*
X83926931Y-98052759D02*
X83923343Y-98142155D01*
X83923343Y-98142155D02*
X83870571Y-98243528D01*
X84310332Y-97398755D02*
X83962819Y-97158798D01*
X83962819Y-97158798D02*
X83882045Y-97148960D01*
X83882045Y-97148960D02*
X83815272Y-97194728D01*
X83815272Y-97194728D02*
X83744910Y-97329891D01*
X83744910Y-97329891D02*
X83741321Y-97419287D01*
X84278740Y-97376941D02*
X84275151Y-97466337D01*
X84275151Y-97466337D02*
X84187199Y-97635291D01*
X84187199Y-97635291D02*
X84120426Y-97681059D01*
X84120426Y-97681059D02*
X84039652Y-97671221D01*
X84039652Y-97671221D02*
X83976468Y-97627593D01*
X83976468Y-97627593D02*
X83930874Y-97550173D01*
X83930874Y-97550173D02*
X83934463Y-97460777D01*
X83934463Y-97460777D02*
X84022415Y-97291823D01*
X84022415Y-97291823D02*
X84026003Y-97202427D01*
X84486237Y-97060846D02*
X84043947Y-96755446D01*
X84170316Y-96842703D02*
X84124722Y-96765283D01*
X84124722Y-96765283D02*
X84110720Y-96709678D01*
X84110720Y-96709678D02*
X84114309Y-96620282D01*
X84114309Y-96620282D02*
X84149490Y-96552700D01*
X84873226Y-96317446D02*
X84209792Y-95859346D01*
X84841634Y-96295632D02*
X84838045Y-96385028D01*
X84838045Y-96385028D02*
X84767683Y-96520192D01*
X84767683Y-96520192D02*
X84700910Y-96565959D01*
X84700910Y-96565959D02*
X84651728Y-96577936D01*
X84651728Y-96577936D02*
X84570953Y-96568098D01*
X84570953Y-96568098D02*
X84381401Y-96437212D01*
X84381401Y-96437212D02*
X84335807Y-96359793D01*
X84335807Y-96359793D02*
X84321805Y-96304188D01*
X84321805Y-96304188D02*
X84325394Y-96214792D01*
X84325394Y-96214792D02*
X84395756Y-96079628D01*
X84395756Y-96079628D02*
X84462529Y-96033861D01*
X80298768Y-107894198D02*
X79635334Y-107436098D01*
X79635334Y-107436098D02*
X79776057Y-107165771D01*
X79776057Y-107165771D02*
X79842830Y-107120003D01*
X79842830Y-107120003D02*
X79892013Y-107108027D01*
X79892013Y-107108027D02*
X79972787Y-107117864D01*
X79972787Y-107117864D02*
X80067563Y-107183307D01*
X80067563Y-107183307D02*
X80113157Y-107260727D01*
X80113157Y-107260727D02*
X80127159Y-107316332D01*
X80127159Y-107316332D02*
X80123570Y-107405728D01*
X80123570Y-107405728D02*
X79982847Y-107676055D01*
X80816067Y-106735470D02*
X80830069Y-106791075D01*
X80830069Y-106791075D02*
X80808890Y-106914262D01*
X80808890Y-106914262D02*
X80773709Y-106981844D01*
X80773709Y-106981844D02*
X80689346Y-107061402D01*
X80689346Y-107061402D02*
X80590981Y-107085355D01*
X80590981Y-107085355D02*
X80510206Y-107075518D01*
X80510206Y-107075518D02*
X80366247Y-107022051D01*
X80366247Y-107022051D02*
X80271471Y-106956609D01*
X80271471Y-106956609D02*
X80162693Y-106835561D01*
X80162693Y-106835561D02*
X80117099Y-106758141D01*
X80117099Y-106758141D02*
X80089096Y-106646931D01*
X80089096Y-106646931D02*
X80110275Y-106523744D01*
X80110275Y-106523744D02*
X80145456Y-106456162D01*
X80145456Y-106456162D02*
X80229819Y-106376604D01*
X80229819Y-106376604D02*
X80279002Y-106364627D01*
X80813185Y-105998487D02*
X80897549Y-105918929D01*
X80897549Y-105918929D02*
X80946731Y-105906952D01*
X80946731Y-105906952D02*
X81027506Y-105916790D01*
X81027506Y-105916790D02*
X81122282Y-105982233D01*
X81122282Y-105982233D02*
X81167876Y-106059652D01*
X81167876Y-106059652D02*
X81181877Y-106115257D01*
X81181877Y-106115257D02*
X81178289Y-106204653D01*
X81178289Y-106204653D02*
X81037565Y-106474980D01*
X81037565Y-106474980D02*
X80374132Y-106016880D01*
X80374132Y-106016880D02*
X80497264Y-105780344D01*
X80497264Y-105780344D02*
X80564037Y-105734577D01*
X80564037Y-105734577D02*
X80613220Y-105722600D01*
X80613220Y-105722600D02*
X80693995Y-105732438D01*
X80693995Y-105732438D02*
X80757179Y-105776066D01*
X80757179Y-105776066D02*
X80802772Y-105853486D01*
X80802772Y-105853486D02*
X80816774Y-105909091D01*
X80816774Y-105909091D02*
X80813185Y-105998487D01*
X80813185Y-105998487D02*
X80690052Y-106235023D01*
X81846725Y-104920599D02*
X81183291Y-104462499D01*
X81815133Y-104898785D02*
X81811544Y-104988181D01*
X81811544Y-104988181D02*
X81741182Y-105123345D01*
X81741182Y-105123345D02*
X81674409Y-105169112D01*
X81674409Y-105169112D02*
X81625227Y-105181089D01*
X81625227Y-105181089D02*
X81544452Y-105171251D01*
X81544452Y-105171251D02*
X81354900Y-105040365D01*
X81354900Y-105040365D02*
X81309306Y-104962946D01*
X81309306Y-104962946D02*
X81295304Y-104907341D01*
X81295304Y-104907341D02*
X81298893Y-104817945D01*
X81298893Y-104817945D02*
X81369255Y-104682781D01*
X81369255Y-104682781D02*
X81436028Y-104637014D01*
X82131761Y-104290549D02*
X82128172Y-104379945D01*
X82128172Y-104379945D02*
X82057810Y-104515108D01*
X82057810Y-104515108D02*
X81991037Y-104560876D01*
X81991037Y-104560876D02*
X81910263Y-104551038D01*
X81910263Y-104551038D02*
X81657526Y-104376524D01*
X81657526Y-104376524D02*
X81611932Y-104299104D01*
X81611932Y-104299104D02*
X81615521Y-104209708D01*
X81615521Y-104209708D02*
X81685883Y-104074545D01*
X81685883Y-104074545D02*
X81752656Y-104028777D01*
X81752656Y-104028777D02*
X81833430Y-104038615D01*
X81833430Y-104038615D02*
X81896614Y-104082244D01*
X81896614Y-104082244D02*
X81783894Y-104463781D01*
X82290074Y-103986431D02*
X82356847Y-103940663D01*
X82356847Y-103940663D02*
X82427209Y-103805500D01*
X82427209Y-103805500D02*
X82430798Y-103716104D01*
X82430798Y-103716104D02*
X82385204Y-103638684D01*
X82385204Y-103638684D02*
X82353612Y-103616870D01*
X82353612Y-103616870D02*
X82272837Y-103607032D01*
X82272837Y-103607032D02*
X82206064Y-103652800D01*
X82206064Y-103652800D02*
X82153293Y-103754173D01*
X82153293Y-103754173D02*
X82086520Y-103799940D01*
X82086520Y-103799940D02*
X82005746Y-103790102D01*
X82005746Y-103790102D02*
X81974153Y-103768288D01*
X81974153Y-103768288D02*
X81928560Y-103690869D01*
X81928560Y-103690869D02*
X81932148Y-103601473D01*
X81932148Y-103601473D02*
X81984920Y-103500100D01*
X81984920Y-103500100D02*
X82051693Y-103454332D01*
X82638294Y-103400009D02*
X82196005Y-103094609D01*
X81974860Y-102941909D02*
X81988862Y-102997514D01*
X81988862Y-102997514D02*
X82038044Y-102985538D01*
X82038044Y-102985538D02*
X82024043Y-102929933D01*
X82024043Y-102929933D02*
X81974860Y-102941909D01*
X81974860Y-102941909D02*
X82038044Y-102985538D01*
X82530223Y-102452583D02*
X83067288Y-102823426D01*
X83067288Y-102823426D02*
X83112882Y-102900845D01*
X83112882Y-102900845D02*
X83126884Y-102956450D01*
X83126884Y-102956450D02*
X83123295Y-103045846D01*
X83123295Y-103045846D02*
X83070524Y-103147219D01*
X83070524Y-103147219D02*
X83003751Y-103192986D01*
X82940920Y-102736168D02*
X82937331Y-102825564D01*
X82937331Y-102825564D02*
X82866969Y-102960728D01*
X82866969Y-102960728D02*
X82800196Y-103006496D01*
X82800196Y-103006496D02*
X82751014Y-103018472D01*
X82751014Y-103018472D02*
X82670239Y-103008634D01*
X82670239Y-103008634D02*
X82480687Y-102877749D01*
X82480687Y-102877749D02*
X82435093Y-102800329D01*
X82435093Y-102800329D02*
X82421091Y-102744724D01*
X82421091Y-102744724D02*
X82424680Y-102655328D01*
X82424680Y-102655328D02*
X82495042Y-102520165D01*
X82495042Y-102520165D02*
X82561815Y-102474397D01*
X82706127Y-102114673D02*
X83148416Y-102420073D01*
X82769311Y-102158302D02*
X82755310Y-102102697D01*
X82755310Y-102102697D02*
X82758898Y-102013301D01*
X82758898Y-102013301D02*
X82811670Y-101911928D01*
X82811670Y-101911928D02*
X82878443Y-101866161D01*
X82878443Y-101866161D02*
X82959217Y-101875998D01*
X82959217Y-101875998D02*
X83306730Y-102115955D01*
X83591766Y-101485905D02*
X83588177Y-101575301D01*
X83588177Y-101575301D02*
X83517815Y-101710464D01*
X83517815Y-101710464D02*
X83451043Y-101756232D01*
X83451043Y-101756232D02*
X83370268Y-101746394D01*
X83370268Y-101746394D02*
X83117531Y-101571880D01*
X83117531Y-101571880D02*
X83071937Y-101494460D01*
X83071937Y-101494460D02*
X83075526Y-101405064D01*
X83075526Y-101405064D02*
X83145888Y-101269901D01*
X83145888Y-101269901D02*
X83212661Y-101224133D01*
X83212661Y-101224133D02*
X83293435Y-101233971D01*
X83293435Y-101233971D02*
X83356620Y-101277600D01*
X83356620Y-101277600D02*
X83243900Y-101659137D01*
X83957576Y-100865692D02*
X83294142Y-100407592D01*
X83925984Y-100843878D02*
X83922395Y-100933274D01*
X83922395Y-100933274D02*
X83852033Y-101068438D01*
X83852033Y-101068438D02*
X83785260Y-101114205D01*
X83785260Y-101114205D02*
X83736078Y-101126182D01*
X83736078Y-101126182D02*
X83655303Y-101116344D01*
X83655303Y-101116344D02*
X83465751Y-100985458D01*
X83465751Y-100985458D02*
X83420157Y-100908039D01*
X83420157Y-100908039D02*
X83406155Y-100852434D01*
X83406155Y-100852434D02*
X83409744Y-100763038D01*
X83409744Y-100763038D02*
X83480106Y-100627874D01*
X83480106Y-100627874D02*
X83546879Y-100582107D01*
X84414927Y-99987129D02*
X83751493Y-99529029D01*
X84004230Y-99703543D02*
X84007819Y-99614147D01*
X84007819Y-99614147D02*
X84078181Y-99478983D01*
X84078181Y-99478983D02*
X84144953Y-99433216D01*
X84144953Y-99433216D02*
X84194136Y-99421239D01*
X84194136Y-99421239D02*
X84274911Y-99431077D01*
X84274911Y-99431077D02*
X84464463Y-99561963D01*
X84464463Y-99561963D02*
X84510057Y-99639382D01*
X84510057Y-99639382D02*
X84524059Y-99694987D01*
X84524059Y-99694987D02*
X84520470Y-99784383D01*
X84520470Y-99784383D02*
X84450108Y-99919547D01*
X84450108Y-99919547D02*
X84383335Y-99965314D01*
X84271675Y-99107283D02*
X84801917Y-99243729D01*
X84447580Y-98769374D02*
X84801917Y-99243729D01*
X84801917Y-99243729D02*
X84924696Y-99420382D01*
X84924696Y-99420382D02*
X84938698Y-99475987D01*
X84938698Y-99475987D02*
X84935109Y-99565383D01*
X84754148Y-97602947D02*
X85228029Y-97930162D01*
X85228029Y-97930162D02*
X85305215Y-98029395D01*
X85305215Y-98029395D02*
X85333218Y-98140606D01*
X85333218Y-98140606D02*
X85312039Y-98263793D01*
X85312039Y-98263793D02*
X85276858Y-98331374D01*
X84894871Y-97332620D02*
X85646257Y-97621765D01*
X85646257Y-97621765D02*
X85242738Y-97159388D01*
X85242738Y-97159388D02*
X85786981Y-97351438D01*
X85786981Y-97351438D02*
X85211499Y-96724384D01*
X85952472Y-96868528D02*
X86001655Y-96856551D01*
X86001655Y-96856551D02*
X86015656Y-96912157D01*
X86015656Y-96912157D02*
X85966474Y-96924133D01*
X85966474Y-96924133D02*
X85952472Y-96868528D01*
X85952472Y-96868528D02*
X86015656Y-96912157D01*
X129421819Y-81427733D02*
X130136104Y-81427733D01*
X130136104Y-81427733D02*
X130278961Y-81475352D01*
X130278961Y-81475352D02*
X130374200Y-81570590D01*
X130374200Y-81570590D02*
X130421819Y-81713447D01*
X130421819Y-81713447D02*
X130421819Y-81808685D01*
X130421819Y-80427733D02*
X130421819Y-80999161D01*
X130421819Y-80713447D02*
X129421819Y-80713447D01*
X129421819Y-80713447D02*
X129564676Y-80808685D01*
X129564676Y-80808685D02*
X129659914Y-80903923D01*
X129659914Y-80903923D02*
X129707533Y-80999161D01*
X205772929Y-33938932D02*
X205957800Y-34628879D01*
X205957800Y-34628879D02*
X205948777Y-34779193D01*
X205948777Y-34779193D02*
X205881434Y-34895836D01*
X205881434Y-34895836D02*
X205755769Y-34978806D01*
X205755769Y-34978806D02*
X205663776Y-35003456D01*
X206140901Y-33840334D02*
X206738855Y-33680113D01*
X206738855Y-33680113D02*
X206515477Y-34134358D01*
X206515477Y-34134358D02*
X206653467Y-34097384D01*
X206653467Y-34097384D02*
X206757784Y-34118731D01*
X206757784Y-34118731D02*
X206816106Y-34152402D01*
X206816106Y-34152402D02*
X206886752Y-34232071D01*
X206886752Y-34232071D02*
X206948375Y-34462053D01*
X206948375Y-34462053D02*
X206927028Y-34566371D01*
X206927028Y-34566371D02*
X206893356Y-34624692D01*
X206893356Y-34624692D02*
X206813688Y-34695338D01*
X206813688Y-34695338D02*
X206537709Y-34769286D01*
X206537709Y-34769286D02*
X206433392Y-34747939D01*
X206433392Y-34747939D02*
X206375070Y-34714267D01*
X161800133Y-81373619D02*
X161466800Y-80897428D01*
X161228705Y-81373619D02*
X161228705Y-80373619D01*
X161228705Y-80373619D02*
X161609657Y-80373619D01*
X161609657Y-80373619D02*
X161704895Y-80421238D01*
X161704895Y-80421238D02*
X161752514Y-80468857D01*
X161752514Y-80468857D02*
X161800133Y-80564095D01*
X161800133Y-80564095D02*
X161800133Y-80706952D01*
X161800133Y-80706952D02*
X161752514Y-80802190D01*
X161752514Y-80802190D02*
X161704895Y-80849809D01*
X161704895Y-80849809D02*
X161609657Y-80897428D01*
X161609657Y-80897428D02*
X161228705Y-80897428D01*
X162181086Y-80468857D02*
X162228705Y-80421238D01*
X162228705Y-80421238D02*
X162323943Y-80373619D01*
X162323943Y-80373619D02*
X162562038Y-80373619D01*
X162562038Y-80373619D02*
X162657276Y-80421238D01*
X162657276Y-80421238D02*
X162704895Y-80468857D01*
X162704895Y-80468857D02*
X162752514Y-80564095D01*
X162752514Y-80564095D02*
X162752514Y-80659333D01*
X162752514Y-80659333D02*
X162704895Y-80802190D01*
X162704895Y-80802190D02*
X162133467Y-81373619D01*
X162133467Y-81373619D02*
X162752514Y-81373619D01*
X160825689Y-61079818D02*
X160677793Y-61631776D01*
X160751741Y-61355797D02*
X159785815Y-61096978D01*
X159785815Y-61096978D02*
X159899155Y-61225945D01*
X159899155Y-61225945D02*
X159966499Y-61342587D01*
X159966499Y-61342587D02*
X159987846Y-61446905D01*
X167092889Y-111841901D02*
X167092889Y-112556186D01*
X167092889Y-112556186D02*
X167045270Y-112699043D01*
X167045270Y-112699043D02*
X166950032Y-112794282D01*
X166950032Y-112794282D02*
X166807175Y-112841901D01*
X166807175Y-112841901D02*
X166711937Y-112841901D01*
X167997651Y-112175234D02*
X167997651Y-112841901D01*
X167759556Y-111794282D02*
X167521461Y-112508567D01*
X167521461Y-112508567D02*
X168140508Y-112508567D01*
X161826133Y-78833619D02*
X161492800Y-78357428D01*
X161254705Y-78833619D02*
X161254705Y-77833619D01*
X161254705Y-77833619D02*
X161635657Y-77833619D01*
X161635657Y-77833619D02*
X161730895Y-77881238D01*
X161730895Y-77881238D02*
X161778514Y-77928857D01*
X161778514Y-77928857D02*
X161826133Y-78024095D01*
X161826133Y-78024095D02*
X161826133Y-78166952D01*
X161826133Y-78166952D02*
X161778514Y-78262190D01*
X161778514Y-78262190D02*
X161730895Y-78309809D01*
X161730895Y-78309809D02*
X161635657Y-78357428D01*
X161635657Y-78357428D02*
X161254705Y-78357428D01*
X162778514Y-78833619D02*
X162207086Y-78833619D01*
X162492800Y-78833619D02*
X162492800Y-77833619D01*
X162492800Y-77833619D02*
X162397562Y-77976476D01*
X162397562Y-77976476D02*
X162302324Y-78071714D01*
X162302324Y-78071714D02*
X162207086Y-78119333D01*
D12*
X132367000Y-76444400D02*
X133707000Y-76444400D01*
X132367000Y-77934400D02*
X132367000Y-76444400D01*
X132367000Y-84254400D02*
X131167000Y-84254400D01*
X132367000Y-84254400D02*
X132367000Y-85744400D01*
X132367000Y-85744400D02*
X133707000Y-85744400D01*
X136427000Y-85744400D02*
X138167000Y-85744400D01*
X138167000Y-76444400D02*
X136427000Y-76444400D01*
X138167000Y-85744400D02*
X138167000Y-76444400D01*
X134346348Y-56596599D02*
X134028150Y-57147734D01*
X134675198Y-59562549D02*
X134028150Y-57147734D01*
X135226333Y-59880747D02*
X134675198Y-59562549D01*
X135330292Y-55245912D02*
X137262143Y-54728274D01*
X136753797Y-60558504D02*
X138685648Y-60040866D01*
X138789607Y-55406031D02*
X139340742Y-55724229D01*
X139669592Y-58690179D02*
X139987790Y-58139044D01*
X139987790Y-58139044D02*
X139340742Y-55724229D01*
X203905697Y-30821151D02*
X201917968Y-23402841D01*
X204487331Y-22714383D02*
X201917968Y-23402841D01*
X204578627Y-33332558D02*
X204234397Y-32047878D01*
X205863309Y-32988330D02*
X204578627Y-33332558D01*
X206475060Y-30132693D02*
X203905697Y-30821151D01*
X206475060Y-30132693D02*
X204487331Y-22714383D01*
X161239736Y-81828800D02*
X162693864Y-81828800D01*
X161239736Y-83648800D02*
X162693864Y-83648800D01*
X159331015Y-60457477D02*
X161220394Y-53406219D01*
X164643606Y-61880981D02*
X166532985Y-54829723D01*
X166532985Y-54829723D02*
X165422171Y-54532080D01*
X166096223Y-108347080D02*
X166096224Y-100667081D01*
X166096223Y-110947080D02*
X166096222Y-109617081D01*
X167426223Y-110947082D02*
X166096223Y-110947080D01*
X168756223Y-108347081D02*
X166096223Y-108347080D01*
X168756223Y-108347081D02*
X168756224Y-100667082D01*
X168756224Y-100667082D02*
X166096224Y-100667081D01*
X161265736Y-79288800D02*
X162719864Y-79288800D01*
X161265736Y-81108800D02*
X162719864Y-81108800D01*
X158636004Y-71095253D02*
X156604004Y-71095253D01*
X156604003Y-69063253D01*
X158636004Y-69063253D01*
X158636004Y-71095253D01*
M02*
