G04 #@! TF.GenerationSoftware,KiCad,Pcbnew,8.0.3*
G04 #@! TF.CreationDate,2024-08-29T14:39:33+08:00*
G04 #@! TF.ProjectId,awkb_monosplit,61776b62-5f6d-46f6-9e6f-73706c69742e,rev?*
G04 #@! TF.SameCoordinates,Original*
G04 #@! TF.FileFunction,Legend,Bot*
G04 #@! TF.FilePolarity,Positive*
%FSLAX46Y46*%
G04 Gerber Fmt 4.6, Leading zero omitted, Abs format (unit mm)*
G04 Created by KiCad (PCBNEW 8.0.3) date 2024-08-29 14:39:33*
%MOMM*%
%LPD*%
G01*
G04 APERTURE LIST*
%ADD10C,0.150000*%
%ADD11C,0.500000*%
%ADD12C,0.800000*%
%ADD13C,0.300000*%
%ADD14C,3.000000*%
%ADD15C,3.500000*%
%ADD16C,1.000000*%
%ADD17C,0.400000*%
%ADD18C,0.200000*%
%ADD19C,0.120000*%
G04 APERTURE END LIST*
D10*
X274525855Y-130179676D02*
G75*
G02*
X251325855Y-130179676I-11600000J0D01*
G01*
X251325855Y-130179676D02*
G75*
G02*
X274525855Y-130179676I11600000J0D01*
G01*
X182639324Y-50596706D02*
X182824194Y-51286653D01*
X182824194Y-51286653D02*
X182907165Y-51412318D01*
X182907165Y-51412318D02*
X183023807Y-51479661D01*
X183023807Y-51479661D02*
X183174122Y-51488684D01*
X183174122Y-51488684D02*
X183266114Y-51464034D01*
X181719394Y-50843200D02*
X182179359Y-50719953D01*
X182179359Y-50719953D02*
X182348602Y-51167593D01*
X182348602Y-51167593D02*
X182290281Y-51133922D01*
X182290281Y-51133922D02*
X182185964Y-51112574D01*
X182185964Y-51112574D02*
X181955981Y-51174198D01*
X181955981Y-51174198D02*
X181876313Y-51244844D01*
X181876313Y-51244844D02*
X181842641Y-51303165D01*
X181842641Y-51303165D02*
X181821294Y-51407483D01*
X181821294Y-51407483D02*
X181882918Y-51637465D01*
X181882918Y-51637465D02*
X181953564Y-51717133D01*
X181953564Y-51717133D02*
X182011885Y-51750805D01*
X182011885Y-51750805D02*
X182116203Y-51772152D01*
X182116203Y-51772152D02*
X182346185Y-51710529D01*
X182346185Y-51710529D02*
X182425853Y-51639883D01*
X182425853Y-51639883D02*
X182459525Y-51581561D01*
X201897503Y-29085088D02*
X201207556Y-29269958D01*
X201207556Y-29269958D02*
X201081891Y-29352929D01*
X201081891Y-29352929D02*
X201014548Y-29469571D01*
X201014548Y-29469571D02*
X201005525Y-29619886D01*
X201005525Y-29619886D02*
X201030175Y-29711878D01*
X201663333Y-28211155D02*
X201712632Y-28395140D01*
X201712632Y-28395140D02*
X201691285Y-28499458D01*
X201691285Y-28499458D02*
X201657613Y-28557779D01*
X201657613Y-28557779D02*
X201544273Y-28686746D01*
X201544273Y-28686746D02*
X201372612Y-28782042D01*
X201372612Y-28782042D02*
X201004640Y-28880639D01*
X201004640Y-28880639D02*
X200900323Y-28859292D01*
X200900323Y-28859292D02*
X200842002Y-28825621D01*
X200842002Y-28825621D02*
X200771356Y-28745952D01*
X200771356Y-28745952D02*
X200722057Y-28561967D01*
X200722057Y-28561967D02*
X200743404Y-28457649D01*
X200743404Y-28457649D02*
X200777076Y-28399328D01*
X200777076Y-28399328D02*
X200856744Y-28328682D01*
X200856744Y-28328682D02*
X201086726Y-28267058D01*
X201086726Y-28267058D02*
X201191044Y-28288405D01*
X201191044Y-28288405D02*
X201249365Y-28322077D01*
X201249365Y-28322077D02*
X201320011Y-28401745D01*
X201320011Y-28401745D02*
X201369310Y-28585731D01*
X201369310Y-28585731D02*
X201347963Y-28690049D01*
X201347963Y-28690049D02*
X201314291Y-28748370D01*
X201314291Y-28748370D02*
X201234623Y-28819016D01*
X110843118Y-118336189D02*
X113530762Y-119735287D01*
D11*
X111112870Y-118251137D02*
X113286047Y-119382423D01*
D12*
X111384446Y-118054294D02*
X112215593Y-116457678D01*
D10*
X111937349Y-115692771D02*
X112114750Y-115785122D01*
D13*
X112072226Y-115650246D02*
X112372363Y-115073689D01*
D10*
X112283662Y-115027514D02*
X111937349Y-115692771D01*
X112897899Y-114388991D02*
X110843118Y-118336189D01*
D14*
X114002889Y-115471534D02*
X112968573Y-117458437D01*
D10*
X116377248Y-119075049D02*
X120634899Y-121291443D01*
D15*
X119869427Y-118863676D02*
X113926454Y-115769959D01*
D11*
X120572935Y-120977339D02*
X119442908Y-120332716D01*
D10*
X120634899Y-121291443D02*
X122297196Y-118098204D01*
X121078908Y-120395198D02*
X122117843Y-118399421D01*
D16*
X121576639Y-118399535D02*
X120422269Y-120617062D01*
D17*
X122071793Y-118206343D02*
X120963029Y-117629157D01*
D10*
X122297196Y-118098204D02*
X115023705Y-114311864D01*
X112283660Y-115027513D02*
G75*
G02*
X115023705Y-114311864I1727844J-1012186D01*
G01*
D16*
X113373837Y-119178440D02*
G75*
G02*
X116207143Y-118535546I1773651J-1251883D01*
G01*
D10*
X113543941Y-119717942D02*
G75*
G02*
X116377247Y-119075050I1773653J-1251897D01*
G01*
X248403764Y-55195096D02*
X248546872Y-55931318D01*
X248486983Y-54313013D02*
X249336083Y-58681253D01*
X248546872Y-55931318D02*
X248743197Y-55893156D01*
D13*
X248625953Y-55814074D02*
X248501927Y-55176016D01*
D10*
X249336083Y-58681253D02*
X252310414Y-58103103D01*
D11*
X249494247Y-58446765D02*
X251899233Y-57979283D01*
D12*
X249584248Y-58123657D02*
X249240792Y-56356729D01*
D14*
X250025656Y-54472346D02*
X250453067Y-56671192D01*
D10*
X254127088Y-55814415D02*
X258838900Y-54898532D01*
D15*
X256728516Y-53475061D02*
X250151613Y-54753478D01*
D16*
X257775659Y-52049053D02*
X258252680Y-54503120D01*
D17*
X258042904Y-51589620D02*
X256815872Y-51828132D01*
D10*
X258151986Y-51364673D02*
X250102642Y-52929307D01*
D11*
X258594872Y-54691288D02*
X257309216Y-54890256D01*
D10*
X258628458Y-53920722D02*
X258199139Y-51712059D01*
X258838900Y-54898532D02*
X258151986Y-51364673D01*
X248403765Y-55195097D02*
G75*
G02*
X250102642Y-52929307I1982328J283461D01*
G01*
D16*
X251840957Y-57764996D02*
G75*
G02*
X253658115Y-55498086I2167403J124380D01*
G01*
D10*
X252309931Y-58081324D02*
G75*
G02*
X254127088Y-55814416I2167406J124376D01*
G01*
X196377697Y-85160274D02*
X196571812Y-85884718D01*
X196399183Y-84274533D02*
X197550928Y-88572901D01*
X196571812Y-85884718D02*
X196764999Y-85832954D01*
D13*
X196642523Y-85762244D02*
X196474290Y-85134393D01*
D10*
X197550928Y-88572901D02*
X200477682Y-87788681D01*
D11*
X197692349Y-88327954D02*
X200058867Y-87693845D01*
D12*
X197759592Y-87999353D02*
X197293718Y-86260687D01*
D14*
X197945222Y-84326147D02*
X198524976Y-86489820D01*
D10*
X202130282Y-85378844D02*
X206766726Y-84136512D01*
D15*
X204562185Y-82863720D02*
X198090482Y-84597808D01*
D16*
X205507306Y-81368144D02*
X206154353Y-83782958D01*
D17*
X205741854Y-80891187D02*
X204534448Y-81214710D01*
D10*
X205834977Y-80659179D02*
X197914386Y-82781496D01*
X206488589Y-83175763D02*
X205906246Y-81002429D01*
D11*
X206508836Y-83946797D02*
X205240192Y-84234963D01*
D10*
X206766726Y-84136512D02*
X205834977Y-80659179D01*
X196377698Y-85160275D02*
G75*
G02*
X197914386Y-82781496I1957724J421052D01*
G01*
D16*
X199985786Y-87484145D02*
G75*
G02*
X201640386Y-85096000I2153453J275262D01*
G01*
D10*
X200475683Y-87766989D02*
G75*
G02*
X202130282Y-85378845I2153451J275263D01*
G01*
X169844474Y-55973601D02*
X170038589Y-56698045D01*
X169865960Y-55087860D02*
X171017705Y-59386228D01*
X170038589Y-56698045D02*
X170231776Y-56646281D01*
D13*
X170109300Y-56575571D02*
X169941067Y-55947720D01*
D10*
X171017705Y-59386228D02*
X173944459Y-58602008D01*
D11*
X171159126Y-59141281D02*
X173525644Y-58507172D01*
D12*
X171226369Y-58812680D02*
X170760495Y-57074014D01*
D14*
X171411999Y-55139474D02*
X171991753Y-57303147D01*
D10*
X175597059Y-56192171D02*
X180233503Y-54949839D01*
D15*
X178028962Y-53677047D02*
X171557259Y-55411135D01*
D16*
X178974083Y-52181471D02*
X179621130Y-54596285D01*
D17*
X179208631Y-51704514D02*
X178001225Y-52028037D01*
D10*
X179301754Y-51472506D02*
X171381163Y-53594823D01*
X179955366Y-53989090D02*
X179373023Y-51815756D01*
D11*
X179975613Y-54760124D02*
X178706969Y-55048290D01*
D10*
X180233503Y-54949839D02*
X179301754Y-51472506D01*
X169844475Y-55973602D02*
G75*
G02*
X171381163Y-53594823I1957724J421052D01*
G01*
D16*
X173452563Y-58297472D02*
G75*
G02*
X175107163Y-55909327I2153453J275262D01*
G01*
D10*
X173942460Y-58580316D02*
G75*
G02*
X175597059Y-56192172I2153451J275263D01*
G01*
X113655620Y-74931836D02*
X116582373Y-75716058D01*
D11*
X113900567Y-74790416D02*
X116267086Y-75424521D01*
D12*
X114123102Y-74539460D02*
X114588976Y-72800795D01*
D10*
X114151772Y-72114243D02*
X114344959Y-72166008D01*
D13*
X114274246Y-72043533D02*
X114442478Y-71415682D01*
D10*
X114345885Y-71389799D02*
X114151772Y-72114243D01*
X114807363Y-70633468D02*
X113655620Y-74931836D01*
D14*
X116120465Y-71451186D02*
X115540710Y-73614859D01*
D10*
X119218485Y-74455378D02*
X123854929Y-75697709D01*
D15*
X122582137Y-73493170D02*
X116110435Y-71759081D01*
D11*
X123726447Y-75404465D02*
X122483686Y-75019703D01*
D10*
X123854929Y-75697709D02*
X124786677Y-72220376D01*
X124094430Y-74726608D02*
X124676773Y-72553274D01*
D16*
X124148423Y-72670522D02*
X123501376Y-75085336D01*
D17*
X124590027Y-72374739D02*
X123382620Y-72051215D01*
D10*
X124786677Y-72220376D02*
X116866086Y-70098061D01*
X114345886Y-71389800D02*
G75*
G02*
X116866086Y-70098061I1905966J-614223D01*
G01*
D16*
X116308646Y-75206375D02*
G75*
G02*
X118935645Y-73965480I2002578J-838345D01*
G01*
D10*
X116591488Y-75696273D02*
G75*
G02*
X119218485Y-74455378I2002577J-838344D01*
G01*
X77746863Y-60029009D02*
X80705036Y-60684823D01*
D11*
X77985409Y-59877040D02*
X80377333Y-60407315D01*
D10*
X78119641Y-57192458D02*
X78314901Y-57235745D01*
D12*
X78196784Y-59616616D02*
X78586374Y-57859283D01*
D13*
X78238915Y-57116472D02*
X78379598Y-56481880D01*
D10*
X78281970Y-56460234D02*
X78119641Y-57192458D01*
X78710017Y-55684493D02*
X77746863Y-60029009D01*
D14*
X80057537Y-56444158D02*
X79572712Y-58631060D01*
D10*
X83283649Y-59310357D02*
X87969872Y-60349267D01*
D15*
X86602131Y-58202343D02*
X80060947Y-56752197D01*
D11*
X87828720Y-60061905D02*
X86570358Y-59731718D01*
D10*
X87969872Y-60349267D02*
X88749053Y-56834600D01*
D16*
X88131042Y-57312158D02*
X87589943Y-59752898D01*
D10*
X88166785Y-59368641D02*
X88653775Y-57171976D01*
D17*
X88559323Y-56997393D02*
X87338951Y-56726844D01*
D10*
X88749053Y-56834600D02*
X80743427Y-55059796D01*
X78281969Y-56460236D02*
G75*
G02*
X80743427Y-55059796I1930947J-530505D01*
G01*
D16*
X80409337Y-60187563D02*
G75*
G02*
X82979708Y-58833263I2037241J-750201D01*
G01*
D10*
X80713280Y-60664657D02*
G75*
G02*
X83283649Y-59310357I2037239J-750198D01*
G01*
X109153956Y-93387921D02*
X112080709Y-94172143D01*
D11*
X109398903Y-93246501D02*
X111765422Y-93880606D01*
D12*
X109621438Y-92995545D02*
X110087312Y-91256880D01*
D10*
X109650108Y-90570328D02*
X109843295Y-90622093D01*
D13*
X109772582Y-90499618D02*
X109940814Y-89871767D01*
D10*
X109844221Y-89845884D02*
X109650108Y-90570328D01*
X110305699Y-89089553D02*
X109153956Y-93387921D01*
D14*
X111618801Y-89907271D02*
X111039046Y-92070944D01*
D10*
X114716821Y-92911463D02*
X119353265Y-94153794D01*
D15*
X118080473Y-91949255D02*
X111608771Y-90215166D01*
D11*
X119224783Y-93860550D02*
X117982022Y-93475788D01*
D10*
X119353265Y-94153794D02*
X120285013Y-90676461D01*
X119592766Y-93182693D02*
X120175109Y-91009359D01*
D16*
X119646759Y-91126607D02*
X118999712Y-93541421D01*
D17*
X120088363Y-90830824D02*
X118880956Y-90507300D01*
D10*
X120285013Y-90676461D02*
X112364422Y-88554146D01*
X109844222Y-89845885D02*
G75*
G02*
X112364422Y-88554146I1905966J-614223D01*
G01*
D16*
X111806982Y-93662460D02*
G75*
G02*
X114433981Y-92421565I2002578J-838345D01*
G01*
D10*
X112089824Y-94152358D02*
G75*
G02*
X114716821Y-92911463I2002577J-838344D01*
G01*
X187420169Y-48157799D02*
X187614284Y-48882243D01*
X187441655Y-47272058D02*
X188593400Y-51570426D01*
X187614284Y-48882243D02*
X187807471Y-48830479D01*
D13*
X187684995Y-48759769D02*
X187516762Y-48131918D01*
D10*
X188593400Y-51570426D02*
X191520154Y-50786206D01*
D11*
X188734821Y-51325479D02*
X191101339Y-50691370D01*
D12*
X188802064Y-50996878D02*
X188336190Y-49258212D01*
D14*
X188987694Y-47323672D02*
X189567448Y-49487345D01*
D10*
X193172754Y-48376369D02*
X197809198Y-47134037D01*
D15*
X195604657Y-45861245D02*
X189132954Y-47595333D01*
D16*
X196549778Y-44365669D02*
X197196825Y-46780483D01*
D17*
X196784326Y-43888712D02*
X195576920Y-44212235D01*
D10*
X196877449Y-43656704D02*
X188956858Y-45779021D01*
X197531061Y-46173288D02*
X196948718Y-43999954D01*
D11*
X197551308Y-46944322D02*
X196282664Y-47232488D01*
D10*
X197809198Y-47134037D02*
X196877449Y-43656704D01*
X187420170Y-48157800D02*
G75*
G02*
X188956858Y-45779021I1957724J421052D01*
G01*
D16*
X191028258Y-50481670D02*
G75*
G02*
X192682858Y-48093525I2153453J275262D01*
G01*
D10*
X191518155Y-50764514D02*
G75*
G02*
X193172754Y-48376370I2153451J275263D01*
G01*
X91534111Y-85648246D02*
X94460864Y-86432468D01*
D11*
X91779058Y-85506826D02*
X94145577Y-86140931D01*
D12*
X92001593Y-85255870D02*
X92467467Y-83517205D01*
D10*
X92030263Y-82830653D02*
X92223450Y-82882418D01*
D13*
X92152737Y-82759943D02*
X92320969Y-82132092D01*
D10*
X92224376Y-82106209D02*
X92030263Y-82830653D01*
X92685854Y-81349878D02*
X91534111Y-85648246D01*
D14*
X93998956Y-82167596D02*
X93419201Y-84331269D01*
D10*
X97096976Y-85171788D02*
X101733420Y-86414119D01*
D15*
X100460628Y-84209580D02*
X93988926Y-82475491D01*
D11*
X101604938Y-86120875D02*
X100362177Y-85736113D01*
D10*
X101733420Y-86414119D02*
X102665168Y-82936786D01*
X101972921Y-85443018D02*
X102555264Y-83269684D01*
D16*
X102026914Y-83386932D02*
X101379867Y-85801746D01*
D17*
X102468518Y-83091149D02*
X101261111Y-82767625D01*
D10*
X102665168Y-82936786D02*
X94744577Y-80814471D01*
X92224377Y-82106210D02*
G75*
G02*
X94744577Y-80814471I1905966J-614223D01*
G01*
D16*
X94187137Y-85922785D02*
G75*
G02*
X96814136Y-84681890I2002578J-838345D01*
G01*
D10*
X94469979Y-86412683D02*
G75*
G02*
X97096976Y-85171788I2002577J-838344D01*
G01*
X225132407Y-38598638D02*
X225294738Y-39330861D01*
X225192507Y-37714677D02*
X226155664Y-42059193D01*
X225294738Y-39330861D02*
X225489998Y-39287572D01*
D13*
X225370723Y-39211587D02*
X225230036Y-38576996D01*
D10*
X226155664Y-42059193D02*
X229113839Y-41403383D01*
D11*
X226307636Y-41820648D02*
X228699560Y-41290369D01*
D12*
X226389147Y-41495292D02*
X225999555Y-39737960D01*
D14*
X226734824Y-37833681D02*
X227219648Y-40020583D01*
D10*
X230869982Y-39067925D02*
X235556204Y-38029014D01*
D15*
X233409281Y-36661272D02*
X226868097Y-38111417D01*
D16*
X234418736Y-35208345D02*
X234959836Y-37649085D01*
D17*
X234673865Y-34742072D02*
X233453494Y-35012623D01*
D10*
X234777020Y-34514348D02*
X226771394Y-36289153D01*
D11*
X235306833Y-37828229D02*
X234026827Y-38060785D01*
D10*
X235320239Y-37057048D02*
X234833250Y-34860380D01*
X235556204Y-38029014D02*
X234777020Y-34514348D01*
X225132407Y-38598640D02*
G75*
G02*
X226771394Y-36289152I1974234J335253D01*
G01*
D16*
X228635694Y-41077680D02*
G75*
G02*
X230392889Y-38763982I2163413J181064D01*
G01*
D10*
X229112789Y-41381624D02*
G75*
G02*
X230869982Y-39067925I2163410J181068D01*
G01*
X177078878Y-119606751D02*
X179133659Y-123553949D01*
X177249613Y-120476146D02*
X177595923Y-121141405D01*
X177595923Y-121141405D02*
X177773325Y-121049057D01*
D13*
X177638450Y-121006529D02*
X177338314Y-120429971D01*
D14*
X178599441Y-119322517D02*
X179633758Y-121309420D01*
D10*
X179133659Y-123553949D02*
X181821302Y-122154850D01*
D12*
X179213237Y-122948831D02*
X178382092Y-121352213D01*
D11*
X179218712Y-123284197D02*
X181391890Y-122152913D01*
D10*
X182913144Y-119444448D02*
X187170796Y-117228055D01*
D15*
X184743029Y-116462583D02*
X178800055Y-119556299D01*
D16*
X185342044Y-114797897D02*
X186496416Y-117015423D01*
D17*
X185467799Y-114281480D02*
X184359035Y-114858666D01*
D10*
X185508502Y-114034815D02*
X178235011Y-117821154D01*
X186691308Y-116350279D02*
X185652372Y-114354503D01*
D11*
X186877956Y-117098651D02*
X185701755Y-117654574D01*
D10*
X187170796Y-117228055D02*
X185508502Y-114034815D01*
X177249611Y-120476147D02*
G75*
G02*
X178235011Y-117821154I1820187J834800D01*
G01*
D16*
X181275151Y-121964000D02*
G75*
G02*
X182373640Y-119274342I2042812J734838D01*
G01*
D10*
X181814653Y-122134105D02*
G75*
G02*
X182913144Y-119444448I2042817J734834D01*
G01*
X210197737Y-59014222D02*
X210360068Y-59746445D01*
X210257837Y-58130261D02*
X211220994Y-62474777D01*
X210360068Y-59746445D02*
X210555328Y-59703156D01*
D13*
X210436053Y-59627171D02*
X210295366Y-58992580D01*
D10*
X211220994Y-62474777D02*
X214179169Y-61818967D01*
D11*
X211372966Y-62236232D02*
X213764890Y-61705953D01*
D12*
X211454477Y-61910876D02*
X211064885Y-60153544D01*
D14*
X211800154Y-58249265D02*
X212284978Y-60436167D01*
D10*
X215935312Y-59483509D02*
X220621534Y-58444598D01*
D15*
X218474611Y-57076856D02*
X211933427Y-58527001D01*
D16*
X219484066Y-55623929D02*
X220025166Y-58064669D01*
D17*
X219739195Y-55157656D02*
X218518824Y-55428207D01*
D10*
X219842350Y-54929932D02*
X211836724Y-56704737D01*
D11*
X220372163Y-58243813D02*
X219092157Y-58476369D01*
D10*
X220385569Y-57472632D02*
X219898580Y-55275964D01*
X220621534Y-58444598D02*
X219842350Y-54929932D01*
X210197737Y-59014224D02*
G75*
G02*
X211836724Y-56704736I1974234J335253D01*
G01*
D16*
X213701024Y-61493264D02*
G75*
G02*
X215458219Y-59179566I2163413J181064D01*
G01*
D10*
X214178119Y-61797208D02*
G75*
G02*
X215935312Y-59483509I2163410J181068D01*
G01*
X178757852Y-92899949D02*
X178951967Y-93624393D01*
X178779338Y-92014208D02*
X179931083Y-96312576D01*
X178951967Y-93624393D02*
X179145154Y-93572629D01*
D13*
X179022678Y-93501919D02*
X178854445Y-92874068D01*
D10*
X179931083Y-96312576D02*
X182857837Y-95528356D01*
D11*
X180072504Y-96067629D02*
X182439022Y-95433520D01*
D12*
X180139747Y-95739028D02*
X179673873Y-94000362D01*
D14*
X180325377Y-92065822D02*
X180905131Y-94229495D01*
D10*
X184510437Y-93118519D02*
X189146881Y-91876187D01*
D15*
X186942340Y-90603395D02*
X180470637Y-92337483D01*
D16*
X187887461Y-89107819D02*
X188534508Y-91522633D01*
D17*
X188122009Y-88630862D02*
X186914603Y-88954385D01*
D10*
X188215132Y-88398854D02*
X180294541Y-90521171D01*
X188868744Y-90915438D02*
X188286401Y-88742104D01*
D11*
X188888991Y-91686472D02*
X187620347Y-91974638D01*
D10*
X189146881Y-91876187D02*
X188215132Y-88398854D01*
X178757853Y-92899950D02*
G75*
G02*
X180294541Y-90521171I1957724J421052D01*
G01*
D16*
X182365941Y-95223820D02*
G75*
G02*
X184020541Y-92835675I2153453J275262D01*
G01*
D10*
X182855838Y-95506664D02*
G75*
G02*
X184510437Y-93118520I2153451J275263D01*
G01*
X81859207Y-41479425D02*
X84817380Y-42135239D01*
D11*
X82097753Y-41327456D02*
X84489677Y-41857731D01*
D10*
X82231985Y-38642874D02*
X82427245Y-38686161D01*
D12*
X82309128Y-41067032D02*
X82698718Y-39309699D01*
D13*
X82351259Y-38566888D02*
X82491942Y-37932296D01*
D10*
X82394314Y-37910650D02*
X82231985Y-38642874D01*
X82822361Y-37134909D02*
X81859207Y-41479425D01*
D14*
X84169881Y-37894574D02*
X83685056Y-40081476D01*
D10*
X87395993Y-40760773D02*
X92082216Y-41799683D01*
D15*
X90714475Y-39652759D02*
X84173291Y-38202613D01*
D11*
X91941064Y-41512321D02*
X90682702Y-41182134D01*
D10*
X92082216Y-41799683D02*
X92861397Y-38285016D01*
D16*
X92243386Y-38762574D02*
X91702287Y-41203314D01*
D10*
X92279129Y-40819057D02*
X92766119Y-38622392D01*
D17*
X92671667Y-38447809D02*
X91451295Y-38177260D01*
D10*
X92861397Y-38285016D02*
X84855771Y-36510212D01*
X82394313Y-37910652D02*
G75*
G02*
X84855771Y-36510212I1930947J-530505D01*
G01*
D16*
X84521681Y-41637979D02*
G75*
G02*
X87092052Y-40283679I2037241J-750201D01*
G01*
D10*
X84825624Y-42115073D02*
G75*
G02*
X87395993Y-40760773I2037239J-750198D01*
G01*
X233356939Y-75697105D02*
X233519270Y-76429328D01*
X233417039Y-74813144D02*
X234380196Y-79157660D01*
X233519270Y-76429328D02*
X233714530Y-76386039D01*
D13*
X233595255Y-76310054D02*
X233454568Y-75675463D01*
D10*
X234380196Y-79157660D02*
X237338371Y-78501850D01*
D11*
X234532168Y-78919115D02*
X236924092Y-78388836D01*
D12*
X234613679Y-78593759D02*
X234224087Y-76836427D01*
D14*
X234959356Y-74932148D02*
X235444180Y-77119050D01*
D10*
X239094514Y-76166392D02*
X243780736Y-75127481D01*
D15*
X241633813Y-73759739D02*
X235092629Y-75209884D01*
D16*
X242643268Y-72306812D02*
X243184368Y-74747552D01*
D17*
X242898397Y-71840539D02*
X241678026Y-72111090D01*
D10*
X243001552Y-71612815D02*
X234995926Y-73387620D01*
D11*
X243531365Y-74926696D02*
X242251359Y-75159252D01*
D10*
X243544771Y-74155515D02*
X243057782Y-71958847D01*
X243780736Y-75127481D02*
X243001552Y-71612815D01*
X233356939Y-75697107D02*
G75*
G02*
X234995926Y-73387619I1974234J335253D01*
G01*
D16*
X236860226Y-78176147D02*
G75*
G02*
X238617421Y-75862449I2163413J181064D01*
G01*
D10*
X237337321Y-78480091D02*
G75*
G02*
X239094514Y-76166392I2163410J181068D01*
G01*
X39571529Y-56525111D02*
X42545859Y-57103264D01*
D11*
X39806017Y-56366947D02*
X42211003Y-56834429D01*
D10*
X39869929Y-53679772D02*
X40066254Y-53717936D01*
D13*
X39987172Y-53600690D02*
X40111198Y-52962632D01*
D12*
X40010503Y-56101081D02*
X40353959Y-54334153D01*
D10*
X40013035Y-52943550D02*
X39869929Y-53679772D01*
X40420628Y-52156871D02*
X39571529Y-56525111D01*
D14*
X41787574Y-52880999D02*
X41360160Y-55079846D01*
D10*
X45087608Y-55661767D02*
X49799420Y-56577651D01*
D15*
X48375947Y-54467268D02*
X41799045Y-53188845D01*
D11*
X49650796Y-56294083D02*
X48384221Y-55996948D01*
D10*
X49799420Y-56577651D02*
X50486331Y-53043792D01*
D16*
X49881033Y-53537363D02*
X49404010Y-55991430D01*
D10*
X49970595Y-55592208D02*
X50399917Y-53383546D01*
D17*
X50300925Y-53211496D02*
X49073893Y-52972986D01*
D10*
X50486331Y-53043792D02*
X42436987Y-51479158D01*
X40013036Y-52943551D02*
G75*
G02*
X42436987Y-51479158I1944172J-479779D01*
G01*
D16*
X42237243Y-56613915D02*
G75*
G02*
X44771282Y-55192793I2056170J-696594D01*
G01*
D10*
X42553570Y-57082890D02*
G75*
G02*
X45087608Y-55661766I2056181J-696611D01*
G01*
X244158843Y-36671920D02*
X244321174Y-37404143D01*
X244218943Y-35787960D02*
X245182100Y-40132476D01*
X244321174Y-37404143D02*
X244516433Y-37360854D01*
D13*
X244397159Y-37284869D02*
X244256472Y-36650276D01*
D10*
X245182100Y-40132476D02*
X248140277Y-39476666D01*
D11*
X245334072Y-39893929D02*
X247725996Y-39363651D01*
D12*
X245415583Y-39568575D02*
X245025991Y-37811242D01*
D14*
X245761259Y-35906961D02*
X246246084Y-38093864D01*
D10*
X249896418Y-37141207D02*
X254582640Y-36102297D01*
D15*
X252435718Y-34734557D02*
X245894533Y-36184699D01*
D16*
X253445172Y-33281627D02*
X253986270Y-35722366D01*
D17*
X253700301Y-32815355D02*
X252479930Y-33085905D01*
D10*
X253803456Y-32587630D02*
X245797828Y-34362435D01*
D11*
X254333270Y-35901511D02*
X253053264Y-36134067D01*
D10*
X254346674Y-35130331D02*
X253859686Y-32933662D01*
X254582640Y-36102297D02*
X253803456Y-32587630D01*
X244158845Y-36671921D02*
G75*
G02*
X245797828Y-34362435I1974228J335256D01*
G01*
D16*
X247662130Y-39150963D02*
G75*
G02*
X249419325Y-36837264I2163402J181073D01*
G01*
D10*
X248139225Y-39454906D02*
G75*
G02*
X249896418Y-37141207I2163410J181068D01*
G01*
X118067334Y-56461573D02*
X120994087Y-57245795D01*
D11*
X118312281Y-56320153D02*
X120678800Y-56954258D01*
D12*
X118534816Y-56069197D02*
X119000690Y-54330532D01*
D10*
X118563486Y-53643980D02*
X118756673Y-53695745D01*
D13*
X118685960Y-53573270D02*
X118854192Y-52945419D01*
D10*
X118757599Y-52919536D02*
X118563486Y-53643980D01*
X119219077Y-52163205D02*
X118067334Y-56461573D01*
D14*
X120532179Y-52980923D02*
X119952424Y-55144596D01*
D10*
X123630199Y-55985115D02*
X128266643Y-57227446D01*
D15*
X126993851Y-55022907D02*
X120522149Y-53288818D01*
D11*
X128138161Y-56934202D02*
X126895400Y-56549440D01*
D10*
X128266643Y-57227446D02*
X129198391Y-53750113D01*
X128506144Y-56256345D02*
X129088487Y-54083011D01*
D16*
X128560137Y-54200259D02*
X127913090Y-56615073D01*
D17*
X129001741Y-53904476D02*
X127794334Y-53580952D01*
D10*
X129198391Y-53750113D02*
X121277800Y-51627798D01*
X118757600Y-52919537D02*
G75*
G02*
X121277800Y-51627798I1905966J-614223D01*
G01*
D16*
X120720360Y-56736112D02*
G75*
G02*
X123347359Y-55495217I2002578J-838345D01*
G01*
D10*
X121003202Y-57226010D02*
G75*
G02*
X123630199Y-55985115I2002577J-838344D01*
G01*
X35564969Y-74984373D02*
X38539299Y-75562526D01*
D11*
X35799457Y-74826209D02*
X38204443Y-75293691D01*
D10*
X35863369Y-72139034D02*
X36059694Y-72177198D01*
D13*
X35980612Y-72059952D02*
X36104638Y-71421894D01*
D12*
X36003943Y-74560343D02*
X36347399Y-72793415D01*
D10*
X36006475Y-71402812D02*
X35863369Y-72139034D01*
X36414068Y-70616133D02*
X35564969Y-74984373D01*
D14*
X37781014Y-71340261D02*
X37353600Y-73539108D01*
D10*
X41081048Y-74121029D02*
X45792860Y-75036913D01*
D15*
X44369387Y-72926530D02*
X37792485Y-71648107D01*
D11*
X45644236Y-74753345D02*
X44377661Y-74456210D01*
D10*
X45792860Y-75036913D02*
X46479771Y-71503054D01*
D16*
X45874473Y-71996625D02*
X45397450Y-74450692D01*
D10*
X45964035Y-74051470D02*
X46393357Y-71842808D01*
D17*
X46294365Y-71670758D02*
X45067333Y-71432248D01*
D10*
X46479771Y-71503054D02*
X38430427Y-69938420D01*
X36006476Y-71402813D02*
G75*
G02*
X38430427Y-69938420I1944172J-479779D01*
G01*
D16*
X38230683Y-75073177D02*
G75*
G02*
X40764722Y-73652055I2056170J-696594D01*
G01*
D10*
X38547010Y-75542152D02*
G75*
G02*
X41081048Y-74121028I2056181J-696611D01*
G01*
X214310133Y-77564042D02*
X214472464Y-78296265D01*
X214370233Y-76680081D02*
X215333390Y-81024597D01*
X214472464Y-78296265D02*
X214667724Y-78252976D01*
D13*
X214548449Y-78176991D02*
X214407762Y-77542400D01*
D10*
X215333390Y-81024597D02*
X218291565Y-80368787D01*
D11*
X215485362Y-80786052D02*
X217877286Y-80255773D01*
D12*
X215566873Y-80460696D02*
X215177281Y-78703364D01*
D14*
X215912550Y-76799085D02*
X216397374Y-78985987D01*
D10*
X220047708Y-78033329D02*
X224733930Y-76994418D01*
D15*
X222587007Y-75626676D02*
X216045823Y-77076821D01*
D16*
X223596462Y-74173749D02*
X224137562Y-76614489D01*
D17*
X223851591Y-73707476D02*
X222631220Y-73978027D01*
D10*
X223954746Y-73479752D02*
X215949120Y-75254557D01*
D11*
X224484559Y-76793633D02*
X223204553Y-77026189D01*
D10*
X224497965Y-76022452D02*
X224010976Y-73825784D01*
X224733930Y-76994418D02*
X223954746Y-73479752D01*
X214310133Y-77564044D02*
G75*
G02*
X215949120Y-75254556I1974234J335253D01*
G01*
D16*
X217813420Y-80043084D02*
G75*
G02*
X219570615Y-77729386I2163413J181064D01*
G01*
D10*
X218290515Y-80347028D02*
G75*
G02*
X220047708Y-78033329I2163410J181068D01*
G01*
X100491639Y-48645771D02*
X103418392Y-49429993D01*
D11*
X100736586Y-48504351D02*
X103103105Y-49138456D01*
D12*
X100959121Y-48253395D02*
X101424995Y-46514730D01*
D10*
X100987791Y-45828178D02*
X101180978Y-45879943D01*
D13*
X101110265Y-45757468D02*
X101278497Y-45129617D01*
D10*
X101181904Y-45103734D02*
X100987791Y-45828178D01*
X101643382Y-44347403D02*
X100491639Y-48645771D01*
D14*
X102956484Y-45165121D02*
X102376729Y-47328794D01*
D10*
X106054504Y-48169313D02*
X110690948Y-49411644D01*
D15*
X109418156Y-47207105D02*
X102946454Y-45473016D01*
D11*
X110562466Y-49118400D02*
X109319705Y-48733638D01*
D10*
X110690948Y-49411644D02*
X111622696Y-45934311D01*
X110930449Y-48440543D02*
X111512792Y-46267209D01*
D16*
X110984442Y-46384457D02*
X110337395Y-48799271D01*
D17*
X111426046Y-46088674D02*
X110218639Y-45765150D01*
D10*
X111622696Y-45934311D02*
X103702105Y-43811996D01*
X101181905Y-45103735D02*
G75*
G02*
X103702105Y-43811996I1905966J-614223D01*
G01*
D16*
X103144665Y-48920310D02*
G75*
G02*
X105771664Y-47679415I2002578J-838345D01*
G01*
D10*
X103427507Y-49410208D02*
G75*
G02*
X106054504Y-48169313I2002577J-838344D01*
G01*
X206085393Y-40464638D02*
X206247724Y-41196861D01*
X206145493Y-39580677D02*
X207108650Y-43925193D01*
X206247724Y-41196861D02*
X206442984Y-41153572D01*
D13*
X206323709Y-41077587D02*
X206183022Y-40442996D01*
D10*
X207108650Y-43925193D02*
X210066825Y-43269383D01*
D11*
X207260622Y-43686648D02*
X209652546Y-43156369D01*
D12*
X207342133Y-43361292D02*
X206952541Y-41603960D01*
D14*
X207687810Y-39699681D02*
X208172634Y-41886583D01*
D10*
X211822968Y-40933925D02*
X216509190Y-39895014D01*
D15*
X214362267Y-38527272D02*
X207821083Y-39977417D01*
D16*
X215371722Y-37074345D02*
X215912822Y-39515085D01*
D17*
X215626851Y-36608072D02*
X214406480Y-36878623D01*
D10*
X215730006Y-36380348D02*
X207724380Y-38155153D01*
D11*
X216259819Y-39694229D02*
X214979813Y-39926785D01*
D10*
X216273225Y-38923048D02*
X215786236Y-36726380D01*
X216509190Y-39895014D02*
X215730006Y-36380348D01*
X206085393Y-40464640D02*
G75*
G02*
X207724380Y-38155152I1974234J335253D01*
G01*
D16*
X209588680Y-42943680D02*
G75*
G02*
X211345875Y-40629982I2163413J181064D01*
G01*
D10*
X210065775Y-43247624D02*
G75*
G02*
X211822968Y-40933925I2163410J181068D01*
G01*
X229244672Y-57147873D02*
X229407003Y-57880096D01*
X229304772Y-56263912D02*
X230267929Y-60608428D01*
X229407003Y-57880096D02*
X229602263Y-57836807D01*
D13*
X229482988Y-57760822D02*
X229342301Y-57126231D01*
D10*
X230267929Y-60608428D02*
X233226104Y-59952618D01*
D11*
X230419901Y-60369883D02*
X232811825Y-59839604D01*
D12*
X230501412Y-60044527D02*
X230111820Y-58287195D01*
D14*
X230847089Y-56382916D02*
X231331913Y-58569818D01*
D10*
X234982247Y-57617160D02*
X239668469Y-56578249D01*
D15*
X237521546Y-55210507D02*
X230980362Y-56660652D01*
D16*
X238531001Y-53757580D02*
X239072101Y-56198320D01*
D17*
X238786130Y-53291307D02*
X237565759Y-53561858D01*
D10*
X238889285Y-53063583D02*
X230883659Y-54838388D01*
D11*
X239419098Y-56377464D02*
X238139092Y-56610020D01*
D10*
X239432504Y-55606283D02*
X238945515Y-53409615D01*
X239668469Y-56578249D02*
X238889285Y-53063583D01*
X229244672Y-57147875D02*
G75*
G02*
X230883659Y-54838387I1974234J335253D01*
G01*
D16*
X232747959Y-59626915D02*
G75*
G02*
X234505154Y-57313217I2163413J181064D01*
G01*
D10*
X233225054Y-59930859D02*
G75*
G02*
X234982247Y-57617160I2163410J181068D01*
G01*
X193855831Y-109533964D02*
X195910612Y-113481162D01*
X194026564Y-110403360D02*
X194372876Y-111068618D01*
X194372876Y-111068618D02*
X194550278Y-110976270D01*
D13*
X194415403Y-110933742D02*
X194115266Y-110357185D01*
D14*
X195376394Y-109249730D02*
X196410711Y-111236633D01*
D10*
X195910612Y-113481162D02*
X198598255Y-112082063D01*
D12*
X195990190Y-112876044D02*
X195159045Y-111279424D01*
D11*
X195995665Y-113211410D02*
X198168843Y-112080126D01*
D10*
X199690097Y-109371661D02*
X203947749Y-107155268D01*
D15*
X201519982Y-106389796D02*
X195577008Y-109483512D01*
D16*
X202118997Y-104725110D02*
X203273369Y-106942636D01*
D17*
X202244752Y-104208693D02*
X201135988Y-104785878D01*
D10*
X202285454Y-103962029D02*
X195011964Y-107748368D01*
X203468260Y-106277491D02*
X202429325Y-104281716D01*
D11*
X203654909Y-107025864D02*
X202478708Y-107581787D01*
D10*
X203947749Y-107155268D02*
X202285454Y-103962029D01*
X194026564Y-110403360D02*
G75*
G02*
X195011964Y-107748368I1820196J834796D01*
G01*
D16*
X198052103Y-111891213D02*
G75*
G02*
X199150593Y-109201555I2042826J734832D01*
G01*
D10*
X198591607Y-112061319D02*
G75*
G02*
X199690096Y-109371660I2042828J734832D01*
G01*
X192075667Y-66638860D02*
X192269782Y-67363304D01*
X192097153Y-65753119D02*
X193248898Y-70051487D01*
X192269782Y-67363304D02*
X192462969Y-67311540D01*
D13*
X192340493Y-67240830D02*
X192172260Y-66612979D01*
D10*
X193248898Y-70051487D02*
X196175652Y-69267267D01*
D11*
X193390319Y-69806540D02*
X195756837Y-69172431D01*
D12*
X193457562Y-69477939D02*
X192991688Y-67739273D01*
D14*
X193643192Y-65804733D02*
X194222946Y-67968406D01*
D10*
X197828252Y-66857430D02*
X202464696Y-65615098D01*
D15*
X200260155Y-64342306D02*
X193788452Y-66076394D01*
D16*
X201205276Y-62846730D02*
X201852323Y-65261544D01*
D17*
X201439824Y-62369773D02*
X200232418Y-62693296D01*
D10*
X201532947Y-62137765D02*
X193612356Y-64260082D01*
X202186559Y-64654349D02*
X201604216Y-62481015D01*
D11*
X202206806Y-65425383D02*
X200938162Y-65713549D01*
D10*
X202464696Y-65615098D02*
X201532947Y-62137765D01*
X192075668Y-66638861D02*
G75*
G02*
X193612356Y-64260082I1957724J421052D01*
G01*
D16*
X195683756Y-68962731D02*
G75*
G02*
X197338356Y-66574586I2153453J275262D01*
G01*
D10*
X196173653Y-69245575D02*
G75*
G02*
X197828252Y-66857431I2153451J275263D01*
G01*
X62812193Y-39613425D02*
X65770366Y-40269239D01*
D11*
X63050739Y-39461456D02*
X65442663Y-39991731D01*
D10*
X63184971Y-36776874D02*
X63380231Y-36820161D01*
D12*
X63262114Y-39201032D02*
X63651704Y-37443699D01*
D13*
X63304245Y-36700888D02*
X63444928Y-36066296D01*
D10*
X63347300Y-36044650D02*
X63184971Y-36776874D01*
X63775347Y-35268909D02*
X62812193Y-39613425D01*
D14*
X65122867Y-36028574D02*
X64638042Y-38215476D01*
D10*
X68348979Y-38894773D02*
X73035202Y-39933683D01*
D15*
X71667461Y-37786759D02*
X65126277Y-36336613D01*
D11*
X72894050Y-39646321D02*
X71635688Y-39316134D01*
D10*
X73035202Y-39933683D02*
X73814383Y-36419016D01*
D16*
X73196372Y-36896574D02*
X72655273Y-39337314D01*
D10*
X73232115Y-38953057D02*
X73719105Y-36756392D01*
D17*
X73624653Y-36581809D02*
X72404281Y-36311260D01*
D10*
X73814383Y-36419016D02*
X65808757Y-34644212D01*
X63347299Y-36044652D02*
G75*
G02*
X65808757Y-34644212I1930947J-530505D01*
G01*
D16*
X65474667Y-39771979D02*
G75*
G02*
X68045038Y-38417679I2037241J-750201D01*
G01*
D10*
X65778610Y-40249073D02*
G75*
G02*
X68348979Y-38894773I2037239J-750198D01*
G01*
X54587661Y-76711892D02*
X57545834Y-77367706D01*
D11*
X54826207Y-76559923D02*
X57218131Y-77090198D01*
D10*
X54960439Y-73875341D02*
X55155699Y-73918628D01*
D12*
X55037582Y-76299499D02*
X55427172Y-74542166D01*
D13*
X55079713Y-73799355D02*
X55220396Y-73164763D01*
D10*
X55122768Y-73143117D02*
X54960439Y-73875341D01*
X55550815Y-72367376D02*
X54587661Y-76711892D01*
D14*
X56898335Y-73127041D02*
X56413510Y-75313943D01*
D10*
X60124447Y-75993240D02*
X64810670Y-77032150D01*
D15*
X63442929Y-74885226D02*
X56901745Y-73435080D01*
D11*
X64669518Y-76744788D02*
X63411156Y-76414601D01*
D10*
X64810670Y-77032150D02*
X65589851Y-73517483D01*
D16*
X64971840Y-73995041D02*
X64430741Y-76435781D01*
D10*
X65007583Y-76051524D02*
X65494573Y-73854859D01*
D17*
X65400121Y-73680276D02*
X64179749Y-73409727D01*
D10*
X65589851Y-73517483D02*
X57584225Y-71742679D01*
X55122767Y-73143119D02*
G75*
G02*
X57584225Y-71742679I1930947J-530505D01*
G01*
D16*
X57250135Y-76870446D02*
G75*
G02*
X59820506Y-75516146I2037241J-750201D01*
G01*
D10*
X57554078Y-77347540D02*
G75*
G02*
X60124447Y-75993240I2037239J-750198D01*
G01*
X43785755Y-37686708D02*
X46743931Y-38342522D01*
D11*
X44024303Y-37534738D02*
X46416227Y-38065013D01*
D10*
X44158535Y-34850156D02*
X44353794Y-34893443D01*
D12*
X44235678Y-37274315D02*
X44625268Y-35516981D01*
D13*
X44277809Y-34774170D02*
X44418493Y-34139576D01*
D10*
X44320864Y-34117932D02*
X44158535Y-34850156D01*
X44748910Y-33342192D02*
X43785755Y-37686708D01*
D14*
X46096431Y-34101854D02*
X45611607Y-36288758D01*
D10*
X49322543Y-36968055D02*
X54008765Y-38006966D01*
D15*
X52641025Y-35860044D02*
X46099841Y-34409895D01*
D11*
X53867615Y-37719603D02*
X52609253Y-37389417D01*
D10*
X54008765Y-38006966D02*
X54787947Y-34492298D01*
D16*
X54169936Y-34969856D02*
X53628836Y-37410594D01*
D10*
X54205678Y-37026342D02*
X54692669Y-34829674D01*
D17*
X54598216Y-34655092D02*
X53377845Y-34384542D01*
D10*
X54787947Y-34492298D02*
X46782319Y-32717493D01*
X44320865Y-34117934D02*
G75*
G02*
X46782319Y-32717494I1930943J-530500D01*
G01*
D16*
X46448231Y-37845261D02*
G75*
G02*
X49018602Y-36490960I2037232J-750183D01*
G01*
D10*
X46752174Y-38322355D02*
G75*
G02*
X49322543Y-36968055I2037239J-750198D01*
G01*
X73634467Y-78578829D02*
X76592640Y-79234643D01*
D11*
X73873013Y-78426860D02*
X76264937Y-78957135D01*
D10*
X74007245Y-75742278D02*
X74202505Y-75785565D01*
D12*
X74084388Y-78166436D02*
X74473978Y-76409103D01*
D13*
X74126519Y-75666292D02*
X74267202Y-75031700D01*
D10*
X74169574Y-75010054D02*
X74007245Y-75742278D01*
X74597621Y-74234313D02*
X73634467Y-78578829D01*
D14*
X75945141Y-74993978D02*
X75460316Y-77180880D01*
D10*
X79171253Y-77860177D02*
X83857476Y-78899087D01*
D15*
X82489735Y-76752163D02*
X75948551Y-75302017D01*
D11*
X83716324Y-78611725D02*
X82457962Y-78281538D01*
D10*
X83857476Y-78899087D02*
X84636657Y-75384420D01*
D16*
X84018646Y-75861978D02*
X83477547Y-78302718D01*
D10*
X84054389Y-77918461D02*
X84541379Y-75721796D01*
D17*
X84446927Y-75547213D02*
X83226555Y-75276664D01*
D10*
X84636657Y-75384420D02*
X76631031Y-73609616D01*
X74169573Y-75010056D02*
G75*
G02*
X76631031Y-73609616I1930947J-530505D01*
G01*
D16*
X76296941Y-78737383D02*
G75*
G02*
X78867312Y-77383083I2037241J-750201D01*
G01*
D10*
X76600884Y-79214477D02*
G75*
G02*
X79171253Y-77860177I2037239J-750198D01*
G01*
X95836141Y-67126832D02*
X98762894Y-67911054D01*
D11*
X96081088Y-66985412D02*
X98447607Y-67619517D01*
D12*
X96303623Y-66734456D02*
X96769497Y-64995791D01*
D10*
X96332293Y-64309239D02*
X96525480Y-64361004D01*
D13*
X96454767Y-64238529D02*
X96622999Y-63610678D01*
D10*
X96526406Y-63584795D02*
X96332293Y-64309239D01*
X96987884Y-62828464D02*
X95836141Y-67126832D01*
D14*
X98300986Y-63646182D02*
X97721231Y-65809855D01*
D10*
X101399006Y-66650374D02*
X106035450Y-67892705D01*
D15*
X104762658Y-65688166D02*
X98290956Y-63954077D01*
D11*
X105906968Y-67599461D02*
X104664207Y-67214699D01*
D10*
X106035450Y-67892705D02*
X106967198Y-64415372D01*
X106274951Y-66921604D02*
X106857294Y-64748270D01*
D16*
X106328944Y-64865518D02*
X105681897Y-67280332D01*
D17*
X106770548Y-64569735D02*
X105563141Y-64246211D01*
D10*
X106967198Y-64415372D02*
X99046607Y-62293057D01*
X96526407Y-63584796D02*
G75*
G02*
X99046607Y-62293057I1905966J-614223D01*
G01*
D16*
X98489167Y-67401371D02*
G75*
G02*
X101116166Y-66160476I2002578J-838345D01*
G01*
D10*
X98772009Y-67891269D02*
G75*
G02*
X101399006Y-66650374I2002577J-838344D01*
G01*
X94066165Y-108263402D02*
X96753809Y-109662500D01*
D11*
X94335917Y-108178350D02*
X96509094Y-109309636D01*
D12*
X94607493Y-107981507D02*
X95438642Y-106384890D01*
D10*
X95160396Y-105619984D02*
X95337797Y-105712335D01*
D13*
X95295273Y-105577459D02*
X95595409Y-105000901D01*
D10*
X95506707Y-104954726D02*
X95160396Y-105619984D01*
X96120946Y-104316204D02*
X94066165Y-108263402D01*
D14*
X97225936Y-105398747D02*
X96191620Y-107385650D01*
D10*
X99600295Y-109002262D02*
X103857946Y-111218656D01*
D15*
X103092474Y-108790889D02*
X97149501Y-105697172D01*
D11*
X103795982Y-110904552D02*
X102665955Y-110259929D01*
D10*
X103857946Y-111218656D02*
X105520241Y-108025417D01*
X104301956Y-110322409D02*
X105340890Y-108326634D01*
D16*
X104799686Y-108326748D02*
X103645316Y-110544275D01*
D17*
X105294840Y-108133556D02*
X104186077Y-107556370D01*
D10*
X105520241Y-108025417D02*
X98246751Y-104239077D01*
X95506707Y-104954726D02*
G75*
G02*
X98246751Y-104239078I1727846J-1012198D01*
G01*
D16*
X96596884Y-109105653D02*
G75*
G02*
X99430190Y-108462758I1773655J-1251899D01*
G01*
D10*
X96766988Y-109645156D02*
G75*
G02*
X99600295Y-109002262I1773657J-1251907D01*
G01*
X252410324Y-73654358D02*
X252553432Y-74390580D01*
X252493543Y-72772275D02*
X253342643Y-77140515D01*
X252553432Y-74390580D02*
X252749757Y-74352418D01*
D13*
X252632513Y-74273336D02*
X252508487Y-73635278D01*
D10*
X253342643Y-77140515D02*
X256316974Y-76562365D01*
D11*
X253500807Y-76906027D02*
X255905793Y-76438545D01*
D12*
X253590808Y-76582919D02*
X253247352Y-74815991D01*
D14*
X254032216Y-72931608D02*
X254459627Y-75130454D01*
D10*
X258133648Y-74273677D02*
X262845460Y-73357794D01*
D15*
X260735076Y-71934323D02*
X254158173Y-73212740D01*
D16*
X261782219Y-70508315D02*
X262259240Y-72962382D01*
D17*
X262049464Y-70048882D02*
X260822432Y-70287394D01*
D10*
X262158546Y-69823935D02*
X254109202Y-71388569D01*
D11*
X262601432Y-73150550D02*
X261315776Y-73349518D01*
D10*
X262635018Y-72379984D02*
X262205699Y-70171321D01*
X262845460Y-73357794D02*
X262158546Y-69823935D01*
X252410325Y-73654359D02*
G75*
G02*
X254109202Y-71388569I1982328J283461D01*
G01*
D16*
X255847517Y-76224258D02*
G75*
G02*
X257664675Y-73957348I2167403J124380D01*
G01*
D10*
X256316491Y-76540586D02*
G75*
G02*
X258133648Y-74273678I2167406J124376D01*
G01*
X174256188Y-74443864D02*
X174450303Y-75168308D01*
X174277674Y-73558123D02*
X175429419Y-77856491D01*
X174450303Y-75168308D02*
X174643490Y-75116544D01*
D13*
X174521014Y-75045834D02*
X174352781Y-74417983D01*
D10*
X175429419Y-77856491D02*
X178356173Y-77072271D01*
D11*
X175570840Y-77611544D02*
X177937358Y-76977435D01*
D12*
X175638083Y-77282943D02*
X175172209Y-75544277D01*
D14*
X175823713Y-73609737D02*
X176403467Y-75773410D01*
D10*
X180008773Y-74662434D02*
X184645217Y-73420102D01*
D15*
X182440676Y-72147310D02*
X175968973Y-73881398D01*
D16*
X183385797Y-70651734D02*
X184032844Y-73066548D01*
D17*
X183620345Y-70174777D02*
X182412939Y-70498300D01*
D10*
X183713468Y-69942769D02*
X175792877Y-72065086D01*
X184367080Y-72459353D02*
X183784737Y-70286019D01*
D11*
X184387327Y-73230387D02*
X183118683Y-73518553D01*
D10*
X184645217Y-73420102D02*
X183713468Y-69942769D01*
X174256189Y-74443865D02*
G75*
G02*
X175792877Y-72065086I1957724J421052D01*
G01*
D16*
X177864277Y-76767735D02*
G75*
G02*
X179518877Y-74379590I2153453J275262D01*
G01*
D10*
X178354174Y-77050579D02*
G75*
G02*
X180008773Y-74662435I2153451J275263D01*
G01*
X58699928Y-58162660D02*
X61658101Y-58818474D01*
D11*
X58938474Y-58010691D02*
X61330398Y-58540966D01*
D10*
X59072706Y-55326109D02*
X59267966Y-55369396D01*
D12*
X59149849Y-57750267D02*
X59539439Y-55992934D01*
D13*
X59191980Y-55250123D02*
X59332663Y-54615531D01*
D10*
X59235035Y-54593885D02*
X59072706Y-55326109D01*
X59663082Y-53818144D02*
X58699928Y-58162660D01*
D14*
X61010602Y-54577809D02*
X60525777Y-56764711D01*
D10*
X64236714Y-57444008D02*
X68922937Y-58482918D01*
D15*
X67555196Y-56335994D02*
X61014012Y-54885848D01*
D11*
X68781785Y-58195556D02*
X67523423Y-57865369D01*
D10*
X68922937Y-58482918D02*
X69702118Y-54968251D01*
D16*
X69084107Y-55445809D02*
X68543008Y-57886549D01*
D10*
X69119850Y-57502292D02*
X69606840Y-55305627D01*
D17*
X69512388Y-55131044D02*
X68292016Y-54860495D01*
D10*
X69702118Y-54968251D02*
X61696492Y-53193447D01*
X59235034Y-54593887D02*
G75*
G02*
X61696492Y-53193447I1930947J-530505D01*
G01*
D16*
X61362402Y-58321214D02*
G75*
G02*
X63932773Y-56966914I2037241J-750201D01*
G01*
D10*
X61666345Y-58798308D02*
G75*
G02*
X64236714Y-57444008I2037239J-750198D01*
G01*
D18*
X109630433Y-74005773D02*
X107230433Y-74005772D01*
X107230433Y-68005772D01*
X109630433Y-68005772D01*
X109630433Y-74005773D01*
X109630433Y-68564172D02*
X107230433Y-68564172D01*
X107230433Y-68005772D01*
X109630433Y-68005772D01*
X109630433Y-68564172D01*
G36*
X109630433Y-68564172D02*
G01*
X107230433Y-68564172D01*
X107230433Y-68005772D01*
X109630433Y-68005772D01*
X109630433Y-68564172D01*
G37*
X76867270Y-45808791D02*
X74467270Y-45808791D01*
X74467270Y-39808792D01*
X76867270Y-39808792D01*
X76867270Y-45808791D01*
X76867271Y-40367192D02*
X74467270Y-40367192D01*
X74467270Y-39808792D01*
X76867270Y-39808792D01*
X76867271Y-40367192D01*
G36*
X76867271Y-40367192D02*
G01*
X74467270Y-40367192D01*
X74467270Y-39808792D01*
X76867270Y-39808792D01*
X76867271Y-40367192D01*
G37*
D19*
X158636004Y-71095253D02*
X156604004Y-71095253D01*
X156604003Y-69063253D01*
X158636004Y-69063253D01*
X158636004Y-71095253D01*
X176456966Y-47009779D02*
X176534611Y-47299557D01*
X176893242Y-45547020D02*
X177229707Y-46802723D01*
X177005663Y-49057541D02*
X177536242Y-51037689D01*
X177229707Y-46802723D02*
X176456966Y-47009779D01*
X177536242Y-51037689D02*
X178280005Y-50838399D01*
X178189418Y-50500324D02*
X180101951Y-49987863D01*
X178280005Y-50838399D02*
X178189418Y-50500324D01*
X180101951Y-49987863D02*
X180254654Y-50557758D01*
X183888380Y-48973292D02*
X185800914Y-48460830D01*
X184446782Y-43523054D02*
X176893242Y-45547020D01*
X184783247Y-44778758D02*
X184446782Y-43523054D01*
X185555987Y-44571703D02*
X184783247Y-44778758D01*
X185633633Y-44861481D02*
X185555987Y-44571703D01*
X185800914Y-48460830D02*
X185891500Y-48798904D01*
X185891500Y-48798904D02*
X186635263Y-48599614D01*
X186635263Y-48599614D02*
X186104684Y-46619466D01*
X193598096Y-26915886D02*
X195622060Y-34469426D01*
X194646745Y-25806680D02*
X194853800Y-26579421D01*
X194853800Y-26579421D02*
X193598096Y-26915886D01*
X194936524Y-25729035D02*
X194646745Y-25806680D01*
X195622060Y-34469426D02*
X196877765Y-34132961D01*
X196877765Y-34132961D02*
X197084820Y-34905701D01*
X197084820Y-34905701D02*
X197374598Y-34828056D01*
X198535872Y-25561755D02*
X198873947Y-25471168D01*
X198674656Y-24727405D02*
X196694508Y-25257984D01*
X198873947Y-25471168D02*
X198674656Y-24727405D01*
X199048334Y-27474288D02*
X198535872Y-25561755D01*
X199132583Y-34357005D02*
X201112731Y-33826426D01*
X200062905Y-31260717D02*
X200632800Y-31108013D01*
X200575366Y-33173251D02*
X200062905Y-31260717D01*
X200913440Y-33082663D02*
X200575366Y-33173251D01*
X201112731Y-33826426D02*
X200913440Y-33082663D01*
D18*
X114281732Y-55528841D02*
X111881732Y-55528840D01*
X111881732Y-49528840D01*
X114281732Y-49528840D01*
X114281732Y-55528841D01*
X114281732Y-50087240D02*
X111881732Y-50087240D01*
X111881732Y-49528840D01*
X114281732Y-49528840D01*
X114281732Y-50087240D01*
G36*
X114281732Y-50087240D02*
G01*
X111881732Y-50087240D01*
X111881732Y-49528840D01*
X114281732Y-49528840D01*
X114281732Y-50087240D01*
G37*
X187827819Y-58472310D02*
X185427819Y-58472310D01*
X185427819Y-57913910D01*
X187827819Y-57913910D01*
X187827819Y-58472310D01*
G36*
X187827819Y-58472310D02*
G01*
X185427819Y-58472310D01*
X185427819Y-57913910D01*
X187827819Y-57913910D01*
X187827819Y-58472310D01*
G37*
X187827819Y-52472310D02*
X187827819Y-58472310D01*
X185427819Y-58472310D01*
X185427819Y-52472309D01*
X187827819Y-52472310D01*
X72760808Y-64370743D02*
X70360808Y-64370743D01*
X70360808Y-58370744D01*
X72760808Y-58370744D01*
X72760808Y-64370743D01*
X72760809Y-58929144D02*
X70360808Y-58929144D01*
X70360808Y-58370744D01*
X72760808Y-58370744D01*
X72760809Y-58929144D01*
G36*
X72760809Y-58929144D02*
G01*
X70360808Y-58929144D01*
X70360808Y-58370744D01*
X72760808Y-58370744D01*
X72760809Y-58929144D01*
G37*
X243997151Y-46486670D02*
X241597151Y-46486670D01*
X241597151Y-40486670D01*
X243997151Y-40486670D01*
X243997151Y-46486670D01*
X243997151Y-41045070D02*
X241597151Y-41045070D01*
X241597151Y-40486670D01*
X243997151Y-40486670D01*
X243997151Y-41045070D01*
G36*
X243997151Y-41045070D02*
G01*
X241597151Y-41045070D01*
X241597151Y-40486670D01*
X243997151Y-40486670D01*
X243997151Y-41045070D01*
G37*
X131861022Y-63754690D02*
X129461022Y-63754690D01*
X129461022Y-63196290D01*
X131861022Y-63196290D01*
X131861022Y-63754690D01*
G36*
X131861022Y-63754690D02*
G01*
X129461022Y-63754690D01*
X129461022Y-63196290D01*
X131861022Y-63196290D01*
X131861022Y-63754690D01*
G37*
X131861022Y-57754690D02*
X131861022Y-63754690D01*
X129461022Y-63754690D01*
X129461022Y-57754689D01*
X131861022Y-57754690D01*
X210300979Y-69268799D02*
X207900979Y-69268799D01*
X207900979Y-63268800D01*
X210300979Y-63268800D01*
X210300979Y-69268799D01*
X210300980Y-63827200D02*
X207900979Y-63827200D01*
X207900979Y-63268800D01*
X210300979Y-63268800D01*
X210300980Y-63827200D01*
G36*
X210300980Y-63827200D02*
G01*
X207900979Y-63827200D01*
X207900979Y-63268800D01*
X210300979Y-63268800D01*
X210300980Y-63827200D01*
G37*
X174646069Y-84364014D02*
X172246069Y-84364013D01*
X172246069Y-78364013D01*
X174646069Y-78364013D01*
X174646069Y-84364014D01*
X174646069Y-78922413D02*
X172246069Y-78922413D01*
X172246069Y-78364013D01*
X174646069Y-78364013D01*
X174646069Y-78922413D01*
G36*
X174646069Y-78922413D02*
G01*
X172246069Y-78922413D01*
X172246069Y-78364013D01*
X174646069Y-78364013D01*
X174646069Y-78922413D01*
G37*
X127463482Y-82220543D02*
X125063482Y-82220543D01*
X125063482Y-81662143D01*
X127463482Y-81662143D01*
X127463482Y-82220543D01*
G36*
X127463482Y-82220543D02*
G01*
X125063482Y-82220543D01*
X125063482Y-81662143D01*
X127463482Y-81662143D01*
X127463482Y-82220543D01*
G37*
X127463482Y-76220543D02*
X127463482Y-82220543D01*
X125063482Y-82220543D01*
X125063482Y-76220542D01*
X127463482Y-76220543D01*
X58061600Y-43865600D02*
X55661600Y-43865600D01*
X55661600Y-43307200D01*
X58061600Y-43307200D01*
X58061600Y-43865600D01*
G36*
X58061600Y-43865600D02*
G01*
X55661600Y-43865600D01*
X55661600Y-43307200D01*
X58061600Y-43307200D01*
X58061600Y-43865600D01*
G37*
X58061600Y-43865600D02*
X55661600Y-43865600D01*
X55661600Y-37865600D01*
X58061600Y-37865600D01*
X58061600Y-43865600D01*
X123060257Y-100743639D02*
X120660257Y-100743639D01*
X120660257Y-100185239D01*
X123060257Y-100185239D01*
X123060257Y-100743639D01*
G36*
X123060257Y-100743639D02*
G01*
X120660257Y-100743639D01*
X120660257Y-100185239D01*
X123060257Y-100185239D01*
X123060257Y-100743639D01*
G37*
X123060257Y-94743639D02*
X123060257Y-100743639D01*
X120660257Y-100743639D01*
X120660257Y-94743638D01*
X123060257Y-94743639D01*
X179049294Y-102887110D02*
X176649294Y-102887109D01*
X176649294Y-96887109D01*
X179049294Y-96887109D01*
X179049294Y-102887110D01*
X179049294Y-97445509D02*
X176649294Y-97445509D01*
X176649294Y-96887109D01*
X179049294Y-96887109D01*
X179049294Y-97445509D01*
G36*
X179049294Y-97445509D02*
G01*
X176649294Y-97445509D01*
X176649294Y-96887109D01*
X179049294Y-96887109D01*
X179049294Y-97445509D01*
G37*
X170248529Y-65898161D02*
X167848529Y-65898160D01*
X167848529Y-59898160D01*
X170248529Y-59898160D01*
X170248529Y-65898161D01*
X170248529Y-60456560D02*
X167848529Y-60456560D01*
X167848529Y-59898160D01*
X170248529Y-59898160D01*
X170248529Y-60456560D01*
G36*
X170248529Y-60456560D02*
G01*
X167848529Y-60456560D01*
X167848529Y-59898160D01*
X170248529Y-59898160D01*
X170248529Y-60456560D01*
G37*
X91808572Y-66633101D02*
X89408572Y-66633101D01*
X89408571Y-66074701D01*
X91808572Y-66074701D01*
X91808572Y-66633101D01*
G36*
X91808572Y-66633101D02*
G01*
X89408572Y-66633101D01*
X89408571Y-66074701D01*
X91808572Y-66074701D01*
X91808572Y-66633101D01*
G37*
X91808572Y-66633101D02*
X89408572Y-66633101D01*
X89408572Y-60633102D01*
X91808572Y-60633102D01*
X91808572Y-66633101D01*
X105455999Y-92528230D02*
X103055999Y-92528229D01*
X103055999Y-86528229D01*
X105455999Y-86528229D01*
X105455999Y-92528230D01*
X105455999Y-87086629D02*
X103055999Y-87086629D01*
X103055999Y-86528229D01*
X105455999Y-86528229D01*
X105455999Y-87086629D01*
G36*
X105455999Y-87086629D02*
G01*
X103055999Y-87086629D01*
X103055999Y-86528229D01*
X105455999Y-86528229D01*
X105455999Y-87086629D01*
G37*
X248505698Y-64885509D02*
X246105698Y-64885509D01*
X246105698Y-58885509D01*
X248505698Y-58885509D01*
X248505698Y-64885509D01*
X248505698Y-59443909D02*
X246105698Y-59443909D01*
X246105698Y-58885509D01*
X248505698Y-58885509D01*
X248505698Y-59443909D01*
G36*
X248505698Y-59443909D02*
G01*
X246105698Y-59443909D01*
X246105698Y-58885509D01*
X248505698Y-58885509D01*
X248505698Y-59443909D01*
G37*
X206169079Y-50732125D02*
X203769079Y-50732125D01*
X203769079Y-44732126D01*
X206169079Y-44732126D01*
X206169079Y-50732125D01*
X206169080Y-45290526D02*
X203769079Y-45290527D01*
X203769079Y-44732126D01*
X206169079Y-44732126D01*
X206169080Y-45290526D01*
G36*
X206169080Y-45290526D02*
G01*
X203769079Y-45290527D01*
X203769079Y-44732126D01*
X206169079Y-44732126D01*
X206169080Y-45290526D01*
G37*
X126997199Y-120110000D02*
X124597200Y-120110000D01*
X124597201Y-119551600D01*
X126997200Y-119551600D01*
X126997199Y-120110000D01*
G36*
X126997199Y-120110000D02*
G01*
X124597200Y-120110000D01*
X124597201Y-119551600D01*
X126997200Y-119551600D01*
X126997199Y-120110000D01*
G37*
X126997199Y-120110000D02*
X124597200Y-120110000D01*
X124597200Y-114110000D01*
X126997199Y-114109999D01*
X126997199Y-120110000D01*
X233471726Y-85850499D02*
X231071726Y-85850499D01*
X231071725Y-85292099D01*
X233471726Y-85292099D01*
X233471726Y-85850499D01*
G36*
X233471726Y-85850499D02*
G01*
X231071726Y-85850499D01*
X231071725Y-85292099D01*
X233471726Y-85292099D01*
X233471726Y-85850499D01*
G37*
X233471726Y-85850499D02*
X231071726Y-85850499D01*
X231071726Y-79850500D01*
X233471726Y-79850500D01*
X233471726Y-85850499D01*
X252346986Y-83427509D02*
X249946986Y-83427509D01*
X249946986Y-77427509D01*
X252346986Y-77427509D01*
X252346986Y-83427509D01*
X252346986Y-77985909D02*
X249946986Y-77985909D01*
X249946986Y-77427509D01*
X252346986Y-77427509D01*
X252346986Y-77985909D01*
G36*
X252346986Y-77985909D02*
G01*
X249946986Y-77985909D01*
X249946986Y-77427509D01*
X252346986Y-77427509D01*
X252346986Y-77985909D01*
G37*
X192019668Y-115174309D02*
X189619669Y-115174309D01*
X189619670Y-114615909D01*
X192019669Y-114615909D01*
X192019668Y-115174309D01*
G36*
X192019668Y-115174309D02*
G01*
X189619669Y-115174309D01*
X189619670Y-114615909D01*
X192019669Y-114615909D01*
X192019668Y-115174309D01*
G37*
X192019668Y-115174309D02*
X189619669Y-115174309D01*
X189619669Y-109174309D01*
X192019668Y-109174308D01*
X192019668Y-115174309D01*
X49762565Y-81284039D02*
X47362565Y-81284039D01*
X47362565Y-80725639D01*
X49762565Y-80725639D01*
X49762565Y-81284039D01*
G36*
X49762565Y-81284039D02*
G01*
X47362565Y-81284039D01*
X47362565Y-80725639D01*
X49762565Y-80725639D01*
X49762565Y-81284039D01*
G37*
X49762565Y-81284039D02*
X47362565Y-81284039D01*
X47362565Y-75284039D01*
X49762565Y-75284039D01*
X49762565Y-81284039D01*
X192479118Y-76949242D02*
X190079118Y-76949242D01*
X190079118Y-76390842D01*
X192479118Y-76390842D01*
X192479118Y-76949242D01*
G36*
X192479118Y-76949242D02*
G01*
X190079118Y-76949242D01*
X190079118Y-76390842D01*
X192479118Y-76390842D01*
X192479118Y-76949242D01*
G37*
X192479118Y-70949242D02*
X192479118Y-76949242D01*
X190079118Y-76949242D01*
X190079118Y-70949241D01*
X192479118Y-70949242D01*
X95940472Y-48096427D02*
X93540472Y-48096427D01*
X93540471Y-47538027D01*
X95940472Y-47538026D01*
X95940472Y-48096427D01*
G36*
X95940472Y-48096427D02*
G01*
X93540472Y-48096427D01*
X93540471Y-47538027D01*
X95940472Y-47538026D01*
X95940472Y-48096427D01*
G37*
X95940472Y-48096427D02*
X93540472Y-48096427D01*
X93540472Y-42096428D01*
X95940472Y-42096428D01*
X95940472Y-48096427D01*
X229348743Y-67314214D02*
X226948743Y-67314214D01*
X226948742Y-66755814D01*
X229348743Y-66755814D01*
X229348743Y-67314214D01*
G36*
X229348743Y-67314214D02*
G01*
X226948743Y-67314214D01*
X226948742Y-66755814D01*
X229348743Y-66755814D01*
X229348743Y-67314214D01*
G37*
X229348743Y-67314214D02*
X226948743Y-67314214D01*
X226948743Y-61314215D01*
X229348743Y-61314215D01*
X229348743Y-67314214D01*
X214423920Y-87806047D02*
X212023920Y-87806047D01*
X212023920Y-81806048D01*
X214423920Y-81806048D01*
X214423920Y-87806047D01*
X214423921Y-82364448D02*
X212023920Y-82364448D01*
X212023920Y-81806048D01*
X214423920Y-81806048D01*
X214423921Y-82364448D01*
G36*
X214423921Y-82364448D02*
G01*
X212023920Y-82364448D01*
X212023920Y-81806048D01*
X214423920Y-81806048D01*
X214423921Y-82364448D01*
G37*
X53603853Y-62742039D02*
X51203853Y-62742039D01*
X51203853Y-62183639D01*
X53603853Y-62183639D01*
X53603853Y-62742039D01*
G36*
X53603853Y-62742039D02*
G01*
X51203853Y-62742039D01*
X51203853Y-62183639D01*
X53603853Y-62183639D01*
X53603853Y-62742039D01*
G37*
X53603853Y-62742039D02*
X51203853Y-62742039D01*
X51203853Y-56742039D01*
X53603853Y-56742039D01*
X53603853Y-62742039D01*
X196653552Y-95471699D02*
X194253552Y-95471699D01*
X194253552Y-94913299D01*
X196653552Y-94913299D01*
X196653552Y-95471699D01*
G36*
X196653552Y-95471699D02*
G01*
X194253552Y-95471699D01*
X194253552Y-94913299D01*
X196653552Y-94913299D01*
X196653552Y-95471699D01*
G37*
X196653552Y-89471699D02*
X196653552Y-95471699D01*
X194253552Y-95471699D01*
X194253552Y-89471698D01*
X196653552Y-89471699D01*
X176525669Y-121886309D02*
X174125670Y-121886310D01*
X174125670Y-115886309D01*
X176525669Y-115886309D01*
X176525669Y-121886309D01*
X176525668Y-116444709D02*
X174125669Y-116444709D01*
X174125670Y-115886309D01*
X176525669Y-115886309D01*
X176525668Y-116444709D01*
G36*
X176525668Y-116444709D02*
G01*
X174125669Y-116444709D01*
X174125670Y-115886309D01*
X176525669Y-115886309D01*
X176525668Y-116444709D01*
G37*
X110487200Y-113312400D02*
X108087201Y-113312401D01*
X108087201Y-107312400D01*
X110487200Y-107312400D01*
X110487200Y-113312400D01*
X110487199Y-107870800D02*
X108087200Y-107870800D01*
X108087201Y-107312400D01*
X110487200Y-107312400D01*
X110487199Y-107870800D01*
G36*
X110487199Y-107870800D02*
G01*
X108087200Y-107870800D01*
X108087201Y-107312400D01*
X110487200Y-107312400D01*
X110487199Y-107870800D01*
G37*
X68637825Y-82907028D02*
X66237825Y-82907028D01*
X66237825Y-76907029D01*
X68637825Y-76907029D01*
X68637825Y-82907028D01*
X68637826Y-77465429D02*
X66237825Y-77465429D01*
X66237825Y-76907029D01*
X68637825Y-76907029D01*
X68637826Y-77465429D01*
G36*
X68637826Y-77465429D02*
G01*
X66237825Y-77465429D01*
X66237825Y-76907029D01*
X68637825Y-76907029D01*
X68637826Y-77465429D01*
G37*
X87685631Y-85170349D02*
X85285631Y-85170349D01*
X85285630Y-84611949D01*
X87685631Y-84611949D01*
X87685631Y-85170349D01*
G36*
X87685631Y-85170349D02*
G01*
X85285631Y-85170349D01*
X85285630Y-84611949D01*
X87685631Y-84611949D01*
X87685631Y-85170349D01*
G37*
X87685631Y-85170349D02*
X85285631Y-85170349D01*
X85285631Y-79170350D01*
X87685631Y-79170350D01*
X87685631Y-85170349D01*
X225242281Y-48752262D02*
X222842281Y-48752262D01*
X222842280Y-48193862D01*
X225242281Y-48193862D01*
X225242281Y-48752262D01*
G36*
X225242281Y-48752262D02*
G01*
X222842281Y-48752262D01*
X222842280Y-48193862D01*
X225242281Y-48193862D01*
X225242281Y-48752262D01*
G37*
X225242281Y-48752262D02*
X222842281Y-48752262D01*
X222842281Y-42752263D01*
X225242281Y-42752263D01*
X225242281Y-48752262D01*
M02*
