M48
; DRILL file {KiCad 8.0.3} date 2024-08-29T14:39:30+0800
; FORMAT={-:-/ absolute / inch / decimal}
; #@! TF.CreationDate,2024-08-29T14:39:30+08:00
; #@! TF.GenerationSoftware,Kicad,Pcbnew,8.0.3
; #@! TF.FileFunction,Plated,1,2,PTH
FMAT,2
INCH
; #@! TA.AperFunction,Plated,PTH,ViaDrill
T1C0.0157
; #@! TA.AperFunction,Plated,PTH,ComponentDrill
T2C0.0394
; #@! TA.AperFunction,Plated,PTH,ComponentDrill
T3C0.0433
; #@! TA.AperFunction,Plated,PTH,ComponentDrill
T4C0.0866
%
G90
G05
T1
X2.032Y-2.1579
X2.1062Y-2.9526
X2.1995Y-1.4287
X2.2681Y-2.2223
X3.5406Y-2.3089
X3.5638Y-3.3026
X3.679Y-4.1036
X3.6984Y-1.578
X3.7332Y-2.5734
X4.775Y-3.6424
X4.9522Y-2.9158
X4.9526Y-4.5358
X4.971Y-3.178
X4.9906Y-3.9358
X5.1259Y-2.1886
X5.129Y-3.2813
X5.2546Y-3.301
X5.3758Y-3.2823
X5.4212Y-3.3108
X5.4305Y-3.1328
X5.5021Y-2.9794
X5.5306Y-2.9454
X5.6626Y-3.2094
X5.9906Y-2.9794
X6.1106Y-3.838
X6.3124Y-2.9101
X6.3156Y-3.2574
X6.3166Y-3.1574
X6.3269Y-2.3458
X6.3946Y-2.9101
X6.4096Y-2.3753
X6.539Y-2.3285
X6.5746Y-2.2924
X6.6366Y-3.2089
X6.6555Y-2.5511
X6.6646Y-2.2969
X6.8022Y-3.4392
X6.8374Y-3.0251
X6.8806Y-3.8594
X6.9026Y-4.6215
X7.0019Y-4.0074
X7.0147Y-3.7517
X7.6367Y-4.4436
X8.0047Y-2.4895
X8.0846Y-1.6869
X8.1741Y-3.2187
X8.2446Y-2.4169
X9.4735Y-2.1353
X9.5854Y-1.5369
X9.6354Y-2.8655
X9.7501Y-2.2654
T2
X6.5916Y-4.2156
X6.5916Y-4.0156
X6.5916Y-4.3156
X6.5916Y-4.1156
X8.0137Y-0.9584
X8.0395Y-1.055
X8.0654Y-1.1516
X8.0913Y-1.2482
T3
X5.6051Y-2.7591
X5.6051Y-2.8591
X5.6051Y-2.9591
X5.6051Y-3.0591
X5.6051Y-3.1591
X5.6051Y-3.2591
X5.6051Y-3.3591
X5.6051Y-3.4591
X5.6051Y-3.5591
X5.6051Y-3.6591
X5.6051Y-3.7591
X5.6051Y-3.8591
X6.2051Y-3.3591
X6.2051Y-2.7591
X6.2051Y-2.8591
X6.2051Y-2.9591
X6.2051Y-3.0591
X6.2051Y-3.1591
X6.2051Y-3.2591
X6.2051Y-3.4591
X6.2051Y-3.5591
X6.2051Y-3.6591
X6.2051Y-3.7591
X6.2051Y-3.8591
T4
X5.0562Y-4.3156
X6.6051Y-1.6342
X6.7491Y-4.3156
X8.169Y-0.9298
M30
