M48
; DRILL file {KiCad 8.0.3} date 2024-08-29T14:39:31+0800
; FORMAT={-:-/ absolute / inch / decimal}
; #@! TF.CreationDate,2024-08-29T14:39:31+08:00
; #@! TF.GenerationSoftware,Kicad,Pcbnew,8.0.3
; #@! TF.FileFunction,NonPlated,1,2,NPTH
FMAT,2
INCH
; #@! TA.AperFunction,NonPlated,NPTH,ComponentDrill
T1C0.0748
; #@! TA.AperFunction,NonPlated,NPTH,ComponentDrill
T2C0.1181
; #@! TA.AperFunction,NonPlated,NPTH,ComponentDrill
T3C0.1260
; #@! TA.AperFunction,NonPlated,NPTH,ComponentDrill
T4C0.1614
%
G90
G05
T1
X1.414Y-2.9989
X1.5717Y-2.2722
X1.7364Y-1.5309
X1.8066Y-3.0753
X1.9644Y-2.3485
X2.1269Y-1.6174
X2.1617Y-3.0673
X2.3236Y-2.337
X2.4855Y-1.6067
X2.5522Y-3.1539
X2.7141Y-2.4236
X2.876Y-1.6933
X2.9115Y-3.1408
X3.0734Y-2.4105
X3.2353Y-1.6802
X3.302Y-3.2274
X3.464Y-2.4971
X3.6142Y-3.4196
X3.6259Y-1.7668
X3.7033Y-4.3111
X3.7835Y-2.6904
X3.9668Y-1.9628
X4.0005Y-3.5231
X4.0581Y-4.4958
X4.1699Y-2.794
X4.3079Y-3.7243
X4.3532Y-2.0664
X4.3638Y-4.7077
X4.4851Y-2.9977
X4.6588Y-2.2705
X4.6942Y-3.8279
X4.7186Y-4.8924
X4.8715Y-3.1012
X5.0452Y-2.3741
X6.7659Y-2.3741
X6.9396Y-3.1012
X7.0924Y-4.8924
X7.1168Y-3.8279
X7.1522Y-2.2705
X7.3259Y-2.9977
X7.4472Y-4.7077
X7.4578Y-2.0664
X7.5032Y-3.7243
X7.6411Y-2.794
X7.7529Y-4.4958
X7.8105Y-3.5231
X7.8442Y-1.9628
X8.0275Y-2.6904
X8.1077Y-4.3111
X8.1852Y-1.7668
X8.1969Y-3.4196
X8.3471Y-2.4971
X8.509Y-3.2274
X8.5757Y-1.6802
X8.7376Y-2.4105
X8.8995Y-3.1408
X8.935Y-1.6933
X9.0969Y-2.4236
X9.2588Y-3.1539
X9.3256Y-1.6067
X9.4875Y-2.337
X9.6494Y-3.0673
X9.6841Y-1.6174
X9.8467Y-2.3485
X10.0044Y-3.0753
X10.0746Y-1.5309
X10.2393Y-2.2722
X10.3971Y-2.9989
T2
X1.4821Y-2.9103
X1.6399Y-2.1836
X1.7466Y-2.8599
X1.8068Y-1.4441
X1.9043Y-2.1331
X2.0726Y-1.4005
X2.2321Y-2.9805
X2.394Y-2.2502
X2.4978Y-2.937
X2.5559Y-1.5199
X2.6597Y-2.2067
X2.8216Y-1.4764
X2.982Y-3.054
X3.1439Y-2.3237
X3.2477Y-3.0105
X3.3058Y-1.5934
X3.4096Y-2.2802
X3.5715Y-1.5499
X3.6884Y-3.336
X3.7938Y-4.2455
X3.8577Y-2.6068
X3.9557Y-3.3041
X4.041Y-1.8792
X4.0618Y-4.2722
X4.1251Y-2.5749
X4.3084Y-1.8473
X4.382Y-3.6407
X4.4543Y-4.6421
X4.5593Y-2.9141
X4.6494Y-3.6088
X4.7223Y-4.6688
X4.733Y-2.1869
X4.8266Y-2.8822
X5.0003Y-2.155
X6.7883Y-2.2645
X6.962Y-2.9917
X7.0039Y-2.1032
X7.0906Y-4.7806
X7.1392Y-3.7183
X7.1776Y-2.8304
X7.2662Y-4.5765
X7.3548Y-3.557
X7.4802Y-1.9568
X7.6635Y-2.6844
X7.6958Y-1.7955
X7.7511Y-4.384
X7.8329Y-3.4136
X7.8791Y-2.5231
X7.9267Y-4.1799
X8.0485Y-3.2523
X8.2123Y-1.6583
X8.3742Y-2.3886
X8.4348Y-1.5066
X8.5361Y-3.1189
X8.5967Y-2.2369
X8.7586Y-2.9672
X8.9622Y-1.5848
X9.1241Y-2.3151
X9.1846Y-1.4331
X9.286Y-3.0454
X9.3465Y-2.1634
X9.5085Y-2.8937
X9.7113Y-1.509
X9.8767Y-2.2408
X9.9337Y-1.3573
X10.0344Y-2.9676
X10.103Y-2.0949
X10.2607Y-2.8217
T3
X1.9621Y-3.4548
X2.3435Y-1.232
X4.7342Y-4.3469
X5.0492Y-1.9219
X5.4331Y-2.5271
X5.4331Y-4.1637
X5.4331Y-3.5497
X6.378Y-3.5486
X6.378Y-2.5282
X6.378Y-4.1647
X6.7618Y-1.9219
X7.0768Y-4.3469
X9.4675Y-1.232
X9.6784Y-4.6139
X9.6784Y-5.6365
X9.8489Y-3.4548
X10.6233Y-4.6128
X10.6233Y-5.6354
T4
X1.6103Y-3.0371
X1.768Y-2.3104
X1.9316Y-1.5742
X2.3569Y-3.1106
X2.5188Y-2.3803
X2.6807Y-1.65
X3.1068Y-3.1841
X3.2687Y-2.4538
X3.4306Y-1.7235
X3.8074Y-3.4714
X3.8807Y-4.4035
X3.9767Y-2.7422
X4.16Y-2.0146
X4.5011Y-3.7761
X4.5412Y-4.8
X4.6783Y-3.0495
X4.852Y-2.3223
X6.9591Y-2.3223
X7.1327Y-3.0495
X7.2698Y-4.8
X7.31Y-3.7761
X7.651Y-2.0146
X7.8343Y-2.7422
X7.9303Y-4.4035
X8.0037Y-3.4714
X8.3804Y-1.7235
X8.5423Y-2.4538
X8.7042Y-3.1841
X9.1303Y-1.65
X9.2922Y-2.3803
X9.4541Y-3.1106
X9.8794Y-1.5742
X10.043Y-2.3104
X10.2007Y-3.0371
M30
