G04 #@! TF.GenerationSoftware,KiCad,Pcbnew,9.0.2*
G04 #@! TF.CreationDate,2026-01-21T13:25:44+08:00*
G04 #@! TF.ProjectId,pmw3360_fsr,706d7733-3336-4305-9f66-73722e6b6963,rev?*
G04 #@! TF.SameCoordinates,PX4d3f640PY69db9c0*
G04 #@! TF.FileFunction,Legend,Bot*
G04 #@! TF.FilePolarity,Positive*
%FSLAX46Y46*%
G04 Gerber Fmt 4.6, Leading zero omitted, Abs format (unit mm)*
G04 Created by KiCad (PCBNEW 9.0.2) date 2026-01-21 13:25:44*
%MOMM*%
%LPD*%
G01*
G04 APERTURE LIST*
%ADD10C,0.200000*%
%ADD11C,0.100000*%
%ADD12C,0.150000*%
%ADD13C,0.120000*%
G04 APERTURE END LIST*
D10*
X11016779Y12135255D02*
G75*
G02*
X6616779Y12135255I-2200000J0D01*
G01*
X6616779Y12135255D02*
G75*
G02*
X11016779Y12135255I2200000J0D01*
G01*
X-6616779Y-12135255D02*
G75*
G02*
X-11016779Y-12135255I-2200000J0D01*
G01*
X-11016779Y-12135255D02*
G75*
G02*
X-6616779Y-12135255I2200000J0D01*
G01*
G36*
X-10674332Y4316034D02*
G01*
X-10710163Y4329471D01*
X-10728248Y4363381D01*
X-10728248Y4506504D01*
X-10702677Y4560844D01*
X-10651099Y4593080D01*
X-10619504Y4597029D01*
X-10674332Y4316034D01*
G37*
G36*
X-10308974Y5513044D02*
G01*
X-10288823Y5495413D01*
X-10261581Y5444334D01*
X-10261581Y5301212D01*
X-10276238Y5270066D01*
X-10724769Y5214000D01*
X-10728248Y5220524D01*
X-10728248Y5363647D01*
X-10696297Y5431545D01*
X-10667821Y5463581D01*
X-10603479Y5503795D01*
X-10364102Y5533717D01*
X-10308974Y5513044D01*
G37*
G36*
X-10308974Y9084473D02*
G01*
X-10288823Y9066842D01*
X-10261581Y9015763D01*
X-10261581Y8920260D01*
X-10293534Y8852361D01*
X-10322013Y8820323D01*
X-10386350Y8780112D01*
X-10625728Y8750190D01*
X-10680858Y8770863D01*
X-10701006Y8788493D01*
X-10728248Y8839572D01*
X-10728248Y8935076D01*
X-10696297Y9002974D01*
X-10667821Y9035010D01*
X-10603479Y9075224D01*
X-10364102Y9105146D01*
X-10308974Y9084473D01*
G37*
G36*
X-10674332Y11363654D02*
G01*
X-10710163Y11377091D01*
X-10728248Y11411001D01*
X-10728248Y11554124D01*
X-10702677Y11608464D01*
X-10651099Y11640700D01*
X-10619504Y11644649D01*
X-10674332Y11363654D01*
G37*
G36*
X-9950470Y4002529D02*
G01*
X-11372692Y4002529D01*
X-11372692Y4528857D01*
X-10928248Y4528857D01*
X-10928248Y4338381D01*
X-10926327Y4318872D01*
X-10924447Y4314332D01*
X-10923969Y4309440D01*
X-10916483Y4291322D01*
X-10868864Y4202036D01*
X-10862925Y4193128D01*
X-10861843Y4190749D01*
X-10860504Y4189498D01*
X-10857989Y4185726D01*
X-10845309Y4175301D01*
X-10833333Y4164111D01*
X-10829270Y4162114D01*
X-10827850Y4160946D01*
X-10825345Y4160184D01*
X-10815741Y4155462D01*
X-10720503Y4119748D01*
X-10701562Y4114697D01*
X-10696993Y4114853D01*
X-10692584Y4113640D01*
X-10672987Y4114153D01*
X-10577749Y4126058D01*
X-10558629Y4130384D01*
X-10555300Y4132278D01*
X-10551548Y4133038D01*
X-10538449Y4141861D01*
X-10524712Y4149672D01*
X-10522361Y4152696D01*
X-10519185Y4154834D01*
X-10510458Y4167999D01*
X-10500757Y4180471D01*
X-10499742Y4184164D01*
X-10497626Y4187355D01*
X-10492004Y4206135D01*
X-10410638Y4623138D01*
X-10316483Y4634907D01*
X-10279667Y4621101D01*
X-10261581Y4587192D01*
X-10261581Y4444069D01*
X-10299682Y4363104D01*
X-10306251Y4344634D01*
X-10308089Y4305659D01*
X-10294873Y4268947D01*
X-10268614Y4240087D01*
X-10233310Y4223473D01*
X-10194335Y4221635D01*
X-10157623Y4234851D01*
X-10128763Y4261110D01*
X-10118718Y4277944D01*
X-10071099Y4379134D01*
X-10064530Y4397605D01*
X-10064418Y4399996D01*
X-10063502Y4402205D01*
X-10061581Y4421714D01*
X-10061581Y4612191D01*
X-10063502Y4631700D01*
X-10065383Y4636241D01*
X-10065860Y4641132D01*
X-10073346Y4659250D01*
X-10120965Y4748535D01*
X-10126905Y4757443D01*
X-10127986Y4759821D01*
X-10129326Y4761073D01*
X-10131841Y4764845D01*
X-10144512Y4775263D01*
X-10156495Y4786460D01*
X-10160563Y4788460D01*
X-10161980Y4789625D01*
X-10164482Y4790387D01*
X-10174088Y4795109D01*
X-10269326Y4830824D01*
X-10288268Y4835875D01*
X-10292838Y4835720D01*
X-10297246Y4836932D01*
X-10316843Y4836419D01*
X-10697795Y4788799D01*
X-10716915Y4784473D01*
X-10718749Y4783431D01*
X-10720828Y4783082D01*
X-10738390Y4774371D01*
X-10833628Y4714848D01*
X-10849154Y4702879D01*
X-10854392Y4695536D01*
X-10861066Y4689462D01*
X-10871111Y4672628D01*
X-10918730Y4571436D01*
X-10925299Y4552966D01*
X-10925412Y4550576D01*
X-10926327Y4548366D01*
X-10928248Y4528857D01*
X-11372692Y4528857D01*
X-11372692Y5065812D01*
X-11261322Y5065812D01*
X-11256483Y5027095D01*
X-11237195Y4993178D01*
X-11206396Y4969223D01*
X-11168774Y4958878D01*
X-11149178Y4959391D01*
X-10149178Y5084391D01*
X-10130058Y5088717D01*
X-10096140Y5108005D01*
X-10072185Y5138804D01*
X-10061840Y5176426D01*
X-10066679Y5215143D01*
X-10074540Y5228966D01*
X-10071099Y5236277D01*
X-10064530Y5254748D01*
X-10064418Y5257139D01*
X-10063502Y5259348D01*
X-10061581Y5278857D01*
X-10061581Y5469333D01*
X-10063502Y5488842D01*
X-10065383Y5493383D01*
X-10065860Y5498274D01*
X-10073345Y5516391D01*
X-10120965Y5605678D01*
X-10129060Y5617819D01*
X-10129933Y5619584D01*
X-10130983Y5620703D01*
X-10131840Y5621988D01*
X-10133373Y5623248D01*
X-10143350Y5633877D01*
X-10190970Y5675544D01*
X-10202624Y5683876D01*
X-10204116Y5685270D01*
X-10205583Y5685992D01*
X-10206917Y5686945D01*
X-10208859Y5687602D01*
X-10221708Y5693919D01*
X-10316946Y5729633D01*
X-10335887Y5734684D01*
X-10340457Y5734529D01*
X-10344865Y5735741D01*
X-10364462Y5735228D01*
X-10650175Y5699514D01*
X-10669295Y5695188D01*
X-10671131Y5694145D01*
X-10673211Y5693796D01*
X-10690772Y5685086D01*
X-10786010Y5625562D01*
X-10791245Y5621527D01*
X-10793354Y5620504D01*
X-10797292Y5616865D01*
X-10801536Y5613593D01*
X-10802897Y5611686D01*
X-10807751Y5607199D01*
X-10855370Y5553628D01*
X-10859319Y5548196D01*
X-10861066Y5546605D01*
X-10863782Y5542054D01*
X-10866895Y5537770D01*
X-10867669Y5535540D01*
X-10871111Y5529771D01*
X-10918730Y5428579D01*
X-10925299Y5410109D01*
X-10925412Y5407719D01*
X-10926327Y5405509D01*
X-10928248Y5386000D01*
X-10928248Y5195524D01*
X-10927572Y5188649D01*
X-11173984Y5157847D01*
X-11193105Y5153521D01*
X-11227022Y5134233D01*
X-11250977Y5103434D01*
X-11261322Y5065812D01*
X-11372692Y5065812D01*
X-11372692Y5970575D01*
X-11261322Y5970575D01*
X-11259302Y5954410D01*
X-11258345Y5938147D01*
X-11258172Y5937790D01*
X-11258145Y5937391D01*
X-11256847Y5934765D01*
X-11256483Y5931858D01*
X-11248433Y5917701D01*
X-11241323Y5903037D01*
X-11241026Y5902773D01*
X-11240849Y5902416D01*
X-11238037Y5899421D01*
X-11237195Y5897940D01*
X-11235165Y5896361D01*
X-11227432Y5888124D01*
X-11179813Y5846457D01*
X-11165057Y5835907D01*
X-11164541Y5835448D01*
X-11164298Y5835364D01*
X-11163866Y5835055D01*
X-11145712Y5828916D01*
X-11127678Y5822659D01*
X-11127281Y5822683D01*
X-11126904Y5822555D01*
X-11107822Y5823827D01*
X-11088728Y5824950D01*
X-11088371Y5825124D01*
X-11087972Y5825150D01*
X-11070815Y5833635D01*
X-11053618Y5841972D01*
X-11053230Y5842332D01*
X-11052997Y5842446D01*
X-11052541Y5842969D01*
X-11039221Y5855277D01*
X-10991602Y5908849D01*
X-10980077Y5924706D01*
X-10979948Y5925081D01*
X-10979684Y5925381D01*
X-10978746Y5928158D01*
X-10976947Y5930469D01*
X-10972627Y5946181D01*
X-10967288Y5961569D01*
X-10967312Y5961967D01*
X-10967184Y5962343D01*
X-10967379Y5965266D01*
X-10966602Y5968091D01*
X-10968623Y5984257D01*
X-10969579Y6000520D01*
X-10969753Y6000879D01*
X-10969779Y6001274D01*
X-10971078Y6003900D01*
X-10971441Y6006808D01*
X-10974530Y6012240D01*
X-10927989Y6012240D01*
X-10923150Y5973523D01*
X-10903862Y5939606D01*
X-10873063Y5915651D01*
X-10835441Y5905306D01*
X-10815844Y5905819D01*
X-10149178Y5989153D01*
X-10130058Y5993479D01*
X-10096140Y6012767D01*
X-10072185Y6043566D01*
X-10061840Y6081188D01*
X-10066679Y6119905D01*
X-10085967Y6153822D01*
X-10116766Y6177777D01*
X-10154388Y6188122D01*
X-10173985Y6187609D01*
X-10840652Y6104275D01*
X-10859772Y6099949D01*
X-10893689Y6080661D01*
X-10917644Y6049862D01*
X-10927989Y6012240D01*
X-10974530Y6012240D01*
X-10979491Y6020963D01*
X-10986601Y6035629D01*
X-10986899Y6035894D01*
X-10987075Y6036250D01*
X-10989888Y6039246D01*
X-10990729Y6040726D01*
X-10992760Y6042306D01*
X-11000492Y6050542D01*
X-11048111Y6092209D01*
X-11062868Y6102760D01*
X-11063383Y6103218D01*
X-11063627Y6103303D01*
X-11064058Y6103611D01*
X-11082193Y6109744D01*
X-11100245Y6116007D01*
X-11100644Y6115984D01*
X-11101020Y6116111D01*
X-11120107Y6114839D01*
X-11139196Y6113716D01*
X-11139554Y6113543D01*
X-11139952Y6113516D01*
X-11157110Y6105032D01*
X-11174306Y6096694D01*
X-11174695Y6096335D01*
X-11174927Y6096220D01*
X-11175384Y6095698D01*
X-11188703Y6083389D01*
X-11236322Y6029818D01*
X-11247847Y6013960D01*
X-11247977Y6013586D01*
X-11248240Y6013285D01*
X-11249179Y6010509D01*
X-11250977Y6008197D01*
X-11255298Y5992486D01*
X-11260636Y5977097D01*
X-11260613Y5976700D01*
X-11260740Y5976323D01*
X-11260546Y5973401D01*
X-11261322Y5970575D01*
X-11372692Y5970575D01*
X-11372692Y6719333D01*
X-10928248Y6719333D01*
X-10928248Y6576476D01*
X-10926327Y6556967D01*
X-10924447Y6552427D01*
X-10923969Y6547535D01*
X-10916483Y6529417D01*
X-10868864Y6440131D01*
X-10857989Y6423821D01*
X-10827850Y6399041D01*
X-10790522Y6387680D01*
X-10751688Y6391469D01*
X-10717260Y6409830D01*
X-10692480Y6439969D01*
X-10681119Y6477297D01*
X-10684908Y6516131D01*
X-10692393Y6534248D01*
X-10728248Y6601476D01*
X-10728248Y6696980D01*
X-10702677Y6751320D01*
X-10651099Y6783556D01*
X-10649814Y6783716D01*
X-10613001Y6769911D01*
X-10594915Y6736001D01*
X-10594915Y6618143D01*
X-10592994Y6598634D01*
X-10591114Y6594094D01*
X-10590636Y6589202D01*
X-10583150Y6571084D01*
X-10535531Y6481798D01*
X-10529592Y6472890D01*
X-10528510Y6470511D01*
X-10527171Y6469260D01*
X-10524656Y6465488D01*
X-10511976Y6455063D01*
X-10500000Y6443873D01*
X-10495937Y6441876D01*
X-10494517Y6440708D01*
X-10492012Y6439946D01*
X-10482408Y6435224D01*
X-10387170Y6399510D01*
X-10368229Y6394459D01*
X-10363661Y6394615D01*
X-10359252Y6393402D01*
X-10339655Y6393915D01*
X-10292036Y6399867D01*
X-10272916Y6404193D01*
X-10271083Y6405236D01*
X-10269001Y6405584D01*
X-10251439Y6414295D01*
X-10156200Y6473819D01*
X-10140675Y6485788D01*
X-10135438Y6493132D01*
X-10128763Y6499205D01*
X-10118718Y6516039D01*
X-10071099Y6617229D01*
X-10064530Y6635700D01*
X-10064418Y6638091D01*
X-10063502Y6640300D01*
X-10061581Y6659809D01*
X-10061581Y6850286D01*
X-10063502Y6869795D01*
X-10065383Y6874336D01*
X-10065860Y6879227D01*
X-10073346Y6897345D01*
X-10120965Y6986630D01*
X-10131841Y7002940D01*
X-10161980Y7027720D01*
X-10199307Y7039080D01*
X-10238141Y7035292D01*
X-10272569Y7016930D01*
X-10297349Y6986791D01*
X-10308709Y6949464D01*
X-10304921Y6910630D01*
X-10297435Y6892512D01*
X-10261581Y6825287D01*
X-10261581Y6682164D01*
X-10287153Y6627824D01*
X-10338732Y6595587D01*
X-10340015Y6595427D01*
X-10376830Y6609233D01*
X-10394915Y6643143D01*
X-10394915Y6761000D01*
X-10396836Y6780509D01*
X-10398717Y6785050D01*
X-10399194Y6789941D01*
X-10406679Y6808058D01*
X-10454299Y6897345D01*
X-10460239Y6906254D01*
X-10461320Y6908632D01*
X-10462660Y6909884D01*
X-10465174Y6913655D01*
X-10477855Y6924081D01*
X-10489830Y6935270D01*
X-10493894Y6937268D01*
X-10495313Y6938435D01*
X-10497819Y6939198D01*
X-10507422Y6943919D01*
X-10602660Y6979633D01*
X-10621601Y6984684D01*
X-10626169Y6984529D01*
X-10630580Y6985742D01*
X-10650176Y6985228D01*
X-10697796Y6979275D01*
X-10716916Y6974948D01*
X-10718748Y6973907D01*
X-10720828Y6973558D01*
X-10738390Y6964847D01*
X-10833628Y6905324D01*
X-10849154Y6893355D01*
X-10854392Y6886012D01*
X-10861066Y6879938D01*
X-10871111Y6863104D01*
X-10918730Y6761912D01*
X-10925299Y6743442D01*
X-10925412Y6741052D01*
X-10926327Y6738842D01*
X-10928248Y6719333D01*
X-11372692Y6719333D01*
X-11372692Y8005048D01*
X-10928248Y8005048D01*
X-10928248Y7909810D01*
X-10926327Y7890301D01*
X-10911395Y7854253D01*
X-10883805Y7826663D01*
X-10847757Y7811731D01*
X-10808739Y7811731D01*
X-10772691Y7826663D01*
X-10745101Y7854253D01*
X-10730169Y7890301D01*
X-10728248Y7909810D01*
X-10728248Y7982695D01*
X-10696297Y8050593D01*
X-10667821Y8082629D01*
X-10603480Y8122842D01*
X-10149178Y8179630D01*
X-10130058Y8183956D01*
X-10096140Y8203244D01*
X-10072185Y8234043D01*
X-10061840Y8271665D01*
X-10066679Y8310382D01*
X-10085967Y8344299D01*
X-10116766Y8368254D01*
X-10154388Y8378599D01*
X-10173985Y8378086D01*
X-10840652Y8294752D01*
X-10859772Y8290426D01*
X-10893689Y8271138D01*
X-10917644Y8240339D01*
X-10927989Y8202717D01*
X-10923150Y8164000D01*
X-10903862Y8130083D01*
X-10886341Y8116456D01*
X-10918730Y8047627D01*
X-10925299Y8029157D01*
X-10925412Y8026767D01*
X-10926327Y8024557D01*
X-10928248Y8005048D01*
X-11372692Y8005048D01*
X-11372692Y8957429D01*
X-10928248Y8957429D01*
X-10928248Y8814572D01*
X-10926327Y8795063D01*
X-10924447Y8790523D01*
X-10923969Y8785631D01*
X-10916483Y8767513D01*
X-10868864Y8678227D01*
X-10860771Y8666090D01*
X-10859896Y8664320D01*
X-10858845Y8663200D01*
X-10857989Y8661917D01*
X-10856460Y8660660D01*
X-10846479Y8650028D01*
X-10798860Y8608362D01*
X-10787211Y8600034D01*
X-10785715Y8598636D01*
X-10784245Y8597914D01*
X-10782913Y8596961D01*
X-10780975Y8596306D01*
X-10768123Y8589987D01*
X-10672885Y8554272D01*
X-10653944Y8549221D01*
X-10649374Y8549377D01*
X-10644965Y8548164D01*
X-10625368Y8548677D01*
X-10339654Y8584392D01*
X-10320534Y8588718D01*
X-10318701Y8589761D01*
X-10316620Y8590109D01*
X-10299059Y8598820D01*
X-10203820Y8658343D01*
X-10198587Y8662378D01*
X-10196476Y8663401D01*
X-10192535Y8667044D01*
X-10188295Y8670312D01*
X-10186937Y8672218D01*
X-10182079Y8676706D01*
X-10134460Y8730278D01*
X-10130513Y8735710D01*
X-10128763Y8737301D01*
X-10126046Y8741855D01*
X-10122934Y8746136D01*
X-10122161Y8748367D01*
X-10118718Y8754135D01*
X-10071099Y8855325D01*
X-10064530Y8873796D01*
X-10064418Y8876187D01*
X-10063502Y8878396D01*
X-10061581Y8897905D01*
X-10061581Y9040762D01*
X-10063502Y9060271D01*
X-10065383Y9064812D01*
X-10065860Y9069703D01*
X-10073345Y9087820D01*
X-10120965Y9177107D01*
X-10129060Y9189248D01*
X-10129933Y9191013D01*
X-10130983Y9192132D01*
X-10131840Y9193417D01*
X-10133373Y9194677D01*
X-10143350Y9205306D01*
X-10190970Y9246973D01*
X-10202624Y9255305D01*
X-10204116Y9256699D01*
X-10205583Y9257421D01*
X-10206917Y9258374D01*
X-10208859Y9259031D01*
X-10221708Y9265348D01*
X-10316946Y9301062D01*
X-10335887Y9306113D01*
X-10340457Y9305958D01*
X-10344865Y9307170D01*
X-10364462Y9306657D01*
X-10650175Y9270943D01*
X-10669295Y9266617D01*
X-10671131Y9265574D01*
X-10673211Y9265225D01*
X-10690772Y9256515D01*
X-10786010Y9196991D01*
X-10791245Y9192956D01*
X-10793354Y9191933D01*
X-10797292Y9188294D01*
X-10801536Y9185022D01*
X-10802897Y9183115D01*
X-10807751Y9178628D01*
X-10855370Y9125057D01*
X-10859319Y9119625D01*
X-10861066Y9118034D01*
X-10863782Y9113483D01*
X-10866895Y9109199D01*
X-10867669Y9106969D01*
X-10871111Y9101200D01*
X-10918730Y9000008D01*
X-10925299Y8981538D01*
X-10925412Y8979148D01*
X-10926327Y8976938D01*
X-10928248Y8957429D01*
X-11372692Y8957429D01*
X-11372692Y9814572D01*
X-10928248Y9814572D01*
X-10928248Y9671715D01*
X-10926327Y9652206D01*
X-10924447Y9647666D01*
X-10923969Y9642774D01*
X-10916483Y9624656D01*
X-10868864Y9535370D01*
X-10857989Y9519060D01*
X-10827850Y9494280D01*
X-10790522Y9482919D01*
X-10751688Y9486708D01*
X-10717260Y9505069D01*
X-10692480Y9535208D01*
X-10681119Y9572536D01*
X-10684908Y9611370D01*
X-10692393Y9629487D01*
X-10728248Y9696715D01*
X-10728248Y9792219D01*
X-10702677Y9846559D01*
X-10651099Y9878795D01*
X-10649814Y9878955D01*
X-10613001Y9865150D01*
X-10594915Y9831240D01*
X-10594915Y9713382D01*
X-10592994Y9693873D01*
X-10591114Y9689333D01*
X-10590636Y9684441D01*
X-10583150Y9666323D01*
X-10535531Y9577037D01*
X-10529592Y9568129D01*
X-10528510Y9565750D01*
X-10527171Y9564499D01*
X-10524656Y9560727D01*
X-10511976Y9550302D01*
X-10500000Y9539112D01*
X-10495937Y9537115D01*
X-10494517Y9535947D01*
X-10492012Y9535185D01*
X-10482408Y9530463D01*
X-10387170Y9494749D01*
X-10368229Y9489698D01*
X-10363661Y9489854D01*
X-10359252Y9488641D01*
X-10339655Y9489154D01*
X-10292036Y9495106D01*
X-10272916Y9499432D01*
X-10271083Y9500475D01*
X-10269001Y9500823D01*
X-10251439Y9509534D01*
X-10156200Y9569058D01*
X-10140675Y9581027D01*
X-10135438Y9588371D01*
X-10128763Y9594444D01*
X-10118718Y9611278D01*
X-10071099Y9712468D01*
X-10064530Y9730939D01*
X-10064418Y9733330D01*
X-10063502Y9735539D01*
X-10061581Y9755048D01*
X-10061581Y9945525D01*
X-10063502Y9965034D01*
X-10065383Y9969575D01*
X-10065860Y9974466D01*
X-10073346Y9992584D01*
X-10120965Y10081869D01*
X-10131841Y10098179D01*
X-10161980Y10122959D01*
X-10199307Y10134319D01*
X-10238141Y10130531D01*
X-10272569Y10112169D01*
X-10297349Y10082030D01*
X-10308709Y10044703D01*
X-10304921Y10005869D01*
X-10297435Y9987751D01*
X-10261581Y9920526D01*
X-10261581Y9777403D01*
X-10287153Y9723063D01*
X-10338732Y9690826D01*
X-10340015Y9690666D01*
X-10376830Y9704472D01*
X-10394915Y9738382D01*
X-10394915Y9856239D01*
X-10396836Y9875748D01*
X-10398717Y9880289D01*
X-10399194Y9885180D01*
X-10406679Y9903297D01*
X-10454299Y9992584D01*
X-10460239Y10001493D01*
X-10461320Y10003871D01*
X-10462660Y10005123D01*
X-10465174Y10008894D01*
X-10477855Y10019320D01*
X-10489830Y10030509D01*
X-10493894Y10032507D01*
X-10495313Y10033674D01*
X-10497819Y10034437D01*
X-10507422Y10039158D01*
X-10602660Y10074872D01*
X-10621601Y10079923D01*
X-10626169Y10079768D01*
X-10630580Y10080981D01*
X-10650176Y10080467D01*
X-10697796Y10074514D01*
X-10716916Y10070187D01*
X-10718748Y10069146D01*
X-10720828Y10068797D01*
X-10738390Y10060086D01*
X-10833628Y10000563D01*
X-10849154Y9988594D01*
X-10854392Y9981251D01*
X-10861066Y9975177D01*
X-10871111Y9958343D01*
X-10918730Y9857151D01*
X-10925299Y9838681D01*
X-10925412Y9836291D01*
X-10926327Y9834081D01*
X-10928248Y9814572D01*
X-11372692Y9814572D01*
X-11372692Y10671715D01*
X-10928248Y10671715D01*
X-10928248Y10528858D01*
X-10926327Y10509349D01*
X-10924447Y10504809D01*
X-10923969Y10499917D01*
X-10916483Y10481799D01*
X-10868864Y10392513D01*
X-10862925Y10383605D01*
X-10861843Y10381226D01*
X-10860504Y10379975D01*
X-10857989Y10376203D01*
X-10845309Y10365778D01*
X-10833333Y10354588D01*
X-10829270Y10352591D01*
X-10827850Y10351423D01*
X-10825345Y10350661D01*
X-10815741Y10345939D01*
X-10720503Y10310225D01*
X-10701562Y10305174D01*
X-10696993Y10305330D01*
X-10692584Y10304117D01*
X-10672988Y10304630D01*
X-10149178Y10370106D01*
X-10130058Y10374432D01*
X-10096140Y10393720D01*
X-10072185Y10424519D01*
X-10061840Y10462141D01*
X-10066680Y10500857D01*
X-10085967Y10534775D01*
X-10116766Y10558730D01*
X-10154388Y10569075D01*
X-10173985Y10568562D01*
X-10673348Y10506142D01*
X-10710163Y10519948D01*
X-10728248Y10553858D01*
X-10728248Y10649362D01*
X-10696297Y10717260D01*
X-10683269Y10731917D01*
X-10149178Y10798678D01*
X-10130058Y10803004D01*
X-10096140Y10822292D01*
X-10072185Y10853091D01*
X-10061840Y10890713D01*
X-10066679Y10929430D01*
X-10085967Y10963347D01*
X-10116766Y10987302D01*
X-10154388Y10997647D01*
X-10173985Y10997134D01*
X-10840652Y10913800D01*
X-10859772Y10909474D01*
X-10893689Y10890186D01*
X-10917644Y10859387D01*
X-10927989Y10821765D01*
X-10923150Y10783048D01*
X-10903862Y10749131D01*
X-10902746Y10748263D01*
X-10918730Y10714294D01*
X-10925299Y10695824D01*
X-10925412Y10693434D01*
X-10926327Y10691224D01*
X-10928248Y10671715D01*
X-11372692Y10671715D01*
X-11372692Y11576477D01*
X-10928248Y11576477D01*
X-10928248Y11386001D01*
X-10926327Y11366492D01*
X-10924447Y11361952D01*
X-10923969Y11357060D01*
X-10916483Y11338942D01*
X-10868864Y11249656D01*
X-10862925Y11240748D01*
X-10861843Y11238369D01*
X-10860504Y11237118D01*
X-10857989Y11233346D01*
X-10845309Y11222921D01*
X-10833333Y11211731D01*
X-10829270Y11209734D01*
X-10827850Y11208566D01*
X-10825345Y11207804D01*
X-10815741Y11203082D01*
X-10720503Y11167368D01*
X-10701562Y11162317D01*
X-10696993Y11162473D01*
X-10692584Y11161260D01*
X-10672987Y11161773D01*
X-10577749Y11173678D01*
X-10558629Y11178004D01*
X-10555300Y11179898D01*
X-10551548Y11180658D01*
X-10538449Y11189481D01*
X-10524712Y11197292D01*
X-10522361Y11200316D01*
X-10519185Y11202454D01*
X-10510458Y11215619D01*
X-10500757Y11228091D01*
X-10499742Y11231784D01*
X-10497626Y11234975D01*
X-10492004Y11253755D01*
X-10410638Y11670758D01*
X-10316483Y11682527D01*
X-10279667Y11668721D01*
X-10261581Y11634812D01*
X-10261581Y11491689D01*
X-10299682Y11410724D01*
X-10306251Y11392254D01*
X-10308089Y11353279D01*
X-10294873Y11316567D01*
X-10268614Y11287707D01*
X-10233310Y11271093D01*
X-10194335Y11269255D01*
X-10157623Y11282471D01*
X-10128763Y11308730D01*
X-10118718Y11325564D01*
X-10071099Y11426754D01*
X-10064530Y11445225D01*
X-10064418Y11447616D01*
X-10063502Y11449825D01*
X-10061581Y11469334D01*
X-10061581Y11659811D01*
X-10063502Y11679320D01*
X-10065383Y11683861D01*
X-10065860Y11688752D01*
X-10073346Y11706870D01*
X-10120965Y11796155D01*
X-10126905Y11805063D01*
X-10127986Y11807441D01*
X-10129326Y11808693D01*
X-10131841Y11812465D01*
X-10144512Y11822883D01*
X-10156495Y11834080D01*
X-10160563Y11836080D01*
X-10161980Y11837245D01*
X-10164482Y11838007D01*
X-10174088Y11842729D01*
X-10269326Y11878444D01*
X-10288268Y11883495D01*
X-10292838Y11883340D01*
X-10297246Y11884552D01*
X-10316843Y11884039D01*
X-10697795Y11836419D01*
X-10716915Y11832093D01*
X-10718749Y11831051D01*
X-10720828Y11830702D01*
X-10738390Y11821991D01*
X-10833628Y11762468D01*
X-10849154Y11750499D01*
X-10854392Y11743156D01*
X-10861066Y11737082D01*
X-10871111Y11720248D01*
X-10918730Y11619056D01*
X-10925299Y11600586D01*
X-10925412Y11598196D01*
X-10926327Y11595986D01*
X-10928248Y11576477D01*
X-11372692Y11576477D01*
X-11372692Y12439572D01*
X-11261581Y12439572D01*
X-11261581Y12201477D01*
X-11260476Y12190254D01*
X-11260625Y12187682D01*
X-11259945Y12184861D01*
X-11259660Y12181968D01*
X-11258674Y12179587D01*
X-11256031Y12168625D01*
X-11208412Y12031720D01*
X-11200188Y12013925D01*
X-11174243Y11984783D01*
X-11139120Y11967788D01*
X-11100167Y11965528D01*
X-11063315Y11978346D01*
X-11034173Y12004292D01*
X-11017178Y12039414D01*
X-11014918Y12078367D01*
X-11019512Y12097424D01*
X-11061581Y12218373D01*
X-11061581Y12417219D01*
X-11029630Y12485117D01*
X-11001154Y12517153D01*
X-10936812Y12557367D01*
X-10887910Y12563480D01*
X-10832783Y12542807D01*
X-10812634Y12525176D01*
X-10779240Y12462563D01*
X-10734600Y12289585D01*
X-10733617Y12286897D01*
X-10733493Y12285631D01*
X-10730533Y12278465D01*
X-10727865Y12271174D01*
X-10727100Y12270158D01*
X-10726007Y12267513D01*
X-10678388Y12178228D01*
X-10670300Y12166098D01*
X-10669421Y12164322D01*
X-10668365Y12163197D01*
X-10667512Y12161918D01*
X-10665988Y12160665D01*
X-10656004Y12150030D01*
X-10608385Y12108363D01*
X-10596729Y12100029D01*
X-10595238Y12098636D01*
X-10593775Y12097917D01*
X-10592438Y12096961D01*
X-10590494Y12096304D01*
X-10577646Y12089987D01*
X-10482408Y12054273D01*
X-10463467Y12049222D01*
X-10458898Y12049378D01*
X-10454489Y12048165D01*
X-10434892Y12048678D01*
X-10339654Y12060583D01*
X-10320534Y12064909D01*
X-10318701Y12065952D01*
X-10316620Y12066300D01*
X-10299059Y12075011D01*
X-10203820Y12134534D01*
X-10198587Y12138569D01*
X-10196476Y12139592D01*
X-10192535Y12143235D01*
X-10188295Y12146503D01*
X-10186937Y12148409D01*
X-10182079Y12152897D01*
X-10134460Y12206469D01*
X-10130513Y12211901D01*
X-10128763Y12213492D01*
X-10126046Y12218046D01*
X-10122934Y12222327D01*
X-10122161Y12224558D01*
X-10118718Y12230326D01*
X-10071099Y12331516D01*
X-10064530Y12349987D01*
X-10064418Y12352378D01*
X-10063502Y12354587D01*
X-10061581Y12374096D01*
X-10061581Y12612192D01*
X-10062687Y12623416D01*
X-10062537Y12625987D01*
X-10063218Y12628809D01*
X-10063502Y12631701D01*
X-10064489Y12634083D01*
X-10067131Y12645044D01*
X-10114750Y12781948D01*
X-10122974Y12799743D01*
X-10148920Y12828885D01*
X-10184042Y12845880D01*
X-10222995Y12848140D01*
X-10259847Y12835322D01*
X-10288989Y12809376D01*
X-10305984Y12774254D01*
X-10308244Y12735301D01*
X-10303650Y12716244D01*
X-10261581Y12595297D01*
X-10261581Y12396451D01*
X-10293534Y12328552D01*
X-10322013Y12296514D01*
X-10386350Y12256303D01*
X-10435254Y12250190D01*
X-10490381Y12270863D01*
X-10510531Y12288494D01*
X-10543924Y12351106D01*
X-10588563Y12524084D01*
X-10589547Y12526773D01*
X-10589670Y12528037D01*
X-10592632Y12535205D01*
X-10595298Y12542494D01*
X-10596063Y12543510D01*
X-10597155Y12546154D01*
X-10644775Y12635441D01*
X-10652867Y12647576D01*
X-10653742Y12649347D01*
X-10654795Y12650469D01*
X-10655650Y12651751D01*
X-10657179Y12653009D01*
X-10667159Y12663639D01*
X-10714778Y12705306D01*
X-10726435Y12713641D01*
X-10727925Y12715033D01*
X-10729389Y12715753D01*
X-10730725Y12716708D01*
X-10732670Y12717366D01*
X-10745517Y12723682D01*
X-10840755Y12759396D01*
X-10859696Y12764447D01*
X-10864266Y12764292D01*
X-10868674Y12765504D01*
X-10888271Y12764991D01*
X-10983509Y12753086D01*
X-11002629Y12748760D01*
X-11004465Y12747717D01*
X-11006544Y12747368D01*
X-11024105Y12738658D01*
X-11119343Y12679134D01*
X-11124578Y12675099D01*
X-11126687Y12674076D01*
X-11130625Y12670437D01*
X-11134869Y12667165D01*
X-11136230Y12665258D01*
X-11141084Y12660771D01*
X-11188703Y12607200D01*
X-11192652Y12601768D01*
X-11194399Y12600177D01*
X-11197115Y12595626D01*
X-11200228Y12591342D01*
X-11201002Y12589112D01*
X-11204444Y12583343D01*
X-11252063Y12482151D01*
X-11258632Y12463681D01*
X-11258745Y12461291D01*
X-11259660Y12459081D01*
X-11261581Y12439572D01*
X-11372692Y12439572D01*
X-11372692Y12959251D01*
X-9950470Y12959251D01*
X-9950470Y4002529D01*
G37*
D11*
X-4621510Y-10277866D02*
X-4597700Y-10254057D01*
X-4597700Y-10254057D02*
X-4573891Y-10182628D01*
X-4573891Y-10182628D02*
X-4573891Y-10135009D01*
X-4573891Y-10135009D02*
X-4597700Y-10063581D01*
X-4597700Y-10063581D02*
X-4645320Y-10015962D01*
X-4645320Y-10015962D02*
X-4692939Y-9992152D01*
X-4692939Y-9992152D02*
X-4788177Y-9968343D01*
X-4788177Y-9968343D02*
X-4859605Y-9968343D01*
X-4859605Y-9968343D02*
X-4954843Y-9992152D01*
X-4954843Y-9992152D02*
X-5002462Y-10015962D01*
X-5002462Y-10015962D02*
X-5050081Y-10063581D01*
X-5050081Y-10063581D02*
X-5073891Y-10135009D01*
X-5073891Y-10135009D02*
X-5073891Y-10182628D01*
X-5073891Y-10182628D02*
X-5050081Y-10254057D01*
X-5050081Y-10254057D02*
X-5026272Y-10277866D01*
X-5073891Y-10444533D02*
X-5073891Y-10754057D01*
X-5073891Y-10754057D02*
X-4883415Y-10587390D01*
X-4883415Y-10587390D02*
X-4883415Y-10658819D01*
X-4883415Y-10658819D02*
X-4859605Y-10706438D01*
X-4859605Y-10706438D02*
X-4835796Y-10730247D01*
X-4835796Y-10730247D02*
X-4788177Y-10754057D01*
X-4788177Y-10754057D02*
X-4669129Y-10754057D01*
X-4669129Y-10754057D02*
X-4621510Y-10730247D01*
X-4621510Y-10730247D02*
X-4597700Y-10706438D01*
X-4597700Y-10706438D02*
X-4573891Y-10658819D01*
X-4573891Y-10658819D02*
X-4573891Y-10515962D01*
X-4573891Y-10515962D02*
X-4597700Y-10468343D01*
X-4597700Y-10468343D02*
X-4621510Y-10444533D01*
X-4907224Y-11627910D02*
X-4573891Y-11586244D01*
X-5097700Y-11532672D02*
X-4740558Y-11368982D01*
X-4740558Y-11368982D02*
X-4740558Y-11678506D01*
X-4621510Y-11854100D02*
X-4597700Y-11874934D01*
X-4597700Y-11874934D02*
X-4573891Y-11848148D01*
X-4573891Y-11848148D02*
X-4597700Y-11827315D01*
X-4597700Y-11827315D02*
X-4621510Y-11854100D01*
X-4621510Y-11854100D02*
X-4573891Y-11848148D01*
X-5073891Y-12101124D02*
X-5073891Y-12434457D01*
X-5073891Y-12434457D02*
X-4573891Y-12157672D01*
X-4907224Y-12818385D02*
X-4573891Y-12776719D01*
X-4907224Y-12604100D02*
X-4645320Y-12571362D01*
X-4645320Y-12571362D02*
X-4597700Y-12589219D01*
X-4597700Y-12589219D02*
X-4573891Y-12633862D01*
X-4573891Y-12633862D02*
X-4573891Y-12705290D01*
X-4573891Y-12705290D02*
X-4597700Y-12755885D01*
X-4597700Y-12755885D02*
X-4621510Y-12782671D01*
X-4835796Y-13214219D02*
X-4835796Y-13047552D01*
X-4573891Y-13014814D02*
X-5073891Y-13077314D01*
X-5073891Y-13077314D02*
X-5073891Y-13315409D01*
X-7002667Y-1748109D02*
X-6836001Y-1510014D01*
X-6716953Y-1748109D02*
X-6716953Y-1248109D01*
X-6716953Y-1248109D02*
X-6907429Y-1248109D01*
X-6907429Y-1248109D02*
X-6955048Y-1271919D01*
X-6955048Y-1271919D02*
X-6978858Y-1295728D01*
X-6978858Y-1295728D02*
X-7002667Y-1343347D01*
X-7002667Y-1343347D02*
X-7002667Y-1414776D01*
X-7002667Y-1414776D02*
X-6978858Y-1462395D01*
X-6978858Y-1462395D02*
X-6955048Y-1486204D01*
X-6955048Y-1486204D02*
X-6907429Y-1510014D01*
X-6907429Y-1510014D02*
X-6716953Y-1510014D01*
X-7169334Y-1248109D02*
X-7478858Y-1248109D01*
X-7478858Y-1248109D02*
X-7312191Y-1438585D01*
X-7312191Y-1438585D02*
X-7383620Y-1438585D01*
X-7383620Y-1438585D02*
X-7431239Y-1462395D01*
X-7431239Y-1462395D02*
X-7455048Y-1486204D01*
X-7455048Y-1486204D02*
X-7478858Y-1533823D01*
X-7478858Y-1533823D02*
X-7478858Y-1652871D01*
X-7478858Y-1652871D02*
X-7455048Y-1700490D01*
X-7455048Y-1700490D02*
X-7431239Y-1724300D01*
X-7431239Y-1724300D02*
X-7383620Y-1748109D01*
X-7383620Y-1748109D02*
X-7240763Y-1748109D01*
X-7240763Y-1748109D02*
X-7193144Y-1724300D01*
X-7193144Y-1724300D02*
X-7169334Y-1700490D01*
X-8242306Y-1722709D02*
X-7956591Y-1722709D01*
X-8099449Y-1722709D02*
X-8161949Y-1222709D01*
X-8161949Y-1222709D02*
X-8105401Y-1294138D01*
X-8105401Y-1294138D02*
X-8051829Y-1341757D01*
X-8051829Y-1341757D02*
X-8001234Y-1365566D01*
X-8757186Y-1222709D02*
X-8519091Y-1222709D01*
X-8519091Y-1222709D02*
X-8465519Y-1460804D01*
X-8465519Y-1460804D02*
X-8492305Y-1436995D01*
X-8492305Y-1436995D02*
X-8542900Y-1413185D01*
X-8542900Y-1413185D02*
X-8661948Y-1413185D01*
X-8661948Y-1413185D02*
X-8706591Y-1436995D01*
X-8706591Y-1436995D02*
X-8727424Y-1460804D01*
X-8727424Y-1460804D02*
X-8745281Y-1508423D01*
X-8745281Y-1508423D02*
X-8730400Y-1627471D01*
X-8730400Y-1627471D02*
X-8700639Y-1675090D01*
X-8700639Y-1675090D02*
X-8673853Y-1698900D01*
X-8673853Y-1698900D02*
X-8623258Y-1722709D01*
X-8623258Y-1722709D02*
X-8504210Y-1722709D01*
X-8504210Y-1722709D02*
X-8459567Y-1698900D01*
X-8459567Y-1698900D02*
X-8438734Y-1675090D01*
X-8932781Y-1722709D02*
X-8995281Y-1222709D01*
X-9004209Y-1532233D02*
X-9123257Y-1722709D01*
X-9164924Y-1389376D02*
X-8950638Y-1579852D01*
X7424737Y-11088886D02*
X7458408Y-11088886D01*
X7458408Y-11088886D02*
X7525752Y-11055214D01*
X7525752Y-11055214D02*
X7559424Y-11021542D01*
X7559424Y-11021542D02*
X7593095Y-10954199D01*
X7593095Y-10954199D02*
X7593095Y-10886855D01*
X7593095Y-10886855D02*
X7576260Y-10836348D01*
X7576260Y-10836348D02*
X7525752Y-10752168D01*
X7525752Y-10752168D02*
X7475244Y-10701661D01*
X7475244Y-10701661D02*
X7391065Y-10651153D01*
X7391065Y-10651153D02*
X7340557Y-10634317D01*
X7340557Y-10634317D02*
X7273214Y-10634317D01*
X7273214Y-10634317D02*
X7205870Y-10667989D01*
X7205870Y-10667989D02*
X7172199Y-10701661D01*
X7172199Y-10701661D02*
X7138527Y-10769004D01*
X7138527Y-10769004D02*
X7138527Y-10802676D01*
X7121691Y-11459275D02*
X7323721Y-11257245D01*
X7222706Y-11358260D02*
X6869153Y-11004707D01*
X6869153Y-11004707D02*
X6953332Y-11021542D01*
X6953332Y-11021542D02*
X7020676Y-11021542D01*
X7020676Y-11021542D02*
X7071183Y-11004707D01*
X6233537Y-11707666D02*
X6197761Y-11709770D01*
X6197761Y-11709770D02*
X6145149Y-11728711D01*
X6145149Y-11728711D02*
X6060969Y-11812890D01*
X6060969Y-11812890D02*
X6046238Y-11861293D01*
X6046238Y-11861293D02*
X6048342Y-11892861D01*
X6048342Y-11892861D02*
X6069387Y-11939159D01*
X6069387Y-11939159D02*
X6107268Y-11968622D01*
X6107268Y-11968622D02*
X6180925Y-11995980D01*
X6180925Y-11995980D02*
X6610240Y-11970727D01*
X6610240Y-11970727D02*
X6391373Y-12189593D01*
X6201970Y-12311653D02*
X6204074Y-12343220D01*
X6204074Y-12343220D02*
X6239851Y-12341115D01*
X6239851Y-12341115D02*
X6237746Y-12309548D01*
X6237746Y-12309548D02*
X6201970Y-12311653D01*
X6201970Y-12311653D02*
X6239851Y-12341115D01*
X5728461Y-12212742D02*
X5692685Y-12214846D01*
X5692685Y-12214846D02*
X5640073Y-12233787D01*
X5640073Y-12233787D02*
X5555893Y-12317966D01*
X5555893Y-12317966D02*
X5541162Y-12366369D01*
X5541162Y-12366369D02*
X5543267Y-12397936D01*
X5543267Y-12397936D02*
X5564311Y-12444235D01*
X5564311Y-12444235D02*
X5602192Y-12473698D01*
X5602192Y-12473698D02*
X5675849Y-12501056D01*
X5675849Y-12501056D02*
X6105164Y-12475802D01*
X6105164Y-12475802D02*
X5886297Y-12694669D01*
X5318087Y-12791475D02*
X5583252Y-12997714D01*
X5469610Y-12639952D02*
X5677954Y-12801997D01*
X5677954Y-12801997D02*
X5698999Y-12848296D01*
X5698999Y-12848296D02*
X5684267Y-12896699D01*
X5684267Y-12896699D02*
X5633760Y-12947206D01*
X5633760Y-12947206D02*
X5581148Y-12966147D01*
X5581148Y-12966147D02*
X5545371Y-12968251D01*
X5088698Y-13121879D02*
X5206549Y-13004028D01*
X5414893Y-13166073D02*
X5017146Y-12856714D01*
X5017146Y-12856714D02*
X4848787Y-13025072D01*
X-4977110Y15333334D02*
X-4953300Y15357143D01*
X-4953300Y15357143D02*
X-4929491Y15428572D01*
X-4929491Y15428572D02*
X-4929491Y15476191D01*
X-4929491Y15476191D02*
X-4953300Y15547619D01*
X-4953300Y15547619D02*
X-5000920Y15595238D01*
X-5000920Y15595238D02*
X-5048539Y15619048D01*
X-5048539Y15619048D02*
X-5143777Y15642857D01*
X-5143777Y15642857D02*
X-5215205Y15642857D01*
X-5215205Y15642857D02*
X-5310443Y15619048D01*
X-5310443Y15619048D02*
X-5358062Y15595238D01*
X-5358062Y15595238D02*
X-5405681Y15547619D01*
X-5405681Y15547619D02*
X-5429491Y15476191D01*
X-5429491Y15476191D02*
X-5429491Y15428572D01*
X-5429491Y15428572D02*
X-5405681Y15357143D01*
X-5405681Y15357143D02*
X-5381872Y15333334D01*
X-5429491Y14904762D02*
X-5429491Y15000000D01*
X-5429491Y15000000D02*
X-5405681Y15047619D01*
X-5405681Y15047619D02*
X-5381872Y15071429D01*
X-5381872Y15071429D02*
X-5310443Y15119048D01*
X-5310443Y15119048D02*
X-5215205Y15142857D01*
X-5215205Y15142857D02*
X-5024729Y15142857D01*
X-5024729Y15142857D02*
X-4977110Y15119048D01*
X-4977110Y15119048D02*
X-4953300Y15095238D01*
X-4953300Y15095238D02*
X-4929491Y15047619D01*
X-4929491Y15047619D02*
X-4929491Y14952381D01*
X-4929491Y14952381D02*
X-4953300Y14904762D01*
X-4953300Y14904762D02*
X-4977110Y14880953D01*
X-4977110Y14880953D02*
X-5024729Y14857143D01*
X-5024729Y14857143D02*
X-5143777Y14857143D01*
X-5143777Y14857143D02*
X-5191396Y14880953D01*
X-5191396Y14880953D02*
X-5215205Y14904762D01*
X-5215205Y14904762D02*
X-5239015Y14952381D01*
X-5239015Y14952381D02*
X-5239015Y15047619D01*
X-5239015Y15047619D02*
X-5215205Y15095238D01*
X-5215205Y15095238D02*
X-5191396Y15119048D01*
X-5191396Y15119048D02*
X-5143777Y15142857D01*
X-5262824Y13930947D02*
X-4929491Y13972613D01*
X-5453300Y14026185D02*
X-5096158Y14189875D01*
X-5096158Y14189875D02*
X-5096158Y13880351D01*
X-4977110Y13704757D02*
X-4953300Y13683923D01*
X-4953300Y13683923D02*
X-4929491Y13710709D01*
X-4929491Y13710709D02*
X-4953300Y13731542D01*
X-4953300Y13731542D02*
X-4977110Y13704757D01*
X-4977110Y13704757D02*
X-4929491Y13710709D01*
X-5429491Y13457733D02*
X-5429491Y13124400D01*
X-5429491Y13124400D02*
X-4929491Y13401185D01*
X-5262824Y12740472D02*
X-4929491Y12782138D01*
X-5262824Y12954757D02*
X-5000920Y12987495D01*
X-5000920Y12987495D02*
X-4953300Y12969638D01*
X-4953300Y12969638D02*
X-4929491Y12924995D01*
X-4929491Y12924995D02*
X-4929491Y12853567D01*
X-4929491Y12853567D02*
X-4953300Y12802972D01*
X-4953300Y12802972D02*
X-4977110Y12776186D01*
X-5191396Y12344638D02*
X-5191396Y12511305D01*
X-4929491Y12544043D02*
X-5429491Y12481543D01*
X-5429491Y12481543D02*
X-5429491Y12243448D01*
X1776109Y15333334D02*
X1538014Y15500000D01*
X1776109Y15619048D02*
X1276109Y15619048D01*
X1276109Y15619048D02*
X1276109Y15428572D01*
X1276109Y15428572D02*
X1299919Y15380953D01*
X1299919Y15380953D02*
X1323728Y15357143D01*
X1323728Y15357143D02*
X1371347Y15333334D01*
X1371347Y15333334D02*
X1442776Y15333334D01*
X1442776Y15333334D02*
X1490395Y15357143D01*
X1490395Y15357143D02*
X1514204Y15380953D01*
X1514204Y15380953D02*
X1538014Y15428572D01*
X1538014Y15428572D02*
X1538014Y15619048D01*
X1276109Y14880953D02*
X1276109Y15119048D01*
X1276109Y15119048D02*
X1514204Y15142857D01*
X1514204Y15142857D02*
X1490395Y15119048D01*
X1490395Y15119048D02*
X1466585Y15071429D01*
X1466585Y15071429D02*
X1466585Y14952381D01*
X1466585Y14952381D02*
X1490395Y14904762D01*
X1490395Y14904762D02*
X1514204Y14880953D01*
X1514204Y14880953D02*
X1561823Y14857143D01*
X1561823Y14857143D02*
X1680871Y14857143D01*
X1680871Y14857143D02*
X1728490Y14880953D01*
X1728490Y14880953D02*
X1752300Y14904762D01*
X1752300Y14904762D02*
X1776109Y14952381D01*
X1776109Y14952381D02*
X1776109Y15071429D01*
X1776109Y15071429D02*
X1752300Y15119048D01*
X1752300Y15119048D02*
X1728490Y15142857D01*
X1776109Y13924995D02*
X1776109Y14210710D01*
X1776109Y14067852D02*
X1276109Y14005352D01*
X1276109Y14005352D02*
X1347538Y14061900D01*
X1347538Y14061900D02*
X1395157Y14115471D01*
X1395157Y14115471D02*
X1418966Y14166067D01*
X1276109Y13552972D02*
X1276109Y13505353D01*
X1276109Y13505353D02*
X1299919Y13460710D01*
X1299919Y13460710D02*
X1323728Y13439877D01*
X1323728Y13439877D02*
X1371347Y13422020D01*
X1371347Y13422020D02*
X1466585Y13410115D01*
X1466585Y13410115D02*
X1585633Y13424996D01*
X1585633Y13424996D02*
X1680871Y13460710D01*
X1680871Y13460710D02*
X1728490Y13490472D01*
X1728490Y13490472D02*
X1752300Y13517258D01*
X1752300Y13517258D02*
X1776109Y13567853D01*
X1776109Y13567853D02*
X1776109Y13615472D01*
X1776109Y13615472D02*
X1752300Y13660115D01*
X1752300Y13660115D02*
X1728490Y13680948D01*
X1728490Y13680948D02*
X1680871Y13698805D01*
X1680871Y13698805D02*
X1585633Y13710710D01*
X1585633Y13710710D02*
X1466585Y13695829D01*
X1466585Y13695829D02*
X1371347Y13660115D01*
X1371347Y13660115D02*
X1323728Y13630353D01*
X1323728Y13630353D02*
X1299919Y13603567D01*
X1299919Y13603567D02*
X1276109Y13552972D01*
X1776109Y13234520D02*
X1276109Y13172020D01*
X1585633Y13163091D02*
X1776109Y13044044D01*
X1442776Y13002377D02*
X1633252Y13216663D01*
D12*
X4932819Y2683334D02*
X5647104Y2683334D01*
X5647104Y2683334D02*
X5789961Y2730953D01*
X5789961Y2730953D02*
X5885200Y2826191D01*
X5885200Y2826191D02*
X5932819Y2969048D01*
X5932819Y2969048D02*
X5932819Y3064286D01*
X5932819Y1683334D02*
X5932819Y2254762D01*
X5932819Y1969048D02*
X4932819Y1969048D01*
X4932819Y1969048D02*
X5075676Y2064286D01*
X5075676Y2064286D02*
X5170914Y2159524D01*
X5170914Y2159524D02*
X5218533Y2254762D01*
D11*
X2080909Y-9614490D02*
X1842814Y-9477585D01*
X2080909Y-9328776D02*
X1580909Y-9391276D01*
X1580909Y-9391276D02*
X1580909Y-9581752D01*
X1580909Y-9581752D02*
X1604719Y-9626395D01*
X1604719Y-9626395D02*
X1628528Y-9647228D01*
X1628528Y-9647228D02*
X1676147Y-9665085D01*
X1676147Y-9665085D02*
X1747576Y-9656157D01*
X1747576Y-9656157D02*
X1795195Y-9626395D01*
X1795195Y-9626395D02*
X1819004Y-9599609D01*
X1819004Y-9599609D02*
X1842814Y-9549014D01*
X1842814Y-9549014D02*
X1842814Y-9358538D01*
X1747576Y-10084728D02*
X2080909Y-10043062D01*
X1557100Y-9989490D02*
X1914242Y-9825800D01*
X1914242Y-9825800D02*
X1914242Y-10135324D01*
X1580909Y-10727162D02*
X1580909Y-11036686D01*
X1580909Y-11036686D02*
X1771385Y-10846210D01*
X1771385Y-10846210D02*
X1771385Y-10917638D01*
X1771385Y-10917638D02*
X1795195Y-10962281D01*
X1795195Y-10962281D02*
X1819004Y-10983114D01*
X1819004Y-10983114D02*
X1866623Y-11000971D01*
X1866623Y-11000971D02*
X1985671Y-10986090D01*
X1985671Y-10986090D02*
X2033290Y-10956329D01*
X2033290Y-10956329D02*
X2057100Y-10929543D01*
X2057100Y-10929543D02*
X2080909Y-10878948D01*
X2080909Y-10878948D02*
X2080909Y-10736090D01*
X2080909Y-10736090D02*
X2057100Y-10691448D01*
X2057100Y-10691448D02*
X2033290Y-10670614D01*
X2080909Y-11212280D02*
X2080909Y-11307519D01*
X2080909Y-11307519D02*
X2057100Y-11358114D01*
X2057100Y-11358114D02*
X2033290Y-11384900D01*
X2033290Y-11384900D02*
X1961861Y-11441447D01*
X1961861Y-11441447D02*
X1866623Y-11477161D01*
X1866623Y-11477161D02*
X1676147Y-11500971D01*
X1676147Y-11500971D02*
X1628528Y-11483114D01*
X1628528Y-11483114D02*
X1604719Y-11462280D01*
X1604719Y-11462280D02*
X1580909Y-11417638D01*
X1580909Y-11417638D02*
X1580909Y-11322400D01*
X1580909Y-11322400D02*
X1604719Y-11271804D01*
X1604719Y-11271804D02*
X1628528Y-11245019D01*
X1628528Y-11245019D02*
X1676147Y-11215257D01*
X1676147Y-11215257D02*
X1795195Y-11200376D01*
X1795195Y-11200376D02*
X1842814Y-11218233D01*
X1842814Y-11218233D02*
X1866623Y-11239066D01*
X1866623Y-11239066D02*
X1890433Y-11283709D01*
X1890433Y-11283709D02*
X1890433Y-11378947D01*
X1890433Y-11378947D02*
X1866623Y-11429542D01*
X1866623Y-11429542D02*
X1842814Y-11456328D01*
X1842814Y-11456328D02*
X1795195Y-11486090D01*
X-7002667Y-478109D02*
X-6836001Y-240014D01*
X-6716953Y-478109D02*
X-6716953Y21891D01*
X-6716953Y21891D02*
X-6907429Y21891D01*
X-6907429Y21891D02*
X-6955048Y-1919D01*
X-6955048Y-1919D02*
X-6978858Y-25728D01*
X-6978858Y-25728D02*
X-7002667Y-73347D01*
X-7002667Y-73347D02*
X-7002667Y-144776D01*
X-7002667Y-144776D02*
X-6978858Y-192395D01*
X-6978858Y-192395D02*
X-6955048Y-216204D01*
X-6955048Y-216204D02*
X-6907429Y-240014D01*
X-6907429Y-240014D02*
X-6716953Y-240014D01*
X-7193144Y-25728D02*
X-7216953Y-1919D01*
X-7216953Y-1919D02*
X-7264572Y21891D01*
X-7264572Y21891D02*
X-7383620Y21891D01*
X-7383620Y21891D02*
X-7431239Y-1919D01*
X-7431239Y-1919D02*
X-7455048Y-25728D01*
X-7455048Y-25728D02*
X-7478858Y-73347D01*
X-7478858Y-73347D02*
X-7478858Y-120966D01*
X-7478858Y-120966D02*
X-7455048Y-192395D01*
X-7455048Y-192395D02*
X-7169334Y-478109D01*
X-7169334Y-478109D02*
X-7478858Y-478109D01*
X-8258606Y-452709D02*
X-7972891Y-452709D01*
X-8115749Y-452709D02*
X-8178249Y47291D01*
X-8178249Y47291D02*
X-8121701Y-24138D01*
X-8121701Y-24138D02*
X-8068129Y-71757D01*
X-8068129Y-71757D02*
X-8017534Y-95566D01*
X-8630629Y47291D02*
X-8678248Y47291D01*
X-8678248Y47291D02*
X-8722891Y23481D01*
X-8722891Y23481D02*
X-8743724Y-328D01*
X-8743724Y-328D02*
X-8761581Y-47947D01*
X-8761581Y-47947D02*
X-8773486Y-143185D01*
X-8773486Y-143185D02*
X-8758605Y-262233D01*
X-8758605Y-262233D02*
X-8722891Y-357471D01*
X-8722891Y-357471D02*
X-8693129Y-405090D01*
X-8693129Y-405090D02*
X-8666343Y-428900D01*
X-8666343Y-428900D02*
X-8615748Y-452709D01*
X-8615748Y-452709D02*
X-8568129Y-452709D01*
X-8568129Y-452709D02*
X-8523486Y-428900D01*
X-8523486Y-428900D02*
X-8502653Y-405090D01*
X-8502653Y-405090D02*
X-8484796Y-357471D01*
X-8484796Y-357471D02*
X-8472891Y-262233D01*
X-8472891Y-262233D02*
X-8487772Y-143185D01*
X-8487772Y-143185D02*
X-8523486Y-47947D01*
X-8523486Y-47947D02*
X-8553248Y-328D01*
X-8553248Y-328D02*
X-8580034Y23481D01*
X-8580034Y23481D02*
X-8630629Y47291D01*
X-8949081Y-452709D02*
X-9011581Y47291D01*
X-9020509Y-262233D02*
X-9139557Y-452709D01*
X-9181224Y-119376D02*
X-8966938Y-309852D01*
D13*
X-6173000Y-6477000D02*
X-4522000Y-6477000D01*
X-4522000Y-4826000D01*
X-6173000Y-4826000D01*
X-6173000Y-6477000D01*
X-4123753Y-8909953D02*
X-1853753Y-8909953D01*
X-4123753Y-12969953D02*
X-4123753Y-8909953D01*
X-1853753Y-8909953D02*
X-1853753Y-12969953D01*
X-8737000Y-2054300D02*
X-6467000Y-2054300D01*
X-8737000Y-6114300D02*
X-8737000Y-2054300D01*
X-6467000Y-2054300D02*
X-6467000Y-6114300D01*
X2934063Y-11263079D02*
X5804916Y-8392225D01*
X5804916Y-8392225D02*
X7410049Y-9997358D01*
X7410049Y-9997358D02*
X4539195Y-12868211D01*
X-4411000Y16163700D02*
X-2141000Y16163700D01*
X-4411000Y12103700D02*
X-4411000Y16163700D01*
X-2141000Y16163700D02*
X-2141000Y12103700D01*
X-1377300Y16163700D02*
X892700Y16163700D01*
X-1377300Y12103700D02*
X-1377300Y16163700D01*
X892700Y16163700D02*
X892700Y12103700D01*
X8038000Y4050000D02*
X8438000Y3850000D01*
X8038000Y3650000D02*
X8038000Y4050000D01*
X8438000Y3850000D02*
X8038000Y3650000D01*
D11*
X11968000Y6450000D02*
X11618000Y6450000D01*
X11968000Y6100000D02*
X11968000Y6450000D01*
X11968000Y-1400000D02*
X11968000Y-1750000D01*
X11968000Y-1750000D02*
X11618000Y-1750000D01*
D13*
X-1123753Y-8909953D02*
X1146247Y-8909953D01*
X-1123753Y-12969953D02*
X-1123753Y-8909953D01*
X1146247Y-8909953D02*
X1146247Y-12969953D01*
X-8737000Y375400D02*
X-8737000Y4435400D01*
X-6467000Y4435400D02*
X-6467000Y375400D01*
X-6467000Y375400D02*
X-8737000Y375400D01*
M02*
