G04 #@! TF.GenerationSoftware,KiCad,Pcbnew,9.0.2*
G04 #@! TF.CreationDate,2026-01-21T13:25:44+08:00*
G04 #@! TF.ProjectId,pmw3360_fsr,706d7733-3336-4305-9f66-73722e6b6963,rev?*
G04 #@! TF.SameCoordinates,PX4d3f640PY69db9c0*
G04 #@! TF.FileFunction,Legend,Top*
G04 #@! TF.FilePolarity,Positive*
%FSLAX46Y46*%
G04 Gerber Fmt 4.6, Leading zero omitted, Abs format (unit mm)*
G04 Created by KiCad (PCBNEW 9.0.2) date 2026-01-21 13:25:44*
%MOMM*%
%LPD*%
G01*
G04 APERTURE LIST*
%ADD10C,0.120000*%
%ADD11C,0.200000*%
%ADD12C,0.100000*%
G04 APERTURE END LIST*
D10*
X-4800000Y16131000D02*
X4852000Y16131000D01*
X4852000Y13845000D01*
X-4800000Y13845000D01*
X-4800000Y16131000D01*
D11*
X11016779Y12135255D02*
G75*
G02*
X6616779Y12135255I-2200000J0D01*
G01*
X6616779Y12135255D02*
G75*
G02*
X11016779Y12135255I2200000J0D01*
G01*
X-6616779Y-12135255D02*
G75*
G02*
X-11016779Y-12135255I-2200000J0D01*
G01*
X-11016779Y-12135255D02*
G75*
G02*
X-6616779Y-12135255I2200000J0D01*
G01*
G36*
X-2872731Y15199406D02*
G01*
X-2855101Y15179258D01*
X-2834428Y15124129D01*
X-2864350Y14884751D01*
X-2904562Y14820411D01*
X-2936599Y14791934D01*
X-3004497Y14759981D01*
X-3147620Y14759981D01*
X-3154145Y14763461D01*
X-3098078Y15211992D01*
X-3066932Y15226648D01*
X-2923810Y15226648D01*
X-2872731Y15199406D01*
G37*
G36*
X-3783446Y15532740D02*
G01*
X-3732334Y15474327D01*
X-3713875Y15326649D01*
X-3752530Y15017404D01*
X-3811132Y14861133D01*
X-3888980Y14791934D01*
X-3956878Y14759981D01*
X-4100000Y14759981D01*
X-4151080Y14787223D01*
X-4202191Y14845637D01*
X-4220651Y14993316D01*
X-4181995Y15302563D01*
X-4123394Y15458832D01*
X-4045547Y15528029D01*
X-3977646Y15559981D01*
X-3834524Y15559981D01*
X-3783446Y15532740D01*
G37*
G36*
X-116209Y14774639D02*
G01*
X-147354Y14759981D01*
X-338096Y14759981D01*
X-372006Y14778067D01*
X-385812Y14814883D01*
X-379700Y14863784D01*
X-347463Y14915363D01*
X-293122Y14940934D01*
X-95421Y14940934D01*
X-116209Y14774639D01*
G37*
G36*
X3416049Y15223169D02*
G01*
X3359982Y14774639D01*
X3328837Y14759981D01*
X3185715Y14759981D01*
X3134635Y14787223D01*
X3117004Y14807374D01*
X3096331Y14862502D01*
X3126253Y15101879D01*
X3166466Y15166219D01*
X3198503Y15194697D01*
X3266402Y15226648D01*
X3409524Y15226648D01*
X3416049Y15223169D01*
G37*
G36*
X4300577Y15208563D02*
G01*
X4314014Y15172732D01*
X4033019Y15117904D01*
X4036968Y15149500D01*
X4069204Y15201077D01*
X4123545Y15226648D01*
X4266667Y15226648D01*
X4300577Y15208563D01*
G37*
G36*
X4627519Y14115796D02*
G01*
X-4532281Y14115796D01*
X-4532281Y14319455D01*
X-3409265Y14319455D01*
X-3398920Y14281833D01*
X-3374965Y14251034D01*
X-3341048Y14231746D01*
X-3302331Y14226907D01*
X-3264709Y14237252D01*
X-3233910Y14261207D01*
X-3214622Y14295124D01*
X-3210296Y14314245D01*
X-3179495Y14560658D01*
X-3172620Y14559981D01*
X-2982143Y14559981D01*
X-2962634Y14561902D01*
X-2960425Y14562818D01*
X-2958033Y14562930D01*
X-2939563Y14569499D01*
X-2838373Y14617118D01*
X-2832605Y14620561D01*
X-2830374Y14621334D01*
X-2826091Y14624448D01*
X-2821539Y14627163D01*
X-2819949Y14628911D01*
X-2814516Y14632859D01*
X-2760944Y14680479D01*
X-2756457Y14685336D01*
X-2754550Y14686695D01*
X-2751280Y14690938D01*
X-2747640Y14694876D01*
X-2746618Y14696985D01*
X-2742581Y14702221D01*
X-2683058Y14797459D01*
X-2674347Y14815021D01*
X-2673999Y14817101D01*
X-2672956Y14818934D01*
X-2668630Y14838054D01*
X-2632915Y15123769D01*
X-2632402Y15143365D01*
X-2633615Y15147774D01*
X-2633459Y15152344D01*
X-2638510Y15171285D01*
X-2674225Y15266523D01*
X-2680544Y15279375D01*
X-2681199Y15281313D01*
X-2682152Y15282645D01*
X-2682874Y15284115D01*
X-2684272Y15285611D01*
X-2692600Y15297260D01*
X-2734266Y15344879D01*
X-2735627Y15346157D01*
X-2520698Y15346157D01*
X-2520698Y15307139D01*
X-2505766Y15271091D01*
X-2478176Y15243501D01*
X-2442128Y15228569D01*
X-2422619Y15226648D01*
X-2393041Y15226648D01*
X-2444466Y14815242D01*
X-2444979Y14795646D01*
X-2443767Y14791238D01*
X-2443922Y14786669D01*
X-2438871Y14767727D01*
X-2403157Y14672488D01*
X-2398436Y14662885D01*
X-2397673Y14660379D01*
X-2396506Y14658960D01*
X-2394508Y14654896D01*
X-2383319Y14642921D01*
X-2372893Y14630240D01*
X-2369122Y14627726D01*
X-2367870Y14626386D01*
X-2365492Y14625305D01*
X-2356583Y14619365D01*
X-2267296Y14571745D01*
X-2249179Y14564260D01*
X-2244288Y14563783D01*
X-2239747Y14561902D01*
X-2220238Y14559981D01*
X-2125000Y14559981D01*
X-2105491Y14561902D01*
X-2069443Y14576834D01*
X-2041853Y14604424D01*
X-2026921Y14640472D01*
X-2026921Y14652788D01*
X-1891408Y14652788D01*
X-1881063Y14615166D01*
X-1857108Y14584367D01*
X-1823191Y14565079D01*
X-1784474Y14560240D01*
X-1746852Y14570585D01*
X-1716053Y14594540D01*
X-1696765Y14628457D01*
X-1692439Y14647577D01*
X-1667978Y14843265D01*
X-1439027Y14843265D01*
X-1437815Y14838857D01*
X-1437970Y14834287D01*
X-1432919Y14815346D01*
X-1397205Y14720108D01*
X-1390888Y14707259D01*
X-1390231Y14705317D01*
X-1389278Y14703983D01*
X-1388556Y14702516D01*
X-1387162Y14701024D01*
X-1378830Y14689370D01*
X-1337163Y14641750D01*
X-1326534Y14631773D01*
X-1325274Y14630240D01*
X-1323989Y14629383D01*
X-1322870Y14628333D01*
X-1321105Y14627460D01*
X-1308964Y14619365D01*
X-1219677Y14571745D01*
X-1201560Y14564260D01*
X-1196669Y14563783D01*
X-1192128Y14561902D01*
X-1172619Y14559981D01*
X-982143Y14559981D01*
X-962634Y14561902D01*
X-960425Y14562818D01*
X-958033Y14562930D01*
X-939563Y14569499D01*
X-838373Y14617118D01*
X-821539Y14627163D01*
X-795280Y14656023D01*
X-782064Y14692735D01*
X-783902Y14731710D01*
X-800516Y14767014D01*
X-829376Y14793273D01*
X-835968Y14795646D01*
X-587837Y14795646D01*
X-586625Y14791238D01*
X-586780Y14786668D01*
X-581729Y14767726D01*
X-546014Y14672488D01*
X-541292Y14662882D01*
X-540530Y14660380D01*
X-539365Y14658963D01*
X-537365Y14654895D01*
X-526168Y14642912D01*
X-515750Y14630241D01*
X-511978Y14627726D01*
X-510726Y14626386D01*
X-508348Y14625305D01*
X-499440Y14619365D01*
X-410155Y14571746D01*
X-392037Y14564260D01*
X-387146Y14563783D01*
X-382605Y14561902D01*
X-363096Y14559981D01*
X-125000Y14559981D01*
X-105491Y14561902D01*
X-103282Y14562818D01*
X-100890Y14562930D01*
X-82420Y14569499D01*
X-75109Y14572940D01*
X-61286Y14565079D01*
X-22569Y14560240D01*
X15053Y14570585D01*
X45852Y14594540D01*
X65140Y14628457D01*
X69466Y14647578D01*
X87974Y14795646D01*
X364545Y14795646D01*
X365757Y14791238D01*
X365602Y14786669D01*
X370653Y14767727D01*
X406367Y14672488D01*
X411088Y14662885D01*
X411851Y14660379D01*
X413018Y14658960D01*
X415016Y14654896D01*
X426205Y14642921D01*
X436631Y14630240D01*
X440402Y14627726D01*
X441654Y14626386D01*
X444032Y14625305D01*
X452941Y14619365D01*
X542228Y14571745D01*
X560345Y14564260D01*
X599179Y14560471D01*
X636507Y14571832D01*
X666646Y14596612D01*
X685007Y14631040D01*
X688796Y14669874D01*
X680325Y14697707D01*
X1590968Y14697707D01*
X1602328Y14660380D01*
X1627108Y14630241D01*
X1643418Y14619365D01*
X1732703Y14571746D01*
X1750821Y14564260D01*
X1755712Y14563783D01*
X1760253Y14561902D01*
X1779762Y14559981D01*
X1970239Y14559981D01*
X1989748Y14561902D01*
X1991957Y14562818D01*
X1994349Y14562930D01*
X2012819Y14569499D01*
X2114009Y14617118D01*
X2130843Y14627163D01*
X2136916Y14633838D01*
X2144260Y14639075D01*
X2154832Y14652788D01*
X2441926Y14652788D01*
X2452271Y14615166D01*
X2476226Y14584367D01*
X2510143Y14565079D01*
X2548860Y14560240D01*
X2586482Y14570585D01*
X2617281Y14594540D01*
X2636569Y14628457D01*
X2640895Y14647577D01*
X2665356Y14843265D01*
X2894307Y14843265D01*
X2895519Y14838857D01*
X2895364Y14834287D01*
X2900415Y14815346D01*
X2936129Y14720108D01*
X2942446Y14707259D01*
X2943103Y14705317D01*
X2944056Y14703983D01*
X2944778Y14702516D01*
X2946172Y14701024D01*
X2954504Y14689370D01*
X2996171Y14641750D01*
X3006800Y14631773D01*
X3008060Y14630240D01*
X3009345Y14629383D01*
X3010464Y14628333D01*
X3012229Y14627460D01*
X3024370Y14619365D01*
X3113657Y14571745D01*
X3131774Y14564260D01*
X3136665Y14563783D01*
X3141206Y14561902D01*
X3160715Y14559981D01*
X3351191Y14559981D01*
X3370700Y14561902D01*
X3372909Y14562818D01*
X3375301Y14562930D01*
X3393771Y14569499D01*
X3401082Y14572940D01*
X3414905Y14565079D01*
X3453622Y14560240D01*
X3491244Y14570585D01*
X3522043Y14594540D01*
X3541331Y14628457D01*
X3545657Y14647578D01*
X3564166Y14795646D01*
X3793116Y14795646D01*
X3794328Y14791238D01*
X3794173Y14786668D01*
X3799224Y14767726D01*
X3834939Y14672488D01*
X3839661Y14662882D01*
X3840423Y14660380D01*
X3841588Y14658963D01*
X3843588Y14654895D01*
X3854785Y14642912D01*
X3865203Y14630241D01*
X3868975Y14627726D01*
X3870227Y14626386D01*
X3872605Y14625305D01*
X3881513Y14619365D01*
X3970798Y14571746D01*
X3988916Y14564260D01*
X3993807Y14563783D01*
X3998348Y14561902D01*
X4017857Y14559981D01*
X4208334Y14559981D01*
X4227843Y14561902D01*
X4230052Y14562818D01*
X4232444Y14562930D01*
X4250914Y14569499D01*
X4352104Y14617118D01*
X4368938Y14627163D01*
X4395197Y14656023D01*
X4408413Y14692735D01*
X4406575Y14731710D01*
X4389961Y14767014D01*
X4361101Y14793273D01*
X4324389Y14806489D01*
X4285415Y14804651D01*
X4266944Y14798082D01*
X4185980Y14759981D01*
X4042857Y14759981D01*
X4008947Y14778067D01*
X3995141Y14814883D01*
X4006910Y14909038D01*
X4423913Y14990404D01*
X4442693Y14996026D01*
X4445884Y14998142D01*
X4449577Y14999157D01*
X4462049Y15008858D01*
X4475214Y15017585D01*
X4477352Y15020761D01*
X4480376Y15023112D01*
X4488187Y15036849D01*
X4497010Y15049948D01*
X4497770Y15053700D01*
X4499664Y15057029D01*
X4503990Y15076149D01*
X4515895Y15171387D01*
X4516408Y15190984D01*
X4515195Y15195393D01*
X4515351Y15199962D01*
X4510300Y15218903D01*
X4474586Y15314141D01*
X4469864Y15323745D01*
X4469102Y15326250D01*
X4467934Y15327670D01*
X4465937Y15331733D01*
X4454747Y15343709D01*
X4444322Y15356389D01*
X4440550Y15358904D01*
X4439299Y15360243D01*
X4436920Y15361325D01*
X4428012Y15367264D01*
X4338726Y15414883D01*
X4320608Y15422369D01*
X4315716Y15422847D01*
X4311176Y15424727D01*
X4291667Y15426648D01*
X4101191Y15426648D01*
X4081682Y15424727D01*
X4079472Y15423812D01*
X4077082Y15423699D01*
X4058612Y15417130D01*
X3957421Y15369511D01*
X3940586Y15359466D01*
X3934512Y15352792D01*
X3927169Y15347554D01*
X3915200Y15332029D01*
X3855677Y15236790D01*
X3846966Y15219229D01*
X3846617Y15217149D01*
X3845575Y15215315D01*
X3841249Y15196195D01*
X3793629Y14815243D01*
X3793116Y14795646D01*
X3564166Y14795646D01*
X3670657Y15647577D01*
X3671170Y15667174D01*
X3660825Y15704796D01*
X3636870Y15735595D01*
X3602953Y15754883D01*
X3564236Y15759722D01*
X3526614Y15749377D01*
X3495815Y15725422D01*
X3476527Y15691504D01*
X3472201Y15672384D01*
X3441399Y15425971D01*
X3434524Y15426648D01*
X3244048Y15426648D01*
X3224539Y15424727D01*
X3222329Y15423812D01*
X3219939Y15423699D01*
X3201469Y15417130D01*
X3100278Y15369511D01*
X3094509Y15366070D01*
X3092278Y15365295D01*
X3087994Y15362182D01*
X3083443Y15359466D01*
X3081851Y15357718D01*
X3076421Y15353770D01*
X3022849Y15306151D01*
X3018359Y15301294D01*
X3016455Y15299935D01*
X3013186Y15295696D01*
X3009544Y15291754D01*
X3008520Y15289644D01*
X3004486Y15284410D01*
X2944962Y15189172D01*
X2936251Y15171610D01*
X2935902Y15169529D01*
X2934860Y15167695D01*
X2930534Y15148575D01*
X2894820Y14862861D01*
X2894307Y14843265D01*
X2665356Y14843265D01*
X2724229Y15314244D01*
X2724742Y15333841D01*
X2714397Y15371463D01*
X2690442Y15402262D01*
X2656525Y15421550D01*
X2617808Y15426389D01*
X2580186Y15416044D01*
X2549387Y15392089D01*
X2530099Y15358171D01*
X2525773Y15339051D01*
X2442439Y14672385D01*
X2441926Y14652788D01*
X2154832Y14652788D01*
X2156229Y14654600D01*
X2215753Y14749839D01*
X2224464Y14767401D01*
X2224812Y14769483D01*
X2225855Y14771316D01*
X2230181Y14790436D01*
X2236133Y14838056D01*
X2236646Y14857652D01*
X2235433Y14862061D01*
X2235589Y14866629D01*
X2230538Y14885570D01*
X2194824Y14980808D01*
X2190102Y14990412D01*
X2189340Y14992917D01*
X2188172Y14994337D01*
X2186175Y14998400D01*
X2174985Y15010376D01*
X2164560Y15023056D01*
X2160788Y15025571D01*
X2159537Y15026910D01*
X2157158Y15027992D01*
X2148250Y15033931D01*
X2058964Y15081550D01*
X2040846Y15089036D01*
X2035954Y15089514D01*
X2031414Y15091394D01*
X2011905Y15093315D01*
X1894048Y15093315D01*
X1860137Y15111401D01*
X1846332Y15148215D01*
X1846492Y15149500D01*
X1878728Y15201077D01*
X1933069Y15226648D01*
X2028572Y15226648D01*
X2095800Y15190793D01*
X2113917Y15183308D01*
X2152751Y15179519D01*
X2190079Y15190880D01*
X2220218Y15215660D01*
X2238579Y15250088D01*
X2242368Y15288922D01*
X2231007Y15326250D01*
X2206227Y15356389D01*
X2189917Y15367264D01*
X2100631Y15414883D01*
X2082513Y15422369D01*
X2077621Y15422847D01*
X2073081Y15424727D01*
X2053572Y15426648D01*
X1910715Y15426648D01*
X1891206Y15424727D01*
X1888996Y15423812D01*
X1886606Y15423699D01*
X1868136Y15417130D01*
X1766945Y15369511D01*
X1750110Y15359466D01*
X1744036Y15352792D01*
X1736693Y15347554D01*
X1724724Y15332029D01*
X1665201Y15236790D01*
X1656490Y15219229D01*
X1656141Y15217148D01*
X1655100Y15215316D01*
X1650773Y15196196D01*
X1644820Y15148577D01*
X1644306Y15128980D01*
X1645519Y15124569D01*
X1645364Y15120001D01*
X1650415Y15101060D01*
X1686129Y15005822D01*
X1690850Y14996219D01*
X1691613Y14993713D01*
X1692780Y14992294D01*
X1694778Y14988230D01*
X1705967Y14976255D01*
X1716393Y14963574D01*
X1720164Y14961060D01*
X1721416Y14959720D01*
X1723794Y14958639D01*
X1732703Y14952699D01*
X1821990Y14905079D01*
X1840107Y14897594D01*
X1844998Y14897117D01*
X1849539Y14895236D01*
X1869048Y14893315D01*
X1986905Y14893315D01*
X2020815Y14875230D01*
X2034621Y14838415D01*
X2034461Y14837132D01*
X2002224Y14785553D01*
X1947885Y14759981D01*
X1804762Y14759981D01*
X1737536Y14795835D01*
X1719418Y14803321D01*
X1680584Y14807109D01*
X1643257Y14795749D01*
X1613118Y14770969D01*
X1594756Y14736541D01*
X1590968Y14697707D01*
X680325Y14697707D01*
X677435Y14707202D01*
X652655Y14737341D01*
X636345Y14748216D01*
X580375Y14778067D01*
X566569Y14814882D01*
X664636Y15599420D01*
X2513937Y15599420D01*
X2514064Y15599044D01*
X2514041Y15598646D01*
X2520297Y15580613D01*
X2526437Y15562458D01*
X2526745Y15562027D01*
X2526830Y15561783D01*
X2527288Y15561268D01*
X2537839Y15546511D01*
X2579506Y15498892D01*
X2587742Y15491160D01*
X2589322Y15489129D01*
X2590802Y15488288D01*
X2593798Y15485475D01*
X2594154Y15485299D01*
X2594419Y15485001D01*
X2609082Y15477892D01*
X2623240Y15469841D01*
X2626148Y15469478D01*
X2628774Y15468179D01*
X2629171Y15468153D01*
X2629529Y15467979D01*
X2645791Y15467023D01*
X2661957Y15465002D01*
X2664782Y15465779D01*
X2667705Y15465584D01*
X2668081Y15465712D01*
X2668479Y15465688D01*
X2683867Y15471027D01*
X2699579Y15475347D01*
X2701890Y15477146D01*
X2704667Y15478084D01*
X2704967Y15478348D01*
X2705342Y15478477D01*
X2721200Y15490002D01*
X2774771Y15537621D01*
X2787079Y15550941D01*
X2787602Y15551397D01*
X2787716Y15551630D01*
X2788076Y15552018D01*
X2796413Y15569215D01*
X2804898Y15586372D01*
X2804924Y15586771D01*
X2805098Y15587128D01*
X2806220Y15606218D01*
X2807493Y15625304D01*
X2807365Y15625681D01*
X2807389Y15626079D01*
X2801125Y15644132D01*
X2794993Y15662266D01*
X2794684Y15662698D01*
X2794600Y15662941D01*
X2794141Y15663457D01*
X2783591Y15678213D01*
X2741924Y15725832D01*
X2733687Y15733565D01*
X2732108Y15735595D01*
X2730627Y15736437D01*
X2727632Y15739249D01*
X2727275Y15739426D01*
X2727011Y15739723D01*
X2712344Y15746834D01*
X2698190Y15754883D01*
X2695283Y15755247D01*
X2692657Y15756545D01*
X2692259Y15756572D01*
X2691902Y15756745D01*
X2675638Y15757702D01*
X2659473Y15759722D01*
X2656647Y15758946D01*
X2653725Y15759140D01*
X2653348Y15759013D01*
X2652951Y15759036D01*
X2637562Y15753698D01*
X2621851Y15749377D01*
X2619539Y15747579D01*
X2616763Y15746640D01*
X2616462Y15746377D01*
X2616088Y15746247D01*
X2600231Y15734722D01*
X2546659Y15687103D01*
X2534350Y15673784D01*
X2533828Y15673327D01*
X2533713Y15673095D01*
X2533354Y15672706D01*
X2525016Y15655510D01*
X2516532Y15638352D01*
X2516505Y15637954D01*
X2516332Y15637596D01*
X2515208Y15618503D01*
X2513937Y15599420D01*
X664636Y15599420D01*
X670656Y15647577D01*
X671169Y15667174D01*
X660824Y15704796D01*
X636869Y15735595D01*
X602951Y15754882D01*
X564235Y15759722D01*
X526613Y15749377D01*
X495814Y15725422D01*
X476526Y15691504D01*
X472200Y15672384D01*
X365058Y14815242D01*
X364545Y14795646D01*
X87974Y14795646D01*
X134942Y15171387D01*
X135455Y15190984D01*
X134242Y15195393D01*
X134398Y15199962D01*
X129347Y15218903D01*
X93633Y15314141D01*
X88911Y15323745D01*
X88149Y15326250D01*
X86981Y15327670D01*
X84984Y15331733D01*
X73794Y15343709D01*
X63369Y15356389D01*
X59597Y15358904D01*
X58346Y15360243D01*
X55967Y15361325D01*
X47059Y15367264D01*
X-42227Y15414883D01*
X-60345Y15422369D01*
X-65237Y15422847D01*
X-69777Y15424727D01*
X-89286Y15426648D01*
X-279762Y15426648D01*
X-299271Y15424727D01*
X-301481Y15423812D01*
X-303871Y15423699D01*
X-322341Y15417130D01*
X-423532Y15369511D01*
X-440367Y15359466D01*
X-466626Y15330606D01*
X-479842Y15293895D01*
X-478004Y15254920D01*
X-461390Y15219615D01*
X-432530Y15193356D01*
X-395819Y15180140D01*
X-356844Y15181978D01*
X-338374Y15188547D01*
X-257408Y15226648D01*
X-114286Y15226648D01*
X-80376Y15208563D01*
X-66570Y15171748D01*
X-68590Y15155591D01*
X-99735Y15140934D01*
X-315476Y15140934D01*
X-334985Y15139013D01*
X-337195Y15138098D01*
X-339585Y15137985D01*
X-358055Y15131416D01*
X-459246Y15083797D01*
X-476081Y15073752D01*
X-482155Y15067077D01*
X-489498Y15061840D01*
X-501467Y15046315D01*
X-560991Y14951077D01*
X-569702Y14933515D01*
X-570051Y14931435D01*
X-571093Y14929601D01*
X-575419Y14910481D01*
X-587324Y14815243D01*
X-587837Y14795646D01*
X-835968Y14795646D01*
X-866088Y14806489D01*
X-905062Y14804651D01*
X-923533Y14798082D01*
X-1004497Y14759981D01*
X-1147619Y14759981D01*
X-1198699Y14787223D01*
X-1216330Y14807374D01*
X-1237003Y14862502D01*
X-1207081Y15101879D01*
X-1166868Y15166219D01*
X-1134831Y15194697D01*
X-1066932Y15226648D01*
X-923810Y15226648D01*
X-856582Y15190793D01*
X-838465Y15183308D01*
X-799631Y15179519D01*
X-762303Y15190880D01*
X-732164Y15215660D01*
X-713803Y15250088D01*
X-710014Y15288922D01*
X-721375Y15326250D01*
X-746155Y15356389D01*
X-762465Y15367264D01*
X-851751Y15414883D01*
X-869869Y15422369D01*
X-874761Y15422847D01*
X-879301Y15424727D01*
X-898810Y15426648D01*
X-1089286Y15426648D01*
X-1108795Y15424727D01*
X-1111005Y15423812D01*
X-1113395Y15423699D01*
X-1131865Y15417130D01*
X-1233056Y15369511D01*
X-1238825Y15366070D01*
X-1241056Y15365295D01*
X-1245340Y15362182D01*
X-1249891Y15359466D01*
X-1251483Y15357718D01*
X-1256913Y15353770D01*
X-1310485Y15306151D01*
X-1314975Y15301294D01*
X-1316879Y15299935D01*
X-1320148Y15295696D01*
X-1323790Y15291754D01*
X-1324814Y15289644D01*
X-1328848Y15284410D01*
X-1388372Y15189172D01*
X-1397083Y15171610D01*
X-1397432Y15169529D01*
X-1398474Y15167695D01*
X-1402800Y15148575D01*
X-1438514Y14862861D01*
X-1439027Y14843265D01*
X-1667978Y14843265D01*
X-1609105Y15314244D01*
X-1608592Y15333841D01*
X-1618937Y15371463D01*
X-1642892Y15402262D01*
X-1676809Y15421550D01*
X-1715526Y15426389D01*
X-1753148Y15416044D01*
X-1783947Y15392089D01*
X-1803235Y15358171D01*
X-1807561Y15339051D01*
X-1890895Y14672385D01*
X-1891408Y14652788D01*
X-2026921Y14652788D01*
X-2026921Y14679490D01*
X-2041853Y14715538D01*
X-2069443Y14743128D01*
X-2105491Y14758060D01*
X-2125000Y14759981D01*
X-2195238Y14759981D01*
X-2229149Y14778067D01*
X-2242955Y14814882D01*
X-2191484Y15226648D01*
X-2041667Y15226648D01*
X-2022158Y15228569D01*
X-1986110Y15243501D01*
X-1958520Y15271091D01*
X-1943588Y15307139D01*
X-1943588Y15346157D01*
X-1958520Y15382205D01*
X-1986110Y15409795D01*
X-2022158Y15424727D01*
X-2041667Y15426648D01*
X-2166484Y15426648D01*
X-2144888Y15599420D01*
X-1819397Y15599420D01*
X-1819270Y15599044D01*
X-1819293Y15598646D01*
X-1813037Y15580613D01*
X-1806897Y15562458D01*
X-1806589Y15562027D01*
X-1806504Y15561783D01*
X-1806046Y15561268D01*
X-1795495Y15546511D01*
X-1753828Y15498892D01*
X-1745592Y15491160D01*
X-1744012Y15489129D01*
X-1742532Y15488288D01*
X-1739536Y15485475D01*
X-1739180Y15485299D01*
X-1738915Y15485001D01*
X-1724252Y15477892D01*
X-1710094Y15469841D01*
X-1707186Y15469478D01*
X-1704560Y15468179D01*
X-1704163Y15468153D01*
X-1703805Y15467979D01*
X-1687543Y15467023D01*
X-1671377Y15465002D01*
X-1668552Y15465779D01*
X-1665629Y15465584D01*
X-1665253Y15465712D01*
X-1664855Y15465688D01*
X-1649467Y15471027D01*
X-1633755Y15475347D01*
X-1631444Y15477146D01*
X-1628667Y15478084D01*
X-1628367Y15478348D01*
X-1627992Y15478477D01*
X-1612134Y15490002D01*
X-1558563Y15537621D01*
X-1546255Y15550941D01*
X-1545732Y15551397D01*
X-1545618Y15551630D01*
X-1545258Y15552018D01*
X-1536921Y15569215D01*
X-1528436Y15586372D01*
X-1528410Y15586771D01*
X-1528236Y15587128D01*
X-1527114Y15606218D01*
X-1525841Y15625304D01*
X-1525969Y15625681D01*
X-1525945Y15626079D01*
X-1532209Y15644132D01*
X-1538341Y15662266D01*
X-1538650Y15662698D01*
X-1538734Y15662941D01*
X-1539193Y15663457D01*
X-1549743Y15678213D01*
X-1591410Y15725832D01*
X-1599647Y15733565D01*
X-1601226Y15735595D01*
X-1602707Y15736437D01*
X-1605702Y15739249D01*
X-1606059Y15739426D01*
X-1606323Y15739723D01*
X-1620990Y15746834D01*
X-1635144Y15754883D01*
X-1638051Y15755247D01*
X-1640677Y15756545D01*
X-1641075Y15756572D01*
X-1641432Y15756745D01*
X-1657696Y15757702D01*
X-1673861Y15759722D01*
X-1676687Y15758946D01*
X-1679609Y15759140D01*
X-1679986Y15759013D01*
X-1680383Y15759036D01*
X-1695772Y15753698D01*
X-1711483Y15749377D01*
X-1713795Y15747579D01*
X-1716571Y15746640D01*
X-1716872Y15746377D01*
X-1717246Y15746247D01*
X-1733103Y15734722D01*
X-1786675Y15687103D01*
X-1798984Y15673784D01*
X-1799506Y15673327D01*
X-1799621Y15673095D01*
X-1799980Y15672706D01*
X-1808318Y15655510D01*
X-1816802Y15638352D01*
X-1816829Y15637954D01*
X-1817002Y15637596D01*
X-1818126Y15618503D01*
X-1819397Y15599420D01*
X-2144888Y15599420D01*
X-2138868Y15647577D01*
X-2138355Y15667174D01*
X-2148700Y15704796D01*
X-2172655Y15735595D01*
X-2206573Y15754882D01*
X-2245289Y15759722D01*
X-2282911Y15749377D01*
X-2313710Y15725422D01*
X-2332998Y15691504D01*
X-2337324Y15672384D01*
X-2368041Y15426648D01*
X-2422619Y15426648D01*
X-2442128Y15424727D01*
X-2478176Y15409795D01*
X-2505766Y15382205D01*
X-2520698Y15346157D01*
X-2735627Y15346157D01*
X-2744898Y15354860D01*
X-2746155Y15356389D01*
X-2747438Y15357245D01*
X-2748558Y15358296D01*
X-2750328Y15359171D01*
X-2762465Y15367264D01*
X-2851751Y15414883D01*
X-2869869Y15422369D01*
X-2874761Y15422847D01*
X-2879301Y15424727D01*
X-2898810Y15426648D01*
X-3089286Y15426648D01*
X-3108795Y15424727D01*
X-3111005Y15423812D01*
X-3113395Y15423699D01*
X-3131865Y15417130D01*
X-3139177Y15413690D01*
X-3153000Y15421550D01*
X-3191717Y15426389D01*
X-3229339Y15416044D01*
X-3260138Y15392089D01*
X-3279426Y15358171D01*
X-3283752Y15339051D01*
X-3408752Y14339051D01*
X-3409265Y14319455D01*
X-4532281Y14319455D01*
X-4532281Y15000508D01*
X-4421170Y15000508D01*
X-4420982Y14993315D01*
X-4421170Y14986122D01*
X-4420754Y14984609D01*
X-4420657Y14980911D01*
X-4396847Y14790436D01*
X-4396766Y14790078D01*
X-4396778Y14789898D01*
X-4396619Y14789427D01*
X-4392521Y14771316D01*
X-4387520Y14762521D01*
X-4384278Y14752936D01*
X-4373481Y14737833D01*
X-4373233Y14737398D01*
X-4373090Y14737287D01*
X-4372877Y14736989D01*
X-4289544Y14641750D01*
X-4278913Y14631770D01*
X-4277655Y14630240D01*
X-4276373Y14629385D01*
X-4275252Y14628333D01*
X-4273483Y14627458D01*
X-4261345Y14619365D01*
X-4172058Y14571745D01*
X-4153941Y14564260D01*
X-4149050Y14563783D01*
X-4144509Y14561902D01*
X-4125000Y14559981D01*
X-3934524Y14559981D01*
X-3915015Y14561902D01*
X-3912806Y14562818D01*
X-3910414Y14562930D01*
X-3891944Y14569499D01*
X-3790754Y14617118D01*
X-3784986Y14620561D01*
X-3782755Y14621334D01*
X-3778472Y14624448D01*
X-3773920Y14627163D01*
X-3772330Y14628911D01*
X-3766897Y14632859D01*
X-3659754Y14728098D01*
X-3646449Y14742495D01*
X-3644405Y14746712D01*
X-3641207Y14750134D01*
X-3632558Y14767726D01*
X-3561129Y14958203D01*
X-3560448Y14960760D01*
X-3559860Y14961792D01*
X-3558114Y14969510D01*
X-3556078Y14977144D01*
X-3556119Y14978330D01*
X-3555534Y14980912D01*
X-3513868Y15314245D01*
X-3513772Y15317942D01*
X-3513355Y15319455D01*
X-3513544Y15326648D01*
X-3513355Y15333841D01*
X-3513772Y15335355D01*
X-3513868Y15339051D01*
X-3537677Y15529527D01*
X-3537759Y15529886D01*
X-3537746Y15530066D01*
X-3537906Y15530540D01*
X-3542003Y15548647D01*
X-3547004Y15557441D01*
X-3550246Y15567028D01*
X-3561047Y15582136D01*
X-3561291Y15582565D01*
X-3561433Y15582676D01*
X-3561647Y15582975D01*
X-3644982Y15678213D01*
X-3655617Y15688197D01*
X-3656870Y15689721D01*
X-3658149Y15690574D01*
X-3659274Y15691630D01*
X-3661050Y15692509D01*
X-3673180Y15700597D01*
X-3762465Y15748216D01*
X-3780583Y15755702D01*
X-3785475Y15756180D01*
X-3790015Y15758060D01*
X-3809524Y15759981D01*
X-4000000Y15759981D01*
X-4019509Y15758060D01*
X-4021719Y15757145D01*
X-4024109Y15757032D01*
X-4042579Y15750463D01*
X-4143770Y15702844D01*
X-4149539Y15699403D01*
X-4151770Y15698628D01*
X-4156055Y15695515D01*
X-4160605Y15692799D01*
X-4162196Y15691052D01*
X-4167628Y15687103D01*
X-4274770Y15591865D01*
X-4288075Y15577468D01*
X-4290120Y15573252D01*
X-4293318Y15569828D01*
X-4301967Y15552236D01*
X-4373395Y15361760D01*
X-4374077Y15359206D01*
X-4374664Y15358172D01*
X-4376412Y15350450D01*
X-4378446Y15342819D01*
X-4378406Y15341634D01*
X-4378990Y15339051D01*
X-4420657Y15005719D01*
X-4420754Y15002022D01*
X-4421170Y15000508D01*
X-4532281Y15000508D01*
X-4532281Y15871092D01*
X4627519Y15871092D01*
X4627519Y14115796D01*
G37*
D12*
X-10273891Y-675952D02*
X-9869129Y-675952D01*
X-9869129Y-675952D02*
X-9821510Y-652142D01*
X-9821510Y-652142D02*
X-9797700Y-628333D01*
X-9797700Y-628333D02*
X-9773891Y-580714D01*
X-9773891Y-580714D02*
X-9773891Y-485476D01*
X-9773891Y-485476D02*
X-9797700Y-437857D01*
X-9797700Y-437857D02*
X-9821510Y-414047D01*
X-9821510Y-414047D02*
X-9869129Y-390238D01*
X-9869129Y-390238D02*
X-10273891Y-390238D01*
X-9773891Y109763D02*
X-9773891Y-175951D01*
X-9773891Y-33094D02*
X-10273891Y-33094D01*
X-10273891Y-33094D02*
X-10202462Y-80713D01*
X-10202462Y-80713D02*
X-10154843Y-128332D01*
X-10154843Y-128332D02*
X-10131034Y-175951D01*
X-9549110Y6979867D02*
X-9525300Y6956058D01*
X-9525300Y6956058D02*
X-9501491Y6884629D01*
X-9501491Y6884629D02*
X-9501491Y6837010D01*
X-9501491Y6837010D02*
X-9525300Y6765582D01*
X-9525300Y6765582D02*
X-9572920Y6717963D01*
X-9572920Y6717963D02*
X-9620539Y6694153D01*
X-9620539Y6694153D02*
X-9715777Y6670344D01*
X-9715777Y6670344D02*
X-9787205Y6670344D01*
X-9787205Y6670344D02*
X-9882443Y6694153D01*
X-9882443Y6694153D02*
X-9930062Y6717963D01*
X-9930062Y6717963D02*
X-9977681Y6765582D01*
X-9977681Y6765582D02*
X-10001491Y6837010D01*
X-10001491Y6837010D02*
X-10001491Y6884629D01*
X-10001491Y6884629D02*
X-9977681Y6956058D01*
X-9977681Y6956058D02*
X-9953872Y6979867D01*
X-9953872Y7170344D02*
X-9977681Y7194153D01*
X-9977681Y7194153D02*
X-10001491Y7241772D01*
X-10001491Y7241772D02*
X-10001491Y7360820D01*
X-10001491Y7360820D02*
X-9977681Y7408439D01*
X-9977681Y7408439D02*
X-9953872Y7432248D01*
X-9953872Y7432248D02*
X-9906253Y7456058D01*
X-9906253Y7456058D02*
X-9858634Y7456058D01*
X-9858634Y7456058D02*
X-9787205Y7432248D01*
X-9787205Y7432248D02*
X-9501491Y7146534D01*
X-9501491Y7146534D02*
X-9501491Y7456058D01*
X-9502691Y8404111D02*
X-9502691Y8118396D01*
X-9502691Y8261254D02*
X-10002691Y8323754D01*
X-10002691Y8323754D02*
X-9931262Y8267206D01*
X-9931262Y8267206D02*
X-9883643Y8213634D01*
X-9883643Y8213634D02*
X-9859834Y8163039D01*
X-10002691Y8776134D02*
X-10002691Y8823753D01*
X-10002691Y8823753D02*
X-9978881Y8868396D01*
X-9978881Y8868396D02*
X-9955072Y8889229D01*
X-9955072Y8889229D02*
X-9907453Y8907086D01*
X-9907453Y8907086D02*
X-9812215Y8918991D01*
X-9812215Y8918991D02*
X-9693167Y8904110D01*
X-9693167Y8904110D02*
X-9597929Y8868396D01*
X-9597929Y8868396D02*
X-9550310Y8838634D01*
X-9550310Y8838634D02*
X-9526500Y8811848D01*
X-9526500Y8811848D02*
X-9502691Y8761253D01*
X-9502691Y8761253D02*
X-9502691Y8713634D01*
X-9502691Y8713634D02*
X-9526500Y8668991D01*
X-9526500Y8668991D02*
X-9550310Y8648158D01*
X-9550310Y8648158D02*
X-9597929Y8630301D01*
X-9597929Y8630301D02*
X-9693167Y8618396D01*
X-9693167Y8618396D02*
X-9812215Y8633277D01*
X-9812215Y8633277D02*
X-9907453Y8668991D01*
X-9907453Y8668991D02*
X-9955072Y8698753D01*
X-9955072Y8698753D02*
X-9978881Y8725539D01*
X-9978881Y8725539D02*
X-10002691Y8776134D01*
X-9836024Y9350538D02*
X-9502691Y9308872D01*
X-9836024Y9136253D02*
X-9574120Y9103514D01*
X-9574120Y9103514D02*
X-9526500Y9121372D01*
X-9526500Y9121372D02*
X-9502691Y9166014D01*
X-9502691Y9166014D02*
X-9502691Y9237443D01*
X-9502691Y9237443D02*
X-9526500Y9288038D01*
X-9526500Y9288038D02*
X-9550310Y9314824D01*
X-9764596Y9746372D02*
X-9764596Y9579705D01*
X-9502691Y9546967D02*
X-10002691Y9609467D01*
X-10002691Y9609467D02*
X-10002691Y9847562D01*
X-1725910Y-13644933D02*
X-1702100Y-13668742D01*
X-1702100Y-13668742D02*
X-1678291Y-13740171D01*
X-1678291Y-13740171D02*
X-1678291Y-13787790D01*
X-1678291Y-13787790D02*
X-1702100Y-13859218D01*
X-1702100Y-13859218D02*
X-1749720Y-13906837D01*
X-1749720Y-13906837D02*
X-1797339Y-13930647D01*
X-1797339Y-13930647D02*
X-1892577Y-13954456D01*
X-1892577Y-13954456D02*
X-1964005Y-13954456D01*
X-1964005Y-13954456D02*
X-2059243Y-13930647D01*
X-2059243Y-13930647D02*
X-2106862Y-13906837D01*
X-2106862Y-13906837D02*
X-2154481Y-13859218D01*
X-2154481Y-13859218D02*
X-2178291Y-13787790D01*
X-2178291Y-13787790D02*
X-2178291Y-13740171D01*
X-2178291Y-13740171D02*
X-2154481Y-13668742D01*
X-2154481Y-13668742D02*
X-2130672Y-13644933D01*
X-2178291Y-13192552D02*
X-2178291Y-13430647D01*
X-2178291Y-13430647D02*
X-1940196Y-13454456D01*
X-1940196Y-13454456D02*
X-1964005Y-13430647D01*
X-1964005Y-13430647D02*
X-1987815Y-13383028D01*
X-1987815Y-13383028D02*
X-1987815Y-13263980D01*
X-1987815Y-13263980D02*
X-1964005Y-13216361D01*
X-1964005Y-13216361D02*
X-1940196Y-13192552D01*
X-1940196Y-13192552D02*
X-1892577Y-13168742D01*
X-1892577Y-13168742D02*
X-1773529Y-13168742D01*
X-1773529Y-13168742D02*
X-1725910Y-13192552D01*
X-1725910Y-13192552D02*
X-1702100Y-13216361D01*
X-1702100Y-13216361D02*
X-1678291Y-13263980D01*
X-1678291Y-13263980D02*
X-1678291Y-13383028D01*
X-1678291Y-13383028D02*
X-1702100Y-13430647D01*
X-1702100Y-13430647D02*
X-1725910Y-13454456D01*
X-1678291Y-12267844D02*
X-1678291Y-12553559D01*
X-1678291Y-12410701D02*
X-2178291Y-12348201D01*
X-2178291Y-12348201D02*
X-2106862Y-12404749D01*
X-2106862Y-12404749D02*
X-2059243Y-12458321D01*
X-2059243Y-12458321D02*
X-2035434Y-12508916D01*
X-2011624Y-11797607D02*
X-1678291Y-11839273D01*
X-2011624Y-12011892D02*
X-1749720Y-12044631D01*
X-1749720Y-12044631D02*
X-1702100Y-12026773D01*
X-1702100Y-12026773D02*
X-1678291Y-11982131D01*
X-1678291Y-11982131D02*
X-1678291Y-11910702D01*
X-1678291Y-11910702D02*
X-1702100Y-11860107D01*
X-1702100Y-11860107D02*
X-1725910Y-11833321D01*
X-1940196Y-11401773D02*
X-1940196Y-11568440D01*
X-1678291Y-11601178D02*
X-2178291Y-11538678D01*
X-2178291Y-11538678D02*
X-2178291Y-11300583D01*
X-10568291Y-5210494D02*
X-11068291Y-5210494D01*
X-10615910Y-4686685D02*
X-10592100Y-4710494D01*
X-10592100Y-4710494D02*
X-10568291Y-4781923D01*
X-10568291Y-4781923D02*
X-10568291Y-4829542D01*
X-10568291Y-4829542D02*
X-10592100Y-4900970D01*
X-10592100Y-4900970D02*
X-10639720Y-4948589D01*
X-10639720Y-4948589D02*
X-10687339Y-4972399D01*
X-10687339Y-4972399D02*
X-10782577Y-4996208D01*
X-10782577Y-4996208D02*
X-10854005Y-4996208D01*
X-10854005Y-4996208D02*
X-10949243Y-4972399D01*
X-10949243Y-4972399D02*
X-10996862Y-4948589D01*
X-10996862Y-4948589D02*
X-11044481Y-4900970D01*
X-11044481Y-4900970D02*
X-11068291Y-4829542D01*
X-11068291Y-4829542D02*
X-11068291Y-4781923D01*
X-11068291Y-4781923D02*
X-11044481Y-4710494D01*
X-11044481Y-4710494D02*
X-11020672Y-4686685D01*
X-10568291Y-4210494D02*
X-10568291Y-4496208D01*
X-10568291Y-4353351D02*
X-11068291Y-4353351D01*
X-11068291Y-4353351D02*
X-10996862Y-4400970D01*
X-10996862Y-4400970D02*
X-10949243Y-4448589D01*
X-10949243Y-4448589D02*
X-10925434Y-4496208D01*
X5132090Y-13644933D02*
X5155900Y-13668742D01*
X5155900Y-13668742D02*
X5179709Y-13740171D01*
X5179709Y-13740171D02*
X5179709Y-13787790D01*
X5179709Y-13787790D02*
X5155900Y-13859218D01*
X5155900Y-13859218D02*
X5108280Y-13906837D01*
X5108280Y-13906837D02*
X5060661Y-13930647D01*
X5060661Y-13930647D02*
X4965423Y-13954456D01*
X4965423Y-13954456D02*
X4893995Y-13954456D01*
X4893995Y-13954456D02*
X4798757Y-13930647D01*
X4798757Y-13930647D02*
X4751138Y-13906837D01*
X4751138Y-13906837D02*
X4703519Y-13859218D01*
X4703519Y-13859218D02*
X4679709Y-13787790D01*
X4679709Y-13787790D02*
X4679709Y-13740171D01*
X4679709Y-13740171D02*
X4703519Y-13668742D01*
X4703519Y-13668742D02*
X4727328Y-13644933D01*
X4846376Y-13216361D02*
X5179709Y-13216361D01*
X4655900Y-13335409D02*
X5013042Y-13454456D01*
X5013042Y-13454456D02*
X5013042Y-13144933D01*
X5179709Y-12267844D02*
X5179709Y-12553559D01*
X5179709Y-12410701D02*
X4679709Y-12348201D01*
X4679709Y-12348201D02*
X4751138Y-12404749D01*
X4751138Y-12404749D02*
X4798757Y-12458321D01*
X4798757Y-12458321D02*
X4822566Y-12508916D01*
X4846376Y-11797607D02*
X5179709Y-11839273D01*
X4846376Y-12011892D02*
X5108280Y-12044631D01*
X5108280Y-12044631D02*
X5155900Y-12026773D01*
X5155900Y-12026773D02*
X5179709Y-11982131D01*
X5179709Y-11982131D02*
X5179709Y-11910702D01*
X5179709Y-11910702D02*
X5155900Y-11860107D01*
X5155900Y-11860107D02*
X5132090Y-11833321D01*
X4917804Y-11401773D02*
X4917804Y-11568440D01*
X5179709Y-11601178D02*
X4679709Y-11538678D01*
X4679709Y-11538678D02*
X4679709Y-11300583D01*
X9599309Y4312967D02*
X9361214Y4146301D01*
X9599309Y4027253D02*
X9099309Y4027253D01*
X9099309Y4027253D02*
X9099309Y4217729D01*
X9099309Y4217729D02*
X9123119Y4265348D01*
X9123119Y4265348D02*
X9146928Y4289158D01*
X9146928Y4289158D02*
X9194547Y4312967D01*
X9194547Y4312967D02*
X9265976Y4312967D01*
X9265976Y4312967D02*
X9313595Y4289158D01*
X9313595Y4289158D02*
X9337404Y4265348D01*
X9337404Y4265348D02*
X9361214Y4217729D01*
X9361214Y4217729D02*
X9361214Y4027253D01*
X9599309Y4789158D02*
X9599309Y4503444D01*
X9599309Y4646301D02*
X9099309Y4646301D01*
X9099309Y4646301D02*
X9170738Y4598682D01*
X9170738Y4598682D02*
X9218357Y4551063D01*
X9218357Y4551063D02*
X9242166Y4503444D01*
X9599309Y5670506D02*
X9599309Y5384791D01*
X9599309Y5527649D02*
X9099309Y5590149D01*
X9099309Y5590149D02*
X9170738Y5533601D01*
X9170738Y5533601D02*
X9218357Y5480029D01*
X9218357Y5480029D02*
X9242166Y5429434D01*
X9099309Y6042529D02*
X9099309Y6090148D01*
X9099309Y6090148D02*
X9123119Y6134791D01*
X9123119Y6134791D02*
X9146928Y6155624D01*
X9146928Y6155624D02*
X9194547Y6173481D01*
X9194547Y6173481D02*
X9289785Y6185386D01*
X9289785Y6185386D02*
X9408833Y6170505D01*
X9408833Y6170505D02*
X9504071Y6134791D01*
X9504071Y6134791D02*
X9551690Y6105029D01*
X9551690Y6105029D02*
X9575500Y6078243D01*
X9575500Y6078243D02*
X9599309Y6027648D01*
X9599309Y6027648D02*
X9599309Y5980029D01*
X9599309Y5980029D02*
X9575500Y5935386D01*
X9575500Y5935386D02*
X9551690Y5914553D01*
X9551690Y5914553D02*
X9504071Y5896696D01*
X9504071Y5896696D02*
X9408833Y5884791D01*
X9408833Y5884791D02*
X9289785Y5899672D01*
X9289785Y5899672D02*
X9194547Y5935386D01*
X9194547Y5935386D02*
X9146928Y5965148D01*
X9146928Y5965148D02*
X9123119Y5991934D01*
X9123119Y5991934D02*
X9099309Y6042529D01*
X9599309Y6360981D02*
X9099309Y6423481D01*
X9408833Y6432409D02*
X9599309Y6551457D01*
X9265976Y6593124D02*
X9456452Y6378838D01*
D10*
X-10067100Y687200D02*
X-10067100Y2537200D01*
X-9177100Y687200D02*
X-10067100Y687200D01*
X-6947100Y672200D02*
X-7837100Y672200D01*
X-6947100Y672200D02*
X-6947100Y2522200D01*
X-6627100Y2672200D02*
X-6957100Y2912200D01*
X-6627100Y3152200D01*
X-6627100Y2672200D01*
G36*
X-6627100Y2672200D02*
G01*
X-6957100Y2912200D01*
X-6627100Y3152200D01*
X-6627100Y2672200D01*
G37*
X-9033800Y10747500D02*
X-9033800Y6687500D01*
X-6763800Y10747500D02*
X-9033800Y10747500D01*
X-6763800Y6687500D02*
X-6763800Y10747500D01*
X-12312800Y18411200D02*
X-11722800Y18411200D01*
X-12312800Y11971200D02*
X-12312800Y18411200D01*
X-11722800Y17791200D02*
X-12312800Y17791200D01*
X-9662800Y18411200D02*
X-9182800Y18411200D01*
X-9182800Y17791200D02*
X-9662800Y17791200D01*
X-7122800Y18411200D02*
X-6532800Y18411200D01*
X-6532800Y18411200D02*
X-6532800Y11971200D01*
X-6532800Y17791200D02*
X-7122800Y17791200D01*
X-6532800Y12491200D02*
X-12312800Y12491200D01*
X-6532800Y11971200D02*
X-12312800Y11971200D01*
X-8152800Y18761200D02*
X-8592800Y19371200D01*
X-7712800Y19371200D01*
X-8152800Y18761200D01*
G36*
X-8152800Y18761200D02*
G01*
X-8592800Y19371200D01*
X-7712800Y19371200D01*
X-8152800Y18761200D01*
G37*
X-1123753Y-8909953D02*
X-1123753Y-12969953D01*
X1146247Y-8909953D02*
X-1123753Y-8909953D01*
X1146247Y-12969953D02*
X1146247Y-8909953D01*
D11*
X-10052000Y-4351800D02*
X-7052000Y-4351800D01*
X-10052000Y-5051800D02*
X-10052000Y-4351800D01*
X-7052000Y-2801800D02*
X-7052000Y-4001800D01*
X-7052000Y-4351800D02*
X-7052000Y-5051800D01*
X-7052000Y-5051800D02*
X-10052000Y-5051800D01*
D10*
X1876247Y-8909953D02*
X1876247Y-12969953D01*
X4146247Y-8909953D02*
X1876247Y-8909953D01*
X4146247Y-12969953D02*
X4146247Y-8909953D01*
X6460200Y6297500D02*
X6460200Y2237500D01*
X8730200Y6297500D02*
X6460200Y6297500D01*
X8730200Y2237500D02*
X8730200Y6297500D01*
D12*
X-9500000Y3330000D02*
X-9500000Y-3920000D01*
X-1500000Y10630000D02*
X-1500000Y10380000D01*
X-1500000Y10380000D02*
X-2450000Y10380000D01*
X1500000Y10630000D02*
X-1500000Y10630000D01*
X1500000Y10630000D02*
X1500000Y10380000D01*
X2450000Y10380000D02*
X1500000Y10380000D01*
X2450000Y-10970000D02*
X-2450000Y-10970000D01*
X9500000Y3330000D02*
X9500000Y-3920000D01*
X-9500000Y3330000D02*
G75*
G02*
X-2450000Y10380000I7049999J1D01*
G01*
X-2450000Y-10970000D02*
G75*
G02*
X-9500000Y-3920000I-1J7049999D01*
G01*
X2450000Y10380000D02*
G75*
G02*
X9500000Y3330000I0J-7050000D01*
G01*
X9500000Y-3920000D02*
G75*
G02*
X2450000Y-10970000I-7050006J6D01*
G01*
M02*
