G04 #@! TF.GenerationSoftware,KiCad,Pcbnew,9.0.2*
G04 #@! TF.CreationDate,2026-01-21T13:25:44+08:00*
G04 #@! TF.ProjectId,pmw3360_fsr,706d7733-3336-4305-9f66-73722e6b6963,rev?*
G04 #@! TF.SameCoordinates,PX4d3f640PY69db9c0*
G04 #@! TF.FileFunction,Copper,L2,Bot*
G04 #@! TF.FilePolarity,Positive*
%FSLAX46Y46*%
G04 Gerber Fmt 4.6, Leading zero omitted, Abs format (unit mm)*
G04 Created by KiCad (PCBNEW 9.0.2) date 2026-01-21 13:25:44*
%MOMM*%
%LPD*%
G01*
G04 APERTURE LIST*
G04 Aperture macros list*
%AMRoundRect*
0 Rectangle with rounded corners*
0 $1 Rounding radius*
0 $2 $3 $4 $5 $6 $7 $8 $9 X,Y pos of 4 corners*
0 Add a 4 corners polygon primitive as box body*
4,1,4,$2,$3,$4,$5,$6,$7,$8,$9,$2,$3,0*
0 Add four circle primitives for the rounded corners*
1,1,$1+$1,$2,$3*
1,1,$1+$1,$4,$5*
1,1,$1+$1,$6,$7*
1,1,$1+$1,$8,$9*
0 Add four rect primitives between the rounded corners*
20,1,$1+$1,$2,$3,$4,$5,0*
20,1,$1+$1,$4,$5,$6,$7,0*
20,1,$1+$1,$6,$7,$8,$9,0*
20,1,$1+$1,$8,$9,$2,$3,0*%
G04 Aperture macros list end*
G04 #@! TA.AperFunction,ComponentPad*
%ADD10RoundRect,0.249999X0.850001X0.850001X-0.850001X0.850001X-0.850001X-0.850001X0.850001X-0.850001X0*%
G04 #@! TD*
G04 #@! TA.AperFunction,ComponentPad*
%ADD11C,2.200000*%
G04 #@! TD*
G04 #@! TA.AperFunction,ComponentPad*
%ADD12R,1.200000X1.200000*%
G04 #@! TD*
G04 #@! TA.AperFunction,ComponentPad*
%ADD13C,1.200000*%
G04 #@! TD*
G04 #@! TA.AperFunction,SMDPad,CuDef*
%ADD14RoundRect,0.250001X-0.624999X0.462499X-0.624999X-0.462499X0.624999X-0.462499X0.624999X0.462499X0*%
G04 #@! TD*
G04 #@! TA.AperFunction,SMDPad,CuDef*
%ADD15RoundRect,0.250001X-0.114905X0.768977X-0.768977X0.114905X0.114905X-0.768977X0.768977X-0.114905X0*%
G04 #@! TD*
G04 #@! TA.AperFunction,SMDPad,CuDef*
%ADD16R,1.100000X0.300000*%
G04 #@! TD*
G04 #@! TA.AperFunction,SMDPad,CuDef*
%ADD17R,1.600000X2.000000*%
G04 #@! TD*
G04 #@! TA.AperFunction,SMDPad,CuDef*
%ADD18RoundRect,0.250001X0.624999X-0.462499X0.624999X0.462499X-0.624999X0.462499X-0.624999X-0.462499X0*%
G04 #@! TD*
G04 #@! TA.AperFunction,ViaPad*
%ADD19C,0.800000*%
G04 #@! TD*
G04 #@! TA.AperFunction,ViaPad*
%ADD20C,0.600000*%
G04 #@! TD*
G04 #@! TA.AperFunction,Conductor*
%ADD21C,0.300000*%
G04 #@! TD*
G04 #@! TA.AperFunction,Conductor*
%ADD22C,0.250000*%
G04 #@! TD*
G04 APERTURE END LIST*
D10*
X-8152800Y15191200D03*
D11*
X-10692800Y15191200D03*
D12*
X-5350000Y-5660000D03*
D13*
X-5350000Y-3880000D03*
X-5350000Y-2100000D03*
X-5350000Y-320000D03*
X-5350000Y1460000D03*
X-5350000Y3240000D03*
X-5350000Y5020000D03*
X-5350000Y6800000D03*
X5350000Y7690000D03*
X5350000Y5910000D03*
X5350000Y4130000D03*
X5350000Y2350000D03*
X5350000Y570000D03*
X5350000Y-1210000D03*
X5350000Y-2990000D03*
X5350000Y-4770000D03*
D14*
X-2988753Y-9882453D03*
X-2988753Y-12857453D03*
X-7602000Y-3026800D03*
X-7602000Y-6001800D03*
D15*
X5919821Y-9882453D03*
X3816179Y-11986095D03*
D14*
X-3276000Y15191200D03*
X-3276000Y12216200D03*
X-242300Y15191200D03*
X-242300Y12216200D03*
D16*
X7238000Y3850000D03*
X7238000Y3350000D03*
X7238000Y2850000D03*
X7238000Y2350000D03*
X7238000Y1850000D03*
X7238000Y1350000D03*
X7238000Y850000D03*
D17*
X10018000Y5550000D03*
X10018000Y-850000D03*
D14*
X11247Y-9882453D03*
X11247Y-12857453D03*
D18*
X-7602000Y1347900D03*
X-7602000Y4322900D03*
D19*
X-5663600Y8892000D03*
X-9676800Y-1826800D03*
X10287600Y8079200D03*
X8306400Y-252000D03*
X5919821Y-9882453D03*
D20*
X-9502000Y-6001800D03*
D19*
X-7602000Y-6001800D03*
X11247Y-9882453D03*
D20*
X3361443Y12633843D03*
X9044800Y1350000D03*
D21*
X7238000Y3850000D02*
X8649200Y3850000D01*
X7238000Y3850000D02*
X7238000Y4877200D01*
X7238000Y4877200D02*
X7239600Y4878800D01*
X7966400Y850000D02*
X7238000Y850000D01*
X8306400Y510000D02*
X7966400Y850000D01*
X8306400Y-252000D02*
X8306400Y510000D01*
D22*
X-2988753Y-9882453D02*
X-4008747Y-9882453D01*
X-4008747Y-9882453D02*
X-6324000Y-7567200D01*
X-6324000Y-3074000D02*
X-5350000Y-2100000D01*
X-6324000Y-7567200D02*
X-6324000Y-3074000D01*
X-7602000Y1347900D02*
X-7602000Y-3026800D01*
X-9502000Y-4926800D02*
X-9502000Y-6001800D01*
X-7602000Y-3026800D02*
X-9502000Y-4926800D01*
X6325200Y3456400D02*
X6431600Y3350000D01*
X6431600Y3350000D02*
X7238000Y3350000D01*
X6325200Y4934800D02*
X6325200Y3456400D01*
X5350000Y5910000D02*
X6325200Y4934800D01*
X5350000Y4130000D02*
X5350000Y3793790D01*
X6293790Y2850000D02*
X7238000Y2850000D01*
X5350000Y3793790D02*
X6293790Y2850000D01*
X5350000Y2350000D02*
X7238000Y2350000D01*
X6386000Y1850000D02*
X5350000Y814000D01*
X5350000Y814000D02*
X5350000Y570000D01*
X7238000Y1850000D02*
X6386000Y1850000D01*
X80631Y-12857453D02*
X6528400Y-6409684D01*
X6528400Y-6409684D02*
X6528400Y-4168400D01*
X6528400Y-4168400D02*
X5350000Y-2990000D01*
X11247Y-12857453D02*
X80631Y-12857453D01*
X804086Y15191200D02*
X3361443Y12633843D01*
X9044800Y1350000D02*
X7238000Y1350000D01*
X-3276000Y15191200D02*
X804086Y15191200D01*
X-8152800Y15191200D02*
X-3276000Y15191200D01*
X804086Y15191200D02*
X-19250Y15191200D01*
G04 #@! TA.AperFunction,Conductor*
G36*
X-4774132Y-6788502D02*
G01*
X-4727639Y-6842158D01*
X-4716253Y-6894500D01*
X-4716253Y-7669940D01*
X-4716260Y-7743846D01*
X-4716259Y-7743851D01*
X-4687426Y-7888857D01*
X-4687425Y-7888859D01*
X-4633557Y-8018925D01*
X-4625971Y-8089515D01*
X-4657753Y-8153001D01*
X-4718813Y-8189226D01*
X-4789764Y-8186688D01*
X-4839063Y-8156233D01*
X-5653595Y-7341701D01*
X-5687621Y-7279389D01*
X-5690500Y-7252606D01*
X-5690500Y-6894500D01*
X-5670498Y-6826379D01*
X-5616842Y-6779886D01*
X-5564500Y-6768500D01*
X-4842253Y-6768500D01*
X-4774132Y-6788502D01*
G37*
G04 #@! TD.AperFunction*
G04 #@! TA.AperFunction,Conductor*
G36*
X-6427978Y246320D02*
G01*
X-6382486Y191813D01*
X-6373684Y121364D01*
X-6378215Y102665D01*
X-6431204Y-60420D01*
X-6431205Y-60425D01*
X-6431205Y-60426D01*
X-6458500Y-232759D01*
X-6458500Y-407241D01*
X-6431205Y-579574D01*
X-6377288Y-745516D01*
X-6298074Y-900981D01*
X-6195517Y-1042139D01*
X-6195515Y-1042141D01*
X-6195513Y-1042144D01*
X-6116752Y-1120905D01*
X-6082726Y-1183217D01*
X-6087791Y-1254032D01*
X-6116752Y-1299095D01*
X-6195513Y-1377855D01*
X-6195515Y-1377858D01*
X-6298072Y-1519015D01*
X-6377287Y-1674482D01*
X-6377290Y-1674488D01*
X-6427504Y-1829033D01*
X-6467578Y-1887639D01*
X-6532974Y-1915276D01*
X-6602931Y-1903169D01*
X-6613475Y-1897343D01*
X-6654262Y-1872185D01*
X-6822575Y-1816413D01*
X-6822577Y-1816412D01*
X-6822579Y-1816412D01*
X-6855309Y-1813068D01*
X-6921043Y-1786245D01*
X-6961841Y-1728141D01*
X-6968500Y-1687721D01*
X-6968500Y8822D01*
X-6948498Y76943D01*
X-6894842Y123436D01*
X-6855312Y134169D01*
X-6822575Y137513D01*
X-6654262Y193285D01*
X-6564193Y248841D01*
X-6495717Y267578D01*
X-6427978Y246320D01*
G37*
G04 #@! TD.AperFunction*
G04 #@! TA.AperFunction,NonConductor*
G36*
X5016463Y18647773D02*
G01*
X5344099Y18633057D01*
X5355324Y18632047D01*
X5677537Y18588399D01*
X5688655Y18586381D01*
X6005646Y18514030D01*
X6016516Y18511030D01*
X6325749Y18410557D01*
X6336306Y18406595D01*
X6635291Y18278806D01*
X6645466Y18273906D01*
X6931788Y18119836D01*
X6941475Y18114048D01*
X7187315Y17951778D01*
X7214890Y17933577D01*
X7219535Y17930358D01*
X10984945Y15194627D01*
X10984946Y15194626D01*
X11018287Y15170403D01*
X11022975Y15166825D01*
X11272463Y14966946D01*
X11291728Y14951512D01*
X11300631Y14943663D01*
X11545788Y14706088D01*
X11553886Y14697464D01*
X11747019Y14471333D01*
X11775600Y14437869D01*
X11782875Y14428489D01*
X11979159Y14149201D01*
X11985520Y14139178D01*
X12154653Y13842653D01*
X12160042Y13832076D01*
X12300515Y13520956D01*
X12304885Y13509919D01*
X12415457Y13186955D01*
X12418769Y13175555D01*
X12498458Y12843617D01*
X12500682Y12831956D01*
X12548776Y12493999D01*
X12549893Y12482181D01*
X12566139Y12137624D01*
X12566279Y12131690D01*
X12566279Y-5133411D01*
X12566226Y-5137076D01*
X12548199Y-5756615D01*
X12547773Y-5763932D01*
X12493914Y-6379547D01*
X12493063Y-6386826D01*
X12403501Y-6998264D01*
X12402228Y-7005482D01*
X12277268Y-7610665D01*
X12275578Y-7617797D01*
X12115638Y-8214701D01*
X12113536Y-8221723D01*
X11919157Y-8808327D01*
X11916650Y-8815214D01*
X11688497Y-9389508D01*
X11685594Y-9396238D01*
X11424431Y-9956307D01*
X11421141Y-9962857D01*
X11127863Y-10506774D01*
X11124199Y-10513121D01*
X10799780Y-11039085D01*
X10795752Y-11045209D01*
X10441304Y-11551413D01*
X10436927Y-11557292D01*
X10053646Y-12042030D01*
X10048935Y-12047644D01*
X9638117Y-12509277D01*
X9633087Y-12514608D01*
X9196131Y-12951564D01*
X9190800Y-12956594D01*
X8729167Y-13367413D01*
X8723553Y-13372124D01*
X8238815Y-13755405D01*
X8232936Y-13759782D01*
X7726732Y-14114230D01*
X7720608Y-14118258D01*
X7194644Y-14442677D01*
X7188297Y-14446341D01*
X6644380Y-14739619D01*
X6637830Y-14742909D01*
X6077762Y-15004073D01*
X6071032Y-15006976D01*
X5496737Y-15235129D01*
X5489850Y-15237636D01*
X4903247Y-15432015D01*
X4896225Y-15434117D01*
X4299321Y-15594057D01*
X4292189Y-15595747D01*
X3687006Y-15720707D01*
X3679789Y-15721980D01*
X3068351Y-15811543D01*
X3061071Y-15812394D01*
X2445456Y-15866253D01*
X2438139Y-15866679D01*
X1818738Y-15884702D01*
X1815073Y-15884755D01*
X-8813692Y-15884755D01*
X-8819874Y-15884603D01*
X-9178114Y-15867005D01*
X-9190419Y-15865793D01*
X-9542145Y-15813621D01*
X-9554273Y-15811209D01*
X-9899193Y-15724812D01*
X-9911026Y-15721223D01*
X-10245823Y-15601431D01*
X-10257247Y-15596699D01*
X-10259260Y-15595747D01*
X-10316856Y-15568506D01*
X-10578687Y-15444669D01*
X-10589592Y-15438840D01*
X-10894583Y-15256036D01*
X-10904864Y-15249166D01*
X-11190458Y-15037354D01*
X-11200017Y-15029510D01*
X-11463492Y-14790709D01*
X-11472235Y-14781965D01*
X-11711021Y-14518503D01*
X-11718860Y-14508951D01*
X-11930686Y-14223335D01*
X-11937549Y-14213063D01*
X-12120354Y-13908067D01*
X-12126183Y-13897162D01*
X-12278208Y-13575726D01*
X-12282940Y-13564302D01*
X-12402730Y-13229504D01*
X-12406319Y-13217672D01*
X-12424865Y-13143628D01*
X-12492718Y-12872736D01*
X-12495124Y-12860637D01*
X-12547297Y-12508890D01*
X-12548508Y-12496591D01*
X-12551325Y-12439241D01*
X-12566128Y-12137863D01*
X-12566279Y-12131684D01*
X-12566279Y-12009293D01*
X-10417279Y-12009293D01*
X-10417279Y-12261217D01*
X-10380816Y-12491431D01*
X-10377868Y-12510045D01*
X-10300022Y-12749629D01*
X-10300020Y-12749634D01*
X-10185649Y-12974100D01*
X-10037572Y-13177911D01*
X-10037570Y-13177913D01*
X-10037568Y-13177916D01*
X-9859441Y-13356043D01*
X-9859438Y-13356045D01*
X-9859435Y-13356048D01*
X-9655624Y-13504125D01*
X-9431158Y-13618496D01*
X-9191564Y-13696345D01*
X-8942741Y-13735755D01*
X-8942738Y-13735755D01*
X-8690820Y-13735755D01*
X-8690817Y-13735755D01*
X-8441994Y-13696345D01*
X-8202400Y-13618496D01*
X-7977934Y-13504125D01*
X-7793959Y-13370460D01*
X-4371752Y-13370460D01*
X-4361148Y-13474271D01*
X-4305411Y-13642478D01*
X-4212387Y-13793292D01*
X-4212382Y-13793298D01*
X-4087099Y-13918581D01*
X-4087093Y-13918586D01*
X-3936279Y-14011610D01*
X-3768075Y-14067346D01*
X-3768071Y-14067347D01*
X-3664269Y-14077952D01*
X-3242753Y-14077952D01*
X-3242753Y-13111453D01*
X-4371752Y-13111453D01*
X-4371752Y-13370460D01*
X-7793959Y-13370460D01*
X-7774123Y-13356048D01*
X-7595986Y-13177911D01*
X-7447909Y-12974100D01*
X-7333538Y-12749634D01*
X-7255689Y-12510040D01*
X-7229460Y-12344437D01*
X-4371753Y-12344437D01*
X-4371753Y-12603453D01*
X-3242753Y-12603453D01*
X-3242753Y-11636953D01*
X-3664261Y-11636953D01*
X-3768072Y-11647558D01*
X-3936279Y-11703295D01*
X-4087093Y-11796319D01*
X-4087099Y-11796324D01*
X-4212382Y-11921607D01*
X-4212387Y-11921613D01*
X-4305411Y-12072427D01*
X-4361147Y-12240631D01*
X-4361148Y-12240634D01*
X-4371753Y-12344437D01*
X-7229460Y-12344437D01*
X-7216279Y-12261217D01*
X-7216279Y-12009293D01*
X-7255689Y-11760470D01*
X-7333538Y-11520876D01*
X-7447909Y-11296410D01*
X-7595986Y-11092599D01*
X-7595989Y-11092596D01*
X-7595991Y-11092593D01*
X-7774118Y-10914466D01*
X-7774121Y-10914464D01*
X-7774123Y-10914462D01*
X-7977934Y-10766385D01*
X-8202400Y-10652014D01*
X-8202403Y-10652013D01*
X-8202405Y-10652012D01*
X-8441989Y-10574166D01*
X-8441993Y-10574165D01*
X-8441994Y-10574165D01*
X-8690817Y-10534755D01*
X-8942741Y-10534755D01*
X-9191564Y-10574165D01*
X-9191570Y-10574166D01*
X-9431154Y-10652012D01*
X-9431160Y-10652015D01*
X-9655628Y-10766387D01*
X-9859438Y-10914464D01*
X-9859441Y-10914466D01*
X-10037568Y-11092593D01*
X-10037570Y-11092596D01*
X-10185647Y-11296406D01*
X-10300019Y-11520874D01*
X-10300022Y-11520880D01*
X-10377868Y-11760464D01*
X-10377869Y-11760469D01*
X-10377869Y-11760470D01*
X-10417279Y-12009293D01*
X-12566279Y-12009293D01*
X-12566279Y-5922167D01*
X-10310500Y-5922167D01*
X-10310500Y-5922170D01*
X-10310500Y-6081430D01*
X-10279430Y-6237631D01*
X-10218483Y-6384768D01*
X-10130003Y-6517189D01*
X-10130002Y-6517190D01*
X-10129997Y-6517196D01*
X-10017397Y-6629796D01*
X-10017391Y-6629801D01*
X-10017389Y-6629803D01*
X-9884968Y-6718283D01*
X-9737831Y-6779230D01*
X-9581630Y-6810300D01*
X-9581629Y-6810300D01*
X-9422371Y-6810300D01*
X-9422370Y-6810300D01*
X-9266169Y-6779230D01*
X-9119032Y-6718283D01*
X-9111573Y-6713298D01*
X-9043820Y-6692084D01*
X-8975353Y-6710867D01*
X-8927910Y-6763685D01*
X-8921972Y-6778416D01*
X-8919115Y-6787038D01*
X-8902782Y-6813517D01*
X-8826030Y-6937951D01*
X-8826025Y-6937957D01*
X-8700658Y-7063324D01*
X-8700652Y-7063329D01*
X-8700651Y-7063330D01*
X-8549738Y-7156415D01*
X-8381425Y-7212187D01*
X-8353094Y-7215081D01*
X-8277552Y-7222800D01*
X-8277544Y-7222800D01*
X-7083500Y-7222800D01*
X-7015379Y-7242802D01*
X-6968886Y-7296458D01*
X-6957500Y-7348800D01*
X-6957500Y-7504806D01*
X-6957500Y-7629594D01*
X-6933155Y-7751985D01*
X-6885400Y-7867275D01*
X-6816071Y-7971033D01*
X-6816069Y-7971035D01*
X-4412592Y-10374513D01*
X-4412587Y-10374517D01*
X-4412580Y-10374524D01*
X-4412573Y-10374529D01*
X-4411042Y-10375785D01*
X-4410448Y-10376657D01*
X-4408204Y-10378901D01*
X-4408630Y-10379326D01*
X-4371071Y-10434461D01*
X-4365625Y-10460380D01*
X-4361641Y-10499375D01*
X-4361640Y-10499378D01*
X-4305868Y-10667691D01*
X-4305867Y-10667692D01*
X-4212783Y-10818604D01*
X-4212778Y-10818610D01*
X-4087411Y-10943977D01*
X-4087405Y-10943982D01*
X-4087404Y-10943983D01*
X-3936491Y-11037068D01*
X-3768178Y-11092840D01*
X-3739847Y-11095734D01*
X-3664305Y-11103453D01*
X-3664297Y-11103453D01*
X-2313201Y-11103453D01*
X-2243955Y-11096377D01*
X-2209328Y-11092840D01*
X-2041015Y-11037068D01*
X-1890102Y-10943983D01*
X-1764723Y-10818604D01*
X-1671638Y-10667691D01*
X-1615866Y-10499378D01*
X-1614100Y-10482094D01*
X-1587278Y-10416359D01*
X-1529175Y-10375561D01*
X-1458238Y-10372652D01*
X-1396989Y-10408557D01*
X-1364875Y-10471875D01*
X-1363406Y-10482094D01*
X-1361641Y-10499374D01*
X-1361641Y-10499376D01*
X-1361640Y-10499378D01*
X-1305868Y-10667691D01*
X-1305867Y-10667692D01*
X-1212783Y-10818604D01*
X-1212778Y-10818610D01*
X-1087411Y-10943977D01*
X-1087405Y-10943982D01*
X-1087404Y-10943983D01*
X-936491Y-11037068D01*
X-768178Y-11092840D01*
X-739847Y-11095734D01*
X-664305Y-11103453D01*
X634536Y-11103453D01*
X702657Y-11123455D01*
X749150Y-11177111D01*
X759254Y-11247385D01*
X729760Y-11311965D01*
X723631Y-11318548D01*
X442631Y-11599548D01*
X380319Y-11633574D01*
X353536Y-11636453D01*
X-664305Y-11636453D01*
X-768175Y-11647065D01*
X-936491Y-11702838D01*
X-936493Y-11702839D01*
X-1087405Y-11795923D01*
X-1087411Y-11795928D01*
X-1212778Y-11921295D01*
X-1212783Y-11921301D01*
X-1305867Y-12072213D01*
X-1305868Y-12072215D01*
X-1361641Y-12240530D01*
X-1363658Y-12260276D01*
X-1390482Y-12326010D01*
X-1448586Y-12366807D01*
X-1519523Y-12369714D01*
X-1580771Y-12333809D01*
X-1612884Y-12270490D01*
X-1614353Y-12260268D01*
X-1616359Y-12240634D01*
X-1672096Y-12072427D01*
X-1765120Y-11921613D01*
X-1765125Y-11921607D01*
X-1890408Y-11796324D01*
X-1890414Y-11796319D01*
X-2041228Y-11703295D01*
X-2209432Y-11647559D01*
X-2209435Y-11647558D01*
X-2313238Y-11636953D01*
X-2734753Y-11636953D01*
X-2734753Y-14077952D01*
X-2313246Y-14077952D01*
X-2209435Y-14067347D01*
X-2041228Y-14011610D01*
X-1890414Y-13918586D01*
X-1890408Y-13918581D01*
X-1765125Y-13793298D01*
X-1765120Y-13793292D01*
X-1672096Y-13642478D01*
X-1616360Y-13474277D01*
X-1614353Y-13454632D01*
X-1587531Y-13388897D01*
X-1529428Y-13348097D01*
X-1458492Y-13345188D01*
X-1397242Y-13381091D01*
X-1365127Y-13444409D01*
X-1363658Y-13454629D01*
X-1361641Y-13474374D01*
X-1361641Y-13474376D01*
X-1361640Y-13474378D01*
X-1305868Y-13642691D01*
X-1248465Y-13735755D01*
X-1212783Y-13793604D01*
X-1212778Y-13793610D01*
X-1087411Y-13918977D01*
X-1087405Y-13918982D01*
X-1087404Y-13918983D01*
X-936491Y-14012068D01*
X-768178Y-14067840D01*
X-739847Y-14070734D01*
X-664305Y-14078453D01*
X-664297Y-14078453D01*
X686799Y-14078453D01*
X756045Y-14071377D01*
X790672Y-14067840D01*
X958985Y-14012068D01*
X1109898Y-13918983D01*
X1235277Y-13793604D01*
X1328362Y-13642691D01*
X1384134Y-13474378D01*
X1392480Y-13392688D01*
X1394747Y-13370505D01*
X1394747Y-13028722D01*
X3132760Y-13028722D01*
X3430806Y-13326768D01*
X3511719Y-13392684D01*
X3670065Y-13472207D01*
X3842489Y-13513073D01*
X4019679Y-13513073D01*
X4192103Y-13472207D01*
X4192105Y-13472206D01*
X4350442Y-13392688D01*
X4350446Y-13392685D01*
X4431352Y-13326778D01*
X4614502Y-13143628D01*
X4614502Y-13143627D01*
X3816180Y-12345305D01*
X3816179Y-12345305D01*
X3132760Y-13028722D01*
X1394747Y-13028722D01*
X1394747Y-12491431D01*
X1414749Y-12423310D01*
X1431652Y-12402336D01*
X2074106Y-11759882D01*
X2136418Y-11725856D01*
X2207233Y-11730921D01*
X2264069Y-11773468D01*
X2288880Y-11839988D01*
X2289201Y-11848977D01*
X2289201Y-11959785D01*
X2330066Y-12132208D01*
X2409589Y-12290554D01*
X2475500Y-12371464D01*
X2773549Y-12669513D01*
X2773551Y-12669513D01*
X3456970Y-11986094D01*
X4175389Y-11986094D01*
X4175389Y-11986096D01*
X4973711Y-12784418D01*
X4973713Y-12784418D01*
X5156848Y-12601282D01*
X5222768Y-12520364D01*
X5302290Y-12362021D01*
X5302291Y-12362019D01*
X5343157Y-12189595D01*
X5343157Y-12012404D01*
X5302291Y-11839981D01*
X5222768Y-11681635D01*
X5156857Y-11600725D01*
X4858808Y-11302676D01*
X4858807Y-11302676D01*
X4175389Y-11986094D01*
X3456970Y-11986094D01*
X4499597Y-10943467D01*
X4499597Y-10943466D01*
X4201551Y-10645421D01*
X4120638Y-10579505D01*
X3962292Y-10499982D01*
X3789869Y-10459117D01*
X3679061Y-10459117D01*
X3610940Y-10439115D01*
X3564447Y-10385459D01*
X3554343Y-10315185D01*
X3583837Y-10250605D01*
X3589966Y-10244022D01*
X4177247Y-9656741D01*
X4239559Y-9622715D01*
X4310374Y-9627780D01*
X4367210Y-9670327D01*
X4392021Y-9736847D01*
X4392342Y-9745836D01*
X4392342Y-9856204D01*
X4433233Y-10028737D01*
X4512811Y-10187189D01*
X4512815Y-10187194D01*
X4512817Y-10187197D01*
X4578766Y-10268154D01*
X5534119Y-11223507D01*
X5534124Y-11223511D01*
X5534125Y-11223512D01*
X5615085Y-11289463D01*
X5773537Y-11369041D01*
X5946070Y-11409932D01*
X5946072Y-11409932D01*
X6123380Y-11409932D01*
X6123382Y-11409932D01*
X6295915Y-11369041D01*
X6454367Y-11289463D01*
X6535326Y-11223512D01*
X7260880Y-10497958D01*
X7326831Y-10416999D01*
X7406409Y-10258547D01*
X7447300Y-10086014D01*
X7447300Y-9908702D01*
X7406409Y-9736169D01*
X7326831Y-9577717D01*
X7260880Y-9496757D01*
X7260879Y-9496756D01*
X7260875Y-9496751D01*
X6305522Y-8541398D01*
X6224565Y-8475449D01*
X6224562Y-8475447D01*
X6224557Y-8475443D01*
X6066105Y-8395865D01*
X5893572Y-8354974D01*
X5783204Y-8354974D01*
X5715083Y-8334972D01*
X5668590Y-8281316D01*
X5658486Y-8211042D01*
X5687980Y-8146462D01*
X5694109Y-8139879D01*
X6329182Y-7504806D01*
X7020471Y-6813517D01*
X7089800Y-6709759D01*
X7137555Y-6594469D01*
X7161900Y-6472078D01*
X7161900Y-6347291D01*
X7161900Y-4106006D01*
X7137555Y-3983615D01*
X7089800Y-3868325D01*
X7020471Y-3764567D01*
X6932233Y-3676329D01*
X6486757Y-3230853D01*
X6452731Y-3168541D01*
X6451403Y-3122047D01*
X6458500Y-3077238D01*
X6458500Y-2902762D01*
X6458500Y-2902759D01*
X6431205Y-2730426D01*
X6377288Y-2564484D01*
X6298074Y-2409019D01*
X6195517Y-2267861D01*
X6195514Y-2267858D01*
X6195512Y-2267855D01*
X6116752Y-2189095D01*
X6082726Y-2126783D01*
X6087791Y-2055968D01*
X6116752Y-2010905D01*
X6195512Y-1932144D01*
X6195517Y-1932139D01*
X6298074Y-1790981D01*
X6377288Y-1635516D01*
X6431205Y-1469574D01*
X6458500Y-1297241D01*
X6458500Y-1122759D01*
X6431205Y-950426D01*
X6377288Y-784484D01*
X6298074Y-629019D01*
X6195517Y-487861D01*
X6195514Y-487858D01*
X6195512Y-487855D01*
X6116752Y-409095D01*
X6082726Y-346783D01*
X6087791Y-275968D01*
X6116752Y-230905D01*
X6195512Y-152144D01*
X6195517Y-152139D01*
X6298074Y-10981D01*
X6377288Y144484D01*
X6377288Y144488D01*
X6379535Y148895D01*
X6380704Y148300D01*
X6421460Y198893D01*
X6488820Y221326D01*
X6537373Y213462D01*
X6578795Y198012D01*
X6578803Y198010D01*
X6639350Y191501D01*
X6639355Y191501D01*
X6639362Y191500D01*
X7173143Y191500D01*
X7318177Y191500D01*
X7386298Y171498D01*
X7432791Y117842D01*
X7442895Y47568D01*
X7434586Y17283D01*
X7432815Y13008D01*
X7432813Y13002D01*
X7432813Y13000D01*
X7418622Y-58343D01*
X7397900Y-162518D01*
X7397900Y-341481D01*
X7415238Y-428645D01*
X7432813Y-517000D01*
X7501298Y-682336D01*
X7600722Y-831135D01*
X7727265Y-957678D01*
X7876064Y-1057102D01*
X8041400Y-1125587D01*
X8216921Y-1160500D01*
X8216922Y-1160500D01*
X8395878Y-1160500D01*
X8395879Y-1160500D01*
X8558920Y-1128069D01*
X8629632Y-1134397D01*
X8685700Y-1177951D01*
X8709319Y-1244903D01*
X8709500Y-1251648D01*
X8709500Y-1898649D01*
X8716009Y-1959196D01*
X8716011Y-1959204D01*
X8767110Y-2096202D01*
X8767112Y-2096207D01*
X8854738Y-2213261D01*
X8971792Y-2300887D01*
X8971794Y-2300888D01*
X8971796Y-2300889D01*
X9030875Y-2322924D01*
X9108795Y-2351988D01*
X9108803Y-2351990D01*
X9169350Y-2358499D01*
X9169355Y-2358499D01*
X9169362Y-2358500D01*
X9169368Y-2358500D01*
X10866632Y-2358500D01*
X10866638Y-2358500D01*
X10866645Y-2358499D01*
X10866649Y-2358499D01*
X10927196Y-2351990D01*
X10927199Y-2351989D01*
X10927201Y-2351989D01*
X11064204Y-2300889D01*
X11181261Y-2213261D01*
X11268887Y-2096207D01*
X11268887Y-2096206D01*
X11268889Y-2096204D01*
X11312960Y-1978045D01*
X11319988Y-1959204D01*
X11319990Y-1959196D01*
X11326499Y-1898649D01*
X11326500Y-1898632D01*
X11326500Y198633D01*
X11326499Y198650D01*
X11319990Y259197D01*
X11319988Y259205D01*
X11268889Y396203D01*
X11268887Y396208D01*
X11181261Y513262D01*
X11064207Y600888D01*
X11064202Y600890D01*
X10927204Y651989D01*
X10927196Y651991D01*
X10866649Y658500D01*
X10866638Y658500D01*
X9790858Y658500D01*
X9722737Y678502D01*
X9676244Y732158D01*
X9666140Y802432D01*
X9686092Y854500D01*
X9761283Y967032D01*
X9822230Y1114169D01*
X9853300Y1270370D01*
X9853300Y1429630D01*
X9822230Y1585831D01*
X9761283Y1732968D01*
X9672803Y1865389D01*
X9672801Y1865391D01*
X9672796Y1865397D01*
X9560196Y1977997D01*
X9560190Y1978002D01*
X9551932Y1983520D01*
X9427768Y2066483D01*
X9280631Y2127430D01*
X9202530Y2142965D01*
X9124432Y2158500D01*
X9124430Y2158500D01*
X8965170Y2158500D01*
X8965167Y2158500D01*
X8848019Y2135198D01*
X8808969Y2127430D01*
X8661832Y2066483D01*
X8569417Y2004735D01*
X8551080Y1998993D01*
X8534916Y1988604D01*
X8503458Y1984081D01*
X8501667Y1983520D01*
X8499418Y1983500D01*
X8418726Y1983500D01*
X8350605Y2003502D01*
X8304112Y2057158D01*
X8293448Y2122968D01*
X8296499Y2151350D01*
X8296500Y2151367D01*
X8296500Y2548634D01*
X8296499Y2548646D01*
X8292426Y2586532D01*
X8292426Y2613470D01*
X8296499Y2651355D01*
X8296500Y2651367D01*
X8296500Y3048634D01*
X8296499Y3048646D01*
X8292426Y3086530D01*
X8292426Y3113470D01*
X8296499Y3151355D01*
X8296500Y3151367D01*
X8296500Y3548634D01*
X8296499Y3548644D01*
X8293797Y3573777D01*
X8289989Y3609201D01*
X8238889Y3746204D01*
X8199746Y3798492D01*
X8174937Y3865012D01*
X8190029Y3934386D01*
X8240231Y3984588D01*
X8294419Y3998419D01*
X8296000Y3999999D01*
X8296000Y4048586D01*
X8295999Y4048598D01*
X8289494Y4109094D01*
X8238444Y4245965D01*
X8238444Y4245966D01*
X8150904Y4362905D01*
X8033965Y4450445D01*
X7897093Y4501495D01*
X7836597Y4508000D01*
X7388000Y4508000D01*
X7388000Y4134500D01*
X7385408Y4125675D01*
X7386718Y4116568D01*
X7375562Y4092143D01*
X7367998Y4066379D01*
X7361044Y4060355D01*
X7357224Y4051988D01*
X7334638Y4037474D01*
X7314342Y4019886D01*
X7303655Y4017562D01*
X7297498Y4013604D01*
X7262000Y4008500D01*
X7214000Y4008500D01*
X7145879Y4028502D01*
X7099386Y4082158D01*
X7088000Y4134500D01*
X7088000Y4508000D01*
X7084700Y4508000D01*
X7016579Y4528002D01*
X6970086Y4581658D01*
X6958700Y4634000D01*
X6958700Y4997193D01*
X6958699Y4997197D01*
X6934355Y5119585D01*
X6886600Y5234875D01*
X6817271Y5338633D01*
X6729033Y5426871D01*
X6486757Y5669147D01*
X6452731Y5731459D01*
X6451403Y5777953D01*
X6458500Y5822762D01*
X6458500Y5997238D01*
X6450573Y6047288D01*
X6431205Y6169574D01*
X6377288Y6335516D01*
X6298074Y6490981D01*
X6289530Y6502740D01*
X6271214Y6527951D01*
X6256301Y6548477D01*
X6219848Y6598650D01*
X8709500Y6598650D01*
X8709500Y4501351D01*
X8716009Y4440804D01*
X8716011Y4440796D01*
X8767110Y4303798D01*
X8767112Y4303793D01*
X8854738Y4186739D01*
X8971792Y4099113D01*
X8971794Y4099112D01*
X8971796Y4099111D01*
X9030875Y4077076D01*
X9108795Y4048012D01*
X9108803Y4048010D01*
X9169350Y4041501D01*
X9169355Y4041501D01*
X9169362Y4041500D01*
X9169368Y4041500D01*
X10866632Y4041500D01*
X10866638Y4041500D01*
X10866645Y4041501D01*
X10866649Y4041501D01*
X10927196Y4048010D01*
X10927199Y4048011D01*
X10927201Y4048011D01*
X11064204Y4099111D01*
X11181261Y4186739D01*
X11268889Y4303796D01*
X11319989Y4440799D01*
X11326500Y4501362D01*
X11326500Y6598638D01*
X11326499Y6598650D01*
X11319990Y6659197D01*
X11319988Y6659205D01*
X11290924Y6737125D01*
X11268889Y6796204D01*
X11268888Y6796206D01*
X11268887Y6796208D01*
X11181261Y6913262D01*
X11064207Y7000888D01*
X11064202Y7000890D01*
X10927204Y7051989D01*
X10927196Y7051991D01*
X10866649Y7058500D01*
X10866638Y7058500D01*
X9169362Y7058500D01*
X9169350Y7058500D01*
X9108803Y7051991D01*
X9108795Y7051989D01*
X8971797Y7000890D01*
X8971792Y7000888D01*
X8854738Y6913262D01*
X8767112Y6796208D01*
X8767110Y6796203D01*
X8716011Y6659205D01*
X8716009Y6659197D01*
X8709500Y6598650D01*
X6219848Y6598650D01*
X6195517Y6632139D01*
X6195514Y6632142D01*
X6195512Y6632145D01*
X6116752Y6710905D01*
X6082726Y6773217D01*
X6087791Y6844032D01*
X6116752Y6889095D01*
X6195512Y6967856D01*
X6195517Y6967861D01*
X6298074Y7109019D01*
X6377288Y7264484D01*
X6431205Y7430426D01*
X6458500Y7602759D01*
X6458500Y7777241D01*
X6431205Y7949574D01*
X6377288Y8115516D01*
X6298074Y8270981D01*
X6195517Y8412139D01*
X6195514Y8412142D01*
X6195512Y8412145D01*
X6072144Y8535513D01*
X6072141Y8535515D01*
X6072139Y8535517D01*
X5930981Y8638074D01*
X5775516Y8717288D01*
X5775513Y8717289D01*
X5775511Y8717290D01*
X5609577Y8771204D01*
X5609574Y8771205D01*
X5437241Y8798500D01*
X5262759Y8798500D01*
X5090426Y8771205D01*
X5090423Y8771205D01*
X5090422Y8771204D01*
X4924488Y8717290D01*
X4924471Y8717283D01*
X4921941Y8715993D01*
X4920876Y8715794D01*
X4919908Y8715392D01*
X4919823Y8715596D01*
X4852164Y8702894D01*
X4786381Y8729599D01*
X4745479Y8787630D01*
X4738747Y8828264D01*
X4738747Y9594891D01*
X4738751Y9594901D01*
X4738747Y9639071D01*
X4738747Y9688875D01*
X4738747Y9703522D01*
X4738741Y9703570D01*
X4738741Y9712983D01*
X4738741Y9712984D01*
X4709891Y9857969D01*
X4653314Y9994541D01*
X4571183Y10117453D01*
X4571182Y10117454D01*
X4571176Y10117461D01*
X4466660Y10221977D01*
X4466653Y10221983D01*
X4343741Y10304114D01*
X4343739Y10304115D01*
X4343740Y10304115D01*
X4247188Y10344113D01*
X4207169Y10360691D01*
X4207167Y10360692D01*
X4207166Y10360692D01*
X4062191Y10389540D01*
X4062187Y10389541D01*
X4062184Y10389541D01*
X4062143Y10389542D01*
X4051307Y10389542D01*
X4051307Y10389543D01*
X4038082Y10389544D01*
X4038075Y10389547D01*
X3988272Y10389547D01*
X3988271Y10389547D01*
X3933123Y10389552D01*
X3933067Y10389547D01*
X-4027486Y10389547D01*
X-4028383Y10389460D01*
X-4039635Y10389461D01*
X-4039645Y10389460D01*
X-4184633Y10360634D01*
X-4321209Y10304077D01*
X-4444136Y10221957D01*
X-4548671Y10117440D01*
X-4548672Y10117439D01*
X-4630808Y9994537D01*
X-4630811Y9994531D01*
X-4687391Y9857974D01*
X-4687392Y9857970D01*
X-4687393Y9857967D01*
X-4716246Y9712984D01*
X-4716249Y9688887D01*
X-4716253Y9688875D01*
X-4716253Y9639082D01*
X-4716253Y9639060D01*
X-4716258Y9582913D01*
X-4716253Y9582862D01*
X-4716253Y7926241D01*
X-4736255Y7858120D01*
X-4789911Y7811627D01*
X-4860185Y7801523D01*
X-4899454Y7813973D01*
X-4924674Y7826823D01*
X-4924681Y7826826D01*
X-5090540Y7880716D01*
X-5090536Y7880716D01*
X-5262802Y7908000D01*
X-5437198Y7908000D01*
X-5609463Y7880716D01*
X-5775320Y7826826D01*
X-5775331Y7826821D01*
X-5930717Y7747647D01*
X-5935188Y7744399D01*
X-5340790Y7150000D01*
X-5396078Y7150000D01*
X-5485095Y7126148D01*
X-5564905Y7080070D01*
X-5630070Y7014905D01*
X-5676148Y6935095D01*
X-5700000Y6846078D01*
X-5700000Y6753922D01*
X-5676148Y6664905D01*
X-5630070Y6585095D01*
X-5564905Y6519930D01*
X-5485095Y6473852D01*
X-5396078Y6450000D01*
X-5340791Y6450000D01*
X-5706703Y6084088D01*
X-5756858Y6053351D01*
X-5775514Y6047289D01*
X-5930985Y5968072D01*
X-6072142Y5865515D01*
X-6072145Y5865513D01*
X-6195513Y5742145D01*
X-6195515Y5742142D01*
X-6298073Y5600985D01*
X-6369280Y5461232D01*
X-6418029Y5409617D01*
X-6486944Y5392551D01*
X-6547694Y5411194D01*
X-6654475Y5477058D01*
X-6822679Y5532794D01*
X-6822682Y5532795D01*
X-6926485Y5543400D01*
X-7348000Y5543400D01*
X-7348000Y3102401D01*
X-6926493Y3102401D01*
X-6822682Y3113006D01*
X-6654474Y3168744D01*
X-6639255Y3178131D01*
X-6570776Y3196872D01*
X-6503037Y3175614D01*
X-6457543Y3121109D01*
X-6448657Y3090609D01*
X-6431205Y2980426D01*
X-6377288Y2814484D01*
X-6298074Y2659019D01*
X-6195517Y2517861D01*
X-6195515Y2517859D01*
X-6195513Y2517856D01*
X-6116752Y2439095D01*
X-6112344Y2431022D01*
X-6104978Y2425508D01*
X-6095595Y2400350D01*
X-6082726Y2376783D01*
X-6083383Y2367606D01*
X-6080168Y2358987D01*
X-6085876Y2332753D01*
X-6087791Y2305968D01*
X-6093704Y2296769D01*
X-6095260Y2289613D01*
X-6116753Y2260903D01*
X-6156808Y2220849D01*
X-6219120Y2186825D01*
X-6289936Y2191891D01*
X-6346771Y2234438D01*
X-6353143Y2243800D01*
X-6377969Y2284049D01*
X-6377970Y2284051D01*
X-6377973Y2284054D01*
X-6377976Y2284058D01*
X-6503343Y2409425D01*
X-6503349Y2409430D01*
X-6551443Y2439095D01*
X-6654262Y2502515D01*
X-6822575Y2558287D01*
X-6822577Y2558288D01*
X-6822579Y2558288D01*
X-6926448Y2568900D01*
X-6926456Y2568900D01*
X-8277544Y2568900D01*
X-8277552Y2568900D01*
X-8381422Y2558288D01*
X-8549738Y2502515D01*
X-8549740Y2502514D01*
X-8700652Y2409430D01*
X-8700658Y2409425D01*
X-8826025Y2284058D01*
X-8826030Y2284052D01*
X-8919114Y2133140D01*
X-8919115Y2133138D01*
X-8974888Y1964822D01*
X-8985500Y1860953D01*
X-8985500Y834848D01*
X-8985501Y834848D01*
X-8974888Y730979D01*
X-8974888Y730977D01*
X-8974887Y730975D01*
X-8919115Y562662D01*
X-8888644Y513262D01*
X-8826030Y411749D01*
X-8826025Y411743D01*
X-8700658Y286376D01*
X-8700652Y286371D01*
X-8700651Y286370D01*
X-8549738Y193285D01*
X-8381425Y137513D01*
X-8348691Y134169D01*
X-8282959Y107348D01*
X-8242160Y49245D01*
X-8235500Y8822D01*
X-8235500Y-1687721D01*
X-8255502Y-1755842D01*
X-8309158Y-1802335D01*
X-8348691Y-1813068D01*
X-8381422Y-1816412D01*
X-8549738Y-1872185D01*
X-8549740Y-1872186D01*
X-8700652Y-1965270D01*
X-8700658Y-1965275D01*
X-8826025Y-2090642D01*
X-8826030Y-2090648D01*
X-8919114Y-2241560D01*
X-8919115Y-2241562D01*
X-8974888Y-2409878D01*
X-8985500Y-2513747D01*
X-8985500Y-3462204D01*
X-9005502Y-3530325D01*
X-9022404Y-3551299D01*
X-9905833Y-4434729D01*
X-9994073Y-4522969D01*
X-9994074Y-4522971D01*
X-10063399Y-4626723D01*
X-10111154Y-4742012D01*
X-10135500Y-4864403D01*
X-10135500Y-5456415D01*
X-10155502Y-5524536D01*
X-10156734Y-5526415D01*
X-10218482Y-5618829D01*
X-10218483Y-5618831D01*
X-10279429Y-5765967D01*
X-10279430Y-5765970D01*
X-10310500Y-5922167D01*
X-12566279Y-5922167D01*
X-12566279Y3809893D01*
X-8984999Y3809893D01*
X-8974395Y3706082D01*
X-8918658Y3537875D01*
X-8825634Y3387061D01*
X-8825629Y3387055D01*
X-8700346Y3261772D01*
X-8700340Y3261767D01*
X-8549526Y3168743D01*
X-8381322Y3113007D01*
X-8381318Y3113006D01*
X-8277516Y3102401D01*
X-7856000Y3102401D01*
X-7856000Y4068900D01*
X-8984999Y4068900D01*
X-8984999Y3809893D01*
X-12566279Y3809893D01*
X-12566279Y4835916D01*
X-8985000Y4835916D01*
X-8985000Y4576900D01*
X-7856000Y4576900D01*
X-7856000Y5543400D01*
X-8277508Y5543400D01*
X-8381319Y5532795D01*
X-8549526Y5477058D01*
X-8700340Y5384034D01*
X-8700346Y5384029D01*
X-8825629Y5258746D01*
X-8825634Y5258740D01*
X-8918658Y5107926D01*
X-8974394Y4939722D01*
X-8974395Y4939719D01*
X-8985000Y4835916D01*
X-12566279Y4835916D01*
X-12566279Y6887198D01*
X-6458000Y6887198D01*
X-6458000Y6712803D01*
X-6430716Y6540538D01*
X-6376826Y6374681D01*
X-6376823Y6374675D01*
X-6297645Y6219281D01*
X-6297644Y6219279D01*
X-6294400Y6214814D01*
X-6294399Y6214813D01*
X-5709211Y6800001D01*
X-6294399Y7385189D01*
X-6297647Y7380717D01*
X-6376821Y7225331D01*
X-6376826Y7225320D01*
X-6430716Y7059463D01*
X-6458000Y6887198D01*
X-12566279Y6887198D01*
X-12566279Y11703193D01*
X-4658999Y11703193D01*
X-4648395Y11599382D01*
X-4592658Y11431175D01*
X-4499634Y11280361D01*
X-4499629Y11280355D01*
X-4374346Y11155072D01*
X-4374340Y11155067D01*
X-4223526Y11062043D01*
X-4055322Y11006307D01*
X-4055318Y11006306D01*
X-3951516Y10995701D01*
X-3530000Y10995701D01*
X-3022000Y10995701D01*
X-2600493Y10995701D01*
X-2496682Y11006306D01*
X-2328475Y11062043D01*
X-2177661Y11155067D01*
X-2177655Y11155072D01*
X-2052372Y11280355D01*
X-2052367Y11280361D01*
X-1959343Y11431175D01*
X-1903607Y11599379D01*
X-1903606Y11599382D01*
X-1893001Y11703185D01*
X-1893000Y11703185D01*
X-1893000Y11703193D01*
X-1625299Y11703193D01*
X-1614695Y11599382D01*
X-1558958Y11431175D01*
X-1465934Y11280361D01*
X-1465929Y11280355D01*
X-1340646Y11155072D01*
X-1340640Y11155067D01*
X-1189826Y11062043D01*
X-1021622Y11006307D01*
X-1021618Y11006306D01*
X-917816Y10995701D01*
X-496300Y10995701D01*
X11700Y10995701D01*
X433207Y10995701D01*
X537018Y11006306D01*
X705225Y11062043D01*
X856039Y11155067D01*
X856045Y11155072D01*
X981328Y11280355D01*
X981333Y11280361D01*
X1074357Y11431175D01*
X1130093Y11599379D01*
X1130094Y11599382D01*
X1140699Y11703185D01*
X1140700Y11703185D01*
X1140700Y11962200D01*
X11700Y11962200D01*
X11700Y10995701D01*
X-496300Y10995701D01*
X-496300Y11962200D01*
X-1625299Y11962200D01*
X-1625299Y11703193D01*
X-1893000Y11703193D01*
X-1893000Y11962200D01*
X-3022000Y11962200D01*
X-3022000Y10995701D01*
X-3530000Y10995701D01*
X-3530000Y11962200D01*
X-4658999Y11962200D01*
X-4658999Y11703193D01*
X-12566279Y11703193D01*
X-12566279Y12729216D01*
X-4659000Y12729216D01*
X-4659000Y12470200D01*
X-3530000Y12470200D01*
X-3022000Y12470200D01*
X-1893001Y12470200D01*
X-1893001Y12729208D01*
X-1893002Y12729216D01*
X-1625300Y12729216D01*
X-1625300Y12470200D01*
X-496300Y12470200D01*
X11700Y12470200D01*
X1140699Y12470200D01*
X1140699Y12729208D01*
X1130094Y12833019D01*
X1074357Y13001226D01*
X981333Y13152040D01*
X981328Y13152046D01*
X856045Y13277329D01*
X856039Y13277334D01*
X705225Y13370358D01*
X537021Y13426094D01*
X537018Y13426095D01*
X433215Y13436700D01*
X11700Y13436700D01*
X11700Y12470200D01*
X-496300Y12470200D01*
X-496300Y13436700D01*
X-917808Y13436700D01*
X-1021619Y13426095D01*
X-1189826Y13370358D01*
X-1340640Y13277334D01*
X-1340646Y13277329D01*
X-1465929Y13152046D01*
X-1465934Y13152040D01*
X-1558958Y13001226D01*
X-1614694Y12833022D01*
X-1614695Y12833019D01*
X-1625300Y12729216D01*
X-1893002Y12729216D01*
X-1903606Y12833019D01*
X-1959343Y13001226D01*
X-2052367Y13152040D01*
X-2052372Y13152046D01*
X-2177655Y13277329D01*
X-2177661Y13277334D01*
X-2328475Y13370358D01*
X-2496679Y13426094D01*
X-2496682Y13426095D01*
X-2600485Y13436700D01*
X-3022000Y13436700D01*
X-3022000Y12470200D01*
X-3530000Y12470200D01*
X-3530000Y13436700D01*
X-3951508Y13436700D01*
X-4055319Y13426095D01*
X-4223526Y13370358D01*
X-4374340Y13277334D01*
X-4374346Y13277329D01*
X-4499629Y13152046D01*
X-4499634Y13152040D01*
X-4592658Y13001226D01*
X-4648394Y12833022D01*
X-4648395Y12833019D01*
X-4659000Y12729216D01*
X-12566279Y12729216D01*
X-12566279Y15317792D01*
X-12301300Y15317792D01*
X-12301300Y15064608D01*
X-12282799Y14947796D01*
X-12261693Y14814537D01*
X-12219552Y14684842D01*
X-12183456Y14573750D01*
X-12068513Y14348162D01*
X-11919695Y14143332D01*
X-11919693Y14143330D01*
X-11919691Y14143327D01*
X-11740674Y13964310D01*
X-11740671Y13964308D01*
X-11740668Y13964305D01*
X-11535838Y13815487D01*
X-11310250Y13700544D01*
X-11069458Y13622306D01*
X-10819392Y13582700D01*
X-10819389Y13582700D01*
X-10566211Y13582700D01*
X-10566208Y13582700D01*
X-10316142Y13622306D01*
X-10075350Y13700544D01*
X-9849762Y13815487D01*
X-9763072Y13878473D01*
X-9696205Y13902331D01*
X-9627053Y13886252D01*
X-9599915Y13865632D01*
X-9476459Y13742176D01*
X-9476453Y13742171D01*
X-9476452Y13742170D01*
X-9325539Y13649085D01*
X-9157227Y13593313D01*
X-9117273Y13589232D01*
X-9053354Y13582700D01*
X-9053346Y13582700D01*
X-7252246Y13582700D01*
X-7192894Y13588765D01*
X-7148373Y13593313D01*
X-6980061Y13649085D01*
X-6829148Y13742170D01*
X-6703770Y13867548D01*
X-6610685Y14018461D01*
X-6554913Y14186773D01*
X-6547938Y14255043D01*
X-6544300Y14290646D01*
X-6544300Y14431700D01*
X-6524298Y14499821D01*
X-6470642Y14546314D01*
X-6418300Y14557700D01*
X-4734381Y14557700D01*
X-4666260Y14537698D01*
X-4619767Y14484042D01*
X-4614779Y14471340D01*
X-4593115Y14405962D01*
X-4500030Y14255049D01*
X-4500025Y14255043D01*
X-4374658Y14129676D01*
X-4374652Y14129671D01*
X-4374651Y14129670D01*
X-4223738Y14036585D01*
X-4055425Y13980813D01*
X-4027094Y13977919D01*
X-3951552Y13970200D01*
X-3951544Y13970200D01*
X-2600448Y13970200D01*
X-2531202Y13977276D01*
X-2496575Y13980813D01*
X-2328262Y14036585D01*
X-2177349Y14129670D01*
X-2051970Y14255049D01*
X-1958885Y14405962D01*
X-1937224Y14471335D01*
X-1923128Y14491693D01*
X-1912843Y14514212D01*
X-1903282Y14520357D01*
X-1896810Y14529704D01*
X-1873946Y14539211D01*
X-1853117Y14552596D01*
X-1835740Y14555095D01*
X-1831253Y14556960D01*
X-1817619Y14557700D01*
X-1700681Y14557700D01*
X-1632560Y14537698D01*
X-1586067Y14484042D01*
X-1581079Y14471340D01*
X-1559415Y14405962D01*
X-1466330Y14255049D01*
X-1466325Y14255043D01*
X-1340958Y14129676D01*
X-1340952Y14129671D01*
X-1340951Y14129670D01*
X-1190038Y14036585D01*
X-1021725Y13980813D01*
X-993394Y13977919D01*
X-917852Y13970200D01*
X-917844Y13970200D01*
X433252Y13970200D01*
X502498Y13977276D01*
X537125Y13980813D01*
X705438Y14036585D01*
X841672Y14120616D01*
X910148Y14139353D01*
X977887Y14118094D01*
X996912Y14102470D01*
X2527845Y12571537D01*
X2561871Y12509225D01*
X2562329Y12507024D01*
X2584013Y12398012D01*
X2644960Y12250875D01*
X2722212Y12135258D01*
X2733441Y12118453D01*
X2733446Y12118447D01*
X2846046Y12005847D01*
X2846052Y12005842D01*
X2846054Y12005840D01*
X2978475Y11917360D01*
X3125612Y11856413D01*
X3281813Y11825343D01*
X3281814Y11825343D01*
X3441072Y11825343D01*
X3441073Y11825343D01*
X3597274Y11856413D01*
X3744411Y11917360D01*
X3876832Y12005840D01*
X3989446Y12118454D01*
X4077926Y12250875D01*
X4082210Y12261217D01*
X7216279Y12261217D01*
X7216279Y12009293D01*
X7223738Y11962200D01*
X7255690Y11760465D01*
X7333536Y11520881D01*
X7333538Y11520876D01*
X7333539Y11520875D01*
X7447911Y11296407D01*
X7484520Y11246020D01*
X7595986Y11092599D01*
X7595988Y11092597D01*
X7595990Y11092594D01*
X7774117Y10914467D01*
X7774120Y10914465D01*
X7774123Y10914462D01*
X7977934Y10766385D01*
X8202400Y10652014D01*
X8441994Y10574165D01*
X8690817Y10534755D01*
X8690820Y10534755D01*
X8942738Y10534755D01*
X8942741Y10534755D01*
X9191564Y10574165D01*
X9431158Y10652014D01*
X9655624Y10766385D01*
X9859435Y10914462D01*
X10037572Y11092599D01*
X10185649Y11296410D01*
X10300020Y11520876D01*
X10377869Y11760470D01*
X10417279Y12009293D01*
X10417279Y12261217D01*
X10377869Y12510040D01*
X10300020Y12749634D01*
X10185649Y12974100D01*
X10037572Y13177911D01*
X10037569Y13177914D01*
X10037567Y13177917D01*
X9859440Y13356044D01*
X9859437Y13356046D01*
X9859435Y13356048D01*
X9655624Y13504125D01*
X9431158Y13618496D01*
X9431155Y13618497D01*
X9431153Y13618498D01*
X9191569Y13696344D01*
X9191565Y13696345D01*
X9191564Y13696345D01*
X8942741Y13735755D01*
X8690817Y13735755D01*
X8441994Y13696345D01*
X8441988Y13696344D01*
X8202404Y13618498D01*
X8202398Y13618495D01*
X7977930Y13504123D01*
X7774120Y13356046D01*
X7774117Y13356044D01*
X7595990Y13177917D01*
X7595988Y13177914D01*
X7447911Y12974104D01*
X7333539Y12749636D01*
X7333536Y12749630D01*
X7255690Y12510046D01*
X7255689Y12510041D01*
X7255689Y12510040D01*
X7216279Y12261217D01*
X4082210Y12261217D01*
X4138873Y12398012D01*
X4169943Y12554213D01*
X4169943Y12713473D01*
X4138873Y12869674D01*
X4077926Y13016811D01*
X3989446Y13149232D01*
X3989444Y13149234D01*
X3989439Y13149240D01*
X3876839Y13261840D01*
X3876833Y13261845D01*
X3876832Y13261846D01*
X3744411Y13350326D01*
X3597274Y13411273D01*
X3522759Y13426095D01*
X3488262Y13432957D01*
X3425353Y13465865D01*
X3423749Y13467441D01*
X1207921Y15683269D01*
X1207919Y15683271D01*
X1187926Y15696630D01*
X1142400Y15751107D01*
X1132583Y15788583D01*
X1130587Y15808125D01*
X1074815Y15976438D01*
X981730Y16127351D01*
X981729Y16127352D01*
X981724Y16127358D01*
X856357Y16252725D01*
X856351Y16252730D01*
X705438Y16345815D01*
X537125Y16401587D01*
X537123Y16401588D01*
X537121Y16401588D01*
X433252Y16412200D01*
X433244Y16412200D01*
X-917844Y16412200D01*
X-917852Y16412200D01*
X-1021722Y16401588D01*
X-1190038Y16345815D01*
X-1190040Y16345814D01*
X-1340952Y16252730D01*
X-1340958Y16252725D01*
X-1466325Y16127358D01*
X-1466330Y16127352D01*
X-1559415Y15976439D01*
X-1581076Y15911067D01*
X-1595173Y15890708D01*
X-1605457Y15868188D01*
X-1615019Y15862044D01*
X-1621490Y15852696D01*
X-1644355Y15843190D01*
X-1665183Y15829804D01*
X-1682561Y15827306D01*
X-1687047Y15825440D01*
X-1700681Y15824700D01*
X-1817619Y15824700D01*
X-1885740Y15844702D01*
X-1932233Y15898358D01*
X-1937224Y15911067D01*
X-1958885Y15976438D01*
X-2051970Y16127351D01*
X-2051971Y16127352D01*
X-2051976Y16127358D01*
X-2177343Y16252725D01*
X-2177349Y16252730D01*
X-2328262Y16345815D01*
X-2496575Y16401587D01*
X-2496577Y16401588D01*
X-2496579Y16401588D01*
X-2600448Y16412200D01*
X-2600456Y16412200D01*
X-3951544Y16412200D01*
X-3951552Y16412200D01*
X-4055422Y16401588D01*
X-4223738Y16345815D01*
X-4223740Y16345814D01*
X-4374652Y16252730D01*
X-4374658Y16252725D01*
X-4500025Y16127358D01*
X-4500030Y16127352D01*
X-4593115Y15976439D01*
X-4614776Y15911067D01*
X-4655190Y15852696D01*
X-4720747Y15825440D01*
X-4734381Y15824700D01*
X-6418300Y15824700D01*
X-6486421Y15844702D01*
X-6532914Y15898358D01*
X-6544300Y15950700D01*
X-6544300Y16091755D01*
X-6551123Y16158527D01*
X-6554913Y16195627D01*
X-6610685Y16363939D01*
X-6703770Y16514852D01*
X-6703771Y16514853D01*
X-6703776Y16514859D01*
X-6829142Y16640225D01*
X-6829148Y16640230D01*
X-6980061Y16733315D01*
X-7064217Y16761201D01*
X-7148372Y16789087D01*
X-7148379Y16789088D01*
X-7252246Y16799700D01*
X-7252254Y16799700D01*
X-9053346Y16799700D01*
X-9053354Y16799700D01*
X-9157222Y16789088D01*
X-9157229Y16789087D01*
X-9325539Y16733315D01*
X-9476453Y16640230D01*
X-9476459Y16640225D01*
X-9599914Y16516769D01*
X-9662226Y16482743D01*
X-9733041Y16487808D01*
X-9763070Y16503928D01*
X-9849759Y16566911D01*
X-9849760Y16566912D01*
X-9849762Y16566913D01*
X-10075350Y16681856D01*
X-10075353Y16681857D01*
X-10075355Y16681858D01*
X-10316137Y16760093D01*
X-10316141Y16760094D01*
X-10316142Y16760094D01*
X-10566208Y16799700D01*
X-10819392Y16799700D01*
X-11069458Y16760094D01*
X-11069464Y16760093D01*
X-11310246Y16681858D01*
X-11310252Y16681855D01*
X-11535842Y16566911D01*
X-11740671Y16418093D01*
X-11740674Y16418091D01*
X-11919691Y16239074D01*
X-11919693Y16239071D01*
X-12068511Y16034242D01*
X-12183455Y15808652D01*
X-12183458Y15808646D01*
X-12261693Y15567864D01*
X-12261694Y15567859D01*
X-12261694Y15567858D01*
X-12301300Y15317792D01*
X-12566279Y15317792D01*
X-12566279Y17792213D01*
X-12565672Y17804563D01*
X-12555811Y17904686D01*
X-12551172Y17951786D01*
X-12546356Y17975996D01*
X-12505218Y18111611D01*
X-12495767Y18134426D01*
X-12428960Y18259413D01*
X-12415251Y18279931D01*
X-12325331Y18389497D01*
X-12307874Y18406951D01*
X-12305607Y18408811D01*
X-12198329Y18496850D01*
X-12177800Y18510568D01*
X-12052804Y18577378D01*
X-12030004Y18586821D01*
X-11894379Y18627960D01*
X-11870174Y18632774D01*
X-11722718Y18647295D01*
X-11710385Y18647900D01*
X-11672614Y18647900D01*
X5010809Y18647900D01*
X5016463Y18647773D01*
G37*
G04 #@! TD.AperFunction*
G04 #@! TA.AperFunction,NonConductor*
G36*
X3385658Y-8440455D02*
G01*
X3432151Y-8494111D01*
X3442255Y-8564385D01*
X3412761Y-8628965D01*
X3406632Y-8635548D01*
X1609842Y-10432337D01*
X1547530Y-10466363D01*
X1476714Y-10461298D01*
X1419879Y-10418751D01*
X1395068Y-10352231D01*
X1394747Y-10343242D01*
X1394747Y-9369400D01*
X1384134Y-9265531D01*
X1384134Y-9265528D01*
X1328362Y-9097215D01*
X1235277Y-8946302D01*
X1235276Y-8946301D01*
X1235271Y-8946295D01*
X1109904Y-8820928D01*
X1109898Y-8820923D01*
X1049474Y-8783653D01*
X958985Y-8727838D01*
X790672Y-8672066D01*
X790670Y-8672065D01*
X790668Y-8672065D01*
X788069Y-8671800D01*
X786567Y-8671187D01*
X783945Y-8670626D01*
X784045Y-8670158D01*
X722334Y-8644978D01*
X681536Y-8586875D01*
X678627Y-8515938D01*
X714531Y-8454689D01*
X777850Y-8422575D01*
X800876Y-8420453D01*
X3317537Y-8420453D01*
X3385658Y-8440455D01*
G37*
G04 #@! TD.AperFunction*
G04 #@! TA.AperFunction,Conductor*
G36*
X-4498421Y-9569555D02*
G01*
X-4268969Y-9764575D01*
X-4143447Y-9891268D01*
X-4026989Y-10027070D01*
X-3953181Y-10130094D01*
X-3897012Y-10230231D01*
X-3869912Y-10300618D01*
X-3857669Y-10366119D01*
X-3857204Y-10377874D01*
X-2988046Y-9883160D01*
X-3709423Y-9188983D01*
X-3728143Y-9250889D01*
X-3753993Y-9303625D01*
X-3824324Y-9384630D01*
X-3918639Y-9437227D01*
X-4036818Y-9461156D01*
X-4171899Y-9452069D01*
X-4239231Y-9433985D01*
X-4295434Y-9409358D01*
X-4321645Y-9392779D01*
X-4498421Y-9569555D01*
G37*
G04 #@! TD.AperFunction*
G04 #@! TA.AperFunction,Conductor*
G36*
X2852867Y12965642D02*
G01*
X2912885Y12898985D01*
X2952953Y12840734D01*
X2996815Y12734920D01*
X3005236Y12705310D01*
X3039360Y12601112D01*
X3112002Y12467172D01*
X3362150Y12633136D01*
X3528114Y12883284D01*
X3384995Y12959604D01*
X3289976Y12990050D01*
X3171186Y13033174D01*
X3105681Y13075120D01*
X3029644Y13142419D01*
X2852867Y12965642D01*
G37*
G04 #@! TD.AperFunction*
G04 #@! TA.AperFunction,Conductor*
G36*
X7938000Y1475000D02*
G01*
X7898307Y1468311D01*
X7825338Y1459141D01*
X7798555Y1469872D01*
X7788000Y1500000D01*
X7237000Y1350000D01*
X7788000Y1200000D01*
X7792662Y1222186D01*
X7805299Y1235116D01*
X7848104Y1240685D01*
X7898307Y1231689D01*
X7938000Y1225000D01*
X7938000Y1475000D01*
G37*
G04 #@! TD.AperFunction*
G04 #@! TA.AperFunction,Conductor*
G36*
X6538000Y1725000D02*
G01*
X6577693Y1731689D01*
X6650662Y1740859D01*
X6677445Y1730128D01*
X6688000Y1700000D01*
X7239000Y1850000D01*
X6688000Y2000000D01*
X6683338Y1977814D01*
X6670701Y1964884D01*
X6627896Y1959315D01*
X6577693Y1968311D01*
X6538000Y1975000D01*
X6538000Y1725000D01*
G37*
G04 #@! TD.AperFunction*
G04 #@! TA.AperFunction,Conductor*
G36*
X-8715408Y-4316984D02*
G01*
X-8548547Y-4177672D01*
X-8300411Y-4023645D01*
X-8153010Y-3949912D01*
X-7997539Y-3883732D01*
X-7844118Y-3829552D01*
X-7688994Y-3786335D01*
X-7550167Y-3758438D01*
X-7414244Y-3742477D01*
X-7306872Y-3739299D01*
X-7601293Y-3026093D01*
X-8477000Y-2894171D01*
X-8459854Y-3065165D01*
X-8478023Y-3270904D01*
X-8537208Y-3508042D01*
X-8638788Y-3760373D01*
X-8703282Y-3882669D01*
X-8771845Y-3992033D01*
X-8892184Y-4140208D01*
X-8715408Y-4316984D01*
G37*
G04 #@! TD.AperFunction*
G04 #@! TA.AperFunction,Conductor*
G36*
X1172629Y-11588679D02*
G01*
X1010826Y-11722970D01*
X771237Y-11868943D01*
X626915Y-11939221D01*
X474083Y-12002294D01*
X319575Y-12055050D01*
X162431Y-12097352D01*
X18371Y-12125429D01*
X-123560Y-12141862D01*
X-272002Y-12144953D01*
X10540Y-12858160D01*
X886246Y-13011114D01*
X878438Y-12838099D01*
X907671Y-12628617D01*
X979950Y-12386082D01*
X1095844Y-12127942D01*
X1167147Y-12003564D01*
X1241421Y-11893371D01*
X1349405Y-11765455D01*
X1172629Y-11588679D01*
G37*
G04 #@! TD.AperFunction*
G04 #@! TA.AperFunction,Conductor*
G36*
X6538000Y3225000D02*
G01*
X6577693Y3231689D01*
X6650662Y3240859D01*
X6677445Y3230128D01*
X6688000Y3200000D01*
X7239000Y3350000D01*
X6688000Y3500000D01*
X6683338Y3477814D01*
X6670701Y3464884D01*
X6627896Y3459315D01*
X6577693Y3468311D01*
X6538000Y3475000D01*
X6538000Y3225000D01*
G37*
G04 #@! TD.AperFunction*
G04 #@! TA.AperFunction,Conductor*
G36*
X6538000Y2725000D02*
G01*
X6577693Y2731689D01*
X6650662Y2740859D01*
X6677445Y2730128D01*
X6688000Y2700000D01*
X7239000Y2850000D01*
X6688000Y3000000D01*
X6683338Y2977814D01*
X6670701Y2964884D01*
X6627896Y2959315D01*
X6577693Y2968311D01*
X6538000Y2975000D01*
X6538000Y2725000D01*
G37*
G04 #@! TD.AperFunction*
G04 #@! TA.AperFunction,Conductor*
G36*
X6075312Y3245255D02*
G01*
X6009022Y3318423D01*
X5960845Y3386466D01*
X5930110Y3446491D01*
X5911229Y3504056D01*
X5901543Y3619736D01*
X5925590Y3779614D01*
X5956111Y3984585D01*
X5956692Y4106914D01*
X5938471Y4247054D01*
X5349293Y4130707D01*
X5016658Y3631118D01*
X5269437Y3481028D01*
X5409619Y3413505D01*
X5518626Y3361255D01*
X5627735Y3297799D01*
X5750015Y3205940D01*
X5898535Y3068478D01*
X6075312Y3245255D01*
G37*
G04 #@! TD.AperFunction*
G04 #@! TA.AperFunction,Conductor*
G36*
X-1688501Y15316200D02*
G01*
X-1844006Y15335696D01*
X-2053521Y15403467D01*
X-2159832Y15453808D01*
X-2262030Y15514474D01*
X-2345789Y15576417D01*
X-2420099Y15645640D01*
X-2473851Y15710187D01*
X-2516773Y15779510D01*
X-2555330Y15884670D01*
X-3277000Y15191200D01*
X-2555330Y14497730D01*
X-2509671Y14616173D01*
X-2423499Y14733131D01*
X-2292233Y14847102D01*
X-2115643Y14950927D01*
X-1909201Y15030019D01*
X-1807864Y15054067D01*
X-1717072Y15065367D01*
X-1688501Y15066200D01*
X-1688501Y15316200D01*
G37*
G04 #@! TD.AperFunction*
G04 #@! TA.AperFunction,Conductor*
G36*
X-4863499Y15066200D02*
G01*
X-4707994Y15046704D01*
X-4498479Y14978933D01*
X-4392168Y14928592D01*
X-4289969Y14867926D01*
X-4206210Y14805983D01*
X-4131901Y14736761D01*
X-4078149Y14672213D01*
X-4035227Y14602890D01*
X-3996670Y14497730D01*
X-3275000Y15191200D01*
X-3996670Y15884670D01*
X-4042329Y15766227D01*
X-4128500Y15649269D01*
X-4259766Y15535299D01*
X-4436355Y15431473D01*
X-4642798Y15352381D01*
X-4744135Y15328333D01*
X-4834927Y15317033D01*
X-4863499Y15316200D01*
X-4863499Y15066200D01*
G37*
G04 #@! TD.AperFunction*
G04 #@! TA.AperFunction,Conductor*
G36*
X-9627000Y-5407564D02*
G01*
X-9631694Y-5497137D01*
X-9644552Y-5566659D01*
X-9688358Y-5672495D01*
X-9703342Y-5699388D01*
X-9752892Y-5797197D01*
X-9796236Y-5943273D01*
X-9502000Y-6002800D01*
X-9207764Y-5943273D01*
X-9254998Y-5788106D01*
X-9300658Y-5699388D01*
X-9354163Y-5584898D01*
X-9370822Y-5508918D01*
X-9377000Y-5407564D01*
X-9627000Y-5407564D01*
G37*
G04 #@! TD.AperFunction*
G04 #@! TA.AperFunction,Conductor*
G36*
X6278764Y5158013D02*
G01*
X6176292Y5267630D01*
X6103521Y5362135D01*
X6061622Y5433145D01*
X6032252Y5502036D01*
X5996283Y5655620D01*
X5982771Y5751086D01*
X5938471Y6027054D01*
X5349293Y5910707D01*
X5232946Y5321529D01*
X5508914Y5277229D01*
X5665997Y5252706D01*
X5800263Y5210990D01*
X5937123Y5128395D01*
X6101987Y4981236D01*
X6278764Y5158013D01*
G37*
G04 #@! TD.AperFunction*
G04 #@! TA.AperFunction,Conductor*
G36*
X-6052801Y15316200D02*
G01*
X-6205773Y15335607D01*
X-6407375Y15402339D01*
X-6518224Y15454953D01*
X-6628140Y15518581D01*
X-6730046Y15589428D01*
X-6825417Y15669042D01*
X-6903664Y15747947D01*
X-6972254Y15832930D01*
X-7023272Y15912831D01*
X-7063687Y15996737D01*
X-7089674Y16074830D01*
X-7105037Y16155585D01*
X-7108131Y16191200D01*
X-8153800Y15191200D01*
X-7108131Y14191200D01*
X-7080995Y14337572D01*
X-7014700Y14484476D01*
X-6906133Y14631698D01*
X-6752973Y14775164D01*
X-6559059Y14905208D01*
X-6342233Y15005828D01*
X-6236984Y15039090D01*
X-6138810Y15059468D01*
X-6052801Y15066200D01*
X-6052801Y15316200D01*
G37*
G04 #@! TD.AperFunction*
G04 #@! TA.AperFunction,Conductor*
G36*
X-7727000Y-1601801D02*
G01*
X-7746480Y-1739396D01*
X-7774542Y-1829859D01*
X-7814179Y-1923592D01*
X-7864133Y-2015439D01*
X-7924239Y-2102586D01*
X-7985212Y-2172406D01*
X-8053246Y-2232829D01*
X-8116789Y-2275048D01*
X-8184973Y-2306723D01*
X-8248141Y-2324443D01*
X-8314500Y-2331705D01*
X-7602000Y-3027800D01*
X-6889500Y-2331704D01*
X-7009931Y-2309945D01*
X-7126717Y-2250318D01*
X-7240036Y-2149912D01*
X-7344939Y-2007054D01*
X-7429087Y-1830869D01*
X-7457564Y-1739223D01*
X-7473558Y-1655113D01*
X-7477000Y-1601801D01*
X-7727000Y-1601801D01*
G37*
G04 #@! TD.AperFunction*
G04 #@! TA.AperFunction,Conductor*
G36*
X-6101987Y-3028764D02*
G01*
X-5992370Y-2926292D01*
X-5897865Y-2853521D01*
X-5826855Y-2811622D01*
X-5757965Y-2782252D01*
X-5604381Y-2746283D01*
X-5508914Y-2732771D01*
X-5232946Y-2688471D01*
X-5349293Y-2099293D01*
X-5938471Y-1982946D01*
X-5982772Y-2258915D01*
X-6007294Y-2415998D01*
X-6049011Y-2550264D01*
X-6131605Y-2687123D01*
X-6278764Y-2851987D01*
X-6101987Y-3028764D01*
G37*
G04 #@! TD.AperFunction*
G04 #@! TA.AperFunction,Conductor*
G36*
X6538000Y2225000D02*
G01*
X6577693Y2231689D01*
X6650662Y2240859D01*
X6677445Y2230128D01*
X6688000Y2200000D01*
X7239000Y2350000D01*
X6688000Y2500000D01*
X6683338Y2477814D01*
X6670701Y2464884D01*
X6627896Y2459315D01*
X6577693Y2468311D01*
X6538000Y2475000D01*
X6538000Y2225000D01*
G37*
G04 #@! TD.AperFunction*
G04 #@! TA.AperFunction,Conductor*
G36*
X8178899Y425370D02*
G01*
X8215669Y381712D01*
X8235594Y341857D01*
X8240816Y309573D01*
X8236196Y278829D01*
X8198454Y214104D01*
X8120913Y134629D01*
X8045772Y59862D01*
X7973812Y-29772D01*
X8307107Y-252707D01*
X8698714Y-173964D01*
X8657253Y95902D01*
X8636735Y237773D01*
X8599813Y360653D01*
X8525055Y486557D01*
X8391030Y637501D01*
X8178899Y425370D01*
G37*
G04 #@! TD.AperFunction*
G04 #@! TA.AperFunction,Conductor*
G36*
X6538471Y2475000D02*
G01*
X6388502Y2480053D01*
X6270221Y2495421D01*
X6190382Y2516005D01*
X6120901Y2543951D01*
X5986867Y2627117D01*
X5909809Y2685066D01*
X5683342Y2848882D01*
X5349000Y2350000D01*
X5683342Y1851118D01*
X5909807Y2014933D01*
X6038222Y2108667D01*
X6162660Y2174110D01*
X6317838Y2212481D01*
X6538471Y2225000D01*
X6538471Y2475000D01*
G37*
G04 #@! TD.AperFunction*
G04 #@! TA.AperFunction,Conductor*
G36*
X5963737Y1604514D02*
G01*
X5861042Y1508572D01*
X5770039Y1436547D01*
X5612986Y1345080D01*
X5460529Y1286281D01*
X5267799Y1211098D01*
X5151852Y1152094D01*
X5016658Y1068882D01*
X5349293Y569293D01*
X5938471Y452946D01*
X5962430Y659605D01*
X5951969Y886311D01*
X5943252Y1019415D01*
X5957622Y1145456D01*
X5980096Y1209843D01*
X6016301Y1277281D01*
X6068890Y1349377D01*
X6140514Y1427737D01*
X5963737Y1604514D01*
G37*
G04 #@! TD.AperFunction*
G04 #@! TA.AperFunction,Conductor*
G36*
X8450564Y1225000D02*
G01*
X8540137Y1220306D01*
X8609659Y1207448D01*
X8715496Y1163642D01*
X8742388Y1148658D01*
X8840197Y1099109D01*
X8986273Y1055764D01*
X9045800Y1350000D01*
X8986273Y1644236D01*
X8831106Y1597002D01*
X8742388Y1551342D01*
X8627897Y1497837D01*
X8551918Y1481178D01*
X8450564Y1475000D01*
X8450564Y1225000D01*
G37*
G04 #@! TD.AperFunction*
G04 #@! TA.AperFunction,Conductor*
G36*
X-7477000Y-77099D02*
G01*
X-7457520Y60496D01*
X-7429458Y150959D01*
X-7389821Y244692D01*
X-7339867Y336540D01*
X-7279761Y423686D01*
X-7218788Y493507D01*
X-7150754Y553930D01*
X-7087211Y596148D01*
X-7019027Y627823D01*
X-6955859Y645544D01*
X-6889500Y652806D01*
X-7602000Y1348900D01*
X-8314500Y652805D01*
X-8194068Y631045D01*
X-8077282Y571419D01*
X-7963963Y471011D01*
X-7859061Y328154D01*
X-7774912Y151969D01*
X-7746436Y60323D01*
X-7730442Y-23787D01*
X-7727000Y-77099D01*
X-7477000Y-77099D01*
G37*
G04 #@! TD.AperFunction*
G04 #@! TA.AperFunction,Conductor*
G36*
X6278764Y-3741987D02*
G01*
X6176292Y-3632370D01*
X6103521Y-3537865D01*
X6061622Y-3466855D01*
X6032252Y-3397964D01*
X5996283Y-3244380D01*
X5982771Y-3148914D01*
X5938471Y-2872946D01*
X5349293Y-2989293D01*
X5232946Y-3578471D01*
X5508914Y-3622771D01*
X5665997Y-3647294D01*
X5800263Y-3689010D01*
X5937123Y-3771605D01*
X6101987Y-3918764D01*
X6278764Y-3741987D01*
G37*
G04 #@! TD.AperFunction*
M02*
