M48
; DRILL file {KiCad 9.0.2} date 2026-01-21T13:25:43+0800
; FORMAT={-:-/ absolute / inch / decimal}
; #@! TF.CreationDate,2026-01-21T13:25:43+08:00
; #@! TF.GenerationSoftware,Kicad,Pcbnew,9.0.2
; #@! TF.FileFunction,Plated,1,2,PTH
FMAT,2
INCH
; #@! TA.AperFunction,Plated,PTH,ViaDrill
T1C0.0118
; #@! TA.AperFunction,Plated,PTH,ViaDrill
T2C0.0157
; #@! TA.AperFunction,Plated,PTH,ComponentDrill
T3C0.0276
; #@! TA.AperFunction,Plated,PTH,ComponentDrill
T4C0.0433
%
G90
G05
T1
X-0.3741Y-0.2363
X0.1323Y0.4974
X0.3561Y0.0531
T2
X-0.381Y-0.0719
X-0.2993Y-0.2363
X-0.223Y0.3501
X0.0004Y-0.3891
X0.2331Y-0.3891
X0.327Y-0.0099
X0.405Y0.3181
T3
X-0.2106Y0.2677
X-0.2106Y0.1976
X-0.2106Y0.1276
X-0.2106Y0.0575
X-0.2106Y-0.0126
X-0.2106Y-0.0827
X-0.2106Y-0.1528
X-0.2106Y-0.2228
X0.2106Y0.3028
X0.2106Y0.2327
X0.2106Y0.1626
X0.2106Y0.0925
X0.2106Y0.0224
X0.2106Y-0.0476
X0.2106Y-0.1177
X0.2106Y-0.1878
T4
X-0.421Y0.5981
X-0.321Y0.5981
M30
