G04 #@! TF.GenerationSoftware,KiCad,Pcbnew,9.0.2*
G04 #@! TF.CreationDate,2026-01-21T13:25:44+08:00*
G04 #@! TF.ProjectId,pmw3360_fsr,706d7733-3336-4305-9f66-73722e6b6963,rev?*
G04 #@! TF.SameCoordinates,PX4d3f640PY69db9c0*
G04 #@! TF.FileFunction,Soldermask,Top*
G04 #@! TF.FilePolarity,Negative*
%FSLAX46Y46*%
G04 Gerber Fmt 4.6, Leading zero omitted, Abs format (unit mm)*
G04 Created by KiCad (PCBNEW 9.0.2) date 2026-01-21 13:25:44*
%MOMM*%
%LPD*%
G01*
G04 APERTURE LIST*
G04 APERTURE END LIST*
G36*
X-8699049Y-10489344D02*
G01*
X-8687243Y-10489344D01*
X-8629116Y-10498550D01*
X-8494737Y-10516241D01*
X-8461942Y-10525028D01*
X-8431361Y-10529872D01*
X-8372550Y-10548981D01*
X-8286168Y-10572127D01*
X-8231055Y-10594955D01*
X-8184969Y-10609930D01*
X-8141792Y-10631929D01*
X-8086680Y-10654758D01*
X-8009240Y-10699468D01*
X-7954134Y-10727546D01*
X-7929082Y-10745747D01*
X-7899683Y-10762721D01*
X-7792128Y-10845250D01*
X-7744540Y-10879825D01*
X-7736200Y-10888165D01*
X-7728378Y-10894167D01*
X-7575692Y-11046853D01*
X-7569691Y-11054674D01*
X-7561349Y-11063016D01*
X-7526771Y-11110609D01*
X-7444246Y-11218158D01*
X-7427274Y-11247554D01*
X-7409070Y-11272610D01*
X-7380990Y-11327721D01*
X-7336283Y-11405155D01*
X-7313458Y-11460261D01*
X-7291454Y-11503445D01*
X-7276478Y-11549537D01*
X-7253652Y-11604643D01*
X-7230510Y-11691012D01*
X-7211396Y-11749837D01*
X-7206552Y-11780424D01*
X-7197766Y-11813212D01*
X-7180076Y-11947582D01*
X-7170868Y-12005719D01*
X-7170868Y-12017524D01*
X-7169582Y-12027293D01*
X-7169582Y-12243216D01*
X-7170868Y-12252984D01*
X-7170868Y-12264791D01*
X-7180077Y-12322932D01*
X-7197766Y-12457297D01*
X-7206551Y-12490082D01*
X-7211396Y-12520673D01*
X-7230511Y-12579501D01*
X-7253652Y-12665866D01*
X-7276477Y-12720968D01*
X-7291454Y-12767065D01*
X-7313460Y-12810252D01*
X-7336283Y-12865354D01*
X-7380986Y-12942780D01*
X-7409070Y-12997900D01*
X-7427277Y-13022959D01*
X-7444246Y-13052351D01*
X-7526757Y-13159882D01*
X-7561349Y-13207494D01*
X-7569694Y-13215838D01*
X-7575692Y-13223656D01*
X-7728378Y-13376342D01*
X-7736196Y-13382340D01*
X-7744540Y-13390685D01*
X-7792152Y-13425277D01*
X-7899683Y-13507788D01*
X-7929075Y-13524757D01*
X-7954134Y-13542964D01*
X-8009254Y-13571048D01*
X-8086680Y-13615751D01*
X-8141782Y-13638574D01*
X-8184969Y-13660580D01*
X-8231066Y-13675557D01*
X-8286168Y-13698382D01*
X-8372533Y-13721523D01*
X-8431361Y-13740638D01*
X-8461952Y-13745483D01*
X-8494737Y-13754268D01*
X-8629102Y-13771957D01*
X-8687243Y-13781166D01*
X-8699050Y-13781166D01*
X-8708818Y-13782452D01*
X-8924740Y-13782452D01*
X-8934508Y-13781166D01*
X-8946315Y-13781166D01*
X-9004455Y-13771957D01*
X-9138822Y-13754268D01*
X-9171610Y-13745482D01*
X-9202197Y-13740638D01*
X-9261022Y-13721524D01*
X-9347391Y-13698382D01*
X-9402497Y-13675556D01*
X-9448589Y-13660580D01*
X-9491773Y-13638576D01*
X-9546879Y-13615751D01*
X-9624313Y-13571044D01*
X-9679424Y-13542964D01*
X-9704480Y-13524760D01*
X-9733876Y-13507788D01*
X-9841425Y-13425263D01*
X-9889018Y-13390685D01*
X-9897360Y-13382343D01*
X-9905181Y-13376342D01*
X-10057867Y-13223656D01*
X-10063869Y-13215834D01*
X-10072209Y-13207494D01*
X-10106784Y-13159906D01*
X-10189313Y-13052351D01*
X-10206287Y-13022952D01*
X-10224488Y-12997900D01*
X-10252566Y-12942794D01*
X-10297276Y-12865354D01*
X-10320105Y-12810242D01*
X-10342104Y-12767065D01*
X-10357079Y-12720979D01*
X-10379907Y-12665866D01*
X-10403053Y-12579484D01*
X-10422162Y-12520673D01*
X-10427006Y-12490092D01*
X-10435793Y-12457297D01*
X-10453484Y-12322918D01*
X-10462690Y-12264791D01*
X-10462690Y-12252984D01*
X-10463976Y-12243216D01*
X-10463976Y-12027293D01*
X-10462690Y-12017524D01*
X-10462690Y-12005719D01*
X-10453485Y-11947596D01*
X-10435793Y-11813212D01*
X-10427006Y-11780415D01*
X-10422162Y-11749837D01*
X-10403055Y-11691030D01*
X-10379907Y-11604643D01*
X-10357077Y-11549526D01*
X-10342104Y-11503445D01*
X-10320107Y-11460271D01*
X-10297276Y-11405155D01*
X-10252562Y-11327706D01*
X-10224488Y-11272610D01*
X-10206290Y-11247561D01*
X-10189313Y-11218158D01*
X-10106770Y-11110584D01*
X-10072209Y-11063016D01*
X-10063873Y-11054679D01*
X-10057867Y-11046853D01*
X-9905181Y-10894167D01*
X-9897355Y-10888161D01*
X-9889018Y-10879825D01*
X-9841450Y-10845264D01*
X-9733876Y-10762721D01*
X-9704473Y-10745744D01*
X-9679424Y-10727546D01*
X-9624328Y-10699472D01*
X-9546879Y-10654758D01*
X-9491763Y-10631927D01*
X-9448589Y-10609930D01*
X-9402508Y-10594957D01*
X-9347391Y-10572127D01*
X-9261004Y-10548979D01*
X-9202197Y-10529872D01*
X-9171619Y-10525028D01*
X-9138822Y-10516241D01*
X-9004441Y-10498550D01*
X-8946315Y-10489344D01*
X-8934509Y-10489344D01*
X-8924740Y-10488058D01*
X-8708818Y-10488058D01*
X-8699049Y-10489344D01*
G37*
G36*
X705160Y-12101948D02*
G01*
X720972Y-12108929D01*
X728778Y-12110166D01*
X761291Y-12126732D01*
X806353Y-12146629D01*
X884571Y-12224847D01*
X904470Y-12269915D01*
X921033Y-12302421D01*
X922269Y-12310225D01*
X929252Y-12326040D01*
X937246Y-12394955D01*
X937246Y-12404784D01*
X937247Y-12404791D01*
X937247Y-12865354D01*
X937247Y-13319952D01*
X929252Y-13388866D01*
X922268Y-13404681D01*
X921033Y-13412484D01*
X904473Y-13444983D01*
X884571Y-13490059D01*
X806353Y-13568277D01*
X761277Y-13588179D01*
X728778Y-13604739D01*
X720975Y-13605974D01*
X705160Y-13612958D01*
X636245Y-13620952D01*
X626415Y-13620952D01*
X626409Y-13620953D01*
X-603915Y-13620953D01*
X-603916Y-13620952D01*
X-613752Y-13620953D01*
X-682666Y-13612958D01*
X-698481Y-13605975D01*
X-706285Y-13604739D01*
X-738791Y-13588176D01*
X-783859Y-13568277D01*
X-862077Y-13490059D01*
X-881974Y-13444997D01*
X-898540Y-13412484D01*
X-899777Y-13404678D01*
X-906758Y-13388866D01*
X-914752Y-13319951D01*
X-914753Y-13310120D01*
X-914753Y-13310114D01*
X-914753Y-12404791D01*
X-914753Y-12404790D01*
X-914753Y-12394954D01*
X-906758Y-12326040D01*
X-899777Y-12310228D01*
X-898540Y-12302421D01*
X-881971Y-12269900D01*
X-862077Y-12224847D01*
X-783859Y-12146629D01*
X-738806Y-12126735D01*
X-706285Y-12110166D01*
X-698478Y-12108929D01*
X-682666Y-12101948D01*
X-613751Y-12093954D01*
X-603922Y-12093953D01*
X-603915Y-12093953D01*
X626409Y-12093953D01*
X636246Y-12093953D01*
X705160Y-12101948D01*
G37*
G36*
X3705160Y-12101948D02*
G01*
X3720972Y-12108929D01*
X3728778Y-12110166D01*
X3761291Y-12126732D01*
X3806353Y-12146629D01*
X3884571Y-12224847D01*
X3904470Y-12269915D01*
X3921033Y-12302421D01*
X3922269Y-12310225D01*
X3929252Y-12326040D01*
X3937246Y-12394955D01*
X3937246Y-12404784D01*
X3937247Y-12404791D01*
X3937247Y-12865354D01*
X3937247Y-13319952D01*
X3929252Y-13388866D01*
X3922268Y-13404681D01*
X3921033Y-13412484D01*
X3904473Y-13444983D01*
X3884571Y-13490059D01*
X3806353Y-13568277D01*
X3761277Y-13588179D01*
X3728778Y-13604739D01*
X3720975Y-13605974D01*
X3705160Y-13612958D01*
X3636245Y-13620952D01*
X3626415Y-13620952D01*
X3626409Y-13620953D01*
X2396085Y-13620953D01*
X2396084Y-13620952D01*
X2386248Y-13620953D01*
X2317334Y-13612958D01*
X2301519Y-13605975D01*
X2293715Y-13604739D01*
X2261209Y-13588176D01*
X2216141Y-13568277D01*
X2137923Y-13490059D01*
X2118026Y-13444997D01*
X2101460Y-13412484D01*
X2100223Y-13404678D01*
X2093242Y-13388866D01*
X2085248Y-13319951D01*
X2085247Y-13310120D01*
X2085247Y-13310114D01*
X2085247Y-12404791D01*
X2085247Y-12404790D01*
X2085247Y-12394954D01*
X2093242Y-12326040D01*
X2100223Y-12310228D01*
X2101460Y-12302421D01*
X2118029Y-12269900D01*
X2137923Y-12224847D01*
X2216141Y-12146629D01*
X2261194Y-12126735D01*
X2293715Y-12110166D01*
X2301522Y-12108929D01*
X2317334Y-12101948D01*
X2386249Y-12093954D01*
X2396078Y-12093953D01*
X2396085Y-12093953D01*
X3626409Y-12093953D01*
X3636246Y-12093953D01*
X3705160Y-12101948D01*
G37*
G36*
X705160Y-9126948D02*
G01*
X720972Y-9133929D01*
X728778Y-9135166D01*
X761291Y-9151732D01*
X806353Y-9171629D01*
X884571Y-9249847D01*
X904470Y-9294915D01*
X921033Y-9327421D01*
X922269Y-9335225D01*
X929252Y-9351040D01*
X937246Y-9419955D01*
X937246Y-9429784D01*
X937247Y-9429791D01*
X937247Y-10335114D01*
X937247Y-10344952D01*
X929252Y-10413866D01*
X922268Y-10429681D01*
X921033Y-10437484D01*
X904473Y-10469983D01*
X884571Y-10515059D01*
X806353Y-10593277D01*
X761277Y-10613179D01*
X728778Y-10629739D01*
X720975Y-10630974D01*
X705160Y-10637958D01*
X636245Y-10645952D01*
X626415Y-10645952D01*
X626409Y-10645953D01*
X-603915Y-10645953D01*
X-603916Y-10645952D01*
X-613752Y-10645953D01*
X-682666Y-10637958D01*
X-698481Y-10630975D01*
X-706285Y-10629739D01*
X-738791Y-10613176D01*
X-783859Y-10593277D01*
X-862077Y-10515059D01*
X-881974Y-10469997D01*
X-898540Y-10437484D01*
X-899777Y-10429678D01*
X-906758Y-10413866D01*
X-914752Y-10344951D01*
X-914753Y-10335120D01*
X-914753Y-10335114D01*
X-914753Y-9429791D01*
X-914753Y-9429790D01*
X-914753Y-9419954D01*
X-906758Y-9351040D01*
X-899777Y-9335228D01*
X-898540Y-9327421D01*
X-881971Y-9294900D01*
X-862077Y-9249847D01*
X-783859Y-9171629D01*
X-738806Y-9151735D01*
X-706285Y-9135166D01*
X-698478Y-9133929D01*
X-682666Y-9126948D01*
X-613751Y-9118954D01*
X-603922Y-9118953D01*
X-603915Y-9118953D01*
X626409Y-9118953D01*
X636246Y-9118953D01*
X705160Y-9126948D01*
G37*
G36*
X3705160Y-9126948D02*
G01*
X3720972Y-9133929D01*
X3728778Y-9135166D01*
X3761291Y-9151732D01*
X3806353Y-9171629D01*
X3884571Y-9249847D01*
X3904470Y-9294915D01*
X3921033Y-9327421D01*
X3922269Y-9335225D01*
X3929252Y-9351040D01*
X3937246Y-9419955D01*
X3937246Y-9429784D01*
X3937247Y-9429791D01*
X3937247Y-10335114D01*
X3937247Y-10344952D01*
X3929252Y-10413866D01*
X3922268Y-10429681D01*
X3921033Y-10437484D01*
X3904473Y-10469983D01*
X3884571Y-10515059D01*
X3806353Y-10593277D01*
X3761277Y-10613179D01*
X3728778Y-10629739D01*
X3720975Y-10630974D01*
X3705160Y-10637958D01*
X3636245Y-10645952D01*
X3626415Y-10645952D01*
X3626409Y-10645953D01*
X2396085Y-10645953D01*
X2396084Y-10645952D01*
X2386248Y-10645953D01*
X2317334Y-10637958D01*
X2301519Y-10630975D01*
X2293715Y-10629739D01*
X2261209Y-10613176D01*
X2216141Y-10593277D01*
X2137923Y-10515059D01*
X2118026Y-10469997D01*
X2101460Y-10437484D01*
X2100223Y-10429678D01*
X2093242Y-10413866D01*
X2085248Y-10344951D01*
X2085247Y-10335120D01*
X2085247Y-10335114D01*
X2085247Y-9429791D01*
X2085247Y-9429790D01*
X2085247Y-9419954D01*
X2093242Y-9351040D01*
X2100223Y-9335228D01*
X2101460Y-9327421D01*
X2118029Y-9294900D01*
X2137923Y-9249847D01*
X2216141Y-9171629D01*
X2261194Y-9151735D01*
X2293715Y-9135166D01*
X2301522Y-9133929D01*
X2317334Y-9126948D01*
X2386249Y-9118954D01*
X2396078Y-9118953D01*
X2396085Y-9118953D01*
X3626409Y-9118953D01*
X3636246Y-9118953D01*
X3705160Y-9126948D01*
G37*
G36*
X-9182483Y-5354682D02*
G01*
X-9165938Y-5365738D01*
X-9154882Y-5382283D01*
X-9151000Y-5401800D01*
X-9151000Y-6601800D01*
X-9154882Y-6621317D01*
X-9165938Y-6637862D01*
X-9182483Y-6648918D01*
X-9202000Y-6652800D01*
X-9802000Y-6652800D01*
X-9821517Y-6648918D01*
X-9838062Y-6637862D01*
X-9849118Y-6621317D01*
X-9853000Y-6601800D01*
X-9853000Y-5401800D01*
X-9849118Y-5382283D01*
X-9838062Y-5365738D01*
X-9821517Y-5354682D01*
X-9802000Y-5350800D01*
X-9202000Y-5350800D01*
X-9182483Y-5354682D01*
G37*
G36*
X-7282483Y-5354682D02*
G01*
X-7265938Y-5365738D01*
X-7254882Y-5382283D01*
X-7251000Y-5401800D01*
X-7251000Y-6601800D01*
X-7254882Y-6621317D01*
X-7265938Y-6637862D01*
X-7282483Y-6648918D01*
X-7302000Y-6652800D01*
X-7902000Y-6652800D01*
X-7921517Y-6648918D01*
X-7938062Y-6637862D01*
X-7949118Y-6621317D01*
X-7953000Y-6601800D01*
X-7953000Y-5401800D01*
X-7949118Y-5382283D01*
X-7938062Y-5365738D01*
X-7921517Y-5354682D01*
X-7902000Y-5350800D01*
X-7302000Y-5350800D01*
X-7282483Y-5354682D01*
G37*
G36*
X-4730483Y-5012882D02*
G01*
X-4713938Y-5023938D01*
X-4702882Y-5040483D01*
X-4699000Y-5060000D01*
X-4699000Y-6260000D01*
X-4702882Y-6279517D01*
X-4713938Y-6296062D01*
X-4730483Y-6307118D01*
X-4750000Y-6311000D01*
X-5950000Y-6311000D01*
X-5969517Y-6307118D01*
X-5986062Y-6296062D01*
X-5997118Y-6279517D01*
X-6001000Y-6260000D01*
X-6001000Y-5060000D01*
X-5997118Y-5040483D01*
X-5986062Y-5023938D01*
X-5969517Y-5012882D01*
X-5950000Y-5009000D01*
X-4750000Y-5009000D01*
X-4730483Y-5012882D01*
G37*
G36*
X5538975Y-4147032D02*
G01*
X5656879Y-4195869D01*
X5762990Y-4266770D01*
X5853230Y-4357010D01*
X5924131Y-4463121D01*
X5972968Y-4581025D01*
X5997865Y-4706191D01*
X5997865Y-4833809D01*
X5972968Y-4958975D01*
X5924131Y-5076879D01*
X5853230Y-5182990D01*
X5762990Y-5273230D01*
X5656879Y-5344131D01*
X5538975Y-5392968D01*
X5413809Y-5417865D01*
X5286191Y-5417865D01*
X5161025Y-5392968D01*
X5043121Y-5344131D01*
X4937010Y-5273230D01*
X4846770Y-5182990D01*
X4775869Y-5076879D01*
X4727032Y-4958975D01*
X4702135Y-4833809D01*
X4702135Y-4706191D01*
X4727032Y-4581025D01*
X4775869Y-4463121D01*
X4846770Y-4357010D01*
X4937010Y-4266770D01*
X5043121Y-4195869D01*
X5161025Y-4147032D01*
X5286191Y-4122135D01*
X5413809Y-4122135D01*
X5538975Y-4147032D01*
G37*
G36*
X-5161025Y-3257032D02*
G01*
X-5043121Y-3305869D01*
X-4937010Y-3376770D01*
X-4846770Y-3467010D01*
X-4775869Y-3573121D01*
X-4727032Y-3691025D01*
X-4702135Y-3816191D01*
X-4702135Y-3943809D01*
X-4727032Y-4068975D01*
X-4775869Y-4186879D01*
X-4846770Y-4292990D01*
X-4937010Y-4383230D01*
X-5043121Y-4454131D01*
X-5161025Y-4502968D01*
X-5286191Y-4527865D01*
X-5413809Y-4527865D01*
X-5538975Y-4502968D01*
X-5656879Y-4454131D01*
X-5762990Y-4383230D01*
X-5853230Y-4292990D01*
X-5924131Y-4186879D01*
X-5972968Y-4068975D01*
X-5997865Y-3943809D01*
X-5997865Y-3816191D01*
X-5972968Y-3691025D01*
X-5924131Y-3573121D01*
X-5853230Y-3467010D01*
X-5762990Y-3376770D01*
X-5656879Y-3305869D01*
X-5538975Y-3257032D01*
X-5413809Y-3232135D01*
X-5286191Y-3232135D01*
X-5161025Y-3257032D01*
G37*
G36*
X-9182483Y-2754682D02*
G01*
X-9165938Y-2765738D01*
X-9154882Y-2782283D01*
X-9151000Y-2801800D01*
X-9151000Y-2814120D01*
X-9129588Y-2921777D01*
X-8924418Y-2921781D01*
X-8903000Y-2814108D01*
X-8903000Y-2801800D01*
X-8899118Y-2782283D01*
X-8888062Y-2765738D01*
X-8871517Y-2754682D01*
X-8852000Y-2750800D01*
X-8252000Y-2750800D01*
X-8232483Y-2754682D01*
X-8215938Y-2765738D01*
X-8204882Y-2782283D01*
X-8201000Y-2801800D01*
X-8201000Y-2814120D01*
X-8179588Y-2921777D01*
X-7974418Y-2921781D01*
X-7953000Y-2814108D01*
X-7953000Y-2801800D01*
X-7949118Y-2782283D01*
X-7938062Y-2765738D01*
X-7921517Y-2754682D01*
X-7902000Y-2750800D01*
X-7302000Y-2750800D01*
X-7282483Y-2754682D01*
X-7265938Y-2765738D01*
X-7254882Y-2782283D01*
X-7251000Y-2801800D01*
X-7251000Y-4001800D01*
X-7254882Y-4021317D01*
X-7265938Y-4037862D01*
X-7282483Y-4048918D01*
X-7302000Y-4052800D01*
X-7902000Y-4052800D01*
X-7921517Y-4048918D01*
X-7938062Y-4037862D01*
X-7949118Y-4021317D01*
X-7953000Y-4001800D01*
X-7953000Y-3989486D01*
X-7974415Y-3881820D01*
X-8179585Y-3881820D01*
X-8201000Y-3989483D01*
X-8201000Y-4001800D01*
X-8204882Y-4021317D01*
X-8215938Y-4037862D01*
X-8232483Y-4048918D01*
X-8252000Y-4052800D01*
X-8852000Y-4052800D01*
X-8871517Y-4048918D01*
X-8888062Y-4037862D01*
X-8899118Y-4021317D01*
X-8903000Y-4001800D01*
X-8903000Y-3989486D01*
X-8924415Y-3881820D01*
X-9129585Y-3881820D01*
X-9151000Y-3989483D01*
X-9151000Y-4001800D01*
X-9154882Y-4021317D01*
X-9165938Y-4037862D01*
X-9182483Y-4048918D01*
X-9202000Y-4052800D01*
X-9802000Y-4052800D01*
X-9821517Y-4048918D01*
X-9838062Y-4037862D01*
X-9849118Y-4021317D01*
X-9853000Y-4001800D01*
X-9853000Y-2801800D01*
X-9849118Y-2782283D01*
X-9838062Y-2765738D01*
X-9821517Y-2754682D01*
X-9802000Y-2750800D01*
X-9202000Y-2750800D01*
X-9182483Y-2754682D01*
G37*
G36*
X5538975Y-2367032D02*
G01*
X5656879Y-2415869D01*
X5762990Y-2486770D01*
X5853230Y-2577010D01*
X5924131Y-2683121D01*
X5972968Y-2801025D01*
X5997865Y-2926191D01*
X5997865Y-3053809D01*
X5972968Y-3178975D01*
X5924131Y-3296879D01*
X5853230Y-3402990D01*
X5762990Y-3493230D01*
X5656879Y-3564131D01*
X5538975Y-3612968D01*
X5413809Y-3637865D01*
X5286191Y-3637865D01*
X5161025Y-3612968D01*
X5043121Y-3564131D01*
X4937010Y-3493230D01*
X4846770Y-3402990D01*
X4775869Y-3296879D01*
X4727032Y-3178975D01*
X4702135Y-3053809D01*
X4702135Y-2926191D01*
X4727032Y-2801025D01*
X4775869Y-2683121D01*
X4846770Y-2577010D01*
X4937010Y-2486770D01*
X5043121Y-2415869D01*
X5161025Y-2367032D01*
X5286191Y-2342135D01*
X5413809Y-2342135D01*
X5538975Y-2367032D01*
G37*
G36*
X-5161025Y-1477032D02*
G01*
X-5043121Y-1525869D01*
X-4937010Y-1596770D01*
X-4846770Y-1687010D01*
X-4775869Y-1793121D01*
X-4727032Y-1911025D01*
X-4702135Y-2036191D01*
X-4702135Y-2163809D01*
X-4727032Y-2288975D01*
X-4775869Y-2406879D01*
X-4846770Y-2512990D01*
X-4937010Y-2603230D01*
X-5043121Y-2674131D01*
X-5161025Y-2722968D01*
X-5286191Y-2747865D01*
X-5413809Y-2747865D01*
X-5538975Y-2722968D01*
X-5656879Y-2674131D01*
X-5762990Y-2603230D01*
X-5853230Y-2512990D01*
X-5924131Y-2406879D01*
X-5972968Y-2288975D01*
X-5997865Y-2163809D01*
X-5997865Y-2036191D01*
X-5972968Y-1911025D01*
X-5924131Y-1793121D01*
X-5853230Y-1687010D01*
X-5762990Y-1596770D01*
X-5656879Y-1525869D01*
X-5538975Y-1477032D01*
X-5413809Y-1452135D01*
X-5286191Y-1452135D01*
X-5161025Y-1477032D01*
G37*
G36*
X5538975Y-587032D02*
G01*
X5656879Y-635869D01*
X5762990Y-706770D01*
X5853230Y-797010D01*
X5924131Y-903121D01*
X5972968Y-1021025D01*
X5997865Y-1146191D01*
X5997865Y-1273809D01*
X5972968Y-1398975D01*
X5924131Y-1516879D01*
X5853230Y-1622990D01*
X5762990Y-1713230D01*
X5656879Y-1784131D01*
X5538975Y-1832968D01*
X5413809Y-1857865D01*
X5286191Y-1857865D01*
X5161025Y-1832968D01*
X5043121Y-1784131D01*
X4937010Y-1713230D01*
X4846770Y-1622990D01*
X4775869Y-1516879D01*
X4727032Y-1398975D01*
X4702135Y-1273809D01*
X4702135Y-1146191D01*
X4727032Y-1021025D01*
X4775869Y-903121D01*
X4846770Y-797010D01*
X4937010Y-706770D01*
X5043121Y-635869D01*
X5161025Y-587032D01*
X5286191Y-562135D01*
X5413809Y-562135D01*
X5538975Y-587032D01*
G37*
G36*
X-8328560Y970010D02*
G01*
X-8292378Y965246D01*
X-8283277Y961002D01*
X-8262897Y956948D01*
X-8235904Y938912D01*
X-8223250Y933011D01*
X-8215552Y925313D01*
X-8193633Y910667D01*
X-8178988Y888749D01*
X-8171290Y881051D01*
X-8165391Y868400D01*
X-8147352Y841403D01*
X-8143298Y821022D01*
X-8139055Y811923D01*
X-8134294Y775753D01*
X-8131100Y759700D01*
X-8131100Y-915300D01*
X-8134294Y-931356D01*
X-8139055Y-967522D01*
X-8143298Y-976620D01*
X-8147352Y-997003D01*
X-8165392Y-1024001D01*
X-8171290Y-1036650D01*
X-8178986Y-1044345D01*
X-8193633Y-1066267D01*
X-8215555Y-1080914D01*
X-8223250Y-1088610D01*
X-8235899Y-1094508D01*
X-8262897Y-1112548D01*
X-8283280Y-1116602D01*
X-8292378Y-1120845D01*
X-8328546Y-1125606D01*
X-8344600Y-1128800D01*
X-8669600Y-1128800D01*
X-8685654Y-1125606D01*
X-8721823Y-1120845D01*
X-8730922Y-1116602D01*
X-8751303Y-1112548D01*
X-8778300Y-1094509D01*
X-8790951Y-1088610D01*
X-8798649Y-1080912D01*
X-8820567Y-1066267D01*
X-8835213Y-1044348D01*
X-8842911Y-1036650D01*
X-8848812Y-1023996D01*
X-8866848Y-997003D01*
X-8870902Y-976623D01*
X-8875146Y-967522D01*
X-8879910Y-931339D01*
X-8883100Y-915300D01*
X-8883100Y759700D01*
X-8879910Y775740D01*
X-8875146Y811923D01*
X-8870902Y821026D01*
X-8866848Y841403D01*
X-8848814Y868395D01*
X-8842911Y881051D01*
X-8835211Y888752D01*
X-8820567Y910667D01*
X-8798652Y925311D01*
X-8790951Y933011D01*
X-8778295Y938914D01*
X-8751303Y956948D01*
X-8730926Y961002D01*
X-8721823Y965246D01*
X-8685638Y970010D01*
X-8669600Y973200D01*
X-8344600Y973200D01*
X-8328560Y970010D01*
G37*
G36*
X-5161025Y302968D02*
G01*
X-5043121Y254131D01*
X-4937010Y183230D01*
X-4846770Y92990D01*
X-4775869Y-13121D01*
X-4727032Y-131025D01*
X-4702135Y-256191D01*
X-4702135Y-383809D01*
X-4727032Y-508975D01*
X-4775869Y-626879D01*
X-4846770Y-732990D01*
X-4937010Y-823230D01*
X-5043121Y-894131D01*
X-5161025Y-942968D01*
X-5286191Y-967865D01*
X-5413809Y-967865D01*
X-5538975Y-942968D01*
X-5656879Y-894131D01*
X-5762990Y-823230D01*
X-5853230Y-732990D01*
X-5924131Y-626879D01*
X-5972968Y-508975D01*
X-5997865Y-383809D01*
X-5997865Y-256191D01*
X-5972968Y-131025D01*
X-5924131Y-13121D01*
X-5853230Y92990D01*
X-5762990Y183230D01*
X-5656879Y254131D01*
X-5538975Y302968D01*
X-5413809Y327865D01*
X-5286191Y327865D01*
X-5161025Y302968D01*
G37*
G36*
X5538975Y1192968D02*
G01*
X5656879Y1144131D01*
X5762990Y1073230D01*
X5853230Y982990D01*
X5924131Y876879D01*
X5972968Y758975D01*
X5997865Y633809D01*
X5997865Y506191D01*
X5972968Y381025D01*
X5924131Y263121D01*
X5853230Y157010D01*
X5762990Y66770D01*
X5656879Y-4131D01*
X5538975Y-52968D01*
X5413809Y-77865D01*
X5286191Y-77865D01*
X5161025Y-52968D01*
X5043121Y-4131D01*
X4937010Y66770D01*
X4846770Y157010D01*
X4775869Y263121D01*
X4727032Y381025D01*
X4702135Y506191D01*
X4702135Y633809D01*
X4727032Y758975D01*
X4775869Y876879D01*
X4846770Y982990D01*
X4937010Y1073230D01*
X5043121Y1144131D01*
X5161025Y1192968D01*
X5286191Y1217865D01*
X5413809Y1217865D01*
X5538975Y1192968D01*
G37*
G36*
X-5161025Y2082968D02*
G01*
X-5043121Y2034131D01*
X-4937010Y1963230D01*
X-4846770Y1872990D01*
X-4775869Y1766879D01*
X-4727032Y1648975D01*
X-4702135Y1523809D01*
X-4702135Y1396191D01*
X-4727032Y1271025D01*
X-4775869Y1153121D01*
X-4846770Y1047010D01*
X-4937010Y956770D01*
X-5043121Y885869D01*
X-5161025Y837032D01*
X-5286191Y812135D01*
X-5413809Y812135D01*
X-5538975Y837032D01*
X-5656879Y885869D01*
X-5762990Y956770D01*
X-5853230Y1047010D01*
X-5924131Y1153121D01*
X-5972968Y1271025D01*
X-5997865Y1396191D01*
X-5997865Y1523809D01*
X-5972968Y1648975D01*
X-5924131Y1766879D01*
X-5853230Y1872990D01*
X-5762990Y1963230D01*
X-5656879Y2034131D01*
X-5538975Y2082968D01*
X-5413809Y2107865D01*
X-5286191Y2107865D01*
X-5161025Y2082968D01*
G37*
G36*
X8289113Y3105505D02*
G01*
X8304925Y3098524D01*
X8312731Y3097287D01*
X8345244Y3080721D01*
X8390306Y3060824D01*
X8468524Y2982606D01*
X8488423Y2937538D01*
X8504986Y2905032D01*
X8506222Y2897228D01*
X8513205Y2881413D01*
X8521199Y2812498D01*
X8521199Y2802669D01*
X8521200Y2802662D01*
X8521200Y2331390D01*
X8521200Y1887501D01*
X8513205Y1818587D01*
X8506221Y1802772D01*
X8504986Y1794969D01*
X8488426Y1762470D01*
X8468524Y1717394D01*
X8390306Y1639176D01*
X8345230Y1619274D01*
X8312731Y1602714D01*
X8304928Y1601479D01*
X8289113Y1594495D01*
X8220198Y1586501D01*
X8210368Y1586501D01*
X8210362Y1586500D01*
X6980038Y1586500D01*
X6980037Y1586501D01*
X6970201Y1586500D01*
X6901287Y1594495D01*
X6885472Y1601478D01*
X6877668Y1602714D01*
X6845162Y1619277D01*
X6800094Y1639176D01*
X6721876Y1717394D01*
X6701979Y1762456D01*
X6685413Y1794969D01*
X6684176Y1802775D01*
X6677195Y1818587D01*
X6669201Y1887502D01*
X6669200Y1897333D01*
X6669200Y1897339D01*
X6669200Y2802662D01*
X6669200Y2802663D01*
X6669200Y2812499D01*
X6677195Y2881413D01*
X6684176Y2897225D01*
X6685413Y2905032D01*
X6701982Y2937553D01*
X6721876Y2982606D01*
X6800094Y3060824D01*
X6845147Y3080718D01*
X6877668Y3097287D01*
X6885475Y3098524D01*
X6901287Y3105505D01*
X6970202Y3113499D01*
X6980031Y3113500D01*
X6980038Y3113500D01*
X8210362Y3113500D01*
X8220199Y3113500D01*
X8289113Y3105505D01*
G37*
G36*
X5538975Y2972968D02*
G01*
X5656879Y2924131D01*
X5762990Y2853230D01*
X5853230Y2762990D01*
X5924131Y2656879D01*
X5972968Y2538975D01*
X5997865Y2413809D01*
X5997865Y2286191D01*
X5972968Y2161025D01*
X5924131Y2043121D01*
X5853230Y1937010D01*
X5762990Y1846770D01*
X5656879Y1775869D01*
X5538975Y1727032D01*
X5413809Y1702135D01*
X5286191Y1702135D01*
X5161025Y1727032D01*
X5043121Y1775869D01*
X4937010Y1846770D01*
X4846770Y1937010D01*
X4775869Y2043121D01*
X4727032Y2161025D01*
X4702135Y2286191D01*
X4702135Y2413809D01*
X4727032Y2538975D01*
X4775869Y2656879D01*
X4846770Y2762990D01*
X4937010Y2853230D01*
X5043121Y2924131D01*
X5161025Y2972968D01*
X5286191Y2997865D01*
X5413809Y2997865D01*
X5538975Y2972968D01*
G37*
G36*
X-9278560Y4390010D02*
G01*
X-9242378Y4385246D01*
X-9233277Y4381002D01*
X-9212897Y4376948D01*
X-9185904Y4358912D01*
X-9173250Y4353011D01*
X-9165552Y4345313D01*
X-9143633Y4330667D01*
X-9128988Y4308749D01*
X-9121290Y4301051D01*
X-9115391Y4288400D01*
X-9097352Y4261403D01*
X-9093298Y4241022D01*
X-9089055Y4231923D01*
X-9084294Y4195753D01*
X-9081100Y4179700D01*
X-9081100Y2504700D01*
X-9084294Y2488644D01*
X-9089055Y2452478D01*
X-9093298Y2443380D01*
X-9097352Y2422997D01*
X-9115392Y2395999D01*
X-9121290Y2383350D01*
X-9128986Y2375655D01*
X-9143633Y2353733D01*
X-9165555Y2339086D01*
X-9173250Y2331390D01*
X-9185899Y2325492D01*
X-9212897Y2307452D01*
X-9233280Y2303398D01*
X-9242378Y2299155D01*
X-9278546Y2294394D01*
X-9294600Y2291200D01*
X-9619600Y2291200D01*
X-9635654Y2294394D01*
X-9671823Y2299155D01*
X-9680922Y2303398D01*
X-9701303Y2307452D01*
X-9728300Y2325491D01*
X-9740951Y2331390D01*
X-9748649Y2339088D01*
X-9770567Y2353733D01*
X-9785213Y2375652D01*
X-9792911Y2383350D01*
X-9798812Y2396004D01*
X-9816848Y2422997D01*
X-9820902Y2443377D01*
X-9825146Y2452478D01*
X-9829910Y2488661D01*
X-9833100Y2504700D01*
X-9833100Y4179700D01*
X-9829910Y4195740D01*
X-9825146Y4231923D01*
X-9820902Y4241026D01*
X-9816848Y4261403D01*
X-9798814Y4288395D01*
X-9792911Y4301051D01*
X-9785211Y4308752D01*
X-9770567Y4330667D01*
X-9748652Y4345311D01*
X-9740951Y4353011D01*
X-9728295Y4358914D01*
X-9701303Y4376948D01*
X-9680926Y4381002D01*
X-9671823Y4385246D01*
X-9635638Y4390010D01*
X-9619600Y4393200D01*
X-9294600Y4393200D01*
X-9278560Y4390010D01*
G37*
G36*
X-7378560Y4390010D02*
G01*
X-7342378Y4385246D01*
X-7333277Y4381002D01*
X-7312897Y4376948D01*
X-7285904Y4358912D01*
X-7273250Y4353011D01*
X-7265552Y4345313D01*
X-7243633Y4330667D01*
X-7228988Y4308749D01*
X-7221290Y4301051D01*
X-7215391Y4288400D01*
X-7197352Y4261403D01*
X-7193298Y4241022D01*
X-7189055Y4231923D01*
X-7184294Y4195753D01*
X-7181100Y4179700D01*
X-7181100Y2504700D01*
X-7184294Y2488644D01*
X-7189055Y2452478D01*
X-7193298Y2443380D01*
X-7197352Y2422997D01*
X-7215392Y2395999D01*
X-7221290Y2383350D01*
X-7228986Y2375655D01*
X-7243633Y2353733D01*
X-7265555Y2339086D01*
X-7273250Y2331390D01*
X-7285899Y2325492D01*
X-7312897Y2307452D01*
X-7333280Y2303398D01*
X-7342378Y2299155D01*
X-7378546Y2294394D01*
X-7394600Y2291200D01*
X-7719600Y2291200D01*
X-7735654Y2294394D01*
X-7771823Y2299155D01*
X-7780922Y2303398D01*
X-7801303Y2307452D01*
X-7828300Y2325491D01*
X-7840951Y2331390D01*
X-7848649Y2339088D01*
X-7870567Y2353733D01*
X-7885213Y2375652D01*
X-7892911Y2383350D01*
X-7898812Y2396004D01*
X-7916848Y2422997D01*
X-7920902Y2443377D01*
X-7925146Y2452478D01*
X-7929910Y2488661D01*
X-7933100Y2504700D01*
X-7933100Y4179700D01*
X-7929910Y4195740D01*
X-7925146Y4231923D01*
X-7920902Y4241026D01*
X-7916848Y4261403D01*
X-7898814Y4288395D01*
X-7892911Y4301051D01*
X-7885211Y4308752D01*
X-7870567Y4330667D01*
X-7848652Y4345311D01*
X-7840951Y4353011D01*
X-7828295Y4358914D01*
X-7801303Y4376948D01*
X-7780926Y4381002D01*
X-7771823Y4385246D01*
X-7735638Y4390010D01*
X-7719600Y4393200D01*
X-7394600Y4393200D01*
X-7378560Y4390010D01*
G37*
G36*
X-5161025Y3862968D02*
G01*
X-5043121Y3814131D01*
X-4937010Y3743230D01*
X-4846770Y3652990D01*
X-4775869Y3546879D01*
X-4727032Y3428975D01*
X-4702135Y3303809D01*
X-4702135Y3176191D01*
X-4727032Y3051025D01*
X-4775869Y2933121D01*
X-4846770Y2827010D01*
X-4937010Y2736770D01*
X-5043121Y2665869D01*
X-5161025Y2617032D01*
X-5286191Y2592135D01*
X-5413809Y2592135D01*
X-5538975Y2617032D01*
X-5656879Y2665869D01*
X-5762990Y2736770D01*
X-5853230Y2827010D01*
X-5924131Y2933121D01*
X-5972968Y3051025D01*
X-5997865Y3176191D01*
X-5997865Y3303809D01*
X-5972968Y3428975D01*
X-5924131Y3546879D01*
X-5853230Y3652990D01*
X-5762990Y3743230D01*
X-5656879Y3814131D01*
X-5538975Y3862968D01*
X-5413809Y3887865D01*
X-5286191Y3887865D01*
X-5161025Y3862968D01*
G37*
G36*
X5538975Y4752968D02*
G01*
X5656879Y4704131D01*
X5762990Y4633230D01*
X5853230Y4542990D01*
X5924131Y4436879D01*
X5972968Y4318975D01*
X5997865Y4193809D01*
X5997865Y4066191D01*
X5972968Y3941025D01*
X5924131Y3823121D01*
X5853230Y3717010D01*
X5762990Y3626770D01*
X5656879Y3555869D01*
X5538975Y3507032D01*
X5413809Y3482135D01*
X5286191Y3482135D01*
X5161025Y3507032D01*
X5043121Y3555869D01*
X4937010Y3626770D01*
X4846770Y3717010D01*
X4775869Y3823121D01*
X4727032Y3941025D01*
X4702135Y4066191D01*
X4702135Y4193809D01*
X4727032Y4318975D01*
X4775869Y4436879D01*
X4846770Y4542990D01*
X4937010Y4633230D01*
X5043121Y4704131D01*
X5161025Y4752968D01*
X5286191Y4777865D01*
X5413809Y4777865D01*
X5538975Y4752968D01*
G37*
G36*
X-5161025Y5642968D02*
G01*
X-5043121Y5594131D01*
X-4937010Y5523230D01*
X-4846770Y5432990D01*
X-4775869Y5326879D01*
X-4727032Y5208975D01*
X-4702135Y5083809D01*
X-4702135Y4956191D01*
X-4727032Y4831025D01*
X-4775869Y4713121D01*
X-4846770Y4607010D01*
X-4937010Y4516770D01*
X-5043121Y4445869D01*
X-5161025Y4397032D01*
X-5286191Y4372135D01*
X-5413809Y4372135D01*
X-5538975Y4397032D01*
X-5656879Y4445869D01*
X-5762990Y4516770D01*
X-5853230Y4607010D01*
X-5924131Y4713121D01*
X-5972968Y4831025D01*
X-5997865Y4956191D01*
X-5997865Y5083809D01*
X-5972968Y5208975D01*
X-5924131Y5326879D01*
X-5853230Y5432990D01*
X-5762990Y5523230D01*
X-5656879Y5594131D01*
X-5538975Y5642968D01*
X-5413809Y5667865D01*
X-5286191Y5667865D01*
X-5161025Y5642968D01*
G37*
G36*
X8289113Y6080505D02*
G01*
X8304925Y6073524D01*
X8312731Y6072287D01*
X8345244Y6055721D01*
X8390306Y6035824D01*
X8468524Y5957606D01*
X8488423Y5912538D01*
X8504986Y5880032D01*
X8506222Y5872228D01*
X8513205Y5856413D01*
X8521199Y5787498D01*
X8521199Y5777669D01*
X8521200Y5777662D01*
X8521200Y5287611D01*
X8521200Y4862501D01*
X8513205Y4793587D01*
X8506221Y4777772D01*
X8504986Y4769969D01*
X8488426Y4737470D01*
X8468524Y4692394D01*
X8390306Y4614176D01*
X8345230Y4594274D01*
X8312731Y4577714D01*
X8304928Y4576479D01*
X8289113Y4569495D01*
X8220198Y4561501D01*
X8210368Y4561501D01*
X8210362Y4561500D01*
X6980038Y4561500D01*
X6980037Y4561501D01*
X6970201Y4561500D01*
X6901287Y4569495D01*
X6885472Y4576478D01*
X6877668Y4577714D01*
X6845162Y4594277D01*
X6800094Y4614176D01*
X6721876Y4692394D01*
X6701979Y4737456D01*
X6685413Y4769969D01*
X6684176Y4777775D01*
X6677195Y4793587D01*
X6669201Y4862502D01*
X6669200Y4872333D01*
X6669200Y4872339D01*
X6669200Y5777662D01*
X6669200Y5777663D01*
X6669200Y5787499D01*
X6677195Y5856413D01*
X6684176Y5872225D01*
X6685413Y5880032D01*
X6701982Y5912553D01*
X6721876Y5957606D01*
X6800094Y6035824D01*
X6845147Y6055718D01*
X6877668Y6072287D01*
X6885475Y6073524D01*
X6901287Y6080505D01*
X6970202Y6088499D01*
X6980031Y6088500D01*
X6980038Y6088500D01*
X8210362Y6088500D01*
X8220199Y6088500D01*
X8289113Y6080505D01*
G37*
G36*
X5538975Y6532968D02*
G01*
X5656879Y6484131D01*
X5762990Y6413230D01*
X5853230Y6322990D01*
X5924131Y6216879D01*
X5972968Y6098975D01*
X5997865Y5973809D01*
X5997865Y5846191D01*
X5972968Y5721025D01*
X5924131Y5603121D01*
X5853230Y5497010D01*
X5762990Y5406770D01*
X5656879Y5335869D01*
X5538975Y5287032D01*
X5413809Y5262135D01*
X5286191Y5262135D01*
X5161025Y5287032D01*
X5043121Y5335869D01*
X4937010Y5406770D01*
X4846770Y5497010D01*
X4775869Y5603121D01*
X4727032Y5721025D01*
X4702135Y5846191D01*
X4702135Y5973809D01*
X4727032Y6098975D01*
X4775869Y6216879D01*
X4846770Y6322990D01*
X4937010Y6413230D01*
X5043121Y6484131D01*
X5161025Y6532968D01*
X5286191Y6557865D01*
X5413809Y6557865D01*
X5538975Y6532968D01*
G37*
G36*
X-7204887Y7555505D02*
G01*
X-7189075Y7548524D01*
X-7181269Y7547287D01*
X-7148756Y7530721D01*
X-7103694Y7510824D01*
X-7025476Y7432606D01*
X-7005577Y7387538D01*
X-6989014Y7355032D01*
X-6987778Y7347228D01*
X-6980795Y7331413D01*
X-6972801Y7262498D01*
X-6972801Y7252669D01*
X-6972800Y7252662D01*
X-6972800Y6736250D01*
X-6972800Y6337501D01*
X-6980795Y6268587D01*
X-6987779Y6252772D01*
X-6989014Y6244969D01*
X-7005574Y6212470D01*
X-7025476Y6167394D01*
X-7103694Y6089176D01*
X-7148770Y6069274D01*
X-7181269Y6052714D01*
X-7189072Y6051479D01*
X-7204887Y6044495D01*
X-7273802Y6036501D01*
X-7283632Y6036501D01*
X-7283638Y6036500D01*
X-8513962Y6036500D01*
X-8513963Y6036501D01*
X-8523799Y6036500D01*
X-8592713Y6044495D01*
X-8608528Y6051478D01*
X-8616332Y6052714D01*
X-8648838Y6069277D01*
X-8693906Y6089176D01*
X-8772124Y6167394D01*
X-8792021Y6212456D01*
X-8808587Y6244969D01*
X-8809824Y6252775D01*
X-8816805Y6268587D01*
X-8824799Y6337502D01*
X-8824800Y6347333D01*
X-8824800Y6347339D01*
X-8824800Y7252662D01*
X-8824800Y7252663D01*
X-8824800Y7262499D01*
X-8816805Y7331413D01*
X-8809824Y7347225D01*
X-8808587Y7355032D01*
X-8792018Y7387553D01*
X-8772124Y7432606D01*
X-8693906Y7510824D01*
X-8648853Y7530718D01*
X-8616332Y7547287D01*
X-8608525Y7548524D01*
X-8592713Y7555505D01*
X-8523798Y7563499D01*
X-8513969Y7563500D01*
X-8513962Y7563500D01*
X-7283638Y7563500D01*
X-7273801Y7563500D01*
X-7204887Y7555505D01*
G37*
G36*
X-5161025Y7422968D02*
G01*
X-5043121Y7374131D01*
X-4937010Y7303230D01*
X-4846770Y7212990D01*
X-4775869Y7106879D01*
X-4727032Y6988975D01*
X-4702135Y6863809D01*
X-4702135Y6736191D01*
X-4727032Y6611025D01*
X-4775869Y6493121D01*
X-4846770Y6387010D01*
X-4937010Y6296770D01*
X-5043121Y6225869D01*
X-5161025Y6177032D01*
X-5286191Y6152135D01*
X-5413809Y6152135D01*
X-5538975Y6177032D01*
X-5656879Y6225869D01*
X-5762990Y6296770D01*
X-5853230Y6387010D01*
X-5924131Y6493121D01*
X-5972968Y6611025D01*
X-5997865Y6736191D01*
X-5997865Y6863809D01*
X-5972968Y6988975D01*
X-5924131Y7106879D01*
X-5853230Y7212990D01*
X-5762990Y7303230D01*
X-5656879Y7374131D01*
X-5538975Y7422968D01*
X-5413809Y7447865D01*
X-5286191Y7447865D01*
X-5161025Y7422968D01*
G37*
G36*
X5538975Y8312968D02*
G01*
X5656879Y8264131D01*
X5762990Y8193230D01*
X5853230Y8102990D01*
X5924131Y7996879D01*
X5972968Y7878975D01*
X5997865Y7753809D01*
X5997865Y7626191D01*
X5972968Y7501025D01*
X5924131Y7383121D01*
X5853230Y7277010D01*
X5762990Y7186770D01*
X5656879Y7115869D01*
X5538975Y7067032D01*
X5413809Y7042135D01*
X5286191Y7042135D01*
X5161025Y7067032D01*
X5043121Y7115869D01*
X4937010Y7186770D01*
X4846770Y7277010D01*
X4775869Y7383121D01*
X4727032Y7501025D01*
X4702135Y7626191D01*
X4702135Y7753809D01*
X4727032Y7878975D01*
X4775869Y7996879D01*
X4846770Y8102990D01*
X4937010Y8193230D01*
X5043121Y8264131D01*
X5161025Y8312968D01*
X5286191Y8337865D01*
X5413809Y8337865D01*
X5538975Y8312968D01*
G37*
G36*
X-7204887Y10530505D02*
G01*
X-7189075Y10523524D01*
X-7181269Y10522287D01*
X-7148756Y10505721D01*
X-7103694Y10485824D01*
X-7025476Y10407606D01*
X-7005577Y10362538D01*
X-6989014Y10330032D01*
X-6987778Y10322228D01*
X-6980795Y10306413D01*
X-6972801Y10237498D01*
X-6972801Y10227669D01*
X-6972800Y10227662D01*
X-6972800Y9322339D01*
X-6972800Y9312501D01*
X-6980795Y9243587D01*
X-6987779Y9227772D01*
X-6989014Y9219969D01*
X-7005574Y9187470D01*
X-7025476Y9142394D01*
X-7103694Y9064176D01*
X-7148770Y9044274D01*
X-7181269Y9027714D01*
X-7189072Y9026479D01*
X-7204887Y9019495D01*
X-7273802Y9011501D01*
X-7283632Y9011501D01*
X-7283638Y9011500D01*
X-8513962Y9011500D01*
X-8513963Y9011501D01*
X-8523799Y9011500D01*
X-8592713Y9019495D01*
X-8608528Y9026478D01*
X-8616332Y9027714D01*
X-8648838Y9044277D01*
X-8693906Y9064176D01*
X-8772124Y9142394D01*
X-8792021Y9187456D01*
X-8808587Y9219969D01*
X-8809824Y9227775D01*
X-8816805Y9243587D01*
X-8824799Y9312502D01*
X-8824800Y9322333D01*
X-8824800Y9322339D01*
X-8824800Y10227662D01*
X-8824800Y10227663D01*
X-8824800Y10237499D01*
X-8816805Y10306413D01*
X-8809824Y10322225D01*
X-8808587Y10330032D01*
X-8792018Y10362553D01*
X-8772124Y10407606D01*
X-8693906Y10485824D01*
X-8648853Y10505718D01*
X-8616332Y10522287D01*
X-8608525Y10523524D01*
X-8592713Y10530505D01*
X-8523798Y10538499D01*
X-8513969Y10538500D01*
X-8513962Y10538500D01*
X-7283638Y10538500D01*
X-7273801Y10538500D01*
X-7204887Y10530505D01*
G37*
G36*
X8934509Y13781166D02*
G01*
X8946315Y13781166D01*
X9004442Y13771960D01*
X9138821Y13754269D01*
X9171616Y13745482D01*
X9202197Y13740638D01*
X9261008Y13721529D01*
X9347390Y13698383D01*
X9402503Y13675555D01*
X9448589Y13660580D01*
X9491766Y13638581D01*
X9546878Y13615752D01*
X9624318Y13571042D01*
X9679424Y13542964D01*
X9704476Y13524763D01*
X9733875Y13507789D01*
X9841430Y13425260D01*
X9889018Y13390685D01*
X9897358Y13382345D01*
X9905180Y13376343D01*
X10057866Y13223657D01*
X10063867Y13215836D01*
X10072209Y13207494D01*
X10106787Y13159901D01*
X10189312Y13052352D01*
X10206284Y13022956D01*
X10224488Y12997900D01*
X10252568Y12942789D01*
X10297275Y12865355D01*
X10320100Y12810249D01*
X10342104Y12767065D01*
X10357080Y12720973D01*
X10379906Y12665867D01*
X10403048Y12579498D01*
X10422162Y12520673D01*
X10427006Y12490086D01*
X10435792Y12457298D01*
X10453482Y12322928D01*
X10462690Y12264791D01*
X10462690Y12252986D01*
X10463976Y12243217D01*
X10463976Y12027294D01*
X10462690Y12017526D01*
X10462690Y12005719D01*
X10453481Y11947578D01*
X10435792Y11813213D01*
X10427007Y11780428D01*
X10422162Y11749837D01*
X10403047Y11691009D01*
X10379906Y11604644D01*
X10357081Y11549542D01*
X10342104Y11503445D01*
X10320098Y11460258D01*
X10297275Y11405156D01*
X10252572Y11327730D01*
X10224488Y11272610D01*
X10206281Y11247551D01*
X10189312Y11218159D01*
X10106801Y11110628D01*
X10072209Y11063016D01*
X10063864Y11054672D01*
X10057866Y11046854D01*
X9905180Y10894168D01*
X9897362Y10888170D01*
X9889018Y10879825D01*
X9841406Y10845233D01*
X9733875Y10762722D01*
X9704483Y10745753D01*
X9679424Y10727546D01*
X9624304Y10699462D01*
X9546878Y10654759D01*
X9491776Y10631936D01*
X9448589Y10609930D01*
X9402492Y10594953D01*
X9347390Y10572128D01*
X9261025Y10548987D01*
X9202197Y10529872D01*
X9171606Y10525027D01*
X9138821Y10516242D01*
X9004456Y10498553D01*
X8946315Y10489344D01*
X8934508Y10489344D01*
X8924740Y10488058D01*
X8708818Y10488058D01*
X8699050Y10489344D01*
X8687243Y10489344D01*
X8629103Y10498553D01*
X8494736Y10516242D01*
X8461948Y10525028D01*
X8431361Y10529872D01*
X8372536Y10548986D01*
X8286167Y10572128D01*
X8231061Y10594954D01*
X8184969Y10609930D01*
X8141785Y10631934D01*
X8086679Y10654759D01*
X8009245Y10699466D01*
X7954134Y10727546D01*
X7929078Y10745750D01*
X7899682Y10762722D01*
X7792133Y10845247D01*
X7744540Y10879825D01*
X7736198Y10888167D01*
X7728377Y10894168D01*
X7575691Y11046854D01*
X7569689Y11054676D01*
X7561349Y11063016D01*
X7526774Y11110604D01*
X7444245Y11218159D01*
X7427271Y11247558D01*
X7409070Y11272610D01*
X7380992Y11327716D01*
X7336282Y11405156D01*
X7313453Y11460268D01*
X7291454Y11503445D01*
X7276479Y11549531D01*
X7253651Y11604644D01*
X7230505Y11691026D01*
X7211396Y11749837D01*
X7206552Y11780418D01*
X7197765Y11813213D01*
X7180074Y11947592D01*
X7170868Y12005719D01*
X7170868Y12017526D01*
X7169582Y12027294D01*
X7169582Y12243217D01*
X7170868Y12252986D01*
X7170868Y12264791D01*
X7180073Y12322914D01*
X7197765Y12457298D01*
X7206552Y12490095D01*
X7211396Y12520673D01*
X7230503Y12579480D01*
X7253651Y12665867D01*
X7276481Y12720984D01*
X7291454Y12767065D01*
X7313451Y12810239D01*
X7336282Y12865355D01*
X7380996Y12942804D01*
X7409070Y12997900D01*
X7427268Y13022949D01*
X7444245Y13052352D01*
X7526788Y13159926D01*
X7561349Y13207494D01*
X7569685Y13215831D01*
X7575691Y13223657D01*
X7728377Y13376343D01*
X7736203Y13382349D01*
X7744540Y13390685D01*
X7792108Y13425246D01*
X7899682Y13507789D01*
X7929085Y13524766D01*
X7954134Y13542964D01*
X8009230Y13571038D01*
X8086679Y13615752D01*
X8141795Y13638583D01*
X8184969Y13660580D01*
X8231050Y13675553D01*
X8286167Y13698383D01*
X8372554Y13721531D01*
X8431361Y13740638D01*
X8461939Y13745482D01*
X8494736Y13754269D01*
X8629117Y13771960D01*
X8687243Y13781166D01*
X8699049Y13781166D01*
X8708818Y13782452D01*
X8924740Y13782452D01*
X8934509Y13781166D01*
G37*
G36*
X-7233885Y16334205D02*
G01*
X-7218074Y16327224D01*
X-7210267Y16325987D01*
X-7177746Y16309417D01*
X-7132694Y16289524D01*
X-7054476Y16211306D01*
X-7034581Y16166247D01*
X-7018014Y16133734D01*
X-7016778Y16125930D01*
X-7009795Y16110115D01*
X-7001801Y16041200D01*
X-7001801Y16031371D01*
X-7001800Y16031364D01*
X-7001800Y15173847D01*
X-7001800Y14341199D01*
X-7009795Y14272285D01*
X-7016779Y14256471D01*
X-7018014Y14248667D01*
X-7034577Y14216161D01*
X-7054476Y14171094D01*
X-7132694Y14092876D01*
X-7177761Y14072977D01*
X-7210267Y14056414D01*
X-7218071Y14055179D01*
X-7233885Y14048195D01*
X-7302800Y14040201D01*
X-7312630Y14040201D01*
X-7312636Y14040200D01*
X-8992964Y14040200D01*
X-8992965Y14040201D01*
X-9002801Y14040200D01*
X-9071715Y14048195D01*
X-9087530Y14055178D01*
X-9095334Y14056414D01*
X-9127847Y14072981D01*
X-9172906Y14092876D01*
X-9251124Y14171094D01*
X-9271017Y14216146D01*
X-9287587Y14248667D01*
X-9288824Y14256474D01*
X-9295805Y14272285D01*
X-9303799Y14341200D01*
X-9303800Y14351031D01*
X-9303800Y14351037D01*
X-9303800Y15155715D01*
X-9534183Y15173847D01*
X-9545348Y15103356D01*
X-9545348Y15100894D01*
X-9573602Y14922504D01*
X-9629415Y14750731D01*
X-9711411Y14589804D01*
X-9817573Y14443685D01*
X-9945285Y14315973D01*
X-10091404Y14209811D01*
X-10252331Y14127815D01*
X-10424104Y14072002D01*
X-10602494Y14043748D01*
X-10783106Y14043748D01*
X-10961496Y14072002D01*
X-11133269Y14127815D01*
X-11294196Y14209811D01*
X-11440315Y14315973D01*
X-11568027Y14443685D01*
X-11674189Y14589804D01*
X-11756185Y14750731D01*
X-11811998Y14922504D01*
X-11840252Y15100894D01*
X-11840252Y15281506D01*
X-11811998Y15459896D01*
X-11756185Y15631669D01*
X-11674189Y15792596D01*
X-11568027Y15938715D01*
X-11440315Y16066427D01*
X-11294196Y16172589D01*
X-11133269Y16254585D01*
X-10961496Y16310398D01*
X-10783106Y16338652D01*
X-10602494Y16338652D01*
X-10424104Y16310398D01*
X-10252331Y16254585D01*
X-10091404Y16172589D01*
X-9945285Y16066427D01*
X-9817573Y15938715D01*
X-9711411Y15792596D01*
X-9629415Y15631669D01*
X-9573602Y15459896D01*
X-9545348Y15281506D01*
X-9545348Y15279045D01*
X-9534183Y15208554D01*
X-9303800Y15226686D01*
X-9303800Y16031364D01*
X-9303800Y16031365D01*
X-9303800Y16041201D01*
X-9295805Y16110115D01*
X-9288824Y16125927D01*
X-9287587Y16133734D01*
X-9271014Y16166262D01*
X-9251124Y16211306D01*
X-9172906Y16289524D01*
X-9127862Y16309414D01*
X-9095334Y16325987D01*
X-9087527Y16327224D01*
X-9071715Y16334205D01*
X-9002800Y16342199D01*
X-8992971Y16342200D01*
X-8992964Y16342200D01*
X-7312636Y16342200D01*
X-7302799Y16342200D01*
X-7233885Y16334205D01*
G37*
M02*
