M48
; DRILL file {KiCad 7.0.5} date Mon Jan  8 16:38:29 2024
; FORMAT={-:-/ absolute / inch / decimal}
; #@! TF.CreationDate,2024-01-08T16:38:29+08:00
; #@! TF.GenerationSoftware,Kicad,Pcbnew,7.0.5
; #@! TF.FileFunction,NonPlated,1,2,NPTH
FMAT,2
INCH
; #@! TA.AperFunction,NonPlated,NPTH,ComponentDrill
T1C0.0315
; #@! TA.AperFunction,NonPlated,NPTH,ComponentDrill
T2C0.0669
; #@! TA.AperFunction,NonPlated,NPTH,ComponentDrill
T3C0.1181
; #@! TA.AperFunction,NonPlated,NPTH,ComponentDrill
T4C0.1260
; #@! TA.AperFunction,NonPlated,NPTH,ComponentDrill
T5C0.1575
%
G90
G05
T1
X8.0884Y-5.0948
X8.3546Y-5.1661
T2
X3.7121Y-2.8616
X3.7121Y-3.6293
X3.7121Y-4.3774
X4.1121Y-2.8616
X4.1121Y-3.6293
X4.1121Y-4.3774
X4.4602Y-2.7632
X4.4602Y-3.5112
X4.4602Y-4.2592
X4.8602Y-2.7632
X4.8602Y-3.5112
X4.8602Y-4.2592
X5.2082Y-2.6726
X5.2082Y-3.4207
X5.2082Y-4.1687
X5.6082Y-2.6726
X5.6082Y-3.4207
X5.6082Y-4.1687
X5.9562Y-2.7711
X5.9562Y-3.5191
X5.9562Y-4.2671
X6.1038Y-5.1398
X6.3562Y-2.7711
X6.3562Y-3.5191
X6.3562Y-4.2671
X6.4901Y-5.2433
X6.7042Y-2.8892
X6.7042Y-3.6372
X6.7042Y-4.3852
X6.8342Y-5.3641
X7.1042Y-2.8892
X7.1042Y-3.6372
X7.1042Y-4.3852
X7.2206Y-5.4676
X7.7326Y-5.5897
X8.119Y-5.6932
T3
X3.7621Y-2.7616
X3.7621Y-3.5293
X3.7621Y-4.2774
X3.8121Y-2.6616
X3.8121Y-3.4293
X3.8121Y-4.1774
X4.0121Y-2.6616
X4.0121Y-3.4293
X4.0121Y-4.1774
X4.0621Y-2.7616
X4.0621Y-3.5293
X4.0621Y-4.2774
X4.5102Y-2.6632
X4.5102Y-3.4112
X4.5102Y-4.1592
X4.5602Y-2.5632
X4.5602Y-3.3112
X4.5602Y-4.0592
X4.7602Y-2.5632
X4.7602Y-3.3112
X4.7602Y-4.0592
X4.8102Y-2.6632
X4.8102Y-3.4112
X4.8102Y-4.1592
X5.2582Y-2.5726
X5.2582Y-3.3207
X5.2582Y-4.0687
X5.3082Y-2.4726
X5.3082Y-3.2207
X5.3082Y-3.9687
X5.5082Y-2.4726
X5.5082Y-3.2207
X5.5082Y-3.9687
X5.5582Y-2.5726
X5.5582Y-3.3207
X5.5582Y-4.0687
X6.0062Y-2.6711
X6.0062Y-3.4191
X6.0062Y-4.1671
X6.0562Y-2.5711
X6.0562Y-3.3191
X6.0562Y-4.0671
X6.1779Y-5.0561
X6.2521Y-4.9725
X6.2562Y-2.5711
X6.2562Y-3.3191
X6.2562Y-4.0671
X6.3062Y-2.6711
X6.3062Y-3.4191
X6.3062Y-4.1671
X6.4453Y-5.0243
X6.4677Y-5.1338
X6.7542Y-2.7892
X6.7542Y-3.5372
X6.7542Y-4.2852
X6.8042Y-2.6892
X6.8042Y-3.4372
X6.8042Y-4.1852
X6.9084Y-5.2804
X6.9826Y-5.1968
X7.0042Y-2.6892
X7.0042Y-3.4372
X7.0042Y-4.1852
X7.0542Y-2.7892
X7.0542Y-3.5372
X7.0542Y-4.2852
X7.1758Y-5.2485
X7.1982Y-5.3581
X7.8068Y-5.506
X7.881Y-5.4224
X8.0741Y-5.4741
X8.0966Y-5.5837
T4
X4.2252Y-2.4311
X4.3542Y-4.6841
X4.7202Y-5.3751
X6.4692Y-4.7491
X6.5972Y-2.4487
X7.4042Y-5.7891
T5
X3.9121Y-2.8616
X3.9121Y-3.6293
X3.9121Y-4.3774
X4.6602Y-2.7632
X4.6602Y-3.5112
X4.6602Y-4.2592
X5.4082Y-2.6726
X5.4082Y-3.4207
X5.4082Y-4.1687
X6.1562Y-2.7711
X6.1562Y-3.5191
X6.1562Y-4.2671
X6.2969Y-5.1916
X6.9042Y-2.8892
X6.9042Y-3.6372
X6.9042Y-4.3852
X7.0274Y-5.4159
X7.9258Y-5.6414
T0
M30
