M48
; DRILL file {KiCad 7.0.5} date Wed Jun 14 10:23:49 2023
; FORMAT={-:-/ absolute / inch / decimal}
; #@! TF.CreationDate,2023-06-14T10:23:49+08:00
; #@! TF.GenerationSoftware,Kicad,Pcbnew,7.0.5
; #@! TF.FileFunction,NonPlated,1,2,NPTH
FMAT,2
INCH
; #@! TA.AperFunction,NonPlated,NPTH,ComponentDrill
T1C0.0315
; #@! TA.AperFunction,NonPlated,NPTH,ComponentDrill
T2C0.0709
; #@! TA.AperFunction,NonPlated,NPTH,ComponentDrill
T3C0.1181
; #@! TA.AperFunction,NonPlated,NPTH,ComponentDrill
T4C0.1260
; #@! TA.AperFunction,NonPlated,NPTH,ComponentDrill
T5C0.1339
%
G90
G05
T1
X7.7139Y-4.8099
X7.7852Y-4.5437
T2
X4.1214Y-3.7033
X4.181Y-4.3698
X4.1974Y-2.9886
X4.5529Y-3.6656
X4.6124Y-4.332
X4.6304Y-2.9886
X4.906Y-2.905
X4.906Y-3.5743
X4.906Y-4.2436
X5.3391Y-2.905
X5.3391Y-3.5743
X5.3391Y-4.2436
X5.6147Y-2.7353
X5.6147Y-3.4046
X5.6147Y-4.0739
X6.0477Y-2.7353
X6.0477Y-3.4046
X6.0477Y-4.0739
X6.3233Y-2.8656
X6.3233Y-3.5349
X6.3233Y-4.2042
X6.7564Y-2.8656
X6.7564Y-3.5349
X6.7564Y-4.2042
X6.8442Y-5.2321
X7.032Y-2.9365
X7.032Y-3.6058
X7.032Y-4.2751
X7.2707Y-5.3073
X7.4651Y-2.9365
X7.4651Y-3.6058
X7.4651Y-4.2751
X7.5995Y-5.395
X8.0065Y-5.5431
T3
X4.1283Y-3.5565
X4.1879Y-4.2229
X4.2171Y-2.843
X4.3169Y-3.4531
X4.3765Y-4.1195
X4.4139Y-2.7563
X4.5205Y-3.5222
X4.5801Y-4.1886
X4.6108Y-2.843
X4.9257Y-2.7594
X4.9257Y-3.4286
X4.9257Y-4.0979
X5.1226Y-2.6727
X5.1226Y-3.342
X5.1226Y-4.0113
X5.3194Y-2.7594
X5.3194Y-3.4286
X5.3194Y-4.0979
X5.6344Y-2.5896
X5.6344Y-3.2589
X5.6344Y-3.9282
X5.8312Y-2.503
X5.8312Y-3.1723
X5.8312Y-3.8416
X6.0281Y-2.5896
X6.0281Y-3.2589
X6.0281Y-3.9282
X6.343Y-2.72
X6.343Y-3.3893
X6.343Y-4.0586
X6.5399Y-2.6334
X6.5399Y-3.3026
X6.5399Y-3.972
X6.7367Y-2.72
X6.7367Y-3.3893
X6.7367Y-4.0586
X6.8383Y-5.3789
X7.0171Y-5.4984
X7.0517Y-2.7908
X7.0517Y-3.4601
X7.0517Y-4.1294
X7.226Y-5.4473
X7.2485Y-2.7042
X7.2485Y-3.3735
X7.2485Y-4.0428
X7.4454Y-2.7908
X7.4454Y-3.4601
X7.4454Y-4.1294
X7.5682Y-5.5386
X7.7236Y-5.6873
X7.9382Y-5.6733
T4
X4.7015Y-2.5527
X4.8125Y-4.6351
X5.3805Y-5.2551
X6.8345Y-4.6351
X7.0245Y-2.5131
X7.4865Y-5.1631
T5
X4.3371Y-3.6845
X4.3967Y-4.3509
X4.4139Y-2.9886
X5.1226Y-2.905
X5.1226Y-3.5743
X5.1226Y-4.2436
X5.8312Y-2.7353
X5.8312Y-3.4046
X5.8312Y-4.0739
X6.5399Y-2.8656
X6.5399Y-3.5349
X6.5399Y-4.2042
X7.0575Y-5.2697
X7.2485Y-2.9365
X7.2485Y-3.6058
X7.2485Y-4.2751
X7.803Y-5.4691
T0
M30
