G04 #@! TF.GenerationSoftware,KiCad,Pcbnew,7.0.5*
G04 #@! TF.CreationDate,2023-06-14T10:23:52+08:00*
G04 #@! TF.ProjectId,AWKB-C,41574b42-2d43-42e6-9b69-6361645f7063,rev?*
G04 #@! TF.SameCoordinates,Original*
G04 #@! TF.FileFunction,Legend,Bot*
G04 #@! TF.FilePolarity,Positive*
%FSLAX46Y46*%
G04 Gerber Fmt 4.6, Leading zero omitted, Abs format (unit mm)*
G04 Created by KiCad (PCBNEW 7.0.5) date 2023-06-14 10:23:52*
%MOMM*%
%LPD*%
G01*
G04 APERTURE LIST*
G04 Aperture macros list*
%AMRoundRect*
0 Rectangle with rounded corners*
0 $1 Rounding radius*
0 $2 $3 $4 $5 $6 $7 $8 $9 X,Y pos of 4 corners*
0 Add a 4 corners polygon primitive as box body*
4,1,4,$2,$3,$4,$5,$6,$7,$8,$9,$2,$3,0*
0 Add four circle primitives for the rounded corners*
1,1,$1+$1,$2,$3*
1,1,$1+$1,$4,$5*
1,1,$1+$1,$6,$7*
1,1,$1+$1,$8,$9*
0 Add four rect primitives between the rounded corners*
20,1,$1+$1,$2,$3,$4,$5,0*
20,1,$1+$1,$4,$5,$6,$7,0*
20,1,$1+$1,$6,$7,$8,$9,0*
20,1,$1+$1,$8,$9,$2,$3,0*%
%AMHorizOval*
0 Thick line with rounded ends*
0 $1 width*
0 $2 $3 position (X,Y) of the first rounded end (center of the circle)*
0 $4 $5 position (X,Y) of the second rounded end (center of the circle)*
0 Add line between two ends*
20,1,$1,$2,$3,$4,$5,0*
0 Add two circle primitives to create the rounded ends*
1,1,$1,$2,$3*
1,1,$1,$4,$5*%
%AMFreePoly0*
4,1,22,0.686777,0.580194,0.756366,0.524698,0.794986,0.444504,0.799999,0.400000,0.800000,0.200000,0.780194,0.113223,0.741421,0.058579,0.141421,-0.541421,0.066056,-0.588777,-0.022393,-0.598742,-0.106406,-0.569345,-0.141421,-0.541421,-0.741421,0.058579,-0.788777,0.133944,-0.800000,0.200000,-0.800000,0.400000,-0.780194,0.486777,-0.724698,0.556366,-0.644504,0.594986,-0.600000,0.600000,
0.600000,0.600000,0.686777,0.580194,0.686777,0.580194,$1*%
%AMFreePoly1*
4,1,26,0.706406,1.169345,0.769345,1.106406,0.798742,1.022393,0.800000,1.000000,0.800000,-0.250000,0.780194,-0.336777,0.724698,-0.406366,0.644504,-0.444986,0.600000,-0.450000,-0.600000,-0.450000,-0.686777,-0.430194,-0.756366,-0.374698,-0.794986,-0.294504,-0.800000,-0.250000,-0.800001,1.000000,-0.780194,1.086777,-0.724698,1.156366,-0.644504,1.194985,-0.555496,1.194986,-0.475302,1.156366,
-0.458579,1.141421,0.000000,0.682842,0.458579,1.141421,0.533944,1.188777,0.622393,1.198742,0.706406,1.169345,0.706406,1.169345,$1*%
G04 Aperture macros list end*
%ADD10C,0.150000*%
%ADD11C,0.200000*%
%ADD12C,0.100000*%
%ADD13C,2.200000*%
%ADD14C,3.400000*%
%ADD15C,3.800000*%
%ADD16RoundRect,0.200000X-0.800000X-1.100000X0.800000X-1.100000X0.800000X1.100000X-0.800000X1.100000X0*%
%ADD17RoundRect,0.200000X-0.600000X-0.700000X0.600000X-0.700000X0.600000X0.700000X-0.600000X0.700000X0*%
%ADD18C,3.600000*%
%ADD19RoundRect,0.200000X0.978859X0.944370X-0.596833X1.222207X-0.978859X-0.944370X0.596833X-1.222207X0*%
%ADD20RoundRect,0.200000X-0.701084X-1.165539X0.892827X-1.026090X0.701084X1.165539X-0.892827X1.026090X0*%
%ADD21RoundRect,0.200000X1.127976X0.760046X-0.375532X1.307278X-1.127976X-0.760046X0.375532X-1.307278X0*%
%ADD22C,2.000000*%
%ADD23FreePoly0,185.000000*%
%ADD24FreePoly0,5.000000*%
%ADD25FreePoly1,185.000000*%
%ADD26FreePoly1,5.000000*%
%ADD27RoundRect,0.200000X-0.803230X-0.452573X0.324401X-0.862997X0.803230X0.452573X-0.324401X0.862997X0*%
%ADD28RoundRect,0.200000X-0.712438X-0.585177X0.469331X-0.793554X0.712438X0.585177X-0.469331X0.793554X0*%
%ADD29RoundRect,0.200000X0.536708X0.749630X-0.658726X0.645043X-0.536708X-0.749630X0.658726X-0.645043X0*%
%ADD30RoundRect,0.200000X0.600000X0.700000X-0.600000X0.700000X-0.600000X-0.700000X0.600000X-0.700000X0*%
%ADD31C,1.200000*%
%ADD32HorizOval,2.000000X0.051764X0.193185X-0.051764X-0.193185X0*%
%ADD33HorizOval,2.000000X-0.051764X-0.193185X0.051764X0.193185X0*%
%ADD34C,1.100000*%
G04 APERTURE END LIST*
D10*
X166937592Y-119999081D02*
X166847116Y-120799081D01*
X166847116Y-120799081D02*
X166623306Y-120227652D01*
X166623306Y-120227652D02*
X166542354Y-120799081D01*
X166542354Y-120799081D02*
X166251877Y-119999081D01*
X166047115Y-120799081D02*
X165947115Y-119999081D01*
X165704258Y-120799081D02*
X165651877Y-120380033D01*
X165651877Y-120380033D02*
X165680449Y-120303843D01*
X165680449Y-120303843D02*
X165751877Y-120265747D01*
X165751877Y-120265747D02*
X165866163Y-120265747D01*
X165866163Y-120265747D02*
X165947115Y-120303843D01*
X165947115Y-120303843D02*
X165989972Y-120341938D01*
X165332829Y-120265747D02*
X165209020Y-120799081D01*
X164951877Y-120265747D02*
X165209020Y-120799081D01*
X165209020Y-120799081D02*
X165309020Y-120989557D01*
X165309020Y-120989557D02*
X165351877Y-121027652D01*
X165351877Y-121027652D02*
X165432829Y-121065747D01*
X164080448Y-119999081D02*
X163989972Y-120799081D01*
X163989972Y-120799081D02*
X163766162Y-120227652D01*
X163766162Y-120227652D02*
X163685210Y-120799081D01*
X163685210Y-120799081D02*
X163394733Y-119999081D01*
X162880447Y-120760986D02*
X162961400Y-120799081D01*
X162961400Y-120799081D02*
X163113781Y-120799081D01*
X163113781Y-120799081D02*
X163185209Y-120760986D01*
X163185209Y-120760986D02*
X163213781Y-120684795D01*
X163213781Y-120684795D02*
X163175686Y-120380033D01*
X163175686Y-120380033D02*
X163128066Y-120303843D01*
X163128066Y-120303843D02*
X163047114Y-120265747D01*
X163047114Y-120265747D02*
X162894733Y-120265747D01*
X162894733Y-120265747D02*
X162823305Y-120303843D01*
X162823305Y-120303843D02*
X162794733Y-120380033D01*
X162794733Y-120380033D02*
X162804257Y-120456224D01*
X162804257Y-120456224D02*
X163194733Y-120532414D01*
X162504257Y-120799081D02*
X162437591Y-120265747D01*
X162404257Y-119999081D02*
X162447114Y-120037176D01*
X162447114Y-120037176D02*
X162413781Y-120075271D01*
X162413781Y-120075271D02*
X162370924Y-120037176D01*
X162370924Y-120037176D02*
X162404257Y-119999081D01*
X162404257Y-119999081D02*
X162413781Y-120075271D01*
X162123305Y-120799081D02*
X162056639Y-120265747D01*
X162075686Y-120418128D02*
X162028067Y-120341938D01*
X162028067Y-120341938D02*
X161985210Y-120303843D01*
X161985210Y-120303843D02*
X161904258Y-120265747D01*
X161904258Y-120265747D02*
X161828067Y-120265747D01*
X161285210Y-120799081D02*
X161185210Y-119999081D01*
X161280448Y-120760986D02*
X161361401Y-120799081D01*
X161361401Y-120799081D02*
X161513782Y-120799081D01*
X161513782Y-120799081D02*
X161585210Y-120760986D01*
X161585210Y-120760986D02*
X161618543Y-120722890D01*
X161618543Y-120722890D02*
X161647115Y-120646700D01*
X161647115Y-120646700D02*
X161618543Y-120418128D01*
X161618543Y-120418128D02*
X161570924Y-120341938D01*
X161570924Y-120341938D02*
X161528067Y-120303843D01*
X161528067Y-120303843D02*
X161447115Y-120265747D01*
X161447115Y-120265747D02*
X161294734Y-120265747D01*
X161294734Y-120265747D02*
X161223305Y-120303843D01*
X160294733Y-120799081D02*
X160228067Y-120265747D01*
X160194733Y-119999081D02*
X160237590Y-120037176D01*
X160237590Y-120037176D02*
X160204257Y-120075271D01*
X160204257Y-120075271D02*
X160161400Y-120037176D01*
X160161400Y-120037176D02*
X160194733Y-119999081D01*
X160194733Y-119999081D02*
X160204257Y-120075271D01*
X159947115Y-120760986D02*
X159875686Y-120799081D01*
X159875686Y-120799081D02*
X159723305Y-120799081D01*
X159723305Y-120799081D02*
X159642353Y-120760986D01*
X159642353Y-120760986D02*
X159594734Y-120684795D01*
X159594734Y-120684795D02*
X159589972Y-120646700D01*
X159589972Y-120646700D02*
X159618543Y-120570509D01*
X159618543Y-120570509D02*
X159689972Y-120532414D01*
X159689972Y-120532414D02*
X159804257Y-120532414D01*
X159804257Y-120532414D02*
X159875686Y-120494319D01*
X159875686Y-120494319D02*
X159904257Y-120418128D01*
X159904257Y-120418128D02*
X159899496Y-120380033D01*
X159899496Y-120380033D02*
X159851876Y-120303843D01*
X159851876Y-120303843D02*
X159770924Y-120265747D01*
X159770924Y-120265747D02*
X159656638Y-120265747D01*
X159656638Y-120265747D02*
X159585210Y-120303843D01*
X158632829Y-119999081D02*
X158542353Y-120799081D01*
X158542353Y-120799081D02*
X158318543Y-120227652D01*
X158318543Y-120227652D02*
X158237591Y-120799081D01*
X158237591Y-120799081D02*
X157947114Y-119999081D01*
X157628067Y-120799081D02*
X157699495Y-120760986D01*
X157699495Y-120760986D02*
X157732828Y-120722890D01*
X157732828Y-120722890D02*
X157761400Y-120646700D01*
X157761400Y-120646700D02*
X157732828Y-120418128D01*
X157732828Y-120418128D02*
X157685209Y-120341938D01*
X157685209Y-120341938D02*
X157642352Y-120303843D01*
X157642352Y-120303843D02*
X157561400Y-120265747D01*
X157561400Y-120265747D02*
X157447114Y-120265747D01*
X157447114Y-120265747D02*
X157375686Y-120303843D01*
X157375686Y-120303843D02*
X157342352Y-120341938D01*
X157342352Y-120341938D02*
X157313781Y-120418128D01*
X157313781Y-120418128D02*
X157342352Y-120646700D01*
X157342352Y-120646700D02*
X157389971Y-120722890D01*
X157389971Y-120722890D02*
X157432828Y-120760986D01*
X157432828Y-120760986D02*
X157513781Y-120799081D01*
X157513781Y-120799081D02*
X157628067Y-120799081D01*
X156951876Y-120265747D02*
X157018542Y-120799081D01*
X156961399Y-120341938D02*
X156918542Y-120303843D01*
X156918542Y-120303843D02*
X156837590Y-120265747D01*
X156837590Y-120265747D02*
X156723304Y-120265747D01*
X156723304Y-120265747D02*
X156651876Y-120303843D01*
X156651876Y-120303843D02*
X156623304Y-120380033D01*
X156623304Y-120380033D02*
X156675685Y-120799081D01*
X155951875Y-120799081D02*
X155851875Y-119999081D01*
X155947113Y-120760986D02*
X156028066Y-120799081D01*
X156028066Y-120799081D02*
X156180447Y-120799081D01*
X156180447Y-120799081D02*
X156251875Y-120760986D01*
X156251875Y-120760986D02*
X156285208Y-120722890D01*
X156285208Y-120722890D02*
X156313780Y-120646700D01*
X156313780Y-120646700D02*
X156285208Y-120418128D01*
X156285208Y-120418128D02*
X156237589Y-120341938D01*
X156237589Y-120341938D02*
X156194732Y-120303843D01*
X156194732Y-120303843D02*
X156113780Y-120265747D01*
X156113780Y-120265747D02*
X155961399Y-120265747D01*
X155961399Y-120265747D02*
X155889970Y-120303843D01*
X155261398Y-120760986D02*
X155342351Y-120799081D01*
X155342351Y-120799081D02*
X155494732Y-120799081D01*
X155494732Y-120799081D02*
X155566160Y-120760986D01*
X155566160Y-120760986D02*
X155594732Y-120684795D01*
X155594732Y-120684795D02*
X155556637Y-120380033D01*
X155556637Y-120380033D02*
X155509017Y-120303843D01*
X155509017Y-120303843D02*
X155428065Y-120265747D01*
X155428065Y-120265747D02*
X155275684Y-120265747D01*
X155275684Y-120265747D02*
X155204256Y-120303843D01*
X155204256Y-120303843D02*
X155175684Y-120380033D01*
X155175684Y-120380033D02*
X155185208Y-120456224D01*
X155185208Y-120456224D02*
X155575684Y-120532414D01*
X154885208Y-120799081D02*
X154818542Y-120265747D01*
X154837589Y-120418128D02*
X154789970Y-120341938D01*
X154789970Y-120341938D02*
X154747113Y-120303843D01*
X154747113Y-120303843D02*
X154666161Y-120265747D01*
X154666161Y-120265747D02*
X154589970Y-120265747D01*
X154437589Y-120265747D02*
X154132827Y-120265747D01*
X154389970Y-120799081D02*
X154304256Y-120113366D01*
X154304256Y-120113366D02*
X154256637Y-120037176D01*
X154256637Y-120037176D02*
X154175685Y-119999081D01*
X154175685Y-119999081D02*
X154099494Y-119999081D01*
X153523303Y-120265747D02*
X153589970Y-120799081D01*
X153866161Y-120265747D02*
X153918542Y-120684795D01*
X153918542Y-120684795D02*
X153889970Y-120760986D01*
X153889970Y-120760986D02*
X153818542Y-120799081D01*
X153818542Y-120799081D02*
X153704256Y-120799081D01*
X153704256Y-120799081D02*
X153623303Y-120760986D01*
X153623303Y-120760986D02*
X153580446Y-120722890D01*
X153094732Y-120799081D02*
X153166160Y-120760986D01*
X153166160Y-120760986D02*
X153194732Y-120684795D01*
X153194732Y-120684795D02*
X153109017Y-119999081D01*
X151989969Y-121103843D02*
X152023302Y-121065747D01*
X152023302Y-121065747D02*
X152085207Y-120951462D01*
X152085207Y-120951462D02*
X152113779Y-120875271D01*
X152113779Y-120875271D02*
X152137588Y-120760986D01*
X152137588Y-120760986D02*
X152151874Y-120570509D01*
X152151874Y-120570509D02*
X152132826Y-120418128D01*
X152132826Y-120418128D02*
X152070921Y-120227652D01*
X152070921Y-120227652D02*
X152018540Y-120113366D01*
X152018540Y-120113366D02*
X151970921Y-120037176D01*
X151970921Y-120037176D02*
X151880445Y-119922890D01*
X151880445Y-119922890D02*
X151837588Y-119884795D01*
X151304255Y-120799081D02*
X151251874Y-120380033D01*
X151251874Y-120380033D02*
X151280446Y-120303843D01*
X151280446Y-120303843D02*
X151351874Y-120265747D01*
X151351874Y-120265747D02*
X151504255Y-120265747D01*
X151504255Y-120265747D02*
X151585207Y-120303843D01*
X151299493Y-120760986D02*
X151380446Y-120799081D01*
X151380446Y-120799081D02*
X151570922Y-120799081D01*
X151570922Y-120799081D02*
X151642350Y-120760986D01*
X151642350Y-120760986D02*
X151670922Y-120684795D01*
X151670922Y-120684795D02*
X151661398Y-120608605D01*
X151661398Y-120608605D02*
X151613779Y-120532414D01*
X151613779Y-120532414D02*
X151532827Y-120494319D01*
X151532827Y-120494319D02*
X151342350Y-120494319D01*
X151342350Y-120494319D02*
X151261398Y-120456224D01*
X150856636Y-120265747D02*
X150923302Y-120799081D01*
X150866159Y-120341938D02*
X150823302Y-120303843D01*
X150823302Y-120303843D02*
X150742350Y-120265747D01*
X150742350Y-120265747D02*
X150628064Y-120265747D01*
X150628064Y-120265747D02*
X150556636Y-120303843D01*
X150556636Y-120303843D02*
X150528064Y-120380033D01*
X150528064Y-120380033D02*
X150580445Y-120799081D01*
X149856635Y-120799081D02*
X149756635Y-119999081D01*
X149851873Y-120760986D02*
X149932826Y-120799081D01*
X149932826Y-120799081D02*
X150085207Y-120799081D01*
X150085207Y-120799081D02*
X150156635Y-120760986D01*
X150156635Y-120760986D02*
X150189968Y-120722890D01*
X150189968Y-120722890D02*
X150218540Y-120646700D01*
X150218540Y-120646700D02*
X150189968Y-120418128D01*
X150189968Y-120418128D02*
X150142349Y-120341938D01*
X150142349Y-120341938D02*
X150099492Y-120303843D01*
X150099492Y-120303843D02*
X150018540Y-120265747D01*
X150018540Y-120265747D02*
X149866159Y-120265747D01*
X149866159Y-120265747D02*
X149794730Y-120303843D01*
X148547111Y-120380033D02*
X148437587Y-120418128D01*
X148437587Y-120418128D02*
X148404253Y-120456224D01*
X148404253Y-120456224D02*
X148375682Y-120532414D01*
X148375682Y-120532414D02*
X148389968Y-120646700D01*
X148389968Y-120646700D02*
X148437587Y-120722890D01*
X148437587Y-120722890D02*
X148480444Y-120760986D01*
X148480444Y-120760986D02*
X148561396Y-120799081D01*
X148561396Y-120799081D02*
X148866158Y-120799081D01*
X148866158Y-120799081D02*
X148766158Y-119999081D01*
X148766158Y-119999081D02*
X148499492Y-119999081D01*
X148499492Y-119999081D02*
X148428063Y-120037176D01*
X148428063Y-120037176D02*
X148394730Y-120075271D01*
X148394730Y-120075271D02*
X148366158Y-120151462D01*
X148366158Y-120151462D02*
X148375682Y-120227652D01*
X148375682Y-120227652D02*
X148423301Y-120303843D01*
X148423301Y-120303843D02*
X148466158Y-120341938D01*
X148466158Y-120341938D02*
X148547111Y-120380033D01*
X148547111Y-120380033D02*
X148813777Y-120380033D01*
X147723301Y-120799081D02*
X147670920Y-120380033D01*
X147670920Y-120380033D02*
X147699492Y-120303843D01*
X147699492Y-120303843D02*
X147770920Y-120265747D01*
X147770920Y-120265747D02*
X147923301Y-120265747D01*
X147923301Y-120265747D02*
X148004253Y-120303843D01*
X147718539Y-120760986D02*
X147799492Y-120799081D01*
X147799492Y-120799081D02*
X147989968Y-120799081D01*
X147989968Y-120799081D02*
X148061396Y-120760986D01*
X148061396Y-120760986D02*
X148089968Y-120684795D01*
X148089968Y-120684795D02*
X148080444Y-120608605D01*
X148080444Y-120608605D02*
X148032825Y-120532414D01*
X148032825Y-120532414D02*
X147951873Y-120494319D01*
X147951873Y-120494319D02*
X147761396Y-120494319D01*
X147761396Y-120494319D02*
X147680444Y-120456224D01*
X147275682Y-120265747D02*
X147342348Y-120799081D01*
X147285205Y-120341938D02*
X147242348Y-120303843D01*
X147242348Y-120303843D02*
X147161396Y-120265747D01*
X147161396Y-120265747D02*
X147047110Y-120265747D01*
X147047110Y-120265747D02*
X146975682Y-120303843D01*
X146975682Y-120303843D02*
X146947110Y-120380033D01*
X146947110Y-120380033D02*
X146999491Y-120799081D01*
X146618538Y-120799081D02*
X146518538Y-119999081D01*
X146504253Y-120494319D02*
X146313776Y-120799081D01*
X146247110Y-120265747D02*
X146589967Y-120570509D01*
X145628062Y-120799081D02*
X145575681Y-120380033D01*
X145575681Y-120380033D02*
X145604253Y-120303843D01*
X145604253Y-120303843D02*
X145675681Y-120265747D01*
X145675681Y-120265747D02*
X145828062Y-120265747D01*
X145828062Y-120265747D02*
X145909014Y-120303843D01*
X145623300Y-120760986D02*
X145704253Y-120799081D01*
X145704253Y-120799081D02*
X145894729Y-120799081D01*
X145894729Y-120799081D02*
X145966157Y-120760986D01*
X145966157Y-120760986D02*
X145994729Y-120684795D01*
X145994729Y-120684795D02*
X145985205Y-120608605D01*
X145985205Y-120608605D02*
X145937586Y-120532414D01*
X145937586Y-120532414D02*
X145856634Y-120494319D01*
X145856634Y-120494319D02*
X145666157Y-120494319D01*
X145666157Y-120494319D02*
X145585205Y-120456224D01*
X145247109Y-120799081D02*
X145147109Y-119999081D01*
X145185204Y-120303843D02*
X145104252Y-120265747D01*
X145104252Y-120265747D02*
X144951871Y-120265747D01*
X144951871Y-120265747D02*
X144880443Y-120303843D01*
X144880443Y-120303843D02*
X144847109Y-120341938D01*
X144847109Y-120341938D02*
X144818538Y-120418128D01*
X144818538Y-120418128D02*
X144847109Y-120646700D01*
X144847109Y-120646700D02*
X144894728Y-120722890D01*
X144894728Y-120722890D02*
X144937585Y-120760986D01*
X144937585Y-120760986D02*
X145018538Y-120799081D01*
X145018538Y-120799081D02*
X145170919Y-120799081D01*
X145170919Y-120799081D02*
X145242347Y-120760986D01*
X144409014Y-120799081D02*
X144480442Y-120760986D01*
X144480442Y-120760986D02*
X144509014Y-120684795D01*
X144509014Y-120684795D02*
X144423299Y-119999081D01*
X143794727Y-120760986D02*
X143875680Y-120799081D01*
X143875680Y-120799081D02*
X144028061Y-120799081D01*
X144028061Y-120799081D02*
X144099489Y-120760986D01*
X144099489Y-120760986D02*
X144128061Y-120684795D01*
X144128061Y-120684795D02*
X144089966Y-120380033D01*
X144089966Y-120380033D02*
X144042346Y-120303843D01*
X144042346Y-120303843D02*
X143961394Y-120265747D01*
X143961394Y-120265747D02*
X143809013Y-120265747D01*
X143809013Y-120265747D02*
X143737585Y-120303843D01*
X143737585Y-120303843D02*
X143709013Y-120380033D01*
X143709013Y-120380033D02*
X143718537Y-120456224D01*
X143718537Y-120456224D02*
X144109013Y-120532414D01*
X143532823Y-121103843D02*
X143489966Y-121065747D01*
X143489966Y-121065747D02*
X143399490Y-120951462D01*
X143399490Y-120951462D02*
X143351871Y-120875271D01*
X143351871Y-120875271D02*
X143299490Y-120760986D01*
X143299490Y-120760986D02*
X143237585Y-120570509D01*
X143237585Y-120570509D02*
X143218537Y-120418128D01*
X143218537Y-120418128D02*
X143232823Y-120227652D01*
X143232823Y-120227652D02*
X143256632Y-120113366D01*
X143256632Y-120113366D02*
X143285204Y-120037176D01*
X143285204Y-120037176D02*
X143347109Y-119922890D01*
X143347109Y-119922890D02*
X143380442Y-119884795D01*
X163632831Y-122956033D02*
X163523307Y-122994128D01*
X163523307Y-122994128D02*
X163489973Y-123032224D01*
X163489973Y-123032224D02*
X163461402Y-123108414D01*
X163461402Y-123108414D02*
X163475688Y-123222700D01*
X163475688Y-123222700D02*
X163523307Y-123298890D01*
X163523307Y-123298890D02*
X163566164Y-123336986D01*
X163566164Y-123336986D02*
X163647116Y-123375081D01*
X163647116Y-123375081D02*
X163951878Y-123375081D01*
X163951878Y-123375081D02*
X163851878Y-122575081D01*
X163851878Y-122575081D02*
X163585212Y-122575081D01*
X163585212Y-122575081D02*
X163513783Y-122613176D01*
X163513783Y-122613176D02*
X163480450Y-122651271D01*
X163480450Y-122651271D02*
X163451878Y-122727462D01*
X163451878Y-122727462D02*
X163461402Y-122803652D01*
X163461402Y-122803652D02*
X163509021Y-122879843D01*
X163509021Y-122879843D02*
X163551878Y-122917938D01*
X163551878Y-122917938D02*
X163632831Y-122956033D01*
X163632831Y-122956033D02*
X163899497Y-122956033D01*
X162842354Y-123336986D02*
X162923307Y-123375081D01*
X162923307Y-123375081D02*
X163075688Y-123375081D01*
X163075688Y-123375081D02*
X163147116Y-123336986D01*
X163147116Y-123336986D02*
X163175688Y-123260795D01*
X163175688Y-123260795D02*
X163137593Y-122956033D01*
X163137593Y-122956033D02*
X163089973Y-122879843D01*
X163089973Y-122879843D02*
X163009021Y-122841747D01*
X163009021Y-122841747D02*
X162856640Y-122841747D01*
X162856640Y-122841747D02*
X162785212Y-122879843D01*
X162785212Y-122879843D02*
X162756640Y-122956033D01*
X162756640Y-122956033D02*
X162766164Y-123032224D01*
X162766164Y-123032224D02*
X163156640Y-123108414D01*
X162466164Y-123375081D02*
X162399498Y-122841747D01*
X162366164Y-122575081D02*
X162409021Y-122613176D01*
X162409021Y-122613176D02*
X162375688Y-122651271D01*
X162375688Y-122651271D02*
X162332831Y-122613176D01*
X162332831Y-122613176D02*
X162366164Y-122575081D01*
X162366164Y-122575081D02*
X162375688Y-122651271D01*
X162018546Y-122841747D02*
X162085212Y-123375081D01*
X162028069Y-122917938D02*
X161985212Y-122879843D01*
X161985212Y-122879843D02*
X161904260Y-122841747D01*
X161904260Y-122841747D02*
X161789974Y-122841747D01*
X161789974Y-122841747D02*
X161718546Y-122879843D01*
X161718546Y-122879843D02*
X161689974Y-122956033D01*
X161689974Y-122956033D02*
X161742355Y-123375081D01*
X160951878Y-122841747D02*
X161032831Y-123489366D01*
X161032831Y-123489366D02*
X161080450Y-123565557D01*
X161080450Y-123565557D02*
X161123307Y-123603652D01*
X161123307Y-123603652D02*
X161204259Y-123641747D01*
X161204259Y-123641747D02*
X161318545Y-123641747D01*
X161318545Y-123641747D02*
X161389974Y-123603652D01*
X161013783Y-123336986D02*
X161094736Y-123375081D01*
X161094736Y-123375081D02*
X161247117Y-123375081D01*
X161247117Y-123375081D02*
X161318545Y-123336986D01*
X161318545Y-123336986D02*
X161351878Y-123298890D01*
X161351878Y-123298890D02*
X161380450Y-123222700D01*
X161380450Y-123222700D02*
X161351878Y-122994128D01*
X161351878Y-122994128D02*
X161304259Y-122917938D01*
X161304259Y-122917938D02*
X161261402Y-122879843D01*
X161261402Y-122879843D02*
X161180450Y-122841747D01*
X161180450Y-122841747D02*
X161028069Y-122841747D01*
X161028069Y-122841747D02*
X160956640Y-122879843D01*
X160037592Y-122841747D02*
X159951878Y-123375081D01*
X159951878Y-123375081D02*
X159751878Y-122994128D01*
X159751878Y-122994128D02*
X159647116Y-123375081D01*
X159647116Y-123375081D02*
X159428068Y-122841747D01*
X158880449Y-123336986D02*
X158961402Y-123375081D01*
X158961402Y-123375081D02*
X159113783Y-123375081D01*
X159113783Y-123375081D02*
X159185211Y-123336986D01*
X159185211Y-123336986D02*
X159213783Y-123260795D01*
X159213783Y-123260795D02*
X159175688Y-122956033D01*
X159175688Y-122956033D02*
X159128068Y-122879843D01*
X159128068Y-122879843D02*
X159047116Y-122841747D01*
X159047116Y-122841747D02*
X158894735Y-122841747D01*
X158894735Y-122841747D02*
X158823307Y-122879843D01*
X158823307Y-122879843D02*
X158794735Y-122956033D01*
X158794735Y-122956033D02*
X158804259Y-123032224D01*
X158804259Y-123032224D02*
X159194735Y-123108414D01*
X158504259Y-123375081D02*
X158437593Y-122841747D01*
X158404259Y-122575081D02*
X158447116Y-122613176D01*
X158447116Y-122613176D02*
X158413783Y-122651271D01*
X158413783Y-122651271D02*
X158370926Y-122613176D01*
X158370926Y-122613176D02*
X158404259Y-122575081D01*
X158404259Y-122575081D02*
X158413783Y-122651271D01*
X158123307Y-123375081D02*
X158056641Y-122841747D01*
X158075688Y-122994128D02*
X158028069Y-122917938D01*
X158028069Y-122917938D02*
X157985212Y-122879843D01*
X157985212Y-122879843D02*
X157904260Y-122841747D01*
X157904260Y-122841747D02*
X157828069Y-122841747D01*
X157285212Y-123375081D02*
X157185212Y-122575081D01*
X157280450Y-123336986D02*
X157361403Y-123375081D01*
X157361403Y-123375081D02*
X157513784Y-123375081D01*
X157513784Y-123375081D02*
X157585212Y-123336986D01*
X157585212Y-123336986D02*
X157618545Y-123298890D01*
X157618545Y-123298890D02*
X157647117Y-123222700D01*
X157647117Y-123222700D02*
X157618545Y-122994128D01*
X157618545Y-122994128D02*
X157570926Y-122917938D01*
X157570926Y-122917938D02*
X157528069Y-122879843D01*
X157528069Y-122879843D02*
X157447117Y-122841747D01*
X157447117Y-122841747D02*
X157294736Y-122841747D01*
X157294736Y-122841747D02*
X157223307Y-122879843D01*
X156294735Y-123375081D02*
X156228069Y-122841747D01*
X156237592Y-122917938D02*
X156194735Y-122879843D01*
X156194735Y-122879843D02*
X156113783Y-122841747D01*
X156113783Y-122841747D02*
X155999497Y-122841747D01*
X155999497Y-122841747D02*
X155928069Y-122879843D01*
X155928069Y-122879843D02*
X155899497Y-122956033D01*
X155899497Y-122956033D02*
X155951878Y-123375081D01*
X155899497Y-122956033D02*
X155851878Y-122879843D01*
X155851878Y-122879843D02*
X155770926Y-122841747D01*
X155770926Y-122841747D02*
X155656640Y-122841747D01*
X155656640Y-122841747D02*
X155585211Y-122879843D01*
X155585211Y-122879843D02*
X155556640Y-122956033D01*
X155556640Y-122956033D02*
X155609021Y-123375081D01*
X154918544Y-123336986D02*
X154999497Y-123375081D01*
X154999497Y-123375081D02*
X155151878Y-123375081D01*
X155151878Y-123375081D02*
X155223306Y-123336986D01*
X155223306Y-123336986D02*
X155251878Y-123260795D01*
X155251878Y-123260795D02*
X155213783Y-122956033D01*
X155213783Y-122956033D02*
X155166163Y-122879843D01*
X155166163Y-122879843D02*
X155085211Y-122841747D01*
X155085211Y-122841747D02*
X154932830Y-122841747D01*
X154932830Y-122841747D02*
X154861402Y-122879843D01*
X154861402Y-122879843D02*
X154832830Y-122956033D01*
X154832830Y-122956033D02*
X154842354Y-123032224D01*
X154842354Y-123032224D02*
X155232830Y-123108414D01*
X154199497Y-123375081D02*
X154147116Y-122956033D01*
X154147116Y-122956033D02*
X154175688Y-122879843D01*
X154175688Y-122879843D02*
X154247116Y-122841747D01*
X154247116Y-122841747D02*
X154399497Y-122841747D01*
X154399497Y-122841747D02*
X154480449Y-122879843D01*
X154194735Y-123336986D02*
X154275688Y-123375081D01*
X154275688Y-123375081D02*
X154466164Y-123375081D01*
X154466164Y-123375081D02*
X154537592Y-123336986D01*
X154537592Y-123336986D02*
X154566164Y-123260795D01*
X154566164Y-123260795D02*
X154556640Y-123184605D01*
X154556640Y-123184605D02*
X154509021Y-123108414D01*
X154509021Y-123108414D02*
X154428069Y-123070319D01*
X154428069Y-123070319D02*
X154237592Y-123070319D01*
X154237592Y-123070319D02*
X154156640Y-123032224D01*
X153751878Y-122841747D02*
X153818544Y-123375081D01*
X153761401Y-122917938D02*
X153718544Y-122879843D01*
X153718544Y-122879843D02*
X153637592Y-122841747D01*
X153637592Y-122841747D02*
X153523306Y-122841747D01*
X153523306Y-122841747D02*
X153451878Y-122879843D01*
X153451878Y-122879843D02*
X153423306Y-122956033D01*
X153423306Y-122956033D02*
X153475687Y-123375081D01*
X153128068Y-123336986D02*
X153056639Y-123375081D01*
X153056639Y-123375081D02*
X152904258Y-123375081D01*
X152904258Y-123375081D02*
X152823306Y-123336986D01*
X152823306Y-123336986D02*
X152775687Y-123260795D01*
X152775687Y-123260795D02*
X152770925Y-123222700D01*
X152770925Y-123222700D02*
X152799496Y-123146509D01*
X152799496Y-123146509D02*
X152870925Y-123108414D01*
X152870925Y-123108414D02*
X152985210Y-123108414D01*
X152985210Y-123108414D02*
X153056639Y-123070319D01*
X153056639Y-123070319D02*
X153085210Y-122994128D01*
X153085210Y-122994128D02*
X153080449Y-122956033D01*
X153080449Y-122956033D02*
X153032829Y-122879843D01*
X153032829Y-122879843D02*
X152951877Y-122841747D01*
X152951877Y-122841747D02*
X152837591Y-122841747D01*
X152837591Y-122841747D02*
X152766163Y-122879843D01*
X151837591Y-123375081D02*
X151737591Y-122575081D01*
X151775686Y-122879843D02*
X151694734Y-122841747D01*
X151694734Y-122841747D02*
X151542353Y-122841747D01*
X151542353Y-122841747D02*
X151470925Y-122879843D01*
X151470925Y-122879843D02*
X151437591Y-122917938D01*
X151437591Y-122917938D02*
X151409020Y-122994128D01*
X151409020Y-122994128D02*
X151437591Y-123222700D01*
X151437591Y-123222700D02*
X151485210Y-123298890D01*
X151485210Y-123298890D02*
X151528067Y-123336986D01*
X151528067Y-123336986D02*
X151609020Y-123375081D01*
X151609020Y-123375081D02*
X151761401Y-123375081D01*
X151761401Y-123375081D02*
X151832829Y-123336986D01*
X150804257Y-123336986D02*
X150885210Y-123375081D01*
X150885210Y-123375081D02*
X151037591Y-123375081D01*
X151037591Y-123375081D02*
X151109019Y-123336986D01*
X151109019Y-123336986D02*
X151137591Y-123260795D01*
X151137591Y-123260795D02*
X151099496Y-122956033D01*
X151099496Y-122956033D02*
X151051876Y-122879843D01*
X151051876Y-122879843D02*
X150970924Y-122841747D01*
X150970924Y-122841747D02*
X150818543Y-122841747D01*
X150818543Y-122841747D02*
X150747115Y-122879843D01*
X150747115Y-122879843D02*
X150718543Y-122956033D01*
X150718543Y-122956033D02*
X150728067Y-123032224D01*
X150728067Y-123032224D02*
X151118543Y-123108414D01*
X150428067Y-123375081D02*
X150361401Y-122841747D01*
X150328067Y-122575081D02*
X150370924Y-122613176D01*
X150370924Y-122613176D02*
X150337591Y-122651271D01*
X150337591Y-122651271D02*
X150294734Y-122613176D01*
X150294734Y-122613176D02*
X150328067Y-122575081D01*
X150328067Y-122575081D02*
X150337591Y-122651271D01*
X149980449Y-122841747D02*
X150047115Y-123375081D01*
X149989972Y-122917938D02*
X149947115Y-122879843D01*
X149947115Y-122879843D02*
X149866163Y-122841747D01*
X149866163Y-122841747D02*
X149751877Y-122841747D01*
X149751877Y-122841747D02*
X149680449Y-122879843D01*
X149680449Y-122879843D02*
X149651877Y-122956033D01*
X149651877Y-122956033D02*
X149704258Y-123375081D01*
X148913781Y-122841747D02*
X148994734Y-123489366D01*
X148994734Y-123489366D02*
X149042353Y-123565557D01*
X149042353Y-123565557D02*
X149085210Y-123603652D01*
X149085210Y-123603652D02*
X149166162Y-123641747D01*
X149166162Y-123641747D02*
X149280448Y-123641747D01*
X149280448Y-123641747D02*
X149351877Y-123603652D01*
X148975686Y-123336986D02*
X149056639Y-123375081D01*
X149056639Y-123375081D02*
X149209020Y-123375081D01*
X149209020Y-123375081D02*
X149280448Y-123336986D01*
X149280448Y-123336986D02*
X149313781Y-123298890D01*
X149313781Y-123298890D02*
X149342353Y-123222700D01*
X149342353Y-123222700D02*
X149313781Y-122994128D01*
X149313781Y-122994128D02*
X149266162Y-122917938D01*
X149266162Y-122917938D02*
X149223305Y-122879843D01*
X149223305Y-122879843D02*
X149142353Y-122841747D01*
X149142353Y-122841747D02*
X148989972Y-122841747D01*
X148989972Y-122841747D02*
X148918543Y-122879843D01*
X147923305Y-122841747D02*
X147989971Y-123375081D01*
X147932828Y-122917938D02*
X147889971Y-122879843D01*
X147889971Y-122879843D02*
X147809019Y-122841747D01*
X147809019Y-122841747D02*
X147694733Y-122841747D01*
X147694733Y-122841747D02*
X147623305Y-122879843D01*
X147623305Y-122879843D02*
X147594733Y-122956033D01*
X147594733Y-122956033D02*
X147647114Y-123375081D01*
X147151876Y-123375081D02*
X147223304Y-123336986D01*
X147223304Y-123336986D02*
X147256637Y-123298890D01*
X147256637Y-123298890D02*
X147285209Y-123222700D01*
X147285209Y-123222700D02*
X147256637Y-122994128D01*
X147256637Y-122994128D02*
X147209018Y-122917938D01*
X147209018Y-122917938D02*
X147166161Y-122879843D01*
X147166161Y-122879843D02*
X147085209Y-122841747D01*
X147085209Y-122841747D02*
X146970923Y-122841747D01*
X146970923Y-122841747D02*
X146899495Y-122879843D01*
X146899495Y-122879843D02*
X146866161Y-122917938D01*
X146866161Y-122917938D02*
X146837590Y-122994128D01*
X146837590Y-122994128D02*
X146866161Y-123222700D01*
X146866161Y-123222700D02*
X146913780Y-123298890D01*
X146913780Y-123298890D02*
X146956637Y-123336986D01*
X146956637Y-123336986D02*
X147037590Y-123375081D01*
X147037590Y-123375081D02*
X147151876Y-123375081D01*
X146589970Y-122841747D02*
X146285208Y-122841747D01*
X146442351Y-122575081D02*
X146528066Y-123260795D01*
X146528066Y-123260795D02*
X146499494Y-123336986D01*
X146499494Y-123336986D02*
X146428066Y-123375081D01*
X146428066Y-123375081D02*
X146351875Y-123375081D01*
X146085208Y-123375081D02*
X146018542Y-122841747D01*
X145985208Y-122575081D02*
X146028065Y-122613176D01*
X146028065Y-122613176D02*
X145994732Y-122651271D01*
X145994732Y-122651271D02*
X145951875Y-122613176D01*
X145951875Y-122613176D02*
X145985208Y-122575081D01*
X145985208Y-122575081D02*
X145994732Y-122651271D01*
X145356637Y-123336986D02*
X145437590Y-123375081D01*
X145437590Y-123375081D02*
X145589971Y-123375081D01*
X145589971Y-123375081D02*
X145661399Y-123336986D01*
X145661399Y-123336986D02*
X145694732Y-123298890D01*
X145694732Y-123298890D02*
X145723304Y-123222700D01*
X145723304Y-123222700D02*
X145694732Y-122994128D01*
X145694732Y-122994128D02*
X145647113Y-122917938D01*
X145647113Y-122917938D02*
X145604256Y-122879843D01*
X145604256Y-122879843D02*
X145523304Y-122841747D01*
X145523304Y-122841747D02*
X145370923Y-122841747D01*
X145370923Y-122841747D02*
X145299494Y-122879843D01*
X144709018Y-123336986D02*
X144789971Y-123375081D01*
X144789971Y-123375081D02*
X144942352Y-123375081D01*
X144942352Y-123375081D02*
X145013780Y-123336986D01*
X145013780Y-123336986D02*
X145042352Y-123260795D01*
X145042352Y-123260795D02*
X145004257Y-122956033D01*
X145004257Y-122956033D02*
X144956637Y-122879843D01*
X144956637Y-122879843D02*
X144875685Y-122841747D01*
X144875685Y-122841747D02*
X144723304Y-122841747D01*
X144723304Y-122841747D02*
X144651876Y-122879843D01*
X144651876Y-122879843D02*
X144623304Y-122956033D01*
X144623304Y-122956033D02*
X144632828Y-123032224D01*
X144632828Y-123032224D02*
X145023304Y-123108414D01*
X143989971Y-123375081D02*
X143937590Y-122956033D01*
X143937590Y-122956033D02*
X143966162Y-122879843D01*
X143966162Y-122879843D02*
X144037590Y-122841747D01*
X144037590Y-122841747D02*
X144189971Y-122841747D01*
X144189971Y-122841747D02*
X144270923Y-122879843D01*
X143985209Y-123336986D02*
X144066162Y-123375081D01*
X144066162Y-123375081D02*
X144256638Y-123375081D01*
X144256638Y-123375081D02*
X144328066Y-123336986D01*
X144328066Y-123336986D02*
X144356638Y-123260795D01*
X144356638Y-123260795D02*
X144347114Y-123184605D01*
X144347114Y-123184605D02*
X144299495Y-123108414D01*
X144299495Y-123108414D02*
X144218543Y-123070319D01*
X144218543Y-123070319D02*
X144028066Y-123070319D01*
X144028066Y-123070319D02*
X143947114Y-123032224D01*
X143609018Y-123375081D02*
X143509018Y-122575081D01*
X143547113Y-122879843D02*
X143466161Y-122841747D01*
X143466161Y-122841747D02*
X143313780Y-122841747D01*
X143313780Y-122841747D02*
X143242352Y-122879843D01*
X143242352Y-122879843D02*
X143209018Y-122917938D01*
X143209018Y-122917938D02*
X143180447Y-122994128D01*
X143180447Y-122994128D02*
X143209018Y-123222700D01*
X143209018Y-123222700D02*
X143256637Y-123298890D01*
X143256637Y-123298890D02*
X143299494Y-123336986D01*
X143299494Y-123336986D02*
X143380447Y-123375081D01*
X143380447Y-123375081D02*
X143532828Y-123375081D01*
X143532828Y-123375081D02*
X143604256Y-123336986D01*
X142770923Y-123375081D02*
X142842351Y-123336986D01*
X142842351Y-123336986D02*
X142870923Y-123260795D01*
X142870923Y-123260795D02*
X142785208Y-122575081D01*
X142475684Y-122841747D02*
X142351875Y-123375081D01*
X142094732Y-122841747D02*
X142351875Y-123375081D01*
X142351875Y-123375081D02*
X142451875Y-123565557D01*
X142451875Y-123565557D02*
X142494732Y-123603652D01*
X142494732Y-123603652D02*
X142575684Y-123641747D01*
X163609021Y-124663081D02*
X163509021Y-123863081D01*
X163604259Y-124624986D02*
X163685212Y-124663081D01*
X163685212Y-124663081D02*
X163837593Y-124663081D01*
X163837593Y-124663081D02*
X163909021Y-124624986D01*
X163909021Y-124624986D02*
X163942354Y-124586890D01*
X163942354Y-124586890D02*
X163970926Y-124510700D01*
X163970926Y-124510700D02*
X163942354Y-124282128D01*
X163942354Y-124282128D02*
X163894735Y-124205938D01*
X163894735Y-124205938D02*
X163851878Y-124167843D01*
X163851878Y-124167843D02*
X163770926Y-124129747D01*
X163770926Y-124129747D02*
X163618545Y-124129747D01*
X163618545Y-124129747D02*
X163547116Y-124167843D01*
X163228068Y-124663081D02*
X163161402Y-124129747D01*
X163128068Y-123863081D02*
X163170925Y-123901176D01*
X163170925Y-123901176D02*
X163137592Y-123939271D01*
X163137592Y-123939271D02*
X163094735Y-123901176D01*
X163094735Y-123901176D02*
X163128068Y-123863081D01*
X163128068Y-123863081D02*
X163137592Y-123939271D01*
X162894735Y-124129747D02*
X162589973Y-124129747D01*
X162847116Y-124663081D02*
X162761402Y-123977366D01*
X162761402Y-123977366D02*
X162713783Y-123901176D01*
X162713783Y-123901176D02*
X162632831Y-123863081D01*
X162632831Y-123863081D02*
X162556640Y-123863081D01*
X162437592Y-124129747D02*
X162132830Y-124129747D01*
X162389973Y-124663081D02*
X162304259Y-123977366D01*
X162304259Y-123977366D02*
X162256640Y-123901176D01*
X162256640Y-123901176D02*
X162175688Y-123863081D01*
X162175688Y-123863081D02*
X162099497Y-123863081D01*
X161623306Y-124624986D02*
X161704259Y-124663081D01*
X161704259Y-124663081D02*
X161856640Y-124663081D01*
X161856640Y-124663081D02*
X161928068Y-124624986D01*
X161928068Y-124624986D02*
X161956640Y-124548795D01*
X161956640Y-124548795D02*
X161918545Y-124244033D01*
X161918545Y-124244033D02*
X161870925Y-124167843D01*
X161870925Y-124167843D02*
X161789973Y-124129747D01*
X161789973Y-124129747D02*
X161637592Y-124129747D01*
X161637592Y-124129747D02*
X161566164Y-124167843D01*
X161566164Y-124167843D02*
X161537592Y-124244033D01*
X161537592Y-124244033D02*
X161547116Y-124320224D01*
X161547116Y-124320224D02*
X161937592Y-124396414D01*
X161247116Y-124663081D02*
X161180450Y-124129747D01*
X161199497Y-124282128D02*
X161151878Y-124205938D01*
X161151878Y-124205938D02*
X161109021Y-124167843D01*
X161109021Y-124167843D02*
X161028069Y-124129747D01*
X161028069Y-124129747D02*
X160951878Y-124129747D01*
X160442354Y-124624986D02*
X160523307Y-124663081D01*
X160523307Y-124663081D02*
X160675688Y-124663081D01*
X160675688Y-124663081D02*
X160747116Y-124624986D01*
X160747116Y-124624986D02*
X160775688Y-124548795D01*
X160775688Y-124548795D02*
X160737593Y-124244033D01*
X160737593Y-124244033D02*
X160689973Y-124167843D01*
X160689973Y-124167843D02*
X160609021Y-124129747D01*
X160609021Y-124129747D02*
X160456640Y-124129747D01*
X160456640Y-124129747D02*
X160385212Y-124167843D01*
X160385212Y-124167843D02*
X160356640Y-124244033D01*
X160356640Y-124244033D02*
X160366164Y-124320224D01*
X160366164Y-124320224D02*
X160756640Y-124396414D01*
X159999498Y-124129747D02*
X160066164Y-124663081D01*
X160009021Y-124205938D02*
X159966164Y-124167843D01*
X159966164Y-124167843D02*
X159885212Y-124129747D01*
X159885212Y-124129747D02*
X159770926Y-124129747D01*
X159770926Y-124129747D02*
X159699498Y-124167843D01*
X159699498Y-124167843D02*
X159670926Y-124244033D01*
X159670926Y-124244033D02*
X159723307Y-124663081D01*
X159389973Y-124129747D02*
X159085211Y-124129747D01*
X159242354Y-123863081D02*
X159328069Y-124548795D01*
X159328069Y-124548795D02*
X159299497Y-124624986D01*
X159299497Y-124624986D02*
X159228069Y-124663081D01*
X159228069Y-124663081D02*
X159151878Y-124663081D01*
X158875687Y-124586890D02*
X158842354Y-124624986D01*
X158842354Y-124624986D02*
X158885211Y-124663081D01*
X158885211Y-124663081D02*
X158918545Y-124624986D01*
X158918545Y-124624986D02*
X158875687Y-124586890D01*
X158875687Y-124586890D02*
X158885211Y-124663081D01*
X157894735Y-124663081D02*
X157794735Y-123863081D01*
X157561402Y-124129747D02*
X157256640Y-124129747D01*
X157413783Y-123863081D02*
X157499498Y-124548795D01*
X157499498Y-124548795D02*
X157470926Y-124624986D01*
X157470926Y-124624986D02*
X157399498Y-124663081D01*
X157399498Y-124663081D02*
X157323307Y-124663081D01*
X156447116Y-124663081D02*
X156380450Y-124129747D01*
X156389973Y-124205938D02*
X156347116Y-124167843D01*
X156347116Y-124167843D02*
X156266164Y-124129747D01*
X156266164Y-124129747D02*
X156151878Y-124129747D01*
X156151878Y-124129747D02*
X156080450Y-124167843D01*
X156080450Y-124167843D02*
X156051878Y-124244033D01*
X156051878Y-124244033D02*
X156104259Y-124663081D01*
X156051878Y-124244033D02*
X156004259Y-124167843D01*
X156004259Y-124167843D02*
X155923307Y-124129747D01*
X155923307Y-124129747D02*
X155809021Y-124129747D01*
X155809021Y-124129747D02*
X155737592Y-124167843D01*
X155737592Y-124167843D02*
X155709021Y-124244033D01*
X155709021Y-124244033D02*
X155761402Y-124663081D01*
X155070925Y-124624986D02*
X155151878Y-124663081D01*
X155151878Y-124663081D02*
X155304259Y-124663081D01*
X155304259Y-124663081D02*
X155375687Y-124624986D01*
X155375687Y-124624986D02*
X155404259Y-124548795D01*
X155404259Y-124548795D02*
X155366164Y-124244033D01*
X155366164Y-124244033D02*
X155318544Y-124167843D01*
X155318544Y-124167843D02*
X155237592Y-124129747D01*
X155237592Y-124129747D02*
X155085211Y-124129747D01*
X155085211Y-124129747D02*
X155013783Y-124167843D01*
X155013783Y-124167843D02*
X154985211Y-124244033D01*
X154985211Y-124244033D02*
X154994735Y-124320224D01*
X154994735Y-124320224D02*
X155385211Y-124396414D01*
X154351878Y-124663081D02*
X154299497Y-124244033D01*
X154299497Y-124244033D02*
X154328069Y-124167843D01*
X154328069Y-124167843D02*
X154399497Y-124129747D01*
X154399497Y-124129747D02*
X154551878Y-124129747D01*
X154551878Y-124129747D02*
X154632830Y-124167843D01*
X154347116Y-124624986D02*
X154428069Y-124663081D01*
X154428069Y-124663081D02*
X154618545Y-124663081D01*
X154618545Y-124663081D02*
X154689973Y-124624986D01*
X154689973Y-124624986D02*
X154718545Y-124548795D01*
X154718545Y-124548795D02*
X154709021Y-124472605D01*
X154709021Y-124472605D02*
X154661402Y-124396414D01*
X154661402Y-124396414D02*
X154580450Y-124358319D01*
X154580450Y-124358319D02*
X154389973Y-124358319D01*
X154389973Y-124358319D02*
X154309021Y-124320224D01*
X153904259Y-124129747D02*
X153970925Y-124663081D01*
X153913782Y-124205938D02*
X153870925Y-124167843D01*
X153870925Y-124167843D02*
X153789973Y-124129747D01*
X153789973Y-124129747D02*
X153675687Y-124129747D01*
X153675687Y-124129747D02*
X153604259Y-124167843D01*
X153604259Y-124167843D02*
X153575687Y-124244033D01*
X153575687Y-124244033D02*
X153628068Y-124663081D01*
X153280449Y-124624986D02*
X153209020Y-124663081D01*
X153209020Y-124663081D02*
X153056639Y-124663081D01*
X153056639Y-124663081D02*
X152975687Y-124624986D01*
X152975687Y-124624986D02*
X152928068Y-124548795D01*
X152928068Y-124548795D02*
X152923306Y-124510700D01*
X152923306Y-124510700D02*
X152951877Y-124434509D01*
X152951877Y-124434509D02*
X153023306Y-124396414D01*
X153023306Y-124396414D02*
X153137591Y-124396414D01*
X153137591Y-124396414D02*
X153209020Y-124358319D01*
X153209020Y-124358319D02*
X153237591Y-124282128D01*
X153237591Y-124282128D02*
X153232830Y-124244033D01*
X153232830Y-124244033D02*
X153185210Y-124167843D01*
X153185210Y-124167843D02*
X153104258Y-124129747D01*
X153104258Y-124129747D02*
X152989972Y-124129747D01*
X152989972Y-124129747D02*
X152918544Y-124167843D01*
X151989972Y-124663081D02*
X151889972Y-123863081D01*
X151928067Y-124167843D02*
X151847115Y-124129747D01*
X151847115Y-124129747D02*
X151694734Y-124129747D01*
X151694734Y-124129747D02*
X151623306Y-124167843D01*
X151623306Y-124167843D02*
X151589972Y-124205938D01*
X151589972Y-124205938D02*
X151561401Y-124282128D01*
X151561401Y-124282128D02*
X151589972Y-124510700D01*
X151589972Y-124510700D02*
X151637591Y-124586890D01*
X151637591Y-124586890D02*
X151680448Y-124624986D01*
X151680448Y-124624986D02*
X151761401Y-124663081D01*
X151761401Y-124663081D02*
X151913782Y-124663081D01*
X151913782Y-124663081D02*
X151985210Y-124624986D01*
X150956638Y-124624986D02*
X151037591Y-124663081D01*
X151037591Y-124663081D02*
X151189972Y-124663081D01*
X151189972Y-124663081D02*
X151261400Y-124624986D01*
X151261400Y-124624986D02*
X151289972Y-124548795D01*
X151289972Y-124548795D02*
X151251877Y-124244033D01*
X151251877Y-124244033D02*
X151204257Y-124167843D01*
X151204257Y-124167843D02*
X151123305Y-124129747D01*
X151123305Y-124129747D02*
X150970924Y-124129747D01*
X150970924Y-124129747D02*
X150899496Y-124167843D01*
X150899496Y-124167843D02*
X150870924Y-124244033D01*
X150870924Y-124244033D02*
X150880448Y-124320224D01*
X150880448Y-124320224D02*
X151270924Y-124396414D01*
X150580448Y-124663081D02*
X150513782Y-124129747D01*
X150480448Y-123863081D02*
X150523305Y-123901176D01*
X150523305Y-123901176D02*
X150489972Y-123939271D01*
X150489972Y-123939271D02*
X150447115Y-123901176D01*
X150447115Y-123901176D02*
X150480448Y-123863081D01*
X150480448Y-123863081D02*
X150489972Y-123939271D01*
X150132830Y-124129747D02*
X150199496Y-124663081D01*
X150142353Y-124205938D02*
X150099496Y-124167843D01*
X150099496Y-124167843D02*
X150018544Y-124129747D01*
X150018544Y-124129747D02*
X149904258Y-124129747D01*
X149904258Y-124129747D02*
X149832830Y-124167843D01*
X149832830Y-124167843D02*
X149804258Y-124244033D01*
X149804258Y-124244033D02*
X149856639Y-124663081D01*
X149066162Y-124129747D02*
X149147115Y-124777366D01*
X149147115Y-124777366D02*
X149194734Y-124853557D01*
X149194734Y-124853557D02*
X149237591Y-124891652D01*
X149237591Y-124891652D02*
X149318543Y-124929747D01*
X149318543Y-124929747D02*
X149432829Y-124929747D01*
X149432829Y-124929747D02*
X149504258Y-124891652D01*
X149128067Y-124624986D02*
X149209020Y-124663081D01*
X149209020Y-124663081D02*
X149361401Y-124663081D01*
X149361401Y-124663081D02*
X149432829Y-124624986D01*
X149432829Y-124624986D02*
X149466162Y-124586890D01*
X149466162Y-124586890D02*
X149494734Y-124510700D01*
X149494734Y-124510700D02*
X149466162Y-124282128D01*
X149466162Y-124282128D02*
X149418543Y-124205938D01*
X149418543Y-124205938D02*
X149375686Y-124167843D01*
X149375686Y-124167843D02*
X149294734Y-124129747D01*
X149294734Y-124129747D02*
X149142353Y-124129747D01*
X149142353Y-124129747D02*
X149070924Y-124167843D01*
X148028067Y-124663081D02*
X148099495Y-124624986D01*
X148099495Y-124624986D02*
X148132828Y-124586890D01*
X148132828Y-124586890D02*
X148161400Y-124510700D01*
X148161400Y-124510700D02*
X148132828Y-124282128D01*
X148132828Y-124282128D02*
X148085209Y-124205938D01*
X148085209Y-124205938D02*
X148042352Y-124167843D01*
X148042352Y-124167843D02*
X147961400Y-124129747D01*
X147961400Y-124129747D02*
X147847114Y-124129747D01*
X147847114Y-124129747D02*
X147775686Y-124167843D01*
X147775686Y-124167843D02*
X147742352Y-124205938D01*
X147742352Y-124205938D02*
X147713781Y-124282128D01*
X147713781Y-124282128D02*
X147742352Y-124510700D01*
X147742352Y-124510700D02*
X147789971Y-124586890D01*
X147789971Y-124586890D02*
X147832828Y-124624986D01*
X147832828Y-124624986D02*
X147913781Y-124663081D01*
X147913781Y-124663081D02*
X148028067Y-124663081D01*
X147418542Y-124663081D02*
X147351876Y-124129747D01*
X147370923Y-124282128D02*
X147323304Y-124205938D01*
X147323304Y-124205938D02*
X147280447Y-124167843D01*
X147280447Y-124167843D02*
X147199495Y-124129747D01*
X147199495Y-124129747D02*
X147123304Y-124129747D01*
X145970923Y-124663081D02*
X145870923Y-123863081D01*
X145966161Y-124624986D02*
X146047114Y-124663081D01*
X146047114Y-124663081D02*
X146199495Y-124663081D01*
X146199495Y-124663081D02*
X146270923Y-124624986D01*
X146270923Y-124624986D02*
X146304256Y-124586890D01*
X146304256Y-124586890D02*
X146332828Y-124510700D01*
X146332828Y-124510700D02*
X146304256Y-124282128D01*
X146304256Y-124282128D02*
X146256637Y-124205938D01*
X146256637Y-124205938D02*
X146213780Y-124167843D01*
X146213780Y-124167843D02*
X146132828Y-124129747D01*
X146132828Y-124129747D02*
X145980447Y-124129747D01*
X145980447Y-124129747D02*
X145909018Y-124167843D01*
X145475685Y-124663081D02*
X145547113Y-124624986D01*
X145547113Y-124624986D02*
X145580446Y-124586890D01*
X145580446Y-124586890D02*
X145609018Y-124510700D01*
X145609018Y-124510700D02*
X145580446Y-124282128D01*
X145580446Y-124282128D02*
X145532827Y-124205938D01*
X145532827Y-124205938D02*
X145489970Y-124167843D01*
X145489970Y-124167843D02*
X145409018Y-124129747D01*
X145409018Y-124129747D02*
X145294732Y-124129747D01*
X145294732Y-124129747D02*
X145223304Y-124167843D01*
X145223304Y-124167843D02*
X145189970Y-124205938D01*
X145189970Y-124205938D02*
X145161399Y-124282128D01*
X145161399Y-124282128D02*
X145189970Y-124510700D01*
X145189970Y-124510700D02*
X145237589Y-124586890D01*
X145237589Y-124586890D02*
X145280446Y-124624986D01*
X145280446Y-124624986D02*
X145361399Y-124663081D01*
X145361399Y-124663081D02*
X145475685Y-124663081D01*
X144866160Y-124663081D02*
X144799494Y-124129747D01*
X144766160Y-123863081D02*
X144809017Y-123901176D01*
X144809017Y-123901176D02*
X144775684Y-123939271D01*
X144775684Y-123939271D02*
X144732827Y-123901176D01*
X144732827Y-123901176D02*
X144766160Y-123863081D01*
X144766160Y-123863081D02*
X144775684Y-123939271D01*
X144418542Y-124129747D02*
X144485208Y-124663081D01*
X144428065Y-124205938D02*
X144385208Y-124167843D01*
X144385208Y-124167843D02*
X144304256Y-124129747D01*
X144304256Y-124129747D02*
X144189970Y-124129747D01*
X144189970Y-124129747D02*
X144118542Y-124167843D01*
X144118542Y-124167843D02*
X144089970Y-124244033D01*
X144089970Y-124244033D02*
X144142351Y-124663081D01*
X143351874Y-124129747D02*
X143432827Y-124777366D01*
X143432827Y-124777366D02*
X143480446Y-124853557D01*
X143480446Y-124853557D02*
X143523303Y-124891652D01*
X143523303Y-124891652D02*
X143604255Y-124929747D01*
X143604255Y-124929747D02*
X143718541Y-124929747D01*
X143718541Y-124929747D02*
X143789970Y-124891652D01*
X143413779Y-124624986D02*
X143494732Y-124663081D01*
X143494732Y-124663081D02*
X143647113Y-124663081D01*
X143647113Y-124663081D02*
X143718541Y-124624986D01*
X143718541Y-124624986D02*
X143751874Y-124586890D01*
X143751874Y-124586890D02*
X143780446Y-124510700D01*
X143780446Y-124510700D02*
X143751874Y-124282128D01*
X143751874Y-124282128D02*
X143704255Y-124205938D01*
X143704255Y-124205938D02*
X143661398Y-124167843D01*
X143661398Y-124167843D02*
X143580446Y-124129747D01*
X143580446Y-124129747D02*
X143428065Y-124129747D01*
X143428065Y-124129747D02*
X143356636Y-124167843D01*
X163985212Y-125912986D02*
X163913783Y-125951081D01*
X163913783Y-125951081D02*
X163761402Y-125951081D01*
X163761402Y-125951081D02*
X163680450Y-125912986D01*
X163680450Y-125912986D02*
X163632831Y-125836795D01*
X163632831Y-125836795D02*
X163628069Y-125798700D01*
X163628069Y-125798700D02*
X163656640Y-125722509D01*
X163656640Y-125722509D02*
X163728069Y-125684414D01*
X163728069Y-125684414D02*
X163842354Y-125684414D01*
X163842354Y-125684414D02*
X163913783Y-125646319D01*
X163913783Y-125646319D02*
X163942354Y-125570128D01*
X163942354Y-125570128D02*
X163937593Y-125532033D01*
X163937593Y-125532033D02*
X163889973Y-125455843D01*
X163889973Y-125455843D02*
X163809021Y-125417747D01*
X163809021Y-125417747D02*
X163694735Y-125417747D01*
X163694735Y-125417747D02*
X163623307Y-125455843D01*
X163189974Y-125951081D02*
X163261402Y-125912986D01*
X163261402Y-125912986D02*
X163294735Y-125874890D01*
X163294735Y-125874890D02*
X163323307Y-125798700D01*
X163323307Y-125798700D02*
X163294735Y-125570128D01*
X163294735Y-125570128D02*
X163247116Y-125493938D01*
X163247116Y-125493938D02*
X163204259Y-125455843D01*
X163204259Y-125455843D02*
X163123307Y-125417747D01*
X163123307Y-125417747D02*
X163009021Y-125417747D01*
X163009021Y-125417747D02*
X162937593Y-125455843D01*
X162937593Y-125455843D02*
X162904259Y-125493938D01*
X162904259Y-125493938D02*
X162875688Y-125570128D01*
X162875688Y-125570128D02*
X162904259Y-125798700D01*
X162904259Y-125798700D02*
X162951878Y-125874890D01*
X162951878Y-125874890D02*
X162994735Y-125912986D01*
X162994735Y-125912986D02*
X163075688Y-125951081D01*
X163075688Y-125951081D02*
X163189974Y-125951081D01*
X162580449Y-125951081D02*
X162513783Y-125417747D01*
X162523306Y-125493938D02*
X162480449Y-125455843D01*
X162480449Y-125455843D02*
X162399497Y-125417747D01*
X162399497Y-125417747D02*
X162285211Y-125417747D01*
X162285211Y-125417747D02*
X162213783Y-125455843D01*
X162213783Y-125455843D02*
X162185211Y-125532033D01*
X162185211Y-125532033D02*
X162237592Y-125951081D01*
X162185211Y-125532033D02*
X162137592Y-125455843D01*
X162137592Y-125455843D02*
X162056640Y-125417747D01*
X162056640Y-125417747D02*
X161942354Y-125417747D01*
X161942354Y-125417747D02*
X161870925Y-125455843D01*
X161870925Y-125455843D02*
X161842354Y-125532033D01*
X161842354Y-125532033D02*
X161894735Y-125951081D01*
X161204258Y-125912986D02*
X161285211Y-125951081D01*
X161285211Y-125951081D02*
X161437592Y-125951081D01*
X161437592Y-125951081D02*
X161509020Y-125912986D01*
X161509020Y-125912986D02*
X161537592Y-125836795D01*
X161537592Y-125836795D02*
X161499497Y-125532033D01*
X161499497Y-125532033D02*
X161451877Y-125455843D01*
X161451877Y-125455843D02*
X161370925Y-125417747D01*
X161370925Y-125417747D02*
X161218544Y-125417747D01*
X161218544Y-125417747D02*
X161147116Y-125455843D01*
X161147116Y-125455843D02*
X161118544Y-125532033D01*
X161118544Y-125532033D02*
X161128068Y-125608224D01*
X161128068Y-125608224D02*
X161518544Y-125684414D01*
X160875687Y-125417747D02*
X160570925Y-125417747D01*
X160728068Y-125151081D02*
X160813783Y-125836795D01*
X160813783Y-125836795D02*
X160785211Y-125912986D01*
X160785211Y-125912986D02*
X160713783Y-125951081D01*
X160713783Y-125951081D02*
X160637592Y-125951081D01*
X160370925Y-125951081D02*
X160270925Y-125151081D01*
X160028068Y-125951081D02*
X159975687Y-125532033D01*
X159975687Y-125532033D02*
X160004259Y-125455843D01*
X160004259Y-125455843D02*
X160075687Y-125417747D01*
X160075687Y-125417747D02*
X160189973Y-125417747D01*
X160189973Y-125417747D02*
X160270925Y-125455843D01*
X160270925Y-125455843D02*
X160313782Y-125493938D01*
X159647115Y-125951081D02*
X159580449Y-125417747D01*
X159547115Y-125151081D02*
X159589972Y-125189176D01*
X159589972Y-125189176D02*
X159556639Y-125227271D01*
X159556639Y-125227271D02*
X159513782Y-125189176D01*
X159513782Y-125189176D02*
X159547115Y-125151081D01*
X159547115Y-125151081D02*
X159556639Y-125227271D01*
X159199497Y-125417747D02*
X159266163Y-125951081D01*
X159209020Y-125493938D02*
X159166163Y-125455843D01*
X159166163Y-125455843D02*
X159085211Y-125417747D01*
X159085211Y-125417747D02*
X158970925Y-125417747D01*
X158970925Y-125417747D02*
X158899497Y-125455843D01*
X158899497Y-125455843D02*
X158870925Y-125532033D01*
X158870925Y-125532033D02*
X158923306Y-125951081D01*
X158132829Y-125417747D02*
X158213782Y-126065366D01*
X158213782Y-126065366D02*
X158261401Y-126141557D01*
X158261401Y-126141557D02*
X158304258Y-126179652D01*
X158304258Y-126179652D02*
X158385210Y-126217747D01*
X158385210Y-126217747D02*
X158499496Y-126217747D01*
X158499496Y-126217747D02*
X158570925Y-126179652D01*
X158194734Y-125912986D02*
X158275687Y-125951081D01*
X158275687Y-125951081D02*
X158428068Y-125951081D01*
X158428068Y-125951081D02*
X158499496Y-125912986D01*
X158499496Y-125912986D02*
X158532829Y-125874890D01*
X158532829Y-125874890D02*
X158561401Y-125798700D01*
X158561401Y-125798700D02*
X158532829Y-125570128D01*
X158532829Y-125570128D02*
X158485210Y-125493938D01*
X158485210Y-125493938D02*
X158442353Y-125455843D01*
X158442353Y-125455843D02*
X158361401Y-125417747D01*
X158361401Y-125417747D02*
X158209020Y-125417747D01*
X158209020Y-125417747D02*
X158137591Y-125455843D01*
X157256638Y-125417747D02*
X156951876Y-125417747D01*
X157109019Y-125151081D02*
X157194734Y-125836795D01*
X157194734Y-125836795D02*
X157166162Y-125912986D01*
X157166162Y-125912986D02*
X157094734Y-125951081D01*
X157094734Y-125951081D02*
X157018543Y-125951081D01*
X156751876Y-125951081D02*
X156651876Y-125151081D01*
X156409019Y-125951081D02*
X156356638Y-125532033D01*
X156356638Y-125532033D02*
X156385210Y-125455843D01*
X156385210Y-125455843D02*
X156456638Y-125417747D01*
X156456638Y-125417747D02*
X156570924Y-125417747D01*
X156570924Y-125417747D02*
X156651876Y-125455843D01*
X156651876Y-125455843D02*
X156694733Y-125493938D01*
X155685209Y-125951081D02*
X155632828Y-125532033D01*
X155632828Y-125532033D02*
X155661400Y-125455843D01*
X155661400Y-125455843D02*
X155732828Y-125417747D01*
X155732828Y-125417747D02*
X155885209Y-125417747D01*
X155885209Y-125417747D02*
X155966161Y-125455843D01*
X155680447Y-125912986D02*
X155761400Y-125951081D01*
X155761400Y-125951081D02*
X155951876Y-125951081D01*
X155951876Y-125951081D02*
X156023304Y-125912986D01*
X156023304Y-125912986D02*
X156051876Y-125836795D01*
X156051876Y-125836795D02*
X156042352Y-125760605D01*
X156042352Y-125760605D02*
X155994733Y-125684414D01*
X155994733Y-125684414D02*
X155913781Y-125646319D01*
X155913781Y-125646319D02*
X155723304Y-125646319D01*
X155723304Y-125646319D02*
X155642352Y-125608224D01*
X155351875Y-125417747D02*
X155047113Y-125417747D01*
X155204256Y-125151081D02*
X155289971Y-125836795D01*
X155289971Y-125836795D02*
X155261399Y-125912986D01*
X155261399Y-125912986D02*
X155189971Y-125951081D01*
X155189971Y-125951081D02*
X155113780Y-125951081D01*
X154237589Y-125951081D02*
X154170923Y-125417747D01*
X154180446Y-125493938D02*
X154137589Y-125455843D01*
X154137589Y-125455843D02*
X154056637Y-125417747D01*
X154056637Y-125417747D02*
X153942351Y-125417747D01*
X153942351Y-125417747D02*
X153870923Y-125455843D01*
X153870923Y-125455843D02*
X153842351Y-125532033D01*
X153842351Y-125532033D02*
X153894732Y-125951081D01*
X153842351Y-125532033D02*
X153794732Y-125455843D01*
X153794732Y-125455843D02*
X153713780Y-125417747D01*
X153713780Y-125417747D02*
X153599494Y-125417747D01*
X153599494Y-125417747D02*
X153528065Y-125455843D01*
X153528065Y-125455843D02*
X153499494Y-125532033D01*
X153499494Y-125532033D02*
X153551875Y-125951081D01*
X152828065Y-125951081D02*
X152775684Y-125532033D01*
X152775684Y-125532033D02*
X152804256Y-125455843D01*
X152804256Y-125455843D02*
X152875684Y-125417747D01*
X152875684Y-125417747D02*
X153028065Y-125417747D01*
X153028065Y-125417747D02*
X153109017Y-125455843D01*
X152823303Y-125912986D02*
X152904256Y-125951081D01*
X152904256Y-125951081D02*
X153094732Y-125951081D01*
X153094732Y-125951081D02*
X153166160Y-125912986D01*
X153166160Y-125912986D02*
X153194732Y-125836795D01*
X153194732Y-125836795D02*
X153185208Y-125760605D01*
X153185208Y-125760605D02*
X153137589Y-125684414D01*
X153137589Y-125684414D02*
X153056637Y-125646319D01*
X153056637Y-125646319D02*
X152866160Y-125646319D01*
X152866160Y-125646319D02*
X152785208Y-125608224D01*
X152447112Y-125951081D02*
X152347112Y-125151081D01*
X152332827Y-125646319D02*
X152142350Y-125951081D01*
X152075684Y-125417747D02*
X152418541Y-125722509D01*
X151489969Y-125912986D02*
X151570922Y-125951081D01*
X151570922Y-125951081D02*
X151723303Y-125951081D01*
X151723303Y-125951081D02*
X151794731Y-125912986D01*
X151794731Y-125912986D02*
X151823303Y-125836795D01*
X151823303Y-125836795D02*
X151785208Y-125532033D01*
X151785208Y-125532033D02*
X151737588Y-125455843D01*
X151737588Y-125455843D02*
X151656636Y-125417747D01*
X151656636Y-125417747D02*
X151504255Y-125417747D01*
X151504255Y-125417747D02*
X151432827Y-125455843D01*
X151432827Y-125455843D02*
X151404255Y-125532033D01*
X151404255Y-125532033D02*
X151413779Y-125608224D01*
X151413779Y-125608224D02*
X151804255Y-125684414D01*
X151147113Y-125912986D02*
X151075684Y-125951081D01*
X151075684Y-125951081D02*
X150923303Y-125951081D01*
X150923303Y-125951081D02*
X150842351Y-125912986D01*
X150842351Y-125912986D02*
X150794732Y-125836795D01*
X150794732Y-125836795D02*
X150789970Y-125798700D01*
X150789970Y-125798700D02*
X150818541Y-125722509D01*
X150818541Y-125722509D02*
X150889970Y-125684414D01*
X150889970Y-125684414D02*
X151004255Y-125684414D01*
X151004255Y-125684414D02*
X151075684Y-125646319D01*
X151075684Y-125646319D02*
X151104255Y-125570128D01*
X151104255Y-125570128D02*
X151099494Y-125532033D01*
X151099494Y-125532033D02*
X151051874Y-125455843D01*
X151051874Y-125455843D02*
X150970922Y-125417747D01*
X150970922Y-125417747D02*
X150856636Y-125417747D01*
X150856636Y-125417747D02*
X150785208Y-125455843D01*
X149742351Y-125951081D02*
X149813779Y-125912986D01*
X149813779Y-125912986D02*
X149847112Y-125874890D01*
X149847112Y-125874890D02*
X149875684Y-125798700D01*
X149875684Y-125798700D02*
X149847112Y-125570128D01*
X149847112Y-125570128D02*
X149799493Y-125493938D01*
X149799493Y-125493938D02*
X149756636Y-125455843D01*
X149756636Y-125455843D02*
X149675684Y-125417747D01*
X149675684Y-125417747D02*
X149561398Y-125417747D01*
X149561398Y-125417747D02*
X149489970Y-125455843D01*
X149489970Y-125455843D02*
X149456636Y-125493938D01*
X149456636Y-125493938D02*
X149428065Y-125570128D01*
X149428065Y-125570128D02*
X149456636Y-125798700D01*
X149456636Y-125798700D02*
X149504255Y-125874890D01*
X149504255Y-125874890D02*
X149547112Y-125912986D01*
X149547112Y-125912986D02*
X149628065Y-125951081D01*
X149628065Y-125951081D02*
X149742351Y-125951081D01*
X149180445Y-125417747D02*
X148875683Y-125417747D01*
X149032826Y-125151081D02*
X149118541Y-125836795D01*
X149118541Y-125836795D02*
X149089969Y-125912986D01*
X149089969Y-125912986D02*
X149018541Y-125951081D01*
X149018541Y-125951081D02*
X148942350Y-125951081D01*
X148675683Y-125951081D02*
X148575683Y-125151081D01*
X148332826Y-125951081D02*
X148280445Y-125532033D01*
X148280445Y-125532033D02*
X148309017Y-125455843D01*
X148309017Y-125455843D02*
X148380445Y-125417747D01*
X148380445Y-125417747D02*
X148494731Y-125417747D01*
X148494731Y-125417747D02*
X148575683Y-125455843D01*
X148575683Y-125455843D02*
X148618540Y-125493938D01*
X147642349Y-125912986D02*
X147723302Y-125951081D01*
X147723302Y-125951081D02*
X147875683Y-125951081D01*
X147875683Y-125951081D02*
X147947111Y-125912986D01*
X147947111Y-125912986D02*
X147975683Y-125836795D01*
X147975683Y-125836795D02*
X147937588Y-125532033D01*
X147937588Y-125532033D02*
X147889968Y-125455843D01*
X147889968Y-125455843D02*
X147809016Y-125417747D01*
X147809016Y-125417747D02*
X147656635Y-125417747D01*
X147656635Y-125417747D02*
X147585207Y-125455843D01*
X147585207Y-125455843D02*
X147556635Y-125532033D01*
X147556635Y-125532033D02*
X147566159Y-125608224D01*
X147566159Y-125608224D02*
X147956635Y-125684414D01*
X147266159Y-125951081D02*
X147199493Y-125417747D01*
X147218540Y-125570128D02*
X147170921Y-125493938D01*
X147170921Y-125493938D02*
X147128064Y-125455843D01*
X147128064Y-125455843D02*
X147047112Y-125417747D01*
X147047112Y-125417747D02*
X146970921Y-125417747D01*
X146094731Y-125417747D02*
X146194731Y-126217747D01*
X146099492Y-125455843D02*
X146018540Y-125417747D01*
X146018540Y-125417747D02*
X145866159Y-125417747D01*
X145866159Y-125417747D02*
X145794731Y-125455843D01*
X145794731Y-125455843D02*
X145761397Y-125493938D01*
X145761397Y-125493938D02*
X145732826Y-125570128D01*
X145732826Y-125570128D02*
X145761397Y-125798700D01*
X145761397Y-125798700D02*
X145809016Y-125874890D01*
X145809016Y-125874890D02*
X145851873Y-125912986D01*
X145851873Y-125912986D02*
X145932826Y-125951081D01*
X145932826Y-125951081D02*
X146085207Y-125951081D01*
X146085207Y-125951081D02*
X146156635Y-125912986D01*
X145128063Y-125912986D02*
X145209016Y-125951081D01*
X145209016Y-125951081D02*
X145361397Y-125951081D01*
X145361397Y-125951081D02*
X145432825Y-125912986D01*
X145432825Y-125912986D02*
X145461397Y-125836795D01*
X145461397Y-125836795D02*
X145423302Y-125532033D01*
X145423302Y-125532033D02*
X145375682Y-125455843D01*
X145375682Y-125455843D02*
X145294730Y-125417747D01*
X145294730Y-125417747D02*
X145142349Y-125417747D01*
X145142349Y-125417747D02*
X145070921Y-125455843D01*
X145070921Y-125455843D02*
X145042349Y-125532033D01*
X145042349Y-125532033D02*
X145051873Y-125608224D01*
X145051873Y-125608224D02*
X145442349Y-125684414D01*
X144637588Y-125951081D02*
X144709016Y-125912986D01*
X144709016Y-125912986D02*
X144742349Y-125874890D01*
X144742349Y-125874890D02*
X144770921Y-125798700D01*
X144770921Y-125798700D02*
X144742349Y-125570128D01*
X144742349Y-125570128D02*
X144694730Y-125493938D01*
X144694730Y-125493938D02*
X144651873Y-125455843D01*
X144651873Y-125455843D02*
X144570921Y-125417747D01*
X144570921Y-125417747D02*
X144456635Y-125417747D01*
X144456635Y-125417747D02*
X144385207Y-125455843D01*
X144385207Y-125455843D02*
X144351873Y-125493938D01*
X144351873Y-125493938D02*
X144323302Y-125570128D01*
X144323302Y-125570128D02*
X144351873Y-125798700D01*
X144351873Y-125798700D02*
X144399492Y-125874890D01*
X144399492Y-125874890D02*
X144442349Y-125912986D01*
X144442349Y-125912986D02*
X144523302Y-125951081D01*
X144523302Y-125951081D02*
X144637588Y-125951081D01*
X143961397Y-125417747D02*
X144061397Y-126217747D01*
X143966158Y-125455843D02*
X143885206Y-125417747D01*
X143885206Y-125417747D02*
X143732825Y-125417747D01*
X143732825Y-125417747D02*
X143661397Y-125455843D01*
X143661397Y-125455843D02*
X143628063Y-125493938D01*
X143628063Y-125493938D02*
X143599492Y-125570128D01*
X143599492Y-125570128D02*
X143628063Y-125798700D01*
X143628063Y-125798700D02*
X143675682Y-125874890D01*
X143675682Y-125874890D02*
X143718539Y-125912986D01*
X143718539Y-125912986D02*
X143799492Y-125951081D01*
X143799492Y-125951081D02*
X143951873Y-125951081D01*
X143951873Y-125951081D02*
X144023301Y-125912986D01*
X143189968Y-125951081D02*
X143261396Y-125912986D01*
X143261396Y-125912986D02*
X143289968Y-125836795D01*
X143289968Y-125836795D02*
X143204253Y-125151081D01*
X142575681Y-125912986D02*
X142656634Y-125951081D01*
X142656634Y-125951081D02*
X142809015Y-125951081D01*
X142809015Y-125951081D02*
X142880443Y-125912986D01*
X142880443Y-125912986D02*
X142909015Y-125836795D01*
X142909015Y-125836795D02*
X142870920Y-125532033D01*
X142870920Y-125532033D02*
X142823300Y-125455843D01*
X142823300Y-125455843D02*
X142742348Y-125417747D01*
X142742348Y-125417747D02*
X142589967Y-125417747D01*
X142589967Y-125417747D02*
X142518539Y-125455843D01*
X142518539Y-125455843D02*
X142489967Y-125532033D01*
X142489967Y-125532033D02*
X142499491Y-125608224D01*
X142499491Y-125608224D02*
X142889967Y-125684414D01*
X163985212Y-127200986D02*
X163913783Y-127239081D01*
X163913783Y-127239081D02*
X163761402Y-127239081D01*
X163761402Y-127239081D02*
X163680450Y-127200986D01*
X163680450Y-127200986D02*
X163632831Y-127124795D01*
X163632831Y-127124795D02*
X163628069Y-127086700D01*
X163628069Y-127086700D02*
X163656640Y-127010509D01*
X163656640Y-127010509D02*
X163728069Y-126972414D01*
X163728069Y-126972414D02*
X163842354Y-126972414D01*
X163842354Y-126972414D02*
X163913783Y-126934319D01*
X163913783Y-126934319D02*
X163942354Y-126858128D01*
X163942354Y-126858128D02*
X163937593Y-126820033D01*
X163937593Y-126820033D02*
X163889973Y-126743843D01*
X163889973Y-126743843D02*
X163809021Y-126705747D01*
X163809021Y-126705747D02*
X163694735Y-126705747D01*
X163694735Y-126705747D02*
X163623307Y-126743843D01*
X163351878Y-126705747D02*
X163047116Y-126705747D01*
X163204259Y-126439081D02*
X163289974Y-127124795D01*
X163289974Y-127124795D02*
X163261402Y-127200986D01*
X163261402Y-127200986D02*
X163189974Y-127239081D01*
X163189974Y-127239081D02*
X163113783Y-127239081D01*
X162504259Y-127239081D02*
X162451878Y-126820033D01*
X162451878Y-126820033D02*
X162480450Y-126743843D01*
X162480450Y-126743843D02*
X162551878Y-126705747D01*
X162551878Y-126705747D02*
X162704259Y-126705747D01*
X162704259Y-126705747D02*
X162785211Y-126743843D01*
X162499497Y-127200986D02*
X162580450Y-127239081D01*
X162580450Y-127239081D02*
X162770926Y-127239081D01*
X162770926Y-127239081D02*
X162842354Y-127200986D01*
X162842354Y-127200986D02*
X162870926Y-127124795D01*
X162870926Y-127124795D02*
X162861402Y-127048605D01*
X162861402Y-127048605D02*
X162813783Y-126972414D01*
X162813783Y-126972414D02*
X162732831Y-126934319D01*
X162732831Y-126934319D02*
X162542354Y-126934319D01*
X162542354Y-126934319D02*
X162461402Y-126896224D01*
X162123306Y-127239081D02*
X162056640Y-126705747D01*
X162075687Y-126858128D02*
X162028068Y-126781938D01*
X162028068Y-126781938D02*
X161985211Y-126743843D01*
X161985211Y-126743843D02*
X161904259Y-126705747D01*
X161904259Y-126705747D02*
X161828068Y-126705747D01*
X161318544Y-127200986D02*
X161399497Y-127239081D01*
X161399497Y-127239081D02*
X161551878Y-127239081D01*
X161551878Y-127239081D02*
X161623306Y-127200986D01*
X161623306Y-127200986D02*
X161651878Y-127124795D01*
X161651878Y-127124795D02*
X161613783Y-126820033D01*
X161613783Y-126820033D02*
X161566163Y-126743843D01*
X161566163Y-126743843D02*
X161485211Y-126705747D01*
X161485211Y-126705747D02*
X161332830Y-126705747D01*
X161332830Y-126705747D02*
X161261402Y-126743843D01*
X161261402Y-126743843D02*
X161232830Y-126820033D01*
X161232830Y-126820033D02*
X161242354Y-126896224D01*
X161242354Y-126896224D02*
X161632830Y-126972414D01*
X160899497Y-127200986D02*
X160904259Y-127239081D01*
X160904259Y-127239081D02*
X160951878Y-127315271D01*
X160951878Y-127315271D02*
X160994735Y-127353366D01*
X159837593Y-127239081D02*
X159909021Y-127200986D01*
X159909021Y-127200986D02*
X159942354Y-127162890D01*
X159942354Y-127162890D02*
X159970926Y-127086700D01*
X159970926Y-127086700D02*
X159942354Y-126858128D01*
X159942354Y-126858128D02*
X159894735Y-126781938D01*
X159894735Y-126781938D02*
X159851878Y-126743843D01*
X159851878Y-126743843D02*
X159770926Y-126705747D01*
X159770926Y-126705747D02*
X159656640Y-126705747D01*
X159656640Y-126705747D02*
X159585212Y-126743843D01*
X159585212Y-126743843D02*
X159551878Y-126781938D01*
X159551878Y-126781938D02*
X159523307Y-126858128D01*
X159523307Y-126858128D02*
X159551878Y-127086700D01*
X159551878Y-127086700D02*
X159599497Y-127162890D01*
X159599497Y-127162890D02*
X159642354Y-127200986D01*
X159642354Y-127200986D02*
X159723307Y-127239081D01*
X159723307Y-127239081D02*
X159837593Y-127239081D01*
X159228068Y-127239081D02*
X159161402Y-126705747D01*
X159180449Y-126858128D02*
X159132830Y-126781938D01*
X159132830Y-126781938D02*
X159089973Y-126743843D01*
X159089973Y-126743843D02*
X159009021Y-126705747D01*
X159009021Y-126705747D02*
X158932830Y-126705747D01*
X158009021Y-127239081D02*
X158080449Y-127200986D01*
X158080449Y-127200986D02*
X158109021Y-127124795D01*
X158109021Y-127124795D02*
X158023306Y-126439081D01*
X157361401Y-127239081D02*
X157309020Y-126820033D01*
X157309020Y-126820033D02*
X157337592Y-126743843D01*
X157337592Y-126743843D02*
X157409020Y-126705747D01*
X157409020Y-126705747D02*
X157561401Y-126705747D01*
X157561401Y-126705747D02*
X157642353Y-126743843D01*
X157356639Y-127200986D02*
X157437592Y-127239081D01*
X157437592Y-127239081D02*
X157628068Y-127239081D01*
X157628068Y-127239081D02*
X157699496Y-127200986D01*
X157699496Y-127200986D02*
X157728068Y-127124795D01*
X157728068Y-127124795D02*
X157718544Y-127048605D01*
X157718544Y-127048605D02*
X157670925Y-126972414D01*
X157670925Y-126972414D02*
X157589973Y-126934319D01*
X157589973Y-126934319D02*
X157399496Y-126934319D01*
X157399496Y-126934319D02*
X157318544Y-126896224D01*
X156570924Y-126705747D02*
X156637591Y-127239081D01*
X156913782Y-126705747D02*
X156966163Y-127124795D01*
X156966163Y-127124795D02*
X156937591Y-127200986D01*
X156937591Y-127200986D02*
X156866163Y-127239081D01*
X156866163Y-127239081D02*
X156751877Y-127239081D01*
X156751877Y-127239081D02*
X156670924Y-127200986D01*
X156670924Y-127200986D02*
X156628067Y-127162890D01*
X155847114Y-126705747D02*
X155928067Y-127353366D01*
X155928067Y-127353366D02*
X155975686Y-127429557D01*
X155975686Y-127429557D02*
X156018543Y-127467652D01*
X156018543Y-127467652D02*
X156099495Y-127505747D01*
X156099495Y-127505747D02*
X156213781Y-127505747D01*
X156213781Y-127505747D02*
X156285210Y-127467652D01*
X155909019Y-127200986D02*
X155989972Y-127239081D01*
X155989972Y-127239081D02*
X156142353Y-127239081D01*
X156142353Y-127239081D02*
X156213781Y-127200986D01*
X156213781Y-127200986D02*
X156247114Y-127162890D01*
X156247114Y-127162890D02*
X156275686Y-127086700D01*
X156275686Y-127086700D02*
X156247114Y-126858128D01*
X156247114Y-126858128D02*
X156199495Y-126781938D01*
X156199495Y-126781938D02*
X156156638Y-126743843D01*
X156156638Y-126743843D02*
X156075686Y-126705747D01*
X156075686Y-126705747D02*
X155923305Y-126705747D01*
X155923305Y-126705747D02*
X155851876Y-126743843D01*
X155532828Y-127239081D02*
X155432828Y-126439081D01*
X155189971Y-127239081D02*
X155137590Y-126820033D01*
X155137590Y-126820033D02*
X155166162Y-126743843D01*
X155166162Y-126743843D02*
X155237590Y-126705747D01*
X155237590Y-126705747D02*
X155351876Y-126705747D01*
X155351876Y-126705747D02*
X155432828Y-126743843D01*
X155432828Y-126743843D02*
X155475685Y-126781938D01*
X154766161Y-127200986D02*
X154770923Y-127239081D01*
X154770923Y-127239081D02*
X154818542Y-127315271D01*
X154818542Y-127315271D02*
X154861399Y-127353366D01*
X153475685Y-127239081D02*
X153423304Y-126820033D01*
X153423304Y-126820033D02*
X153451876Y-126743843D01*
X153451876Y-126743843D02*
X153523304Y-126705747D01*
X153523304Y-126705747D02*
X153675685Y-126705747D01*
X153675685Y-126705747D02*
X153756637Y-126743843D01*
X153470923Y-127200986D02*
X153551876Y-127239081D01*
X153551876Y-127239081D02*
X153742352Y-127239081D01*
X153742352Y-127239081D02*
X153813780Y-127200986D01*
X153813780Y-127200986D02*
X153842352Y-127124795D01*
X153842352Y-127124795D02*
X153832828Y-127048605D01*
X153832828Y-127048605D02*
X153785209Y-126972414D01*
X153785209Y-126972414D02*
X153704257Y-126934319D01*
X153704257Y-126934319D02*
X153513780Y-126934319D01*
X153513780Y-126934319D02*
X153432828Y-126896224D01*
X153028066Y-126705747D02*
X153128066Y-127505747D01*
X153032827Y-126743843D02*
X152951875Y-126705747D01*
X152951875Y-126705747D02*
X152799494Y-126705747D01*
X152799494Y-126705747D02*
X152728066Y-126743843D01*
X152728066Y-126743843D02*
X152694732Y-126781938D01*
X152694732Y-126781938D02*
X152666161Y-126858128D01*
X152666161Y-126858128D02*
X152694732Y-127086700D01*
X152694732Y-127086700D02*
X152742351Y-127162890D01*
X152742351Y-127162890D02*
X152785208Y-127200986D01*
X152785208Y-127200986D02*
X152866161Y-127239081D01*
X152866161Y-127239081D02*
X153018542Y-127239081D01*
X153018542Y-127239081D02*
X153089970Y-127200986D01*
X152304256Y-126705747D02*
X152404256Y-127505747D01*
X152309017Y-126743843D02*
X152228065Y-126705747D01*
X152228065Y-126705747D02*
X152075684Y-126705747D01*
X152075684Y-126705747D02*
X152004256Y-126743843D01*
X152004256Y-126743843D02*
X151970922Y-126781938D01*
X151970922Y-126781938D02*
X151942351Y-126858128D01*
X151942351Y-126858128D02*
X151970922Y-127086700D01*
X151970922Y-127086700D02*
X152018541Y-127162890D01*
X152018541Y-127162890D02*
X152061398Y-127200986D01*
X152061398Y-127200986D02*
X152142351Y-127239081D01*
X152142351Y-127239081D02*
X152294732Y-127239081D01*
X152294732Y-127239081D02*
X152366160Y-127200986D01*
X151532827Y-127239081D02*
X151604255Y-127200986D01*
X151604255Y-127200986D02*
X151632827Y-127124795D01*
X151632827Y-127124795D02*
X151547112Y-126439081D01*
X150885207Y-127239081D02*
X150832826Y-126820033D01*
X150832826Y-126820033D02*
X150861398Y-126743843D01*
X150861398Y-126743843D02*
X150932826Y-126705747D01*
X150932826Y-126705747D02*
X151085207Y-126705747D01*
X151085207Y-126705747D02*
X151166159Y-126743843D01*
X150880445Y-127200986D02*
X150961398Y-127239081D01*
X150961398Y-127239081D02*
X151151874Y-127239081D01*
X151151874Y-127239081D02*
X151223302Y-127200986D01*
X151223302Y-127200986D02*
X151251874Y-127124795D01*
X151251874Y-127124795D02*
X151242350Y-127048605D01*
X151242350Y-127048605D02*
X151194731Y-126972414D01*
X151194731Y-126972414D02*
X151113779Y-126934319D01*
X151113779Y-126934319D02*
X150923302Y-126934319D01*
X150923302Y-126934319D02*
X150842350Y-126896224D01*
X150094730Y-126705747D02*
X150161397Y-127239081D01*
X150437588Y-126705747D02*
X150489969Y-127124795D01*
X150489969Y-127124795D02*
X150461397Y-127200986D01*
X150461397Y-127200986D02*
X150389969Y-127239081D01*
X150389969Y-127239081D02*
X150275683Y-127239081D01*
X150275683Y-127239081D02*
X150194730Y-127200986D01*
X150194730Y-127200986D02*
X150151873Y-127162890D01*
X149437587Y-127239081D02*
X149337587Y-126439081D01*
X149432825Y-127200986D02*
X149513778Y-127239081D01*
X149513778Y-127239081D02*
X149666159Y-127239081D01*
X149666159Y-127239081D02*
X149737587Y-127200986D01*
X149737587Y-127200986D02*
X149770920Y-127162890D01*
X149770920Y-127162890D02*
X149799492Y-127086700D01*
X149799492Y-127086700D02*
X149770920Y-126858128D01*
X149770920Y-126858128D02*
X149723301Y-126781938D01*
X149723301Y-126781938D02*
X149680444Y-126743843D01*
X149680444Y-126743843D02*
X149599492Y-126705747D01*
X149599492Y-126705747D02*
X149447111Y-126705747D01*
X149447111Y-126705747D02*
X149375682Y-126743843D01*
X149013777Y-127200986D02*
X149018539Y-127239081D01*
X149018539Y-127239081D02*
X149066158Y-127315271D01*
X149066158Y-127315271D02*
X149109015Y-127353366D01*
X147951873Y-127239081D02*
X148023301Y-127200986D01*
X148023301Y-127200986D02*
X148056634Y-127162890D01*
X148056634Y-127162890D02*
X148085206Y-127086700D01*
X148085206Y-127086700D02*
X148056634Y-126858128D01*
X148056634Y-126858128D02*
X148009015Y-126781938D01*
X148009015Y-126781938D02*
X147966158Y-126743843D01*
X147966158Y-126743843D02*
X147885206Y-126705747D01*
X147885206Y-126705747D02*
X147770920Y-126705747D01*
X147770920Y-126705747D02*
X147699492Y-126743843D01*
X147699492Y-126743843D02*
X147666158Y-126781938D01*
X147666158Y-126781938D02*
X147637587Y-126858128D01*
X147637587Y-126858128D02*
X147666158Y-127086700D01*
X147666158Y-127086700D02*
X147713777Y-127162890D01*
X147713777Y-127162890D02*
X147756634Y-127200986D01*
X147756634Y-127200986D02*
X147837587Y-127239081D01*
X147837587Y-127239081D02*
X147951873Y-127239081D01*
X147342348Y-127239081D02*
X147275682Y-126705747D01*
X147294729Y-126858128D02*
X147247110Y-126781938D01*
X147247110Y-126781938D02*
X147204253Y-126743843D01*
X147204253Y-126743843D02*
X147123301Y-126705747D01*
X147123301Y-126705747D02*
X147047110Y-126705747D01*
X146237586Y-127239081D02*
X146137586Y-126439081D01*
X146175681Y-126743843D02*
X146094729Y-126705747D01*
X146094729Y-126705747D02*
X145942348Y-126705747D01*
X145942348Y-126705747D02*
X145870920Y-126743843D01*
X145870920Y-126743843D02*
X145837586Y-126781938D01*
X145837586Y-126781938D02*
X145809015Y-126858128D01*
X145809015Y-126858128D02*
X145837586Y-127086700D01*
X145837586Y-127086700D02*
X145885205Y-127162890D01*
X145885205Y-127162890D02*
X145928062Y-127200986D01*
X145928062Y-127200986D02*
X146009015Y-127239081D01*
X146009015Y-127239081D02*
X146161396Y-127239081D01*
X146161396Y-127239081D02*
X146232824Y-127200986D01*
X145399491Y-127239081D02*
X145470919Y-127200986D01*
X145470919Y-127200986D02*
X145504252Y-127162890D01*
X145504252Y-127162890D02*
X145532824Y-127086700D01*
X145532824Y-127086700D02*
X145504252Y-126858128D01*
X145504252Y-126858128D02*
X145456633Y-126781938D01*
X145456633Y-126781938D02*
X145413776Y-126743843D01*
X145413776Y-126743843D02*
X145332824Y-126705747D01*
X145332824Y-126705747D02*
X145218538Y-126705747D01*
X145218538Y-126705747D02*
X145147110Y-126743843D01*
X145147110Y-126743843D02*
X145113776Y-126781938D01*
X145113776Y-126781938D02*
X145085205Y-126858128D01*
X145085205Y-126858128D02*
X145113776Y-127086700D01*
X145113776Y-127086700D02*
X145161395Y-127162890D01*
X145161395Y-127162890D02*
X145204252Y-127200986D01*
X145204252Y-127200986D02*
X145285205Y-127239081D01*
X145285205Y-127239081D02*
X145399491Y-127239081D01*
X144675681Y-127239081D02*
X144747109Y-127200986D01*
X144747109Y-127200986D02*
X144780442Y-127162890D01*
X144780442Y-127162890D02*
X144809014Y-127086700D01*
X144809014Y-127086700D02*
X144780442Y-126858128D01*
X144780442Y-126858128D02*
X144732823Y-126781938D01*
X144732823Y-126781938D02*
X144689966Y-126743843D01*
X144689966Y-126743843D02*
X144609014Y-126705747D01*
X144609014Y-126705747D02*
X144494728Y-126705747D01*
X144494728Y-126705747D02*
X144423300Y-126743843D01*
X144423300Y-126743843D02*
X144389966Y-126781938D01*
X144389966Y-126781938D02*
X144361395Y-126858128D01*
X144361395Y-126858128D02*
X144389966Y-127086700D01*
X144389966Y-127086700D02*
X144437585Y-127162890D01*
X144437585Y-127162890D02*
X144480442Y-127200986D01*
X144480442Y-127200986D02*
X144561395Y-127239081D01*
X144561395Y-127239081D02*
X144675681Y-127239081D01*
X144056632Y-127162890D02*
X144023299Y-127200986D01*
X144023299Y-127200986D02*
X144066156Y-127239081D01*
X144066156Y-127239081D02*
X144099490Y-127200986D01*
X144099490Y-127200986D02*
X144056632Y-127162890D01*
X144056632Y-127162890D02*
X144066156Y-127239081D01*
X163961402Y-128298509D02*
X163580450Y-128298509D01*
X164066164Y-128527081D02*
X163699497Y-127727081D01*
X163699497Y-127727081D02*
X163532831Y-128527081D01*
X163199498Y-127993747D02*
X163266164Y-128527081D01*
X163209021Y-128069938D02*
X163166164Y-128031843D01*
X163166164Y-128031843D02*
X163085212Y-127993747D01*
X163085212Y-127993747D02*
X162970926Y-127993747D01*
X162970926Y-127993747D02*
X162899498Y-128031843D01*
X162899498Y-128031843D02*
X162870926Y-128108033D01*
X162870926Y-128108033D02*
X162923307Y-128527081D01*
X162199497Y-128527081D02*
X162099497Y-127727081D01*
X162194735Y-128488986D02*
X162275688Y-128527081D01*
X162275688Y-128527081D02*
X162428069Y-128527081D01*
X162428069Y-128527081D02*
X162499497Y-128488986D01*
X162499497Y-128488986D02*
X162532830Y-128450890D01*
X162532830Y-128450890D02*
X162561402Y-128374700D01*
X162561402Y-128374700D02*
X162532830Y-128146128D01*
X162532830Y-128146128D02*
X162485211Y-128069938D01*
X162485211Y-128069938D02*
X162442354Y-128031843D01*
X162442354Y-128031843D02*
X162361402Y-127993747D01*
X162361402Y-127993747D02*
X162209021Y-127993747D01*
X162209021Y-127993747D02*
X162137592Y-128031843D01*
X161209020Y-128527081D02*
X161142354Y-127993747D01*
X161109020Y-127727081D02*
X161151877Y-127765176D01*
X161151877Y-127765176D02*
X161118544Y-127803271D01*
X161118544Y-127803271D02*
X161075687Y-127765176D01*
X161075687Y-127765176D02*
X161109020Y-127727081D01*
X161109020Y-127727081D02*
X161118544Y-127803271D01*
X160875687Y-127993747D02*
X160570925Y-127993747D01*
X160728068Y-127727081D02*
X160813783Y-128412795D01*
X160813783Y-128412795D02*
X160785211Y-128488986D01*
X160785211Y-128488986D02*
X160713783Y-128527081D01*
X160713783Y-128527081D02*
X160637592Y-128527081D01*
X160232830Y-127727081D02*
X160328068Y-127879462D01*
X160023307Y-128488986D02*
X159951878Y-128527081D01*
X159951878Y-128527081D02*
X159799497Y-128527081D01*
X159799497Y-128527081D02*
X159718545Y-128488986D01*
X159718545Y-128488986D02*
X159670926Y-128412795D01*
X159670926Y-128412795D02*
X159666164Y-128374700D01*
X159666164Y-128374700D02*
X159694735Y-128298509D01*
X159694735Y-128298509D02*
X159766164Y-128260414D01*
X159766164Y-128260414D02*
X159880449Y-128260414D01*
X159880449Y-128260414D02*
X159951878Y-128222319D01*
X159951878Y-128222319D02*
X159980449Y-128146128D01*
X159980449Y-128146128D02*
X159975688Y-128108033D01*
X159975688Y-128108033D02*
X159928068Y-128031843D01*
X159928068Y-128031843D02*
X159847116Y-127993747D01*
X159847116Y-127993747D02*
X159732830Y-127993747D01*
X159732830Y-127993747D02*
X159661402Y-128031843D01*
X158766164Y-128488986D02*
X158694735Y-128527081D01*
X158694735Y-128527081D02*
X158542354Y-128527081D01*
X158542354Y-128527081D02*
X158461402Y-128488986D01*
X158461402Y-128488986D02*
X158413783Y-128412795D01*
X158413783Y-128412795D02*
X158409021Y-128374700D01*
X158409021Y-128374700D02*
X158437592Y-128298509D01*
X158437592Y-128298509D02*
X158509021Y-128260414D01*
X158509021Y-128260414D02*
X158623306Y-128260414D01*
X158623306Y-128260414D02*
X158694735Y-128222319D01*
X158694735Y-128222319D02*
X158723306Y-128146128D01*
X158723306Y-128146128D02*
X158718545Y-128108033D01*
X158718545Y-128108033D02*
X158670925Y-128031843D01*
X158670925Y-128031843D02*
X158589973Y-127993747D01*
X158589973Y-127993747D02*
X158475687Y-127993747D01*
X158475687Y-127993747D02*
X158404259Y-128031843D01*
X157970926Y-128527081D02*
X158042354Y-128488986D01*
X158042354Y-128488986D02*
X158075687Y-128450890D01*
X158075687Y-128450890D02*
X158104259Y-128374700D01*
X158104259Y-128374700D02*
X158075687Y-128146128D01*
X158075687Y-128146128D02*
X158028068Y-128069938D01*
X158028068Y-128069938D02*
X157985211Y-128031843D01*
X157985211Y-128031843D02*
X157904259Y-127993747D01*
X157904259Y-127993747D02*
X157789973Y-127993747D01*
X157789973Y-127993747D02*
X157718545Y-128031843D01*
X157718545Y-128031843D02*
X157685211Y-128069938D01*
X157685211Y-128069938D02*
X157656640Y-128146128D01*
X157656640Y-128146128D02*
X157685211Y-128374700D01*
X157685211Y-128374700D02*
X157732830Y-128450890D01*
X157732830Y-128450890D02*
X157775687Y-128488986D01*
X157775687Y-128488986D02*
X157856640Y-128527081D01*
X157856640Y-128527081D02*
X157970926Y-128527081D01*
X157361401Y-128527081D02*
X157294735Y-127993747D01*
X157304258Y-128069938D02*
X157261401Y-128031843D01*
X157261401Y-128031843D02*
X157180449Y-127993747D01*
X157180449Y-127993747D02*
X157066163Y-127993747D01*
X157066163Y-127993747D02*
X156994735Y-128031843D01*
X156994735Y-128031843D02*
X156966163Y-128108033D01*
X156966163Y-128108033D02*
X157018544Y-128527081D01*
X156966163Y-128108033D02*
X156918544Y-128031843D01*
X156918544Y-128031843D02*
X156837592Y-127993747D01*
X156837592Y-127993747D02*
X156723306Y-127993747D01*
X156723306Y-127993747D02*
X156651877Y-128031843D01*
X156651877Y-128031843D02*
X156623306Y-128108033D01*
X156623306Y-128108033D02*
X156675687Y-128527081D01*
X155985210Y-128488986D02*
X156066163Y-128527081D01*
X156066163Y-128527081D02*
X156218544Y-128527081D01*
X156218544Y-128527081D02*
X156289972Y-128488986D01*
X156289972Y-128488986D02*
X156318544Y-128412795D01*
X156318544Y-128412795D02*
X156280449Y-128108033D01*
X156280449Y-128108033D02*
X156232829Y-128031843D01*
X156232829Y-128031843D02*
X156151877Y-127993747D01*
X156151877Y-127993747D02*
X155999496Y-127993747D01*
X155999496Y-127993747D02*
X155928068Y-128031843D01*
X155928068Y-128031843D02*
X155899496Y-128108033D01*
X155899496Y-128108033D02*
X155909020Y-128184224D01*
X155909020Y-128184224D02*
X156299496Y-128260414D01*
X155656639Y-127993747D02*
X155351877Y-127993747D01*
X155509020Y-127727081D02*
X155594735Y-128412795D01*
X155594735Y-128412795D02*
X155566163Y-128488986D01*
X155566163Y-128488986D02*
X155494735Y-128527081D01*
X155494735Y-128527081D02*
X155418544Y-128527081D01*
X155151877Y-128527081D02*
X155051877Y-127727081D01*
X154809020Y-128527081D02*
X154756639Y-128108033D01*
X154756639Y-128108033D02*
X154785211Y-128031843D01*
X154785211Y-128031843D02*
X154856639Y-127993747D01*
X154856639Y-127993747D02*
X154970925Y-127993747D01*
X154970925Y-127993747D02*
X155051877Y-128031843D01*
X155051877Y-128031843D02*
X155094734Y-128069938D01*
X154428067Y-128527081D02*
X154361401Y-127993747D01*
X154328067Y-127727081D02*
X154370924Y-127765176D01*
X154370924Y-127765176D02*
X154337591Y-127803271D01*
X154337591Y-127803271D02*
X154294734Y-127765176D01*
X154294734Y-127765176D02*
X154328067Y-127727081D01*
X154328067Y-127727081D02*
X154337591Y-127803271D01*
X153980449Y-127993747D02*
X154047115Y-128527081D01*
X153989972Y-128069938D02*
X153947115Y-128031843D01*
X153947115Y-128031843D02*
X153866163Y-127993747D01*
X153866163Y-127993747D02*
X153751877Y-127993747D01*
X153751877Y-127993747D02*
X153680449Y-128031843D01*
X153680449Y-128031843D02*
X153651877Y-128108033D01*
X153651877Y-128108033D02*
X153704258Y-128527081D01*
X152913781Y-127993747D02*
X152994734Y-128641366D01*
X152994734Y-128641366D02*
X153042353Y-128717557D01*
X153042353Y-128717557D02*
X153085210Y-128755652D01*
X153085210Y-128755652D02*
X153166162Y-128793747D01*
X153166162Y-128793747D02*
X153280448Y-128793747D01*
X153280448Y-128793747D02*
X153351877Y-128755652D01*
X152975686Y-128488986D02*
X153056639Y-128527081D01*
X153056639Y-128527081D02*
X153209020Y-128527081D01*
X153209020Y-128527081D02*
X153280448Y-128488986D01*
X153280448Y-128488986D02*
X153313781Y-128450890D01*
X153313781Y-128450890D02*
X153342353Y-128374700D01*
X153342353Y-128374700D02*
X153313781Y-128146128D01*
X153313781Y-128146128D02*
X153266162Y-128069938D01*
X153266162Y-128069938D02*
X153223305Y-128031843D01*
X153223305Y-128031843D02*
X153142353Y-127993747D01*
X153142353Y-127993747D02*
X152989972Y-127993747D01*
X152989972Y-127993747D02*
X152918543Y-128031843D01*
X151999495Y-127993747D02*
X151913781Y-128527081D01*
X151913781Y-128527081D02*
X151713781Y-128146128D01*
X151713781Y-128146128D02*
X151609019Y-128527081D01*
X151609019Y-128527081D02*
X151389971Y-127993747D01*
X150842352Y-128488986D02*
X150923305Y-128527081D01*
X150923305Y-128527081D02*
X151075686Y-128527081D01*
X151075686Y-128527081D02*
X151147114Y-128488986D01*
X151147114Y-128488986D02*
X151175686Y-128412795D01*
X151175686Y-128412795D02*
X151137591Y-128108033D01*
X151137591Y-128108033D02*
X151089971Y-128031843D01*
X151089971Y-128031843D02*
X151009019Y-127993747D01*
X151009019Y-127993747D02*
X150856638Y-127993747D01*
X150856638Y-127993747D02*
X150785210Y-128031843D01*
X150785210Y-128031843D02*
X150756638Y-128108033D01*
X150756638Y-128108033D02*
X150766162Y-128184224D01*
X150766162Y-128184224D02*
X151156638Y-128260414D01*
X149513781Y-128527081D02*
X149461400Y-128108033D01*
X149461400Y-128108033D02*
X149489972Y-128031843D01*
X149489972Y-128031843D02*
X149561400Y-127993747D01*
X149561400Y-127993747D02*
X149713781Y-127993747D01*
X149713781Y-127993747D02*
X149794733Y-128031843D01*
X149509019Y-128488986D02*
X149589972Y-128527081D01*
X149589972Y-128527081D02*
X149780448Y-128527081D01*
X149780448Y-128527081D02*
X149851876Y-128488986D01*
X149851876Y-128488986D02*
X149880448Y-128412795D01*
X149880448Y-128412795D02*
X149870924Y-128336605D01*
X149870924Y-128336605D02*
X149823305Y-128260414D01*
X149823305Y-128260414D02*
X149742353Y-128222319D01*
X149742353Y-128222319D02*
X149551876Y-128222319D01*
X149551876Y-128222319D02*
X149470924Y-128184224D01*
X149018543Y-128527081D02*
X149089971Y-128488986D01*
X149089971Y-128488986D02*
X149118543Y-128412795D01*
X149118543Y-128412795D02*
X149032828Y-127727081D01*
X148599495Y-128527081D02*
X148670923Y-128488986D01*
X148670923Y-128488986D02*
X148699495Y-128412795D01*
X148699495Y-128412795D02*
X148613780Y-127727081D01*
X147618542Y-127993747D02*
X147685208Y-128527081D01*
X147628065Y-128069938D02*
X147585208Y-128031843D01*
X147585208Y-128031843D02*
X147504256Y-127993747D01*
X147504256Y-127993747D02*
X147389970Y-127993747D01*
X147389970Y-127993747D02*
X147318542Y-128031843D01*
X147318542Y-128031843D02*
X147289970Y-128108033D01*
X147289970Y-128108033D02*
X147342351Y-128527081D01*
X146651874Y-128488986D02*
X146732827Y-128527081D01*
X146732827Y-128527081D02*
X146885208Y-128527081D01*
X146885208Y-128527081D02*
X146956636Y-128488986D01*
X146956636Y-128488986D02*
X146985208Y-128412795D01*
X146985208Y-128412795D02*
X146947113Y-128108033D01*
X146947113Y-128108033D02*
X146899493Y-128031843D01*
X146899493Y-128031843D02*
X146818541Y-127993747D01*
X146818541Y-127993747D02*
X146666160Y-127993747D01*
X146666160Y-127993747D02*
X146594732Y-128031843D01*
X146594732Y-128031843D02*
X146566160Y-128108033D01*
X146566160Y-128108033D02*
X146575684Y-128184224D01*
X146575684Y-128184224D02*
X146966160Y-128260414D01*
X145966160Y-128488986D02*
X146047113Y-128527081D01*
X146047113Y-128527081D02*
X146199494Y-128527081D01*
X146199494Y-128527081D02*
X146270922Y-128488986D01*
X146270922Y-128488986D02*
X146299494Y-128412795D01*
X146299494Y-128412795D02*
X146261399Y-128108033D01*
X146261399Y-128108033D02*
X146213779Y-128031843D01*
X146213779Y-128031843D02*
X146132827Y-127993747D01*
X146132827Y-127993747D02*
X145980446Y-127993747D01*
X145980446Y-127993747D02*
X145909018Y-128031843D01*
X145909018Y-128031843D02*
X145880446Y-128108033D01*
X145880446Y-128108033D02*
X145889970Y-128184224D01*
X145889970Y-128184224D02*
X146280446Y-128260414D01*
X145247113Y-128527081D02*
X145147113Y-127727081D01*
X145242351Y-128488986D02*
X145323304Y-128527081D01*
X145323304Y-128527081D02*
X145475685Y-128527081D01*
X145475685Y-128527081D02*
X145547113Y-128488986D01*
X145547113Y-128488986D02*
X145580446Y-128450890D01*
X145580446Y-128450890D02*
X145609018Y-128374700D01*
X145609018Y-128374700D02*
X145580446Y-128146128D01*
X145580446Y-128146128D02*
X145532827Y-128069938D01*
X145532827Y-128069938D02*
X145489970Y-128031843D01*
X145489970Y-128031843D02*
X145409018Y-127993747D01*
X145409018Y-127993747D02*
X145256637Y-127993747D01*
X145256637Y-127993747D02*
X145185208Y-128031843D01*
X144304255Y-127993747D02*
X143999493Y-127993747D01*
X144156636Y-127727081D02*
X144242351Y-128412795D01*
X144242351Y-128412795D02*
X144213779Y-128488986D01*
X144213779Y-128488986D02*
X144142351Y-128527081D01*
X144142351Y-128527081D02*
X144066160Y-128527081D01*
X143685208Y-128527081D02*
X143756636Y-128488986D01*
X143756636Y-128488986D02*
X143789969Y-128450890D01*
X143789969Y-128450890D02*
X143818541Y-128374700D01*
X143818541Y-128374700D02*
X143789969Y-128146128D01*
X143789969Y-128146128D02*
X143742350Y-128069938D01*
X143742350Y-128069938D02*
X143699493Y-128031843D01*
X143699493Y-128031843D02*
X143618541Y-127993747D01*
X143618541Y-127993747D02*
X143504255Y-127993747D01*
X143504255Y-127993747D02*
X143432827Y-128031843D01*
X143432827Y-128031843D02*
X143399493Y-128069938D01*
X143399493Y-128069938D02*
X143370922Y-128146128D01*
X143370922Y-128146128D02*
X143399493Y-128374700D01*
X143399493Y-128374700D02*
X143447112Y-128450890D01*
X143447112Y-128450890D02*
X143489969Y-128488986D01*
X143489969Y-128488986D02*
X143570922Y-128527081D01*
X143570922Y-128527081D02*
X143685208Y-128527081D01*
X163604259Y-129776986D02*
X163685212Y-129815081D01*
X163685212Y-129815081D02*
X163837593Y-129815081D01*
X163837593Y-129815081D02*
X163909021Y-129776986D01*
X163909021Y-129776986D02*
X163942354Y-129738890D01*
X163942354Y-129738890D02*
X163970926Y-129662700D01*
X163970926Y-129662700D02*
X163942354Y-129434128D01*
X163942354Y-129434128D02*
X163894735Y-129357938D01*
X163894735Y-129357938D02*
X163851878Y-129319843D01*
X163851878Y-129319843D02*
X163770926Y-129281747D01*
X163770926Y-129281747D02*
X163618545Y-129281747D01*
X163618545Y-129281747D02*
X163547116Y-129319843D01*
X162856640Y-129281747D02*
X162923307Y-129815081D01*
X163199498Y-129281747D02*
X163251879Y-129700795D01*
X163251879Y-129700795D02*
X163223307Y-129776986D01*
X163223307Y-129776986D02*
X163151879Y-129815081D01*
X163151879Y-129815081D02*
X163037593Y-129815081D01*
X163037593Y-129815081D02*
X162956640Y-129776986D01*
X162956640Y-129776986D02*
X162913783Y-129738890D01*
X162428069Y-129815081D02*
X162499497Y-129776986D01*
X162499497Y-129776986D02*
X162528069Y-129700795D01*
X162528069Y-129700795D02*
X162442354Y-129015081D01*
X162170925Y-129281747D02*
X161866163Y-129281747D01*
X162023306Y-129015081D02*
X162109021Y-129700795D01*
X162109021Y-129700795D02*
X162080449Y-129776986D01*
X162080449Y-129776986D02*
X162009021Y-129815081D01*
X162009021Y-129815081D02*
X161932830Y-129815081D01*
X161666163Y-129815081D02*
X161599497Y-129281747D01*
X161566163Y-129015081D02*
X161609020Y-129053176D01*
X161609020Y-129053176D02*
X161575687Y-129091271D01*
X161575687Y-129091271D02*
X161532830Y-129053176D01*
X161532830Y-129053176D02*
X161566163Y-129015081D01*
X161566163Y-129015081D02*
X161575687Y-129091271D01*
X161294735Y-129281747D02*
X161170926Y-129815081D01*
X161170926Y-129815081D02*
X160913783Y-129281747D01*
X160332830Y-129815081D02*
X160280449Y-129396033D01*
X160280449Y-129396033D02*
X160309021Y-129319843D01*
X160309021Y-129319843D02*
X160380449Y-129281747D01*
X160380449Y-129281747D02*
X160532830Y-129281747D01*
X160532830Y-129281747D02*
X160613782Y-129319843D01*
X160328068Y-129776986D02*
X160409021Y-129815081D01*
X160409021Y-129815081D02*
X160599497Y-129815081D01*
X160599497Y-129815081D02*
X160670925Y-129776986D01*
X160670925Y-129776986D02*
X160699497Y-129700795D01*
X160699497Y-129700795D02*
X160689973Y-129624605D01*
X160689973Y-129624605D02*
X160642354Y-129548414D01*
X160642354Y-129548414D02*
X160561402Y-129510319D01*
X160561402Y-129510319D02*
X160370925Y-129510319D01*
X160370925Y-129510319D02*
X160289973Y-129472224D01*
X159999496Y-129281747D02*
X159694734Y-129281747D01*
X159851877Y-129015081D02*
X159937592Y-129700795D01*
X159937592Y-129700795D02*
X159909020Y-129776986D01*
X159909020Y-129776986D02*
X159837592Y-129815081D01*
X159837592Y-129815081D02*
X159761401Y-129815081D01*
X159185210Y-129776986D02*
X159266163Y-129815081D01*
X159266163Y-129815081D02*
X159418544Y-129815081D01*
X159418544Y-129815081D02*
X159489972Y-129776986D01*
X159489972Y-129776986D02*
X159518544Y-129700795D01*
X159518544Y-129700795D02*
X159480449Y-129396033D01*
X159480449Y-129396033D02*
X159432829Y-129319843D01*
X159432829Y-129319843D02*
X159351877Y-129281747D01*
X159351877Y-129281747D02*
X159199496Y-129281747D01*
X159199496Y-129281747D02*
X159128068Y-129319843D01*
X159128068Y-129319843D02*
X159099496Y-129396033D01*
X159099496Y-129396033D02*
X159109020Y-129472224D01*
X159109020Y-129472224D02*
X159499496Y-129548414D01*
X158799496Y-129738890D02*
X158766163Y-129776986D01*
X158766163Y-129776986D02*
X158809020Y-129815081D01*
X158809020Y-129815081D02*
X158842354Y-129776986D01*
X158842354Y-129776986D02*
X158799496Y-129738890D01*
X158799496Y-129738890D02*
X158809020Y-129815081D01*
X154313783Y-133374319D02*
X153704259Y-133374319D01*
X153323307Y-133374319D02*
X152713783Y-133374319D01*
X151442355Y-133260033D02*
X151709021Y-133260033D01*
X151761402Y-133679081D02*
X151661402Y-132879081D01*
X151661402Y-132879081D02*
X151280450Y-132879081D01*
X150961403Y-133679081D02*
X151032831Y-133640986D01*
X151032831Y-133640986D02*
X151066164Y-133602890D01*
X151066164Y-133602890D02*
X151094736Y-133526700D01*
X151094736Y-133526700D02*
X151066164Y-133298128D01*
X151066164Y-133298128D02*
X151018545Y-133221938D01*
X151018545Y-133221938D02*
X150975688Y-133183843D01*
X150975688Y-133183843D02*
X150894736Y-133145747D01*
X150894736Y-133145747D02*
X150780450Y-133145747D01*
X150780450Y-133145747D02*
X150709022Y-133183843D01*
X150709022Y-133183843D02*
X150675688Y-133221938D01*
X150675688Y-133221938D02*
X150647117Y-133298128D01*
X150647117Y-133298128D02*
X150675688Y-133526700D01*
X150675688Y-133526700D02*
X150723307Y-133602890D01*
X150723307Y-133602890D02*
X150766164Y-133640986D01*
X150766164Y-133640986D02*
X150847117Y-133679081D01*
X150847117Y-133679081D02*
X150961403Y-133679081D01*
X150351878Y-133679081D02*
X150285212Y-133145747D01*
X150304259Y-133298128D02*
X150256640Y-133221938D01*
X150256640Y-133221938D02*
X150213783Y-133183843D01*
X150213783Y-133183843D02*
X150132831Y-133145747D01*
X150132831Y-133145747D02*
X150056640Y-133145747D01*
X149856640Y-133679081D02*
X149756640Y-132879081D01*
X149794735Y-133183843D02*
X149713783Y-133145747D01*
X149713783Y-133145747D02*
X149561402Y-133145747D01*
X149561402Y-133145747D02*
X149489974Y-133183843D01*
X149489974Y-133183843D02*
X149456640Y-133221938D01*
X149456640Y-133221938D02*
X149428069Y-133298128D01*
X149428069Y-133298128D02*
X149456640Y-133526700D01*
X149456640Y-133526700D02*
X149504259Y-133602890D01*
X149504259Y-133602890D02*
X149547116Y-133640986D01*
X149547116Y-133640986D02*
X149628069Y-133679081D01*
X149628069Y-133679081D02*
X149780450Y-133679081D01*
X149780450Y-133679081D02*
X149851878Y-133640986D01*
X148823306Y-133640986D02*
X148904259Y-133679081D01*
X148904259Y-133679081D02*
X149056640Y-133679081D01*
X149056640Y-133679081D02*
X149128068Y-133640986D01*
X149128068Y-133640986D02*
X149156640Y-133564795D01*
X149156640Y-133564795D02*
X149118545Y-133260033D01*
X149118545Y-133260033D02*
X149070925Y-133183843D01*
X149070925Y-133183843D02*
X148989973Y-133145747D01*
X148989973Y-133145747D02*
X148837592Y-133145747D01*
X148837592Y-133145747D02*
X148766164Y-133183843D01*
X148766164Y-133183843D02*
X148737592Y-133260033D01*
X148737592Y-133260033D02*
X148747116Y-133336224D01*
X148747116Y-133336224D02*
X149137592Y-133412414D01*
X148480450Y-133640986D02*
X148409021Y-133679081D01*
X148409021Y-133679081D02*
X148256640Y-133679081D01*
X148256640Y-133679081D02*
X148175688Y-133640986D01*
X148175688Y-133640986D02*
X148128069Y-133564795D01*
X148128069Y-133564795D02*
X148123307Y-133526700D01*
X148123307Y-133526700D02*
X148151878Y-133450509D01*
X148151878Y-133450509D02*
X148223307Y-133412414D01*
X148223307Y-133412414D02*
X148337592Y-133412414D01*
X148337592Y-133412414D02*
X148409021Y-133374319D01*
X148409021Y-133374319D02*
X148437592Y-133298128D01*
X148437592Y-133298128D02*
X148432831Y-133260033D01*
X148432831Y-133260033D02*
X148385211Y-133183843D01*
X148385211Y-133183843D02*
X148304259Y-133145747D01*
X148304259Y-133145747D02*
X148189973Y-133145747D01*
X148189973Y-133145747D02*
X148118545Y-133183843D01*
X146999497Y-133983843D02*
X147032830Y-133945747D01*
X147032830Y-133945747D02*
X147094735Y-133831462D01*
X147094735Y-133831462D02*
X147123307Y-133755271D01*
X147123307Y-133755271D02*
X147147116Y-133640986D01*
X147147116Y-133640986D02*
X147161402Y-133450509D01*
X147161402Y-133450509D02*
X147142354Y-133298128D01*
X147142354Y-133298128D02*
X147080449Y-133107652D01*
X147080449Y-133107652D02*
X147028068Y-132993366D01*
X147028068Y-132993366D02*
X146980449Y-132917176D01*
X146980449Y-132917176D02*
X146889973Y-132802890D01*
X146889973Y-132802890D02*
X146847116Y-132764795D01*
X146604259Y-132955271D02*
X146561402Y-132917176D01*
X146561402Y-132917176D02*
X146480450Y-132879081D01*
X146480450Y-132879081D02*
X146289974Y-132879081D01*
X146289974Y-132879081D02*
X146218545Y-132917176D01*
X146218545Y-132917176D02*
X146185212Y-132955271D01*
X146185212Y-132955271D02*
X146156640Y-133031462D01*
X146156640Y-133031462D02*
X146166164Y-133107652D01*
X146166164Y-133107652D02*
X146218545Y-133221938D01*
X146218545Y-133221938D02*
X146732831Y-133679081D01*
X146732831Y-133679081D02*
X146237593Y-133679081D01*
X145642354Y-132879081D02*
X145566164Y-132879081D01*
X145566164Y-132879081D02*
X145494735Y-132917176D01*
X145494735Y-132917176D02*
X145461402Y-132955271D01*
X145461402Y-132955271D02*
X145432830Y-133031462D01*
X145432830Y-133031462D02*
X145413783Y-133183843D01*
X145413783Y-133183843D02*
X145437592Y-133374319D01*
X145437592Y-133374319D02*
X145494735Y-133526700D01*
X145494735Y-133526700D02*
X145542354Y-133602890D01*
X145542354Y-133602890D02*
X145585211Y-133640986D01*
X145585211Y-133640986D02*
X145666164Y-133679081D01*
X145666164Y-133679081D02*
X145742354Y-133679081D01*
X145742354Y-133679081D02*
X145813783Y-133640986D01*
X145813783Y-133640986D02*
X145847116Y-133602890D01*
X145847116Y-133602890D02*
X145875688Y-133526700D01*
X145875688Y-133526700D02*
X145894735Y-133374319D01*
X145894735Y-133374319D02*
X145870926Y-133183843D01*
X145870926Y-133183843D02*
X145813783Y-133031462D01*
X145813783Y-133031462D02*
X145766164Y-132955271D01*
X145766164Y-132955271D02*
X145723307Y-132917176D01*
X145723307Y-132917176D02*
X145642354Y-132879081D01*
X144713783Y-133679081D02*
X145170925Y-133679081D01*
X144942354Y-133679081D02*
X144842354Y-132879081D01*
X144842354Y-132879081D02*
X144932830Y-132993366D01*
X144932830Y-132993366D02*
X145018545Y-133069557D01*
X145018545Y-133069557D02*
X145099497Y-133107652D01*
X143951878Y-133679081D02*
X144409020Y-133679081D01*
X144180449Y-133679081D02*
X144080449Y-132879081D01*
X144080449Y-132879081D02*
X144170925Y-132993366D01*
X144170925Y-132993366D02*
X144256640Y-133069557D01*
X144256640Y-133069557D02*
X144337592Y-133107652D01*
X143723306Y-133983843D02*
X143680449Y-133945747D01*
X143680449Y-133945747D02*
X143589973Y-133831462D01*
X143589973Y-133831462D02*
X143542354Y-133755271D01*
X143542354Y-133755271D02*
X143489973Y-133640986D01*
X143489973Y-133640986D02*
X143428068Y-133450509D01*
X143428068Y-133450509D02*
X143409020Y-133298128D01*
X143409020Y-133298128D02*
X143423306Y-133107652D01*
X143423306Y-133107652D02*
X143447115Y-132993366D01*
X143447115Y-132993366D02*
X143475687Y-132917176D01*
X143475687Y-132917176D02*
X143537592Y-132802890D01*
X143537592Y-132802890D02*
X143570925Y-132764795D01*
X131922851Y-108194194D02*
X131779994Y-108241813D01*
X131779994Y-108241813D02*
X131541899Y-108241813D01*
X131541899Y-108241813D02*
X131446661Y-108194194D01*
X131446661Y-108194194D02*
X131399042Y-108146574D01*
X131399042Y-108146574D02*
X131351423Y-108051336D01*
X131351423Y-108051336D02*
X131351423Y-107956098D01*
X131351423Y-107956098D02*
X131399042Y-107860860D01*
X131399042Y-107860860D02*
X131446661Y-107813241D01*
X131446661Y-107813241D02*
X131541899Y-107765622D01*
X131541899Y-107765622D02*
X131732375Y-107718003D01*
X131732375Y-107718003D02*
X131827613Y-107670384D01*
X131827613Y-107670384D02*
X131875232Y-107622765D01*
X131875232Y-107622765D02*
X131922851Y-107527527D01*
X131922851Y-107527527D02*
X131922851Y-107432289D01*
X131922851Y-107432289D02*
X131875232Y-107337051D01*
X131875232Y-107337051D02*
X131827613Y-107289432D01*
X131827613Y-107289432D02*
X131732375Y-107241813D01*
X131732375Y-107241813D02*
X131494280Y-107241813D01*
X131494280Y-107241813D02*
X131351423Y-107289432D01*
X131018089Y-107241813D02*
X130779994Y-108241813D01*
X130779994Y-108241813D02*
X130589518Y-107527527D01*
X130589518Y-107527527D02*
X130399042Y-108241813D01*
X130399042Y-108241813D02*
X130160947Y-107241813D01*
X129256185Y-108241813D02*
X129827613Y-108241813D01*
X129541899Y-108241813D02*
X129541899Y-107241813D01*
X129541899Y-107241813D02*
X129637137Y-107384670D01*
X129637137Y-107384670D02*
X129732375Y-107479908D01*
X129732375Y-107479908D02*
X129827613Y-107527527D01*
X128875232Y-107337051D02*
X128827613Y-107289432D01*
X128827613Y-107289432D02*
X128732375Y-107241813D01*
X128732375Y-107241813D02*
X128494280Y-107241813D01*
X128494280Y-107241813D02*
X128399042Y-107289432D01*
X128399042Y-107289432D02*
X128351423Y-107337051D01*
X128351423Y-107337051D02*
X128303804Y-107432289D01*
X128303804Y-107432289D02*
X128303804Y-107527527D01*
X128303804Y-107527527D02*
X128351423Y-107670384D01*
X128351423Y-107670384D02*
X128922851Y-108241813D01*
X128922851Y-108241813D02*
X128303804Y-108241813D01*
X131446660Y-91194594D02*
X131303803Y-91242213D01*
X131303803Y-91242213D02*
X131065708Y-91242213D01*
X131065708Y-91242213D02*
X130970470Y-91194594D01*
X130970470Y-91194594D02*
X130922851Y-91146974D01*
X130922851Y-91146974D02*
X130875232Y-91051736D01*
X130875232Y-91051736D02*
X130875232Y-90956498D01*
X130875232Y-90956498D02*
X130922851Y-90861260D01*
X130922851Y-90861260D02*
X130970470Y-90813641D01*
X130970470Y-90813641D02*
X131065708Y-90766022D01*
X131065708Y-90766022D02*
X131256184Y-90718403D01*
X131256184Y-90718403D02*
X131351422Y-90670784D01*
X131351422Y-90670784D02*
X131399041Y-90623165D01*
X131399041Y-90623165D02*
X131446660Y-90527927D01*
X131446660Y-90527927D02*
X131446660Y-90432689D01*
X131446660Y-90432689D02*
X131399041Y-90337451D01*
X131399041Y-90337451D02*
X131351422Y-90289832D01*
X131351422Y-90289832D02*
X131256184Y-90242213D01*
X131256184Y-90242213D02*
X131018089Y-90242213D01*
X131018089Y-90242213D02*
X130875232Y-90289832D01*
X130541898Y-90242213D02*
X130303803Y-91242213D01*
X130303803Y-91242213D02*
X130113327Y-90527927D01*
X130113327Y-90527927D02*
X129922851Y-91242213D01*
X129922851Y-91242213D02*
X129684756Y-90242213D01*
X129399041Y-90242213D02*
X128732375Y-90242213D01*
X128732375Y-90242213D02*
X129160946Y-91242213D01*
X180971240Y-134564411D02*
X180822284Y-134586499D01*
X180822284Y-134586499D02*
X180587806Y-134545155D01*
X180587806Y-134545155D02*
X180502284Y-134481721D01*
X180502284Y-134481721D02*
X180463657Y-134426557D01*
X180463657Y-134426557D02*
X180433300Y-134324496D01*
X180433300Y-134324496D02*
X180449838Y-134230705D01*
X180449838Y-134230705D02*
X180513271Y-134145183D01*
X180513271Y-134145183D02*
X180568436Y-134106556D01*
X180568436Y-134106556D02*
X180670496Y-134076199D01*
X180670496Y-134076199D02*
X180866347Y-134062379D01*
X180866347Y-134062379D02*
X180968407Y-134032021D01*
X180968407Y-134032021D02*
X181023572Y-133993394D01*
X181023572Y-133993394D02*
X181087005Y-133907872D01*
X181087005Y-133907872D02*
X181103543Y-133814081D01*
X181103543Y-133814081D02*
X181073186Y-133712021D01*
X181073186Y-133712021D02*
X181034559Y-133656856D01*
X181034559Y-133656856D02*
X180949037Y-133593423D01*
X180949037Y-133593423D02*
X180714559Y-133552078D01*
X180714559Y-133552078D02*
X180565603Y-133574167D01*
X180245603Y-133469388D02*
X179837476Y-134412851D01*
X179837476Y-134412851D02*
X179773928Y-133676341D01*
X179773928Y-133676341D02*
X179462312Y-134346700D01*
X179462312Y-134346700D02*
X179401482Y-133320547D01*
X178336817Y-134148245D02*
X178899564Y-134247472D01*
X178618191Y-134197858D02*
X178791839Y-133213051D01*
X178791839Y-133213051D02*
X178860823Y-133370275D01*
X178860823Y-133370275D02*
X178938077Y-133480604D01*
X178938077Y-133480604D02*
X179023599Y-133544038D01*
X177666344Y-133014595D02*
X177853927Y-133047671D01*
X177853927Y-133047671D02*
X177939449Y-133111105D01*
X177939449Y-133111105D02*
X177978076Y-133166269D01*
X177978076Y-133166269D02*
X178047060Y-133323494D01*
X178047060Y-133323494D02*
X178060880Y-133519346D01*
X178060880Y-133519346D02*
X177994728Y-133894510D01*
X177994728Y-133894510D02*
X177931295Y-133980033D01*
X177931295Y-133980033D02*
X177876130Y-134018659D01*
X177876130Y-134018659D02*
X177774070Y-134049017D01*
X177774070Y-134049017D02*
X177586487Y-134015941D01*
X177586487Y-134015941D02*
X177500965Y-133952508D01*
X177500965Y-133952508D02*
X177462339Y-133897343D01*
X177462339Y-133897343D02*
X177431981Y-133795283D01*
X177431981Y-133795283D02*
X177473326Y-133560805D01*
X177473326Y-133560805D02*
X177536759Y-133475283D01*
X177536759Y-133475283D02*
X177591924Y-133436656D01*
X177591924Y-133436656D02*
X177693984Y-133406298D01*
X177693984Y-133406298D02*
X177881566Y-133439374D01*
X177881566Y-133439374D02*
X177967089Y-133502808D01*
X177967089Y-133502808D02*
X178005715Y-133557972D01*
X178005715Y-133557972D02*
X178036073Y-133660032D01*
X113446460Y-76318304D02*
X113303603Y-76365923D01*
X113303603Y-76365923D02*
X113065508Y-76365923D01*
X113065508Y-76365923D02*
X112970270Y-76318304D01*
X112970270Y-76318304D02*
X112922651Y-76270684D01*
X112922651Y-76270684D02*
X112875032Y-76175446D01*
X112875032Y-76175446D02*
X112875032Y-76080208D01*
X112875032Y-76080208D02*
X112922651Y-75984970D01*
X112922651Y-75984970D02*
X112970270Y-75937351D01*
X112970270Y-75937351D02*
X113065508Y-75889732D01*
X113065508Y-75889732D02*
X113255984Y-75842113D01*
X113255984Y-75842113D02*
X113351222Y-75794494D01*
X113351222Y-75794494D02*
X113398841Y-75746875D01*
X113398841Y-75746875D02*
X113446460Y-75651637D01*
X113446460Y-75651637D02*
X113446460Y-75556399D01*
X113446460Y-75556399D02*
X113398841Y-75461161D01*
X113398841Y-75461161D02*
X113351222Y-75413542D01*
X113351222Y-75413542D02*
X113255984Y-75365923D01*
X113255984Y-75365923D02*
X113017889Y-75365923D01*
X113017889Y-75365923D02*
X112875032Y-75413542D01*
X112541698Y-75365923D02*
X112303603Y-76365923D01*
X112303603Y-76365923D02*
X112113127Y-75651637D01*
X112113127Y-75651637D02*
X111922651Y-76365923D01*
X111922651Y-76365923D02*
X111684556Y-75365923D01*
X110779794Y-76365923D02*
X111351222Y-76365923D01*
X111065508Y-76365923D02*
X111065508Y-75365923D01*
X111065508Y-75365923D02*
X111160746Y-75508780D01*
X111160746Y-75508780D02*
X111255984Y-75604018D01*
X111255984Y-75604018D02*
X111351222Y-75651637D01*
X111527160Y-93874583D02*
X111388997Y-93934472D01*
X111388997Y-93934472D02*
X111151808Y-93955223D01*
X111151808Y-93955223D02*
X111052782Y-93916086D01*
X111052782Y-93916086D02*
X111001194Y-93872799D01*
X111001194Y-93872799D02*
X110945455Y-93782073D01*
X110945455Y-93782073D02*
X110937155Y-93687197D01*
X110937155Y-93687197D02*
X110976292Y-93588171D01*
X110976292Y-93588171D02*
X111019580Y-93536583D01*
X111019580Y-93536583D02*
X111110305Y-93480845D01*
X111110305Y-93480845D02*
X111295906Y-93416806D01*
X111295906Y-93416806D02*
X111386632Y-93361068D01*
X111386632Y-93361068D02*
X111429919Y-93309480D01*
X111429919Y-93309480D02*
X111469057Y-93210454D01*
X111469057Y-93210454D02*
X111460756Y-93115578D01*
X111460756Y-93115578D02*
X111405018Y-93024852D01*
X111405018Y-93024852D02*
X111353430Y-92981565D01*
X111353430Y-92981565D02*
X111254404Y-92942428D01*
X111254404Y-92942428D02*
X111017214Y-92963179D01*
X111017214Y-92963179D02*
X110879051Y-93023068D01*
X110542836Y-93004682D02*
X110392802Y-94021628D01*
X110392802Y-94021628D02*
X110140797Y-93326661D01*
X110140797Y-93326661D02*
X110013300Y-94054830D01*
X110013300Y-94054830D02*
X109688955Y-93079387D01*
X108882512Y-93149941D02*
X109072263Y-93133340D01*
X109072263Y-93133340D02*
X109171289Y-93172477D01*
X109171289Y-93172477D02*
X109222877Y-93215765D01*
X109222877Y-93215765D02*
X109330203Y-93349778D01*
X109330203Y-93349778D02*
X109394242Y-93535379D01*
X109394242Y-93535379D02*
X109427445Y-93914882D01*
X109427445Y-93914882D02*
X109388307Y-94013908D01*
X109388307Y-94013908D02*
X109345020Y-94065496D01*
X109345020Y-94065496D02*
X109254294Y-94121234D01*
X109254294Y-94121234D02*
X109064543Y-94137835D01*
X109064543Y-94137835D02*
X108965517Y-94098698D01*
X108965517Y-94098698D02*
X108913929Y-94055411D01*
X108913929Y-94055411D02*
X108858190Y-93964685D01*
X108858190Y-93964685D02*
X108837439Y-93727496D01*
X108837439Y-93727496D02*
X108876576Y-93628470D01*
X108876576Y-93628470D02*
X108919864Y-93576882D01*
X108919864Y-93576882D02*
X109010589Y-93521143D01*
X109010589Y-93521143D02*
X109200341Y-93504542D01*
X109200341Y-93504542D02*
X109299367Y-93543680D01*
X109299367Y-93543680D02*
X109350955Y-93586967D01*
X109350955Y-93586967D02*
X109406693Y-93677693D01*
X199757416Y-139915611D02*
X199606888Y-139911498D01*
X199606888Y-139911498D02*
X199383151Y-139830065D01*
X199383151Y-139830065D02*
X199309943Y-139752744D01*
X199309943Y-139752744D02*
X199281483Y-139691710D01*
X199281483Y-139691710D02*
X199269309Y-139585929D01*
X199269309Y-139585929D02*
X199301882Y-139496435D01*
X199301882Y-139496435D02*
X199379203Y-139423227D01*
X199379203Y-139423227D02*
X199440237Y-139394766D01*
X199440237Y-139394766D02*
X199546018Y-139382592D01*
X199546018Y-139382592D02*
X199741294Y-139402992D01*
X199741294Y-139402992D02*
X199847075Y-139390818D01*
X199847075Y-139390818D02*
X199908109Y-139362357D01*
X199908109Y-139362357D02*
X199985429Y-139289149D01*
X199985429Y-139289149D02*
X200018003Y-139199655D01*
X200018003Y-139199655D02*
X200005829Y-139093873D01*
X200005829Y-139093873D02*
X199977368Y-139032839D01*
X199977368Y-139032839D02*
X199904160Y-138955519D01*
X199904160Y-138955519D02*
X199680424Y-138874086D01*
X199680424Y-138874086D02*
X199529896Y-138869973D01*
X199232951Y-138711219D02*
X198667195Y-139569478D01*
X198667195Y-139569478D02*
X198732506Y-138833122D01*
X198732506Y-138833122D02*
X198309217Y-139439185D01*
X198309217Y-139439185D02*
X198427501Y-138418059D01*
X197235282Y-139048305D02*
X197772250Y-139243745D01*
X197503766Y-139146025D02*
X197845786Y-138206332D01*
X197845786Y-138206332D02*
X197886421Y-138373147D01*
X197886421Y-138373147D02*
X197943342Y-138495215D01*
X197943342Y-138495215D02*
X198016550Y-138572536D01*
X197264072Y-137994605D02*
X196637610Y-137766592D01*
X196637610Y-137766592D02*
X196698315Y-138852864D01*
X111150746Y-129214589D02*
X111957189Y-129144034D01*
X111957189Y-129144034D02*
X112056215Y-129183171D01*
X112056215Y-129183171D02*
X112107803Y-129226459D01*
X112107803Y-129226459D02*
X112163542Y-129317184D01*
X112163542Y-129317184D02*
X112180143Y-129506936D01*
X112180143Y-129506936D02*
X112141005Y-129605962D01*
X112141005Y-129605962D02*
X112097718Y-129657550D01*
X112097718Y-129657550D02*
X112006992Y-129713288D01*
X112006992Y-129713288D02*
X111200549Y-129783843D01*
X112283899Y-130692882D02*
X112234096Y-130123628D01*
X112258998Y-130408255D02*
X111262803Y-130495410D01*
X111262803Y-130495410D02*
X111396816Y-130388084D01*
X111396816Y-130388084D02*
X111483391Y-130284908D01*
X111483391Y-130284908D02*
X111522529Y-130185882D01*
X149922251Y-103884394D02*
X149779394Y-103932013D01*
X149779394Y-103932013D02*
X149541299Y-103932013D01*
X149541299Y-103932013D02*
X149446061Y-103884394D01*
X149446061Y-103884394D02*
X149398442Y-103836774D01*
X149398442Y-103836774D02*
X149350823Y-103741536D01*
X149350823Y-103741536D02*
X149350823Y-103646298D01*
X149350823Y-103646298D02*
X149398442Y-103551060D01*
X149398442Y-103551060D02*
X149446061Y-103503441D01*
X149446061Y-103503441D02*
X149541299Y-103455822D01*
X149541299Y-103455822D02*
X149731775Y-103408203D01*
X149731775Y-103408203D02*
X149827013Y-103360584D01*
X149827013Y-103360584D02*
X149874632Y-103312965D01*
X149874632Y-103312965D02*
X149922251Y-103217727D01*
X149922251Y-103217727D02*
X149922251Y-103122489D01*
X149922251Y-103122489D02*
X149874632Y-103027251D01*
X149874632Y-103027251D02*
X149827013Y-102979632D01*
X149827013Y-102979632D02*
X149731775Y-102932013D01*
X149731775Y-102932013D02*
X149493680Y-102932013D01*
X149493680Y-102932013D02*
X149350823Y-102979632D01*
X149017489Y-102932013D02*
X148779394Y-103932013D01*
X148779394Y-103932013D02*
X148588918Y-103217727D01*
X148588918Y-103217727D02*
X148398442Y-103932013D01*
X148398442Y-103932013D02*
X148160347Y-102932013D01*
X147255585Y-103932013D02*
X147827013Y-103932013D01*
X147541299Y-103932013D02*
X147541299Y-102932013D01*
X147541299Y-102932013D02*
X147636537Y-103074870D01*
X147636537Y-103074870D02*
X147731775Y-103170108D01*
X147731775Y-103170108D02*
X147827013Y-103217727D01*
X146922251Y-102932013D02*
X146303204Y-102932013D01*
X146303204Y-102932013D02*
X146636537Y-103312965D01*
X146636537Y-103312965D02*
X146493680Y-103312965D01*
X146493680Y-103312965D02*
X146398442Y-103360584D01*
X146398442Y-103360584D02*
X146350823Y-103408203D01*
X146350823Y-103408203D02*
X146303204Y-103503441D01*
X146303204Y-103503441D02*
X146303204Y-103741536D01*
X146303204Y-103741536D02*
X146350823Y-103836774D01*
X146350823Y-103836774D02*
X146398442Y-103884394D01*
X146398442Y-103884394D02*
X146493680Y-103932013D01*
X146493680Y-103932013D02*
X146779394Y-103932013D01*
X146779394Y-103932013D02*
X146874632Y-103884394D01*
X146874632Y-103884394D02*
X146922251Y-103836774D01*
X167446260Y-73194434D02*
X167303403Y-73242053D01*
X167303403Y-73242053D02*
X167065308Y-73242053D01*
X167065308Y-73242053D02*
X166970070Y-73194434D01*
X166970070Y-73194434D02*
X166922451Y-73146814D01*
X166922451Y-73146814D02*
X166874832Y-73051576D01*
X166874832Y-73051576D02*
X166874832Y-72956338D01*
X166874832Y-72956338D02*
X166922451Y-72861100D01*
X166922451Y-72861100D02*
X166970070Y-72813481D01*
X166970070Y-72813481D02*
X167065308Y-72765862D01*
X167065308Y-72765862D02*
X167255784Y-72718243D01*
X167255784Y-72718243D02*
X167351022Y-72670624D01*
X167351022Y-72670624D02*
X167398641Y-72623005D01*
X167398641Y-72623005D02*
X167446260Y-72527767D01*
X167446260Y-72527767D02*
X167446260Y-72432529D01*
X167446260Y-72432529D02*
X167398641Y-72337291D01*
X167398641Y-72337291D02*
X167351022Y-72289672D01*
X167351022Y-72289672D02*
X167255784Y-72242053D01*
X167255784Y-72242053D02*
X167017689Y-72242053D01*
X167017689Y-72242053D02*
X166874832Y-72289672D01*
X166541498Y-72242053D02*
X166303403Y-73242053D01*
X166303403Y-73242053D02*
X166112927Y-72527767D01*
X166112927Y-72527767D02*
X165922451Y-73242053D01*
X165922451Y-73242053D02*
X165684356Y-72242053D01*
X164874832Y-72575386D02*
X164874832Y-73242053D01*
X165112927Y-72194434D02*
X165351022Y-72908719D01*
X165351022Y-72908719D02*
X164731975Y-72908719D01*
X131446660Y-74194994D02*
X131303803Y-74242613D01*
X131303803Y-74242613D02*
X131065708Y-74242613D01*
X131065708Y-74242613D02*
X130970470Y-74194994D01*
X130970470Y-74194994D02*
X130922851Y-74147374D01*
X130922851Y-74147374D02*
X130875232Y-74052136D01*
X130875232Y-74052136D02*
X130875232Y-73956898D01*
X130875232Y-73956898D02*
X130922851Y-73861660D01*
X130922851Y-73861660D02*
X130970470Y-73814041D01*
X130970470Y-73814041D02*
X131065708Y-73766422D01*
X131065708Y-73766422D02*
X131256184Y-73718803D01*
X131256184Y-73718803D02*
X131351422Y-73671184D01*
X131351422Y-73671184D02*
X131399041Y-73623565D01*
X131399041Y-73623565D02*
X131446660Y-73528327D01*
X131446660Y-73528327D02*
X131446660Y-73433089D01*
X131446660Y-73433089D02*
X131399041Y-73337851D01*
X131399041Y-73337851D02*
X131351422Y-73290232D01*
X131351422Y-73290232D02*
X131256184Y-73242613D01*
X131256184Y-73242613D02*
X131018089Y-73242613D01*
X131018089Y-73242613D02*
X130875232Y-73290232D01*
X130541898Y-73242613D02*
X130303803Y-74242613D01*
X130303803Y-74242613D02*
X130113327Y-73528327D01*
X130113327Y-73528327D02*
X129922851Y-74242613D01*
X129922851Y-74242613D02*
X129684756Y-73242613D01*
X129351422Y-73337851D02*
X129303803Y-73290232D01*
X129303803Y-73290232D02*
X129208565Y-73242613D01*
X129208565Y-73242613D02*
X128970470Y-73242613D01*
X128970470Y-73242613D02*
X128875232Y-73290232D01*
X128875232Y-73290232D02*
X128827613Y-73337851D01*
X128827613Y-73337851D02*
X128779994Y-73433089D01*
X128779994Y-73433089D02*
X128779994Y-73528327D01*
X128779994Y-73528327D02*
X128827613Y-73671184D01*
X128827613Y-73671184D02*
X129399041Y-74242613D01*
X129399041Y-74242613D02*
X128779994Y-74242613D01*
X185445958Y-74993994D02*
X185303101Y-75041613D01*
X185303101Y-75041613D02*
X185065006Y-75041613D01*
X185065006Y-75041613D02*
X184969768Y-74993994D01*
X184969768Y-74993994D02*
X184922149Y-74946374D01*
X184922149Y-74946374D02*
X184874530Y-74851136D01*
X184874530Y-74851136D02*
X184874530Y-74755898D01*
X184874530Y-74755898D02*
X184922149Y-74660660D01*
X184922149Y-74660660D02*
X184969768Y-74613041D01*
X184969768Y-74613041D02*
X185065006Y-74565422D01*
X185065006Y-74565422D02*
X185255482Y-74517803D01*
X185255482Y-74517803D02*
X185350720Y-74470184D01*
X185350720Y-74470184D02*
X185398339Y-74422565D01*
X185398339Y-74422565D02*
X185445958Y-74327327D01*
X185445958Y-74327327D02*
X185445958Y-74232089D01*
X185445958Y-74232089D02*
X185398339Y-74136851D01*
X185398339Y-74136851D02*
X185350720Y-74089232D01*
X185350720Y-74089232D02*
X185255482Y-74041613D01*
X185255482Y-74041613D02*
X185017387Y-74041613D01*
X185017387Y-74041613D02*
X184874530Y-74089232D01*
X184541196Y-74041613D02*
X184303101Y-75041613D01*
X184303101Y-75041613D02*
X184112625Y-74327327D01*
X184112625Y-74327327D02*
X183922149Y-75041613D01*
X183922149Y-75041613D02*
X183684054Y-74041613D01*
X182826911Y-74041613D02*
X183303101Y-74041613D01*
X183303101Y-74041613D02*
X183350720Y-74517803D01*
X183350720Y-74517803D02*
X183303101Y-74470184D01*
X183303101Y-74470184D02*
X183207863Y-74422565D01*
X183207863Y-74422565D02*
X182969768Y-74422565D01*
X182969768Y-74422565D02*
X182874530Y-74470184D01*
X182874530Y-74470184D02*
X182826911Y-74517803D01*
X182826911Y-74517803D02*
X182779292Y-74613041D01*
X182779292Y-74613041D02*
X182779292Y-74851136D01*
X182779292Y-74851136D02*
X182826911Y-74946374D01*
X182826911Y-74946374D02*
X182874530Y-74993994D01*
X182874530Y-74993994D02*
X182969768Y-75041613D01*
X182969768Y-75041613D02*
X183207863Y-75041613D01*
X183207863Y-75041613D02*
X183303101Y-74993994D01*
X183303101Y-74993994D02*
X183350720Y-74946374D01*
X167922451Y-107194794D02*
X167779594Y-107242413D01*
X167779594Y-107242413D02*
X167541499Y-107242413D01*
X167541499Y-107242413D02*
X167446261Y-107194794D01*
X167446261Y-107194794D02*
X167398642Y-107147174D01*
X167398642Y-107147174D02*
X167351023Y-107051936D01*
X167351023Y-107051936D02*
X167351023Y-106956698D01*
X167351023Y-106956698D02*
X167398642Y-106861460D01*
X167398642Y-106861460D02*
X167446261Y-106813841D01*
X167446261Y-106813841D02*
X167541499Y-106766222D01*
X167541499Y-106766222D02*
X167731975Y-106718603D01*
X167731975Y-106718603D02*
X167827213Y-106670984D01*
X167827213Y-106670984D02*
X167874832Y-106623365D01*
X167874832Y-106623365D02*
X167922451Y-106528127D01*
X167922451Y-106528127D02*
X167922451Y-106432889D01*
X167922451Y-106432889D02*
X167874832Y-106337651D01*
X167874832Y-106337651D02*
X167827213Y-106290032D01*
X167827213Y-106290032D02*
X167731975Y-106242413D01*
X167731975Y-106242413D02*
X167493880Y-106242413D01*
X167493880Y-106242413D02*
X167351023Y-106290032D01*
X167017689Y-106242413D02*
X166779594Y-107242413D01*
X166779594Y-107242413D02*
X166589118Y-106528127D01*
X166589118Y-106528127D02*
X166398642Y-107242413D01*
X166398642Y-107242413D02*
X166160547Y-106242413D01*
X165255785Y-107242413D02*
X165827213Y-107242413D01*
X165541499Y-107242413D02*
X165541499Y-106242413D01*
X165541499Y-106242413D02*
X165636737Y-106385270D01*
X165636737Y-106385270D02*
X165731975Y-106480508D01*
X165731975Y-106480508D02*
X165827213Y-106528127D01*
X164398642Y-106575746D02*
X164398642Y-107242413D01*
X164636737Y-106194794D02*
X164874832Y-106909079D01*
X164874832Y-106909079D02*
X164255785Y-106909079D01*
X196879282Y-116577079D02*
X196731385Y-117129036D01*
X197771259Y-117111877D02*
X196805333Y-116853058D01*
X197463141Y-118261789D02*
X197089450Y-117816566D01*
X197611038Y-117709831D02*
X196645112Y-117451012D01*
X196645112Y-117451012D02*
X196546514Y-117818984D01*
X196546514Y-117818984D02*
X196567861Y-117923301D01*
X196567861Y-117923301D02*
X196601533Y-117981623D01*
X196601533Y-117981623D02*
X196681201Y-118052268D01*
X196681201Y-118052268D02*
X196819191Y-118089243D01*
X196819191Y-118089243D02*
X196923508Y-118067896D01*
X196923508Y-118067896D02*
X196981830Y-118034224D01*
X196981830Y-118034224D02*
X197052475Y-117954556D01*
X197052475Y-117954556D02*
X197151073Y-117586584D01*
X197204322Y-119227714D02*
X196830631Y-118782492D01*
X197352219Y-118675757D02*
X196386293Y-118416938D01*
X196386293Y-118416938D02*
X196287695Y-118784910D01*
X196287695Y-118784910D02*
X196309042Y-118889227D01*
X196309042Y-118889227D02*
X196342714Y-118947548D01*
X196342714Y-118947548D02*
X196422382Y-119018194D01*
X196422382Y-119018194D02*
X196560372Y-119055168D01*
X196560372Y-119055168D02*
X196664689Y-119033821D01*
X196664689Y-119033821D02*
X196723010Y-119000150D01*
X196723010Y-119000150D02*
X196793656Y-118920481D01*
X196793656Y-118920481D02*
X196892254Y-118552510D01*
X197059728Y-119583361D02*
X197068750Y-119733676D01*
X197068750Y-119733676D02*
X197007127Y-119963658D01*
X197007127Y-119963658D02*
X196936481Y-120043326D01*
X196936481Y-120043326D02*
X196878160Y-120076998D01*
X196878160Y-120076998D02*
X196773842Y-120098345D01*
X196773842Y-120098345D02*
X196681849Y-120073696D01*
X196681849Y-120073696D02*
X196602181Y-120003050D01*
X196602181Y-120003050D02*
X196568509Y-119944728D01*
X196568509Y-119944728D02*
X196547162Y-119840411D01*
X196547162Y-119840411D02*
X196550464Y-119644100D01*
X196550464Y-119644100D02*
X196529117Y-119539783D01*
X196529117Y-119539783D02*
X196495446Y-119481461D01*
X196495446Y-119481461D02*
X196415777Y-119410815D01*
X196415777Y-119410815D02*
X196323785Y-119386166D01*
X196323785Y-119386166D02*
X196219467Y-119407513D01*
X196219467Y-119407513D02*
X196161146Y-119441185D01*
X196161146Y-119441185D02*
X196090500Y-119520853D01*
X196090500Y-119520853D02*
X196028876Y-119750835D01*
X196028876Y-119750835D02*
X196037899Y-119901149D01*
X185922149Y-108993794D02*
X185779292Y-109041413D01*
X185779292Y-109041413D02*
X185541197Y-109041413D01*
X185541197Y-109041413D02*
X185445959Y-108993794D01*
X185445959Y-108993794D02*
X185398340Y-108946174D01*
X185398340Y-108946174D02*
X185350721Y-108850936D01*
X185350721Y-108850936D02*
X185350721Y-108755698D01*
X185350721Y-108755698D02*
X185398340Y-108660460D01*
X185398340Y-108660460D02*
X185445959Y-108612841D01*
X185445959Y-108612841D02*
X185541197Y-108565222D01*
X185541197Y-108565222D02*
X185731673Y-108517603D01*
X185731673Y-108517603D02*
X185826911Y-108469984D01*
X185826911Y-108469984D02*
X185874530Y-108422365D01*
X185874530Y-108422365D02*
X185922149Y-108327127D01*
X185922149Y-108327127D02*
X185922149Y-108231889D01*
X185922149Y-108231889D02*
X185874530Y-108136651D01*
X185874530Y-108136651D02*
X185826911Y-108089032D01*
X185826911Y-108089032D02*
X185731673Y-108041413D01*
X185731673Y-108041413D02*
X185493578Y-108041413D01*
X185493578Y-108041413D02*
X185350721Y-108089032D01*
X185017387Y-108041413D02*
X184779292Y-109041413D01*
X184779292Y-109041413D02*
X184588816Y-108327127D01*
X184588816Y-108327127D02*
X184398340Y-109041413D01*
X184398340Y-109041413D02*
X184160245Y-108041413D01*
X183255483Y-109041413D02*
X183826911Y-109041413D01*
X183541197Y-109041413D02*
X183541197Y-108041413D01*
X183541197Y-108041413D02*
X183636435Y-108184270D01*
X183636435Y-108184270D02*
X183731673Y-108279508D01*
X183731673Y-108279508D02*
X183826911Y-108327127D01*
X182350721Y-108041413D02*
X182826911Y-108041413D01*
X182826911Y-108041413D02*
X182874530Y-108517603D01*
X182874530Y-108517603D02*
X182826911Y-108469984D01*
X182826911Y-108469984D02*
X182731673Y-108422365D01*
X182731673Y-108422365D02*
X182493578Y-108422365D01*
X182493578Y-108422365D02*
X182398340Y-108469984D01*
X182398340Y-108469984D02*
X182350721Y-108517603D01*
X182350721Y-108517603D02*
X182303102Y-108612841D01*
X182303102Y-108612841D02*
X182303102Y-108850936D01*
X182303102Y-108850936D02*
X182350721Y-108946174D01*
X182350721Y-108946174D02*
X182398340Y-108993794D01*
X182398340Y-108993794D02*
X182493578Y-109041413D01*
X182493578Y-109041413D02*
X182731673Y-109041413D01*
X182731673Y-109041413D02*
X182826911Y-108993794D01*
X182826911Y-108993794D02*
X182874530Y-108946174D01*
X167446260Y-90194394D02*
X167303403Y-90242013D01*
X167303403Y-90242013D02*
X167065308Y-90242013D01*
X167065308Y-90242013D02*
X166970070Y-90194394D01*
X166970070Y-90194394D02*
X166922451Y-90146774D01*
X166922451Y-90146774D02*
X166874832Y-90051536D01*
X166874832Y-90051536D02*
X166874832Y-89956298D01*
X166874832Y-89956298D02*
X166922451Y-89861060D01*
X166922451Y-89861060D02*
X166970070Y-89813441D01*
X166970070Y-89813441D02*
X167065308Y-89765822D01*
X167065308Y-89765822D02*
X167255784Y-89718203D01*
X167255784Y-89718203D02*
X167351022Y-89670584D01*
X167351022Y-89670584D02*
X167398641Y-89622965D01*
X167398641Y-89622965D02*
X167446260Y-89527727D01*
X167446260Y-89527727D02*
X167446260Y-89432489D01*
X167446260Y-89432489D02*
X167398641Y-89337251D01*
X167398641Y-89337251D02*
X167351022Y-89289632D01*
X167351022Y-89289632D02*
X167255784Y-89242013D01*
X167255784Y-89242013D02*
X167017689Y-89242013D01*
X167017689Y-89242013D02*
X166874832Y-89289632D01*
X166541498Y-89242013D02*
X166303403Y-90242013D01*
X166303403Y-90242013D02*
X166112927Y-89527727D01*
X166112927Y-89527727D02*
X165922451Y-90242013D01*
X165922451Y-90242013D02*
X165684356Y-89242013D01*
X165255784Y-90242013D02*
X165065308Y-90242013D01*
X165065308Y-90242013D02*
X164970070Y-90194394D01*
X164970070Y-90194394D02*
X164922451Y-90146774D01*
X164922451Y-90146774D02*
X164827213Y-90003917D01*
X164827213Y-90003917D02*
X164779594Y-89813441D01*
X164779594Y-89813441D02*
X164779594Y-89432489D01*
X164779594Y-89432489D02*
X164827213Y-89337251D01*
X164827213Y-89337251D02*
X164874832Y-89289632D01*
X164874832Y-89289632D02*
X164970070Y-89242013D01*
X164970070Y-89242013D02*
X165160546Y-89242013D01*
X165160546Y-89242013D02*
X165255784Y-89289632D01*
X165255784Y-89289632D02*
X165303403Y-89337251D01*
X165303403Y-89337251D02*
X165351022Y-89432489D01*
X165351022Y-89432489D02*
X165351022Y-89670584D01*
X165351022Y-89670584D02*
X165303403Y-89765822D01*
X165303403Y-89765822D02*
X165255784Y-89813441D01*
X165255784Y-89813441D02*
X165160546Y-89861060D01*
X165160546Y-89861060D02*
X164970070Y-89861060D01*
X164970070Y-89861060D02*
X164874832Y-89813441D01*
X164874832Y-89813441D02*
X164827213Y-89765822D01*
X164827213Y-89765822D02*
X164779594Y-89670584D01*
X185922149Y-91993794D02*
X185779292Y-92041413D01*
X185779292Y-92041413D02*
X185541197Y-92041413D01*
X185541197Y-92041413D02*
X185445959Y-91993794D01*
X185445959Y-91993794D02*
X185398340Y-91946174D01*
X185398340Y-91946174D02*
X185350721Y-91850936D01*
X185350721Y-91850936D02*
X185350721Y-91755698D01*
X185350721Y-91755698D02*
X185398340Y-91660460D01*
X185398340Y-91660460D02*
X185445959Y-91612841D01*
X185445959Y-91612841D02*
X185541197Y-91565222D01*
X185541197Y-91565222D02*
X185731673Y-91517603D01*
X185731673Y-91517603D02*
X185826911Y-91469984D01*
X185826911Y-91469984D02*
X185874530Y-91422365D01*
X185874530Y-91422365D02*
X185922149Y-91327127D01*
X185922149Y-91327127D02*
X185922149Y-91231889D01*
X185922149Y-91231889D02*
X185874530Y-91136651D01*
X185874530Y-91136651D02*
X185826911Y-91089032D01*
X185826911Y-91089032D02*
X185731673Y-91041413D01*
X185731673Y-91041413D02*
X185493578Y-91041413D01*
X185493578Y-91041413D02*
X185350721Y-91089032D01*
X185017387Y-91041413D02*
X184779292Y-92041413D01*
X184779292Y-92041413D02*
X184588816Y-91327127D01*
X184588816Y-91327127D02*
X184398340Y-92041413D01*
X184398340Y-92041413D02*
X184160245Y-91041413D01*
X183255483Y-92041413D02*
X183826911Y-92041413D01*
X183541197Y-92041413D02*
X183541197Y-91041413D01*
X183541197Y-91041413D02*
X183636435Y-91184270D01*
X183636435Y-91184270D02*
X183731673Y-91279508D01*
X183731673Y-91279508D02*
X183826911Y-91327127D01*
X182636435Y-91041413D02*
X182541197Y-91041413D01*
X182541197Y-91041413D02*
X182445959Y-91089032D01*
X182445959Y-91089032D02*
X182398340Y-91136651D01*
X182398340Y-91136651D02*
X182350721Y-91231889D01*
X182350721Y-91231889D02*
X182303102Y-91422365D01*
X182303102Y-91422365D02*
X182303102Y-91660460D01*
X182303102Y-91660460D02*
X182350721Y-91850936D01*
X182350721Y-91850936D02*
X182398340Y-91946174D01*
X182398340Y-91946174D02*
X182445959Y-91993794D01*
X182445959Y-91993794D02*
X182541197Y-92041413D01*
X182541197Y-92041413D02*
X182636435Y-92041413D01*
X182636435Y-92041413D02*
X182731673Y-91993794D01*
X182731673Y-91993794D02*
X182779292Y-91946174D01*
X182779292Y-91946174D02*
X182826911Y-91850936D01*
X182826911Y-91850936D02*
X182874530Y-91660460D01*
X182874530Y-91660460D02*
X182874530Y-91422365D01*
X182874530Y-91422365D02*
X182826911Y-91231889D01*
X182826911Y-91231889D02*
X182779292Y-91136651D01*
X182779292Y-91136651D02*
X182731673Y-91089032D01*
X182731673Y-91089032D02*
X182636435Y-91041413D01*
X149446060Y-69884234D02*
X149303203Y-69931853D01*
X149303203Y-69931853D02*
X149065108Y-69931853D01*
X149065108Y-69931853D02*
X148969870Y-69884234D01*
X148969870Y-69884234D02*
X148922251Y-69836614D01*
X148922251Y-69836614D02*
X148874632Y-69741376D01*
X148874632Y-69741376D02*
X148874632Y-69646138D01*
X148874632Y-69646138D02*
X148922251Y-69550900D01*
X148922251Y-69550900D02*
X148969870Y-69503281D01*
X148969870Y-69503281D02*
X149065108Y-69455662D01*
X149065108Y-69455662D02*
X149255584Y-69408043D01*
X149255584Y-69408043D02*
X149350822Y-69360424D01*
X149350822Y-69360424D02*
X149398441Y-69312805D01*
X149398441Y-69312805D02*
X149446060Y-69217567D01*
X149446060Y-69217567D02*
X149446060Y-69122329D01*
X149446060Y-69122329D02*
X149398441Y-69027091D01*
X149398441Y-69027091D02*
X149350822Y-68979472D01*
X149350822Y-68979472D02*
X149255584Y-68931853D01*
X149255584Y-68931853D02*
X149017489Y-68931853D01*
X149017489Y-68931853D02*
X148874632Y-68979472D01*
X148541298Y-68931853D02*
X148303203Y-69931853D01*
X148303203Y-69931853D02*
X148112727Y-69217567D01*
X148112727Y-69217567D02*
X147922251Y-69931853D01*
X147922251Y-69931853D02*
X147684156Y-68931853D01*
X147398441Y-68931853D02*
X146779394Y-68931853D01*
X146779394Y-68931853D02*
X147112727Y-69312805D01*
X147112727Y-69312805D02*
X146969870Y-69312805D01*
X146969870Y-69312805D02*
X146874632Y-69360424D01*
X146874632Y-69360424D02*
X146827013Y-69408043D01*
X146827013Y-69408043D02*
X146779394Y-69503281D01*
X146779394Y-69503281D02*
X146779394Y-69741376D01*
X146779394Y-69741376D02*
X146827013Y-69836614D01*
X146827013Y-69836614D02*
X146874632Y-69884234D01*
X146874632Y-69884234D02*
X146969870Y-69931853D01*
X146969870Y-69931853D02*
X147255584Y-69931853D01*
X147255584Y-69931853D02*
X147350822Y-69884234D01*
X147350822Y-69884234D02*
X147398441Y-69836614D01*
X149446060Y-86884194D02*
X149303203Y-86931813D01*
X149303203Y-86931813D02*
X149065108Y-86931813D01*
X149065108Y-86931813D02*
X148969870Y-86884194D01*
X148969870Y-86884194D02*
X148922251Y-86836574D01*
X148922251Y-86836574D02*
X148874632Y-86741336D01*
X148874632Y-86741336D02*
X148874632Y-86646098D01*
X148874632Y-86646098D02*
X148922251Y-86550860D01*
X148922251Y-86550860D02*
X148969870Y-86503241D01*
X148969870Y-86503241D02*
X149065108Y-86455622D01*
X149065108Y-86455622D02*
X149255584Y-86408003D01*
X149255584Y-86408003D02*
X149350822Y-86360384D01*
X149350822Y-86360384D02*
X149398441Y-86312765D01*
X149398441Y-86312765D02*
X149446060Y-86217527D01*
X149446060Y-86217527D02*
X149446060Y-86122289D01*
X149446060Y-86122289D02*
X149398441Y-86027051D01*
X149398441Y-86027051D02*
X149350822Y-85979432D01*
X149350822Y-85979432D02*
X149255584Y-85931813D01*
X149255584Y-85931813D02*
X149017489Y-85931813D01*
X149017489Y-85931813D02*
X148874632Y-85979432D01*
X148541298Y-85931813D02*
X148303203Y-86931813D01*
X148303203Y-86931813D02*
X148112727Y-86217527D01*
X148112727Y-86217527D02*
X147922251Y-86931813D01*
X147922251Y-86931813D02*
X147684156Y-85931813D01*
X147160346Y-86360384D02*
X147255584Y-86312765D01*
X147255584Y-86312765D02*
X147303203Y-86265146D01*
X147303203Y-86265146D02*
X147350822Y-86169908D01*
X147350822Y-86169908D02*
X147350822Y-86122289D01*
X147350822Y-86122289D02*
X147303203Y-86027051D01*
X147303203Y-86027051D02*
X147255584Y-85979432D01*
X147255584Y-85979432D02*
X147160346Y-85931813D01*
X147160346Y-85931813D02*
X146969870Y-85931813D01*
X146969870Y-85931813D02*
X146874632Y-85979432D01*
X146874632Y-85979432D02*
X146827013Y-86027051D01*
X146827013Y-86027051D02*
X146779394Y-86122289D01*
X146779394Y-86122289D02*
X146779394Y-86169908D01*
X146779394Y-86169908D02*
X146827013Y-86265146D01*
X146827013Y-86265146D02*
X146874632Y-86312765D01*
X146874632Y-86312765D02*
X146969870Y-86360384D01*
X146969870Y-86360384D02*
X147160346Y-86360384D01*
X147160346Y-86360384D02*
X147255584Y-86408003D01*
X147255584Y-86408003D02*
X147303203Y-86455622D01*
X147303203Y-86455622D02*
X147350822Y-86550860D01*
X147350822Y-86550860D02*
X147350822Y-86741336D01*
X147350822Y-86741336D02*
X147303203Y-86836574D01*
X147303203Y-86836574D02*
X147255584Y-86884194D01*
X147255584Y-86884194D02*
X147160346Y-86931813D01*
X147160346Y-86931813D02*
X146969870Y-86931813D01*
X146969870Y-86931813D02*
X146874632Y-86884194D01*
X146874632Y-86884194D02*
X146827013Y-86836574D01*
X146827013Y-86836574D02*
X146779394Y-86741336D01*
X146779394Y-86741336D02*
X146779394Y-86550860D01*
X146779394Y-86550860D02*
X146827013Y-86455622D01*
X146827013Y-86455622D02*
X146874632Y-86408003D01*
X146874632Y-86408003D02*
X146969870Y-86360384D01*
X113515285Y-110760780D02*
X113377122Y-110820668D01*
X113377122Y-110820668D02*
X113139933Y-110841420D01*
X113139933Y-110841420D02*
X113040907Y-110802282D01*
X113040907Y-110802282D02*
X112989319Y-110758995D01*
X112989319Y-110758995D02*
X112933580Y-110668269D01*
X112933580Y-110668269D02*
X112925280Y-110573394D01*
X112925280Y-110573394D02*
X112964417Y-110474368D01*
X112964417Y-110474368D02*
X113007705Y-110422780D01*
X113007705Y-110422780D02*
X113098430Y-110367041D01*
X113098430Y-110367041D02*
X113284031Y-110303002D01*
X113284031Y-110303002D02*
X113374757Y-110247264D01*
X113374757Y-110247264D02*
X113418044Y-110195676D01*
X113418044Y-110195676D02*
X113457182Y-110096650D01*
X113457182Y-110096650D02*
X113448881Y-110001774D01*
X113448881Y-110001774D02*
X113393143Y-109911049D01*
X113393143Y-109911049D02*
X113341554Y-109867761D01*
X113341554Y-109867761D02*
X113242529Y-109828624D01*
X113242529Y-109828624D02*
X113005339Y-109849375D01*
X113005339Y-109849375D02*
X112867176Y-109909264D01*
X112530961Y-109890878D02*
X112380927Y-110907824D01*
X112380927Y-110907824D02*
X112128922Y-110212857D01*
X112128922Y-110212857D02*
X112001425Y-110941026D01*
X112001425Y-110941026D02*
X111677080Y-109965583D01*
X110862917Y-111040633D02*
X111432171Y-110990829D01*
X111147544Y-111015731D02*
X111060388Y-110019536D01*
X111060388Y-110019536D02*
X111167714Y-110153549D01*
X111167714Y-110153549D02*
X111270891Y-110240125D01*
X111270891Y-110240125D02*
X111369917Y-110279262D01*
X109914160Y-111123638D02*
X110483414Y-111073835D01*
X110198787Y-111098737D02*
X110111631Y-110102542D01*
X110111631Y-110102542D02*
X110218957Y-110236555D01*
X110218957Y-110236555D02*
X110322134Y-110323130D01*
X110322134Y-110323130D02*
X110421160Y-110362267D01*
X127827328Y-100586994D02*
X127827328Y-103186994D01*
X127827328Y-100586994D02*
X128852328Y-99561994D01*
X131402328Y-99561994D02*
X128852328Y-99561994D01*
X136427328Y-106411994D02*
X133827328Y-106411994D01*
X137427328Y-102761994D02*
X137427328Y-105411994D01*
X136427328Y-106411994D02*
G75*
G03*
X137427328Y-105411994I0J1000000D01*
G01*
D11*
X168989600Y-112688000D02*
X162989600Y-112688000D01*
X162989600Y-112688000D02*
X162989600Y-110288000D01*
X162989600Y-110288000D02*
X168989600Y-110288000D01*
X168989600Y-110288000D02*
X168989600Y-112688000D01*
X163548000Y-112688000D02*
X162989600Y-112688000D01*
X162989600Y-110288000D01*
X163548000Y-110288000D01*
X163548000Y-112688000D01*
G36*
X163548000Y-112688000D02*
G01*
X162989600Y-112688000D01*
X162989600Y-110288000D01*
X163548000Y-110288000D01*
X163548000Y-112688000D01*
G37*
D10*
X127827328Y-83587394D02*
X127827328Y-86187394D01*
X127827328Y-83587394D02*
X128852328Y-82562394D01*
X131402328Y-82562394D02*
X128852328Y-82562394D01*
X136427328Y-89412394D02*
X133827328Y-89412394D01*
X137427328Y-85762394D02*
X137427328Y-88412394D01*
X136427328Y-89412394D02*
G75*
G03*
X137427328Y-88412394I0J1000000D01*
G01*
D11*
X168989600Y-95687600D02*
X162989600Y-95687600D01*
X162989600Y-95687600D02*
X162989600Y-93287600D01*
X162989600Y-93287600D02*
X168989600Y-93287600D01*
X168989600Y-93287600D02*
X168989600Y-95687600D01*
X163548000Y-95687600D02*
X162989600Y-95687600D01*
X162989600Y-93287600D01*
X163548000Y-93287600D01*
X163548000Y-95687600D01*
G36*
X163548000Y-95687600D02*
G01*
X162989600Y-95687600D01*
X162989600Y-93287600D01*
X163548000Y-93287600D01*
X163548000Y-95687600D01*
G37*
D10*
X180260921Y-141336753D02*
X180712406Y-138776252D01*
X180260921Y-141336753D02*
X179073503Y-142168191D01*
X176562244Y-141725388D02*
X179073503Y-142168191D01*
X172803075Y-134106873D02*
X175363575Y-134558358D01*
X171184451Y-137527773D02*
X171644619Y-134918033D01*
X172803075Y-134106874D02*
G75*
G03*
X171644619Y-134918033I-173649J-984807D01*
G01*
X109827128Y-68711104D02*
X109827128Y-71311104D01*
X109827128Y-68711104D02*
X110852128Y-67686104D01*
X113402128Y-67686104D02*
X110852128Y-67686104D01*
X118427128Y-74536104D02*
X115827128Y-74536104D01*
X119427128Y-70886104D02*
X119427128Y-73536104D01*
X118427128Y-74536104D02*
G75*
G03*
X119427128Y-73536104I0J1000000D01*
G01*
X107258590Y-86611777D02*
X107485195Y-89201883D01*
X107258590Y-86611777D02*
X108190355Y-85501343D01*
X110730651Y-85279096D02*
X108190355Y-85501343D01*
X116333546Y-91665072D02*
X113743440Y-91891677D01*
X117011622Y-87941806D02*
X117242585Y-90581721D01*
X116333546Y-91665072D02*
G75*
G03*
X117242585Y-90581721I-87156J996195D01*
G01*
D11*
X132889600Y-113687400D02*
X126889600Y-113687400D01*
X126889600Y-113687400D02*
X126889600Y-111287400D01*
X126889600Y-111287400D02*
X132889600Y-111287400D01*
X132889600Y-111287400D02*
X132889600Y-113687400D01*
X127448000Y-113687400D02*
X126889600Y-113687400D01*
X126889600Y-111287400D01*
X127448000Y-111287400D01*
X127448000Y-113687400D01*
G36*
X127448000Y-113687400D02*
G01*
X126889600Y-113687400D01*
X126889600Y-111287400D01*
X127448000Y-111287400D01*
X127448000Y-113687400D01*
G37*
X168989600Y-78687640D02*
X162989600Y-78687640D01*
X162989600Y-78687640D02*
X162989600Y-76287640D01*
X162989600Y-76287640D02*
X168989600Y-76287640D01*
X168989600Y-76287640D02*
X168989600Y-78687640D01*
X163548000Y-78687640D02*
X162989600Y-78687640D01*
X162989600Y-76287640D01*
X163548000Y-76287640D01*
X163548000Y-78687640D01*
G36*
X163548000Y-78687640D02*
G01*
X162989600Y-78687640D01*
X162989600Y-76287640D01*
X163548000Y-76287640D01*
X163548000Y-78687640D01*
G37*
X186912600Y-97443586D02*
X180912600Y-97443586D01*
X180912600Y-97443586D02*
X180912600Y-95043586D01*
X180912600Y-95043586D02*
X186912600Y-95043586D01*
X186912600Y-95043586D02*
X186912600Y-97443586D01*
X181471000Y-97443586D02*
X180912600Y-97443586D01*
X180912600Y-95043586D01*
X181471000Y-95043586D01*
X181471000Y-97443586D01*
G36*
X181471000Y-97443586D02*
G01*
X180912600Y-97443586D01*
X180912600Y-95043586D01*
X181471000Y-95043586D01*
X181471000Y-97443586D01*
G37*
X150912702Y-75377440D02*
X144912702Y-75377440D01*
X144912702Y-75377440D02*
X144912702Y-72977440D01*
X144912702Y-72977440D02*
X150912702Y-72977440D01*
X150912702Y-72977440D02*
X150912702Y-75377440D01*
X145471102Y-75377440D02*
X144912702Y-75377440D01*
X144912702Y-72977440D01*
X145471102Y-72977440D01*
X145471102Y-75377440D01*
G36*
X145471102Y-75377440D02*
G01*
X144912702Y-75377440D01*
X144912702Y-72977440D01*
X145471102Y-72977440D01*
X145471102Y-75377440D01*
G37*
X186912600Y-114487000D02*
X180912600Y-114487000D01*
X180912600Y-114487000D02*
X180912600Y-112087000D01*
X180912600Y-112087000D02*
X186912600Y-112087000D01*
X186912600Y-112087000D02*
X186912600Y-114487000D01*
X181471000Y-114487000D02*
X180912600Y-114487000D01*
X180912600Y-112087000D01*
X181471000Y-112087000D01*
X181471000Y-114487000D01*
G36*
X181471000Y-114487000D02*
G01*
X180912600Y-114487000D01*
X180912600Y-112087000D01*
X181471000Y-112087000D01*
X181471000Y-114487000D01*
G37*
D10*
X197881883Y-146461720D02*
X198771136Y-144018519D01*
X197881883Y-146461720D02*
X196568128Y-147074334D01*
X194171912Y-146202183D02*
X196568128Y-147074334D01*
X191792794Y-138046637D02*
X194235995Y-138935890D01*
X189604728Y-141134495D02*
X190511081Y-138644310D01*
X191792794Y-138046637D02*
G75*
G03*
X190511081Y-138644310I-342020J-939693D01*
G01*
X112265974Y-138815831D02*
X113262169Y-138728675D01*
X112265974Y-138815831D02*
X112183176Y-137869446D01*
X132078494Y-137082460D02*
X133074688Y-136995304D01*
X133074688Y-136995304D02*
X132986661Y-135989148D01*
X110714602Y-121083565D02*
X110801758Y-122079760D01*
X110714602Y-121083565D02*
X111710797Y-120996409D01*
X130477312Y-119354552D02*
X131523316Y-119263039D01*
X131523316Y-119263039D02*
X131610472Y-120259233D01*
D11*
X186912600Y-80487200D02*
X180912600Y-80487200D01*
X180912600Y-80487200D02*
X180912600Y-78087200D01*
X180912600Y-78087200D02*
X186912600Y-78087200D01*
X186912600Y-78087200D02*
X186912600Y-80487200D01*
X181471000Y-80487200D02*
X180912600Y-80487200D01*
X180912600Y-78087200D01*
X181471000Y-78087200D01*
X181471000Y-80487200D01*
G36*
X181471000Y-80487200D02*
G01*
X180912600Y-80487200D01*
X180912600Y-78087200D01*
X181471000Y-78087200D01*
X181471000Y-80487200D01*
G37*
D10*
X145826728Y-96277194D02*
X145826728Y-98877194D01*
X145826728Y-96277194D02*
X146851728Y-95252194D01*
X149401728Y-95252194D02*
X146851728Y-95252194D01*
X154426728Y-102102194D02*
X151826728Y-102102194D01*
X155426728Y-98452194D02*
X155426728Y-101102194D01*
X154426728Y-102102194D02*
G75*
G03*
X155426728Y-101102194I0J1000000D01*
G01*
D11*
X202004951Y-136556143D02*
X196366796Y-134504022D01*
X196366796Y-134504022D02*
X197187644Y-132248760D01*
X197187644Y-132248760D02*
X202825800Y-134300880D01*
X202825800Y-134300880D02*
X202004951Y-136556143D01*
X197712368Y-132439744D02*
X196891520Y-134695006D01*
X196366796Y-134504022D01*
X197187644Y-132248760D01*
X197712368Y-132439744D01*
G36*
X197712368Y-132439744D02*
G01*
X196891520Y-134695006D01*
X196366796Y-134504022D01*
X197187644Y-132248760D01*
X197712368Y-132439744D01*
G37*
D10*
X163826928Y-65587234D02*
X163826928Y-68187234D01*
X163826928Y-65587234D02*
X164851928Y-64562234D01*
X167401928Y-64562234D02*
X164851928Y-64562234D01*
X172426928Y-71412234D02*
X169826928Y-71412234D01*
X173426928Y-67762234D02*
X173426928Y-70412234D01*
X172426928Y-71412234D02*
G75*
G03*
X173426928Y-70412234I0J1000000D01*
G01*
X127827328Y-66587794D02*
X127827328Y-69187794D01*
X127827328Y-66587794D02*
X128852328Y-65562794D01*
X131402328Y-65562794D02*
X128852328Y-65562794D01*
X136427328Y-72412794D02*
X133827328Y-72412794D01*
X137427328Y-68762794D02*
X137427328Y-71412794D01*
X136427328Y-72412794D02*
G75*
G03*
X137427328Y-71412794I0J1000000D01*
G01*
X181826626Y-67386794D02*
X181826626Y-69986794D01*
X181826626Y-67386794D02*
X182851626Y-66361794D01*
X185401626Y-66361794D02*
X182851626Y-66361794D01*
X190426626Y-73211794D02*
X187826626Y-73211794D01*
X191426626Y-69561794D02*
X191426626Y-72211794D01*
X190426626Y-73211794D02*
G75*
G03*
X191426626Y-72211794I0J1000000D01*
G01*
D11*
X182610104Y-130838791D02*
X176701257Y-129796902D01*
X176701257Y-129796902D02*
X177118013Y-127433363D01*
X177118013Y-127433363D02*
X183026860Y-128475252D01*
X183026860Y-128475252D02*
X182610104Y-130838791D01*
X177667930Y-127530328D02*
X177251174Y-129893867D01*
X176701257Y-129796902D01*
X177118013Y-127433363D01*
X177667930Y-127530328D01*
G36*
X177667930Y-127530328D02*
G01*
X177251174Y-129893867D01*
X176701257Y-129796902D01*
X177118013Y-127433363D01*
X177667930Y-127530328D01*
G37*
X109191735Y-114242919D02*
X115168904Y-113719984D01*
X115168904Y-113719984D02*
X115378077Y-116110851D01*
X115378077Y-116110851D02*
X109400909Y-116633786D01*
X109400909Y-116633786D02*
X109191735Y-114242919D01*
X115378077Y-116110851D02*
X114821802Y-116159519D01*
X114612629Y-113768652D01*
X115168904Y-113719984D01*
X115378077Y-116110851D01*
G36*
X115378077Y-116110851D02*
G01*
X114821802Y-116159519D01*
X114612629Y-113768652D01*
X115168904Y-113719984D01*
X115378077Y-116110851D01*
G37*
X132889600Y-96687800D02*
X126889600Y-96687800D01*
X126889600Y-96687800D02*
X126889600Y-94287800D01*
X126889600Y-94287800D02*
X132889600Y-94287800D01*
X132889600Y-94287800D02*
X132889600Y-96687800D01*
X127448000Y-96687800D02*
X126889600Y-96687800D01*
X126889600Y-94287800D01*
X127448000Y-94287800D01*
X127448000Y-96687800D01*
G36*
X127448000Y-96687800D02*
G01*
X126889600Y-96687800D01*
X126889600Y-94287800D01*
X127448000Y-94287800D01*
X127448000Y-96687800D01*
G37*
X107679935Y-97301119D02*
X113657104Y-96778184D01*
X113657104Y-96778184D02*
X113866277Y-99169051D01*
X113866277Y-99169051D02*
X107889109Y-99691986D01*
X107889109Y-99691986D02*
X107679935Y-97301119D01*
X113866277Y-99169051D02*
X113310002Y-99217719D01*
X113100829Y-96826852D01*
X113657104Y-96778184D01*
X113866277Y-99169051D01*
G36*
X113866277Y-99169051D02*
G01*
X113310002Y-99217719D01*
X113100829Y-96826852D01*
X113657104Y-96778184D01*
X113866277Y-99169051D01*
G37*
X132889600Y-79688200D02*
X126889600Y-79688200D01*
X126889600Y-79688200D02*
X126889600Y-77288200D01*
X126889600Y-77288200D02*
X132889600Y-77288200D01*
X132889600Y-77288200D02*
X132889600Y-79688200D01*
X127448000Y-79688200D02*
X126889600Y-79688200D01*
X126889600Y-77288200D01*
X127448000Y-77288200D01*
X127448000Y-79688200D01*
G36*
X127448000Y-79688200D02*
G01*
X126889600Y-79688200D01*
X126889600Y-77288200D01*
X127448000Y-77288200D01*
X127448000Y-79688200D01*
G37*
D10*
X163826928Y-99587594D02*
X163826928Y-102187594D01*
X163826928Y-99587594D02*
X164851928Y-98562594D01*
X167401928Y-98562594D02*
X164851928Y-98562594D01*
X172426928Y-105412594D02*
X169826928Y-105412594D01*
X173426928Y-101762594D02*
X173426928Y-104412594D01*
X172426928Y-105412594D02*
G75*
G03*
X173426928Y-104412594I0J1000000D01*
G01*
D11*
X150912702Y-109377600D02*
X144912702Y-109377600D01*
X144912702Y-109377600D02*
X144912702Y-106977600D01*
X144912702Y-106977600D02*
X150912702Y-106977600D01*
X150912702Y-106977600D02*
X150912702Y-109377600D01*
X145471102Y-109377600D02*
X144912702Y-109377600D01*
X144912702Y-106977600D01*
X145471102Y-106977600D01*
X145471102Y-109377600D01*
G36*
X145471102Y-109377600D02*
G01*
X144912702Y-109377600D01*
X144912702Y-106977600D01*
X145471102Y-106977600D01*
X145471102Y-109377600D01*
G37*
X109240400Y-79411510D02*
X115240400Y-79411510D01*
X115240400Y-79411510D02*
X115240400Y-81811510D01*
X115240400Y-81811510D02*
X109240400Y-81811510D01*
X109240400Y-81811510D02*
X109240400Y-79411510D01*
X115240400Y-81811510D02*
X114682000Y-81811510D01*
X114682000Y-79411510D01*
X115240400Y-79411510D01*
X115240400Y-81811510D01*
G36*
X115240400Y-81811510D02*
G01*
X114682000Y-81811510D01*
X114682000Y-79411510D01*
X115240400Y-79411510D01*
X115240400Y-81811510D01*
G37*
D10*
X195212728Y-113076364D02*
X192081018Y-124764066D01*
X195212728Y-113076364D02*
X201104876Y-114655160D01*
X192081018Y-124764066D02*
X197973165Y-126342863D01*
X195971848Y-111209217D02*
X201381032Y-112658604D01*
X195454210Y-113141069D02*
X195971848Y-111209217D01*
X200863394Y-114590455D02*
X201381032Y-112658604D01*
X201104876Y-114655160D02*
X197973165Y-126342863D01*
X181826626Y-101386594D02*
X181826626Y-103986594D01*
X181826626Y-101386594D02*
X182851626Y-100361594D01*
X185401626Y-100361594D02*
X182851626Y-100361594D01*
X190426626Y-107211594D02*
X187826626Y-107211594D01*
X191426626Y-103561594D02*
X191426626Y-106211594D01*
X190426626Y-107211594D02*
G75*
G03*
X191426626Y-106211594I0J1000000D01*
G01*
X163826928Y-82587194D02*
X163826928Y-85187194D01*
X163826928Y-82587194D02*
X164851928Y-81562194D01*
X167401928Y-81562194D02*
X164851928Y-81562194D01*
X172426928Y-88412194D02*
X169826928Y-88412194D01*
X173426928Y-84762194D02*
X173426928Y-87412194D01*
X172426928Y-88412194D02*
G75*
G03*
X173426928Y-87412194I0J1000000D01*
G01*
D11*
X150912702Y-92377400D02*
X144912702Y-92377400D01*
X144912702Y-92377400D02*
X144912702Y-89977400D01*
X144912702Y-89977400D02*
X150912702Y-89977400D01*
X150912702Y-89977400D02*
X150912702Y-92377400D01*
X145471102Y-92377400D02*
X144912702Y-92377400D01*
X144912702Y-89977400D01*
X145471102Y-89977400D01*
X145471102Y-92377400D01*
G36*
X145471102Y-92377400D02*
G01*
X144912702Y-92377400D01*
X144912702Y-89977400D01*
X145471102Y-89977400D01*
X145471102Y-92377400D01*
G37*
D10*
X181826626Y-84386594D02*
X181826626Y-86986594D01*
X181826626Y-84386594D02*
X182851626Y-83361594D01*
X185401626Y-83361594D02*
X182851626Y-83361594D01*
X190426626Y-90211594D02*
X187826626Y-90211594D01*
X191426626Y-86561594D02*
X191426626Y-89211594D01*
X190426626Y-90211594D02*
G75*
G03*
X191426626Y-89211594I0J1000000D01*
G01*
X145826728Y-62277034D02*
X145826728Y-64877034D01*
X145826728Y-62277034D02*
X146851728Y-61252034D01*
X149401728Y-61252034D02*
X146851728Y-61252034D01*
X154426728Y-68102034D02*
X151826728Y-68102034D01*
X155426728Y-64452034D02*
X155426728Y-67102034D01*
X154426728Y-68102034D02*
G75*
G03*
X155426728Y-67102034I0J1000000D01*
G01*
X145826728Y-79276994D02*
X145826728Y-81876994D01*
X145826728Y-79276994D02*
X146851728Y-78251994D01*
X149401728Y-78251994D02*
X146851728Y-78251994D01*
X154426728Y-85101994D02*
X151826728Y-85101994D01*
X155426728Y-81451994D02*
X155426728Y-84101994D01*
X154426728Y-85101994D02*
G75*
G03*
X155426728Y-84101994I0J1000000D01*
G01*
X108772336Y-103539476D02*
X108998941Y-106129582D01*
X108772336Y-103539476D02*
X109704101Y-102429042D01*
X112244397Y-102206795D02*
X109704101Y-102429042D01*
X117847292Y-108592771D02*
X115257186Y-108819376D01*
X118525368Y-104869505D02*
X118756331Y-107509420D01*
X117847292Y-108592771D02*
G75*
G03*
X118756331Y-107509420I-87156J996195D01*
G01*
%LPC*%
D12*
X115311113Y-135836693D02*
X114298979Y-135925243D01*
X114210429Y-134913109D01*
X115222563Y-134824559D01*
X115311113Y-135836693D01*
G36*
X115311113Y-135836693D02*
G01*
X114298979Y-135925243D01*
X114210429Y-134913109D01*
X115222563Y-134824559D01*
X115311113Y-135836693D01*
G37*
X117841447Y-135615317D02*
X116829314Y-135703868D01*
X116740763Y-134691734D01*
X117752897Y-134603184D01*
X117841447Y-135615317D01*
G36*
X117841447Y-135615317D02*
G01*
X116829314Y-135703868D01*
X116740763Y-134691734D01*
X117752897Y-134603184D01*
X117841447Y-135615317D01*
G37*
X120371782Y-135393942D02*
X119359648Y-135482492D01*
X119271098Y-134470358D01*
X120283232Y-134381808D01*
X120371782Y-135393942D01*
G36*
X120371782Y-135393942D02*
G01*
X119359648Y-135482492D01*
X119271098Y-134470358D01*
X120283232Y-134381808D01*
X120371782Y-135393942D01*
G37*
X122902116Y-135172566D02*
X121889983Y-135261116D01*
X121801432Y-134248983D01*
X122813566Y-134160432D01*
X122902116Y-135172566D01*
G36*
X122902116Y-135172566D02*
G01*
X121889983Y-135261116D01*
X121801432Y-134248983D01*
X122813566Y-134160432D01*
X122902116Y-135172566D01*
G37*
X125432451Y-134951191D02*
X124420317Y-135039741D01*
X124331767Y-134027607D01*
X125343901Y-133939057D01*
X125432451Y-134951191D01*
G36*
X125432451Y-134951191D02*
G01*
X124420317Y-135039741D01*
X124331767Y-134027607D01*
X125343901Y-133939057D01*
X125432451Y-134951191D01*
G37*
X127962786Y-134729815D02*
X126950652Y-134818365D01*
X126862102Y-133806231D01*
X127874235Y-133717681D01*
X127962786Y-134729815D01*
G36*
X127962786Y-134729815D02*
G01*
X126950652Y-134818365D01*
X126862102Y-133806231D01*
X127874235Y-133717681D01*
X127962786Y-134729815D01*
G37*
X130493120Y-134508439D02*
X129480986Y-134596990D01*
X129392436Y-133584856D01*
X130404570Y-133496306D01*
X130493120Y-134508439D01*
G36*
X130493120Y-134508439D02*
G01*
X129480986Y-134596990D01*
X129392436Y-133584856D01*
X130404570Y-133496306D01*
X130493120Y-134508439D01*
G37*
X114319350Y-124500794D02*
X113307216Y-124589345D01*
X113218666Y-123577211D01*
X114230800Y-123488660D01*
X114319350Y-124500794D01*
G36*
X114319350Y-124500794D02*
G01*
X113307216Y-124589345D01*
X113218666Y-123577211D01*
X114230800Y-123488660D01*
X114319350Y-124500794D01*
G37*
X116849685Y-124279419D02*
X115837551Y-124367969D01*
X115749001Y-123355835D01*
X116761135Y-123267285D01*
X116849685Y-124279419D01*
G36*
X116849685Y-124279419D02*
G01*
X115837551Y-124367969D01*
X115749001Y-123355835D01*
X116761135Y-123267285D01*
X116849685Y-124279419D01*
G37*
X119380019Y-124058043D02*
X118367886Y-124146593D01*
X118279335Y-123134460D01*
X119291469Y-123045909D01*
X119380019Y-124058043D01*
G36*
X119380019Y-124058043D02*
G01*
X118367886Y-124146593D01*
X118279335Y-123134460D01*
X119291469Y-123045909D01*
X119380019Y-124058043D01*
G37*
X121910354Y-123836668D02*
X120898220Y-123925218D01*
X120809670Y-122913084D01*
X121821804Y-122824534D01*
X121910354Y-123836668D01*
G36*
X121910354Y-123836668D02*
G01*
X120898220Y-123925218D01*
X120809670Y-122913084D01*
X121821804Y-122824534D01*
X121910354Y-123836668D01*
G37*
X124440688Y-123615292D02*
X123428555Y-123703842D01*
X123340004Y-122691708D01*
X124352138Y-122603158D01*
X124440688Y-123615292D01*
G36*
X124440688Y-123615292D02*
G01*
X123428555Y-123703842D01*
X123340004Y-122691708D01*
X124352138Y-122603158D01*
X124440688Y-123615292D01*
G37*
X126971023Y-123393916D02*
X125958889Y-123482467D01*
X125870339Y-122470333D01*
X126882473Y-122381783D01*
X126971023Y-123393916D01*
G36*
X126971023Y-123393916D02*
G01*
X125958889Y-123482467D01*
X125870339Y-122470333D01*
X126882473Y-122381783D01*
X126971023Y-123393916D01*
G37*
X129501357Y-123172541D02*
X128489224Y-123261091D01*
X128400673Y-122248957D01*
X129412807Y-122160407D01*
X129501357Y-123172541D01*
G36*
X129501357Y-123172541D02*
G01*
X128489224Y-123261091D01*
X128400673Y-122248957D01*
X129412807Y-122160407D01*
X129501357Y-123172541D01*
G37*
D13*
X124613328Y-107786994D03*
D14*
X125113328Y-104086994D03*
X130113328Y-101886994D03*
D15*
X130113328Y-107786994D03*
D14*
X135113328Y-104086994D03*
D13*
X135613328Y-107786994D03*
D16*
X127313328Y-101886994D03*
X137913328Y-104086994D03*
D17*
X164490000Y-111488000D03*
X167890000Y-111488000D03*
D13*
X124613328Y-90787394D03*
D14*
X125113328Y-87087394D03*
X130113328Y-84887394D03*
D15*
X130113328Y-90787394D03*
D14*
X135113328Y-87087394D03*
D13*
X135613328Y-90787394D03*
D16*
X127313328Y-84887394D03*
X137913328Y-87087394D03*
D18*
X178421800Y-63833186D03*
D17*
X164490000Y-94487600D03*
X167890000Y-94487600D03*
D13*
X184676360Y-134804242D03*
D14*
X183541458Y-138361207D03*
X178235393Y-139659543D03*
D15*
X179259917Y-133849177D03*
D14*
X173693380Y-136624725D03*
D13*
X173843474Y-132894112D03*
D19*
X180992854Y-140145758D03*
X170935918Y-136138510D03*
D13*
X106613128Y-75911104D03*
D14*
X107113128Y-72211104D03*
X112113128Y-70011104D03*
D15*
X112113128Y-75911104D03*
D14*
X117113128Y-72211104D03*
D13*
X117613128Y-75911104D03*
D16*
X109313128Y-70011104D03*
X119913128Y-72211104D03*
D13*
X104684341Y-94064498D03*
D14*
X104859962Y-90334999D03*
X109649193Y-87707592D03*
D15*
X110163412Y-93585141D03*
D14*
X114821909Y-89463442D03*
D13*
X115642483Y-93105784D03*
D20*
X106859848Y-87951628D03*
X117611254Y-89219406D03*
D17*
X128390000Y-112487400D03*
X131790000Y-112487400D03*
X164490000Y-77487640D03*
X167890000Y-77487640D03*
D18*
X173595800Y-117731986D03*
D17*
X182413000Y-96243586D03*
X185813000Y-96243586D03*
X146413102Y-74177440D03*
X149813102Y-74177440D03*
X182413000Y-113287000D03*
X185813000Y-113287000D03*
D18*
X136664200Y-133479986D03*
D13*
X203364600Y-140795186D03*
D14*
X201629280Y-144101038D03*
X196178372Y-144458261D03*
D15*
X198196291Y-138914075D03*
D14*
X192232353Y-140680837D03*
D13*
X193027982Y-137032964D03*
D21*
X198809511Y-145415918D03*
X189601214Y-139723181D03*
D22*
X114923682Y-137236988D03*
X117454017Y-137015613D03*
X119984351Y-136794237D03*
X122514686Y-136572862D03*
X125045021Y-136351486D03*
X127575355Y-136130110D03*
X130105690Y-135908735D03*
D23*
X114782908Y-135627935D03*
X117313243Y-135406559D03*
X119843577Y-135185183D03*
X122373912Y-134963808D03*
X124904247Y-134742432D03*
X127434581Y-134521057D03*
X129964916Y-134299681D03*
D24*
X113746871Y-123785969D03*
X116277205Y-123564593D03*
X118807540Y-123343218D03*
X121337874Y-123121842D03*
X123868209Y-122900467D03*
X126398543Y-122679091D03*
X128928878Y-122457716D03*
D22*
X113607404Y-122191858D03*
X116137739Y-121970483D03*
X118668073Y-121749107D03*
X121198408Y-121527732D03*
X123728742Y-121306356D03*
X126259077Y-121084980D03*
X128789411Y-120863605D03*
D25*
X114694358Y-134615801D03*
X117224693Y-134394425D03*
X119755027Y-134173050D03*
X122285362Y-133951674D03*
X124815696Y-133730298D03*
X127346031Y-133508923D03*
X129876365Y-133287547D03*
D26*
X129017428Y-123469849D03*
X126487094Y-123691225D03*
X123956759Y-123912601D03*
X121426425Y-124133976D03*
X118896090Y-124355352D03*
X116365755Y-124576727D03*
X113835421Y-124798103D03*
D17*
X182413000Y-79287200D03*
X185813000Y-79287200D03*
D13*
X142612728Y-103477194D03*
D14*
X143112728Y-99777194D03*
X148112728Y-97577194D03*
D15*
X148112728Y-103477194D03*
D14*
X153112728Y-99777194D03*
D13*
X153612728Y-103477194D03*
D16*
X145312728Y-97577194D03*
X155912728Y-99777194D03*
D18*
X190156600Y-131143186D03*
D27*
X198187135Y-133889558D03*
X201382089Y-135052426D03*
D13*
X160612928Y-72787234D03*
D14*
X161112928Y-69087234D03*
X166112928Y-66887234D03*
D15*
X166112928Y-72787234D03*
D14*
X171112928Y-69087234D03*
D13*
X171612928Y-72787234D03*
D16*
X163312928Y-66887234D03*
X173912928Y-69087234D03*
D13*
X124613328Y-73787794D03*
D14*
X125113328Y-70087794D03*
X130113328Y-67887794D03*
D15*
X130113328Y-73787794D03*
D14*
X135113328Y-70087794D03*
D13*
X135613328Y-73787794D03*
D16*
X127313328Y-67887794D03*
X137913328Y-70087794D03*
D13*
X178612626Y-74586794D03*
D14*
X179112626Y-70886794D03*
X184112626Y-68686794D03*
D15*
X184112626Y-74586794D03*
D14*
X189112626Y-70886794D03*
D13*
X189612626Y-74586794D03*
D16*
X181312626Y-68686794D03*
X191912626Y-70886794D03*
D28*
X178387241Y-128875674D03*
X181735587Y-129466078D03*
D29*
X113778800Y-115046186D03*
X110391738Y-115342516D03*
D17*
X128390000Y-95487800D03*
X131790000Y-95487800D03*
D29*
X112267000Y-98104386D03*
X108879938Y-98400716D03*
D17*
X128390000Y-78488200D03*
X131790000Y-78488200D03*
D13*
X160612928Y-106787594D03*
D14*
X161112928Y-103087594D03*
X166112928Y-100887594D03*
D15*
X166112928Y-106787594D03*
D14*
X171112928Y-103087594D03*
D13*
X171612928Y-106787594D03*
D16*
X163312928Y-100887594D03*
X173912928Y-103087594D03*
D17*
X146413102Y-108177600D03*
X149813102Y-108177600D03*
D30*
X113740000Y-80611510D03*
X110340000Y-80611510D03*
D18*
X122237000Y-117731986D03*
D31*
X197744692Y-115411243D03*
X195932958Y-122172724D03*
D32*
X193263064Y-123134476D03*
D33*
X197740477Y-124313489D03*
D32*
X194298340Y-119270772D03*
D33*
X198775753Y-120449786D03*
D32*
X195074797Y-116372995D03*
D33*
X199552210Y-117552008D03*
X193012517Y-124185440D03*
D32*
X197421622Y-125387562D03*
D13*
X178612626Y-108586594D03*
D14*
X179112626Y-104886594D03*
X184112626Y-102686594D03*
D15*
X184112626Y-108586594D03*
D14*
X189112626Y-104886594D03*
D13*
X189612626Y-108586594D03*
D16*
X181312626Y-102686594D03*
X191912626Y-104886594D03*
D13*
X160612928Y-89787194D03*
D14*
X161112928Y-86087194D03*
X166112928Y-83887194D03*
D15*
X166112928Y-89787194D03*
D14*
X171112928Y-86087194D03*
D13*
X171612928Y-89787194D03*
D16*
X163312928Y-83887194D03*
X173912928Y-86087194D03*
D17*
X146413102Y-91177400D03*
X149813102Y-91177400D03*
D13*
X178612626Y-91586594D03*
D14*
X179112626Y-87886594D03*
X184112626Y-85686594D03*
D15*
X184112626Y-91586594D03*
D14*
X189112626Y-87886594D03*
D13*
X189612626Y-91586594D03*
D16*
X181312626Y-85686594D03*
X191912626Y-87886594D03*
D13*
X142612728Y-69477034D03*
D14*
X143112728Y-65777034D03*
X148112728Y-63577034D03*
D15*
X148112728Y-69477034D03*
D14*
X153112728Y-65777034D03*
D13*
X153612728Y-69477034D03*
D16*
X145312728Y-63577034D03*
X155912728Y-65777034D03*
D18*
X119417600Y-64839600D03*
D13*
X142612728Y-86476994D03*
D14*
X143112728Y-82776994D03*
X148112728Y-80576994D03*
D15*
X148112728Y-86476994D03*
D14*
X153112728Y-82776994D03*
D13*
X153612728Y-86476994D03*
D16*
X145312728Y-80576994D03*
X155912728Y-82776994D03*
D13*
X106198087Y-110992197D03*
D14*
X106373708Y-107262698D03*
X111162939Y-104635291D03*
D15*
X111677158Y-110512840D03*
D14*
X116335655Y-106391141D03*
D13*
X117156229Y-110033483D03*
D20*
X108373594Y-104879327D03*
X119125000Y-106147105D03*
D31*
X117216300Y-131752786D03*
D34*
X128390000Y-78488200D03*
X113740000Y-80611510D03*
X146413102Y-74177440D03*
X164490000Y-77487640D03*
X121432700Y-132591772D03*
X182413000Y-79287200D03*
X146413102Y-91177400D03*
X112267000Y-98104386D03*
X118896090Y-132794972D03*
X128390000Y-95487800D03*
X164490000Y-94487600D03*
X182413000Y-96243586D03*
X116365755Y-133035917D03*
X128390000Y-112487400D03*
X113778800Y-115046186D03*
X146413102Y-108177600D03*
X182413000Y-113287000D03*
X164490000Y-111488000D03*
X127325500Y-126990472D03*
X178387241Y-128875674D03*
X198187135Y-133889558D03*
X127325500Y-124819372D03*
X119913128Y-72211104D03*
X110340000Y-80611510D03*
X131790000Y-78488200D03*
X137913328Y-70087794D03*
X155912728Y-65777034D03*
X149813102Y-74177440D03*
X173912928Y-69087234D03*
X167890000Y-77487640D03*
X185813000Y-79287200D03*
X191912626Y-70886794D03*
X117611254Y-89219406D03*
X108879938Y-98400716D03*
D31*
X117216300Y-125784572D03*
X117614200Y-115395186D03*
X114007400Y-84254786D03*
X124777000Y-99088386D03*
X117004600Y-99189986D03*
X109283000Y-108079986D03*
X107098600Y-95583186D03*
D34*
X108373594Y-104879327D03*
X113835421Y-133353772D03*
X106859848Y-87951628D03*
X109313128Y-70011104D03*
X127313328Y-67887794D03*
X127313328Y-101886994D03*
X127313328Y-84887394D03*
X123956759Y-132439372D03*
X126512700Y-132236172D03*
X145312728Y-63577034D03*
X145312728Y-80576994D03*
X145312728Y-97577194D03*
X163312928Y-100887594D03*
X163312928Y-83887194D03*
X158212928Y-113420386D03*
X180992854Y-140145758D03*
X122285362Y-125276572D03*
X163312928Y-66887234D03*
X131790000Y-95487800D03*
X137913328Y-87087394D03*
X149813102Y-91177400D03*
X155912728Y-82776994D03*
X173912928Y-86087194D03*
X167890000Y-94487600D03*
X129865500Y-124666972D03*
X185813000Y-96243586D03*
X191912626Y-87886594D03*
X119125000Y-106147105D03*
X110391738Y-115342516D03*
X131790000Y-112487400D03*
X137913328Y-104086994D03*
X155912728Y-99777194D03*
X149813102Y-108177600D03*
X173912928Y-103087594D03*
X167890000Y-111488000D03*
X191912626Y-104886594D03*
X185813000Y-113287000D03*
X181735587Y-129466077D03*
X170935918Y-136138510D03*
X193547233Y-143500605D03*
X201382090Y-135052426D03*
X129001900Y-131982172D03*
D31*
X114676300Y-125987772D03*
D34*
X124785500Y-125073372D03*
X181312626Y-68686794D03*
X181312626Y-102686594D03*
X174275944Y-114094886D03*
X181312626Y-85686594D03*
X198809511Y-145415918D03*
D31*
X119705500Y-125428972D03*
%LPD*%
M02*
