  0
SECTION
  2
HEADER
  9
$ANGBASE
  50
0.0
  9
$ANGDIR
  70
1
  9
$MEASUREMENT
  70
1
  0
ENDSEC
  0
SECTION
  2
TABLES
  0
TABLE
  2
LTYPE
  70
4
  0
LTYPE
  5
40F
  2
CONTINUOUS
  70
0
  3
Solid line
  72
65
  73
0
  40
0.0
  0
LTYPE
  5
410
  2
DASHDOT
 70
0
  3
Dash Dot ____ _ ____ _
 72
65
 73
4
 40
2.0
 49
1.25
 49
-0.25
 49
0.25
 49
-0.25
  0
LTYPE
  5
411
  2
DASHED
 70
0
  3
Dashed __ __ __ __ __
 72
65
 73
2
 40
0.75
 49
0.5
 49
-0.25
  0
LTYPE
  5
43B
  2
DOTTED
 70
0
  3
Dotted .  .  .  .
 72
65
 73
2
 40
0.2
 49
0.0
 49
-0.2
  0
ENDTAB
  0
TABLE
  2
STYLE
  70
4
  0
STYLE
  2
KICAD
  70
0
  40
0
  41
1
  42
1
  50
0
  71
0
  3
isocp.shx
  0
STYLE
  2
KICADB
  70
0
  40
0
  41
1
  42
1
  50
0
  71
0
  3
isocp.shx
  0
STYLE
  2
KICADI
  70
0
  40
0
  41
1
  42
1
  50
15
  71
0
  3
isocp.shx
  0
STYLE
  2
KICADBI
  70
0
  40
0
  41
1
  42
1
  50
15
  71
0
  3
isocp.shx
  0
ENDTAB
  0
TABLE
  2
LAYER
  70
1
  0
LAYER
  2
BLACK
  70
0
  62
7
  6
CONTINUOUS
  0
ENDTAB
  0
ENDSEC
  0
SECTION
  2
ENTITIES
0
LINE
8
BLACK
6
CONTINUOUS
10
189.6965569999999843
20
-548.4449379999999792
11
194.2588639999999884
21
-533.9751499999999851
0
ARC
8
BLACK
10
135.881699999999995
20
-505.6728999999999701
40
5.0000050000120995
50
15.00008586
51
90.00012605
0
CIRCLE
8
BLACK
10
161.8816889999999944
20
-505.6466549999999529
40
1.0999999999999999
0
LINE
8
BLACK
6
CONTINUOUS
10
102.8697879999999998
20
-519.9870290000000068
11
107.0519999999999925
21
-504.3787999999999556
0
ARC
8
BLACK
10
185.881699999999995
20
-547.2420999999999367
40
3.9999941480823442
50
-90.00015756
51
-17.50024874
0
ARC
8
BLACK
10
161.881699999999995
20
-505.6728999999999701
40
4.0000121227597543
50
90.00015756
51
162.49998263
0
LINE
8
BLACK
6
CONTINUOUS
10
140.7113180000000057
20
-504.3787999999999556
11
144.8935299999999984
21
-519.9870290000000068
0
LINE
8
BLACK
6
CONTINUOUS
10
161.8816889999999944
20
-551.2421150000000125
11
173.8816889999999944
21
-551.2421150000000125
0
ARC
8
BLACK
10
135.8818799999999953
20
-547.2423699999999371
40
4.999749327860747
50
-90.00218881
51
-14.99774174
0
CIRCLE
8
BLACK
10
123.8816889999999944
20
-508.1575049999999578
40
0.75
0
CIRCLE
8
BLACK
10
185.8816889999999944
20
-505.6728949999999827
40
1.0999999999999999
0
ARC
8
BLACK
10
120.7453749999999957
20
-526.4575049999999692
40
25.0000089914104038
50
-14.99999418
51
14.99999418
0
LINE
8
BLACK
6
CONTINUOUS
10
153.5045140000000004
20
-518.9398599999999533
11
158.0668210000000045
21
-504.4700719999999592
0
ARC
8
BLACK
10
111.8817299999999904
20
-547.2419800000000123
40
5.0001350010200722
50
-164.99880741
51
-90.00115734
0
LINE
8
BLACK
6
CONTINUOUS
10
161.8816889999999944
20
-501.6728949999999827
11
173.8816889999999944
21
-501.6728949999999827
0
CIRCLE
8
BLACK
10
185.8816889999999944
20
-547.2421150000000125
40
1.0999999999999999
0
LINE
8
BLACK
6
CONTINUOUS
10
123.8816589999999991
20
-500.6728939999999852
11
135.8816889999999944
21
-500.6728949999999827
0
LINE
8
BLACK
6
CONTINUOUS
10
189.6965569999999843
20
-504.4700719999999592
11
194.2588639999999884
21
-518.9398599999999533
0
ARC
8
BLACK
10
127.0180009999999982
20
-526.4575049999999692
40
25.0000650151143589
50
-194.99995977
51
-165.00004023
0
LINE
8
BLACK
6
CONTINUOUS
10
140.7113180000000057
20
-548.5362099999999828
11
144.8935299999999984
21
-532.9279809999999316
0
CIRCLE
8
BLACK
10
123.8816889999999944
20
-526.4575049999999692
40
17.5
0
LINE
8
BLACK
6
CONTINUOUS
10
173.8816889999999944
20
-501.6728949999999827
11
185.8816889999999944
21
-501.6728949999999827
0
ARC
8
BLACK
10
185.8815999999999917
20
-505.6730999999999767
40
4.000205000990074
50
17.50241351
51
89.99872523
0
LINE
8
BLACK
6
CONTINUOUS
10
111.8816289999999896
20
-552.2421150000000125
11
123.8816589999999991
21
-552.24211600000001
0
LINE
8
BLACK
6
CONTINUOUS
10
173.8816889999999944
20
-551.2421150000000125
11
185.8816889999999944
21
-551.2421150000000125
0
ARC
8
BLACK
10
170.4161000000000001
20
-526.4574999999999818
40
24.9998461261123737
50
-17.50012106
51
17.50009921
0
ARC
8
BLACK
10
161.8817999999999984
20
-547.2419999999999618
40
4.0001150015400802
50
-162.49891069
51
-90.00158991
0
LINE
8
BLACK
6
CONTINUOUS
10
153.5045140000000004
20
-533.9751499999999851
11
158.0668210000000045
21
-548.4449379999999792
0
ARC
8
BLACK
10
111.8815299999999979
20
-505.6727659999999673
40
4.9998708013363702
50
89.99886551
51
165.00113638
0
LINE
8
BLACK
6
CONTINUOUS
10
123.8816589999999991
20
-552.24211600000001
11
135.8816889999999944
21
-552.2421150000000125
0
LINE
8
BLACK
6
CONTINUOUS
10
111.8816289999999896
20
-500.6728949999999827
11
123.8816589999999991
21
-500.6728939999999852
0
ARC
8
BLACK
10
177.3474860000000035
20
-526.4575049999999692
40
25.0000460027338569
50
-197.49996679
51
-162.50003321
0
LINE
8
BLACK
6
CONTINUOUS
10
102.8697879999999998
20
-532.9279809999999316
11
107.0519999999999925
21
-548.5362099999999828
0
CIRCLE
8
BLACK
10
173.8816889999999944
20
-526.4312649999999394
40
19.5
0
CIRCLE
8
BLACK
10
161.8816889999999944
20
-547.2158749999999827
40
1.0999999999999999
0
CIRCLE
8
BLACK
10
138.1344119999999975
20
-257.3261369999999602
40
0.75
0
CIRCLE
8
BLACK
10
85.4548119999999898
20
-250.7221369999999752
40
0.75
0
CIRCLE
8
BLACK
10
133.1052119999999945
20
-271.5501370000000065
40
0.75
0
CIRCLE
8
BLACK
10
38.1600120000000018
20
-198.1949369999999817
40
0.75
0
CIRCLE
8
BLACK
10
113.039211999999992
20
-288.7205369999999789
40
0.75
0
CIRCLE
8
BLACK
10
139.0996120000000076
20
-215.3653369999999825
40
0.75
0
CIRCLE
8
BLACK
10
50.0726119999999995
20
-188.4413370000000043
40
0.75
0
CIRCLE
8
BLACK
10
75.8536119999999983
20
-208.5073369999999784
40
0.75
0
CIRCLE
8
BLACK
10
77.9872119999999995
20
-269.6197369999999864
40
0.75
0
CIRCLE
8
BLACK
10
33.2324119999999965
20
-222.5281369999999868
40
0.75
0
CIRCLE
8
BLACK
10
98.840611999999993
20
-197.4583370000000002
40
0.75
0
CIRCLE
8
BLACK
10
107.8068119999999936
20
-238.9873369999999966
40
0.75
0
CIRCLE
8
BLACK
10
42.7066119999999998
20
-244.702337
40
0.75
0
CIRCLE
8
BLACK
10
126.1988119999999896
20
-203.7385369999999796
40
0.75
0
CIRCLE
8
BLACK
10
161.8648120000000006
20
-257.3261369999999602
40
0.75
0
CIRCLE
8
BLACK
10
214.5444119999999941
20
-250.7221369999999752
40
0.75
0
CIRCLE
8
BLACK
10
166.8940120000000036
20
-271.5501370000000065
40
0.75
0
CIRCLE
8
BLACK
10
261.839211999999975
20
-198.1949369999999817
40
0.75
0
CIRCLE
8
BLACK
10
186.9600119999999777
20
-288.7205369999999789
40
0.75
0
CIRCLE
8
BLACK
10
160.8996119999999905
20
-215.3653369999999825
40
0.75
0
CIRCLE
8
BLACK
10
249.9266119999999773
20
-188.4413370000000043
40
0.75
0
CIRCLE
8
BLACK
10
224.1456119999999999
20
-208.5073369999999784
40
0.75
0
CIRCLE
8
BLACK
10
222.0120119999999986
20
-269.6197369999999864
40
0.75
0
CIRCLE
8
BLACK
10
266.7668120000000158
20
-222.5281369999999868
40
0.75
0
CIRCLE
8
BLACK
10
201.1586120000000051
20
-197.4583370000000002
40
0.75
0
CIRCLE
8
BLACK
10
192.1924119999999903
20
-238.9873369999999966
40
0.75
0
CIRCLE
8
BLACK
10
257.2926119999999628
20
-244.702337
40
0.75
0
CIRCLE
8
BLACK
10
173.8004119999999944
20
-203.7385369999999796
40
0.75
0
CIRCLE
8
BLACK
10
138.1344119999999975
20
-407.3261369999999602
40
0.75
0
CIRCLE
8
BLACK
10
85.4548119999999898
20
-400.7221369999999752
40
0.75
0
CIRCLE
8
BLACK
10
133.1052119999999945
20
-421.5501370000000065
40
0.75
0
CIRCLE
8
BLACK
10
38.1600120000000018
20
-348.1949369999999817
40
0.75
0
CIRCLE
8
BLACK
10
113.039211999999992
20
-438.7205369999999789
40
0.75
0
CIRCLE
8
BLACK
10
139.0996120000000076
20
-365.3653370000000109
40
0.75
0
CIRCLE
8
BLACK
10
50.0726119999999995
20
-338.4413369999999759
40
0.75
0
CIRCLE
8
BLACK
10
75.8536119999999983
20
-358.5073370000000068
40
0.75
0
CIRCLE
8
BLACK
10
77.9872119999999995
20
-419.6197369999999864
40
0.75
0
CIRCLE
8
BLACK
10
33.2324119999999965
20
-372.5281369999999583
40
0.75
0
CIRCLE
8
BLACK
10
98.840611999999993
20
-347.4583369999999718
40
0.75
0
CIRCLE
8
BLACK
10
107.8068119999999936
20
-388.9873369999999682
40
0.75
0
CIRCLE
8
BLACK
10
42.7066119999999998
20
-394.702337
40
0.75
0
CIRCLE
8
BLACK
10
126.1988119999999896
20
-353.738537000000008
40
0.75
0
ARC
8
BLACK
10
199.2878000000000043
20
-345.0419999999999732
40
0.3999747089054506
50
-75.00382393
51
12.49583717
0
ARC
8
BLACK
10
268.9733999999999696
20
-392.1130999999999744
40
2.9999338015979622
50
-79.00127417
51
11.00055733
0
CIRCLE
8
BLACK
10
181.198317000000003
20
-440.2356399999999894
40
3.1499999999999999
0
CIRCLE
8
BLACK
10
31.5148239999999973
20
-391.7478909999999814
40
3.1499999999999999
0
CIRCLE
8
BLACK
10
118.8017069999999933
20
-440.2356399999999894
40
3.1499999999999999
0
LINE
8
BLACK
6
CONTINUOUS
10
55.8493110000000001
20
-336.8133919999999648
11
55.7920429999999996
21
-337.1080069999999864
0
LINE
8
BLACK
6
CONTINUOUS
10
54.0555579999999978
20
-397.0987999999999829
11
54.0707489999999993
21
-397.0206519999999841
0
ARC
8
BLACK
10
217.1565999999999974
20
-401.4522000000000048
40
0.4000423875903653
50
-257.49390806
51
-164.99652863
0
LINE
8
BLACK
6
CONTINUOUS
10
100.0259750000000025
20
-343.9793950000000109
11
58.8444769999999977
21
-334.8496769999999856
0
LINE
8
BLACK
6
CONTINUOUS
10
55.7920429999999996
20
-337.1080069999999864
11
42.2309860000000015
21
-334.4720039999999699
0
ARC
8
BLACK
10
258.3413999999999646
20
-337.4169999999999732
40
3.0000999481783936
50
11.00189893
51
100.99836464
0
LINE
8
BLACK
6
CONTINUOUS
10
217.0699879999999951
20
-401.0617149999999924
11
230.5091740000000016
21
-398.082318999999984
0
ARC
8
BLACK
10
31.0266069999999985
20
-392.1131429999999796
40
2.9999257377891868
50
-191.00142546
51
-100.99856380
0
LINE
8
BLACK
6
CONTINUOUS
10
199.3913089999999784
20
-345.4284040000000005
11
163.4217319999999916
21
-355.0664209999999912
0
LINE
8
BLACK
6
CONTINUOUS
10
68.9918909999999954
20
-398.4848849999999629
11
69.0137550000000033
21
-398.3862619999999879
0
LINE
8
BLACK
6
CONTINUOUS
10
150.0000119999999981
20
-423.7441369999999665
11
168.4203909999999951
21
-423.7441369999999665
0
ARC
8
BLACK
10
67.2346399999999988
20
-398.0954299999999648
40
1.7998906283510674
50
-102.50343672
51
-12.49632754
0
ARC
8
BLACK
10
82.8434000000000026
20
-401.4522999999999797
40
0.4000780407882942
50
-14.98874723
51
77.49365369
0
ARC
8
BLACK
10
181.0003999999999849
20
-440.8303999999999974
40
2.9999499480553005
50
-152.50095062
51
-62.49846538
0
LINE
8
BLACK
6
CONTINUOUS
10
178.3394150000000025
20
-442.2155649999999696
11
168.8638959999999827
21
-424.0132629999999949
0
ARC
8
BLACK
10
168.4204000000000008
20
-424.244199999999978
40
0.5000630000809898
50
27.50687038
51
90.00103119
0
ARC
8
BLACK
10
230.595799999999997
20
-398.4726999999999748
40
0.3998767172979692
50
12.48225127
51
102.51127713
0
ARC
8
BLACK
10
58.3033399999999986
20
-337.2903499999999894
40
2.4999494528099961
50
77.49881806
51
169.00128047
0
LINE
8
BLACK
6
CONTINUOUS
10
82.4706259999999958
20
-404.1143869999999652
11
75.2210620000000034
21
-418.0406679999999824
0
ARC
8
BLACK
10
135.8017999999999859
20
-357.9642000000000053
40
3.000010493132482
50
14.99988221
51
74.99936434
0
ARC
8
BLACK
10
118.9996000000000009
20
-440.8302999999999656
40
2.9999880030270121
50
-117.50024614
51
-27.50053183
0
LINE
8
BLACK
6
CONTINUOUS
10
150.0000119999999981
20
-369.5181369999999674
11
142.3871979999999837
21
-369.5181369999999674
0
ARC
8
BLACK
10
164.1981999999999857
20
-357.9642999999999802
40
3.0000367875317795
50
104.99969861
51
164.99815440
0
CIRCLE
8
BLACK
10
268.4851999999999634
20
-391.7478909999999814
40
3.1499999999999999
0
LINE
8
BLACK
6
CONTINUOUS
10
150.0000119999999981
20
-369.5181369999999674
11
157.6128259999999841
21
-369.5181369999999674
0
ARC
8
BLACK
10
200.0823000000000036
20
-344.4674999999999727
40
0.5000390683826614
50
-257.49544337
51
-167.49568833
0
LINE
8
BLACK
6
CONTINUOUS
10
100.4059019999999975
20
-344.5757649999999899
11
100.321723999999989
21
-344.9554579999999646
0
LINE
8
BLACK
6
CONTINUOUS
10
69.4908499999999947
20
-398.082318999999984
11
82.9300360000000012
21
-401.0617149999999924
0
LINE
8
BLACK
6
CONTINUOUS
10
30.454267999999999
20
-395.0579659999999649
11
51.1244680000000002
21
-399.0758459999999559
0
ARC
8
BLACK
10
79.8100999999999914
20
-402.7292999999999665
40
2.9994705577464833
50
-27.50177615
51
-14.99956284
0
LINE
8
BLACK
6
CONTINUOUS
10
76.496848
20
-422.0869470000000092
11
117.6143299999999954
21
-443.4913509999999519
0
LINE
8
BLACK
6
CONTINUOUS
10
248.8755559999999889
20
-399.0758459999999559
11
269.545755999999983
21
-395.0579659999999649
0
LINE
8
BLACK
6
CONTINUOUS
10
244.2079809999999895
20
-337.1080069999999864
11
244.1507129999999961
21
-336.8133919999999648
0
CIRCLE
8
BLACK
10
116.9330129999999883
20
-373.9959369999999694
40
1.
0
LINE
8
BLACK
6
CONTINUOUS
10
216.7701950000000011
20
-401.5557619999999588
11
217.2926520000000039
21
-403.5055979999999636
0
LINE
8
BLACK
6
CONTINUOUS
10
257.7690379999999664
20
-334.4720039999999699
11
244.2079809999999895
21
-337.1080069999999864
0
LINE
8
BLACK
6
CONTINUOUS
10
199.6782999999999788
20
-344.9554579999999646
11
199.5941219999999987
21
-344.5757649999999899
0
ARC
8
BLACK
10
99.9175999999999931
20
-344.4676000000000045
40
0.5000892546836014
50
-12.49005177
51
77.48405422
0
ARC
8
BLACK
10
41.6586190000000016
20
-337.4169759999999769
40
3.0000765154663971
50
79.00145418
51
168.99853277
0
LINE
8
BLACK
6
CONTINUOUS
10
182.3856940000000009
20
-443.4913509999999519
11
223.5031759999999963
21
-422.0869470000000092
0
LINE
8
BLACK
6
CONTINUOUS
10
138.6996120000000019
20
-357.1877399999999625
11
141.9042349999999999
21
-369.1475469999999746
0
ARC
8
BLACK
10
241.6964999999999861
20
-337.2905999999999835
40
2.50014704370323
50
11.00353898
51
102.49582504
0
LINE
8
BLACK
6
CONTINUOUS
10
261.2863469999999779
20
-336.8444589999999721
11
271.9182109999999852
21
-391.5406570000000102
0
LINE
8
BLACK
6
CONTINUOUS
10
224.7789619999999786
20
-418.0406679999999824
11
217.5293979999999863
21
-404.1143869999999652
0
ARC
8
BLACK
10
157.6127999999999929
20
-369.0181999999999789
40
0.5000090204486315
50
-89.99702024
51
-14.99230601
0
ARC
8
BLACK
10
142.3872000000000071
20
-369.018100000000004
40
0.5000370000039996
50
-164.99591372
51
-90.00022917
0
LINE
8
BLACK
6
CONTINUOUS
10
245.9292749999999899
20
-397.0206519999999841
11
245.9444659999999772
21
-397.0987999999999829
0
LINE
8
BLACK
6
CONTINUOUS
10
54.0707489999999993
20
-397.0206519999999841
11
66.8449679999999944
21
-399.8526279999999815
0
LINE
8
BLACK
6
CONTINUOUS
10
230.986268999999993
20
-398.3862619999999879
11
231.0081329999999866
21
-398.4848849999999629
0
ARC
8
BLACK
10
77.8819999999999908
20
-419.425899999999956
40
2.9999695330641272
50
-207.50059893
51
-117.49828240
0
ARC
8
BLACK
10
248.398399999999981
20
-396.6219999999999573
40
2.4998076006068946
50
-169.00441988
51
-78.99602542
0
LINE
8
BLACK
6
CONTINUOUS
10
241.1555469999999843
20
-334.8496769999999856
11
199.9740489999999795
21
-343.9793950000000109
0
ARC
8
BLACK
10
131.5797000000000025
20
-424.244199999999978
40
0.5000880094073442
50
90.00767667
51
152.49715119
0
ARC
8
BLACK
10
220.1904999999999859
20
-402.7290999999999599
40
3.0000806533780056
50
-164.99959474
51
-152.49991563
0
LINE
8
BLACK
6
CONTINUOUS
10
121.6606089999999938
20
-442.2155649999999696
11
131.1361279999999851
21
-424.0132629999999949
0
CIRCLE
8
BLACK
10
257.9706219999999917
20
-337.9500479999999811
40
3.1499999999999999
0
LINE
8
BLACK
6
CONTINUOUS
10
150.0000119999999981
20
-423.7441369999999665
11
131.5796330000000012
21
-423.7441369999999665
0
ARC
8
BLACK
10
100.7121999999999957
20
-345.0421000000000049
40
0.3999249000012378
50
-192.51056662
51
-104.99656186
0
LINE
8
BLACK
6
CONTINUOUS
10
161.3004119999999944
20
-357.1877399999999625
11
158.0957889999999963
21
-369.1475469999999746
0
ARC
8
BLACK
10
222.117999999999995
20
-419.425899999999956
40
2.9999310757529076
50
-62.50131102
51
27.50038727
0
CIRCLE
8
BLACK
10
42.0294019999999975
20
-337.9500479999999811
40
3.1499999999999999
0
ARC
8
BLACK
10
69.4043999999999954
20
-398.4729999999999563
40
0.4001587143484445
50
77.52263227
51
167.48125595
0
LINE
8
BLACK
6
CONTINUOUS
10
82.7073719999999923
20
-403.5055979999999636
11
83.2298289999999952
21
-401.5557619999999588
0
ARC
8
BLACK
10
51.60154
20
-396.6218599999999697
40
2.4999352207455292
50
-101.00147232
51
-10.99836267
0
CIRCLE
8
BLACK
10
164.557612000000006
20
-358.3533370000000104
40
3.1499999999999999
0
CIRCLE
8
BLACK
10
135.4344179999999938
20
-358.367134999999962
40
3.1499999999999999
0
LINE
8
BLACK
6
CONTINUOUS
10
233.1550560000000019
20
-399.8526279999999815
11
245.9292749999999899
21
-397.0206519999999841
0
ARC
8
BLACK
10
232.7653999999999996
20
-398.0953999999999837
40
1.7999116762552545
50
-167.50285031
51
-77.49726727
0
LINE
8
BLACK
6
CONTINUOUS
10
28.0818130000000004
20
-391.5406570000000102
11
38.713676999999997
21
-336.8444589999999721
0
LINE
8
BLACK
6
CONTINUOUS
10
136.5782920000000047
20
-355.0664209999999912
11
100.6087149999999895
21
-345.4284040000000005
0
LINE
8
BLACK
6
CONTINUOUS
10
82.4706259999999958
20
-254.1143869999999936
11
75.2210620000000034
21
-268.0406679999999824
0
LINE
8
BLACK
6
CONTINUOUS
10
30.454267999999999
20
-245.0579659999999933
11
51.1244680000000002
21
-249.0758459999999843
0
LINE
8
BLACK
6
CONTINUOUS
10
142.5243009999999799
20
-221.4616649999999822
11
138.6996120000000019
21
-207.1877399999999909
0
ARC
8
BLACK
10
268.9733999999999696
20
-242.1131000000000029
40
2.9999338015979622
50
-79.00127417
51
11.00055733
0
LINE
8
BLACK
6
CONTINUOUS
10
100.0259750000000025
20
-193.9793949999999825
11
58.8444769999999977
21
-184.8496769999999856
0
ARC
8
BLACK
10
112.6829999999999927
20
-226.4958999999999776
40
0.5000360001689879
50
-179.99587460
51
-89.99851042
0
ARC
8
BLACK
10
199.2878000000000043
20
-195.0420000000000016
40
0.3999747089054506
50
-75.00382393
51
12.49583717
0
ARC
8
BLACK
10
82.8434000000000026
20
-251.4522999999999797
40
0.4000780407882942
50
-14.98874723
51
77.49365369
0
LINE
8
BLACK
6
CONTINUOUS
10
178.3394150000000025
20
-292.2155649999999696
11
168.8638959999999827
21
-274.0132629999999949
0
LINE
8
BLACK
6
CONTINUOUS
10
199.3913089999999784
20
-195.4284040000000005
11
163.4217319999999916
21
-205.0664209999999912
0
LINE
8
BLACK
6
CONTINUOUS
10
69.4908499999999947
20
-248.082318999999984
11
82.9300360000000012
21
-251.0617149999999924
0
LINE
8
BLACK
6
CONTINUOUS
10
248.8755559999999889
20
-249.0758459999999843
11
269.545755999999983
21
-245.0579659999999933
0
LINE
8
BLACK
6
CONTINUOUS
10
217.0699879999999951
20
-251.0617149999999924
11
230.5091740000000016
21
-248.082318999999984
0
ARC
8
BLACK
10
155.4763999999999839
20
-222.2580999999999847
40
0.4999880013690328
50
-270.00137520
51
-179.99576001
0
LINE
8
BLACK
6
CONTINUOUS
10
150.0000119999999981
20
-273.7441369999999665
11
168.4203909999999951
21
-273.7441369999999665
0
ARC
8
BLACK
10
164.1981999999999857
20
-207.9642999999999802
40
3.0000367875317795
50
104.99969861
51
164.99815440
0
ARC
8
BLACK
10
200.0823000000000036
20
-194.4675000000000011
40
0.5000390683826614
50
-257.49544337
51
-167.49568833
0
LINE
8
BLACK
6
CONTINUOUS
10
150.0000119999999981
20
-228.6799369999999954
11
154.4764119999999821
21
-228.6799369999999954
0
ARC
8
BLACK
10
168.4204000000000008
20
-274.244199999999978
40
0.5000630000809898
50
27.50687038
51
90.00103119
0
LINE
8
BLACK
6
CONTINUOUS
10
68.9918909999999954
20
-248.4848849999999914
11
69.0137550000000033
21
-248.3862619999999879
0
LINE
8
BLACK
6
CONTINUOUS
10
112.1830129999999883
20
-226.4959360000000004
11
112.1830129999999883
21
-221.4959360000000004
0
LINE
8
BLACK
6
CONTINUOUS
10
54.0555579999999978
20
-247.0987999999999829
11
54.0707489999999993
21
-247.0206519999999841
0
LINE
8
BLACK
6
CONTINUOUS
10
76.496848
20
-272.0869470000000092
11
117.6143299999999954
21
-293.4913510000000088
0
LINE
8
BLACK
6
CONTINUOUS
10
55.7920429999999996
20
-187.1080069999999864
11
42.2309860000000015
21
-184.4720039999999983
0
LINE
8
BLACK
6
CONTINUOUS
10
121.1830129999999883
20
-226.9959379999999953
11
112.6830129999999883
21
-226.9959360000000004
0
LINE
8
BLACK
6
CONTINUOUS
10
142.9106720000000053
20
-221.7581369999999765
11
144.5236119999999858
21
-221.7581369999999765
0
LINE
8
BLACK
6
CONTINUOUS
10
100.4059019999999975
20
-194.5757649999999899
11
100.321723999999989
21
-194.955457999999993
0
ARC
8
BLACK
10
258.3413999999999646
20
-187.4170000000000016
40
3.0000999481783936
50
11.00189893
51
100.99836464
0
ARC
8
BLACK
10
79.8100999999999914
20
-252.729299999999995
40
2.9994705577464833
50
-27.50177615
51
-14.99956284
0
ARC
8
BLACK
10
118.9996000000000009
20
-290.8302999999999656
40
2.9999880030270121
50
-117.50024614
51
-27.50053183
0
ARC
8
BLACK
10
121.1829999999999927
20
-226.4958999999999776
40
0.5000130014439624
50
-89.99851042
51
-0.00435437
0
ARC
8
BLACK
10
121.1829999999999927
20
-221.4958999999999776
40
0.4999620001690128
50
-0.00435437
51
89.99851020
0
ARC
8
BLACK
10
144.5235999999999876
20
-222.2580999999999847
40
0.4999630001440106
50
-0.00423979
51
89.99862480
0
LINE
8
BLACK
6
CONTINUOUS
10
261.2863469999999779
20
-186.8444590000000005
11
271.9182109999999852
21
-241.5406569999999817
0
LINE
8
BLACK
6
CONTINUOUS
10
145.0236119999999858
20
-222.2581369999999765
11
145.0236119999999858
21
-228.1799369999999954
0
ARC
8
BLACK
10
232.7653999999999996
20
-248.0953999999999837
40
1.7999116762552545
50
-167.50285031
51
-77.49726727
0
ARC
8
BLACK
10
99.9175999999999931
20
-194.4676000000000045
40
0.5000892546836014
50
-12.49005177
51
77.48405422
0
ARC
8
BLACK
10
230.595799999999997
20
-248.4726999999999748
40
0.3998767172979692
50
12.48225127
51
102.51127713
0
ARC
8
BLACK
10
31.0266069999999985
20
-242.1131429999999796
40
2.9999257377891868
50
-191.00142546
51
-100.99856380
0
ARC
8
BLACK
10
241.6964999999999861
20
-187.2905999999999835
40
2.50014704370323
50
11.00353898
51
102.49582504
0
ARC
8
BLACK
10
58.3033399999999986
20
-187.2903499999999894
40
2.4999494528099961
50
77.49881806
51
169.00128047
0
LINE
8
BLACK
6
CONTINUOUS
10
121.6830129999999883
20
-221.4959379999999953
11
121.6830129999999883
21
-226.4959379999999953
0
LINE
8
BLACK
6
CONTINUOUS
10
55.8493110000000001
20
-186.8133919999999932
11
55.7920429999999996
21
-187.1080069999999864
0
ARC
8
BLACK
10
67.2346399999999988
20
-248.0954299999999932
40
1.7998906283510674
50
-102.50343672
51
-12.49632754
0
LINE
8
BLACK
6
CONTINUOUS
10
54.0707489999999993
20
-247.0206519999999841
11
66.8449679999999944
21
-249.8526279999999815
0
LINE
8
BLACK
6
CONTINUOUS
10
182.3856940000000009
20
-293.4913510000000088
11
223.5031759999999963
21
-272.0869470000000092
0
LINE
8
BLACK
6
CONTINUOUS
10
154.9764119999999821
20
-228.1799369999999954
11
154.9764119999999821
21
-222.2581369999999765
0
ARC
8
BLACK
10
217.1565999999999974
20
-251.4521999999999764
40
0.4000423875903653
50
-257.49390806
51
-164.99652863
0
ARC
8
BLACK
10
181.0003999999999849
20
-290.8303999999999974
40
2.9999499480553005
50
-152.50095062
51
-62.49846538
0
LINE
8
BLACK
6
CONTINUOUS
10
257.7690379999999664
20
-184.4720039999999983
11
244.2079809999999895
21
-187.1080069999999864
0
LINE
8
BLACK
6
CONTINUOUS
10
145.5236119999999858
20
-228.6799369999999954
11
150.0000119999999981
21
-228.6799369999999954
0
LINE
8
BLACK
6
CONTINUOUS
10
216.7701950000000011
20
-251.5557619999999872
11
217.2926520000000039
21
-253.505597999999992
0
LINE
8
BLACK
6
CONTINUOUS
10
199.6782999999999788
20
-194.955457999999993
11
199.5941219999999987
21
-194.5757649999999899
0
ARC
8
BLACK
10
41.6586190000000016
20
-187.4169760000000053
40
3.0000765154663971
50
79.00145418
51
168.99853277
0
LINE
8
BLACK
6
CONTINUOUS
10
244.2079809999999895
20
-187.1080069999999864
11
244.1507129999999961
21
-186.8133919999999932
0
LINE
8
BLACK
6
CONTINUOUS
10
224.7789619999999786
20
-268.0406679999999824
11
217.5293979999999863
21
-254.1143869999999936
0
ARC
8
BLACK
10
154.4763999999999839
20
-228.1799000000000035
40
0.5000120013689671
50
-89.99862500
51
-0.00423979
0
LINE
8
BLACK
6
CONTINUOUS
10
245.9292749999999899
20
-247.0206519999999841
11
245.9444659999999772
21
-247.0987999999999829
0
ARC
8
BLACK
10
112.6829999999999927
20
-221.4958999999999776
40
0.4999870012960336
50
-270.00148980
51
-179.99587460
0
ARC
8
BLACK
10
135.8017999999999859
20
-207.9641999999999769
40
3.000010493132482
50
14.99988221
51
74.99936434
0
ARC
8
BLACK
10
157.0893999999999835
20
-221.3581999999999823
40
0.3999380783996442
50
-90.00687658
51
-14.99308987
0
LINE
8
BLACK
6
CONTINUOUS
10
233.1550560000000019
20
-249.8526279999999815
11
245.9292749999999899
21
-247.0206519999999841
0
LINE
8
BLACK
6
CONTINUOUS
10
136.5782920000000047
20
-205.0664209999999912
11
100.6087149999999895
21
-195.4284040000000005
0
ARC
8
BLACK
10
142.9106999999999914
20
-221.358099999999979
40
0.4000370009799094
50
-164.99589113
51
-90.00401033
0
ARC
8
BLACK
10
145.5235999999999876
20
-228.1799000000000035
40
0.5000370001439893
50
-179.99576001
51
-89.99862500
0
ARC
8
BLACK
10
100.7121999999999957
20
-195.0421000000000049
40
0.3999249000012378
50
-192.51056662
51
-104.99656186
0
LINE
8
BLACK
6
CONTINUOUS
10
150.0000119999999981
20
-273.7441369999999665
11
131.5796330000000012
21
-273.7441369999999665
0
ARC
8
BLACK
10
220.1904999999999859
20
-252.7290999999999883
40
3.0000806533780056
50
-164.99959474
51
-152.49991563
0
ARC
8
BLACK
10
222.117999999999995
20
-269.4259000000000128
40
2.9999310757529076
50
-62.50131102
51
27.50038727
0
LINE
8
BLACK
6
CONTINUOUS
10
121.6606089999999938
20
-292.2155649999999696
11
131.1361279999999851
21
-274.0132629999999949
0
ARC
8
BLACK
10
51.60154
20
-246.6218599999999981
40
2.4999352207455292
50
-101.00147232
51
-10.99836267
0
LINE
8
BLACK
6
CONTINUOUS
10
241.1555469999999843
20
-184.8496769999999856
11
199.9740489999999795
21
-193.9793949999999825
0
ARC
8
BLACK
10
77.8819999999999908
20
-269.4259000000000128
40
2.9999695330641272
50
-207.50059893
51
-117.49828240
0
LINE
8
BLACK
6
CONTINUOUS
10
28.0818130000000004
20
-241.5406569999999817
11
38.713676999999997
21
-186.8444590000000005
0
LINE
8
BLACK
6
CONTINUOUS
10
230.986268999999993
20
-248.3862619999999879
11
231.0081329999999866
21
-248.4848849999999914
0
ARC
8
BLACK
10
131.5797000000000025
20
-274.244199999999978
40
0.5000880094073442
50
90.00767667
51
152.49715119
0
ARC
8
BLACK
10
248.398399999999981
20
-246.6219999999999857
40
2.4998076006068946
50
-169.00441988
51
-78.99602542
0
LINE
8
BLACK
6
CONTINUOUS
10
161.3004119999999944
20
-207.1877399999999909
11
157.4757229999999879
21
-221.4616649999999822
0
LINE
8
BLACK
6
CONTINUOUS
10
82.7073719999999923
20
-253.505597999999992
11
83.2298289999999952
21
-251.5557619999999872
0
LINE
8
BLACK
6
CONTINUOUS
10
112.6830129999999883
20
-220.9959360000000004
11
121.1830129999999883
21
-220.9959379999999953
0
LINE
8
BLACK
6
CONTINUOUS
10
155.4764119999999821
20
-221.7581369999999765
11
157.089351999999991
21
-221.7581369999999765
0
ARC
8
BLACK
10
69.4043999999999954
20
-248.4729999999999848
40
0.4001587143484445
50
77.52263227
51
167.48125595
0
ARC
8
BLACK
10
248.398399999999981
20
-96.6217709999999954
40
2.499867151873675
50
-169.00305491
51
-78.99657101
0
ARC
8
BLACK
10
131.5795999999999992
20
-124.2439709999999877
40
0.499980861765728
50
89.99759358
51
152.49889792
0
LINE
8
BLACK
6
CONTINUOUS
10
241.1555349999999862
20
-34.8495109999999997
11
199.9740369999999814
21
-43.9792289999999966
0
LINE
8
BLACK
6
CONTINUOUS
10
230.9862569999999948
20
-98.3860959999999949
11
231.0081209999999885
21
-98.4847189999999983
0
ARC
8
BLACK
10
69.4043999999999954
20
-98.4728709999999978
40
0.4001784505367574
50
77.52545444
51
167.47645682
0
LINE
8
BLACK
6
CONTINUOUS
10
28.0818009999999987
20
-91.5404910000000029
11
38.7136649999999989
21
-36.8442930000000004
0
ARC
8
BLACK
10
51.6014999999999944
20
-96.6216709999999921
40
2.4999670944804451
50
-101.00074179
51
-10.99875768
0
LINE
8
BLACK
6
CONTINUOUS
10
161.3003999999999962
20
-57.1875739999999979
11
157.5598779999999977
21
-71.1473809999999958
0
LINE
8
BLACK
6
CONTINUOUS
10
121.6605969999999957
20
-142.2153989999999908
11
131.136115999999987
21
-124.0130969999999877
0
ARC
8
BLACK
10
222.117999999999995
20
-119.4257709999999975
40
2.999937516826142
50
-62.50118802
51
27.50111992
0
LINE
8
BLACK
6
CONTINUOUS
10
150.
20
-123.7439709999999877
11
131.5796210000000031
21
-123.7439709999999877
0
ARC
8
BLACK
10
220.1899999999999977
20
-102.7291709999999938
40
2.9995383577304024
50
-165.00155487
51
-152.49962695
0
ARC
8
BLACK
10
85.4587999999999965
20
-125.060970999999995
40
1.50003584326842
50
-207.49863098
51
-117.50058261
0
ARC
8
BLACK
10
157.0768999999999949
20
-71.0179710000000028
40
0.5000146963680168
50
-89.99816654
51
-14.99960541
0
ARC
8
BLACK
10
100.7121999999999957
20
-45.0418710000000004
40
0.3999888594673606
50
-192.50138380
51
-104.99588709
0
LINE
8
BLACK
6
CONTINUOUS
10
83.217607000000001
20
-101.6011639999999971
11
83.2298169999999971
21
-101.5555959999999942
0
LINE
8
BLACK
6
CONTINUOUS
10
136.5782800000000066
20
-55.0662549999999982
11
100.6087029999999913
21
-45.4282380000000003
0
LINE
8
BLACK
6
CONTINUOUS
10
233.1550439999999753
20
-99.8524619999999885
11
245.9292629999999917
21
-97.0204859999999911
0
CIRCLE
8
BLACK
10
138.
20
-71.7327709999999996
40
1.0999999999999999
0
ARC
8
BLACK
10
232.7653999999999996
20
-98.0952709999999968
40
1.7998729558546624
50
-167.50408286
51
-77.49738523
0
ARC
8
BLACK
10
142.9231000000000051
20
-71.0179710000000028
40
0.500000000256
50
-165.00039459
51
-90.00183346
0
LINE
8
BLACK
6
CONTINUOUS
10
224.7789499999999805
20
-118.0405019999999894
11
217.5293859999999881
21
-104.1142210000000006
0
CIRCLE
8
BLACK
10
170.6799989999999809
20
-100.3151709999999923
40
0.6
0
LINE
8
BLACK
6
CONTINUOUS
10
245.9292629999999917
20
-97.0204859999999911
11
245.944453999999979
21
-97.0986339999999899
0
ARC
8
BLACK
10
41.6586099999999959
20
-37.4168109999999956
40
3.0000796511674483
50
79.00151407
51
168.99852496
0
LINE
8
BLACK
6
CONTINUOUS
10
138.6996000000000038
20
-57.1875739999999979
11
142.4401220000000023
21
-71.1473809999999958
0
ARC
8
BLACK
10
99.9175999999999931
20
-44.4674709999999962
40
0.5001227752592357
50
-12.48621053
51
77.48631491
0
LINE
8
BLACK
6
CONTINUOUS
10
244.2079689999999914
20
-37.1078410000000005
11
244.150700999999998
21
-36.8132260000000002
0
ARC
8
BLACK
10
135.0319999999999823
20
-93.112370999999996
40
0.5
50
-180.00000000
51
-90.00000000
0
LINE
8
BLACK
6
CONTINUOUS
10
199.6782879999999807
20
-44.955292
11
199.5941100000000006
21
-44.5755989999999969
0
LINE
8
BLACK
6
CONTINUOUS
10
182.3856820000000027
20
-143.4911850000000015
11
223.5031639999999982
21
-122.0867809999999878
0
LINE
8
BLACK
6
CONTINUOUS
10
54.0707369999999941
20
-97.0204859999999911
11
66.8449559999999963
21
-99.8524619999999885
0
ARC
8
BLACK
10
93.0717999999999961
20
-106.1050709999999953
40
0.4999883262247229
50
-27.50049344
51
74.99661896
0
LINE
8
BLACK
6
CONTINUOUS
10
216.7701830000000029
20
-101.5555959999999942
11
217.2926399999999774
21
-103.505431999999999
0
LINE
8
BLACK
6
CONTINUOUS
10
261.2863350000000082
20
-36.8442930000000004
11
271.9181990000000155
21
-91.5404910000000029
0
ARC
8
BLACK
10
241.6964999999999861
20
-37.2904709999999966
40
2.5001857636633722
50
11.00442380
51
102.49591006
0
LINE
8
BLACK
6
CONTINUOUS
10
150.
20
-71.5179710000000028
11
142.9230839999999887
21
-71.5179710000000028
0
LINE
8
BLACK
6
CONTINUOUS
10
257.7690259999999967
20
-34.4718379999999982
11
244.2079689999999914
21
-37.1078410000000005
0
ARC
8
BLACK
10
84.4732999999999947
20
-101.9376709999999946
40
1.2999560919650324
50
-195.00191892
51
-105.00002763
0
ARC
8
BLACK
10
181.0003999999999849
20
-140.830270999999982
40
2.9999115878505487
50
-152.50168327
51
-62.49834235
0
ARC
8
BLACK
10
217.1564999999999941
20
-101.4520709999999895
40
0.3999478092376554
50
-257.50736196
51
-164.99838489
0
CIRCLE
8
BLACK
10
161.9999609999999848
20
-71.7332679999999954
40
1.0999999999999999
0
ARC
8
BLACK
10
67.234499999999997
20
-98.0951709999999935
40
1.8000357201858523
50
-102.49881796
51
-12.49833606
0
ARC
8
BLACK
10
118.9996000000000009
20
-140.8301710000000071
40
2.9999602740691413
50
-117.50077572
51
-27.50001085
0
LINE
8
BLACK
6
CONTINUOUS
10
55.8492989999999949
20
-36.8132260000000002
11
55.7920309999999944
21
-37.1078410000000005
0
LINE
8
BLACK
6
CONTINUOUS
10
137.632000000000005
20
-83.612370999999996
11
135.0319999999999823
21
-83.612370999999996
0
ARC
8
BLACK
10
137.632000000000005
20
-84.112370999999996
40
0.5
50
0.00000000
51
90.00000000
0
ARC
8
BLACK
10
58.3033000000000001
20
-37.2901710000000008
40
2.4999194869087282
50
77.49812706
51
169.00145051
0
ARC
8
BLACK
10
31.0265999999999984
20
-92.1129710000000017
40
2.9999325815052909
50
-191.00129475
51
-100.99863567
0
LINE
8
BLACK
6
CONTINUOUS
10
134.5319999999999823
20
-93.112370999999996
11
134.5319999999999823
21
-84.112370999999996
0
ARC
8
BLACK
10
230.595799999999997
20
-98.4725710000000021
40
0.3999154382716426
50
12.48779850
51
102.51180718
0
ARC
8
BLACK
10
258.3413999999999646
20
-37.4167709999999971
40
3.0000403947888765
50
11.00076160
51
100.99881916
0
ARC
8
BLACK
10
135.8017999999999859
20
-57.964070999999997
40
3.0000431263993521
50
15.00062409
51
74.99976861
0
LINE
8
BLACK
6
CONTINUOUS
10
100.4058899999999994
20
-44.5755989999999969
11
100.3217119999999909
21
-44.955292
0
ARC
8
BLACK
10
137.632000000000005
20
-93.112370999999996
40
0.5
50
-90.00000000
51
-0.00000000
0
LINE
8
BLACK
6
CONTINUOUS
10
68.9918789999999973
20
-98.4847189999999983
11
69.013742999999991
21
-98.3860959999999949
0
LINE
8
BLACK
6
CONTINUOUS
10
55.7920309999999944
20
-37.1078410000000005
11
42.2309739999999962
21
-34.4718379999999982
0
LINE
8
BLACK
6
CONTINUOUS
10
117.6143179999999973
20
-143.4911850000000015
11
84.7661469999999895
21
-126.3915119999999916
0
LINE
8
BLACK
6
CONTINUOUS
10
54.0555459999999997
20
-97.0986339999999899
11
54.0707369999999941
21
-97.0204859999999911
0
ARC
8
BLACK
10
168.4204000000000008
20
-124.2438709999999986
40
0.4999000004410882
50
27.49093646
51
90.00240690
0
LINE
8
BLACK
6
CONTINUOUS
10
150.
20
-71.5179710000000028
11
157.0769159999999829
21
-71.5179710000000028
0
ARC
8
BLACK
10
200.0822000000000003
20
-44.467371
40
0.4999451450749372
50
-257.50620662
51
-167.49764453
0
ARC
8
BLACK
10
164.1981999999999857
20
-57.964070999999997
40
3.0000320716634015
50
105.00023139
51
164.99937591
0
ARC
8
BLACK
10
135.0319999999999823
20
-84.112370999999996
40
0.5
50
90.00000000
51
180.00000000
0
LINE
8
BLACK
6
CONTINUOUS
10
178.3394030000000043
20
-142.2153989999999908
11
168.8638839999999846
21
-124.0130969999999877
0
LINE
8
BLACK
6
CONTINUOUS
10
199.3912969999999802
20
-45.4282380000000003
11
163.4217199999999934
21
-55.0662549999999982
0
ARC
8
BLACK
10
268.9733999999999696
20
-92.1129710000000017
40
2.9999290826286211
50
-79.00136433
51
11.00129475
0
LINE
8
BLACK
6
CONTINUOUS
10
135.0319999999999823
20
-93.612370999999996
11
137.632000000000005
21
-93.612370999999996
0
ARC
8
BLACK
10
82.8434999999999917
20
-101.4519710000000003
40
0.3998946619548703
50
-15.01545178
51
77.50426267
0
LINE
8
BLACK
6
CONTINUOUS
10
69.4908379999999966
20
-98.082152999999991
11
82.9300240000000031
21
-101.0615489999999994
0
LINE
8
BLACK
6
CONTINUOUS
10
30.4542559999999973
20
-95.0578000000000003
11
51.124455999999995
21
-99.0756799999999913
0
LINE
8
BLACK
6
CONTINUOUS
10
93.5153320000000008
20
-106.3359639999999899
11
84.1282539999999983
21
-124.3683729999999912
0
LINE
8
BLACK
6
CONTINUOUS
10
217.0699759999999969
20
-101.0615489999999994
11
230.5091620000000034
21
-98.082152999999991
0
LINE
8
BLACK
6
CONTINUOUS
10
138.132000000000005
20
-84.112370999999996
11
138.132000000000005
21
-93.112370999999996
0
LINE
8
BLACK
6
CONTINUOUS
10
100.0259629999999902
20
-43.9792289999999966
11
58.8444649999999996
21
-34.8495109999999997
0
LINE
8
BLACK
6
CONTINUOUS
10
248.8755439999999908
20
-99.0756799999999913
11
269.5457440000000133
21
-95.0578000000000003
0
LINE
8
BLACK
6
CONTINUOUS
10
93.2012349999999969
20
-105.6221269999999919
11
84.1368459999999914
21
-103.1933319999999981
0
LINE
8
BLACK
6
CONTINUOUS
10
150.
20
-123.7439709999999877
11
168.4203789999999969
21
-123.7439709999999877
0
ARC
8
BLACK
10
199.2878000000000043
20
-45.0418710000000004
40
0.3999710006800493
50
-75.00411291
51
12.50138380
0
CIRCLE
8
BLACK
10
173.8004119999999944
20
-353.738537000000008
40
0.75
0
CIRCLE
8
BLACK
10
257.2926119999999628
20
-394.702337
40
0.75
0
CIRCLE
8
BLACK
10
192.1924119999999903
20
-388.9873369999999682
40
0.75
0
CIRCLE
8
BLACK
10
201.1586120000000051
20
-347.4583369999999718
40
0.75
0
CIRCLE
8
BLACK
10
266.7668120000000158
20
-372.5281369999999583
40
0.75
0
CIRCLE
8
BLACK
10
222.0120119999999986
20
-419.6197369999999864
40
0.75
0
CIRCLE
8
BLACK
10
224.1456119999999999
20
-358.5073370000000068
40
0.75
0
CIRCLE
8
BLACK
10
249.9266119999999773
20
-338.4413369999999759
40
0.75
0
CIRCLE
8
BLACK
10
160.8996119999999905
20
-365.3653370000000109
40
0.75
0
CIRCLE
8
BLACK
10
186.9600119999999777
20
-438.7205369999999789
40
0.75
0
CIRCLE
8
BLACK
10
261.839211999999975
20
-348.1949369999999817
40
0.75
0
CIRCLE
8
BLACK
10
166.8940120000000036
20
-421.5501370000000065
40
0.75
0
CIRCLE
8
BLACK
10
214.5444119999999941
20
-400.7221369999999752
40
0.75
0
CIRCLE
8
BLACK
10
161.8648120000000006
20
-407.3261369999999602
40
0.75
0
CIRCLE
8
BLACK
10
111.8816889999999944
20
-505.6466549999999529
40
1.0999999999999999
0
CIRCLE
8
BLACK
10
111.8816889999999944
20
-547.2158749999999827
40
1.0999999999999999
0
CIRCLE
8
BLACK
10
135.8816889999999944
20
-505.6728949999999827
40
1.0999999999999999
0
CIRCLE
8
BLACK
10
135.8816889999999944
20
-547.2421150000000125
40
1.0999999999999999
0
CIRCLE
8
BLACK
10
162.0000119999999981
20
-371.7337369999999623
40
2.1499999999999999
0
CIRCLE
8
BLACK
10
250.1618449999999996
20
-395.2689939999999638
40
2.1499999999999999
0
CIRCLE
8
BLACK
10
171.7499459999999942
20
-356.3336549999999647
40
2.1499999999999999
0
CIRCLE
8
BLACK
10
138.0000119999999981
20
-413.2767169999999624
40
2.1499999999999999
0
CIRCLE
8
BLACK
10
240.4740839999999764
20
-338.8110839999999939
40
2.1499999999999999
0
CIRCLE
8
BLACK
10
138.0000119999999981
20
-371.7074969999999894
40
2.1499999999999999
0
CIRCLE
8
BLACK
10
59.5259399999999985
20
-338.8110839999999939
40
2.1499999999999999
0
CIRCLE
8
BLACK
10
49.8381789999999967
20
-395.2689939999999638
40
2.1499999999999999
0
CIRCLE
8
BLACK
10
179.750945999999999
20
-417.928654999999992
40
2.1499999999999999
0
CIRCLE
8
BLACK
10
162.0000119999999981
20
-413.3029569999999921
40
2.1499999999999999
0
CIRCLE
8
BLACK
10
120.2490779999999972
20
-417.928654999999992
40
2.1499999999999999
0
CIRCLE
8
BLACK
10
128.250078000000002
20
-356.3336549999999647
40
2.1499999999999999
0
LINE
8
BLACK
6
CONTINUOUS
10
68.4538369999999929
20
-235.0343659999999772
11
66.4218369999999965
21
-235.0343659999999772
0
LINE
8
BLACK
6
CONTINUOUS
10
66.4218369999999965
20
-235.0343659999999772
11
66.4218369999999965
21
-240.2159659999999803
0
LINE
8
BLACK
6
CONTINUOUS
10
66.4218369999999965
20
-240.2159659999999803
11
68.4538369999999929
21
-240.2159659999999803
0
LINE
8
BLACK
6
CONTINUOUS
10
68.4538369999999929
20
-240.2159659999999803
11
68.4538369999999929
21
-235.0343659999999772
0
LINE
8
BLACK
6
CONTINUOUS
10
223.0262929999999812
20
-205.6611989999999821
11
225.0582929999999919
21
-205.6611989999999821
0
LINE
8
BLACK
6
CONTINUOUS
10
225.0582929999999919
20
-205.6611989999999821
11
225.0582929999999919
21
-200.479598999999979
0
LINE
8
BLACK
6
CONTINUOUS
10
225.0582929999999919
20
-200.479598999999979
11
223.0262929999999812
21
-200.479598999999979
0
LINE
8
BLACK
6
CONTINUOUS
10
223.0262929999999812
20
-200.479598999999979
11
223.0262929999999812
21
-205.6611989999999821
0
LINE
8
BLACK
6
CONTINUOUS
10
110.303212000000002
20
-265.4397369999999796
11
108.2712119999999913
21
-265.4397369999999796
0
LINE
8
BLACK
6
CONTINUOUS
10
108.2712119999999913
20
-265.4397369999999796
11
108.2712119999999913
21
-270.6213369999999827
0
LINE
8
BLACK
6
CONTINUOUS
10
108.2712119999999913
20
-270.6213369999999827
11
110.303212000000002
21
-270.6213369999999827
0
LINE
8
BLACK
6
CONTINUOUS
10
110.303212000000002
20
-270.6213369999999827
11
110.303212000000002
21
-265.4397369999999796
0
LINE
8
BLACK
6
CONTINUOUS
10
176.3416809999999941
20
-274.0136459999999943
11
174.3096809999999834
21
-274.0136459999999943
0
LINE
8
BLACK
6
CONTINUOUS
10
174.3096809999999834
20
-274.0136459999999943
11
174.3096809999999834
21
-279.1952459999999974
0
LINE
8
BLACK
6
CONTINUOUS
10
174.3096809999999834
20
-279.1952459999999974
11
176.3416809999999941
21
-279.1952459999999974
0
LINE
8
BLACK
6
CONTINUOUS
10
176.3416809999999941
20
-279.1952459999999974
11
176.3416809999999941
21
-274.0136459999999943
0
LINE
8
BLACK
6
CONTINUOUS
10
194.4375639999999805
20
-252.3806359999999813
11
196.4695639999999912
21
-252.3806359999999813
0
LINE
8
BLACK
6
CONTINUOUS
10
196.4695639999999912
20
-252.3806359999999813
11
196.4695639999999912
21
-247.1990359999999782
0
LINE
8
BLACK
6
CONTINUOUS
10
196.4695639999999912
20
-247.1990359999999782
11
194.4375639999999805
21
-247.1990359999999782
0
LINE
8
BLACK
6
CONTINUOUS
10
194.4375639999999805
20
-247.1990359999999782
11
194.4375639999999805
21
-252.3806359999999813
0
LINE
8
BLACK
6
CONTINUOUS
10
85.4696429999999907
20
-242.0792859999999962
11
87.5016430000000014
21
-242.0792859999999962
0
LINE
8
BLACK
6
CONTINUOUS
10
87.5016430000000014
20
-242.0792859999999962
11
87.5016430000000014
21
-236.8976859999999931
0
LINE
8
BLACK
6
CONTINUOUS
10
87.5016430000000014
20
-236.8976859999999931
11
85.4696429999999907
21
-236.8976859999999931
0
LINE
8
BLACK
6
CONTINUOUS
10
85.4696429999999907
20
-236.8976859999999931
11
85.4696429999999907
21
-242.0792859999999962
0
LINE
8
BLACK
6
CONTINUOUS
10
47.5465769999999992
20
-238.1929759999999874
11
49.5785769999999957
21
-238.1929759999999874
0
LINE
8
BLACK
6
CONTINUOUS
10
49.5785769999999957
20
-238.1929759999999874
11
49.5785769999999957
21
-233.0113759999999843
0
LINE
8
BLACK
6
CONTINUOUS
10
49.5785769999999957
20
-233.0113759999999843
11
47.5465769999999992
21
-233.0113759999999843
0
LINE
8
BLACK
6
CONTINUOUS
10
47.5465769999999992
20
-233.0113759999999843
11
47.5465769999999992
21
-238.1929759999999874
0
LINE
8
BLACK
6
CONTINUOUS
10
105.272010999999992
20
-244.6555659999999932
11
103.2400109999999955
21
-244.6555659999999932
0
LINE
8
BLACK
6
CONTINUOUS
10
103.2400109999999955
20
-244.6555659999999932
11
103.2400109999999955
21
-249.8371659999999963
0
LINE
8
BLACK
6
CONTINUOUS
10
103.2400109999999955
20
-249.8371659999999963
11
105.272010999999992
21
-249.8371659999999963
0
LINE
8
BLACK
6
CONTINUOUS
10
105.272010999999992
20
-249.8371659999999963
11
105.272010999999992
21
-244.6555659999999932
0
LINE
8
BLACK
6
CONTINUOUS
10
205.9850909999999828
20
-202.8594629999999768
11
203.9530910000000006
21
-202.8594629999999768
0
LINE
8
BLACK
6
CONTINUOUS
10
203.9530910000000006
20
-202.8594629999999768
11
203.9530910000000006
21
-208.0410629999999799
0
LINE
8
BLACK
6
CONTINUOUS
10
203.9530910000000006
20
-208.0410629999999799
11
205.9850909999999828
21
-208.0410629999999799
0
LINE
8
BLACK
6
CONTINUOUS
10
205.9850909999999828
20
-208.0410629999999799
11
205.9850909999999828
21
-202.8594629999999768
0
LINE
8
BLACK
6
CONTINUOUS
10
178.8653060000000039
20
-255.0144459999999924
11
176.8333059999999932
21
-255.0144459999999924
0
LINE
8
BLACK
6
CONTINUOUS
10
176.8333059999999932
20
-255.0144459999999924
11
176.8333059999999932
21
-260.1960459999999671
0
LINE
8
BLACK
6
CONTINUOUS
10
176.8333059999999932
20
-260.1960459999999671
11
178.8653060000000039
21
-260.1960459999999671
0
LINE
8
BLACK
6
CONTINUOUS
10
178.8653060000000039
20
-260.1960459999999671
11
178.8653060000000039
21
-255.0144459999999924
0
LINE
8
BLACK
6
CONTINUOUS
10
248.3217099999999959
20
-217.0128459999999961
11
246.2897099999999853
21
-217.0128459999999961
0
LINE
8
BLACK
6
CONTINUOUS
10
246.2897099999999853
20
-217.0128459999999961
11
246.2897099999999853
21
-222.1944459999999992
0
LINE
8
BLACK
6
CONTINUOUS
10
246.2897099999999853
20
-222.1944459999999992
11
248.3217099999999959
21
-222.1944459999999992
0
LINE
8
BLACK
6
CONTINUOUS
10
248.3217099999999959
20
-222.1944459999999992
11
248.3217099999999959
21
-217.0128459999999961
0
LINE
8
BLACK
6
CONTINUOUS
10
120.844268999999997
20
-257.6525760000000105
11
122.8762689999999935
21
-257.6525760000000105
0
LINE
8
BLACK
6
CONTINUOUS
10
122.8762689999999935
20
-257.6525760000000105
11
122.8762689999999935
21
-252.470975999999979
0
LINE
8
BLACK
6
CONTINUOUS
10
122.8762689999999935
20
-252.470975999999979
11
120.844268999999997
21
-252.470975999999979
0
LINE
8
BLACK
6
CONTINUOUS
10
120.844268999999997
20
-252.470975999999979
11
120.844268999999997
21
-257.6525760000000105
0
LINE
8
BLACK
6
CONTINUOUS
10
227.1327550000000031
20
-224.2231510000000014
11
229.1647549999999853
21
-224.2231510000000014
0
LINE
8
BLACK
6
CONTINUOUS
10
229.1647549999999853
20
-224.2231510000000014
11
229.1647549999999853
21
-219.0415509999999983
0
LINE
8
BLACK
6
CONTINUOUS
10
229.1647549999999853
20
-219.0415509999999983
11
227.1327550000000031
21
-219.0415509999999983
0
LINE
8
BLACK
6
CONTINUOUS
10
227.1327550000000031
20
-219.0415509999999983
11
227.1327550000000031
21
-224.2231510000000014
0
LINE
8
BLACK
6
CONTINUOUS
10
51.3878649999999979
20
-219.6509759999999858
11
53.4198649999999944
21
-219.6509759999999858
0
LINE
8
BLACK
6
CONTINUOUS
10
53.4198649999999944
20
-219.6509759999999858
11
53.4198649999999944
21
-214.4693759999999827
0
LINE
8
BLACK
6
CONTINUOUS
10
53.4198649999999944
20
-214.4693759999999827
11
51.3878649999999979
21
-214.4693759999999827
0
LINE
8
BLACK
6
CONTINUOUS
10
51.3878649999999979
20
-214.4693759999999827
11
51.3878649999999979
21
-219.6509759999999858
0
LINE
8
BLACK
6
CONTINUOUS
10
189.8036809999999832
20
-272.0832459999999742
11
191.8356809999999939
21
-272.0832459999999742
0
LINE
8
BLACK
6
CONTINUOUS
10
191.8356809999999939
20
-272.0832459999999742
11
191.8356809999999939
21
-266.9016459999999711
0
LINE
8
BLACK
6
CONTINUOUS
10
191.8356809999999939
20
-266.9016459999999711
11
189.8036809999999832
21
-266.9016459999999711
0
LINE
8
BLACK
6
CONTINUOUS
10
189.8036809999999832
20
-266.9016459999999711
11
189.8036809999999832
21
-272.0832459999999742
0
LINE
8
BLACK
6
CONTINUOUS
10
231.2557379999999796
20
-242.7594359999999938
11
233.2877379999999903
21
-242.7594359999999938
0
LINE
8
BLACK
6
CONTINUOUS
10
233.2877379999999903
20
-242.7594359999999938
11
233.2877379999999903
21
-237.5778359999999907
0
LINE
8
BLACK
6
CONTINUOUS
10
233.2877379999999903
20
-237.5778359999999907
11
231.2557379999999796
21
-237.5778359999999907
0
LINE
8
BLACK
6
CONTINUOUS
10
231.2557379999999796
20
-237.5778359999999907
11
231.2557379999999796
21
-242.7594359999999938
0
LINE
8
BLACK
6
CONTINUOUS
10
93.7244839999999897
20
-205.0053639999999859
11
95.7564840000000004
21
-205.0053639999999859
0
LINE
8
BLACK
6
CONTINUOUS
10
95.7564840000000004
20
-205.0053639999999859
11
95.7564840000000004
21
-199.8237639999999828
0
LINE
8
BLACK
6
CONTINUOUS
10
95.7564840000000004
20
-199.8237639999999828
11
93.7244839999999897
21
-199.8237639999999828
0
LINE
8
BLACK
6
CONTINUOUS
10
93.7244839999999897
20
-199.8237639999999828
11
93.7244839999999897
21
-205.0053639999999859
0
LINE
8
BLACK
6
CONTINUOUS
10
89.5925840000000022
20
-223.5420379999999909
11
91.6245839999999987
21
-223.5420379999999909
0
LINE
8
BLACK
6
CONTINUOUS
10
91.6245839999999987
20
-223.5420379999999909
11
91.6245839999999987
21
-218.3604379999999878
0
LINE
8
BLACK
6
CONTINUOUS
10
91.6245839999999987
20
-218.3604379999999878
11
89.5925840000000022
21
-218.3604379999999878
0
LINE
8
BLACK
6
CONTINUOUS
10
89.5925840000000022
20
-218.3604379999999878
11
89.5925840000000022
21
-223.5420379999999909
0
LINE
8
BLACK
6
CONTINUOUS
10
55.8456119999999956
20
-200.7745369999999809
11
57.8776119999999992
21
-200.7745369999999809
0
LINE
8
BLACK
6
CONTINUOUS
10
57.8776119999999992
20
-200.7745369999999809
11
57.8776119999999992
21
-195.5929369999999778
0
LINE
8
BLACK
6
CONTINUOUS
10
57.8776119999999992
20
-195.5929369999999778
11
55.8456119999999956
21
-195.5929369999999778
0
LINE
8
BLACK
6
CONTINUOUS
10
55.8456119999999956
20
-195.5929369999999778
11
55.8456119999999956
21
-200.7745369999999809
0
LINE
8
BLACK
6
CONTINUOUS
10
190.2631299999999896
20
-233.8581789999999785
11
192.2951300000000003
21
-233.8581789999999785
0
LINE
8
BLACK
6
CONTINUOUS
10
192.2951300000000003
20
-233.8581789999999785
11
192.2951300000000003
21
-228.6765790000000038
0
LINE
8
BLACK
6
CONTINUOUS
10
192.2951300000000003
20
-228.6765790000000038
11
190.2631299999999896
21
-228.6765790000000038
0
LINE
8
BLACK
6
CONTINUOUS
10
190.2631299999999896
20
-228.6765790000000038
11
190.2631299999999896
21
-233.8581789999999785
0
LINE
8
BLACK
6
CONTINUOUS
10
124.7812119999999965
20
-277.018936999999994
11
126.8132119999999929
21
-277.018936999999994
0
LINE
8
BLACK
6
CONTINUOUS
10
126.8132119999999929
20
-277.018936999999994
11
126.8132119999999929
21
-271.8373369999999909
0
LINE
8
BLACK
6
CONTINUOUS
10
126.8132119999999929
20
-271.8373369999999909
11
124.7812119999999965
21
-271.8373369999999909
0
LINE
8
BLACK
6
CONTINUOUS
10
124.7812119999999965
20
-271.8373369999999909
11
124.7812119999999965
21
-277.018936999999994
0
LINE
8
BLACK
6
CONTINUOUS
10
170.0645409999999913
20
-218.0254970000000014
11
168.0325409999999806
21
-218.0254970000000014
0
LINE
8
BLACK
6
CONTINUOUS
10
168.0325409999999806
20
-218.0254970000000014
11
168.0325409999999806
21
-223.2070969999999761
0
LINE
8
BLACK
6
CONTINUOUS
10
168.0325409999999806
20
-223.2070969999999761
11
170.0645409999999913
21
-223.2070969999999761
0
LINE
8
BLACK
6
CONTINUOUS
10
170.0645409999999913
20
-223.2070969999999761
11
170.0645409999999913
21
-218.0254970000000014
0
LINE
8
BLACK
6
CONTINUOUS
10
252.1629979999999875
20
-235.5548459999999977
11
250.1309979999999769
21
-235.5548459999999977
0
LINE
8
BLACK
6
CONTINUOUS
10
250.1309979999999769
20
-235.5548459999999977
11
250.1309979999999769
21
-240.7364460000000008
0
LINE
8
BLACK
6
CONTINUOUS
10
250.1309979999999769
20
-240.7364460000000008
11
252.1629979999999875
21
-240.7364460000000008
0
LINE
8
BLACK
6
CONTINUOUS
10
252.1629979999999875
20
-240.7364460000000008
11
252.1629979999999875
21
-235.5548459999999977
0
LINE
8
BLACK
6
CONTINUOUS
10
214.2399319999999818
20
-239.933384999999987
11
212.2079319999999996
21
-239.933384999999987
0
LINE
8
BLACK
6
CONTINUOUS
10
212.2079319999999996
20
-239.933384999999987
11
212.2079319999999996
21
-245.1149849999999901
0
LINE
8
BLACK
6
CONTINUOUS
10
212.2079319999999996
20
-245.1149849999999901
11
214.2399319999999818
21
-245.1149849999999901
0
LINE
8
BLACK
6
CONTINUOUS
10
214.2399319999999818
20
-245.1149849999999901
11
214.2399319999999818
21
-239.933384999999987
0
LINE
8
BLACK
6
CONTINUOUS
10
56.1659939999999978
20
-215.0749929999999779
11
58.009055999999994
21
-215.4835899999999924
0
LINE
8
BLACK
6
CONTINUOUS
10
56.7542339999999967
20
-212.4216150000000027
11
56.1659939999999978
21
-215.0749929999999779
0
LINE
8
BLACK
6
CONTINUOUS
10
56.7542339999999967
20
-212.4216150000000027
11
58.597296
21
-212.8302119999999888
0
LINE
8
BLACK
6
CONTINUOUS
10
57.9045159999999939
20
-215.9551400000000001
11
58.6156389999999945
21
-216.1127919999999847
0
LINE
8
BLACK
6
CONTINUOUS
10
58.009055999999994
20
-215.4835899999999924
11
57.9045159999999939
21
-215.9551400000000001
0
LINE
8
BLACK
6
CONTINUOUS
10
58.8886669999999981
20
-211.5159229999999866
11
58.597296
21
-212.8302119999999888
0
LINE
8
BLACK
6
CONTINUOUS
10
59.7068340000000006
20
-216.3542949999999792
11
61.657396999999996
21
-216.787132999999983
0
LINE
8
BLACK
6
CONTINUOUS
10
69.5368629999999968
20
-216.6083249999999794
11
64.2707329999999928
21
-215.4408519999999783
0
LINE
8
BLACK
6
CONTINUOUS
10
69.5368629999999968
20
-216.6083249999999794
11
69.8006599999999935
21
-215.4184139999999843
0
LINE
8
BLACK
6
CONTINUOUS
10
70.3888999999999925
20
-212.7650369999999782
11
70.5188739999999967
21
-212.1787619999999777
0
LINE
8
BLACK
6
CONTINUOUS
10
70.5188739999999967
20
-212.1787619999999777
11
61.1700579999999974
21
-210.1061799999999948
0
LINE
8
BLACK
6
CONTINUOUS
10
71.6437219999999968
20
-215.8270109999999988
11
69.8006599999999935
21
-215.4184139999999843
0
LINE
8
BLACK
6
CONTINUOUS
10
71.6437219999999968
20
-215.8270109999999988
11
72.2319619999999958
21
-213.1736339999999927
0
LINE
8
BLACK
6
CONTINUOUS
10
72.2319619999999958
20
-213.1736339999999927
11
70.3888999999999925
21
-212.7650369999999782
0
ARC
8
BLACK
10
60.7225269999999995
20
-211.9327999999999861
40
1.8806458817993885
50
76.23343004
51
167.19304127
0
ARC
8
BLACK
10
59.021138999999998
20
-216.8665529999999819
40
0.8559123153623857
50
-241.72112903
51
36.76208212
0
ARC
8
BLACK
10
63.7549939999999964
20
-217.6493049999999982
40
2.2678742760552222
50
76.85531712
51
157.65594419
0
CIRCLE
8
BLACK
10
63.977926999999994
20
-217.9776080000000036
40
2.
0
CIRCLE
8
BLACK
10
68.9375110000000006
20
-219.0771209999999769
40
0.85
0
LINE
8
BLACK
6
CONTINUOUS
10
72.5768199999999979
20
-216.4980809999999849
11
70.5448200000000014
21
-216.4980809999999849
0
LINE
8
BLACK
6
CONTINUOUS
10
70.5448200000000014
20
-216.4980809999999849
11
70.5448200000000014
21
-221.679680999999988
0
LINE
8
BLACK
6
CONTINUOUS
10
70.5448200000000014
20
-221.679680999999988
11
72.5768199999999979
21
-221.679680999999988
0
LINE
8
BLACK
6
CONTINUOUS
10
72.5768199999999979
20
-221.679680999999988
11
72.5768199999999979
21
-216.4980809999999849
0
LINE
8
BLACK
6
CONTINUOUS
10
76.6832819999999913
20
-197.936128999999994
11
74.6512819999999948
21
-197.936128999999994
0
LINE
8
BLACK
6
CONTINUOUS
10
74.6512819999999948
20
-197.936128999999994
11
74.6512819999999948
21
-203.1177289999999971
0
LINE
8
BLACK
6
CONTINUOUS
10
74.6512819999999948
20
-203.1177289999999971
11
76.6832819999999913
21
-203.1177289999999971
0
LINE
8
BLACK
6
CONTINUOUS
10
76.6832819999999913
20
-203.1177289999999971
11
76.6832819999999913
21
-197.936128999999994
0
CIRCLE
8
BLACK
10
142.3700159999999926
20
-229.3349369999999965
40
0.85
0
CIRCLE
8
BLACK
10
142.3700159999999926
20
-231.8749369999999885
40
0.85
0
CIRCLE
8
BLACK
10
142.3700159999999926
20
-234.4149369999999806
40
0.85
0
CIRCLE
8
BLACK
10
142.3700159999999926
20
-236.954937000000001
40
0.85
0
CIRCLE
8
BLACK
10
142.3700159999999926
20
-239.4949369999999931
40
0.85
0
CIRCLE
8
BLACK
10
142.3700159999999926
20
-242.0349369999999851
40
0.85
0
CIRCLE
8
BLACK
10
142.3700159999999926
20
-244.5749369999999772
40
0.85
0
CIRCLE
8
BLACK
10
142.3700159999999926
20
-247.1149369999999976
40
0.85
0
CIRCLE
8
BLACK
10
142.3700159999999926
20
-249.6549369999999897
40
0.85
0
CIRCLE
8
BLACK
10
142.3700159999999926
20
-252.1949369999999817
40
0.85
0
CIRCLE
8
BLACK
10
142.3700159999999926
20
-254.7349370000000022
40
0.85
0
CIRCLE
8
BLACK
10
142.3700159999999926
20
-257.2749369999999658
40
0.85
0
CIRCLE
8
BLACK
10
157.6100160000000017
20
-229.3349369999999965
40
0.85
0
CIRCLE
8
BLACK
10
157.6100160000000017
20
-231.8749369999999885
40
0.85
0
CIRCLE
8
BLACK
10
157.6100160000000017
20
-234.4149369999999806
40
0.85
0
CIRCLE
8
BLACK
10
157.6100160000000017
20
-236.954937000000001
40
0.85
0
CIRCLE
8
BLACK
10
157.6100160000000017
20
-239.4949369999999931
40
0.85
0
CIRCLE
8
BLACK
10
157.6100160000000017
20
-242.0349369999999851
40
0.85
0
CIRCLE
8
BLACK
10
157.6100160000000017
20
-244.5749369999999772
40
0.85
0
CIRCLE
8
BLACK
10
157.6100160000000017
20
-247.1149369999999976
40
0.85
0
CIRCLE
8
BLACK
10
157.6100160000000017
20
-249.6549369999999897
40
0.85
0
CIRCLE
8
BLACK
10
157.6100160000000017
20
-252.1949369999999817
40
0.85
0
CIRCLE
8
BLACK
10
157.6100160000000017
20
-254.7349370000000022
40
0.85
0
CIRCLE
8
BLACK
10
157.6100160000000017
20
-257.2749369999999658
40
0.85
0
LINE
8
BLACK
6
CONTINUOUS
10
109.4464449999999971
20
-226.1331089999999904
11
107.4144450000000006
21
-226.1331089999999904
0
LINE
8
BLACK
6
CONTINUOUS
10
107.4144450000000006
20
-226.1331089999999904
11
107.4144450000000006
21
-231.3147089999999935
0
LINE
8
BLACK
6
CONTINUOUS
10
107.4144450000000006
20
-231.3147089999999935
11
109.4464449999999971
21
-231.3147089999999935
0
LINE
8
BLACK
6
CONTINUOUS
10
109.4464449999999971
20
-231.3147089999999935
11
109.4464449999999971
21
-226.1331089999999904
0
LINE
8
BLACK
6
CONTINUOUS
10
125.247493999999989
20
-239.1294800000000009
11
127.2794939999999997
21
-239.1294800000000009
0
LINE
8
BLACK
6
CONTINUOUS
10
127.2794939999999997
20
-239.1294800000000009
11
127.2794939999999997
21
-233.9478799999999978
0
LINE
8
BLACK
6
CONTINUOUS
10
127.2794939999999997
20
-233.9478799999999978
11
125.247493999999989
21
-233.9478799999999978
0
LINE
8
BLACK
6
CONTINUOUS
10
125.247493999999989
20
-233.9478799999999978
11
125.247493999999989
21
-239.1294800000000009
0
LINE
8
BLACK
6
CONTINUOUS
10
129.6450339999999812
20
-220.6636269999999911
11
131.6770339999999919
21
-220.6636269999999911
0
LINE
8
BLACK
6
CONTINUOUS
10
131.6770339999999919
20
-220.6636269999999911
11
131.6770339999999919
21
-215.482026999999988
0
LINE
8
BLACK
6
CONTINUOUS
10
131.6770339999999919
20
-215.482026999999988
11
129.6450339999999812
21
-215.482026999999988
0
LINE
8
BLACK
6
CONTINUOUS
10
129.6450339999999812
20
-215.482026999999988
11
129.6450339999999812
21
-220.6636269999999911
0
LINE
8
BLACK
6
CONTINUOUS
10
250.2587309999999832
20
-232.4456329999999866
11
250.7773119999999949
21
-235.1134989999999902
0
LINE
8
BLACK
6
CONTINUOUS
10
250.2587309999999832
20
-232.4456329999999866
11
252.1118579999999838
21
-232.0854219999999941
0
LINE
8
BLACK
6
CONTINUOUS
10
250.7773119999999949
20
-235.1134989999999902
11
252.6304389999999955
21
-234.7532879999999977
0
LINE
8
BLACK
6
CONTINUOUS
10
251.8549909999999841
20
-230.7639549999999815
11
252.1118579999999838
21
-232.0854219999999941
0
LINE
8
BLACK
6
CONTINUOUS
10
252.6304389999999955
20
-234.7532879999999977
11
252.7225990000000024
21
-235.2274129999999843
0
LINE
8
BLACK
6
CONTINUOUS
10
252.7225990000000024
20
-235.2274129999999843
11
253.4376059999999882
21
-235.0884299999999882
0
LINE
8
BLACK
6
CONTINUOUS
10
254.5345959999999934
20
-234.8747899999999902
11
256.4959729999999922
21
-234.4939430000000016
0
LINE
8
BLACK
6
CONTINUOUS
10
262.7848960000000034
20
-226.7342849999999999
11
253.3850300000000004
21
-228.5614329999999939
0
LINE
8
BLACK
6
CONTINUOUS
10
262.8994779999999878
20
-227.3237609999999904
11
262.7848960000000034
21
-226.7342849999999999
0
LINE
8
BLACK
6
CONTINUOUS
10
263.6506170000000111
20
-231.1880349999999851
11
258.3557309999999916
21
-232.2172569999999894
0
LINE
8
BLACK
6
CONTINUOUS
10
263.6506170000000111
20
-231.1880349999999851
11
263.4180589999999711
21
-229.991626999999994
0
LINE
8
BLACK
6
CONTINUOUS
10
264.75260499999996
20
-226.9635490000000004
11
262.8994779999999878
21
-227.3237609999999904
0
LINE
8
BLACK
6
CONTINUOUS
10
265.2711850000000027
20
-229.6314160000000015
11
263.4180589999999711
21
-229.991626999999994
0
LINE
8
BLACK
6
CONTINUOUS
10
265.2711850000000027
20
-229.6314160000000015
11
264.75260499999996
21
-226.9635490000000004
0
ARC
8
BLACK
10
253.7029780000000017
20
-230.4150049999999794
40
1.8806440531554607
50
-260.26663205
51
-169.30690836
0
ARC
8
BLACK
10
254.1100339999999846
20
-235.6179819999999836
40
0.855913103479553
50
-218.22121830
51
60.26204342
0
ARC
8
BLACK
10
258.7633999999999901
20
-234.4482039999999756
40
2.2678882812982653
50
-259.64438993
51
-178.84437458
0
CIRCLE
8
BLACK
10
259.0987389999999664
20
-234.6603709999999978
40
2.
0
CIRCLE
8
BLACK
10
264.0854049999999802
20
-233.6910609999999906
40
0.85
0
LINE
8
BLACK
6
CONTINUOUS
10
185.6118309999999951
20
-215.3812470000000019
11
187.6438309999999774
21
-215.3812470000000019
0
LINE
8
BLACK
6
CONTINUOUS
10
187.6438309999999774
20
-215.3812470000000019
11
187.6438309999999774
21
-210.1996469999999988
0
LINE
8
BLACK
6
CONTINUOUS
10
187.6438309999999774
20
-210.1996469999999988
11
185.6118309999999951
21
-210.1996469999999988
0
LINE
8
BLACK
6
CONTINUOUS
10
185.6118309999999951
20
-210.1996469999999988
11
185.6118309999999951
21
-215.3812470000000019
0
LINE
8
BLACK
6
CONTINUOUS
10
91.7753689999999978
20
-264.5405430000000138
11
93.4498779999999982
21
-265.4122370000000046
0
LINE
8
BLACK
6
CONTINUOUS
10
93.0303100000000001
20
-262.1298249999999825
11
91.7753689999999978
21
-264.5405430000000138
0
LINE
8
BLACK
6
CONTINUOUS
10
93.0303100000000001
20
-262.1298249999999825
11
94.7048179999999888
21
-263.0015189999999734
0
LINE
8
BLACK
6
CONTINUOUS
10
93.2268539999999888
20
-265.8406620000000089
11
93.8729429999999923
21
-266.1769949999999767
0
LINE
8
BLACK
6
CONTINUOUS
10
93.4498779999999982
20
-265.4122370000000046
11
93.2268539999999888
21
-265.8406620000000089
0
LINE
8
BLACK
6
CONTINUOUS
10
94.8644499999999908
20
-266.692690999999968
11
96.6365229999999968
21
-267.6156229999999709
0
LINE
8
BLACK
6
CONTINUOUS
10
95.3264239999999887
20
-261.8074249999999665
11
94.7048179999999888
21
-263.0015189999999734
0
LINE
8
BLACK
6
CONTINUOUS
10
104.2937819999999931
20
-269.482262999999989
11
99.509254999999996
21
-266.9915960000000155
0
LINE
8
BLACK
6
CONTINUOUS
10
104.2937819999999931
20
-269.482262999999989
11
104.8565609999999992
21
-268.4011739999999691
0
LINE
8
BLACK
6
CONTINUOUS
10
106.1115020000000015
20
-265.9904559999999947
11
106.3887859999999961
21
-265.4577979999999684
0
LINE
8
BLACK
6
CONTINUOUS
10
106.3887859999999961
20
-265.4577979999999684
11
97.8949479999999994
21
-261.036184999999989
0
LINE
8
BLACK
6
CONTINUOUS
10
106.5310699999999997
20
-269.2728679999999599
11
104.8565609999999992
21
-268.4011739999999691
0
LINE
8
BLACK
6
CONTINUOUS
10
106.5310699999999997
20
-269.2728679999999599
11
107.786011000000002
21
-266.8621499999999855
0
LINE
8
BLACK
6
CONTINUOUS
10
107.786011000000002
20
-266.8621499999999855
11
106.1115020000000015
21
-265.9904559999999947
0
ARC
8
BLACK
10
94.0695369999999969
20
-267.0100229999999897
40
0.8559125398035713
50
-256.72120331
51
21.76205401
0
ARC
8
BLACK
10
96.9898969999999991
20
-262.6847239999999601
40
1.880637114684808
50
61.23313142
51
152.19328461
0
ARC
8
BLACK
10
98.4395039999999995
20
-268.9913339999999948
40
2.2678891599639517
50
61.85564311
51
142.65563538
0
CIRCLE
8
BLACK
10
98.569864999999993
20
-269.3661309999999958
40
2.
0
CIRCLE
8
BLACK
10
103.0758799999999979
20
-271.7118140000000039
40
0.85
0
LINE
8
BLACK
6
CONTINUOUS
10
114.0977439999999916
20
-207.6561769999999854
11
112.0657439999999951
21
-207.6561769999999854
0
LINE
8
BLACK
6
CONTINUOUS
10
112.0657439999999951
20
-207.6561769999999854
11
112.0657439999999951
21
-212.8377769999999884
0
LINE
8
BLACK
6
CONTINUOUS
10
112.0657439999999951
20
-212.8377769999999884
11
114.0977439999999916
21
-212.8377769999999884
0
LINE
8
BLACK
6
CONTINUOUS
10
114.0977439999999916
20
-212.8377769999999884
11
114.0977439999999916
21
-207.6561769999999854
0
LINE
8
BLACK
6
CONTINUOUS
10
210.1169909999999845
20
-221.3961369999999818
11
208.0849910000000023
21
-221.3961369999999818
0
LINE
8
BLACK
6
CONTINUOUS
10
208.0849910000000023
20
-221.3961369999999818
11
208.0849910000000023
21
-226.5777369999999848
0
LINE
8
BLACK
6
CONTINUOUS
10
208.0849910000000023
20
-226.5777369999999848
11
210.1169909999999845
21
-226.5777369999999848
0
LINE
8
BLACK
6
CONTINUOUS
10
210.1169909999999845
20
-226.5777369999999848
11
210.1169909999999845
21
-221.3961369999999818
0
LINE
8
BLACK
6
CONTINUOUS
10
243.813163000000003
20
-198.6140069999999866
11
241.7811629999999923
21
-198.6140069999999866
0
LINE
8
BLACK
6
CONTINUOUS
10
241.7811629999999923
20
-198.6140069999999866
11
241.7811629999999923
21
-203.7956069999999897
0
LINE
8
BLACK
6
CONTINUOUS
10
241.7811629999999923
20
-203.7956069999999897
11
243.813163000000003
21
-203.7956069999999897
0
LINE
8
BLACK
6
CONTINUOUS
10
243.813163000000003
20
-203.7956069999999897
11
243.813163000000003
21
-198.6140069999999866
0
CIRCLE
8
BLACK
10
240.4740839999999764
20
-188.8110839999999939
40
1.0999999999999999
0
LINE
8
BLACK
6
CONTINUOUS
10
172.198646999999994
20
-233.382125000000002
11
172.9020649999999932
21
-236.0073179999999979
0
LINE
8
BLACK
6
CONTINUOUS
10
172.198646999999994
20
-233.382125000000002
11
174.0221319999999992
21
-232.8935229999999876
0
LINE
8
BLACK
6
CONTINUOUS
10
172.9020649999999932
20
-236.0073179999999979
11
174.7255509999999958
21
-235.5187179999999785
0
LINE
8
BLACK
6
CONTINUOUS
10
173.6737099999999998
20
-231.5931939999999827
11
174.0221319999999992
21
-232.8935229999999876
0
LINE
8
BLACK
6
CONTINUOUS
10
174.7255509999999958
20
-235.5187179999999785
11
174.8505600000000015
21
-235.9852579999999875
0
LINE
8
BLACK
6
CONTINUOUS
10
174.8505600000000015
20
-235.9852579999999875
11
175.5541299999999865
21
-235.7967369999999789
0
LINE
8
BLACK
6
CONTINUOUS
10
176.633544999999998
20
-235.5070949999999925
11
178.5635779999999784
21
-234.9903579999999863
0
LINE
8
BLACK
6
CONTINUOUS
10
184.2958940000000041
20
-226.8109079999999835
11
175.0463819999999942
21
-229.2893069999999796
0
LINE
8
BLACK
6
CONTINUOUS
10
184.4513179999999863
20
-227.3909549999999911
11
184.2958940000000041
21
-226.8109079999999835
0
LINE
8
BLACK
6
CONTINUOUS
10
185.4701849999999865
20
-231.1934200000000033
11
180.2599919999999827
21
-232.5894869999999912
0
LINE
8
BLACK
6
CONTINUOUS
10
185.4701849999999865
20
-231.1934200000000033
11
185.1547359999999856
21
-230.016147999999987
0
LINE
8
BLACK
6
CONTINUOUS
10
186.2748029999999915
20
-226.9023540000000025
11
184.4513179999999863
21
-227.3909549999999911
0
LINE
8
BLACK
6
CONTINUOUS
10
186.9782209999999907
20
-229.5275469999999984
11
185.1547359999999856
21
-230.016147999999987
0
LINE
8
BLACK
6
CONTINUOUS
10
186.9782209999999907
20
-229.5275469999999984
11
186.2748029999999915
21
-226.9023540000000025
0
ARC
8
BLACK
10
175.4928539999999941
20
-231.1161850000000015
40
1.8806441659221449
50
-256.26663724
51
-165.30691027
0
ARC
8
BLACK
10
176.2618599999999844
20
-236.2780929999999842
40
0.855913345630853
50
-214.22121554
51
64.26207614
0
ARC
8
BLACK
10
180.8222909999999786
20
-234.7865609999999776
40
2.2678883644434529
50
-255.64438224
51
-174.84433149
0
CIRCLE
8
BLACK
10
181.1716129999999794
20
-234.974819999999994
40
2.
0
CIRCLE
8
BLACK
10
186.0785159999999792
20
-233.660018999999977
40
0.85
0
LINE
8
BLACK
6
CONTINUOUS
10
93.3310439999999915
20
-223.9292129999999759
11
95.1545299999999941
21
-224.4178129999999953
0
LINE
8
BLACK
6
CONTINUOUS
10
94.0344630000000024
20
-221.304017999999985
11
93.3310439999999915
21
-223.9292129999999759
0
LINE
8
BLACK
6
CONTINUOUS
10
94.0344630000000024
20
-221.304017999999985
11
95.8579479999999933
21
-221.7926199999999994
0
LINE
8
BLACK
6
CONTINUOUS
10
95.0295210000000026
20
-224.8843540000000019
11
95.73308999999999
21
-225.072874999999982
0
LINE
8
BLACK
6
CONTINUOUS
10
95.1545299999999941
20
-224.4178129999999953
11
95.0295210000000026
21
-224.8843540000000019
0
LINE
8
BLACK
6
CONTINUOUS
10
96.2063699999999926
20
-220.492289999999997
11
95.8579479999999933
21
-221.7926199999999994
0
LINE
8
BLACK
6
CONTINUOUS
10
96.8127119999999906
20
-225.3617459999999824
11
98.7425369999999987
21
-225.8792540000000031
0
LINE
8
BLACK
6
CONTINUOUS
10
106.6223049999999972
20
-226.0443129999999883
11
101.4121109999999959
21
-224.6482460000000003
0
LINE
8
BLACK
6
CONTINUOUS
10
106.6223049999999972
20
-226.0443129999999883
11
106.9377539999999982
21
-224.8670419999999979
0
LINE
8
BLACK
6
CONTINUOUS
10
107.6411719999999974
20
-222.241849000000002
11
107.7965949999999964
21
-221.661800999999997
0
LINE
8
BLACK
6
CONTINUOUS
10
107.7965949999999964
20
-221.661800999999997
11
98.5470830000000007
21
-219.183402000000001
0
LINE
8
BLACK
6
CONTINUOUS
10
108.7612389999999891
20
-225.3556429999999864
11
106.9377539999999982
21
-224.8670419999999979
0
LINE
8
BLACK
6
CONTINUOUS
10
108.7612389999999891
20
-225.3556429999999864
11
109.4646569999999883
21
-222.7304499999999905
0
LINE
8
BLACK
6
CONTINUOUS
10
109.4646569999999883
20
-222.7304499999999905
11
107.6411719999999974
21
-222.241849000000002
0
ARC
8
BLACK
10
98.0202969999999993
20
-220.9887589999999875
40
1.8806415472625291
50
73.73325727
51
164.69310226
0
ARC
8
BLACK
10
96.1053249999999935
20
-225.8436069999999916
40
0.8559126071568288
50
-244.22117869
51
34.26208112
0
ARC
8
BLACK
10
100.8005319999999898
20
-226.8321039999999869
40
2.2678771004013867
50
74.35535087
51
155.15590204
0
CIRCLE
8
BLACK
10
101.0089320000000015
20
-227.1698159999999973
40
2.
0
CIRCLE
8
BLACK
10
105.9158350000000013
20
-228.4846169999999859
40
0.85
0
CIRCLE
8
BLACK
10
59.5259399999999985
20
-188.8110839999999939
40
1.0999999999999999
0
LINE
8
BLACK
6
CONTINUOUS
10
174.4620809999999835
20
-236.4913499999999829
11
172.4300810000000013
21
-236.4913499999999829
0
LINE
8
BLACK
6
CONTINUOUS
10
172.4300810000000013
20
-236.4913499999999829
11
172.4300810000000013
21
-241.6729499999999859
0
LINE
8
BLACK
6
CONTINUOUS
10
172.4300810000000013
20
-241.6729499999999859
11
174.4620809999999835
21
-241.6729499999999859
0
LINE
8
BLACK
6
CONTINUOUS
10
174.4620809999999835
20
-241.6729499999999859
11
174.4620809999999835
21
-236.4913499999999829
0
LINE
8
BLACK
6
CONTINUOUS
10
97.986542
20
-205.4481519999999932
11
99.8100279999999884
21
-205.9367519999999843
0
LINE
8
BLACK
6
CONTINUOUS
10
98.6899609999999967
20
-202.8229570000000024
11
97.986542
21
-205.4481519999999932
0
LINE
8
BLACK
6
CONTINUOUS
10
98.6899609999999967
20
-202.8229570000000024
11
100.5134460000000018
21
-203.3115589999999884
0
LINE
8
BLACK
6
CONTINUOUS
10
99.6850189999999969
20
-206.4032929999999908
11
100.3885879999999986
21
-206.5918139999999994
0
LINE
8
BLACK
6
CONTINUOUS
10
99.8100279999999884
20
-205.9367519999999843
11
99.6850189999999969
21
-206.4032929999999908
0
LINE
8
BLACK
6
CONTINUOUS
10
100.8618680000000012
20
-202.0112289999999859
11
100.5134460000000018
21
-203.3115589999999884
0
LINE
8
BLACK
6
CONTINUOUS
10
101.4682099999999991
20
-206.8806849999999997
11
103.398034999999993
21
-207.398192999999992
0
LINE
8
BLACK
6
CONTINUOUS
10
111.2778029999999916
20
-207.5632519999999772
11
106.0676089999999903
21
-206.1671849999999893
0
LINE
8
BLACK
6
CONTINUOUS
10
111.2778029999999916
20
-207.5632519999999772
11
111.5932519999999926
21
-206.3859809999999868
0
LINE
8
BLACK
6
CONTINUOUS
10
112.2966699999999918
20
-203.7607879999999909
11
112.4520929999999908
21
-203.1807399999999859
0
LINE
8
BLACK
6
CONTINUOUS
10
112.4520929999999908
20
-203.1807399999999859
11
103.202580999999995
21
-200.7023409999999899
0
LINE
8
BLACK
6
CONTINUOUS
10
113.4167369999999977
20
-206.8745820000000037
11
111.5932519999999926
21
-206.3859809999999868
0
LINE
8
BLACK
6
CONTINUOUS
10
113.4167369999999977
20
-206.8745820000000037
11
114.1201549999999969
21
-204.2493889999999794
0
LINE
8
BLACK
6
CONTINUOUS
10
114.1201549999999969
20
-204.2493889999999794
11
112.2966699999999918
21
-203.7607879999999909
0
ARC
8
BLACK
10
102.6757949999999937
20
-202.5076980000000049
40
1.8806415472625291
50
73.73325727
51
164.69310226
0
ARC
8
BLACK
10
100.760823000000002
20
-207.3625459999999805
40
0.8559126071568288
50
-244.22117869
51
34.26208112
0
ARC
8
BLACK
10
105.4560299999999984
20
-208.3510430000000042
40
2.2678771004013867
50
74.35535087
51
155.15590204
0
CIRCLE
8
BLACK
10
105.6644299999999959
20
-208.6887549999999862
40
2.
0
CIRCLE
8
BLACK
10
110.5713329999999956
20
-210.0035560000000032
40
0.85
0
LINE
8
BLACK
6
CONTINUOUS
10
33.0160470000000004
20
-231.9632429999999772
11
34.869174000000001
21
-232.3234539999999981
0
LINE
8
BLACK
6
CONTINUOUS
10
33.5346279999999979
20
-229.295377000000002
11
33.0160470000000004
21
-231.9632429999999772
0
LINE
8
BLACK
6
CONTINUOUS
10
33.5346279999999979
20
-229.295377000000002
11
35.3877549999999985
21
-229.6555879999999945
0
LINE
8
BLACK
6
CONTINUOUS
10
34.7770129999999966
20
-232.7975789999999847
11
35.4920199999999966
21
-232.9365619999999808
0
LINE
8
BLACK
6
CONTINUOUS
10
34.869174000000001
20
-232.3234539999999981
11
34.7770129999999966
21
-232.7975789999999847
0
LINE
8
BLACK
6
CONTINUOUS
10
35.6446219999999983
20
-228.3341209999999819
11
35.3877549999999985
21
-229.6555879999999945
0
LINE
8
BLACK
6
CONTINUOUS
10
36.5891620000000017
20
-233.1494189999999946
11
38.5503870000000006
21
-233.5310489999999959
0
LINE
8
BLACK
6
CONTINUOUS
10
46.4224729999999965
20
-233.1460409999999968
11
41.1275860000000009
21
-232.1168189999999925
0
LINE
8
BLACK
6
CONTINUOUS
10
46.4224729999999965
20
-233.1460409999999968
11
46.655031000000001
21
-231.9496329999999773
0
LINE
8
BLACK
6
CONTINUOUS
10
47.1736110000000011
20
-229.2817659999999762
11
47.2881939999999972
21
-228.6922899999999856
0
LINE
8
BLACK
6
CONTINUOUS
10
47.2881939999999972
20
-228.6922899999999856
11
37.8883280000000013
21
-226.8651409999999942
0
LINE
8
BLACK
6
CONTINUOUS
10
48.5081569999999971
20
-232.3098439999999982
11
46.655031000000001
21
-231.9496329999999773
0
LINE
8
BLACK
6
CONTINUOUS
10
48.5081569999999971
20
-232.3098439999999982
11
49.0267379999999946
21
-229.6419779999999946
0
LINE
8
BLACK
6
CONTINUOUS
10
49.0267379999999946
20
-229.6419779999999946
11
47.1736110000000011
21
-229.2817659999999762
0
ARC
8
BLACK
10
37.4887659999999983
20
-228.7028509999999812
40
1.8806458745962782
50
77.73344521
51
168.69301911
0
ARC
8
BLACK
10
35.9171109999999985
20
-233.6794510000000002
40
0.8559126518664156
50
-240.22123404
51
38.26207590
0
ARC
8
BLACK
10
40.6698439999999977
20
-234.3380329999999958
40
2.2678891399504075
50
78.35564562
51
159.15565104
0
CIRCLE
8
BLACK
10
40.9012850000000014
20
-234.6603709999999978
40
2.
0
CIRCLE
8
BLACK
10
45.887951000000001
20
-235.6296809999999766
40
0.85
0
LINE
8
BLACK
6
CONTINUOUS
10
37.0226070000000007
20
-213.5039809999999818
11
38.8757340000000013
21
-213.8641920000000027
0
LINE
8
BLACK
6
CONTINUOUS
10
37.5411879999999982
20
-210.8361149999999782
11
37.0226070000000007
21
-213.5039809999999818
0
LINE
8
BLACK
6
CONTINUOUS
10
37.5411879999999982
20
-210.8361149999999782
11
39.3943149999999989
21
-211.1963259999999991
0
LINE
8
BLACK
6
CONTINUOUS
10
38.783572999999997
20
-214.3383169999999893
11
39.4985799999999969
21
-214.4772999999999854
0
LINE
8
BLACK
6
CONTINUOUS
10
38.8757340000000013
20
-213.8641920000000027
11
38.783572999999997
21
-214.3383169999999893
0
LINE
8
BLACK
6
CONTINUOUS
10
39.6511819999999986
20
-209.8748589999999865
11
39.3943149999999989
21
-211.1963259999999991
0
LINE
8
BLACK
6
CONTINUOUS
10
40.595721999999995
20
-214.6901569999999992
11
42.556947000000001
21
-215.0717870000000005
0
LINE
8
BLACK
6
CONTINUOUS
10
50.4290329999999969
20
-214.6867790000000014
11
45.1341460000000012
21
-213.6575569999999971
0
LINE
8
BLACK
6
CONTINUOUS
10
50.4290329999999969
20
-214.6867790000000014
11
50.6615909999999943
21
-213.4903709999999819
0
LINE
8
BLACK
6
CONTINUOUS
10
51.1801709999999943
20
-210.8225039999999808
11
51.2947539999999975
21
-210.2330279999999902
0
LINE
8
BLACK
6
CONTINUOUS
10
51.2947539999999975
20
-210.2330279999999902
11
41.8948879999999946
21
-208.4058789999999988
0
LINE
8
BLACK
6
CONTINUOUS
10
52.5147169999999974
20
-213.8505820000000028
11
50.6615909999999943
21
-213.4903709999999819
0
LINE
8
BLACK
6
CONTINUOUS
10
52.5147169999999974
20
-213.8505820000000028
11
53.0332979999999949
21
-211.1827159999999992
0
LINE
8
BLACK
6
CONTINUOUS
10
53.0332979999999949
20
-211.1827159999999992
11
51.1801709999999943
21
-210.8225039999999808
0
ARC
8
BLACK
10
41.4953259999999986
20
-210.2435889999999858
40
1.8806458745962782
50
77.73344521
51
168.69301911
0
ARC
8
BLACK
10
39.9236709999999988
20
-215.2201889999999764
40
0.8559126518664156
50
-240.22123404
51
38.26207590
0
ARC
8
BLACK
10
44.676403999999998
20
-215.8787710000000004
40
2.2678891399504075
50
78.35564562
51
159.15565104
0
CIRCLE
8
BLACK
10
44.9078449999999947
20
-216.2011090000000024
40
2.
0
CIRCLE
8
BLACK
10
49.8945109999999943
20
-217.1704189999999812
40
0.85
0
LINE
8
BLACK
6
CONTINUOUS
10
71.1005329999999987
20
-235.4911620000000028
11
72.943595000000002
21
-235.8997589999999889
0
LINE
8
BLACK
6
CONTINUOUS
10
71.6887729999999976
20
-232.8377839999999992
11
71.1005329999999987
21
-235.4911620000000028
0
LINE
8
BLACK
6
CONTINUOUS
10
71.6887729999999976
20
-232.8377839999999992
11
73.5318350000000009
21
-233.2463809999999853
0
LINE
8
BLACK
6
CONTINUOUS
10
72.8390550000000019
20
-236.3713089999999966
11
73.5501780000000025
21
-236.5289609999999811
0
LINE
8
BLACK
6
CONTINUOUS
10
72.943595000000002
20
-235.8997589999999889
11
72.8390550000000019
21
-236.3713089999999966
0
LINE
8
BLACK
6
CONTINUOUS
10
73.823205999999999
20
-231.932091999999983
11
73.5318350000000009
21
-233.2463809999999853
0
LINE
8
BLACK
6
CONTINUOUS
10
74.6413730000000015
20
-236.7704639999999756
11
76.5919359999999898
21
-237.2033019999999794
0
LINE
8
BLACK
6
CONTINUOUS
10
84.4714019999999977
20
-237.0244939999999758
11
79.2052719999999937
21
-235.8570210000000031
0
LINE
8
BLACK
6
CONTINUOUS
10
84.4714019999999977
20
-237.0244939999999758
11
84.7351989999999944
21
-235.8345829999999808
0
LINE
8
BLACK
6
CONTINUOUS
10
85.3234389999999934
20
-233.1812060000000031
11
85.4534129999999976
21
-232.5949310000000025
0
LINE
8
BLACK
6
CONTINUOUS
10
85.4534129999999976
20
-232.5949310000000025
11
76.1045969999999983
21
-230.5223489999999913
0
LINE
8
BLACK
6
CONTINUOUS
10
86.5782609999999977
20
-236.2431799999999953
11
84.7351989999999944
21
-235.8345829999999808
0
LINE
8
BLACK
6
CONTINUOUS
10
86.5782609999999977
20
-236.2431799999999953
11
87.1665009999999967
21
-233.5898029999999892
0
LINE
8
BLACK
6
CONTINUOUS
10
87.1665009999999967
20
-233.5898029999999892
11
85.3234389999999934
21
-233.1812060000000031
0
ARC
8
BLACK
10
75.6570660000000004
20
-232.3489689999999825
40
1.8806458817993885
50
76.23343004
51
167.19304127
0
ARC
8
BLACK
10
73.9556779999999918
20
-237.2827219999999784
40
0.8559123153623857
50
-241.72112903
51
36.76208212
0
ARC
8
BLACK
10
78.6895329999999973
20
-238.0654739999999947
40
2.2678742760552222
50
76.85531712
51
157.65594419
0
CIRCLE
8
BLACK
10
78.9124659999999949
20
-238.393777
40
2.
0
CIRCLE
8
BLACK
10
83.8720500000000015
20
-239.4932900000000018
40
0.85
0
LINE
8
BLACK
6
CONTINUOUS
10
41.2518230000000017
20
-194.5990400000000022
11
43.0948849999999979
21
-195.0076369999999883
0
LINE
8
BLACK
6
CONTINUOUS
10
41.8400630000000007
20
-191.9456619999999987
11
41.2518230000000017
21
-194.5990400000000022
0
LINE
8
BLACK
6
CONTINUOUS
10
41.8400630000000007
20
-191.9456619999999987
11
43.6831249999999969
21
-192.3542589999999848
0
LINE
8
BLACK
6
CONTINUOUS
10
42.9903449999999978
20
-195.479186999999996
11
43.7014679999999984
21
-195.6368389999999806
0
LINE
8
BLACK
6
CONTINUOUS
10
43.0948849999999979
20
-195.0076369999999883
11
42.9903449999999978
21
-195.479186999999996
0
LINE
8
BLACK
6
CONTINUOUS
10
43.9744959999999949
20
-191.0399699999999825
11
43.6831249999999969
21
-192.3542589999999848
0
LINE
8
BLACK
6
CONTINUOUS
10
44.7926629999999975
20
-195.8783420000000035
11
46.7432259999999999
21
-196.3111799999999789
0
LINE
8
BLACK
6
CONTINUOUS
10
54.6226920000000007
20
-196.1323720000000037
11
49.3565619999999967
21
-194.9648990000000026
0
LINE
8
BLACK
6
CONTINUOUS
10
54.6226920000000007
20
-196.1323720000000037
11
54.8864889999999974
21
-194.9424609999999802
0
LINE
8
BLACK
6
CONTINUOUS
10
55.4747289999999964
20
-192.2890840000000026
11
55.6047030000000007
21
-191.702809000000002
0
LINE
8
BLACK
6
CONTINUOUS
10
55.6047030000000007
20
-191.702809000000002
11
46.2558870000000013
21
-189.6302269999999908
0
LINE
8
BLACK
6
CONTINUOUS
10
56.7295510000000007
20
-195.3510579999999948
11
54.8864889999999974
21
-194.9424609999999802
0
LINE
8
BLACK
6
CONTINUOUS
10
56.7295510000000007
20
-195.3510579999999948
11
57.3177909999999997
21
-192.6976809999999887
0
LINE
8
BLACK
6
CONTINUOUS
10
57.3177909999999997
20
-192.6976809999999887
11
55.4747289999999964
21
-192.2890840000000026
0
ARC
8
BLACK
10
45.8083559999999963
20
-191.456846999999982
40
1.8806458817993885
50
76.23343004
51
167.19304127
0
ARC
8
BLACK
10
44.1069679999999948
20
-196.3905999999999779
40
0.8559123153623857
50
-241.72112903
51
36.76208212
0
ARC
8
BLACK
10
48.8408230000000003
20
-197.1733519999999942
40
2.2678742760552222
50
76.85531712
51
157.65594419
0
CIRCLE
8
BLACK
10
49.0637559999999979
20
-197.5016549999999995
40
2.
0
CIRCLE
8
BLACK
10
54.0233399999999975
20
-198.6011680000000013
40
0.85
0
LINE
8
BLACK
6
CONTINUOUS
10
203.9678639999999916
20
-199.3117979999999818
11
204.5561040000000048
21
-201.9651759999999854
0
LINE
8
BLACK
6
CONTINUOUS
10
203.9678639999999916
20
-199.3117979999999818
11
205.8109269999999924
21
-198.9032009999999957
0
LINE
8
BLACK
6
CONTINUOUS
10
204.5561040000000048
20
-201.9651759999999854
11
206.3991659999999797
21
-201.5565789999999993
0
LINE
8
BLACK
6
CONTINUOUS
10
205.5195559999999944
20
-197.5889119999999934
11
205.8109269999999924
21
-198.9032009999999957
0
LINE
8
BLACK
6
CONTINUOUS
10
206.3991659999999797
20
-201.5565789999999993
11
206.5037049999999965
21
-202.0281289999999785
0
LINE
8
BLACK
6
CONTINUOUS
10
206.5037049999999965
20
-202.0281289999999785
11
207.2148299999999779
21
-201.8704759999999965
0
LINE
8
BLACK
6
CONTINUOUS
10
208.3058519999999874
20
-201.6281939999999793
11
210.2565869999999961
21
-201.1961349999999982
0
LINE
8
BLACK
6
CONTINUOUS
10
216.3402309999999886
20
-193.2745099999999923
11
206.9914149999999893
21
-195.347093000000001
0
LINE
8
BLACK
6
CONTINUOUS
10
216.4702049999999929
20
-193.8607849999999928
11
216.3402309999999886
21
-193.2745099999999923
0
LINE
8
BLACK
6
CONTINUOUS
10
217.3222409999999911
20
-197.704072999999994
11
212.0561109999999871
21
-198.871545999999995
0
LINE
8
BLACK
6
CONTINUOUS
10
217.3222409999999911
20
-197.704072999999994
11
217.0584439999999802
21
-196.5141619999999989
0
LINE
8
BLACK
6
CONTINUOUS
10
218.3132669999999962
20
-193.4521879999999783
11
216.4702049999999929
21
-193.8607849999999928
0
LINE
8
BLACK
6
CONTINUOUS
10
218.9015059999999835
20
-196.1055649999999844
11
217.0584439999999802
21
-196.5141619999999989
0
LINE
8
BLACK
6
CONTINUOUS
10
218.9015059999999835
20
-196.1055649999999844
11
218.3132669999999962
21
-193.4521879999999783
0
ARC
8
BLACK
10
207.3577729999999804
20
-197.1917059999999822
40
1.8806420035522442
50
-258.76668354
51
-167.80686631
0
ARC
8
BLACK
10
207.900890000000004
20
-202.3822449999999833
40
0.8559130400017282
50
-216.72123450
51
61.76204226
0
ARC
8
BLACK
10
212.5220379999999807
20
-201.091054999999983
40
2.267886690247332
50
-258.14442135
51
-177.34431317
0
CIRCLE
8
BLACK
10
212.8628180000000043
20
-201.2943729999999789
40
2.
0
CIRCLE
8
BLACK
10
217.8224019999999825
20
-200.1948599999999772
40
0.85
0
LINE
8
BLACK
6
CONTINUOUS
10
227.1271429999999896
20
-215.9950329999999781
11
227.7153830000000028
21
-218.6484109999999816
0
LINE
8
BLACK
6
CONTINUOUS
10
227.1271429999999896
20
-215.9950329999999781
11
228.9702059999999904
21
-215.586435999999992
0
LINE
8
BLACK
6
CONTINUOUS
10
227.7153830000000028
20
-218.6484109999999816
11
229.5584449999999777
21
-218.2398139999999955
0
LINE
8
BLACK
6
CONTINUOUS
10
228.6788349999999923
20
-214.2721469999999897
11
228.9702059999999904
21
-215.586435999999992
0
LINE
8
BLACK
6
CONTINUOUS
10
229.5584449999999777
20
-218.2398139999999955
11
229.6629839999999945
21
-218.7113640000000032
0
LINE
8
BLACK
6
CONTINUOUS
10
229.6629839999999945
20
-218.7113640000000032
11
230.3741089999999758
21
-218.5537109999999927
0
LINE
8
BLACK
6
CONTINUOUS
10
231.4651309999999853
20
-218.311429000000004
11
233.4158659999999941
21
-217.8793699999999944
0
LINE
8
BLACK
6
CONTINUOUS
10
239.4995099999999866
20
-209.9577449999999885
11
230.1506939999999872
21
-212.0303279999999972
0
LINE
8
BLACK
6
CONTINUOUS
10
239.6294839999999908
20
-210.5440199999999891
11
239.4995099999999866
21
-209.9577449999999885
0
LINE
8
BLACK
6
CONTINUOUS
10
240.4815199999999891
20
-214.3873079999999902
11
235.2153899999999851
21
-215.5547809999999913
0
LINE
8
BLACK
6
CONTINUOUS
10
240.4815199999999891
20
-214.3873079999999902
11
240.2177229999999781
21
-213.1973969999999952
0
LINE
8
BLACK
6
CONTINUOUS
10
241.4725459999999941
20
-210.135423000000003
11
239.6294839999999908
21
-210.5440199999999891
0
LINE
8
BLACK
6
CONTINUOUS
10
242.0607849999999814
20
-212.7887999999999806
11
240.2177229999999781
21
-213.1973969999999952
0
LINE
8
BLACK
6
CONTINUOUS
10
242.0607849999999814
20
-212.7887999999999806
11
241.4725459999999941
21
-210.135423000000003
0
ARC
8
BLACK
10
230.5170519999999783
20
-213.8749409999999784
40
1.8806420035522442
50
-258.76668354
51
-167.80686631
0
ARC
8
BLACK
10
231.0601690000000019
20
-219.0654799999999796
40
0.8559130400017282
50
-216.72123450
51
61.76204226
0
ARC
8
BLACK
10
235.6813169999999786
20
-217.7742899999999793
40
2.267886690247332
50
-258.14442135
51
-177.34431317
0
CIRCLE
8
BLACK
10
236.0220970000000023
20
-217.9776080000000036
40
2.
0
CIRCLE
8
BLACK
10
240.9816809999999805
20
-216.8780950000000018
40
0.85
0
CIRCLE
8
BLACK
10
49.8381789999999967
20
-245.2689939999999922
40
1.0999999999999999
0
CIRCLE
8
BLACK
10
171.7499459999999942
20
-206.3336549999999932
40
1.0999999999999999
0
LINE
8
BLACK
6
CONTINUOUS
10
52.053726999999995
20
-233.6242249999999956
11
53.8967889999999983
21
-234.0328219999999817
0
LINE
8
BLACK
6
CONTINUOUS
10
52.6419670000000011
20
-230.970846999999992
11
52.053726999999995
21
-233.6242249999999956
0
LINE
8
BLACK
6
CONTINUOUS
10
52.6419670000000011
20
-230.970846999999992
11
54.4850289999999973
21
-231.3794439999999781
0
LINE
8
BLACK
6
CONTINUOUS
10
53.7922489999999982
20
-234.5043719999999894
11
54.5033719999999988
21
-234.6620240000000024
0
LINE
8
BLACK
6
CONTINUOUS
10
53.8967889999999983
20
-234.0328219999999817
11
53.7922489999999982
21
-234.5043719999999894
0
LINE
8
BLACK
6
CONTINUOUS
10
54.7763999999999953
20
-230.0651549999999759
11
54.4850289999999973
21
-231.3794439999999781
0
LINE
8
BLACK
6
CONTINUOUS
10
55.5945669999999978
20
-234.9035269999999969
11
57.5451300000000003
21
-235.3363650000000007
0
LINE
8
BLACK
6
CONTINUOUS
10
65.424595999999994
20
-235.1575569999999971
11
60.1584659999999971
21
-233.990083999999996
0
LINE
8
BLACK
6
CONTINUOUS
10
65.424595999999994
20
-235.1575569999999971
11
65.6883929999999907
21
-233.967646000000002
0
LINE
8
BLACK
6
CONTINUOUS
10
66.2766330000000039
20
-231.3142689999999959
11
66.4066069999999939
21
-230.7279939999999954
0
LINE
8
BLACK
6
CONTINUOUS
10
66.4066069999999939
20
-230.7279939999999954
11
57.0577909999999946
21
-228.6554119999999841
0
LINE
8
BLACK
6
CONTINUOUS
10
67.531454999999994
20
-234.3762429999999881
11
65.6883929999999907
21
-233.967646000000002
0
LINE
8
BLACK
6
CONTINUOUS
10
67.531454999999994
20
-234.3762429999999881
11
68.119694999999993
21
-231.722865999999982
0
LINE
8
BLACK
6
CONTINUOUS
10
68.119694999999993
20
-231.722865999999982
11
66.2766330000000039
21
-231.3142689999999959
0
ARC
8
BLACK
10
56.6102599999999967
20
-230.4820319999999754
40
1.8806458817993885
50
76.23343004
51
167.19304127
0
ARC
8
BLACK
10
54.9088719999999952
20
-235.4157849999999996
40
0.8559123153623857
50
-241.72112903
51
36.76208212
0
ARC
8
BLACK
10
59.6427270000000007
20
-236.1985369999999875
40
2.2678742760552222
50
76.85531712
51
157.65594419
0
CIRCLE
8
BLACK
10
59.8656599999999983
20
-236.5268399999999929
40
2.
0
CIRCLE
8
BLACK
10
64.8252439999999979
20
-237.6263529999999946
40
0.85
0
LINE
8
BLACK
6
CONTINUOUS
10
192.3251659999999958
20
-269.7532939999999826
11
193.5801060000000007
21
-272.1640120000000138
0
LINE
8
BLACK
6
CONTINUOUS
10
192.3251659999999958
20
-269.7532939999999826
11
193.9996739999999988
21
-268.8815999999999917
0
LINE
8
BLACK
6
CONTINUOUS
10
193.3780679999999847
20
-267.6875059999999849
11
193.9996739999999988
21
-268.8815999999999917
0
LINE
8
BLACK
6
CONTINUOUS
10
193.5801060000000007
20
-272.1640120000000138
11
195.2546150000000011
21
-271.2923179999999661
0
LINE
8
BLACK
6
CONTINUOUS
10
195.2546150000000011
20
-271.2923179999999661
11
195.4776389999999822
21
-271.7207439999999679
0
LINE
8
BLACK
6
CONTINUOUS
10
195.4776389999999822
20
-271.7207439999999679
11
196.1237279999999998
21
-271.3844110000000001
0
LINE
8
BLACK
6
CONTINUOUS
10
197.1148670000000038
20
-270.8680069999999773
11
198.8873079999999902
21
-269.9457820000000083
0
LINE
8
BLACK
6
CONTINUOUS
10
202.7133879999999806
20
-260.7195179999999937
11
194.2195499999999981
21
-265.1411299999999756
0
LINE
8
BLACK
6
CONTINUOUS
10
202.9906729999999868
20
-261.2521759999999631
11
202.7133879999999806
21
-260.7195179999999937
0
LINE
8
BLACK
6
CONTINUOUS
10
204.6651809999999898
20
-260.3804819999999722
11
202.9906729999999868
21
-261.2521759999999631
0
LINE
8
BLACK
6
CONTINUOUS
10
204.8083929999999953
20
-264.7439840000000117
11
200.0238659999999982
21
-267.2346509999999853
0
LINE
8
BLACK
6
CONTINUOUS
10
204.8083929999999953
20
-264.7439840000000117
11
204.2456129999999916
21
-263.6628939999999943
0
LINE
8
BLACK
6
CONTINUOUS
10
205.9201219999999921
20
-262.7912000000000035
11
204.2456129999999916
21
-263.6628939999999943
0
LINE
8
BLACK
6
CONTINUOUS
10
205.9201219999999921
20
-262.7912000000000035
11
204.6651809999999898
21
-260.3804819999999722
0
ARC
8
BLACK
10
195.0508449999999812
20
-266.8280699999999683
40
1.8806416803381232
50
-243.76671543
51
-152.80689901
0
ARC
8
BLACK
10
196.9188669999999775
20
-271.7011759999999754
40
0.8559127190087783
50
-201.72119439
51
76.76207122
0
ARC
8
BLACK
10
201.0483689999999797
20
-269.2579409999999598
40
2.2678866565598024
50
-243.14439834
51
-162.34432219
0
CIRCLE
8
BLACK
10
201.4301590000000033
20
-269.3661309999999958
40
2.
0
CIRCLE
8
BLACK
10
205.9361739999999941
20
-267.0204479999999876
40
0.85
0
LINE
8
BLACK
6
CONTINUOUS
10
60.2782589999999985
20
-196.5257579999999962
11
62.1213209999999947
21
-196.9343549999999823
0
LINE
8
BLACK
6
CONTINUOUS
10
60.8664989999999975
20
-193.8723799999999926
11
60.2782589999999985
21
-196.5257579999999962
0
LINE
8
BLACK
6
CONTINUOUS
10
60.8664989999999975
20
-193.8723799999999926
11
62.7095609999999937
21
-194.2809769999999787
0
LINE
8
BLACK
6
CONTINUOUS
10
62.0167809999999946
20
-197.40590499999999
11
62.7279039999999952
21
-197.563557000000003
0
LINE
8
BLACK
6
CONTINUOUS
10
62.1213209999999947
20
-196.9343549999999823
11
62.0167809999999946
21
-197.40590499999999
0
LINE
8
BLACK
6
CONTINUOUS
10
63.0009319999999988
20
-192.9666880000000049
11
62.7095609999999937
21
-194.2809769999999787
0
LINE
8
BLACK
6
CONTINUOUS
10
63.8190989999999942
20
-197.8050599999999974
11
65.7696619999999967
21
-198.2378980000000013
0
LINE
8
BLACK
6
CONTINUOUS
10
73.6491279999999904
20
-198.0590899999999976
11
68.3829980000000006
21
-196.8916169999999966
0
LINE
8
BLACK
6
CONTINUOUS
10
73.6491279999999904
20
-198.0590899999999976
11
73.9129250000000013
21
-196.8691790000000026
0
LINE
8
BLACK
6
CONTINUOUS
10
74.5011650000000003
20
-194.2158019999999965
11
74.6311389999999903
21
-193.629526999999996
0
LINE
8
BLACK
6
CONTINUOUS
10
74.6311389999999903
20
-193.629526999999996
11
65.282322999999991
21
-191.5569449999999847
0
LINE
8
BLACK
6
CONTINUOUS
10
75.7559869999999904
20
-197.2777759999999887
11
73.9129250000000013
21
-196.8691790000000026
0
LINE
8
BLACK
6
CONTINUOUS
10
75.7559869999999904
20
-197.2777759999999887
11
76.3442270000000036
21
-194.6243989999999826
0
LINE
8
BLACK
6
CONTINUOUS
10
76.3442270000000036
20
-194.6243989999999826
11
74.5011650000000003
21
-194.2158019999999965
0
ARC
8
BLACK
10
64.8347919999999931
20
-193.3835650000000044
40
1.8806458817993885
50
76.23343004
51
167.19304127
0
ARC
8
BLACK
10
63.1334039999999987
20
-198.3173180000000002
40
0.8559123153623857
50
-241.72112903
51
36.76208212
0
ARC
8
BLACK
10
67.86725899999999
20
-199.1000699999999881
40
2.2678742760552222
50
76.85531712
51
157.65594419
0
CIRCLE
8
BLACK
10
68.0901920000000018
20
-199.4283729999999935
40
2.
0
CIRCLE
8
BLACK
10
73.0497759999999943
20
-200.5278859999999952
40
0.85
0
CIRCLE
8
BLACK
10
250.1618449999999996
20
-245.2689939999999922
40
1.0999999999999999
0
LINE
8
BLACK
6
CONTINUOUS
10
115.5622369999999961
20
-213.263953999999984
11
117.3857229999999987
21
-213.7525540000000035
0
LINE
8
BLACK
6
CONTINUOUS
10
116.2656559999999928
20
-210.6387589999999932
11
115.5622369999999961
21
-213.263953999999984
0
LINE
8
BLACK
6
CONTINUOUS
10
116.2656559999999928
20
-210.6387589999999932
11
118.0891409999999979
21
-211.1273609999999792
0
LINE
8
BLACK
6
CONTINUOUS
10
117.260713999999993
20
-214.2190949999999816
11
117.9642829999999947
21
-214.4076159999999902
0
LINE
8
BLACK
6
CONTINUOUS
10
117.3857229999999987
20
-213.7525540000000035
11
117.260713999999993
21
-214.2190949999999816
0
LINE
8
BLACK
6
CONTINUOUS
10
118.4375629999999973
20
-209.8270309999999768
11
118.0891409999999979
21
-211.1273609999999792
0
LINE
8
BLACK
6
CONTINUOUS
10
119.0439049999999952
20
-214.6964869999999905
11
120.9737299999999891
21
-215.2139949999999828
0
LINE
8
BLACK
6
CONTINUOUS
10
128.8534980000000019
20
-215.3790539999999964
11
123.6433040000000005
21
-213.9829869999999801
0
LINE
8
BLACK
6
CONTINUOUS
10
128.8534980000000019
20
-215.3790539999999964
11
129.1689470000000028
21
-214.2017829999999776
0
LINE
8
BLACK
6
CONTINUOUS
10
129.8723650000000021
20
-211.5765899999999817
11
130.0277879999999868
21
-210.9965419999999767
0
LINE
8
BLACK
6
CONTINUOUS
10
130.0277879999999868
20
-210.9965419999999767
11
120.7782759999999911
21
-208.5181429999999807
0
LINE
8
BLACK
6
CONTINUOUS
10
130.992432000000008
20
-214.6903839999999946
11
129.1689470000000028
21
-214.2017829999999776
0
LINE
8
BLACK
6
CONTINUOUS
10
130.992432000000008
20
-214.6903839999999946
11
131.6958500000000072
21
-212.0651909999999987
0
LINE
8
BLACK
6
CONTINUOUS
10
131.6958500000000072
20
-212.0651909999999987
11
129.8723650000000021
21
-211.5765899999999817
0
ARC
8
BLACK
10
120.2514899999999898
20
-210.3234999999999957
40
1.8806415472625291
50
73.73325727
51
164.69310226
0
ARC
8
BLACK
10
118.3365179999999981
20
-215.1783479999999997
40
0.8559126071568288
50
-244.22117869
51
34.26208112
0
ARC
8
BLACK
10
123.0317249999999945
20
-216.166844999999995
40
2.2678771004013867
50
74.35535087
51
155.15590204
0
CIRCLE
8
BLACK
10
123.2401249999999919
20
-216.5045569999999771
40
2.
0
CIRCLE
8
BLACK
10
128.1470280000000059
20
-217.819357999999994
40
0.85
0
CIRCLE
8
BLACK
10
179.750945999999999
20
-267.928654999999992
40
1.0999999999999999
0
LINE
8
BLACK
6
CONTINUOUS
10
242.0413139999999999
20
-195.5190800000000024
11
242.6295539999999846
21
-198.1724579999999776
0
LINE
8
BLACK
6
CONTINUOUS
10
242.0413139999999999
20
-195.5190800000000024
11
243.8843770000000006
21
-195.1104829999999879
0
LINE
8
BLACK
6
CONTINUOUS
10
242.6295539999999846
20
-198.1724579999999776
11
244.4726159999999879
21
-197.7638609999999915
0
LINE
8
BLACK
6
CONTINUOUS
10
243.5930060000000026
20
-193.7961939999999856
11
243.8843770000000006
21
-195.1104829999999879
0
LINE
8
BLACK
6
CONTINUOUS
10
244.4726159999999879
20
-197.7638609999999915
11
244.5771549999999763
21
-198.2354109999999991
0
LINE
8
BLACK
6
CONTINUOUS
10
244.5771549999999763
20
-198.2354109999999991
11
245.2882799999999861
21
-198.0777579999999887
0
LINE
8
BLACK
6
CONTINUOUS
10
246.3793019999999956
20
-197.8354759999999999
11
248.3300369999999759
21
-197.4034169999999904
0
LINE
8
BLACK
6
CONTINUOUS
10
254.4136809999999969
20
-189.4817919999999845
11
245.0648649999999975
21
-191.5543749999999932
0
LINE
8
BLACK
6
CONTINUOUS
10
254.5436550000000011
20
-190.068066999999985
11
254.4136809999999969
21
-189.4817919999999845
0
LINE
8
BLACK
6
CONTINUOUS
10
255.3956909999999993
20
-193.9113549999999861
11
250.1295609999999954
21
-195.0788279999999872
0
LINE
8
BLACK
6
CONTINUOUS
10
255.3956909999999993
20
-193.9113549999999861
11
255.1318939999999884
21
-192.7214439999999911
0
LINE
8
BLACK
6
CONTINUOUS
10
256.386716999999976
20
-189.6594699999999989
11
254.5436550000000011
21
-190.068066999999985
0
LINE
8
BLACK
6
CONTINUOUS
10
256.9749559999999633
20
-192.312847000000005
11
255.1318939999999884
21
-192.7214439999999911
0
LINE
8
BLACK
6
CONTINUOUS
10
256.9749559999999633
20
-192.312847000000005
11
256.386716999999976
21
-189.6594699999999989
0
ARC
8
BLACK
10
245.4312229999999886
20
-193.3989880000000028
40
1.8806420035522442
50
-258.76668354
51
-167.80686631
0
ARC
8
BLACK
10
245.9743399999999838
20
-198.5895270000000039
40
0.8559130400017282
50
-216.72123450
51
61.76204226
0
ARC
8
BLACK
10
250.5954879999999889
20
-197.2983370000000036
40
2.267886690247332
50
-258.14442135
51
-177.34431317
0
CIRCLE
8
BLACK
10
250.9362679999999841
20
-197.5016549999999995
40
2.
0
CIRCLE
8
BLACK
10
255.8958519999999908
20
-196.4021419999999978
40
0.85
0
LINE
8
BLACK
6
CONTINUOUS
10
190.0181259999999952
20
-225.5771209999999769
11
190.7215439999999944
21
-228.2023140000000012
0
LINE
8
BLACK
6
CONTINUOUS
10
190.0181259999999952
20
-225.5771209999999769
11
191.8416110000000003
21
-225.0885189999999909
0
LINE
8
BLACK
6
CONTINUOUS
10
190.7215439999999944
20
-228.2023140000000012
11
192.545029999999997
21
-227.7137139999999818
0
LINE
8
BLACK
6
CONTINUOUS
10
191.493189000000001
20
-223.788189999999986
11
191.8416110000000003
21
-225.0885189999999909
0
LINE
8
BLACK
6
CONTINUOUS
10
192.545029999999997
20
-227.7137139999999818
11
192.6700390000000027
21
-228.1802539999999908
0
LINE
8
BLACK
6
CONTINUOUS
10
192.6700390000000027
20
-228.1802539999999908
11
193.3736089999999876
21
-227.9917329999999822
0
LINE
8
BLACK
6
CONTINUOUS
10
194.4530239999999992
20
-227.7020909999999958
11
196.3830569999999796
21
-227.1853539999999896
0
LINE
8
BLACK
6
CONTINUOUS
10
202.1153729999999769
20
-219.0059039999999868
11
192.8658609999999953
21
-221.4843029999999828
0
LINE
8
BLACK
6
CONTINUOUS
10
202.2707969999999875
20
-219.5859509999999943
11
202.1153729999999769
21
-219.0059039999999868
0
LINE
8
BLACK
6
CONTINUOUS
10
203.2896639999999877
20
-223.3884159999999781
11
198.0794709999999839
21
-224.7844829999999945
0
LINE
8
BLACK
6
CONTINUOUS
10
203.2896639999999877
20
-223.3884159999999781
11
202.9742149999999867
21
-222.2111439999999902
0
LINE
8
BLACK
6
CONTINUOUS
10
204.0942819999999926
20
-219.0973499999999774
11
202.2707969999999875
21
-219.5859509999999943
0
LINE
8
BLACK
6
CONTINUOUS
10
204.7976999999999919
20
-221.7225430000000017
11
202.9742149999999867
21
-222.2111439999999902
0
LINE
8
BLACK
6
CONTINUOUS
10
204.7976999999999919
20
-221.7225430000000017
11
204.0942819999999926
21
-219.0973499999999774
0
ARC
8
BLACK
10
193.3123329999999953
20
-223.3111809999999764
40
1.8806441659221449
50
-256.26663724
51
-165.30691027
0
ARC
8
BLACK
10
194.0813389999999856
20
-228.4730889999999874
40
0.855913345630853
50
-214.22121554
51
64.26207614
0
ARC
8
BLACK
10
198.6417699999999797
20
-226.9815569999999809
40
2.2678883644434529
50
-255.64438224
51
-174.84433149
0
CIRCLE
8
BLACK
10
198.9910919999999805
20
-227.1698159999999973
40
2.
0
CIRCLE
8
BLACK
10
203.8979949999999803
20
-225.8550149999999803
40
0.85
0
LINE
8
BLACK
6
CONTINUOUS
10
212.1926039999999887
20
-236.411202000000003
11
212.7808440000000019
21
-239.0645799999999781
0
LINE
8
BLACK
6
CONTINUOUS
10
212.1926039999999887
20
-236.411202000000003
11
214.0356669999999895
21
-236.0026049999999884
0
LINE
8
BLACK
6
CONTINUOUS
10
212.7808440000000019
20
-239.0645799999999781
11
214.6239059999999768
21
-238.655982999999992
0
LINE
8
BLACK
6
CONTINUOUS
10
213.7442959999999914
20
-234.6883159999999862
11
214.0356669999999895
21
-236.0026049999999884
0
LINE
8
BLACK
6
CONTINUOUS
10
214.6239059999999768
20
-238.655982999999992
11
214.7284449999999936
21
-239.1275329999999997
0
LINE
8
BLACK
6
CONTINUOUS
10
214.7284449999999936
20
-239.1275329999999997
11
215.4395700000000033
21
-238.9698799999999892
0
LINE
8
BLACK
6
CONTINUOUS
10
216.5305919999999844
20
-238.7275980000000004
11
218.4813269999999932
21
-238.2955389999999909
0
LINE
8
BLACK
6
CONTINUOUS
10
224.5649709999999857
20
-230.373913999999985
11
215.2161549999999863
21
-232.4464969999999937
0
LINE
8
BLACK
6
CONTINUOUS
10
224.6949449999999899
20
-230.9601889999999855
11
224.5649709999999857
21
-230.373913999999985
0
LINE
8
BLACK
6
CONTINUOUS
10
225.5469809999999882
20
-234.8034769999999867
11
220.2808509999999842
21
-235.9709499999999878
0
LINE
8
BLACK
6
CONTINUOUS
10
225.5469809999999882
20
-234.8034769999999867
11
225.2831839999999772
21
-233.6135659999999916
0
LINE
8
BLACK
6
CONTINUOUS
10
226.5380069999999932
20
-230.5515919999999994
11
224.6949449999999899
21
-230.9601889999999855
0
LINE
8
BLACK
6
CONTINUOUS
10
227.1262459999999805
20
-233.2049689999999771
11
225.2831839999999772
21
-233.6135659999999916
0
LINE
8
BLACK
6
CONTINUOUS
10
227.1262459999999805
20
-233.2049689999999771
11
226.5380069999999932
21
-230.5515919999999994
0
ARC
8
BLACK
10
215.5825129999999774
20
-234.2911100000000033
40
1.8806420035522442
50
-258.76668354
51
-167.80686631
0
ARC
8
BLACK
10
216.125630000000001
20
-239.481648999999976
40
0.8559130400017282
50
-216.72123450
51
61.76204226
0
ARC
8
BLACK
10
220.7467779999999777
20
-238.1904589999999757
40
2.267886690247332
50
-258.14442135
51
-177.34431317
0
CIRCLE
8
BLACK
10
221.0875580000000014
20
-238.393777
40
2.
0
CIRCLE
8
BLACK
10
226.0471419999999796
20
-237.2942639999999983
40
0.85
0
LINE
8
BLACK
6
CONTINUOUS
10
208.0802079999999989
20
-217.8613819999999919
11
208.6684479999999837
21
-220.5147599999999954
0
LINE
8
BLACK
6
CONTINUOUS
10
208.0802079999999989
20
-217.8613819999999919
11
209.9232709999999997
21
-217.4527849999999773
0
LINE
8
BLACK
6
CONTINUOUS
10
208.6684479999999837
20
-220.5147599999999954
11
210.511509999999987
21
-220.1061629999999809
0
LINE
8
BLACK
6
CONTINUOUS
10
209.6319000000000017
20
-216.1384960000000035
11
209.9232709999999997
21
-217.4527849999999773
0
LINE
8
BLACK
6
CONTINUOUS
10
210.511509999999987
20
-220.1061629999999809
11
210.6160490000000038
21
-220.5777129999999886
0
LINE
8
BLACK
6
CONTINUOUS
10
210.6160490000000038
20
-220.5777129999999886
11
211.3271739999999852
21
-220.4200599999999781
0
LINE
8
BLACK
6
CONTINUOUS
10
212.4181959999999947
20
-220.1777779999999893
11
214.3689310000000035
21
-219.7457189999999798
0
LINE
8
BLACK
6
CONTINUOUS
10
220.452574999999996
20
-211.8240940000000023
11
211.1037589999999966
21
-213.8966769999999826
0
LINE
8
BLACK
6
CONTINUOUS
10
220.5825490000000002
20
-212.4103690000000029
11
220.452574999999996
21
-211.8240940000000023
0
LINE
8
BLACK
6
CONTINUOUS
10
221.4345849999999984
20
-216.253657000000004
11
216.1684549999999945
21
-217.4211299999999767
0
LINE
8
BLACK
6
CONTINUOUS
10
221.4345849999999984
20
-216.253657000000004
11
221.1707879999999875
21
-215.0637459999999805
0
LINE
8
BLACK
6
CONTINUOUS
10
222.4256110000000035
20
-212.0017719999999883
11
220.5825490000000002
21
-212.4103690000000029
0
LINE
8
BLACK
6
CONTINUOUS
10
223.0138499999999908
20
-214.6551489999999944
11
221.1707879999999875
21
-215.0637459999999805
0
LINE
8
BLACK
6
CONTINUOUS
10
223.0138499999999908
20
-214.6551489999999944
11
222.4256110000000035
21
-212.0017719999999883
0
ARC
8
BLACK
10
211.4701169999999877
20
-215.7412899999999922
40
1.8806420035522442
50
-258.76668354
51
-167.80686631
0
ARC
8
BLACK
10
212.0132339999999829
20
-220.9318289999999934
40
0.8559130400017282
50
-216.72123450
51
61.76204226
0
ARC
8
BLACK
10
216.634381999999988
20
-219.6406389999999931
40
2.267886690247332
50
-258.14442135
51
-177.34431317
0
CIRCLE
8
BLACK
10
216.9751619999999832
20
-219.843956999999989
40
2.
0
CIRCLE
8
BLACK
10
221.9347459999999899
20
-218.7444439999999872
40
0.85
0
CIRCLE
8
BLACK
10
138.0002120000000048
20
-263.2759169999999926
40
1.0999999999999999
0
LINE
8
BLACK
6
CONTINUOUS
10
175.5482130000000041
20
-279.8260809999999879
11
176.8031529999999805
21
-282.2367989999999622
0
LINE
8
BLACK
6
CONTINUOUS
10
175.5482130000000041
20
-279.8260809999999879
11
177.2227209999999786
21
-278.954386999999997
0
LINE
8
BLACK
6
CONTINUOUS
10
176.601114999999993
20
-277.7602929999999901
11
177.2227209999999786
21
-278.954386999999997
0
LINE
8
BLACK
6
CONTINUOUS
10
176.8031529999999805
20
-282.2367989999999622
11
178.4776619999999809
21
-281.3651049999999714
0
LINE
8
BLACK
6
CONTINUOUS
10
178.4776619999999809
20
-281.3651049999999714
11
178.7006859999999904
21
-281.7935309999999731
0
LINE
8
BLACK
6
CONTINUOUS
10
178.7006859999999904
20
-281.7935309999999731
11
179.3467749999999796
21
-281.4571980000000053
0
LINE
8
BLACK
6
CONTINUOUS
10
180.3379139999999836
20
-280.9407939999999826
11
182.1103549999999984
21
-280.0185690000000136
0
LINE
8
BLACK
6
CONTINUOUS
10
185.9364349999999888
20
-270.7923049999999989
11
177.4425969999999779
21
-275.2139169999999808
0
LINE
8
BLACK
6
CONTINUOUS
10
186.213719999999995
20
-271.3249629999999684
11
185.9364349999999888
21
-270.7923049999999989
0
LINE
8
BLACK
6
CONTINUOUS
10
187.888227999999998
20
-270.4532689999999775
11
186.213719999999995
21
-271.3249629999999684
0
LINE
8
BLACK
6
CONTINUOUS
10
188.0314400000000035
20
-274.8167709999999602
11
183.246912999999978
21
-277.3074379999999906
0
LINE
8
BLACK
6
CONTINUOUS
10
188.0314400000000035
20
-274.8167709999999602
11
187.4686599999999999
21
-273.7356809999999996
0
LINE
8
BLACK
6
CONTINUOUS
10
189.1431690000000003
20
-272.8639870000000087
11
187.4686599999999999
21
-273.7356809999999996
0
LINE
8
BLACK
6
CONTINUOUS
10
189.1431690000000003
20
-272.8639870000000087
11
187.888227999999998
21
-270.4532689999999775
0
ARC
8
BLACK
10
178.2738919999999894
20
-276.9008569999999736
40
1.8806416803381232
50
-243.76671543
51
-152.80689901
0
ARC
8
BLACK
10
180.1419139999999857
20
-281.7739629999999806
40
0.8559127190087783
50
-201.72119439
51
76.76207122
0
ARC
8
BLACK
10
184.2714159999999879
20
-279.330727999999965
40
2.2678866565598024
50
-243.14439834
51
-162.34432219
0
CIRCLE
8
BLACK
10
184.6532059999999831
20
-279.438918000000001
40
2.
0
CIRCLE
8
BLACK
10
189.1592210000000023
20
-277.0932349999999929
40
0.85
0
LINE
8
BLACK
6
CONTINUOUS
10
89.0290139999999894
20
-242.4506269999999972
11
90.852499999999992
21
-242.9392269999999883
0
LINE
8
BLACK
6
CONTINUOUS
10
89.7324330000000003
20
-239.825431999999978
11
89.0290139999999894
21
-242.4506269999999972
0
LINE
8
BLACK
6
CONTINUOUS
10
89.7324330000000003
20
-239.825431999999978
11
91.5559179999999913
21
-240.3140339999999924
0
LINE
8
BLACK
6
CONTINUOUS
10
90.7274910000000006
20
-243.4057679999999948
11
91.4310600000000022
21
-243.594288999999975
0
LINE
8
BLACK
6
CONTINUOUS
10
90.852499999999992
20
-242.9392269999999883
11
90.7274910000000006
21
-243.4057679999999948
0
LINE
8
BLACK
6
CONTINUOUS
10
91.9043399999999906
20
-239.0137039999999899
11
91.5559179999999913
21
-240.3140339999999924
0
LINE
8
BLACK
6
CONTINUOUS
10
92.5106820000000027
20
-243.8831599999999753
11
94.4405069999999967
21
-244.400667999999996
0
LINE
8
BLACK
6
CONTINUOUS
10
102.3202749999999952
20
-244.5657269999999812
11
97.1100809999999939
21
-243.1696599999999933
0
LINE
8
BLACK
6
CONTINUOUS
10
102.3202749999999952
20
-244.5657269999999812
11
102.6357239999999962
21
-243.3884559999999908
0
LINE
8
BLACK
6
CONTINUOUS
10
103.3391419999999954
20
-240.7632629999999949
11
103.4945649999999944
21
-240.1832149999999899
0
LINE
8
BLACK
6
CONTINUOUS
10
103.4945649999999944
20
-240.1832149999999899
11
94.2450529999999986
21
-237.7048159999999939
0
LINE
8
BLACK
6
CONTINUOUS
10
104.4592090000000013
20
-243.8770569999999793
11
102.6357239999999962
21
-243.3884559999999908
0
LINE
8
BLACK
6
CONTINUOUS
10
104.4592090000000013
20
-243.8770569999999793
11
105.1626270000000005
21
-241.2518639999999834
0
LINE
8
BLACK
6
CONTINUOUS
10
105.1626270000000005
20
-241.2518639999999834
11
103.3391419999999954
21
-240.7632629999999949
0
ARC
8
BLACK
10
93.7182669999999973
20
-239.5101729999999804
40
1.8806415472625291
50
73.73325727
51
164.69310226
0
ARC
8
BLACK
10
91.8032949999999914
20
-244.3650209999999845
40
0.8559126071568288
50
-244.22117869
51
34.26208112
0
ARC
8
BLACK
10
96.498502000000002
20
-245.3535179999999798
40
2.2678771004013867
50
74.35535087
51
155.15590204
0
CIRCLE
8
BLACK
10
96.7069019999999995
20
-245.6912299999999902
40
2.
0
CIRCLE
8
BLACK
10
101.6138049999999993
20
-247.0060309999999788
40
0.85
0
LINE
8
BLACK
6
CONTINUOUS
10
231.2394099999999924
20
-234.5442649999999958
11
231.8276499999999771
21
-237.1976429999999993
0
LINE
8
BLACK
6
CONTINUOUS
10
231.2394099999999924
20
-234.5442649999999958
11
233.0824729999999931
21
-234.1356679999999812
0
LINE
8
BLACK
6
CONTINUOUS
10
231.8276499999999771
20
-237.1976429999999993
11
233.6707119999999804
21
-236.7890459999999848
0
LINE
8
BLACK
6
CONTINUOUS
10
232.7911019999999951
20
-232.821378999999979
11
233.0824729999999931
21
-234.1356679999999812
0
LINE
8
BLACK
6
CONTINUOUS
10
233.6707119999999804
20
-236.7890459999999848
11
233.7752509999999972
21
-237.2605959999999925
0
LINE
8
BLACK
6
CONTINUOUS
10
233.7752509999999972
20
-237.2605959999999925
11
234.4863759999999786
21
-237.102942999999982
0
LINE
8
BLACK
6
CONTINUOUS
10
235.5773979999999881
20
-236.8606609999999932
11
237.5281329999999969
21
-236.4286019999999837
0
LINE
8
BLACK
6
CONTINUOUS
10
243.6117769999999894
20
-228.5069769999999778
11
234.26296099999999
21
-230.5795599999999865
0
LINE
8
BLACK
6
CONTINUOUS
10
243.7417509999999936
20
-229.0932519999999784
11
243.6117769999999894
21
-228.5069769999999778
0
LINE
8
BLACK
6
CONTINUOUS
10
244.5937869999999918
20
-232.9365399999999795
11
239.3276569999999879
21
-234.1040129999999806
0
LINE
8
BLACK
6
CONTINUOUS
10
244.5937869999999918
20
-232.9365399999999795
11
244.3299899999999809
21
-231.7466289999999844
0
LINE
8
BLACK
6
CONTINUOUS
10
245.5848129999999969
20
-228.6846549999999922
11
243.7417509999999936
21
-229.0932519999999784
0
LINE
8
BLACK
6
CONTINUOUS
10
246.1730519999999842
20
-231.3380319999999983
11
244.3299899999999809
21
-231.7466289999999844
0
LINE
8
BLACK
6
CONTINUOUS
10
246.1730519999999842
20
-231.3380319999999983
11
245.5848129999999969
21
-228.6846549999999922
0
ARC
8
BLACK
10
234.6293189999999811
20
-232.4241729999999961
40
1.8806420035522442
50
-258.76668354
51
-167.80686631
0
ARC
8
BLACK
10
235.1724359999999763
20
-237.6147119999999973
40
0.8559130400017282
50
-216.72123450
51
61.76204226
0
ARC
8
BLACK
10
239.7935839999999814
20
-236.323521999999997
40
2.267886690247332
50
-258.14442135
51
-177.34431317
0
CIRCLE
8
BLACK
10
240.1343639999999766
20
-236.5268399999999929
40
2.
0
CIRCLE
8
BLACK
10
245.0939479999999833
20
-235.4273269999999911
40
0.85
0
LINE
8
BLACK
6
CONTINUOUS
10
223.0148779999999817
20
-197.4457979999999964
11
223.6031179999999949
21
-200.0991759999999999
0
LINE
8
BLACK
6
CONTINUOUS
10
223.0148779999999817
20
-197.4457979999999964
11
224.8579409999999825
21
-197.0372009999999818
0
LINE
8
BLACK
6
CONTINUOUS
10
223.6031179999999949
20
-200.0991759999999999
11
225.4461799999999982
21
-199.6905789999999854
0
LINE
8
BLACK
6
CONTINUOUS
10
224.5665699999999845
20
-195.7229119999999796
11
224.8579409999999825
21
-197.0372009999999818
0
LINE
8
BLACK
6
CONTINUOUS
10
225.4461799999999982
20
-199.6905789999999854
11
225.5507189999999866
21
-200.1621289999999931
0
LINE
8
BLACK
6
CONTINUOUS
10
225.5507189999999866
20
-200.1621289999999931
11
226.2618439999999964
21
-200.0044759999999826
0
LINE
8
BLACK
6
CONTINUOUS
10
227.3528659999999775
20
-199.7621939999999938
11
229.3036009999999862
21
-199.3301349999999843
0
LINE
8
BLACK
6
CONTINUOUS
10
235.3872449999999787
20
-191.4085099999999784
11
226.0384289999999794
21
-193.4810929999999871
0
LINE
8
BLACK
6
CONTINUOUS
10
235.517218999999983
20
-191.9947849999999789
11
235.3872449999999787
21
-191.4085099999999784
0
LINE
8
BLACK
6
CONTINUOUS
10
236.3692549999999812
20
-195.8380729999999801
11
231.1031249999999773
21
-197.0055459999999812
0
LINE
8
BLACK
6
CONTINUOUS
10
236.3692549999999812
20
-195.8380729999999801
11
236.1054579999999987
21
-194.648161999999985
0
LINE
8
BLACK
6
CONTINUOUS
10
237.3602809999999863
20
-191.5861879999999928
11
235.517218999999983
21
-191.9947849999999789
0
LINE
8
BLACK
6
CONTINUOUS
10
237.948520000000002
20
-194.2395649999999989
11
236.1054579999999987
21
-194.648161999999985
0
LINE
8
BLACK
6
CONTINUOUS
10
237.948520000000002
20
-194.2395649999999989
11
237.3602809999999863
21
-191.5861879999999928
0
ARC
8
BLACK
10
226.4047869999999989
20
-195.3257059999999967
40
1.8806420035522442
50
-258.76668354
51
-167.80686631
0
ARC
8
BLACK
10
226.9479039999999941
20
-200.5162449999999978
40
0.8559130400017282
50
-216.72123450
51
61.76204226
0
ARC
8
BLACK
10
231.5690519999999992
20
-199.2250549999999976
40
2.267886690247332
50
-258.14442135
51
-177.34431317
0
CIRCLE
8
BLACK
10
231.9098319999999944
20
-199.4283729999999935
40
2.
0
CIRCLE
8
BLACK
10
236.8694160000000011
20
-198.3288599999999917
40
0.85
0
CIRCLE
8
BLACK
10
138.0002120000000048
20
-221.7066969999999912
40
1.0999999999999999
0
LINE
8
BLACK
6
CONTINUOUS
10
79.3252729999999957
20
-198.3917579999999816
11
81.168334999999999
21
-198.8003549999999962
0
LINE
8
BLACK
6
CONTINUOUS
10
79.9135129999999947
20
-195.7383799999999781
11
79.3252729999999957
21
-198.3917579999999816
0
LINE
8
BLACK
6
CONTINUOUS
10
79.9135129999999947
20
-195.7383799999999781
11
81.756574999999998
21
-196.1469769999999926
0
LINE
8
BLACK
6
CONTINUOUS
10
81.0637949999999989
20
-199.2719050000000038
11
81.7749179999999996
21
-199.4295569999999884
0
LINE
8
BLACK
6
CONTINUOUS
10
81.168334999999999
20
-198.8003549999999962
11
81.0637949999999989
21
-199.2719050000000038
0
LINE
8
BLACK
6
CONTINUOUS
10
82.047945999999996
20
-194.8326879999999903
11
81.756574999999998
21
-196.1469769999999926
0
LINE
8
BLACK
6
CONTINUOUS
10
82.8661129999999986
20
-199.6710599999999829
11
84.8166760000000011
21
-200.1038979999999867
0
LINE
8
BLACK
6
CONTINUOUS
10
92.6961419999999947
20
-199.9250899999999831
11
87.4300119999999907
21
-198.757616999999982
0
LINE
8
BLACK
6
CONTINUOUS
10
92.6961419999999947
20
-199.9250899999999831
11
92.9599389999999914
21
-198.735178999999988
0
LINE
8
BLACK
6
CONTINUOUS
10
93.5481789999999904
20
-196.0818019999999819
11
93.6781529999999947
21
-195.4955269999999814
0
LINE
8
BLACK
6
CONTINUOUS
10
93.6781529999999947
20
-195.4955269999999814
11
84.3293369999999953
21
-193.4229449999999986
0
LINE
8
BLACK
6
CONTINUOUS
10
94.8030009999999947
20
-199.1437760000000026
11
92.9599389999999914
21
-198.735178999999988
0
LINE
8
BLACK
6
CONTINUOUS
10
94.8030009999999947
20
-199.1437760000000026
11
95.3912409999999937
21
-196.4903989999999965
0
LINE
8
BLACK
6
CONTINUOUS
10
95.3912409999999937
20
-196.4903989999999965
11
93.5481789999999904
21
-196.0818019999999819
0
ARC
8
BLACK
10
83.8818059999999974
20
-195.2495649999999898
40
1.8806458817993885
50
76.23343004
51
167.19304127
0
ARC
8
BLACK
10
82.1804180000000031
20
-200.1833179999999857
40
0.8559123153623857
50
-241.72112903
51
36.76208212
0
ARC
8
BLACK
10
86.9142729999999943
20
-200.966070000000002
40
2.2678742760552222
50
76.85531712
51
157.65594419
0
CIRCLE
8
BLACK
10
87.1372059999999919
20
-201.2943729999999789
40
2.
0
CIRCLE
8
BLACK
10
92.0967899999999986
20
-202.3938859999999806
40
0.85
0
LINE
8
BLACK
6
CONTINUOUS
10
176.7003109999999992
20
-251.8382099999999753
11
177.4037289999999985
21
-254.4634029999999996
0
LINE
8
BLACK
6
CONTINUOUS
10
176.7003109999999992
20
-251.8382099999999753
11
178.5237960000000044
21
-251.3496079999999893
0
LINE
8
BLACK
6
CONTINUOUS
10
177.4037289999999985
20
-254.4634029999999996
11
179.2272150000000011
21
-253.9748029999999801
0
LINE
8
BLACK
6
CONTINUOUS
10
178.175374000000005
20
-250.0492789999999843
11
178.5237960000000044
21
-251.3496079999999893
0
LINE
8
BLACK
6
CONTINUOUS
10
179.2272150000000011
20
-253.9748029999999801
11
179.3522239999999783
21
-254.4413429999999892
0
LINE
8
BLACK
6
CONTINUOUS
10
179.3522239999999783
20
-254.4413429999999892
11
180.0557939999999917
21
-254.2528219999999806
0
LINE
8
BLACK
6
CONTINUOUS
10
181.1352090000000032
20
-253.9631799999999942
11
183.0652419999999836
21
-253.4464429999999879
0
LINE
8
BLACK
6
CONTINUOUS
10
188.7975579999999809
20
-245.2669929999999852
11
179.5480459999999994
21
-247.7453919999999812
0
LINE
8
BLACK
6
CONTINUOUS
10
188.9529819999999916
20
-245.8470399999999927
11
188.7975579999999809
21
-245.2669929999999852
0
LINE
8
BLACK
6
CONTINUOUS
10
189.9718489999999917
20
-249.6495049999999765
11
184.7616559999999879
21
-251.0455719999999928
0
LINE
8
BLACK
6
CONTINUOUS
10
189.9718489999999917
20
-249.6495049999999765
11
189.6563999999999908
21
-248.4722329999999886
0
LINE
8
BLACK
6
CONTINUOUS
10
190.7764669999999967
20
-245.3584389999999757
11
188.9529819999999916
21
-245.8470399999999927
0
LINE
8
BLACK
6
CONTINUOUS
10
191.4798849999999959
20
-247.9836320000000001
11
189.6563999999999908
21
-248.4722329999999886
0
LINE
8
BLACK
6
CONTINUOUS
10
191.4798849999999959
20
-247.9836320000000001
11
190.7764669999999967
21
-245.3584389999999757
0
ARC
8
BLACK
10
179.9945179999999993
20
-249.5722699999999747
40
1.8806441659221449
50
-256.26663724
51
-165.30691027
0
ARC
8
BLACK
10
180.7635239999999897
20
-254.7341779999999858
40
0.855913345630853
50
-214.22121554
51
64.26207614
0
ARC
8
BLACK
10
185.3239549999999838
20
-253.2426459999999793
40
2.2678883644434529
50
-255.64438224
51
-174.84433149
0
CIRCLE
8
BLACK
10
185.6732769999999846
20
-253.4309049999999957
40
2.
0
CIRCLE
8
BLACK
10
190.5801799999999844
20
-252.1161039999999787
40
0.85
0
LINE
8
BLACK
6
CONTINUOUS
10
185.3626280000000008
20
-207.0960599999999943
11
186.066046
21
-209.7212529999999902
0
LINE
8
BLACK
6
CONTINUOUS
10
185.3626280000000008
20
-207.0960599999999943
11
187.1861129999999775
21
-206.6074579999999798
0
LINE
8
BLACK
6
CONTINUOUS
10
186.066046
20
-209.7212529999999902
11
187.8895320000000027
21
-209.2326529999999991
0
LINE
8
BLACK
6
CONTINUOUS
10
186.8376909999999782
20
-205.3071290000000033
11
187.1861129999999775
21
-206.6074579999999798
0
LINE
8
BLACK
6
CONTINUOUS
10
187.8895320000000027
20
-209.2326529999999991
11
188.0145409999999799
21
-209.6991929999999797
0
LINE
8
BLACK
6
CONTINUOUS
10
188.0145409999999799
20
-209.6991929999999797
11
188.7181109999999933
21
-209.5106719999999996
0
LINE
8
BLACK
6
CONTINUOUS
10
189.7975260000000048
20
-209.2210299999999847
11
191.7275589999999852
21
-208.7042929999999785
0
LINE
8
BLACK
6
CONTINUOUS
10
197.4598749999999825
20
-200.5248430000000042
11
188.210363000000001
21
-203.0032420000000002
0
LINE
8
BLACK
6
CONTINUOUS
10
197.6152989999999932
20
-201.1048899999999833
11
197.4598749999999825
21
-200.5248430000000042
0
LINE
8
BLACK
6
CONTINUOUS
10
198.6341659999999933
20
-204.9073549999999955
11
193.4239729999999895
21
-206.3034219999999834
0
LINE
8
BLACK
6
CONTINUOUS
10
198.6341659999999933
20
-204.9073549999999955
11
198.3187169999999924
21
-203.7300829999999792
0
LINE
8
BLACK
6
CONTINUOUS
10
199.4387839999999983
20
-200.6162889999999948
11
197.6152989999999932
21
-201.1048899999999833
0
LINE
8
BLACK
6
CONTINUOUS
10
200.1422019999999975
20
-203.2414819999999906
11
198.3187169999999924
21
-203.7300829999999792
0
LINE
8
BLACK
6
CONTINUOUS
10
200.1422019999999975
20
-203.2414819999999906
11
199.4387839999999983
21
-200.6162889999999948
0
ARC
8
BLACK
10
188.6568350000000009
20
-204.8301199999999938
40
1.8806441659221449
50
-256.26663724
51
-165.30691027
0
ARC
8
BLACK
10
189.4258409999999913
20
-209.9920279999999764
40
0.855913345630853
50
-214.22121554
51
64.26207614
0
ARC
8
BLACK
10
193.9862719999999854
20
-208.5004959999999983
40
2.2678883644434529
50
-255.64438224
51
-174.84433149
0
CIRCLE
8
BLACK
10
194.3355939999999862
20
-208.6887549999999862
40
2.
0
CIRCLE
8
BLACK
10
199.242496999999986
20
-207.3739539999999977
40
0.85
0
CIRCLE
8
BLACK
10
162.0002120000000048
20
-221.7329369999999926
40
1.0999999999999999
0
CIRCLE
8
BLACK
10
120.2490779999999972
20
-267.928654999999992
40
1.0999999999999999
0
LINE
8
BLACK
6
CONTINUOUS
10
106.6488590000000016
20
-250.1903020000000026
11
108.47234499999999
21
-250.6789019999999937
0
LINE
8
BLACK
6
CONTINUOUS
10
107.3522779999999983
20
-247.5651069999999834
11
106.6488590000000016
21
-250.1903020000000026
0
LINE
8
BLACK
6
CONTINUOUS
10
107.3522779999999983
20
-247.5651069999999834
11
109.1757629999999892
21
-248.0537089999999978
0
LINE
8
BLACK
6
CONTINUOUS
10
108.3473359999999985
20
-251.1454430000000002
11
109.0509050000000002
21
-251.3339639999999804
0
LINE
8
BLACK
6
CONTINUOUS
10
108.47234499999999
20
-250.6789019999999937
11
108.3473359999999985
21
-251.1454430000000002
0
LINE
8
BLACK
6
CONTINUOUS
10
109.5241849999999886
20
-246.7533789999999954
11
109.1757629999999892
21
-248.0537089999999978
0
LINE
8
BLACK
6
CONTINUOUS
10
110.1305270000000007
20
-251.6228349999999807
11
112.0603519999999946
21
-252.1403430000000014
0
LINE
8
BLACK
6
CONTINUOUS
10
119.9401199999999932
20
-252.3054019999999866
11
114.7299259999999919
21
-250.9093349999999987
0
LINE
8
BLACK
6
CONTINUOUS
10
119.9401199999999932
20
-252.3054019999999866
11
120.2555689999999942
21
-251.1281309999999962
0
LINE
8
BLACK
6
CONTINUOUS
10
120.9589869999999934
20
-248.5029380000000003
11
121.1144099999999924
21
-247.9228899999999953
0
LINE
8
BLACK
6
CONTINUOUS
10
121.1144099999999924
20
-247.9228899999999953
11
111.8648979999999966
21
-245.4444909999999993
0
LINE
8
BLACK
6
CONTINUOUS
10
122.0790539999999993
20
-251.6167319999999847
11
120.2555689999999942
21
-251.1281309999999962
0
LINE
8
BLACK
6
CONTINUOUS
10
122.0790539999999993
20
-251.6167319999999847
11
122.7824719999999985
21
-248.9915389999999888
0
LINE
8
BLACK
6
CONTINUOUS
10
122.7824719999999985
20
-248.9915389999999888
11
120.9589869999999934
21
-248.5029380000000003
0
ARC
8
BLACK
10
111.3381119999999953
20
-247.2498479999999859
40
1.8806415472625291
50
73.73325727
51
164.69310226
0
ARC
8
BLACK
10
109.4231399999999894
20
-252.1046959999999899
40
0.8559126071568288
50
-244.22117869
51
34.26208112
0
ARC
8
BLACK
10
114.118347
20
-253.0931929999999852
40
2.2678771004013867
50
74.35535087
51
155.15590204
0
CIRCLE
8
BLACK
10
114.3267469999999975
20
-253.4309049999999957
40
2.
0
CIRCLE
8
BLACK
10
119.2336499999999972
20
-254.7457059999999842
40
0.85
0
CIRCLE
8
BLACK
10
128.250078000000002
20
-206.3336549999999932
40
1.0999999999999999
0
LINE
8
BLACK
6
CONTINUOUS
10
75.2129290000000026
20
-216.9413419999999917
11
77.0559909999999917
21
-217.3499389999999778
0
LINE
8
BLACK
6
CONTINUOUS
10
75.8011690000000016
20
-214.2879639999999881
11
75.2129290000000026
21
-216.9413419999999917
0
LINE
8
BLACK
6
CONTINUOUS
10
75.8011690000000016
20
-214.2879639999999881
11
77.6442309999999907
21
-214.6965610000000027
0
LINE
8
BLACK
6
CONTINUOUS
10
76.9514509999999916
20
-217.8214889999999855
11
77.6625739999999922
21
-217.9791409999999985
0
LINE
8
BLACK
6
CONTINUOUS
10
77.0559909999999917
20
-217.3499389999999778
11
76.9514509999999916
21
-217.8214889999999855
0
LINE
8
BLACK
6
CONTINUOUS
10
77.9356020000000029
20
-213.3822720000000004
11
77.6442309999999907
21
-214.6965610000000027
0
LINE
8
BLACK
6
CONTINUOUS
10
78.7537689999999913
20
-218.220643999999993
11
80.7043319999999937
21
-218.6534819999999968
0
LINE
8
BLACK
6
CONTINUOUS
10
88.5837980000000016
20
-218.4746739999999932
11
83.3176679999999976
21
-217.3072009999999921
0
LINE
8
BLACK
6
CONTINUOUS
10
88.5837980000000016
20
-218.4746739999999932
11
88.8475949999999983
21
-217.2847629999999981
0
LINE
8
BLACK
6
CONTINUOUS
10
89.4358349999999973
20
-214.631385999999992
11
89.5658090000000016
21
-214.0451109999999915
0
LINE
8
BLACK
6
CONTINUOUS
10
89.5658090000000016
20
-214.0451109999999915
11
80.2169930000000022
21
-211.9725289999999802
0
LINE
8
BLACK
6
CONTINUOUS
10
90.6906570000000016
20
-217.6933599999999842
11
88.8475949999999983
21
-217.2847629999999981
0
LINE
8
BLACK
6
CONTINUOUS
10
90.6906570000000016
20
-217.6933599999999842
11
91.2788970000000006
21
-215.0399829999999781
0
LINE
8
BLACK
6
CONTINUOUS
10
91.2788970000000006
20
-215.0399829999999781
11
89.4358349999999973
21
-214.631385999999992
0
ARC
8
BLACK
10
79.7694619999999901
20
-213.7991489999999999
40
1.8806458817993885
50
76.23343004
51
167.19304127
0
ARC
8
BLACK
10
78.0680739999999957
20
-218.7329019999999957
40
0.8559123153623857
50
-241.72112903
51
36.76208212
0
ARC
8
BLACK
10
82.8019290000000012
20
-219.5156539999999836
40
2.2678742760552222
50
76.85531712
51
157.65594419
0
CIRCLE
8
BLACK
10
83.0248619999999988
20
-219.843956999999989
40
2.
0
CIRCLE
8
BLACK
10
87.9844459999999913
20
-220.9434699999999907
40
0.85
0
LINE
8
BLACK
6
CONTINUOUS
10
111.1505229999999926
20
-231.734217000000001
11
112.9740089999999952
21
-232.222816999999992
0
LINE
8
BLACK
6
CONTINUOUS
10
111.8539419999999893
20
-229.1090219999999817
11
111.1505229999999926
21
-231.734217000000001
0
LINE
8
BLACK
6
CONTINUOUS
10
111.8539419999999893
20
-229.1090219999999817
11
113.6774269999999945
21
-229.5976239999999962
0
LINE
8
BLACK
6
CONTINUOUS
10
112.8489999999999895
20
-232.6893579999999986
11
113.5525689999999912
21
-232.8778789999999788
0
LINE
8
BLACK
6
CONTINUOUS
10
112.9740089999999952
20
-232.222816999999992
11
112.8489999999999895
21
-232.6893579999999986
0
LINE
8
BLACK
6
CONTINUOUS
10
114.0258489999999938
20
-228.2972939999999937
11
113.6774269999999945
21
-229.5976239999999962
0
LINE
8
BLACK
6
CONTINUOUS
10
114.6321909999999917
20
-233.1667499999999791
11
116.5620159999999998
21
-233.6842579999999998
0
LINE
8
BLACK
6
CONTINUOUS
10
124.4417839999999984
20
-233.849316999999985
11
119.2315899999999971
21
-232.453249999999997
0
LINE
8
BLACK
6
CONTINUOUS
10
124.4417839999999984
20
-233.849316999999985
11
124.7572329999999994
21
-232.6720459999999946
0
LINE
8
BLACK
6
CONTINUOUS
10
125.4606509999999986
20
-230.0468529999999987
11
125.6160739999999976
21
-229.4668049999999937
0
LINE
8
BLACK
6
CONTINUOUS
10
125.6160739999999976
20
-229.4668049999999937
11
116.3665620000000018
21
-226.9884059999999977
0
LINE
8
BLACK
6
CONTINUOUS
10
126.5807179999999903
20
-233.1606469999999831
11
124.7572329999999994
21
-232.6720459999999946
0
LINE
8
BLACK
6
CONTINUOUS
10
126.5807179999999903
20
-233.1606469999999831
11
127.2841359999999895
21
-230.5354539999999872
0
LINE
8
BLACK
6
CONTINUOUS
10
127.2841359999999895
20
-230.5354539999999872
11
125.4606509999999986
21
-230.0468529999999987
0
ARC
8
BLACK
10
115.8397760000000005
20
-228.7937629999999842
40
1.8806415472625291
50
73.73325727
51
164.69310226
0
ARC
8
BLACK
10
113.9248039999999946
20
-233.6486109999999883
40
0.8559126071568288
50
-244.22117869
51
34.26208112
0
ARC
8
BLACK
10
118.620010999999991
20
-234.6371079999999836
40
2.2678771004013867
50
74.35535087
51
155.15590204
0
CIRCLE
8
BLACK
10
118.8284109999999885
20
-234.974819999999994
40
2.
0
CIRCLE
8
BLACK
10
123.7353139999999883
20
-236.2896209999999826
40
0.85
0
LINE
8
BLACK
6
CONTINUOUS
10
167.7869330000000048
20
-214.9118619999999851
11
168.490351000000004
21
-217.537054999999981
0
LINE
8
BLACK
6
CONTINUOUS
10
167.7869330000000048
20
-214.9118619999999851
11
169.6104179999999815
21
-214.4232599999999991
0
LINE
8
BLACK
6
CONTINUOUS
10
168.490351000000004
20
-217.537054999999981
11
170.3138369999999782
21
-217.0484549999999899
0
LINE
8
BLACK
6
CONTINUOUS
10
169.2619959999999821
20
-213.1229309999999941
11
169.6104179999999815
21
-214.4232599999999991
0
LINE
8
BLACK
6
CONTINUOUS
10
170.3138369999999782
20
-217.0484549999999899
11
170.4388459999999839
21
-217.514994999999999
0
LINE
8
BLACK
6
CONTINUOUS
10
170.4388459999999839
20
-217.514994999999999
11
171.1424159999999972
21
-217.3264739999999904
0
LINE
8
BLACK
6
CONTINUOUS
10
172.2218309999999803
20
-217.036832000000004
11
174.1518639999999891
21
-216.5200949999999978
0
LINE
8
BLACK
6
CONTINUOUS
10
179.8841799999999864
20
-208.340644999999995
11
170.6346680000000049
21
-210.819043999999991
0
LINE
8
BLACK
6
CONTINUOUS
10
180.0396039999999971
20
-208.9206920000000025
11
179.8841799999999864
21
-208.340644999999995
0
LINE
8
BLACK
6
CONTINUOUS
10
181.0584709999999973
20
-212.7231569999999863
11
175.8482779999999934
21
-214.1192240000000027
0
LINE
8
BLACK
6
CONTINUOUS
10
181.0584709999999973
20
-212.7231569999999863
11
180.7430219999999963
21
-211.5458849999999984
0
LINE
8
BLACK
6
CONTINUOUS
10
181.8630890000000022
20
-208.4320909999999856
11
180.0396039999999971
21
-208.9206920000000025
0
LINE
8
BLACK
6
CONTINUOUS
10
182.5665070000000014
20
-211.0572839999999815
11
180.7430219999999963
21
-211.5458849999999984
0
LINE
8
BLACK
6
CONTINUOUS
10
182.5665070000000014
20
-211.0572839999999815
11
181.8630890000000022
21
-208.4320909999999856
0
ARC
8
BLACK
10
171.0811400000000049
20
-212.6459219999999846
40
1.8806441659221449
50
-256.26663724
51
-165.30691027
0
ARC
8
BLACK
10
171.8501459999999952
20
-217.8078299999999956
40
0.855913345630853
50
-214.22121554
51
64.26207614
0
ARC
8
BLACK
10
176.4105769999999893
20
-216.3162979999999891
40
2.2678883644434529
50
-255.64438224
51
-174.84433149
0
CIRCLE
8
BLACK
10
176.7598989999999901
20
-216.5045569999999771
40
2.
0
CIRCLE
8
BLACK
10
181.6668019999999899
20
-215.1897559999999885
40
0.85
0
LINE
8
BLACK
6
CONTINUOUS
10
194.3201559999999972
20
-244.0985349999999983
11
195.0235739999999964
21
-246.7237279999999942
0
LINE
8
BLACK
6
CONTINUOUS
10
194.3201559999999972
20
-244.0985349999999983
11
196.1436410000000024
21
-243.6099329999999838
0
LINE
8
BLACK
6
CONTINUOUS
10
195.0235739999999964
20
-246.7237279999999942
11
196.847059999999999
21
-246.2351279999999747
0
LINE
8
BLACK
6
CONTINUOUS
10
195.795219000000003
20
-242.3096039999999789
11
196.1436410000000024
21
-243.6099329999999838
0
LINE
8
BLACK
6
CONTINUOUS
10
196.847059999999999
20
-246.2351279999999747
11
196.9720690000000047
21
-246.7016679999999837
0
LINE
8
BLACK
6
CONTINUOUS
10
196.9720690000000047
20
-246.7016679999999837
11
197.6756389999999897
21
-246.5131469999999752
0
LINE
8
BLACK
6
CONTINUOUS
10
198.7550540000000012
20
-246.2235049999999887
11
200.6850869999999816
21
-245.7067679999999825
0
LINE
8
BLACK
6
CONTINUOUS
10
206.4174029999999789
20
-237.5273179999999797
11
197.1678909999999973
21
-240.0057169999999758
0
LINE
8
BLACK
6
CONTINUOUS
10
206.5728269999999895
20
-238.1073649999999873
11
206.4174029999999789
21
-237.5273179999999797
0
LINE
8
BLACK
6
CONTINUOUS
10
207.5916939999999897
20
-241.9098299999999995
11
202.3815009999999859
21
-243.3058969999999874
0
LINE
8
BLACK
6
CONTINUOUS
10
207.5916939999999897
20
-241.9098299999999995
11
207.2762449999999887
21
-240.7325579999999832
0
LINE
8
BLACK
6
CONTINUOUS
10
208.3963119999999947
20
-237.6187639999999988
11
206.5728269999999895
21
-238.1073649999999873
0
LINE
8
BLACK
6
CONTINUOUS
10
209.0997299999999939
20
-240.2439569999999947
11
207.2762449999999887
21
-240.7325579999999832
0
LINE
8
BLACK
6
CONTINUOUS
10
209.0997299999999939
20
-240.2439569999999947
11
208.3963119999999947
21
-237.6187639999999988
0
ARC
8
BLACK
10
197.6143629999999973
20
-241.8325949999999978
40
1.8806441659221449
50
-256.26663724
51
-165.30691027
0
ARC
8
BLACK
10
198.3833689999999876
20
-246.9945029999999804
40
0.855913345630853
50
-214.22121554
51
64.26207614
0
ARC
8
BLACK
10
202.9437999999999818
20
-245.5029710000000023
40
2.2678883644434529
50
-255.64438224
51
-174.84433149
0
CIRCLE
8
BLACK
10
203.2931219999999826
20
-245.6912299999999902
40
2.
0
CIRCLE
8
BLACK
10
208.2000249999999824
20
-244.3764290000000017
40
0.85
0
LINE
8
BLACK
6
CONTINUOUS
10
246.2521709999999757
20
-213.9863709999999912
11
246.7707519999999874
21
-216.6542369999999949
0
LINE
8
BLACK
6
CONTINUOUS
10
246.2521709999999757
20
-213.9863709999999912
11
248.1052979999999764
21
-213.6261599999999987
0
LINE
8
BLACK
6
CONTINUOUS
10
246.7707519999999874
20
-216.6542369999999949
11
248.6238789999999881
21
-216.2940260000000023
0
LINE
8
BLACK
6
CONTINUOUS
10
247.8484309999999766
20
-212.3046929999999861
11
248.1052979999999764
21
-213.6261599999999987
0
LINE
8
BLACK
6
CONTINUOUS
10
248.6238789999999881
20
-216.2940260000000023
11
248.716038999999995
21
-216.7681509999999889
0
LINE
8
BLACK
6
CONTINUOUS
10
248.716038999999995
20
-216.7681509999999889
11
249.4310459999999807
21
-216.6291679999999928
0
LINE
8
BLACK
6
CONTINUOUS
10
250.528035999999986
20
-216.4155279999999948
11
252.4894129999999848
21
-216.0346809999999778
0
LINE
8
BLACK
6
CONTINUOUS
10
258.7783359999999675
20
-208.2750230000000045
11
249.378469999999993
21
-210.1021709999999985
0
LINE
8
BLACK
6
CONTINUOUS
10
258.8929180000000088
20
-208.864498999999995
11
258.7783359999999675
21
-208.2750230000000045
0
LINE
8
BLACK
6
CONTINUOUS
10
259.6440569999999752
20
-212.7287729999999897
11
254.3491709999999841
21
-213.757994999999994
0
LINE
8
BLACK
6
CONTINUOUS
10
259.6440569999999752
20
-212.7287729999999897
11
259.4114989999999921
21
-211.5323649999999986
0
LINE
8
BLACK
6
CONTINUOUS
10
260.746044999999981
20
-208.5042869999999766
11
258.8929180000000088
21
-208.864498999999995
0
LINE
8
BLACK
6
CONTINUOUS
10
261.2646249999999668
20
-211.1721539999999777
11
259.4114989999999921
21
-211.5323649999999986
0
LINE
8
BLACK
6
CONTINUOUS
10
261.2646249999999668
20
-211.1721539999999777
11
260.746044999999981
21
-208.5042869999999766
0
ARC
8
BLACK
10
249.6964179999999942
20
-211.955742999999984
40
1.8806440531554607
50
-260.26663205
51
-169.30690836
0
ARC
8
BLACK
10
250.1034739999999772
20
-217.1587199999999882
40
0.855913103479553
50
-218.22121830
51
60.26204342
0
ARC
8
BLACK
10
254.7568399999999826
20
-215.9889419999999802
40
2.2678882812982653
50
-259.64438993
51
-178.84437458
0
CIRCLE
8
BLACK
10
255.0921789999999874
20
-216.2011090000000024
40
2.
0
CIRCLE
8
BLACK
10
260.0788450000000012
20
-215.2317989999999952
40
0.85
0
LINE
8
BLACK
6
CONTINUOUS
10
108.5523219999999895
20
-274.6133299999999622
11
110.22683099999999
21
-275.4850240000000099
0
LINE
8
BLACK
6
CONTINUOUS
10
109.8072629999999918
20
-272.2026119999999878
11
108.5523219999999895
21
-274.6133299999999622
0
LINE
8
BLACK
6
CONTINUOUS
10
109.8072629999999918
20
-272.2026119999999878
11
111.4817709999999948
21
-273.0743059999999787
0
LINE
8
BLACK
6
CONTINUOUS
10
110.0038069999999948
20
-275.9134490000000142
11
110.6498959999999983
21
-276.249781999999982
0
LINE
8
BLACK
6
CONTINUOUS
10
110.22683099999999
20
-275.4850240000000099
11
110.0038069999999948
21
-275.9134490000000142
0
LINE
8
BLACK
6
CONTINUOUS
10
111.6414029999999968
20
-276.7654779999999732
11
113.4134759999999886
21
-277.6884099999999762
0
LINE
8
BLACK
6
CONTINUOUS
10
112.1033769999999947
20
-271.8802119999999718
11
111.4817709999999948
21
-273.0743059999999787
0
LINE
8
BLACK
6
CONTINUOUS
10
121.0707349999999991
20
-279.5550499999999943
11
116.2862079999999878
21
-277.0643829999999639
0
LINE
8
BLACK
6
CONTINUOUS
10
121.0707349999999991
20
-279.5550499999999943
11
121.633513999999991
21
-278.4739609999999743
0
LINE
8
BLACK
6
CONTINUOUS
10
122.8884549999999933
20
-276.0632429999999999
11
123.1657389999999879
21
-275.5305849999999737
0
LINE
8
BLACK
6
CONTINUOUS
10
123.1657389999999879
20
-275.5305849999999737
11
114.6719009999999912
21
-271.1089719999999943
0
LINE
8
BLACK
6
CONTINUOUS
10
123.3080229999999915
20
-279.3456549999999652
11
121.633513999999991
21
-278.4739609999999743
0
LINE
8
BLACK
6
CONTINUOUS
10
123.3080229999999915
20
-279.3456549999999652
11
124.5629639999999938
21
-276.9349369999999908
0
LINE
8
BLACK
6
CONTINUOUS
10
124.5629639999999938
20
-276.9349369999999908
11
122.8884549999999933
21
-276.0632429999999999
0
ARC
8
BLACK
10
110.8464899999999886
20
-277.0828099999999949
40
0.8559125398035713
50
-256.72120331
51
21.76205401
0
ARC
8
BLACK
10
113.7668499999999909
20
-272.7575109999999654
40
1.880637114684808
50
61.23313142
51
152.19328461
0
ARC
8
BLACK
10
115.2164569999999912
20
-279.0641210000000001
40
2.2678891599639517
50
61.85564311
51
142.65563538
0
CIRCLE
8
BLACK
10
115.346817999999999
20
-279.438918000000001
40
2.
0
CIRCLE
8
BLACK
10
119.8528329999999897
20
-281.7846010000000092
40
0.85
0
CIRCLE
8
BLACK
10
162.0002120000000048
20
-263.3021569999999656
40
1.0999999999999999
0
LINE
8
BLACK
6
CONTINUOUS
10
124.7881220000000013
20
-126.461915999999988
11
118.3236419999999924
21
-138.8800679999999943
0
LINE
8
BLACK
6
CONTINUOUS
10
118.3236419999999924
20
-138.8800679999999943
11
105.9054900000000004
21
-132.4155879999999854
0
LINE
8
BLACK
6
CONTINUOUS
10
105.9054900000000004
20
-132.4155879999999854
11
112.369969999999995
21
-119.9974359999999933
0
LINE
8
BLACK
6
CONTINUOUS
10
112.369969999999995
20
-119.9974359999999933
11
124.7881220000000013
21
-126.461915999999988
0
LINE
8
BLACK
6
CONTINUOUS
10
263.2992199999999912
20
-71.7366700000000037
11
249.5564399999999807
21
-74.4079959999999971
0
LINE
8
BLACK
6
CONTINUOUS
10
249.5564399999999807
20
-74.4079959999999971
11
246.8851139999999873
21
-60.6652159999999938
0
LINE
8
BLACK
6
CONTINUOUS
10
246.8851139999999873
20
-60.6652159999999938
11
260.6278939999999693
21
-57.9938900000000004
0
LINE
8
BLACK
6
CONTINUOUS
10
260.6278939999999693
20
-57.9938900000000004
11
263.2992199999999912
21
-71.7366700000000037
0
LINE
8
BLACK
6
CONTINUOUS
10
211.8663239999999917
20
-100.6408109999999994
11
198.3433629999999823
21
-104.2642779999999902
0
LINE
8
BLACK
6
CONTINUOUS
10
198.3433629999999823
20
-104.2642779999999902
11
194.7198959999999772
21
-90.7413169999999951
0
LINE
8
BLACK
6
CONTINUOUS
10
194.7198959999999772
20
-90.7413169999999951
11
208.2428569999999866
21
-87.11784999999999
0
LINE
8
BLACK
6
CONTINUOUS
10
208.2428569999999866
20
-87.11784999999999
11
211.8663239999999917
21
-100.6408109999999994
0
CIRCLE
8
BLACK
10
162.0002149999999972
20
-71.7333709999999911
40
1.0999999999999999
0
LINE
8
BLACK
6
CONTINUOUS
10
185.3331009999999992
20
-71.4541380000000004
11
171.8101399999999899
21
-75.0776049999999913
0
LINE
8
BLACK
6
CONTINUOUS
10
171.8101399999999899
20
-75.0776049999999913
11
168.1866729999999848
21
-61.5546439999999961
0
LINE
8
BLACK
6
CONTINUOUS
10
168.1866729999999848
20
-61.5546439999999961
11
181.7096339999999941
21
-57.9311769999999981
0
LINE
8
BLACK
6
CONTINUOUS
10
181.7096339999999941
20
-57.9311769999999981
11
185.3331009999999992
21
-71.4541380000000004
0
CIRCLE
8
BLACK
10
162.0002149999999972
20
-113.3025909999999925
40
1.0999999999999999
0
LINE
8
BLACK
6
CONTINUOUS
10
127.4016129999999976
20
-80.0249069999999989
11
123.7781459999999925
21
-93.547867999999994
0
LINE
8
BLACK
6
CONTINUOUS
10
123.7781459999999925
20
-93.547867999999994
11
110.2551849999999973
21
-89.9244009999999889
0
LINE
8
BLACK
6
CONTINUOUS
10
110.2551849999999973
20
-89.9244009999999889
11
113.8786519999999882
21
-76.4014399999999938
0
LINE
8
BLACK
6
CONTINUOUS
10
113.8786519999999882
20
-76.4014399999999938
11
127.4016129999999976
21
-80.0249069999999989
0
LINE
8
BLACK
6
CONTINUOUS
10
91.3739989999999977
20
-64.5247959999999949
11
88.3438450000000017
21
-78.192939999999993
0
LINE
8
BLACK
6
CONTINUOUS
10
88.3438450000000017
20
-78.192939999999993
11
74.6757010000000037
21
-75.162785999999997
0
LINE
8
BLACK
6
CONTINUOUS
10
74.6757010000000037
20
-75.162785999999997
11
77.7058549999999997
21
-61.4946419999999989
0
LINE
8
BLACK
6
CONTINUOUS
10
77.7058549999999997
20
-61.4946419999999989
11
91.3739989999999977
21
-64.5247959999999949
0
CIRCLE
8
BLACK
10
128.2500660000000039
20
-56.3334890000000001
40
1.0999999999999999
0
LINE
8
BLACK
6
CONTINUOUS
10
122.8999489999999923
20
-98.4809920000000005
11
119.2764820000000014
21
-112.0039529999999957
0
LINE
8
BLACK
6
CONTINUOUS
10
119.2764820000000014
20
-112.0039529999999957
11
105.7535209999999921
21
-108.3804859999999906
0
LINE
8
BLACK
6
CONTINUOUS
10
105.7535209999999921
20
-108.3804859999999906
11
109.3769879999999972
21
-94.8575249999999954
0
LINE
8
BLACK
6
CONTINUOUS
10
109.3769879999999972
20
-94.8575249999999954
11
122.8999489999999923
21
-98.4809920000000005
0
CIRCLE
8
BLACK
10
120.2490659999999991
20
-117.928488999999999
40
1.0999999999999999
0
LINE
8
BLACK
6
CONTINUOUS
10
202.9087959999999953
20
-63.6383359999999954
11
189.3858349999999859
21
-67.2618030000000005
0
LINE
8
BLACK
6
CONTINUOUS
10
189.3858349999999859
20
-67.2618030000000005
11
185.7623679999999808
21
-53.7388419999999982
0
LINE
8
BLACK
6
CONTINUOUS
10
185.7623679999999808
20
-53.7388419999999982
11
199.2853289999999902
21
-50.1153750000000002
0
LINE
8
BLACK
6
CONTINUOUS
10
199.2853289999999902
20
-50.1153750000000002
11
202.9087959999999953
21
-63.6383359999999954
0
LINE
8
BLACK
6
CONTINUOUS
10
105.2801039999999944
20
-90.7413169999999951
11
101.6566369999999893
21
-104.2642779999999902
0
LINE
8
BLACK
6
CONTINUOUS
10
101.6566369999999893
20
-104.2642779999999902
11
88.1336759999999941
21
-100.6408109999999994
0
LINE
8
BLACK
6
CONTINUOUS
10
88.1336759999999941
20
-100.6408109999999994
11
91.7571429999999992
21
-87.11784999999999
0
LINE
8
BLACK
6
CONTINUOUS
10
91.7571429999999992
20
-87.11784999999999
11
105.2801039999999944
21
-90.7413169999999951
0
CIRCLE
8
BLACK
10
138.0002149999999972
20
-113.2763509999999911
40
1.0999999999999999
0
LINE
8
BLACK
6
CONTINUOUS
10
240.2589689999999791
20
-54.7472019999999944
11
226.5908249999999953
21
-57.7773559999999975
0
LINE
8
BLACK
6
CONTINUOUS
10
226.5908249999999953
20
-57.7773559999999975
11
223.560670999999985
21
-44.1092119999999994
0
LINE
8
BLACK
6
CONTINUOUS
10
223.560670999999985
20
-44.1092119999999994
11
237.2288149999999973
21
-41.0790579999999963
0
LINE
8
BLACK
6
CONTINUOUS
10
237.2288149999999973
20
-41.0790579999999963
11
240.2589689999999791
21
-54.7472019999999944
0
LINE
8
BLACK
6
CONTINUOUS
10
194.0945099999999854
20
-132.4155879999999854
11
181.6763579999999934
21
-138.8800679999999943
0
LINE
8
BLACK
6
CONTINUOUS
10
181.6763579999999934
20
-138.8800679999999943
11
175.2118779999999845
21
-126.461915999999988
0
LINE
8
BLACK
6
CONTINUOUS
10
175.2118779999999845
20
-126.461915999999988
11
187.630030000000005
21
-119.9974359999999933
0
LINE
8
BLACK
6
CONTINUOUS
10
187.630030000000005
20
-119.9974359999999933
11
194.0945099999999854
21
-132.4155879999999854
0
LINE
8
BLACK
6
CONTINUOUS
10
225.3242989999999963
20
-75.162785999999997
11
211.6561549999999841
21
-78.192939999999993
0
LINE
8
BLACK
6
CONTINUOUS
10
211.6561549999999841
20
-78.192939999999993
11
208.6260010000000023
21
-64.5247959999999949
0
LINE
8
BLACK
6
CONTINUOUS
10
208.6260010000000023
20
-64.5247959999999949
11
222.2941449999999861
21
-61.4946419999999989
0
LINE
8
BLACK
6
CONTINUOUS
10
222.2941449999999861
20
-61.4946419999999989
11
225.3242989999999963
21
-75.162785999999997
0
LINE
8
BLACK
6
CONTINUOUS
10
194.2464789999999937
20
-108.3804859999999906
11
180.7235179999999843
21
-112.0039529999999957
0
LINE
8
BLACK
6
CONTINUOUS
10
180.7235179999999843
20
-112.0039529999999957
11
177.1000509999999792
21
-98.4809920000000005
0
LINE
8
BLACK
6
CONTINUOUS
10
177.1000509999999792
20
-98.4809920000000005
11
190.6230119999999886
21
-94.8575249999999954
0
LINE
8
BLACK
6
CONTINUOUS
10
190.6230119999999886
20
-94.8575249999999954
11
194.2464789999999937
21
-108.3804859999999906
0
LINE
8
BLACK
6
CONTINUOUS
10
95.4863429999999909
20
-45.9752119999999991
11
92.4561889999999948
21
-59.6433559999999972
0
LINE
8
BLACK
6
CONTINUOUS
10
92.4561889999999948
20
-59.6433559999999972
11
78.7880449999999968
21
-56.613201999999994
0
LINE
8
BLACK
6
CONTINUOUS
10
78.7880449999999968
20
-56.613201999999994
11
81.8181989999999928
21
-42.945057999999996
0
LINE
8
BLACK
6
CONTINUOUS
10
81.8181989999999928
20
-42.945057999999996
11
95.4863429999999909
21
-45.9752119999999991
0
LINE
8
BLACK
6
CONTINUOUS
10
248.4835009999999897
20
-91.8456690000000009
11
234.8153569999999775
21
-94.8758229999999969
0
LINE
8
BLACK
6
CONTINUOUS
10
234.8153569999999775
20
-94.8758229999999969
11
231.7852029999999957
21
-81.2076789999999988
0
LINE
8
BLACK
6
CONTINUOUS
10
231.7852029999999957
20
-81.2076789999999988
11
245.4533469999999795
21
-78.1775250000000028
0
LINE
8
BLACK
6
CONTINUOUS
10
245.4533469999999795
20
-78.1775250000000028
11
248.4835009999999897
21
-91.8456690000000009
0
CIRCLE
8
BLACK
10
179.7509340000000009
20
-117.928488999999999
40
1.0999999999999999
0
LINE
8
BLACK
6
CONTINUOUS
10
53.1148859999999985
20
-60.6652159999999938
11
50.443559999999998
21
-74.4079959999999971
0
LINE
8
BLACK
6
CONTINUOUS
10
50.443559999999998
20
-74.4079959999999971
11
36.7007800000000017
21
-71.7366700000000037
0
LINE
8
BLACK
6
CONTINUOUS
10
36.7007800000000017
20
-71.7366700000000037
11
39.3721059999999952
21
-57.9938900000000004
0
LINE
8
BLACK
6
CONTINUOUS
10
39.3721059999999952
20
-57.9938900000000004
11
53.1148859999999985
21
-60.6652159999999938
0
LINE
8
BLACK
6
CONTINUOUS
10
259.2854049999999688
20
-52.8204840000000004
11
245.617260999999985
21
-55.8506379999999965
0
LINE
8
BLACK
6
CONTINUOUS
10
245.617260999999985
20
-55.8506379999999965
11
242.5871070000000032
21
-42.1824939999999984
0
LINE
8
BLACK
6
CONTINUOUS
10
242.5871070000000032
20
-42.1824939999999984
11
256.255250999999987
21
-39.1523399999999953
0
LINE
8
BLACK
6
CONTINUOUS
10
256.255250999999987
20
-39.1523399999999953
11
259.2854049999999688
21
-52.8204840000000004
0
CIRCLE
8
BLACK
10
49.8381669999999986
20
-95.2688279999999992
40
1.0999999999999999
0
LINE
8
BLACK
6
CONTINUOUS
10
131.8133269999999868
20
-61.5546439999999961
11
128.1898599999999817
21
-75.0776049999999913
0
LINE
8
BLACK
6
CONTINUOUS
10
128.1898599999999817
20
-75.0776049999999913
11
114.6668990000000008
21
-71.4541380000000004
0
LINE
8
BLACK
6
CONTINUOUS
10
114.6668990000000008
20
-71.4541380000000004
11
118.2903659999999917
21
-57.9311769999999981
0
LINE
8
BLACK
6
CONTINUOUS
10
118.2903659999999917
20
-57.9311769999999981
11
131.8133269999999868
21
-61.5546439999999961
0
LINE
8
BLACK
6
CONTINUOUS
10
49.1083259999999981
20
-79.1244779999999963
11
46.4369999999999976
21
-92.8672579999999925
0
LINE
8
BLACK
6
CONTINUOUS
10
46.4369999999999976
20
-92.8672579999999925
11
32.6942200000000014
21
-90.1959319999999991
0
LINE
8
BLACK
6
CONTINUOUS
10
32.6942200000000014
20
-90.1959319999999991
11
35.3655460000000019
21
-76.4531520000000029
0
LINE
8
BLACK
6
CONTINUOUS
10
35.3655460000000019
20
-76.4531520000000029
11
49.1083259999999981
21
-79.1244779999999963
0
LINE
8
BLACK
6
CONTINUOUS
10
229.4366949999999861
20
-93.7126059999999939
11
215.7685510000000022
21
-96.7427599999999899
0
LINE
8
BLACK
6
CONTINUOUS
10
215.7685510000000022
20
-96.7427599999999899
11
212.738396999999992
21
-83.0746159999999918
0
LINE
8
BLACK
6
CONTINUOUS
10
212.738396999999992
20
-83.0746159999999918
11
226.4065409999999758
21
-80.0444619999999958
0
LINE
8
BLACK
6
CONTINUOUS
10
226.4065409999999758
20
-80.0444619999999958
11
229.4366949999999861
21
-93.7126059999999939
0
CIRCLE
8
BLACK
10
171.7499339999999961
20
-56.3334890000000001
40
1.0999999999999999
0
LINE
8
BLACK
6
CONTINUOUS
10
114.2376319999999907
20
-53.7388419999999982
11
110.6141649999999998
21
-67.2618030000000005
0
LINE
8
BLACK
6
CONTINUOUS
10
110.6141649999999998
20
-67.2618030000000005
11
97.0912039999999905
21
-63.6383359999999954
0
LINE
8
BLACK
6
CONTINUOUS
10
97.0912039999999905
20
-63.6383359999999954
11
100.7146709999999956
21
-50.1153750000000002
0
LINE
8
BLACK
6
CONTINUOUS
10
100.7146709999999956
20
-50.1153750000000002
11
114.2376319999999907
21
-53.7388419999999982
0
LINE
8
BLACK
6
CONTINUOUS
10
221.211954999999989
20
-56.613201999999994
11
207.5438109999999767
21
-59.6433559999999972
0
LINE
8
BLACK
6
CONTINUOUS
10
207.5438109999999767
20
-59.6433559999999972
11
204.5136569999999949
21
-45.9752119999999991
0
LINE
8
BLACK
6
CONTINUOUS
10
204.5136569999999949
20
-45.9752119999999991
11
218.1818009999999788
21
-42.945057999999996
0
LINE
8
BLACK
6
CONTINUOUS
10
218.1818009999999788
20
-42.945057999999996
11
221.211954999999989
21
-56.613201999999994
0
LINE
8
BLACK
6
CONTINUOUS
10
244.371233999999987
20
-73.2964369999999974
11
230.7030900000000031
21
-76.3265909999999934
0
LINE
8
BLACK
6
CONTINUOUS
10
230.7030900000000031
20
-76.3265909999999934
11
227.6729359999999929
21
-62.6584469999999953
0
LINE
8
BLACK
6
CONTINUOUS
10
227.6729359999999929
20
-62.6584469999999953
11
241.3410799999999767
21
-59.6282929999999993
0
LINE
8
BLACK
6
CONTINUOUS
10
241.3410799999999767
20
-59.6282929999999993
11
244.371233999999987
21
-73.2964369999999974
0
LINE
8
BLACK
6
CONTINUOUS
10
210.8714629999999772
20
-122.3428009999999944
11
198.4533109999999851
21
-128.807280999999989
0
LINE
8
BLACK
6
CONTINUOUS
10
198.4533109999999851
20
-128.807280999999989
11
191.9888310000000047
21
-116.3891289999999969
0
LINE
8
BLACK
6
CONTINUOUS
10
191.9888310000000047
20
-116.3891289999999969
11
204.4069829999999968
21
-109.9246489999999881
0
LINE
8
BLACK
6
CONTINUOUS
10
204.4069829999999968
20
-109.9246489999999881
11
210.8714629999999772
21
-122.3428009999999944
0
LINE
8
BLACK
6
CONTINUOUS
10
207.5642939999999896
20
-82.1193969999999922
11
194.0413329999999803
21
-85.7428639999999973
0
LINE
8
BLACK
6
CONTINUOUS
10
194.0413329999999803
20
-85.7428639999999973
11
190.4178660000000036
21
-72.2199030000000022
0
LINE
8
BLACK
6
CONTINUOUS
10
190.4178660000000036
20
-72.2199030000000022
11
203.9408269999999845
21
-68.5964359999999971
0
LINE
8
BLACK
6
CONTINUOUS
10
203.9408269999999845
20
-68.5964359999999971
11
207.5642939999999896
21
-82.1193969999999922
0
CIRCLE
8
BLACK
10
250.1618330000000014
20
-95.2688279999999992
40
1.0999999999999999
0
LINE
8
BLACK
6
CONTINUOUS
10
76.4393290000000007
20
-44.1092119999999994
11
73.4091749999999905
21
-57.7773559999999975
0
LINE
8
BLACK
6
CONTINUOUS
10
73.4091749999999905
20
-57.7773559999999975
11
59.7410309999999996
21
-54.7472019999999944
0
LINE
8
BLACK
6
CONTINUOUS
10
59.7410309999999996
20
-54.7472019999999944
11
62.7711849999999956
21
-41.0790579999999963
0
LINE
8
BLACK
6
CONTINUOUS
10
62.7711849999999956
20
-41.0790579999999963
11
76.4393290000000007
21
-44.1092119999999994
0
LINE
8
BLACK
6
CONTINUOUS
10
68.2147969999999901
20
-81.2076789999999988
11
65.1846429999999941
21
-94.8758229999999969
0
LINE
8
BLACK
6
CONTINUOUS
10
65.1846429999999941
20
-94.8758229999999969
11
51.516498999999996
21
-91.8456690000000009
0
LINE
8
BLACK
6
CONTINUOUS
10
51.516498999999996
20
-91.8456690000000009
11
54.5466529999999992
21
-78.1775250000000028
0
LINE
8
BLACK
6
CONTINUOUS
10
54.5466529999999992
20
-78.1775250000000028
11
68.2147969999999901
21
-81.2076789999999988
0
LINE
8
BLACK
6
CONTINUOUS
10
57.4128929999999968
20
-42.1824939999999984
11
54.3827390000000008
21
-55.8506379999999965
0
LINE
8
BLACK
6
CONTINUOUS
10
54.3827390000000008
20
-55.8506379999999965
11
40.7145949999999957
21
-52.8204840000000004
0
LINE
8
BLACK
6
CONTINUOUS
10
40.7145949999999957
20
-52.8204840000000004
11
43.7447489999999988
21
-39.1523399999999953
0
LINE
8
BLACK
6
CONTINUOUS
10
43.7447489999999988
20
-39.1523399999999953
11
57.4128929999999968
21
-42.1824939999999984
0
CIRCLE
8
BLACK
10
138.0002149999999972
20
-71.7071309999999897
40
1.0999999999999999
0
LINE
8
BLACK
6
CONTINUOUS
10
87.2616029999999938
20
-83.0746159999999918
11
84.2314489999999978
21
-96.7427599999999899
0
LINE
8
BLACK
6
CONTINUOUS
10
84.2314489999999978
20
-96.7427599999999899
11
70.5633049999999997
21
-93.7126059999999939
0
LINE
8
BLACK
6
CONTINUOUS
10
70.5633049999999997
20
-93.7126059999999939
11
73.5934589999999957
21
-80.0444619999999958
0
LINE
8
BLACK
6
CONTINUOUS
10
73.5934589999999957
20
-80.0444619999999958
11
87.2616029999999938
21
-83.0746159999999918
0
CIRCLE
8
BLACK
10
59.5259280000000004
20
-38.8109180000000009
40
1.0999999999999999
0
LINE
8
BLACK
6
CONTINUOUS
10
109.5821339999999964
20
-72.2199030000000022
11
105.9586669999999913
21
-85.7428639999999973
0
LINE
8
BLACK
6
CONTINUOUS
10
105.9586669999999913
20
-85.7428639999999973
11
92.4357059999999962
21
-82.1193969999999922
0
LINE
8
BLACK
6
CONTINUOUS
10
92.4357059999999962
20
-82.1193969999999922
11
96.0591730000000013
21
-68.5964359999999971
0
LINE
8
BLACK
6
CONTINUOUS
10
96.0591730000000013
20
-68.5964359999999971
11
109.5821339999999964
21
-72.2199030000000022
0
LINE
8
BLACK
6
CONTINUOUS
10
108.0111689999999953
20
-116.3891289999999969
11
101.5466890000000006
21
-128.807280999999989
0
LINE
8
BLACK
6
CONTINUOUS
10
101.5466890000000006
20
-128.807280999999989
11
89.1285369999999944
21
-122.3428009999999944
0
LINE
8
BLACK
6
CONTINUOUS
10
89.1285369999999944
20
-122.3428009999999944
11
95.593016999999989
21
-109.9246489999999881
0
LINE
8
BLACK
6
CONTINUOUS
10
95.593016999999989
20
-109.9246489999999881
11
108.0111689999999953
21
-116.3891289999999969
0
LINE
8
BLACK
6
CONTINUOUS
10
267.3057799999999702
20
-90.1959319999999991
11
253.5629999999999882
21
-92.8672579999999925
0
LINE
8
BLACK
6
CONTINUOUS
10
253.5629999999999882
20
-92.8672579999999925
11
250.8916739999999947
21
-79.1244779999999963
0
LINE
8
BLACK
6
CONTINUOUS
10
250.8916739999999947
20
-79.1244779999999963
11
264.6344540000000052
21
-76.4531520000000029
0
LINE
8
BLACK
6
CONTINUOUS
10
264.6344540000000052
20
-76.4531520000000029
11
267.3057799999999702
21
-90.1959319999999991
0
LINE
8
BLACK
6
CONTINUOUS
10
189.7448149999999885
20
-89.9244009999999889
11
176.2218539999999791
21
-93.547867999999994
0
LINE
8
BLACK
6
CONTINUOUS
10
176.2218539999999791
20
-93.547867999999994
11
172.5983870000000024
21
-80.0249069999999989
0
LINE
8
BLACK
6
CONTINUOUS
10
172.5983870000000024
20
-80.0249069999999989
11
186.1213479999999834
21
-76.4014399999999938
0
LINE
8
BLACK
6
CONTINUOUS
10
186.1213479999999834
20
-76.4014399999999938
11
189.7448149999999885
21
-89.9244009999999889
0
CIRCLE
8
BLACK
10
240.4740719999999783
20
-38.8109180000000009
40
1.0999999999999999
0
LINE
8
BLACK
6
CONTINUOUS
10
72.3270639999999929
20
-62.6584469999999953
11
69.2969099999999969
21
-76.3265909999999934
0
LINE
8
BLACK
6
CONTINUOUS
10
69.2969099999999969
20
-76.3265909999999934
11
55.6287659999999988
21
-73.2964369999999974
0
LINE
8
BLACK
6
CONTINUOUS
10
55.6287659999999988
20
-73.2964369999999974
11
58.6589199999999948
21
-59.6282929999999993
0
LINE
8
BLACK
6
CONTINUOUS
10
58.6589199999999948
20
-59.6282929999999993
11
72.3270639999999929
21
-62.6584469999999953
  0
ENDSEC
  0
EOF
