G04 #@! TF.GenerationSoftware,KiCad,Pcbnew,7.0.5*
G04 #@! TF.CreationDate,2024-01-08T16:38:30+08:00*
G04 #@! TF.ProjectId,awkb_v2_mx,61776b62-5f76-4325-9f6d-782e6b696361,rev?*
G04 #@! TF.SameCoordinates,Original*
G04 #@! TF.FileFunction,Legend,Bot*
G04 #@! TF.FilePolarity,Positive*
%FSLAX46Y46*%
G04 Gerber Fmt 4.6, Leading zero omitted, Abs format (unit mm)*
G04 Created by KiCad (PCBNEW 7.0.5) date 2024-01-08 16:38:30*
%MOMM*%
%LPD*%
G01*
G04 APERTURE LIST*
G04 Aperture macros list*
%AMRoundRect*
0 Rectangle with rounded corners*
0 $1 Rounding radius*
0 $2 $3 $4 $5 $6 $7 $8 $9 X,Y pos of 4 corners*
0 Add a 4 corners polygon primitive as box body*
4,1,4,$2,$3,$4,$5,$6,$7,$8,$9,$2,$3,0*
0 Add four circle primitives for the rounded corners*
1,1,$1+$1,$2,$3*
1,1,$1+$1,$4,$5*
1,1,$1+$1,$6,$7*
1,1,$1+$1,$8,$9*
0 Add four rect primitives between the rounded corners*
20,1,$1+$1,$2,$3,$4,$5,0*
20,1,$1+$1,$4,$5,$6,$7,0*
20,1,$1+$1,$6,$7,$8,$9,0*
20,1,$1+$1,$8,$9,$2,$3,0*%
%AMHorizOval*
0 Thick line with rounded ends*
0 $1 width*
0 $2 $3 position (X,Y) of the first rounded end (center of the circle)*
0 $4 $5 position (X,Y) of the second rounded end (center of the circle)*
0 Add line between two ends*
20,1,$1,$2,$3,$4,$5,0*
0 Add two circle primitives to create the rounded ends*
1,1,$1,$2,$3*
1,1,$1,$4,$5*%
%AMFreePoly0*
4,1,37,1.228070,1.434758,1.247030,1.430987,1.319133,1.401121,1.335206,1.390381,1.390381,1.335206,1.401121,1.319133,1.430987,1.247030,1.434758,1.228070,1.438600,1.189056,1.438600,-1.189056,1.434758,-1.228070,1.430987,-1.247030,1.401121,-1.319133,1.390381,-1.335206,1.335206,-1.390381,1.319133,-1.401121,1.247030,-1.430987,1.228070,-1.434758,1.189056,-1.438600,-0.743160,-1.438600,
-0.829937,-1.418794,-0.884581,-1.380021,-1.380021,-0.884581,-1.427377,-0.809216,-1.438600,-0.743160,-1.438600,1.189056,-1.434758,1.228070,-1.430987,1.247030,-1.401121,1.319133,-1.390381,1.335206,-1.335206,1.390381,-1.319133,1.401121,-1.247030,1.430987,-1.228070,1.434758,-1.189056,1.438600,1.189056,1.438600,1.228070,1.434758,1.228070,1.434758,$1*%
%AMFreePoly1*
4,1,22,0.106406,0.569345,0.141421,0.541421,0.741421,-0.058579,0.788777,-0.133944,0.800000,-0.200000,0.800000,-0.400000,0.780193,-0.486777,0.724698,-0.556366,0.644504,-0.594986,0.600000,-0.600000,-0.600000,-0.600000,-0.686777,-0.580194,-0.756366,-0.524698,-0.794986,-0.444504,-0.800000,-0.400000,-0.800000,-0.200000,-0.780194,-0.113223,-0.741421,-0.058579,-0.141421,0.541421,-0.066056,0.588777,
0.022393,0.598742,0.106406,0.569345,0.106406,0.569345,$1*%
%AMFreePoly2*
4,1,26,0.686777,0.430194,0.756366,0.374698,0.794986,0.294504,0.800000,0.250000,0.800000,-1.000000,0.780194,-1.086777,0.724698,-1.156366,0.644504,-1.194986,0.555496,-1.194986,0.475302,-1.156366,0.458579,-1.141421,0.000000,-0.682842,-0.458579,-1.141421,-0.533944,-1.188778,-0.622393,-1.198742,-0.706406,-1.169345,-0.769345,-1.106406,-0.798742,-1.022393,-0.800000,-1.000000,-0.800000,0.250000,
-0.780194,0.336777,-0.724699,0.406366,-0.644505,0.444986,-0.600000,0.450000,0.600000,0.450000,0.686777,0.430194,0.686777,0.430194,$1*%
G04 Aperture macros list end*
%ADD10C,0.125000*%
%ADD11C,0.150000*%
%ADD12C,0.200000*%
%ADD13C,0.120000*%
%ADD14C,0.100000*%
%ADD15RoundRect,0.200000X0.700000X-0.600000X0.700000X0.600000X-0.700000X0.600000X-0.700000X-0.600000X0*%
%ADD16RoundRect,0.200000X-0.700000X0.600000X-0.700000X-0.600000X0.700000X-0.600000X0.700000X0.600000X0*%
%ADD17C,3.600000*%
%ADD18C,2.100000*%
%ADD19C,3.400000*%
%ADD20C,4.400000*%
%ADD21RoundRect,0.200000X-1.524317X-0.880065X0.880065X-1.524317X1.524317X0.880065X-0.880065X1.524317X0*%
%ADD22FreePoly0,345.000000*%
%ADD23RoundRect,0.200000X-1.244600X-1.244600X1.244600X-1.244600X1.244600X1.244600X-1.244600X1.244600X0*%
%ADD24FreePoly0,0.000000*%
%ADD25C,1.200000*%
%ADD26HorizOval,2.000000X-0.193185X0.051764X0.193185X-0.051764X0*%
%ADD27C,2.400000*%
%ADD28RoundRect,0.200000X0.551815X-1.804300X1.380036X1.286662X-0.551815X1.804300X-1.380036X-1.286662X0*%
%ADD29RoundRect,0.200000X-0.553426X-0.886986X0.035788X-1.044866X0.553426X0.886986X-0.035788X1.044866X0*%
%ADD30RoundRect,0.200000X-1.760215X-1.391849X0.828466X-2.085484X1.760215X1.391849X-0.828466X2.085484X0*%
%ADD31C,2.000000*%
%ADD32FreePoly1,187.500000*%
%ADD33FreePoly1,7.500000*%
%ADD34FreePoly2,7.500000*%
%ADD35FreePoly2,187.500000*%
%ADD36RoundRect,0.425000X0.340272X0.400580X-0.094394X0.517049X-0.340272X-0.400580X0.094394X-0.517049X0*%
%ADD37HorizOval,1.300000X0.064705X0.241481X-0.064705X-0.241481X0*%
%ADD38C,1.100000*%
G04 APERTURE END LIST*
D10*
X146272582Y-119232627D02*
X146193416Y-119932627D01*
X146193416Y-119932627D02*
X145997582Y-119432627D01*
X145997582Y-119432627D02*
X145926749Y-119932627D01*
X145926749Y-119932627D02*
X145672582Y-119232627D01*
X145493416Y-119932627D02*
X145405916Y-119232627D01*
X145193416Y-119932627D02*
X145147582Y-119565960D01*
X145147582Y-119565960D02*
X145172582Y-119499294D01*
X145172582Y-119499294D02*
X145235082Y-119465960D01*
X145235082Y-119465960D02*
X145335082Y-119465960D01*
X145335082Y-119465960D02*
X145405916Y-119499294D01*
X145405916Y-119499294D02*
X145443416Y-119532627D01*
X144868416Y-119465960D02*
X144760083Y-119932627D01*
X144535083Y-119465960D02*
X144760083Y-119932627D01*
X144760083Y-119932627D02*
X144847583Y-120099294D01*
X144847583Y-120099294D02*
X144885083Y-120132627D01*
X144885083Y-120132627D02*
X144955916Y-120165960D01*
X143772583Y-119232627D02*
X143693417Y-119932627D01*
X143693417Y-119932627D02*
X143497583Y-119432627D01*
X143497583Y-119432627D02*
X143426750Y-119932627D01*
X143426750Y-119932627D02*
X143172583Y-119232627D01*
X142722583Y-119899294D02*
X142793417Y-119932627D01*
X142793417Y-119932627D02*
X142926750Y-119932627D01*
X142926750Y-119932627D02*
X142989250Y-119899294D01*
X142989250Y-119899294D02*
X143014250Y-119832627D01*
X143014250Y-119832627D02*
X142980917Y-119565960D01*
X142980917Y-119565960D02*
X142939250Y-119499294D01*
X142939250Y-119499294D02*
X142868417Y-119465960D01*
X142868417Y-119465960D02*
X142735083Y-119465960D01*
X142735083Y-119465960D02*
X142672583Y-119499294D01*
X142672583Y-119499294D02*
X142647583Y-119565960D01*
X142647583Y-119565960D02*
X142655917Y-119632627D01*
X142655917Y-119632627D02*
X142997583Y-119699294D01*
X142393417Y-119932627D02*
X142335083Y-119465960D01*
X142305917Y-119232627D02*
X142343417Y-119265960D01*
X142343417Y-119265960D02*
X142314250Y-119299294D01*
X142314250Y-119299294D02*
X142276750Y-119265960D01*
X142276750Y-119265960D02*
X142305917Y-119232627D01*
X142305917Y-119232627D02*
X142314250Y-119299294D01*
X142060084Y-119932627D02*
X142001750Y-119465960D01*
X142018417Y-119599294D02*
X141976750Y-119532627D01*
X141976750Y-119532627D02*
X141939250Y-119499294D01*
X141939250Y-119499294D02*
X141868417Y-119465960D01*
X141868417Y-119465960D02*
X141801750Y-119465960D01*
X141326751Y-119932627D02*
X141239251Y-119232627D01*
X141322584Y-119899294D02*
X141393417Y-119932627D01*
X141393417Y-119932627D02*
X141526751Y-119932627D01*
X141526751Y-119932627D02*
X141589251Y-119899294D01*
X141589251Y-119899294D02*
X141618417Y-119865960D01*
X141618417Y-119865960D02*
X141643417Y-119799294D01*
X141643417Y-119799294D02*
X141618417Y-119599294D01*
X141618417Y-119599294D02*
X141576751Y-119532627D01*
X141576751Y-119532627D02*
X141539251Y-119499294D01*
X141539251Y-119499294D02*
X141468417Y-119465960D01*
X141468417Y-119465960D02*
X141335084Y-119465960D01*
X141335084Y-119465960D02*
X141272584Y-119499294D01*
X140460085Y-119932627D02*
X140401751Y-119465960D01*
X140372585Y-119232627D02*
X140410085Y-119265960D01*
X140410085Y-119265960D02*
X140380918Y-119299294D01*
X140380918Y-119299294D02*
X140343418Y-119265960D01*
X140343418Y-119265960D02*
X140372585Y-119232627D01*
X140372585Y-119232627D02*
X140380918Y-119299294D01*
X140155918Y-119899294D02*
X140093418Y-119932627D01*
X140093418Y-119932627D02*
X139960085Y-119932627D01*
X139960085Y-119932627D02*
X139889252Y-119899294D01*
X139889252Y-119899294D02*
X139847585Y-119832627D01*
X139847585Y-119832627D02*
X139843418Y-119799294D01*
X139843418Y-119799294D02*
X139868418Y-119732627D01*
X139868418Y-119732627D02*
X139930918Y-119699294D01*
X139930918Y-119699294D02*
X140030918Y-119699294D01*
X140030918Y-119699294D02*
X140093418Y-119665960D01*
X140093418Y-119665960D02*
X140118418Y-119599294D01*
X140118418Y-119599294D02*
X140114252Y-119565960D01*
X140114252Y-119565960D02*
X140072585Y-119499294D01*
X140072585Y-119499294D02*
X140001752Y-119465960D01*
X140001752Y-119465960D02*
X139901752Y-119465960D01*
X139901752Y-119465960D02*
X139839252Y-119499294D01*
X139005918Y-119232627D02*
X138926752Y-119932627D01*
X138926752Y-119932627D02*
X138730918Y-119432627D01*
X138730918Y-119432627D02*
X138660085Y-119932627D01*
X138660085Y-119932627D02*
X138405918Y-119232627D01*
X138126752Y-119932627D02*
X138189252Y-119899294D01*
X138189252Y-119899294D02*
X138218418Y-119865960D01*
X138218418Y-119865960D02*
X138243418Y-119799294D01*
X138243418Y-119799294D02*
X138218418Y-119599294D01*
X138218418Y-119599294D02*
X138176752Y-119532627D01*
X138176752Y-119532627D02*
X138139252Y-119499294D01*
X138139252Y-119499294D02*
X138068418Y-119465960D01*
X138068418Y-119465960D02*
X137968418Y-119465960D01*
X137968418Y-119465960D02*
X137905918Y-119499294D01*
X137905918Y-119499294D02*
X137876752Y-119532627D01*
X137876752Y-119532627D02*
X137851752Y-119599294D01*
X137851752Y-119599294D02*
X137876752Y-119799294D01*
X137876752Y-119799294D02*
X137918418Y-119865960D01*
X137918418Y-119865960D02*
X137955918Y-119899294D01*
X137955918Y-119899294D02*
X138026752Y-119932627D01*
X138026752Y-119932627D02*
X138126752Y-119932627D01*
X137535085Y-119465960D02*
X137593419Y-119932627D01*
X137543419Y-119532627D02*
X137505919Y-119499294D01*
X137505919Y-119499294D02*
X137435085Y-119465960D01*
X137435085Y-119465960D02*
X137335085Y-119465960D01*
X137335085Y-119465960D02*
X137272585Y-119499294D01*
X137272585Y-119499294D02*
X137247585Y-119565960D01*
X137247585Y-119565960D02*
X137293419Y-119932627D01*
X136660086Y-119932627D02*
X136572586Y-119232627D01*
X136655919Y-119899294D02*
X136726752Y-119932627D01*
X136726752Y-119932627D02*
X136860086Y-119932627D01*
X136860086Y-119932627D02*
X136922586Y-119899294D01*
X136922586Y-119899294D02*
X136951752Y-119865960D01*
X136951752Y-119865960D02*
X136976752Y-119799294D01*
X136976752Y-119799294D02*
X136951752Y-119599294D01*
X136951752Y-119599294D02*
X136910086Y-119532627D01*
X136910086Y-119532627D02*
X136872586Y-119499294D01*
X136872586Y-119499294D02*
X136801752Y-119465960D01*
X136801752Y-119465960D02*
X136668419Y-119465960D01*
X136668419Y-119465960D02*
X136605919Y-119499294D01*
X136055919Y-119899294D02*
X136126753Y-119932627D01*
X136126753Y-119932627D02*
X136260086Y-119932627D01*
X136260086Y-119932627D02*
X136322586Y-119899294D01*
X136322586Y-119899294D02*
X136347586Y-119832627D01*
X136347586Y-119832627D02*
X136314253Y-119565960D01*
X136314253Y-119565960D02*
X136272586Y-119499294D01*
X136272586Y-119499294D02*
X136201753Y-119465960D01*
X136201753Y-119465960D02*
X136068419Y-119465960D01*
X136068419Y-119465960D02*
X136005919Y-119499294D01*
X136005919Y-119499294D02*
X135980919Y-119565960D01*
X135980919Y-119565960D02*
X135989253Y-119632627D01*
X135989253Y-119632627D02*
X136330919Y-119699294D01*
X135726753Y-119932627D02*
X135668419Y-119465960D01*
X135685086Y-119599294D02*
X135643419Y-119532627D01*
X135643419Y-119532627D02*
X135605919Y-119499294D01*
X135605919Y-119499294D02*
X135535086Y-119465960D01*
X135535086Y-119465960D02*
X135468419Y-119465960D01*
X135335086Y-119465960D02*
X135068420Y-119465960D01*
X135293420Y-119932627D02*
X135218420Y-119332627D01*
X135218420Y-119332627D02*
X135176753Y-119265960D01*
X135176753Y-119265960D02*
X135105920Y-119232627D01*
X135105920Y-119232627D02*
X135039253Y-119232627D01*
X134535086Y-119465960D02*
X134593420Y-119932627D01*
X134835086Y-119465960D02*
X134880920Y-119832627D01*
X134880920Y-119832627D02*
X134855920Y-119899294D01*
X134855920Y-119899294D02*
X134793420Y-119932627D01*
X134793420Y-119932627D02*
X134693420Y-119932627D01*
X134693420Y-119932627D02*
X134622586Y-119899294D01*
X134622586Y-119899294D02*
X134585086Y-119865960D01*
X134160087Y-119932627D02*
X134222587Y-119899294D01*
X134222587Y-119899294D02*
X134247587Y-119832627D01*
X134247587Y-119832627D02*
X134172587Y-119232627D01*
X133193420Y-120199294D02*
X133222587Y-120165960D01*
X133222587Y-120165960D02*
X133276753Y-120065960D01*
X133276753Y-120065960D02*
X133301753Y-119999294D01*
X133301753Y-119999294D02*
X133322587Y-119899294D01*
X133322587Y-119899294D02*
X133335087Y-119732627D01*
X133335087Y-119732627D02*
X133318420Y-119599294D01*
X133318420Y-119599294D02*
X133264253Y-119432627D01*
X133264253Y-119432627D02*
X133218420Y-119332627D01*
X133218420Y-119332627D02*
X133176753Y-119265960D01*
X133176753Y-119265960D02*
X133097587Y-119165960D01*
X133097587Y-119165960D02*
X133060087Y-119132627D01*
X132593420Y-119932627D02*
X132547586Y-119565960D01*
X132547586Y-119565960D02*
X132572586Y-119499294D01*
X132572586Y-119499294D02*
X132635086Y-119465960D01*
X132635086Y-119465960D02*
X132768420Y-119465960D01*
X132768420Y-119465960D02*
X132839253Y-119499294D01*
X132589253Y-119899294D02*
X132660086Y-119932627D01*
X132660086Y-119932627D02*
X132826753Y-119932627D01*
X132826753Y-119932627D02*
X132889253Y-119899294D01*
X132889253Y-119899294D02*
X132914253Y-119832627D01*
X132914253Y-119832627D02*
X132905920Y-119765960D01*
X132905920Y-119765960D02*
X132864253Y-119699294D01*
X132864253Y-119699294D02*
X132793420Y-119665960D01*
X132793420Y-119665960D02*
X132626753Y-119665960D01*
X132626753Y-119665960D02*
X132555920Y-119632627D01*
X132201753Y-119465960D02*
X132260087Y-119932627D01*
X132210087Y-119532627D02*
X132172587Y-119499294D01*
X132172587Y-119499294D02*
X132101753Y-119465960D01*
X132101753Y-119465960D02*
X132001753Y-119465960D01*
X132001753Y-119465960D02*
X131939253Y-119499294D01*
X131939253Y-119499294D02*
X131914253Y-119565960D01*
X131914253Y-119565960D02*
X131960087Y-119932627D01*
X131326754Y-119932627D02*
X131239254Y-119232627D01*
X131322587Y-119899294D02*
X131393420Y-119932627D01*
X131393420Y-119932627D02*
X131526754Y-119932627D01*
X131526754Y-119932627D02*
X131589254Y-119899294D01*
X131589254Y-119899294D02*
X131618420Y-119865960D01*
X131618420Y-119865960D02*
X131643420Y-119799294D01*
X131643420Y-119799294D02*
X131618420Y-119599294D01*
X131618420Y-119599294D02*
X131576754Y-119532627D01*
X131576754Y-119532627D02*
X131539254Y-119499294D01*
X131539254Y-119499294D02*
X131468420Y-119465960D01*
X131468420Y-119465960D02*
X131335087Y-119465960D01*
X131335087Y-119465960D02*
X131272587Y-119499294D01*
X130180921Y-119565960D02*
X130085088Y-119599294D01*
X130085088Y-119599294D02*
X130055921Y-119632627D01*
X130055921Y-119632627D02*
X130030921Y-119699294D01*
X130030921Y-119699294D02*
X130043421Y-119799294D01*
X130043421Y-119799294D02*
X130085088Y-119865960D01*
X130085088Y-119865960D02*
X130122588Y-119899294D01*
X130122588Y-119899294D02*
X130193421Y-119932627D01*
X130193421Y-119932627D02*
X130460088Y-119932627D01*
X130460088Y-119932627D02*
X130372588Y-119232627D01*
X130372588Y-119232627D02*
X130139254Y-119232627D01*
X130139254Y-119232627D02*
X130076754Y-119265960D01*
X130076754Y-119265960D02*
X130047588Y-119299294D01*
X130047588Y-119299294D02*
X130022588Y-119365960D01*
X130022588Y-119365960D02*
X130030921Y-119432627D01*
X130030921Y-119432627D02*
X130072588Y-119499294D01*
X130072588Y-119499294D02*
X130110088Y-119532627D01*
X130110088Y-119532627D02*
X130180921Y-119565960D01*
X130180921Y-119565960D02*
X130414254Y-119565960D01*
X129460088Y-119932627D02*
X129414254Y-119565960D01*
X129414254Y-119565960D02*
X129439254Y-119499294D01*
X129439254Y-119499294D02*
X129501754Y-119465960D01*
X129501754Y-119465960D02*
X129635088Y-119465960D01*
X129635088Y-119465960D02*
X129705921Y-119499294D01*
X129455921Y-119899294D02*
X129526754Y-119932627D01*
X129526754Y-119932627D02*
X129693421Y-119932627D01*
X129693421Y-119932627D02*
X129755921Y-119899294D01*
X129755921Y-119899294D02*
X129780921Y-119832627D01*
X129780921Y-119832627D02*
X129772588Y-119765960D01*
X129772588Y-119765960D02*
X129730921Y-119699294D01*
X129730921Y-119699294D02*
X129660088Y-119665960D01*
X129660088Y-119665960D02*
X129493421Y-119665960D01*
X129493421Y-119665960D02*
X129422588Y-119632627D01*
X129068421Y-119465960D02*
X129126755Y-119932627D01*
X129076755Y-119532627D02*
X129039255Y-119499294D01*
X129039255Y-119499294D02*
X128968421Y-119465960D01*
X128968421Y-119465960D02*
X128868421Y-119465960D01*
X128868421Y-119465960D02*
X128805921Y-119499294D01*
X128805921Y-119499294D02*
X128780921Y-119565960D01*
X128780921Y-119565960D02*
X128826755Y-119932627D01*
X128493422Y-119932627D02*
X128405922Y-119232627D01*
X128393422Y-119665960D02*
X128226755Y-119932627D01*
X128168422Y-119465960D02*
X128468422Y-119732627D01*
X127626755Y-119932627D02*
X127580921Y-119565960D01*
X127580921Y-119565960D02*
X127605921Y-119499294D01*
X127605921Y-119499294D02*
X127668421Y-119465960D01*
X127668421Y-119465960D02*
X127801755Y-119465960D01*
X127801755Y-119465960D02*
X127872588Y-119499294D01*
X127622588Y-119899294D02*
X127693421Y-119932627D01*
X127693421Y-119932627D02*
X127860088Y-119932627D01*
X127860088Y-119932627D02*
X127922588Y-119899294D01*
X127922588Y-119899294D02*
X127947588Y-119832627D01*
X127947588Y-119832627D02*
X127939255Y-119765960D01*
X127939255Y-119765960D02*
X127897588Y-119699294D01*
X127897588Y-119699294D02*
X127826755Y-119665960D01*
X127826755Y-119665960D02*
X127660088Y-119665960D01*
X127660088Y-119665960D02*
X127589255Y-119632627D01*
X127293422Y-119932627D02*
X127205922Y-119232627D01*
X127239255Y-119499294D02*
X127168422Y-119465960D01*
X127168422Y-119465960D02*
X127035088Y-119465960D01*
X127035088Y-119465960D02*
X126972588Y-119499294D01*
X126972588Y-119499294D02*
X126943422Y-119532627D01*
X126943422Y-119532627D02*
X126918422Y-119599294D01*
X126918422Y-119599294D02*
X126943422Y-119799294D01*
X126943422Y-119799294D02*
X126985088Y-119865960D01*
X126985088Y-119865960D02*
X127022588Y-119899294D01*
X127022588Y-119899294D02*
X127093422Y-119932627D01*
X127093422Y-119932627D02*
X127226755Y-119932627D01*
X127226755Y-119932627D02*
X127289255Y-119899294D01*
X126560089Y-119932627D02*
X126622589Y-119899294D01*
X126622589Y-119899294D02*
X126647589Y-119832627D01*
X126647589Y-119832627D02*
X126572589Y-119232627D01*
X126022588Y-119899294D02*
X126093422Y-119932627D01*
X126093422Y-119932627D02*
X126226755Y-119932627D01*
X126226755Y-119932627D02*
X126289255Y-119899294D01*
X126289255Y-119899294D02*
X126314255Y-119832627D01*
X126314255Y-119832627D02*
X126280922Y-119565960D01*
X126280922Y-119565960D02*
X126239255Y-119499294D01*
X126239255Y-119499294D02*
X126168422Y-119465960D01*
X126168422Y-119465960D02*
X126035088Y-119465960D01*
X126035088Y-119465960D02*
X125972588Y-119499294D01*
X125972588Y-119499294D02*
X125947588Y-119565960D01*
X125947588Y-119565960D02*
X125955922Y-119632627D01*
X125955922Y-119632627D02*
X126297588Y-119699294D01*
X125793422Y-120199294D02*
X125755922Y-120165960D01*
X125755922Y-120165960D02*
X125676755Y-120065960D01*
X125676755Y-120065960D02*
X125635088Y-119999294D01*
X125635088Y-119999294D02*
X125589255Y-119899294D01*
X125589255Y-119899294D02*
X125535088Y-119732627D01*
X125535088Y-119732627D02*
X125518422Y-119599294D01*
X125518422Y-119599294D02*
X125530922Y-119432627D01*
X125530922Y-119432627D02*
X125551755Y-119332627D01*
X125551755Y-119332627D02*
X125576755Y-119265960D01*
X125576755Y-119265960D02*
X125630922Y-119165960D01*
X125630922Y-119165960D02*
X125660088Y-119132627D01*
X143380916Y-121819960D02*
X143285083Y-121853294D01*
X143285083Y-121853294D02*
X143255916Y-121886627D01*
X143255916Y-121886627D02*
X143230916Y-121953294D01*
X143230916Y-121953294D02*
X143243416Y-122053294D01*
X143243416Y-122053294D02*
X143285083Y-122119960D01*
X143285083Y-122119960D02*
X143322583Y-122153294D01*
X143322583Y-122153294D02*
X143393416Y-122186627D01*
X143393416Y-122186627D02*
X143660083Y-122186627D01*
X143660083Y-122186627D02*
X143572583Y-121486627D01*
X143572583Y-121486627D02*
X143339249Y-121486627D01*
X143339249Y-121486627D02*
X143276749Y-121519960D01*
X143276749Y-121519960D02*
X143247583Y-121553294D01*
X143247583Y-121553294D02*
X143222583Y-121619960D01*
X143222583Y-121619960D02*
X143230916Y-121686627D01*
X143230916Y-121686627D02*
X143272583Y-121753294D01*
X143272583Y-121753294D02*
X143310083Y-121786627D01*
X143310083Y-121786627D02*
X143380916Y-121819960D01*
X143380916Y-121819960D02*
X143614249Y-121819960D01*
X142689249Y-122153294D02*
X142760083Y-122186627D01*
X142760083Y-122186627D02*
X142893416Y-122186627D01*
X142893416Y-122186627D02*
X142955916Y-122153294D01*
X142955916Y-122153294D02*
X142980916Y-122086627D01*
X142980916Y-122086627D02*
X142947583Y-121819960D01*
X142947583Y-121819960D02*
X142905916Y-121753294D01*
X142905916Y-121753294D02*
X142835083Y-121719960D01*
X142835083Y-121719960D02*
X142701749Y-121719960D01*
X142701749Y-121719960D02*
X142639249Y-121753294D01*
X142639249Y-121753294D02*
X142614249Y-121819960D01*
X142614249Y-121819960D02*
X142622583Y-121886627D01*
X142622583Y-121886627D02*
X142964249Y-121953294D01*
X142360083Y-122186627D02*
X142301749Y-121719960D01*
X142272583Y-121486627D02*
X142310083Y-121519960D01*
X142310083Y-121519960D02*
X142280916Y-121553294D01*
X142280916Y-121553294D02*
X142243416Y-121519960D01*
X142243416Y-121519960D02*
X142272583Y-121486627D01*
X142272583Y-121486627D02*
X142280916Y-121553294D01*
X141968416Y-121719960D02*
X142026750Y-122186627D01*
X141976750Y-121786627D02*
X141939250Y-121753294D01*
X141939250Y-121753294D02*
X141868416Y-121719960D01*
X141868416Y-121719960D02*
X141768416Y-121719960D01*
X141768416Y-121719960D02*
X141705916Y-121753294D01*
X141705916Y-121753294D02*
X141680916Y-121819960D01*
X141680916Y-121819960D02*
X141726750Y-122186627D01*
X141035083Y-121719960D02*
X141105917Y-122286627D01*
X141105917Y-122286627D02*
X141147583Y-122353294D01*
X141147583Y-122353294D02*
X141185083Y-122386627D01*
X141185083Y-122386627D02*
X141255917Y-122419960D01*
X141255917Y-122419960D02*
X141355917Y-122419960D01*
X141355917Y-122419960D02*
X141418417Y-122386627D01*
X141089250Y-122153294D02*
X141160083Y-122186627D01*
X141160083Y-122186627D02*
X141293417Y-122186627D01*
X141293417Y-122186627D02*
X141355917Y-122153294D01*
X141355917Y-122153294D02*
X141385083Y-122119960D01*
X141385083Y-122119960D02*
X141410083Y-122053294D01*
X141410083Y-122053294D02*
X141385083Y-121853294D01*
X141385083Y-121853294D02*
X141343417Y-121786627D01*
X141343417Y-121786627D02*
X141305917Y-121753294D01*
X141305917Y-121753294D02*
X141235083Y-121719960D01*
X141235083Y-121719960D02*
X141101750Y-121719960D01*
X141101750Y-121719960D02*
X141039250Y-121753294D01*
X140235084Y-121719960D02*
X140160084Y-122186627D01*
X140160084Y-122186627D02*
X139985084Y-121853294D01*
X139985084Y-121853294D02*
X139893417Y-122186627D01*
X139893417Y-122186627D02*
X139701751Y-121719960D01*
X139222584Y-122153294D02*
X139293418Y-122186627D01*
X139293418Y-122186627D02*
X139426751Y-122186627D01*
X139426751Y-122186627D02*
X139489251Y-122153294D01*
X139489251Y-122153294D02*
X139514251Y-122086627D01*
X139514251Y-122086627D02*
X139480918Y-121819960D01*
X139480918Y-121819960D02*
X139439251Y-121753294D01*
X139439251Y-121753294D02*
X139368418Y-121719960D01*
X139368418Y-121719960D02*
X139235084Y-121719960D01*
X139235084Y-121719960D02*
X139172584Y-121753294D01*
X139172584Y-121753294D02*
X139147584Y-121819960D01*
X139147584Y-121819960D02*
X139155918Y-121886627D01*
X139155918Y-121886627D02*
X139497584Y-121953294D01*
X138893418Y-122186627D02*
X138835084Y-121719960D01*
X138805918Y-121486627D02*
X138843418Y-121519960D01*
X138843418Y-121519960D02*
X138814251Y-121553294D01*
X138814251Y-121553294D02*
X138776751Y-121519960D01*
X138776751Y-121519960D02*
X138805918Y-121486627D01*
X138805918Y-121486627D02*
X138814251Y-121553294D01*
X138560085Y-122186627D02*
X138501751Y-121719960D01*
X138518418Y-121853294D02*
X138476751Y-121786627D01*
X138476751Y-121786627D02*
X138439251Y-121753294D01*
X138439251Y-121753294D02*
X138368418Y-121719960D01*
X138368418Y-121719960D02*
X138301751Y-121719960D01*
X137826752Y-122186627D02*
X137739252Y-121486627D01*
X137822585Y-122153294D02*
X137893418Y-122186627D01*
X137893418Y-122186627D02*
X138026752Y-122186627D01*
X138026752Y-122186627D02*
X138089252Y-122153294D01*
X138089252Y-122153294D02*
X138118418Y-122119960D01*
X138118418Y-122119960D02*
X138143418Y-122053294D01*
X138143418Y-122053294D02*
X138118418Y-121853294D01*
X138118418Y-121853294D02*
X138076752Y-121786627D01*
X138076752Y-121786627D02*
X138039252Y-121753294D01*
X138039252Y-121753294D02*
X137968418Y-121719960D01*
X137968418Y-121719960D02*
X137835085Y-121719960D01*
X137835085Y-121719960D02*
X137772585Y-121753294D01*
X136960086Y-122186627D02*
X136901752Y-121719960D01*
X136910086Y-121786627D02*
X136872586Y-121753294D01*
X136872586Y-121753294D02*
X136801752Y-121719960D01*
X136801752Y-121719960D02*
X136701752Y-121719960D01*
X136701752Y-121719960D02*
X136639252Y-121753294D01*
X136639252Y-121753294D02*
X136614252Y-121819960D01*
X136614252Y-121819960D02*
X136660086Y-122186627D01*
X136614252Y-121819960D02*
X136572586Y-121753294D01*
X136572586Y-121753294D02*
X136501752Y-121719960D01*
X136501752Y-121719960D02*
X136401752Y-121719960D01*
X136401752Y-121719960D02*
X136339252Y-121753294D01*
X136339252Y-121753294D02*
X136314252Y-121819960D01*
X136314252Y-121819960D02*
X136360086Y-122186627D01*
X135755919Y-122153294D02*
X135826753Y-122186627D01*
X135826753Y-122186627D02*
X135960086Y-122186627D01*
X135960086Y-122186627D02*
X136022586Y-122153294D01*
X136022586Y-122153294D02*
X136047586Y-122086627D01*
X136047586Y-122086627D02*
X136014253Y-121819960D01*
X136014253Y-121819960D02*
X135972586Y-121753294D01*
X135972586Y-121753294D02*
X135901753Y-121719960D01*
X135901753Y-121719960D02*
X135768419Y-121719960D01*
X135768419Y-121719960D02*
X135705919Y-121753294D01*
X135705919Y-121753294D02*
X135680919Y-121819960D01*
X135680919Y-121819960D02*
X135689253Y-121886627D01*
X135689253Y-121886627D02*
X136030919Y-121953294D01*
X135126753Y-122186627D02*
X135080919Y-121819960D01*
X135080919Y-121819960D02*
X135105919Y-121753294D01*
X135105919Y-121753294D02*
X135168419Y-121719960D01*
X135168419Y-121719960D02*
X135301753Y-121719960D01*
X135301753Y-121719960D02*
X135372586Y-121753294D01*
X135122586Y-122153294D02*
X135193419Y-122186627D01*
X135193419Y-122186627D02*
X135360086Y-122186627D01*
X135360086Y-122186627D02*
X135422586Y-122153294D01*
X135422586Y-122153294D02*
X135447586Y-122086627D01*
X135447586Y-122086627D02*
X135439253Y-122019960D01*
X135439253Y-122019960D02*
X135397586Y-121953294D01*
X135397586Y-121953294D02*
X135326753Y-121919960D01*
X135326753Y-121919960D02*
X135160086Y-121919960D01*
X135160086Y-121919960D02*
X135089253Y-121886627D01*
X134735086Y-121719960D02*
X134793420Y-122186627D01*
X134743420Y-121786627D02*
X134705920Y-121753294D01*
X134705920Y-121753294D02*
X134635086Y-121719960D01*
X134635086Y-121719960D02*
X134535086Y-121719960D01*
X134535086Y-121719960D02*
X134472586Y-121753294D01*
X134472586Y-121753294D02*
X134447586Y-121819960D01*
X134447586Y-121819960D02*
X134493420Y-122186627D01*
X134189253Y-122153294D02*
X134126753Y-122186627D01*
X134126753Y-122186627D02*
X133993420Y-122186627D01*
X133993420Y-122186627D02*
X133922587Y-122153294D01*
X133922587Y-122153294D02*
X133880920Y-122086627D01*
X133880920Y-122086627D02*
X133876753Y-122053294D01*
X133876753Y-122053294D02*
X133901753Y-121986627D01*
X133901753Y-121986627D02*
X133964253Y-121953294D01*
X133964253Y-121953294D02*
X134064253Y-121953294D01*
X134064253Y-121953294D02*
X134126753Y-121919960D01*
X134126753Y-121919960D02*
X134151753Y-121853294D01*
X134151753Y-121853294D02*
X134147587Y-121819960D01*
X134147587Y-121819960D02*
X134105920Y-121753294D01*
X134105920Y-121753294D02*
X134035087Y-121719960D01*
X134035087Y-121719960D02*
X133935087Y-121719960D01*
X133935087Y-121719960D02*
X133872587Y-121753294D01*
X133060087Y-122186627D02*
X132972587Y-121486627D01*
X133005920Y-121753294D02*
X132935087Y-121719960D01*
X132935087Y-121719960D02*
X132801753Y-121719960D01*
X132801753Y-121719960D02*
X132739253Y-121753294D01*
X132739253Y-121753294D02*
X132710087Y-121786627D01*
X132710087Y-121786627D02*
X132685087Y-121853294D01*
X132685087Y-121853294D02*
X132710087Y-122053294D01*
X132710087Y-122053294D02*
X132751753Y-122119960D01*
X132751753Y-122119960D02*
X132789253Y-122153294D01*
X132789253Y-122153294D02*
X132860087Y-122186627D01*
X132860087Y-122186627D02*
X132993420Y-122186627D01*
X132993420Y-122186627D02*
X133055920Y-122153294D01*
X132155920Y-122153294D02*
X132226754Y-122186627D01*
X132226754Y-122186627D02*
X132360087Y-122186627D01*
X132360087Y-122186627D02*
X132422587Y-122153294D01*
X132422587Y-122153294D02*
X132447587Y-122086627D01*
X132447587Y-122086627D02*
X132414254Y-121819960D01*
X132414254Y-121819960D02*
X132372587Y-121753294D01*
X132372587Y-121753294D02*
X132301754Y-121719960D01*
X132301754Y-121719960D02*
X132168420Y-121719960D01*
X132168420Y-121719960D02*
X132105920Y-121753294D01*
X132105920Y-121753294D02*
X132080920Y-121819960D01*
X132080920Y-121819960D02*
X132089254Y-121886627D01*
X132089254Y-121886627D02*
X132430920Y-121953294D01*
X131826754Y-122186627D02*
X131768420Y-121719960D01*
X131739254Y-121486627D02*
X131776754Y-121519960D01*
X131776754Y-121519960D02*
X131747587Y-121553294D01*
X131747587Y-121553294D02*
X131710087Y-121519960D01*
X131710087Y-121519960D02*
X131739254Y-121486627D01*
X131739254Y-121486627D02*
X131747587Y-121553294D01*
X131435087Y-121719960D02*
X131493421Y-122186627D01*
X131443421Y-121786627D02*
X131405921Y-121753294D01*
X131405921Y-121753294D02*
X131335087Y-121719960D01*
X131335087Y-121719960D02*
X131235087Y-121719960D01*
X131235087Y-121719960D02*
X131172587Y-121753294D01*
X131172587Y-121753294D02*
X131147587Y-121819960D01*
X131147587Y-121819960D02*
X131193421Y-122186627D01*
X130501754Y-121719960D02*
X130572588Y-122286627D01*
X130572588Y-122286627D02*
X130614254Y-122353294D01*
X130614254Y-122353294D02*
X130651754Y-122386627D01*
X130651754Y-122386627D02*
X130722588Y-122419960D01*
X130722588Y-122419960D02*
X130822588Y-122419960D01*
X130822588Y-122419960D02*
X130885088Y-122386627D01*
X130555921Y-122153294D02*
X130626754Y-122186627D01*
X130626754Y-122186627D02*
X130760088Y-122186627D01*
X130760088Y-122186627D02*
X130822588Y-122153294D01*
X130822588Y-122153294D02*
X130851754Y-122119960D01*
X130851754Y-122119960D02*
X130876754Y-122053294D01*
X130876754Y-122053294D02*
X130851754Y-121853294D01*
X130851754Y-121853294D02*
X130810088Y-121786627D01*
X130810088Y-121786627D02*
X130772588Y-121753294D01*
X130772588Y-121753294D02*
X130701754Y-121719960D01*
X130701754Y-121719960D02*
X130568421Y-121719960D01*
X130568421Y-121719960D02*
X130505921Y-121753294D01*
X129635088Y-121719960D02*
X129693422Y-122186627D01*
X129643422Y-121786627D02*
X129605922Y-121753294D01*
X129605922Y-121753294D02*
X129535088Y-121719960D01*
X129535088Y-121719960D02*
X129435088Y-121719960D01*
X129435088Y-121719960D02*
X129372588Y-121753294D01*
X129372588Y-121753294D02*
X129347588Y-121819960D01*
X129347588Y-121819960D02*
X129393422Y-122186627D01*
X128960089Y-122186627D02*
X129022589Y-122153294D01*
X129022589Y-122153294D02*
X129051755Y-122119960D01*
X129051755Y-122119960D02*
X129076755Y-122053294D01*
X129076755Y-122053294D02*
X129051755Y-121853294D01*
X129051755Y-121853294D02*
X129010089Y-121786627D01*
X129010089Y-121786627D02*
X128972589Y-121753294D01*
X128972589Y-121753294D02*
X128901755Y-121719960D01*
X128901755Y-121719960D02*
X128801755Y-121719960D01*
X128801755Y-121719960D02*
X128739255Y-121753294D01*
X128739255Y-121753294D02*
X128710089Y-121786627D01*
X128710089Y-121786627D02*
X128685089Y-121853294D01*
X128685089Y-121853294D02*
X128710089Y-122053294D01*
X128710089Y-122053294D02*
X128751755Y-122119960D01*
X128751755Y-122119960D02*
X128789255Y-122153294D01*
X128789255Y-122153294D02*
X128860089Y-122186627D01*
X128860089Y-122186627D02*
X128960089Y-122186627D01*
X128468422Y-121719960D02*
X128201756Y-121719960D01*
X128339256Y-121486627D02*
X128414256Y-122086627D01*
X128414256Y-122086627D02*
X128389256Y-122153294D01*
X128389256Y-122153294D02*
X128326756Y-122186627D01*
X128326756Y-122186627D02*
X128260089Y-122186627D01*
X128026756Y-122186627D02*
X127968422Y-121719960D01*
X127939256Y-121486627D02*
X127976756Y-121519960D01*
X127976756Y-121519960D02*
X127947589Y-121553294D01*
X127947589Y-121553294D02*
X127910089Y-121519960D01*
X127910089Y-121519960D02*
X127939256Y-121486627D01*
X127939256Y-121486627D02*
X127947589Y-121553294D01*
X127389256Y-122153294D02*
X127460089Y-122186627D01*
X127460089Y-122186627D02*
X127593423Y-122186627D01*
X127593423Y-122186627D02*
X127655923Y-122153294D01*
X127655923Y-122153294D02*
X127685089Y-122119960D01*
X127685089Y-122119960D02*
X127710089Y-122053294D01*
X127710089Y-122053294D02*
X127685089Y-121853294D01*
X127685089Y-121853294D02*
X127643423Y-121786627D01*
X127643423Y-121786627D02*
X127605923Y-121753294D01*
X127605923Y-121753294D02*
X127535089Y-121719960D01*
X127535089Y-121719960D02*
X127401756Y-121719960D01*
X127401756Y-121719960D02*
X127339256Y-121753294D01*
X126822589Y-122153294D02*
X126893423Y-122186627D01*
X126893423Y-122186627D02*
X127026756Y-122186627D01*
X127026756Y-122186627D02*
X127089256Y-122153294D01*
X127089256Y-122153294D02*
X127114256Y-122086627D01*
X127114256Y-122086627D02*
X127080923Y-121819960D01*
X127080923Y-121819960D02*
X127039256Y-121753294D01*
X127039256Y-121753294D02*
X126968423Y-121719960D01*
X126968423Y-121719960D02*
X126835089Y-121719960D01*
X126835089Y-121719960D02*
X126772589Y-121753294D01*
X126772589Y-121753294D02*
X126747589Y-121819960D01*
X126747589Y-121819960D02*
X126755923Y-121886627D01*
X126755923Y-121886627D02*
X127097589Y-121953294D01*
X126193423Y-122186627D02*
X126147589Y-121819960D01*
X126147589Y-121819960D02*
X126172589Y-121753294D01*
X126172589Y-121753294D02*
X126235089Y-121719960D01*
X126235089Y-121719960D02*
X126368423Y-121719960D01*
X126368423Y-121719960D02*
X126439256Y-121753294D01*
X126189256Y-122153294D02*
X126260089Y-122186627D01*
X126260089Y-122186627D02*
X126426756Y-122186627D01*
X126426756Y-122186627D02*
X126489256Y-122153294D01*
X126489256Y-122153294D02*
X126514256Y-122086627D01*
X126514256Y-122086627D02*
X126505923Y-122019960D01*
X126505923Y-122019960D02*
X126464256Y-121953294D01*
X126464256Y-121953294D02*
X126393423Y-121919960D01*
X126393423Y-121919960D02*
X126226756Y-121919960D01*
X126226756Y-121919960D02*
X126155923Y-121886627D01*
X125860090Y-122186627D02*
X125772590Y-121486627D01*
X125805923Y-121753294D02*
X125735090Y-121719960D01*
X125735090Y-121719960D02*
X125601756Y-121719960D01*
X125601756Y-121719960D02*
X125539256Y-121753294D01*
X125539256Y-121753294D02*
X125510090Y-121786627D01*
X125510090Y-121786627D02*
X125485090Y-121853294D01*
X125485090Y-121853294D02*
X125510090Y-122053294D01*
X125510090Y-122053294D02*
X125551756Y-122119960D01*
X125551756Y-122119960D02*
X125589256Y-122153294D01*
X125589256Y-122153294D02*
X125660090Y-122186627D01*
X125660090Y-122186627D02*
X125793423Y-122186627D01*
X125793423Y-122186627D02*
X125855923Y-122153294D01*
X125126757Y-122186627D02*
X125189257Y-122153294D01*
X125189257Y-122153294D02*
X125214257Y-122086627D01*
X125214257Y-122086627D02*
X125139257Y-121486627D01*
X124868423Y-121719960D02*
X124760090Y-122186627D01*
X124535090Y-121719960D02*
X124760090Y-122186627D01*
X124760090Y-122186627D02*
X124847590Y-122353294D01*
X124847590Y-122353294D02*
X124885090Y-122386627D01*
X124885090Y-122386627D02*
X124955923Y-122419960D01*
X143360083Y-123313627D02*
X143272583Y-122613627D01*
X143355916Y-123280294D02*
X143426749Y-123313627D01*
X143426749Y-123313627D02*
X143560083Y-123313627D01*
X143560083Y-123313627D02*
X143622583Y-123280294D01*
X143622583Y-123280294D02*
X143651749Y-123246960D01*
X143651749Y-123246960D02*
X143676749Y-123180294D01*
X143676749Y-123180294D02*
X143651749Y-122980294D01*
X143651749Y-122980294D02*
X143610083Y-122913627D01*
X143610083Y-122913627D02*
X143572583Y-122880294D01*
X143572583Y-122880294D02*
X143501749Y-122846960D01*
X143501749Y-122846960D02*
X143368416Y-122846960D01*
X143368416Y-122846960D02*
X143305916Y-122880294D01*
X143026750Y-123313627D02*
X142968416Y-122846960D01*
X142939250Y-122613627D02*
X142976750Y-122646960D01*
X142976750Y-122646960D02*
X142947583Y-122680294D01*
X142947583Y-122680294D02*
X142910083Y-122646960D01*
X142910083Y-122646960D02*
X142939250Y-122613627D01*
X142939250Y-122613627D02*
X142947583Y-122680294D01*
X142735083Y-122846960D02*
X142468417Y-122846960D01*
X142693417Y-123313627D02*
X142618417Y-122713627D01*
X142618417Y-122713627D02*
X142576750Y-122646960D01*
X142576750Y-122646960D02*
X142505917Y-122613627D01*
X142505917Y-122613627D02*
X142439250Y-122613627D01*
X142335083Y-122846960D02*
X142068417Y-122846960D01*
X142293417Y-123313627D02*
X142218417Y-122713627D01*
X142218417Y-122713627D02*
X142176750Y-122646960D01*
X142176750Y-122646960D02*
X142105917Y-122613627D01*
X142105917Y-122613627D02*
X142039250Y-122613627D01*
X141622583Y-123280294D02*
X141693417Y-123313627D01*
X141693417Y-123313627D02*
X141826750Y-123313627D01*
X141826750Y-123313627D02*
X141889250Y-123280294D01*
X141889250Y-123280294D02*
X141914250Y-123213627D01*
X141914250Y-123213627D02*
X141880917Y-122946960D01*
X141880917Y-122946960D02*
X141839250Y-122880294D01*
X141839250Y-122880294D02*
X141768417Y-122846960D01*
X141768417Y-122846960D02*
X141635083Y-122846960D01*
X141635083Y-122846960D02*
X141572583Y-122880294D01*
X141572583Y-122880294D02*
X141547583Y-122946960D01*
X141547583Y-122946960D02*
X141555917Y-123013627D01*
X141555917Y-123013627D02*
X141897583Y-123080294D01*
X141293417Y-123313627D02*
X141235083Y-122846960D01*
X141251750Y-122980294D02*
X141210083Y-122913627D01*
X141210083Y-122913627D02*
X141172583Y-122880294D01*
X141172583Y-122880294D02*
X141101750Y-122846960D01*
X141101750Y-122846960D02*
X141035083Y-122846960D01*
X140589250Y-123280294D02*
X140660084Y-123313627D01*
X140660084Y-123313627D02*
X140793417Y-123313627D01*
X140793417Y-123313627D02*
X140855917Y-123280294D01*
X140855917Y-123280294D02*
X140880917Y-123213627D01*
X140880917Y-123213627D02*
X140847584Y-122946960D01*
X140847584Y-122946960D02*
X140805917Y-122880294D01*
X140805917Y-122880294D02*
X140735084Y-122846960D01*
X140735084Y-122846960D02*
X140601750Y-122846960D01*
X140601750Y-122846960D02*
X140539250Y-122880294D01*
X140539250Y-122880294D02*
X140514250Y-122946960D01*
X140514250Y-122946960D02*
X140522584Y-123013627D01*
X140522584Y-123013627D02*
X140864250Y-123080294D01*
X140201750Y-122846960D02*
X140260084Y-123313627D01*
X140210084Y-122913627D02*
X140172584Y-122880294D01*
X140172584Y-122880294D02*
X140101750Y-122846960D01*
X140101750Y-122846960D02*
X140001750Y-122846960D01*
X140001750Y-122846960D02*
X139939250Y-122880294D01*
X139939250Y-122880294D02*
X139914250Y-122946960D01*
X139914250Y-122946960D02*
X139960084Y-123313627D01*
X139668417Y-122846960D02*
X139401751Y-122846960D01*
X139539251Y-122613627D02*
X139614251Y-123213627D01*
X139614251Y-123213627D02*
X139589251Y-123280294D01*
X139589251Y-123280294D02*
X139526751Y-123313627D01*
X139526751Y-123313627D02*
X139460084Y-123313627D01*
X139218417Y-123246960D02*
X139189251Y-123280294D01*
X139189251Y-123280294D02*
X139226751Y-123313627D01*
X139226751Y-123313627D02*
X139255917Y-123280294D01*
X139255917Y-123280294D02*
X139218417Y-123246960D01*
X139218417Y-123246960D02*
X139226751Y-123313627D01*
X138360085Y-123313627D02*
X138272585Y-122613627D01*
X138068418Y-122846960D02*
X137801752Y-122846960D01*
X137939252Y-122613627D02*
X138014252Y-123213627D01*
X138014252Y-123213627D02*
X137989252Y-123280294D01*
X137989252Y-123280294D02*
X137926752Y-123313627D01*
X137926752Y-123313627D02*
X137860085Y-123313627D01*
X137093419Y-123313627D02*
X137035085Y-122846960D01*
X137043419Y-122913627D02*
X137005919Y-122880294D01*
X137005919Y-122880294D02*
X136935085Y-122846960D01*
X136935085Y-122846960D02*
X136835085Y-122846960D01*
X136835085Y-122846960D02*
X136772585Y-122880294D01*
X136772585Y-122880294D02*
X136747585Y-122946960D01*
X136747585Y-122946960D02*
X136793419Y-123313627D01*
X136747585Y-122946960D02*
X136705919Y-122880294D01*
X136705919Y-122880294D02*
X136635085Y-122846960D01*
X136635085Y-122846960D02*
X136535085Y-122846960D01*
X136535085Y-122846960D02*
X136472585Y-122880294D01*
X136472585Y-122880294D02*
X136447585Y-122946960D01*
X136447585Y-122946960D02*
X136493419Y-123313627D01*
X135889252Y-123280294D02*
X135960086Y-123313627D01*
X135960086Y-123313627D02*
X136093419Y-123313627D01*
X136093419Y-123313627D02*
X136155919Y-123280294D01*
X136155919Y-123280294D02*
X136180919Y-123213627D01*
X136180919Y-123213627D02*
X136147586Y-122946960D01*
X136147586Y-122946960D02*
X136105919Y-122880294D01*
X136105919Y-122880294D02*
X136035086Y-122846960D01*
X136035086Y-122846960D02*
X135901752Y-122846960D01*
X135901752Y-122846960D02*
X135839252Y-122880294D01*
X135839252Y-122880294D02*
X135814252Y-122946960D01*
X135814252Y-122946960D02*
X135822586Y-123013627D01*
X135822586Y-123013627D02*
X136164252Y-123080294D01*
X135260086Y-123313627D02*
X135214252Y-122946960D01*
X135214252Y-122946960D02*
X135239252Y-122880294D01*
X135239252Y-122880294D02*
X135301752Y-122846960D01*
X135301752Y-122846960D02*
X135435086Y-122846960D01*
X135435086Y-122846960D02*
X135505919Y-122880294D01*
X135255919Y-123280294D02*
X135326752Y-123313627D01*
X135326752Y-123313627D02*
X135493419Y-123313627D01*
X135493419Y-123313627D02*
X135555919Y-123280294D01*
X135555919Y-123280294D02*
X135580919Y-123213627D01*
X135580919Y-123213627D02*
X135572586Y-123146960D01*
X135572586Y-123146960D02*
X135530919Y-123080294D01*
X135530919Y-123080294D02*
X135460086Y-123046960D01*
X135460086Y-123046960D02*
X135293419Y-123046960D01*
X135293419Y-123046960D02*
X135222586Y-123013627D01*
X134868419Y-122846960D02*
X134926753Y-123313627D01*
X134876753Y-122913627D02*
X134839253Y-122880294D01*
X134839253Y-122880294D02*
X134768419Y-122846960D01*
X134768419Y-122846960D02*
X134668419Y-122846960D01*
X134668419Y-122846960D02*
X134605919Y-122880294D01*
X134605919Y-122880294D02*
X134580919Y-122946960D01*
X134580919Y-122946960D02*
X134626753Y-123313627D01*
X134322586Y-123280294D02*
X134260086Y-123313627D01*
X134260086Y-123313627D02*
X134126753Y-123313627D01*
X134126753Y-123313627D02*
X134055920Y-123280294D01*
X134055920Y-123280294D02*
X134014253Y-123213627D01*
X134014253Y-123213627D02*
X134010086Y-123180294D01*
X134010086Y-123180294D02*
X134035086Y-123113627D01*
X134035086Y-123113627D02*
X134097586Y-123080294D01*
X134097586Y-123080294D02*
X134197586Y-123080294D01*
X134197586Y-123080294D02*
X134260086Y-123046960D01*
X134260086Y-123046960D02*
X134285086Y-122980294D01*
X134285086Y-122980294D02*
X134280920Y-122946960D01*
X134280920Y-122946960D02*
X134239253Y-122880294D01*
X134239253Y-122880294D02*
X134168420Y-122846960D01*
X134168420Y-122846960D02*
X134068420Y-122846960D01*
X134068420Y-122846960D02*
X134005920Y-122880294D01*
X133193420Y-123313627D02*
X133105920Y-122613627D01*
X133139253Y-122880294D02*
X133068420Y-122846960D01*
X133068420Y-122846960D02*
X132935086Y-122846960D01*
X132935086Y-122846960D02*
X132872586Y-122880294D01*
X132872586Y-122880294D02*
X132843420Y-122913627D01*
X132843420Y-122913627D02*
X132818420Y-122980294D01*
X132818420Y-122980294D02*
X132843420Y-123180294D01*
X132843420Y-123180294D02*
X132885086Y-123246960D01*
X132885086Y-123246960D02*
X132922586Y-123280294D01*
X132922586Y-123280294D02*
X132993420Y-123313627D01*
X132993420Y-123313627D02*
X133126753Y-123313627D01*
X133126753Y-123313627D02*
X133189253Y-123280294D01*
X132289253Y-123280294D02*
X132360087Y-123313627D01*
X132360087Y-123313627D02*
X132493420Y-123313627D01*
X132493420Y-123313627D02*
X132555920Y-123280294D01*
X132555920Y-123280294D02*
X132580920Y-123213627D01*
X132580920Y-123213627D02*
X132547587Y-122946960D01*
X132547587Y-122946960D02*
X132505920Y-122880294D01*
X132505920Y-122880294D02*
X132435087Y-122846960D01*
X132435087Y-122846960D02*
X132301753Y-122846960D01*
X132301753Y-122846960D02*
X132239253Y-122880294D01*
X132239253Y-122880294D02*
X132214253Y-122946960D01*
X132214253Y-122946960D02*
X132222587Y-123013627D01*
X132222587Y-123013627D02*
X132564253Y-123080294D01*
X131960087Y-123313627D02*
X131901753Y-122846960D01*
X131872587Y-122613627D02*
X131910087Y-122646960D01*
X131910087Y-122646960D02*
X131880920Y-122680294D01*
X131880920Y-122680294D02*
X131843420Y-122646960D01*
X131843420Y-122646960D02*
X131872587Y-122613627D01*
X131872587Y-122613627D02*
X131880920Y-122680294D01*
X131568420Y-122846960D02*
X131626754Y-123313627D01*
X131576754Y-122913627D02*
X131539254Y-122880294D01*
X131539254Y-122880294D02*
X131468420Y-122846960D01*
X131468420Y-122846960D02*
X131368420Y-122846960D01*
X131368420Y-122846960D02*
X131305920Y-122880294D01*
X131305920Y-122880294D02*
X131280920Y-122946960D01*
X131280920Y-122946960D02*
X131326754Y-123313627D01*
X130635087Y-122846960D02*
X130705921Y-123413627D01*
X130705921Y-123413627D02*
X130747587Y-123480294D01*
X130747587Y-123480294D02*
X130785087Y-123513627D01*
X130785087Y-123513627D02*
X130855921Y-123546960D01*
X130855921Y-123546960D02*
X130955921Y-123546960D01*
X130955921Y-123546960D02*
X131018421Y-123513627D01*
X130689254Y-123280294D02*
X130760087Y-123313627D01*
X130760087Y-123313627D02*
X130893421Y-123313627D01*
X130893421Y-123313627D02*
X130955921Y-123280294D01*
X130955921Y-123280294D02*
X130985087Y-123246960D01*
X130985087Y-123246960D02*
X131010087Y-123180294D01*
X131010087Y-123180294D02*
X130985087Y-122980294D01*
X130985087Y-122980294D02*
X130943421Y-122913627D01*
X130943421Y-122913627D02*
X130905921Y-122880294D01*
X130905921Y-122880294D02*
X130835087Y-122846960D01*
X130835087Y-122846960D02*
X130701754Y-122846960D01*
X130701754Y-122846960D02*
X130639254Y-122880294D01*
X129726755Y-123313627D02*
X129789255Y-123280294D01*
X129789255Y-123280294D02*
X129818421Y-123246960D01*
X129818421Y-123246960D02*
X129843421Y-123180294D01*
X129843421Y-123180294D02*
X129818421Y-122980294D01*
X129818421Y-122980294D02*
X129776755Y-122913627D01*
X129776755Y-122913627D02*
X129739255Y-122880294D01*
X129739255Y-122880294D02*
X129668421Y-122846960D01*
X129668421Y-122846960D02*
X129568421Y-122846960D01*
X129568421Y-122846960D02*
X129505921Y-122880294D01*
X129505921Y-122880294D02*
X129476755Y-122913627D01*
X129476755Y-122913627D02*
X129451755Y-122980294D01*
X129451755Y-122980294D02*
X129476755Y-123180294D01*
X129476755Y-123180294D02*
X129518421Y-123246960D01*
X129518421Y-123246960D02*
X129555921Y-123280294D01*
X129555921Y-123280294D02*
X129626755Y-123313627D01*
X129626755Y-123313627D02*
X129726755Y-123313627D01*
X129193422Y-123313627D02*
X129135088Y-122846960D01*
X129151755Y-122980294D02*
X129110088Y-122913627D01*
X129110088Y-122913627D02*
X129072588Y-122880294D01*
X129072588Y-122880294D02*
X129001755Y-122846960D01*
X129001755Y-122846960D02*
X128935088Y-122846960D01*
X127926756Y-123313627D02*
X127839256Y-122613627D01*
X127922589Y-123280294D02*
X127993422Y-123313627D01*
X127993422Y-123313627D02*
X128126756Y-123313627D01*
X128126756Y-123313627D02*
X128189256Y-123280294D01*
X128189256Y-123280294D02*
X128218422Y-123246960D01*
X128218422Y-123246960D02*
X128243422Y-123180294D01*
X128243422Y-123180294D02*
X128218422Y-122980294D01*
X128218422Y-122980294D02*
X128176756Y-122913627D01*
X128176756Y-122913627D02*
X128139256Y-122880294D01*
X128139256Y-122880294D02*
X128068422Y-122846960D01*
X128068422Y-122846960D02*
X127935089Y-122846960D01*
X127935089Y-122846960D02*
X127872589Y-122880294D01*
X127493423Y-123313627D02*
X127555923Y-123280294D01*
X127555923Y-123280294D02*
X127585089Y-123246960D01*
X127585089Y-123246960D02*
X127610089Y-123180294D01*
X127610089Y-123180294D02*
X127585089Y-122980294D01*
X127585089Y-122980294D02*
X127543423Y-122913627D01*
X127543423Y-122913627D02*
X127505923Y-122880294D01*
X127505923Y-122880294D02*
X127435089Y-122846960D01*
X127435089Y-122846960D02*
X127335089Y-122846960D01*
X127335089Y-122846960D02*
X127272589Y-122880294D01*
X127272589Y-122880294D02*
X127243423Y-122913627D01*
X127243423Y-122913627D02*
X127218423Y-122980294D01*
X127218423Y-122980294D02*
X127243423Y-123180294D01*
X127243423Y-123180294D02*
X127285089Y-123246960D01*
X127285089Y-123246960D02*
X127322589Y-123280294D01*
X127322589Y-123280294D02*
X127393423Y-123313627D01*
X127393423Y-123313627D02*
X127493423Y-123313627D01*
X126960090Y-123313627D02*
X126901756Y-122846960D01*
X126872590Y-122613627D02*
X126910090Y-122646960D01*
X126910090Y-122646960D02*
X126880923Y-122680294D01*
X126880923Y-122680294D02*
X126843423Y-122646960D01*
X126843423Y-122646960D02*
X126872590Y-122613627D01*
X126872590Y-122613627D02*
X126880923Y-122680294D01*
X126568423Y-122846960D02*
X126626757Y-123313627D01*
X126576757Y-122913627D02*
X126539257Y-122880294D01*
X126539257Y-122880294D02*
X126468423Y-122846960D01*
X126468423Y-122846960D02*
X126368423Y-122846960D01*
X126368423Y-122846960D02*
X126305923Y-122880294D01*
X126305923Y-122880294D02*
X126280923Y-122946960D01*
X126280923Y-122946960D02*
X126326757Y-123313627D01*
X125635090Y-122846960D02*
X125705924Y-123413627D01*
X125705924Y-123413627D02*
X125747590Y-123480294D01*
X125747590Y-123480294D02*
X125785090Y-123513627D01*
X125785090Y-123513627D02*
X125855924Y-123546960D01*
X125855924Y-123546960D02*
X125955924Y-123546960D01*
X125955924Y-123546960D02*
X126018424Y-123513627D01*
X125689257Y-123280294D02*
X125760090Y-123313627D01*
X125760090Y-123313627D02*
X125893424Y-123313627D01*
X125893424Y-123313627D02*
X125955924Y-123280294D01*
X125955924Y-123280294D02*
X125985090Y-123246960D01*
X125985090Y-123246960D02*
X126010090Y-123180294D01*
X126010090Y-123180294D02*
X125985090Y-122980294D01*
X125985090Y-122980294D02*
X125943424Y-122913627D01*
X125943424Y-122913627D02*
X125905924Y-122880294D01*
X125905924Y-122880294D02*
X125835090Y-122846960D01*
X125835090Y-122846960D02*
X125701757Y-122846960D01*
X125701757Y-122846960D02*
X125639257Y-122880294D01*
X143689249Y-124407294D02*
X143626749Y-124440627D01*
X143626749Y-124440627D02*
X143493416Y-124440627D01*
X143493416Y-124440627D02*
X143422583Y-124407294D01*
X143422583Y-124407294D02*
X143380916Y-124340627D01*
X143380916Y-124340627D02*
X143376749Y-124307294D01*
X143376749Y-124307294D02*
X143401749Y-124240627D01*
X143401749Y-124240627D02*
X143464249Y-124207294D01*
X143464249Y-124207294D02*
X143564249Y-124207294D01*
X143564249Y-124207294D02*
X143626749Y-124173960D01*
X143626749Y-124173960D02*
X143651749Y-124107294D01*
X143651749Y-124107294D02*
X143647583Y-124073960D01*
X143647583Y-124073960D02*
X143605916Y-124007294D01*
X143605916Y-124007294D02*
X143535083Y-123973960D01*
X143535083Y-123973960D02*
X143435083Y-123973960D01*
X143435083Y-123973960D02*
X143372583Y-124007294D01*
X142993416Y-124440627D02*
X143055916Y-124407294D01*
X143055916Y-124407294D02*
X143085082Y-124373960D01*
X143085082Y-124373960D02*
X143110082Y-124307294D01*
X143110082Y-124307294D02*
X143085082Y-124107294D01*
X143085082Y-124107294D02*
X143043416Y-124040627D01*
X143043416Y-124040627D02*
X143005916Y-124007294D01*
X143005916Y-124007294D02*
X142935082Y-123973960D01*
X142935082Y-123973960D02*
X142835082Y-123973960D01*
X142835082Y-123973960D02*
X142772582Y-124007294D01*
X142772582Y-124007294D02*
X142743416Y-124040627D01*
X142743416Y-124040627D02*
X142718416Y-124107294D01*
X142718416Y-124107294D02*
X142743416Y-124307294D01*
X142743416Y-124307294D02*
X142785082Y-124373960D01*
X142785082Y-124373960D02*
X142822582Y-124407294D01*
X142822582Y-124407294D02*
X142893416Y-124440627D01*
X142893416Y-124440627D02*
X142993416Y-124440627D01*
X142460083Y-124440627D02*
X142401749Y-123973960D01*
X142410083Y-124040627D02*
X142372583Y-124007294D01*
X142372583Y-124007294D02*
X142301749Y-123973960D01*
X142301749Y-123973960D02*
X142201749Y-123973960D01*
X142201749Y-123973960D02*
X142139249Y-124007294D01*
X142139249Y-124007294D02*
X142114249Y-124073960D01*
X142114249Y-124073960D02*
X142160083Y-124440627D01*
X142114249Y-124073960D02*
X142072583Y-124007294D01*
X142072583Y-124007294D02*
X142001749Y-123973960D01*
X142001749Y-123973960D02*
X141901749Y-123973960D01*
X141901749Y-123973960D02*
X141839249Y-124007294D01*
X141839249Y-124007294D02*
X141814249Y-124073960D01*
X141814249Y-124073960D02*
X141860083Y-124440627D01*
X141255916Y-124407294D02*
X141326750Y-124440627D01*
X141326750Y-124440627D02*
X141460083Y-124440627D01*
X141460083Y-124440627D02*
X141522583Y-124407294D01*
X141522583Y-124407294D02*
X141547583Y-124340627D01*
X141547583Y-124340627D02*
X141514250Y-124073960D01*
X141514250Y-124073960D02*
X141472583Y-124007294D01*
X141472583Y-124007294D02*
X141401750Y-123973960D01*
X141401750Y-123973960D02*
X141268416Y-123973960D01*
X141268416Y-123973960D02*
X141205916Y-124007294D01*
X141205916Y-124007294D02*
X141180916Y-124073960D01*
X141180916Y-124073960D02*
X141189250Y-124140627D01*
X141189250Y-124140627D02*
X141530916Y-124207294D01*
X140968416Y-123973960D02*
X140701750Y-123973960D01*
X140839250Y-123740627D02*
X140914250Y-124340627D01*
X140914250Y-124340627D02*
X140889250Y-124407294D01*
X140889250Y-124407294D02*
X140826750Y-124440627D01*
X140826750Y-124440627D02*
X140760083Y-124440627D01*
X140526750Y-124440627D02*
X140439250Y-123740627D01*
X140226750Y-124440627D02*
X140180916Y-124073960D01*
X140180916Y-124073960D02*
X140205916Y-124007294D01*
X140205916Y-124007294D02*
X140268416Y-123973960D01*
X140268416Y-123973960D02*
X140368416Y-123973960D01*
X140368416Y-123973960D02*
X140439250Y-124007294D01*
X140439250Y-124007294D02*
X140476750Y-124040627D01*
X139893417Y-124440627D02*
X139835083Y-123973960D01*
X139805917Y-123740627D02*
X139843417Y-123773960D01*
X139843417Y-123773960D02*
X139814250Y-123807294D01*
X139814250Y-123807294D02*
X139776750Y-123773960D01*
X139776750Y-123773960D02*
X139805917Y-123740627D01*
X139805917Y-123740627D02*
X139814250Y-123807294D01*
X139501750Y-123973960D02*
X139560084Y-124440627D01*
X139510084Y-124040627D02*
X139472584Y-124007294D01*
X139472584Y-124007294D02*
X139401750Y-123973960D01*
X139401750Y-123973960D02*
X139301750Y-123973960D01*
X139301750Y-123973960D02*
X139239250Y-124007294D01*
X139239250Y-124007294D02*
X139214250Y-124073960D01*
X139214250Y-124073960D02*
X139260084Y-124440627D01*
X138568417Y-123973960D02*
X138639251Y-124540627D01*
X138639251Y-124540627D02*
X138680917Y-124607294D01*
X138680917Y-124607294D02*
X138718417Y-124640627D01*
X138718417Y-124640627D02*
X138789251Y-124673960D01*
X138789251Y-124673960D02*
X138889251Y-124673960D01*
X138889251Y-124673960D02*
X138951751Y-124640627D01*
X138622584Y-124407294D02*
X138693417Y-124440627D01*
X138693417Y-124440627D02*
X138826751Y-124440627D01*
X138826751Y-124440627D02*
X138889251Y-124407294D01*
X138889251Y-124407294D02*
X138918417Y-124373960D01*
X138918417Y-124373960D02*
X138943417Y-124307294D01*
X138943417Y-124307294D02*
X138918417Y-124107294D01*
X138918417Y-124107294D02*
X138876751Y-124040627D01*
X138876751Y-124040627D02*
X138839251Y-124007294D01*
X138839251Y-124007294D02*
X138768417Y-123973960D01*
X138768417Y-123973960D02*
X138635084Y-123973960D01*
X138635084Y-123973960D02*
X138572584Y-124007294D01*
X137801751Y-123973960D02*
X137535085Y-123973960D01*
X137672585Y-123740627D02*
X137747585Y-124340627D01*
X137747585Y-124340627D02*
X137722585Y-124407294D01*
X137722585Y-124407294D02*
X137660085Y-124440627D01*
X137660085Y-124440627D02*
X137593418Y-124440627D01*
X137360085Y-124440627D02*
X137272585Y-123740627D01*
X137060085Y-124440627D02*
X137014251Y-124073960D01*
X137014251Y-124073960D02*
X137039251Y-124007294D01*
X137039251Y-124007294D02*
X137101751Y-123973960D01*
X137101751Y-123973960D02*
X137201751Y-123973960D01*
X137201751Y-123973960D02*
X137272585Y-124007294D01*
X137272585Y-124007294D02*
X137310085Y-124040627D01*
X136426752Y-124440627D02*
X136380918Y-124073960D01*
X136380918Y-124073960D02*
X136405918Y-124007294D01*
X136405918Y-124007294D02*
X136468418Y-123973960D01*
X136468418Y-123973960D02*
X136601752Y-123973960D01*
X136601752Y-123973960D02*
X136672585Y-124007294D01*
X136422585Y-124407294D02*
X136493418Y-124440627D01*
X136493418Y-124440627D02*
X136660085Y-124440627D01*
X136660085Y-124440627D02*
X136722585Y-124407294D01*
X136722585Y-124407294D02*
X136747585Y-124340627D01*
X136747585Y-124340627D02*
X136739252Y-124273960D01*
X136739252Y-124273960D02*
X136697585Y-124207294D01*
X136697585Y-124207294D02*
X136626752Y-124173960D01*
X136626752Y-124173960D02*
X136460085Y-124173960D01*
X136460085Y-124173960D02*
X136389252Y-124140627D01*
X136135085Y-123973960D02*
X135868419Y-123973960D01*
X136005919Y-123740627D02*
X136080919Y-124340627D01*
X136080919Y-124340627D02*
X136055919Y-124407294D01*
X136055919Y-124407294D02*
X135993419Y-124440627D01*
X135993419Y-124440627D02*
X135926752Y-124440627D01*
X135160086Y-124440627D02*
X135101752Y-123973960D01*
X135110086Y-124040627D02*
X135072586Y-124007294D01*
X135072586Y-124007294D02*
X135001752Y-123973960D01*
X135001752Y-123973960D02*
X134901752Y-123973960D01*
X134901752Y-123973960D02*
X134839252Y-124007294D01*
X134839252Y-124007294D02*
X134814252Y-124073960D01*
X134814252Y-124073960D02*
X134860086Y-124440627D01*
X134814252Y-124073960D02*
X134772586Y-124007294D01*
X134772586Y-124007294D02*
X134701752Y-123973960D01*
X134701752Y-123973960D02*
X134601752Y-123973960D01*
X134601752Y-123973960D02*
X134539252Y-124007294D01*
X134539252Y-124007294D02*
X134514252Y-124073960D01*
X134514252Y-124073960D02*
X134560086Y-124440627D01*
X133926753Y-124440627D02*
X133880919Y-124073960D01*
X133880919Y-124073960D02*
X133905919Y-124007294D01*
X133905919Y-124007294D02*
X133968419Y-123973960D01*
X133968419Y-123973960D02*
X134101753Y-123973960D01*
X134101753Y-123973960D02*
X134172586Y-124007294D01*
X133922586Y-124407294D02*
X133993419Y-124440627D01*
X133993419Y-124440627D02*
X134160086Y-124440627D01*
X134160086Y-124440627D02*
X134222586Y-124407294D01*
X134222586Y-124407294D02*
X134247586Y-124340627D01*
X134247586Y-124340627D02*
X134239253Y-124273960D01*
X134239253Y-124273960D02*
X134197586Y-124207294D01*
X134197586Y-124207294D02*
X134126753Y-124173960D01*
X134126753Y-124173960D02*
X133960086Y-124173960D01*
X133960086Y-124173960D02*
X133889253Y-124140627D01*
X133593420Y-124440627D02*
X133505920Y-123740627D01*
X133493420Y-124173960D02*
X133326753Y-124440627D01*
X133268420Y-123973960D02*
X133568420Y-124240627D01*
X132755919Y-124407294D02*
X132826753Y-124440627D01*
X132826753Y-124440627D02*
X132960086Y-124440627D01*
X132960086Y-124440627D02*
X133022586Y-124407294D01*
X133022586Y-124407294D02*
X133047586Y-124340627D01*
X133047586Y-124340627D02*
X133014253Y-124073960D01*
X133014253Y-124073960D02*
X132972586Y-124007294D01*
X132972586Y-124007294D02*
X132901753Y-123973960D01*
X132901753Y-123973960D02*
X132768419Y-123973960D01*
X132768419Y-123973960D02*
X132705919Y-124007294D01*
X132705919Y-124007294D02*
X132680919Y-124073960D01*
X132680919Y-124073960D02*
X132689253Y-124140627D01*
X132689253Y-124140627D02*
X133030919Y-124207294D01*
X132455919Y-124407294D02*
X132393419Y-124440627D01*
X132393419Y-124440627D02*
X132260086Y-124440627D01*
X132260086Y-124440627D02*
X132189253Y-124407294D01*
X132189253Y-124407294D02*
X132147586Y-124340627D01*
X132147586Y-124340627D02*
X132143419Y-124307294D01*
X132143419Y-124307294D02*
X132168419Y-124240627D01*
X132168419Y-124240627D02*
X132230919Y-124207294D01*
X132230919Y-124207294D02*
X132330919Y-124207294D01*
X132330919Y-124207294D02*
X132393419Y-124173960D01*
X132393419Y-124173960D02*
X132418419Y-124107294D01*
X132418419Y-124107294D02*
X132414253Y-124073960D01*
X132414253Y-124073960D02*
X132372586Y-124007294D01*
X132372586Y-124007294D02*
X132301753Y-123973960D01*
X132301753Y-123973960D02*
X132201753Y-123973960D01*
X132201753Y-123973960D02*
X132139253Y-124007294D01*
X131226753Y-124440627D02*
X131289253Y-124407294D01*
X131289253Y-124407294D02*
X131318419Y-124373960D01*
X131318419Y-124373960D02*
X131343419Y-124307294D01*
X131343419Y-124307294D02*
X131318419Y-124107294D01*
X131318419Y-124107294D02*
X131276753Y-124040627D01*
X131276753Y-124040627D02*
X131239253Y-124007294D01*
X131239253Y-124007294D02*
X131168419Y-123973960D01*
X131168419Y-123973960D02*
X131068419Y-123973960D01*
X131068419Y-123973960D02*
X131005919Y-124007294D01*
X131005919Y-124007294D02*
X130976753Y-124040627D01*
X130976753Y-124040627D02*
X130951753Y-124107294D01*
X130951753Y-124107294D02*
X130976753Y-124307294D01*
X130976753Y-124307294D02*
X131018419Y-124373960D01*
X131018419Y-124373960D02*
X131055919Y-124407294D01*
X131055919Y-124407294D02*
X131126753Y-124440627D01*
X131126753Y-124440627D02*
X131226753Y-124440627D01*
X130735086Y-123973960D02*
X130468420Y-123973960D01*
X130605920Y-123740627D02*
X130680920Y-124340627D01*
X130680920Y-124340627D02*
X130655920Y-124407294D01*
X130655920Y-124407294D02*
X130593420Y-124440627D01*
X130593420Y-124440627D02*
X130526753Y-124440627D01*
X130293420Y-124440627D02*
X130205920Y-123740627D01*
X129993420Y-124440627D02*
X129947586Y-124073960D01*
X129947586Y-124073960D02*
X129972586Y-124007294D01*
X129972586Y-124007294D02*
X130035086Y-123973960D01*
X130035086Y-123973960D02*
X130135086Y-123973960D01*
X130135086Y-123973960D02*
X130205920Y-124007294D01*
X130205920Y-124007294D02*
X130243420Y-124040627D01*
X129389253Y-124407294D02*
X129460087Y-124440627D01*
X129460087Y-124440627D02*
X129593420Y-124440627D01*
X129593420Y-124440627D02*
X129655920Y-124407294D01*
X129655920Y-124407294D02*
X129680920Y-124340627D01*
X129680920Y-124340627D02*
X129647587Y-124073960D01*
X129647587Y-124073960D02*
X129605920Y-124007294D01*
X129605920Y-124007294D02*
X129535087Y-123973960D01*
X129535087Y-123973960D02*
X129401753Y-123973960D01*
X129401753Y-123973960D02*
X129339253Y-124007294D01*
X129339253Y-124007294D02*
X129314253Y-124073960D01*
X129314253Y-124073960D02*
X129322587Y-124140627D01*
X129322587Y-124140627D02*
X129664253Y-124207294D01*
X129060087Y-124440627D02*
X129001753Y-123973960D01*
X129018420Y-124107294D02*
X128976753Y-124040627D01*
X128976753Y-124040627D02*
X128939253Y-124007294D01*
X128939253Y-124007294D02*
X128868420Y-123973960D01*
X128868420Y-123973960D02*
X128801753Y-123973960D01*
X128035087Y-123973960D02*
X128122587Y-124673960D01*
X128039254Y-124007294D02*
X127968421Y-123973960D01*
X127968421Y-123973960D02*
X127835087Y-123973960D01*
X127835087Y-123973960D02*
X127772587Y-124007294D01*
X127772587Y-124007294D02*
X127743421Y-124040627D01*
X127743421Y-124040627D02*
X127718421Y-124107294D01*
X127718421Y-124107294D02*
X127743421Y-124307294D01*
X127743421Y-124307294D02*
X127785087Y-124373960D01*
X127785087Y-124373960D02*
X127822587Y-124407294D01*
X127822587Y-124407294D02*
X127893421Y-124440627D01*
X127893421Y-124440627D02*
X128026754Y-124440627D01*
X128026754Y-124440627D02*
X128089254Y-124407294D01*
X127189254Y-124407294D02*
X127260088Y-124440627D01*
X127260088Y-124440627D02*
X127393421Y-124440627D01*
X127393421Y-124440627D02*
X127455921Y-124407294D01*
X127455921Y-124407294D02*
X127480921Y-124340627D01*
X127480921Y-124340627D02*
X127447588Y-124073960D01*
X127447588Y-124073960D02*
X127405921Y-124007294D01*
X127405921Y-124007294D02*
X127335088Y-123973960D01*
X127335088Y-123973960D02*
X127201754Y-123973960D01*
X127201754Y-123973960D02*
X127139254Y-124007294D01*
X127139254Y-124007294D02*
X127114254Y-124073960D01*
X127114254Y-124073960D02*
X127122588Y-124140627D01*
X127122588Y-124140627D02*
X127464254Y-124207294D01*
X126760088Y-124440627D02*
X126822588Y-124407294D01*
X126822588Y-124407294D02*
X126851754Y-124373960D01*
X126851754Y-124373960D02*
X126876754Y-124307294D01*
X126876754Y-124307294D02*
X126851754Y-124107294D01*
X126851754Y-124107294D02*
X126810088Y-124040627D01*
X126810088Y-124040627D02*
X126772588Y-124007294D01*
X126772588Y-124007294D02*
X126701754Y-123973960D01*
X126701754Y-123973960D02*
X126601754Y-123973960D01*
X126601754Y-123973960D02*
X126539254Y-124007294D01*
X126539254Y-124007294D02*
X126510088Y-124040627D01*
X126510088Y-124040627D02*
X126485088Y-124107294D01*
X126485088Y-124107294D02*
X126510088Y-124307294D01*
X126510088Y-124307294D02*
X126551754Y-124373960D01*
X126551754Y-124373960D02*
X126589254Y-124407294D01*
X126589254Y-124407294D02*
X126660088Y-124440627D01*
X126660088Y-124440627D02*
X126760088Y-124440627D01*
X126168421Y-123973960D02*
X126255921Y-124673960D01*
X126172588Y-124007294D02*
X126101755Y-123973960D01*
X126101755Y-123973960D02*
X125968421Y-123973960D01*
X125968421Y-123973960D02*
X125905921Y-124007294D01*
X125905921Y-124007294D02*
X125876755Y-124040627D01*
X125876755Y-124040627D02*
X125851755Y-124107294D01*
X125851755Y-124107294D02*
X125876755Y-124307294D01*
X125876755Y-124307294D02*
X125918421Y-124373960D01*
X125918421Y-124373960D02*
X125955921Y-124407294D01*
X125955921Y-124407294D02*
X126026755Y-124440627D01*
X126026755Y-124440627D02*
X126160088Y-124440627D01*
X126160088Y-124440627D02*
X126222588Y-124407294D01*
X125493422Y-124440627D02*
X125555922Y-124407294D01*
X125555922Y-124407294D02*
X125580922Y-124340627D01*
X125580922Y-124340627D02*
X125505922Y-123740627D01*
X124955921Y-124407294D02*
X125026755Y-124440627D01*
X125026755Y-124440627D02*
X125160088Y-124440627D01*
X125160088Y-124440627D02*
X125222588Y-124407294D01*
X125222588Y-124407294D02*
X125247588Y-124340627D01*
X125247588Y-124340627D02*
X125214255Y-124073960D01*
X125214255Y-124073960D02*
X125172588Y-124007294D01*
X125172588Y-124007294D02*
X125101755Y-123973960D01*
X125101755Y-123973960D02*
X124968421Y-123973960D01*
X124968421Y-123973960D02*
X124905921Y-124007294D01*
X124905921Y-124007294D02*
X124880921Y-124073960D01*
X124880921Y-124073960D02*
X124889255Y-124140627D01*
X124889255Y-124140627D02*
X125230921Y-124207294D01*
X143689249Y-125534294D02*
X143626749Y-125567627D01*
X143626749Y-125567627D02*
X143493416Y-125567627D01*
X143493416Y-125567627D02*
X143422583Y-125534294D01*
X143422583Y-125534294D02*
X143380916Y-125467627D01*
X143380916Y-125467627D02*
X143376749Y-125434294D01*
X143376749Y-125434294D02*
X143401749Y-125367627D01*
X143401749Y-125367627D02*
X143464249Y-125334294D01*
X143464249Y-125334294D02*
X143564249Y-125334294D01*
X143564249Y-125334294D02*
X143626749Y-125300960D01*
X143626749Y-125300960D02*
X143651749Y-125234294D01*
X143651749Y-125234294D02*
X143647583Y-125200960D01*
X143647583Y-125200960D02*
X143605916Y-125134294D01*
X143605916Y-125134294D02*
X143535083Y-125100960D01*
X143535083Y-125100960D02*
X143435083Y-125100960D01*
X143435083Y-125100960D02*
X143372583Y-125134294D01*
X143135082Y-125100960D02*
X142868416Y-125100960D01*
X143005916Y-124867627D02*
X143080916Y-125467627D01*
X143080916Y-125467627D02*
X143055916Y-125534294D01*
X143055916Y-125534294D02*
X142993416Y-125567627D01*
X142993416Y-125567627D02*
X142926749Y-125567627D01*
X142393416Y-125567627D02*
X142347582Y-125200960D01*
X142347582Y-125200960D02*
X142372582Y-125134294D01*
X142372582Y-125134294D02*
X142435082Y-125100960D01*
X142435082Y-125100960D02*
X142568416Y-125100960D01*
X142568416Y-125100960D02*
X142639249Y-125134294D01*
X142389249Y-125534294D02*
X142460082Y-125567627D01*
X142460082Y-125567627D02*
X142626749Y-125567627D01*
X142626749Y-125567627D02*
X142689249Y-125534294D01*
X142689249Y-125534294D02*
X142714249Y-125467627D01*
X142714249Y-125467627D02*
X142705916Y-125400960D01*
X142705916Y-125400960D02*
X142664249Y-125334294D01*
X142664249Y-125334294D02*
X142593416Y-125300960D01*
X142593416Y-125300960D02*
X142426749Y-125300960D01*
X142426749Y-125300960D02*
X142355916Y-125267627D01*
X142060083Y-125567627D02*
X142001749Y-125100960D01*
X142018416Y-125234294D02*
X141976749Y-125167627D01*
X141976749Y-125167627D02*
X141939249Y-125134294D01*
X141939249Y-125134294D02*
X141868416Y-125100960D01*
X141868416Y-125100960D02*
X141801749Y-125100960D01*
X141355916Y-125534294D02*
X141426750Y-125567627D01*
X141426750Y-125567627D02*
X141560083Y-125567627D01*
X141560083Y-125567627D02*
X141622583Y-125534294D01*
X141622583Y-125534294D02*
X141647583Y-125467627D01*
X141647583Y-125467627D02*
X141614250Y-125200960D01*
X141614250Y-125200960D02*
X141572583Y-125134294D01*
X141572583Y-125134294D02*
X141501750Y-125100960D01*
X141501750Y-125100960D02*
X141368416Y-125100960D01*
X141368416Y-125100960D02*
X141305916Y-125134294D01*
X141305916Y-125134294D02*
X141280916Y-125200960D01*
X141280916Y-125200960D02*
X141289250Y-125267627D01*
X141289250Y-125267627D02*
X141630916Y-125334294D01*
X140989250Y-125534294D02*
X140993416Y-125567627D01*
X140993416Y-125567627D02*
X141035083Y-125634294D01*
X141035083Y-125634294D02*
X141072583Y-125667627D01*
X140060084Y-125567627D02*
X140122584Y-125534294D01*
X140122584Y-125534294D02*
X140151750Y-125500960D01*
X140151750Y-125500960D02*
X140176750Y-125434294D01*
X140176750Y-125434294D02*
X140151750Y-125234294D01*
X140151750Y-125234294D02*
X140110084Y-125167627D01*
X140110084Y-125167627D02*
X140072584Y-125134294D01*
X140072584Y-125134294D02*
X140001750Y-125100960D01*
X140001750Y-125100960D02*
X139901750Y-125100960D01*
X139901750Y-125100960D02*
X139839250Y-125134294D01*
X139839250Y-125134294D02*
X139810084Y-125167627D01*
X139810084Y-125167627D02*
X139785084Y-125234294D01*
X139785084Y-125234294D02*
X139810084Y-125434294D01*
X139810084Y-125434294D02*
X139851750Y-125500960D01*
X139851750Y-125500960D02*
X139889250Y-125534294D01*
X139889250Y-125534294D02*
X139960084Y-125567627D01*
X139960084Y-125567627D02*
X140060084Y-125567627D01*
X139526751Y-125567627D02*
X139468417Y-125100960D01*
X139485084Y-125234294D02*
X139443417Y-125167627D01*
X139443417Y-125167627D02*
X139405917Y-125134294D01*
X139405917Y-125134294D02*
X139335084Y-125100960D01*
X139335084Y-125100960D02*
X139268417Y-125100960D01*
X138460085Y-125567627D02*
X138522585Y-125534294D01*
X138522585Y-125534294D02*
X138547585Y-125467627D01*
X138547585Y-125467627D02*
X138472585Y-124867627D01*
X137893418Y-125567627D02*
X137847584Y-125200960D01*
X137847584Y-125200960D02*
X137872584Y-125134294D01*
X137872584Y-125134294D02*
X137935084Y-125100960D01*
X137935084Y-125100960D02*
X138068418Y-125100960D01*
X138068418Y-125100960D02*
X138139251Y-125134294D01*
X137889251Y-125534294D02*
X137960084Y-125567627D01*
X137960084Y-125567627D02*
X138126751Y-125567627D01*
X138126751Y-125567627D02*
X138189251Y-125534294D01*
X138189251Y-125534294D02*
X138214251Y-125467627D01*
X138214251Y-125467627D02*
X138205918Y-125400960D01*
X138205918Y-125400960D02*
X138164251Y-125334294D01*
X138164251Y-125334294D02*
X138093418Y-125300960D01*
X138093418Y-125300960D02*
X137926751Y-125300960D01*
X137926751Y-125300960D02*
X137855918Y-125267627D01*
X137201751Y-125100960D02*
X137260085Y-125567627D01*
X137501751Y-125100960D02*
X137547585Y-125467627D01*
X137547585Y-125467627D02*
X137522585Y-125534294D01*
X137522585Y-125534294D02*
X137460085Y-125567627D01*
X137460085Y-125567627D02*
X137360085Y-125567627D01*
X137360085Y-125567627D02*
X137289251Y-125534294D01*
X137289251Y-125534294D02*
X137251751Y-125500960D01*
X136568418Y-125100960D02*
X136639252Y-125667627D01*
X136639252Y-125667627D02*
X136680918Y-125734294D01*
X136680918Y-125734294D02*
X136718418Y-125767627D01*
X136718418Y-125767627D02*
X136789252Y-125800960D01*
X136789252Y-125800960D02*
X136889252Y-125800960D01*
X136889252Y-125800960D02*
X136951752Y-125767627D01*
X136622585Y-125534294D02*
X136693418Y-125567627D01*
X136693418Y-125567627D02*
X136826752Y-125567627D01*
X136826752Y-125567627D02*
X136889252Y-125534294D01*
X136889252Y-125534294D02*
X136918418Y-125500960D01*
X136918418Y-125500960D02*
X136943418Y-125434294D01*
X136943418Y-125434294D02*
X136918418Y-125234294D01*
X136918418Y-125234294D02*
X136876752Y-125167627D01*
X136876752Y-125167627D02*
X136839252Y-125134294D01*
X136839252Y-125134294D02*
X136768418Y-125100960D01*
X136768418Y-125100960D02*
X136635085Y-125100960D01*
X136635085Y-125100960D02*
X136572585Y-125134294D01*
X136293419Y-125567627D02*
X136205919Y-124867627D01*
X135993419Y-125567627D02*
X135947585Y-125200960D01*
X135947585Y-125200960D02*
X135972585Y-125134294D01*
X135972585Y-125134294D02*
X136035085Y-125100960D01*
X136035085Y-125100960D02*
X136135085Y-125100960D01*
X136135085Y-125100960D02*
X136205919Y-125134294D01*
X136205919Y-125134294D02*
X136243419Y-125167627D01*
X135622586Y-125534294D02*
X135626752Y-125567627D01*
X135626752Y-125567627D02*
X135668419Y-125634294D01*
X135668419Y-125634294D02*
X135705919Y-125667627D01*
X134493420Y-125567627D02*
X134447586Y-125200960D01*
X134447586Y-125200960D02*
X134472586Y-125134294D01*
X134472586Y-125134294D02*
X134535086Y-125100960D01*
X134535086Y-125100960D02*
X134668420Y-125100960D01*
X134668420Y-125100960D02*
X134739253Y-125134294D01*
X134489253Y-125534294D02*
X134560086Y-125567627D01*
X134560086Y-125567627D02*
X134726753Y-125567627D01*
X134726753Y-125567627D02*
X134789253Y-125534294D01*
X134789253Y-125534294D02*
X134814253Y-125467627D01*
X134814253Y-125467627D02*
X134805920Y-125400960D01*
X134805920Y-125400960D02*
X134764253Y-125334294D01*
X134764253Y-125334294D02*
X134693420Y-125300960D01*
X134693420Y-125300960D02*
X134526753Y-125300960D01*
X134526753Y-125300960D02*
X134455920Y-125267627D01*
X134101753Y-125100960D02*
X134189253Y-125800960D01*
X134105920Y-125134294D02*
X134035087Y-125100960D01*
X134035087Y-125100960D02*
X133901753Y-125100960D01*
X133901753Y-125100960D02*
X133839253Y-125134294D01*
X133839253Y-125134294D02*
X133810087Y-125167627D01*
X133810087Y-125167627D02*
X133785087Y-125234294D01*
X133785087Y-125234294D02*
X133810087Y-125434294D01*
X133810087Y-125434294D02*
X133851753Y-125500960D01*
X133851753Y-125500960D02*
X133889253Y-125534294D01*
X133889253Y-125534294D02*
X133960087Y-125567627D01*
X133960087Y-125567627D02*
X134093420Y-125567627D01*
X134093420Y-125567627D02*
X134155920Y-125534294D01*
X133468420Y-125100960D02*
X133555920Y-125800960D01*
X133472587Y-125134294D02*
X133401754Y-125100960D01*
X133401754Y-125100960D02*
X133268420Y-125100960D01*
X133268420Y-125100960D02*
X133205920Y-125134294D01*
X133205920Y-125134294D02*
X133176754Y-125167627D01*
X133176754Y-125167627D02*
X133151754Y-125234294D01*
X133151754Y-125234294D02*
X133176754Y-125434294D01*
X133176754Y-125434294D02*
X133218420Y-125500960D01*
X133218420Y-125500960D02*
X133255920Y-125534294D01*
X133255920Y-125534294D02*
X133326754Y-125567627D01*
X133326754Y-125567627D02*
X133460087Y-125567627D01*
X133460087Y-125567627D02*
X133522587Y-125534294D01*
X132793421Y-125567627D02*
X132855921Y-125534294D01*
X132855921Y-125534294D02*
X132880921Y-125467627D01*
X132880921Y-125467627D02*
X132805921Y-124867627D01*
X132226754Y-125567627D02*
X132180920Y-125200960D01*
X132180920Y-125200960D02*
X132205920Y-125134294D01*
X132205920Y-125134294D02*
X132268420Y-125100960D01*
X132268420Y-125100960D02*
X132401754Y-125100960D01*
X132401754Y-125100960D02*
X132472587Y-125134294D01*
X132222587Y-125534294D02*
X132293420Y-125567627D01*
X132293420Y-125567627D02*
X132460087Y-125567627D01*
X132460087Y-125567627D02*
X132522587Y-125534294D01*
X132522587Y-125534294D02*
X132547587Y-125467627D01*
X132547587Y-125467627D02*
X132539254Y-125400960D01*
X132539254Y-125400960D02*
X132497587Y-125334294D01*
X132497587Y-125334294D02*
X132426754Y-125300960D01*
X132426754Y-125300960D02*
X132260087Y-125300960D01*
X132260087Y-125300960D02*
X132189254Y-125267627D01*
X131535087Y-125100960D02*
X131593421Y-125567627D01*
X131835087Y-125100960D02*
X131880921Y-125467627D01*
X131880921Y-125467627D02*
X131855921Y-125534294D01*
X131855921Y-125534294D02*
X131793421Y-125567627D01*
X131793421Y-125567627D02*
X131693421Y-125567627D01*
X131693421Y-125567627D02*
X131622587Y-125534294D01*
X131622587Y-125534294D02*
X131585087Y-125500960D01*
X130960088Y-125567627D02*
X130872588Y-124867627D01*
X130955921Y-125534294D02*
X131026754Y-125567627D01*
X131026754Y-125567627D02*
X131160088Y-125567627D01*
X131160088Y-125567627D02*
X131222588Y-125534294D01*
X131222588Y-125534294D02*
X131251754Y-125500960D01*
X131251754Y-125500960D02*
X131276754Y-125434294D01*
X131276754Y-125434294D02*
X131251754Y-125234294D01*
X131251754Y-125234294D02*
X131210088Y-125167627D01*
X131210088Y-125167627D02*
X131172588Y-125134294D01*
X131172588Y-125134294D02*
X131101754Y-125100960D01*
X131101754Y-125100960D02*
X130968421Y-125100960D01*
X130968421Y-125100960D02*
X130905921Y-125134294D01*
X130589255Y-125534294D02*
X130593421Y-125567627D01*
X130593421Y-125567627D02*
X130635088Y-125634294D01*
X130635088Y-125634294D02*
X130672588Y-125667627D01*
X129660089Y-125567627D02*
X129722589Y-125534294D01*
X129722589Y-125534294D02*
X129751755Y-125500960D01*
X129751755Y-125500960D02*
X129776755Y-125434294D01*
X129776755Y-125434294D02*
X129751755Y-125234294D01*
X129751755Y-125234294D02*
X129710089Y-125167627D01*
X129710089Y-125167627D02*
X129672589Y-125134294D01*
X129672589Y-125134294D02*
X129601755Y-125100960D01*
X129601755Y-125100960D02*
X129501755Y-125100960D01*
X129501755Y-125100960D02*
X129439255Y-125134294D01*
X129439255Y-125134294D02*
X129410089Y-125167627D01*
X129410089Y-125167627D02*
X129385089Y-125234294D01*
X129385089Y-125234294D02*
X129410089Y-125434294D01*
X129410089Y-125434294D02*
X129451755Y-125500960D01*
X129451755Y-125500960D02*
X129489255Y-125534294D01*
X129489255Y-125534294D02*
X129560089Y-125567627D01*
X129560089Y-125567627D02*
X129660089Y-125567627D01*
X129126756Y-125567627D02*
X129068422Y-125100960D01*
X129085089Y-125234294D02*
X129043422Y-125167627D01*
X129043422Y-125167627D02*
X129005922Y-125134294D01*
X129005922Y-125134294D02*
X128935089Y-125100960D01*
X128935089Y-125100960D02*
X128868422Y-125100960D01*
X128160090Y-125567627D02*
X128072590Y-124867627D01*
X128105923Y-125134294D02*
X128035090Y-125100960D01*
X128035090Y-125100960D02*
X127901756Y-125100960D01*
X127901756Y-125100960D02*
X127839256Y-125134294D01*
X127839256Y-125134294D02*
X127810090Y-125167627D01*
X127810090Y-125167627D02*
X127785090Y-125234294D01*
X127785090Y-125234294D02*
X127810090Y-125434294D01*
X127810090Y-125434294D02*
X127851756Y-125500960D01*
X127851756Y-125500960D02*
X127889256Y-125534294D01*
X127889256Y-125534294D02*
X127960090Y-125567627D01*
X127960090Y-125567627D02*
X128093423Y-125567627D01*
X128093423Y-125567627D02*
X128155923Y-125534294D01*
X127426757Y-125567627D02*
X127489257Y-125534294D01*
X127489257Y-125534294D02*
X127518423Y-125500960D01*
X127518423Y-125500960D02*
X127543423Y-125434294D01*
X127543423Y-125434294D02*
X127518423Y-125234294D01*
X127518423Y-125234294D02*
X127476757Y-125167627D01*
X127476757Y-125167627D02*
X127439257Y-125134294D01*
X127439257Y-125134294D02*
X127368423Y-125100960D01*
X127368423Y-125100960D02*
X127268423Y-125100960D01*
X127268423Y-125100960D02*
X127205923Y-125134294D01*
X127205923Y-125134294D02*
X127176757Y-125167627D01*
X127176757Y-125167627D02*
X127151757Y-125234294D01*
X127151757Y-125234294D02*
X127176757Y-125434294D01*
X127176757Y-125434294D02*
X127218423Y-125500960D01*
X127218423Y-125500960D02*
X127255923Y-125534294D01*
X127255923Y-125534294D02*
X127326757Y-125567627D01*
X127326757Y-125567627D02*
X127426757Y-125567627D01*
X126793424Y-125567627D02*
X126855924Y-125534294D01*
X126855924Y-125534294D02*
X126885090Y-125500960D01*
X126885090Y-125500960D02*
X126910090Y-125434294D01*
X126910090Y-125434294D02*
X126885090Y-125234294D01*
X126885090Y-125234294D02*
X126843424Y-125167627D01*
X126843424Y-125167627D02*
X126805924Y-125134294D01*
X126805924Y-125134294D02*
X126735090Y-125100960D01*
X126735090Y-125100960D02*
X126635090Y-125100960D01*
X126635090Y-125100960D02*
X126572590Y-125134294D01*
X126572590Y-125134294D02*
X126543424Y-125167627D01*
X126543424Y-125167627D02*
X126518424Y-125234294D01*
X126518424Y-125234294D02*
X126543424Y-125434294D01*
X126543424Y-125434294D02*
X126585090Y-125500960D01*
X126585090Y-125500960D02*
X126622590Y-125534294D01*
X126622590Y-125534294D02*
X126693424Y-125567627D01*
X126693424Y-125567627D02*
X126793424Y-125567627D01*
X126251757Y-125500960D02*
X126222591Y-125534294D01*
X126222591Y-125534294D02*
X126260091Y-125567627D01*
X126260091Y-125567627D02*
X126289257Y-125534294D01*
X126289257Y-125534294D02*
X126251757Y-125500960D01*
X126251757Y-125500960D02*
X126260091Y-125567627D01*
X143668416Y-126494627D02*
X143335083Y-126494627D01*
X143760083Y-126694627D02*
X143439249Y-125994627D01*
X143439249Y-125994627D02*
X143293416Y-126694627D01*
X143001749Y-126227960D02*
X143060083Y-126694627D01*
X143010083Y-126294627D02*
X142972583Y-126261294D01*
X142972583Y-126261294D02*
X142901749Y-126227960D01*
X142901749Y-126227960D02*
X142801749Y-126227960D01*
X142801749Y-126227960D02*
X142739249Y-126261294D01*
X142739249Y-126261294D02*
X142714249Y-126327960D01*
X142714249Y-126327960D02*
X142760083Y-126694627D01*
X142126750Y-126694627D02*
X142039250Y-125994627D01*
X142122583Y-126661294D02*
X142193416Y-126694627D01*
X142193416Y-126694627D02*
X142326750Y-126694627D01*
X142326750Y-126694627D02*
X142389250Y-126661294D01*
X142389250Y-126661294D02*
X142418416Y-126627960D01*
X142418416Y-126627960D02*
X142443416Y-126561294D01*
X142443416Y-126561294D02*
X142418416Y-126361294D01*
X142418416Y-126361294D02*
X142376750Y-126294627D01*
X142376750Y-126294627D02*
X142339250Y-126261294D01*
X142339250Y-126261294D02*
X142268416Y-126227960D01*
X142268416Y-126227960D02*
X142135083Y-126227960D01*
X142135083Y-126227960D02*
X142072583Y-126261294D01*
X141260084Y-126694627D02*
X141201750Y-126227960D01*
X141172584Y-125994627D02*
X141210084Y-126027960D01*
X141210084Y-126027960D02*
X141180917Y-126061294D01*
X141180917Y-126061294D02*
X141143417Y-126027960D01*
X141143417Y-126027960D02*
X141172584Y-125994627D01*
X141172584Y-125994627D02*
X141180917Y-126061294D01*
X140968417Y-126227960D02*
X140701751Y-126227960D01*
X140839251Y-125994627D02*
X140914251Y-126594627D01*
X140914251Y-126594627D02*
X140889251Y-126661294D01*
X140889251Y-126661294D02*
X140826751Y-126694627D01*
X140826751Y-126694627D02*
X140760084Y-126694627D01*
X140405917Y-125994627D02*
X140489251Y-126127960D01*
X140222584Y-126661294D02*
X140160084Y-126694627D01*
X140160084Y-126694627D02*
X140026751Y-126694627D01*
X140026751Y-126694627D02*
X139955918Y-126661294D01*
X139955918Y-126661294D02*
X139914251Y-126594627D01*
X139914251Y-126594627D02*
X139910084Y-126561294D01*
X139910084Y-126561294D02*
X139935084Y-126494627D01*
X139935084Y-126494627D02*
X139997584Y-126461294D01*
X139997584Y-126461294D02*
X140097584Y-126461294D01*
X140097584Y-126461294D02*
X140160084Y-126427960D01*
X140160084Y-126427960D02*
X140185084Y-126361294D01*
X140185084Y-126361294D02*
X140180918Y-126327960D01*
X140180918Y-126327960D02*
X140139251Y-126261294D01*
X140139251Y-126261294D02*
X140068418Y-126227960D01*
X140068418Y-126227960D02*
X139968418Y-126227960D01*
X139968418Y-126227960D02*
X139905918Y-126261294D01*
X139122584Y-126661294D02*
X139060084Y-126694627D01*
X139060084Y-126694627D02*
X138926751Y-126694627D01*
X138926751Y-126694627D02*
X138855918Y-126661294D01*
X138855918Y-126661294D02*
X138814251Y-126594627D01*
X138814251Y-126594627D02*
X138810084Y-126561294D01*
X138810084Y-126561294D02*
X138835084Y-126494627D01*
X138835084Y-126494627D02*
X138897584Y-126461294D01*
X138897584Y-126461294D02*
X138997584Y-126461294D01*
X138997584Y-126461294D02*
X139060084Y-126427960D01*
X139060084Y-126427960D02*
X139085084Y-126361294D01*
X139085084Y-126361294D02*
X139080918Y-126327960D01*
X139080918Y-126327960D02*
X139039251Y-126261294D01*
X139039251Y-126261294D02*
X138968418Y-126227960D01*
X138968418Y-126227960D02*
X138868418Y-126227960D01*
X138868418Y-126227960D02*
X138805918Y-126261294D01*
X138426751Y-126694627D02*
X138489251Y-126661294D01*
X138489251Y-126661294D02*
X138518417Y-126627960D01*
X138518417Y-126627960D02*
X138543417Y-126561294D01*
X138543417Y-126561294D02*
X138518417Y-126361294D01*
X138518417Y-126361294D02*
X138476751Y-126294627D01*
X138476751Y-126294627D02*
X138439251Y-126261294D01*
X138439251Y-126261294D02*
X138368417Y-126227960D01*
X138368417Y-126227960D02*
X138268417Y-126227960D01*
X138268417Y-126227960D02*
X138205917Y-126261294D01*
X138205917Y-126261294D02*
X138176751Y-126294627D01*
X138176751Y-126294627D02*
X138151751Y-126361294D01*
X138151751Y-126361294D02*
X138176751Y-126561294D01*
X138176751Y-126561294D02*
X138218417Y-126627960D01*
X138218417Y-126627960D02*
X138255917Y-126661294D01*
X138255917Y-126661294D02*
X138326751Y-126694627D01*
X138326751Y-126694627D02*
X138426751Y-126694627D01*
X137893418Y-126694627D02*
X137835084Y-126227960D01*
X137843418Y-126294627D02*
X137805918Y-126261294D01*
X137805918Y-126261294D02*
X137735084Y-126227960D01*
X137735084Y-126227960D02*
X137635084Y-126227960D01*
X137635084Y-126227960D02*
X137572584Y-126261294D01*
X137572584Y-126261294D02*
X137547584Y-126327960D01*
X137547584Y-126327960D02*
X137593418Y-126694627D01*
X137547584Y-126327960D02*
X137505918Y-126261294D01*
X137505918Y-126261294D02*
X137435084Y-126227960D01*
X137435084Y-126227960D02*
X137335084Y-126227960D01*
X137335084Y-126227960D02*
X137272584Y-126261294D01*
X137272584Y-126261294D02*
X137247584Y-126327960D01*
X137247584Y-126327960D02*
X137293418Y-126694627D01*
X136689251Y-126661294D02*
X136760085Y-126694627D01*
X136760085Y-126694627D02*
X136893418Y-126694627D01*
X136893418Y-126694627D02*
X136955918Y-126661294D01*
X136955918Y-126661294D02*
X136980918Y-126594627D01*
X136980918Y-126594627D02*
X136947585Y-126327960D01*
X136947585Y-126327960D02*
X136905918Y-126261294D01*
X136905918Y-126261294D02*
X136835085Y-126227960D01*
X136835085Y-126227960D02*
X136701751Y-126227960D01*
X136701751Y-126227960D02*
X136639251Y-126261294D01*
X136639251Y-126261294D02*
X136614251Y-126327960D01*
X136614251Y-126327960D02*
X136622585Y-126394627D01*
X136622585Y-126394627D02*
X136964251Y-126461294D01*
X136401751Y-126227960D02*
X136135085Y-126227960D01*
X136272585Y-125994627D02*
X136347585Y-126594627D01*
X136347585Y-126594627D02*
X136322585Y-126661294D01*
X136322585Y-126661294D02*
X136260085Y-126694627D01*
X136260085Y-126694627D02*
X136193418Y-126694627D01*
X135960085Y-126694627D02*
X135872585Y-125994627D01*
X135660085Y-126694627D02*
X135614251Y-126327960D01*
X135614251Y-126327960D02*
X135639251Y-126261294D01*
X135639251Y-126261294D02*
X135701751Y-126227960D01*
X135701751Y-126227960D02*
X135801751Y-126227960D01*
X135801751Y-126227960D02*
X135872585Y-126261294D01*
X135872585Y-126261294D02*
X135910085Y-126294627D01*
X135326752Y-126694627D02*
X135268418Y-126227960D01*
X135239252Y-125994627D02*
X135276752Y-126027960D01*
X135276752Y-126027960D02*
X135247585Y-126061294D01*
X135247585Y-126061294D02*
X135210085Y-126027960D01*
X135210085Y-126027960D02*
X135239252Y-125994627D01*
X135239252Y-125994627D02*
X135247585Y-126061294D01*
X134935085Y-126227960D02*
X134993419Y-126694627D01*
X134943419Y-126294627D02*
X134905919Y-126261294D01*
X134905919Y-126261294D02*
X134835085Y-126227960D01*
X134835085Y-126227960D02*
X134735085Y-126227960D01*
X134735085Y-126227960D02*
X134672585Y-126261294D01*
X134672585Y-126261294D02*
X134647585Y-126327960D01*
X134647585Y-126327960D02*
X134693419Y-126694627D01*
X134001752Y-126227960D02*
X134072586Y-126794627D01*
X134072586Y-126794627D02*
X134114252Y-126861294D01*
X134114252Y-126861294D02*
X134151752Y-126894627D01*
X134151752Y-126894627D02*
X134222586Y-126927960D01*
X134222586Y-126927960D02*
X134322586Y-126927960D01*
X134322586Y-126927960D02*
X134385086Y-126894627D01*
X134055919Y-126661294D02*
X134126752Y-126694627D01*
X134126752Y-126694627D02*
X134260086Y-126694627D01*
X134260086Y-126694627D02*
X134322586Y-126661294D01*
X134322586Y-126661294D02*
X134351752Y-126627960D01*
X134351752Y-126627960D02*
X134376752Y-126561294D01*
X134376752Y-126561294D02*
X134351752Y-126361294D01*
X134351752Y-126361294D02*
X134310086Y-126294627D01*
X134310086Y-126294627D02*
X134272586Y-126261294D01*
X134272586Y-126261294D02*
X134201752Y-126227960D01*
X134201752Y-126227960D02*
X134068419Y-126227960D01*
X134068419Y-126227960D02*
X134005919Y-126261294D01*
X133201753Y-126227960D02*
X133126753Y-126694627D01*
X133126753Y-126694627D02*
X132951753Y-126361294D01*
X132951753Y-126361294D02*
X132860086Y-126694627D01*
X132860086Y-126694627D02*
X132668420Y-126227960D01*
X132189253Y-126661294D02*
X132260087Y-126694627D01*
X132260087Y-126694627D02*
X132393420Y-126694627D01*
X132393420Y-126694627D02*
X132455920Y-126661294D01*
X132455920Y-126661294D02*
X132480920Y-126594627D01*
X132480920Y-126594627D02*
X132447587Y-126327960D01*
X132447587Y-126327960D02*
X132405920Y-126261294D01*
X132405920Y-126261294D02*
X132335087Y-126227960D01*
X132335087Y-126227960D02*
X132201753Y-126227960D01*
X132201753Y-126227960D02*
X132139253Y-126261294D01*
X132139253Y-126261294D02*
X132114253Y-126327960D01*
X132114253Y-126327960D02*
X132122587Y-126394627D01*
X132122587Y-126394627D02*
X132464253Y-126461294D01*
X131026754Y-126694627D02*
X130980920Y-126327960D01*
X130980920Y-126327960D02*
X131005920Y-126261294D01*
X131005920Y-126261294D02*
X131068420Y-126227960D01*
X131068420Y-126227960D02*
X131201754Y-126227960D01*
X131201754Y-126227960D02*
X131272587Y-126261294D01*
X131022587Y-126661294D02*
X131093420Y-126694627D01*
X131093420Y-126694627D02*
X131260087Y-126694627D01*
X131260087Y-126694627D02*
X131322587Y-126661294D01*
X131322587Y-126661294D02*
X131347587Y-126594627D01*
X131347587Y-126594627D02*
X131339254Y-126527960D01*
X131339254Y-126527960D02*
X131297587Y-126461294D01*
X131297587Y-126461294D02*
X131226754Y-126427960D01*
X131226754Y-126427960D02*
X131060087Y-126427960D01*
X131060087Y-126427960D02*
X130989254Y-126394627D01*
X130593421Y-126694627D02*
X130655921Y-126661294D01*
X130655921Y-126661294D02*
X130680921Y-126594627D01*
X130680921Y-126594627D02*
X130605921Y-125994627D01*
X130226754Y-126694627D02*
X130289254Y-126661294D01*
X130289254Y-126661294D02*
X130314254Y-126594627D01*
X130314254Y-126594627D02*
X130239254Y-125994627D01*
X129368420Y-126227960D02*
X129426754Y-126694627D01*
X129376754Y-126294627D02*
X129339254Y-126261294D01*
X129339254Y-126261294D02*
X129268420Y-126227960D01*
X129268420Y-126227960D02*
X129168420Y-126227960D01*
X129168420Y-126227960D02*
X129105920Y-126261294D01*
X129105920Y-126261294D02*
X129080920Y-126327960D01*
X129080920Y-126327960D02*
X129126754Y-126694627D01*
X128522587Y-126661294D02*
X128593421Y-126694627D01*
X128593421Y-126694627D02*
X128726754Y-126694627D01*
X128726754Y-126694627D02*
X128789254Y-126661294D01*
X128789254Y-126661294D02*
X128814254Y-126594627D01*
X128814254Y-126594627D02*
X128780921Y-126327960D01*
X128780921Y-126327960D02*
X128739254Y-126261294D01*
X128739254Y-126261294D02*
X128668421Y-126227960D01*
X128668421Y-126227960D02*
X128535087Y-126227960D01*
X128535087Y-126227960D02*
X128472587Y-126261294D01*
X128472587Y-126261294D02*
X128447587Y-126327960D01*
X128447587Y-126327960D02*
X128455921Y-126394627D01*
X128455921Y-126394627D02*
X128797587Y-126461294D01*
X127922587Y-126661294D02*
X127993421Y-126694627D01*
X127993421Y-126694627D02*
X128126754Y-126694627D01*
X128126754Y-126694627D02*
X128189254Y-126661294D01*
X128189254Y-126661294D02*
X128214254Y-126594627D01*
X128214254Y-126594627D02*
X128180921Y-126327960D01*
X128180921Y-126327960D02*
X128139254Y-126261294D01*
X128139254Y-126261294D02*
X128068421Y-126227960D01*
X128068421Y-126227960D02*
X127935087Y-126227960D01*
X127935087Y-126227960D02*
X127872587Y-126261294D01*
X127872587Y-126261294D02*
X127847587Y-126327960D01*
X127847587Y-126327960D02*
X127855921Y-126394627D01*
X127855921Y-126394627D02*
X128197587Y-126461294D01*
X127293421Y-126694627D02*
X127205921Y-125994627D01*
X127289254Y-126661294D02*
X127360087Y-126694627D01*
X127360087Y-126694627D02*
X127493421Y-126694627D01*
X127493421Y-126694627D02*
X127555921Y-126661294D01*
X127555921Y-126661294D02*
X127585087Y-126627960D01*
X127585087Y-126627960D02*
X127610087Y-126561294D01*
X127610087Y-126561294D02*
X127585087Y-126361294D01*
X127585087Y-126361294D02*
X127543421Y-126294627D01*
X127543421Y-126294627D02*
X127505921Y-126261294D01*
X127505921Y-126261294D02*
X127435087Y-126227960D01*
X127435087Y-126227960D02*
X127301754Y-126227960D01*
X127301754Y-126227960D02*
X127239254Y-126261294D01*
X126468421Y-126227960D02*
X126201755Y-126227960D01*
X126339255Y-125994627D02*
X126414255Y-126594627D01*
X126414255Y-126594627D02*
X126389255Y-126661294D01*
X126389255Y-126661294D02*
X126326755Y-126694627D01*
X126326755Y-126694627D02*
X126260088Y-126694627D01*
X125926755Y-126694627D02*
X125989255Y-126661294D01*
X125989255Y-126661294D02*
X126018421Y-126627960D01*
X126018421Y-126627960D02*
X126043421Y-126561294D01*
X126043421Y-126561294D02*
X126018421Y-126361294D01*
X126018421Y-126361294D02*
X125976755Y-126294627D01*
X125976755Y-126294627D02*
X125939255Y-126261294D01*
X125939255Y-126261294D02*
X125868421Y-126227960D01*
X125868421Y-126227960D02*
X125768421Y-126227960D01*
X125768421Y-126227960D02*
X125705921Y-126261294D01*
X125705921Y-126261294D02*
X125676755Y-126294627D01*
X125676755Y-126294627D02*
X125651755Y-126361294D01*
X125651755Y-126361294D02*
X125676755Y-126561294D01*
X125676755Y-126561294D02*
X125718421Y-126627960D01*
X125718421Y-126627960D02*
X125755921Y-126661294D01*
X125755921Y-126661294D02*
X125826755Y-126694627D01*
X125826755Y-126694627D02*
X125926755Y-126694627D01*
X143355916Y-127788294D02*
X143426749Y-127821627D01*
X143426749Y-127821627D02*
X143560083Y-127821627D01*
X143560083Y-127821627D02*
X143622583Y-127788294D01*
X143622583Y-127788294D02*
X143651749Y-127754960D01*
X143651749Y-127754960D02*
X143676749Y-127688294D01*
X143676749Y-127688294D02*
X143651749Y-127488294D01*
X143651749Y-127488294D02*
X143610083Y-127421627D01*
X143610083Y-127421627D02*
X143572583Y-127388294D01*
X143572583Y-127388294D02*
X143501749Y-127354960D01*
X143501749Y-127354960D02*
X143368416Y-127354960D01*
X143368416Y-127354960D02*
X143305916Y-127388294D01*
X142701749Y-127354960D02*
X142760083Y-127821627D01*
X143001749Y-127354960D02*
X143047583Y-127721627D01*
X143047583Y-127721627D02*
X143022583Y-127788294D01*
X143022583Y-127788294D02*
X142960083Y-127821627D01*
X142960083Y-127821627D02*
X142860083Y-127821627D01*
X142860083Y-127821627D02*
X142789249Y-127788294D01*
X142789249Y-127788294D02*
X142751749Y-127754960D01*
X142326750Y-127821627D02*
X142389250Y-127788294D01*
X142389250Y-127788294D02*
X142414250Y-127721627D01*
X142414250Y-127721627D02*
X142339250Y-127121627D01*
X142101749Y-127354960D02*
X141835083Y-127354960D01*
X141972583Y-127121627D02*
X142047583Y-127721627D01*
X142047583Y-127721627D02*
X142022583Y-127788294D01*
X142022583Y-127788294D02*
X141960083Y-127821627D01*
X141960083Y-127821627D02*
X141893416Y-127821627D01*
X141660083Y-127821627D02*
X141601749Y-127354960D01*
X141572583Y-127121627D02*
X141610083Y-127154960D01*
X141610083Y-127154960D02*
X141580916Y-127188294D01*
X141580916Y-127188294D02*
X141543416Y-127154960D01*
X141543416Y-127154960D02*
X141572583Y-127121627D01*
X141572583Y-127121627D02*
X141580916Y-127188294D01*
X141335083Y-127354960D02*
X141226750Y-127821627D01*
X141226750Y-127821627D02*
X141001750Y-127354960D01*
X140493417Y-127821627D02*
X140447583Y-127454960D01*
X140447583Y-127454960D02*
X140472583Y-127388294D01*
X140472583Y-127388294D02*
X140535083Y-127354960D01*
X140535083Y-127354960D02*
X140668417Y-127354960D01*
X140668417Y-127354960D02*
X140739250Y-127388294D01*
X140489250Y-127788294D02*
X140560083Y-127821627D01*
X140560083Y-127821627D02*
X140726750Y-127821627D01*
X140726750Y-127821627D02*
X140789250Y-127788294D01*
X140789250Y-127788294D02*
X140814250Y-127721627D01*
X140814250Y-127721627D02*
X140805917Y-127654960D01*
X140805917Y-127654960D02*
X140764250Y-127588294D01*
X140764250Y-127588294D02*
X140693417Y-127554960D01*
X140693417Y-127554960D02*
X140526750Y-127554960D01*
X140526750Y-127554960D02*
X140455917Y-127521627D01*
X140201750Y-127354960D02*
X139935084Y-127354960D01*
X140072584Y-127121627D02*
X140147584Y-127721627D01*
X140147584Y-127721627D02*
X140122584Y-127788294D01*
X140122584Y-127788294D02*
X140060084Y-127821627D01*
X140060084Y-127821627D02*
X139993417Y-127821627D01*
X139489250Y-127788294D02*
X139560084Y-127821627D01*
X139560084Y-127821627D02*
X139693417Y-127821627D01*
X139693417Y-127821627D02*
X139755917Y-127788294D01*
X139755917Y-127788294D02*
X139780917Y-127721627D01*
X139780917Y-127721627D02*
X139747584Y-127454960D01*
X139747584Y-127454960D02*
X139705917Y-127388294D01*
X139705917Y-127388294D02*
X139635084Y-127354960D01*
X139635084Y-127354960D02*
X139501750Y-127354960D01*
X139501750Y-127354960D02*
X139439250Y-127388294D01*
X139439250Y-127388294D02*
X139414250Y-127454960D01*
X139414250Y-127454960D02*
X139422584Y-127521627D01*
X139422584Y-127521627D02*
X139764250Y-127588294D01*
X139151750Y-127754960D02*
X139122584Y-127788294D01*
X139122584Y-127788294D02*
X139160084Y-127821627D01*
X139160084Y-127821627D02*
X139189250Y-127788294D01*
X139189250Y-127788294D02*
X139151750Y-127754960D01*
X139151750Y-127754960D02*
X139160084Y-127821627D01*
X135226749Y-130935960D02*
X134693416Y-130935960D01*
X134360082Y-130935960D02*
X133826749Y-130935960D01*
X132714249Y-130835960D02*
X132947582Y-130835960D01*
X132993416Y-131202627D02*
X132905916Y-130502627D01*
X132905916Y-130502627D02*
X132572582Y-130502627D01*
X132293416Y-131202627D02*
X132355916Y-131169294D01*
X132355916Y-131169294D02*
X132385082Y-131135960D01*
X132385082Y-131135960D02*
X132410082Y-131069294D01*
X132410082Y-131069294D02*
X132385082Y-130869294D01*
X132385082Y-130869294D02*
X132343416Y-130802627D01*
X132343416Y-130802627D02*
X132305916Y-130769294D01*
X132305916Y-130769294D02*
X132235082Y-130735960D01*
X132235082Y-130735960D02*
X132135082Y-130735960D01*
X132135082Y-130735960D02*
X132072582Y-130769294D01*
X132072582Y-130769294D02*
X132043416Y-130802627D01*
X132043416Y-130802627D02*
X132018416Y-130869294D01*
X132018416Y-130869294D02*
X132043416Y-131069294D01*
X132043416Y-131069294D02*
X132085082Y-131135960D01*
X132085082Y-131135960D02*
X132122582Y-131169294D01*
X132122582Y-131169294D02*
X132193416Y-131202627D01*
X132193416Y-131202627D02*
X132293416Y-131202627D01*
X131760083Y-131202627D02*
X131701749Y-130735960D01*
X131718416Y-130869294D02*
X131676749Y-130802627D01*
X131676749Y-130802627D02*
X131639249Y-130769294D01*
X131639249Y-130769294D02*
X131568416Y-130735960D01*
X131568416Y-130735960D02*
X131501749Y-130735960D01*
X131326750Y-131202627D02*
X131239250Y-130502627D01*
X131272583Y-130769294D02*
X131201750Y-130735960D01*
X131201750Y-130735960D02*
X131068416Y-130735960D01*
X131068416Y-130735960D02*
X131005916Y-130769294D01*
X131005916Y-130769294D02*
X130976750Y-130802627D01*
X130976750Y-130802627D02*
X130951750Y-130869294D01*
X130951750Y-130869294D02*
X130976750Y-131069294D01*
X130976750Y-131069294D02*
X131018416Y-131135960D01*
X131018416Y-131135960D02*
X131055916Y-131169294D01*
X131055916Y-131169294D02*
X131126750Y-131202627D01*
X131126750Y-131202627D02*
X131260083Y-131202627D01*
X131260083Y-131202627D02*
X131322583Y-131169294D01*
X130422583Y-131169294D02*
X130493417Y-131202627D01*
X130493417Y-131202627D02*
X130626750Y-131202627D01*
X130626750Y-131202627D02*
X130689250Y-131169294D01*
X130689250Y-131169294D02*
X130714250Y-131102627D01*
X130714250Y-131102627D02*
X130680917Y-130835960D01*
X130680917Y-130835960D02*
X130639250Y-130769294D01*
X130639250Y-130769294D02*
X130568417Y-130735960D01*
X130568417Y-130735960D02*
X130435083Y-130735960D01*
X130435083Y-130735960D02*
X130372583Y-130769294D01*
X130372583Y-130769294D02*
X130347583Y-130835960D01*
X130347583Y-130835960D02*
X130355917Y-130902627D01*
X130355917Y-130902627D02*
X130697583Y-130969294D01*
X130122583Y-131169294D02*
X130060083Y-131202627D01*
X130060083Y-131202627D02*
X129926750Y-131202627D01*
X129926750Y-131202627D02*
X129855917Y-131169294D01*
X129855917Y-131169294D02*
X129814250Y-131102627D01*
X129814250Y-131102627D02*
X129810083Y-131069294D01*
X129810083Y-131069294D02*
X129835083Y-131002627D01*
X129835083Y-131002627D02*
X129897583Y-130969294D01*
X129897583Y-130969294D02*
X129997583Y-130969294D01*
X129997583Y-130969294D02*
X130060083Y-130935960D01*
X130060083Y-130935960D02*
X130085083Y-130869294D01*
X130085083Y-130869294D02*
X130080917Y-130835960D01*
X130080917Y-130835960D02*
X130039250Y-130769294D01*
X130039250Y-130769294D02*
X129968417Y-130735960D01*
X129968417Y-130735960D02*
X129868417Y-130735960D01*
X129868417Y-130735960D02*
X129805917Y-130769294D01*
X128826750Y-131469294D02*
X128855917Y-131435960D01*
X128855917Y-131435960D02*
X128910083Y-131335960D01*
X128910083Y-131335960D02*
X128935083Y-131269294D01*
X128935083Y-131269294D02*
X128955917Y-131169294D01*
X128955917Y-131169294D02*
X128968417Y-131002627D01*
X128968417Y-131002627D02*
X128951750Y-130869294D01*
X128951750Y-130869294D02*
X128897583Y-130702627D01*
X128897583Y-130702627D02*
X128851750Y-130602627D01*
X128851750Y-130602627D02*
X128810083Y-130535960D01*
X128810083Y-130535960D02*
X128730917Y-130435960D01*
X128730917Y-130435960D02*
X128693417Y-130402627D01*
X128480916Y-130569294D02*
X128443416Y-130535960D01*
X128443416Y-130535960D02*
X128372583Y-130502627D01*
X128372583Y-130502627D02*
X128205916Y-130502627D01*
X128205916Y-130502627D02*
X128143416Y-130535960D01*
X128143416Y-130535960D02*
X128114250Y-130569294D01*
X128114250Y-130569294D02*
X128089250Y-130635960D01*
X128089250Y-130635960D02*
X128097583Y-130702627D01*
X128097583Y-130702627D02*
X128143416Y-130802627D01*
X128143416Y-130802627D02*
X128593416Y-131202627D01*
X128593416Y-131202627D02*
X128160083Y-131202627D01*
X127639249Y-130502627D02*
X127572583Y-130502627D01*
X127572583Y-130502627D02*
X127510083Y-130535960D01*
X127510083Y-130535960D02*
X127480916Y-130569294D01*
X127480916Y-130569294D02*
X127455916Y-130635960D01*
X127455916Y-130635960D02*
X127439249Y-130769294D01*
X127439249Y-130769294D02*
X127460083Y-130935960D01*
X127460083Y-130935960D02*
X127510083Y-131069294D01*
X127510083Y-131069294D02*
X127551749Y-131135960D01*
X127551749Y-131135960D02*
X127589249Y-131169294D01*
X127589249Y-131169294D02*
X127660083Y-131202627D01*
X127660083Y-131202627D02*
X127726749Y-131202627D01*
X127726749Y-131202627D02*
X127789249Y-131169294D01*
X127789249Y-131169294D02*
X127818416Y-131135960D01*
X127818416Y-131135960D02*
X127843416Y-131069294D01*
X127843416Y-131069294D02*
X127860083Y-130935960D01*
X127860083Y-130935960D02*
X127839249Y-130769294D01*
X127839249Y-130769294D02*
X127789249Y-130635960D01*
X127789249Y-130635960D02*
X127747583Y-130569294D01*
X127747583Y-130569294D02*
X127710083Y-130535960D01*
X127710083Y-130535960D02*
X127639249Y-130502627D01*
X126826749Y-131202627D02*
X127226749Y-131202627D01*
X127026749Y-131202627D02*
X126939249Y-130502627D01*
X126939249Y-130502627D02*
X127018416Y-130602627D01*
X127018416Y-130602627D02*
X127093416Y-130669294D01*
X127093416Y-130669294D02*
X127164249Y-130702627D01*
X126160082Y-131202627D02*
X126560082Y-131202627D01*
X126360082Y-131202627D02*
X126272582Y-130502627D01*
X126272582Y-130502627D02*
X126351749Y-130602627D01*
X126351749Y-130602627D02*
X126426749Y-130669294D01*
X126426749Y-130669294D02*
X126497582Y-130702627D01*
X125960082Y-131469294D02*
X125922582Y-131435960D01*
X125922582Y-131435960D02*
X125843415Y-131335960D01*
X125843415Y-131335960D02*
X125801748Y-131269294D01*
X125801748Y-131269294D02*
X125755915Y-131169294D01*
X125755915Y-131169294D02*
X125701748Y-131002627D01*
X125701748Y-131002627D02*
X125685082Y-130869294D01*
X125685082Y-130869294D02*
X125697582Y-130702627D01*
X125697582Y-130702627D02*
X125718415Y-130602627D01*
X125718415Y-130602627D02*
X125743415Y-130535960D01*
X125743415Y-130535960D02*
X125797582Y-130435960D01*
X125797582Y-130435960D02*
X125826748Y-130402627D01*
D11*
X192154832Y-129842524D02*
X191969961Y-130532471D01*
X191969961Y-130532471D02*
X191978984Y-130682785D01*
X191978984Y-130682785D02*
X192046327Y-130799428D01*
X192046327Y-130799428D02*
X192171992Y-130882398D01*
X192171992Y-130882398D02*
X192263985Y-130907048D01*
X191194626Y-129930330D02*
X191022080Y-130574280D01*
X191523206Y-129623982D02*
X191568318Y-130375552D01*
X191568318Y-130375552D02*
X190970364Y-130215331D01*
D12*
X183567650Y-93985594D02*
X181167650Y-93985594D01*
X181167650Y-93985594D02*
X181167650Y-99985594D01*
X181167650Y-99985594D02*
X183567650Y-99985594D01*
X183567650Y-99985594D02*
X183567650Y-93985594D01*
X183567650Y-99985594D02*
X181167650Y-99985594D01*
X181167650Y-99427194D01*
X183567650Y-99427194D01*
X183567650Y-99985594D01*
G36*
X183567650Y-99985594D02*
G01*
X181167650Y-99985594D01*
X181167650Y-99427194D01*
X183567650Y-99427194D01*
X183567650Y-99985594D01*
G37*
X162167952Y-96784394D02*
X164567952Y-96784394D01*
X164567952Y-96784394D02*
X164567952Y-90784394D01*
X164567952Y-90784394D02*
X162167952Y-90784394D01*
X162167952Y-90784394D02*
X162167952Y-96784394D01*
X164567952Y-91342794D02*
X162167952Y-91342794D01*
X162167952Y-90784394D01*
X164567952Y-90784394D01*
X164567952Y-91342794D01*
G36*
X164567952Y-91342794D02*
G01*
X162167952Y-91342794D01*
X162167952Y-90784394D01*
X164567952Y-90784394D01*
X164567952Y-91342794D01*
G37*
X124168352Y-115584194D02*
X126568352Y-115584194D01*
X126568352Y-115584194D02*
X126568352Y-109584194D01*
X126568352Y-109584194D02*
X124168352Y-109584194D01*
X124168352Y-109584194D02*
X124168352Y-115584194D01*
X126568352Y-110142594D02*
X124168352Y-110142594D01*
X124168352Y-109584194D01*
X126568352Y-109584194D01*
X126568352Y-110142594D01*
G36*
X126568352Y-110142594D02*
G01*
X124168352Y-110142594D01*
X124168352Y-109584194D01*
X126568352Y-109584194D01*
X126568352Y-110142594D01*
G37*
X172514152Y-121207194D02*
X170114152Y-121207194D01*
X170114152Y-121207194D02*
X170114152Y-127207194D01*
X170114152Y-127207194D02*
X172514152Y-127207194D01*
X172514152Y-127207194D02*
X172514152Y-121207194D01*
X172514152Y-127207194D02*
X170114152Y-127207194D01*
X170114152Y-126648794D01*
X172514152Y-126648794D01*
X172514152Y-127207194D01*
G36*
X172514152Y-127207194D02*
G01*
X170114152Y-127207194D01*
X170114152Y-126648794D01*
X172514152Y-126648794D01*
X172514152Y-127207194D01*
G37*
D11*
X173876865Y-131284013D02*
X172855824Y-135094591D01*
X172853495Y-135103284D02*
X176340487Y-136037621D01*
X184911189Y-132217722D02*
X176580079Y-129985408D01*
X183899725Y-135992560D02*
X184911189Y-132217722D01*
X183887819Y-136036993D02*
X178997988Y-134774389D01*
X176580079Y-129985407D02*
G75*
G03*
X173905608Y-131219245I-720316J-1954155D01*
G01*
X179021101Y-134784724D02*
G75*
G03*
X176351530Y-136015732I-719282J-1950288D01*
G01*
D12*
X162167952Y-115784794D02*
X164567952Y-115784794D01*
X164567952Y-115784794D02*
X164567952Y-109784794D01*
X164567952Y-109784794D02*
X162167952Y-109784794D01*
X162167952Y-109784794D02*
X162167952Y-115784794D01*
X164567952Y-110343194D02*
X162167952Y-110343194D01*
X162167952Y-109784794D01*
X164567952Y-109784794D01*
X164567952Y-110343194D01*
G36*
X164567952Y-110343194D02*
G01*
X162167952Y-110343194D01*
X162167952Y-109784794D01*
X164567952Y-109784794D01*
X164567952Y-110343194D01*
G37*
X145567752Y-107685194D02*
X143167752Y-107685194D01*
X143167752Y-107685194D02*
X143167752Y-113685194D01*
X143167752Y-113685194D02*
X145567752Y-113685194D01*
X145567752Y-113685194D02*
X145567752Y-107685194D01*
X145567752Y-113685194D02*
X143167752Y-113685194D01*
X143167752Y-113126794D01*
X145567752Y-113126794D01*
X145567752Y-113685194D01*
G36*
X145567752Y-113685194D02*
G01*
X143167752Y-113685194D01*
X143167752Y-113126794D01*
X145567752Y-113126794D01*
X145567752Y-113685194D01*
G37*
X183567650Y-74985794D02*
X181167650Y-74985794D01*
X181167650Y-74985794D02*
X181167650Y-80985794D01*
X181167650Y-80985794D02*
X183567650Y-80985794D01*
X183567650Y-80985794D02*
X183567650Y-74985794D01*
X183567650Y-80985794D02*
X181167650Y-80985794D01*
X181167650Y-80427394D01*
X183567650Y-80427394D01*
X183567650Y-80985794D01*
G36*
X183567650Y-80985794D02*
G01*
X181167650Y-80985794D01*
X181167650Y-80427394D01*
X183567650Y-80427394D01*
X183567650Y-80985794D01*
G37*
D11*
X150281141Y-65515724D02*
X150281141Y-69460724D01*
X150281141Y-69469724D02*
X153891141Y-69469724D01*
X161181141Y-63561724D02*
X152556141Y-63561724D01*
X161181141Y-67469724D02*
X161181141Y-63561724D01*
X161181141Y-67515724D02*
X156131141Y-67561724D01*
X152556141Y-63561725D02*
G75*
G03*
X150292142Y-65445724I-190000J-2073999D01*
G01*
X156156141Y-67565725D02*
G75*
G03*
X153896142Y-69445723I-190001J-2069997D01*
G01*
X150281141Y-84515684D02*
X150281141Y-88460684D01*
X150281141Y-88469684D02*
X153891141Y-88469684D01*
X161181141Y-82561684D02*
X152556141Y-82561684D01*
X161181141Y-86469684D02*
X161181141Y-82561684D01*
X161181141Y-86515684D02*
X156131141Y-86561684D01*
X152556141Y-82561685D02*
G75*
G03*
X150292142Y-84445684I-190000J-2073999D01*
G01*
X156156141Y-86565685D02*
G75*
G03*
X153896142Y-88445683I-190001J-2069997D01*
G01*
D12*
X145567752Y-69485034D02*
X143167752Y-69485034D01*
X143167752Y-69485034D02*
X143167752Y-75485034D01*
X143167752Y-75485034D02*
X145567752Y-75485034D01*
X145567752Y-75485034D02*
X145567752Y-69485034D01*
X145567752Y-75485034D02*
X143167752Y-75485034D01*
X143167752Y-74926634D01*
X145567752Y-74926634D01*
X145567752Y-75485034D01*
G36*
X145567752Y-75485034D02*
G01*
X143167752Y-75485034D01*
X143167752Y-74926634D01*
X145567752Y-74926634D01*
X145567752Y-75485034D01*
G37*
X124168352Y-96584594D02*
X126568352Y-96584594D01*
X126568352Y-96584594D02*
X126568352Y-90584594D01*
X126568352Y-90584594D02*
X124168352Y-90584594D01*
X124168352Y-90584594D02*
X124168352Y-96584594D01*
X126568352Y-91142994D02*
X124168352Y-91142994D01*
X124168352Y-90584594D01*
X126568352Y-90584594D01*
X126568352Y-91142994D01*
G36*
X126568352Y-91142994D02*
G01*
X124168352Y-91142994D01*
X124168352Y-90584594D01*
X126568352Y-90584594D01*
X126568352Y-91142994D01*
G37*
D11*
X155323240Y-125587152D02*
X154302199Y-129397730D01*
X154299870Y-129406423D02*
X157786862Y-130340760D01*
X166357564Y-126520861D02*
X158026454Y-124288547D01*
X165346100Y-130295699D02*
X166357564Y-126520861D01*
X165334194Y-130340132D02*
X160444363Y-129077528D01*
X158026454Y-124288546D02*
G75*
G03*
X155351983Y-125522384I-720316J-1954155D01*
G01*
X160467476Y-129087863D02*
G75*
G03*
X157797905Y-130318871I-719282J-1950288D01*
G01*
X150281141Y-103516084D02*
X150281141Y-107461084D01*
X150281141Y-107470084D02*
X153891141Y-107470084D01*
X161181141Y-101562084D02*
X152556141Y-101562084D01*
X161181141Y-105470084D02*
X161181141Y-101562084D01*
X161181141Y-105516084D02*
X156131141Y-105562084D01*
X152556141Y-101562085D02*
G75*
G03*
X150292142Y-103446084I-190000J-2073999D01*
G01*
X156156141Y-105566085D02*
G75*
G03*
X153896142Y-107446083I-190001J-2069997D01*
G01*
D12*
X183567650Y-112985594D02*
X181167650Y-112985594D01*
X181167650Y-112985594D02*
X181167650Y-118985594D01*
X181167650Y-118985594D02*
X183567650Y-118985594D01*
X183567650Y-118985594D02*
X183567650Y-112985594D01*
X183567650Y-118985594D02*
X181167650Y-118985594D01*
X181167650Y-118427194D01*
X183567650Y-118427194D01*
X183567650Y-118985594D01*
G36*
X183567650Y-118985594D02*
G01*
X181167650Y-118985594D01*
X181167650Y-118427194D01*
X183567650Y-118427194D01*
X183567650Y-118985594D01*
G37*
X107568152Y-74685394D02*
X105168152Y-74685394D01*
X105168152Y-74685394D02*
X105168152Y-80685394D01*
X105168152Y-80685394D02*
X107568152Y-80685394D01*
X107568152Y-80685394D02*
X107568152Y-74685394D01*
X107568152Y-80685394D02*
X105168152Y-80685394D01*
X105168152Y-80126994D01*
X107568152Y-80126994D01*
X107568152Y-80685394D01*
G36*
X107568152Y-80685394D02*
G01*
X105168152Y-80685394D01*
X105168152Y-80126994D01*
X107568152Y-80126994D01*
X107568152Y-80685394D01*
G37*
D11*
X93281341Y-67815884D02*
X93281341Y-71760884D01*
X93281341Y-71769884D02*
X96891341Y-71769884D01*
X104181341Y-65861884D02*
X95556341Y-65861884D01*
X104181341Y-69769884D02*
X104181341Y-65861884D01*
X104181341Y-69815884D02*
X99131341Y-69861884D01*
X95556341Y-65861885D02*
G75*
G03*
X93292342Y-67745884I-190000J-2073999D01*
G01*
X99156341Y-69865885D02*
G75*
G03*
X96896342Y-71745883I-190001J-2069997D01*
G01*
X169280839Y-87516084D02*
X169280839Y-91461084D01*
X169280839Y-91470084D02*
X172890839Y-91470084D01*
X180180839Y-85562084D02*
X171555839Y-85562084D01*
X180180839Y-89470084D02*
X180180839Y-85562084D01*
X180180839Y-89516084D02*
X175130839Y-89562084D01*
X171555839Y-85562085D02*
G75*
G03*
X169291840Y-87446084I-190000J-2073999D01*
G01*
X175155839Y-89566085D02*
G75*
G03*
X172895840Y-91446083I-190001J-2069997D01*
G01*
D12*
X145567752Y-88684994D02*
X143167752Y-88684994D01*
X143167752Y-88684994D02*
X143167752Y-94684994D01*
X143167752Y-94684994D02*
X145567752Y-94684994D01*
X145567752Y-94684994D02*
X145567752Y-88684994D01*
X145567752Y-94684994D02*
X143167752Y-94684994D01*
X143167752Y-94126594D01*
X145567752Y-94126594D01*
X145567752Y-94684994D01*
G36*
X145567752Y-94684994D02*
G01*
X143167752Y-94684994D01*
X143167752Y-94126594D01*
X145567752Y-94126594D01*
X145567752Y-94684994D01*
G37*
D11*
X169280839Y-68516284D02*
X169280839Y-72461284D01*
X169280839Y-72470284D02*
X172890839Y-72470284D01*
X180180839Y-66562284D02*
X171555839Y-66562284D01*
X180180839Y-70470284D02*
X180180839Y-66562284D01*
X180180839Y-70516284D02*
X175130839Y-70562284D01*
X171555839Y-66562285D02*
G75*
G03*
X169291840Y-68446284I-190000J-2073999D01*
G01*
X175155839Y-70566285D02*
G75*
G03*
X172895840Y-72446283I-190001J-2069997D01*
G01*
D12*
X124168352Y-77584994D02*
X126568352Y-77584994D01*
X126568352Y-77584994D02*
X126568352Y-71584994D01*
X126568352Y-71584994D02*
X124168352Y-71584994D01*
X124168352Y-71584994D02*
X124168352Y-77584994D01*
X126568352Y-72143394D02*
X124168352Y-72143394D01*
X124168352Y-71584994D01*
X126568352Y-71584994D01*
X126568352Y-72143394D01*
G36*
X126568352Y-72143394D02*
G01*
X124168352Y-72143394D01*
X124168352Y-71584994D01*
X126568352Y-71584994D01*
X126568352Y-72143394D01*
G37*
X176128152Y-121207194D02*
X173728152Y-121207194D01*
X173728152Y-121207194D02*
X173728152Y-127207194D01*
X173728152Y-127207194D02*
X176128152Y-127207194D01*
X176128152Y-127207194D02*
X176128152Y-121207194D01*
X176128152Y-127207194D02*
X173728152Y-127207194D01*
X173728152Y-126648794D01*
X176128152Y-126648794D01*
X176128152Y-127207194D01*
G36*
X176128152Y-127207194D02*
G01*
X173728152Y-127207194D01*
X173728152Y-126648794D01*
X176128152Y-126648794D01*
X176128152Y-127207194D01*
G37*
D11*
X93281341Y-106315684D02*
X93281341Y-110260684D01*
X93281341Y-110269684D02*
X96891341Y-110269684D01*
X104181341Y-104361684D02*
X95556341Y-104361684D01*
X104181341Y-108269684D02*
X104181341Y-104361684D01*
X104181341Y-108315684D02*
X99131341Y-108361684D01*
X95556341Y-104361685D02*
G75*
G03*
X93292342Y-106245684I-190000J-2073999D01*
G01*
X99156341Y-108365685D02*
G75*
G03*
X96896342Y-110245683I-190001J-2069997D01*
G01*
D12*
X179742152Y-121207194D02*
X177342152Y-121207194D01*
X177342152Y-121207194D02*
X177342152Y-127207194D01*
X177342152Y-127207194D02*
X179742152Y-127207194D01*
X179742152Y-127207194D02*
X179742152Y-121207194D01*
X179742152Y-127207194D02*
X177342152Y-127207194D01*
X177342152Y-126648794D01*
X179742152Y-126648794D01*
X179742152Y-127207194D01*
G36*
X179742152Y-127207194D02*
G01*
X177342152Y-127207194D01*
X177342152Y-126648794D01*
X179742152Y-126648794D01*
X179742152Y-127207194D01*
G37*
D11*
X112281541Y-103315484D02*
X112281541Y-107260484D01*
X112281541Y-107269484D02*
X115891541Y-107269484D01*
X123181541Y-101361484D02*
X114556541Y-101361484D01*
X123181541Y-105269484D02*
X123181541Y-101361484D01*
X123181541Y-105315484D02*
X118131541Y-105361484D01*
X114556541Y-101361485D02*
G75*
G03*
X112292542Y-103245484I-190000J-2073999D01*
G01*
X118156541Y-105365485D02*
G75*
G03*
X115896542Y-107245483I-190001J-2069997D01*
G01*
X196695639Y-137014140D02*
X195674598Y-140824718D01*
X195672269Y-140833411D02*
X199159261Y-141767748D01*
X207729963Y-137947849D02*
X199398853Y-135715535D01*
X206718499Y-141722687D02*
X207729963Y-137947849D01*
X206706593Y-141767120D02*
X201816762Y-140504516D01*
X199398853Y-135715534D02*
G75*
G03*
X196724382Y-136949372I-720316J-1954155D01*
G01*
X201839875Y-140514851D02*
G75*
G03*
X199170304Y-141745859I-719282J-1950288D01*
G01*
X112281541Y-65316284D02*
X112281541Y-69261284D01*
X112281541Y-69270284D02*
X115891541Y-69270284D01*
X123181541Y-63362284D02*
X114556541Y-63362284D01*
X123181541Y-67270284D02*
X123181541Y-63362284D01*
X123181541Y-67316284D02*
X118131541Y-67362284D01*
X114556541Y-63362285D02*
G75*
G03*
X112292542Y-65246284I-190000J-2073999D01*
G01*
X118156541Y-67366285D02*
G75*
G03*
X115896542Y-69246283I-190001J-2069997D01*
G01*
X93281341Y-87315284D02*
X93281341Y-91260284D01*
X93281341Y-91269284D02*
X96891341Y-91269284D01*
X104181341Y-85361284D02*
X95556341Y-85361284D01*
X104181341Y-89269284D02*
X104181341Y-85361284D01*
X104181341Y-89315284D02*
X99131341Y-89361284D01*
X95556341Y-85361285D02*
G75*
G03*
X93292342Y-87245284I-190000J-2073999D01*
G01*
X99156341Y-89365285D02*
G75*
G03*
X96896342Y-91245283I-190001J-2069997D01*
G01*
X131280941Y-63015524D02*
X131280941Y-66960524D01*
X131280941Y-66969524D02*
X134890941Y-66969524D01*
X142180941Y-61061524D02*
X133555941Y-61061524D01*
X142180941Y-64969524D02*
X142180941Y-61061524D01*
X142180941Y-65015524D02*
X137130941Y-65061524D01*
X133555941Y-61061525D02*
G75*
G03*
X131291942Y-62945524I-190000J-2073999D01*
G01*
X137155941Y-65065525D02*
G75*
G03*
X134895942Y-66945523I-190001J-2069997D01*
G01*
X214542438Y-128688035D02*
X202854736Y-125556325D01*
X214542438Y-128688035D02*
X212963642Y-134580183D01*
X202854736Y-125556325D02*
X201275939Y-131448472D01*
X216409585Y-129447155D02*
X214960198Y-134856339D01*
X214477733Y-128929517D02*
X216409585Y-129447155D01*
X213028347Y-134338701D02*
X214960198Y-134856339D01*
X212963642Y-134580183D02*
X201275939Y-131448472D01*
D12*
X107568152Y-112985194D02*
X105168152Y-112985194D01*
X105168152Y-112985194D02*
X105168152Y-118985194D01*
X105168152Y-118985194D02*
X107568152Y-118985194D01*
X107568152Y-118985194D02*
X107568152Y-112985194D01*
X107568152Y-118985194D02*
X105168152Y-118985194D01*
X105168152Y-118426794D01*
X107568152Y-118426794D01*
X107568152Y-118985194D01*
G36*
X107568152Y-118985194D02*
G01*
X105168152Y-118985194D01*
X105168152Y-118426794D01*
X107568152Y-118426794D01*
X107568152Y-118985194D01*
G37*
D11*
X169280839Y-106516084D02*
X169280839Y-110461084D01*
X169280839Y-110470084D02*
X172890839Y-110470084D01*
X180180839Y-104562084D02*
X171555839Y-104562084D01*
X180180839Y-108470084D02*
X180180839Y-104562084D01*
X180180839Y-108516084D02*
X175130839Y-108562084D01*
X171555839Y-104562085D02*
G75*
G03*
X169291840Y-106446084I-190000J-2073999D01*
G01*
X175155839Y-108566085D02*
G75*
G03*
X172895840Y-110446083I-190001J-2069997D01*
G01*
X131280941Y-101015684D02*
X131280941Y-104960684D01*
X131280941Y-104969684D02*
X134890941Y-104969684D01*
X142180941Y-99061684D02*
X133555941Y-99061684D01*
X142180941Y-102969684D02*
X142180941Y-99061684D01*
X142180941Y-103015684D02*
X137130941Y-103061684D01*
X133555941Y-99061685D02*
G75*
G03*
X131291942Y-100945684I-190000J-2073999D01*
G01*
X137155941Y-103065685D02*
G75*
G03*
X134895942Y-104945683I-190001J-2069997D01*
G01*
D13*
X205434995Y-150711902D02*
X194037070Y-147657837D01*
X206496153Y-146751606D02*
X205434995Y-150711902D01*
X207531429Y-142887903D02*
X208592588Y-138927607D01*
X208592588Y-138927607D02*
X206274366Y-138306441D01*
X204149329Y-137737039D02*
X201637922Y-137064110D01*
X201797792Y-143422132D02*
X200831866Y-143163312D01*
X201185419Y-143775685D02*
X201444239Y-142809759D01*
X199512885Y-136494708D02*
X197194663Y-135873542D01*
X195703168Y-149553653D02*
X195491036Y-149186230D01*
X195335745Y-149765785D02*
X195703168Y-149553653D01*
X195491036Y-149186230D02*
X195335745Y-149765785D01*
X195098229Y-143697541D02*
X194037070Y-147657837D01*
X197194663Y-135873542D02*
X196133505Y-139833838D01*
X204314829Y-143292722D02*
G75*
G03*
X204314829Y-143292722I-3000000J0D01*
G01*
D11*
X131280941Y-82015484D02*
X131280941Y-85960484D01*
X131280941Y-85969484D02*
X134890941Y-85969484D01*
X142180941Y-80061484D02*
X133555941Y-80061484D01*
X142180941Y-83969484D02*
X142180941Y-80061484D01*
X142180941Y-84015484D02*
X137130941Y-84061484D01*
X133555941Y-80061485D02*
G75*
G03*
X131291942Y-81945484I-190000J-2073999D01*
G01*
X137155941Y-84065485D02*
G75*
G03*
X134895942Y-85945483I-190001J-2069997D01*
G01*
D12*
X107568152Y-93984794D02*
X105168152Y-93984794D01*
X105168152Y-93984794D02*
X105168152Y-99984794D01*
X105168152Y-99984794D02*
X107568152Y-99984794D01*
X107568152Y-99984794D02*
X107568152Y-93984794D01*
X107568152Y-99984794D02*
X105168152Y-99984794D01*
X105168152Y-99426394D01*
X107568152Y-99426394D01*
X107568152Y-99984794D01*
G36*
X107568152Y-99984794D02*
G01*
X105168152Y-99984794D01*
X105168152Y-99426394D01*
X107568152Y-99426394D01*
X107568152Y-99984794D01*
G37*
X162167952Y-77784434D02*
X164567952Y-77784434D01*
X164567952Y-77784434D02*
X164567952Y-71784434D01*
X164567952Y-71784434D02*
X162167952Y-71784434D01*
X162167952Y-71784434D02*
X162167952Y-77784434D01*
X164567952Y-72342834D02*
X162167952Y-72342834D01*
X162167952Y-71784434D01*
X164567952Y-71784434D01*
X164567952Y-72342834D01*
G36*
X164567952Y-72342834D02*
G01*
X162167952Y-72342834D01*
X162167952Y-71784434D01*
X164567952Y-71784434D01*
X164567952Y-72342834D01*
G37*
D11*
X112281541Y-84315884D02*
X112281541Y-88260884D01*
X112281541Y-88269884D02*
X115891541Y-88269884D01*
X123181541Y-82361884D02*
X114556541Y-82361884D01*
X123181541Y-86269884D02*
X123181541Y-82361884D01*
X123181541Y-86315884D02*
X118131541Y-86361884D01*
X114556541Y-82361885D02*
G75*
G03*
X112292542Y-84245884I-190000J-2073999D01*
G01*
X118156541Y-86365885D02*
G75*
G03*
X115896542Y-88245883I-190001J-2069997D01*
G01*
D13*
X186858154Y-121005719D02*
X186570865Y-122077896D01*
X186570865Y-122077896D02*
X187560939Y-122343186D01*
X187560939Y-122343186D02*
X187421177Y-122864786D01*
X188475235Y-127257266D02*
X189272124Y-127470792D01*
X189272124Y-127470792D02*
X188806250Y-129209459D01*
X195193249Y-129057353D02*
X195990138Y-129270879D01*
X199238982Y-125472308D02*
X200229056Y-125737598D01*
X199099220Y-125993908D02*
X199238982Y-125472308D01*
X200516345Y-124665420D02*
X186858154Y-121005719D01*
X200229056Y-125737598D02*
X200516345Y-124665420D01*
D11*
X114625081Y-122002346D02*
X114755607Y-122993791D01*
X113584064Y-122139399D02*
X114625081Y-122002346D01*
X93915582Y-124728804D02*
X94907027Y-124598277D01*
X93915582Y-124728804D02*
X94046108Y-125720248D01*
X116948447Y-139650065D02*
X116816615Y-138648706D01*
X115957002Y-139780591D02*
X116948447Y-139650065D01*
X96238948Y-142376522D02*
X96114948Y-141434649D01*
X96238948Y-142376522D02*
X97230393Y-142245996D01*
D13*
X196945208Y-128778150D02*
X198399771Y-123349647D01*
X198399771Y-123349647D02*
X189349046Y-120924512D01*
X196934175Y-126694288D02*
X188945969Y-124553855D01*
X197322404Y-125245400D02*
X189334197Y-123104966D01*
X197868512Y-123207296D02*
X196413949Y-128635799D01*
X195446029Y-129504897D02*
X194866473Y-129349606D01*
X195679845Y-128439097D02*
X196945208Y-128778150D01*
X195692786Y-128390801D02*
X195679845Y-128439097D01*
X196491707Y-125022815D02*
X196870230Y-123610149D01*
X196870230Y-123610149D02*
X196735047Y-123535104D01*
X195311542Y-128847696D02*
X195446029Y-129504897D01*
X196735047Y-123535104D02*
X196580453Y-123532503D01*
X196580453Y-123532503D02*
X196201930Y-124945170D01*
X195196882Y-128309687D02*
X194472438Y-128115573D01*
X195209823Y-128261391D02*
X195196882Y-128309687D01*
X194866473Y-129349606D02*
X195311542Y-128847696D01*
X194472438Y-128115573D02*
X194485379Y-128067277D01*
X195284300Y-124699291D02*
X195662823Y-123286625D01*
X195662823Y-123286625D02*
X195527640Y-123211580D01*
X195527640Y-123211580D02*
X195373045Y-123208979D01*
X195373045Y-123208979D02*
X194994522Y-124621646D01*
X193989475Y-127986164D02*
X193265031Y-127792049D01*
X194002416Y-127937867D02*
X193989475Y-127986164D01*
X193265031Y-127792049D02*
X193277972Y-127743753D01*
X194076893Y-124375768D02*
X194455416Y-122963101D01*
X194455416Y-122963101D02*
X194320233Y-122888056D01*
X194320233Y-122888056D02*
X194165638Y-122885455D01*
X194165638Y-122885455D02*
X193787115Y-124298122D01*
X192782068Y-127662640D02*
X192057623Y-127468525D01*
X192795009Y-127614343D02*
X192782068Y-127662640D01*
X192057623Y-127468525D02*
X192070564Y-127420229D01*
X192869486Y-124052244D02*
X193248008Y-122639577D01*
X193248008Y-122639577D02*
X193112825Y-122564532D01*
X193112825Y-122564532D02*
X192958231Y-122561932D01*
X192958231Y-122561932D02*
X192579708Y-123974598D01*
X191574660Y-127339116D02*
X190850216Y-127145002D01*
X191587601Y-127290820D02*
X191574660Y-127339116D01*
X190850216Y-127145002D02*
X190863157Y-127096705D01*
X191662078Y-123728720D02*
X192040601Y-122316054D01*
X192040601Y-122316054D02*
X191905418Y-122241008D01*
X191905418Y-122241008D02*
X191750823Y-122238408D01*
X191750823Y-122238408D02*
X191372301Y-123651074D01*
X190367253Y-127015592D02*
X189642809Y-126821478D01*
X190380194Y-126967296D02*
X190367253Y-127015592D01*
X189642809Y-126821478D02*
X189655750Y-126773182D01*
X190454671Y-123405196D02*
X190833194Y-121992530D01*
X190833194Y-121992530D02*
X190698011Y-121917485D01*
X190698011Y-121917485D02*
X190543416Y-121914884D01*
X190543416Y-121914884D02*
X190164893Y-123327551D01*
X189159846Y-126692068D02*
X189172787Y-126643772D01*
X189880305Y-121066863D02*
X188425742Y-126495366D01*
X187894483Y-126353015D02*
X189159846Y-126692068D01*
X189349046Y-120924512D02*
X187894483Y-126353015D01*
%LPC*%
D14*
X112750790Y-125999587D02*
X111743483Y-126132202D01*
X111610868Y-125124894D01*
X112618176Y-124992279D01*
X112750790Y-125999587D01*
G36*
X112750790Y-125999587D02*
G01*
X111743483Y-126132202D01*
X111610868Y-125124894D01*
X112618176Y-124992279D01*
X112750790Y-125999587D01*
G37*
X110232521Y-126331124D02*
X109225213Y-126463738D01*
X109092598Y-125456430D01*
X110099906Y-125323816D01*
X110232521Y-126331124D01*
G36*
X110232521Y-126331124D02*
G01*
X109225213Y-126463738D01*
X109092598Y-125456430D01*
X110099906Y-125323816D01*
X110232521Y-126331124D01*
G37*
X107714251Y-126662660D02*
X106706943Y-126795275D01*
X106574328Y-125787967D01*
X107581636Y-125655352D01*
X107714251Y-126662660D01*
G36*
X107714251Y-126662660D02*
G01*
X106706943Y-126795275D01*
X106574328Y-125787967D01*
X107581636Y-125655352D01*
X107714251Y-126662660D01*
G37*
X105195981Y-126994197D02*
X104188673Y-127126811D01*
X104056058Y-126119503D01*
X105063366Y-125986889D01*
X105195981Y-126994197D01*
G36*
X105195981Y-126994197D02*
G01*
X104188673Y-127126811D01*
X104056058Y-126119503D01*
X105063366Y-125986889D01*
X105195981Y-126994197D01*
G37*
X102677711Y-127325733D02*
X101670403Y-127458348D01*
X101537788Y-126451040D01*
X102545096Y-126318425D01*
X102677711Y-127325733D01*
G36*
X102677711Y-127325733D02*
G01*
X101670403Y-127458348D01*
X101537788Y-126451040D01*
X102545096Y-126318425D01*
X102677711Y-127325733D01*
G37*
X100159441Y-127657270D02*
X99152133Y-127789884D01*
X99019518Y-126782576D01*
X100026826Y-126649962D01*
X100159441Y-127657270D01*
G36*
X100159441Y-127657270D02*
G01*
X99152133Y-127789884D01*
X99019518Y-126782576D01*
X100026826Y-126649962D01*
X100159441Y-127657270D01*
G37*
X97641171Y-127988806D02*
X96633863Y-128121421D01*
X96501248Y-127114113D01*
X97508556Y-126981498D01*
X97641171Y-127988806D01*
G36*
X97641171Y-127988806D02*
G01*
X96633863Y-128121421D01*
X96501248Y-127114113D01*
X97508556Y-126981498D01*
X97641171Y-127988806D01*
G37*
X114236074Y-137281437D02*
X113228766Y-137414051D01*
X113096152Y-136406743D01*
X114103460Y-136274129D01*
X114236074Y-137281437D01*
G36*
X114236074Y-137281437D02*
G01*
X113228766Y-137414051D01*
X113096152Y-136406743D01*
X114103460Y-136274129D01*
X114236074Y-137281437D01*
G37*
X111717804Y-137612973D02*
X110710496Y-137745588D01*
X110577882Y-136738280D01*
X111585190Y-136605665D01*
X111717804Y-137612973D01*
G36*
X111717804Y-137612973D02*
G01*
X110710496Y-137745588D01*
X110577882Y-136738280D01*
X111585190Y-136605665D01*
X111717804Y-137612973D01*
G37*
X109199534Y-137944510D02*
X108192226Y-138077124D01*
X108059612Y-137069816D01*
X109066920Y-136937202D01*
X109199534Y-137944510D01*
G36*
X109199534Y-137944510D02*
G01*
X108192226Y-138077124D01*
X108059612Y-137069816D01*
X109066920Y-136937202D01*
X109199534Y-137944510D01*
G37*
X106681264Y-138276046D02*
X105673956Y-138408661D01*
X105541342Y-137401353D01*
X106548650Y-137268738D01*
X106681264Y-138276046D01*
G36*
X106681264Y-138276046D02*
G01*
X105673956Y-138408661D01*
X105541342Y-137401353D01*
X106548650Y-137268738D01*
X106681264Y-138276046D01*
G37*
X104162994Y-138607583D02*
X103155686Y-138740197D01*
X103023072Y-137732889D01*
X104030380Y-137600275D01*
X104162994Y-138607583D01*
G36*
X104162994Y-138607583D02*
G01*
X103155686Y-138740197D01*
X103023072Y-137732889D01*
X104030380Y-137600275D01*
X104162994Y-138607583D01*
G37*
X101644724Y-138939119D02*
X100637416Y-139071734D01*
X100504802Y-138064426D01*
X101512110Y-137931811D01*
X101644724Y-138939119D01*
G36*
X101644724Y-138939119D02*
G01*
X100637416Y-139071734D01*
X100504802Y-138064426D01*
X101512110Y-137931811D01*
X101644724Y-138939119D01*
G37*
X99126454Y-139270656D02*
X98119146Y-139403270D01*
X97986532Y-138395962D01*
X98993840Y-138263348D01*
X99126454Y-139270656D01*
G36*
X99126454Y-139270656D02*
G01*
X98119146Y-139403270D01*
X97986532Y-138395962D01*
X98993840Y-138263348D01*
X99126454Y-139270656D01*
G37*
D15*
X182367650Y-98485194D03*
X182367650Y-95085194D03*
D16*
X163367952Y-92284794D03*
X163367952Y-95684794D03*
X125368352Y-111084594D03*
X125368352Y-114484594D03*
D17*
X188067152Y-147042794D03*
D15*
X171314152Y-125706794D03*
X171314152Y-122306794D03*
D17*
X164318152Y-120626794D03*
D18*
X173589152Y-136247794D03*
D19*
X175473278Y-134123042D03*
X177357404Y-131998291D03*
D20*
X178496055Y-137562595D03*
D19*
X182264307Y-133313092D03*
X182833633Y-136095244D03*
D18*
X183402958Y-138877396D03*
D21*
X172381048Y-133347074D03*
D22*
X185235300Y-134089083D03*
D16*
X163367952Y-111285194D03*
X163367952Y-114685194D03*
D15*
X144367752Y-112184794D03*
X144367752Y-108784794D03*
X182367650Y-79485394D03*
X182367650Y-76085394D03*
D18*
X151287952Y-70384834D03*
D19*
X152557952Y-67844833D03*
X153827952Y-65304834D03*
D20*
X156367952Y-70384834D03*
D19*
X158907952Y-65304834D03*
X160177952Y-67844834D03*
D18*
X161447952Y-70384834D03*
D23*
X149370252Y-67895634D03*
D24*
X161978552Y-65285434D03*
D18*
X151287952Y-89384794D03*
D19*
X152557952Y-86844793D03*
X153827952Y-84304794D03*
D20*
X156367952Y-89384794D03*
D19*
X158907952Y-84304794D03*
X160177952Y-86844794D03*
D18*
X161447952Y-89384794D03*
D23*
X149370252Y-86895594D03*
D24*
X161978552Y-84285394D03*
D15*
X144367752Y-73984634D03*
X144367752Y-70584634D03*
D16*
X125368352Y-92084994D03*
X125368352Y-95484994D03*
D18*
X155035527Y-130550933D03*
D19*
X156919653Y-128426181D03*
X158803779Y-126301430D03*
D20*
X159942430Y-131865734D03*
D19*
X163710682Y-127616231D03*
X164280008Y-130398383D03*
D18*
X164849333Y-133180535D03*
D21*
X153827423Y-127650213D03*
D22*
X166681675Y-128392222D03*
D18*
X151287952Y-108385194D03*
D19*
X152557952Y-105845193D03*
X153827952Y-103305194D03*
D20*
X156367952Y-108385194D03*
D19*
X158907952Y-103305194D03*
X160177952Y-105845194D03*
D18*
X161447952Y-108385194D03*
D23*
X149370252Y-105895994D03*
D24*
X161978552Y-103285794D03*
D15*
X182367650Y-117485194D03*
X182367650Y-114085194D03*
X106368152Y-79184994D03*
X106368152Y-75784994D03*
D18*
X94288152Y-72684994D03*
D19*
X95558152Y-70144993D03*
X96828152Y-67604994D03*
D20*
X99368152Y-72684994D03*
D19*
X101908152Y-67604994D03*
X103178152Y-70144994D03*
D18*
X104448152Y-72684994D03*
D23*
X92370452Y-70195794D03*
D24*
X104978752Y-67585594D03*
D18*
X170287650Y-92385194D03*
D19*
X171557650Y-89845193D03*
X172827650Y-87305194D03*
D20*
X175367650Y-92385194D03*
D19*
X177907650Y-87305194D03*
X179177650Y-89845194D03*
D18*
X180447650Y-92385194D03*
D23*
X168369950Y-89895994D03*
D24*
X180978250Y-87285794D03*
D15*
X144367752Y-93184594D03*
X144367752Y-89784594D03*
D18*
X170287650Y-73385394D03*
D19*
X171557650Y-70845393D03*
X172827650Y-68305394D03*
D20*
X175367650Y-73385394D03*
D19*
X177907650Y-68305394D03*
X179177650Y-70845394D03*
D18*
X180447650Y-73385394D03*
D23*
X168369950Y-70896194D03*
D24*
X180978250Y-68285994D03*
D16*
X125368352Y-73085394D03*
X125368352Y-76485394D03*
D15*
X174928152Y-125706794D03*
X174928152Y-122306794D03*
D18*
X94288152Y-111184794D03*
D19*
X95558152Y-108644793D03*
X96828152Y-106104794D03*
D20*
X99368152Y-111184794D03*
D19*
X101908152Y-106104794D03*
X103178152Y-108644794D03*
D18*
X104448152Y-111184794D03*
D23*
X92370452Y-108695594D03*
D24*
X104978752Y-106085394D03*
D15*
X178542152Y-125706794D03*
X178542152Y-122306794D03*
D17*
X110597152Y-118975794D03*
D18*
X113288352Y-108184594D03*
D19*
X114558352Y-105644593D03*
X115828352Y-103104594D03*
D20*
X118368352Y-108184594D03*
D19*
X120908352Y-103104594D03*
X122178352Y-105644594D03*
D18*
X123448352Y-108184594D03*
D23*
X111370652Y-105695394D03*
D24*
X123978952Y-103085194D03*
D18*
X196407926Y-141977921D03*
D19*
X198292052Y-139853169D03*
X200176178Y-137728418D03*
D20*
X201314829Y-143292722D03*
D19*
X205083081Y-139043219D03*
X205652407Y-141825371D03*
D18*
X206221732Y-144607523D03*
D21*
X195199822Y-139077201D03*
D22*
X208054074Y-139819210D03*
D18*
X113288352Y-70185394D03*
D19*
X114558352Y-67645393D03*
X115828352Y-65105394D03*
D20*
X118368352Y-70185394D03*
D19*
X120908352Y-65105394D03*
X122178352Y-67645394D03*
D18*
X123448352Y-70185394D03*
D23*
X111370652Y-67696194D03*
D24*
X123978952Y-65085994D03*
D17*
X167569179Y-62196750D03*
D18*
X94288152Y-92184394D03*
D19*
X95558152Y-89644393D03*
X96828152Y-87104394D03*
D20*
X99368152Y-92184394D03*
D19*
X101908152Y-87104394D03*
X103178152Y-89644394D03*
D18*
X104448152Y-92184394D03*
D23*
X92370452Y-89695194D03*
D24*
X104978752Y-87084994D03*
D18*
X132287752Y-67884634D03*
D19*
X133557752Y-65344633D03*
X134827752Y-62804634D03*
D20*
X137367752Y-67884634D03*
D19*
X139907752Y-62804634D03*
X141177752Y-65344634D03*
D18*
X142447752Y-67884634D03*
D23*
X130370052Y-65395434D03*
D24*
X142978352Y-62785234D03*
D25*
X212207559Y-131219999D03*
X205446078Y-129408265D03*
D26*
X204484326Y-126738371D03*
X203305313Y-131215784D03*
X208348030Y-127773647D03*
X207169016Y-132251060D03*
X211245807Y-128550104D03*
X210066794Y-133027517D03*
X203433362Y-126487824D03*
X202231240Y-130896929D03*
D15*
X106368152Y-117484794D03*
X106368152Y-114084794D03*
D17*
X107320552Y-61749594D03*
X119893552Y-136527194D03*
D18*
X170287650Y-111385194D03*
D19*
X171557650Y-108845193D03*
X172827650Y-106305194D03*
D20*
X175367650Y-111385194D03*
D19*
X177907650Y-106305194D03*
X179177650Y-108845194D03*
D18*
X180447650Y-111385194D03*
D23*
X168369950Y-108895994D03*
D24*
X180978250Y-106285794D03*
D18*
X132287752Y-105884794D03*
D19*
X133557752Y-103344793D03*
X134827752Y-100804794D03*
D20*
X137367752Y-105884794D03*
D19*
X139907752Y-100804794D03*
X141177752Y-103344794D03*
D18*
X142447752Y-105884794D03*
D23*
X130370052Y-103395594D03*
D24*
X142978352Y-100785394D03*
D27*
X196958872Y-149890118D03*
X201788501Y-151184213D03*
X199373686Y-150537166D03*
D28*
X206724014Y-144742109D03*
X195905644Y-141843335D03*
D27*
X205541377Y-137178289D03*
X200711748Y-135884194D03*
D18*
X132287752Y-86884594D03*
D19*
X133557752Y-84344593D03*
X134827752Y-81804594D03*
D20*
X137367752Y-86884594D03*
D19*
X139907752Y-81804594D03*
X141177752Y-84344594D03*
D18*
X142447752Y-86884594D03*
D23*
X130370052Y-84395394D03*
D24*
X142978352Y-81785194D03*
D15*
X106368152Y-98484394D03*
X106368152Y-95084394D03*
D16*
X163367952Y-73284834D03*
X163367952Y-76684834D03*
D18*
X113288352Y-89184994D03*
D19*
X114558352Y-86644993D03*
X115828352Y-84104994D03*
D20*
X118368352Y-89184994D03*
D19*
X120908352Y-84104994D03*
X122178352Y-86644994D03*
D18*
X123448352Y-89184994D03*
D23*
X111370652Y-86695794D03*
D24*
X123978952Y-84085594D03*
D29*
X189587523Y-128476699D03*
X190553449Y-128735518D03*
X191519375Y-128994337D03*
X192485301Y-129253156D03*
X193451226Y-129511975D03*
X194417152Y-129770794D03*
D30*
X187424098Y-124998238D03*
X198029964Y-127840071D03*
D31*
X111936850Y-123709032D03*
X109418580Y-124040568D03*
X106900310Y-124372105D03*
X104382040Y-124703641D03*
X101863770Y-125035178D03*
X99345500Y-125366714D03*
X96827230Y-125698251D03*
D32*
X112147676Y-125310414D03*
X109629406Y-125641950D03*
X107111136Y-125973487D03*
X104592866Y-126305023D03*
X102074596Y-126636560D03*
X99556326Y-126968096D03*
X97038056Y-127299633D03*
D33*
X113699266Y-137095917D03*
X111180997Y-137427453D03*
X108662727Y-137758990D03*
X106144457Y-138090526D03*
X103626187Y-138422063D03*
X101107917Y-138753600D03*
X98589647Y-139085136D03*
D31*
X113908135Y-138682427D03*
X111389865Y-139013963D03*
X108871595Y-139345500D03*
X106353325Y-139677037D03*
X103835055Y-140008573D03*
X101316785Y-140340110D03*
X98798515Y-140671646D03*
D34*
X98457032Y-138077828D03*
X100975302Y-137746292D03*
X103493572Y-137414755D03*
X106011842Y-137083219D03*
X108530112Y-136751682D03*
X111048382Y-136420145D03*
X113566652Y-136088609D03*
D35*
X112280290Y-126317722D03*
X109762020Y-126649258D03*
X107243750Y-126980795D03*
X104725480Y-127312331D03*
X102207210Y-127643868D03*
X99688940Y-127975404D03*
X97170670Y-128306941D03*
D36*
X195699771Y-127398807D03*
D37*
X194492364Y-127075283D03*
X193284956Y-126751759D03*
X192077549Y-126428236D03*
X190870142Y-126104712D03*
X189662735Y-125781188D03*
D38*
X98457850Y-136947982D03*
X100975302Y-136542400D03*
X103501100Y-136288400D03*
X102471500Y-119509194D03*
X92458756Y-70170397D03*
X130370052Y-65395434D03*
X168369950Y-70896194D03*
D25*
X100184869Y-134713600D03*
X194417152Y-129770794D03*
X100184869Y-129495931D03*
D38*
X111370652Y-67696194D03*
X104978752Y-106085394D03*
X111370652Y-105695394D03*
X106004656Y-136122144D03*
X111370652Y-86695794D03*
X104978752Y-67585594D03*
X104978752Y-87084994D03*
X112586308Y-113810094D03*
X149370252Y-86895594D03*
X149370252Y-67895634D03*
X108530800Y-135678800D03*
X149370252Y-105895994D03*
X142978352Y-100785394D03*
X142978352Y-81785194D03*
X142978352Y-62785234D03*
X180978250Y-68285994D03*
X113543552Y-113810094D03*
X111038863Y-135456737D03*
X180644624Y-105952168D03*
X180978250Y-87285794D03*
X153827423Y-127650213D03*
X179050152Y-114759694D03*
X180707752Y-116417294D03*
X195199822Y-139077201D03*
X172381048Y-133347074D03*
X113560000Y-135018400D03*
X113560000Y-127597432D03*
X123978952Y-65085994D03*
X161978552Y-65285434D03*
X166681675Y-128392222D03*
X193451226Y-129511975D03*
X107815283Y-128506217D03*
X208054074Y-139819210D03*
X112848800Y-131206494D03*
X185527152Y-124055794D03*
X112280290Y-127578394D03*
X190553449Y-128735518D03*
D25*
X97608800Y-129786000D03*
X189587523Y-128476699D03*
X102701972Y-129163228D03*
D38*
X123978952Y-103085194D03*
X130370052Y-103395594D03*
X168369950Y-108895994D03*
X92370452Y-108695594D03*
X161978552Y-103285794D03*
X92370452Y-89695194D03*
X123978952Y-84085594D03*
X130370052Y-84395394D03*
X161978552Y-84285394D03*
X168369950Y-89895994D03*
X185235300Y-134089083D03*
X110359600Y-129596900D03*
X192485300Y-129253156D03*
X110364837Y-128205963D03*
X191519374Y-128994337D03*
X184561952Y-123381294D03*
X105279600Y-128820800D03*
%LPD*%
M02*
