M48
; DRILL file {KiCad 7.0.5} date Mon Jan  8 16:38:29 2024
; FORMAT={-:-/ absolute / inch / decimal}
; #@! TF.CreationDate,2024-01-08T16:38:29+08:00
; #@! TF.GenerationSoftware,Kicad,Pcbnew,7.0.5
; #@! TF.FileFunction,Plated,1,2,PTH
FMAT,2
INCH
; #@! TA.AperFunction,Plated,PTH,ViaDrill
T1C0.0118
; #@! TA.AperFunction,Plated,PTH,ViaDrill
T2C0.0157
; #@! TA.AperFunction,Plated,PTH,ComponentDrill
T3C0.0157
; #@! TA.AperFunction,Plated,PTH,ComponentDrill
T4C0.0236
; #@! TA.AperFunction,Plated,PTH,ComponentDrill
T5C0.0354
; #@! TA.AperFunction,Plated,PTH,ComponentDrill
T6C0.0394
; #@! TA.AperFunction,Plated,PTH,ComponentDrill
T7C0.0433
; #@! TA.AperFunction,Plated,PTH,ComponentDrill
T8C0.0591
%
G90
G05
T1
X3.6366Y-3.5313
X3.6366Y-4.2794
X3.6401Y-2.7626
X3.8763Y-5.3917
X3.9754Y-5.3757
X4.0343Y-4.7051
X4.0748Y-5.3657
X4.133Y-2.6609
X4.133Y-3.4285
X4.133Y-4.1766
X4.1449Y-5.0717
X4.1734Y-5.3591
X4.2447Y-5.0593
X4.2729Y-5.3417
X4.3449Y-5.1022
X4.3451Y-5.0475
X4.3716Y-5.3329
X4.3847Y-2.6652
X4.3847Y-3.4132
X4.3847Y-4.1612
X4.4205Y-5.0228
X4.4325Y-4.4807
X4.4429Y-5.1656
X4.4702Y-4.4807
X4.4709Y-5.0235
X4.4709Y-5.3157
X4.8811Y-2.5624
X4.8811Y-3.3105
X4.8811Y-4.0585
X5.1327Y-2.5746
X5.1327Y-3.3227
X5.1327Y-4.0707
X5.6291Y-2.4719
X5.6291Y-3.2199
X5.6291Y-3.9679
X5.8807Y-2.6731
X5.8807Y-3.4211
X5.8807Y-4.1691
X6.0562Y-5.0256
X6.3771Y-2.5703
X6.3771Y-3.3183
X6.3771Y-4.0664
X6.5623Y-5.0548
X6.6287Y-2.7912
X6.6287Y-3.5392
X6.6287Y-4.2872
X6.7867Y-5.2499
X7.0492Y-4.5181
X7.112Y-4.1713
X7.1145Y-4.5834
X7.1251Y-2.6884
X7.1251Y-3.4364
X7.2662Y-4.8575
X7.2927Y-5.2791
X7.3042Y-4.8841
X7.5021Y-5.0683
X7.5401Y-5.0785
X7.5782Y-5.0887
X7.6162Y-5.0989
X7.685Y-5.4755
X8.1911Y-5.5047
T2
X3.8429Y-5.1097
X3.9443Y-5.0983
X3.9443Y-5.3037
X4.0434Y-5.0852
X7.4641Y-5.0581
X7.6542Y-5.1091
T3
X4.1877Y-2.9837
X4.1877Y-3.1175
X4.1877Y-3.7435
X4.1877Y-3.8773
X4.1877Y-4.4915
X4.1877Y-4.6254
X4.9358Y-2.8774
X4.9358Y-3.0112
X4.9358Y-3.6254
X4.9358Y-3.7593
X4.9358Y-4.3734
X4.9358Y-4.5073
X5.6838Y-2.7789
X5.6838Y-2.9128
X5.6838Y-3.5348
X5.6838Y-3.6687
X5.6838Y-4.2829
X5.6838Y-4.4167
X6.4318Y-2.8852
X6.4318Y-3.0191
X6.4318Y-3.6333
X6.4318Y-3.7671
X6.4318Y-4.3813
X6.4318Y-4.5152
X6.7447Y-4.8152
X6.7447Y-4.9491
X6.8869Y-4.8152
X6.8869Y-4.9491
X7.0292Y-4.8152
X7.0292Y-4.9491
X7.1798Y-2.9955
X7.1798Y-3.1293
X7.1798Y-3.7435
X7.1798Y-3.8774
X7.1798Y-4.4915
X7.1798Y-4.6254
T4
X7.467Y-4.952
X7.5146Y-4.9648
X7.5621Y-4.9775
X7.6096Y-4.9902
X7.6572Y-5.003
X7.7047Y-5.0157
T6
X7.7543Y-5.9012
X7.8494Y-5.9267
X7.902Y-5.3498
X7.9444Y-5.9521
X8.0922Y-5.4007
T7
X3.8121Y-4.9488
X3.8897Y-5.5383
X3.9112Y-4.9357
X3.9888Y-5.5252
X4.0104Y-4.9226
X4.088Y-5.5121
X4.1095Y-4.9096
X4.1871Y-5.4991
X4.2087Y-4.8965
X4.2863Y-5.486
X4.3078Y-4.8835
X4.3854Y-5.473
X4.407Y-4.8704
X4.4846Y-5.4599
T5
G00X7.9543Y-5.1514
M15
G01X7.9695Y-5.1555
M16
G05
G00X8.0118Y-5.168
M15
G01X7.9965Y-5.1639
M16
G05
G00X8.0168Y-4.9819
M15
G01X8.0016Y-4.9778
M16
G05
G00X8.043Y-4.9877
M15
G01X8.0582Y-4.9917
M16
G05
G00X8.1639Y-5.2088
M15
G01X8.1487Y-5.2047
M16
G05
G00X8.1951Y-5.0284
M15
G01X8.2103Y-5.0325
M16
G05
G00X8.278Y-5.2393
M15
G01X8.2627Y-5.2353
M16
G05
G00X8.3092Y-5.059
M15
G01X8.3244Y-5.0631
M16
G05
T8
G00X7.7062Y-5.6091
M15
G01X7.7194Y-5.5597
M16
G05
G00X8.1321Y-5.7232
M15
G01X8.1454Y-5.6738
M16
G05
T0
M30
