G04 #@! TF.GenerationSoftware,KiCad,Pcbnew,7.0.5*
G04 #@! TF.CreationDate,2024-01-08T16:38:30+08:00*
G04 #@! TF.ProjectId,awkb_v2_mx,61776b62-5f76-4325-9f6d-782e6b696361,rev?*
G04 #@! TF.SameCoordinates,Original*
G04 #@! TF.FileFunction,Soldermask,Top*
G04 #@! TF.FilePolarity,Negative*
%FSLAX46Y46*%
G04 Gerber Fmt 4.6, Leading zero omitted, Abs format (unit mm)*
G04 Created by KiCad (PCBNEW 7.0.5) date 2024-01-08 16:38:30*
%MOMM*%
%LPD*%
G01*
G04 APERTURE LIST*
G04 Aperture macros list*
%AMRoundRect*
0 Rectangle with rounded corners*
0 $1 Rounding radius*
0 $2 $3 $4 $5 $6 $7 $8 $9 X,Y pos of 4 corners*
0 Add a 4 corners polygon primitive as box body*
4,1,4,$2,$3,$4,$5,$6,$7,$8,$9,$2,$3,0*
0 Add four circle primitives for the rounded corners*
1,1,$1+$1,$2,$3*
1,1,$1+$1,$4,$5*
1,1,$1+$1,$6,$7*
1,1,$1+$1,$8,$9*
0 Add four rect primitives between the rounded corners*
20,1,$1+$1,$2,$3,$4,$5,0*
20,1,$1+$1,$4,$5,$6,$7,0*
20,1,$1+$1,$6,$7,$8,$9,0*
20,1,$1+$1,$8,$9,$2,$3,0*%
%AMHorizOval*
0 Thick line with rounded ends*
0 $1 width*
0 $2 $3 position (X,Y) of the first rounded end (center of the circle)*
0 $4 $5 position (X,Y) of the second rounded end (center of the circle)*
0 Add line between two ends*
20,1,$1,$2,$3,$4,$5,0*
0 Add two circle primitives to create the rounded ends*
1,1,$1,$2,$3*
1,1,$1,$4,$5*%
%AMFreePoly0*
4,1,37,1.246537,1.440756,1.265589,1.436966,1.337677,1.407108,1.353828,1.396317,1.409017,1.341128,1.419808,1.324977,1.449666,1.252889,1.453456,1.233837,1.457300,1.194816,1.457300,-0.746760,1.437494,-0.833537,1.398722,-0.888181,0.900881,-1.386021,0.825516,-1.433377,0.759460,-1.444600,-1.207516,-1.444600,-1.246537,-1.440756,-1.265589,-1.436966,-1.337677,-1.407108,-1.353828,-1.396317,
-1.409017,-1.341128,-1.419808,-1.324977,-1.449666,-1.252889,-1.453456,-1.233837,-1.457300,-1.194816,-1.457301,1.194816,-1.453456,1.233837,-1.449666,1.252889,-1.419808,1.324977,-1.409017,1.341128,-1.353828,1.396317,-1.337677,1.407108,-1.265589,1.436966,-1.246537,1.440756,-1.207516,1.444600,1.207516,1.444600,1.246537,1.440756,1.246537,1.440756,$1*%
%AMFreePoly1*
4,1,414,-2.663564,6.707050,-2.641221,6.706150,-2.627714,6.704682,-2.557310,6.692154,-2.496946,6.671026,-2.423852,6.631355,-2.413687,6.625023,-2.398814,6.614472,-2.158972,6.440888,-1.894926,6.250226,-1.604825,6.041150,-1.340970,5.851270,-1.340970,5.851269,-0.908659,5.540346,1.016000,5.540345,1.102777,5.520541,1.172366,5.465043,1.210986,5.384850,1.216000,5.340346,1.216000,4.009931,
1.299751,3.950054,1.397604,3.879440,1.472196,3.823385,1.475820,3.820528,1.531511,3.774507,1.538834,3.767818,1.574924,3.731412,1.599100,3.701843,1.617824,3.673864,1.642241,3.623128,1.650707,3.596451,1.659584,3.549979,1.661424,3.523819,1.657476,3.467890,1.643544,3.402871,1.621142,3.344696,1.575521,3.265763,1.570063,3.257327,1.474398,3.124598,1.474399,3.124598,
1.399655,3.020777,1.341070,2.939228,1.295956,2.876188,1.262955,2.829761,1.239581,2.796469,1.228629,2.780518,1.228382,2.778534,1.226098,2.749223,1.223899,2.705055,1.221971,2.645262,1.220353,2.568240,1.219044,2.472608,1.218021,2.356402,1.217250,2.217703,1.216700,2.054330,1.216701,2.054330,1.216336,1.864310,1.216122,1.646064,1.216022,1.397277,1.216000,1.156191,
1.216000,-0.508000,1.196194,-0.594777,1.140698,-0.664366,1.060504,-0.702986,1.016000,-0.708000,-1.300867,-0.708000,-1.317305,-0.721955,-1.374130,-0.762724,-1.456184,-0.797217,-1.462328,-0.798196,-1.521438,-0.806672,-1.610148,-0.799384,-1.618523,-0.796529,-1.683626,-0.772720,-1.726325,-0.750993,-1.765907,-0.724447,-1.770550,-0.721139,-1.786681,-0.708933,-4.832406,-0.708000,-4.919177,-0.688166,
-4.988750,-0.632650,-5.027344,-0.552444,-5.032345,-0.508064,-5.032395,-0.352086,-5.032421,-0.271829,-3.059387,-0.271830,-2.944889,-0.271615,-2.944888,-0.271615,-2.758679,-0.271042,-2.580739,-0.270256,-2.580738,-0.270256,-2.414939,-0.269261,-2.414940,-0.269261,-2.402157,-0.269159,-2.423194,-0.254061,-2.551428,-0.161856,-2.680405,-0.068976,-2.801942,0.018686,-2.907841,0.095225,-2.951636,0.126949,
-3.041522,0.192069,-3.054493,0.201448,-3.054493,-0.250384,-3.059387,-0.271830,-5.032421,-0.271829,-5.033035,1.627051,-5.116088,1.686225,-5.284226,1.806363,-5.425283,1.907915,-5.540186,1.991566,-5.630162,2.058240,-5.695871,2.108467,-5.698372,2.110442,-5.741778,2.145869,-5.747390,2.150809,-5.763238,2.165850,-5.804603,2.221793,-5.831146,2.275116,-5.852084,2.361626,-5.851576,2.378731,
-5.846892,2.443206,-5.827099,2.516549,-5.820642,2.529758,-5.788356,2.595805,-5.784989,2.601633,-4.580894,2.601633,-4.580837,2.458573,-4.580478,2.346570,-4.579555,2.262461,-4.577881,2.203736,-4.577285,2.194667,-4.548415,2.172831,-4.483289,2.124673,-4.404467,2.067194,-4.317291,2.004343,-4.304320,1.995049,-3.789717,1.626690,-3.693155,1.557418,-3.588658,1.482202,-3.493513,1.413516,
-3.493469,1.417579,-3.492215,1.570234,-3.491128,1.743282,-3.490225,1.934674,-3.489527,2.141404,-3.489052,2.361431,-3.488816,2.592405,-3.488794,2.690627,-3.488794,4.145613,-3.780439,4.145613,-3.797838,4.121466,-3.833847,4.071538,-3.884822,4.000919,-3.945645,3.916699,-4.011204,3.825953,-4.061105,3.756906,-4.138874,3.649180,-4.227667,3.525969,-4.318193,3.400180,-4.401743,3.283907,
-4.432523,3.241007,-4.580894,3.034101,-4.580894,2.601633,-5.784989,2.601633,-5.781445,2.607769,-5.775409,2.616730,-5.747746,2.656569,-5.702905,2.720059,-5.642947,2.804351,-5.569964,2.906530,-5.486213,3.023444,-5.393993,3.151881,-5.295612,3.288617,-5.193407,3.430389,-5.157803,3.479711,-5.032345,3.653438,-5.032345,4.562763,-3.478749,4.562763,-3.254493,4.562763,-3.167716,4.542957,
-3.098127,4.487461,-3.059507,4.407267,-3.054493,4.362825,-3.053482,1.095367,-2.755790,0.881825,-2.538863,0.726188,-2.348318,0.589414,-2.182662,0.470425,-2.040390,0.368136,-1.919993,0.281460,-1.830611,0.216986,-1.818379,1.744532,-1.390887,1.744532,-1.390887,0.872621,-1.390687,0.684777,-1.390113,0.507776,-1.389488,0.395984,-1.362208,0.434001,-1.282405,0.545014,-1.202983,0.655306,
-1.126858,0.760817,-1.056931,0.857505,-0.996121,0.941303,-0.964901,0.984151,-0.913707,1.054538,-0.851488,1.140514,-0.788030,1.228536,-0.750017,1.281458,-0.468879,1.673602,-0.418955,1.742967,-0.420240,1.742985,-0.587428,1.744095,-0.788602,1.744526,-0.788601,1.744526,-0.819150,1.744532,-1.390887,1.744532,-1.818379,1.744532,-1.816764,1.946135,-1.816608,1.965721,-1.796105,2.052336,
-1.740054,2.121479,-1.659553,2.159454,-1.617377,2.164117,-0.111097,2.169868,0.138817,2.516086,0.227450,2.638853,0.320064,2.767098,0.411852,2.894166,0.498011,3.013410,0.573742,3.118189,0.634535,3.202258,0.779387,3.402484,0.778132,3.427196,0.736528,3.458396,0.663454,3.512361,0.580098,3.572686,0.503228,3.627241,0.499236,3.630032,0.490935,3.635826,-0.332040,3.040808,
-0.491563,2.925814,-0.643339,2.817068,-0.784955,2.716258,-0.914136,2.624974,-1.028637,2.544784,-1.126312,2.477194,-1.205320,2.423507,-1.263590,2.385237,-1.267202,2.382973,-1.300050,2.363349,-1.335772,2.346546,-1.341637,2.344468,-1.430043,2.334129,-1.514180,2.363173,-1.549349,2.390986,-1.568831,2.410314,-1.575615,2.417759,-1.612287,2.462315,-1.614024,2.464486,-1.661873,2.526034,
-1.719812,2.602912,-1.784355,2.690558,-1.813064,2.730129,-1.897224,2.846653,-1.992502,2.978597,-2.090826,3.114777,-2.184002,3.243845,-2.251013,3.336686,-2.319043,3.430882,-2.402203,3.545922,-2.402202,3.545922,-2.495312,3.674648,-2.495313,3.674648,-2.593439,3.810237,-2.593438,3.810237,-2.691394,3.945522,-2.790634,4.082500,-2.879547,4.205244,-2.970969,4.331572,-3.060519,4.455420,
-3.143837,4.570758,-3.216578,4.671573,-3.274379,4.751822,-3.283113,4.763969,-3.308252,4.798680,-3.309485,4.796953,-3.367768,4.715859,-3.427376,4.633472,-3.478749,4.562763,-5.032345,4.562763,-5.032345,5.088893,-4.580894,5.088894,-4.580894,4.835834,-4.580509,4.692777,-4.579279,4.581848,-4.578828,4.564933,-4.530979,4.564588,-4.453634,4.565158,-4.384004,4.566788,-4.373602,4.567285,
-4.372294,4.568938,-4.320581,4.638596,-4.253334,4.732398,-4.221007,4.778279,-4.190391,4.821521,-4.144475,4.885859,-4.088149,4.964468,-4.026093,5.050817,-3.998998,5.088421,-4.071032,5.088758,-4.179382,5.088875,-2.969943,5.088875,-2.904744,4.998038,-2.807937,4.863599,-2.691454,4.702178,-2.555289,4.513770,-2.555289,4.513770,-2.399346,4.298241,-2.399346,4.298240,-2.223932,4.056015,
-2.191157,4.010778,-2.057824,3.826715,-1.942489,3.667405,-1.843008,3.529873,-1.757234,3.411137,-1.683021,3.308215,-1.618222,3.218130,-1.560700,3.137912,-1.508322,3.064603,-1.458972,2.995262,-1.414225,2.932165,-1.359497,2.855894,-1.355693,2.850744,-1.307082,2.885041,-1.205315,2.957385,-1.088324,3.041002,-0.958198,3.134408,-0.818136,3.235324,-0.818137,3.235325,-0.691009,3.327222,
-0.540362,3.436266,-0.395328,3.541212,-0.258867,3.639921,-0.133822,3.730337,-0.023033,3.810409,0.070663,3.878086,0.112494,3.908272,0.101072,3.916610,0.054852,3.950351,-0.046932,4.023566,-0.165523,4.108922,-0.291229,4.199442,-0.413710,4.287679,-0.507292,4.355131,-0.507291,4.355131,-0.608845,4.428321,-0.608843,4.428321,-0.729816,4.515456,-0.729816,4.515456,-0.861943,4.610589,
-0.996814,4.707660,-1.126055,4.800645,-1.193145,4.848896,-1.193144,4.848896,-1.526707,5.088757,-2.969943,5.088875,-4.179382,5.088875,-4.196977,5.088894,-4.580894,5.088894,-5.032345,5.088893,-5.032345,5.340346,-5.012538,5.427123,-4.957043,5.496712,-4.876849,5.535332,-4.832345,5.540346,-3.672979,5.540346,-3.671844,5.541921,-2.774877,5.541921,-2.654613,5.541104,-2.503084,5.540526,
-2.354041,5.540346,-2.192679,5.540502,-2.154401,5.540618,-2.179528,5.558770,-2.410073,5.725327,-2.472505,5.770435,-2.549554,5.824927,-2.563214,5.834142,-2.593747,5.792542,-2.653498,5.710414,-2.716249,5.623563,-2.774877,5.541921,-3.671844,5.541921,-3.451646,5.847456,-3.331591,6.014124,-3.229883,6.155310,-3.144709,6.273254,-3.074211,6.370242,-3.016438,6.448685,-2.969891,6.510352,
-2.968577,6.512055,-2.931280,6.559320,-2.928782,6.562361,-2.897756,6.598645,-2.892800,6.604029,-2.864383,6.632720,-2.854177,6.641712,-2.832303,6.658487,-2.792701,6.682153,-2.779068,6.688291,-2.724859,6.703967,-2.712337,6.705731,-2.677032,6.707549,-2.663564,6.707050,-2.663564,6.707050,$1*%
%AMFreePoly2*
4,1,22,0.106406,0.569345,0.141421,0.541421,0.741421,-0.058579,0.788777,-0.133944,0.800000,-0.200000,0.800000,-0.400000,0.780193,-0.486777,0.724698,-0.556366,0.644504,-0.594986,0.600000,-0.600000,-0.600000,-0.600000,-0.686777,-0.580194,-0.756366,-0.524698,-0.794986,-0.444504,-0.800000,-0.400000,-0.800000,-0.200000,-0.780194,-0.113223,-0.741421,-0.058579,-0.141421,0.541421,-0.066056,0.588777,
0.022393,0.598742,0.106406,0.569345,0.106406,0.569345,$1*%
%AMFreePoly3*
4,1,26,0.686777,0.430194,0.756366,0.374698,0.794986,0.294504,0.800000,0.250000,0.800000,-1.000000,0.780194,-1.086777,0.724698,-1.156366,0.644504,-1.194986,0.555496,-1.194986,0.475302,-1.156366,0.458579,-1.141421,0.000000,-0.682842,-0.458579,-1.141421,-0.533944,-1.188778,-0.622393,-1.198742,-0.706406,-1.169345,-0.769345,-1.106406,-0.798742,-1.022393,-0.800000,-1.000000,-0.800000,0.250000,
-0.780194,0.336777,-0.724699,0.406366,-0.644505,0.444986,-0.600000,0.450000,0.600000,0.450000,0.686777,0.430194,0.686777,0.430194,$1*%
G04 Aperture macros list end*
%ADD10C,0.100000*%
%ADD11RoundRect,0.200000X0.700000X-0.600000X0.700000X0.600000X-0.700000X0.600000X-0.700000X-0.600000X0*%
%ADD12RoundRect,0.200000X-0.700000X0.600000X-0.700000X-0.600000X0.700000X-0.600000X0.700000X0.600000X0*%
%ADD13C,3.600000*%
%ADD14C,2.100000*%
%ADD15C,3.400000*%
%ADD16C,4.400000*%
%ADD17FreePoly0,345.000000*%
%ADD18RoundRect,0.200000X-1.524314X-0.880063X0.880063X-1.524314X1.524314X0.880063X-0.880063X1.524314X0*%
%ADD19FreePoly0,0.000000*%
%ADD20RoundRect,0.200000X-1.244597X-1.244597X1.244597X-1.244597X1.244597X1.244597X-1.244597X1.244597X0*%
%ADD21RoundRect,0.200000X0.553426X0.886986X-0.035788X1.044866X-0.553426X-0.886986X0.035788X-1.044866X0*%
%ADD22RoundRect,0.200000X1.760215X1.391849X-0.828466X2.085484X-1.760215X-1.391849X0.828466X-2.085484X0*%
%ADD23FreePoly1,35.000000*%
%ADD24C,1.200000*%
%ADD25HorizOval,2.000000X-0.193185X0.051764X0.193185X-0.051764X0*%
%ADD26C,2.400000*%
%ADD27RoundRect,0.200000X0.551815X-1.804300X1.380036X1.286662X-0.551815X1.804300X-1.380036X-1.286662X0*%
%ADD28C,2.000000*%
%ADD29FreePoly2,187.500000*%
%ADD30FreePoly2,7.500000*%
%ADD31FreePoly3,187.500000*%
%ADD32FreePoly3,7.500000*%
%ADD33RoundRect,0.425000X0.340272X0.400580X-0.094394X0.517049X-0.340272X-0.400580X0.094394X-0.517049X0*%
%ADD34HorizOval,1.300000X0.064705X0.241481X-0.064705X-0.241481X0*%
%ADD35C,1.100000*%
G04 APERTURE END LIST*
D10*
X112750790Y-125999587D02*
X111743483Y-126132202D01*
X111610868Y-125124894D01*
X112618176Y-124992279D01*
X112750790Y-125999587D01*
G36*
X112750790Y-125999587D02*
G01*
X111743483Y-126132202D01*
X111610868Y-125124894D01*
X112618176Y-124992279D01*
X112750790Y-125999587D01*
G37*
X110232521Y-126331124D02*
X109225213Y-126463738D01*
X109092598Y-125456430D01*
X110099906Y-125323816D01*
X110232521Y-126331124D01*
G36*
X110232521Y-126331124D02*
G01*
X109225213Y-126463738D01*
X109092598Y-125456430D01*
X110099906Y-125323816D01*
X110232521Y-126331124D01*
G37*
X107714251Y-126662660D02*
X106706943Y-126795275D01*
X106574328Y-125787967D01*
X107581636Y-125655352D01*
X107714251Y-126662660D01*
G36*
X107714251Y-126662660D02*
G01*
X106706943Y-126795275D01*
X106574328Y-125787967D01*
X107581636Y-125655352D01*
X107714251Y-126662660D01*
G37*
X105195981Y-126994197D02*
X104188673Y-127126811D01*
X104056058Y-126119503D01*
X105063366Y-125986889D01*
X105195981Y-126994197D01*
G36*
X105195981Y-126994197D02*
G01*
X104188673Y-127126811D01*
X104056058Y-126119503D01*
X105063366Y-125986889D01*
X105195981Y-126994197D01*
G37*
X102677711Y-127325733D02*
X101670403Y-127458348D01*
X101537788Y-126451040D01*
X102545096Y-126318425D01*
X102677711Y-127325733D01*
G36*
X102677711Y-127325733D02*
G01*
X101670403Y-127458348D01*
X101537788Y-126451040D01*
X102545096Y-126318425D01*
X102677711Y-127325733D01*
G37*
X100159441Y-127657270D02*
X99152133Y-127789884D01*
X99019518Y-126782576D01*
X100026826Y-126649962D01*
X100159441Y-127657270D01*
G36*
X100159441Y-127657270D02*
G01*
X99152133Y-127789884D01*
X99019518Y-126782576D01*
X100026826Y-126649962D01*
X100159441Y-127657270D01*
G37*
X97641171Y-127988806D02*
X96633863Y-128121421D01*
X96501248Y-127114113D01*
X97508556Y-126981498D01*
X97641171Y-127988806D01*
G36*
X97641171Y-127988806D02*
G01*
X96633863Y-128121421D01*
X96501248Y-127114113D01*
X97508556Y-126981498D01*
X97641171Y-127988806D01*
G37*
X114236074Y-137281437D02*
X113228766Y-137414051D01*
X113096152Y-136406743D01*
X114103460Y-136274129D01*
X114236074Y-137281437D01*
G36*
X114236074Y-137281437D02*
G01*
X113228766Y-137414051D01*
X113096152Y-136406743D01*
X114103460Y-136274129D01*
X114236074Y-137281437D01*
G37*
X111717804Y-137612973D02*
X110710496Y-137745588D01*
X110577882Y-136738280D01*
X111585190Y-136605665D01*
X111717804Y-137612973D01*
G36*
X111717804Y-137612973D02*
G01*
X110710496Y-137745588D01*
X110577882Y-136738280D01*
X111585190Y-136605665D01*
X111717804Y-137612973D01*
G37*
X109199534Y-137944510D02*
X108192226Y-138077124D01*
X108059612Y-137069816D01*
X109066920Y-136937202D01*
X109199534Y-137944510D01*
G36*
X109199534Y-137944510D02*
G01*
X108192226Y-138077124D01*
X108059612Y-137069816D01*
X109066920Y-136937202D01*
X109199534Y-137944510D01*
G37*
X106681264Y-138276046D02*
X105673956Y-138408661D01*
X105541342Y-137401353D01*
X106548650Y-137268738D01*
X106681264Y-138276046D01*
G36*
X106681264Y-138276046D02*
G01*
X105673956Y-138408661D01*
X105541342Y-137401353D01*
X106548650Y-137268738D01*
X106681264Y-138276046D01*
G37*
X104162994Y-138607583D02*
X103155686Y-138740197D01*
X103023072Y-137732889D01*
X104030380Y-137600275D01*
X104162994Y-138607583D01*
G36*
X104162994Y-138607583D02*
G01*
X103155686Y-138740197D01*
X103023072Y-137732889D01*
X104030380Y-137600275D01*
X104162994Y-138607583D01*
G37*
X101644724Y-138939119D02*
X100637416Y-139071734D01*
X100504802Y-138064426D01*
X101512110Y-137931811D01*
X101644724Y-138939119D01*
G36*
X101644724Y-138939119D02*
G01*
X100637416Y-139071734D01*
X100504802Y-138064426D01*
X101512110Y-137931811D01*
X101644724Y-138939119D01*
G37*
X99126454Y-139270656D02*
X98119146Y-139403270D01*
X97986532Y-138395962D01*
X98993840Y-138263348D01*
X99126454Y-139270656D01*
G36*
X99126454Y-139270656D02*
G01*
X98119146Y-139403270D01*
X97986532Y-138395962D01*
X98993840Y-138263348D01*
X99126454Y-139270656D01*
G37*
D11*
X182367650Y-98485194D03*
X182367650Y-95085194D03*
D12*
X163367952Y-92284794D03*
X163367952Y-95684794D03*
X125368352Y-111084594D03*
X125368352Y-114484594D03*
D13*
X188067152Y-147042794D03*
D11*
X171314152Y-125706794D03*
X171314152Y-122306794D03*
D13*
X164318152Y-120626794D03*
D14*
X173589152Y-136247794D03*
D15*
X175473278Y-134123042D03*
X177357404Y-131998291D03*
D16*
X178496055Y-137562595D03*
D15*
X182264307Y-133313092D03*
X182833633Y-136095244D03*
D14*
X183402958Y-138877396D03*
D17*
X174333965Y-131161867D03*
D18*
X185820845Y-136921964D03*
D12*
X163367952Y-111285194D03*
X163367952Y-114685194D03*
D11*
X144367752Y-112184794D03*
X144367752Y-108784794D03*
X182367650Y-79485394D03*
X182367650Y-76085394D03*
D14*
X151287952Y-70384834D03*
D15*
X152557952Y-67844833D03*
X153827952Y-65304834D03*
D16*
X156367952Y-70384834D03*
D15*
X158907952Y-65304834D03*
X160177952Y-67844834D03*
D14*
X161447952Y-70384834D03*
D19*
X150691052Y-65279434D03*
D20*
X163277348Y-67870237D03*
D14*
X151287952Y-89384794D03*
D15*
X152557952Y-86844793D03*
X153827952Y-84304794D03*
D16*
X156367952Y-89384794D03*
D15*
X158907952Y-84304794D03*
X160177952Y-86844794D03*
D14*
X161447952Y-89384794D03*
D19*
X150691052Y-84279394D03*
D20*
X163277348Y-86870197D03*
D11*
X144367752Y-73984634D03*
X144367752Y-70584634D03*
D12*
X125368352Y-92084994D03*
X125368352Y-95484994D03*
D14*
X155035527Y-130550933D03*
D15*
X156919653Y-128426181D03*
X158803779Y-126301430D03*
D16*
X159942430Y-131865734D03*
D15*
X163710682Y-127616231D03*
X164280008Y-130398383D03*
D14*
X164849333Y-133180535D03*
D17*
X155780340Y-125465006D03*
D18*
X167267220Y-131225103D03*
D14*
X151287952Y-108385194D03*
D15*
X152557952Y-105845193D03*
X153827952Y-103305194D03*
D16*
X156367952Y-108385194D03*
D15*
X158907952Y-103305194D03*
X160177952Y-105845194D03*
D14*
X161447952Y-108385194D03*
D19*
X150691052Y-103279794D03*
D20*
X163277348Y-105870597D03*
D11*
X182367650Y-117485194D03*
X182367650Y-114085194D03*
X106368152Y-79184994D03*
X106368152Y-75784994D03*
D14*
X94288152Y-72684994D03*
D15*
X95558152Y-70144993D03*
X96828152Y-67604994D03*
D16*
X99368152Y-72684994D03*
D15*
X101908152Y-67604994D03*
X103178152Y-70144994D03*
D14*
X104448152Y-72684994D03*
D19*
X93691252Y-67579594D03*
D20*
X106277548Y-70170397D03*
D14*
X170287650Y-92385194D03*
D15*
X171557650Y-89845193D03*
X172827650Y-87305194D03*
D16*
X175367650Y-92385194D03*
D15*
X177907650Y-87305194D03*
X179177650Y-89845194D03*
D14*
X180447650Y-92385194D03*
D19*
X169690750Y-87279794D03*
D20*
X182277046Y-89870597D03*
D11*
X144367752Y-93184594D03*
X144367752Y-89784594D03*
D14*
X170287650Y-73385394D03*
D15*
X171557650Y-70845393D03*
X172827650Y-68305394D03*
D16*
X175367650Y-73385394D03*
D15*
X177907650Y-68305394D03*
X179177650Y-70845394D03*
D14*
X180447650Y-73385394D03*
D19*
X169690750Y-68279994D03*
D20*
X182277046Y-70870797D03*
D12*
X125368352Y-73085394D03*
X125368352Y-76485394D03*
D11*
X174928152Y-125706794D03*
X174928152Y-122306794D03*
D21*
X194417152Y-129770794D03*
X193451226Y-129511975D03*
X192485301Y-129253156D03*
X191519375Y-128994337D03*
X190553449Y-128735518D03*
X189587523Y-128476699D03*
D22*
X198029964Y-127840071D03*
X187424098Y-124998238D03*
D14*
X94288152Y-111184794D03*
D15*
X95558152Y-108644793D03*
X96828152Y-106104794D03*
D16*
X99368152Y-111184794D03*
D15*
X101908152Y-106104794D03*
X103178152Y-108644794D03*
D14*
X104448152Y-111184794D03*
D19*
X93691252Y-106079394D03*
D20*
X106277548Y-108670197D03*
D11*
X178542152Y-125706794D03*
X178542152Y-122306794D03*
D13*
X110597152Y-118975794D03*
D14*
X113288352Y-108184594D03*
D15*
X114558352Y-105644593D03*
X115828352Y-103104594D03*
D16*
X118368352Y-108184594D03*
D15*
X120908352Y-103104594D03*
X122178352Y-105644594D03*
D14*
X123448352Y-108184594D03*
D19*
X112691452Y-103079194D03*
D20*
X125277748Y-105669997D03*
D14*
X196407926Y-141977921D03*
D15*
X198292052Y-139853169D03*
X200176178Y-137728418D03*
D16*
X201314829Y-143292722D03*
D15*
X205083081Y-139043219D03*
X205652407Y-141825371D03*
D14*
X206221732Y-144607523D03*
D17*
X197152739Y-136891994D03*
D18*
X208639619Y-142652091D03*
D23*
X130631530Y-127949309D03*
D14*
X113288352Y-70185394D03*
D15*
X114558352Y-67645393D03*
X115828352Y-65105394D03*
D16*
X118368352Y-70185394D03*
D15*
X120908352Y-65105394D03*
X122178352Y-67645394D03*
D14*
X123448352Y-70185394D03*
D19*
X112691452Y-65079994D03*
D20*
X125277748Y-67670797D03*
D13*
X167569179Y-62196750D03*
D14*
X94288152Y-92184394D03*
D15*
X95558152Y-89644393D03*
X96828152Y-87104394D03*
D16*
X99368152Y-92184394D03*
D15*
X101908152Y-87104394D03*
X103178152Y-89644394D03*
D14*
X104448152Y-92184394D03*
D19*
X93691252Y-87078994D03*
D20*
X106277548Y-89669797D03*
D14*
X132287752Y-67884634D03*
D15*
X133557752Y-65344633D03*
X134827752Y-62804634D03*
D16*
X137367752Y-67884634D03*
D15*
X139907752Y-62804634D03*
X141177752Y-65344634D03*
D14*
X142447752Y-67884634D03*
D19*
X131690852Y-62779234D03*
D20*
X144277148Y-65370037D03*
D24*
X212207559Y-131219999D03*
X205446078Y-129408265D03*
D25*
X204484326Y-126738371D03*
X203305313Y-131215784D03*
X208348030Y-127773647D03*
X207169016Y-132251060D03*
X211245807Y-128550104D03*
X210066794Y-133027517D03*
X203433362Y-126487824D03*
X202231240Y-130896929D03*
D11*
X106368152Y-117484794D03*
X106368152Y-114084794D03*
D13*
X107320552Y-61749594D03*
X119893552Y-136527194D03*
D14*
X170287650Y-111385194D03*
D15*
X171557650Y-108845193D03*
X172827650Y-106305194D03*
D16*
X175367650Y-111385194D03*
D15*
X177907650Y-106305194D03*
X179177650Y-108845194D03*
D14*
X180447650Y-111385194D03*
D19*
X169690750Y-106279794D03*
D20*
X182277046Y-108870597D03*
D14*
X132287752Y-105884794D03*
D15*
X133557752Y-103344793D03*
X134827752Y-100804794D03*
D16*
X137367752Y-105884794D03*
D15*
X139907752Y-100804794D03*
X141177752Y-103344794D03*
D14*
X142447752Y-105884794D03*
D19*
X131690852Y-100779394D03*
D20*
X144277148Y-103370197D03*
D26*
X196958872Y-149890118D03*
X201788501Y-151184213D03*
X199373686Y-150537166D03*
D27*
X206724014Y-144742109D03*
X195905644Y-141843335D03*
D26*
X205541377Y-137178289D03*
X200711748Y-135884194D03*
D14*
X132287752Y-86884594D03*
D15*
X133557752Y-84344593D03*
X134827752Y-81804594D03*
D16*
X137367752Y-86884594D03*
D15*
X139907752Y-81804594D03*
X141177752Y-84344594D03*
D14*
X142447752Y-86884594D03*
D19*
X131690852Y-81779194D03*
D20*
X144277148Y-84369997D03*
D11*
X106368152Y-98484394D03*
X106368152Y-95084394D03*
D12*
X163367952Y-73284834D03*
X163367952Y-76684834D03*
D14*
X113288352Y-89184994D03*
D15*
X114558352Y-86644993D03*
X115828352Y-84104994D03*
D16*
X118368352Y-89184994D03*
D15*
X120908352Y-84104994D03*
X122178352Y-86644994D03*
D14*
X123448352Y-89184994D03*
D19*
X112691452Y-84079594D03*
D20*
X125277748Y-86670397D03*
D28*
X111936850Y-123709032D03*
X109418580Y-124040568D03*
X106900310Y-124372105D03*
X104382040Y-124703641D03*
X101863770Y-125035178D03*
X99345500Y-125366714D03*
X96827230Y-125698251D03*
D29*
X112147676Y-125310414D03*
X109629406Y-125641950D03*
X107111136Y-125973487D03*
X104592866Y-126305023D03*
X102074596Y-126636560D03*
X99556326Y-126968096D03*
X97038056Y-127299633D03*
D30*
X113699266Y-137095917D03*
X111180997Y-137427453D03*
X108662727Y-137758990D03*
X106144457Y-138090526D03*
X103626187Y-138422063D03*
X101107917Y-138753600D03*
X98589647Y-139085136D03*
D28*
X113908135Y-138682427D03*
X111389865Y-139013963D03*
X108871595Y-139345500D03*
X106353325Y-139677037D03*
X103835055Y-140008573D03*
X101316785Y-140340110D03*
X98798515Y-140671646D03*
D31*
X97170670Y-128306941D03*
X99688940Y-127975404D03*
X102207210Y-127643868D03*
X104725480Y-127312331D03*
X107243750Y-126980795D03*
X109762020Y-126649258D03*
X112280290Y-126317722D03*
D32*
X113566652Y-136088609D03*
X111048382Y-136420145D03*
X108530112Y-136751682D03*
X106011842Y-137083219D03*
X103493572Y-137414755D03*
X100975302Y-137746292D03*
X98457032Y-138077828D03*
D33*
X195699771Y-127398807D03*
D34*
X194492364Y-127075283D03*
X193284956Y-126751759D03*
X192077549Y-126428236D03*
X190870142Y-126104712D03*
X189662735Y-125781188D03*
D35*
X98457850Y-136947982D03*
X100975302Y-136542400D03*
X103501100Y-136288400D03*
X102471500Y-119509194D03*
X92458756Y-70170397D03*
X130370052Y-65395434D03*
X168369950Y-70896194D03*
D24*
X100184869Y-134713600D03*
X194417152Y-129770794D03*
X100184869Y-129495931D03*
D35*
X111370652Y-67696194D03*
X104978752Y-106085394D03*
X111370652Y-105695394D03*
X106004656Y-136122144D03*
X111370652Y-86695794D03*
X104978752Y-67585594D03*
X104978752Y-87084994D03*
X112586308Y-113810094D03*
X149370252Y-86895594D03*
X149370252Y-67895634D03*
X108530800Y-135678800D03*
X149370252Y-105895994D03*
X142978352Y-100785394D03*
X142978352Y-81785194D03*
X142978352Y-62785234D03*
X180978250Y-68285994D03*
X113543552Y-113810094D03*
X111038863Y-135456737D03*
X180644624Y-105952168D03*
X180978250Y-87285794D03*
X153827423Y-127650213D03*
X179050152Y-114759694D03*
X180707752Y-116417294D03*
X195199822Y-139077201D03*
X172381048Y-133347074D03*
X113560000Y-135018400D03*
X113560000Y-127597432D03*
X123978952Y-65085994D03*
X161978552Y-65285434D03*
X166681675Y-128392222D03*
X193451226Y-129511975D03*
X107815283Y-128506217D03*
X208054074Y-139819210D03*
X112848800Y-131206494D03*
X185527152Y-124055794D03*
X112280290Y-127578394D03*
X190553449Y-128735518D03*
D24*
X97608800Y-129786000D03*
X189587523Y-128476699D03*
X102701972Y-129163228D03*
D35*
X123978952Y-103085194D03*
X130370052Y-103395594D03*
X168369950Y-108895994D03*
X92370452Y-108695594D03*
X161978552Y-103285794D03*
X92370452Y-89695194D03*
X123978952Y-84085594D03*
X130370052Y-84395394D03*
X161978552Y-84285394D03*
X168369950Y-89895994D03*
X185235300Y-134089083D03*
X110359600Y-129596900D03*
X192485300Y-129253156D03*
X110364837Y-128205963D03*
X191519374Y-128994337D03*
X184561952Y-123381294D03*
X105279600Y-128820800D03*
M02*
