G04 #@! TF.GenerationSoftware,KiCad,Pcbnew,7.0.5*
G04 #@! TF.CreationDate,2024-01-08T16:38:30+08:00*
G04 #@! TF.ProjectId,awkb_v2_mx,61776b62-5f76-4325-9f6d-782e6b696361,rev?*
G04 #@! TF.SameCoordinates,Original*
G04 #@! TF.FileFunction,Paste,Bot*
G04 #@! TF.FilePolarity,Positive*
%FSLAX46Y46*%
G04 Gerber Fmt 4.6, Leading zero omitted, Abs format (unit mm)*
G04 Created by KiCad (PCBNEW 7.0.5) date 2024-01-08 16:38:30*
%MOMM*%
%LPD*%
G01*
G04 APERTURE LIST*
G04 Aperture macros list*
%AMRotRect*
0 Rectangle, with rotation*
0 The origin of the aperture is its center*
0 $1 length*
0 $2 width*
0 $3 Rotation angle, in degrees counterclockwise*
0 Add horizontal line*
21,1,$1,$2,0,0,$3*%
%AMFreePoly0*
4,1,19,1.208016,1.234829,1.224089,1.224089,1.234829,1.208016,1.238600,1.189056,1.238600,-1.189056,1.234829,-1.208016,1.224089,-1.224089,1.208016,-1.234829,1.189056,-1.238600,0.000000,-1.238600,-0.743160,-1.238600,-1.238600,-0.743160,-1.238600,1.189056,-1.234829,1.208016,-1.224089,1.224089,-1.208016,1.234829,-1.189056,1.238600,1.189056,1.238600,1.208016,1.234829,1.208016,1.234829,
$1*%
G04 Aperture macros list end*
%ADD10RotRect,2.489200X2.489200X345.000000*%
%ADD11FreePoly0,345.000000*%
%ADD12R,2.489200X2.489200*%
%ADD13FreePoly0,0.000000*%
%ADD14RotRect,0.610000X2.000000X345.000000*%
%ADD15RotRect,2.680000X3.600000X345.000000*%
G04 APERTURE END LIST*
D10*
X172381048Y-133347074D03*
D11*
X185235300Y-134089083D03*
D12*
X149370252Y-67895634D03*
D13*
X161978552Y-65285434D03*
D12*
X149370252Y-86895594D03*
D13*
X161978552Y-84285394D03*
D10*
X153827423Y-127650213D03*
D11*
X166681675Y-128392222D03*
D12*
X149370252Y-105895994D03*
D13*
X161978552Y-103285794D03*
D12*
X92370452Y-70195794D03*
D13*
X104978752Y-67585594D03*
D12*
X168369950Y-89895994D03*
D13*
X180978250Y-87285794D03*
D12*
X168369950Y-70896194D03*
D13*
X180978250Y-68285994D03*
D12*
X92370452Y-108695594D03*
D13*
X104978752Y-106085394D03*
D12*
X111370652Y-105695394D03*
D13*
X123978952Y-103085194D03*
D10*
X195199822Y-139077201D03*
D11*
X208054074Y-139819210D03*
D12*
X111370652Y-67696194D03*
D13*
X123978952Y-65085994D03*
D12*
X92370452Y-89695194D03*
D13*
X104978752Y-87084994D03*
D12*
X130370052Y-65395434D03*
D13*
X142978352Y-62785234D03*
D12*
X168369950Y-108895994D03*
D13*
X180978250Y-106285794D03*
D12*
X130370052Y-103395594D03*
D13*
X142978352Y-100785394D03*
D12*
X130370052Y-84395394D03*
D13*
X142978352Y-81785194D03*
D12*
X111370652Y-86695794D03*
D13*
X123978952Y-84085594D03*
D14*
X189587523Y-128476699D03*
X190553449Y-128735518D03*
X191519375Y-128994337D03*
X192485301Y-129253156D03*
X193451226Y-129511975D03*
X194417152Y-129770794D03*
D15*
X187424098Y-124998238D03*
X198029964Y-127840071D03*
M02*
