  0
SECTION
  2
HEADER
  9
$ANGBASE
  50
0.0
  9
$ANGDIR
  70
1
  9
$MEASUREMENT
  70
1
  0
ENDSEC
  0
SECTION
  2
TABLES
  0
TABLE
  2
LTYPE
  70
4
  0
LTYPE
  5
40F
  2
CONTINUOUS
  70
0
  3
Solid line
  72
65
  73
0
  40
0.0
  0
LTYPE
  5
410
  2
DASHDOT
 70
0
  3
Dash Dot ____ _ ____ _
 72
65
 73
4
 40
2.0
 49
1.25
 49
-0.25
 49
0.25
 49
-0.25
  0
LTYPE
  5
411
  2
DASHED
 70
0
  3
Dashed __ __ __ __ __
 72
65
 73
2
 40
0.75
 49
0.5
 49
-0.25
  0
LTYPE
  5
43B
  2
DOTTED
 70
0
  3
Dotted .  .  .  .
 72
65
 73
2
 40
0.2
 49
0.0
 49
-0.2
  0
ENDTAB
  0
TABLE
  2
STYLE
  70
4
  0
STYLE
  2
KICAD
  70
0
  40
0
  41
1
  42
1
  50
0
  71
0
  3
isocp.shx
  0
STYLE
  2
KICADB
  70
0
  40
0
  41
1
  42
1
  50
0
  71
0
  3
isocp.shx
  0
STYLE
  2
KICADI
  70
0
  40
0
  41
1
  42
1
  50
15
  71
0
  3
isocp.shx
  0
STYLE
  2
KICADBI
  70
0
  40
0
  41
1
  42
1
  50
15
  71
0
  3
isocp.shx
  0
ENDTAB
  0
TABLE
  2
LAYER
  70
1
  0
LAYER
  2
BLACK
  70
0
  62
7
  6
CONTINUOUS
  0
ENDTAB
  0
ENDSEC
  0
SECTION
  2
ENTITIES
0
ARC
8
BLACK
10
215.5018000000000029
20
-41.2697000000000003
40
0.5000420011928998
50
-164.99521198
51
-75.00111426
0
LINE
8
BLACK
6
CONTINUOUS
10
212.0361389999999915
20
-30.2675599999999996
11
215.0188399999999831
21
-41.3991520000000008
0
LINE
8
BLACK
6
CONTINUOUS
10
167.7927359999999908
20
-39.8403909999999968
11
206.9696119999999837
21
-27.4879679999999986
0
ARC
8
BLACK
10
168.4542999999999893
20
-41.938600000000001
40
2.2000171770152162
50
107.50003089
51
168.39723183
0
ARC
8
BLACK
10
208.1723999999999819
20
-31.3028999999999975
40
4.0000506418754247
50
15.00075066
51
107.49924265
0
LINE
8
BLACK
6
CONTINUOUS
10
161.8855379999999968
20
-62.9941839999999971
11
166.299239
21
-41.4961209999999951
0
LINE
8
BLACK
6
CONTINUOUS
10
239.7487879999999905
20
-37.6723429999999979
11
221.2234550000000013
21
-42.6361909999999966
0
LINE
8
BLACK
6
CONTINUOUS
10
65.4992950000000036
20
-102.2281610000000001
11
52.5691369999999978
21
-98.7635349999999903
0
LINE
8
BLACK
6
CONTINUOUS
10
232.2700199999999882
20
-100.8577919999999892
11
232.296165000000002
21
-100.9553679999999929
0
LINE
8
BLACK
6
CONTINUOUS
10
161.8855379999999968
20
-62.9941839999999971
11
158.867007000000001
21
-77.6971070000000026
0
ARC
8
BLACK
10
50.5182000000000002
20
-98.6944000000000017
40
1.5999381799772765
50
-103.50221063
51
-13.49336536
0
ARC
8
BLACK
10
68.1162999999999954
20
-100.961199999999991
40
0.3999204381673935
50
74.98842686
51
165.01468721
0
LINE
8
BLACK
6
CONTINUOUS
10
143.1500340000000051
20
-78.0965530000000001
11
141.6227779999999825
21
-78.0965530000000001
0
ARC
8
BLACK
10
141.6227999999999838
20
-77.5964999999999918
40
0.5000530004839486
50
-168.39280941
51
-90.00252075
0
LINE
8
BLACK
6
CONTINUOUS
10
143.6500340000000051
20
-111.147553000000002
11
143.6500340000000051
21
-78.5965530000000001
0
ARC
8
BLACK
10
224.3278999999999996
20
-122.2642999999999915
40
2.9999879445686113
50
-60.00022475
51
30.00121355
0
ARC
8
BLACK
10
52.4655999999999949
20
-99.149799999999999
40
0.3999660865073437
50
74.99479570
51
166.51535468
0
ARC
8
BLACK
10
144.0499999999999829
20
-111.1474999999999937
40
0.4000530014448085
50
-179.99240766
51
-89.99513050
0
ARC
8
BLACK
10
221.6732999999999834
20
-105.6676999999999964
40
2.9993618629155101
50
-162.50122827
51
-149.99856472
0
LINE
8
BLACK
6
CONTINUOUS
10
156.3499659999999949
20
-78.5965530000000001
11
156.3499659999999949
21
-111.147553000000002
0
LINE
8
BLACK
6
CONTINUOUS
10
101.4052879999999988
20
-48.5952289999999962
11
101.3387699999999967
21
-48.843477
0
ARC
8
BLACK
10
269.8127999999999815
20
-92.3733999999999895
40
2.999997448119081
50
-76.50005553
51
13.49969564
0
ARC
8
BLACK
10
143.1500000000000057
20
-78.5965999999999951
40
0.5000470011558913
50
0.00538544
51
89.99610425
0
LINE
8
BLACK
6
CONTINUOUS
10
247.430862999999988
20
-98.7635349999999903
11
234.5007049999999822
21
-102.2281610000000001
0
ARC
8
BLACK
10
59.8370999999999995
20
-39.2177999999999969
40
1.5999925180025061
50
74.99972173
51
166.50113560
0
ARC
8
BLACK
10
249.481899999999996
20
-98.6940999999999917
40
1.6001115747725219
50
-166.49702442
51
-76.50377926
0
ARC
8
BLACK
10
234.03479999999999
20
-100.4895999999999958
40
1.7999060585891697
50
-165.00300845
51
-74.99818636
0
ARC
8
BLACK
10
240.1628999999999792
20
-39.2177999999999969
40
1.5999769021435903
50
13.49886440
51
105.00027827
0
LINE
8
BLACK
6
CONTINUOUS
10
29.4868629999999996
20
-95.2905259999999998
11
50.1446639999999988
21
-100.2500249999999937
0
ARC
8
BLACK
10
81.0311999999999983
20
-42.721899999999998
40
1.8000117039708381
50
75.00038403
51
164.99977955
0
LINE
8
BLACK
6
CONTINUOUS
10
226.9259339999999838
20
-120.7642510000000016
11
219.0758139999999798
21
-107.1674459999999982
0
LINE
8
BLACK
6
CONTINUOUS
10
247.9260249999999814
20
-99.0677179999999993
11
247.9233399999999961
21
-99.0565339999999992
0
LINE
8
BLACK
6
CONTINUOUS
10
241.7186919999999759
20
-38.8443199999999962
11
241.7337969999999814
21
-38.907236999999995
0
LINE
8
BLACK
6
CONTINUOUS
10
27.2700889999999987
20
-91.6730799999999988
11
40.1431569999999951
21
-38.0528929999999974
0
ARC
8
BLACK
10
218.9687999999999874
20
-42.721899999999998
40
1.800001439168869
50
15.00022045
51
104.99961597
0
ARC
8
BLACK
10
30.1871999999999971
20
-92.3733999999999895
40
3.000016002198155
50
-193.49969564
51
-103.49994447
0
LINE
8
BLACK
6
CONTINUOUS
10
78.7765449999999987
20
-42.6361909999999966
11
60.2512119999999953
21
-37.6723429999999979
0
ARC
8
BLACK
10
242.1226999999999805
20
-38.8138999999999967
40
0.3999725830728901
50
-166.50422771
51
-76.49244904
0
LINE
8
BLACK
6
CONTINUOUS
10
218.5029370000000029
20
-40.9832290000000015
11
215.6312109999999791
21
-41.7527059999999963
0
ARC
8
BLACK
10
155.950099999999992
20
-111.1477000000000004
40
0.3998660270203009
50
-90.01920114
51
0.02106325
0
LINE
8
BLACK
6
CONTINUOUS
10
185.6831579999999917
20
-148.0398789999999849
11
225.827857999999992
21
-124.8623269999999934
0
LINE
8
BLACK
6
CONTINUOUS
10
118.4149180000000001
20
-146.9418029999999931
11
124.9211579999999913
21
-135.6726639999999975
0
ARC
8
BLACK
10
156.849899999999991
20
-78.5964999999999918
40
0.4999340028093708
50
-270.00756384
51
-179.99392585
0
LINE
8
BLACK
6
CONTINUOUS
10
150.
20
-135.4226639999999975
11
125.3541709999999938
21
-135.4226639999999975
0
LINE
8
BLACK
6
CONTINUOUS
10
74.1721419999999938
20
-124.8623269999999934
11
114.3168419999999941
21
-148.0398789999999849
0
ARC
8
BLACK
10
65.9650999999999925
20
-100.4894999999999925
40
1.800064552633877
50
-104.99791503
51
-14.99924246
0
ARC
8
BLACK
10
43.0602599999999995
20
-38.753229999999995
40
2.9999936376895864
50
76.49987723
51
166.49995298
0
LINE
8
BLACK
6
CONTINUOUS
10
144.0500339999999824
20
-111.5475529999999935
11
150.
21
-111.5475529999999935
0
LINE
8
BLACK
6
CONTINUOUS
10
218.2057279999999935
20
-104.64437199999999
11
218.8127389999999934
21
-106.5695639999999997
0
ARC
8
BLACK
10
75.6721000000000004
20
-122.2641999999999882
40
3.000022984894116
50
-209.99955955
51
-119.99882034
0
LINE
8
BLACK
6
CONTINUOUS
10
259.8568429999999694
20
-38.0528929999999974
11
272.7299110000000155
21
-91.6730799999999988
0
LINE
8
BLACK
6
CONTINUOUS
10
256.2393969999999968
20
-35.8361189999999965
11
242.2161229999999819
21
-39.2028089999999949
0
ARC
8
BLACK
10
115.8168000000000006
20
-145.4418000000000006
40
3.0000376900854095
50
-119.99927869
51
-29.99965057
0
ARC
8
BLACK
10
184.1831999999999994
20
-145.4418000000000006
40
2.9999814152766011
50
-150.00034943
51
-60.00072131
0
ARC
8
BLACK
10
218.5871999999999957
20
-104.52409999999999
40
0.3999828005902253
50
-255.00224262
51
-162.50077319
0
LINE
8
BLACK
6
CONTINUOUS
10
220.7074759999999856
20
-42.2560159999999954
11
220.7335569999999905
21
-42.3533490000000015
0
LINE
8
BLACK
6
CONTINUOUS
10
68.2198789999999917
20
-100.5749500000000012
11
81.5163139999999942
21
-104.1377200000000016
0
ARC
8
BLACK
10
247.5343999999999767
20
-99.1499999999999915
40
0.4000938722275061
50
13.51250257
51
104.99778890
0
LINE
8
BLACK
6
CONTINUOUS
10
141.132992999999999
20
-77.6971070000000026
11
138.1144620000000032
21
-62.9941839999999971
0
LINE
8
BLACK
6
CONTINUOUS
10
99.8496529999999893
20
-45.9007900000000006
11
81.4970629999999971
21
-40.9832290000000015
0
ARC
8
BLACK
10
99.2802999999999969
20
-48.0257999999999967
40
2.1999614402777605
50
-15.00101083
51
75.00104937
0
ARC
8
BLACK
10
221.1199000000000012
20
-42.2498999999999967
40
0.3999304623381419
50
-165.00986541
51
-74.99326927
0
ARC
8
BLACK
10
78.8799999999999955
20
-42.2496999999999971
40
0.4001016214038628
50
-104.98548262
51
-15.01409658
0
LINE
8
BLACK
6
CONTINUOUS
10
101.604857999999993
20
-49.3284909999999996
11
135.3990079999999807
21
-59.9837439999999944
0
ARC
8
BLACK
10
134.1962000000000046
20
-63.7986000000000004
40
3.9999841731686887
50
11.60157602
51
72.50015678
0
ARC
8
BLACK
10
231.8836000000000013
20
-100.9613999999999976
40
0.4000643772457128
50
15.00927854
51
104.99032124
0
ARC
8
BLACK
10
256.9397000000000162
20
-38.7531999999999996
40
2.9999643085160193
50
13.49931155
51
103.49951369
0
LINE
8
BLACK
6
CONTINUOUS
10
81.1872609999999924
20
-106.5695639999999997
11
81.7942719999999923
21
-104.64437199999999
0
ARC
8
BLACK
10
81.4127999999999901
20
-104.52409999999999
40
0.400005815702722
50
-17.49922681
51
75.00224262
0
ARC
8
BLACK
10
158.3772999999999911
20
-77.5966999999999985
40
0.4998945003678276
50
-90.00894077
51
-11.58704230
0
ARC
8
BLACK
10
125.3541999999999916
20
-135.9226999999999919
40
0.5000433731787673
50
90.00332292
51
149.99810621
0
ARC
8
BLACK
10
57.8772999999999982
20
-38.8138999999999967
40
0.3999466701674112
50
-103.50755096
51
-13.49577229
0
LINE
8
BLACK
6
CONTINUOUS
10
67.703834999999998
20
-100.9553679999999929
11
67.7299799999999976
21
-100.8577919999999892
0
LINE
8
BLACK
6
CONTINUOUS
10
57.7838769999999968
20
-39.2028089999999949
11
43.7606029999999961
21
-35.8361189999999965
0
LINE
8
BLACK
6
CONTINUOUS
10
175.0788419999999803
20
-135.6726639999999975
11
181.5850819999999999
21
-146.9418029999999931
0
LINE
8
BLACK
6
CONTINUOUS
10
58.2662029999999973
20
-38.907236999999995
11
58.2813079999999957
21
-38.8443199999999962
0
LINE
8
BLACK
6
CONTINUOUS
10
158.3772219999999891
20
-78.0965530000000001
11
156.8499659999999949
21
-78.0965530000000001
0
ARC
8
BLACK
10
101.7250999999999976
20
-48.9469999999999956
40
0.3999919019742774
50
-195.00085632
51
-107.49431005
0
LINE
8
BLACK
6
CONTINUOUS
10
218.4836859999999774
20
-104.1377200000000016
11
231.7801209999999799
21
-100.5749500000000012
0
LINE
8
BLACK
6
CONTINUOUS
10
249.8553359999999941
20
-100.2500249999999937
11
270.513136999999972
21
-95.2905259999999998
0
LINE
8
BLACK
6
CONTINUOUS
10
80.9241859999999917
20
-107.1674459999999982
11
73.074066000000002
21
-120.7642510000000016
0
LINE
8
BLACK
6
CONTINUOUS
10
150.
20
-111.5475529999999935
11
155.9499659999999892
21
-111.5475529999999935
0
ARC
8
BLACK
10
78.3252999999999986
20
-105.6670999999999907
40
3.000876877983667
50
-29.99799047
51
-17.50166001
0
ARC
8
BLACK
10
174.6457999999999799
20
-135.9226999999999919
40
0.5000360008409395
50
30.00189379
51
89.99667708
0
LINE
8
BLACK
6
CONTINUOUS
10
174.645828999999992
20
-135.4226639999999975
11
150.
21
-135.4226639999999975
0
LINE
8
BLACK
6
CONTINUOUS
10
52.0766599999999968
20
-99.0565339999999992
11
52.0739749999999972
21
-99.0677179999999993
0
LINE
8
BLACK
6
CONTINUOUS
10
79.2664429999999953
20
-42.3533490000000015
11
79.2925240000000002
21
-42.2560159999999954
0
CIRCLE
8
BLACK
10
121.0478279999999955
20
-123.1706639999999879
40
1.5999999999999999
0
CIRCLE
8
BLACK
10
48.7086279999999974
20
-96.9070639999999912
40
1.5999999999999999
0
CIRCLE
8
BLACK
10
178.9521719999999902
20
-123.1706639999999879
40
1.5999999999999999
0
CIRCLE
8
BLACK
10
171.9235999999999933
20
-61.1995999999999967
40
1.5999999999999999
0
CIRCLE
8
BLACK
10
251.2913719999999955
20
-96.9070639999999912
40
1.5999999999999999
0
CIRCLE
8
BLACK
10
60.8498279999999951
20
-40.9254639999999981
40
1.5999999999999999
0
CIRCLE
8
BLACK
10
239.1501719999999978
20
-40.9254639999999981
40
1.5999999999999999
0
CIRCLE
8
BLACK
10
128.0759999999999934
20
-61.2000829999999993
40
1.5999999999999999
0
LINE
8
BLACK
6
CONTINUOUS
10
109.4011119999999977
20
-76.4860709999999955
11
105.1912310000000019
21
-89.8381079999999912
0
LINE
8
BLACK
6
CONTINUOUS
10
105.1912310000000019
20
-89.8381079999999912
11
91.839193999999992
21
-85.6282269999999954
0
LINE
8
BLACK
6
CONTINUOUS
10
91.839193999999992
20
-85.6282269999999954
11
96.049075000000002
21
-72.2761899999999997
0
LINE
8
BLACK
6
CONTINUOUS
10
96.049075000000002
20
-72.2761899999999997
11
109.4011119999999977
21
-76.4860709999999955
0
LINE
8
BLACK
6
CONTINUOUS
10
121.5607589999999902
20
-103.3030809999999917
11
117.3508779999999945
21
-116.6551180000000016
0
LINE
8
BLACK
6
CONTINUOUS
10
117.3508779999999945
20
-116.6551180000000016
11
103.9988409999999988
21
-112.4452369999999917
0
LINE
8
BLACK
6
CONTINUOUS
10
103.9988409999999988
20
-112.4452369999999917
11
108.2087219999999945
21
-99.093199999999996
0
LINE
8
BLACK
6
CONTINUOUS
10
108.2087219999999945
20
-99.093199999999996
11
121.5607589999999902
21
-103.3030809999999917
0
LINE
8
BLACK
6
CONTINUOUS
10
263.1411939999999845
20
-72.8800399999999939
11
249.5280149999999821
21
-76.1482749999999982
0
LINE
8
BLACK
6
CONTINUOUS
10
249.5280149999999821
20
-76.1482749999999982
11
246.2597799999999779
21
-62.5350959999999958
0
LINE
8
BLACK
6
CONTINUOUS
10
246.2597799999999779
20
-62.5350959999999958
11
259.8729589999999803
21
-59.2668609999999987
0
LINE
8
BLACK
6
CONTINUOUS
10
259.8729589999999803
20
-59.2668609999999987
11
263.1411939999999845
21
-72.8800399999999939
0
LINE
8
BLACK
6
CONTINUOUS
10
104.2952839999999952
20
-94.8022050000000007
11
100.0854029999999995
21
-108.1542419999999964
0
LINE
8
BLACK
6
CONTINUOUS
10
100.0854029999999995
20
-108.1542419999999964
11
86.7333659999999895
21
-103.9443610000000007
0
LINE
8
BLACK
6
CONTINUOUS
10
86.7333659999999895
20
-103.9443610000000007
11
90.9432469999999995
21
-90.5923239999999907
0
LINE
8
BLACK
6
CONTINUOUS
10
90.9432469999999995
20
-90.5923239999999907
11
104.2952839999999952
21
-94.8022050000000007
0
LINE
8
BLACK
6
CONTINUOUS
10
213.2666339999999821
20
-103.9443610000000007
11
199.9145969999999863
21
-108.1542419999999964
0
LINE
8
BLACK
6
CONTINUOUS
10
199.9145969999999863
20
-108.1542419999999964
11
195.7047159999999906
21
-94.8022050000000007
0
LINE
8
BLACK
6
CONTINUOUS
10
195.7047159999999906
20
-94.8022050000000007
11
209.0567529999999863
21
-90.5923239999999907
0
LINE
8
BLACK
6
CONTINUOUS
10
209.0567529999999863
20
-90.5923239999999907
11
213.2666339999999821
21
-103.9443610000000007
0
LINE
8
BLACK
6
CONTINUOUS
10
86.6283499999999975
20
-86.3568470000000019
11
83.0048829999999924
21
-99.879807999999997
0
LINE
8
BLACK
6
CONTINUOUS
10
83.0048829999999924
20
-99.879807999999997
11
69.4819219999999973
21
-96.2563409999999919
0
LINE
8
BLACK
6
CONTINUOUS
10
69.4819219999999973
20
-96.2563409999999919
11
73.1053890000000024
21
-82.7333799999999968
0
LINE
8
BLACK
6
CONTINUOUS
10
73.1053890000000024
20
-82.7333799999999968
11
86.6283499999999975
21
-86.3568470000000019
0
LINE
8
BLACK
6
CONTINUOUS
10
114.858311999999998
20
-58.2256709999999984
11
110.648430999999988
21
-71.5777080000000012
0
LINE
8
BLACK
6
CONTINUOUS
10
110.648430999999988
20
-71.5777080000000012
11
97.2963939999999923
21
-67.3678269999999912
0
LINE
8
BLACK
6
CONTINUOUS
10
97.2963939999999923
20
-67.3678269999999912
11
101.5062750000000023
21
-54.0157899999999955
0
LINE
8
BLACK
6
CONTINUOUS
10
101.5062750000000023
20
-54.0157899999999955
11
114.858311999999998
21
-58.2256709999999984
0
LINE
8
BLACK
6
CONTINUOUS
10
185.485558999999995
20
-75.9428309999999982
11
172.1335219999999993
21
-80.152711999999994
0
LINE
8
BLACK
6
CONTINUOUS
10
172.1335219999999993
20
-80.152711999999994
11
167.9236410000000035
21
-66.8006749999999982
0
LINE
8
BLACK
6
CONTINUOUS
10
167.9236410000000035
20
-66.8006749999999982
11
181.2756779999999992
21
-62.5907939999999954
0
LINE
8
BLACK
6
CONTINUOUS
10
181.2756779999999992
20
-62.5907939999999954
11
185.485558999999995
21
-75.9428309999999982
0
LINE
8
BLACK
6
CONTINUOUS
10
77.5160229999999899
20
-46.956468000000001
11
73.892555999999999
21
-60.4794289999999961
0
LINE
8
BLACK
6
CONTINUOUS
10
73.892555999999999
20
-60.4794289999999961
11
60.3695949999999968
21
-56.8559619999999981
0
LINE
8
BLACK
6
CONTINUOUS
10
60.3695949999999968
20
-56.8559619999999981
11
63.9930619999999948
21
-43.3330009999999959
0
LINE
8
BLACK
6
CONTINUOUS
10
63.9930619999999948
20
-43.3330009999999959
11
77.5160229999999899
21
-46.956468000000001
0
LINE
8
BLACK
6
CONTINUOUS
10
202.7036059999999793
20
-67.3678269999999912
11
189.3515689999999836
21
-71.5777080000000012
0
LINE
8
BLACK
6
CONTINUOUS
10
189.3515689999999836
20
-71.5777080000000012
11
185.1416879999999878
21
-58.2256709999999984
0
LINE
8
BLACK
6
CONTINUOUS
10
185.1416879999999878
20
-58.2256709999999984
11
198.4937249999999835
21
-54.0157899999999955
0
LINE
8
BLACK
6
CONTINUOUS
10
198.4937249999999835
20
-54.0157899999999955
11
202.7036059999999793
21
-67.3678269999999912
0
LINE
8
BLACK
6
CONTINUOUS
10
239.6304049999999961
20
-56.8559619999999981
11
226.1074439999999868
21
-60.4794289999999961
0
LINE
8
BLACK
6
CONTINUOUS
10
226.1074439999999868
20
-60.4794289999999961
11
222.4839769999999817
21
-46.956468000000001
0
LINE
8
BLACK
6
CONTINUOUS
10
222.4839769999999817
20
-46.956468000000001
11
236.006937999999991
21
-43.3330009999999959
0
LINE
8
BLACK
6
CONTINUOUS
10
236.006937999999991
20
-43.3330009999999959
11
239.6304049999999961
21
-56.8559619999999981
0
LINE
8
BLACK
6
CONTINUOUS
10
196.8977319999999906
20
-136.4640909999999963
11
184.7733759999999847
21
-143.4640909999999963
0
LINE
8
BLACK
6
CONTINUOUS
10
184.7733759999999847
20
-143.4640909999999963
11
177.7733759999999847
21
-131.3397349999999904
0
LINE
8
BLACK
6
CONTINUOUS
10
177.7733759999999847
20
-131.3397349999999904
11
189.8977319999999906
21
-124.3397349999999904
0
LINE
8
BLACK
6
CONTINUOUS
10
189.8977319999999906
20
-124.3397349999999904
11
196.8977319999999906
21
-136.4640909999999963
0
LINE
8
BLACK
6
CONTINUOUS
10
225.6004649999999856
20
-77.9035559999999947
11
212.0775039999999763
21
-81.5270229999999998
0
LINE
8
BLACK
6
CONTINUOUS
10
212.0775039999999763
20
-81.5270229999999998
11
208.4540369999999996
21
-68.0040619999999905
0
LINE
8
BLACK
6
CONTINUOUS
10
208.4540369999999996
20
-68.0040619999999905
11
221.9769979999999805
21
-64.3805949999999996
0
LINE
8
BLACK
6
CONTINUOUS
10
221.9769979999999805
20
-64.3805949999999996
11
225.6004649999999856
21
-77.9035559999999947
0
LINE
8
BLACK
6
CONTINUOUS
10
196.0011590000000012
20
-112.4452369999999917
11
182.6491220000000055
21
-116.6551180000000016
0
LINE
8
BLACK
6
CONTINUOUS
10
182.6491220000000055
20
-116.6551180000000016
11
178.4392409999999813
21
-103.3030809999999917
0
LINE
8
BLACK
6
CONTINUOUS
10
178.4392409999999813
20
-103.3030809999999917
11
191.7912780000000055
21
-99.093199999999996
0
LINE
8
BLACK
6
CONTINUOUS
10
191.7912780000000055
20
-99.093199999999996
11
196.0011590000000012
21
-112.4452369999999917
0
LINE
8
BLACK
6
CONTINUOUS
10
249.4653199999999913
20
-93.5603709999999893
11
235.942358999999982
21
-97.1838379999999944
0
LINE
8
BLACK
6
CONTINUOUS
10
235.942358999999982
20
-97.1838379999999944
11
232.3188919999999769
21
-83.6608769999999993
0
LINE
8
BLACK
6
CONTINUOUS
10
232.3188919999999769
20
-83.6608769999999993
11
245.8418529999999862
21
-80.0374099999999942
0
LINE
8
BLACK
6
CONTINUOUS
10
245.8418529999999862
20
-80.0374099999999942
11
249.4653199999999913
21
-93.5603709999999893
0
LINE
8
BLACK
6
CONTINUOUS
10
258.2523539999999684
20
-54.3785319999999999
11
244.6391749999999945
21
-57.646766999999997
0
LINE
8
BLACK
6
CONTINUOUS
10
244.6391749999999945
20
-57.646766999999997
11
241.3709399999999903
21
-44.0335879999999946
0
LINE
8
BLACK
6
CONTINUOUS
10
241.3709399999999903
20
-44.0335879999999946
11
254.9841189999999926
21
-40.7653529999999975
0
LINE
8
BLACK
6
CONTINUOUS
10
254.9841189999999926
20
-40.7653529999999975
11
258.2523539999999684
21
-54.3785319999999999
0
LINE
8
BLACK
6
CONTINUOUS
10
58.6290599999999955
20
-44.0335879999999946
11
55.3608249999999984
21
-57.646766999999997
0
LINE
8
BLACK
6
CONTINUOUS
10
55.3608249999999984
20
-57.646766999999997
11
41.747645999999996
21
-54.3785319999999999
0
LINE
8
BLACK
6
CONTINUOUS
10
41.747645999999996
20
-54.3785319999999999
11
45.0158810000000003
21
-40.7653529999999975
0
LINE
8
BLACK
6
CONTINUOUS
10
45.0158810000000003
20
-40.7653529999999975
11
58.6290599999999955
21
-44.0335879999999946
0
LINE
8
BLACK
6
CONTINUOUS
10
96.463515000000001
20
-49.6515109999999993
11
92.8400479999999959
21
-63.1744719999999944
0
LINE
8
BLACK
6
CONTINUOUS
10
92.8400479999999959
20
-63.1744719999999944
11
79.3170870000000008
21
-59.5510049999999964
0
LINE
8
BLACK
6
CONTINUOUS
10
79.3170870000000008
20
-59.5510049999999964
11
82.9405539999999917
21
-46.0280440000000013
0
LINE
8
BLACK
6
CONTINUOUS
10
82.9405539999999917
20
-46.0280440000000013
11
96.463515000000001
21
-49.6515109999999993
0
LINE
8
BLACK
6
CONTINUOUS
10
48.8773359999999997
20
-80.9200859999999977
11
45.6091009999999955
21
-94.5332650000000001
0
LINE
8
BLACK
6
CONTINUOUS
10
45.6091009999999955
20
-94.5332650000000001
11
31.9959220000000002
21
-91.2650299999999959
0
LINE
8
BLACK
6
CONTINUOUS
10
31.9959220000000002
20
-91.2650299999999959
11
35.2641569999999973
21
-77.6518509999999935
0
LINE
8
BLACK
6
CONTINUOUS
10
35.2641569999999973
20
-77.6518509999999935
11
48.8773359999999997
21
-80.9200859999999977
0
LINE
8
BLACK
6
CONTINUOUS
10
230.5180780000000027
20
-96.2563409999999919
11
216.9951169999999934
21
-99.879807999999997
0
LINE
8
BLACK
6
CONTINUOUS
10
216.9951169999999934
20
-99.879807999999997
11
213.3716499999999883
21
-86.3568470000000019
0
LINE
8
BLACK
6
CONTINUOUS
10
213.3716499999999883
20
-86.3568470000000019
11
226.8946109999999976
21
-82.7333799999999968
0
LINE
8
BLACK
6
CONTINUOUS
10
226.8946109999999976
20
-82.7333799999999968
11
230.5180780000000027
21
-96.2563409999999919
0
LINE
8
BLACK
6
CONTINUOUS
10
220.682912999999985
20
-59.5510049999999964
11
207.1599520000000041
21
-63.1744719999999944
0
LINE
8
BLACK
6
CONTINUOUS
10
207.1599520000000041
20
-63.1744719999999944
11
203.536484999999999
21
-49.6515109999999993
0
LINE
8
BLACK
6
CONTINUOUS
10
203.536484999999999
20
-49.6515109999999993
11
217.0594459999999799
21
-46.0280440000000013
0
LINE
8
BLACK
6
CONTINUOUS
10
217.0594459999999799
20
-46.0280440000000013
11
220.682912999999985
21
-59.5510049999999964
0
LINE
8
BLACK
6
CONTINUOUS
10
244.5478619999999808
20
-75.2081680000000006
11
231.0249009999999998
21
-78.8316349999999915
0
LINE
8
BLACK
6
CONTINUOUS
10
231.0249009999999998
20
-78.8316349999999915
11
227.4014339999999947
21
-65.3086739999999963
0
LINE
8
BLACK
6
CONTINUOUS
10
227.4014339999999947
20
-65.3086739999999963
11
240.9243949999999757
21
-61.6852069999999983
0
LINE
8
BLACK
6
CONTINUOUS
10
240.9243949999999757
20
-61.6852069999999983
11
244.5478619999999808
21
-75.2081680000000006
0
LINE
8
BLACK
6
CONTINUOUS
10
213.2193479999999965
20
-125.6690909999999946
11
201.0949919999999906
21
-132.6690909999999803
0
LINE
8
BLACK
6
CONTINUOUS
10
201.0949919999999906
20
-132.6690909999999803
11
194.0949919999999906
21
-120.5447349999999886
0
LINE
8
BLACK
6
CONTINUOUS
10
194.0949919999999906
20
-120.5447349999999886
11
206.2193479999999965
21
-113.5447349999999886
0
LINE
8
BLACK
6
CONTINUOUS
10
206.2193479999999965
20
-113.5447349999999886
11
213.2193479999999965
21
-125.6690909999999946
0
LINE
8
BLACK
6
CONTINUOUS
10
208.1608059999999796
20
-85.6282269999999954
11
194.8087689999999839
21
-89.8381079999999912
0
LINE
8
BLACK
6
CONTINUOUS
10
194.8087689999999839
20
-89.8381079999999912
11
190.5988879999999881
21
-76.4860709999999955
0
LINE
8
BLACK
6
CONTINUOUS
10
190.5988879999999881
20
-76.4860709999999955
11
203.9509249999999838
21
-72.2761899999999997
0
LINE
8
BLACK
6
CONTINUOUS
10
203.9509249999999838
20
-72.2761899999999997
11
208.1608059999999796
21
-85.6282269999999954
0
LINE
8
BLACK
6
CONTINUOUS
10
126.8631809999999973
20
-85.0609219999999908
11
122.6533000000000015
21
-98.4129590000000007
0
LINE
8
BLACK
6
CONTINUOUS
10
122.6533000000000015
20
-98.4129590000000007
11
109.3012629999999916
21
-94.2030779999999908
0
LINE
8
BLACK
6
CONTINUOUS
10
109.3012629999999916
20
-94.2030779999999908
11
113.5111440000000016
21
-80.8510409999999951
0
LINE
8
BLACK
6
CONTINUOUS
10
113.5111440000000016
20
-80.8510409999999951
11
126.8631809999999973
21
-85.0609219999999908
0
LINE
8
BLACK
6
CONTINUOUS
10
53.7402200000000008
20
-62.5350959999999958
11
50.4719849999999965
21
-76.1482749999999982
0
LINE
8
BLACK
6
CONTINUOUS
10
50.4719849999999965
20
-76.1482749999999982
11
36.8588060000000013
21
-72.8800399999999939
0
LINE
8
BLACK
6
CONTINUOUS
10
36.8588060000000013
20
-72.8800399999999939
11
40.1270409999999984
21
-59.2668609999999987
0
LINE
8
BLACK
6
CONTINUOUS
10
40.1270409999999984
20
-59.2668609999999987
11
53.7402200000000008
21
-62.5350959999999958
0
LINE
8
BLACK
6
CONTINUOUS
10
91.5459630000000004
20
-68.0040619999999905
11
87.9224959999999953
21
-81.5270229999999998
0
LINE
8
BLACK
6
CONTINUOUS
10
87.9224959999999953
20
-81.5270229999999998
11
74.3995350000000002
21
-77.9035559999999947
0
LINE
8
BLACK
6
CONTINUOUS
10
74.3995350000000002
20
-77.9035559999999947
11
78.0230019999999911
21
-64.3805949999999996
0
LINE
8
BLACK
6
CONTINUOUS
10
78.0230019999999911
20
-64.3805949999999996
11
91.5459630000000004
21
-68.0040619999999905
0
LINE
8
BLACK
6
CONTINUOUS
10
122.226624000000001
20
-131.3397349999999904
11
115.226624000000001
21
-143.4640909999999963
0
LINE
8
BLACK
6
CONTINUOUS
10
115.226624000000001
20
-143.4640909999999963
11
103.1022679999999951
21
-136.4640909999999963
0
LINE
8
BLACK
6
CONTINUOUS
10
103.1022679999999951
20
-136.4640909999999963
11
110.1022679999999951
21
-124.3397349999999904
0
LINE
8
BLACK
6
CONTINUOUS
10
110.1022679999999951
20
-124.3397349999999904
11
122.226624000000001
21
-131.3397349999999904
0
LINE
8
BLACK
6
CONTINUOUS
10
67.6811079999999947
20
-83.6608769999999993
11
64.0576410000000038
21
-97.1838379999999944
0
LINE
8
BLACK
6
CONTINUOUS
10
64.0576410000000038
20
-97.1838379999999944
11
50.5346799999999945
21
-93.5603709999999893
0
LINE
8
BLACK
6
CONTINUOUS
10
50.5346799999999945
20
-93.5603709999999893
11
54.1581469999999996
21
-80.0374099999999942
0
LINE
8
BLACK
6
CONTINUOUS
10
54.1581469999999996
20
-80.0374099999999942
11
67.6811079999999947
21
-83.6608769999999993
0
LINE
8
BLACK
6
CONTINUOUS
10
72.598565999999991
20
-65.3086739999999963
11
68.9750990000000002
21
-78.8316349999999915
0
LINE
8
BLACK
6
CONTINUOUS
10
68.9750990000000002
20
-78.8316349999999915
11
55.4521379999999979
21
-75.2081680000000006
0
LINE
8
BLACK
6
CONTINUOUS
10
55.4521379999999979
20
-75.2081680000000006
11
59.0756049999999959
21
-61.6852069999999983
0
LINE
8
BLACK
6
CONTINUOUS
10
59.0756049999999959
20
-61.6852069999999983
11
72.598565999999991
21
-65.3086739999999963
0
LINE
8
BLACK
6
CONTINUOUS
10
105.9050079999999951
20
-120.5447349999999886
11
98.9050079999999951
21
-132.6690909999999803
0
LINE
8
BLACK
6
CONTINUOUS
10
98.9050079999999951
20
-132.6690909999999803
11
86.7806519999999892
21
-125.6690909999999946
0
LINE
8
BLACK
6
CONTINUOUS
10
86.7806519999999892
20
-125.6690909999999946
11
93.7806519999999892
21
-113.5447349999999886
0
LINE
8
BLACK
6
CONTINUOUS
10
93.7806519999999892
20
-113.5447349999999886
11
105.9050079999999951
21
-120.5447349999999886
0
LINE
8
BLACK
6
CONTINUOUS
10
268.0040779999999927
20
-91.2650299999999959
11
254.3908989999999903
21
-94.5332650000000001
0
LINE
8
BLACK
6
CONTINUOUS
10
254.3908989999999903
20
-94.5332650000000001
11
251.1226639999999861
21
-80.9200859999999977
0
LINE
8
BLACK
6
CONTINUOUS
10
251.1226639999999861
20
-80.9200859999999977
11
264.7358429999999885
21
-77.6518509999999935
0
LINE
8
BLACK
6
CONTINUOUS
10
264.7358429999999885
20
-77.6518509999999935
11
268.0040779999999927
21
-91.2650299999999959
0
LINE
8
BLACK
6
CONTINUOUS
10
190.6987369999999942
20
-94.2030779999999908
11
177.3466999999999985
21
-98.4129590000000007
0
LINE
8
BLACK
6
CONTINUOUS
10
177.3466999999999985
20
-98.4129590000000007
11
173.1368190000000027
21
-85.0609219999999908
0
LINE
8
BLACK
6
CONTINUOUS
10
173.1368190000000027
20
-85.0609219999999908
11
186.4888559999999984
21
-80.8510409999999951
0
LINE
8
BLACK
6
CONTINUOUS
10
186.4888559999999984
20
-80.8510409999999951
11
190.6987369999999942
21
-94.2030779999999908
0
LINE
8
BLACK
6
CONTINUOUS
10
132.0763589999999965
20
-66.8006749999999982
11
127.8664780000000007
21
-80.152711999999994
0
LINE
8
BLACK
6
CONTINUOUS
10
127.8664780000000007
20
-80.152711999999994
11
114.5144409999999908
21
-75.9428309999999982
0
LINE
8
BLACK
6
CONTINUOUS
10
114.5144409999999908
20
-75.9428309999999982
11
118.7243220000000008
21
-62.5907939999999954
0
LINE
8
BLACK
6
CONTINUOUS
10
118.7243220000000008
20
-62.5907939999999954
11
132.0763589999999965
21
-66.8006749999999982
  0
ENDSEC
  0
EOF
