M48
; DRILL file {KiCad 7.0.5} date Wed Jun 14 10:23:49 2023
; FORMAT={-:-/ absolute / inch / decimal}
; #@! TF.CreationDate,2023-06-14T10:23:49+08:00
; #@! TF.GenerationSoftware,Kicad,Pcbnew,7.0.5
; #@! TF.FileFunction,Plated,1,2,PTH
FMAT,2
INCH
; #@! TA.AperFunction,Plated,PTH,ViaDrill
T1C0.0118
; #@! TA.AperFunction,Plated,PTH,ViaDrill
T2C0.0157
; #@! TA.AperFunction,Plated,PTH,ComponentDrill
T3C0.0354
; #@! TA.AperFunction,Plated,PTH,ComponentDrill
T4C0.0433
%
G90
G05
T1
X4.2071Y-3.4627
X4.2667Y-4.1291
X4.2866Y-3.874
X4.3037Y-2.7563
X4.3441Y-3.1737
X4.3461Y-4.541
X4.42Y-3.8624
X4.478Y-3.1737
X4.4795Y-4.5294
X4.4817Y-5.2501
X4.5813Y-5.2376
X4.6304Y-3.5126
X4.6809Y-5.2281
X4.69Y-4.179
X4.721Y-2.843
X4.7808Y-5.2201
X4.8144Y-4.9321
X4.8802Y-5.2141
X4.9128Y-4.9241
X4.9808Y-5.2061
X5.0123Y-2.6727
X5.0123Y-3.342
X5.0123Y-4.0113
X5.0128Y-4.9141
X5.0128Y-4.9996
X5.0547Y-3.0901
X5.0547Y-3.7594
X5.0547Y-4.4286
X5.0788Y-5.1961
X5.1128Y-4.9081
X5.1886Y-3.0901
X5.1886Y-3.7594
X5.1886Y-4.4286
X5.4297Y-2.7594
X5.4297Y-3.4286
X5.4297Y-4.0979
X5.721Y-2.503
X5.721Y-3.1723
X5.721Y-3.8416
X5.7643Y-2.9204
X5.7643Y-3.5897
X5.7643Y-4.259
X5.8982Y-2.9204
X5.8982Y-3.5897
X5.8982Y-4.259
X6.1383Y-2.5896
X6.1383Y-3.2589
X6.1383Y-3.9282
X6.2289Y-4.4654
X6.4296Y-2.6334
X6.4296Y-3.3026
X6.4296Y-3.972
X6.476Y-3.0507
X6.476Y-3.72
X6.476Y-4.3893
X6.6098Y-3.0507
X6.6098Y-3.72
X6.6098Y-4.3893
X6.7298Y-5.3598
X6.847Y-2.72
X6.847Y-3.3893
X6.847Y-4.0586
X6.8613Y-4.4919
X7.0231Y-5.0738
X7.1257Y-5.5175
X7.1383Y-2.7042
X7.1383Y-3.3735
X7.1383Y-4.0428
X7.1549Y-5.0971
X7.1816Y-3.1215
X7.1816Y-3.7891
X7.1816Y-4.4601
X7.3155Y-3.1215
X7.3155Y-3.7891
X7.3155Y-4.4601
X7.5556Y-2.7908
X7.5556Y-3.4601
X7.5556Y-4.1294
X7.62Y-5.6496
X7.8026Y-5.2712
X7.8271Y-5.725
X7.9284Y-5.317
T2
X4.2165Y-3.7631
X4.3025Y-4.2551
X4.4885Y-3.3171
X4.5148Y-4.9601
X4.6065Y-3.9051
X4.6148Y-4.9521
X4.6148Y-5.1871
X4.6305Y-4.5431
X4.7128Y-4.9381
X4.9125Y-3.9011
T4
X4.4727Y-4.8107
X4.5246Y-5.403
X4.5724Y-4.802
X4.6242Y-5.3943
X4.672Y-4.7933
X4.7238Y-5.3856
X4.7716Y-4.7846
X4.8234Y-5.3769
X4.8712Y-4.7758
X4.923Y-5.3682
X4.9708Y-4.7671
X5.0227Y-5.3595
X5.0704Y-4.7584
X5.1223Y-5.3507
T3
G00X7.601Y-4.8816
M15
G01X7.5969Y-4.8968
M16
G05
G00X7.6067Y-4.8554
M15
G01X7.6108Y-4.8402
M16
G05
G00X7.6475Y-4.7033
M15
G01X7.6516Y-4.6881
M16
G05
G00X7.6781Y-4.5892
M15
G01X7.6821Y-4.574
M16
G05
G00X7.7705Y-4.9441
M15
G01X7.7745Y-4.9289
M16
G05
G00X7.7871Y-4.8866
M15
G01X7.783Y-4.9018
M16
G05
G00X7.8279Y-4.7345
M15
G01X7.8238Y-4.7497
M16
G05
G00X7.8584Y-4.6204
M15
G01X7.8543Y-4.6356
M16
G05
T0
M30
