G04 #@! TF.GenerationSoftware,KiCad,Pcbnew,7.0.5*
G04 #@! TF.CreationDate,2023-06-14T10:23:52+08:00*
G04 #@! TF.ProjectId,AWKB-C,41574b42-2d43-42e6-9b69-6361645f7063,rev?*
G04 #@! TF.SameCoordinates,Original*
G04 #@! TF.FileFunction,Soldermask,Bot*
G04 #@! TF.FilePolarity,Negative*
%FSLAX46Y46*%
G04 Gerber Fmt 4.6, Leading zero omitted, Abs format (unit mm)*
G04 Created by KiCad (PCBNEW 7.0.5) date 2023-06-14 10:23:52*
%MOMM*%
%LPD*%
G01*
G04 APERTURE LIST*
G04 Aperture macros list*
%AMRoundRect*
0 Rectangle with rounded corners*
0 $1 Rounding radius*
0 $2 $3 $4 $5 $6 $7 $8 $9 X,Y pos of 4 corners*
0 Add a 4 corners polygon primitive as box body*
4,1,4,$2,$3,$4,$5,$6,$7,$8,$9,$2,$3,0*
0 Add four circle primitives for the rounded corners*
1,1,$1+$1,$2,$3*
1,1,$1+$1,$4,$5*
1,1,$1+$1,$6,$7*
1,1,$1+$1,$8,$9*
0 Add four rect primitives between the rounded corners*
20,1,$1+$1,$2,$3,$4,$5,0*
20,1,$1+$1,$4,$5,$6,$7,0*
20,1,$1+$1,$6,$7,$8,$9,0*
20,1,$1+$1,$8,$9,$2,$3,0*%
%AMHorizOval*
0 Thick line with rounded ends*
0 $1 width*
0 $2 $3 position (X,Y) of the first rounded end (center of the circle)*
0 $4 $5 position (X,Y) of the second rounded end (center of the circle)*
0 Add line between two ends*
20,1,$1,$2,$3,$4,$5,0*
0 Add two circle primitives to create the rounded ends*
1,1,$1,$2,$3*
1,1,$1,$4,$5*%
%AMFreePoly0*
4,1,22,0.686777,0.580194,0.756366,0.524698,0.794986,0.444504,0.799999,0.400000,0.800000,0.200000,0.780194,0.113223,0.741421,0.058579,0.141421,-0.541421,0.066056,-0.588777,-0.022393,-0.598742,-0.106406,-0.569345,-0.141421,-0.541421,-0.741421,0.058579,-0.788777,0.133944,-0.800000,0.200000,-0.800000,0.400000,-0.780194,0.486777,-0.724698,0.556366,-0.644504,0.594986,-0.600000,0.600000,
0.600000,0.600000,0.686777,0.580194,0.686777,0.580194,$1*%
%AMFreePoly1*
4,1,26,0.706406,1.169345,0.769345,1.106406,0.798742,1.022393,0.800000,1.000000,0.800000,-0.250000,0.780194,-0.336777,0.724698,-0.406366,0.644504,-0.444986,0.600000,-0.450000,-0.600000,-0.450000,-0.686777,-0.430194,-0.756366,-0.374698,-0.794986,-0.294504,-0.800000,-0.250000,-0.800001,1.000000,-0.780194,1.086777,-0.724698,1.156366,-0.644504,1.194985,-0.555496,1.194986,-0.475302,1.156366,
-0.458579,1.141421,0.000000,0.682842,0.458579,1.141421,0.533944,1.188777,0.622393,1.198742,0.706406,1.169345,0.706406,1.169345,$1*%
G04 Aperture macros list end*
%ADD10C,0.100000*%
%ADD11C,2.200000*%
%ADD12C,3.400000*%
%ADD13C,3.800000*%
%ADD14RoundRect,0.200000X-0.800000X-1.100000X0.800000X-1.100000X0.800000X1.100000X-0.800000X1.100000X0*%
%ADD15RoundRect,0.200000X-0.600000X-0.700000X0.600000X-0.700000X0.600000X0.700000X-0.600000X0.700000X0*%
%ADD16C,3.600000*%
%ADD17RoundRect,0.200000X0.978859X0.944370X-0.596833X1.222207X-0.978859X-0.944370X0.596833X-1.222207X0*%
%ADD18RoundRect,0.200000X-0.701084X-1.165539X0.892827X-1.026090X0.701084X1.165539X-0.892827X1.026090X0*%
%ADD19RoundRect,0.200000X1.127976X0.760046X-0.375532X1.307278X-1.127976X-0.760046X0.375532X-1.307278X0*%
%ADD20C,2.000000*%
%ADD21FreePoly0,185.000000*%
%ADD22FreePoly0,5.000000*%
%ADD23FreePoly1,185.000000*%
%ADD24FreePoly1,5.000000*%
%ADD25RoundRect,0.200000X-0.803230X-0.452573X0.324401X-0.862997X0.803230X0.452573X-0.324401X0.862997X0*%
%ADD26RoundRect,0.200000X-0.712438X-0.585177X0.469331X-0.793554X0.712438X0.585177X-0.469331X0.793554X0*%
%ADD27RoundRect,0.200000X0.536708X0.749630X-0.658726X0.645043X-0.536708X-0.749630X0.658726X-0.645043X0*%
%ADD28RoundRect,0.200000X0.600000X0.700000X-0.600000X0.700000X-0.600000X-0.700000X0.600000X-0.700000X0*%
%ADD29C,1.200000*%
%ADD30HorizOval,2.000000X0.051764X0.193185X-0.051764X-0.193185X0*%
%ADD31HorizOval,2.000000X-0.051764X-0.193185X0.051764X0.193185X0*%
%ADD32C,1.100000*%
G04 APERTURE END LIST*
D10*
X115311113Y-135836693D02*
X114298979Y-135925243D01*
X114210429Y-134913109D01*
X115222563Y-134824559D01*
X115311113Y-135836693D01*
G36*
X115311113Y-135836693D02*
G01*
X114298979Y-135925243D01*
X114210429Y-134913109D01*
X115222563Y-134824559D01*
X115311113Y-135836693D01*
G37*
X117841447Y-135615317D02*
X116829314Y-135703868D01*
X116740763Y-134691734D01*
X117752897Y-134603184D01*
X117841447Y-135615317D01*
G36*
X117841447Y-135615317D02*
G01*
X116829314Y-135703868D01*
X116740763Y-134691734D01*
X117752897Y-134603184D01*
X117841447Y-135615317D01*
G37*
X120371782Y-135393942D02*
X119359648Y-135482492D01*
X119271098Y-134470358D01*
X120283232Y-134381808D01*
X120371782Y-135393942D01*
G36*
X120371782Y-135393942D02*
G01*
X119359648Y-135482492D01*
X119271098Y-134470358D01*
X120283232Y-134381808D01*
X120371782Y-135393942D01*
G37*
X122902116Y-135172566D02*
X121889983Y-135261116D01*
X121801432Y-134248983D01*
X122813566Y-134160432D01*
X122902116Y-135172566D01*
G36*
X122902116Y-135172566D02*
G01*
X121889983Y-135261116D01*
X121801432Y-134248983D01*
X122813566Y-134160432D01*
X122902116Y-135172566D01*
G37*
X125432451Y-134951191D02*
X124420317Y-135039741D01*
X124331767Y-134027607D01*
X125343901Y-133939057D01*
X125432451Y-134951191D01*
G36*
X125432451Y-134951191D02*
G01*
X124420317Y-135039741D01*
X124331767Y-134027607D01*
X125343901Y-133939057D01*
X125432451Y-134951191D01*
G37*
X127962786Y-134729815D02*
X126950652Y-134818365D01*
X126862102Y-133806231D01*
X127874235Y-133717681D01*
X127962786Y-134729815D01*
G36*
X127962786Y-134729815D02*
G01*
X126950652Y-134818365D01*
X126862102Y-133806231D01*
X127874235Y-133717681D01*
X127962786Y-134729815D01*
G37*
X130493120Y-134508439D02*
X129480986Y-134596990D01*
X129392436Y-133584856D01*
X130404570Y-133496306D01*
X130493120Y-134508439D01*
G36*
X130493120Y-134508439D02*
G01*
X129480986Y-134596990D01*
X129392436Y-133584856D01*
X130404570Y-133496306D01*
X130493120Y-134508439D01*
G37*
X114319350Y-124500794D02*
X113307216Y-124589345D01*
X113218666Y-123577211D01*
X114230800Y-123488660D01*
X114319350Y-124500794D01*
G36*
X114319350Y-124500794D02*
G01*
X113307216Y-124589345D01*
X113218666Y-123577211D01*
X114230800Y-123488660D01*
X114319350Y-124500794D01*
G37*
X116849685Y-124279419D02*
X115837551Y-124367969D01*
X115749001Y-123355835D01*
X116761135Y-123267285D01*
X116849685Y-124279419D01*
G36*
X116849685Y-124279419D02*
G01*
X115837551Y-124367969D01*
X115749001Y-123355835D01*
X116761135Y-123267285D01*
X116849685Y-124279419D01*
G37*
X119380019Y-124058043D02*
X118367886Y-124146593D01*
X118279335Y-123134460D01*
X119291469Y-123045909D01*
X119380019Y-124058043D01*
G36*
X119380019Y-124058043D02*
G01*
X118367886Y-124146593D01*
X118279335Y-123134460D01*
X119291469Y-123045909D01*
X119380019Y-124058043D01*
G37*
X121910354Y-123836668D02*
X120898220Y-123925218D01*
X120809670Y-122913084D01*
X121821804Y-122824534D01*
X121910354Y-123836668D01*
G36*
X121910354Y-123836668D02*
G01*
X120898220Y-123925218D01*
X120809670Y-122913084D01*
X121821804Y-122824534D01*
X121910354Y-123836668D01*
G37*
X124440688Y-123615292D02*
X123428555Y-123703842D01*
X123340004Y-122691708D01*
X124352138Y-122603158D01*
X124440688Y-123615292D01*
G36*
X124440688Y-123615292D02*
G01*
X123428555Y-123703842D01*
X123340004Y-122691708D01*
X124352138Y-122603158D01*
X124440688Y-123615292D01*
G37*
X126971023Y-123393916D02*
X125958889Y-123482467D01*
X125870339Y-122470333D01*
X126882473Y-122381783D01*
X126971023Y-123393916D01*
G36*
X126971023Y-123393916D02*
G01*
X125958889Y-123482467D01*
X125870339Y-122470333D01*
X126882473Y-122381783D01*
X126971023Y-123393916D01*
G37*
X129501357Y-123172541D02*
X128489224Y-123261091D01*
X128400673Y-122248957D01*
X129412807Y-122160407D01*
X129501357Y-123172541D01*
G36*
X129501357Y-123172541D02*
G01*
X128489224Y-123261091D01*
X128400673Y-122248957D01*
X129412807Y-122160407D01*
X129501357Y-123172541D01*
G37*
D11*
X124613328Y-107786994D03*
D12*
X125113328Y-104086994D03*
X130113328Y-101886994D03*
D13*
X130113328Y-107786994D03*
D12*
X135113328Y-104086994D03*
D11*
X135613328Y-107786994D03*
D14*
X127313328Y-101886994D03*
X137913328Y-104086994D03*
D15*
X164490000Y-111488000D03*
X167890000Y-111488000D03*
D11*
X124613328Y-90787394D03*
D12*
X125113328Y-87087394D03*
X130113328Y-84887394D03*
D13*
X130113328Y-90787394D03*
D12*
X135113328Y-87087394D03*
D11*
X135613328Y-90787394D03*
D14*
X127313328Y-84887394D03*
X137913328Y-87087394D03*
D16*
X178421800Y-63833186D03*
D15*
X164490000Y-94487600D03*
X167890000Y-94487600D03*
D11*
X184676360Y-134804242D03*
D12*
X183541458Y-138361207D03*
X178235393Y-139659543D03*
D13*
X179259917Y-133849177D03*
D12*
X173693380Y-136624725D03*
D11*
X173843474Y-132894112D03*
D17*
X180992854Y-140145758D03*
X170935918Y-136138510D03*
D11*
X106613128Y-75911104D03*
D12*
X107113128Y-72211104D03*
X112113128Y-70011104D03*
D13*
X112113128Y-75911104D03*
D12*
X117113128Y-72211104D03*
D11*
X117613128Y-75911104D03*
D14*
X109313128Y-70011104D03*
X119913128Y-72211104D03*
D11*
X104684341Y-94064498D03*
D12*
X104859962Y-90334999D03*
X109649193Y-87707592D03*
D13*
X110163412Y-93585141D03*
D12*
X114821909Y-89463442D03*
D11*
X115642483Y-93105784D03*
D18*
X106859848Y-87951628D03*
X117611254Y-89219406D03*
D15*
X128390000Y-112487400D03*
X131790000Y-112487400D03*
X164490000Y-77487640D03*
X167890000Y-77487640D03*
D16*
X173595800Y-117731986D03*
D15*
X182413000Y-96243586D03*
X185813000Y-96243586D03*
X146413102Y-74177440D03*
X149813102Y-74177440D03*
X182413000Y-113287000D03*
X185813000Y-113287000D03*
D16*
X136664200Y-133479986D03*
D11*
X203364600Y-140795186D03*
D12*
X201629280Y-144101038D03*
X196178372Y-144458261D03*
D13*
X198196291Y-138914075D03*
D12*
X192232353Y-140680837D03*
D11*
X193027982Y-137032964D03*
D19*
X198809511Y-145415918D03*
X189601214Y-139723181D03*
D20*
X114923682Y-137236988D03*
X117454017Y-137015613D03*
X119984351Y-136794237D03*
X122514686Y-136572862D03*
X125045021Y-136351486D03*
X127575355Y-136130110D03*
X130105690Y-135908735D03*
D21*
X114782908Y-135627935D03*
X117313243Y-135406559D03*
X119843577Y-135185183D03*
X122373912Y-134963808D03*
X124904247Y-134742432D03*
X127434581Y-134521057D03*
X129964916Y-134299681D03*
D22*
X113746871Y-123785969D03*
X116277205Y-123564593D03*
X118807540Y-123343218D03*
X121337874Y-123121842D03*
X123868209Y-122900467D03*
X126398543Y-122679091D03*
X128928878Y-122457716D03*
D20*
X113607404Y-122191858D03*
X116137739Y-121970483D03*
X118668073Y-121749107D03*
X121198408Y-121527732D03*
X123728742Y-121306356D03*
X126259077Y-121084980D03*
X128789411Y-120863605D03*
D23*
X114694358Y-134615801D03*
X117224693Y-134394425D03*
X119755027Y-134173050D03*
X122285362Y-133951674D03*
X124815696Y-133730298D03*
X127346031Y-133508923D03*
X129876365Y-133287547D03*
D24*
X129017428Y-123469849D03*
X126487094Y-123691225D03*
X123956759Y-123912601D03*
X121426425Y-124133976D03*
X118896090Y-124355352D03*
X116365755Y-124576727D03*
X113835421Y-124798103D03*
D15*
X182413000Y-79287200D03*
X185813000Y-79287200D03*
D11*
X142612728Y-103477194D03*
D12*
X143112728Y-99777194D03*
X148112728Y-97577194D03*
D13*
X148112728Y-103477194D03*
D12*
X153112728Y-99777194D03*
D11*
X153612728Y-103477194D03*
D14*
X145312728Y-97577194D03*
X155912728Y-99777194D03*
D16*
X190156600Y-131143186D03*
D25*
X198187135Y-133889558D03*
X201382089Y-135052426D03*
D11*
X160612928Y-72787234D03*
D12*
X161112928Y-69087234D03*
X166112928Y-66887234D03*
D13*
X166112928Y-72787234D03*
D12*
X171112928Y-69087234D03*
D11*
X171612928Y-72787234D03*
D14*
X163312928Y-66887234D03*
X173912928Y-69087234D03*
D11*
X124613328Y-73787794D03*
D12*
X125113328Y-70087794D03*
X130113328Y-67887794D03*
D13*
X130113328Y-73787794D03*
D12*
X135113328Y-70087794D03*
D11*
X135613328Y-73787794D03*
D14*
X127313328Y-67887794D03*
X137913328Y-70087794D03*
D11*
X178612626Y-74586794D03*
D12*
X179112626Y-70886794D03*
X184112626Y-68686794D03*
D13*
X184112626Y-74586794D03*
D12*
X189112626Y-70886794D03*
D11*
X189612626Y-74586794D03*
D14*
X181312626Y-68686794D03*
X191912626Y-70886794D03*
D26*
X178387241Y-128875674D03*
X181735587Y-129466078D03*
D27*
X113778800Y-115046186D03*
X110391738Y-115342516D03*
D15*
X128390000Y-95487800D03*
X131790000Y-95487800D03*
D27*
X112267000Y-98104386D03*
X108879938Y-98400716D03*
D15*
X128390000Y-78488200D03*
X131790000Y-78488200D03*
D11*
X160612928Y-106787594D03*
D12*
X161112928Y-103087594D03*
X166112928Y-100887594D03*
D13*
X166112928Y-106787594D03*
D12*
X171112928Y-103087594D03*
D11*
X171612928Y-106787594D03*
D14*
X163312928Y-100887594D03*
X173912928Y-103087594D03*
D15*
X146413102Y-108177600D03*
X149813102Y-108177600D03*
D28*
X113740000Y-80611510D03*
X110340000Y-80611510D03*
D16*
X122237000Y-117731986D03*
D29*
X197744692Y-115411243D03*
X195932958Y-122172724D03*
D30*
X193263064Y-123134476D03*
D31*
X197740477Y-124313489D03*
D30*
X194298340Y-119270772D03*
D31*
X198775753Y-120449786D03*
D30*
X195074797Y-116372995D03*
D31*
X199552210Y-117552008D03*
X193012517Y-124185440D03*
D30*
X197421622Y-125387562D03*
D11*
X178612626Y-108586594D03*
D12*
X179112626Y-104886594D03*
X184112626Y-102686594D03*
D13*
X184112626Y-108586594D03*
D12*
X189112626Y-104886594D03*
D11*
X189612626Y-108586594D03*
D14*
X181312626Y-102686594D03*
X191912626Y-104886594D03*
D11*
X160612928Y-89787194D03*
D12*
X161112928Y-86087194D03*
X166112928Y-83887194D03*
D13*
X166112928Y-89787194D03*
D12*
X171112928Y-86087194D03*
D11*
X171612928Y-89787194D03*
D14*
X163312928Y-83887194D03*
X173912928Y-86087194D03*
D15*
X146413102Y-91177400D03*
X149813102Y-91177400D03*
D11*
X178612626Y-91586594D03*
D12*
X179112626Y-87886594D03*
X184112626Y-85686594D03*
D13*
X184112626Y-91586594D03*
D12*
X189112626Y-87886594D03*
D11*
X189612626Y-91586594D03*
D14*
X181312626Y-85686594D03*
X191912626Y-87886594D03*
D11*
X142612728Y-69477034D03*
D12*
X143112728Y-65777034D03*
X148112728Y-63577034D03*
D13*
X148112728Y-69477034D03*
D12*
X153112728Y-65777034D03*
D11*
X153612728Y-69477034D03*
D14*
X145312728Y-63577034D03*
X155912728Y-65777034D03*
D16*
X119417600Y-64839600D03*
D11*
X142612728Y-86476994D03*
D12*
X143112728Y-82776994D03*
X148112728Y-80576994D03*
D13*
X148112728Y-86476994D03*
D12*
X153112728Y-82776994D03*
D11*
X153612728Y-86476994D03*
D14*
X145312728Y-80576994D03*
X155912728Y-82776994D03*
D11*
X106198087Y-110992197D03*
D12*
X106373708Y-107262698D03*
X111162939Y-104635291D03*
D13*
X111677158Y-110512840D03*
D12*
X116335655Y-106391141D03*
D11*
X117156229Y-110033483D03*
D18*
X108373594Y-104879327D03*
X119125000Y-106147105D03*
D29*
X117216300Y-131752786D03*
D32*
X128390000Y-78488200D03*
X113740000Y-80611510D03*
X146413102Y-74177440D03*
X164490000Y-77487640D03*
X121432700Y-132591772D03*
X182413000Y-79287200D03*
X146413102Y-91177400D03*
X112267000Y-98104386D03*
X118896090Y-132794972D03*
X128390000Y-95487800D03*
X164490000Y-94487600D03*
X182413000Y-96243586D03*
X116365755Y-133035917D03*
X128390000Y-112487400D03*
X113778800Y-115046186D03*
X146413102Y-108177600D03*
X182413000Y-113287000D03*
X164490000Y-111488000D03*
X127325500Y-126990472D03*
X178387241Y-128875674D03*
X198187135Y-133889558D03*
X127325500Y-124819372D03*
X119913128Y-72211104D03*
X110340000Y-80611510D03*
X131790000Y-78488200D03*
X137913328Y-70087794D03*
X155912728Y-65777034D03*
X149813102Y-74177440D03*
X173912928Y-69087234D03*
X167890000Y-77487640D03*
X185813000Y-79287200D03*
X191912626Y-70886794D03*
X117611254Y-89219406D03*
X108879938Y-98400716D03*
D29*
X117216300Y-125784572D03*
X117614200Y-115395186D03*
X114007400Y-84254786D03*
X124777000Y-99088386D03*
X117004600Y-99189986D03*
X109283000Y-108079986D03*
X107098600Y-95583186D03*
D32*
X108373594Y-104879327D03*
X113835421Y-133353772D03*
X106859848Y-87951628D03*
X109313128Y-70011104D03*
X127313328Y-67887794D03*
X127313328Y-101886994D03*
X127313328Y-84887394D03*
X123956759Y-132439372D03*
X126512700Y-132236172D03*
X145312728Y-63577034D03*
X145312728Y-80576994D03*
X145312728Y-97577194D03*
X163312928Y-100887594D03*
X163312928Y-83887194D03*
X158212928Y-113420386D03*
X180992854Y-140145758D03*
X122285362Y-125276572D03*
X163312928Y-66887234D03*
X131790000Y-95487800D03*
X137913328Y-87087394D03*
X149813102Y-91177400D03*
X155912728Y-82776994D03*
X173912928Y-86087194D03*
X167890000Y-94487600D03*
X129865500Y-124666972D03*
X185813000Y-96243586D03*
X191912626Y-87886594D03*
X119125000Y-106147105D03*
X110391738Y-115342516D03*
X131790000Y-112487400D03*
X137913328Y-104086994D03*
X155912728Y-99777194D03*
X149813102Y-108177600D03*
X173912928Y-103087594D03*
X167890000Y-111488000D03*
X191912626Y-104886594D03*
X185813000Y-113287000D03*
X181735587Y-129466077D03*
X170935918Y-136138510D03*
X193547233Y-143500605D03*
X201382090Y-135052426D03*
X129001900Y-131982172D03*
D29*
X114676300Y-125987772D03*
D32*
X124785500Y-125073372D03*
X181312626Y-68686794D03*
X181312626Y-102686594D03*
X174275944Y-114094886D03*
X181312626Y-85686594D03*
X198809511Y-145415918D03*
D29*
X119705500Y-125428972D03*
M02*
