  0
SECTION
  2
HEADER
  9
$ANGBASE
  50
0.0
  9
$ANGDIR
  70
1
  9
$MEASUREMENT
  70
1
  0
ENDSEC
  0
SECTION
  2
TABLES
  0
TABLE
  2
LTYPE
  70
4
  0
LTYPE
  5
40F
  2
CONTINUOUS
  70
0
  3
Solid line
  72
65
  73
0
  40
0.0
  0
LTYPE
  5
410
  2
DASHDOT
 70
0
  3
Dash Dot ____ _ ____ _
 72
65
 73
4
 40
2.0
 49
1.25
 49
-0.25
 49
0.25
 49
-0.25
  0
LTYPE
  5
411
  2
DASHED
 70
0
  3
Dashed __ __ __ __ __
 72
65
 73
2
 40
0.75
 49
0.5
 49
-0.25
  0
LTYPE
  5
43B
  2
DOTTED
 70
0
  3
Dotted .  .  .  .
 72
65
 73
2
 40
0.2
 49
0.0
 49
-0.2
  0
ENDTAB
  0
TABLE
  2
STYLE
  70
4
  0
STYLE
  2
KICAD
  70
0
  40
0
  41
1
  42
1
  50
0
  71
0
  3
isocp.shx
  0
STYLE
  2
KICADB
  70
0
  40
0
  41
1
  42
1
  50
0
  71
0
  3
isocp.shx
  0
STYLE
  2
KICADI
  70
0
  40
0
  41
1
  42
1
  50
15
  71
0
  3
isocp.shx
  0
STYLE
  2
KICADBI
  70
0
  40
0
  41
1
  42
1
  50
15
  71
0
  3
isocp.shx
  0
ENDTAB
  0
TABLE
  2
LAYER
  70
1
  0
LAYER
  2
BLACK
  70
0
  62
7
  6
CONTINUOUS
  0
ENDTAB
  0
ENDSEC
  0
SECTION
  2
ENTITIES
0
LINE
8
BLACK
6
CONTINUOUS
10
245.425
20
-136.862
11
247.679
21
-119.675
0
LINE
8
BLACK
6
CONTINUOUS
10
189.291
20
-61.3047
11
178.405
21
-61.3047
0
LINE
8
BLACK
6
CONTINUOUS
10
153.641
20
-153.628
11
148.443
21
-134.218
0
ARC
8
BLACK
10
258.783
20
-56.5891
40
1.00001
50
0.000343791
51
90.0028
0
LINE
8
BLACK
6
CONTINUOUS
10
177.405
20
-124.662
11
177.405
21
-62.3047
0
LINE
8
BLACK
6
CONTINUOUS
10
259.783
20
-56.5891
11
259.783
21
-59.5078
0
LINE
8
BLACK
6
CONTINUOUS
10
260.783
20
-60.5078
11
272.868
21
-60.5078
0
ARC
8
BLACK
10
260.783
20
-59.5078
40
1
50
-180
51
-90.0028
0
ARC
8
BLACK
10
191.291
20
-56.5891
40
1.00003
50
90.0019
51
180
0
ARC
8
BLACK
10
241.465
20
-136.339
40
0.999969
50
-149.723
51
-97.5056
0
LINE
8
BLACK
6
CONTINUOUS
10
214.362
20
-138.378
11
154.866
21
-154.336
0
LINE
8
BLACK
6
CONTINUOUS
10
244.303
20
-137.723
11
241.334
21
-137.33
0
LINE
8
BLACK
6
CONTINUOUS
10
258.783
20
-55.5891
11
191.291
21
-55.5891
0
ARC
8
BLACK
10
149.409
20
-133.959
40
1.00005
50
-254.997
51
-165.005
0
ARC
8
BLACK
10
236.224
20
-131.33
40
1
50
30.1335
51
90.0008
0
ARC
8
BLACK
10
219.919
20
-131.33
40
1.00008
50
90.0017
51
149.748
0
LINE
8
BLACK
6
CONTINUOUS
10
236.224
20
-130.33
11
219.919
21
-130.33
0
LINE
8
BLACK
6
CONTINUOUS
10
214.969
20
-137.912
11
219.055
21
-130.826
0
ARC
8
BLACK
10
154.607
20
-153.369
40
1.00015
50
-164.992
51
-75.0046
0
LINE
8
BLACK
6
CONTINUOUS
10
190.291
20
-60.3047
11
190.291
21
-56.5891
0
ARC
8
BLACK
10
244.433
20
-136.732
40
0.999985
50
-97.5081
51
-7.47866
0
LINE
8
BLACK
6
CONTINUOUS
10
240.601
20
-136.843
11
237.089
21
-130.828
0
ARC
8
BLACK
10
214.103
20
-137.413
40
0.999744
50
-74.9979
51
-29.9942
0
ARC
8
BLACK
10
189.291
20
-60.3048
40
0.999967
50
-90.0019
51
0.00572977
0
ARC
8
BLACK
10
178.405
20
-62.3047
40
1
50
90.0002
51
180
0
ARC
8
BLACK
10
272.868
20
-61.5078
40
1
50
-0
51
89.9972
0
LINE
8
BLACK
6
CONTINUOUS
10
273.868
20
-118.588
11
273.868
21
-61.5078
0
LINE
8
BLACK
6
CONTINUOUS
10
176.664
20
-125.628
11
149.15
21
-132.993
0
LINE
8
BLACK
6
CONTINUOUS
10
251.553
20
-119.579
11
248.352
21
-119.158
0
ARC
8
BLACK
10
176.405
20
-124.662
40
0.999997
50
-75.0136
51
0.000916735
0
LINE
8
BLACK
6
CONTINUOUS
10
251.683
20
-119.588
11
272.868
21
-119.588
0
ARC
8
BLACK
10
272.868
20
-118.588
40
1.00005
50
-89.9972
51
0.000343758
0
ARC
8
BLACK
10
248.274
20
-119.753
40
0.600053
50
82.5102
51
172.526
0
ARC
8
BLACK
10
251.683
20
-118.587
40
1.0001
50
-97.4948
51
-89.9995
0
LINE
8
BLACK
6
CONTINUOUS
10
72.5729
20
-130.33
11
56.2671
21
-130.33
0
ARC
8
BLACK
10
72.5728
20
-131.33
40
1.0001
50
30.2519
51
89.9983
0
ARC
8
BLACK
10
56.2671
20
-131.33
40
0.999988
50
89.9992
51
149.867
0
ARC
8
BLACK
10
78.3883
20
-137.413
40
0.999748
50
-150.006
51
-105.002
0
ARC
8
BLACK
10
19.6231
20
-118.588
40
0.999994
50
-180
51
-90.0028
0
ARC
8
BLACK
10
40.808
20
-118.587
40
1.0001
50
-90.0005
51
-82.5052
0
LINE
8
BLACK
6
CONTINUOUS
10
19.6231
20
-119.588
11
40.808
21
-119.588
0
ARC
8
BLACK
10
116.086
20
-124.662
40
0.999983
50
-180.001
51
-104.986
0
LINE
8
BLACK
6
CONTINUOUS
10
143.341
20
-132.993
11
115.828
21
-125.628
0
ARC
8
BLACK
10
44.2174
20
-119.753
40
0.600024
50
7.47422
51
97.4898
0
LINE
8
BLACK
6
CONTINUOUS
10
44.1392
20
-119.158
11
40.9385
21
-119.579
0
LINE
8
BLACK
6
CONTINUOUS
10
44.8124
20
-119.675
11
47.0665
21
-136.862
0
ARC
8
BLACK
10
48.058
20
-136.732
40
1.00005
50
-172.521
51
-82.4919
0
LINE
8
BLACK
6
CONTINUOUS
10
102.201
20
-56.5891
11
102.201
21
-60.3047
0
ARC
8
BLACK
10
137.884
20
-153.369
40
1.00008
50
-104.995
51
-15.0083
0
LINE
8
BLACK
6
CONTINUOUS
10
73.4367
20
-130.826
11
77.5225
21
-137.912
0
ARC
8
BLACK
10
143.082
20
-133.959
40
1.00008
50
-14.9955
51
74.9969
0
LINE
8
BLACK
6
CONTINUOUS
10
101.201
20
-55.5891
11
33.7082
21
-55.5891
0
LINE
8
BLACK
6
CONTINUOUS
10
51.1572
20
-137.33
11
48.1887
21
-137.723
0
LINE
8
BLACK
6
CONTINUOUS
10
137.625
20
-154.336
11
78.1295
21
-138.378
0
ARC
8
BLACK
10
51.0266
20
-136.339
40
1
50
-82.4944
51
-30.2767
0
ARC
8
BLACK
10
101.201
20
-56.5891
40
1.00001
50
0.000343763
51
89.9981
0
ARC
8
BLACK
10
31.7081
20
-59.5078
40
1.00005
50
-89.9972
51
-0
0
LINE
8
BLACK
6
CONTINUOUS
10
19.6231
20
-60.5078
11
31.7082
21
-60.5078
0
LINE
8
BLACK
6
CONTINUOUS
10
32.7082
20
-59.5078
11
32.7082
21
-56.5891
0
LINE
8
BLACK
6
CONTINUOUS
10
115.086
20
-62.3047
11
115.086
21
-124.662
0
ARC
8
BLACK
10
33.7081
20
-56.5891
40
0.999952
50
89.9972
51
180
0
LINE
8
BLACK
6
CONTINUOUS
10
144.048
20
-134.218
11
138.85
21
-153.628
0
LINE
8
BLACK
6
CONTINUOUS
10
114.086
20
-61.3047
11
103.201
21
-61.3047
0
LINE
8
BLACK
6
CONTINUOUS
10
18.6231
20
-61.5078
11
18.6231
21
-118.588
0
ARC
8
BLACK
10
19.6231
20
-61.5078
40
1.00005
50
90.0028
51
180
0
ARC
8
BLACK
10
114.086
20
-62.3047
40
1
50
-0
51
89.9998
0
ARC
8
BLACK
10
103.201
20
-60.3048
40
0.9999
50
-180.006
51
-89.9981
0
LINE
8
BLACK
6
CONTINUOUS
10
55.4023
20
-130.828
11
51.8902
21
-136.843
0
LINE
8
BLACK
6
CONTINUOUS
10
251.355
20
-60.8762
11
237.355
21
-60.8762
0
LINE
8
BLACK
6
CONTINUOUS
10
237.355
20
-60.8762
11
237.355
21
-74.8762
0
LINE
8
BLACK
6
CONTINUOUS
10
237.355
20
-74.8762
11
251.355
21
-74.8762
0
LINE
8
BLACK
6
CONTINUOUS
10
251.355
20
-74.8762
11
251.355
21
-60.8762
0
LINE
8
BLACK
6
CONTINUOUS
10
232.355
20
-96.5756
11
218.355
21
-96.5756
0
LINE
8
BLACK
6
CONTINUOUS
10
218.355
20
-96.5756
11
218.355
21
-110.576
0
LINE
8
BLACK
6
CONTINUOUS
10
218.355
20
-110.576
11
232.355
21
-110.576
0
LINE
8
BLACK
6
CONTINUOUS
10
232.355
20
-110.576
11
232.355
21
-96.5756
0
LINE
8
BLACK
6
CONTINUOUS
10
232.355
20
-77.5754
11
218.355
21
-77.5754
0
LINE
8
BLACK
6
CONTINUOUS
10
218.355
20
-77.5754
11
218.355
21
-91.5754
0
LINE
8
BLACK
6
CONTINUOUS
10
218.355
20
-91.5754
11
232.355
21
-91.5754
0
LINE
8
BLACK
6
CONTINUOUS
10
232.355
20
-91.5754
11
232.355
21
-77.5754
0
LINE
8
BLACK
6
CONTINUOUS
10
207.73
20
-120.983
11
194.207
21
-124.607
0
LINE
8
BLACK
6
CONTINUOUS
10
194.207
20
-124.607
11
197.831
21
-138.13
0
LINE
8
BLACK
6
CONTINUOUS
10
197.831
20
-138.13
11
211.354
21
-134.506
0
LINE
8
BLACK
6
CONTINUOUS
10
211.354
20
-134.506
11
207.73
21
-120.983
0
LINE
8
BLACK
6
CONTINUOUS
10
270.355
20
-82.8752
11
256.355
21
-82.8752
0
LINE
8
BLACK
6
CONTINUOUS
10
256.355
20
-82.8752
11
256.355
21
-96.8752
0
LINE
8
BLACK
6
CONTINUOUS
10
256.355
20
-96.8752
11
270.355
21
-96.8752
0
LINE
8
BLACK
6
CONTINUOUS
10
270.355
20
-96.8752
11
270.355
21
-82.8752
0
LINE
8
BLACK
6
CONTINUOUS
10
166.358
20
-132.41
11
152.835
21
-136.034
0
LINE
8
BLACK
6
CONTINUOUS
10
152.835
20
-136.034
11
156.459
21
-149.557
0
LINE
8
BLACK
6
CONTINUOUS
10
156.459
20
-149.557
11
169.981
21
-145.933
0
LINE
8
BLACK
6
CONTINUOUS
10
169.981
20
-145.933
11
166.358
21
-132.41
0
LINE
8
BLACK
6
CONTINUOUS
10
213.355
20
-61.0756
11
199.355
21
-61.0756
0
LINE
8
BLACK
6
CONTINUOUS
10
199.355
20
-61.0756
11
199.355
21
-75.0756
0
LINE
8
BLACK
6
CONTINUOUS
10
199.355
20
-75.0756
11
213.355
21
-75.0756
0
LINE
8
BLACK
6
CONTINUOUS
10
213.355
20
-75.0756
11
213.355
21
-61.0756
0
LINE
8
BLACK
6
CONTINUOUS
10
213.355
20
-99.076
11
199.355
21
-99.076
0
LINE
8
BLACK
6
CONTINUOUS
10
199.355
20
-99.076
11
199.355
21
-113.076
0
LINE
8
BLACK
6
CONTINUOUS
10
199.355
20
-113.076
11
213.355
21
-113.076
0
LINE
8
BLACK
6
CONTINUOUS
10
213.355
20
-113.076
11
213.355
21
-99.076
0
LINE
8
BLACK
6
CONTINUOUS
10
194.355
20
-83.076
11
180.355
21
-83.076
0
LINE
8
BLACK
6
CONTINUOUS
10
180.355
20
-83.076
11
180.355
21
-97.076
0
LINE
8
BLACK
6
CONTINUOUS
10
180.355
20
-97.076
11
194.355
21
-97.076
0
LINE
8
BLACK
6
CONTINUOUS
10
194.355
20
-97.076
11
194.355
21
-83.076
0
LINE
8
BLACK
6
CONTINUOUS
10
251.355
20
-98.8754
11
237.355
21
-98.8754
0
LINE
8
BLACK
6
CONTINUOUS
10
237.355
20
-98.8754
11
237.355
21
-112.875
0
LINE
8
BLACK
6
CONTINUOUS
10
237.355
20
-112.875
11
251.355
21
-112.875
0
LINE
8
BLACK
6
CONTINUOUS
10
251.355
20
-112.875
11
251.355
21
-98.8754
0
CIRCLE
8
BLACK
10
242.83
20
-134.218
40
1.1
0
LINE
8
BLACK
6
CONTINUOUS
10
232.355
20
-58.5754
11
218.355
21
-58.5754
0
LINE
8
BLACK
6
CONTINUOUS
10
218.355
20
-58.5754
11
218.355
21
-72.5754
0
LINE
8
BLACK
6
CONTINUOUS
10
218.355
20
-72.5754
11
232.355
21
-72.5754
0
LINE
8
BLACK
6
CONTINUOUS
10
232.355
20
-72.5754
11
232.355
21
-58.5754
0
LINE
8
BLACK
6
CONTINUOUS
10
194.355
20
-102.076
11
180.355
21
-102.076
0
LINE
8
BLACK
6
CONTINUOUS
10
180.355
20
-102.076
11
180.355
21
-116.076
0
LINE
8
BLACK
6
CONTINUOUS
10
180.355
20
-116.076
11
194.355
21
-116.076
0
LINE
8
BLACK
6
CONTINUOUS
10
194.355
20
-116.076
11
194.355
21
-102.076
0
LINE
8
BLACK
6
CONTINUOUS
10
189.177
20
-126.68
11
175.654
21
-130.304
0
LINE
8
BLACK
6
CONTINUOUS
10
175.654
20
-130.304
11
179.277
21
-143.827
0
LINE
8
BLACK
6
CONTINUOUS
10
179.277
20
-143.827
11
192.8
21
-140.203
0
LINE
8
BLACK
6
CONTINUOUS
10
192.8
20
-140.203
11
189.177
21
-126.68
0
LINE
8
BLACK
6
CONTINUOUS
10
251.355
20
-79.8758
11
237.355
21
-79.8758
0
LINE
8
BLACK
6
CONTINUOUS
10
237.355
20
-79.8758
11
237.355
21
-93.8758
0
LINE
8
BLACK
6
CONTINUOUS
10
237.355
20
-93.8758
11
251.355
21
-93.8758
0
LINE
8
BLACK
6
CONTINUOUS
10
251.355
20
-93.8758
11
251.355
21
-79.8758
0
CIRCLE
8
BLACK
10
255.403
20
-59.4404
40
1.1
0
LINE
8
BLACK
6
CONTINUOUS
10
270.355
20
-63.3758
11
256.355
21
-63.3758
0
LINE
8
BLACK
6
CONTINUOUS
10
256.355
20
-63.3758
11
256.355
21
-77.3758
0
LINE
8
BLACK
6
CONTINUOUS
10
256.355
20
-77.3758
11
270.355
21
-77.3758
0
LINE
8
BLACK
6
CONTINUOUS
10
270.355
20
-77.3758
11
270.355
21
-63.3758
0
LINE
8
BLACK
6
CONTINUOUS
10
213.355
20
-80.0756
11
199.355
21
-80.0756
0
LINE
8
BLACK
6
CONTINUOUS
10
199.355
20
-80.0756
11
199.355
21
-94.0756
0
LINE
8
BLACK
6
CONTINUOUS
10
199.355
20
-94.0756
11
213.355
21
-94.0756
0
LINE
8
BLACK
6
CONTINUOUS
10
213.355
20
-94.0756
11
213.355
21
-80.0756
0
LINE
8
BLACK
6
CONTINUOUS
10
270.355
20
-101.876
11
256.355
21
-101.876
0
LINE
8
BLACK
6
CONTINUOUS
10
256.355
20
-101.876
11
256.355
21
-115.876
0
LINE
8
BLACK
6
CONTINUOUS
10
256.355
20
-115.876
11
270.355
21
-115.876
0
LINE
8
BLACK
6
CONTINUOUS
10
270.355
20
-115.876
11
270.355
21
-101.876
0
LINE
8
BLACK
6
CONTINUOUS
10
194.355
20
-64.0762
11
180.355
21
-64.0762
0
LINE
8
BLACK
6
CONTINUOUS
10
180.355
20
-64.0762
11
180.355
21
-78.0762
0
LINE
8
BLACK
6
CONTINUOUS
10
180.355
20
-78.0762
11
194.355
21
-78.0762
0
LINE
8
BLACK
6
CONTINUOUS
10
194.355
20
-78.0762
11
194.355
21
-64.0762
0
CIRCLE
8
BLACK
10
198.405
20
-118.318
40
1.1
0
CIRCLE
8
BLACK
10
252.126
20
-116.667
40
1.1
0
CIRCLE
8
BLACK
10
174.656
20
-144.734
40
1.1
0
CIRCLE
8
BLACK
10
195.154
20
-59.8875
40
1.1
0
LINE
8
BLACK
6
CONTINUOUS
10
135.203
20
-148.403
11
123.805
21
-145.349
0
LINE
8
BLACK
6
CONTINUOUS
10
123.805
20
-145.349
11
126.963
21
-133.564
0
LINE
8
BLACK
6
CONTINUOUS
10
126.963
20
-133.564
11
138.361
21
-136.618
0
LINE
8
BLACK
6
CONTINUOUS
10
138.361
20
-136.618
11
135.203
21
-148.403
0
CIRCLE
8
BLACK
10
117.835
20
-144.734
40
1.1
0
CIRCLE
8
BLACK
10
94.0865
20
-118.318
40
1.1
0
CIRCLE
8
BLACK
10
40.3655
20
-116.667
40
1.1
0
CIRCLE
8
BLACK
10
97.3375
20
-59.8875
40
1.1
0
CIRCLE
8
BLACK
10
37.0889
20
-59.4404
40
1.1
0
CIRCLE
8
BLACK
10
49.6619
20
-134.218
40
1.1
0
LINE
8
BLACK
6
CONTINUOUS
10
103.315
20
-126.68
11
116.838
21
-130.304
0
LINE
8
BLACK
6
CONTINUOUS
10
116.838
20
-130.304
11
113.214
21
-143.827
0
LINE
8
BLACK
6
CONTINUOUS
10
113.214
20
-143.827
11
99.6912
21
-140.203
0
LINE
8
BLACK
6
CONTINUOUS
10
99.6912
20
-140.203
11
103.315
21
-126.68
0
LINE
8
BLACK
6
CONTINUOUS
10
79.1363
20
-61.0756
11
93.1363
21
-61.0756
0
LINE
8
BLACK
6
CONTINUOUS
10
93.1363
20
-61.0756
11
93.1363
21
-75.0756
0
LINE
8
BLACK
6
CONTINUOUS
10
93.1363
20
-75.0756
11
79.1363
21
-75.0756
0
LINE
8
BLACK
6
CONTINUOUS
10
79.1363
20
-75.0756
11
79.1363
21
-61.0756
0
LINE
8
BLACK
6
CONTINUOUS
10
79.1363
20
-80.0756
11
93.1363
21
-80.0756
0
LINE
8
BLACK
6
CONTINUOUS
10
93.1363
20
-80.0756
11
93.1363
21
-94.0756
0
LINE
8
BLACK
6
CONTINUOUS
10
93.1363
20
-94.0756
11
79.1363
21
-94.0756
0
LINE
8
BLACK
6
CONTINUOUS
10
79.1363
20
-94.0756
11
79.1363
21
-80.0756
0
LINE
8
BLACK
6
CONTINUOUS
10
84.761
20
-120.983
11
98.284
21
-124.607
0
LINE
8
BLACK
6
CONTINUOUS
10
98.284
20
-124.607
11
94.6605
21
-138.13
0
LINE
8
BLACK
6
CONTINUOUS
10
94.6605
20
-138.13
11
81.1375
21
-134.506
0
LINE
8
BLACK
6
CONTINUOUS
10
81.1375
20
-134.506
11
84.761
21
-120.983
0
LINE
8
BLACK
6
CONTINUOUS
10
79.1363
20
-99.076
11
93.1363
21
-99.076
0
LINE
8
BLACK
6
CONTINUOUS
10
93.1363
20
-99.076
11
93.1363
21
-113.076
0
LINE
8
BLACK
6
CONTINUOUS
10
93.1363
20
-113.076
11
79.1363
21
-113.076
0
LINE
8
BLACK
6
CONTINUOUS
10
79.1363
20
-113.076
11
79.1363
21
-99.076
0
LINE
8
BLACK
6
CONTINUOUS
10
22.1365
20
-63.3758
11
36.1365
21
-63.3758
0
LINE
8
BLACK
6
CONTINUOUS
10
36.1365
20
-63.3758
11
36.1365
21
-77.3758
0
LINE
8
BLACK
6
CONTINUOUS
10
36.1365
20
-77.3758
11
22.1365
21
-77.3758
0
LINE
8
BLACK
6
CONTINUOUS
10
22.1365
20
-77.3758
11
22.1365
21
-63.3758
0
LINE
8
BLACK
6
CONTINUOUS
10
98.136
20
-83.076
11
112.136
21
-83.076
0
LINE
8
BLACK
6
CONTINUOUS
10
112.136
20
-83.076
11
112.136
21
-97.076
0
LINE
8
BLACK
6
CONTINUOUS
10
112.136
20
-97.076
11
98.136
21
-97.076
0
LINE
8
BLACK
6
CONTINUOUS
10
98.136
20
-97.076
11
98.136
21
-83.076
0
LINE
8
BLACK
6
CONTINUOUS
10
98.136
20
-64.0762
11
112.136
21
-64.0762
0
LINE
8
BLACK
6
CONTINUOUS
10
112.136
20
-64.0762
11
112.136
21
-78.0762
0
LINE
8
BLACK
6
CONTINUOUS
10
112.136
20
-78.0762
11
98.136
21
-78.0762
0
LINE
8
BLACK
6
CONTINUOUS
10
98.136
20
-78.0762
11
98.136
21
-64.0762
0
LINE
8
BLACK
6
CONTINUOUS
10
22.1365
20
-101.876
11
36.1365
21
-101.876
0
LINE
8
BLACK
6
CONTINUOUS
10
36.1365
20
-101.876
11
36.1365
21
-115.876
0
LINE
8
BLACK
6
CONTINUOUS
10
36.1365
20
-115.876
11
22.1365
21
-115.876
0
LINE
8
BLACK
6
CONTINUOUS
10
22.1365
20
-115.876
11
22.1365
21
-101.876
0
LINE
8
BLACK
6
CONTINUOUS
10
41.1367
20
-98.8754
11
55.1367
21
-98.8754
0
LINE
8
BLACK
6
CONTINUOUS
10
55.1367
20
-98.8754
11
55.1367
21
-112.875
0
LINE
8
BLACK
6
CONTINUOUS
10
55.1367
20
-112.875
11
41.1367
21
-112.875
0
LINE
8
BLACK
6
CONTINUOUS
10
41.1367
20
-112.875
11
41.1367
21
-98.8754
0
LINE
8
BLACK
6
CONTINUOUS
10
41.1367
20
-60.8762
11
55.1367
21
-60.8762
0
LINE
8
BLACK
6
CONTINUOUS
10
55.1367
20
-60.8762
11
55.1367
21
-74.8762
0
LINE
8
BLACK
6
CONTINUOUS
10
55.1367
20
-74.8762
11
41.1367
21
-74.8762
0
LINE
8
BLACK
6
CONTINUOUS
10
41.1367
20
-74.8762
11
41.1367
21
-60.8762
0
LINE
8
BLACK
6
CONTINUOUS
10
22.1365
20
-82.8752
11
36.1365
21
-82.8752
0
LINE
8
BLACK
6
CONTINUOUS
10
36.1365
20
-82.8752
11
36.1365
21
-96.8752
0
LINE
8
BLACK
6
CONTINUOUS
10
36.1365
20
-96.8752
11
22.1365
21
-96.8752
0
LINE
8
BLACK
6
CONTINUOUS
10
22.1365
20
-96.8752
11
22.1365
21
-82.8752
0
LINE
8
BLACK
6
CONTINUOUS
10
60.1361
20
-58.5754
11
74.1361
21
-58.5754
0
LINE
8
BLACK
6
CONTINUOUS
10
74.1361
20
-58.5754
11
74.1361
21
-72.5754
0
LINE
8
BLACK
6
CONTINUOUS
10
74.1361
20
-72.5754
11
60.1361
21
-72.5754
0
LINE
8
BLACK
6
CONTINUOUS
10
60.1361
20
-72.5754
11
60.1361
21
-58.5754
0
LINE
8
BLACK
6
CONTINUOUS
10
98.136
20
-102.076
11
112.136
21
-102.076
0
LINE
8
BLACK
6
CONTINUOUS
10
112.136
20
-102.076
11
112.136
21
-116.076
0
LINE
8
BLACK
6
CONTINUOUS
10
112.136
20
-116.076
11
98.136
21
-116.076
0
LINE
8
BLACK
6
CONTINUOUS
10
98.136
20
-116.076
11
98.136
21
-102.076
0
LINE
8
BLACK
6
CONTINUOUS
10
60.1361
20
-96.5756
11
74.1361
21
-96.5756
0
LINE
8
BLACK
6
CONTINUOUS
10
74.1361
20
-96.5756
11
74.1361
21
-110.576
0
LINE
8
BLACK
6
CONTINUOUS
10
74.1361
20
-110.576
11
60.1361
21
-110.576
0
LINE
8
BLACK
6
CONTINUOUS
10
60.1361
20
-110.576
11
60.1361
21
-96.5756
0
LINE
8
BLACK
6
CONTINUOUS
10
60.1361
20
-77.5754
11
74.1361
21
-77.5754
0
LINE
8
BLACK
6
CONTINUOUS
10
74.1361
20
-77.5754
11
74.1361
21
-91.5754
0
LINE
8
BLACK
6
CONTINUOUS
10
74.1361
20
-91.5754
11
60.1361
21
-91.5754
0
LINE
8
BLACK
6
CONTINUOUS
10
60.1361
20
-91.5754
11
60.1361
21
-77.5754
0
LINE
8
BLACK
6
CONTINUOUS
10
41.1367
20
-79.8758
11
55.1367
21
-79.8758
0
LINE
8
BLACK
6
CONTINUOUS
10
55.1367
20
-79.8758
11
55.1367
21
-93.8758
0
LINE
8
BLACK
6
CONTINUOUS
10
55.1367
20
-93.8758
11
41.1367
21
-93.8758
0
LINE
8
BLACK
6
CONTINUOUS
10
41.1367
20
-93.8758
11
41.1367
21
-79.8758
  0
ENDSEC
  0
EOF
