  0
SECTION
  2
HEADER
  9
$ANGBASE
  50
0.0
  9
$ANGDIR
  70
1
  9
$MEASUREMENT
  70
1
  0
ENDSEC
  0
SECTION
  2
TABLES
  0
TABLE
  2
LTYPE
  70
4
  0
LTYPE
  5
40F
  2
CONTINUOUS
  70
0
  3
Solid line
  72
65
  73
0
  40
0.0
  0
LTYPE
  5
410
  2
DASHDOT
 70
0
  3
Dash Dot ____ _ ____ _
 72
65
 73
4
 40
2.0
 49
1.25
 49
-0.25
 49
0.25
 49
-0.25
  0
LTYPE
  5
411
  2
DASHED
 70
0
  3
Dashed __ __ __ __ __
 72
65
 73
2
 40
0.75
 49
0.5
 49
-0.25
  0
LTYPE
  5
43B
  2
DOTTED
 70
0
  3
Dotted .  .  .  .
 72
65
 73
2
 40
0.2
 49
0.0
 49
-0.2
  0
ENDTAB
  0
TABLE
  2
STYLE
  70
4
  0
STYLE
  2
KICAD
  70
0
  40
0
  41
1
  42
1
  50
0
  71
0
  3
isocp.shx
  0
STYLE
  2
KICADB
  70
0
  40
0
  41
1
  42
1
  50
0
  71
0
  3
isocp.shx
  0
STYLE
  2
KICADI
  70
0
  40
0
  41
1
  42
1
  50
15
  71
0
  3
isocp.shx
  0
STYLE
  2
KICADBI
  70
0
  40
0
  41
1
  42
1
  50
15
  71
0
  3
isocp.shx
  0
ENDTAB
  0
TABLE
  2
LAYER
  70
1
  0
LAYER
  2
BLACK
  70
0
  62
7
  6
CONTINUOUS
  0
ENDTAB
  0
ENDSEC
  0
SECTION
  2
ENTITIES
0
LINE
8
BLACK
6
CONTINUOUS
10
34.6316
20
-119.559
11
63.404
21
-116.992
0
LINE
8
BLACK
6
CONTINUOUS
10
178.83
20
-59.5823
11
178.83
21
-60.4296
0
LINE
8
BLACK
6
CONTINUOUS
10
46.943
20
-59.6208
11
46.943
21
-62.9188
0
LINE
8
BLACK
6
CONTINUOUS
10
99.9729
20
-133.326
11
99.0214
21
-138.814
0
ARC
8
BLACK
10
228.737
20
-117.757
40
0.770851
50
82.5667
51
178.17
0
ARC
8
BLACK
10
259.635
20
-81.2088
40
0.799024
50
-182.348
51
-102.509
0
ARC
8
BLACK
10
177.749
20
-60.472
40
1.08107
50
-91.2965
51
2.24848
0
LINE
8
BLACK
6
CONTINUOUS
10
258.472
20
-118.85
11
261.583
21
-83.0266
0
LINE
8
BLACK
6
CONTINUOUS
10
166.651
20
-112.601
11
169.699
21
-123.828
0
ARC
8
BLACK
10
99.3607
20
-133.234
40
0.618976
50
-8.46812
51
93.1952
0
LINE
8
BLACK
6
CONTINUOUS
10
192.66
20
-139.728
11
174.372
21
-142.929
0
LINE
8
BLACK
6
CONTINUOUS
10
257.837
20
-64.0419
11
246.402
21
-64.0419
0
LINE
8
BLACK
6
CONTINUOUS
10
30.6575
20
-83.0266
11
33.7688
21
-118.85
0
ARC
8
BLACK
10
45.8629
20
-62.9613
40
1.08092
50
-91.3049
51
2.2541
0
LINE
8
BLACK
6
CONTINUOUS
10
134.429
20
-148.974
11
117.868
21
-142.929
0
LINE
8
BLACK
6
CONTINUOUS
10
64.2742
20
-117.732
11
65.7707
21
-134.82
0
ARC
8
BLACK
10
173.776
20
-111.108
40
7.28056
50
-181.444
51
-168.168
0
ARC
8
BLACK
10
179.872
20
-59.5414
40
1.04276
50
-269.282
51
-177.751
0
LINE
8
BLACK
6
CONTINUOUS
10
167.618
20
-61.5527
11
177.725
21
-61.5527
0
ARC
8
BLACK
10
124.651
20
-62.6445
40
1.09215
50
-1.46304
51
91.4705
0
LINE
8
BLACK
6
CONTINUOUS
10
117.868
20
-142.929
11
99.5802
21
-139.728
0
ARC
8
BLACK
10
114.491
20
-60.472
40
1.08099
50
-182.249
51
-88.696
0
LINE
8
BLACK
6
CONTINUOUS
10
113.411
20
-60.4296
11
113.411
21
-59.5823
0
LINE
8
BLACK
6
CONTINUOUS
10
32.7782
20
-81.9889
11
31.305
21
-82.1796
0
LINE
8
BLACK
6
CONTINUOUS
10
258.837
20
-81.1761
11
258.837
21
-65.1032
0
ARC
8
BLACK
10
48.022
20
-59.5784
40
1.07985
50
-271.362
51
-177.75
0
LINE
8
BLACK
6
CONTINUOUS
10
169.699
20
-123.828
11
151.614
21
-130.381
0
LINE
8
BLACK
6
CONTINUOUS
10
174.372
20
-142.929
11
157.811
21
-148.974
0
LINE
8
BLACK
6
CONTINUOUS
10
48.0477
20
-58.4988
11
112.382
21
-58.4988
0
LINE
8
BLACK
6
CONTINUOUS
10
122.542
20
-123.828
11
125.59
21
-112.601
0
ARC
8
BLACK
10
112.369
20
-59.5414
40
1.04268
50
-2.24975
51
89.2911
0
ARC
8
BLACK
10
246.378
20
-62.9613
40
1.08089
50
-182.254
51
-88.6982
0
ARC
8
BLACK
10
66.5548
20
-134.785
40
0.784913
50
-177.43
51
-82.165
0
ARC
8
BLACK
10
260.827
20
-82.9332
40
0.761332
50
-7.04783
51
81.8339
0
LINE
8
BLACK
6
CONTINUOUS
10
192.914
20
-132.616
11
225.579
21
-135.563
0
LINE
8
BLACK
6
CONTINUOUS
10
245.297
20
-62.9188
11
245.297
21
-59.6208
0
ARC
8
BLACK
10
257.703
20
-118.794
40
0.770235
50
-97.0527
51
-4.12357
0
ARC
8
BLACK
10
157.475
20
-148.231
40
0.815602
50
-163.26
51
-65.6221
0
ARC
8
BLACK
10
63.5037
20
-117.757
40
0.770859
50
1.82972
51
97.4303
0
LINE
8
BLACK
6
CONTINUOUS
10
179.859
20
-58.4988
11
244.193
21
-58.4988
0
ARC
8
BLACK
10
244.218
20
-59.5783
40
1.07981
50
-2.25496
51
91.3657
0
LINE
8
BLACK
6
CONTINUOUS
10
135.547
20
-148.466
11
141.541
21
-132.007
0
ARC
8
BLACK
10
151.976
20
-131.655
40
1.32393
50
-254.138
51
-164.577
0
ARC
8
BLACK
10
34.5371
20
-118.794
40
0.770282
50
-175.877
51
-82.9516
0
ARC
8
BLACK
10
167.59
20
-62.6444
40
1.09209
50
-271.478
51
-178.532
0
ARC
8
BLACK
10
34.4558
20
-65.093
40
1.05232
50
-267.168
51
-179.445
0
ARC
8
BLACK
10
134.766
20
-148.231
40
0.815585
50
-114.372
51
-16.7454
0
LINE
8
BLACK
6
CONTINUOUS
10
260.935
20
-82.1796
11
259.462
21
-81.9889
0
ARC
8
BLACK
10
42.4386
20
-136.948
40
0.779669
50
-177.437
51
-85.4864
0
ARC
8
BLACK
10
249.802
20
-136.948
40
0.779665
50
-94.5179
51
-2.56285
0
ARC
8
BLACK
10
31.4131
20
-82.9332
40
0.761332
50
-261.837
51
-172.952
0
LINE
8
BLACK
6
CONTINUOUS
10
226.47
20
-134.82
11
227.966
21
-117.732
0
LINE
8
BLACK
6
CONTINUOUS
10
166.498
20
-110.925
11
166.498
21
-62.6724
0
LINE
8
BLACK
6
CONTINUOUS
10
193.219
20
-138.814
11
192.268
21
-133.326
0
LINE
8
BLACK
6
CONTINUOUS
10
33.4035
20
-65.1032
11
33.4035
21
-81.1761
0
ARC
8
BLACK
10
140.265
20
-131.655
40
1.32391
50
-15.4234
51
74.1404
0
LINE
8
BLACK
6
CONTINUOUS
10
150.699
20
-132.007
11
156.694
21
-148.466
0
LINE
8
BLACK
6
CONTINUOUS
10
140.627
20
-130.381
11
122.542
21
-123.828
0
LINE
8
BLACK
6
CONTINUOUS
10
228.836
20
-116.992
11
257.609
21
-119.559
0
ARC
8
BLACK
10
99.7068
20
-139.023
40
0.716558
50
-196.967
51
-100.176
0
ARC
8
BLACK
10
225.686
20
-134.785
40
0.784932
50
-97.832
51
-2.57012
0
ARC
8
BLACK
10
192.88
20
-133.234
40
0.618935
50
-273.199
51
-171.531
0
ARC
8
BLACK
10
257.785
20
-65.0929
40
1.05227
50
-0.560084
51
87.1706
0
ARC
8
BLACK
10
118.464
20
-111.108
40
7.28091
50
-11.8327
51
1.4435
0
ARC
8
BLACK
10
32.6051
20
-81.2087
40
0.799099
50
-77.49
51
2.3411
0
LINE
8
BLACK
6
CONTINUOUS
10
66.6618
20
-135.563
11
99.3262
21
-132.616
0
LINE
8
BLACK
6
CONTINUOUS
10
114.515
20
-61.5527
11
124.623
21
-61.5527
0
ARC
8
BLACK
10
192.534
20
-139.023
40
0.716534
50
-79.8283
51
16.9682
0
LINE
8
BLACK
6
CONTINUOUS
10
125.742
20
-62.6724
11
125.742
21
-110.925
0
LINE
8
BLACK
6
CONTINUOUS
10
45.8383
20
-64.0419
11
34.4038
21
-64.0419
0
CIRCLE
8
BLACK
10
109.791
20
-62.0044
40
1.1
0
CIRCLE
8
BLACK
10
104.965
20
-115.903
40
1.1
0
CIRCLE
8
BLACK
10
68.0334
20
-131.651
40
1.1
0
CIRCLE
8
BLACK
10
121.526
20
-129.314
40
1.1
0
CIRCLE
8
BLACK
10
53.6062
20
-115.903
40
1.1
0
CIRCLE
8
BLACK
10
50.7868
20
-63.0108
40
1.1
0
CIRCLE
8
BLACK
10
187.275
20
-115.903
40
1.1
0
CIRCLE
8
BLACK
10
224.207
20
-131.651
40
1.1
0
CIRCLE
8
BLACK
10
241.454
20
-63.0108
40
1.1
0
CIRCLE
8
BLACK
10
170.715
20
-129.314
40
1.1
0
CIRCLE
8
BLACK
10
238.634
20
-115.903
40
1.1
0
CIRCLE
8
BLACK
10
182.449
20
-62.0044
40
1.1
0
LINE
8
BLACK
6
CONTINUOUS
10
54.4825
20
-98.9582
11
68.4825
21
-98.9582
0
LINE
8
BLACK
6
CONTINUOUS
10
68.4825
20
-98.9582
11
68.4825
21
-112.958
0
LINE
8
BLACK
6
CONTINUOUS
10
68.4825
20
-112.958
11
54.4825
21
-112.958
0
LINE
8
BLACK
6
CONTINUOUS
10
54.4825
20
-112.958
11
54.4825
21
-98.9582
0
LINE
8
BLACK
6
CONTINUOUS
10
54.4825
20
-81.9586
11
68.4825
21
-81.9586
0
LINE
8
BLACK
6
CONTINUOUS
10
68.4825
20
-81.9586
11
68.4825
21
-95.9586
0
LINE
8
BLACK
6
CONTINUOUS
10
68.4825
20
-95.9586
11
54.4825
21
-95.9586
0
LINE
8
BLACK
6
CONTINUOUS
10
54.4825
20
-95.9586
11
54.4825
21
-81.9586
0
LINE
8
BLACK
6
CONTINUOUS
10
116.307
20
-140.13
11
102.52
21
-137.698
0
LINE
8
BLACK
6
CONTINUOUS
10
102.52
20
-137.698
11
104.951
21
-123.911
0
LINE
8
BLACK
6
CONTINUOUS
10
104.951
20
-123.911
11
118.738
21
-126.342
0
LINE
8
BLACK
6
CONTINUOUS
10
118.738
20
-126.342
11
116.307
21
-140.13
0
LINE
8
BLACK
6
CONTINUOUS
10
36.4823
20
-67.0823
11
50.4823
21
-67.0823
0
LINE
8
BLACK
6
CONTINUOUS
10
50.4823
20
-67.0823
11
50.4823
21
-81.0823
0
LINE
8
BLACK
6
CONTINUOUS
10
50.4823
20
-81.0823
11
36.4823
21
-81.0823
0
LINE
8
BLACK
6
CONTINUOUS
10
36.4823
20
-81.0823
11
36.4823
21
-67.0823
0
LINE
8
BLACK
6
CONTINUOUS
10
33.9492
20
-85.3931
11
47.8959
21
-84.1729
0
LINE
8
BLACK
6
CONTINUOUS
10
47.8959
20
-84.1729
11
49.1161
21
-98.1196
0
LINE
8
BLACK
6
CONTINUOUS
10
49.1161
20
-98.1196
11
35.1693
21
-99.3398
0
LINE
8
BLACK
6
CONTINUOUS
10
35.1693
20
-99.3398
11
33.9492
21
-85.3931
0
LINE
8
BLACK
6
CONTINUOUS
10
133.749
20
-146.057
11
120.594
21
-141.269
0
LINE
8
BLACK
6
CONTINUOUS
10
120.594
20
-141.269
11
125.382
21
-128.113
0
LINE
8
BLACK
6
CONTINUOUS
10
125.382
20
-128.113
11
138.537
21
-132.902
0
LINE
8
BLACK
6
CONTINUOUS
10
138.537
20
-132.902
11
133.749
21
-146.057
0
LINE
8
BLACK
6
CONTINUOUS
10
72.4819
20
-94.6484
11
86.4819
21
-94.6484
0
LINE
8
BLACK
6
CONTINUOUS
10
86.4819
20
-94.6484
11
86.4819
21
-108.648
0
LINE
8
BLACK
6
CONTINUOUS
10
86.4819
20
-108.648
11
72.4819
21
-108.648
0
LINE
8
BLACK
6
CONTINUOUS
10
72.4819
20
-108.648
11
72.4819
21
-94.6484
0
LINE
8
BLACK
6
CONTINUOUS
10
90.4821
20
-63.9584
11
104.482
21
-63.9584
0
LINE
8
BLACK
6
CONTINUOUS
10
104.482
20
-63.9584
11
104.482
21
-77.9584
0
LINE
8
BLACK
6
CONTINUOUS
10
104.482
20
-77.9584
11
90.4821
21
-77.9584
0
LINE
8
BLACK
6
CONTINUOUS
10
90.4821
20
-77.9584
11
90.4821
21
-63.9584
0
LINE
8
BLACK
6
CONTINUOUS
10
54.4825
20
-64.959
11
68.4825
21
-64.959
0
LINE
8
BLACK
6
CONTINUOUS
10
68.4825
20
-64.959
11
68.4825
21
-78.959
0
LINE
8
BLACK
6
CONTINUOUS
10
68.4825
20
-78.959
11
54.4825
21
-78.959
0
LINE
8
BLACK
6
CONTINUOUS
10
54.4825
20
-78.959
11
54.4825
21
-64.959
0
LINE
8
BLACK
6
CONTINUOUS
10
108.482
20
-65.758
11
122.482
21
-65.758
0
LINE
8
BLACK
6
CONTINUOUS
10
122.482
20
-65.758
11
122.482
21
-79.758
0
LINE
8
BLACK
6
CONTINUOUS
10
122.482
20
-79.758
11
108.482
21
-79.758
0
LINE
8
BLACK
6
CONTINUOUS
10
108.482
20
-79.758
11
108.482
21
-65.758
0
LINE
8
BLACK
6
CONTINUOUS
10
90.4821
20
-97.9588
11
104.482
21
-97.9588
0
LINE
8
BLACK
6
CONTINUOUS
10
104.482
20
-97.9588
11
104.482
21
-111.959
0
LINE
8
BLACK
6
CONTINUOUS
10
104.482
20
-111.959
11
90.4821
21
-111.959
0
LINE
8
BLACK
6
CONTINUOUS
10
90.4821
20
-111.959
11
90.4821
21
-97.9588
0
LINE
8
BLACK
6
CONTINUOUS
10
108.482
20
-99.7578
11
122.482
21
-99.7578
0
LINE
8
BLACK
6
CONTINUOUS
10
122.482
20
-99.7578
11
122.482
21
-113.758
0
LINE
8
BLACK
6
CONTINUOUS
10
122.482
20
-113.758
11
108.482
21
-113.758
0
LINE
8
BLACK
6
CONTINUOUS
10
108.482
20
-113.758
11
108.482
21
-99.7578
0
LINE
8
BLACK
6
CONTINUOUS
10
90.4821
20
-80.9584
11
104.482
21
-80.9584
0
LINE
8
BLACK
6
CONTINUOUS
10
104.482
20
-80.9584
11
104.482
21
-94.9584
0
LINE
8
BLACK
6
CONTINUOUS
10
104.482
20
-94.9584
11
90.4821
21
-94.9584
0
LINE
8
BLACK
6
CONTINUOUS
10
90.4821
20
-94.9584
11
90.4821
21
-80.9584
0
LINE
8
BLACK
6
CONTINUOUS
10
108.482
20
-82.7578
11
122.482
21
-82.7578
0
LINE
8
BLACK
6
CONTINUOUS
10
122.482
20
-82.7578
11
122.482
21
-96.7578
0
LINE
8
BLACK
6
CONTINUOUS
10
122.482
20
-96.7578
11
108.482
21
-96.7578
0
LINE
8
BLACK
6
CONTINUOUS
10
108.482
20
-96.7578
11
108.482
21
-82.7578
0
LINE
8
BLACK
6
CONTINUOUS
10
72.4819
20
-60.6482
11
86.4819
21
-60.6482
0
LINE
8
BLACK
6
CONTINUOUS
10
86.4819
20
-60.6482
11
86.4819
21
-74.6482
0
LINE
8
BLACK
6
CONTINUOUS
10
86.4819
20
-74.6482
11
72.4819
21
-74.6482
0
LINE
8
BLACK
6
CONTINUOUS
10
72.4819
20
-74.6482
11
72.4819
21
-60.6482
0
LINE
8
BLACK
6
CONTINUOUS
10
72.4819
20
-77.6482
11
86.4819
21
-77.6482
0
LINE
8
BLACK
6
CONTINUOUS
10
86.4819
20
-77.6482
11
86.4819
21
-91.6482
0
LINE
8
BLACK
6
CONTINUOUS
10
86.4819
20
-91.6482
11
72.4819
21
-91.6482
0
LINE
8
BLACK
6
CONTINUOUS
10
72.4819
20
-91.6482
11
72.4819
21
-77.6482
0
LINE
8
BLACK
6
CONTINUOUS
10
35.4629
20
-102.321
11
49.4096
21
-101.101
0
LINE
8
BLACK
6
CONTINUOUS
10
49.4096
20
-101.101
11
50.6298
21
-115.047
0
LINE
8
BLACK
6
CONTINUOUS
10
50.6298
20
-115.047
11
36.6831
21
-116.267
0
LINE
8
BLACK
6
CONTINUOUS
10
36.6831
20
-116.267
11
35.4629
21
-102.321
0
LINE
8
BLACK
6
CONTINUOUS
10
183.759
20
-82.7578
11
169.759
21
-82.7578
0
LINE
8
BLACK
6
CONTINUOUS
10
169.759
20
-82.7578
11
169.759
21
-96.7578
0
LINE
8
BLACK
6
CONTINUOUS
10
169.759
20
-96.7578
11
183.759
21
-96.7578
0
LINE
8
BLACK
6
CONTINUOUS
10
183.759
20
-96.7578
11
183.759
21
-82.7578
0
LINE
8
BLACK
6
CONTINUOUS
10
237.758
20
-64.959
11
223.758
21
-64.959
0
LINE
8
BLACK
6
CONTINUOUS
10
223.758
20
-64.959
11
223.758
21
-78.959
0
LINE
8
BLACK
6
CONTINUOUS
10
223.758
20
-78.959
11
237.758
21
-78.959
0
LINE
8
BLACK
6
CONTINUOUS
10
237.758
20
-78.959
11
237.758
21
-64.959
0
LINE
8
BLACK
6
CONTINUOUS
10
158.491
20
-146.057
11
171.647
21
-141.269
0
LINE
8
BLACK
6
CONTINUOUS
10
171.647
20
-141.269
11
166.859
21
-128.113
0
LINE
8
BLACK
6
CONTINUOUS
10
166.859
20
-128.113
11
153.703
21
-132.902
0
LINE
8
BLACK
6
CONTINUOUS
10
153.703
20
-132.902
11
158.491
21
-146.057
0
LINE
8
BLACK
6
CONTINUOUS
10
183.759
20
-65.758
11
169.759
21
-65.758
0
LINE
8
BLACK
6
CONTINUOUS
10
169.759
20
-65.758
11
169.759
21
-79.758
0
LINE
8
BLACK
6
CONTINUOUS
10
169.759
20
-79.758
11
183.759
21
-79.758
0
LINE
8
BLACK
6
CONTINUOUS
10
183.759
20
-79.758
11
183.759
21
-65.758
0
LINE
8
BLACK
6
CONTINUOUS
10
201.758
20
-80.9584
11
187.758
21
-80.9584
0
LINE
8
BLACK
6
CONTINUOUS
10
187.758
20
-80.9584
11
187.758
21
-94.9584
0
LINE
8
BLACK
6
CONTINUOUS
10
187.758
20
-94.9584
11
201.758
21
-94.9584
0
LINE
8
BLACK
6
CONTINUOUS
10
201.758
20
-94.9584
11
201.758
21
-80.9584
0
LINE
8
BLACK
6
CONTINUOUS
10
258.291
20
-85.3931
11
244.345
21
-84.1729
0
LINE
8
BLACK
6
CONTINUOUS
10
244.345
20
-84.1729
11
243.124
21
-98.1196
0
LINE
8
BLACK
6
CONTINUOUS
10
243.124
20
-98.1196
11
257.071
21
-99.3398
0
LINE
8
BLACK
6
CONTINUOUS
10
257.071
20
-99.3398
11
258.291
21
-85.3931
0
LINE
8
BLACK
6
CONTINUOUS
10
237.758
20
-81.9586
11
223.758
21
-81.9586
0
LINE
8
BLACK
6
CONTINUOUS
10
223.758
20
-81.9586
11
223.758
21
-95.9586
0
LINE
8
BLACK
6
CONTINUOUS
10
223.758
20
-95.9586
11
237.758
21
-95.9586
0
LINE
8
BLACK
6
CONTINUOUS
10
237.758
20
-95.9586
11
237.758
21
-81.9586
0
LINE
8
BLACK
6
CONTINUOUS
10
201.758
20
-63.9584
11
187.758
21
-63.9584
0
LINE
8
BLACK
6
CONTINUOUS
10
187.758
20
-63.9584
11
187.758
21
-77.9584
0
LINE
8
BLACK
6
CONTINUOUS
10
187.758
20
-77.9584
11
201.758
21
-77.9584
0
LINE
8
BLACK
6
CONTINUOUS
10
201.758
20
-77.9584
11
201.758
21
-63.9584
0
LINE
8
BLACK
6
CONTINUOUS
10
219.759
20
-77.6482
11
205.759
21
-77.6482
0
LINE
8
BLACK
6
CONTINUOUS
10
205.759
20
-77.6482
11
205.759
21
-91.6482
0
LINE
8
BLACK
6
CONTINUOUS
10
205.759
20
-91.6482
11
219.759
21
-91.6482
0
LINE
8
BLACK
6
CONTINUOUS
10
219.759
20
-91.6482
11
219.759
21
-77.6482
0
LINE
8
BLACK
6
CONTINUOUS
10
255.758
20
-67.0823
11
241.758
21
-67.0823
0
LINE
8
BLACK
6
CONTINUOUS
10
241.758
20
-67.0823
11
241.758
21
-81.0823
0
LINE
8
BLACK
6
CONTINUOUS
10
241.758
20
-81.0823
11
255.758
21
-81.0823
0
LINE
8
BLACK
6
CONTINUOUS
10
255.758
20
-81.0823
11
255.758
21
-67.0823
0
LINE
8
BLACK
6
CONTINUOUS
10
219.759
20
-94.6484
11
205.759
21
-94.6484
0
LINE
8
BLACK
6
CONTINUOUS
10
205.759
20
-94.6484
11
205.759
21
-108.648
0
LINE
8
BLACK
6
CONTINUOUS
10
205.759
20
-108.648
11
219.759
21
-108.648
0
LINE
8
BLACK
6
CONTINUOUS
10
219.759
20
-108.648
11
219.759
21
-94.6484
0
LINE
8
BLACK
6
CONTINUOUS
10
175.933
20
-140.13
11
189.721
21
-137.698
0
LINE
8
BLACK
6
CONTINUOUS
10
189.721
20
-137.698
11
187.289
21
-123.911
0
LINE
8
BLACK
6
CONTINUOUS
10
187.289
20
-123.911
11
173.502
21
-126.342
0
LINE
8
BLACK
6
CONTINUOUS
10
173.502
20
-126.342
11
175.933
21
-140.13
0
LINE
8
BLACK
6
CONTINUOUS
10
183.759
20
-99.7578
11
169.759
21
-99.7578
0
LINE
8
BLACK
6
CONTINUOUS
10
169.759
20
-99.7578
11
169.759
21
-113.758
0
LINE
8
BLACK
6
CONTINUOUS
10
169.759
20
-113.758
11
183.759
21
-113.758
0
LINE
8
BLACK
6
CONTINUOUS
10
183.759
20
-113.758
11
183.759
21
-99.7578
0
LINE
8
BLACK
6
CONTINUOUS
10
237.758
20
-98.9582
11
223.758
21
-98.9582
0
LINE
8
BLACK
6
CONTINUOUS
10
223.758
20
-98.9582
11
223.758
21
-112.958
0
LINE
8
BLACK
6
CONTINUOUS
10
223.758
20
-112.958
11
237.758
21
-112.958
0
LINE
8
BLACK
6
CONTINUOUS
10
237.758
20
-112.958
11
237.758
21
-98.9582
0
LINE
8
BLACK
6
CONTINUOUS
10
201.758
20
-97.9588
11
187.758
21
-97.9588
0
LINE
8
BLACK
6
CONTINUOUS
10
187.758
20
-97.9588
11
187.758
21
-111.959
0
LINE
8
BLACK
6
CONTINUOUS
10
187.758
20
-111.959
11
201.758
21
-111.959
0
LINE
8
BLACK
6
CONTINUOUS
10
201.758
20
-111.959
11
201.758
21
-97.9588
0
LINE
8
BLACK
6
CONTINUOUS
10
219.759
20
-60.6482
11
205.759
21
-60.6482
0
LINE
8
BLACK
6
CONTINUOUS
10
205.759
20
-60.6482
11
205.759
21
-74.6482
0
LINE
8
BLACK
6
CONTINUOUS
10
205.759
20
-74.6482
11
219.759
21
-74.6482
0
LINE
8
BLACK
6
CONTINUOUS
10
219.759
20
-74.6482
11
219.759
21
-60.6482
0
LINE
8
BLACK
6
CONTINUOUS
10
256.778
20
-102.321
11
242.831
21
-101.101
0
LINE
8
BLACK
6
CONTINUOUS
10
242.831
20
-101.101
11
241.611
21
-115.047
0
LINE
8
BLACK
6
CONTINUOUS
10
241.611
20
-115.047
11
255.557
21
-116.267
0
LINE
8
BLACK
6
CONTINUOUS
10
255.557
20
-116.267
11
256.778
21
-102.321
  0
ENDSEC
  0
EOF
