  0
SECTION
  2
HEADER
  9
$ANGBASE
  50
0.0
  9
$ANGDIR
  70
1
  9
$MEASUREMENT
  70
1
  0
ENDSEC
  0
SECTION
  2
TABLES
  0
TABLE
  2
LTYPE
  70
4
  0
LTYPE
  5
40F
  2
CONTINUOUS
  70
0
  3
Solid line
  72
65
  73
0
  40
0.0
  0
LTYPE
  5
410
  2
DASHDOT
 70
0
  3
Dash Dot ____ _ ____ _
 72
65
 73
4
 40
2.0
 49
1.25
 49
-0.25
 49
0.25
 49
-0.25
  0
LTYPE
  5
411
  2
DASHED
 70
0
  3
Dashed __ __ __ __ __
 72
65
 73
2
 40
0.75
 49
0.5
 49
-0.25
  0
LTYPE
  5
43B
  2
DOTTED
 70
0
  3
Dotted .  .  .  .
 72
65
 73
2
 40
0.2
 49
0.0
 49
-0.2
  0
ENDTAB
  0
TABLE
  2
STYLE
  70
4
  0
STYLE
  2
KICAD
  70
0
  40
0
  41
1
  42
1
  50
0
  71
0
  3
isocp.shx
  0
STYLE
  2
KICADB
  70
0
  40
0
  41
1
  42
1
  50
0
  71
0
  3
isocp.shx
  0
STYLE
  2
KICADI
  70
0
  40
0
  41
1
  42
1
  50
15
  71
0
  3
isocp.shx
  0
STYLE
  2
KICADBI
  70
0
  40
0
  41
1
  42
1
  50
15
  71
0
  3
isocp.shx
  0
ENDTAB
  0
TABLE
  2
LAYER
  70
1
  0
LAYER
  2
BLACK
  70
0
  62
7
  6
CONTINUOUS
  0
ENDTAB
  0
ENDSEC
  0
SECTION
  2
ENTITIES
0
LINE
8
BLACK
6
CONTINUOUS
10
40.9346
20
-65.0475
11
40.9346
21
-68.3455
0
LINE
8
BLACK
6
CONTINUOUS
10
165.899
20
-148.355
11
149.338
21
-154.401
0
LINE
8
BLACK
6
CONTINUOUS
10
93.9645
20
-138.752
11
93.013
21
-144.241
0
LINE
8
BLACK
6
CONTINUOUS
10
236.824
20
-68.3455
11
236.824
21
-65.0475
0
LINE
8
BLACK
6
CONTINUOUS
10
125.677
20
-123.819
11
127.545
21
-116.886
0
LINE
8
BLACK
6
CONTINUOUS
10
242.107
20
-142.409
11
243.563
21
-125.776
0
ARC
8
BLACK
10
149.001
20
-153.658
40
0.815649
50
-163.256
51
-65.6335
0
LINE
8
BLACK
6
CONTINUOUS
10
252.462
20
-87.6063
11
250.989
21
-87.4156
0
LINE
8
BLACK
6
CONTINUOUS
10
184.441
20
-138.043
11
241.267
21
-143.152
0
ARC
8
BLACK
10
93.3523
20
-138.661
40
0.618967
50
-8.46923
51
93.1965
0
LINE
8
BLACK
6
CONTINUOUS
10
171.385
20
-63.9255
11
235.719
21
-63.9255
0
LINE
8
BLACK
6
CONTINUOUS
10
24.6491
20
-88.4533
11
27.8024
21
-124.72
0
ARC
8
BLACK
10
39.8545
20
-68.388
40
1.0809
50
-91.3056
51
2.2536
0
ARC
8
BLACK
10
171.398
20
-64.9681
40
1.04269
50
-269.286
51
-177.75
0
ARC
8
BLACK
10
184.406
20
-138.661
40
0.618964
50
-273.197
51
-171.531
0
LINE
8
BLACK
6
CONTINUOUS
10
128.421
20
-154.401
11
111.86
21
-148.355
0
ARC
8
BLACK
10
184.06
20
-144.45
40
0.7166
50
-79.8227
51
16.9657
0
ARC
8
BLACK
10
118.642
20
-68.0712
40
1.09214
50
-1.46358
51
91.4712
0
LINE
8
BLACK
6
CONTINUOUS
10
111.86
20
-148.355
11
93.5718
21
-145.155
0
LINE
8
BLACK
6
CONTINUOUS
10
157.263
20
-114.573
11
150.492
21
-116.378
0
LINE
8
BLACK
6
CONTINUOUS
10
126.135
20
-125.495
11
135.524
21
-134.55
0
ARC
8
BLACK
10
108.482
20
-65.8987
40
1.081
50
-182.248
51
-88.6968
0
LINE
8
BLACK
6
CONTINUOUS
10
107.402
20
-65.8563
11
107.402
21
-65.009
0
ARC
8
BLACK
10
127.5
20
-124.222
40
1.86693
50
-192.479
51
-137.01
0
ARC
8
BLACK
10
157.008
20
-113.589
40
1.0167
50
-75.5201
51
1.78131
0
LINE
8
BLACK
6
CONTINUOUS
10
26.7698
20
-87.4156
11
25.2966
21
-87.6063
0
LINE
8
BLACK
6
CONTINUOUS
10
249.363
20
-69.4686
11
237.929
21
-69.4686
0
LINE
8
BLACK
6
CONTINUOUS
10
34.1951
20
-125.776
11
35.6512
21
-142.409
0
ARC
8
BLACK
10
28.5568
20
-124.696
40
0.754795
50
-178.171
51
-82.9541
0
ARC
8
BLACK
10
241.328
20
-142.374
40
0.779638
50
-94.5199
51
-2.56368
0
ARC
8
BLACK
10
42.0136
20
-65.0051
40
1.07986
50
-271.362
51
-177.75
0
LINE
8
BLACK
6
CONTINUOUS
10
141.777
20
-136.201
11
148.22
21
-153.893
0
LINE
8
BLACK
6
CONTINUOUS
10
184.187
20
-145.155
11
165.899
21
-148.355
0
ARC
8
BLACK
10
159.116
20
-68.0711
40
1.09212
50
-271.477
51
-178.531
0
LINE
8
BLACK
6
CONTINUOUS
10
42.0393
20
-63.9255
11
106.373
21
-63.9255
0
ARC
8
BLACK
10
33.4246
20
-125.8
40
0.770865
50
1.83005
51
97.4312
0
LINE
8
BLACK
6
CONTINUOUS
10
250.363
20
-86.6028
11
250.363
21
-70.5299
0
ARC
8
BLACK
10
106.36
20
-64.9681
40
1.04267
50
-2.25011
51
89.2864
0
ARC
8
BLACK
10
169.276
20
-65.8987
40
1.08104
50
-91.2979
51
2.24801
0
LINE
8
BLACK
6
CONTINUOUS
10
142.234
20
-134.55
11
151.624
21
-125.495
0
ARC
8
BLACK
10
143.385
20
-135.757
40
1.66793
50
-226.379
51
-164.578
0
LINE
8
BLACK
6
CONTINUOUS
10
158.025
20
-113.557
11
158.025
21
-68.0991
0
ARC
8
BLACK
10
249.202
20
-124.696
40
0.75473
50
-97.0534
51
-1.82919
0
LINE
8
BLACK
6
CONTINUOUS
10
249.956
20
-124.72
11
253.109
21
-88.4533
0
LINE
8
BLACK
6
CONTINUOUS
10
159.144
20
-66.9794
11
169.251
21
-66.9794
0
ARC
8
BLACK
10
127.177
20
-116.758
40
0.390029
50
-19.1967
51
76.8182
0
LINE
8
BLACK
6
CONTINUOUS
10
28.6494
20
-125.445
11
33.3249
21
-125.036
0
LINE
8
BLACK
6
CONTINUOUS
10
129.538
20
-153.893
11
135.981
21
-136.201
0
LINE
8
BLACK
6
CONTINUOUS
10
150.213
20
-116.886
11
152.081
21
-123.819
0
LINE
8
BLACK
6
CONTINUOUS
10
127.266
20
-116.378
11
120.496
21
-114.573
0
LINE
8
BLACK
6
CONTINUOUS
10
170.356
20
-65.009
11
170.356
21
-65.8563
0
ARC
8
BLACK
10
28.4474
20
-70.5197
40
1.05233
50
-267.167
51
-179.445
0
ARC
8
BLACK
10
128.757
20
-153.658
40
0.815641
50
-114.369
51
-16.7376
0
ARC
8
BLACK
10
36.4302
20
-142.374
40
0.779677
50
-177.437
51
-85.4875
0
ARC
8
BLACK
10
25.4047
20
-88.3599
40
0.761347
50
-261.836
51
-172.951
0
ARC
8
BLACK
10
120.75
20
-113.589
40
1.01666
50
-181.781
51
-104.474
0
LINE
8
BLACK
6
CONTINUOUS
10
27.3951
20
-70.5299
11
27.3951
21
-86.6028
0
ARC
8
BLACK
10
134.374
20
-135.757
40
1.66787
50
-15.4227
51
46.3818
0
ARC
8
BLACK
10
251.162
20
-86.6355
40
0.799018
50
-182.348
51
-102.503
0
ARC
8
BLACK
10
252.354
20
-88.3599
40
0.761318
50
-7.04884
51
81.8359
0
ARC
8
BLACK
10
150.581
20
-116.758
40
0.39003
50
-256.818
51
-160.803
0
ARC
8
BLACK
10
249.311
20
-70.5196
40
1.05227
50
-0.56059
51
87.1667
0
ARC
8
BLACK
10
235.745
20
-65.0051
40
1.07989
50
-2.25004
51
91.3617
0
ARC
8
BLACK
10
237.904
20
-68.388
40
1.0809
50
-182.254
51
-88.6944
0
ARC
8
BLACK
10
93.6984
20
-144.45
40
0.71657
50
-196.966
51
-100.177
0
LINE
8
BLACK
6
CONTINUOUS
10
184.745
20
-144.241
11
183.794
21
-138.752
0
ARC
8
BLACK
10
26.5967
20
-86.6354
40
0.799085
50
-77.4911
51
2.34042
0
LINE
8
BLACK
6
CONTINUOUS
10
36.4915
20
-143.152
11
93.3178
21
-138.043
0
LINE
8
BLACK
6
CONTINUOUS
10
108.507
20
-66.9794
11
118.614
21
-66.9794
0
LINE
8
BLACK
6
CONTINUOUS
10
119.734
20
-68.0991
11
119.734
21
-113.557
0
ARC
8
BLACK
10
150.258
20
-124.222
40
1.86692
50
-42.9897
51
12.4789
0
LINE
8
BLACK
6
CONTINUOUS
10
244.434
20
-125.036
11
249.109
21
-125.445
0
LINE
8
BLACK
6
CONTINUOUS
10
39.8299
20
-69.4686
11
28.3954
21
-69.4686
0
ARC
8
BLACK
10
244.334
20
-125.8
40
0.770879
50
82.5688
51
178.17
0
CIRCLE
8
BLACK
10
96.2782
20
-142.675
40
2.65
0
CIRCLE
8
BLACK
10
103.783
20
-67.4311
40
1.1
0
CIRCLE
8
BLACK
10
127.469
20
-150.854
40
2.65
0
CIRCLE
8
BLACK
10
116.801
20
-69.8784
40
2.65
0
CIRCLE
8
BLACK
10
62.025
20
-137.078
40
1.1
0
CIRCLE
8
BLACK
10
115.517
20
-134.741
40
1.1
0
CIRCLE
8
BLACK
10
30.5938
20
-122.253
40
2.65
0
CIRCLE
8
BLACK
10
47.5978
20
-121.33
40
1.1
0
CIRCLE
8
BLACK
10
30.289
20
-72.3168
40
2.65
0
CIRCLE
8
BLACK
10
44.7784
20
-68.4375
40
1.1
0
CIRCLE
8
BLACK
10
150.289
20
-150.854
40
2.65
0
CIRCLE
8
BLACK
10
162.241
20
-134.741
40
1.1
0
CIRCLE
8
BLACK
10
215.733
20
-137.078
40
1.1
0
CIRCLE
8
BLACK
10
247.469
20
-72.3168
40
2.65
0
CIRCLE
8
BLACK
10
230.161
20
-121.33
40
1.1
0
CIRCLE
8
BLACK
10
173.976
20
-67.4311
40
1.1
0
CIRCLE
8
BLACK
10
160.957
20
-69.8784
40
2.65
0
CIRCLE
8
BLACK
10
232.98
20
-68.4375
40
1.1
0
CIRCLE
8
BLACK
10
181.48
20
-142.675
40
2.65
0
CIRCLE
8
BLACK
10
247.165
20
-122.253
40
2.65
  0
ENDSEC
  0
EOF
