G04 #@! TF.GenerationSoftware,KiCad,Pcbnew,9.0.2*
G04 #@! TF.CreationDate,2026-01-21T12:12:24+08:00*
G04 #@! TF.ProjectId,36_split_v3,33365f73-706c-4697-945f-76332e6b6963,rev?*
G04 #@! TF.SameCoordinates,Original*
G04 #@! TF.FileFunction,Legend,Top*
G04 #@! TF.FilePolarity,Positive*
%FSLAX46Y46*%
G04 Gerber Fmt 4.6, Leading zero omitted, Abs format (unit mm)*
G04 Created by KiCad (PCBNEW 9.0.2) date 2026-01-21 12:12:24*
%MOMM*%
%LPD*%
G01*
G04 APERTURE LIST*
G04 Aperture macros list*
%AMRoundRect*
0 Rectangle with rounded corners*
0 $1 Rounding radius*
0 $2 $3 $4 $5 $6 $7 $8 $9 X,Y pos of 4 corners*
0 Add a 4 corners polygon primitive as box body*
4,1,4,$2,$3,$4,$5,$6,$7,$8,$9,$2,$3,0*
0 Add four circle primitives for the rounded corners*
1,1,$1+$1,$2,$3*
1,1,$1+$1,$4,$5*
1,1,$1+$1,$6,$7*
1,1,$1+$1,$8,$9*
0 Add four rect primitives between the rounded corners*
20,1,$1+$1,$2,$3,$4,$5,0*
20,1,$1+$1,$4,$5,$6,$7,0*
20,1,$1+$1,$6,$7,$8,$9,0*
20,1,$1+$1,$8,$9,$2,$3,0*%
%AMHorizOval*
0 Thick line with rounded ends*
0 $1 width*
0 $2 $3 position (X,Y) of the first rounded end (center of the circle)*
0 $4 $5 position (X,Y) of the second rounded end (center of the circle)*
0 Add line between two ends*
20,1,$1,$2,$3,$4,$5,0*
0 Add two circle primitives to create the rounded ends*
1,1,$1,$2,$3*
1,1,$1,$4,$5*%
%AMFreePoly0*
4,1,22,1.312327,1.424794,1.381916,1.369298,1.420536,1.289104,1.425550,1.244600,1.425551,-0.509270,1.405744,-0.596047,1.366971,-0.650691,0.631641,-1.386021,0.556276,-1.433377,0.490220,-1.444600,-1.225550,-1.444599,-1.312327,-1.424794,-1.381916,-1.369298,-1.420536,-1.289104,-1.425550,-1.244600,-1.425550,1.244600,-1.405744,1.331377,-1.350248,1.400966,-1.270054,1.439586,-1.225550,1.444600,
1.225550,1.444599,1.312327,1.424794,1.312327,1.424794,$1*%
%AMFreePoly1*
4,1,22,1.331374,1.424792,1.400962,1.369295,1.439583,1.289101,1.444597,1.244597,1.444597,-1.244597,1.424792,-1.331374,1.369295,-1.400962,1.289101,-1.439583,1.244597,-1.444597,-0.497839,-1.444597,-0.584616,-1.424790,-0.639261,-1.386018,-1.386018,-0.639260,-1.433374,-0.563895,-1.444597,-0.497839,-1.444597,1.244597,-1.424792,1.331374,-1.369295,1.400962,-1.289101,1.439583,-1.244597,1.444597,
1.244597,1.444597,1.331374,1.424792,1.331374,1.424792,$1*%
%AMFreePoly2*
4,1,22,0.106406,0.569345,0.141421,0.541421,0.741421,-0.058579,0.788777,-0.133944,0.800000,-0.200000,0.800000,-0.400000,0.780193,-0.486777,0.724698,-0.556366,0.644504,-0.594986,0.600000,-0.600000,-0.600000,-0.600000,-0.686777,-0.580194,-0.756366,-0.524698,-0.794986,-0.444504,-0.800000,-0.400000,-0.800000,-0.200000,-0.780194,-0.113223,-0.741421,-0.058579,-0.141421,0.541421,-0.066056,0.588777,
0.022393,0.598742,0.106406,0.569345,0.106406,0.569345,$1*%
%AMFreePoly3*
4,1,26,0.686777,0.430194,0.756366,0.374698,0.794986,0.294504,0.800000,0.250000,0.800000,-1.000000,0.780194,-1.086777,0.724698,-1.156366,0.644504,-1.194986,0.555496,-1.194986,0.475302,-1.156366,0.458579,-1.141421,0.000000,-0.682842,-0.458579,-1.141421,-0.533944,-1.188778,-0.622393,-1.198742,-0.706406,-1.169345,-0.769345,-1.106406,-0.798742,-1.022393,-0.800000,-1.000000,-0.800000,0.250000,
-0.780194,0.336777,-0.724699,0.406366,-0.644505,0.444986,-0.600000,0.450000,0.600000,0.450000,0.686777,0.430194,0.686777,0.430194,$1*%
G04 Aperture macros list end*
%ADD10C,0.150000*%
%ADD11C,0.200000*%
%ADD12C,0.120000*%
%ADD13C,0.100000*%
%ADD14RoundRect,0.200000X0.700000X-0.600000X0.700000X0.600000X-0.700000X0.600000X-0.700000X-0.600000X0*%
%ADD15O,1.900000X3.200000*%
%ADD16C,2.400000*%
%ADD17C,3.600000*%
%ADD18C,2.100000*%
%ADD19C,3.400000*%
%ADD20C,4.400000*%
%ADD21FreePoly0,342.000000*%
%ADD22FreePoly1,342.000000*%
%ADD23FreePoly0,0.000000*%
%ADD24FreePoly1,0.000000*%
%ADD25FreePoly0,357.000000*%
%ADD26FreePoly1,357.000000*%
%ADD27RoundRect,0.200000X-0.700000X0.600000X-0.700000X-0.600000X0.700000X-0.600000X0.700000X0.600000X0*%
%ADD28FreePoly0,348.000000*%
%ADD29FreePoly1,348.000000*%
%ADD30FreePoly0,177.000000*%
%ADD31FreePoly1,177.000000*%
%ADD32FreePoly0,181.500000*%
%ADD33FreePoly1,181.500000*%
%ADD34FreePoly0,3.000000*%
%ADD35FreePoly1,3.000000*%
%ADD36RoundRect,0.200000X0.550000X-0.150000X0.550000X0.150000X-0.550000X0.150000X-0.550000X-0.150000X0*%
%ADD37RoundRect,0.200000X0.800000X-1.000000X0.800000X1.000000X-0.800000X1.000000X-0.800000X-1.000000X0*%
%ADD38C,1.200000*%
%ADD39HorizOval,2.000000X-0.199726X0.010467X0.199726X-0.010467X0*%
%ADD40FreePoly0,0.500000*%
%ADD41FreePoly1,0.500000*%
%ADD42C,2.000000*%
%ADD43FreePoly2,187.500000*%
%ADD44FreePoly2,7.500000*%
%ADD45FreePoly3,187.500000*%
%ADD46FreePoly3,7.500000*%
%ADD47C,1.100000*%
G04 APERTURE END LIST*
D10*
G36*
X122852659Y-158827020D02*
G01*
X122883066Y-158857427D01*
X122917324Y-158925943D01*
X122917324Y-159128628D01*
X122883065Y-159197144D01*
X122852658Y-159227552D01*
X122784143Y-159261810D01*
X122629077Y-159261810D01*
X122560561Y-159227552D01*
X122530154Y-159197144D01*
X122495896Y-159128628D01*
X122495896Y-158925943D01*
X122530154Y-158857427D01*
X122560561Y-158827020D01*
X122629077Y-158792762D01*
X122784143Y-158792762D01*
X122852659Y-158827020D01*
G37*
G36*
X124519326Y-158779401D02*
G01*
X124549733Y-158809808D01*
X124583991Y-158878324D01*
X124583991Y-159128628D01*
X124549732Y-159197144D01*
X124519325Y-159227552D01*
X124450810Y-159261810D01*
X124295744Y-159261810D01*
X124257801Y-159242838D01*
X124257801Y-158764114D01*
X124295744Y-158745143D01*
X124450810Y-158745143D01*
X124519326Y-158779401D01*
G37*
G36*
X126031661Y-158773663D02*
G01*
X126060182Y-158830705D01*
X126060182Y-158846753D01*
X125733992Y-158911990D01*
X125733992Y-158830705D01*
X125762512Y-158773663D01*
X125819554Y-158745143D01*
X125974620Y-158745143D01*
X126031661Y-158773663D01*
G37*
G36*
X126917325Y-159242838D02*
G01*
X126879382Y-159261810D01*
X126676697Y-159261810D01*
X126619655Y-159233289D01*
X126591135Y-159176247D01*
X126591135Y-159116419D01*
X126619655Y-159059377D01*
X126676697Y-159030857D01*
X126897087Y-159030857D01*
X126911719Y-159029416D01*
X126914208Y-159028384D01*
X126916896Y-159028194D01*
X126917325Y-159028029D01*
X126917325Y-159242838D01*
G37*
G36*
X128614565Y-158779401D02*
G01*
X128644972Y-158809808D01*
X128679230Y-158878324D01*
X128679230Y-159128628D01*
X128644971Y-159197144D01*
X128614564Y-159227552D01*
X128546049Y-159261810D01*
X128438602Y-159261810D01*
X128370086Y-159227552D01*
X128339679Y-159197144D01*
X128305421Y-159128628D01*
X128305421Y-158878324D01*
X128339679Y-158809808D01*
X128370086Y-158779401D01*
X128438602Y-158745143D01*
X128546049Y-158745143D01*
X128614565Y-158779401D01*
G37*
G36*
X130510329Y-159522921D02*
G01*
X119187166Y-159522921D01*
X119187166Y-158527286D01*
X119298277Y-158527286D01*
X119298277Y-158622524D01*
X119299718Y-158637156D01*
X119300749Y-158639645D01*
X119300940Y-158642333D01*
X119306195Y-158656065D01*
X119353814Y-158751303D01*
X119357778Y-158757602D01*
X119358536Y-158759430D01*
X119360224Y-158761486D01*
X119361646Y-158763746D01*
X119363144Y-158765045D01*
X119367863Y-158770795D01*
X119415482Y-158818414D01*
X119421231Y-158823132D01*
X119422531Y-158824631D01*
X119424790Y-158826052D01*
X119426847Y-158827741D01*
X119428674Y-158828498D01*
X119434974Y-158832463D01*
X119530212Y-158880082D01*
X119531281Y-158880491D01*
X119531717Y-158880814D01*
X119537853Y-158883006D01*
X119543943Y-158885337D01*
X119544483Y-158885375D01*
X119545563Y-158885761D01*
X119728053Y-158931383D01*
X119805040Y-158969877D01*
X119835447Y-159000284D01*
X119869705Y-159068800D01*
X119869705Y-159128628D01*
X119835446Y-159197144D01*
X119805039Y-159227552D01*
X119736524Y-159261810D01*
X119528304Y-159261810D01*
X119396994Y-159218040D01*
X119382657Y-159214780D01*
X119353467Y-159216855D01*
X119327294Y-159229941D01*
X119308120Y-159252048D01*
X119298866Y-159279811D01*
X119300941Y-159309001D01*
X119314027Y-159335174D01*
X119336134Y-159354348D01*
X119349560Y-159360342D01*
X119492416Y-159407961D01*
X119499671Y-159409610D01*
X119501502Y-159410369D01*
X119504155Y-159410630D01*
X119506753Y-159411221D01*
X119508727Y-159411080D01*
X119516134Y-159411810D01*
X119754229Y-159411810D01*
X119768861Y-159410369D01*
X119771350Y-159409337D01*
X119774038Y-159409147D01*
X119787770Y-159403892D01*
X119883008Y-159356273D01*
X119889307Y-159352308D01*
X119891135Y-159351551D01*
X119893191Y-159349863D01*
X119895451Y-159348441D01*
X119896751Y-159346941D01*
X119902501Y-159342223D01*
X119950119Y-159294604D01*
X119954837Y-159288854D01*
X119956336Y-159287555D01*
X119957757Y-159285296D01*
X119959447Y-159283238D01*
X119960204Y-159281408D01*
X119964168Y-159275112D01*
X120011787Y-159179874D01*
X120017042Y-159166143D01*
X120017233Y-159163453D01*
X120018264Y-159160965D01*
X120019705Y-159146333D01*
X120019705Y-159051095D01*
X120018264Y-159036463D01*
X120017233Y-159033974D01*
X120017042Y-159031285D01*
X120011787Y-159017554D01*
X119964168Y-158922316D01*
X119960203Y-158916016D01*
X119959446Y-158914189D01*
X119957757Y-158912132D01*
X119956336Y-158909873D01*
X119954837Y-158908573D01*
X119950119Y-158902824D01*
X119902500Y-158855205D01*
X119896750Y-158850486D01*
X119895451Y-158848988D01*
X119893191Y-158847566D01*
X119891135Y-158845878D01*
X119889307Y-158845120D01*
X119883008Y-158841156D01*
X119787770Y-158793537D01*
X119786700Y-158793127D01*
X119786265Y-158792805D01*
X119780119Y-158790609D01*
X119774038Y-158788282D01*
X119773498Y-158788243D01*
X119772419Y-158787858D01*
X119589929Y-158742235D01*
X119512942Y-158703742D01*
X119482535Y-158673335D01*
X119448277Y-158604819D01*
X119448277Y-158544991D01*
X119482535Y-158476475D01*
X119512942Y-158446068D01*
X119581458Y-158411810D01*
X119789678Y-158411810D01*
X119920987Y-158455580D01*
X119935324Y-158458840D01*
X119964514Y-158456765D01*
X119990688Y-158443679D01*
X120009862Y-158421571D01*
X120019116Y-158393809D01*
X120017041Y-158364619D01*
X120004538Y-158339614D01*
X120203091Y-158339614D01*
X120205079Y-158354182D01*
X120443174Y-159354182D01*
X120444903Y-159359201D01*
X120445143Y-159361003D01*
X120446085Y-159362631D01*
X120447964Y-159368082D01*
X120454350Y-159376906D01*
X120459805Y-159386328D01*
X120462862Y-159388668D01*
X120465121Y-159391789D01*
X120474396Y-159397496D01*
X120483043Y-159404115D01*
X120486763Y-159405107D01*
X120490043Y-159407125D01*
X120500797Y-159408849D01*
X120511319Y-159411655D01*
X120515134Y-159411148D01*
X120518938Y-159411758D01*
X120529536Y-159409234D01*
X120540327Y-159407801D01*
X120543658Y-159405872D01*
X120547406Y-159404980D01*
X120556230Y-159398593D01*
X120565652Y-159393139D01*
X120567992Y-159390081D01*
X120571113Y-159387823D01*
X120576820Y-159378547D01*
X120583439Y-159369901D01*
X120585464Y-159364501D01*
X120586449Y-159362901D01*
X120586736Y-159361109D01*
X120588602Y-159356135D01*
X120706609Y-158913604D01*
X120824618Y-159356135D01*
X120826483Y-159361110D01*
X120826771Y-159362901D01*
X120827755Y-159364500D01*
X120829781Y-159369902D01*
X120836401Y-159378550D01*
X120842107Y-159387823D01*
X120845227Y-159390081D01*
X120847568Y-159393139D01*
X120856989Y-159398593D01*
X120865814Y-159404980D01*
X120869561Y-159405872D01*
X120872893Y-159407801D01*
X120883686Y-159409235D01*
X120894282Y-159411758D01*
X120898083Y-159411148D01*
X120901902Y-159411656D01*
X120912433Y-159408847D01*
X120923177Y-159407125D01*
X120926453Y-159405109D01*
X120930177Y-159404116D01*
X120938827Y-159397494D01*
X120948099Y-159391789D01*
X120950357Y-159388668D01*
X120953415Y-159386328D01*
X120958870Y-159376905D01*
X120965256Y-159368082D01*
X120967133Y-159362633D01*
X120968077Y-159361004D01*
X120968316Y-159359200D01*
X120970046Y-159354182D01*
X121146484Y-158613143D01*
X121394104Y-158613143D01*
X121396178Y-158642333D01*
X121409265Y-158668508D01*
X121431373Y-158687681D01*
X121459134Y-158696935D01*
X121488324Y-158694861D01*
X121502056Y-158689606D01*
X121597294Y-158641987D01*
X121603593Y-158638022D01*
X121605421Y-158637265D01*
X121607477Y-158635576D01*
X121609737Y-158634155D01*
X121611036Y-158632656D01*
X121616786Y-158627938D01*
X121679229Y-158565495D01*
X121679229Y-159261810D01*
X121468515Y-159261810D01*
X121453883Y-159263251D01*
X121426847Y-159274450D01*
X121406155Y-159295142D01*
X121394956Y-159322178D01*
X121394956Y-159351442D01*
X121406155Y-159378478D01*
X121426847Y-159399170D01*
X121453883Y-159410369D01*
X121468515Y-159411810D01*
X122039943Y-159411810D01*
X122054575Y-159410369D01*
X122081611Y-159399170D01*
X122102303Y-159378478D01*
X122113502Y-159351442D01*
X122113502Y-159322178D01*
X122102303Y-159295142D01*
X122081611Y-159274450D01*
X122054575Y-159263251D01*
X122039943Y-159261810D01*
X121829229Y-159261810D01*
X121829229Y-158765381D01*
X122345896Y-158765381D01*
X122345896Y-159146333D01*
X122347337Y-159160965D01*
X122348368Y-159163454D01*
X122348559Y-159166142D01*
X122353814Y-159179874D01*
X122401433Y-159275112D01*
X122405396Y-159281408D01*
X122406154Y-159283238D01*
X122407843Y-159285296D01*
X122409265Y-159287555D01*
X122410763Y-159288854D01*
X122415481Y-159294603D01*
X122463100Y-159342223D01*
X122468849Y-159346941D01*
X122470150Y-159348441D01*
X122472409Y-159349863D01*
X122474466Y-159351551D01*
X122476293Y-159352308D01*
X122482593Y-159356273D01*
X122577831Y-159403892D01*
X122591562Y-159409147D01*
X122594251Y-159409338D01*
X122596740Y-159410369D01*
X122611372Y-159411810D01*
X122801848Y-159411810D01*
X122816480Y-159410369D01*
X122818969Y-159409337D01*
X122821657Y-159409147D01*
X122835389Y-159403892D01*
X122930627Y-159356273D01*
X122936926Y-159352308D01*
X122938754Y-159351551D01*
X122940810Y-159349863D01*
X122943070Y-159348441D01*
X122944370Y-159346941D01*
X122950120Y-159342223D01*
X122997738Y-159294604D01*
X123002456Y-159288854D01*
X123003955Y-159287555D01*
X123005376Y-159285296D01*
X123007066Y-159283238D01*
X123007823Y-159281408D01*
X123011787Y-159275112D01*
X123059406Y-159179874D01*
X123064661Y-159166143D01*
X123064852Y-159163453D01*
X123065883Y-159160965D01*
X123067324Y-159146333D01*
X123067324Y-158908238D01*
X123065883Y-158893606D01*
X123064852Y-158891117D01*
X123064661Y-158888428D01*
X123059406Y-158874697D01*
X123011787Y-158779459D01*
X123007822Y-158773159D01*
X123007065Y-158771332D01*
X123005376Y-158769275D01*
X123003955Y-158767016D01*
X123002456Y-158765716D01*
X122997738Y-158759967D01*
X122950119Y-158712348D01*
X122944369Y-158707629D01*
X122943070Y-158706131D01*
X122940810Y-158704709D01*
X122938754Y-158703021D01*
X122936926Y-158702263D01*
X122930627Y-158698299D01*
X122835389Y-158650680D01*
X122821657Y-158645425D01*
X122818969Y-158645234D01*
X122816480Y-158644203D01*
X122801848Y-158642762D01*
X122611372Y-158642762D01*
X122596740Y-158644203D01*
X122594251Y-158645233D01*
X122591562Y-158645425D01*
X122577831Y-158650680D01*
X122519601Y-158679795D01*
X122538125Y-158605698D01*
X122622037Y-158479829D01*
X122655799Y-158446068D01*
X122724315Y-158411810D01*
X122897086Y-158411810D01*
X122911718Y-158410369D01*
X122938754Y-158399170D01*
X122959446Y-158378478D01*
X122970645Y-158351442D01*
X122970645Y-158336810D01*
X124107801Y-158336810D01*
X124107801Y-159336810D01*
X124109242Y-159351442D01*
X124120441Y-159378478D01*
X124141133Y-159399170D01*
X124168169Y-159410369D01*
X124197433Y-159410369D01*
X124224469Y-159399170D01*
X124227997Y-159395641D01*
X124244498Y-159403892D01*
X124258229Y-159409147D01*
X124260918Y-159409338D01*
X124263407Y-159410369D01*
X124278039Y-159411810D01*
X124468515Y-159411810D01*
X124483147Y-159410369D01*
X124485636Y-159409337D01*
X124488324Y-159409147D01*
X124502056Y-159403892D01*
X124597294Y-159356273D01*
X124603593Y-159352308D01*
X124605421Y-159351551D01*
X124607477Y-159349863D01*
X124609737Y-159348441D01*
X124611037Y-159346941D01*
X124616787Y-159342223D01*
X124664405Y-159294604D01*
X124669123Y-159288854D01*
X124670622Y-159287555D01*
X124672043Y-159285296D01*
X124673733Y-159283238D01*
X124674490Y-159281408D01*
X124678454Y-159275112D01*
X124726073Y-159179874D01*
X124731328Y-159166143D01*
X124731519Y-159163453D01*
X124732550Y-159160965D01*
X124733991Y-159146333D01*
X124733991Y-158860619D01*
X124732550Y-158845987D01*
X124731519Y-158843498D01*
X124731328Y-158840809D01*
X124726073Y-158827078D01*
X124678454Y-158731840D01*
X124674489Y-158725540D01*
X124673732Y-158723713D01*
X124672043Y-158721656D01*
X124670622Y-158719397D01*
X124669123Y-158718097D01*
X124664405Y-158712348D01*
X124622200Y-158670143D01*
X125012563Y-158670143D01*
X125012563Y-159336810D01*
X125014004Y-159351442D01*
X125025203Y-159378478D01*
X125045895Y-159399170D01*
X125072931Y-159410369D01*
X125102195Y-159410369D01*
X125129231Y-159399170D01*
X125149923Y-159378478D01*
X125161122Y-159351442D01*
X125162563Y-159336810D01*
X125162563Y-158878324D01*
X125195225Y-158813000D01*
X125583992Y-158813000D01*
X125583992Y-159193952D01*
X125585433Y-159208584D01*
X125586464Y-159211073D01*
X125586655Y-159213761D01*
X125591910Y-159227493D01*
X125639529Y-159322732D01*
X125641069Y-159325178D01*
X125641454Y-159326333D01*
X125642700Y-159327770D01*
X125647361Y-159335174D01*
X125654463Y-159341333D01*
X125660627Y-159348441D01*
X125668032Y-159353102D01*
X125669469Y-159354348D01*
X125670622Y-159354732D01*
X125673070Y-159356273D01*
X125768308Y-159403892D01*
X125782039Y-159409147D01*
X125784728Y-159409338D01*
X125787217Y-159410369D01*
X125801849Y-159411810D01*
X125992325Y-159411810D01*
X126006957Y-159410369D01*
X126009446Y-159409337D01*
X126012134Y-159409147D01*
X126025866Y-159403892D01*
X126121104Y-159356273D01*
X126133547Y-159348441D01*
X126152720Y-159326333D01*
X126161974Y-159298572D01*
X126159900Y-159269382D01*
X126146812Y-159243207D01*
X126124705Y-159224034D01*
X126096943Y-159214780D01*
X126067753Y-159216854D01*
X126054022Y-159222109D01*
X125974620Y-159261810D01*
X125819554Y-159261810D01*
X125762512Y-159233289D01*
X125733992Y-159176247D01*
X125733992Y-159098714D01*
X126441135Y-159098714D01*
X126441135Y-159193952D01*
X126442576Y-159208584D01*
X126443607Y-159211073D01*
X126443798Y-159213761D01*
X126449053Y-159227493D01*
X126496672Y-159322732D01*
X126498212Y-159325178D01*
X126498597Y-159326333D01*
X126499843Y-159327770D01*
X126504504Y-159335174D01*
X126511606Y-159341333D01*
X126517770Y-159348441D01*
X126525175Y-159353102D01*
X126526612Y-159354348D01*
X126527765Y-159354732D01*
X126530213Y-159356273D01*
X126625451Y-159403892D01*
X126639182Y-159409147D01*
X126641871Y-159409338D01*
X126644360Y-159410369D01*
X126658992Y-159411810D01*
X126897087Y-159411810D01*
X126911719Y-159410369D01*
X126914208Y-159409337D01*
X126916896Y-159409147D01*
X126930628Y-159403892D01*
X126947128Y-159395641D01*
X126950657Y-159399170D01*
X126977693Y-159410369D01*
X127006957Y-159410369D01*
X127033993Y-159399170D01*
X127054685Y-159378478D01*
X127065884Y-159351442D01*
X127067325Y-159336810D01*
X127067325Y-158813000D01*
X127065884Y-158798368D01*
X127064853Y-158795879D01*
X127064662Y-158793190D01*
X127059407Y-158779459D01*
X127011788Y-158684221D01*
X127010247Y-158681773D01*
X127009863Y-158680620D01*
X127008617Y-158679183D01*
X127003956Y-158671778D01*
X126996851Y-158665616D01*
X126990690Y-158658512D01*
X126983284Y-158653850D01*
X126981848Y-158652605D01*
X126980694Y-158652220D01*
X126978247Y-158650680D01*
X126883009Y-158603061D01*
X126869277Y-158597806D01*
X126866589Y-158597615D01*
X126864100Y-158596584D01*
X126849468Y-158595143D01*
X126658992Y-158595143D01*
X126644360Y-158596584D01*
X126641871Y-158597614D01*
X126639182Y-158597806D01*
X126625451Y-158603061D01*
X126530213Y-158650680D01*
X126517770Y-158658512D01*
X126498597Y-158680620D01*
X126489343Y-158708381D01*
X126491417Y-158737571D01*
X126504504Y-158763746D01*
X126526612Y-158782919D01*
X126554373Y-158792173D01*
X126583563Y-158790099D01*
X126597295Y-158784844D01*
X126676697Y-158745143D01*
X126831763Y-158745143D01*
X126888804Y-158773663D01*
X126917325Y-158830705D01*
X126917325Y-158861885D01*
X126879382Y-158880857D01*
X126658992Y-158880857D01*
X126644360Y-158882298D01*
X126641871Y-158883328D01*
X126639182Y-158883520D01*
X126625451Y-158888775D01*
X126530213Y-158936394D01*
X126527765Y-158937934D01*
X126526612Y-158938319D01*
X126525175Y-158939564D01*
X126517770Y-158944226D01*
X126511608Y-158951330D01*
X126504504Y-158957492D01*
X126499842Y-158964897D01*
X126498597Y-158966334D01*
X126498212Y-158967487D01*
X126496672Y-158969935D01*
X126449053Y-159065173D01*
X126443798Y-159078905D01*
X126443607Y-159081592D01*
X126442576Y-159084082D01*
X126441135Y-159098714D01*
X125733992Y-159098714D01*
X125733992Y-159064961D01*
X126149890Y-158981782D01*
X126163956Y-158977499D01*
X126170061Y-158973410D01*
X126176850Y-158970598D01*
X126182102Y-158965345D01*
X126188270Y-158961215D01*
X126192344Y-158955104D01*
X126197542Y-158949906D01*
X126200385Y-158943042D01*
X126204502Y-158936867D01*
X126205927Y-158929661D01*
X126208741Y-158922870D01*
X126210182Y-158908238D01*
X126210182Y-158813000D01*
X126208741Y-158798368D01*
X126207710Y-158795879D01*
X126207519Y-158793190D01*
X126202264Y-158779459D01*
X126154645Y-158684221D01*
X126153104Y-158681773D01*
X126152720Y-158680620D01*
X126151474Y-158679183D01*
X126146813Y-158671778D01*
X126139708Y-158665616D01*
X126133547Y-158658512D01*
X126126141Y-158653850D01*
X126124705Y-158652605D01*
X126123551Y-158652220D01*
X126121104Y-158650680D01*
X126025866Y-158603061D01*
X126012134Y-158597806D01*
X126009446Y-158597615D01*
X126006957Y-158596584D01*
X125992325Y-158595143D01*
X125801849Y-158595143D01*
X125787217Y-158596584D01*
X125784728Y-158597614D01*
X125782039Y-158597806D01*
X125768308Y-158603061D01*
X125673070Y-158650680D01*
X125670622Y-158652220D01*
X125669469Y-158652605D01*
X125668032Y-158653850D01*
X125660627Y-158658512D01*
X125654465Y-158665616D01*
X125647361Y-158671778D01*
X125642699Y-158679183D01*
X125641454Y-158680620D01*
X125641069Y-158681773D01*
X125639529Y-158684221D01*
X125591910Y-158779459D01*
X125586655Y-158793191D01*
X125586464Y-158795878D01*
X125585433Y-158798368D01*
X125583992Y-158813000D01*
X125195225Y-158813000D01*
X125196821Y-158809808D01*
X125227228Y-158779401D01*
X125295744Y-158745143D01*
X125373277Y-158745143D01*
X125387909Y-158743702D01*
X125414945Y-158732503D01*
X125435637Y-158711811D01*
X125446836Y-158684775D01*
X125446836Y-158655511D01*
X125435637Y-158628475D01*
X125414945Y-158607783D01*
X125387909Y-158596584D01*
X125373277Y-158595143D01*
X125278039Y-158595143D01*
X125263407Y-158596584D01*
X125260918Y-158597614D01*
X125258229Y-158597806D01*
X125244498Y-158603061D01*
X125157428Y-158646595D01*
X125149923Y-158628475D01*
X125129231Y-158607783D01*
X125102195Y-158596584D01*
X125072931Y-158596584D01*
X125045895Y-158607783D01*
X125025203Y-158628475D01*
X125014004Y-158655511D01*
X125012563Y-158670143D01*
X124622200Y-158670143D01*
X124616786Y-158664729D01*
X124611036Y-158660010D01*
X124609737Y-158658512D01*
X124607477Y-158657090D01*
X124605421Y-158655402D01*
X124603593Y-158654644D01*
X124597294Y-158650680D01*
X124502056Y-158603061D01*
X124488324Y-158597806D01*
X124485636Y-158597615D01*
X124483147Y-158596584D01*
X124468515Y-158595143D01*
X124278039Y-158595143D01*
X124263407Y-158596584D01*
X124260918Y-158597614D01*
X124258229Y-158597806D01*
X124257801Y-158597969D01*
X124257801Y-158336810D01*
X127393516Y-158336810D01*
X127393516Y-159336810D01*
X127394957Y-159351442D01*
X127406156Y-159378478D01*
X127426848Y-159399170D01*
X127453884Y-159410369D01*
X127483148Y-159410369D01*
X127510184Y-159399170D01*
X127530876Y-159378478D01*
X127542075Y-159351442D01*
X127543516Y-159336810D01*
X127543516Y-159082161D01*
X127555639Y-159070037D01*
X127789468Y-159381810D01*
X127799400Y-159392651D01*
X127824581Y-159407561D01*
X127853550Y-159411699D01*
X127881898Y-159404437D01*
X127905309Y-159386878D01*
X127920218Y-159361697D01*
X127924357Y-159332729D01*
X127917095Y-159304380D01*
X127909468Y-159291810D01*
X127662782Y-158962894D01*
X127765057Y-158860619D01*
X128155421Y-158860619D01*
X128155421Y-159146333D01*
X128156862Y-159160965D01*
X128157893Y-159163454D01*
X128158084Y-159166142D01*
X128163339Y-159179874D01*
X128210958Y-159275112D01*
X128214921Y-159281408D01*
X128215679Y-159283238D01*
X128217368Y-159285296D01*
X128218790Y-159287555D01*
X128220288Y-159288854D01*
X128225006Y-159294603D01*
X128272625Y-159342223D01*
X128278374Y-159346941D01*
X128279675Y-159348441D01*
X128281934Y-159349863D01*
X128283991Y-159351551D01*
X128285818Y-159352308D01*
X128292118Y-159356273D01*
X128387356Y-159403892D01*
X128401087Y-159409147D01*
X128403776Y-159409338D01*
X128406265Y-159410369D01*
X128420897Y-159411810D01*
X128563754Y-159411810D01*
X128578386Y-159410369D01*
X128580875Y-159409337D01*
X128583563Y-159409147D01*
X128597295Y-159403892D01*
X128692533Y-159356273D01*
X128698832Y-159352308D01*
X128700660Y-159351551D01*
X128702716Y-159349863D01*
X128704976Y-159348441D01*
X128706276Y-159346941D01*
X128712026Y-159342223D01*
X128759644Y-159294604D01*
X128764362Y-159288854D01*
X128765861Y-159287555D01*
X128767282Y-159285296D01*
X128768972Y-159283238D01*
X128769729Y-159281408D01*
X128773693Y-159275112D01*
X128821312Y-159179874D01*
X128826567Y-159166143D01*
X128826758Y-159163453D01*
X128827789Y-159160965D01*
X128829230Y-159146333D01*
X128829230Y-158860619D01*
X128827789Y-158845987D01*
X128826758Y-158843498D01*
X128826567Y-158840809D01*
X128821312Y-158827078D01*
X128773693Y-158731840D01*
X128769728Y-158725540D01*
X128768971Y-158723713D01*
X128767282Y-158721656D01*
X128765861Y-158719397D01*
X128764362Y-158718097D01*
X128759644Y-158712348D01*
X128717439Y-158670143D01*
X129107802Y-158670143D01*
X129107802Y-159193952D01*
X129109243Y-159208584D01*
X129110274Y-159211073D01*
X129110465Y-159213761D01*
X129115720Y-159227493D01*
X129163339Y-159322732D01*
X129164879Y-159325178D01*
X129165264Y-159326333D01*
X129166510Y-159327770D01*
X129171171Y-159335174D01*
X129178273Y-159341333D01*
X129184437Y-159348441D01*
X129191842Y-159353102D01*
X129193279Y-159354348D01*
X129194432Y-159354732D01*
X129196880Y-159356273D01*
X129292118Y-159403892D01*
X129305849Y-159409147D01*
X129308538Y-159409338D01*
X129311027Y-159410369D01*
X129325659Y-159411810D01*
X129468516Y-159411810D01*
X129483148Y-159410369D01*
X129485637Y-159409337D01*
X129488325Y-159409147D01*
X129502057Y-159403892D01*
X129550303Y-159379768D01*
X129569705Y-159399170D01*
X129596741Y-159410369D01*
X129626005Y-159410369D01*
X129653041Y-159399170D01*
X129673733Y-159378478D01*
X129684932Y-159351442D01*
X129686373Y-159336810D01*
X129686373Y-158670143D01*
X129684932Y-158655511D01*
X129871148Y-158655511D01*
X129871148Y-158684775D01*
X129882347Y-158711811D01*
X129903039Y-158732503D01*
X129930075Y-158743702D01*
X129944707Y-158745143D01*
X130012564Y-158745143D01*
X130012564Y-159193952D01*
X130014005Y-159208584D01*
X130015036Y-159211073D01*
X130015227Y-159213761D01*
X130020482Y-159227493D01*
X130068101Y-159322732D01*
X130069641Y-159325178D01*
X130070026Y-159326333D01*
X130071272Y-159327770D01*
X130075933Y-159335174D01*
X130083035Y-159341333D01*
X130089199Y-159348441D01*
X130096604Y-159353102D01*
X130098041Y-159354348D01*
X130099194Y-159354732D01*
X130101642Y-159356273D01*
X130196880Y-159403892D01*
X130210611Y-159409147D01*
X130213300Y-159409338D01*
X130215789Y-159410369D01*
X130230421Y-159411810D01*
X130325659Y-159411810D01*
X130340291Y-159410369D01*
X130367327Y-159399170D01*
X130388019Y-159378478D01*
X130399218Y-159351442D01*
X130399218Y-159322178D01*
X130388019Y-159295142D01*
X130367327Y-159274450D01*
X130340291Y-159263251D01*
X130325659Y-159261810D01*
X130248126Y-159261810D01*
X130191084Y-159233289D01*
X130162564Y-159176247D01*
X130162564Y-158745143D01*
X130325659Y-158745143D01*
X130340291Y-158743702D01*
X130367327Y-158732503D01*
X130388019Y-158711811D01*
X130399218Y-158684775D01*
X130399218Y-158655511D01*
X130388019Y-158628475D01*
X130367327Y-158607783D01*
X130340291Y-158596584D01*
X130325659Y-158595143D01*
X130162564Y-158595143D01*
X130162564Y-158336810D01*
X130161123Y-158322178D01*
X130149924Y-158295142D01*
X130129232Y-158274450D01*
X130102196Y-158263251D01*
X130072932Y-158263251D01*
X130045896Y-158274450D01*
X130025204Y-158295142D01*
X130014005Y-158322178D01*
X130012564Y-158336810D01*
X130012564Y-158595143D01*
X129944707Y-158595143D01*
X129930075Y-158596584D01*
X129903039Y-158607783D01*
X129882347Y-158628475D01*
X129871148Y-158655511D01*
X129684932Y-158655511D01*
X129673733Y-158628475D01*
X129653041Y-158607783D01*
X129626005Y-158596584D01*
X129596741Y-158596584D01*
X129569705Y-158607783D01*
X129549013Y-158628475D01*
X129537814Y-158655511D01*
X129536373Y-158670143D01*
X129536373Y-159210505D01*
X129519326Y-159227552D01*
X129450811Y-159261810D01*
X129343364Y-159261810D01*
X129286322Y-159233289D01*
X129257802Y-159176247D01*
X129257802Y-158670143D01*
X129256361Y-158655511D01*
X129245162Y-158628475D01*
X129224470Y-158607783D01*
X129197434Y-158596584D01*
X129168170Y-158596584D01*
X129141134Y-158607783D01*
X129120442Y-158628475D01*
X129109243Y-158655511D01*
X129107802Y-158670143D01*
X128717439Y-158670143D01*
X128712025Y-158664729D01*
X128706275Y-158660010D01*
X128704976Y-158658512D01*
X128702716Y-158657090D01*
X128700660Y-158655402D01*
X128698832Y-158654644D01*
X128692533Y-158650680D01*
X128597295Y-158603061D01*
X128583563Y-158597806D01*
X128580875Y-158597615D01*
X128578386Y-158596584D01*
X128563754Y-158595143D01*
X128420897Y-158595143D01*
X128406265Y-158596584D01*
X128403776Y-158597614D01*
X128401087Y-158597806D01*
X128387356Y-158603061D01*
X128292118Y-158650680D01*
X128285818Y-158654644D01*
X128283991Y-158655402D01*
X128281934Y-158657090D01*
X128279675Y-158658512D01*
X128278375Y-158660010D01*
X128272626Y-158664729D01*
X128225007Y-158712348D01*
X128220288Y-158718097D01*
X128218790Y-158719397D01*
X128217368Y-158721656D01*
X128215680Y-158723713D01*
X128214922Y-158725540D01*
X128210958Y-158731840D01*
X128163339Y-158827078D01*
X128158084Y-158840810D01*
X128157893Y-158843497D01*
X128156862Y-158845987D01*
X128155421Y-158860619D01*
X127765057Y-158860619D01*
X127902501Y-158723176D01*
X127911828Y-158711811D01*
X127923027Y-158684775D01*
X127923027Y-158655512D01*
X127911828Y-158628476D01*
X127891135Y-158607783D01*
X127864099Y-158596584D01*
X127834836Y-158596584D01*
X127807800Y-158607783D01*
X127796435Y-158617110D01*
X127543516Y-158870029D01*
X127543516Y-158336810D01*
X127542075Y-158322178D01*
X127530876Y-158295142D01*
X127510184Y-158274450D01*
X127483148Y-158263251D01*
X127453884Y-158263251D01*
X127426848Y-158274450D01*
X127406156Y-158295142D01*
X127394957Y-158322178D01*
X127393516Y-158336810D01*
X124257801Y-158336810D01*
X124256360Y-158322178D01*
X124245161Y-158295142D01*
X124224469Y-158274450D01*
X124197433Y-158263251D01*
X124168169Y-158263251D01*
X124141133Y-158274450D01*
X124120441Y-158295142D01*
X124109242Y-158322178D01*
X124107801Y-158336810D01*
X122970645Y-158336810D01*
X122970645Y-158322178D01*
X122959446Y-158295142D01*
X122938754Y-158274450D01*
X122911718Y-158263251D01*
X122897086Y-158261810D01*
X122706610Y-158261810D01*
X122691978Y-158263251D01*
X122689489Y-158264281D01*
X122686800Y-158264473D01*
X122673069Y-158269728D01*
X122577831Y-158317347D01*
X122571531Y-158321311D01*
X122569704Y-158322069D01*
X122567647Y-158323757D01*
X122565388Y-158325179D01*
X122564088Y-158326677D01*
X122558339Y-158331396D01*
X122510720Y-158379015D01*
X122510686Y-158379055D01*
X122510665Y-158379070D01*
X122505881Y-158384911D01*
X122501393Y-158390380D01*
X122501383Y-158390402D01*
X122501349Y-158390445D01*
X122406111Y-158533302D01*
X122401804Y-158541380D01*
X122400701Y-158542869D01*
X122400072Y-158544628D01*
X122399194Y-158546276D01*
X122398834Y-158548092D01*
X122395754Y-158556715D01*
X122348135Y-158747191D01*
X122347759Y-158749727D01*
X122347337Y-158750749D01*
X122346794Y-158756261D01*
X122345985Y-158761735D01*
X122346147Y-158762827D01*
X122345896Y-158765381D01*
X121829229Y-158765381D01*
X121829229Y-158336810D01*
X121829223Y-158336757D01*
X121829229Y-158336731D01*
X121829213Y-158336654D01*
X121827788Y-158322178D01*
X121824946Y-158315317D01*
X121823490Y-158308036D01*
X121819400Y-158301929D01*
X121816589Y-158295142D01*
X121811340Y-158289893D01*
X121807207Y-158283721D01*
X121801090Y-158279643D01*
X121795897Y-158274450D01*
X121789037Y-158271608D01*
X121782858Y-158267489D01*
X121775649Y-158266063D01*
X121768861Y-158263251D01*
X121761434Y-158263251D01*
X121754150Y-158261810D01*
X121746945Y-158263251D01*
X121739597Y-158263251D01*
X121732736Y-158266092D01*
X121725456Y-158267549D01*
X121719350Y-158271637D01*
X121712561Y-158274450D01*
X121707310Y-158279700D01*
X121701141Y-158283832D01*
X121691920Y-158295090D01*
X121691869Y-158295142D01*
X121691859Y-158295164D01*
X121691825Y-158295207D01*
X121600705Y-158431887D01*
X121519326Y-158513266D01*
X121434974Y-158555442D01*
X121422531Y-158563274D01*
X121403358Y-158585382D01*
X121394104Y-158613143D01*
X121146484Y-158613143D01*
X121208142Y-158354182D01*
X121210130Y-158339614D01*
X121205497Y-158310719D01*
X121190161Y-158285797D01*
X121166454Y-158268641D01*
X121137986Y-158261862D01*
X121109091Y-158266495D01*
X121084169Y-158281831D01*
X121067012Y-158305538D01*
X121062222Y-158319439D01*
X120892969Y-159030294D01*
X120779078Y-158603199D01*
X120777792Y-158599771D01*
X120777601Y-158598330D01*
X120776609Y-158596617D01*
X120773915Y-158589433D01*
X120767900Y-158581574D01*
X120762939Y-158573006D01*
X120759080Y-158570052D01*
X120756128Y-158566195D01*
X120747563Y-158561236D01*
X120739701Y-158555218D01*
X120735004Y-158553965D01*
X120730803Y-158551533D01*
X120720996Y-158550230D01*
X120711426Y-158547678D01*
X120706607Y-158548318D01*
X120701795Y-158547679D01*
X120692234Y-158550228D01*
X120682417Y-158551533D01*
X120678211Y-158553967D01*
X120673519Y-158555219D01*
X120665659Y-158561234D01*
X120657092Y-158566195D01*
X120654138Y-158570053D01*
X120650281Y-158573006D01*
X120645322Y-158581571D01*
X120639305Y-158589432D01*
X120636608Y-158596621D01*
X120635619Y-158598331D01*
X120635427Y-158599770D01*
X120634142Y-158603199D01*
X120520250Y-159030294D01*
X120350999Y-158319438D01*
X120346209Y-158305538D01*
X120329052Y-158281831D01*
X120304130Y-158266495D01*
X120275235Y-158261862D01*
X120246767Y-158268640D01*
X120223060Y-158285797D01*
X120207724Y-158310719D01*
X120203091Y-158339614D01*
X120004538Y-158339614D01*
X120003954Y-158338446D01*
X119981847Y-158319272D01*
X119968422Y-158313278D01*
X119825565Y-158265659D01*
X119818311Y-158264009D01*
X119816480Y-158263251D01*
X119813825Y-158262989D01*
X119811228Y-158262399D01*
X119809253Y-158262539D01*
X119801848Y-158261810D01*
X119563753Y-158261810D01*
X119549121Y-158263251D01*
X119546632Y-158264281D01*
X119543943Y-158264473D01*
X119530212Y-158269728D01*
X119434974Y-158317347D01*
X119428674Y-158321311D01*
X119426847Y-158322069D01*
X119424790Y-158323757D01*
X119422531Y-158325179D01*
X119421231Y-158326677D01*
X119415482Y-158331396D01*
X119367863Y-158379015D01*
X119363144Y-158384764D01*
X119361646Y-158386064D01*
X119360224Y-158388323D01*
X119358536Y-158390380D01*
X119357778Y-158392207D01*
X119353814Y-158398507D01*
X119306195Y-158493745D01*
X119300940Y-158507477D01*
X119300749Y-158510164D01*
X119299718Y-158512654D01*
X119298277Y-158527286D01*
X119187166Y-158527286D01*
X119187166Y-158150699D01*
X130510329Y-158150699D01*
X130510329Y-159522921D01*
G37*
G36*
X169251421Y-132023599D02*
G01*
X169278032Y-132051226D01*
X169284693Y-132066778D01*
X169286435Y-132105808D01*
X169215725Y-132256587D01*
X169176433Y-132289551D01*
X169150264Y-132301001D01*
X169099976Y-132307356D01*
X169006946Y-132277128D01*
X169006608Y-132276777D01*
X169138326Y-131995907D01*
X169158391Y-131993372D01*
X169251421Y-132023599D01*
G37*
G36*
X171913908Y-131703739D02*
G01*
X171914245Y-131704089D01*
X171782526Y-131984959D01*
X171762462Y-131987494D01*
X171669433Y-131957267D01*
X171642820Y-131929638D01*
X171636160Y-131914089D01*
X171634418Y-131875058D01*
X171705127Y-131724280D01*
X171744421Y-131691315D01*
X171770588Y-131679865D01*
X171820877Y-131673510D01*
X171913908Y-131703739D01*
G37*
G36*
X168173558Y-131673380D02*
G01*
X168173896Y-131673731D01*
X168042177Y-131954601D01*
X168022113Y-131957137D01*
X167929082Y-131926909D01*
X167902470Y-131899283D01*
X167895810Y-131883732D01*
X167894068Y-131844701D01*
X167964777Y-131693923D01*
X168004072Y-131660957D01*
X168030239Y-131649507D01*
X168080529Y-131643154D01*
X168173558Y-131673380D01*
G37*
G36*
X167571222Y-131477669D02*
G01*
X167587709Y-131494786D01*
X167588556Y-131513759D01*
X167402342Y-131491030D01*
X167408407Y-131478097D01*
X167439054Y-131452387D01*
X167478192Y-131447442D01*
X167571222Y-131477669D01*
G37*
G36*
X170814303Y-131556748D02*
G01*
X170768067Y-131655341D01*
X170748002Y-131657876D01*
X170623271Y-131617348D01*
X170606783Y-131600231D01*
X170605694Y-131575854D01*
X170619350Y-131546734D01*
X170649998Y-131521023D01*
X170689135Y-131516078D01*
X170814303Y-131556748D01*
G37*
G36*
X166398253Y-131096549D02*
G01*
X166398591Y-131096900D01*
X166266872Y-131377770D01*
X166246807Y-131380305D01*
X166153778Y-131350078D01*
X166127165Y-131322449D01*
X166120505Y-131306900D01*
X166118763Y-131267869D01*
X166189472Y-131117091D01*
X166228766Y-131084125D01*
X166254933Y-131072676D01*
X166305223Y-131066321D01*
X166398253Y-131096549D01*
G37*
G36*
X170265410Y-131168108D02*
G01*
X170292021Y-131195735D01*
X170298682Y-131211287D01*
X170300424Y-131250317D01*
X170229714Y-131401095D01*
X170190420Y-131434061D01*
X170164255Y-131445511D01*
X170113965Y-131451865D01*
X170052637Y-131431938D01*
X170026025Y-131404311D01*
X170019365Y-131388760D01*
X170017622Y-131349729D01*
X170088332Y-131198951D01*
X170127626Y-131165986D01*
X170153795Y-131154536D01*
X170204082Y-131148182D01*
X170265410Y-131168108D01*
G37*
G36*
X169663074Y-130972398D02*
G01*
X169689685Y-131000023D01*
X169696346Y-131015576D01*
X169698089Y-131054606D01*
X169627379Y-131205385D01*
X169588086Y-131238349D01*
X169561919Y-131249800D01*
X169511629Y-131256154D01*
X169418600Y-131225927D01*
X169418262Y-131225576D01*
X169549980Y-130944706D01*
X169570045Y-130942171D01*
X169663074Y-130972398D01*
G37*
G36*
X164939967Y-130622724D02*
G01*
X164956453Y-130639839D01*
X164957300Y-130658812D01*
X164771086Y-130636083D01*
X164777151Y-130623151D01*
X164807798Y-130597441D01*
X164846936Y-130592495D01*
X164939967Y-130622724D01*
G37*
G36*
X168585212Y-130622180D02*
G01*
X168601698Y-130639295D01*
X168602545Y-130658268D01*
X168416332Y-130635539D01*
X168422397Y-130622608D01*
X168453043Y-130596897D01*
X168492181Y-130591951D01*
X168585212Y-130622180D01*
G37*
G36*
X164369333Y-130437314D02*
G01*
X164369670Y-130437663D01*
X164237951Y-130718534D01*
X164217887Y-130721069D01*
X164124858Y-130690842D01*
X164098245Y-130663213D01*
X164091585Y-130647664D01*
X164089843Y-130608633D01*
X164160552Y-130457855D01*
X164199847Y-130424889D01*
X164226015Y-130413439D01*
X164276301Y-130407085D01*
X164369333Y-130437314D01*
G37*
G36*
X166841609Y-130055649D02*
G01*
X166841946Y-130055999D01*
X166710227Y-130336869D01*
X166690162Y-130339404D01*
X166597132Y-130309177D01*
X166570521Y-130281551D01*
X166563861Y-130265999D01*
X166562118Y-130226967D01*
X166632828Y-130076189D01*
X166672121Y-130043225D01*
X166698289Y-130031775D01*
X166748578Y-130025420D01*
X166841609Y-130055649D01*
G37*
G36*
X163159355Y-130149314D02*
G01*
X163214294Y-130190983D01*
X163218547Y-130200914D01*
X163220289Y-130239945D01*
X163192369Y-130299480D01*
X163153077Y-130332444D01*
X163126908Y-130343894D01*
X163076619Y-130350249D01*
X162919749Y-130299278D01*
X163012461Y-130101585D01*
X163159355Y-130149314D01*
G37*
G36*
X163296206Y-129843291D02*
G01*
X163322817Y-129870918D01*
X163329478Y-129886470D01*
X163331220Y-129925500D01*
X163317563Y-129954621D01*
X163278270Y-129987587D01*
X163252103Y-129999036D01*
X163201814Y-130005391D01*
X163076646Y-129964721D01*
X163155094Y-129797442D01*
X163296206Y-129843291D01*
G37*
G36*
X165510130Y-129623024D02*
G01*
X165526617Y-129640141D01*
X165527464Y-129659113D01*
X165341250Y-129636384D01*
X165347315Y-129623452D01*
X165377962Y-129597742D01*
X165417100Y-129592797D01*
X165510130Y-129623024D01*
G37*
G36*
X161996430Y-129420969D02*
G01*
X162023039Y-129448593D01*
X162029700Y-129464147D01*
X162031443Y-129503178D01*
X162003523Y-129562713D01*
X161964230Y-129595677D01*
X161938063Y-129607128D01*
X161887774Y-129613482D01*
X161730903Y-129562511D01*
X161823615Y-129364818D01*
X161996430Y-129420969D01*
G37*
G36*
X163628884Y-129134442D02*
G01*
X163510743Y-129096056D01*
X163649545Y-128945235D01*
X163628884Y-129134442D01*
G37*
G36*
X161161666Y-128315269D02*
G01*
X161216605Y-128356938D01*
X161220858Y-128366869D01*
X161222600Y-128405900D01*
X161194680Y-128465435D01*
X161155387Y-128498399D01*
X161129220Y-128509850D01*
X161078930Y-128516204D01*
X160922060Y-128465234D01*
X161014772Y-128267540D01*
X161161666Y-128315269D01*
G37*
G36*
X161298517Y-128009247D02*
G01*
X161325128Y-128036874D01*
X161331789Y-128052426D01*
X161333531Y-128091456D01*
X161319876Y-128120575D01*
X161280580Y-128153542D01*
X161254415Y-128164992D01*
X161204125Y-128171346D01*
X161078956Y-128130676D01*
X161157405Y-127963397D01*
X161298517Y-128009247D01*
G37*
G36*
X159127217Y-127671761D02*
G01*
X159009075Y-127633375D01*
X159147877Y-127482554D01*
X159127217Y-127671761D01*
G37*
G36*
X172373256Y-131368149D02*
G01*
X171642169Y-133618205D01*
X169870983Y-133042712D01*
X171046665Y-133042712D01*
X171048792Y-133053707D01*
X171049888Y-133064855D01*
X171051553Y-133067972D01*
X171052225Y-133071442D01*
X171058399Y-133080787D01*
X171063677Y-133090667D01*
X171066407Y-133092909D01*
X171068356Y-133095858D01*
X171077638Y-133102130D01*
X171086294Y-133109237D01*
X171089674Y-133110263D01*
X171092603Y-133112242D01*
X171103577Y-133114484D01*
X171114295Y-133117738D01*
X171117812Y-133117392D01*
X171121275Y-133118100D01*
X171132270Y-133115972D01*
X171143418Y-133114877D01*
X171146535Y-133113211D01*
X171150005Y-133112540D01*
X171159350Y-133106365D01*
X171169230Y-133101088D01*
X171172916Y-133097403D01*
X171174421Y-133096409D01*
X171175482Y-133094837D01*
X171179628Y-133090694D01*
X171339304Y-132896222D01*
X171301404Y-133112564D01*
X171300978Y-133118205D01*
X171300481Y-133120006D01*
X171300705Y-133121826D01*
X171300299Y-133127225D01*
X171302710Y-133138046D01*
X171304070Y-133149048D01*
X171305869Y-133152223D01*
X171306664Y-133155788D01*
X171313032Y-133164861D01*
X171318499Y-133174507D01*
X171321378Y-133176753D01*
X171323475Y-133179740D01*
X171332831Y-133185686D01*
X171341574Y-133192506D01*
X171345091Y-133193478D01*
X171348173Y-133195437D01*
X171359094Y-133197350D01*
X171369779Y-133200304D01*
X171373402Y-133199856D01*
X171376998Y-133200486D01*
X171387819Y-133198074D01*
X171398821Y-133196715D01*
X171401996Y-133194915D01*
X171405561Y-133194121D01*
X171414634Y-133187752D01*
X171424280Y-133182286D01*
X171428014Y-133178361D01*
X171429513Y-133177310D01*
X171430513Y-133175735D01*
X171434416Y-133171635D01*
X171892454Y-132584437D01*
X171900317Y-132572013D01*
X171908115Y-132543808D01*
X171904526Y-132514766D01*
X171890097Y-132489307D01*
X171867022Y-132471308D01*
X171838817Y-132463510D01*
X171809775Y-132467099D01*
X171784316Y-132481528D01*
X171774181Y-132492179D01*
X171501025Y-132842359D01*
X171536296Y-132641032D01*
X171536603Y-132636954D01*
X171537058Y-132635457D01*
X171536864Y-132633487D01*
X171537401Y-132626370D01*
X171535190Y-132616452D01*
X171534197Y-132606335D01*
X171532034Y-132602285D01*
X171531036Y-132597807D01*
X171525199Y-132589491D01*
X171520409Y-132580523D01*
X171516859Y-132577608D01*
X171514225Y-132573855D01*
X171505652Y-132568407D01*
X171497792Y-132561953D01*
X171493397Y-132560619D01*
X171489527Y-132558159D01*
X171479519Y-132556405D01*
X171469790Y-132553452D01*
X171465221Y-132553900D01*
X171460702Y-132553109D01*
X171450786Y-132555318D01*
X171440667Y-132556313D01*
X171436615Y-132558477D01*
X171432139Y-132559475D01*
X171423827Y-132565308D01*
X171414856Y-132570101D01*
X171409802Y-132575152D01*
X171408187Y-132576286D01*
X171407349Y-132577604D01*
X171404457Y-132580495D01*
X171255719Y-132761645D01*
X171336165Y-132367911D01*
X171337682Y-132353287D01*
X171332122Y-132324556D01*
X171315991Y-132300141D01*
X171291744Y-132283757D01*
X171263072Y-132277899D01*
X171234342Y-132283459D01*
X171209926Y-132299590D01*
X171193542Y-132323837D01*
X171189201Y-132337884D01*
X171048182Y-133028088D01*
X171047576Y-133033920D01*
X171047027Y-133035732D01*
X171047203Y-133037524D01*
X171046665Y-133042712D01*
X169870983Y-133042712D01*
X169179314Y-132817975D01*
X170381444Y-132817975D01*
X170383740Y-132847149D01*
X170397025Y-132873222D01*
X170419277Y-132892227D01*
X170432748Y-132898119D01*
X170496152Y-132918720D01*
X170502563Y-132920126D01*
X170504369Y-132920884D01*
X170507469Y-132921203D01*
X170510513Y-132921871D01*
X170512463Y-132921717D01*
X170518994Y-132922390D01*
X170628363Y-132922877D01*
X170643001Y-132921501D01*
X170643856Y-132921151D01*
X170644781Y-132921133D01*
X170658763Y-132916588D01*
X170750693Y-132876361D01*
X170763520Y-132869175D01*
X170764093Y-132868578D01*
X170764845Y-132868230D01*
X170775814Y-132858439D01*
X170850306Y-132777496D01*
X170854078Y-132772489D01*
X170855505Y-132771188D01*
X170857177Y-132768376D01*
X170859154Y-132765754D01*
X170859820Y-132763935D01*
X170863023Y-132758553D01*
X171076973Y-132302338D01*
X171081881Y-132288479D01*
X171083221Y-132259246D01*
X171073272Y-132231726D01*
X171053550Y-132210107D01*
X171027054Y-132197682D01*
X170997821Y-132196342D01*
X170970302Y-132206290D01*
X170948683Y-132226013D01*
X170941165Y-132238649D01*
X170732114Y-132684415D01*
X170676117Y-132745261D01*
X170613164Y-132772808D01*
X170531369Y-132772444D01*
X170479100Y-132755461D01*
X170464739Y-132752310D01*
X170435565Y-132754606D01*
X170409492Y-132767891D01*
X170390487Y-132790143D01*
X170381444Y-132817975D01*
X169179314Y-132817975D01*
X168830923Y-132704776D01*
X169266809Y-132704776D01*
X169270477Y-132733809D01*
X169284977Y-132759228D01*
X169308100Y-132777163D01*
X169336326Y-132784885D01*
X169351023Y-132784480D01*
X169428690Y-132774667D01*
X169433601Y-132773549D01*
X169435373Y-132773514D01*
X169439148Y-132772286D01*
X169443026Y-132771404D01*
X169444567Y-132770524D01*
X169449356Y-132768968D01*
X169495321Y-132748855D01*
X169504749Y-132743572D01*
X169506157Y-132743010D01*
X169507096Y-132742258D01*
X169508148Y-132741669D01*
X169509200Y-132740574D01*
X169517636Y-132733822D01*
X169652356Y-132602351D01*
X169653181Y-132601369D01*
X169654160Y-132600530D01*
X170012356Y-132226231D01*
X170021431Y-132214664D01*
X170032033Y-132187388D01*
X170031390Y-132158132D01*
X170019600Y-132131349D01*
X169998457Y-132111116D01*
X169971182Y-132100514D01*
X169941926Y-132101157D01*
X169915142Y-132112947D01*
X169903985Y-132122522D01*
X169692996Y-132342994D01*
X169715873Y-132077817D01*
X169715695Y-132063115D01*
X169706862Y-132035217D01*
X169688025Y-132012823D01*
X169662051Y-131999342D01*
X169632896Y-131996826D01*
X169604997Y-132005660D01*
X169582603Y-132024497D01*
X169569122Y-132050471D01*
X169566429Y-132064925D01*
X169527647Y-132514462D01*
X169422657Y-132616918D01*
X169399143Y-132627208D01*
X169332221Y-132635664D01*
X169317885Y-132638927D01*
X169292466Y-132653427D01*
X169274531Y-132676550D01*
X169266809Y-132704776D01*
X168830923Y-132704776D01*
X167687668Y-132333310D01*
X168828381Y-132333310D01*
X168838330Y-132360830D01*
X168858053Y-132382448D01*
X168884548Y-132394874D01*
X168913699Y-132396210D01*
X168923110Y-132404233D01*
X168926488Y-132405706D01*
X168929290Y-132408100D01*
X168942760Y-132413992D01*
X169069567Y-132455195D01*
X169083928Y-132458346D01*
X169085716Y-132458205D01*
X169087449Y-132458679D01*
X169102146Y-132458274D01*
X169179814Y-132448460D01*
X169184724Y-132447342D01*
X169186494Y-132447307D01*
X169190272Y-132446078D01*
X169194150Y-132445196D01*
X169195688Y-132444318D01*
X169200477Y-132442762D01*
X169246442Y-132422649D01*
X169250768Y-132420224D01*
X169252444Y-132419697D01*
X169255760Y-132417428D01*
X169259269Y-132415463D01*
X169260486Y-132414195D01*
X169264579Y-132411397D01*
X169324809Y-132360869D01*
X169335092Y-132350361D01*
X169335823Y-132348956D01*
X169336991Y-132347891D01*
X169344509Y-132335256D01*
X169430089Y-132152769D01*
X169434997Y-132138910D01*
X169435154Y-132135483D01*
X169436323Y-132132262D01*
X169437110Y-132117581D01*
X169433935Y-132046452D01*
X169432407Y-132035824D01*
X169432389Y-132034285D01*
X169432017Y-132033110D01*
X169431843Y-132031898D01*
X169431194Y-132030510D01*
X169427952Y-132020267D01*
X169410513Y-131979552D01*
X169405239Y-131969963D01*
X169404700Y-131968588D01*
X169403986Y-131967684D01*
X169403428Y-131966669D01*
X169402363Y-131965629D01*
X169395587Y-131957050D01*
X169346446Y-131906034D01*
X169335258Y-131896495D01*
X169331878Y-131895020D01*
X169329077Y-131892628D01*
X169315606Y-131886736D01*
X169261763Y-131869241D01*
X171047041Y-131869241D01*
X171056990Y-131896761D01*
X171076713Y-131918379D01*
X171103208Y-131930805D01*
X171132441Y-131932145D01*
X171159961Y-131922196D01*
X171181579Y-131902473D01*
X171189097Y-131889838D01*
X171201549Y-131863286D01*
X171483744Y-131863286D01*
X171486919Y-131934416D01*
X171488446Y-131945042D01*
X171488465Y-131946583D01*
X171488836Y-131947757D01*
X171489011Y-131948969D01*
X171489659Y-131950355D01*
X171492902Y-131960600D01*
X171510341Y-132001316D01*
X171515609Y-132010893D01*
X171516153Y-132012279D01*
X171516872Y-132013189D01*
X171517427Y-132014198D01*
X171518482Y-132015228D01*
X171525266Y-132023817D01*
X171574406Y-132074832D01*
X171585594Y-132084371D01*
X171588973Y-132085845D01*
X171591776Y-132088239D01*
X171605247Y-132094131D01*
X171732055Y-132135333D01*
X171746416Y-132138484D01*
X171748203Y-132138343D01*
X171749935Y-132138817D01*
X171764632Y-132138412D01*
X171767787Y-132138013D01*
X171774154Y-132144991D01*
X171800649Y-132157417D01*
X171829882Y-132158757D01*
X171857402Y-132148808D01*
X171879020Y-132129085D01*
X171886538Y-132116450D01*
X172186068Y-131477750D01*
X172190976Y-131463891D01*
X172192316Y-131434658D01*
X172182367Y-131407138D01*
X172162644Y-131385519D01*
X172136149Y-131373094D01*
X172106916Y-131371754D01*
X172079396Y-131381702D01*
X172057777Y-131401425D01*
X172050260Y-131414061D01*
X171978509Y-131567056D01*
X171978094Y-131566875D01*
X171851286Y-131525672D01*
X171836924Y-131522521D01*
X171835135Y-131522661D01*
X171833404Y-131522188D01*
X171818707Y-131522593D01*
X171741040Y-131532407D01*
X171736129Y-131533524D01*
X171734359Y-131533560D01*
X171730578Y-131534788D01*
X171726704Y-131535671D01*
X171725166Y-131536548D01*
X171720377Y-131538105D01*
X171674411Y-131558218D01*
X171670084Y-131560642D01*
X171668409Y-131561170D01*
X171665090Y-131563439D01*
X171661584Y-131565404D01*
X171660367Y-131566669D01*
X171656273Y-131569470D01*
X171596045Y-131619998D01*
X171585762Y-131630507D01*
X171585032Y-131631908D01*
X171583863Y-131632975D01*
X171576345Y-131645611D01*
X171490765Y-131828097D01*
X171485857Y-131841957D01*
X171485699Y-131845383D01*
X171484531Y-131848605D01*
X171483744Y-131863286D01*
X171201549Y-131863286D01*
X171324704Y-131600674D01*
X171363999Y-131567708D01*
X171390168Y-131556258D01*
X171440455Y-131549904D01*
X171487915Y-131565325D01*
X171502276Y-131568476D01*
X171531450Y-131566180D01*
X171557523Y-131552895D01*
X171576528Y-131530643D01*
X171585571Y-131502811D01*
X171583275Y-131473638D01*
X171569990Y-131447564D01*
X171547738Y-131428559D01*
X171534267Y-131422667D01*
X171470863Y-131402066D01*
X171456502Y-131398915D01*
X171454713Y-131399055D01*
X171452982Y-131398582D01*
X171438285Y-131398987D01*
X171389329Y-131405172D01*
X171385082Y-131393424D01*
X171365359Y-131371805D01*
X171338864Y-131359380D01*
X171309631Y-131358040D01*
X171282111Y-131367989D01*
X171260493Y-131387712D01*
X171252975Y-131400347D01*
X171053289Y-131826148D01*
X171048381Y-131840008D01*
X171047041Y-131869241D01*
X169261763Y-131869241D01*
X169206196Y-131851186D01*
X169269966Y-131715207D01*
X169274874Y-131701347D01*
X169276214Y-131672114D01*
X169266265Y-131644594D01*
X169246542Y-131622975D01*
X169220047Y-131610550D01*
X169190814Y-131609210D01*
X169163294Y-131619159D01*
X169141676Y-131638882D01*
X169134158Y-131651517D01*
X168834629Y-132290217D01*
X168829721Y-132304077D01*
X168828381Y-132333310D01*
X167687668Y-132333310D01*
X165370600Y-131580449D01*
X165858263Y-131580449D01*
X165868954Y-131607690D01*
X165878067Y-131619228D01*
X165927207Y-131670243D01*
X165938396Y-131679782D01*
X165941773Y-131681255D01*
X165944576Y-131683649D01*
X165958047Y-131689541D01*
X166053152Y-131720443D01*
X166067513Y-131723594D01*
X166069301Y-131723453D01*
X166071033Y-131723927D01*
X166085730Y-131723522D01*
X166163397Y-131713709D01*
X166168308Y-131712591D01*
X166170080Y-131712556D01*
X166173855Y-131711328D01*
X166177733Y-131710446D01*
X166179274Y-131709566D01*
X166184063Y-131708010D01*
X166230028Y-131687897D01*
X166234356Y-131685472D01*
X166236029Y-131684945D01*
X166239341Y-131682679D01*
X166242855Y-131680711D01*
X166244074Y-131679442D01*
X166248164Y-131676645D01*
X166308394Y-131626117D01*
X166318677Y-131615609D01*
X166319408Y-131614204D01*
X166320576Y-131613139D01*
X166328094Y-131600504D01*
X166332237Y-131591670D01*
X166545846Y-131591670D01*
X166555795Y-131619190D01*
X166575518Y-131640808D01*
X166602013Y-131653234D01*
X166631246Y-131654574D01*
X166658766Y-131644625D01*
X166680384Y-131624902D01*
X166687902Y-131612267D01*
X166847078Y-131272846D01*
X166857271Y-131268386D01*
X166907557Y-131262032D01*
X166968887Y-131281960D01*
X166985374Y-131299075D01*
X166986462Y-131323452D01*
X166837411Y-131641282D01*
X166832503Y-131655142D01*
X166831163Y-131684375D01*
X166841112Y-131711895D01*
X166860835Y-131733513D01*
X166887330Y-131745939D01*
X166916563Y-131747279D01*
X166944083Y-131737330D01*
X166965701Y-131717607D01*
X166973219Y-131704972D01*
X166985899Y-131677933D01*
X167158497Y-131677933D01*
X167161672Y-131749063D01*
X167162813Y-131757005D01*
X167162777Y-131758969D01*
X167163280Y-131760251D01*
X167163764Y-131763616D01*
X167168972Y-131774758D01*
X167173467Y-131786211D01*
X167175573Y-131788878D01*
X167176157Y-131790126D01*
X167177605Y-131791450D01*
X167182580Y-131797749D01*
X167231720Y-131848764D01*
X167242908Y-131858303D01*
X167246287Y-131859777D01*
X167249090Y-131862171D01*
X167262561Y-131868063D01*
X167389369Y-131909265D01*
X167403730Y-131912416D01*
X167405517Y-131912275D01*
X167407249Y-131912749D01*
X167421946Y-131912344D01*
X167499613Y-131902531D01*
X167513949Y-131899268D01*
X167539368Y-131884768D01*
X167557303Y-131861646D01*
X167565024Y-131833419D01*
X167564962Y-131832929D01*
X167743394Y-131832929D01*
X167746569Y-131904059D01*
X167748096Y-131914685D01*
X167748115Y-131916226D01*
X167748486Y-131917400D01*
X167748661Y-131918612D01*
X167749309Y-131919998D01*
X167752552Y-131930243D01*
X167769991Y-131970959D01*
X167775262Y-131980542D01*
X167775804Y-131981922D01*
X167776520Y-131982828D01*
X167777077Y-131983841D01*
X167778137Y-131984876D01*
X167784917Y-131993460D01*
X167834057Y-132044475D01*
X167845246Y-132054014D01*
X167848623Y-132055487D01*
X167851426Y-132057881D01*
X167864896Y-132063773D01*
X167991704Y-132104976D01*
X168006066Y-132108127D01*
X168007854Y-132107986D01*
X168009586Y-132108460D01*
X168024283Y-132108055D01*
X168027438Y-132107656D01*
X168033805Y-132114634D01*
X168060300Y-132127060D01*
X168089533Y-132128400D01*
X168117053Y-132118451D01*
X168138671Y-132098728D01*
X168146189Y-132086093D01*
X168445718Y-131447391D01*
X168450626Y-131433532D01*
X168451966Y-131404299D01*
X168442017Y-131376779D01*
X168422294Y-131355160D01*
X168395799Y-131342735D01*
X168366566Y-131341395D01*
X168339046Y-131351344D01*
X168317428Y-131371067D01*
X168309910Y-131383702D01*
X168238159Y-131536699D01*
X168237743Y-131536517D01*
X168110936Y-131495315D01*
X168096575Y-131492164D01*
X168094787Y-131492304D01*
X168093056Y-131491831D01*
X168078358Y-131492236D01*
X168000691Y-131502049D01*
X167995779Y-131503166D01*
X167994007Y-131503202D01*
X167990230Y-131504429D01*
X167986355Y-131505312D01*
X167984814Y-131506190D01*
X167980025Y-131507748D01*
X167934060Y-131527862D01*
X167929735Y-131530284D01*
X167928059Y-131530813D01*
X167924736Y-131533084D01*
X167921233Y-131535048D01*
X167920017Y-131536312D01*
X167915923Y-131539113D01*
X167855695Y-131589641D01*
X167845412Y-131600150D01*
X167844682Y-131601551D01*
X167843513Y-131602618D01*
X167835995Y-131615254D01*
X167750415Y-131797740D01*
X167745507Y-131811600D01*
X167745349Y-131815026D01*
X167744181Y-131818248D01*
X167743394Y-131832929D01*
X167564962Y-131832929D01*
X167561356Y-131804386D01*
X167546857Y-131778967D01*
X167523734Y-131761032D01*
X167495507Y-131753310D01*
X167480810Y-131753715D01*
X167419776Y-131761426D01*
X167326747Y-131731199D01*
X167310259Y-131714082D01*
X167309170Y-131689704D01*
X167335312Y-131633961D01*
X167626933Y-131669557D01*
X167641632Y-131669899D01*
X167644398Y-131669129D01*
X167647268Y-131669261D01*
X167658410Y-131665232D01*
X167669826Y-131662058D01*
X167672088Y-131660288D01*
X167674788Y-131659312D01*
X167683535Y-131651331D01*
X167692873Y-131644026D01*
X167694286Y-131641523D01*
X167696406Y-131639590D01*
X167703924Y-131626954D01*
X167732451Y-131566125D01*
X167737359Y-131552265D01*
X167737516Y-131548838D01*
X167738685Y-131545617D01*
X167739472Y-131530936D01*
X167736297Y-131459807D01*
X167735155Y-131451863D01*
X167735192Y-131449899D01*
X167734688Y-131448615D01*
X167734205Y-131445253D01*
X167728994Y-131434107D01*
X167724501Y-131422658D01*
X167722395Y-131419992D01*
X167721812Y-131418744D01*
X167720362Y-131417418D01*
X167715388Y-131411120D01*
X167666247Y-131360104D01*
X167655059Y-131350565D01*
X167651679Y-131349090D01*
X167648878Y-131346698D01*
X167635407Y-131340806D01*
X167508600Y-131299604D01*
X167494239Y-131296453D01*
X167492450Y-131296593D01*
X167490719Y-131296120D01*
X167476022Y-131296525D01*
X167398356Y-131306338D01*
X167384020Y-131309601D01*
X167378140Y-131312954D01*
X167371690Y-131314988D01*
X167359554Y-131323288D01*
X167299325Y-131373816D01*
X167289041Y-131384324D01*
X167288310Y-131385727D01*
X167287141Y-131386794D01*
X167279624Y-131399430D01*
X167165518Y-131642745D01*
X167160610Y-131656604D01*
X167160452Y-131660030D01*
X167159284Y-131663252D01*
X167158497Y-131677933D01*
X166985899Y-131677933D01*
X167130116Y-131370414D01*
X167135024Y-131356554D01*
X167135181Y-131353126D01*
X167136350Y-131349905D01*
X167137137Y-131335224D01*
X167135254Y-131293055D01*
X168568897Y-131293055D01*
X168572565Y-131322088D01*
X168587065Y-131347507D01*
X168610188Y-131365442D01*
X168638414Y-131373164D01*
X168653111Y-131372759D01*
X168730778Y-131362946D01*
X168735689Y-131361828D01*
X168737461Y-131361793D01*
X168741236Y-131360565D01*
X168745114Y-131359683D01*
X168746655Y-131358803D01*
X168751444Y-131357247D01*
X168797409Y-131337134D01*
X168806837Y-131331851D01*
X168808245Y-131331289D01*
X168809183Y-131330537D01*
X168810236Y-131329948D01*
X168811289Y-131328852D01*
X168819723Y-131322101D01*
X168860704Y-131282109D01*
X169240035Y-131282109D01*
X169249984Y-131309629D01*
X169269707Y-131331247D01*
X169296202Y-131343673D01*
X169325353Y-131345009D01*
X169334764Y-131353032D01*
X169338141Y-131354505D01*
X169340944Y-131356899D01*
X169354415Y-131362791D01*
X169481222Y-131403993D01*
X169495583Y-131407144D01*
X169497370Y-131407003D01*
X169499102Y-131407477D01*
X169513799Y-131407072D01*
X169591466Y-131397259D01*
X169596377Y-131396141D01*
X169598149Y-131396106D01*
X169601924Y-131394878D01*
X169605802Y-131393996D01*
X169607343Y-131393116D01*
X169612132Y-131391560D01*
X169658097Y-131371447D01*
X169662425Y-131369022D01*
X169664098Y-131368495D01*
X169667410Y-131366229D01*
X169670924Y-131364261D01*
X169672143Y-131362992D01*
X169676233Y-131360195D01*
X169702740Y-131337958D01*
X169866949Y-131337958D01*
X169870124Y-131409088D01*
X169871651Y-131419715D01*
X169871670Y-131421253D01*
X169872041Y-131422426D01*
X169872216Y-131423641D01*
X169872865Y-131425029D01*
X169876106Y-131435271D01*
X169893544Y-131475986D01*
X169898817Y-131485575D01*
X169899358Y-131486952D01*
X169900071Y-131487855D01*
X169900629Y-131488869D01*
X169901691Y-131489905D01*
X169908471Y-131498490D01*
X169957612Y-131549504D01*
X169968801Y-131559043D01*
X169972178Y-131560516D01*
X169974981Y-131562910D01*
X169988452Y-131568802D01*
X170083557Y-131599704D01*
X170097918Y-131602855D01*
X170099706Y-131602714D01*
X170101438Y-131603188D01*
X170116135Y-131602783D01*
X170193802Y-131592970D01*
X170198713Y-131591852D01*
X170200485Y-131591817D01*
X170204260Y-131590589D01*
X170208138Y-131589707D01*
X170209679Y-131588827D01*
X170214468Y-131587271D01*
X170260433Y-131567158D01*
X170264761Y-131564733D01*
X170266434Y-131564206D01*
X170266614Y-131564083D01*
X170455021Y-131564083D01*
X170458196Y-131635213D01*
X170459337Y-131643155D01*
X170459301Y-131645121D01*
X170459804Y-131646404D01*
X170460288Y-131649766D01*
X170465497Y-131660908D01*
X170469992Y-131672362D01*
X170472097Y-131675027D01*
X170472681Y-131676276D01*
X170474129Y-131677601D01*
X170479105Y-131683900D01*
X170528246Y-131734914D01*
X170539435Y-131744453D01*
X170542812Y-131745926D01*
X170545615Y-131748320D01*
X170559086Y-131754212D01*
X170717594Y-131805715D01*
X170731955Y-131808866D01*
X170733743Y-131808725D01*
X170735475Y-131809199D01*
X170750172Y-131808794D01*
X170753328Y-131808395D01*
X170759695Y-131815373D01*
X170786190Y-131827799D01*
X170815423Y-131829139D01*
X170842943Y-131819190D01*
X170864561Y-131799467D01*
X170872079Y-131786832D01*
X171028975Y-131452274D01*
X171033883Y-131438415D01*
X171034040Y-131434988D01*
X171035209Y-131431767D01*
X171035996Y-131417086D01*
X171032821Y-131345957D01*
X171031679Y-131338013D01*
X171031716Y-131336049D01*
X171031212Y-131334765D01*
X171030729Y-131331403D01*
X171025518Y-131320257D01*
X171021025Y-131308808D01*
X171018919Y-131306142D01*
X171018336Y-131304894D01*
X171016886Y-131303568D01*
X171011912Y-131297270D01*
X170962771Y-131246254D01*
X170951583Y-131236715D01*
X170948203Y-131235240D01*
X170945402Y-131232848D01*
X170931931Y-131226956D01*
X170805124Y-131185754D01*
X170790763Y-131182603D01*
X170788974Y-131182743D01*
X170787243Y-131182270D01*
X170772546Y-131182675D01*
X170694880Y-131192488D01*
X170680544Y-131195751D01*
X170655125Y-131210251D01*
X170637190Y-131233374D01*
X170629468Y-131261600D01*
X170633136Y-131290633D01*
X170647636Y-131316052D01*
X170670759Y-131333987D01*
X170698985Y-131341709D01*
X170713682Y-131341304D01*
X170774716Y-131333592D01*
X170867746Y-131363819D01*
X170884233Y-131380936D01*
X170885321Y-131405313D01*
X170882173Y-131412026D01*
X170862108Y-131414562D01*
X170719544Y-131368240D01*
X170705183Y-131365089D01*
X170703394Y-131365229D01*
X170701663Y-131364756D01*
X170686966Y-131365161D01*
X170609300Y-131374974D01*
X170594964Y-131378237D01*
X170589084Y-131381590D01*
X170582634Y-131383624D01*
X170570498Y-131391924D01*
X170510269Y-131442452D01*
X170499985Y-131452960D01*
X170499254Y-131454363D01*
X170498085Y-131455430D01*
X170490568Y-131468066D01*
X170462042Y-131528895D01*
X170457134Y-131542755D01*
X170456976Y-131546180D01*
X170455808Y-131549402D01*
X170455021Y-131564083D01*
X170266614Y-131564083D01*
X170269747Y-131561939D01*
X170273260Y-131559972D01*
X170274478Y-131558704D01*
X170278570Y-131555906D01*
X170338798Y-131505378D01*
X170349081Y-131494870D01*
X170349812Y-131493465D01*
X170350980Y-131492400D01*
X170358498Y-131479765D01*
X170444078Y-131297278D01*
X170448986Y-131283419D01*
X170449143Y-131279992D01*
X170450312Y-131276771D01*
X170451099Y-131262090D01*
X170447924Y-131190961D01*
X170446396Y-131180333D01*
X170446378Y-131178794D01*
X170446006Y-131177619D01*
X170445832Y-131176407D01*
X170445183Y-131175019D01*
X170441941Y-131164776D01*
X170424502Y-131124061D01*
X170419232Y-131114478D01*
X170418690Y-131113097D01*
X170417973Y-131112189D01*
X170417417Y-131111178D01*
X170416355Y-131110141D01*
X170409577Y-131101559D01*
X170360437Y-131050543D01*
X170349248Y-131041005D01*
X170345870Y-131039531D01*
X170343066Y-131037136D01*
X170329596Y-131031245D01*
X170234490Y-131000344D01*
X170220129Y-130997193D01*
X170218340Y-130997333D01*
X170216609Y-130996860D01*
X170201912Y-130997265D01*
X170124246Y-131007078D01*
X170119334Y-131008195D01*
X170117562Y-131008231D01*
X170113785Y-131009458D01*
X170109910Y-131010341D01*
X170108369Y-131011219D01*
X170103580Y-131012777D01*
X170057615Y-131032891D01*
X170053289Y-131035314D01*
X170051615Y-131035842D01*
X170048297Y-131038110D01*
X170044788Y-131040077D01*
X170043570Y-131041343D01*
X170039479Y-131044142D01*
X169979250Y-131094670D01*
X169968966Y-131105178D01*
X169968235Y-131106581D01*
X169967066Y-131107648D01*
X169959549Y-131120284D01*
X169873970Y-131302770D01*
X169869062Y-131316629D01*
X169868904Y-131320055D01*
X169867736Y-131323277D01*
X169866949Y-131337958D01*
X169702740Y-131337958D01*
X169736463Y-131309667D01*
X169746746Y-131299159D01*
X169747477Y-131297754D01*
X169748645Y-131296689D01*
X169756163Y-131284054D01*
X169841743Y-131101567D01*
X169846651Y-131087708D01*
X169846808Y-131084280D01*
X169847977Y-131081059D01*
X169848764Y-131066378D01*
X169845588Y-130995248D01*
X169844060Y-130984615D01*
X169844042Y-130983084D01*
X169843670Y-130981910D01*
X169843496Y-130980695D01*
X169842846Y-130979305D01*
X169839606Y-130969066D01*
X169822168Y-130928351D01*
X169816895Y-130918765D01*
X169816354Y-130917385D01*
X169815637Y-130916477D01*
X169815082Y-130915468D01*
X169814024Y-130914435D01*
X169807241Y-130905847D01*
X169758100Y-130854832D01*
X169746911Y-130845294D01*
X169743533Y-130843820D01*
X169740731Y-130841427D01*
X169727260Y-130835535D01*
X169617849Y-130799985D01*
X169681620Y-130664004D01*
X169686528Y-130650145D01*
X169687868Y-130620912D01*
X169677919Y-130593392D01*
X169658196Y-130571773D01*
X169631701Y-130559348D01*
X169602468Y-130558008D01*
X169574948Y-130567957D01*
X169553330Y-130587680D01*
X169545812Y-130600315D01*
X169246283Y-131239016D01*
X169241375Y-131252876D01*
X169240035Y-131282109D01*
X168860704Y-131282109D01*
X168954444Y-131190631D01*
X168955270Y-131189648D01*
X168956249Y-131188809D01*
X169314444Y-130814511D01*
X169323519Y-130802943D01*
X169334121Y-130775667D01*
X169333478Y-130746411D01*
X169321688Y-130719628D01*
X169300545Y-130699395D01*
X169273269Y-130688793D01*
X169244013Y-130689436D01*
X169217230Y-130701226D01*
X169206072Y-130710801D01*
X168995084Y-130931273D01*
X169017961Y-130666096D01*
X169017783Y-130651394D01*
X169008950Y-130623496D01*
X168990113Y-130601102D01*
X168964139Y-130587621D01*
X168934983Y-130585105D01*
X168907085Y-130593939D01*
X168884691Y-130612776D01*
X168871210Y-130638750D01*
X168868517Y-130653204D01*
X168829736Y-131102741D01*
X168724746Y-131205197D01*
X168701231Y-131215487D01*
X168634309Y-131223943D01*
X168619973Y-131227206D01*
X168594554Y-131241706D01*
X168576619Y-131264829D01*
X168568897Y-131293055D01*
X167135254Y-131293055D01*
X167133961Y-131264094D01*
X167132819Y-131256151D01*
X167132856Y-131254188D01*
X167132352Y-131252905D01*
X167131869Y-131249541D01*
X167126661Y-131238403D01*
X167122166Y-131226947D01*
X167120056Y-131224276D01*
X167119475Y-131223032D01*
X167118030Y-131221710D01*
X167113053Y-131215409D01*
X167063912Y-131164394D01*
X167052724Y-131154855D01*
X167049344Y-131153380D01*
X167046543Y-131150988D01*
X167033072Y-131145096D01*
X166937966Y-131114194D01*
X166923605Y-131111043D01*
X166921816Y-131111183D01*
X166920085Y-131110710D01*
X166905388Y-131111115D01*
X166882233Y-131114040D01*
X166864164Y-131094234D01*
X166837669Y-131081809D01*
X166808436Y-131080469D01*
X166780916Y-131090418D01*
X166759298Y-131110141D01*
X166751780Y-131122776D01*
X166552094Y-131548577D01*
X166547186Y-131562437D01*
X166545846Y-131591670D01*
X166332237Y-131591670D01*
X166570570Y-131083461D01*
X166575478Y-131069601D01*
X166576818Y-131040368D01*
X166566869Y-131012849D01*
X166547146Y-130991230D01*
X166520651Y-130978804D01*
X166491500Y-130977467D01*
X166482089Y-130969445D01*
X166478710Y-130967971D01*
X166475909Y-130965578D01*
X166462439Y-130959686D01*
X166335632Y-130918483D01*
X166321271Y-130915332D01*
X166319482Y-130915472D01*
X166317750Y-130914999D01*
X166303053Y-130915404D01*
X166225386Y-130925218D01*
X166220480Y-130926334D01*
X166218706Y-130926370D01*
X166214919Y-130927600D01*
X166211050Y-130928482D01*
X166209513Y-130929358D01*
X166204723Y-130930916D01*
X166158757Y-130951029D01*
X166154430Y-130953452D01*
X166152754Y-130953981D01*
X166149436Y-130956249D01*
X166145930Y-130958214D01*
X166144712Y-130959480D01*
X166140618Y-130962281D01*
X166080390Y-131012809D01*
X166070107Y-131023318D01*
X166069377Y-131024719D01*
X166068208Y-131025786D01*
X166060690Y-131038422D01*
X165975110Y-131220908D01*
X165970202Y-131234768D01*
X165970044Y-131238194D01*
X165968876Y-131241416D01*
X165968089Y-131256097D01*
X165971264Y-131327227D01*
X165972791Y-131337853D01*
X165972810Y-131339394D01*
X165973181Y-131340568D01*
X165973356Y-131341780D01*
X165974004Y-131343166D01*
X165977247Y-131353411D01*
X165994686Y-131394127D01*
X165999954Y-131403704D01*
X166000498Y-131405090D01*
X166001217Y-131406000D01*
X166001772Y-131407009D01*
X166002827Y-131408039D01*
X166009611Y-131416628D01*
X166058751Y-131467643D01*
X166069939Y-131477182D01*
X166073318Y-131478656D01*
X166076121Y-131481050D01*
X166089592Y-131486942D01*
X166198661Y-131522380D01*
X166160017Y-131554799D01*
X166133850Y-131566250D01*
X166083560Y-131572604D01*
X166022232Y-131552677D01*
X165986099Y-131515166D01*
X165974911Y-131505627D01*
X165948089Y-131493925D01*
X165918831Y-131493377D01*
X165891590Y-131504068D01*
X165870513Y-131524369D01*
X165858811Y-131551191D01*
X165858263Y-131580449D01*
X165370600Y-131580449D01*
X164485781Y-131292954D01*
X165626492Y-131292954D01*
X165636441Y-131320474D01*
X165656164Y-131342092D01*
X165682659Y-131354518D01*
X165711892Y-131355858D01*
X165739412Y-131345909D01*
X165761030Y-131326186D01*
X165768548Y-131313551D01*
X165968234Y-130887749D01*
X165973142Y-130873890D01*
X165974482Y-130844657D01*
X165964533Y-130817137D01*
X165944810Y-130795518D01*
X165918315Y-130783093D01*
X165889082Y-130781753D01*
X165861562Y-130791702D01*
X165839944Y-130811425D01*
X165832426Y-130824060D01*
X165632740Y-131249861D01*
X165627832Y-131263721D01*
X165626492Y-131292954D01*
X164485781Y-131292954D01*
X163827711Y-131079134D01*
X165070453Y-131079134D01*
X165081144Y-131106375D01*
X165090257Y-131117913D01*
X165139398Y-131168927D01*
X165150587Y-131178466D01*
X165153965Y-131179939D01*
X165156767Y-131182333D01*
X165170237Y-131188225D01*
X165297044Y-131229428D01*
X165311405Y-131232579D01*
X165313193Y-131232438D01*
X165314926Y-131232912D01*
X165329623Y-131232507D01*
X165407291Y-131222693D01*
X165421627Y-131219429D01*
X165427503Y-131216076D01*
X165433956Y-131214043D01*
X165446091Y-131205743D01*
X165506321Y-131155215D01*
X165516604Y-131144707D01*
X165517334Y-131143303D01*
X165518504Y-131142237D01*
X165526021Y-131129601D01*
X165540284Y-131099188D01*
X165545192Y-131085328D01*
X165545349Y-131081901D01*
X165546518Y-131078680D01*
X165547305Y-131063999D01*
X165544130Y-130992870D01*
X165542988Y-130984926D01*
X165543025Y-130982962D01*
X165542521Y-130981678D01*
X165542038Y-130978316D01*
X165536827Y-130967170D01*
X165532334Y-130955721D01*
X165530228Y-130953055D01*
X165529645Y-130951807D01*
X165528195Y-130950481D01*
X165523221Y-130944183D01*
X165474080Y-130893167D01*
X165462892Y-130883628D01*
X165459510Y-130882152D01*
X165456710Y-130879761D01*
X165443240Y-130873869D01*
X165365967Y-130848761D01*
X165349480Y-130831645D01*
X165348425Y-130808024D01*
X165378432Y-130782851D01*
X165417570Y-130777906D01*
X165478898Y-130797832D01*
X165515031Y-130835344D01*
X165526219Y-130844883D01*
X165553041Y-130856586D01*
X165582299Y-130857134D01*
X165609540Y-130846444D01*
X165630617Y-130826142D01*
X165642320Y-130799320D01*
X165642868Y-130770062D01*
X165632178Y-130742821D01*
X165623065Y-130731283D01*
X165573925Y-130680267D01*
X165562736Y-130670729D01*
X165559358Y-130669255D01*
X165556554Y-130666860D01*
X165543084Y-130660969D01*
X165509155Y-130649945D01*
X165880374Y-130649945D01*
X165880656Y-130664237D01*
X165880829Y-130678631D01*
X165880949Y-130679010D01*
X165880953Y-130679203D01*
X165881159Y-130679674D01*
X165885266Y-130692648D01*
X165902705Y-130733364D01*
X165906787Y-130740785D01*
X165907444Y-130742602D01*
X165908306Y-130743547D01*
X165909791Y-130746246D01*
X165910004Y-130746454D01*
X165910124Y-130746728D01*
X165918929Y-130755191D01*
X165927166Y-130764220D01*
X165929157Y-130765154D01*
X165930730Y-130766689D01*
X165931006Y-130766799D01*
X165931222Y-130767007D01*
X165942600Y-130771458D01*
X165953662Y-130776646D01*
X165955857Y-130776746D01*
X165957897Y-130777563D01*
X165958195Y-130777559D01*
X165958473Y-130777668D01*
X165970685Y-130777426D01*
X165982895Y-130777986D01*
X165984960Y-130777239D01*
X165987159Y-130777213D01*
X165987434Y-130777094D01*
X165987731Y-130777089D01*
X166001714Y-130772543D01*
X166047679Y-130752430D01*
X166059549Y-130745779D01*
X166060023Y-130745577D01*
X166060157Y-130745439D01*
X166060506Y-130745244D01*
X166070456Y-130734891D01*
X166080466Y-130724639D01*
X166080577Y-130724359D01*
X166080784Y-130724145D01*
X166084135Y-130715578D01*
X167496432Y-130715578D01*
X167506381Y-130743098D01*
X167526104Y-130764716D01*
X167552599Y-130777142D01*
X167581832Y-130778482D01*
X167609352Y-130768533D01*
X167630970Y-130748810D01*
X167638488Y-130736175D01*
X167754874Y-130487996D01*
X167785568Y-130474565D01*
X167878235Y-130846088D01*
X167883175Y-130859936D01*
X167900584Y-130883458D01*
X167925669Y-130898527D01*
X167954611Y-130902850D01*
X167983005Y-130895768D01*
X168006527Y-130878359D01*
X168021596Y-130853274D01*
X168025919Y-130824332D01*
X168025641Y-130822442D01*
X168172486Y-130822442D01*
X168175661Y-130893572D01*
X168176802Y-130901514D01*
X168176766Y-130903479D01*
X168177269Y-130904762D01*
X168177753Y-130908125D01*
X168182964Y-130919273D01*
X168187457Y-130930720D01*
X168189561Y-130933384D01*
X168190146Y-130934635D01*
X168191597Y-130935962D01*
X168196570Y-130942258D01*
X168245711Y-130993274D01*
X168256899Y-131002813D01*
X168260278Y-131004287D01*
X168263080Y-131006680D01*
X168276551Y-131012572D01*
X168403358Y-131053774D01*
X168417719Y-131056925D01*
X168419506Y-131056784D01*
X168421238Y-131057258D01*
X168435935Y-131056853D01*
X168513602Y-131047040D01*
X168527938Y-131043777D01*
X168553357Y-131029277D01*
X168571292Y-131006155D01*
X168579013Y-130977928D01*
X168575345Y-130948895D01*
X168560846Y-130923476D01*
X168537723Y-130905541D01*
X168509496Y-130897819D01*
X168494799Y-130898224D01*
X168433765Y-130905935D01*
X168340735Y-130875708D01*
X168324248Y-130858591D01*
X168323160Y-130834214D01*
X168349302Y-130778470D01*
X168640923Y-130814066D01*
X168655622Y-130814408D01*
X168658389Y-130813638D01*
X168661259Y-130813770D01*
X168672403Y-130809740D01*
X168683816Y-130806567D01*
X168686078Y-130804797D01*
X168688778Y-130803821D01*
X168697525Y-130795840D01*
X168706863Y-130788535D01*
X168708276Y-130786032D01*
X168710397Y-130784098D01*
X168717914Y-130771462D01*
X168746440Y-130710632D01*
X168751348Y-130696773D01*
X168751505Y-130693347D01*
X168752674Y-130690126D01*
X168753461Y-130675445D01*
X168750286Y-130604316D01*
X168749144Y-130596372D01*
X168749181Y-130594408D01*
X168748677Y-130593124D01*
X168748194Y-130589762D01*
X168742987Y-130578624D01*
X168738491Y-130567167D01*
X168736383Y-130564498D01*
X168735801Y-130563253D01*
X168734355Y-130561930D01*
X168729378Y-130555629D01*
X168680237Y-130504614D01*
X168669049Y-130495075D01*
X168665669Y-130493600D01*
X168662868Y-130491208D01*
X168649398Y-130485316D01*
X168522590Y-130444113D01*
X168508228Y-130440962D01*
X168506439Y-130441102D01*
X168504708Y-130440629D01*
X168490011Y-130441034D01*
X168412344Y-130450848D01*
X168398008Y-130454112D01*
X168392132Y-130457463D01*
X168385678Y-130459498D01*
X168373542Y-130467798D01*
X168313314Y-130518326D01*
X168303031Y-130528835D01*
X168302301Y-130530236D01*
X168301132Y-130531303D01*
X168293614Y-130543939D01*
X168179507Y-130787253D01*
X168174599Y-130801113D01*
X168174441Y-130804539D01*
X168173273Y-130807761D01*
X168172486Y-130822442D01*
X168025641Y-130822442D01*
X168023776Y-130809786D01*
X167924950Y-130413573D01*
X168280602Y-130257945D01*
X168293429Y-130250760D01*
X168313708Y-130229661D01*
X168324369Y-130202410D01*
X168323791Y-130173152D01*
X168312059Y-130146342D01*
X168290961Y-130126063D01*
X168263709Y-130115402D01*
X168234451Y-130115981D01*
X168220469Y-130120526D01*
X167851485Y-130281988D01*
X167938017Y-130097473D01*
X167942925Y-130083614D01*
X167944265Y-130054381D01*
X167934316Y-130026861D01*
X167914593Y-130005242D01*
X167888098Y-129992817D01*
X167858865Y-129991477D01*
X167831345Y-130001426D01*
X167809727Y-130021149D01*
X167802209Y-130033784D01*
X167502680Y-130672485D01*
X167497772Y-130686345D01*
X167496432Y-130715578D01*
X166084135Y-130715578D01*
X166086013Y-130710778D01*
X166091340Y-130697471D01*
X166091336Y-130697173D01*
X166091446Y-130696894D01*
X166091161Y-130682536D01*
X166090991Y-130668210D01*
X166090870Y-130667830D01*
X166090867Y-130667636D01*
X166090658Y-130667160D01*
X166086555Y-130654192D01*
X166069117Y-130613477D01*
X166065033Y-130606052D01*
X166064377Y-130604237D01*
X166063515Y-130603292D01*
X166062031Y-130600594D01*
X166061817Y-130600385D01*
X166061698Y-130600112D01*
X166052891Y-130591647D01*
X166044655Y-130582619D01*
X166042664Y-130581685D01*
X166041093Y-130580151D01*
X166040815Y-130580039D01*
X166040600Y-130579833D01*
X166029224Y-130575382D01*
X166018159Y-130570193D01*
X166015961Y-130570092D01*
X166013925Y-130569277D01*
X166013627Y-130569280D01*
X166013348Y-130569171D01*
X166001135Y-130569412D01*
X165988926Y-130568853D01*
X165986860Y-130569599D01*
X165984664Y-130569626D01*
X165984388Y-130569744D01*
X165984090Y-130569750D01*
X165970108Y-130574295D01*
X165924142Y-130594409D01*
X165912277Y-130601055D01*
X165911796Y-130601262D01*
X165911659Y-130601402D01*
X165911315Y-130601595D01*
X165901380Y-130611930D01*
X165891353Y-130622202D01*
X165891242Y-130622478D01*
X165891036Y-130622693D01*
X165885815Y-130636037D01*
X165880479Y-130649369D01*
X165880482Y-130649667D01*
X165880374Y-130649945D01*
X165509155Y-130649945D01*
X165447978Y-130630068D01*
X165433617Y-130626917D01*
X165431828Y-130627057D01*
X165430097Y-130626584D01*
X165415400Y-130626989D01*
X165337734Y-130636802D01*
X165323398Y-130640065D01*
X165317518Y-130643418D01*
X165311068Y-130645452D01*
X165298932Y-130653752D01*
X165238703Y-130704280D01*
X165228419Y-130714788D01*
X165227688Y-130716191D01*
X165226519Y-130717258D01*
X165219002Y-130729894D01*
X165204739Y-130760308D01*
X165199831Y-130774167D01*
X165199673Y-130777593D01*
X165198505Y-130780815D01*
X165197718Y-130795496D01*
X165200893Y-130866626D01*
X165202034Y-130874568D01*
X165201998Y-130876533D01*
X165202501Y-130877816D01*
X165202985Y-130881179D01*
X165208196Y-130892327D01*
X165212689Y-130903774D01*
X165214793Y-130906438D01*
X165215378Y-130907689D01*
X165216829Y-130909016D01*
X165221802Y-130915312D01*
X165270943Y-130966328D01*
X165282131Y-130975867D01*
X165285510Y-130977341D01*
X165288312Y-130979734D01*
X165301783Y-130985626D01*
X165379055Y-131010733D01*
X165395542Y-131027849D01*
X165396597Y-131051470D01*
X165366591Y-131076643D01*
X165327453Y-131081589D01*
X165234423Y-131051361D01*
X165198289Y-131013849D01*
X165187100Y-131004311D01*
X165160278Y-130992609D01*
X165131020Y-130992061D01*
X165103779Y-131002752D01*
X165082703Y-131023054D01*
X165071001Y-131049876D01*
X165070453Y-131079134D01*
X163827711Y-131079134D01*
X162343427Y-130596861D01*
X163939169Y-130596861D01*
X163942344Y-130667991D01*
X163943871Y-130678617D01*
X163943890Y-130680158D01*
X163944261Y-130681332D01*
X163944436Y-130682544D01*
X163945084Y-130683930D01*
X163948327Y-130694175D01*
X163965766Y-130734891D01*
X163971034Y-130744468D01*
X163971578Y-130745854D01*
X163972297Y-130746764D01*
X163972852Y-130747773D01*
X163973907Y-130748803D01*
X163980691Y-130757392D01*
X164029831Y-130808407D01*
X164041019Y-130817946D01*
X164044398Y-130819420D01*
X164047201Y-130821814D01*
X164060672Y-130827706D01*
X164187480Y-130868908D01*
X164201841Y-130872059D01*
X164203628Y-130871918D01*
X164205360Y-130872392D01*
X164220057Y-130871987D01*
X164223212Y-130871588D01*
X164229579Y-130878566D01*
X164256074Y-130890992D01*
X164285307Y-130892332D01*
X164312827Y-130882383D01*
X164334445Y-130862660D01*
X164341963Y-130850025D01*
X164354643Y-130822986D01*
X164527241Y-130822986D01*
X164530416Y-130894116D01*
X164531557Y-130902058D01*
X164531521Y-130904023D01*
X164532024Y-130905306D01*
X164532508Y-130908669D01*
X164537719Y-130919817D01*
X164542212Y-130931264D01*
X164544316Y-130933928D01*
X164544901Y-130935179D01*
X164546352Y-130936506D01*
X164551325Y-130942802D01*
X164600466Y-130993818D01*
X164611654Y-131003357D01*
X164615033Y-131004831D01*
X164617835Y-131007224D01*
X164631306Y-131013116D01*
X164758113Y-131054318D01*
X164772474Y-131057469D01*
X164774261Y-131057328D01*
X164775993Y-131057802D01*
X164790690Y-131057397D01*
X164868357Y-131047584D01*
X164882693Y-131044321D01*
X164908112Y-131029821D01*
X164926047Y-131006699D01*
X164933768Y-130978472D01*
X164930100Y-130949439D01*
X164915601Y-130924020D01*
X164892478Y-130906085D01*
X164864251Y-130898363D01*
X164849554Y-130898768D01*
X164788520Y-130906479D01*
X164695490Y-130876252D01*
X164679003Y-130859135D01*
X164677915Y-130834758D01*
X164704057Y-130779014D01*
X164995678Y-130814610D01*
X165010377Y-130814952D01*
X165013144Y-130814182D01*
X165016014Y-130814314D01*
X165027158Y-130810284D01*
X165038571Y-130807111D01*
X165040833Y-130805341D01*
X165043533Y-130804365D01*
X165052280Y-130796384D01*
X165061618Y-130789079D01*
X165063031Y-130786576D01*
X165065152Y-130784642D01*
X165072669Y-130772006D01*
X165101195Y-130711176D01*
X165106103Y-130697317D01*
X165106260Y-130693891D01*
X165107429Y-130690670D01*
X165108216Y-130675989D01*
X165105041Y-130604860D01*
X165103899Y-130596916D01*
X165103936Y-130594952D01*
X165103432Y-130593668D01*
X165102949Y-130590306D01*
X165097742Y-130579168D01*
X165093246Y-130567711D01*
X165091138Y-130565042D01*
X165090556Y-130563797D01*
X165089110Y-130562474D01*
X165084133Y-130556173D01*
X165034992Y-130505158D01*
X165023804Y-130495619D01*
X165020424Y-130494144D01*
X165017623Y-130491752D01*
X165004153Y-130485860D01*
X164877345Y-130444657D01*
X164862983Y-130441506D01*
X164861194Y-130441646D01*
X164859463Y-130441173D01*
X164844766Y-130441578D01*
X164767099Y-130451392D01*
X164752763Y-130454656D01*
X164746886Y-130458008D01*
X164740434Y-130460042D01*
X164728298Y-130468342D01*
X164668069Y-130518870D01*
X164657785Y-130529378D01*
X164657054Y-130530781D01*
X164655885Y-130531848D01*
X164648368Y-130544484D01*
X164534262Y-130787797D01*
X164529354Y-130801657D01*
X164529196Y-130805083D01*
X164528028Y-130808305D01*
X164527241Y-130822986D01*
X164354643Y-130822986D01*
X164636884Y-130221151D01*
X165974742Y-130221151D01*
X165984691Y-130248671D01*
X166004414Y-130270289D01*
X166030909Y-130282715D01*
X166060142Y-130284055D01*
X166087662Y-130274106D01*
X166109280Y-130254383D01*
X166116798Y-130241748D01*
X166129250Y-130215196D01*
X166411445Y-130215196D01*
X166414620Y-130286327D01*
X166416147Y-130296953D01*
X166416166Y-130298493D01*
X166416537Y-130299667D01*
X166416712Y-130300880D01*
X166417360Y-130302266D01*
X166420602Y-130312510D01*
X166438040Y-130353224D01*
X166443313Y-130362811D01*
X166443854Y-130364189D01*
X166444568Y-130365094D01*
X166445126Y-130366107D01*
X166446187Y-130367143D01*
X166452967Y-130375727D01*
X166502108Y-130426743D01*
X166513296Y-130436282D01*
X166516675Y-130437756D01*
X166519477Y-130440149D01*
X166532948Y-130446041D01*
X166659755Y-130487243D01*
X166674116Y-130490394D01*
X166675903Y-130490253D01*
X166677635Y-130490727D01*
X166692332Y-130490322D01*
X166695488Y-130489923D01*
X166701855Y-130496901D01*
X166728350Y-130509327D01*
X166757583Y-130510667D01*
X166785103Y-130500718D01*
X166806721Y-130480995D01*
X166814239Y-130468360D01*
X167113769Y-129829660D01*
X167118677Y-129815801D01*
X167120017Y-129786568D01*
X167110068Y-129759048D01*
X167090345Y-129737429D01*
X167063850Y-129725004D01*
X167034617Y-129723664D01*
X167007097Y-129733612D01*
X166985478Y-129753335D01*
X166977961Y-129765971D01*
X166906210Y-129918966D01*
X166905795Y-129918785D01*
X166778987Y-129877582D01*
X166764625Y-129874431D01*
X166762836Y-129874571D01*
X166761105Y-129874098D01*
X166746408Y-129874503D01*
X166668741Y-129884317D01*
X166663830Y-129885434D01*
X166662060Y-129885470D01*
X166658279Y-129886698D01*
X166654405Y-129887581D01*
X166652867Y-129888458D01*
X166648078Y-129890015D01*
X166602112Y-129910128D01*
X166597783Y-129912552D01*
X166596111Y-129913080D01*
X166592797Y-129915346D01*
X166589285Y-129917314D01*
X166588066Y-129918581D01*
X166583975Y-129921380D01*
X166523746Y-129971908D01*
X166513462Y-129982416D01*
X166512731Y-129983819D01*
X166511562Y-129984886D01*
X166504045Y-129997522D01*
X166418466Y-130180008D01*
X166413558Y-130193867D01*
X166413400Y-130197293D01*
X166412232Y-130200515D01*
X166411445Y-130215196D01*
X166129250Y-130215196D01*
X166252405Y-129952584D01*
X166291700Y-129919618D01*
X166317869Y-129908168D01*
X166368156Y-129901814D01*
X166415616Y-129917235D01*
X166429977Y-129920386D01*
X166459151Y-129918090D01*
X166485224Y-129904805D01*
X166504229Y-129882553D01*
X166513272Y-129854721D01*
X166510976Y-129825548D01*
X166497691Y-129799474D01*
X166475439Y-129780469D01*
X166461968Y-129774577D01*
X166398564Y-129753976D01*
X166384203Y-129750825D01*
X166382414Y-129750965D01*
X166380683Y-129750492D01*
X166365986Y-129750897D01*
X166317030Y-129757082D01*
X166312783Y-129745334D01*
X166293060Y-129723715D01*
X166266565Y-129711290D01*
X166237332Y-129709950D01*
X166209812Y-129719899D01*
X166188194Y-129739622D01*
X166180676Y-129752257D01*
X165980990Y-130178058D01*
X165976082Y-130191918D01*
X165974742Y-130221151D01*
X164636884Y-130221151D01*
X164641493Y-130211324D01*
X164646401Y-130197464D01*
X164647741Y-130168231D01*
X164637792Y-130140712D01*
X164618069Y-130119093D01*
X164616048Y-130118145D01*
X165657724Y-130118145D01*
X165667673Y-130145665D01*
X165687396Y-130167283D01*
X165713891Y-130179709D01*
X165743124Y-130181049D01*
X165770644Y-130171100D01*
X165792262Y-130151377D01*
X165799780Y-130138742D01*
X165999466Y-129712942D01*
X166004374Y-129699082D01*
X166005714Y-129669849D01*
X165995765Y-129642329D01*
X165976042Y-129620710D01*
X165949547Y-129608285D01*
X165920314Y-129606945D01*
X165892794Y-129616894D01*
X165871176Y-129636617D01*
X165863658Y-129649252D01*
X165663972Y-130075052D01*
X165659064Y-130088912D01*
X165657724Y-130118145D01*
X164616048Y-130118145D01*
X164591574Y-130106667D01*
X164562341Y-130105327D01*
X164534821Y-130115276D01*
X164513202Y-130134999D01*
X164505685Y-130147635D01*
X164433934Y-130300631D01*
X164433519Y-130300450D01*
X164306711Y-130259247D01*
X164292349Y-130256096D01*
X164290560Y-130256236D01*
X164288829Y-130255763D01*
X164274132Y-130256168D01*
X164196466Y-130265981D01*
X164191554Y-130267098D01*
X164189782Y-130267134D01*
X164186005Y-130268361D01*
X164182130Y-130269244D01*
X164180589Y-130270122D01*
X164175800Y-130271680D01*
X164129835Y-130291794D01*
X164125510Y-130294216D01*
X164123834Y-130294745D01*
X164120511Y-130297016D01*
X164117008Y-130298980D01*
X164115792Y-130300244D01*
X164111698Y-130303045D01*
X164051470Y-130353573D01*
X164041187Y-130364082D01*
X164040457Y-130365483D01*
X164039288Y-130366550D01*
X164031770Y-130379186D01*
X163946190Y-130561672D01*
X163941282Y-130575532D01*
X163941124Y-130578958D01*
X163939956Y-130582180D01*
X163939169Y-130596861D01*
X162343427Y-130596861D01*
X161539161Y-130335539D01*
X162741293Y-130335539D01*
X162742081Y-130345557D01*
X162741621Y-130355602D01*
X162743220Y-130360025D01*
X162743589Y-130364712D01*
X162748152Y-130373668D01*
X162751570Y-130383122D01*
X162754738Y-130386595D01*
X162756874Y-130390786D01*
X162764520Y-130397316D01*
X162771293Y-130404740D01*
X162775549Y-130406736D01*
X162779126Y-130409791D01*
X162792597Y-130415683D01*
X163046212Y-130498088D01*
X163060573Y-130501239D01*
X163062361Y-130501098D01*
X163064093Y-130501572D01*
X163078790Y-130501167D01*
X163156458Y-130491353D01*
X163161368Y-130490235D01*
X163163138Y-130490200D01*
X163166916Y-130488971D01*
X163170794Y-130488089D01*
X163172332Y-130487211D01*
X163177121Y-130485655D01*
X163223086Y-130465542D01*
X163227412Y-130463117D01*
X163229088Y-130462590D01*
X163232404Y-130460321D01*
X163235913Y-130458356D01*
X163237130Y-130457088D01*
X163241223Y-130454290D01*
X163301453Y-130403762D01*
X163311736Y-130393254D01*
X163312467Y-130391849D01*
X163313635Y-130390784D01*
X163321153Y-130378149D01*
X163363943Y-130286906D01*
X163368851Y-130273047D01*
X163369008Y-130269619D01*
X163370177Y-130266398D01*
X163370964Y-130251717D01*
X163367789Y-130180587D01*
X163366261Y-130169959D01*
X163366243Y-130168419D01*
X163365871Y-130167243D01*
X163365697Y-130166033D01*
X163365049Y-130164647D01*
X163361806Y-130154401D01*
X163347508Y-130121021D01*
X163348281Y-130120684D01*
X163352607Y-130118259D01*
X163354283Y-130117732D01*
X163357601Y-130115462D01*
X163361108Y-130113498D01*
X163362324Y-130112232D01*
X163366419Y-130109432D01*
X163426647Y-130058904D01*
X163436930Y-130048396D01*
X163437660Y-130046993D01*
X163438829Y-130045927D01*
X163446347Y-130033291D01*
X163474874Y-129972462D01*
X163479782Y-129958602D01*
X163479939Y-129955175D01*
X163481108Y-129951954D01*
X163481895Y-129937273D01*
X163478720Y-129866144D01*
X163477192Y-129855516D01*
X163477174Y-129853977D01*
X163476802Y-129852802D01*
X163476628Y-129851590D01*
X163475979Y-129850202D01*
X163472737Y-129839959D01*
X163455298Y-129799244D01*
X163450028Y-129789661D01*
X163449486Y-129788280D01*
X163448769Y-129787372D01*
X163448213Y-129786361D01*
X163447152Y-129785326D01*
X163440373Y-129776742D01*
X163391233Y-129725726D01*
X163380044Y-129716188D01*
X163376666Y-129714714D01*
X163373863Y-129712320D01*
X163360392Y-129706428D01*
X163355338Y-129704786D01*
X164420503Y-129704786D01*
X164422630Y-129715781D01*
X164423726Y-129726929D01*
X164425391Y-129730046D01*
X164426063Y-129733516D01*
X164432237Y-129742861D01*
X164437515Y-129752741D01*
X164440245Y-129754983D01*
X164442194Y-129757932D01*
X164451476Y-129764204D01*
X164460132Y-129771311D01*
X164463512Y-129772337D01*
X164466441Y-129774316D01*
X164477415Y-129776558D01*
X164488133Y-129779812D01*
X164491650Y-129779466D01*
X164495113Y-129780174D01*
X164506108Y-129778046D01*
X164517256Y-129776951D01*
X164520373Y-129775285D01*
X164523843Y-129774614D01*
X164533188Y-129768439D01*
X164543068Y-129763162D01*
X164546754Y-129759477D01*
X164548259Y-129758483D01*
X164549320Y-129756911D01*
X164553466Y-129752768D01*
X164713142Y-129558296D01*
X164675242Y-129774638D01*
X164674816Y-129780279D01*
X164674319Y-129782080D01*
X164674543Y-129783900D01*
X164674137Y-129789299D01*
X164676548Y-129800120D01*
X164677908Y-129811122D01*
X164679707Y-129814297D01*
X164680502Y-129817862D01*
X164686870Y-129826935D01*
X164692337Y-129836581D01*
X164695216Y-129838827D01*
X164697313Y-129841814D01*
X164706665Y-129847758D01*
X164715411Y-129854580D01*
X164718930Y-129855552D01*
X164722011Y-129857511D01*
X164732931Y-129859423D01*
X164743617Y-129862378D01*
X164747240Y-129861930D01*
X164750836Y-129862560D01*
X164761657Y-129860148D01*
X164772659Y-129858789D01*
X164775834Y-129856989D01*
X164779399Y-129856195D01*
X164788472Y-129849826D01*
X164798118Y-129844360D01*
X164801851Y-129840436D01*
X164803351Y-129839384D01*
X164804352Y-129837807D01*
X164808253Y-129833709D01*
X164816382Y-129823288D01*
X165097405Y-129823288D01*
X165100580Y-129894418D01*
X165101721Y-129902360D01*
X165101685Y-129904325D01*
X165102188Y-129905608D01*
X165102672Y-129908971D01*
X165107883Y-129920119D01*
X165112376Y-129931566D01*
X165114480Y-129934230D01*
X165115065Y-129935481D01*
X165116516Y-129936808D01*
X165121489Y-129943104D01*
X165170629Y-129994119D01*
X165181818Y-130003658D01*
X165185195Y-130005131D01*
X165187998Y-130007525D01*
X165201468Y-130013417D01*
X165328276Y-130054620D01*
X165342638Y-130057771D01*
X165344426Y-130057630D01*
X165346158Y-130058104D01*
X165360855Y-130057699D01*
X165438523Y-130047885D01*
X165452859Y-130044621D01*
X165478277Y-130030121D01*
X165496212Y-130006999D01*
X165503933Y-129978772D01*
X165500265Y-129949739D01*
X165485765Y-129924320D01*
X165462642Y-129906385D01*
X165434415Y-129898664D01*
X165419718Y-129899069D01*
X165358685Y-129906781D01*
X165265654Y-129876553D01*
X165249167Y-129859437D01*
X165248078Y-129835059D01*
X165274221Y-129779315D01*
X165565841Y-129814911D01*
X165580540Y-129815253D01*
X165583306Y-129814483D01*
X165586175Y-129814615D01*
X165597319Y-129810586D01*
X165608734Y-129807412D01*
X165610994Y-129805643D01*
X165613695Y-129804667D01*
X165622444Y-129796685D01*
X165631781Y-129789380D01*
X165633194Y-129786877D01*
X165635314Y-129784944D01*
X165642831Y-129772308D01*
X165671358Y-129711480D01*
X165676267Y-129697621D01*
X165676424Y-129694193D01*
X165677593Y-129690972D01*
X165678380Y-129676291D01*
X165675205Y-129605162D01*
X165674063Y-129597218D01*
X165674100Y-129595254D01*
X165673596Y-129593970D01*
X165673113Y-129590608D01*
X165667902Y-129579462D01*
X165663409Y-129568013D01*
X165661303Y-129565347D01*
X165660720Y-129564099D01*
X165659270Y-129562773D01*
X165654296Y-129556475D01*
X165605155Y-129505459D01*
X165593967Y-129495920D01*
X165590587Y-129494445D01*
X165587786Y-129492053D01*
X165574315Y-129486161D01*
X165540380Y-129475135D01*
X165911606Y-129475135D01*
X165911890Y-129489490D01*
X165912061Y-129503820D01*
X165912181Y-129504199D01*
X165912185Y-129504393D01*
X165912392Y-129504866D01*
X165916497Y-129517838D01*
X165933935Y-129558553D01*
X165938018Y-129565977D01*
X165938674Y-129567792D01*
X165939535Y-129568735D01*
X165941020Y-129571436D01*
X165941234Y-129571645D01*
X165941354Y-129571918D01*
X165950159Y-129580382D01*
X165958397Y-129589411D01*
X165960387Y-129590344D01*
X165961959Y-129591879D01*
X165962236Y-129591990D01*
X165962452Y-129592197D01*
X165973825Y-129596647D01*
X165984892Y-129601837D01*
X165987090Y-129601937D01*
X165989127Y-129602753D01*
X165989423Y-129602749D01*
X165989703Y-129602859D01*
X166001915Y-129602617D01*
X166014125Y-129603177D01*
X166016190Y-129602430D01*
X166018388Y-129602404D01*
X166018663Y-129602285D01*
X166018961Y-129602280D01*
X166032944Y-129597735D01*
X166078909Y-129577622D01*
X166090776Y-129570973D01*
X166091254Y-129570769D01*
X166091389Y-129570629D01*
X166091736Y-129570436D01*
X166101670Y-129560100D01*
X166111697Y-129549831D01*
X166111808Y-129549553D01*
X166112015Y-129549338D01*
X166117261Y-129535927D01*
X166122571Y-129522663D01*
X166122567Y-129522366D01*
X166122677Y-129522087D01*
X166122392Y-129507668D01*
X166122222Y-129493402D01*
X166122102Y-129493025D01*
X166122099Y-129492829D01*
X166121888Y-129492347D01*
X166117786Y-129479384D01*
X166100348Y-129438669D01*
X166096266Y-129431247D01*
X166095609Y-129429430D01*
X166094745Y-129428484D01*
X166093262Y-129425786D01*
X166093048Y-129425577D01*
X166092929Y-129425304D01*
X166084120Y-129416836D01*
X166075886Y-129407811D01*
X166073895Y-129406877D01*
X166072324Y-129405343D01*
X166072047Y-129405232D01*
X166071832Y-129405025D01*
X166060454Y-129400573D01*
X166049391Y-129395385D01*
X166047192Y-129395284D01*
X166045156Y-129394469D01*
X166044859Y-129394472D01*
X166044580Y-129394363D01*
X166032367Y-129394604D01*
X166020158Y-129394045D01*
X166018092Y-129394791D01*
X166015895Y-129394818D01*
X166015619Y-129394936D01*
X166015322Y-129394942D01*
X166001340Y-129399487D01*
X165955374Y-129419600D01*
X165943506Y-129426248D01*
X165943029Y-129426453D01*
X165942893Y-129426592D01*
X165942547Y-129426786D01*
X165932612Y-129437121D01*
X165922586Y-129447391D01*
X165922474Y-129447668D01*
X165922268Y-129447884D01*
X165917021Y-129461294D01*
X165911712Y-129474559D01*
X165911715Y-129474855D01*
X165911606Y-129475135D01*
X165540380Y-129475135D01*
X165447508Y-129444959D01*
X165433147Y-129441808D01*
X165431358Y-129441948D01*
X165429627Y-129441475D01*
X165414930Y-129441880D01*
X165337264Y-129451693D01*
X165322928Y-129454956D01*
X165317048Y-129458309D01*
X165310598Y-129460343D01*
X165298462Y-129468643D01*
X165238233Y-129519171D01*
X165227949Y-129529679D01*
X165227218Y-129531082D01*
X165226049Y-129532149D01*
X165218532Y-129544785D01*
X165104426Y-129788100D01*
X165099518Y-129801959D01*
X165099360Y-129805385D01*
X165098192Y-129808607D01*
X165097405Y-129823288D01*
X164816382Y-129823288D01*
X165266293Y-129246511D01*
X165274156Y-129234087D01*
X165281954Y-129205882D01*
X165278366Y-129176840D01*
X165263936Y-129151381D01*
X165240862Y-129133382D01*
X165212656Y-129125584D01*
X165183614Y-129129172D01*
X165158155Y-129143602D01*
X165148020Y-129154253D01*
X164874863Y-129504435D01*
X164910134Y-129303106D01*
X164910441Y-129299028D01*
X164910896Y-129297531D01*
X164910702Y-129295561D01*
X164911239Y-129288444D01*
X164909028Y-129278526D01*
X164908035Y-129268409D01*
X164905872Y-129264359D01*
X164904874Y-129259881D01*
X164899037Y-129251565D01*
X164894247Y-129242597D01*
X164890697Y-129239682D01*
X164888063Y-129235929D01*
X164879490Y-129230481D01*
X164871630Y-129224027D01*
X164867235Y-129222693D01*
X164863365Y-129220233D01*
X164853357Y-129218479D01*
X164843628Y-129215526D01*
X164839059Y-129215974D01*
X164834540Y-129215183D01*
X164824624Y-129217392D01*
X164814505Y-129218387D01*
X164810453Y-129220551D01*
X164805977Y-129221549D01*
X164797665Y-129227382D01*
X164788694Y-129232175D01*
X164783640Y-129237226D01*
X164782025Y-129238360D01*
X164781187Y-129239678D01*
X164778295Y-129242569D01*
X164629557Y-129423718D01*
X164710004Y-129029986D01*
X164711521Y-129015361D01*
X164705961Y-128986631D01*
X164689830Y-128962215D01*
X164665583Y-128945831D01*
X164636911Y-128939973D01*
X164608181Y-128945533D01*
X164583765Y-128961664D01*
X164567381Y-128985911D01*
X164563040Y-128999958D01*
X164422020Y-129690161D01*
X164421414Y-129695994D01*
X164420865Y-129697806D01*
X164421041Y-129699598D01*
X164420503Y-129704786D01*
X163355338Y-129704786D01*
X163138478Y-129634325D01*
X163134665Y-129633488D01*
X163133287Y-129632842D01*
X163131305Y-129632751D01*
X163124117Y-129631174D01*
X163114098Y-129631962D01*
X163104054Y-129631502D01*
X163099630Y-129633101D01*
X163094943Y-129633470D01*
X163085985Y-129638034D01*
X163076534Y-129641451D01*
X163073061Y-129644619D01*
X163068870Y-129646755D01*
X163062339Y-129654401D01*
X163054916Y-129661174D01*
X163051151Y-129667500D01*
X163049865Y-129669007D01*
X163049395Y-129670451D01*
X163047398Y-129673809D01*
X162747869Y-130312509D01*
X162742961Y-130326369D01*
X162742745Y-130331068D01*
X162741293Y-130335539D01*
X161539161Y-130335539D01*
X160269429Y-129922978D01*
X161410142Y-129922978D01*
X161420091Y-129950498D01*
X161439814Y-129972116D01*
X161466309Y-129984542D01*
X161495542Y-129985882D01*
X161521599Y-129976462D01*
X162146351Y-129976462D01*
X162146531Y-129977336D01*
X162146425Y-129979315D01*
X162149600Y-130050445D01*
X162151127Y-130061071D01*
X162151146Y-130062612D01*
X162151517Y-130063786D01*
X162151692Y-130064998D01*
X162152340Y-130066384D01*
X162155583Y-130076629D01*
X162190461Y-130158059D01*
X162197546Y-130170942D01*
X162200916Y-130174232D01*
X162203293Y-130178296D01*
X162214080Y-130188286D01*
X162294922Y-130249602D01*
X162302129Y-130254028D01*
X162303598Y-130255283D01*
X162305591Y-130256154D01*
X162307451Y-130257297D01*
X162309324Y-130257787D01*
X162317069Y-130261175D01*
X162380473Y-130281776D01*
X162386884Y-130283182D01*
X162388690Y-130283940D01*
X162391790Y-130284259D01*
X162394834Y-130284927D01*
X162396784Y-130284773D01*
X162403315Y-130285446D01*
X162512684Y-130285933D01*
X162527322Y-130284557D01*
X162528177Y-130284207D01*
X162529102Y-130284189D01*
X162543085Y-130279643D01*
X162589050Y-130259530D01*
X162601877Y-130252344D01*
X162622155Y-130231245D01*
X162632817Y-130203994D01*
X162632238Y-130174736D01*
X162620506Y-130147926D01*
X162599408Y-130127647D01*
X162572156Y-130116986D01*
X162542898Y-130117565D01*
X162528916Y-130122111D01*
X162497486Y-130135864D01*
X162415690Y-130135500D01*
X162375472Y-130122432D01*
X162320533Y-130080763D01*
X162298841Y-130030118D01*
X162296668Y-129981449D01*
X162318584Y-129867371D01*
X162353646Y-129792609D01*
X162432210Y-129694037D01*
X162478418Y-129655272D01*
X162545937Y-129625727D01*
X162627732Y-129626091D01*
X162667950Y-129639159D01*
X162722889Y-129680828D01*
X162732517Y-129703307D01*
X162739603Y-129716189D01*
X162760542Y-129736632D01*
X162787709Y-129747506D01*
X162816971Y-129747156D01*
X162843871Y-129735634D01*
X162864314Y-129714695D01*
X162875188Y-129687527D01*
X162874838Y-129658266D01*
X162870401Y-129644248D01*
X162852962Y-129603533D01*
X162845877Y-129590650D01*
X162842508Y-129587361D01*
X162840131Y-129583296D01*
X162829343Y-129573306D01*
X162748501Y-129511990D01*
X162741296Y-129507565D01*
X162739825Y-129506309D01*
X162737826Y-129505435D01*
X162735972Y-129504296D01*
X162734103Y-129503806D01*
X162726354Y-129500417D01*
X162662950Y-129479816D01*
X162656538Y-129478409D01*
X162654733Y-129477652D01*
X162651632Y-129477332D01*
X162648589Y-129476665D01*
X162646638Y-129476818D01*
X162640108Y-129476146D01*
X162530739Y-129475659D01*
X162516101Y-129477035D01*
X162515245Y-129477384D01*
X162514321Y-129477403D01*
X162500339Y-129481948D01*
X162408409Y-129522175D01*
X162404080Y-129524599D01*
X162402408Y-129525127D01*
X162399094Y-129527393D01*
X162395582Y-129529361D01*
X162394363Y-129530628D01*
X162390272Y-129533427D01*
X162330043Y-129583955D01*
X162329920Y-129584080D01*
X162329843Y-129584123D01*
X162324795Y-129589316D01*
X162319759Y-129594463D01*
X162319718Y-129594541D01*
X162319596Y-129594667D01*
X162230841Y-129706024D01*
X162229762Y-129707689D01*
X162229104Y-129708290D01*
X162226072Y-129713385D01*
X162222848Y-129718364D01*
X162222601Y-129719220D01*
X162221587Y-129720926D01*
X162178797Y-129812168D01*
X162177870Y-129814784D01*
X162177224Y-129815766D01*
X162175694Y-129820930D01*
X162173889Y-129826028D01*
X162173834Y-129827206D01*
X162173048Y-129829863D01*
X162147697Y-129961821D01*
X162147515Y-129963798D01*
X162147212Y-129964634D01*
X162146895Y-129970540D01*
X162146351Y-129976462D01*
X161521599Y-129976462D01*
X161523062Y-129975933D01*
X161544680Y-129956210D01*
X161552198Y-129943575D01*
X161666719Y-129699375D01*
X161857366Y-129761321D01*
X161871727Y-129764472D01*
X161873514Y-129764331D01*
X161875246Y-129764805D01*
X161889943Y-129764400D01*
X161967610Y-129754587D01*
X161972521Y-129753469D01*
X161974293Y-129753434D01*
X161978068Y-129752206D01*
X161981946Y-129751324D01*
X161983487Y-129750444D01*
X161988276Y-129748888D01*
X162034241Y-129728775D01*
X162038569Y-129726350D01*
X162040242Y-129725823D01*
X162043554Y-129723557D01*
X162047068Y-129721589D01*
X162048287Y-129720320D01*
X162052377Y-129717523D01*
X162112607Y-129666995D01*
X162122890Y-129656487D01*
X162123621Y-129655082D01*
X162124789Y-129654017D01*
X162132307Y-129641382D01*
X162175097Y-129550139D01*
X162180005Y-129536280D01*
X162180162Y-129532851D01*
X162181331Y-129529630D01*
X162182118Y-129514949D01*
X162178942Y-129443819D01*
X162177414Y-129433191D01*
X162177396Y-129431655D01*
X162177024Y-129430481D01*
X162176850Y-129429266D01*
X162176200Y-129427876D01*
X162172960Y-129417637D01*
X162155522Y-129376922D01*
X162150248Y-129367334D01*
X162149708Y-129365957D01*
X162148993Y-129365051D01*
X162148436Y-129364039D01*
X162147374Y-129363002D01*
X162140595Y-129354419D01*
X162091454Y-129303403D01*
X162080266Y-129293864D01*
X162076884Y-129292388D01*
X162074084Y-129289997D01*
X162060614Y-129284105D01*
X162052855Y-129281584D01*
X163153325Y-129281584D01*
X163154538Y-129310822D01*
X163166848Y-129337371D01*
X163188381Y-129357188D01*
X163215858Y-129367255D01*
X163245096Y-129366042D01*
X163271645Y-129353732D01*
X163282613Y-129343941D01*
X163399006Y-129217469D01*
X163612252Y-129286757D01*
X163596696Y-129429220D01*
X163596540Y-129443922D01*
X163604738Y-129472014D01*
X163623062Y-129494829D01*
X163648723Y-129508897D01*
X163677814Y-129512074D01*
X163705906Y-129503876D01*
X163728721Y-129485552D01*
X163742789Y-129459891D01*
X163745810Y-129445502D01*
X163823427Y-128734697D01*
X163823583Y-128719996D01*
X163821994Y-128714551D01*
X163821759Y-128708887D01*
X163817933Y-128700635D01*
X163815385Y-128691904D01*
X163811834Y-128687483D01*
X163809449Y-128682338D01*
X163802753Y-128676176D01*
X163797061Y-128669088D01*
X163792091Y-128666363D01*
X163787916Y-128662521D01*
X163779371Y-128659390D01*
X163771400Y-128655020D01*
X163765766Y-128654404D01*
X163760439Y-128652453D01*
X163751345Y-128652830D01*
X163742309Y-128651844D01*
X163736868Y-128653431D01*
X163731201Y-128653667D01*
X163722946Y-128657494D01*
X163714217Y-128660042D01*
X163709796Y-128663591D01*
X163704653Y-128665977D01*
X163693684Y-128675767D01*
X163172241Y-129242365D01*
X163163392Y-129254107D01*
X163153325Y-129281584D01*
X162052855Y-129281584D01*
X161806999Y-129201701D01*
X161803186Y-129200864D01*
X161801808Y-129200218D01*
X161799826Y-129200127D01*
X161792638Y-129198550D01*
X161782619Y-129199338D01*
X161772575Y-129198878D01*
X161768151Y-129200477D01*
X161763465Y-129200846D01*
X161754508Y-129205409D01*
X161745055Y-129208827D01*
X161741581Y-129211995D01*
X161737391Y-129214131D01*
X161730860Y-129221777D01*
X161723437Y-129228550D01*
X161719672Y-129234876D01*
X161718386Y-129236383D01*
X161717916Y-129237827D01*
X161715919Y-129241185D01*
X161416390Y-129879885D01*
X161411482Y-129893745D01*
X161410142Y-129922978D01*
X160269429Y-129922978D01*
X158113798Y-129222571D01*
X158348090Y-128501495D01*
X160743604Y-128501495D01*
X160744392Y-128511513D01*
X160743932Y-128521558D01*
X160745531Y-128525981D01*
X160745900Y-128530668D01*
X160750463Y-128539624D01*
X160753881Y-128549078D01*
X160757049Y-128552551D01*
X160759185Y-128556742D01*
X160766831Y-128563272D01*
X160773604Y-128570696D01*
X160777860Y-128572692D01*
X160781437Y-128575747D01*
X160794908Y-128581639D01*
X161048522Y-128664043D01*
X161062884Y-128667194D01*
X161064671Y-128667053D01*
X161066403Y-128667527D01*
X161081100Y-128667122D01*
X161158767Y-128657309D01*
X161163678Y-128656191D01*
X161165450Y-128656156D01*
X161169225Y-128654928D01*
X161173103Y-128654046D01*
X161174644Y-128653166D01*
X161179433Y-128651610D01*
X161207563Y-128639301D01*
X162030680Y-128639301D01*
X162032976Y-128668474D01*
X162046261Y-128694548D01*
X162068513Y-128713553D01*
X162081984Y-128719445D01*
X162589214Y-128884254D01*
X162603575Y-128887405D01*
X162632748Y-128885109D01*
X162658822Y-128871824D01*
X162677827Y-128849572D01*
X162686870Y-128821740D01*
X162684574Y-128792567D01*
X162671289Y-128766493D01*
X162649037Y-128747488D01*
X162635566Y-128741596D01*
X162128336Y-128576787D01*
X162113975Y-128573636D01*
X162084802Y-128575932D01*
X162058728Y-128589217D01*
X162039723Y-128611469D01*
X162030680Y-128639301D01*
X161207563Y-128639301D01*
X161225398Y-128631497D01*
X161229726Y-128629072D01*
X161231399Y-128628545D01*
X161234711Y-128626279D01*
X161238225Y-128624311D01*
X161239444Y-128623042D01*
X161243534Y-128620245D01*
X161303764Y-128569717D01*
X161314047Y-128559209D01*
X161314778Y-128557804D01*
X161315946Y-128556739D01*
X161323464Y-128544104D01*
X161366254Y-128452861D01*
X161371162Y-128439002D01*
X161371319Y-128435574D01*
X161372488Y-128432353D01*
X161373275Y-128417672D01*
X161370100Y-128346543D01*
X161368572Y-128335915D01*
X161368554Y-128334376D01*
X161368182Y-128333201D01*
X161368008Y-128331989D01*
X161367359Y-128330601D01*
X161364117Y-128320358D01*
X161349819Y-128286977D01*
X161350593Y-128286639D01*
X161354921Y-128284214D01*
X161356594Y-128283687D01*
X161359907Y-128281420D01*
X161363420Y-128279453D01*
X161364638Y-128278185D01*
X161368730Y-128275387D01*
X161428958Y-128224859D01*
X161439241Y-128214351D01*
X161439971Y-128212948D01*
X161441140Y-128211882D01*
X161448657Y-128199246D01*
X161477184Y-128138418D01*
X161482093Y-128124559D01*
X161482250Y-128121131D01*
X161483419Y-128117910D01*
X161484206Y-128103229D01*
X161481031Y-128032099D01*
X161479503Y-128021471D01*
X161479485Y-128019931D01*
X161479113Y-128018755D01*
X161478939Y-128017545D01*
X161478291Y-128016159D01*
X161475048Y-128005913D01*
X161457609Y-127965199D01*
X161452339Y-127955618D01*
X161451797Y-127954236D01*
X161451079Y-127953327D01*
X161450523Y-127952316D01*
X161449463Y-127951281D01*
X161442684Y-127942698D01*
X161393544Y-127891682D01*
X161382355Y-127882144D01*
X161378977Y-127880670D01*
X161376174Y-127878276D01*
X161362703Y-127872384D01*
X161140789Y-127800280D01*
X161136976Y-127799443D01*
X161135598Y-127798797D01*
X161133616Y-127798706D01*
X161126428Y-127797129D01*
X161116409Y-127797917D01*
X161106365Y-127797457D01*
X161101941Y-127799056D01*
X161097255Y-127799425D01*
X161088298Y-127803988D01*
X161078845Y-127807406D01*
X161075371Y-127810574D01*
X161071181Y-127812710D01*
X161064650Y-127820356D01*
X161057227Y-127827129D01*
X161053462Y-127833455D01*
X161052176Y-127834962D01*
X161051706Y-127836406D01*
X161049709Y-127839764D01*
X160750180Y-128478465D01*
X160745272Y-128492325D01*
X160745056Y-128497024D01*
X160743604Y-128501495D01*
X158348090Y-128501495D01*
X158411855Y-128305246D01*
X160078193Y-128305246D01*
X160088142Y-128332766D01*
X160107865Y-128354384D01*
X160134360Y-128366810D01*
X160163593Y-128368150D01*
X160191113Y-128358201D01*
X160212731Y-128338478D01*
X160220249Y-128325843D01*
X160336635Y-128077664D01*
X160367329Y-128064233D01*
X160459996Y-128435756D01*
X160464936Y-128449604D01*
X160482345Y-128473126D01*
X160507430Y-128488195D01*
X160536372Y-128492518D01*
X160564766Y-128485436D01*
X160588288Y-128468027D01*
X160603357Y-128442942D01*
X160607680Y-128414000D01*
X160605537Y-128399454D01*
X160506711Y-128003242D01*
X160862363Y-127847614D01*
X160875190Y-127840428D01*
X160895469Y-127819330D01*
X160906130Y-127792078D01*
X160905552Y-127762820D01*
X160893820Y-127736011D01*
X160872722Y-127715732D01*
X160845471Y-127705070D01*
X160816213Y-127705649D01*
X160802230Y-127710195D01*
X160433246Y-127871656D01*
X160519778Y-127687141D01*
X160524686Y-127673282D01*
X160526026Y-127644049D01*
X160516077Y-127616529D01*
X160496354Y-127594910D01*
X160469859Y-127582485D01*
X160440626Y-127581145D01*
X160413106Y-127591094D01*
X160391488Y-127610817D01*
X160383970Y-127623452D01*
X160084441Y-128262153D01*
X160079533Y-128276013D01*
X160078193Y-128305246D01*
X158411855Y-128305246D01*
X158485920Y-128077297D01*
X159411606Y-128077297D01*
X159413733Y-128088292D01*
X159414829Y-128099440D01*
X159416494Y-128102557D01*
X159417166Y-128106027D01*
X159423340Y-128115372D01*
X159428618Y-128125252D01*
X159431348Y-128127494D01*
X159433297Y-128130443D01*
X159442579Y-128136715D01*
X159451235Y-128143822D01*
X159454615Y-128144848D01*
X159457544Y-128146827D01*
X159468518Y-128149069D01*
X159479236Y-128152323D01*
X159482753Y-128151977D01*
X159486216Y-128152685D01*
X159497211Y-128150557D01*
X159508359Y-128149462D01*
X159511476Y-128147796D01*
X159514946Y-128147125D01*
X159524291Y-128140950D01*
X159534171Y-128135673D01*
X159537858Y-128131987D01*
X159539362Y-128130994D01*
X159540422Y-128129424D01*
X159544570Y-128125279D01*
X159704245Y-127930807D01*
X159666345Y-128147148D01*
X159665919Y-128152789D01*
X159665422Y-128154590D01*
X159665646Y-128156410D01*
X159665240Y-128161809D01*
X159667651Y-128172630D01*
X159669011Y-128183632D01*
X159670810Y-128186807D01*
X159671605Y-128190372D01*
X159677973Y-128199445D01*
X159683440Y-128209091D01*
X159686319Y-128211337D01*
X159688416Y-128214324D01*
X159697768Y-128220268D01*
X159706514Y-128227090D01*
X159710033Y-128228062D01*
X159713114Y-128230021D01*
X159724034Y-128231933D01*
X159734720Y-128234888D01*
X159738343Y-128234440D01*
X159741939Y-128235070D01*
X159752760Y-128232658D01*
X159763762Y-128231299D01*
X159766937Y-128229499D01*
X159770502Y-128228705D01*
X159779575Y-128222336D01*
X159789221Y-128216870D01*
X159792954Y-128212946D01*
X159794454Y-128211894D01*
X159795455Y-128210317D01*
X159799356Y-128206219D01*
X160257396Y-127619022D01*
X160265259Y-127606598D01*
X160273057Y-127578393D01*
X160269468Y-127549351D01*
X160255039Y-127523892D01*
X160231965Y-127505893D01*
X160203759Y-127498095D01*
X160174717Y-127501683D01*
X160149258Y-127516113D01*
X160139123Y-127526764D01*
X159865966Y-127876945D01*
X159901237Y-127675616D01*
X159901544Y-127671540D01*
X159901999Y-127670042D01*
X159901805Y-127668072D01*
X159902342Y-127660954D01*
X159900130Y-127651030D01*
X159899137Y-127640919D01*
X159896975Y-127636873D01*
X159895977Y-127632391D01*
X159890135Y-127624067D01*
X159885349Y-127615108D01*
X159881803Y-127612196D01*
X159879166Y-127608439D01*
X159870587Y-127602987D01*
X159862732Y-127596537D01*
X159858339Y-127595203D01*
X159854468Y-127592743D01*
X159844458Y-127590989D01*
X159834730Y-127588036D01*
X159830162Y-127588484D01*
X159825643Y-127587693D01*
X159815722Y-127589903D01*
X159805608Y-127590898D01*
X159801559Y-127593060D01*
X159797080Y-127594059D01*
X159788764Y-127599895D01*
X159779796Y-127604686D01*
X159774743Y-127609736D01*
X159773128Y-127610870D01*
X159772290Y-127612188D01*
X159769397Y-127615080D01*
X159620661Y-127796227D01*
X159701107Y-127402497D01*
X159702624Y-127387872D01*
X159697064Y-127359142D01*
X159680933Y-127334726D01*
X159656686Y-127318342D01*
X159628014Y-127312484D01*
X159599284Y-127318044D01*
X159574868Y-127334175D01*
X159558484Y-127358422D01*
X159554143Y-127372469D01*
X159413123Y-128062672D01*
X159412517Y-128068505D01*
X159411968Y-128070317D01*
X159412144Y-128072109D01*
X159411606Y-128077297D01*
X158485920Y-128077297D01*
X158569877Y-127818903D01*
X158651658Y-127818903D01*
X158652871Y-127848141D01*
X158665181Y-127874690D01*
X158686714Y-127894507D01*
X158714191Y-127904574D01*
X158743429Y-127903361D01*
X158769978Y-127891051D01*
X158780946Y-127881260D01*
X158897338Y-127754788D01*
X159110585Y-127824076D01*
X159095029Y-127966539D01*
X159094873Y-127981241D01*
X159103071Y-128009333D01*
X159121395Y-128032148D01*
X159147056Y-128046216D01*
X159176147Y-128049393D01*
X159204239Y-128041195D01*
X159227054Y-128022871D01*
X159241122Y-127997210D01*
X159244143Y-127982821D01*
X159321759Y-127272017D01*
X159321915Y-127257315D01*
X159320325Y-127251869D01*
X159320091Y-127246207D01*
X159316266Y-127237958D01*
X159313717Y-127229223D01*
X159310165Y-127224800D01*
X159307781Y-127219659D01*
X159301089Y-127213501D01*
X159295393Y-127206408D01*
X159290420Y-127203681D01*
X159286248Y-127199842D01*
X159277708Y-127196713D01*
X159269732Y-127192340D01*
X159264093Y-127191724D01*
X159258771Y-127189774D01*
X159249686Y-127190150D01*
X159240641Y-127189163D01*
X159235196Y-127190752D01*
X159229533Y-127190987D01*
X159221279Y-127194813D01*
X159212549Y-127197362D01*
X159208130Y-127200910D01*
X159202984Y-127203297D01*
X159192015Y-127213088D01*
X158670574Y-127779684D01*
X158661725Y-127791426D01*
X158651658Y-127818903D01*
X158569877Y-127818903D01*
X158844885Y-126972515D01*
X172373256Y-131368149D01*
G37*
X162266971Y-89236927D02*
X162981256Y-89236927D01*
X162981256Y-89236927D02*
X163124113Y-89284546D01*
X163124113Y-89284546D02*
X163219352Y-89379784D01*
X163219352Y-89379784D02*
X163266971Y-89522641D01*
X163266971Y-89522641D02*
X163266971Y-89617879D01*
X162362209Y-88808355D02*
X162314590Y-88760736D01*
X162314590Y-88760736D02*
X162266971Y-88665498D01*
X162266971Y-88665498D02*
X162266971Y-88427403D01*
X162266971Y-88427403D02*
X162314590Y-88332165D01*
X162314590Y-88332165D02*
X162362209Y-88284546D01*
X162362209Y-88284546D02*
X162457447Y-88236927D01*
X162457447Y-88236927D02*
X162552685Y-88236927D01*
X162552685Y-88236927D02*
X162695542Y-88284546D01*
X162695542Y-88284546D02*
X163266971Y-88855974D01*
X163266971Y-88855974D02*
X163266971Y-88236927D01*
X79418119Y-117349073D02*
X80220717Y-117243409D01*
X80220717Y-117243409D02*
X80308925Y-117183767D01*
X80308925Y-117183767D02*
X80349921Y-117130339D01*
X80349921Y-117130339D02*
X80384702Y-117029701D01*
X80384702Y-117029701D02*
X80359840Y-116840854D01*
X80359840Y-116840854D02*
X80300197Y-116752646D01*
X80300197Y-116752646D02*
X80246770Y-116711650D01*
X80246770Y-116711650D02*
X80146131Y-116676869D01*
X80146131Y-116676869D02*
X79343533Y-116782534D01*
X80204451Y-115660563D02*
X80279038Y-116227102D01*
X80241745Y-115943832D02*
X79250300Y-116074359D01*
X79250300Y-116074359D02*
X79404366Y-116150135D01*
X79404366Y-116150135D02*
X79511220Y-116232128D01*
X79511220Y-116232128D02*
X79570863Y-116320335D01*
D11*
X131913952Y-75353994D02*
X129513952Y-75353994D01*
X129513952Y-74795594D01*
X131913952Y-74795594D01*
X131913952Y-75353994D01*
G36*
X131913952Y-75353994D02*
G01*
X129513952Y-75353994D01*
X129513952Y-74795594D01*
X131913952Y-74795594D01*
X131913952Y-75353994D01*
G37*
X131913952Y-75353994D02*
X131913952Y-73627194D01*
X129513952Y-75353994D02*
X129513952Y-73627194D01*
X117803252Y-75353994D02*
X115403252Y-75353994D01*
X115403252Y-74795594D01*
X117803252Y-74795594D01*
X117803252Y-75353994D01*
G36*
X117803252Y-75353994D02*
G01*
X115403252Y-75353994D01*
X115403252Y-74795594D01*
X117803252Y-74795594D01*
X117803252Y-75353994D01*
G37*
X117803252Y-75353994D02*
X117803252Y-73627194D01*
X115403252Y-75353994D02*
X115403252Y-73627194D01*
D12*
X117789258Y-102695619D02*
X120189258Y-102695618D01*
X117789258Y-106795617D02*
X117789258Y-102695619D01*
X117789258Y-110795619D02*
X117789258Y-114895617D01*
X117789258Y-114895617D02*
X129589258Y-114895617D01*
X119589258Y-115995618D02*
X119889258Y-116295618D01*
X119589258Y-116595618D02*
X119589258Y-115995618D01*
X119889258Y-116295618D02*
X119589258Y-116595618D01*
X122389258Y-102695618D02*
X124989258Y-102695618D01*
X123189259Y-108795618D02*
X124189257Y-108795618D01*
X123689258Y-109295617D02*
X123689258Y-108295619D01*
X127189258Y-102695618D02*
X129589258Y-102695619D01*
X129589258Y-102695619D02*
X129589258Y-106795617D01*
X129589258Y-110795619D02*
X129589258Y-114895617D01*
X126689258Y-108795618D02*
G75*
G02*
X120689258Y-108795618I-3000000J0D01*
G01*
X120689258Y-108795618D02*
G75*
G02*
X126689258Y-108795618I3000000J0D01*
G01*
D10*
X162685028Y-118955502D02*
X167473649Y-120559787D01*
X162699243Y-118911754D02*
X163906881Y-115195025D01*
X163906881Y-115195025D02*
X172109744Y-117860295D01*
X172447725Y-124182152D02*
X169014411Y-123066601D01*
X173669578Y-120421674D02*
X172450506Y-124173592D01*
X167448636Y-120555866D02*
G75*
G02*
X169017072Y-123042230I-458966J-2027401D01*
G01*
X172109744Y-117860295D02*
G75*
G02*
X173680750Y-120351701I-460200J-2031206D01*
G01*
D11*
X96379649Y-95767594D02*
X96379649Y-94040794D01*
X98779649Y-95767594D02*
X98779649Y-94040794D01*
X98779649Y-95767594D02*
X96379649Y-95767594D01*
X96379649Y-95209194D01*
X98779649Y-95209194D01*
X98779649Y-95767594D01*
G36*
X98779649Y-95767594D02*
G01*
X96379649Y-95767594D01*
X96379649Y-95209194D01*
X98779649Y-95209194D01*
X98779649Y-95767594D01*
G37*
D10*
X120015038Y-146058881D02*
X128640038Y-146058881D01*
X120015038Y-149966881D02*
X120015038Y-146058881D01*
X120015038Y-150012881D02*
X125065038Y-150058881D01*
X130915038Y-148012881D02*
X130915038Y-151957881D01*
X130915038Y-151966881D02*
X127305038Y-151966881D01*
X125040038Y-150062881D02*
G75*
G02*
X127300039Y-151942880I190001J-2070000D01*
G01*
X128640038Y-146058881D02*
G75*
G02*
X130904039Y-147942881I190001J-2074000D01*
G01*
X140837904Y-52700861D02*
X145878575Y-53011094D01*
X140840311Y-52654924D02*
X141044840Y-48752282D01*
X141044840Y-48752282D02*
X149658020Y-49203677D01*
X151620701Y-55222645D02*
X148015649Y-55033712D01*
X151827638Y-51274064D02*
X151621172Y-55213657D01*
X145853400Y-53013780D02*
G75*
G02*
X148011913Y-55009482I81406J-2077107D01*
G01*
X149658020Y-49203677D02*
G75*
G02*
X151820318Y-51203584I81196J-2081102D01*
G01*
X139843521Y-71674816D02*
X144884192Y-71985049D01*
X139845928Y-71628879D02*
X140050457Y-67726237D01*
X140050457Y-67726237D02*
X148663637Y-68177632D01*
X150626318Y-74196600D02*
X147021266Y-74007667D01*
X150833255Y-70248019D02*
X150626789Y-74187612D01*
X144859017Y-71987735D02*
G75*
G02*
X147017530Y-73983437I81406J-2077107D01*
G01*
X148663637Y-68177632D02*
G75*
G02*
X150825935Y-70177539I81196J-2081102D01*
G01*
D11*
X155188527Y-54813600D02*
X155188527Y-56540400D01*
X157588527Y-54813600D02*
X157588527Y-56540400D01*
X157588527Y-55372000D02*
X155188527Y-55372000D01*
X155188527Y-54813600D01*
X157588527Y-54813600D01*
X157588527Y-55372000D01*
G36*
X157588527Y-55372000D02*
G01*
X155188527Y-55372000D01*
X155188527Y-54813600D01*
X157588527Y-54813600D01*
X157588527Y-55372000D01*
G37*
D10*
X142977327Y-114193559D02*
X147907408Y-115288508D01*
X142986891Y-114148564D02*
X143799410Y-110325963D01*
X143799410Y-110325963D02*
X152235933Y-112119202D01*
X153232876Y-118371097D02*
X149701763Y-117620536D01*
X154054959Y-114503501D02*
X153234746Y-118362293D01*
X147882123Y-115287223D02*
G75*
G02*
X149701864Y-117596020I-244528J-2064269D01*
G01*
X152235933Y-112119202D02*
G75*
G02*
X154058754Y-114432744I-245360J-2068181D01*
G01*
X137119603Y-98306707D02*
X137326069Y-94367114D01*
X137326540Y-94358126D02*
X140931592Y-94547059D01*
X147902401Y-100828489D02*
X139289221Y-100377094D01*
X148106930Y-96925847D02*
X147902401Y-100828489D01*
X148109337Y-96879910D02*
X143068666Y-96569677D01*
X139289221Y-100377094D02*
G75*
G02*
X137126923Y-98377187I-81196J2081102D01*
G01*
X143093841Y-96566991D02*
G75*
G02*
X140935328Y-94571289I-81406J2077107D01*
G01*
X79006846Y-55427954D02*
X82615609Y-55333455D01*
X79110349Y-59380599D02*
X79007081Y-55436951D01*
X89954260Y-57095956D02*
X84904787Y-57182165D01*
X89955464Y-57141940D02*
X90057764Y-61048601D01*
X90057764Y-61048601D02*
X81435719Y-61274377D01*
X81435719Y-61274377D02*
G75*
G02*
X79123177Y-59450287I-244226J2068316D01*
G01*
X84929673Y-57177512D02*
G75*
G02*
X82621234Y-55357317I-244122J2064317D01*
G01*
D11*
X155188527Y-86373000D02*
X155188527Y-84646200D01*
X157588527Y-86373000D02*
X157588527Y-84646200D01*
X157588527Y-86373000D02*
X155188527Y-86373000D01*
X155188527Y-85814600D01*
X157588527Y-85814600D01*
X157588527Y-86373000D01*
G36*
X157588527Y-86373000D02*
G01*
X155188527Y-86373000D01*
X155188527Y-85814600D01*
X157588527Y-85814600D01*
X157588527Y-86373000D01*
G37*
X147222100Y-103656000D02*
X147222100Y-105382800D01*
X149622100Y-103656000D02*
X149622100Y-105382800D01*
X149622100Y-104214400D02*
X147222100Y-104214400D01*
X147222100Y-103656000D01*
X149622100Y-103656000D01*
X149622100Y-104214400D01*
G36*
X149622100Y-104214400D02*
G01*
X147222100Y-104214400D01*
X147222100Y-103656000D01*
X149622100Y-103656000D01*
X149622100Y-104214400D01*
G37*
D10*
X158616269Y-76514671D02*
X163656940Y-76824904D01*
X158618676Y-76468734D02*
X158823205Y-72566092D01*
X158823205Y-72566092D02*
X167436385Y-73017487D01*
X169399066Y-79036455D02*
X165794014Y-78847522D01*
X169606003Y-75087874D02*
X169399537Y-79027467D01*
X163631765Y-76827590D02*
G75*
G02*
X165790278Y-78823292I81406J-2077107D01*
G01*
X167436385Y-73017487D02*
G75*
G02*
X169598683Y-75017394I81196J-2081102D01*
G01*
X157880804Y-65198739D02*
X158087270Y-61259146D01*
X158087741Y-61250158D02*
X161692793Y-61439091D01*
X168663602Y-67720521D02*
X160050422Y-67269126D01*
X168868131Y-63817879D02*
X168663602Y-67720521D01*
X168870538Y-63771942D02*
X163829867Y-63461709D01*
X160050422Y-67269126D02*
G75*
G02*
X157888124Y-65269219I-81196J2081102D01*
G01*
X163855042Y-63459023D02*
G75*
G02*
X161696529Y-61463321I-81406J2077107D01*
G01*
D11*
X96379649Y-57051594D02*
X96379649Y-55324794D01*
X98779649Y-57051594D02*
X98779649Y-55324794D01*
X98779649Y-57051594D02*
X96379649Y-57051594D01*
X96379649Y-56493194D01*
X98779649Y-56493194D01*
X98779649Y-57051594D01*
G36*
X98779649Y-57051594D02*
G01*
X96379649Y-57051594D01*
X96379649Y-56493194D01*
X98779649Y-56493194D01*
X98779649Y-57051594D01*
G37*
X91462154Y-80291194D02*
X91462154Y-78564394D01*
X93862154Y-80291194D02*
X93862154Y-78564394D01*
X93862154Y-80291194D02*
X91462154Y-80291194D01*
X91462154Y-79732794D01*
X93862154Y-79732794D01*
X93862154Y-80291194D01*
G36*
X93862154Y-80291194D02*
G01*
X91462154Y-80291194D01*
X91462154Y-79732794D01*
X93862154Y-79732794D01*
X93862154Y-80291194D01*
G37*
D10*
X80756486Y-86656766D02*
X89369666Y-86205369D01*
X80961015Y-90559410D02*
X80756486Y-86656766D01*
X80963423Y-90605347D02*
X86008909Y-90386988D01*
X91743813Y-88037626D02*
X91950278Y-91977220D01*
X91950749Y-91986208D02*
X88345696Y-92175140D01*
X85984153Y-90392291D02*
G75*
G02*
X88339448Y-92151434I298076J-2057219D01*
G01*
X89369666Y-86205369D02*
G75*
G02*
X91729164Y-87968298I298285J-2061213D01*
G01*
D12*
X165372152Y-90203594D02*
X165372152Y-90603594D01*
X165372152Y-90603594D02*
X165772152Y-90403594D01*
X165772152Y-90403594D02*
X165372152Y-90203594D01*
D13*
X169302152Y-84803594D02*
X168952152Y-84803594D01*
X169302152Y-85153594D02*
X169302152Y-84803594D01*
X169302152Y-92653594D02*
X169302152Y-93003594D01*
X169302152Y-93003594D02*
X168952152Y-93003594D01*
D10*
X160787310Y-50547749D02*
X161106560Y-44456109D01*
X172870727Y-51181015D02*
X160787310Y-50547749D01*
X172870727Y-51181015D02*
X173189977Y-45089373D01*
X172883812Y-50931357D02*
X174881070Y-51036029D01*
X173176892Y-45339031D02*
X175174152Y-45443703D01*
X173189977Y-45089373D02*
X161106560Y-44456109D01*
X174881070Y-51036029D02*
X175174152Y-45443703D01*
D11*
X91462154Y-100739594D02*
X91462154Y-99012794D01*
X93862154Y-100739594D02*
X93862154Y-99012794D01*
X93862154Y-100739594D02*
X91462154Y-100739594D01*
X91462154Y-100181194D01*
X93862154Y-100181194D01*
X93862154Y-100739594D01*
G36*
X93862154Y-100739594D02*
G01*
X91462154Y-100739594D01*
X91462154Y-100181194D01*
X93862154Y-100181194D01*
X93862154Y-100739594D01*
G37*
X135228172Y-80138794D02*
X135228172Y-78411994D01*
X137628172Y-80138794D02*
X137628172Y-78411994D01*
X137628172Y-80138794D02*
X135228172Y-80138794D01*
X135228172Y-79580394D01*
X137628172Y-79580394D01*
X137628172Y-80138794D01*
G36*
X137628172Y-80138794D02*
G01*
X135228172Y-80138794D01*
X135228172Y-79580394D01*
X137628172Y-79580394D01*
X137628172Y-80138794D01*
G37*
X115403252Y-94067794D02*
X115403252Y-92340994D01*
X117803252Y-94067794D02*
X117803252Y-92340994D01*
X117803252Y-94067794D02*
X115403252Y-94067794D01*
X115403252Y-93509394D01*
X117803252Y-93509394D01*
X117803252Y-94067794D01*
G36*
X117803252Y-94067794D02*
G01*
X115403252Y-94067794D01*
X115403252Y-93509394D01*
X117803252Y-93509394D01*
X117803252Y-94067794D01*
G37*
D10*
X99921700Y-82382218D02*
X108546372Y-82306952D01*
X99955803Y-86290069D02*
X99921700Y-82382218D01*
X99956205Y-86336068D02*
X105006414Y-86337997D01*
X110838337Y-84241024D02*
X110872763Y-88185874D01*
X110872841Y-88194874D02*
X107262979Y-88226377D01*
X104981450Y-86342215D02*
G75*
G02*
X107257771Y-88202420I208058J-2068263D01*
G01*
X108546372Y-82306952D02*
G75*
G02*
X110826727Y-84171123I208092J-2072263D01*
G01*
X118902447Y-101972508D02*
X127527447Y-101972508D01*
X118902447Y-105880508D02*
X118902447Y-101972508D01*
X118902447Y-105926508D02*
X123952447Y-105972508D01*
X129802447Y-103926508D02*
X129802447Y-107871508D01*
X129802447Y-107880508D02*
X126192447Y-107880508D01*
X123927447Y-105976508D02*
G75*
G02*
X126187448Y-107856507I190001J-2070000D01*
G01*
X127527447Y-101972508D02*
G75*
G02*
X129791448Y-103856508I190001J-2074000D01*
G01*
D11*
X115403252Y-56187994D02*
X115403252Y-54461194D01*
X117803252Y-56187994D02*
X117803252Y-54461194D01*
X117803252Y-56187994D02*
X115403252Y-56187994D01*
X115403252Y-55629594D01*
X117803252Y-55629594D01*
X117803252Y-56187994D01*
G36*
X117803252Y-56187994D02*
G01*
X115403252Y-56187994D01*
X115403252Y-55629594D01*
X117803252Y-55629594D01*
X117803252Y-56187994D01*
G37*
D10*
X99587907Y-43521514D02*
X108212579Y-43446248D01*
X99622010Y-47429365D02*
X99587907Y-43521514D01*
X99622412Y-47475364D02*
X104672621Y-47477293D01*
X110504544Y-45380320D02*
X110538970Y-49325170D01*
X110539048Y-49334170D02*
X106929186Y-49365673D01*
X104647657Y-47481511D02*
G75*
G02*
X106923978Y-49341716I208058J-2068263D01*
G01*
X108212579Y-43446248D02*
G75*
G02*
X110492934Y-45310419I208092J-2072263D01*
G01*
D11*
X114497000Y-114690000D02*
X114497000Y-112963200D01*
X116897000Y-114690000D02*
X116897000Y-112963200D01*
X116897000Y-114690000D02*
X114497000Y-114690000D01*
X114497000Y-114131600D01*
X116897000Y-114131600D01*
X116897000Y-114690000D01*
G36*
X116897000Y-114690000D02*
G01*
X114497000Y-114690000D01*
X114497000Y-114131600D01*
X116897000Y-114131600D01*
X116897000Y-114690000D01*
G37*
D10*
X79764497Y-67728496D02*
X88377677Y-67277099D01*
X79969026Y-71631140D02*
X79764497Y-67728496D01*
X79971434Y-71677077D02*
X85016920Y-71458718D01*
X90751824Y-69109356D02*
X90958289Y-73048950D01*
X90958760Y-73057938D02*
X87353707Y-73246870D01*
X84992164Y-71464021D02*
G75*
G02*
X87347459Y-73223164I298076J-2057219D01*
G01*
X88377677Y-67277099D02*
G75*
G02*
X90737175Y-69040028I298285J-2061213D01*
G01*
D11*
X96379649Y-76397200D02*
X96379649Y-74670400D01*
X98779649Y-76397200D02*
X98779649Y-74670400D01*
X98779649Y-76397200D02*
X96379649Y-76397200D01*
X96379649Y-75838800D01*
X98779649Y-75838800D01*
X98779649Y-76397200D01*
G36*
X98779649Y-76397200D02*
G01*
X96379649Y-76397200D01*
X96379649Y-75838800D01*
X98779649Y-75838800D01*
X98779649Y-76397200D01*
G37*
X135228172Y-81624797D02*
X135228172Y-83351597D01*
X137628172Y-81624797D02*
X137628172Y-83351597D01*
X137628172Y-82183197D02*
X135228172Y-82183197D01*
X135228172Y-81624797D01*
X137628172Y-81624797D01*
X137628172Y-82183197D01*
G36*
X137628172Y-82183197D02*
G01*
X135228172Y-82183197D01*
X135228172Y-81624797D01*
X137628172Y-81624797D01*
X137628172Y-82183197D01*
G37*
X150105000Y-110056000D02*
X150105000Y-108329200D01*
X152505000Y-110056000D02*
X152505000Y-108329200D01*
X152505000Y-110056000D02*
X150105000Y-110056000D01*
X150105000Y-109497600D01*
X152505000Y-109497600D01*
X152505000Y-110056000D01*
G36*
X152505000Y-110056000D02*
G01*
X150105000Y-110056000D01*
X150105000Y-109497600D01*
X152505000Y-109497600D01*
X152505000Y-110056000D01*
G37*
X144339200Y-103656000D02*
X144339200Y-105382800D01*
X146739200Y-103656000D02*
X146739200Y-105382800D01*
X146739200Y-104214400D02*
X144339200Y-104214400D01*
X144339200Y-103656000D01*
X146739200Y-103656000D01*
X146739200Y-104214400D01*
G36*
X146739200Y-104214400D02*
G01*
X144339200Y-104214400D01*
X144339200Y-103656000D01*
X146739200Y-103656000D01*
X146739200Y-104214400D01*
G37*
D10*
X118814141Y-42840324D02*
X127439141Y-42840324D01*
X118814141Y-46748324D02*
X118814141Y-42840324D01*
X118814141Y-46794324D02*
X123864141Y-46840324D01*
X129714141Y-44794324D02*
X129714141Y-48739324D01*
X129714141Y-48748324D02*
X126104141Y-48748324D01*
X123839141Y-46844324D02*
G75*
G02*
X126099142Y-48724323I190001J-2070000D01*
G01*
X127439141Y-42840324D02*
G75*
G02*
X129703142Y-44724324I190001J-2074000D01*
G01*
D11*
X151319069Y-57286800D02*
X151319069Y-59013600D01*
X153719069Y-57286800D02*
X153719069Y-59013600D01*
X153719069Y-57845200D02*
X151319069Y-57845200D01*
X151319069Y-57286800D01*
X153719069Y-57286800D01*
X153719069Y-57845200D01*
G36*
X153719069Y-57845200D02*
G01*
X151319069Y-57845200D01*
X151319069Y-57286800D01*
X153719069Y-57286800D01*
X153719069Y-57845200D01*
G37*
X151555600Y-79959600D02*
X151555600Y-81686400D01*
X153955600Y-79959600D02*
X153955600Y-81686400D01*
X153955600Y-80518000D02*
X151555600Y-80518000D01*
X151555600Y-79959600D01*
X153955600Y-79959600D01*
X153955600Y-80518000D01*
G36*
X153955600Y-80518000D02*
G01*
X151555600Y-80518000D01*
X151555600Y-79959600D01*
X153955600Y-79959600D01*
X153955600Y-80518000D01*
G37*
X91462154Y-53551594D02*
X91462154Y-51824794D01*
X93862154Y-53551594D02*
X93862154Y-51824794D01*
X93862154Y-53551594D02*
X91462154Y-53551594D01*
X91462154Y-52993194D01*
X93862154Y-52993194D01*
X93862154Y-53551594D01*
G36*
X93862154Y-53551594D02*
G01*
X91462154Y-53551594D01*
X91462154Y-52993194D01*
X93862154Y-52993194D01*
X93862154Y-53551594D01*
G37*
X110455060Y-89383000D02*
X110455060Y-91109800D01*
X112855060Y-89383000D02*
X112855060Y-91109800D01*
X112855060Y-89941400D02*
X110455060Y-89941400D01*
X110455060Y-89383000D01*
X112855060Y-89383000D01*
X112855060Y-89941400D01*
G36*
X112855060Y-89941400D02*
G01*
X110455060Y-89941400D01*
X110455060Y-89383000D01*
X112855060Y-89383000D01*
X112855060Y-89941400D01*
G37*
X132921152Y-108278505D02*
X132921152Y-110005305D01*
X135321152Y-108278505D02*
X135321152Y-110005305D01*
X135321152Y-108836905D02*
X132921152Y-108836905D01*
X132921152Y-108278505D01*
X135321152Y-108278505D01*
X135321152Y-108836905D01*
G36*
X135321152Y-108836905D02*
G01*
X132921152Y-108836905D01*
X132921152Y-108278505D01*
X135321152Y-108278505D01*
X135321152Y-108836905D01*
G37*
D10*
X155892030Y-103146812D02*
X156098496Y-99207219D01*
X156098967Y-99198231D02*
X159704019Y-99387164D01*
X166674828Y-105668594D02*
X158061648Y-105217199D01*
X166879357Y-101765952D02*
X166674828Y-105668594D01*
X166881764Y-101720015D02*
X161841093Y-101409782D01*
X158061648Y-105217199D02*
G75*
G02*
X155899350Y-103217292I-81196J2081102D01*
G01*
X161866268Y-101407096D02*
G75*
G02*
X159707755Y-99411394I-81406J2077107D01*
G01*
X118814141Y-80840484D02*
X127439141Y-80840484D01*
X118814141Y-84748484D02*
X118814141Y-80840484D01*
X118814141Y-84794484D02*
X123864141Y-84840484D01*
X129714141Y-82794484D02*
X129714141Y-86739484D01*
X129714141Y-86748484D02*
X126104141Y-86748484D01*
X123839141Y-84844484D02*
G75*
G02*
X126099142Y-86724483I190001J-2070000D01*
G01*
X127439141Y-80840484D02*
G75*
G02*
X129703142Y-82724484I190001J-2074000D01*
G01*
X118814141Y-61840284D02*
X127439141Y-61840284D01*
X118814141Y-65748284D02*
X118814141Y-61840284D01*
X118814141Y-65794284D02*
X123864141Y-65840284D01*
X129714141Y-63794284D02*
X129714141Y-67739284D01*
X129714141Y-67748284D02*
X126104141Y-67748284D01*
X123839141Y-65844284D02*
G75*
G02*
X126099142Y-67724283I190001J-2070000D01*
G01*
X127439141Y-61840284D02*
G75*
G02*
X129703142Y-63724284I190001J-2074000D01*
G01*
X99755893Y-62882740D02*
X108380565Y-62807474D01*
X99789996Y-66790591D02*
X99755893Y-62882740D01*
X99790398Y-66836590D02*
X104840607Y-66838519D01*
X110672530Y-64741546D02*
X110706956Y-68686396D01*
X110707034Y-68695396D02*
X107097172Y-68726899D01*
X104815643Y-66842737D02*
G75*
G02*
X107091964Y-68702942I208058J-2068263D01*
G01*
X108380565Y-62807474D02*
G75*
G02*
X110660920Y-64671645I208092J-2072263D01*
G01*
D11*
X135228172Y-60707794D02*
X135228172Y-58980994D01*
X137628172Y-60707794D02*
X137628172Y-58980994D01*
X137628172Y-60707794D02*
X135228172Y-60707794D01*
X135228172Y-60149394D01*
X137628172Y-60149394D01*
X137628172Y-60707794D01*
G36*
X137628172Y-60707794D02*
G01*
X135228172Y-60707794D01*
X135228172Y-60149394D01*
X137628172Y-60149394D01*
X137628172Y-60707794D01*
G37*
D10*
X80404426Y-109511843D02*
G75*
G02*
X82126263Y-107267900I1982890J261053D01*
G01*
X84449629Y-124915619D02*
G75*
G02*
X82205686Y-123193782I-261053J1982890D01*
G01*
X98869982Y-105063548D02*
G75*
G02*
X101113923Y-106785386I261055J-1982885D01*
G01*
X102915186Y-120467325D02*
G75*
G02*
X101193349Y-122711267I-1982891J-261051D01*
G01*
%LPC*%
D13*
X83874371Y-110767606D02*
X82867063Y-110900221D01*
X82734448Y-109892913D01*
X83741756Y-109760298D01*
X83874371Y-110767606D01*
G36*
X83874371Y-110767606D02*
G01*
X82867063Y-110900221D01*
X82734448Y-109892913D01*
X83741756Y-109760298D01*
X83874371Y-110767606D01*
G37*
X85359654Y-122049456D02*
X84352346Y-122182070D01*
X84219732Y-121174762D01*
X85227040Y-121042148D01*
X85359654Y-122049456D01*
G36*
X85359654Y-122049456D02*
G01*
X84352346Y-122182070D01*
X84219732Y-121174762D01*
X85227040Y-121042148D01*
X85359654Y-122049456D01*
G37*
X86392641Y-110436070D02*
X85385333Y-110568684D01*
X85252718Y-109561376D01*
X86260026Y-109428762D01*
X86392641Y-110436070D01*
G36*
X86392641Y-110436070D02*
G01*
X85385333Y-110568684D01*
X85252718Y-109561376D01*
X86260026Y-109428762D01*
X86392641Y-110436070D01*
G37*
X87877924Y-121717919D02*
X86870616Y-121850534D01*
X86738002Y-120843226D01*
X87745310Y-120710611D01*
X87877924Y-121717919D01*
G36*
X87877924Y-121717919D02*
G01*
X86870616Y-121850534D01*
X86738002Y-120843226D01*
X87745310Y-120710611D01*
X87877924Y-121717919D01*
G37*
X88910911Y-110104533D02*
X87903603Y-110237148D01*
X87770988Y-109229840D01*
X88778296Y-109097225D01*
X88910911Y-110104533D01*
G36*
X88910911Y-110104533D02*
G01*
X87903603Y-110237148D01*
X87770988Y-109229840D01*
X88778296Y-109097225D01*
X88910911Y-110104533D01*
G37*
X90396194Y-121386383D02*
X89388886Y-121518997D01*
X89256272Y-120511689D01*
X90263580Y-120379075D01*
X90396194Y-121386383D01*
G36*
X90396194Y-121386383D02*
G01*
X89388886Y-121518997D01*
X89256272Y-120511689D01*
X90263580Y-120379075D01*
X90396194Y-121386383D01*
G37*
X91429181Y-109772997D02*
X90421873Y-109905611D01*
X90289258Y-108898303D01*
X91296566Y-108765689D01*
X91429181Y-109772997D01*
G36*
X91429181Y-109772997D02*
G01*
X90421873Y-109905611D01*
X90289258Y-108898303D01*
X91296566Y-108765689D01*
X91429181Y-109772997D01*
G37*
X92914464Y-121054846D02*
X91907156Y-121187461D01*
X91774542Y-120180153D01*
X92781850Y-120047538D01*
X92914464Y-121054846D01*
G36*
X92914464Y-121054846D02*
G01*
X91907156Y-121187461D01*
X91774542Y-120180153D01*
X92781850Y-120047538D01*
X92914464Y-121054846D01*
G37*
X93947451Y-109441460D02*
X92940143Y-109574075D01*
X92807528Y-108566767D01*
X93814836Y-108434152D01*
X93947451Y-109441460D01*
G36*
X93947451Y-109441460D02*
G01*
X92940143Y-109574075D01*
X92807528Y-108566767D01*
X93814836Y-108434152D01*
X93947451Y-109441460D01*
G37*
X95432734Y-120723310D02*
X94425426Y-120855924D01*
X94292812Y-119848616D01*
X95300120Y-119716002D01*
X95432734Y-120723310D01*
G36*
X95432734Y-120723310D02*
G01*
X94425426Y-120855924D01*
X94292812Y-119848616D01*
X95300120Y-119716002D01*
X95432734Y-120723310D01*
G37*
X96465721Y-109109924D02*
X95458413Y-109242538D01*
X95325798Y-108235230D01*
X96333106Y-108102616D01*
X96465721Y-109109924D01*
G36*
X96465721Y-109109924D02*
G01*
X95458413Y-109242538D01*
X95325798Y-108235230D01*
X96333106Y-108102616D01*
X96465721Y-109109924D01*
G37*
X97951004Y-120391773D02*
X96943696Y-120524388D01*
X96811082Y-119517080D01*
X97818390Y-119384465D01*
X97951004Y-120391773D01*
G36*
X97951004Y-120391773D02*
G01*
X96943696Y-120524388D01*
X96811082Y-119517080D01*
X97818390Y-119384465D01*
X97951004Y-120391773D01*
G37*
X98983990Y-108778387D02*
X97976683Y-108911002D01*
X97844068Y-107903694D01*
X98851376Y-107771079D01*
X98983990Y-108778387D01*
G36*
X98983990Y-108778387D02*
G01*
X97976683Y-108911002D01*
X97844068Y-107903694D01*
X98851376Y-107771079D01*
X98983990Y-108778387D01*
G37*
X100469274Y-120060237D02*
X99461966Y-120192851D01*
X99329352Y-119185543D01*
X100336660Y-119052929D01*
X100469274Y-120060237D01*
G36*
X100469274Y-120060237D02*
G01*
X99461966Y-120192851D01*
X99329352Y-119185543D01*
X100336660Y-119052929D01*
X100469274Y-120060237D01*
G37*
D14*
X130713952Y-70453994D03*
X130713952Y-73853994D03*
X116603252Y-70453994D03*
X116603252Y-73853994D03*
D15*
X129289258Y-108795618D03*
X118089258Y-108795618D03*
D16*
X121189258Y-116295618D03*
X126189258Y-116295618D03*
X123689258Y-116295618D03*
X126189257Y-101795618D03*
X121189259Y-101795618D03*
D17*
X159297816Y-110910179D03*
D18*
X161519585Y-121593588D03*
D19*
X163512330Y-119570355D03*
X165505075Y-117547124D03*
D20*
X166350952Y-123163394D03*
D19*
X170336442Y-119116930D03*
X170759380Y-121925065D03*
D18*
X171182319Y-124733200D03*
D21*
X162511437Y-116547725D03*
D22*
X173699231Y-122906991D03*
D14*
X97579649Y-94267594D03*
X97579649Y-90867594D03*
D18*
X119721849Y-152881991D03*
D19*
X120991849Y-150341990D03*
X122261849Y-147801991D03*
D20*
X124801849Y-152881991D03*
D19*
X127341849Y-147801991D03*
X128611849Y-150341991D03*
D18*
X129881849Y-152881991D03*
D23*
X119105899Y-147776591D03*
D24*
X131711245Y-150367394D03*
D18*
X140394959Y-55550694D03*
D19*
X141796152Y-53080641D03*
X143197345Y-50610590D03*
D20*
X145467997Y-55816561D03*
D19*
X148270383Y-50876456D03*
X149405709Y-53479442D03*
D18*
X150541035Y-56082428D03*
D25*
X140047049Y-50420055D03*
D26*
X152499528Y-53667020D03*
D18*
X139400576Y-74524649D03*
D19*
X140801769Y-72054596D03*
X142202962Y-69584545D03*
D20*
X144473614Y-74790516D03*
D19*
X147276000Y-69850411D03*
X148411326Y-72453397D03*
D18*
X149546652Y-75056383D03*
D25*
X139052666Y-69394010D03*
D26*
X151505145Y-72640975D03*
D17*
X111459625Y-145881102D03*
D27*
X156388527Y-56313600D03*
X156388527Y-59713600D03*
D18*
X142094023Y-116939015D03*
D19*
X143864369Y-114718567D03*
X145634709Y-112498120D03*
D20*
X147063013Y-117995206D03*
D19*
X150603699Y-113554312D03*
X151317851Y-116302855D03*
D18*
X152032003Y-119051397D03*
D28*
X142553006Y-111817117D03*
D29*
X154344236Y-116972103D03*
D18*
X148552282Y-94030077D03*
D19*
X147151089Y-96500130D03*
X145749896Y-98970181D03*
D20*
X143479244Y-93764210D03*
D19*
X140676858Y-98704315D03*
X139541532Y-96101329D03*
D18*
X138406206Y-93498343D03*
D30*
X148900192Y-99160716D03*
D31*
X136447713Y-95913751D03*
D18*
X90172244Y-54220154D03*
D19*
X88969169Y-56792529D03*
X87766094Y-59364903D03*
D20*
X85093985Y-54353133D03*
D19*
X82687834Y-59497882D03*
X81351780Y-56991997D03*
D18*
X80015726Y-54486112D03*
D32*
X90921627Y-59307681D03*
D33*
X78252781Y-57047735D03*
D14*
X156388527Y-84873000D03*
X156388527Y-81473000D03*
D27*
X148422100Y-105156000D03*
X148422100Y-108556000D03*
D18*
X158173324Y-79364504D03*
D19*
X159574517Y-76894451D03*
X160975710Y-74424400D03*
D20*
X163246362Y-79630371D03*
D19*
X166048748Y-74690266D03*
X167184074Y-77293252D03*
D18*
X168319400Y-79896238D03*
D25*
X157825414Y-74233865D03*
D26*
X170277893Y-77480830D03*
D18*
X169313483Y-60922109D03*
D19*
X167912290Y-63392162D03*
X166511097Y-65862213D03*
D20*
X164240445Y-60656242D03*
D19*
X161438059Y-65596347D03*
X160302733Y-62993361D03*
D18*
X159167407Y-60390375D03*
D30*
X169661393Y-66052748D03*
D31*
X157208914Y-62805783D03*
D14*
X97579649Y-55551594D03*
X97579649Y-52151594D03*
X92662154Y-78791194D03*
X92662154Y-75391194D03*
D18*
X80820793Y-93485870D03*
D19*
X81956119Y-90882883D03*
X83091445Y-88279898D03*
D20*
X85893831Y-93220003D03*
D19*
X88164483Y-88014032D03*
X89565676Y-90484084D03*
D18*
X90966869Y-92954136D03*
D34*
X79938491Y-88419703D03*
D35*
X92662154Y-90347242D03*
D36*
X164572152Y-90403594D03*
X164572152Y-89903594D03*
X164572152Y-89403594D03*
X164572152Y-88903594D03*
X164572152Y-88403594D03*
X164572152Y-87903594D03*
X164572152Y-87403594D03*
D37*
X167352152Y-92103594D03*
X167352152Y-85703594D03*
D38*
X171432545Y-48051456D03*
X164442138Y-47685105D03*
D39*
X162946301Y-45273514D03*
X162723958Y-49898215D03*
X166940819Y-45482858D03*
X166718476Y-50107559D03*
X169936708Y-45639865D03*
X169714365Y-50264567D03*
X161866211Y-45246950D03*
X161607063Y-49809640D03*
D17*
X97643152Y-99951194D03*
D14*
X92662154Y-99239594D03*
X92662154Y-95839594D03*
X136428172Y-78638794D03*
X136428172Y-75238794D03*
X116603252Y-92567794D03*
X116603252Y-89167794D03*
D18*
X99688064Y-89207627D03*
D19*
X100935851Y-86656640D03*
X102183637Y-84105655D03*
D20*
X104767871Y-89163296D03*
D19*
X107263443Y-84061324D03*
X108555561Y-86590145D03*
D18*
X109847678Y-89118965D03*
D40*
X99027585Y-84107796D03*
D41*
X111655060Y-86588500D03*
D18*
X118609258Y-108795618D03*
D19*
X119879258Y-106255617D03*
X121149258Y-103715618D03*
D20*
X123689258Y-108795618D03*
D19*
X126229258Y-103715618D03*
X127499258Y-106255618D03*
D18*
X128769258Y-108795618D03*
D23*
X117993308Y-103690218D03*
D24*
X130598654Y-106281021D03*
D14*
X116603252Y-54687994D03*
X116603252Y-51287994D03*
D18*
X99354271Y-50346923D03*
D19*
X100602058Y-47795936D03*
X101849844Y-45244951D03*
D20*
X104434078Y-50302592D03*
D19*
X106929650Y-45200620D03*
X108221768Y-47729441D03*
D18*
X109513885Y-50258261D03*
D40*
X98693792Y-45247092D03*
D41*
X111321267Y-47727796D03*
D17*
X156464000Y-49403000D03*
D14*
X115697000Y-113190000D03*
X115697000Y-109790000D03*
D18*
X79828804Y-74557600D03*
D19*
X80964130Y-71954613D03*
X82099456Y-69351628D03*
D20*
X84901842Y-74291733D03*
D19*
X87172494Y-69085762D03*
X88573687Y-71555814D03*
D18*
X89974880Y-74025866D03*
D34*
X78946502Y-69491433D03*
D35*
X91670165Y-71418972D03*
D14*
X97579649Y-74897200D03*
X97579649Y-71497200D03*
D27*
X136428172Y-83124797D03*
X136428172Y-86524797D03*
D14*
X151305000Y-108556000D03*
X151305000Y-105156000D03*
D27*
X145539200Y-105156000D03*
X145539200Y-108556000D03*
D18*
X118520952Y-49663434D03*
D19*
X119790952Y-47123433D03*
X121060952Y-44583434D03*
D20*
X123600952Y-49663434D03*
D19*
X126140952Y-44583434D03*
X127410952Y-47123434D03*
D18*
X128680952Y-49663434D03*
D23*
X117905002Y-44558034D03*
D24*
X130510348Y-47148837D03*
D27*
X152519069Y-58786800D03*
X152519069Y-62186800D03*
X152755600Y-81459600D03*
X152755600Y-84859600D03*
D14*
X92662154Y-52051594D03*
X92662154Y-48651594D03*
D27*
X111655060Y-90883000D03*
X111655060Y-94283000D03*
D17*
X93573600Y-43891200D03*
D27*
X134121152Y-109778505D03*
X134121152Y-113178505D03*
D18*
X167324709Y-98870182D03*
D19*
X165923516Y-101340235D03*
X164522323Y-103810286D03*
D20*
X162251671Y-98604315D03*
D19*
X159449285Y-103544420D03*
X158313959Y-100941434D03*
D18*
X157178633Y-98338448D03*
D30*
X167672619Y-104000821D03*
D31*
X155220140Y-100753856D03*
D18*
X118520952Y-87663594D03*
D19*
X119790952Y-85123593D03*
X121060952Y-82583594D03*
D20*
X123600952Y-87663594D03*
D19*
X126140952Y-82583594D03*
X127410952Y-85123594D03*
D18*
X128680952Y-87663594D03*
D23*
X117905002Y-82558194D03*
D24*
X130510348Y-85148997D03*
D18*
X118520952Y-68663394D03*
D19*
X119790952Y-66123393D03*
X121060952Y-63583394D03*
D20*
X123600952Y-68663394D03*
D19*
X126140952Y-63583394D03*
X127410952Y-66123394D03*
D18*
X128680952Y-68663394D03*
D23*
X117905002Y-63557994D03*
D24*
X130510348Y-66148797D03*
D18*
X99522257Y-69708149D03*
D19*
X100770044Y-67157162D03*
X102017830Y-64606177D03*
D20*
X104602064Y-69663818D03*
D19*
X107097636Y-64561846D03*
X108389754Y-67090667D03*
D18*
X109681871Y-69619487D03*
D40*
X98861778Y-64608318D03*
D41*
X111489253Y-67089022D03*
D14*
X136428172Y-59207794D03*
X136428172Y-55807794D03*
D42*
X98170050Y-106487832D03*
X95651780Y-106819368D03*
X93133510Y-107150905D03*
X90615240Y-107482441D03*
X88096970Y-107813978D03*
X85578700Y-108145514D03*
X83060430Y-108477051D03*
D43*
X95862606Y-108420750D03*
X93344336Y-108752287D03*
X90826066Y-109083823D03*
X88307796Y-109415360D03*
X85789526Y-109746896D03*
X83271256Y-110078433D03*
X98380876Y-108089216D03*
D44*
X99932466Y-119874717D03*
X97414198Y-120206253D03*
X94895927Y-120537790D03*
X92377657Y-120869326D03*
X89859387Y-121200863D03*
X87341117Y-121532400D03*
X84822847Y-121863936D03*
D42*
X100141335Y-121461227D03*
X97623065Y-121792763D03*
X95104795Y-122124300D03*
X92586525Y-122455837D03*
X90068255Y-122787373D03*
X87549985Y-123118910D03*
X85031715Y-123450446D03*
D45*
X83403869Y-111085741D03*
X85922140Y-110754204D03*
X88440410Y-110422668D03*
X90958680Y-110091131D03*
X93476950Y-109759595D03*
X95995220Y-109428058D03*
X98513490Y-109096522D03*
D46*
X99799852Y-118867409D03*
X97281582Y-119198945D03*
X94763312Y-119530482D03*
X92245042Y-119862019D03*
X89726772Y-120193555D03*
X87208502Y-120525092D03*
X84690232Y-120856628D03*
D47*
X118948200Y-72745600D03*
X114731800Y-71577200D03*
X92024200Y-80252780D03*
X134424800Y-84802600D03*
X152501600Y-77488002D03*
X85908352Y-112549594D03*
X130510348Y-47148837D03*
X111321267Y-47727795D03*
X90902584Y-59308180D03*
X152499528Y-53667020D03*
X88448352Y-112168594D03*
X89357200Y-100939600D03*
X111489253Y-67089022D03*
X130510348Y-66148797D03*
X169642369Y-66051751D03*
X78946502Y-69491433D03*
X153466800Y-67945000D03*
X91846400Y-101650800D03*
X113690400Y-110896400D03*
X90958680Y-111533594D03*
X111655060Y-86588500D03*
X79938491Y-88419703D03*
X151505145Y-72640975D03*
X170277893Y-77480830D03*
X167653595Y-103999824D03*
X148881168Y-99159719D03*
X143560800Y-105714800D03*
X130598654Y-106281021D03*
X130510348Y-85148997D03*
X93469853Y-111159691D03*
X173699232Y-122906991D03*
X142553006Y-111817116D03*
X94742000Y-101219000D03*
X99136200Y-76682600D03*
X95995220Y-110923994D03*
X96012000Y-115316000D03*
X136423400Y-67233800D03*
X78252781Y-57047736D03*
X98712842Y-45246926D03*
X117924052Y-44558034D03*
X140066073Y-50421052D03*
X157208914Y-62805783D03*
X91670165Y-71418972D03*
X98861778Y-64608318D03*
X117924052Y-63557994D03*
X139071690Y-69395007D03*
X157844438Y-74234862D03*
X92662154Y-90347242D03*
X99027585Y-84107796D03*
X117924052Y-82558194D03*
X136447713Y-95913751D03*
X155220140Y-100753856D03*
X118012358Y-103690218D03*
X172974000Y-113020269D03*
X154344236Y-116972103D03*
X162511437Y-116547725D03*
D38*
X87208502Y-118772594D03*
D47*
X92245042Y-118442394D03*
X101580152Y-102338794D03*
X83403869Y-112676594D03*
X101580152Y-110794800D03*
X101580152Y-106529794D03*
X101580152Y-105132794D03*
X99799852Y-117781994D03*
D38*
X89726772Y-112725200D03*
X154432000Y-91440000D03*
X89726772Y-118467794D03*
D47*
X133406352Y-90908794D03*
X140182600Y-46609000D03*
X98513490Y-110794800D03*
X84683600Y-119430800D03*
X119105899Y-147776591D03*
X131711245Y-150367395D03*
X101580152Y-103735794D03*
X94763312Y-118237000D03*
X100056152Y-105132794D03*
X97281582Y-117908994D03*
%LPD*%
M02*
