G04 #@! TF.GenerationSoftware,KiCad,Pcbnew,9.0.2*
G04 #@! TF.CreationDate,2026-01-21T12:12:24+08:00*
G04 #@! TF.ProjectId,36_split_v3,33365f73-706c-4697-945f-76332e6b6963,rev?*
G04 #@! TF.SameCoordinates,Original*
G04 #@! TF.FileFunction,Soldermask,Bot*
G04 #@! TF.FilePolarity,Negative*
%FSLAX46Y46*%
G04 Gerber Fmt 4.6, Leading zero omitted, Abs format (unit mm)*
G04 Created by KiCad (PCBNEW 9.0.2) date 2026-01-21 12:12:24*
%MOMM*%
%LPD*%
G01*
G04 APERTURE LIST*
G04 Aperture macros list*
%AMRoundRect*
0 Rectangle with rounded corners*
0 $1 Rounding radius*
0 $2 $3 $4 $5 $6 $7 $8 $9 X,Y pos of 4 corners*
0 Add a 4 corners polygon primitive as box body*
4,1,4,$2,$3,$4,$5,$6,$7,$8,$9,$2,$3,0*
0 Add four circle primitives for the rounded corners*
1,1,$1+$1,$2,$3*
1,1,$1+$1,$4,$5*
1,1,$1+$1,$6,$7*
1,1,$1+$1,$8,$9*
0 Add four rect primitives between the rounded corners*
20,1,$1+$1,$2,$3,$4,$5,0*
20,1,$1+$1,$4,$5,$6,$7,0*
20,1,$1+$1,$6,$7,$8,$9,0*
20,1,$1+$1,$8,$9,$2,$3,0*%
%AMHorizOval*
0 Thick line with rounded ends*
0 $1 width*
0 $2 $3 position (X,Y) of the first rounded end (center of the circle)*
0 $4 $5 position (X,Y) of the second rounded end (center of the circle)*
0 Add line between two ends*
20,1,$1,$2,$3,$4,$5,0*
0 Add two circle primitives to create the rounded ends*
1,1,$1,$2,$3*
1,1,$1,$4,$5*%
%AMFreePoly0*
4,1,22,1.331377,1.424793,1.400966,1.369297,1.439586,1.289104,1.444600,1.244600,1.444600,-0.497840,1.424794,-0.584617,1.386021,-0.639261,0.639261,-1.386021,0.563896,-1.433377,0.497840,-1.444600,-1.244600,-1.444600,-1.331377,-1.424793,-1.400966,-1.369297,-1.439586,-1.289104,-1.444600,-1.244600,-1.444600,1.244600,-1.424793,1.331377,-1.369297,1.400966,-1.289104,1.439586,-1.244600,1.444600,
1.244600,1.444600,1.331377,1.424793,1.331377,1.424793,$1*%
%AMFreePoly1*
4,1,22,1.301577,1.418794,1.371166,1.363298,1.409786,1.283104,1.414800,1.238600,1.414800,-1.238600,1.394994,-1.325377,1.339498,-1.394966,1.259304,-1.433586,1.214800,-1.438600,-0.485920,-1.438600,-0.572697,-1.418794,-0.627341,-1.380021,-1.356220,-0.651141,-1.403577,-0.575776,-1.414800,-0.509720,-1.414800,1.238600,-1.394994,1.325377,-1.339498,1.394966,-1.259304,1.433586,-1.214800,1.438600,
1.214800,1.438600,1.301577,1.418794,1.301577,1.418794,$1*%
%AMFreePoly2*
4,1,29,0.432777,0.970194,0.502366,0.914698,0.540986,0.834504,0.546000,0.790000,0.546000,0.250000,0.526194,0.163223,0.470698,0.093634,0.466000,0.090000,0.466000,-0.090000,0.523538,-0.157911,0.545912,-0.244061,0.546000,-0.250000,0.546000,-0.790000,0.526194,-0.876777,0.470698,-0.946366,0.390504,-0.984986,0.346000,-0.990000,-0.234000,-0.990000,-0.320777,-0.970194,-0.390366,-0.914698,
-0.428986,-0.834504,-0.434000,-0.790000,-0.434000,0.790000,-0.414194,0.876777,-0.358698,0.946366,-0.278504,0.984986,-0.234000,0.990000,0.346000,0.990000,0.432777,0.970194,0.432777,0.970194,$1*%
%AMFreePoly3*
4,1,22,0.106406,0.569345,0.141421,0.541421,0.741421,-0.058579,0.788777,-0.133944,0.800000,-0.200000,0.800000,-0.400000,0.780193,-0.486777,0.724698,-0.556366,0.644504,-0.594986,0.600000,-0.600000,-0.600000,-0.600000,-0.686777,-0.580194,-0.756366,-0.524698,-0.794986,-0.444504,-0.800000,-0.400000,-0.800000,-0.200000,-0.780194,-0.113223,-0.741421,-0.058579,-0.141421,0.541421,-0.066056,0.588777,
0.022393,0.598742,0.106406,0.569345,0.106406,0.569345,$1*%
%AMFreePoly4*
4,1,26,0.686777,0.430194,0.756366,0.374698,0.794986,0.294504,0.800000,0.250000,0.800000,-1.000000,0.780194,-1.086777,0.724698,-1.156366,0.644504,-1.194986,0.555496,-1.194986,0.475302,-1.156366,0.458579,-1.141421,0.000000,-0.682842,-0.458579,-1.141421,-0.533944,-1.188778,-0.622393,-1.198742,-0.706406,-1.169345,-0.769345,-1.106406,-0.798742,-1.022393,-0.800000,-1.000000,-0.800000,0.250000,
-0.780194,0.336777,-0.724699,0.406366,-0.644505,0.444986,-0.600000,0.450000,0.600000,0.450000,0.686777,0.430194,0.686777,0.430194,$1*%
G04 Aperture macros list end*
%ADD10C,0.100000*%
%ADD11RoundRect,0.200000X0.700000X-0.600000X0.700000X0.600000X-0.700000X0.600000X-0.700000X-0.600000X0*%
%ADD12O,1.900000X3.200000*%
%ADD13C,2.400000*%
%ADD14C,3.600000*%
%ADD15C,2.100000*%
%ADD16C,3.400000*%
%ADD17C,4.400000*%
%ADD18FreePoly0,342.000000*%
%ADD19FreePoly1,342.000000*%
%ADD20FreePoly0,0.000000*%
%ADD21FreePoly1,0.000000*%
%ADD22FreePoly0,357.000000*%
%ADD23FreePoly1,357.000000*%
%ADD24RoundRect,0.200000X-0.700000X0.600000X-0.700000X-0.600000X0.700000X-0.600000X0.700000X0.600000X0*%
%ADD25FreePoly0,348.000000*%
%ADD26FreePoly1,348.000000*%
%ADD27FreePoly0,177.000000*%
%ADD28FreePoly1,177.000000*%
%ADD29FreePoly0,181.500000*%
%ADD30FreePoly1,181.500000*%
%ADD31FreePoly0,3.000000*%
%ADD32FreePoly1,3.000000*%
%ADD33C,1.200000*%
%ADD34HorizOval,2.000000X-0.199726X0.010467X0.199726X-0.010467X0*%
%ADD35FreePoly0,0.500000*%
%ADD36FreePoly1,0.500000*%
%ADD37RoundRect,0.142500X-0.357500X-0.332500X0.357500X-0.332500X0.357500X0.332500X-0.357500X0.332500X0*%
%ADD38FreePoly2,0.000000*%
%ADD39FreePoly2,180.000000*%
%ADD40RoundRect,0.135000X-0.315000X-0.315000X0.315000X-0.315000X0.315000X0.315000X-0.315000X0.315000X0*%
%ADD41C,2.000000*%
%ADD42FreePoly3,187.500000*%
%ADD43FreePoly3,7.500000*%
%ADD44FreePoly4,7.500000*%
%ADD45FreePoly4,187.500000*%
%ADD46RoundRect,0.142500X0.205753X-0.442751X0.426700X0.237255X-0.205753X0.442751X-0.426700X-0.237255X0*%
%ADD47FreePoly2,72.000000*%
%ADD48FreePoly2,252.000000*%
%ADD49RoundRect,0.135000X0.202242X-0.396923X0.396923X0.202242X-0.202242X0.396923X-0.396923X-0.202242X0*%
%ADD50C,1.100000*%
G04 APERTURE END LIST*
D10*
X83874371Y-110767606D02*
X82867063Y-110900221D01*
X82734448Y-109892913D01*
X83741756Y-109760298D01*
X83874371Y-110767606D01*
G36*
X83874371Y-110767606D02*
G01*
X82867063Y-110900221D01*
X82734448Y-109892913D01*
X83741756Y-109760298D01*
X83874371Y-110767606D01*
G37*
X85359654Y-122049456D02*
X84352346Y-122182070D01*
X84219732Y-121174762D01*
X85227040Y-121042148D01*
X85359654Y-122049456D01*
G36*
X85359654Y-122049456D02*
G01*
X84352346Y-122182070D01*
X84219732Y-121174762D01*
X85227040Y-121042148D01*
X85359654Y-122049456D01*
G37*
X86392641Y-110436070D02*
X85385333Y-110568684D01*
X85252718Y-109561376D01*
X86260026Y-109428762D01*
X86392641Y-110436070D01*
G36*
X86392641Y-110436070D02*
G01*
X85385333Y-110568684D01*
X85252718Y-109561376D01*
X86260026Y-109428762D01*
X86392641Y-110436070D01*
G37*
X87877924Y-121717919D02*
X86870616Y-121850534D01*
X86738002Y-120843226D01*
X87745310Y-120710611D01*
X87877924Y-121717919D01*
G36*
X87877924Y-121717919D02*
G01*
X86870616Y-121850534D01*
X86738002Y-120843226D01*
X87745310Y-120710611D01*
X87877924Y-121717919D01*
G37*
X88910911Y-110104533D02*
X87903603Y-110237148D01*
X87770988Y-109229840D01*
X88778296Y-109097225D01*
X88910911Y-110104533D01*
G36*
X88910911Y-110104533D02*
G01*
X87903603Y-110237148D01*
X87770988Y-109229840D01*
X88778296Y-109097225D01*
X88910911Y-110104533D01*
G37*
X90396194Y-121386383D02*
X89388886Y-121518997D01*
X89256272Y-120511689D01*
X90263580Y-120379075D01*
X90396194Y-121386383D01*
G36*
X90396194Y-121386383D02*
G01*
X89388886Y-121518997D01*
X89256272Y-120511689D01*
X90263580Y-120379075D01*
X90396194Y-121386383D01*
G37*
X91429181Y-109772997D02*
X90421873Y-109905611D01*
X90289258Y-108898303D01*
X91296566Y-108765689D01*
X91429181Y-109772997D01*
G36*
X91429181Y-109772997D02*
G01*
X90421873Y-109905611D01*
X90289258Y-108898303D01*
X91296566Y-108765689D01*
X91429181Y-109772997D01*
G37*
X92914464Y-121054846D02*
X91907156Y-121187461D01*
X91774542Y-120180153D01*
X92781850Y-120047538D01*
X92914464Y-121054846D01*
G36*
X92914464Y-121054846D02*
G01*
X91907156Y-121187461D01*
X91774542Y-120180153D01*
X92781850Y-120047538D01*
X92914464Y-121054846D01*
G37*
X93947451Y-109441460D02*
X92940143Y-109574075D01*
X92807528Y-108566767D01*
X93814836Y-108434152D01*
X93947451Y-109441460D01*
G36*
X93947451Y-109441460D02*
G01*
X92940143Y-109574075D01*
X92807528Y-108566767D01*
X93814836Y-108434152D01*
X93947451Y-109441460D01*
G37*
X95432734Y-120723310D02*
X94425426Y-120855924D01*
X94292812Y-119848616D01*
X95300120Y-119716002D01*
X95432734Y-120723310D01*
G36*
X95432734Y-120723310D02*
G01*
X94425426Y-120855924D01*
X94292812Y-119848616D01*
X95300120Y-119716002D01*
X95432734Y-120723310D01*
G37*
X96465721Y-109109924D02*
X95458413Y-109242538D01*
X95325798Y-108235230D01*
X96333106Y-108102616D01*
X96465721Y-109109924D01*
G36*
X96465721Y-109109924D02*
G01*
X95458413Y-109242538D01*
X95325798Y-108235230D01*
X96333106Y-108102616D01*
X96465721Y-109109924D01*
G37*
X97951004Y-120391773D02*
X96943696Y-120524388D01*
X96811082Y-119517080D01*
X97818390Y-119384465D01*
X97951004Y-120391773D01*
G36*
X97951004Y-120391773D02*
G01*
X96943696Y-120524388D01*
X96811082Y-119517080D01*
X97818390Y-119384465D01*
X97951004Y-120391773D01*
G37*
X98983990Y-108778387D02*
X97976683Y-108911002D01*
X97844068Y-107903694D01*
X98851376Y-107771079D01*
X98983990Y-108778387D01*
G36*
X98983990Y-108778387D02*
G01*
X97976683Y-108911002D01*
X97844068Y-107903694D01*
X98851376Y-107771079D01*
X98983990Y-108778387D01*
G37*
X100469274Y-120060237D02*
X99461966Y-120192851D01*
X99329352Y-119185543D01*
X100336660Y-119052929D01*
X100469274Y-120060237D01*
G36*
X100469274Y-120060237D02*
G01*
X99461966Y-120192851D01*
X99329352Y-119185543D01*
X100336660Y-119052929D01*
X100469274Y-120060237D01*
G37*
D11*
X130713952Y-70453994D03*
X130713952Y-73853994D03*
X116603252Y-70453994D03*
X116603252Y-73853994D03*
D12*
X129289258Y-108795618D03*
X118089258Y-108795618D03*
D13*
X121189258Y-116295618D03*
X126189258Y-116295618D03*
X123689258Y-116295618D03*
X126189257Y-101795618D03*
X121189259Y-101795618D03*
D14*
X159297816Y-110910179D03*
D15*
X161519585Y-121593588D03*
D16*
X163512330Y-119570355D03*
X165505075Y-117547124D03*
D17*
X166350952Y-123163394D03*
D16*
X170336442Y-119116930D03*
X170759380Y-121925065D03*
D15*
X171182319Y-124733200D03*
D18*
X160464949Y-118633616D03*
D19*
X173285386Y-120054702D03*
D11*
X97579649Y-94267594D03*
X97579649Y-90867594D03*
D15*
X119721849Y-152881991D03*
D16*
X120991849Y-150341990D03*
X122261849Y-147801991D03*
D17*
X124801849Y-152881991D03*
D16*
X127341849Y-147801991D03*
X128611849Y-150341991D03*
D15*
X129881849Y-152881991D03*
D20*
X117804149Y-150392791D03*
D21*
X130436249Y-147782591D03*
D15*
X140394959Y-55550694D03*
D16*
X141796152Y-53080641D03*
X143197345Y-50610590D03*
D17*
X145467997Y-55816561D03*
D16*
X148270383Y-50876456D03*
X149405709Y-53479442D03*
D15*
X150541035Y-56082428D03*
D22*
X138610162Y-52964541D03*
D23*
X151361557Y-51019031D03*
D15*
X139400576Y-74524649D03*
D16*
X140801769Y-72054596D03*
X142202962Y-69584545D03*
D17*
X144473614Y-74790516D03*
D16*
X147276000Y-69850411D03*
X148411326Y-72453397D03*
D15*
X149546652Y-75056383D03*
D22*
X137615779Y-71938496D03*
D23*
X150367174Y-69992986D03*
D14*
X111459625Y-145881102D03*
D24*
X156388527Y-56313600D03*
X156388527Y-59713600D03*
D15*
X142094023Y-116939015D03*
D16*
X143864369Y-114718567D03*
X145634709Y-112498120D03*
D17*
X147063013Y-117995206D03*
D16*
X150603699Y-113554312D03*
X151317851Y-116302855D03*
D15*
X152032003Y-119051397D03*
D25*
X140735763Y-114105497D03*
D26*
X153634513Y-114178698D03*
D15*
X148552282Y-94030077D03*
D16*
X147151089Y-96500130D03*
X145749896Y-98970181D03*
D17*
X143479244Y-93764210D03*
D16*
X140676858Y-98704315D03*
X139541532Y-96101329D03*
D15*
X138406206Y-93498343D03*
D27*
X150337079Y-96616230D03*
D28*
X137585684Y-98561740D03*
D15*
X90172244Y-54220154D03*
D16*
X88969169Y-56792529D03*
X87766094Y-59364903D03*
D17*
X85093985Y-54353133D03*
D16*
X82687834Y-59497882D03*
X81351780Y-56991997D03*
D15*
X80015726Y-54486112D03*
D29*
X92154447Y-56658302D03*
D30*
X79595002Y-59598277D03*
D11*
X156388527Y-84873000D03*
X156388527Y-81473000D03*
D24*
X148422100Y-105156000D03*
X148422100Y-108556000D03*
D15*
X158173324Y-79364504D03*
D16*
X159574517Y-76894451D03*
X160975710Y-74424400D03*
D17*
X163246362Y-79630371D03*
D16*
X166048748Y-74690266D03*
X167184074Y-77293252D03*
D15*
X168319400Y-79896238D03*
D22*
X156388527Y-76778351D03*
D23*
X169139922Y-74832841D03*
D15*
X169313483Y-60922109D03*
D16*
X167912290Y-63392162D03*
X166511097Y-65862213D03*
D17*
X164240445Y-60656242D03*
D16*
X161438059Y-65596347D03*
X160302733Y-62993361D03*
D15*
X159167407Y-60390375D03*
D27*
X171098280Y-63508262D03*
D28*
X158346885Y-65453772D03*
D11*
X97579649Y-55551594D03*
X97579649Y-52151594D03*
X92662154Y-78791194D03*
X92662154Y-75391194D03*
D15*
X80820793Y-93485870D03*
D16*
X81956119Y-90882883D03*
X83091445Y-88279898D03*
D17*
X85893831Y-93220003D03*
D16*
X88164483Y-88014032D03*
X89565676Y-90484084D03*
D15*
X90966869Y-92954136D03*
D31*
X78775446Y-91100446D03*
D32*
X91253627Y-87832710D03*
D33*
X171432545Y-48051456D03*
X164442138Y-47685105D03*
D34*
X162946301Y-45273514D03*
X162723958Y-49898215D03*
X166940819Y-45482858D03*
X166718476Y-50107559D03*
X169936708Y-45639865D03*
X169714365Y-50264567D03*
X161866211Y-45246950D03*
X161607063Y-49809640D03*
D14*
X97643152Y-99951194D03*
D11*
X92662154Y-99239594D03*
X92662154Y-95839594D03*
X136428172Y-78638794D03*
X136428172Y-75238794D03*
X116603252Y-92567794D03*
X116603252Y-89167794D03*
D15*
X99688064Y-89207627D03*
D16*
X100935851Y-86656640D03*
X102183637Y-84105655D03*
D17*
X104767871Y-89163296D03*
D16*
X107263443Y-84061324D03*
X108555561Y-86590145D03*
D15*
X109847678Y-89118965D03*
D35*
X97748715Y-86735256D03*
D36*
X110357556Y-84014921D03*
D15*
X118609258Y-108795618D03*
D16*
X119879258Y-106255617D03*
X121149258Y-103715618D03*
D17*
X123689258Y-108795618D03*
D16*
X126229258Y-103715618D03*
X127499258Y-106255618D03*
D15*
X128769258Y-108795618D03*
D20*
X116691558Y-106306418D03*
D21*
X129323658Y-103696218D03*
D11*
X116603252Y-54687994D03*
X116603252Y-51287994D03*
D15*
X99354271Y-50346923D03*
D16*
X100602058Y-47795936D03*
X101849844Y-45244951D03*
D17*
X104434078Y-50302592D03*
D16*
X106929650Y-45200620D03*
X108221768Y-47729441D03*
D15*
X109513885Y-50258261D03*
D35*
X97414922Y-47874552D03*
D36*
X110023763Y-45154217D03*
D14*
X156464000Y-49403000D03*
D11*
X115697000Y-113190000D03*
X115697000Y-109790000D03*
D15*
X79828804Y-74557600D03*
D16*
X80964130Y-71954613D03*
X82099456Y-69351628D03*
D17*
X84901842Y-74291733D03*
D16*
X87172494Y-69085762D03*
X88573687Y-71555814D03*
D15*
X89974880Y-74025866D03*
D31*
X77783457Y-72172176D03*
D32*
X90261638Y-68904440D03*
D11*
X97579649Y-74897200D03*
X97579649Y-71497200D03*
D24*
X136428172Y-83124797D03*
X136428172Y-86524797D03*
D11*
X151305000Y-108556000D03*
X151305000Y-105156000D03*
D24*
X145539200Y-105156000D03*
X145539200Y-108556000D03*
D15*
X118520952Y-49663434D03*
D16*
X119790952Y-47123433D03*
X121060952Y-44583434D03*
D17*
X123600952Y-49663434D03*
D16*
X126140952Y-44583434D03*
X127410952Y-47123434D03*
D15*
X128680952Y-49663434D03*
D20*
X116603252Y-47174234D03*
D21*
X129235352Y-44564034D03*
D24*
X152519069Y-58786800D03*
X152519069Y-62186800D03*
X152755600Y-81459600D03*
X152755600Y-84859600D03*
D11*
X92662154Y-52051594D03*
X92662154Y-48651594D03*
D24*
X111655060Y-90883000D03*
X111655060Y-94283000D03*
D14*
X93573600Y-43891200D03*
D24*
X134121152Y-109778505D03*
X134121152Y-113178505D03*
D15*
X167324709Y-98870182D03*
D16*
X165923516Y-101340235D03*
X164522323Y-103810286D03*
D17*
X162251671Y-98604315D03*
D16*
X159449285Y-103544420D03*
X158313959Y-100941434D03*
D15*
X157178633Y-98338448D03*
D27*
X169109506Y-101456335D03*
D28*
X156358111Y-103401845D03*
D15*
X118520952Y-87663594D03*
D16*
X119790952Y-85123593D03*
X121060952Y-82583594D03*
D17*
X123600952Y-87663594D03*
D16*
X126140952Y-82583594D03*
X127410952Y-85123594D03*
D15*
X128680952Y-87663594D03*
D20*
X116603252Y-85174394D03*
D21*
X129235352Y-82564194D03*
D15*
X118520952Y-68663394D03*
D16*
X119790952Y-66123393D03*
X121060952Y-63583394D03*
D17*
X123600952Y-68663394D03*
D16*
X126140952Y-63583394D03*
X127410952Y-66123394D03*
D15*
X128680952Y-68663394D03*
D20*
X116603252Y-66174194D03*
D21*
X129235352Y-63563994D03*
D15*
X99522257Y-69708149D03*
D16*
X100770044Y-67157162D03*
X102017830Y-64606177D03*
D17*
X104602064Y-69663818D03*
D16*
X107097636Y-64561846D03*
X108389754Y-67090667D03*
D15*
X109681871Y-69619487D03*
D35*
X97582908Y-67235778D03*
D36*
X110191749Y-64515443D03*
D11*
X136428172Y-59207794D03*
X136428172Y-55807794D03*
D37*
X111456331Y-157229972D03*
X111456331Y-157229972D03*
D38*
X110440331Y-158204972D03*
D39*
X112472331Y-158204972D03*
D40*
X111456331Y-159204972D03*
D41*
X98170050Y-106487832D03*
X95651780Y-106819368D03*
X93133510Y-107150905D03*
X90615240Y-107482441D03*
X88096970Y-107813978D03*
X85578700Y-108145514D03*
X83060430Y-108477051D03*
D42*
X95862606Y-108420750D03*
X93344336Y-108752287D03*
X90826066Y-109083823D03*
X88307796Y-109415360D03*
X85789526Y-109746896D03*
X83271256Y-110078433D03*
X98380876Y-108089216D03*
D43*
X99932466Y-119874717D03*
X97414198Y-120206253D03*
X94895927Y-120537790D03*
X92377657Y-120869326D03*
X89859387Y-121200863D03*
X87341117Y-121532400D03*
X84822847Y-121863936D03*
D41*
X100141335Y-121461227D03*
X97623065Y-121792763D03*
X95104795Y-122124300D03*
X92586525Y-122455837D03*
X90068255Y-122787373D03*
X87549985Y-123118910D03*
X85031715Y-123450446D03*
D44*
X84690232Y-120856628D03*
X87208502Y-120525092D03*
X89726772Y-120193555D03*
X92245042Y-119862019D03*
X94763312Y-119530482D03*
X97281582Y-119198945D03*
X99799852Y-118867409D03*
D45*
X98513490Y-109096522D03*
X95995220Y-109428058D03*
X93476950Y-109759595D03*
X90958680Y-110091131D03*
X88440410Y-110422668D03*
X85922140Y-110754204D03*
X83403869Y-111085741D03*
D46*
X174757777Y-113020269D03*
X174757777Y-113020269D03*
D47*
X175371096Y-114287834D03*
D48*
X175999018Y-112355288D03*
D49*
X176636114Y-113630578D03*
D50*
X118948200Y-72745600D03*
X114731800Y-71577200D03*
X92024200Y-80252780D03*
X134424800Y-84802600D03*
X152501600Y-77488002D03*
X85908352Y-112549594D03*
X130510348Y-47148837D03*
X111321267Y-47727795D03*
X90902584Y-59308180D03*
X152499528Y-53667020D03*
X88448352Y-112168594D03*
X89357200Y-100939600D03*
X111489253Y-67089022D03*
X130510348Y-66148797D03*
X169642369Y-66051751D03*
X78946502Y-69491433D03*
X153466800Y-67945000D03*
X91846400Y-101650800D03*
X113690400Y-110896400D03*
X90958680Y-111533594D03*
X111655060Y-86588500D03*
X79938491Y-88419703D03*
X151505145Y-72640975D03*
X170277893Y-77480830D03*
X167653595Y-103999824D03*
X148881168Y-99159719D03*
X143560800Y-105714800D03*
X130598654Y-106281021D03*
X130510348Y-85148997D03*
X93469853Y-111159691D03*
X173699232Y-122906991D03*
X142553006Y-111817116D03*
X94742000Y-101219000D03*
X99136200Y-76682600D03*
X95995220Y-110923994D03*
X96012000Y-115316000D03*
X136423400Y-67233800D03*
X78252781Y-57047736D03*
X98712842Y-45246926D03*
X117924052Y-44558034D03*
X140066073Y-50421052D03*
X157208914Y-62805783D03*
X91670165Y-71418972D03*
X98861778Y-64608318D03*
X117924052Y-63557994D03*
X139071690Y-69395007D03*
X157844438Y-74234862D03*
X92662154Y-90347242D03*
X99027585Y-84107796D03*
X117924052Y-82558194D03*
X136447713Y-95913751D03*
X155220140Y-100753856D03*
X118012358Y-103690218D03*
X172974000Y-113020269D03*
X154344236Y-116972103D03*
X162511437Y-116547725D03*
D33*
X87208502Y-118772594D03*
D50*
X92245042Y-118442394D03*
X101580152Y-102338794D03*
X83403869Y-112676594D03*
X101580152Y-110794800D03*
X101580152Y-106529794D03*
X101580152Y-105132794D03*
X99799852Y-117781994D03*
D33*
X89726772Y-112725200D03*
X154432000Y-91440000D03*
X89726772Y-118467794D03*
D50*
X133406352Y-90908794D03*
X140182600Y-46609000D03*
X98513490Y-110794800D03*
X84683600Y-119430800D03*
X119105899Y-147776591D03*
X131711245Y-150367395D03*
X101580152Y-103735794D03*
X94763312Y-118237000D03*
X100056152Y-105132794D03*
X97281582Y-117908994D03*
M02*
