G04 #@! TF.GenerationSoftware,KiCad,Pcbnew,9.0.2*
G04 #@! TF.CreationDate,2026-01-21T12:12:23+08:00*
G04 #@! TF.ProjectId,36_split_v3,33365f73-706c-4697-945f-76332e6b6963,rev?*
G04 #@! TF.SameCoordinates,Original*
G04 #@! TF.FileFunction,Paste,Top*
G04 #@! TF.FilePolarity,Positive*
%FSLAX46Y46*%
G04 Gerber Fmt 4.6, Leading zero omitted, Abs format (unit mm)*
G04 Created by KiCad (PCBNEW 9.0.2) date 2026-01-21 12:12:23*
%MOMM*%
%LPD*%
G01*
G04 APERTURE LIST*
G04 Aperture macros list*
%AMOutline5P*
0 Free polygon, 5 corners , with rotation*
0 The origin of the aperture is its center*
0 number of corners: always 5*
0 $1 to $10 corner X, Y*
0 $11 Rotation angle, in degrees counterclockwise*
0 create outline with 5 corners*
4,1,5,$1,$2,$3,$4,$5,$6,$7,$8,$9,$10,$1,$2,$11*%
%AMOutline6P*
0 Free polygon, 6 corners , with rotation*
0 The origin of the aperture is its center*
0 number of corners: always 6*
0 $1 to $12 corner X, Y*
0 $13 Rotation angle, in degrees counterclockwise*
0 create outline with 6 corners*
4,1,6,$1,$2,$3,$4,$5,$6,$7,$8,$9,$10,$11,$12,$1,$2,$13*%
%AMOutline7P*
0 Free polygon, 7 corners , with rotation*
0 The origin of the aperture is its center*
0 number of corners: always 7*
0 $1 to $14 corner X, Y*
0 $15 Rotation angle, in degrees counterclockwise*
0 create outline with 7 corners*
4,1,7,$1,$2,$3,$4,$5,$6,$7,$8,$9,$10,$11,$12,$13,$14,$1,$2,$15*%
%AMOutline8P*
0 Free polygon, 8 corners , with rotation*
0 The origin of the aperture is its center*
0 number of corners: always 8*
0 $1 to $16 corner X, Y*
0 $17 Rotation angle, in degrees counterclockwise*
0 create outline with 8 corners*
4,1,8,$1,$2,$3,$4,$5,$6,$7,$8,$9,$10,$11,$12,$13,$14,$15,$16,$1,$2,$17*%
G04 Aperture macros list end*
%ADD10Outline5P,-1.225550X1.244600X1.225550X1.244600X1.225550X-0.509270X0.490220X-1.244600X-1.225550X-1.244600X342.000000*%
%ADD11Outline5P,-1.244597X1.244597X1.244597X1.244597X1.244597X-1.244597X-0.497839X-1.244597X-1.244597X-0.497839X342.000000*%
%ADD12Outline5P,-1.225550X1.244600X1.225550X1.244600X1.225550X-0.509270X0.490220X-1.244600X-1.225550X-1.244600X0.000000*%
%ADD13Outline5P,-1.244597X1.244597X1.244597X1.244597X1.244597X-1.244597X-0.497839X-1.244597X-1.244597X-0.497839X0.000000*%
%ADD14Outline5P,-1.225550X1.244600X1.225550X1.244600X1.225550X-0.509270X0.490220X-1.244600X-1.225550X-1.244600X357.000000*%
%ADD15Outline5P,-1.244597X1.244597X1.244597X1.244597X1.244597X-1.244597X-0.497839X-1.244597X-1.244597X-0.497839X357.000000*%
%ADD16Outline5P,-1.225550X1.244600X1.225550X1.244600X1.225550X-0.509270X0.490220X-1.244600X-1.225550X-1.244600X348.000000*%
%ADD17Outline5P,-1.244597X1.244597X1.244597X1.244597X1.244597X-1.244597X-0.497839X-1.244597X-1.244597X-0.497839X348.000000*%
%ADD18Outline5P,-1.225550X1.244600X1.225550X1.244600X1.225550X-0.509270X0.490220X-1.244600X-1.225550X-1.244600X177.000000*%
%ADD19Outline5P,-1.244597X1.244597X1.244597X1.244597X1.244597X-1.244597X-0.497839X-1.244597X-1.244597X-0.497839X177.000000*%
%ADD20Outline5P,-1.225550X1.244600X1.225550X1.244600X1.225550X-0.509270X0.490220X-1.244600X-1.225550X-1.244600X181.500000*%
%ADD21Outline5P,-1.244597X1.244597X1.244597X1.244597X1.244597X-1.244597X-0.497839X-1.244597X-1.244597X-0.497839X181.500000*%
%ADD22Outline5P,-1.225550X1.244600X1.225550X1.244600X1.225550X-0.509270X0.490220X-1.244600X-1.225550X-1.244600X3.000000*%
%ADD23Outline5P,-1.244597X1.244597X1.244597X1.244597X1.244597X-1.244597X-0.497839X-1.244597X-1.244597X-0.497839X3.000000*%
%ADD24R,1.100000X0.300000*%
%ADD25R,1.600000X2.000000*%
%ADD26Outline5P,-1.225550X1.244600X1.225550X1.244600X1.225550X-0.509270X0.490220X-1.244600X-1.225550X-1.244600X0.500000*%
%ADD27Outline5P,-1.244597X1.244597X1.244597X1.244597X1.244597X-1.244597X-0.497839X-1.244597X-1.244597X-0.497839X0.500000*%
G04 APERTURE END LIST*
D10*
X162511437Y-116547725D03*
D11*
X173699231Y-122906991D03*
D12*
X119105899Y-147776591D03*
D13*
X131711245Y-150367394D03*
D14*
X140047049Y-50420055D03*
D15*
X152499528Y-53667020D03*
D14*
X139052666Y-69394010D03*
D15*
X151505145Y-72640975D03*
D16*
X142553006Y-111817117D03*
D17*
X154344236Y-116972103D03*
D18*
X148900192Y-99160716D03*
D19*
X136447713Y-95913751D03*
D20*
X90921627Y-59307681D03*
D21*
X78252781Y-57047735D03*
D14*
X157825414Y-74233865D03*
D15*
X170277893Y-77480830D03*
D18*
X169661393Y-66052748D03*
D19*
X157208914Y-62805783D03*
D22*
X79938491Y-88419703D03*
D23*
X92662154Y-90347242D03*
D24*
X164572152Y-90403594D03*
X164572152Y-89903594D03*
X164572152Y-89403594D03*
X164572152Y-88903594D03*
X164572152Y-88403594D03*
X164572152Y-87903594D03*
X164572152Y-87403594D03*
D25*
X167352152Y-92103594D03*
X167352152Y-85703594D03*
D26*
X99027585Y-84107796D03*
D27*
X111655060Y-86588500D03*
D12*
X117993308Y-103690218D03*
D13*
X130598654Y-106281021D03*
D26*
X98693792Y-45247092D03*
D27*
X111321267Y-47727796D03*
D22*
X78946502Y-69491433D03*
D23*
X91670165Y-71418972D03*
D12*
X117905002Y-44558034D03*
D13*
X130510348Y-47148837D03*
D18*
X167672619Y-104000821D03*
D19*
X155220140Y-100753856D03*
D12*
X117905002Y-82558194D03*
D13*
X130510348Y-85148997D03*
D12*
X117905002Y-63557994D03*
D13*
X130510348Y-66148797D03*
D26*
X98861778Y-64608318D03*
D27*
X111489253Y-67089022D03*
M02*
