  0
SECTION
  2
HEADER
  9
$ANGBASE
  50
0.0
  9
$ANGDIR
  70
1
  9
$MEASUREMENT
  70
1
  0
ENDSEC
  0
SECTION
  2
TABLES
  0
TABLE
  2
LTYPE
  70
4
  0
LTYPE
  5
40F
  2
CONTINUOUS
  70
0
  3
Solid line
  72
65
  73
0
  40
0.0
  0
LTYPE
  5
410
  2
DASHDOT
 70
0
  3
Dash Dot ____ _ ____ _
 72
65
 73
4
 40
2.0
 49
1.25
 49
-0.25
 49
0.25
 49
-0.25
  0
LTYPE
  5
411
  2
DASHED
 70
0
  3
Dashed __ __ __ __ __
 72
65
 73
2
 40
0.75
 49
0.5
 49
-0.25
  0
LTYPE
  5
43B
  2
DOTTED
 70
0
  3
Dotted .  .  .  .
 72
65
 73
2
 40
0.2
 49
0.0
 49
-0.2
  0
ENDTAB
  0
TABLE
  2
STYLE
  70
4
  0
STYLE
  2
KICAD
  70
0
  40
0
  41
1
  42
1
  50
0
  71
0
  3
isocp.shx
  0
STYLE
  2
KICADB
  70
0
  40
0
  41
1
  42
1
  50
0
  71
0
  3
isocp.shx
  0
STYLE
  2
KICADI
  70
0
  40
0
  41
1
  42
1
  50
15
  71
0
  3
isocp.shx
  0
STYLE
  2
KICADBI
  70
0
  40
0
  41
1
  42
1
  50
15
  71
0
  3
isocp.shx
  0
ENDTAB
  0
TABLE
  2
LAYER
  70
1
  0
LAYER
  2
BLACK
  70
0
  62
7
  6
CONTINUOUS
  0
ENDTAB
  0
ENDSEC
  0
SECTION
  2
ENTITIES
0
LINE
8
BLACK
6
CONTINUOUS
10
257.837
20
-64.0419
11
246.402
21
-64.0419
0
LINE
8
BLACK
6
CONTINUOUS
10
166.498
20
-110.925
11
166.498
21
-62.6724
0
LINE
8
BLACK
6
CONTINUOUS
10
167.618
20
-61.5527
11
177.725
21
-61.5527
0
LINE
8
BLACK
6
CONTINUOUS
10
192.914
20
-132.616
11
225.579
21
-135.563
0
ARC
8
BLACK
10
259.635
20
-81.2087
40
0.79913
50
-182.341
51
-102.51
0
ARC
8
BLACK
10
173.777
20
-111.108
40
7.28091
50
-181.443
51
-168.167
0
ARC
8
BLACK
10
192.534
20
-139.023
40
0.71659
50
-79.8237
51
16.9668
0
LINE
8
BLACK
6
CONTINUOUS
10
169.699
20
-123.828
11
151.614
21
-130.381
0
ARC
8
BLACK
10
151.976
20
-131.655
40
1.32392
50
-254.138
51
-164.577
0
LINE
8
BLACK
6
CONTINUOUS
10
258.837
20
-81.1761
11
258.837
21
-65.1032
0
ARC
8
BLACK
10
260.827
20
-82.9332
40
0.761326
50
-7.04822
51
81.837
0
ARC
8
BLACK
10
249.802
20
-136.948
40
0.779723
50
-94.5136
51
-2.56266
0
ARC
8
BLACK
10
157.475
20
-148.231
40
0.815676
50
-163.255
51
-65.6277
0
ARC
8
BLACK
10
257.785
20
-65.093
40
1.05238
50
-0.554609
51
87.1677
0
ARC
8
BLACK
10
257.703
20
-118.794
40
0.770293
50
-97.0484
51
-4.12326
0
LINE
8
BLACK
6
CONTINUOUS
10
150.699
20
-132.007
11
156.694
21
-148.466
0
ARC
8
BLACK
10
228.737
20
-117.757
40
0.770893
50
82.5697
51
178.17
0
ARC
8
BLACK
10
225.686
20
-134.785
40
0.78489
50
-97.835
51
-2.57026
0
ARC
8
BLACK
10
179.872
20
-59.5414
40
1.04261
50
-269.291
51
-177.75
0
LINE
8
BLACK
6
CONTINUOUS
10
166.651
20
-112.601
11
169.699
21
-123.828
0
LINE
8
BLACK
6
CONTINUOUS
10
179.859
20
-58.4988
11
244.193
21
-58.4988
0
ARC
8
BLACK
10
244.218
20
-59.5784
40
1.0799
50
-2.24953
51
91.3625
0
LINE
8
BLACK
6
CONTINUOUS
10
260.935
20
-82.1796
11
259.462
21
-81.9889
0
LINE
8
BLACK
6
CONTINUOUS
10
178.83
20
-59.5823
11
178.83
21
-60.4296
0
ARC
8
BLACK
10
177.75
20
-60.472
40
1.08093
50
-91.304
51
2.24878
0
LINE
8
BLACK
6
CONTINUOUS
10
192.66
20
-139.728
11
174.372
21
-142.929
0
ARC
8
BLACK
10
167.59
20
-62.6445
40
1.09223
50
-271.47
51
-178.537
0
LINE
8
BLACK
6
CONTINUOUS
10
226.47
20
-134.82
11
227.966
21
-117.732
0
LINE
8
BLACK
6
CONTINUOUS
10
174.372
20
-142.929
11
157.811
21
-148.974
0
ARC
8
BLACK
10
246.378
20
-62.9613
40
1.08089
50
-182.254
51
-88.6951
0
LINE
8
BLACK
6
CONTINUOUS
10
258.472
20
-118.85
11
261.583
21
-83.0266
0
ARC
8
BLACK
10
192.88
20
-133.234
40
0.618977
50
-273.195
51
-171.532
0
LINE
8
BLACK
6
CONTINUOUS
10
193.219
20
-138.814
11
192.268
21
-133.326
0
LINE
8
BLACK
6
CONTINUOUS
10
245.297
20
-62.9188
11
245.297
21
-59.6208
0
LINE
8
BLACK
6
CONTINUOUS
10
228.836
20
-116.992
11
257.609
21
-119.559
0
LINE
8
BLACK
6
CONTINUOUS
10
34.6316
20
-119.559
11
63.404
21
-116.992
0
LINE
8
BLACK
6
CONTINUOUS
10
46.943
20
-59.6208
11
46.943
21
-62.9188
0
LINE
8
BLACK
6
CONTINUOUS
10
99.9729
20
-133.326
11
99.0214
21
-138.814
0
ARC
8
BLACK
10
99.3607
20
-133.234
40
0.618976
50
-8.46812
51
93.1952
0
LINE
8
BLACK
6
CONTINUOUS
10
30.6575
20
-83.0266
11
33.7688
21
-118.85
0
ARC
8
BLACK
10
45.8629
20
-62.9613
40
1.08092
50
-91.3049
51
2.2541
0
LINE
8
BLACK
6
CONTINUOUS
10
134.429
20
-148.974
11
117.868
21
-142.929
0
LINE
8
BLACK
6
CONTINUOUS
10
64.2742
20
-117.732
11
65.7707
21
-134.82
0
ARC
8
BLACK
10
124.651
20
-62.6445
40
1.09215
50
-1.46304
51
91.4705
0
LINE
8
BLACK
6
CONTINUOUS
10
117.868
20
-142.929
11
99.5802
21
-139.728
0
ARC
8
BLACK
10
114.491
20
-60.472
40
1.08099
50
-182.249
51
-88.696
0
LINE
8
BLACK
6
CONTINUOUS
10
113.411
20
-60.4296
11
113.411
21
-59.5823
0
LINE
8
BLACK
6
CONTINUOUS
10
32.7782
20
-81.9889
11
31.305
21
-82.1796
0
ARC
8
BLACK
10
48.022
20
-59.5784
40
1.07985
50
-271.362
51
-177.75
0
LINE
8
BLACK
6
CONTINUOUS
10
48.0477
20
-58.4988
11
112.382
21
-58.4988
0
LINE
8
BLACK
6
CONTINUOUS
10
122.542
20
-123.828
11
125.59
21
-112.601
0
ARC
8
BLACK
10
112.369
20
-59.5414
40
1.04268
50
-2.24975
51
89.2911
0
ARC
8
BLACK
10
66.5548
20
-134.785
40
0.784913
50
-177.43
51
-82.165
0
ARC
8
BLACK
10
63.5037
20
-117.757
40
0.770859
50
1.82972
51
97.4303
0
LINE
8
BLACK
6
CONTINUOUS
10
135.547
20
-148.466
11
141.541
21
-132.007
0
ARC
8
BLACK
10
34.5371
20
-118.794
40
0.770282
50
-175.877
51
-82.9516
0
ARC
8
BLACK
10
34.4558
20
-65.093
40
1.05232
50
-267.168
51
-179.445
0
ARC
8
BLACK
10
134.766
20
-148.231
40
0.815585
50
-114.372
51
-16.7454
0
ARC
8
BLACK
10
42.4386
20
-136.948
40
0.779669
50
-177.437
51
-85.4864
0
ARC
8
BLACK
10
31.4131
20
-82.9332
40
0.761332
50
-261.837
51
-172.952
0
LINE
8
BLACK
6
CONTINUOUS
10
33.4035
20
-65.1032
11
33.4035
21
-81.1761
0
ARC
8
BLACK
10
140.265
20
-131.655
40
1.32392
50
-15.4229
51
74.1384
0
LINE
8
BLACK
6
CONTINUOUS
10
140.627
20
-130.381
11
122.542
21
-123.828
0
ARC
8
BLACK
10
99.7068
20
-139.023
40
0.716558
50
-196.967
51
-100.176
0
ARC
8
BLACK
10
118.464
20
-111.108
40
7.28091
50
-11.8327
51
1.4435
0
ARC
8
BLACK
10
32.6051
20
-81.2087
40
0.799099
50
-77.49
51
2.3411
0
LINE
8
BLACK
6
CONTINUOUS
10
66.6618
20
-135.563
11
99.3262
21
-132.616
0
LINE
8
BLACK
6
CONTINUOUS
10
114.515
20
-61.5527
11
124.623
21
-61.5527
0
LINE
8
BLACK
6
CONTINUOUS
10
125.742
20
-62.6724
11
125.742
21
-110.925
0
LINE
8
BLACK
6
CONTINUOUS
10
45.8383
20
-64.0419
11
34.4038
21
-64.0419
0
LINE
8
BLACK
6
CONTINUOUS
10
257.211
20
-101.957
11
242.467
21
-100.667
0
LINE
8
BLACK
6
CONTINUOUS
10
242.467
20
-100.667
11
241.177
21
-115.411
0
LINE
8
BLACK
6
CONTINUOUS
10
241.177
20
-115.411
11
255.921
21
-116.701
0
LINE
8
BLACK
6
CONTINUOUS
10
255.921
20
-116.701
11
257.211
21
-101.957
0
LINE
8
BLACK
6
CONTINUOUS
10
220.159
20
-77.2482
11
205.359
21
-77.2482
0
LINE
8
BLACK
6
CONTINUOUS
10
205.359
20
-77.2482
11
205.359
21
-92.0482
0
LINE
8
BLACK
6
CONTINUOUS
10
205.359
20
-92.0482
11
220.159
21
-92.0482
0
LINE
8
BLACK
6
CONTINUOUS
10
220.159
20
-92.0482
11
220.159
21
-77.2482
0
CIRCLE
8
BLACK
10
224.207
20
-131.651
40
1.6
0
CIRCLE
8
BLACK
10
187.275
20
-115.903
40
1.6
0
LINE
8
BLACK
6
CONTINUOUS
10
258.725
20
-85.0295
11
243.981
21
-83.7395
0
LINE
8
BLACK
6
CONTINUOUS
10
243.981
20
-83.7395
11
242.691
21
-98.4832
0
LINE
8
BLACK
6
CONTINUOUS
10
242.691
20
-98.4832
11
257.435
21
-99.7731
0
LINE
8
BLACK
6
CONTINUOUS
10
257.435
20
-99.7731
11
258.725
21
-85.0295
0
LINE
8
BLACK
6
CONTINUOUS
10
256.158
20
-66.6823
11
241.358
21
-66.6823
0
LINE
8
BLACK
6
CONTINUOUS
10
241.358
20
-66.6823
11
241.358
21
-81.4823
0
LINE
8
BLACK
6
CONTINUOUS
10
241.358
20
-81.4823
11
256.158
21
-81.4823
0
LINE
8
BLACK
6
CONTINUOUS
10
256.158
20
-81.4823
11
256.158
21
-66.6823
0
CIRCLE
8
BLACK
10
241.454
20
-63.0108
40
1.6
0
LINE
8
BLACK
6
CONTINUOUS
10
220.159
20
-60.2482
11
205.359
21
-60.2482
0
LINE
8
BLACK
6
CONTINUOUS
10
205.359
20
-60.2482
11
205.359
21
-75.0482
0
LINE
8
BLACK
6
CONTINUOUS
10
205.359
20
-75.0482
11
220.159
21
-75.0482
0
LINE
8
BLACK
6
CONTINUOUS
10
220.159
20
-75.0482
11
220.159
21
-60.2482
0
LINE
8
BLACK
6
CONTINUOUS
10
184.159
20
-82.3578
11
169.359
21
-82.3578
0
LINE
8
BLACK
6
CONTINUOUS
10
169.359
20
-82.3578
11
169.359
21
-97.1578
0
LINE
8
BLACK
6
CONTINUOUS
10
169.359
20
-97.1578
11
184.159
21
-97.1578
0
LINE
8
BLACK
6
CONTINUOUS
10
184.159
20
-97.1578
11
184.159
21
-82.3578
0
LINE
8
BLACK
6
CONTINUOUS
10
202.158
20
-80.5584
11
187.358
21
-80.5584
0
LINE
8
BLACK
6
CONTINUOUS
10
187.358
20
-80.5584
11
187.358
21
-95.3584
0
LINE
8
BLACK
6
CONTINUOUS
10
187.358
20
-95.3584
11
202.158
21
-95.3584
0
LINE
8
BLACK
6
CONTINUOUS
10
202.158
20
-95.3584
11
202.158
21
-80.5584
0
LINE
8
BLACK
6
CONTINUOUS
10
184.159
20
-99.3578
11
169.359
21
-99.3578
0
LINE
8
BLACK
6
CONTINUOUS
10
169.359
20
-99.3578
11
169.359
21
-114.158
0
LINE
8
BLACK
6
CONTINUOUS
10
169.359
20
-114.158
11
184.159
21
-114.158
0
LINE
8
BLACK
6
CONTINUOUS
10
184.159
20
-114.158
11
184.159
21
-99.3578
0
CIRCLE
8
BLACK
10
238.634
20
-115.903
40
1.6
0
LINE
8
BLACK
6
CONTINUOUS
10
202.158
20
-97.5588
11
187.358
21
-97.5588
0
LINE
8
BLACK
6
CONTINUOUS
10
187.358
20
-97.5588
11
187.358
21
-112.359
0
LINE
8
BLACK
6
CONTINUOUS
10
187.358
20
-112.359
11
202.158
21
-112.359
0
LINE
8
BLACK
6
CONTINUOUS
10
202.158
20
-112.359
11
202.158
21
-97.5588
0
LINE
8
BLACK
6
CONTINUOUS
10
184.159
20
-65.358
11
169.359
21
-65.358
0
LINE
8
BLACK
6
CONTINUOUS
10
169.359
20
-65.358
11
169.359
21
-80.158
0
LINE
8
BLACK
6
CONTINUOUS
10
169.359
20
-80.158
11
184.159
21
-80.158
0
LINE
8
BLACK
6
CONTINUOUS
10
184.159
20
-80.158
11
184.159
21
-65.358
0
LINE
8
BLACK
6
CONTINUOUS
10
238.158
20
-64.559
11
223.358
21
-64.559
0
LINE
8
BLACK
6
CONTINUOUS
10
223.358
20
-64.559
11
223.358
21
-79.359
0
LINE
8
BLACK
6
CONTINUOUS
10
223.358
20
-79.359
11
238.158
21
-79.359
0
LINE
8
BLACK
6
CONTINUOUS
10
238.158
20
-79.359
11
238.158
21
-64.559
0
LINE
8
BLACK
6
CONTINUOUS
10
202.158
20
-63.5584
11
187.358
21
-63.5584
0
LINE
8
BLACK
6
CONTINUOUS
10
187.358
20
-63.5584
11
187.358
21
-78.3584
0
LINE
8
BLACK
6
CONTINUOUS
10
187.358
20
-78.3584
11
202.158
21
-78.3584
0
LINE
8
BLACK
6
CONTINUOUS
10
202.158
20
-78.3584
11
202.158
21
-63.5584
0
CIRCLE
8
BLACK
10
170.715
20
-129.314
40
1.6
0
LINE
8
BLACK
6
CONTINUOUS
10
220.159
20
-94.2484
11
205.359
21
-94.2484
0
LINE
8
BLACK
6
CONTINUOUS
10
205.359
20
-94.2484
11
205.359
21
-109.048
0
LINE
8
BLACK
6
CONTINUOUS
10
205.359
20
-109.048
11
220.159
21
-109.048
0
LINE
8
BLACK
6
CONTINUOUS
10
220.159
20
-109.048
11
220.159
21
-94.2484
0
LINE
8
BLACK
6
CONTINUOUS
10
158.252
20
-146.57
11
172.16
21
-141.508
0
LINE
8
BLACK
6
CONTINUOUS
10
172.16
20
-141.508
11
167.098
21
-127.601
0
LINE
8
BLACK
6
CONTINUOUS
10
167.098
20
-127.601
11
153.19
21
-132.662
0
LINE
8
BLACK
6
CONTINUOUS
10
153.19
20
-132.662
11
158.252
21
-146.57
0
LINE
8
BLACK
6
CONTINUOUS
10
238.158
20
-81.5586
11
223.358
21
-81.5586
0
LINE
8
BLACK
6
CONTINUOUS
10
223.358
20
-81.5586
11
223.358
21
-96.3586
0
LINE
8
BLACK
6
CONTINUOUS
10
223.358
20
-96.3586
11
238.158
21
-96.3586
0
LINE
8
BLACK
6
CONTINUOUS
10
238.158
20
-96.3586
11
238.158
21
-81.5586
0
LINE
8
BLACK
6
CONTINUOUS
10
238.158
20
-98.5582
11
223.358
21
-98.5582
0
LINE
8
BLACK
6
CONTINUOUS
10
223.358
20
-98.5582
11
223.358
21
-113.358
0
LINE
8
BLACK
6
CONTINUOUS
10
223.358
20
-113.358
11
238.158
21
-113.358
0
LINE
8
BLACK
6
CONTINUOUS
10
238.158
20
-113.358
11
238.158
21
-98.5582
0
LINE
8
BLACK
6
CONTINUOUS
10
175.609
20
-140.593
11
190.184
21
-138.023
0
LINE
8
BLACK
6
CONTINUOUS
10
190.184
20
-138.023
11
187.614
21
-123.448
0
LINE
8
BLACK
6
CONTINUOUS
10
187.614
20
-123.448
11
173.039
21
-126.018
0
LINE
8
BLACK
6
CONTINUOUS
10
173.039
20
-126.018
11
175.609
21
-140.593
0
CIRCLE
8
BLACK
10
182.449
20
-62.0044
40
1.6
0
LINE
8
BLACK
6
CONTINUOUS
10
54.0825
20
-98.5582
11
68.8825
21
-98.5582
0
LINE
8
BLACK
6
CONTINUOUS
10
68.8825
20
-98.5582
11
68.8825
21
-113.358
0
LINE
8
BLACK
6
CONTINUOUS
10
68.8825
20
-113.358
11
54.0825
21
-113.358
0
LINE
8
BLACK
6
CONTINUOUS
10
54.0825
20
-113.358
11
54.0825
21
-98.5582
0
LINE
8
BLACK
6
CONTINUOUS
10
54.0825
20
-81.5586
11
68.8825
21
-81.5586
0
LINE
8
BLACK
6
CONTINUOUS
10
68.8825
20
-81.5586
11
68.8825
21
-96.3586
0
LINE
8
BLACK
6
CONTINUOUS
10
68.8825
20
-96.3586
11
54.0825
21
-96.3586
0
LINE
8
BLACK
6
CONTINUOUS
10
54.0825
20
-96.3586
11
54.0825
21
-81.5586
0
CIRCLE
8
BLACK
10
109.791
20
-62.0044
40
1.6
0
LINE
8
BLACK
6
CONTINUOUS
10
116.632
20
-140.593
11
102.057
21
-138.023
0
LINE
8
BLACK
6
CONTINUOUS
10
102.057
20
-138.023
11
104.627
21
-123.448
0
LINE
8
BLACK
6
CONTINUOUS
10
104.627
20
-123.448
11
119.202
21
-126.018
0
LINE
8
BLACK
6
CONTINUOUS
10
119.202
20
-126.018
11
116.632
21
-140.593
0
LINE
8
BLACK
6
CONTINUOUS
10
36.0823
20
-66.6823
11
50.8823
21
-66.6823
0
LINE
8
BLACK
6
CONTINUOUS
10
50.8823
20
-66.6823
11
50.8823
21
-81.4823
0
LINE
8
BLACK
6
CONTINUOUS
10
50.8823
20
-81.4823
11
36.0823
21
-81.4823
0
LINE
8
BLACK
6
CONTINUOUS
10
36.0823
20
-81.4823
11
36.0823
21
-66.6823
0
LINE
8
BLACK
6
CONTINUOUS
10
33.5158
20
-85.0295
11
48.2595
21
-83.7395
0
LINE
8
BLACK
6
CONTINUOUS
10
48.2595
20
-83.7395
11
49.5494
21
-98.4832
0
LINE
8
BLACK
6
CONTINUOUS
10
49.5494
20
-98.4832
11
34.8057
21
-99.7731
0
LINE
8
BLACK
6
CONTINUOUS
10
34.8057
20
-99.7731
11
33.5158
21
-85.0295
0
CIRCLE
8
BLACK
10
104.965
20
-115.903
40
1.6
0
CIRCLE
8
BLACK
10
68.0334
20
-131.651
40
1.6
0
LINE
8
BLACK
6
CONTINUOUS
10
133.988
20
-146.57
11
120.081
21
-141.508
0
LINE
8
BLACK
6
CONTINUOUS
10
120.081
20
-141.508
11
125.143
21
-127.601
0
LINE
8
BLACK
6
CONTINUOUS
10
125.143
20
-127.601
11
139.05
21
-132.662
0
LINE
8
BLACK
6
CONTINUOUS
10
139.05
20
-132.662
11
133.988
21
-146.57
0
LINE
8
BLACK
6
CONTINUOUS
10
72.0819
20
-94.2484
11
86.8819
21
-94.2484
0
LINE
8
BLACK
6
CONTINUOUS
10
86.8819
20
-94.2484
11
86.8819
21
-109.048
0
LINE
8
BLACK
6
CONTINUOUS
10
86.8819
20
-109.048
11
72.0819
21
-109.048
0
LINE
8
BLACK
6
CONTINUOUS
10
72.0819
20
-109.048
11
72.0819
21
-94.2484
0
CIRCLE
8
BLACK
10
121.526
20
-129.314
40
1.6
0
LINE
8
BLACK
6
CONTINUOUS
10
90.0821
20
-63.5584
11
104.882
21
-63.5584
0
LINE
8
BLACK
6
CONTINUOUS
10
104.882
20
-63.5584
11
104.882
21
-78.3584
0
LINE
8
BLACK
6
CONTINUOUS
10
104.882
20
-78.3584
11
90.0821
21
-78.3584
0
LINE
8
BLACK
6
CONTINUOUS
10
90.0821
20
-78.3584
11
90.0821
21
-63.5584
0
LINE
8
BLACK
6
CONTINUOUS
10
54.0825
20
-64.559
11
68.8825
21
-64.559
0
LINE
8
BLACK
6
CONTINUOUS
10
68.8825
20
-64.559
11
68.8825
21
-79.359
0
LINE
8
BLACK
6
CONTINUOUS
10
68.8825
20
-79.359
11
54.0825
21
-79.359
0
LINE
8
BLACK
6
CONTINUOUS
10
54.0825
20
-79.359
11
54.0825
21
-64.559
0
LINE
8
BLACK
6
CONTINUOUS
10
108.082
20
-65.358
11
122.882
21
-65.358
0
LINE
8
BLACK
6
CONTINUOUS
10
122.882
20
-65.358
11
122.882
21
-80.158
0
LINE
8
BLACK
6
CONTINUOUS
10
122.882
20
-80.158
11
108.082
21
-80.158
0
LINE
8
BLACK
6
CONTINUOUS
10
108.082
20
-80.158
11
108.082
21
-65.358
0
LINE
8
BLACK
6
CONTINUOUS
10
90.0821
20
-97.5588
11
104.882
21
-97.5588
0
LINE
8
BLACK
6
CONTINUOUS
10
104.882
20
-97.5588
11
104.882
21
-112.359
0
LINE
8
BLACK
6
CONTINUOUS
10
104.882
20
-112.359
11
90.0821
21
-112.359
0
LINE
8
BLACK
6
CONTINUOUS
10
90.0821
20
-112.359
11
90.0821
21
-97.5588
0
CIRCLE
8
BLACK
10
53.6062
20
-115.903
40
1.6
0
LINE
8
BLACK
6
CONTINUOUS
10
108.082
20
-99.3578
11
122.882
21
-99.3578
0
LINE
8
BLACK
6
CONTINUOUS
10
122.882
20
-99.3578
11
122.882
21
-114.158
0
LINE
8
BLACK
6
CONTINUOUS
10
122.882
20
-114.158
11
108.082
21
-114.158
0
LINE
8
BLACK
6
CONTINUOUS
10
108.082
20
-114.158
11
108.082
21
-99.3578
0
LINE
8
BLACK
6
CONTINUOUS
10
90.0821
20
-80.5584
11
104.882
21
-80.5584
0
LINE
8
BLACK
6
CONTINUOUS
10
104.882
20
-80.5584
11
104.882
21
-95.3584
0
LINE
8
BLACK
6
CONTINUOUS
10
104.882
20
-95.3584
11
90.0821
21
-95.3584
0
LINE
8
BLACK
6
CONTINUOUS
10
90.0821
20
-95.3584
11
90.0821
21
-80.5584
0
LINE
8
BLACK
6
CONTINUOUS
10
108.082
20
-82.3578
11
122.882
21
-82.3578
0
LINE
8
BLACK
6
CONTINUOUS
10
122.882
20
-82.3578
11
122.882
21
-97.1578
0
LINE
8
BLACK
6
CONTINUOUS
10
122.882
20
-97.1578
11
108.082
21
-97.1578
0
LINE
8
BLACK
6
CONTINUOUS
10
108.082
20
-97.1578
11
108.082
21
-82.3578
0
LINE
8
BLACK
6
CONTINUOUS
10
72.0819
20
-60.2482
11
86.8819
21
-60.2482
0
LINE
8
BLACK
6
CONTINUOUS
10
86.8819
20
-60.2482
11
86.8819
21
-75.0482
0
LINE
8
BLACK
6
CONTINUOUS
10
86.8819
20
-75.0482
11
72.0819
21
-75.0482
0
LINE
8
BLACK
6
CONTINUOUS
10
72.0819
20
-75.0482
11
72.0819
21
-60.2482
0
CIRCLE
8
BLACK
10
50.7868
20
-63.0108
40
1.6
0
LINE
8
BLACK
6
CONTINUOUS
10
72.0819
20
-77.2482
11
86.8819
21
-77.2482
0
LINE
8
BLACK
6
CONTINUOUS
10
86.8819
20
-77.2482
11
86.8819
21
-92.0482
0
LINE
8
BLACK
6
CONTINUOUS
10
86.8819
20
-92.0482
11
72.0819
21
-92.0482
0
LINE
8
BLACK
6
CONTINUOUS
10
72.0819
20
-92.0482
11
72.0819
21
-77.2482
0
LINE
8
BLACK
6
CONTINUOUS
10
35.0296
20
-101.957
11
49.7732
21
-100.667
0
LINE
8
BLACK
6
CONTINUOUS
10
49.7732
20
-100.667
11
51.0632
21
-115.411
0
LINE
8
BLACK
6
CONTINUOUS
10
51.0632
20
-115.411
11
36.3195
21
-116.701
0
LINE
8
BLACK
6
CONTINUOUS
10
36.3195
20
-116.701
11
35.0296
21
-101.957
  0
ENDSEC
  0
EOF
