  0
SECTION
  2
HEADER
  9
$ANGBASE
  50
0.0
  9
$ANGDIR
  70
1
  9
$MEASUREMENT
  70
1
  0
ENDSEC
  0
SECTION
  2
TABLES
  0
TABLE
  2
LTYPE
  70
4
  0
LTYPE
  5
40F
  2
CONTINUOUS
  70
0
  3
Solid line
  72
65
  73
0
  40
0.0
  0
LTYPE
  5
410
  2
DASHDOT
 70
0
  3
Dash Dot ____ _ ____ _
 72
65
 73
4
 40
2.0
 49
1.25
 49
-0.25
 49
0.25
 49
-0.25
  0
LTYPE
  5
411
  2
DASHED
 70
0
  3
Dashed __ __ __ __ __
 72
65
 73
2
 40
0.75
 49
0.5
 49
-0.25
  0
LTYPE
  5
43B
  2
DOTTED
 70
0
  3
Dotted .  .  .  .
 72
65
 73
2
 40
0.2
 49
0.0
 49
-0.2
  0
ENDTAB
  0
TABLE
  2
STYLE
  70
4
  0
STYLE
  2
KICAD
  70
0
  40
0
  41
1
  42
1
  50
0
  71
0
  3
isocp.shx
  0
STYLE
  2
KICADB
  70
0
  40
0
  41
1
  42
1
  50
0
  71
0
  3
isocp.shx
  0
STYLE
  2
KICADI
  70
0
  40
0
  41
1
  42
1
  50
15
  71
0
  3
isocp.shx
  0
STYLE
  2
KICADBI
  70
0
  40
0
  41
1
  42
1
  50
15
  71
0
  3
isocp.shx
  0
ENDTAB
  0
TABLE
  2
LAYER
  70
1
  0
LAYER
  2
BLACK
  70
0
  62
7
  6
CONTINUOUS
  0
ENDTAB
  0
ENDSEC
  0
SECTION
  2
ENTITIES
0
LINE
8
BLACK
6
CONTINUOUS
10
40.9346
20
-65.0475
11
40.9346
21
-68.3455
0
LINE
8
BLACK
6
CONTINUOUS
10
93.9645
20
-138.752
11
93.013
21
-144.241
0
ARC
8
BLACK
10
157.042
20
-68.0711
40
1.09204
50
-271.481
51
-178.531
0
LINE
8
BLACK
6
CONTINUOUS
10
168.283
20
-65.009
11
168.283
21
-65.8563
0
LINE
8
BLACK
6
CONTINUOUS
10
125.677
20
-123.819
11
127.545
21
-116.886
0
LINE
8
BLACK
6
CONTINUOUS
10
139.703
20
-136.201
11
146.147
21
-153.893
0
LINE
8
BLACK
6
CONTINUOUS
10
248.29
20
-86.6028
11
248.29
21
-70.5299
0
ARC
8
BLACK
10
93.3523
20
-138.661
40
0.618967
50
-8.46923
51
93.1965
0
ARC
8
BLACK
10
154.935
20
-113.589
40
1.01649
50
-75.5305
51
1.78732
0
ARC
8
BLACK
10
181.987
20
-144.45
40
0.716423
50
-79.8383
51
16.9784
0
LINE
8
BLACK
6
CONTINUOUS
10
24.6491
20
-88.4533
11
27.8024
21
-124.72
0
ARC
8
BLACK
10
39.8545
20
-68.388
40
1.0809
50
-91.3056
51
2.2536
0
LINE
8
BLACK
6
CONTINUOUS
10
128.421
20
-154.401
11
111.86
21
-148.355
0
LINE
8
BLACK
6
CONTINUOUS
10
182.113
20
-145.155
11
163.825
21
-148.355
0
ARC
8
BLACK
10
118.642
20
-68.0712
40
1.09214
50
-1.46358
51
91.4712
0
ARC
8
BLACK
10
146.928
20
-153.658
40
0.815734
50
-163.249
51
-65.6374
0
LINE
8
BLACK
6
CONTINUOUS
10
111.86
20
-148.355
11
93.5718
21
-145.155
0
LINE
8
BLACK
6
CONTINUOUS
10
126.135
20
-125.495
11
135.524
21
-134.55
0
ARC
8
BLACK
10
108.482
20
-65.8987
40
1.081
50
-182.248
51
-88.6968
0
LINE
8
BLACK
6
CONTINUOUS
10
107.402
20
-65.8563
11
107.402
21
-65.009
0
ARC
8
BLACK
10
247.128
20
-124.696
40
0.754814
50
-97.0471
51
-1.82899
0
ARC
8
BLACK
10
127.5
20
-124.222
40
1.86693
50
-192.479
51
-137.01
0
LINE
8
BLACK
6
CONTINUOUS
10
26.7698
20
-87.4156
11
25.2966
21
-87.6063
0
LINE
8
BLACK
6
CONTINUOUS
10
34.1951
20
-125.776
11
35.6512
21
-142.409
0
LINE
8
BLACK
6
CONTINUOUS
10
155.951
20
-113.557
11
155.951
21
-68.0991
0
LINE
8
BLACK
6
CONTINUOUS
10
140.161
20
-134.55
11
149.55
21
-125.495
0
ARC
8
BLACK
10
28.5568
20
-124.696
40
0.754795
50
-178.171
51
-82.9541
0
ARC
8
BLACK
10
42.0136
20
-65.0051
40
1.07986
50
-271.362
51
-177.75
0
ARC
8
BLACK
10
148.508
20
-116.758
40
0.390045
50
-256.816
51
-160.804
0
LINE
8
BLACK
6
CONTINUOUS
10
42.0393
20
-63.9255
11
106.373
21
-63.9255
0
ARC
8
BLACK
10
33.4246
20
-125.8
40
0.770865
50
1.83005
51
97.4312
0
ARC
8
BLACK
10
233.671
20
-65.0052
40
1.07999
50
-2.24456
51
91.3571
0
LINE
8
BLACK
6
CONTINUOUS
10
182.367
20
-138.043
11
239.193
21
-143.152
0
ARC
8
BLACK
10
106.36
20
-64.9681
40
1.04267
50
-2.25011
51
89.2864
0
LINE
8
BLACK
6
CONTINUOUS
10
247.883
20
-124.72
11
251.036
21
-88.4533
0
LINE
8
BLACK
6
CONTINUOUS
10
234.75
20
-68.3455
11
234.75
21
-65.0475
0
ARC
8
BLACK
10
182.333
20
-138.661
40
0.61898
50
-273.195
51
-171.531
0
ARC
8
BLACK
10
235.83
20
-68.388
40
1.0809
50
-182.254
51
-88.6952
0
ARC
8
BLACK
10
127.177
20
-116.758
40
0.390029
50
-19.1967
51
76.8182
0
LINE
8
BLACK
6
CONTINUOUS
10
28.6494
20
-125.445
11
33.3249
21
-125.036
0
LINE
8
BLACK
6
CONTINUOUS
10
129.538
20
-153.893
11
135.981
21
-136.201
0
ARC
8
BLACK
10
239.255
20
-142.374
40
0.779826
50
-94.5058
51
-2.57041
0
ARC
8
BLACK
10
249.088
20
-86.6353
40
0.799282
50
-182.333
51
-102.522
0
LINE
8
BLACK
6
CONTINUOUS
10
127.266
20
-116.378
11
120.496
21
-114.573
0
LINE
8
BLACK
6
CONTINUOUS
10
250.388
20
-87.6063
11
248.915
21
-87.4156
0
ARC
8
BLACK
10
141.311
20
-135.757
40
1.66769
50
-226.384
51
-164.572
0
ARC
8
BLACK
10
28.4474
20
-70.5197
40
1.05233
50
-267.167
51
-179.445
0
ARC
8
BLACK
10
247.237
20
-70.5198
40
1.05247
50
-0.549658
51
87.1627
0
ARC
8
BLACK
10
128.757
20
-153.658
40
0.815641
50
-114.369
51
-16.7376
0
ARC
8
BLACK
10
148.185
20
-124.222
40
1.8669
50
-42.99
51
12.479
0
LINE
8
BLACK
6
CONTINUOUS
10
169.311
20
-63.9255
11
233.646
21
-63.9255
0
ARC
8
BLACK
10
36.4302
20
-142.374
40
0.779677
50
-177.437
51
-85.4875
0
ARC
8
BLACK
10
25.4047
20
-88.3599
40
0.761347
50
-261.836
51
-172.951
0
ARC
8
BLACK
10
169.325
20
-64.9683
40
1.0428
50
-269.28
51
-177.761
0
LINE
8
BLACK
6
CONTINUOUS
10
148.14
20
-116.886
11
150.007
21
-123.819
0
LINE
8
BLACK
6
CONTINUOUS
10
155.189
20
-114.573
11
148.419
21
-116.378
0
ARC
8
BLACK
10
120.75
20
-113.589
40
1.01666
50
-181.781
51
-104.474
0
LINE
8
BLACK
6
CONTINUOUS
10
27.3951
20
-70.5299
11
27.3951
21
-86.6028
0
ARC
8
BLACK
10
134.374
20
-135.757
40
1.66787
50
-15.4227
51
46.3818
0
LINE
8
BLACK
6
CONTINUOUS
10
182.672
20
-144.241
11
181.72
21
-138.752
0
LINE
8
BLACK
6
CONTINUOUS
10
240.034
20
-142.409
11
241.49
21
-125.776
0
ARC
8
BLACK
10
250.28
20
-88.3599
40
0.761316
50
-7.04899
51
81.8371
0
ARC
8
BLACK
10
93.6984
20
-144.45
40
0.71657
50
-196.966
51
-100.177
0
ARC
8
BLACK
10
242.26
20
-125.8
40
0.770895
50
82.5699
51
178.17
0
LINE
8
BLACK
6
CONTINUOUS
10
247.289
20
-69.4686
11
235.855
21
-69.4686
0
LINE
8
BLACK
6
CONTINUOUS
10
242.36
20
-125.036
11
247.035
21
-125.445
0
ARC
8
BLACK
10
26.5967
20
-86.6354
40
0.799085
50
-77.4911
51
2.34042
0
LINE
8
BLACK
6
CONTINUOUS
10
36.4915
20
-143.152
11
93.3178
21
-138.043
0
LINE
8
BLACK
6
CONTINUOUS
10
157.071
20
-66.9794
11
167.178
21
-66.9794
0
LINE
8
BLACK
6
CONTINUOUS
10
163.825
20
-148.355
11
147.264
21
-154.401
0
ARC
8
BLACK
10
167.203
20
-65.8988
40
1.08083
50
-91.3095
51
2.25376
0
LINE
8
BLACK
6
CONTINUOUS
10
108.507
20
-66.9794
11
118.614
21
-66.9794
0
LINE
8
BLACK
6
CONTINUOUS
10
119.734
20
-68.0991
11
119.734
21
-113.557
0
LINE
8
BLACK
6
CONTINUOUS
10
39.8299
20
-69.4686
11
28.3954
21
-69.4686
0
LINE
8
BLACK
6
CONTINUOUS
10
119.653
20
-119.53
11
119.534
21
-119.972
0
LINE
8
BLACK
6
CONTINUOUS
10
118.877
20
-122.425
11
118.758
21
-122.867
0
LINE
8
BLACK
6
CONTINUOUS
10
117.838
20
-126.302
11
117.72
21
-126.744
0
LINE
8
BLACK
6
CONTINUOUS
10
117.72
20
-126.744
11
117.594
21
-127.341
0
LINE
8
BLACK
6
CONTINUOUS
10
117.594
20
-127.341
11
117.475
21
-127.783
0
LINE
8
BLACK
6
CONTINUOUS
10
121.321
20
-119.977
11
121.203
21
-120.419
0
LINE
8
BLACK
6
CONTINUOUS
10
120.545
20
-122.873
11
120.427
21
-123.314
0
LINE
8
BLACK
6
CONTINUOUS
10
119.506
20
-126.749
11
119.388
21
-127.191
0
LINE
8
BLACK
6
CONTINUOUS
10
119.388
20
-127.191
11
119.262
21
-127.788
0
LINE
8
BLACK
6
CONTINUOUS
10
119.262
20
-127.788
11
119.144
21
-128.23
0
LINE
8
BLACK
6
CONTINUOUS
10
122.012
20
-128.525
11
121.894
21
-128.966
0
LINE
8
BLACK
6
CONTINUOUS
10
124.131
20
-120.73
11
124.013
21
-121.172
0
LINE
8
BLACK
6
CONTINUOUS
10
123.355
20
-123.626
11
123.237
21
-124.067
0
LINE
8
BLACK
6
CONTINUOUS
10
122.32
20
-127.503
11
122.201
21
-127.944
0
LINE
8
BLACK
6
CONTINUOUS
10
122.201
20
-127.944
11
122.012
21
-128.525
0
LINE
8
BLACK
6
CONTINUOUS
10
123.68
20
-128.972
11
123.562
21
-129.413
0
LINE
8
BLACK
6
CONTINUOUS
10
125.799
20
-121.177
11
125.681
21
-121.619
0
LINE
8
BLACK
6
CONTINUOUS
10
125.024
20
-124.073
11
124.905
21
-124.514
0
LINE
8
BLACK
6
CONTINUOUS
10
123.988
20
-127.95
11
123.87
21
-128.391
0
LINE
8
BLACK
6
CONTINUOUS
10
123.87
20
-128.391
11
123.68
21
-128.972
0
ARC
8
BLACK
10
120.487
20
-119.754
40
0.863599
50
-15
51
165
0
ARC
8
BLACK
10
119.711
20
-122.649
40
0.8636
50
-15.0001
51
165
0
ARC
8
BLACK
10
118.672
20
-126.525
40
0.863599
50
-15
51
165
0
ARC
8
BLACK
10
120.368
20
-120.196
40
0.8636
50
-195
51
-15
0
ARC
8
BLACK
10
119.593
20
-123.091
40
0.863599
50
-195
51
-15
0
ARC
8
BLACK
10
118.309
20
-128.006
40
0.8636
50
-195
51
-15
0
ARC
8
BLACK
10
124.965
20
-120.954
40
0.8636
50
-15
51
165
0
ARC
8
BLACK
10
124.19
20
-123.849
40
0.863599
50
-15
51
165
0
ARC
8
BLACK
10
123.154
20
-127.726
40
0.8636
50
-15
51
165
0
ARC
8
BLACK
10
122.728
20
-129.19
40
0.8636
50
-195
51
-15
0
ARC
8
BLACK
10
124.847
20
-121.396
40
0.863599
50
-195
51
-15
0
ARC
8
BLACK
10
124.071
20
-124.291
40
0.8636
50
-195
51
-15
0
CIRCLE
8
BLACK
10
123.105
20
-119.009
40
0.45
0
CIRCLE
8
BLACK
10
121.294
20
-125.771
40
0.45
0
LINE
8
BLACK
6
CONTINUOUS
10
156.032
20
-119.53
11
156.151
21
-119.972
0
LINE
8
BLACK
6
CONTINUOUS
10
156.808
20
-122.425
11
156.926
21
-122.867
0
LINE
8
BLACK
6
CONTINUOUS
10
157.847
20
-126.302
11
157.965
21
-126.744
0
LINE
8
BLACK
6
CONTINUOUS
10
157.965
20
-126.744
11
158.091
21
-127.341
0
LINE
8
BLACK
6
CONTINUOUS
10
158.091
20
-127.341
11
158.21
21
-127.783
0
LINE
8
BLACK
6
CONTINUOUS
10
154.364
20
-119.977
11
154.482
21
-120.419
0
LINE
8
BLACK
6
CONTINUOUS
10
155.14
20
-122.873
11
155.258
21
-123.314
0
LINE
8
BLACK
6
CONTINUOUS
10
156.178
20
-126.749
11
156.297
21
-127.191
0
LINE
8
BLACK
6
CONTINUOUS
10
156.297
20
-127.191
11
156.423
21
-127.788
0
LINE
8
BLACK
6
CONTINUOUS
10
156.423
20
-127.788
11
156.541
21
-128.23
0
LINE
8
BLACK
6
CONTINUOUS
10
153.673
20
-128.525
11
153.791
21
-128.966
0
LINE
8
BLACK
6
CONTINUOUS
10
151.554
20
-120.73
11
151.672
21
-121.172
0
LINE
8
BLACK
6
CONTINUOUS
10
152.329
20
-123.626
11
152.448
21
-124.067
0
LINE
8
BLACK
6
CONTINUOUS
10
153.365
20
-127.503
11
153.483
21
-127.944
0
LINE
8
BLACK
6
CONTINUOUS
10
153.483
20
-127.944
11
153.673
21
-128.525
0
LINE
8
BLACK
6
CONTINUOUS
10
152.005
20
-128.972
11
152.123
21
-129.413
0
LINE
8
BLACK
6
CONTINUOUS
10
149.885
20
-121.177
11
150.004
21
-121.619
0
LINE
8
BLACK
6
CONTINUOUS
10
150.661
20
-124.073
11
150.779
21
-124.514
0
LINE
8
BLACK
6
CONTINUOUS
10
151.697
20
-127.95
11
151.815
21
-128.391
0
LINE
8
BLACK
6
CONTINUOUS
10
151.815
20
-128.391
11
152.005
21
-128.972
0
ARC
8
BLACK
10
155.198
20
-119.754
40
0.8636
50
-345
51
-165
0
ARC
8
BLACK
10
155.974
20
-122.649
40
0.863599
50
-345
51
-165
0
ARC
8
BLACK
10
157.013
20
-126.525
40
0.8636
50
-345
51
-165
0
ARC
8
BLACK
10
155.317
20
-120.196
40
0.8636
50
-165
51
15
0
ARC
8
BLACK
10
156.092
20
-123.091
40
0.8636
50
-165
51
15
0
ARC
8
BLACK
10
157.375
20
-128.006
40
0.863599
50
-165
51
15
0
ARC
8
BLACK
10
150.72
20
-120.954
40
0.863599
50
-345
51
-165
0
ARC
8
BLACK
10
151.495
20
-123.849
40
0.8636
50
-345
51
-165
0
ARC
8
BLACK
10
152.531
20
-127.726
40
0.863599
50
-345
51
-165
0
ARC
8
BLACK
10
152.957
20
-129.19
40
0.863599
50
-165
51
15
0
ARC
8
BLACK
10
150.838
20
-121.396
40
0.8636
50
-165
51
15
0
ARC
8
BLACK
10
151.614
20
-124.291
40
0.863599
50
-165
51
15
0
CIRCLE
8
BLACK
10
152.579
20
-119.009
40
0.45
0
CIRCLE
8
BLACK
10
154.391
20
-125.771
40
0.45
0
LINE
8
BLACK
6
CONTINUOUS
10
94.1416
20
-114.07
11
88.96
21
-114.07
0
LINE
8
BLACK
6
CONTINUOUS
10
88.96
20
-114.07
11
88.96
21
-116.102
0
LINE
8
BLACK
6
CONTINUOUS
10
88.96
20
-116.102
11
94.1416
21
-116.102
0
LINE
8
BLACK
6
CONTINUOUS
10
94.1416
20
-116.102
11
94.1416
21
-114.07
0
CIRCLE
8
BLACK
10
103.783
20
-67.4311
40
1.6
0
LINE
8
BLACK
6
CONTINUOUS
10
94.1416
20
-97.0695
11
88.96
21
-97.0695
0
LINE
8
BLACK
6
CONTINUOUS
10
88.96
20
-97.0695
11
88.96
21
-99.1015
0
LINE
8
BLACK
6
CONTINUOUS
10
88.96
20
-99.1015
11
94.1416
21
-99.1015
0
LINE
8
BLACK
6
CONTINUOUS
10
94.1416
20
-99.1015
11
94.1416
21
-97.0695
0
LINE
8
BLACK
6
CONTINUOUS
10
58.0416
20
-115.069
11
52.86
21
-115.069
0
LINE
8
BLACK
6
CONTINUOUS
10
52.86
20
-115.069
11
52.86
21
-117.101
0
LINE
8
BLACK
6
CONTINUOUS
10
52.86
20
-117.101
11
58.0416
21
-117.101
0
LINE
8
BLACK
6
CONTINUOUS
10
58.0416
20
-117.101
11
58.0416
21
-115.069
0
LINE
8
BLACK
6
CONTINUOUS
10
94.1416
20
-80.0695
11
88.96
21
-80.0695
0
LINE
8
BLACK
6
CONTINUOUS
10
88.96
20
-80.0695
11
88.96
21
-82.1016
0
LINE
8
BLACK
6
CONTINUOUS
10
88.96
20
-82.1016
11
94.1416
21
-82.1016
0
LINE
8
BLACK
6
CONTINUOUS
10
94.1416
20
-82.1016
11
94.1416
21
-80.0695
0
CIRCLE
8
BLACK
10
98.9566
20
-121.33
40
1.6
0
LINE
8
BLACK
6
CONTINUOUS
10
112.065
20
-98.8255
11
106.883
21
-98.8255
0
LINE
8
BLACK
6
CONTINUOUS
10
106.883
20
-98.8255
11
106.883
21
-100.857
0
LINE
8
BLACK
6
CONTINUOUS
10
106.883
20
-100.857
11
112.065
21
-100.857
0
LINE
8
BLACK
6
CONTINUOUS
10
112.065
20
-100.857
11
112.065
21
-98.8255
0
LINE
8
BLACK
6
CONTINUOUS
10
76.0647
20
-76.7593
11
70.8831
21
-76.7593
0
LINE
8
BLACK
6
CONTINUOUS
10
70.8831
20
-76.7593
11
70.8831
21
-78.7913
0
LINE
8
BLACK
6
CONTINUOUS
10
70.8831
20
-78.7913
11
76.0647
21
-78.7913
0
LINE
8
BLACK
6
CONTINUOUS
10
76.0647
20
-78.7913
11
76.0647
21
-76.7593
0
LINE
8
BLACK
6
CONTINUOUS
10
112.065
20
-115.869
11
106.883
21
-115.869
0
LINE
8
BLACK
6
CONTINUOUS
10
106.883
20
-115.869
11
106.883
21
-117.901
0
LINE
8
BLACK
6
CONTINUOUS
10
106.883
20
-117.901
11
112.065
21
-117.901
0
LINE
8
BLACK
6
CONTINUOUS
10
112.065
20
-117.901
11
112.065
21
-115.869
0
CIRCLE
8
BLACK
10
62.025
20
-137.078
40
1.6
0
LINE
8
BLACK
6
CONTINUOUS
10
39.3169
20
-142.103
11
38.9361
21
-137.751
0
LINE
8
BLACK
6
CONTINUOUS
10
38.9361
20
-137.751
11
56.2436
21
-136.236
0
LINE
8
BLACK
6
CONTINUOUS
10
56.2436
20
-136.236
11
56.6244
21
-140.589
0
LINE
8
BLACK
6
CONTINUOUS
10
56.6244
20
-140.589
11
39.3169
21
-142.103
0
LINE
8
BLACK
6
CONTINUOUS
10
38.1746
20
-129.046
11
37.7938
21
-124.694
0
LINE
8
BLACK
6
CONTINUOUS
10
37.7938
20
-124.694
11
55.1013
21
-123.18
0
LINE
8
BLACK
6
CONTINUOUS
10
55.1013
20
-123.18
11
55.4821
21
-127.532
0
LINE
8
BLACK
6
CONTINUOUS
10
55.4821
20
-127.532
11
38.1746
21
-129.046
0
LINE
8
BLACK
6
CONTINUOUS
10
112.065
20
-81.8691
11
106.883
21
-81.8691
0
LINE
8
BLACK
6
CONTINUOUS
10
106.883
20
-81.8691
11
106.883
21
-83.9011
0
LINE
8
BLACK
6
CONTINUOUS
10
106.883
20
-83.9011
11
112.065
21
-83.9011
0
LINE
8
BLACK
6
CONTINUOUS
10
112.065
20
-83.9011
11
112.065
21
-81.8691
0
CIRCLE
8
BLACK
10
115.517
20
-134.741
40
1.6
0
LINE
8
BLACK
6
CONTINUOUS
10
127.927
20
-138
11
123.058
21
-136.228
0
LINE
8
BLACK
6
CONTINUOUS
10
123.058
20
-136.228
11
122.363
21
-138.138
0
LINE
8
BLACK
6
CONTINUOUS
10
122.363
20
-138.138
11
127.232
21
-139.91
0
LINE
8
BLACK
6
CONTINUOUS
10
127.232
20
-139.91
11
127.927
21
-138
0
LINE
8
BLACK
6
CONTINUOUS
10
108.15
20
-132.218
11
103.047
21
-131.318
0
LINE
8
BLACK
6
CONTINUOUS
10
103.047
20
-131.318
11
102.694
21
-133.319
0
LINE
8
BLACK
6
CONTINUOUS
10
102.694
20
-133.319
11
107.797
21
-134.219
0
LINE
8
BLACK
6
CONTINUOUS
10
107.797
20
-134.219
11
108.15
21
-132.218
0
LINE
8
BLACK
6
CONTINUOUS
10
34.9537
20
-120.03
11
40.1155
21
-119.579
0
LINE
8
BLACK
6
CONTINUOUS
10
40.1155
20
-119.579
11
39.9384
21
-117.554
0
LINE
8
BLACK
6
CONTINUOUS
10
39.9384
20
-117.554
11
34.7766
21
-118.006
0
LINE
8
BLACK
6
CONTINUOUS
10
34.7766
20
-118.006
11
34.9537
21
-120.03
0
LINE
8
BLACK
6
CONTINUOUS
10
58.0416
20
-98.0697
11
52.86
21
-98.0697
0
LINE
8
BLACK
6
CONTINUOUS
10
52.86
20
-98.0697
11
52.86
21
-100.102
0
LINE
8
BLACK
6
CONTINUOUS
10
52.86
20
-100.102
11
58.0416
21
-100.102
0
LINE
8
BLACK
6
CONTINUOUS
10
58.0416
20
-100.102
11
58.0416
21
-98.0697
0
LINE
8
BLACK
6
CONTINUOUS
10
33.4419
20
-103.088
11
38.6037
21
-102.637
0
LINE
8
BLACK
6
CONTINUOUS
10
38.6037
20
-102.637
11
38.4266
21
-100.613
0
LINE
8
BLACK
6
CONTINUOUS
10
38.4266
20
-100.613
11
33.2648
21
-101.064
0
LINE
8
BLACK
6
CONTINUOUS
10
33.2648
20
-101.064
11
33.4419
21
-103.088
0
LINE
8
BLACK
6
CONTINUOUS
10
58.0416
20
-81.0701
11
52.86
21
-81.0701
0
LINE
8
BLACK
6
CONTINUOUS
10
52.86
20
-81.0701
11
52.86
21
-83.1021
0
LINE
8
BLACK
6
CONTINUOUS
10
52.86
20
-83.1021
11
58.0416
21
-83.1021
0
LINE
8
BLACK
6
CONTINUOUS
10
58.0416
20
-83.1021
11
58.0416
21
-81.0701
0
LINE
8
BLACK
6
CONTINUOUS
10
76.0647
20
-110.76
11
70.8831
21
-110.76
0
LINE
8
BLACK
6
CONTINUOUS
10
70.8831
20
-110.76
11
70.8831
21
-112.792
0
LINE
8
BLACK
6
CONTINUOUS
10
70.8831
20
-112.792
11
76.0647
21
-112.792
0
LINE
8
BLACK
6
CONTINUOUS
10
76.0647
20
-112.792
11
76.0647
21
-110.76
0
LINE
8
BLACK
6
CONTINUOUS
10
34.81
20
-85.2254
11
39.9916
21
-85.2254
0
LINE
8
BLACK
6
CONTINUOUS
10
39.9916
20
-85.2254
11
39.9916
21
-83.1934
0
LINE
8
BLACK
6
CONTINUOUS
10
39.9916
20
-83.1934
11
34.81
21
-83.1934
0
LINE
8
BLACK
6
CONTINUOUS
10
34.81
20
-83.1934
11
34.81
21
-85.2254
0
CIRCLE
8
BLACK
10
47.5978
20
-121.33
40
1.6
0
LINE
8
BLACK
6
CONTINUOUS
10
76.0647
20
-93.7593
11
70.8831
21
-93.7593
0
LINE
8
BLACK
6
CONTINUOUS
10
70.8831
20
-93.7593
11
70.8831
21
-95.7913
0
LINE
8
BLACK
6
CONTINUOUS
10
70.8831
20
-95.7913
11
76.0647
21
-95.7913
0
LINE
8
BLACK
6
CONTINUOUS
10
76.0647
20
-95.7913
11
76.0647
21
-93.7593
0
CIRCLE
8
BLACK
10
44.7784
20
-68.4375
40
1.6
0
LINE
8
BLACK
6
CONTINUOUS
10
45.7407
20
-109.074
11
45.7407
21
-106.178
0
LINE
8
BLACK
6
CONTINUOUS
10
48.1895
20
-104.906
11
52.6895
21
-104.906
0
LINE
8
BLACK
6
CONTINUOUS
10
48.1895
20
-106.178
11
45.7407
21
-106.178
0
LINE
8
BLACK
6
CONTINUOUS
10
48.1895
20
-106.178
11
48.1895
21
-104.906
0
LINE
8
BLACK
6
CONTINUOUS
10
48.1895
20
-109.074
11
45.7407
21
-109.074
0
LINE
8
BLACK
6
CONTINUOUS
10
48.1895
20
-110.114
11
48.1895
21
-109.074
0
LINE
8
BLACK
6
CONTINUOUS
10
53.1575
20
-109.414
11
53.1575
21
-110.114
0
LINE
8
BLACK
6
CONTINUOUS
10
53.1575
20
-110.114
11
48.1895
21
-110.114
0
LINE
8
BLACK
6
CONTINUOUS
10
53.1895
20
-104.406
11
53.1895
21
-103.406
0
LINE
8
BLACK
6
CONTINUOUS
10
53.6895
20
-102.906
11
53.1895
21
-103.406
0
LINE
8
BLACK
6
CONTINUOUS
10
57.1975
20
-102.906
11
53.6895
21
-102.906
0
LINE
8
BLACK
6
CONTINUOUS
10
57.1975
20
-107.914
11
54.6815
21
-107.914
0
LINE
8
BLACK
6
CONTINUOUS
10
57.6975
20
-103.406
11
57.1975
21
-102.906
0
LINE
8
BLACK
6
CONTINUOUS
10
57.6975
20
-103.943
11
57.6975
21
-103.406
0
LINE
8
BLACK
6
CONTINUOUS
10
57.6975
20
-103.943
11
60.1463
21
-103.943
0
LINE
8
BLACK
6
CONTINUOUS
10
57.6975
20
-106.838
11
60.1463
21
-106.838
0
LINE
8
BLACK
6
CONTINUOUS
10
57.6975
20
-107.414
11
57.1975
21
-107.914
0
LINE
8
BLACK
6
CONTINUOUS
10
57.6975
20
-107.414
11
57.6975
21
-106.838
0
LINE
8
BLACK
6
CONTINUOUS
10
60.1463
20
-103.943
11
60.1463
21
-106.838
0
ARC
8
BLACK
10
54.6002
20
-109.355
40
1.44391
50
-273.227
51
-177.683
0
ARC
8
BLACK
10
52.6895
20
-104.406
40
0.500001
50
-89.9999
51
-0.000114591
0
CIRCLE
8
BLACK
10
49.9741
20
-111.385
40
0.855
0
CIRCLE
8
BLACK
10
55.4741
20
-111.385
40
1.75
0
CIRCLE
8
BLACK
10
60.9741
20
-111.385
40
0.855
0
LINE
8
BLACK
6
CONTINUOUS
10
210.477
20
-75.0743
11
210.477
21
-72.1787
0
LINE
8
BLACK
6
CONTINUOUS
10
212.926
20
-70.9063
11
217.426
21
-70.9063
0
LINE
8
BLACK
6
CONTINUOUS
10
212.926
20
-72.1787
11
210.477
21
-72.1787
0
LINE
8
BLACK
6
CONTINUOUS
10
212.926
20
-72.1787
11
212.926
21
-70.9063
0
LINE
8
BLACK
6
CONTINUOUS
10
212.926
20
-75.0743
11
210.477
21
-75.0743
0
LINE
8
BLACK
6
CONTINUOUS
10
212.926
20
-76.1143
11
212.926
21
-75.0743
0
LINE
8
BLACK
6
CONTINUOUS
10
217.894
20
-75.4143
11
217.894
21
-76.1143
0
LINE
8
BLACK
6
CONTINUOUS
10
217.894
20
-76.1143
11
212.926
21
-76.1143
0
LINE
8
BLACK
6
CONTINUOUS
10
217.926
20
-70.4063
11
217.926
21
-69.4063
0
LINE
8
BLACK
6
CONTINUOUS
10
218.426
20
-68.9063
11
217.926
21
-69.4063
0
LINE
8
BLACK
6
CONTINUOUS
10
221.934
20
-68.9063
11
218.426
21
-68.9063
0
LINE
8
BLACK
6
CONTINUOUS
10
221.934
20
-73.9143
11
219.418
21
-73.9143
0
LINE
8
BLACK
6
CONTINUOUS
10
222.434
20
-69.4063
11
221.934
21
-68.9063
0
LINE
8
BLACK
6
CONTINUOUS
10
222.434
20
-69.9435
11
222.434
21
-69.4063
0
LINE
8
BLACK
6
CONTINUOUS
10
222.434
20
-69.9435
11
224.883
21
-69.9435
0
LINE
8
BLACK
6
CONTINUOUS
10
222.434
20
-72.8391
11
224.883
21
-72.8391
0
LINE
8
BLACK
6
CONTINUOUS
10
222.434
20
-73.4143
11
221.934
21
-73.9143
0
LINE
8
BLACK
6
CONTINUOUS
10
222.434
20
-73.4143
11
222.434
21
-72.8391
0
LINE
8
BLACK
6
CONTINUOUS
10
224.883
20
-69.9435
11
224.883
21
-72.8391
0
ARC
8
BLACK
10
219.337
20
-75.3559
40
1.44391
50
-273.227
51
-177.683
0
ARC
8
BLACK
10
217.426
20
-70.4063
40
0.500001
50
-89.9999
51
-0.000114591
0
CIRCLE
8
BLACK
10
214.711
20
-77.3857
40
0.855
0
CIRCLE
8
BLACK
10
220.211
20
-77.3857
40
1.75
0
CIRCLE
8
BLACK
10
225.711
20
-77.3857
40
0.855
0
LINE
8
BLACK
6
CONTINUOUS
10
181.051
20
-138.033
11
181.554
21
-140.885
0
LINE
8
BLACK
6
CONTINUOUS
10
179.363
20
-142.563
11
174.932
21
-143.345
0
LINE
8
BLACK
6
CONTINUOUS
10
179.142
20
-141.31
11
181.554
21
-140.885
0
LINE
8
BLACK
6
CONTINUOUS
10
179.142
20
-141.31
11
179.363
21
-142.563
0
LINE
8
BLACK
6
CONTINUOUS
10
178.639
20
-138.458
11
181.051
21
-138.033
0
LINE
8
BLACK
6
CONTINUOUS
10
178.459
20
-137.434
11
178.639
21
-138.458
0
LINE
8
BLACK
6
CONTINUOUS
10
173.688
20
-138.986
11
173.566
21
-138.297
0
LINE
8
BLACK
6
CONTINUOUS
10
173.566
20
-138.297
11
178.459
21
-137.434
0
LINE
8
BLACK
6
CONTINUOUS
10
174.526
20
-143.924
11
174.7
21
-144.909
0
LINE
8
BLACK
6
CONTINUOUS
10
174.294
20
-145.488
11
174.7
21
-144.909
0
LINE
8
BLACK
6
CONTINUOUS
10
170.839
20
-146.097
11
174.294
21
-145.488
0
LINE
8
BLACK
6
CONTINUOUS
10
169.97
20
-141.165
11
172.448
21
-140.728
0
LINE
8
BLACK
6
CONTINUOUS
10
170.26
20
-145.691
11
170.839
21
-146.097
0
LINE
8
BLACK
6
CONTINUOUS
10
170.167
20
-145.162
11
170.26
21
-145.691
0
LINE
8
BLACK
6
CONTINUOUS
10
170.167
20
-145.162
11
167.755
21
-145.588
0
LINE
8
BLACK
6
CONTINUOUS
10
169.664
20
-142.311
11
167.252
21
-142.736
0
LINE
8
BLACK
6
CONTINUOUS
10
169.564
20
-141.744
11
169.97
21
-141.165
0
LINE
8
BLACK
6
CONTINUOUS
10
169.564
20
-141.744
11
169.664
21
-142.311
0
LINE
8
BLACK
6
CONTINUOUS
10
167.755
20
-145.588
11
167.252
21
-142.736
0
ARC
8
BLACK
10
172.277
20
-139.294
40
1.44391
50
-83.2266
51
12.3171
0
ARC
8
BLACK
10
175.018
20
-143.837
40
0.500001
50
-260
51
-170
0
CIRCLE
8
BLACK
10
176.481
20
-136.492
40
0.854999
0
CIRCLE
8
BLACK
10
171.064
20
-137.447
40
1.75
0
CIRCLE
8
BLACK
10
165.648
20
-138.402
40
0.855
0
LINE
8
BLACK
6
CONTINUOUS
10
45.7407
20
-92.0739
11
45.7407
21
-89.1783
0
LINE
8
BLACK
6
CONTINUOUS
10
48.1895
20
-87.9059
11
52.6895
21
-87.9059
0
LINE
8
BLACK
6
CONTINUOUS
10
48.1895
20
-89.1783
11
45.7407
21
-89.1783
0
LINE
8
BLACK
6
CONTINUOUS
10
48.1895
20
-89.1783
11
48.1895
21
-87.9059
0
LINE
8
BLACK
6
CONTINUOUS
10
48.1895
20
-92.0739
11
45.7407
21
-92.0739
0
LINE
8
BLACK
6
CONTINUOUS
10
48.1895
20
-93.1139
11
48.1895
21
-92.0739
0
LINE
8
BLACK
6
CONTINUOUS
10
53.1575
20
-92.4139
11
53.1575
21
-93.1139
0
LINE
8
BLACK
6
CONTINUOUS
10
53.1575
20
-93.1139
11
48.1895
21
-93.1139
0
LINE
8
BLACK
6
CONTINUOUS
10
53.1895
20
-87.4059
11
53.1895
21
-86.4059
0
LINE
8
BLACK
6
CONTINUOUS
10
53.6895
20
-85.9059
11
53.1895
21
-86.4059
0
LINE
8
BLACK
6
CONTINUOUS
10
57.1975
20
-85.9059
11
53.6895
21
-85.9059
0
LINE
8
BLACK
6
CONTINUOUS
10
57.1975
20
-90.9139
11
54.6815
21
-90.9139
0
LINE
8
BLACK
6
CONTINUOUS
10
57.6975
20
-86.4059
11
57.1975
21
-85.9059
0
LINE
8
BLACK
6
CONTINUOUS
10
57.6975
20
-86.9431
11
57.6975
21
-86.4059
0
LINE
8
BLACK
6
CONTINUOUS
10
57.6975
20
-86.9431
11
60.1463
21
-86.9431
0
LINE
8
BLACK
6
CONTINUOUS
10
57.6975
20
-89.8387
11
60.1463
21
-89.8387
0
LINE
8
BLACK
6
CONTINUOUS
10
57.6975
20
-90.4139
11
57.1975
21
-90.9139
0
LINE
8
BLACK
6
CONTINUOUS
10
57.6975
20
-90.4139
11
57.6975
21
-89.8387
0
LINE
8
BLACK
6
CONTINUOUS
10
60.1463
20
-86.9431
11
60.1463
21
-89.8387
0
ARC
8
BLACK
10
54.6002
20
-92.3555
40
1.44391
50
-273.227
51
-177.683
0
ARC
8
BLACK
10
52.6895
20
-87.4059
40
0.500001
50
-89.9999
51
-0.000114591
0
CIRCLE
8
BLACK
10
49.9741
20
-94.3853
40
0.855
0
CIRCLE
8
BLACK
10
55.4741
20
-94.3853
40
1.75
0
CIRCLE
8
BLACK
10
60.9741
20
-94.3853
40
0.855
0
LINE
8
BLACK
6
CONTINUOUS
10
163.62
20
-98.8255
11
168.802
21
-98.8255
0
LINE
8
BLACK
6
CONTINUOUS
10
168.802
20
-98.8255
11
168.802
21
-100.857
0
LINE
8
BLACK
6
CONTINUOUS
10
168.802
20
-100.857
11
163.62
21
-100.857
0
LINE
8
BLACK
6
CONTINUOUS
10
163.62
20
-100.857
11
163.62
21
-98.8255
0
LINE
8
BLACK
6
CONTINUOUS
10
162.065
20
-141.355
11
163.055
21
-144.076
0
LINE
8
BLACK
6
CONTINUOUS
10
161.189
20
-146.109
11
156.961
21
-147.648
0
LINE
8
BLACK
6
CONTINUOUS
10
160.754
20
-144.913
11
163.055
21
-144.076
0
LINE
8
BLACK
6
CONTINUOUS
10
160.754
20
-144.913
11
161.189
21
-146.109
0
LINE
8
BLACK
6
CONTINUOUS
10
159.764
20
-142.193
11
162.065
21
-141.355
0
LINE
8
BLACK
6
CONTINUOUS
10
159.408
20
-141.215
11
159.764
21
-142.193
0
LINE
8
BLACK
6
CONTINUOUS
10
154.979
20
-143.572
11
154.74
21
-142.914
0
LINE
8
BLACK
6
CONTINUOUS
10
154.74
20
-142.914
11
159.408
21
-141.215
0
LINE
8
BLACK
6
CONTINUOUS
10
156.662
20
-148.289
11
157.004
21
-149.229
0
LINE
8
BLACK
6
CONTINUOUS
10
156.705
20
-149.87
11
157.004
21
-149.229
0
LINE
8
BLACK
6
CONTINUOUS
10
153.408
20
-151.069
11
156.705
21
-149.87
0
LINE
8
BLACK
6
CONTINUOUS
10
151.696
20
-146.363
11
154.06
21
-145.503
0
LINE
8
BLACK
6
CONTINUOUS
10
152.768
20
-150.771
11
153.408
21
-151.069
0
LINE
8
BLACK
6
CONTINUOUS
10
152.584
20
-150.266
11
152.768
21
-150.771
0
LINE
8
BLACK
6
CONTINUOUS
10
152.584
20
-150.266
11
150.283
21
-151.103
0
LINE
8
BLACK
6
CONTINUOUS
10
151.594
20
-147.545
11
149.292
21
-148.382
0
LINE
8
BLACK
6
CONTINUOUS
10
151.397
20
-147.004
11
151.696
21
-146.363
0
LINE
8
BLACK
6
CONTINUOUS
10
151.397
20
-147.004
11
151.594
21
-147.545
0
LINE
8
BLACK
6
CONTINUOUS
10
150.283
20
-151.103
11
149.292
21
-148.382
0
ARC
8
BLACK
10
153.643
20
-144.12
40
1.44391
50
-73.2266
51
22.3171
0
ARC
8
BLACK
10
157.132
20
-148.118
40
0.499999
50
-250
51
-160
0
CIRCLE
8
BLACK
10
157.296
20
-140.631
40
0.855001
0
CIRCLE
8
BLACK
10
152.128
20
-142.512
40
1.75
0
CIRCLE
8
BLACK
10
146.959
20
-144.393
40
0.855
0
LINE
8
BLACK
6
CONTINUOUS
10
240.875
20
-85.2254
11
235.693
21
-85.2254
0
LINE
8
BLACK
6
CONTINUOUS
10
235.693
20
-85.2254
11
235.693
21
-83.1934
0
LINE
8
BLACK
6
CONTINUOUS
10
235.693
20
-83.1934
11
240.875
21
-83.1934
0
LINE
8
BLACK
6
CONTINUOUS
10
240.875
20
-83.1934
11
240.875
21
-85.2254
0
LINE
8
BLACK
6
CONTINUOUS
10
113.805
20
-141.414
11
113.302
21
-144.265
0
LINE
8
BLACK
6
CONTINUOUS
10
110.669
20
-145.093
11
106.238
21
-144.312
0
LINE
8
BLACK
6
CONTINUOUS
10
110.89
20
-143.84
11
113.302
21
-144.265
0
LINE
8
BLACK
6
CONTINUOUS
10
110.89
20
-143.84
11
110.669
21
-145.093
0
LINE
8
BLACK
6
CONTINUOUS
10
111.393
20
-140.988
11
113.805
21
-141.414
0
LINE
8
BLACK
6
CONTINUOUS
10
111.574
20
-139.964
11
111.393
21
-140.988
0
LINE
8
BLACK
6
CONTINUOUS
10
106.56
20
-139.791
11
106.681
21
-139.101
0
LINE
8
BLACK
6
CONTINUOUS
10
106.681
20
-139.101
11
111.574
21
-139.964
0
LINE
8
BLACK
6
CONTINUOUS
10
105.659
20
-144.717
11
105.485
21
-145.702
0
LINE
8
BLACK
6
CONTINUOUS
10
104.906
20
-146.108
11
105.485
21
-145.702
0
LINE
8
BLACK
6
CONTINUOUS
10
101.451
20
-145.498
11
104.906
21
-146.108
0
LINE
8
BLACK
6
CONTINUOUS
10
102.321
20
-140.566
11
104.798
21
-141.003
0
LINE
8
BLACK
6
CONTINUOUS
10
101.045
20
-144.919
11
101.451
21
-145.498
0
LINE
8
BLACK
6
CONTINUOUS
10
101.139
20
-144.39
11
101.045
21
-144.919
0
LINE
8
BLACK
6
CONTINUOUS
10
101.139
20
-144.39
11
98.7272
21
-143.965
0
LINE
8
BLACK
6
CONTINUOUS
10
101.642
20
-141.539
11
99.23
21
-141.113
0
LINE
8
BLACK
6
CONTINUOUS
10
101.741
20
-140.972
11
102.321
21
-140.566
0
LINE
8
BLACK
6
CONTINUOUS
10
101.741
20
-140.972
11
101.642
21
-141.539
0
LINE
8
BLACK
6
CONTINUOUS
10
98.7272
20
-143.965
11
99.23
21
-141.113
0
ARC
8
BLACK
10
105.129
20
-139.598
40
1.44391
50
-103.227
51
-7.68289
0
ARC
8
BLACK
10
106.151
20
-144.804
40
0.5
50
80
51
170
0
CIRCLE
8
BLACK
10
110.037
20
-138.402
40
0.854999
0
CIRCLE
8
BLACK
10
104.621
20
-137.447
40
1.75
0
CIRCLE
8
BLACK
10
99.2043
20
-136.492
40
0.855
0
LINE
8
BLACK
6
CONTINUOUS
10
199.62
20
-110.76
11
204.802
21
-110.76
0
LINE
8
BLACK
6
CONTINUOUS
10
204.802
20
-110.76
11
204.802
21
-112.792
0
LINE
8
BLACK
6
CONTINUOUS
10
204.802
20
-112.792
11
199.62
21
-112.792
0
LINE
8
BLACK
6
CONTINUOUS
10
199.62
20
-112.792
11
199.62
21
-110.76
0
LINE
8
BLACK
6
CONTINUOUS
10
27.7405
20
-77.1976
11
27.7405
21
-74.302
0
LINE
8
BLACK
6
CONTINUOUS
10
30.1893
20
-73.0296
11
34.6893
21
-73.0296
0
LINE
8
BLACK
6
CONTINUOUS
10
30.1893
20
-74.302
11
27.7405
21
-74.302
0
LINE
8
BLACK
6
CONTINUOUS
10
30.1893
20
-74.302
11
30.1893
21
-73.0296
0
LINE
8
BLACK
6
CONTINUOUS
10
30.1893
20
-77.1976
11
27.7405
21
-77.1976
0
LINE
8
BLACK
6
CONTINUOUS
10
30.1893
20
-78.2376
11
30.1893
21
-77.1976
0
LINE
8
BLACK
6
CONTINUOUS
10
35.1573
20
-77.5376
11
35.1573
21
-78.2376
0
LINE
8
BLACK
6
CONTINUOUS
10
35.1573
20
-78.2376
11
30.1893
21
-78.2376
0
LINE
8
BLACK
6
CONTINUOUS
10
35.1893
20
-72.5296
11
35.1893
21
-71.5296
0
LINE
8
BLACK
6
CONTINUOUS
10
35.6893
20
-71.0296
11
35.1893
21
-71.5296
0
LINE
8
BLACK
6
CONTINUOUS
10
39.1973
20
-71.0296
11
35.6893
21
-71.0296
0
LINE
8
BLACK
6
CONTINUOUS
10
39.1973
20
-76.0376
11
36.6813
21
-76.0376
0
LINE
8
BLACK
6
CONTINUOUS
10
39.6973
20
-71.5296
11
39.1973
21
-71.0296
0
LINE
8
BLACK
6
CONTINUOUS
10
39.6973
20
-72.0668
11
39.6973
21
-71.5296
0
LINE
8
BLACK
6
CONTINUOUS
10
39.6973
20
-72.0668
11
42.1461
21
-72.0668
0
LINE
8
BLACK
6
CONTINUOUS
10
39.6973
20
-74.9624
11
42.1461
21
-74.9624
0
LINE
8
BLACK
6
CONTINUOUS
10
39.6973
20
-75.5376
11
39.1973
21
-76.0376
0
LINE
8
BLACK
6
CONTINUOUS
10
39.6973
20
-75.5376
11
39.6973
21
-74.9624
0
LINE
8
BLACK
6
CONTINUOUS
10
42.1461
20
-72.0668
11
42.1461
21
-74.9624
0
ARC
8
BLACK
10
36.6
20
-77.4792
40
1.44391
50
-273.227
51
-177.683
0
ARC
8
BLACK
10
34.6893
20
-72.5296
40
0.500001
50
-89.9999
51
-0.000114591
0
CIRCLE
8
BLACK
10
31.9739
20
-79.509
40
0.855
0
CIRCLE
8
BLACK
10
37.4739
20
-79.509
40
1.75
0
CIRCLE
8
BLACK
10
42.9739
20
-79.509
40
0.855
0
LINE
8
BLACK
6
CONTINUOUS
10
174.478
20
-108.074
11
174.478
21
-105.179
0
LINE
8
BLACK
6
CONTINUOUS
10
176.927
20
-103.906
11
181.427
21
-103.906
0
LINE
8
BLACK
6
CONTINUOUS
10
176.927
20
-105.179
11
174.478
21
-105.179
0
LINE
8
BLACK
6
CONTINUOUS
10
176.927
20
-105.179
11
176.927
21
-103.906
0
LINE
8
BLACK
6
CONTINUOUS
10
176.927
20
-108.074
11
174.478
21
-108.074
0
LINE
8
BLACK
6
CONTINUOUS
10
176.927
20
-109.114
11
176.927
21
-108.074
0
LINE
8
BLACK
6
CONTINUOUS
10
181.895
20
-108.414
11
181.895
21
-109.114
0
LINE
8
BLACK
6
CONTINUOUS
10
181.895
20
-109.114
11
176.927
21
-109.114
0
LINE
8
BLACK
6
CONTINUOUS
10
181.927
20
-103.406
11
181.927
21
-102.406
0
LINE
8
BLACK
6
CONTINUOUS
10
182.427
20
-101.906
11
181.927
21
-102.406
0
LINE
8
BLACK
6
CONTINUOUS
10
185.935
20
-101.906
11
182.427
21
-101.906
0
LINE
8
BLACK
6
CONTINUOUS
10
185.935
20
-106.914
11
183.419
21
-106.914
0
LINE
8
BLACK
6
CONTINUOUS
10
186.435
20
-102.406
11
185.935
21
-101.906
0
LINE
8
BLACK
6
CONTINUOUS
10
186.435
20
-102.943
11
186.435
21
-102.406
0
LINE
8
BLACK
6
CONTINUOUS
10
186.435
20
-102.943
11
188.883
21
-102.943
0
LINE
8
BLACK
6
CONTINUOUS
10
186.435
20
-105.839
11
188.883
21
-105.839
0
LINE
8
BLACK
6
CONTINUOUS
10
186.435
20
-106.414
11
185.935
21
-106.914
0
LINE
8
BLACK
6
CONTINUOUS
10
186.435
20
-106.414
11
186.435
21
-105.839
0
LINE
8
BLACK
6
CONTINUOUS
10
188.883
20
-102.943
11
188.883
21
-105.839
0
ARC
8
BLACK
10
183.337
20
-108.356
40
1.44391
50
-273.227
51
-177.683
0
ARC
8
BLACK
10
181.427
20
-103.406
40
0.500001
50
-89.9999
51
-0.000114591
0
CIRCLE
8
BLACK
10
178.711
20
-110.386
40
0.855
0
CIRCLE
8
BLACK
10
184.211
20
-110.386
40
1.75
0
CIRCLE
8
BLACK
10
189.711
20
-110.386
40
0.855
0
LINE
8
BLACK
6
CONTINUOUS
10
25.6264
20
-95.7288
11
25.374
21
-92.8442
0
LINE
8
BLACK
6
CONTINUOUS
10
27.7026
20
-91.3632
11
32.1855
21
-90.971
0
LINE
8
BLACK
6
CONTINUOUS
10
27.8135
20
-92.6308
11
25.374
21
-92.8442
0
LINE
8
BLACK
6
CONTINUOUS
10
27.8135
20
-92.6308
11
27.7026
21
-91.3632
0
LINE
8
BLACK
6
CONTINUOUS
10
28.0659
20
-95.5153
11
25.6264
21
-95.7288
0
LINE
8
BLACK
6
CONTINUOUS
10
28.1565
20
-96.5514
11
28.0659
21
-95.5153
0
LINE
8
BLACK
6
CONTINUOUS
10
33.0446
20
-95.4211
11
33.1056
21
-96.1184
0
LINE
8
BLACK
6
CONTINUOUS
10
33.1056
20
-96.1184
11
28.1565
21
-96.5514
0
LINE
8
BLACK
6
CONTINUOUS
10
32.64
20
-90.4293
11
32.5528
21
-89.4331
0
LINE
8
BLACK
6
CONTINUOUS
10
33.0074
20
-88.8915
11
32.5528
21
-89.4331
0
LINE
8
BLACK
6
CONTINUOUS
10
36.502
20
-88.5857
11
33.0074
21
-88.8915
0
LINE
8
BLACK
6
CONTINUOUS
10
36.9385
20
-93.5747
11
34.4321
21
-93.7939
0
LINE
8
BLACK
6
CONTINUOUS
10
37.0437
20
-89.0402
11
36.502
21
-88.5857
0
LINE
8
BLACK
6
CONTINUOUS
10
37.0905
20
-89.5754
11
37.0437
21
-89.0402
0
LINE
8
BLACK
6
CONTINUOUS
10
37.0905
20
-89.5754
11
39.53
21
-89.362
0
LINE
8
BLACK
6
CONTINUOUS
10
37.3429
20
-92.46
11
39.7824
21
-92.2465
0
LINE
8
BLACK
6
CONTINUOUS
10
37.393
20
-93.033
11
36.9385
21
-93.5747
0
LINE
8
BLACK
6
CONTINUOUS
10
37.393
20
-93.033
11
37.3429
21
-92.46
0
LINE
8
BLACK
6
CONTINUOUS
10
39.53
20
-89.362
11
39.7824
21
-92.2465
0
ARC
8
BLACK
10
34.4767
20
-95.2372
40
1.44391
50
-268.227
51
-172.683
0
ARC
8
BLACK
10
32.1419
20
-90.4729
40
0.500001
50
-84.9999
51
4.99988
0
CIRCLE
8
BLACK
10
30.0451
20
-97.6624
40
0.855
0
CIRCLE
8
BLACK
10
35.5242
20
-97.1831
40
1.75
0
CIRCLE
8
BLACK
10
41.0033
20
-96.7037
40
0.855001
0
LINE
8
BLACK
6
CONTINUOUS
10
192.478
20
-70.7635
11
192.478
21
-67.8679
0
LINE
8
BLACK
6
CONTINUOUS
10
194.927
20
-66.5955
11
199.427
21
-66.5955
0
LINE
8
BLACK
6
CONTINUOUS
10
194.927
20
-67.8679
11
192.478
21
-67.8679
0
LINE
8
BLACK
6
CONTINUOUS
10
194.927
20
-67.8679
11
194.927
21
-66.5955
0
LINE
8
BLACK
6
CONTINUOUS
10
194.927
20
-70.7635
11
192.478
21
-70.7635
0
LINE
8
BLACK
6
CONTINUOUS
10
194.927
20
-71.8035
11
194.927
21
-70.7635
0
LINE
8
BLACK
6
CONTINUOUS
10
199.895
20
-71.1035
11
199.895
21
-71.8035
0
LINE
8
BLACK
6
CONTINUOUS
10
199.895
20
-71.8035
11
194.927
21
-71.8035
0
LINE
8
BLACK
6
CONTINUOUS
10
199.927
20
-66.0955
11
199.927
21
-65.0955
0
LINE
8
BLACK
6
CONTINUOUS
10
200.427
20
-64.5955
11
199.927
21
-65.0955
0
LINE
8
BLACK
6
CONTINUOUS
10
203.935
20
-64.5955
11
200.427
21
-64.5955
0
LINE
8
BLACK
6
CONTINUOUS
10
203.935
20
-69.6035
11
201.419
21
-69.6035
0
LINE
8
BLACK
6
CONTINUOUS
10
204.435
20
-65.0955
11
203.935
21
-64.5955
0
LINE
8
BLACK
6
CONTINUOUS
10
204.435
20
-65.6327
11
204.435
21
-65.0955
0
LINE
8
BLACK
6
CONTINUOUS
10
204.435
20
-65.6327
11
206.884
21
-65.6327
0
LINE
8
BLACK
6
CONTINUOUS
10
204.435
20
-68.5283
11
206.884
21
-68.5283
0
LINE
8
BLACK
6
CONTINUOUS
10
204.435
20
-69.1035
11
203.935
21
-69.6035
0
LINE
8
BLACK
6
CONTINUOUS
10
204.435
20
-69.1035
11
204.435
21
-68.5283
0
LINE
8
BLACK
6
CONTINUOUS
10
206.884
20
-65.6327
11
206.884
21
-68.5283
0
ARC
8
BLACK
10
201.337
20
-71.0452
40
1.44391
50
-273.227
51
-177.683
0
ARC
8
BLACK
10
199.427
20
-66.0955
40
0.500001
50
-89.9999
51
-0.000114591
0
CIRCLE
8
BLACK
10
196.711
20
-73.0749
40
0.855
0
CIRCLE
8
BLACK
10
202.211
20
-73.0749
40
1.75
0
CIRCLE
8
BLACK
10
207.711
20
-73.0749
40
0.855
0
LINE
8
BLACK
6
CONTINUOUS
10
229.152
20
-110.96
11
229.404
21
-108.075
0
LINE
8
BLACK
6
CONTINUOUS
10
231.955
20
-107.021
11
236.438
21
-107.413
0
LINE
8
BLACK
6
CONTINUOUS
10
231.844
20
-108.289
11
229.404
21
-108.075
0
LINE
8
BLACK
6
CONTINUOUS
10
231.844
20
-108.289
11
231.955
21
-107.021
0
LINE
8
BLACK
6
CONTINUOUS
10
231.592
20
-111.173
11
229.152
21
-110.96
0
LINE
8
BLACK
6
CONTINUOUS
10
231.501
20
-112.209
11
231.592
21
-111.173
0
LINE
8
BLACK
6
CONTINUOUS
10
236.511
20
-111.945
11
236.45
21
-112.642
0
LINE
8
BLACK
6
CONTINUOUS
10
236.45
20
-112.642
11
231.501
21
-112.209
0
LINE
8
BLACK
6
CONTINUOUS
10
236.979
20
-106.959
11
237.066
21
-105.963
0
LINE
8
BLACK
6
CONTINUOUS
10
237.608
20
-105.508
11
237.066
21
-105.963
0
LINE
8
BLACK
6
CONTINUOUS
10
241.103
20
-105.814
11
237.608
21
-105.508
0
LINE
8
BLACK
6
CONTINUOUS
10
240.666
20
-110.803
11
238.16
21
-110.583
0
LINE
8
BLACK
6
CONTINUOUS
10
241.557
20
-106.355
11
241.103
21
-105.814
0
LINE
8
BLACK
6
CONTINUOUS
10
241.511
20
-106.891
11
241.557
21
-106.355
0
LINE
8
BLACK
6
CONTINUOUS
10
241.511
20
-106.891
11
243.95
21
-107.104
0
LINE
8
BLACK
6
CONTINUOUS
10
241.258
20
-109.775
11
243.698
21
-109.989
0
LINE
8
BLACK
6
CONTINUOUS
10
241.208
20
-110.348
11
240.666
21
-110.803
0
LINE
8
BLACK
6
CONTINUOUS
10
241.208
20
-110.348
11
241.258
21
-109.775
0
LINE
8
BLACK
6
CONTINUOUS
10
243.95
20
-107.104
11
243.698
21
-109.989
0
ARC
8
BLACK
10
237.953
20
-112.013
40
1.44391
50
81.7734
51
177.317
0
ARC
8
BLACK
10
236.481
20
-106.915
40
0.5
50
-94.9999
51
-5.00012
0
CIRCLE
8
BLACK
10
233.168
20
-113.631
40
0.855
0
CIRCLE
8
BLACK
10
238.647
20
-114.111
40
1.75
0
CIRCLE
8
BLACK
10
244.126
20
-114.59
40
0.855001
0
LINE
8
BLACK
6
CONTINUOUS
10
156.478
20
-109.873
11
156.478
21
-106.978
0
LINE
8
BLACK
6
CONTINUOUS
10
158.927
20
-105.705
11
163.427
21
-105.705
0
LINE
8
BLACK
6
CONTINUOUS
10
158.927
20
-106.978
11
156.478
21
-106.978
0
LINE
8
BLACK
6
CONTINUOUS
10
158.927
20
-106.978
11
158.927
21
-105.705
0
LINE
8
BLACK
6
CONTINUOUS
10
158.927
20
-109.873
11
156.478
21
-109.873
0
LINE
8
BLACK
6
CONTINUOUS
10
158.927
20
-110.913
11
158.927
21
-109.873
0
LINE
8
BLACK
6
CONTINUOUS
10
163.895
20
-110.213
11
163.895
21
-110.913
0
LINE
8
BLACK
6
CONTINUOUS
10
163.895
20
-110.913
11
158.927
21
-110.913
0
LINE
8
BLACK
6
CONTINUOUS
10
163.927
20
-105.205
11
163.927
21
-104.205
0
LINE
8
BLACK
6
CONTINUOUS
10
164.427
20
-103.705
11
163.927
21
-104.205
0
LINE
8
BLACK
6
CONTINUOUS
10
167.935
20
-103.705
11
164.427
21
-103.705
0
LINE
8
BLACK
6
CONTINUOUS
10
167.935
20
-108.713
11
165.419
21
-108.713
0
LINE
8
BLACK
6
CONTINUOUS
10
168.435
20
-104.205
11
167.935
21
-103.705
0
LINE
8
BLACK
6
CONTINUOUS
10
168.435
20
-104.742
11
168.435
21
-104.205
0
LINE
8
BLACK
6
CONTINUOUS
10
168.435
20
-104.742
11
170.884
21
-104.742
0
LINE
8
BLACK
6
CONTINUOUS
10
168.435
20
-107.638
11
170.884
21
-107.638
0
LINE
8
BLACK
6
CONTINUOUS
10
168.435
20
-108.213
11
167.935
21
-108.713
0
LINE
8
BLACK
6
CONTINUOUS
10
168.435
20
-108.213
11
168.435
21
-107.638
0
LINE
8
BLACK
6
CONTINUOUS
10
170.884
20
-104.742
11
170.884
21
-107.638
0
ARC
8
BLACK
10
165.338
20
-110.155
40
1.44391
50
-273.227
51
-177.683
0
ARC
8
BLACK
10
163.427
20
-105.205
40
0.500001
50
-89.9999
51
-0.000114591
0
CIRCLE
8
BLACK
10
160.711
20
-112.185
40
0.855
0
CIRCLE
8
BLACK
10
166.211
20
-112.185
40
1.75
0
CIRCLE
8
BLACK
10
171.711
20
-112.185
40
0.855
0
CIRCLE
8
BLACK
10
176.728
20
-121.33
40
1.6
0
LINE
8
BLACK
6
CONTINUOUS
10
236.368
20
-142.103
11
236.749
21
-137.751
0
LINE
8
BLACK
6
CONTINUOUS
10
236.749
20
-137.751
11
219.441
21
-136.236
0
LINE
8
BLACK
6
CONTINUOUS
10
219.441
20
-136.236
11
219.06
21
-140.589
0
LINE
8
BLACK
6
CONTINUOUS
10
219.06
20
-140.589
11
236.368
21
-142.103
0
LINE
8
BLACK
6
CONTINUOUS
10
237.51
20
-129.046
11
237.891
21
-124.694
0
LINE
8
BLACK
6
CONTINUOUS
10
237.891
20
-124.694
11
220.584
21
-123.18
0
LINE
8
BLACK
6
CONTINUOUS
10
220.584
20
-123.18
11
220.203
21
-127.532
0
LINE
8
BLACK
6
CONTINUOUS
10
220.203
20
-127.532
11
237.51
21
-129.046
0
LINE
8
BLACK
6
CONTINUOUS
10
228.478
20
-77.1976
11
228.478
21
-74.302
0
LINE
8
BLACK
6
CONTINUOUS
10
230.926
20
-73.0296
11
235.426
21
-73.0296
0
LINE
8
BLACK
6
CONTINUOUS
10
230.926
20
-74.302
11
228.478
21
-74.302
0
LINE
8
BLACK
6
CONTINUOUS
10
230.926
20
-74.302
11
230.926
21
-73.0296
0
LINE
8
BLACK
6
CONTINUOUS
10
230.926
20
-77.1976
11
228.478
21
-77.1976
0
LINE
8
BLACK
6
CONTINUOUS
10
230.926
20
-78.2376
11
230.926
21
-77.1976
0
LINE
8
BLACK
6
CONTINUOUS
10
235.894
20
-77.5376
11
235.894
21
-78.2376
0
LINE
8
BLACK
6
CONTINUOUS
10
235.894
20
-78.2376
11
230.926
21
-78.2376
0
LINE
8
BLACK
6
CONTINUOUS
10
235.926
20
-72.5296
11
235.926
21
-71.5296
0
LINE
8
BLACK
6
CONTINUOUS
10
236.426
20
-71.0296
11
235.926
21
-71.5296
0
LINE
8
BLACK
6
CONTINUOUS
10
239.934
20
-71.0296
11
236.426
21
-71.0296
0
LINE
8
BLACK
6
CONTINUOUS
10
239.934
20
-76.0376
11
237.418
21
-76.0376
0
LINE
8
BLACK
6
CONTINUOUS
10
240.434
20
-71.5296
11
239.934
21
-71.0296
0
LINE
8
BLACK
6
CONTINUOUS
10
240.434
20
-72.0668
11
240.434
21
-71.5296
0
LINE
8
BLACK
6
CONTINUOUS
10
240.434
20
-72.0668
11
242.883
21
-72.0668
0
LINE
8
BLACK
6
CONTINUOUS
10
240.434
20
-74.9624
11
242.883
21
-74.9624
0
LINE
8
BLACK
6
CONTINUOUS
10
240.434
20
-75.5376
11
239.934
21
-76.0376
0
LINE
8
BLACK
6
CONTINUOUS
10
240.434
20
-75.5376
11
240.434
21
-74.9624
0
LINE
8
BLACK
6
CONTINUOUS
10
242.883
20
-72.0668
11
242.883
21
-74.9624
0
ARC
8
BLACK
10
237.337
20
-77.4792
40
1.44391
50
-273.227
51
-177.683
0
ARC
8
BLACK
10
235.426
20
-72.5296
40
0.500001
50
-89.9999
51
-0.000114591
0
CIRCLE
8
BLACK
10
232.711
20
-79.509
40
0.855
0
CIRCLE
8
BLACK
10
238.211
20
-79.509
40
1.75
0
CIRCLE
8
BLACK
10
243.711
20
-79.509
40
0.855
0
LINE
8
BLACK
6
CONTINUOUS
10
131.913
20
-148.013
11
130.923
21
-150.734
0
LINE
8
BLACK
6
CONTINUOUS
10
128.186
20
-151.092
11
123.958
21
-149.553
0
LINE
8
BLACK
6
CONTINUOUS
10
128.621
20
-149.896
11
130.923
21
-150.734
0
LINE
8
BLACK
6
CONTINUOUS
10
128.621
20
-149.896
11
128.186
21
-151.092
0
LINE
8
BLACK
6
CONTINUOUS
10
129.612
20
-147.175
11
131.913
21
-148.013
0
LINE
8
BLACK
6
CONTINUOUS
10
129.968
20
-146.198
11
129.612
21
-147.175
0
LINE
8
BLACK
6
CONTINUOUS
10
125.06
20
-145.157
11
125.299
21
-144.499
0
LINE
8
BLACK
6
CONTINUOUS
10
125.299
20
-144.499
11
129.968
21
-146.198
0
LINE
8
BLACK
6
CONTINUOUS
10
123.317
20
-149.852
11
122.975
21
-150.792
0
LINE
8
BLACK
6
CONTINUOUS
10
122.334
20
-151.09
11
122.975
21
-150.792
0
LINE
8
BLACK
6
CONTINUOUS
10
119.037
20
-149.891
11
122.334
21
-151.09
0
LINE
8
BLACK
6
CONTINUOUS
10
120.75
20
-145.185
11
123.115
21
-146.045
0
LINE
8
BLACK
6
CONTINUOUS
10
118.739
20
-149.25
11
119.037
21
-149.891
0
LINE
8
BLACK
6
CONTINUOUS
10
118.922
20
-148.745
11
118.739
21
-149.25
0
LINE
8
BLACK
6
CONTINUOUS
10
118.922
20
-148.745
11
116.621
21
-147.907
0
LINE
8
BLACK
6
CONTINUOUS
10
119.913
20
-146.024
11
117.612
21
-145.186
0
LINE
8
BLACK
6
CONTINUOUS
10
120.109
20
-145.483
11
120.75
21
-145.185
0
LINE
8
BLACK
6
CONTINUOUS
10
120.109
20
-145.483
11
119.913
21
-146.024
0
LINE
8
BLACK
6
CONTINUOUS
10
116.621
20
-147.907
11
117.612
21
-145.186
0
ARC
8
BLACK
10
123.684
20
-144.718
40
1.44391
50
-113.227
51
-17.6829
0
ARC
8
BLACK
10
123.787
20
-150.023
40
0.5
50
70
51
160
0
CIRCLE
8
BLACK
10
128.725
20
-144.393
40
0.855001
0
CIRCLE
8
BLACK
10
123.557
20
-142.512
40
1.75
0
CIRCLE
8
BLACK
10
118.389
20
-140.631
40
0.855
0
LINE
8
BLACK
6
CONTINUOUS
10
181.543
20
-114.07
11
186.725
21
-114.07
0
LINE
8
BLACK
6
CONTINUOUS
10
186.725
20
-114.07
11
186.725
21
-116.102
0
LINE
8
BLACK
6
CONTINUOUS
10
186.725
20
-116.102
11
181.543
21
-116.102
0
LINE
8
BLACK
6
CONTINUOUS
10
181.543
20
-116.102
11
181.543
21
-114.07
0
LINE
8
BLACK
6
CONTINUOUS
10
242.243
20
-103.088
11
237.081
21
-102.637
0
LINE
8
BLACK
6
CONTINUOUS
10
237.081
20
-102.637
11
237.258
21
-100.613
0
LINE
8
BLACK
6
CONTINUOUS
10
237.258
20
-100.613
11
242.42
21
-101.064
0
LINE
8
BLACK
6
CONTINUOUS
10
242.42
20
-101.064
11
242.243
21
-103.088
0
LINE
8
BLACK
6
CONTINUOUS
10
174.478
20
-74.0737
11
174.478
21
-71.1781
0
LINE
8
BLACK
6
CONTINUOUS
10
176.927
20
-69.9057
11
181.427
21
-69.9057
0
LINE
8
BLACK
6
CONTINUOUS
10
176.927
20
-71.1781
11
174.478
21
-71.1781
0
LINE
8
BLACK
6
CONTINUOUS
10
176.927
20
-71.1781
11
176.927
21
-69.9057
0
LINE
8
BLACK
6
CONTINUOUS
10
176.927
20
-74.0737
11
174.478
21
-74.0737
0
LINE
8
BLACK
6
CONTINUOUS
10
176.927
20
-75.1137
11
176.927
21
-74.0737
0
LINE
8
BLACK
6
CONTINUOUS
10
181.895
20
-74.4137
11
181.895
21
-75.1137
0
LINE
8
BLACK
6
CONTINUOUS
10
181.895
20
-75.1137
11
176.927
21
-75.1137
0
LINE
8
BLACK
6
CONTINUOUS
10
181.927
20
-69.4057
11
181.927
21
-68.4057
0
LINE
8
BLACK
6
CONTINUOUS
10
182.427
20
-67.9057
11
181.927
21
-68.4057
0
LINE
8
BLACK
6
CONTINUOUS
10
185.935
20
-67.9057
11
182.427
21
-67.9057
0
LINE
8
BLACK
6
CONTINUOUS
10
185.935
20
-72.9137
11
183.419
21
-72.9137
0
LINE
8
BLACK
6
CONTINUOUS
10
186.435
20
-68.4057
11
185.935
21
-67.9057
0
LINE
8
BLACK
6
CONTINUOUS
10
186.435
20
-68.9429
11
186.435
21
-68.4057
0
LINE
8
BLACK
6
CONTINUOUS
10
186.435
20
-68.9429
11
188.883
21
-68.9429
0
LINE
8
BLACK
6
CONTINUOUS
10
186.435
20
-71.8385
11
188.883
21
-71.8385
0
LINE
8
BLACK
6
CONTINUOUS
10
186.435
20
-72.4137
11
185.935
21
-72.9137
0
LINE
8
BLACK
6
CONTINUOUS
10
186.435
20
-72.4137
11
186.435
21
-71.8385
0
LINE
8
BLACK
6
CONTINUOUS
10
188.883
20
-68.9429
11
188.883
21
-71.8385
0
ARC
8
BLACK
10
183.337
20
-74.3554
40
1.44391
50
-273.227
51
-177.683
0
ARC
8
BLACK
10
181.427
20
-69.4057
40
0.500001
50
-89.9999
51
-0.000114591
0
CIRCLE
8
BLACK
10
178.711
20
-76.3851
40
0.855
0
CIRCLE
8
BLACK
10
184.211
20
-76.3851
40
1.75
0
CIRCLE
8
BLACK
10
189.711
20
-76.3851
40
0.855
0
CIRCLE
8
BLACK
10
171.902
20
-67.4311
40
1.6
0
LINE
8
BLACK
6
CONTINUOUS
10
63.7401
20
-104.764
11
63.7401
21
-101.868
0
LINE
8
BLACK
6
CONTINUOUS
10
66.1889
20
-100.596
11
70.6889
21
-100.596
0
LINE
8
BLACK
6
CONTINUOUS
10
66.1889
20
-101.868
11
63.7401
21
-101.868
0
LINE
8
BLACK
6
CONTINUOUS
10
66.1889
20
-101.868
11
66.1889
21
-100.596
0
LINE
8
BLACK
6
CONTINUOUS
10
66.1889
20
-104.764
11
63.7401
21
-104.764
0
LINE
8
BLACK
6
CONTINUOUS
10
66.1889
20
-105.804
11
66.1889
21
-104.764
0
LINE
8
BLACK
6
CONTINUOUS
10
71.1569
20
-105.104
11
71.1569
21
-105.804
0
LINE
8
BLACK
6
CONTINUOUS
10
71.1569
20
-105.804
11
66.1889
21
-105.804
0
LINE
8
BLACK
6
CONTINUOUS
10
71.1889
20
-100.096
11
71.1889
21
-99.0957
0
LINE
8
BLACK
6
CONTINUOUS
10
71.6889
20
-98.5957
11
71.1889
21
-99.0957
0
LINE
8
BLACK
6
CONTINUOUS
10
75.1969
20
-98.5957
11
71.6889
21
-98.5957
0
LINE
8
BLACK
6
CONTINUOUS
10
75.1969
20
-103.604
11
72.6809
21
-103.604
0
LINE
8
BLACK
6
CONTINUOUS
10
75.6969
20
-99.0957
11
75.1969
21
-98.5957
0
LINE
8
BLACK
6
CONTINUOUS
10
75.6969
20
-99.6329
11
75.6969
21
-99.0957
0
LINE
8
BLACK
6
CONTINUOUS
10
75.6969
20
-99.6329
11
78.1457
21
-99.6329
0
LINE
8
BLACK
6
CONTINUOUS
10
75.6969
20
-102.529
11
78.1457
21
-102.529
0
LINE
8
BLACK
6
CONTINUOUS
10
75.6969
20
-103.104
11
75.1969
21
-103.604
0
LINE
8
BLACK
6
CONTINUOUS
10
75.6969
20
-103.104
11
75.6969
21
-102.529
0
LINE
8
BLACK
6
CONTINUOUS
10
78.1457
20
-99.6329
11
78.1457
21
-102.529
0
ARC
8
BLACK
10
72.5996
20
-105.045
40
1.44391
50
-273.227
51
-177.683
0
ARC
8
BLACK
10
70.6889
20
-100.096
40
0.500001
50
-89.9999
51
-0.000114591
0
CIRCLE
8
BLACK
10
67.9735
20
-107.075
40
0.855
0
CIRCLE
8
BLACK
10
73.4735
20
-107.075
40
1.75
0
CIRCLE
8
BLACK
10
78.9735
20
-107.075
40
0.855
0
CIRCLE
8
BLACK
10
230.906
20
-68.4375
40
1.6
0
CIRCLE
8
BLACK
10
213.66
20
-137.078
40
1.6
0
LINE
8
BLACK
6
CONTINUOUS
10
210.477
20
-109.074
11
210.477
21
-106.178
0
LINE
8
BLACK
6
CONTINUOUS
10
212.926
20
-104.906
11
217.426
21
-104.906
0
LINE
8
BLACK
6
CONTINUOUS
10
212.926
20
-106.178
11
210.477
21
-106.178
0
LINE
8
BLACK
6
CONTINUOUS
10
212.926
20
-106.178
11
212.926
21
-104.906
0
LINE
8
BLACK
6
CONTINUOUS
10
212.926
20
-109.074
11
210.477
21
-109.074
0
LINE
8
BLACK
6
CONTINUOUS
10
212.926
20
-110.114
11
212.926
21
-109.074
0
LINE
8
BLACK
6
CONTINUOUS
10
217.894
20
-109.414
11
217.894
21
-110.114
0
LINE
8
BLACK
6
CONTINUOUS
10
217.894
20
-110.114
11
212.926
21
-110.114
0
LINE
8
BLACK
6
CONTINUOUS
10
217.926
20
-104.406
11
217.926
21
-103.406
0
LINE
8
BLACK
6
CONTINUOUS
10
218.426
20
-102.906
11
217.926
21
-103.406
0
LINE
8
BLACK
6
CONTINUOUS
10
221.934
20
-102.906
11
218.426
21
-102.906
0
LINE
8
BLACK
6
CONTINUOUS
10
221.934
20
-107.914
11
219.418
21
-107.914
0
LINE
8
BLACK
6
CONTINUOUS
10
222.434
20
-103.406
11
221.934
21
-102.906
0
LINE
8
BLACK
6
CONTINUOUS
10
222.434
20
-103.943
11
222.434
21
-103.406
0
LINE
8
BLACK
6
CONTINUOUS
10
222.434
20
-103.943
11
224.883
21
-103.943
0
LINE
8
BLACK
6
CONTINUOUS
10
222.434
20
-106.838
11
224.883
21
-106.838
0
LINE
8
BLACK
6
CONTINUOUS
10
222.434
20
-107.414
11
221.934
21
-107.914
0
LINE
8
BLACK
6
CONTINUOUS
10
222.434
20
-107.414
11
222.434
21
-106.838
0
LINE
8
BLACK
6
CONTINUOUS
10
224.883
20
-103.943
11
224.883
21
-106.838
0
ARC
8
BLACK
10
219.337
20
-109.355
40
1.44391
50
-273.227
51
-177.683
0
ARC
8
BLACK
10
217.426
20
-104.406
40
0.500001
50
-89.9999
51
-0.000114591
0
CIRCLE
8
BLACK
10
214.711
20
-111.385
40
0.855
0
CIRCLE
8
BLACK
10
220.211
20
-111.385
40
1.75
0
CIRCLE
8
BLACK
10
225.711
20
-111.385
40
0.855
0
LINE
8
BLACK
6
CONTINUOUS
10
181.543
20
-80.0695
11
186.725
21
-80.0695
0
LINE
8
BLACK
6
CONTINUOUS
10
186.725
20
-80.0695
11
186.725
21
-82.1016
0
LINE
8
BLACK
6
CONTINUOUS
10
186.725
20
-82.1016
11
181.543
21
-82.1016
0
LINE
8
BLACK
6
CONTINUOUS
10
181.543
20
-82.1016
11
181.543
21
-80.0695
0
LINE
8
BLACK
6
CONTINUOUS
10
81.7403
20
-74.0737
11
81.7403
21
-71.1781
0
LINE
8
BLACK
6
CONTINUOUS
10
84.1891
20
-69.9057
11
88.6891
21
-69.9057
0
LINE
8
BLACK
6
CONTINUOUS
10
84.1891
20
-71.1781
11
81.7403
21
-71.1781
0
LINE
8
BLACK
6
CONTINUOUS
10
84.1891
20
-71.1781
11
84.1891
21
-69.9057
0
LINE
8
BLACK
6
CONTINUOUS
10
84.1891
20
-74.0737
11
81.7403
21
-74.0737
0
LINE
8
BLACK
6
CONTINUOUS
10
84.1891
20
-75.1137
11
84.1891
21
-74.0737
0
LINE
8
BLACK
6
CONTINUOUS
10
89.1571
20
-74.4137
11
89.1571
21
-75.1137
0
LINE
8
BLACK
6
CONTINUOUS
10
89.1571
20
-75.1137
11
84.1891
21
-75.1137
0
LINE
8
BLACK
6
CONTINUOUS
10
89.1891
20
-69.4057
11
89.1891
21
-68.4057
0
LINE
8
BLACK
6
CONTINUOUS
10
89.6891
20
-67.9057
11
89.1891
21
-68.4057
0
LINE
8
BLACK
6
CONTINUOUS
10
93.1971
20
-67.9057
11
89.6891
21
-67.9057
0
LINE
8
BLACK
6
CONTINUOUS
10
93.1971
20
-72.9137
11
90.6811
21
-72.9137
0
LINE
8
BLACK
6
CONTINUOUS
10
93.6971
20
-68.4057
11
93.1971
21
-67.9057
0
LINE
8
BLACK
6
CONTINUOUS
10
93.6971
20
-68.9429
11
93.6971
21
-68.4057
0
LINE
8
BLACK
6
CONTINUOUS
10
93.6971
20
-68.9429
11
96.1459
21
-68.9429
0
LINE
8
BLACK
6
CONTINUOUS
10
93.6971
20
-71.8385
11
96.1459
21
-71.8385
0
LINE
8
BLACK
6
CONTINUOUS
10
93.6971
20
-72.4137
11
93.1971
21
-72.9137
0
LINE
8
BLACK
6
CONTINUOUS
10
93.6971
20
-72.4137
11
93.6971
21
-71.8385
0
LINE
8
BLACK
6
CONTINUOUS
10
96.1459
20
-68.9429
11
96.1459
21
-71.8385
0
ARC
8
BLACK
10
90.5998
20
-74.3554
40
1.44391
50
-273.227
51
-177.683
0
ARC
8
BLACK
10
88.6891
20
-69.4057
40
0.500001
50
-89.9999
51
-0.000114591
0
CIRCLE
8
BLACK
10
85.9737
20
-76.3851
40
0.855
0
CIRCLE
8
BLACK
10
91.4737
20
-76.3851
40
1.75
0
CIRCLE
8
BLACK
10
96.9737
20
-76.3851
40
0.855
0
LINE
8
BLACK
6
CONTINUOUS
10
45.7407
20
-75.0743
11
45.7407
21
-72.1787
0
LINE
8
BLACK
6
CONTINUOUS
10
48.1895
20
-70.9063
11
52.6895
21
-70.9063
0
LINE
8
BLACK
6
CONTINUOUS
10
48.1895
20
-72.1787
11
45.7407
21
-72.1787
0
LINE
8
BLACK
6
CONTINUOUS
10
48.1895
20
-72.1787
11
48.1895
21
-70.9063
0
LINE
8
BLACK
6
CONTINUOUS
10
48.1895
20
-75.0743
11
45.7407
21
-75.0743
0
LINE
8
BLACK
6
CONTINUOUS
10
48.1895
20
-76.1143
11
48.1895
21
-75.0743
0
LINE
8
BLACK
6
CONTINUOUS
10
53.1575
20
-75.4143
11
53.1575
21
-76.1143
0
LINE
8
BLACK
6
CONTINUOUS
10
53.1575
20
-76.1143
11
48.1895
21
-76.1143
0
LINE
8
BLACK
6
CONTINUOUS
10
53.1895
20
-70.4063
11
53.1895
21
-69.4063
0
LINE
8
BLACK
6
CONTINUOUS
10
53.6895
20
-68.9063
11
53.1895
21
-69.4063
0
LINE
8
BLACK
6
CONTINUOUS
10
57.1975
20
-68.9063
11
53.6895
21
-68.9063
0
LINE
8
BLACK
6
CONTINUOUS
10
57.1975
20
-73.9143
11
54.6815
21
-73.9143
0
LINE
8
BLACK
6
CONTINUOUS
10
57.6975
20
-69.4063
11
57.1975
21
-68.9063
0
LINE
8
BLACK
6
CONTINUOUS
10
57.6975
20
-69.9435
11
57.6975
21
-69.4063
0
LINE
8
BLACK
6
CONTINUOUS
10
57.6975
20
-69.9435
11
60.1463
21
-69.9435
0
LINE
8
BLACK
6
CONTINUOUS
10
57.6975
20
-72.8391
11
60.1463
21
-72.8391
0
LINE
8
BLACK
6
CONTINUOUS
10
57.6975
20
-73.4143
11
57.1975
21
-73.9143
0
LINE
8
BLACK
6
CONTINUOUS
10
57.6975
20
-73.4143
11
57.6975
21
-72.8391
0
LINE
8
BLACK
6
CONTINUOUS
10
60.1463
20
-69.9435
11
60.1463
21
-72.8391
0
ARC
8
BLACK
10
54.6002
20
-75.3559
40
1.44391
50
-273.227
51
-177.683
0
ARC
8
BLACK
10
52.6895
20
-70.4063
40
0.500001
50
-89.9999
51
-0.000114591
0
CIRCLE
8
BLACK
10
49.9741
20
-77.3857
40
0.855
0
CIRCLE
8
BLACK
10
55.4741
20
-77.3857
40
1.75
0
CIRCLE
8
BLACK
10
60.9741
20
-77.3857
40
0.855
0
LINE
8
BLACK
6
CONTINUOUS
10
99.74
20
-75.8733
11
99.74
21
-72.9777
0
LINE
8
BLACK
6
CONTINUOUS
10
102.189
20
-71.7053
11
106.689
21
-71.7053
0
LINE
8
BLACK
6
CONTINUOUS
10
102.189
20
-72.9777
11
99.74
21
-72.9777
0
LINE
8
BLACK
6
CONTINUOUS
10
102.189
20
-72.9777
11
102.189
21
-71.7053
0
LINE
8
BLACK
6
CONTINUOUS
10
102.189
20
-75.8733
11
99.74
21
-75.8733
0
LINE
8
BLACK
6
CONTINUOUS
10
102.189
20
-76.9133
11
102.189
21
-75.8733
0
LINE
8
BLACK
6
CONTINUOUS
10
107.157
20
-76.2133
11
107.157
21
-76.9133
0
LINE
8
BLACK
6
CONTINUOUS
10
107.157
20
-76.9133
11
102.189
21
-76.9133
0
LINE
8
BLACK
6
CONTINUOUS
10
107.189
20
-71.2053
11
107.189
21
-70.2053
0
LINE
8
BLACK
6
CONTINUOUS
10
107.689
20
-69.7053
11
107.189
21
-70.2053
0
LINE
8
BLACK
6
CONTINUOUS
10
111.197
20
-69.7053
11
107.689
21
-69.7053
0
LINE
8
BLACK
6
CONTINUOUS
10
111.197
20
-74.7133
11
108.681
21
-74.7133
0
LINE
8
BLACK
6
CONTINUOUS
10
111.697
20
-70.2053
11
111.197
21
-69.7053
0
LINE
8
BLACK
6
CONTINUOUS
10
111.697
20
-70.7425
11
111.697
21
-70.2053
0
LINE
8
BLACK
6
CONTINUOUS
10
111.697
20
-70.7425
11
114.146
21
-70.7425
0
LINE
8
BLACK
6
CONTINUOUS
10
111.697
20
-73.6381
11
114.146
21
-73.6381
0
LINE
8
BLACK
6
CONTINUOUS
10
111.697
20
-74.2133
11
111.197
21
-74.7133
0
LINE
8
BLACK
6
CONTINUOUS
10
111.697
20
-74.2133
11
111.697
21
-73.6381
0
LINE
8
BLACK
6
CONTINUOUS
10
114.146
20
-70.7425
11
114.146
21
-73.6381
0
ARC
8
BLACK
10
108.6
20
-76.1549
40
1.44391
50
-273.227
51
-177.683
0
ARC
8
BLACK
10
106.689
20
-71.2053
40
0.500001
50
-89.9999
51
-0.000114591
0
CIRCLE
8
BLACK
10
103.973
20
-78.1847
40
0.855
0
CIRCLE
8
BLACK
10
109.473
20
-78.1847
40
1.75
0
CIRCLE
8
BLACK
10
114.973
20
-78.1847
40
0.855
0
CIRCLE
8
BLACK
10
228.087
20
-121.33
40
1.6
0
LINE
8
BLACK
6
CONTINUOUS
10
174.478
20
-91.0737
11
174.478
21
-88.1781
0
LINE
8
BLACK
6
CONTINUOUS
10
176.927
20
-86.9057
11
181.427
21
-86.9057
0
LINE
8
BLACK
6
CONTINUOUS
10
176.927
20
-88.1781
11
174.478
21
-88.1781
0
LINE
8
BLACK
6
CONTINUOUS
10
176.927
20
-88.1781
11
176.927
21
-86.9057
0
LINE
8
BLACK
6
CONTINUOUS
10
176.927
20
-91.0737
11
174.478
21
-91.0737
0
LINE
8
BLACK
6
CONTINUOUS
10
176.927
20
-92.1137
11
176.927
21
-91.0737
0
LINE
8
BLACK
6
CONTINUOUS
10
181.895
20
-91.4137
11
181.895
21
-92.1137
0
LINE
8
BLACK
6
CONTINUOUS
10
181.895
20
-92.1137
11
176.927
21
-92.1137
0
LINE
8
BLACK
6
CONTINUOUS
10
181.927
20
-86.4057
11
181.927
21
-85.4057
0
LINE
8
BLACK
6
CONTINUOUS
10
182.427
20
-84.9057
11
181.927
21
-85.4057
0
LINE
8
BLACK
6
CONTINUOUS
10
185.935
20
-84.9057
11
182.427
21
-84.9057
0
LINE
8
BLACK
6
CONTINUOUS
10
185.935
20
-89.9137
11
183.419
21
-89.9137
0
LINE
8
BLACK
6
CONTINUOUS
10
186.435
20
-85.4057
11
185.935
21
-84.9057
0
LINE
8
BLACK
6
CONTINUOUS
10
186.435
20
-85.9429
11
186.435
21
-85.4057
0
LINE
8
BLACK
6
CONTINUOUS
10
186.435
20
-85.9429
11
188.883
21
-85.9429
0
LINE
8
BLACK
6
CONTINUOUS
10
186.435
20
-88.8385
11
188.883
21
-88.8385
0
LINE
8
BLACK
6
CONTINUOUS
10
186.435
20
-89.4137
11
185.935
21
-89.9137
0
LINE
8
BLACK
6
CONTINUOUS
10
186.435
20
-89.4137
11
186.435
21
-88.8385
0
LINE
8
BLACK
6
CONTINUOUS
10
188.883
20
-85.9429
11
188.883
21
-88.8385
0
ARC
8
BLACK
10
183.337
20
-91.3553
40
1.44391
50
-273.227
51
-177.683
0
ARC
8
BLACK
10
181.427
20
-86.4057
40
0.500001
50
-89.9999
51
-0.000114591
0
CIRCLE
8
BLACK
10
178.711
20
-93.3851
40
0.855
0
CIRCLE
8
BLACK
10
184.211
20
-93.3851
40
1.75
0
CIRCLE
8
BLACK
10
189.711
20
-93.3851
40
0.855
0
LINE
8
BLACK
6
CONTINUOUS
10
156.478
20
-92.8731
11
156.478
21
-89.9775
0
LINE
8
BLACK
6
CONTINUOUS
10
158.927
20
-88.7051
11
163.427
21
-88.7051
0
LINE
8
BLACK
6
CONTINUOUS
10
158.927
20
-89.9775
11
156.478
21
-89.9775
0
LINE
8
BLACK
6
CONTINUOUS
10
158.927
20
-89.9775
11
158.927
21
-88.7051
0
LINE
8
BLACK
6
CONTINUOUS
10
158.927
20
-92.8731
11
156.478
21
-92.8731
0
LINE
8
BLACK
6
CONTINUOUS
10
158.927
20
-93.9131
11
158.927
21
-92.8731
0
LINE
8
BLACK
6
CONTINUOUS
10
163.895
20
-93.2131
11
163.895
21
-93.9131
0
LINE
8
BLACK
6
CONTINUOUS
10
163.895
20
-93.9131
11
158.927
21
-93.9131
0
LINE
8
BLACK
6
CONTINUOUS
10
163.927
20
-88.2051
11
163.927
21
-87.2051
0
LINE
8
BLACK
6
CONTINUOUS
10
164.427
20
-86.7051
11
163.927
21
-87.2051
0
LINE
8
BLACK
6
CONTINUOUS
10
167.935
20
-86.7051
11
164.427
21
-86.7051
0
LINE
8
BLACK
6
CONTINUOUS
10
167.935
20
-91.7131
11
165.419
21
-91.7131
0
LINE
8
BLACK
6
CONTINUOUS
10
168.435
20
-87.2051
11
167.935
21
-86.7051
0
LINE
8
BLACK
6
CONTINUOUS
10
168.435
20
-87.7423
11
168.435
21
-87.2051
0
LINE
8
BLACK
6
CONTINUOUS
10
168.435
20
-87.7423
11
170.884
21
-87.7423
0
LINE
8
BLACK
6
CONTINUOUS
10
168.435
20
-90.6379
11
170.884
21
-90.6379
0
LINE
8
BLACK
6
CONTINUOUS
10
168.435
20
-91.2131
11
167.935
21
-91.7131
0
LINE
8
BLACK
6
CONTINUOUS
10
168.435
20
-91.2131
11
168.435
21
-90.6379
0
LINE
8
BLACK
6
CONTINUOUS
10
170.884
20
-87.7423
11
170.884
21
-90.6379
0
ARC
8
BLACK
10
165.338
20
-93.1547
40
1.44391
50
-273.227
51
-177.683
0
ARC
8
BLACK
10
163.427
20
-88.2051
40
0.500001
50
-89.9999
51
-0.000114591
0
CIRCLE
8
BLACK
10
160.711
20
-95.1845
40
0.855
0
CIRCLE
8
BLACK
10
166.211
20
-95.1845
40
1.75
0
CIRCLE
8
BLACK
10
171.711
20
-95.1845
40
0.855
0
LINE
8
BLACK
6
CONTINUOUS
10
240.731
20
-120.03
11
235.569
21
-119.579
0
LINE
8
BLACK
6
CONTINUOUS
10
235.569
20
-119.579
11
235.746
21
-117.554
0
LINE
8
BLACK
6
CONTINUOUS
10
235.746
20
-117.554
11
240.908
21
-118.006
0
LINE
8
BLACK
6
CONTINUOUS
10
240.908
20
-118.006
11
240.731
21
-120.03
0
LINE
8
BLACK
6
CONTINUOUS
10
81.7403
20
-108.074
11
81.7403
21
-105.179
0
LINE
8
BLACK
6
CONTINUOUS
10
84.1891
20
-103.906
11
88.6891
21
-103.906
0
LINE
8
BLACK
6
CONTINUOUS
10
84.1891
20
-105.179
11
81.7403
21
-105.179
0
LINE
8
BLACK
6
CONTINUOUS
10
84.1891
20
-105.179
11
84.1891
21
-103.906
0
LINE
8
BLACK
6
CONTINUOUS
10
84.1891
20
-108.074
11
81.7403
21
-108.074
0
LINE
8
BLACK
6
CONTINUOUS
10
84.1891
20
-109.114
11
84.1891
21
-108.074
0
LINE
8
BLACK
6
CONTINUOUS
10
89.1571
20
-108.414
11
89.1571
21
-109.114
0
LINE
8
BLACK
6
CONTINUOUS
10
89.1571
20
-109.114
11
84.1891
21
-109.114
0
LINE
8
BLACK
6
CONTINUOUS
10
89.1891
20
-103.406
11
89.1891
21
-102.406
0
LINE
8
BLACK
6
CONTINUOUS
10
89.6891
20
-101.906
11
89.1891
21
-102.406
0
LINE
8
BLACK
6
CONTINUOUS
10
93.1971
20
-101.906
11
89.6891
21
-101.906
0
LINE
8
BLACK
6
CONTINUOUS
10
93.1971
20
-106.914
11
90.6811
21
-106.914
0
LINE
8
BLACK
6
CONTINUOUS
10
93.6971
20
-102.406
11
93.1971
21
-101.906
0
LINE
8
BLACK
6
CONTINUOUS
10
93.6971
20
-102.943
11
93.6971
21
-102.406
0
LINE
8
BLACK
6
CONTINUOUS
10
93.6971
20
-102.943
11
96.1459
21
-102.943
0
LINE
8
BLACK
6
CONTINUOUS
10
93.6971
20
-105.839
11
96.1459
21
-105.839
0
LINE
8
BLACK
6
CONTINUOUS
10
93.6971
20
-106.414
11
93.1971
21
-106.914
0
LINE
8
BLACK
6
CONTINUOUS
10
93.6971
20
-106.414
11
93.6971
21
-105.839
0
LINE
8
BLACK
6
CONTINUOUS
10
96.1459
20
-102.943
11
96.1459
21
-105.839
0
ARC
8
BLACK
10
90.5998
20
-108.356
40
1.44391
50
-273.227
51
-177.683
0
ARC
8
BLACK
10
88.6891
20
-103.406
40
0.500001
50
-89.9999
51
-0.000114591
0
CIRCLE
8
BLACK
10
85.9737
20
-110.386
40
0.855
0
CIRCLE
8
BLACK
10
91.4737
20
-110.386
40
1.75
0
CIRCLE
8
BLACK
10
96.9737
20
-110.386
40
0.855
0
CIRCLE
8
BLACK
10
160.167
20
-134.741
40
1.6
0
LINE
8
BLACK
6
CONTINUOUS
10
217.643
20
-81.0701
11
222.825
21
-81.0701
0
LINE
8
BLACK
6
CONTINUOUS
10
222.825
20
-81.0701
11
222.825
21
-83.1021
0
LINE
8
BLACK
6
CONTINUOUS
10
222.825
20
-83.1021
11
217.643
21
-83.1021
0
LINE
8
BLACK
6
CONTINUOUS
10
217.643
20
-83.1021
11
217.643
21
-81.0701
0
LINE
8
BLACK
6
CONTINUOUS
10
167.535
20
-132.218
11
172.638
21
-131.318
0
LINE
8
BLACK
6
CONTINUOUS
10
172.638
20
-131.318
11
172.991
21
-133.319
0
LINE
8
BLACK
6
CONTINUOUS
10
172.991
20
-133.319
11
167.888
21
-134.219
0
LINE
8
BLACK
6
CONTINUOUS
10
167.888
20
-134.219
11
167.535
21
-132.218
0
LINE
8
BLACK
6
CONTINUOUS
10
199.62
20
-76.7593
11
204.802
21
-76.7593
0
LINE
8
BLACK
6
CONTINUOUS
10
204.802
20
-76.7593
11
204.802
21
-78.7913
0
LINE
8
BLACK
6
CONTINUOUS
10
204.802
20
-78.7913
11
199.62
21
-78.7913
0
LINE
8
BLACK
6
CONTINUOUS
10
199.62
20
-78.7913
11
199.62
21
-76.7593
0
LINE
8
BLACK
6
CONTINUOUS
10
192.478
20
-87.7635
11
192.478
21
-84.8679
0
LINE
8
BLACK
6
CONTINUOUS
10
194.927
20
-83.5955
11
199.427
21
-83.5955
0
LINE
8
BLACK
6
CONTINUOUS
10
194.927
20
-84.8679
11
192.478
21
-84.8679
0
LINE
8
BLACK
6
CONTINUOUS
10
194.927
20
-84.8679
11
194.927
21
-83.5955
0
LINE
8
BLACK
6
CONTINUOUS
10
194.927
20
-87.7635
11
192.478
21
-87.7635
0
LINE
8
BLACK
6
CONTINUOUS
10
194.927
20
-88.8035
11
194.927
21
-87.7635
0
LINE
8
BLACK
6
CONTINUOUS
10
199.895
20
-88.1035
11
199.895
21
-88.8035
0
LINE
8
BLACK
6
CONTINUOUS
10
199.895
20
-88.8035
11
194.927
21
-88.8035
0
LINE
8
BLACK
6
CONTINUOUS
10
199.927
20
-83.0955
11
199.927
21
-82.0955
0
LINE
8
BLACK
6
CONTINUOUS
10
200.427
20
-81.5955
11
199.927
21
-82.0955
0
LINE
8
BLACK
6
CONTINUOUS
10
203.935
20
-81.5955
11
200.427
21
-81.5955
0
LINE
8
BLACK
6
CONTINUOUS
10
203.935
20
-86.6035
11
201.419
21
-86.6035
0
LINE
8
BLACK
6
CONTINUOUS
10
204.435
20
-82.0955
11
203.935
21
-81.5955
0
LINE
8
BLACK
6
CONTINUOUS
10
204.435
20
-82.6327
11
204.435
21
-82.0955
0
LINE
8
BLACK
6
CONTINUOUS
10
204.435
20
-82.6327
11
206.884
21
-82.6327
0
LINE
8
BLACK
6
CONTINUOUS
10
204.435
20
-85.5283
11
206.884
21
-85.5283
0
LINE
8
BLACK
6
CONTINUOUS
10
204.435
20
-86.1035
11
203.935
21
-86.6035
0
LINE
8
BLACK
6
CONTINUOUS
10
204.435
20
-86.1035
11
204.435
21
-85.5283
0
LINE
8
BLACK
6
CONTINUOUS
10
206.884
20
-82.6327
11
206.884
21
-85.5283
0
ARC
8
BLACK
10
201.337
20
-88.0451
40
1.44391
50
-273.227
51
-177.683
0
ARC
8
BLACK
10
199.427
20
-83.0955
40
0.500001
50
-89.9999
51
-0.000114591
0
CIRCLE
8
BLACK
10
196.711
20
-90.0749
40
0.855
0
CIRCLE
8
BLACK
10
202.211
20
-90.0749
40
1.75
0
CIRCLE
8
BLACK
10
207.711
20
-90.0749
40
0.855
0
LINE
8
BLACK
6
CONTINUOUS
10
99.74
20
-109.873
11
99.74
21
-106.978
0
LINE
8
BLACK
6
CONTINUOUS
10
102.189
20
-105.705
11
106.689
21
-105.705
0
LINE
8
BLACK
6
CONTINUOUS
10
102.189
20
-106.978
11
99.74
21
-106.978
0
LINE
8
BLACK
6
CONTINUOUS
10
102.189
20
-106.978
11
102.189
21
-105.705
0
LINE
8
BLACK
6
CONTINUOUS
10
102.189
20
-109.873
11
99.74
21
-109.873
0
LINE
8
BLACK
6
CONTINUOUS
10
102.189
20
-110.913
11
102.189
21
-109.873
0
LINE
8
BLACK
6
CONTINUOUS
10
107.157
20
-110.213
11
107.157
21
-110.913
0
LINE
8
BLACK
6
CONTINUOUS
10
107.157
20
-110.913
11
102.189
21
-110.913
0
LINE
8
BLACK
6
CONTINUOUS
10
107.189
20
-105.205
11
107.189
21
-104.205
0
LINE
8
BLACK
6
CONTINUOUS
10
107.689
20
-103.705
11
107.189
21
-104.205
0
LINE
8
BLACK
6
CONTINUOUS
10
111.197
20
-103.705
11
107.689
21
-103.705
0
LINE
8
BLACK
6
CONTINUOUS
10
111.197
20
-108.713
11
108.681
21
-108.713
0
LINE
8
BLACK
6
CONTINUOUS
10
111.697
20
-104.205
11
111.197
21
-103.705
0
LINE
8
BLACK
6
CONTINUOUS
10
111.697
20
-104.742
11
111.697
21
-104.205
0
LINE
8
BLACK
6
CONTINUOUS
10
111.697
20
-104.742
11
114.146
21
-104.742
0
LINE
8
BLACK
6
CONTINUOUS
10
111.697
20
-107.638
11
114.146
21
-107.638
0
LINE
8
BLACK
6
CONTINUOUS
10
111.697
20
-108.213
11
111.197
21
-108.713
0
LINE
8
BLACK
6
CONTINUOUS
10
111.697
20
-108.213
11
111.697
21
-107.638
0
LINE
8
BLACK
6
CONTINUOUS
10
114.146
20
-104.742
11
114.146
21
-107.638
0
ARC
8
BLACK
10
108.6
20
-110.155
40
1.44391
50
-273.227
51
-177.683
0
ARC
8
BLACK
10
106.689
20
-105.205
40
0.500001
50
-89.9999
51
-0.000114591
0
CIRCLE
8
BLACK
10
103.973
20
-112.185
40
0.855
0
CIRCLE
8
BLACK
10
109.473
20
-112.185
40
1.75
0
CIRCLE
8
BLACK
10
114.973
20
-112.185
40
0.855
0
LINE
8
BLACK
6
CONTINUOUS
10
81.7403
20
-91.0737
11
81.7403
21
-88.1781
0
LINE
8
BLACK
6
CONTINUOUS
10
84.1891
20
-86.9057
11
88.6891
21
-86.9057
0
LINE
8
BLACK
6
CONTINUOUS
10
84.1891
20
-88.1781
11
81.7403
21
-88.1781
0
LINE
8
BLACK
6
CONTINUOUS
10
84.1891
20
-88.1781
11
84.1891
21
-86.9057
0
LINE
8
BLACK
6
CONTINUOUS
10
84.1891
20
-91.0737
11
81.7403
21
-91.0737
0
LINE
8
BLACK
6
CONTINUOUS
10
84.1891
20
-92.1137
11
84.1891
21
-91.0737
0
LINE
8
BLACK
6
CONTINUOUS
10
89.1571
20
-91.4137
11
89.1571
21
-92.1137
0
LINE
8
BLACK
6
CONTINUOUS
10
89.1571
20
-92.1137
11
84.1891
21
-92.1137
0
LINE
8
BLACK
6
CONTINUOUS
10
89.1891
20
-86.4057
11
89.1891
21
-85.4057
0
LINE
8
BLACK
6
CONTINUOUS
10
89.6891
20
-84.9057
11
89.1891
21
-85.4057
0
LINE
8
BLACK
6
CONTINUOUS
10
93.1971
20
-84.9057
11
89.6891
21
-84.9057
0
LINE
8
BLACK
6
CONTINUOUS
10
93.1971
20
-89.9137
11
90.6811
21
-89.9137
0
LINE
8
BLACK
6
CONTINUOUS
10
93.6971
20
-85.4057
11
93.1971
21
-84.9057
0
LINE
8
BLACK
6
CONTINUOUS
10
93.6971
20
-85.9429
11
93.6971
21
-85.4057
0
LINE
8
BLACK
6
CONTINUOUS
10
93.6971
20
-85.9429
11
96.1459
21
-85.9429
0
LINE
8
BLACK
6
CONTINUOUS
10
93.6971
20
-88.8385
11
96.1459
21
-88.8385
0
LINE
8
BLACK
6
CONTINUOUS
10
93.6971
20
-89.4137
11
93.1971
21
-89.9137
0
LINE
8
BLACK
6
CONTINUOUS
10
93.6971
20
-89.4137
11
93.6971
21
-88.8385
0
LINE
8
BLACK
6
CONTINUOUS
10
96.1459
20
-85.9429
11
96.1459
21
-88.8385
0
ARC
8
BLACK
10
90.5998
20
-91.3553
40
1.44391
50
-273.227
51
-177.683
0
ARC
8
BLACK
10
88.6891
20
-86.4057
40
0.500001
50
-89.9999
51
-0.000114591
0
CIRCLE
8
BLACK
10
85.9737
20
-93.3851
40
0.855
0
CIRCLE
8
BLACK
10
91.4737
20
-93.3851
40
1.75
0
CIRCLE
8
BLACK
10
96.9737
20
-93.3851
40
0.855
0
LINE
8
BLACK
6
CONTINUOUS
10
199.62
20
-93.7593
11
204.802
21
-93.7593
0
LINE
8
BLACK
6
CONTINUOUS
10
204.802
20
-93.7593
11
204.802
21
-95.7913
0
LINE
8
BLACK
6
CONTINUOUS
10
204.802
20
-95.7913
11
199.62
21
-95.7913
0
LINE
8
BLACK
6
CONTINUOUS
10
199.62
20
-95.7913
11
199.62
21
-93.7593
0
LINE
8
BLACK
6
CONTINUOUS
10
147.757
20
-138
11
152.627
21
-136.228
0
LINE
8
BLACK
6
CONTINUOUS
10
152.627
20
-136.228
11
153.322
21
-138.138
0
LINE
8
BLACK
6
CONTINUOUS
10
153.322
20
-138.138
11
148.452
21
-139.91
0
LINE
8
BLACK
6
CONTINUOUS
10
148.452
20
-139.91
11
147.757
21
-138
0
LINE
8
BLACK
6
CONTINUOUS
10
163.62
20
-115.869
11
168.802
21
-115.869
0
LINE
8
BLACK
6
CONTINUOUS
10
168.802
20
-115.869
11
168.802
21
-117.901
0
LINE
8
BLACK
6
CONTINUOUS
10
168.802
20
-117.901
11
163.62
21
-117.901
0
LINE
8
BLACK
6
CONTINUOUS
10
163.62
20
-117.901
11
163.62
21
-115.869
0
LINE
8
BLACK
6
CONTINUOUS
10
217.643
20
-115.069
11
222.825
21
-115.069
0
LINE
8
BLACK
6
CONTINUOUS
10
222.825
20
-115.069
11
222.825
21
-117.101
0
LINE
8
BLACK
6
CONTINUOUS
10
222.825
20
-117.101
11
217.643
21
-117.101
0
LINE
8
BLACK
6
CONTINUOUS
10
217.643
20
-117.101
11
217.643
21
-115.069
0
LINE
8
BLACK
6
CONTINUOUS
10
217.643
20
-98.0697
11
222.825
21
-98.0697
0
LINE
8
BLACK
6
CONTINUOUS
10
222.825
20
-98.0697
11
222.825
21
-100.102
0
LINE
8
BLACK
6
CONTINUOUS
10
222.825
20
-100.102
11
217.643
21
-100.102
0
LINE
8
BLACK
6
CONTINUOUS
10
217.643
20
-100.102
11
217.643
21
-98.0697
0
LINE
8
BLACK
6
CONTINUOUS
10
230.666
20
-94.0321
11
230.918
21
-91.1475
0
LINE
8
BLACK
6
CONTINUOUS
10
233.469
20
-90.0934
11
237.951
21
-90.4856
0
LINE
8
BLACK
6
CONTINUOUS
10
233.358
20
-91.361
11
230.918
21
-91.1475
0
LINE
8
BLACK
6
CONTINUOUS
10
233.358
20
-91.361
11
233.469
21
-90.0934
0
LINE
8
BLACK
6
CONTINUOUS
10
233.105
20
-94.2456
11
230.666
21
-94.0321
0
LINE
8
BLACK
6
CONTINUOUS
10
233.015
20
-95.2816
11
233.105
21
-94.2456
0
LINE
8
BLACK
6
CONTINUOUS
10
238.025
20
-95.0172
11
237.964
21
-95.7146
0
LINE
8
BLACK
6
CONTINUOUS
10
237.964
20
-95.7146
11
233.015
21
-95.2816
0
LINE
8
BLACK
6
CONTINUOUS
10
238.493
20
-90.0311
11
238.58
21
-89.0349
0
LINE
8
BLACK
6
CONTINUOUS
10
239.122
20
-88.5804
11
238.58
21
-89.0349
0
LINE
8
BLACK
6
CONTINUOUS
10
242.617
20
-88.8861
11
239.122
21
-88.5804
0
LINE
8
BLACK
6
CONTINUOUS
10
242.18
20
-93.8751
11
239.674
21
-93.6558
0
LINE
8
BLACK
6
CONTINUOUS
10
243.071
20
-89.4278
11
242.617
21
-88.8861
0
LINE
8
BLACK
6
CONTINUOUS
10
243.024
20
-89.963
11
243.071
21
-89.4278
0
LINE
8
BLACK
6
CONTINUOUS
10
243.024
20
-89.963
11
245.464
21
-90.1764
0
LINE
8
BLACK
6
CONTINUOUS
10
242.772
20
-92.8475
11
245.211
21
-93.061
0
LINE
8
BLACK
6
CONTINUOUS
10
242.722
20
-93.4205
11
242.18
21
-93.8751
0
LINE
8
BLACK
6
CONTINUOUS
10
242.722
20
-93.4205
11
242.772
21
-92.8475
0
LINE
8
BLACK
6
CONTINUOUS
10
245.464
20
-90.1764
11
245.211
21
-93.061
0
ARC
8
BLACK
10
239.467
20
-95.0848
40
1.44391
50
81.7734
51
177.317
0
ARC
8
BLACK
10
237.995
20
-89.9875
40
0.5
50
-94.9999
51
-5.00012
0
CIRCLE
8
BLACK
10
234.682
20
-96.7037
40
0.855
0
CIRCLE
8
BLACK
10
240.161
20
-97.1831
40
1.75
0
CIRCLE
8
BLACK
10
245.64
20
-97.6624
40
0.855001
0
LINE
8
BLACK
6
CONTINUOUS
10
99.74
20
-92.8731
11
99.74
21
-89.9775
0
LINE
8
BLACK
6
CONTINUOUS
10
102.189
20
-88.7051
11
106.689
21
-88.7051
0
LINE
8
BLACK
6
CONTINUOUS
10
102.189
20
-89.9775
11
99.74
21
-89.9775
0
LINE
8
BLACK
6
CONTINUOUS
10
102.189
20
-89.9775
11
102.189
21
-88.7051
0
LINE
8
BLACK
6
CONTINUOUS
10
102.189
20
-92.8731
11
99.74
21
-92.8731
0
LINE
8
BLACK
6
CONTINUOUS
10
102.189
20
-93.9131
11
102.189
21
-92.8731
0
LINE
8
BLACK
6
CONTINUOUS
10
107.157
20
-93.2131
11
107.157
21
-93.9131
0
LINE
8
BLACK
6
CONTINUOUS
10
107.157
20
-93.9131
11
102.189
21
-93.9131
0
LINE
8
BLACK
6
CONTINUOUS
10
107.189
20
-88.2051
11
107.189
21
-87.2051
0
LINE
8
BLACK
6
CONTINUOUS
10
107.689
20
-86.7051
11
107.189
21
-87.2051
0
LINE
8
BLACK
6
CONTINUOUS
10
111.197
20
-86.7051
11
107.689
21
-86.7051
0
LINE
8
BLACK
6
CONTINUOUS
10
111.197
20
-91.7131
11
108.681
21
-91.7131
0
LINE
8
BLACK
6
CONTINUOUS
10
111.697
20
-87.2051
11
111.197
21
-86.7051
0
LINE
8
BLACK
6
CONTINUOUS
10
111.697
20
-87.7423
11
111.697
21
-87.2051
0
LINE
8
BLACK
6
CONTINUOUS
10
111.697
20
-87.7423
11
114.146
21
-87.7423
0
LINE
8
BLACK
6
CONTINUOUS
10
111.697
20
-90.6379
11
114.146
21
-90.6379
0
LINE
8
BLACK
6
CONTINUOUS
10
111.697
20
-91.2131
11
111.197
21
-91.7131
0
LINE
8
BLACK
6
CONTINUOUS
10
111.697
20
-91.2131
11
111.697
21
-90.6379
0
LINE
8
BLACK
6
CONTINUOUS
10
114.146
20
-87.7423
11
114.146
21
-90.6379
0
ARC
8
BLACK
10
108.6
20
-93.1547
40
1.44391
50
-273.227
51
-177.683
0
ARC
8
BLACK
10
106.689
20
-88.2051
40
0.500001
50
-89.9999
51
-0.000114591
0
CIRCLE
8
BLACK
10
103.973
20
-95.1845
40
0.855
0
CIRCLE
8
BLACK
10
109.473
20
-95.1845
40
1.75
0
CIRCLE
8
BLACK
10
114.973
20
-95.1845
40
0.855
0
LINE
8
BLACK
6
CONTINUOUS
10
181.543
20
-97.0695
11
186.725
21
-97.0695
0
LINE
8
BLACK
6
CONTINUOUS
10
186.725
20
-97.0695
11
186.725
21
-99.1015
0
LINE
8
BLACK
6
CONTINUOUS
10
186.725
20
-99.1015
11
181.543
21
-99.1015
0
LINE
8
BLACK
6
CONTINUOUS
10
181.543
20
-99.1015
11
181.543
21
-97.0695
0
LINE
8
BLACK
6
CONTINUOUS
10
210.477
20
-92.0739
11
210.477
21
-89.1783
0
LINE
8
BLACK
6
CONTINUOUS
10
212.926
20
-87.9059
11
217.426
21
-87.9059
0
LINE
8
BLACK
6
CONTINUOUS
10
212.926
20
-89.1783
11
210.477
21
-89.1783
0
LINE
8
BLACK
6
CONTINUOUS
10
212.926
20
-89.1783
11
212.926
21
-87.9059
0
LINE
8
BLACK
6
CONTINUOUS
10
212.926
20
-92.0739
11
210.477
21
-92.0739
0
LINE
8
BLACK
6
CONTINUOUS
10
212.926
20
-93.1139
11
212.926
21
-92.0739
0
LINE
8
BLACK
6
CONTINUOUS
10
217.894
20
-92.4139
11
217.894
21
-93.1139
0
LINE
8
BLACK
6
CONTINUOUS
10
217.894
20
-93.1139
11
212.926
21
-93.1139
0
LINE
8
BLACK
6
CONTINUOUS
10
217.926
20
-87.4059
11
217.926
21
-86.4059
0
LINE
8
BLACK
6
CONTINUOUS
10
218.426
20
-85.9059
11
217.926
21
-86.4059
0
LINE
8
BLACK
6
CONTINUOUS
10
221.934
20
-85.9059
11
218.426
21
-85.9059
0
LINE
8
BLACK
6
CONTINUOUS
10
221.934
20
-90.9139
11
219.418
21
-90.9139
0
LINE
8
BLACK
6
CONTINUOUS
10
222.434
20
-86.4059
11
221.934
21
-85.9059
0
LINE
8
BLACK
6
CONTINUOUS
10
222.434
20
-86.9431
11
222.434
21
-86.4059
0
LINE
8
BLACK
6
CONTINUOUS
10
222.434
20
-86.9431
11
224.883
21
-86.9431
0
LINE
8
BLACK
6
CONTINUOUS
10
222.434
20
-89.8387
11
224.883
21
-89.8387
0
LINE
8
BLACK
6
CONTINUOUS
10
222.434
20
-90.4139
11
221.934
21
-90.9139
0
LINE
8
BLACK
6
CONTINUOUS
10
222.434
20
-90.4139
11
222.434
21
-89.8387
0
LINE
8
BLACK
6
CONTINUOUS
10
224.883
20
-86.9431
11
224.883
21
-89.8387
0
ARC
8
BLACK
10
219.337
20
-92.3555
40
1.44391
50
-273.227
51
-177.683
0
ARC
8
BLACK
10
217.426
20
-87.4059
40
0.500001
50
-89.9999
51
-0.000114591
0
CIRCLE
8
BLACK
10
214.711
20
-94.3853
40
0.855
0
CIRCLE
8
BLACK
10
220.211
20
-94.3853
40
1.75
0
CIRCLE
8
BLACK
10
225.711
20
-94.3853
40
0.855
0
LINE
8
BLACK
6
CONTINUOUS
10
163.62
20
-81.8691
11
168.802
21
-81.8691
0
LINE
8
BLACK
6
CONTINUOUS
10
168.802
20
-81.8691
11
168.802
21
-83.9011
0
LINE
8
BLACK
6
CONTINUOUS
10
168.802
20
-83.9011
11
163.62
21
-83.9011
0
LINE
8
BLACK
6
CONTINUOUS
10
163.62
20
-83.9011
11
163.62
21
-81.8691
0
LINE
8
BLACK
6
CONTINUOUS
10
63.7401
20
-70.7635
11
63.7401
21
-67.8679
0
LINE
8
BLACK
6
CONTINUOUS
10
66.1889
20
-66.5955
11
70.6889
21
-66.5955
0
LINE
8
BLACK
6
CONTINUOUS
10
66.1889
20
-67.8679
11
63.7401
21
-67.8679
0
LINE
8
BLACK
6
CONTINUOUS
10
66.1889
20
-67.8679
11
66.1889
21
-66.5955
0
LINE
8
BLACK
6
CONTINUOUS
10
66.1889
20
-70.7635
11
63.7401
21
-70.7635
0
LINE
8
BLACK
6
CONTINUOUS
10
66.1889
20
-71.8035
11
66.1889
21
-70.7635
0
LINE
8
BLACK
6
CONTINUOUS
10
71.1569
20
-71.1035
11
71.1569
21
-71.8035
0
LINE
8
BLACK
6
CONTINUOUS
10
71.1569
20
-71.8035
11
66.1889
21
-71.8035
0
LINE
8
BLACK
6
CONTINUOUS
10
71.1889
20
-66.0955
11
71.1889
21
-65.0955
0
LINE
8
BLACK
6
CONTINUOUS
10
71.6889
20
-64.5955
11
71.1889
21
-65.0955
0
LINE
8
BLACK
6
CONTINUOUS
10
75.1969
20
-64.5955
11
71.6889
21
-64.5955
0
LINE
8
BLACK
6
CONTINUOUS
10
75.1969
20
-69.6035
11
72.6809
21
-69.6035
0
LINE
8
BLACK
6
CONTINUOUS
10
75.6969
20
-65.0955
11
75.1969
21
-64.5955
0
LINE
8
BLACK
6
CONTINUOUS
10
75.6969
20
-65.6327
11
75.6969
21
-65.0955
0
LINE
8
BLACK
6
CONTINUOUS
10
75.6969
20
-65.6327
11
78.1457
21
-65.6327
0
LINE
8
BLACK
6
CONTINUOUS
10
75.6969
20
-68.5283
11
78.1457
21
-68.5283
0
LINE
8
BLACK
6
CONTINUOUS
10
75.6969
20
-69.1035
11
75.1969
21
-69.6035
0
LINE
8
BLACK
6
CONTINUOUS
10
75.6969
20
-69.1035
11
75.6969
21
-68.5283
0
LINE
8
BLACK
6
CONTINUOUS
10
78.1457
20
-65.6327
11
78.1457
21
-68.5283
0
ARC
8
BLACK
10
72.5996
20
-71.0452
40
1.44391
50
-273.227
51
-177.683
0
ARC
8
BLACK
10
70.6889
20
-66.0955
40
0.500001
50
-89.9999
51
-0.000114591
0
CIRCLE
8
BLACK
10
67.9735
20
-73.0749
40
0.855
0
CIRCLE
8
BLACK
10
73.4735
20
-73.0749
40
1.75
0
CIRCLE
8
BLACK
10
78.9735
20
-73.0749
40
0.855
0
LINE
8
BLACK
6
CONTINUOUS
10
192.478
20
-104.764
11
192.478
21
-101.868
0
LINE
8
BLACK
6
CONTINUOUS
10
194.927
20
-100.596
11
199.427
21
-100.596
0
LINE
8
BLACK
6
CONTINUOUS
10
194.927
20
-101.868
11
192.478
21
-101.868
0
LINE
8
BLACK
6
CONTINUOUS
10
194.927
20
-101.868
11
194.927
21
-100.596
0
LINE
8
BLACK
6
CONTINUOUS
10
194.927
20
-104.764
11
192.478
21
-104.764
0
LINE
8
BLACK
6
CONTINUOUS
10
194.927
20
-105.804
11
194.927
21
-104.764
0
LINE
8
BLACK
6
CONTINUOUS
10
199.895
20
-105.104
11
199.895
21
-105.804
0
LINE
8
BLACK
6
CONTINUOUS
10
199.895
20
-105.804
11
194.927
21
-105.804
0
LINE
8
BLACK
6
CONTINUOUS
10
199.927
20
-100.096
11
199.927
21
-99.0957
0
LINE
8
BLACK
6
CONTINUOUS
10
200.427
20
-98.5957
11
199.927
21
-99.0957
0
LINE
8
BLACK
6
CONTINUOUS
10
203.935
20
-98.5957
11
200.427
21
-98.5957
0
LINE
8
BLACK
6
CONTINUOUS
10
203.935
20
-103.604
11
201.419
21
-103.604
0
LINE
8
BLACK
6
CONTINUOUS
10
204.435
20
-99.0957
11
203.935
21
-98.5957
0
LINE
8
BLACK
6
CONTINUOUS
10
204.435
20
-99.6329
11
204.435
21
-99.0957
0
LINE
8
BLACK
6
CONTINUOUS
10
204.435
20
-99.6329
11
206.884
21
-99.6329
0
LINE
8
BLACK
6
CONTINUOUS
10
204.435
20
-102.529
11
206.884
21
-102.529
0
LINE
8
BLACK
6
CONTINUOUS
10
204.435
20
-103.104
11
203.935
21
-103.604
0
LINE
8
BLACK
6
CONTINUOUS
10
204.435
20
-103.104
11
204.435
21
-102.529
0
LINE
8
BLACK
6
CONTINUOUS
10
206.884
20
-99.6329
11
206.884
21
-102.529
0
ARC
8
BLACK
10
201.337
20
-105.045
40
1.44391
50
-273.227
51
-177.683
0
ARC
8
BLACK
10
199.427
20
-100.096
40
0.500001
50
-89.9999
51
-0.000114591
0
CIRCLE
8
BLACK
10
196.711
20
-107.075
40
0.855
0
CIRCLE
8
BLACK
10
202.211
20
-107.075
40
1.75
0
CIRCLE
8
BLACK
10
207.711
20
-107.075
40
0.855
0
LINE
8
BLACK
6
CONTINUOUS
10
156.478
20
-75.8733
11
156.478
21
-72.9777
0
LINE
8
BLACK
6
CONTINUOUS
10
158.927
20
-71.7053
11
163.427
21
-71.7053
0
LINE
8
BLACK
6
CONTINUOUS
10
158.927
20
-72.9777
11
156.478
21
-72.9777
0
LINE
8
BLACK
6
CONTINUOUS
10
158.927
20
-72.9777
11
158.927
21
-71.7053
0
LINE
8
BLACK
6
CONTINUOUS
10
158.927
20
-75.8733
11
156.478
21
-75.8733
0
LINE
8
BLACK
6
CONTINUOUS
10
158.927
20
-76.9133
11
158.927
21
-75.8733
0
LINE
8
BLACK
6
CONTINUOUS
10
163.895
20
-76.2133
11
163.895
21
-76.9133
0
LINE
8
BLACK
6
CONTINUOUS
10
163.895
20
-76.9133
11
158.927
21
-76.9133
0
LINE
8
BLACK
6
CONTINUOUS
10
163.927
20
-71.2053
11
163.927
21
-70.2053
0
LINE
8
BLACK
6
CONTINUOUS
10
164.427
20
-69.7053
11
163.927
21
-70.2053
0
LINE
8
BLACK
6
CONTINUOUS
10
167.935
20
-69.7053
11
164.427
21
-69.7053
0
LINE
8
BLACK
6
CONTINUOUS
10
167.935
20
-74.7133
11
165.419
21
-74.7133
0
LINE
8
BLACK
6
CONTINUOUS
10
168.435
20
-70.2053
11
167.935
21
-69.7053
0
LINE
8
BLACK
6
CONTINUOUS
10
168.435
20
-70.7425
11
168.435
21
-70.2053
0
LINE
8
BLACK
6
CONTINUOUS
10
168.435
20
-70.7425
11
170.884
21
-70.7425
0
LINE
8
BLACK
6
CONTINUOUS
10
168.435
20
-73.6381
11
170.884
21
-73.6381
0
LINE
8
BLACK
6
CONTINUOUS
10
168.435
20
-74.2133
11
167.935
21
-74.7133
0
LINE
8
BLACK
6
CONTINUOUS
10
168.435
20
-74.2133
11
168.435
21
-73.6381
0
LINE
8
BLACK
6
CONTINUOUS
10
170.884
20
-70.7425
11
170.884
21
-73.6381
0
ARC
8
BLACK
10
165.338
20
-76.1549
40
1.44391
50
-273.227
51
-177.683
0
ARC
8
BLACK
10
163.427
20
-71.2053
40
0.500001
50
-89.9999
51
-0.000114591
0
CIRCLE
8
BLACK
10
160.711
20
-78.1847
40
0.855
0
CIRCLE
8
BLACK
10
166.211
20
-78.1847
40
1.75
0
CIRCLE
8
BLACK
10
171.711
20
-78.1847
40
0.855
0
LINE
8
BLACK
6
CONTINUOUS
10
63.7401
20
-87.7635
11
63.7401
21
-84.8679
0
LINE
8
BLACK
6
CONTINUOUS
10
66.1889
20
-83.5955
11
70.6889
21
-83.5955
0
LINE
8
BLACK
6
CONTINUOUS
10
66.1889
20
-84.8679
11
63.7401
21
-84.8679
0
LINE
8
BLACK
6
CONTINUOUS
10
66.1889
20
-84.8679
11
66.1889
21
-83.5955
0
LINE
8
BLACK
6
CONTINUOUS
10
66.1889
20
-87.7635
11
63.7401
21
-87.7635
0
LINE
8
BLACK
6
CONTINUOUS
10
66.1889
20
-88.8035
11
66.1889
21
-87.7635
0
LINE
8
BLACK
6
CONTINUOUS
10
71.1569
20
-88.1035
11
71.1569
21
-88.8035
0
LINE
8
BLACK
6
CONTINUOUS
10
71.1569
20
-88.8035
11
66.1889
21
-88.8035
0
LINE
8
BLACK
6
CONTINUOUS
10
71.1889
20
-83.0955
11
71.1889
21
-82.0955
0
LINE
8
BLACK
6
CONTINUOUS
10
71.6889
20
-81.5955
11
71.1889
21
-82.0955
0
LINE
8
BLACK
6
CONTINUOUS
10
75.1969
20
-81.5955
11
71.6889
21
-81.5955
0
LINE
8
BLACK
6
CONTINUOUS
10
75.1969
20
-86.6035
11
72.6809
21
-86.6035
0
LINE
8
BLACK
6
CONTINUOUS
10
75.6969
20
-82.0955
11
75.1969
21
-81.5955
0
LINE
8
BLACK
6
CONTINUOUS
10
75.6969
20
-82.6327
11
75.6969
21
-82.0955
0
LINE
8
BLACK
6
CONTINUOUS
10
75.6969
20
-82.6327
11
78.1457
21
-82.6327
0
LINE
8
BLACK
6
CONTINUOUS
10
75.6969
20
-85.5283
11
78.1457
21
-85.5283
0
LINE
8
BLACK
6
CONTINUOUS
10
75.6969
20
-86.1035
11
75.1969
21
-86.6035
0
LINE
8
BLACK
6
CONTINUOUS
10
75.6969
20
-86.1035
11
75.6969
21
-85.5283
0
LINE
8
BLACK
6
CONTINUOUS
10
78.1457
20
-82.6327
11
78.1457
21
-85.5283
0
ARC
8
BLACK
10
72.5996
20
-88.0451
40
1.44391
50
-273.227
51
-177.683
0
ARC
8
BLACK
10
70.6889
20
-83.0955
40
0.500001
50
-89.9999
51
-0.000114591
0
CIRCLE
8
BLACK
10
67.9735
20
-90.0749
40
0.855
0
CIRCLE
8
BLACK
10
73.4735
20
-90.0749
40
1.75
0
CIRCLE
8
BLACK
10
78.9735
20
-90.0749
40
0.855
0
LINE
8
BLACK
6
CONTINUOUS
10
27.1401
20
-112.656
11
26.8878
21
-109.772
0
LINE
8
BLACK
6
CONTINUOUS
10
29.2163
20
-108.291
11
33.6992
21
-107.899
0
LINE
8
BLACK
6
CONTINUOUS
10
29.3272
20
-109.558
11
26.8878
21
-109.772
0
LINE
8
BLACK
6
CONTINUOUS
10
29.3272
20
-109.558
11
29.2163
21
-108.291
0
LINE
8
BLACK
6
CONTINUOUS
10
29.5796
20
-112.443
11
27.1401
21
-112.656
0
LINE
8
BLACK
6
CONTINUOUS
10
29.6703
20
-113.479
11
29.5796
21
-112.443
0
LINE
8
BLACK
6
CONTINUOUS
10
34.5583
20
-112.349
11
34.6193
21
-113.046
0
LINE
8
BLACK
6
CONTINUOUS
10
34.6193
20
-113.046
11
29.6703
21
-113.479
0
LINE
8
BLACK
6
CONTINUOUS
10
34.1537
20
-107.357
11
34.0666
21
-106.361
0
LINE
8
BLACK
6
CONTINUOUS
10
34.5211
20
-105.819
11
34.0666
21
-106.361
0
LINE
8
BLACK
6
CONTINUOUS
10
38.0158
20
-105.513
11
34.5211
21
-105.819
0
LINE
8
BLACK
6
CONTINUOUS
10
38.4522
20
-110.502
11
35.9458
21
-110.722
0
LINE
8
BLACK
6
CONTINUOUS
10
38.5574
20
-105.968
11
38.0158
21
-105.513
0
LINE
8
BLACK
6
CONTINUOUS
10
38.6043
20
-106.503
11
38.5574
21
-105.968
0
LINE
8
BLACK
6
CONTINUOUS
10
38.6043
20
-106.503
11
41.0437
21
-106.29
0
LINE
8
BLACK
6
CONTINUOUS
10
38.8566
20
-109.388
11
41.2961
21
-109.174
0
LINE
8
BLACK
6
CONTINUOUS
10
38.9068
20
-109.961
11
38.4522
21
-110.502
0
LINE
8
BLACK
6
CONTINUOUS
10
38.9068
20
-109.961
11
38.8566
21
-109.388
0
LINE
8
BLACK
6
CONTINUOUS
10
41.0437
20
-106.29
11
41.2961
21
-109.174
0
ARC
8
BLACK
10
35.9905
20
-112.165
40
1.44391
50
-268.227
51
-172.683
0
ARC
8
BLACK
10
33.6556
20
-107.401
40
0.500001
50
-84.9999
51
4.99988
0
CIRCLE
8
BLACK
10
31.5589
20
-114.59
40
0.855
0
CIRCLE
8
BLACK
10
37.0379
20
-114.111
40
1.75
0
CIRCLE
8
BLACK
10
42.517
20
-113.631
40
0.855001
  0
ENDSEC
  0
EOF
