  0
SECTION
  2
HEADER
  9
$ANGBASE
  50
0.0
  9
$ANGDIR
  70
1
  9
$MEASUREMENT
  70
1
  0
ENDSEC
  0
SECTION
  2
TABLES
  0
TABLE
  2
LTYPE
  70
4
  0
LTYPE
  5
40F
  2
CONTINUOUS
  70
0
  3
Solid line
  72
65
  73
0
  40
0.0
  0
LTYPE
  5
410
  2
DASHDOT
 70
0
  3
Dash Dot ____ _ ____ _
 72
65
 73
4
 40
2.0
 49
1.25
 49
-0.25
 49
0.25
 49
-0.25
  0
LTYPE
  5
411
  2
DASHED
 70
0
  3
Dashed __ __ __ __ __
 72
65
 73
2
 40
0.75
 49
0.5
 49
-0.25
  0
LTYPE
  5
43B
  2
DOTTED
 70
0
  3
Dotted .  .  .  .
 72
65
 73
2
 40
0.2
 49
0.0
 49
-0.2
  0
ENDTAB
  0
TABLE
  2
STYLE
  70
4
  0
STYLE
  2
KICAD
  70
0
  40
0
  41
1
  42
1
  50
0
  71
0
  3
isocp.shx
  0
STYLE
  2
KICADB
  70
0
  40
0
  41
1
  42
1
  50
0
  71
0
  3
isocp.shx
  0
STYLE
  2
KICADI
  70
0
  40
0
  41
1
  42
1
  50
15
  71
0
  3
isocp.shx
  0
STYLE
  2
KICADBI
  70
0
  40
0
  41
1
  42
1
  50
15
  71
0
  3
isocp.shx
  0
ENDTAB
  0
TABLE
  2
LAYER
  70
1
  0
LAYER
  2
BLACK
  70
0
  62
7
  6
CONTINUOUS
  0
ENDTAB
  0
ENDSEC
  0
SECTION
  2
ENTITIES
0
ARC
8
BLACK
10
248.398399999999981
20
-89.1037999999999926
40
2.499867151873675
50
-169.00305491
51
-78.99657101
0
ARC
8
BLACK
10
131.5795999999999992
20
-116.7259999999999991
40
0.499980861765728
50
89.99759358
51
152.49889792
0
LINE
8
BLACK
6
CONTINUOUS
10
241.1555349999999862
20
-27.3315400000000004
11
199.9740369999999814
21
-36.4612580000000008
0
ARC
8
BLACK
10
77.8819999999999908
20
-111.9077999999999946
40
2.9999422539435652
50
-207.50111992
51
-117.49881198
0
LINE
8
BLACK
6
CONTINUOUS
10
230.9862569999999948
20
-90.868124999999992
11
231.0081209999999885
21
-90.9667479999999955
0
CIRCLE
8
BLACK
10
137.9999609999999848
20
-64.2419149999999917
40
2.1499999999999999
0
ARC
8
BLACK
10
69.4043999999999954
20
-90.954899999999995
40
0.4001784505367574
50
77.52545444
51
167.47645682
0
LINE
8
BLACK
6
CONTINUOUS
10
28.0818009999999987
20
-84.0225200000000001
11
38.7136649999999989
21
-29.3263219999999976
0
ARC
8
BLACK
10
51.6014999999999944
20
-89.1036999999999892
40
2.4999670944804451
50
-101.00074179
51
-10.99875768
0
CIRCLE
8
BLACK
10
249.9269999999999925
20
-30.9227999999999987
40
0.75
0
CIRCLE
8
BLACK
10
165.0000039999999899
20
-79.3262399999999985
40
3.1499999999999999
0
CIRCLE
8
BLACK
10
42.0293899999999994
20
-30.4319109999999995
40
3.1499999999999999
0
LINE
8
BLACK
6
CONTINUOUS
10
121.6605969999999957
20
-134.6974280000000022
11
131.136115999999987
21
-116.4951259999999991
0
ARC
8
BLACK
10
222.117999999999995
20
-111.9077999999999946
40
2.999937516826142
50
-62.50118802
51
27.50111992
0
LINE
8
BLACK
6
CONTINUOUS
10
150.
20
-116.2259999999999991
11
131.5796210000000031
21
-116.2259999999999991
0
LINE
8
BLACK
6
CONTINUOUS
10
161.3003999999999962
20
-49.6696029999999951
11
158.425943999999987
21
-60.3972099999999941
0
CIRCLE
8
BLACK
10
137.5014769999999942
20
-57.3489999999999966
40
0.75
0
ARC
8
BLACK
10
220.1899999999999977
20
-95.211199999999991
40
2.9995383577304024
50
-165.00155487
51
-152.49962695
0
CIRCLE
8
BLACK
10
224.1459999999999866
20
-50.9887999999999977
40
0.75
0
CIRCLE
8
BLACK
10
36.1039540000000017
20
-57.7197999999999993
40
0.75
0
ARC
8
BLACK
10
100.7121999999999957
20
-37.5238999999999976
40
0.3999888594673606
50
-192.50138380
51
-104.99588709
0
CIRCLE
8
BLACK
10
162.4994769999999846
20
-111.3489999999999895
40
0.75
0
LINE
8
BLACK
6
CONTINUOUS
10
82.7073599999999942
20
-95.9874609999999961
11
83.2298169999999971
21
-94.0376249999999914
0
LINE
8
BLACK
6
CONTINUOUS
10
136.5782800000000066
20
-47.5482839999999953
11
100.6087029999999913
21
-37.9102669999999975
0
LINE
8
BLACK
6
CONTINUOUS
10
233.1550439999999753
20
-92.3344909999999999
11
245.9292629999999917
21
-89.5025150000000025
0
CIRCLE
8
BLACK
10
263.8969999999999914
20
-57.7197999999999993
40
0.75
0
CIRCLE
8
BLACK
10
257.9706099999999651
20
-30.4319109999999995
40
3.1499999999999999
0
CIRCLE
8
BLACK
10
164.5575999999999794
20
-50.8352000000000004
40
3.1499999999999999
0
CIRCLE
8
BLACK
10
110.652953999999994
20
-129.7288000000000068
40
0.75
0
CIRCLE
8
BLACK
10
201.1589999999999918
20
-39.9397999999999982
40
0.75
0
CIRCLE
8
BLACK
10
42.7079540000000009
20
-87.1837999999999909
40
0.75
0
ARC
8
BLACK
10
232.7653999999999996
20
-90.5772999999999939
40
1.7998729558546624
50
-167.50408286
51
-77.49738523
0
CIRCLE
8
BLACK
10
135.4344059999999956
20
-50.8489979999999946
40
3.1499999999999999
0
LINE
8
BLACK
6
CONTINUOUS
10
224.7789499999999805
20
-110.5225310000000007
11
217.5293859999999881
21
-96.5962499999999977
0
CIRCLE
8
BLACK
10
171.4999329999999986
20
-104.0490020000000015
40
2.1999999999999997
0
LINE
8
BLACK
6
CONTINUOUS
10
245.9292629999999917
20
-89.5025150000000025
11
245.944453999999979
21
-89.5806630000000013
0
ARC
8
BLACK
10
41.6586099999999959
20
-29.8988399999999999
40
3.0000796511674483
50
79.00151407
51
168.99852496
0
CIRCLE
8
BLACK
10
128.4999359999999911
20
-111.0490009999999899
40
2.1999999999999997
0
CIRCLE
8
BLACK
10
189.3479999999999848
20
-129.7288000000000068
40
0.75
0
ARC
8
BLACK
10
99.9175999999999931
20
-36.9495000000000005
40
0.5001227752592357
50
-12.48621053
51
77.48631491
0
LINE
8
BLACK
6
CONTINUOUS
10
244.2079689999999914
20
-29.5898699999999977
11
244.150700999999998
21
-29.2952549999999974
0
CIRCLE
8
BLACK
10
116.9330009999999902
20
-66.477800000000002
40
1.
0
CIRCLE
8
BLACK
10
205.4770000000000039
20
-98.2327999999999975
40
0.75
0
LINE
8
BLACK
6
CONTINUOUS
10
199.6782879999999807
20
-37.4373209999999972
11
199.5941100000000006
21
-37.0576280000000011
0
LINE
8
BLACK
6
CONTINUOUS
10
141.5740559999999846
20
-60.3972099999999941
11
138.6996000000000038
21
-49.6696029999999951
0
CIRCLE
8
BLACK
10
257.2930000000000064
20
-87.1837999999999909
40
0.75
0
LINE
8
BLACK
6
CONTINUOUS
10
182.3856820000000027
20
-135.9732139999999845
11
223.5031639999999982
21
-114.5688099999999991
0
CIRCLE
8
BLACK
10
106.4619539999999915
20
-79.0557999999999907
40
0.75
0
LINE
8
BLACK
6
CONTINUOUS
10
54.0707369999999941
20
-89.5025150000000025
11
66.8449559999999963
21
-92.3344909999999999
0
CIRCLE
8
BLACK
10
137.5014769999999942
20
-111.3489999999999895
40
0.75
0
LINE
8
BLACK
6
CONTINUOUS
10
216.7701830000000029
20
-94.0376249999999914
11
217.2926399999999774
21
-95.9874609999999961
0
LINE
8
BLACK
6
CONTINUOUS
10
261.2863350000000082
20
-29.3263219999999976
11
271.9181990000000155
21
-84.0225200000000001
0
ARC
8
BLACK
10
241.6964999999999861
20
-29.7724999999999973
40
2.5001857636633722
50
11.00442380
51
102.49591006
0
LINE
8
BLACK
6
CONTINUOUS
10
257.7690259999999967
20
-26.9538669999999989
11
244.2079689999999914
21
-29.5898699999999977
0
CIRCLE
8
BLACK
10
162.4994769999999846
20
-57.3489999999999966
40
0.75
0
CIRCLE
8
BLACK
10
268.4851879999999937
20
-84.2297539999999998
40
3.1499999999999999
0
ARC
8
BLACK
10
181.0003999999999849
20
-133.3122999999999934
40
2.9999115878505487
50
-152.50168327
51
-62.49834235
0
ARC
8
BLACK
10
217.1564999999999941
20
-93.9341000000000008
40
0.3999478092376554
50
-257.50736196
51
-164.99838489
0
CIRCLE
8
BLACK
10
161.9999609999999848
20
-64.2152969999999925
40
2.1499999999999999
0
ARC
8
BLACK
10
67.234499999999997
20
-90.5771999999999906
40
1.8000357201858523
50
-102.49881796
51
-12.49833606
0
ARC
8
BLACK
10
118.9996000000000009
20
-133.31219999999999
40
2.9999602740691413
50
-117.50077572
51
-27.50001085
0
ARC
8
BLACK
10
79.8106999999999971
20
-95.2113999999999976
40
2.9988180723946889
50
-27.50315922
51
-14.99821525
0
LINE
8
BLACK
6
CONTINUOUS
10
55.8492989999999949
20
-29.2952549999999974
11
55.7920309999999944
21
-29.5898699999999977
0
ARC
8
BLACK
10
58.3033000000000001
20
-29.772199999999998
40
2.4999194869087282
50
77.49812706
51
169.00145051
0
CIRCLE
8
BLACK
10
50.0739540000000005
20
-30.9227999999999987
40
0.75
0
ARC
8
BLACK
10
31.0265999999999984
20
-84.5949999999999989
40
2.9999325815052909
50
-191.00129475
51
-100.99863567
0
CIRCLE
8
BLACK
10
135.0000039999999899
20
-79.3262399999999985
40
3.1499999999999999
0
ARC
8
BLACK
10
230.595799999999997
20
-90.9545999999999992
40
0.3999154382716426
50
12.48779850
51
102.51180718
0
ARC
8
BLACK
10
258.3413999999999646
20
-29.8987999999999978
40
3.0000403947888765
50
11.00076160
51
100.99881916
0
ARC
8
BLACK
10
135.8017999999999859
20
-50.4460999999999942
40
3.0000431263993521
50
15.00062409
51
74.99976861
0
CIRCLE
8
BLACK
10
31.5148119999999992
20
-84.2297539999999998
40
3.1499999999999999
0
LINE
8
BLACK
6
CONTINUOUS
10
100.4058899999999994
20
-37.0576280000000011
11
100.3217119999999909
21
-37.4373209999999972
0
CIRCLE
8
BLACK
10
193.5389999999999873
20
-79.0557999999999907
40
0.75
0
LINE
8
BLACK
6
CONTINUOUS
10
68.9918789999999973
20
-90.9667479999999955
11
69.013742999999991
21
-90.868124999999992
0
LINE
8
BLACK
6
CONTINUOUS
10
55.7920309999999944
20
-29.5898699999999977
11
42.2309739999999962
21
-26.9538669999999989
0
ARC
8
BLACK
10
157.9429999999999836
20
-60.267799999999994
40
0.4999818549067556
50
-90.00206265
51
-15.00061380
0
LINE
8
BLACK
6
CONTINUOUS
10
76.4968360000000018
20
-114.5688099999999991
11
117.6143179999999973
21
-135.9732139999999845
0
CIRCLE
8
BLACK
10
98.8419540000000012
20
-39.9397999999999982
40
0.75
0
LINE
8
BLACK
6
CONTINUOUS
10
54.0555459999999997
20
-89.5806630000000013
11
54.0707369999999941
21
-89.5025150000000025
0
CIRCLE
8
BLACK
10
181.1983050000000048
20
-132.7175029999999936
40
3.1499999999999999
0
ARC
8
BLACK
10
168.4204000000000008
20
-116.7258999999999958
40
0.4999000004410882
50
27.49093646
51
90.00240690
0
ARC
8
BLACK
10
200.0822000000000003
20
-36.9493999999999971
40
0.4999451450749372
50
-257.50620662
51
-167.49764453
0
LINE
8
BLACK
6
CONTINUOUS
10
157.9429820000000007
20
-60.767799999999994
11
150.
21
-60.767799999999994
0
ARC
8
BLACK
10
164.1981999999999857
20
-50.4460999999999942
40
3.0000320716634015
50
105.00023139
51
164.99937591
0
CIRCLE
8
BLACK
10
118.8016949999999952
20
-132.7175029999999936
40
3.1499999999999999
0
LINE
8
BLACK
6
CONTINUOUS
10
178.3394030000000043
20
-134.6974280000000022
11
168.8638839999999846
21
-116.4951259999999991
0
LINE
8
BLACK
6
CONTINUOUS
10
199.3912969999999802
20
-37.9102669999999975
11
163.4217199999999934
21
-47.5482839999999953
0
ARC
8
BLACK
10
268.9733999999999696
20
-84.5949999999999989
40
2.9999290826286211
50
-79.00136433
51
11.00129475
0
CIRCLE
8
BLACK
10
94.5239539999999892
20
-98.2327999999999975
40
0.75
0
ARC
8
BLACK
10
82.8434999999999917
20
-93.9339999999999975
40
0.3998946619548703
50
-15.01545178
51
77.50426267
0
LINE
8
BLACK
6
CONTINUOUS
10
69.4908379999999966
20
-90.5641820000000024
11
82.9300240000000031
21
-93.5435779999999966
0
LINE
8
BLACK
6
CONTINUOUS
10
150.
20
-60.767799999999994
11
142.0570179999999993
21
-60.767799999999994
0
LINE
8
BLACK
6
CONTINUOUS
10
30.4542559999999973
20
-87.5398289999999974
11
51.124455999999995
21
-91.5577090000000027
0
LINE
8
BLACK
6
CONTINUOUS
10
82.4706139999999976
20
-96.5962499999999977
11
75.2210499999999911
21
-110.5225310000000007
0
LINE
8
BLACK
6
CONTINUOUS
10
217.0699759999999969
20
-93.5435779999999966
11
230.5091620000000034
21
-90.5641820000000024
0
LINE
8
BLACK
6
CONTINUOUS
10
100.0259629999999902
20
-36.4612580000000008
11
58.8444649999999996
21
-27.3315400000000004
0
CIRCLE
8
BLACK
10
75.8549539999999922
20
-50.9887999999999977
40
0.75
0
LINE
8
BLACK
6
CONTINUOUS
10
248.8755439999999908
20
-91.5577090000000027
11
269.5457440000000133
21
-87.5398289999999974
0
ARC
8
BLACK
10
142.0569999999999879
20
-60.267799999999994
40
0.500000000324
50
-164.99938620
51
-89.99793735
0
LINE
8
BLACK
6
CONTINUOUS
10
150.
20
-116.2259999999999991
11
168.4203789999999969
21
-116.2259999999999991
0
ARC
8
BLACK
10
199.2878000000000043
20
-37.5238999999999976
40
0.3999710006800493
50
-75.00411291
51
12.50138380
0
CIRCLE
8
BLACK
10
138.0001239999999996
20
-90.1623340000000013
40
2.1499999999999999
0
CIRCLE
8
BLACK
10
128.2500660000000039
20
-48.8155179999999973
40
2.1499999999999999
0
CIRCLE
8
BLACK
10
120.2490659999999991
20
-110.4105179999999962
40
2.1499999999999999
0
CIRCLE
8
BLACK
10
161.9999609999999848
20
-90.1356219999999979
40
2.1499999999999999
0
CIRCLE
8
BLACK
10
179.7509340000000009
20
-110.4105179999999962
40
2.1499999999999999
0
CIRCLE
8
BLACK
10
49.8381669999999986
20
-87.7508569999999963
40
2.1499999999999999
0
CIRCLE
8
BLACK
10
171.7499339999999961
20
-48.8155179999999973
40
2.1499999999999999
0
CIRCLE
8
BLACK
10
250.1618330000000014
20
-87.7508569999999963
40
2.1499999999999999
0
CIRCLE
8
BLACK
10
59.5259280000000004
20
-31.2929469999999981
40
2.1499999999999999
0
CIRCLE
8
BLACK
10
240.4740719999999783
20
-31.2929469999999981
40
2.1499999999999999
  0
ENDSEC
  0
EOF
