  0
SECTION
  2
HEADER
  9
$ANGBASE
  50
0.0
  9
$ANGDIR
  70
1
  9
$MEASUREMENT
  70
1
  0
ENDSEC
  0
SECTION
  2
TABLES
  0
TABLE
  2
LTYPE
  70
4
  0
LTYPE
  5
40F
  2
CONTINUOUS
  70
0
  3
Solid line
  72
65
  73
0
  40
0.0
  0
LTYPE
  5
410
  2
DASHDOT
 70
0
  3
Dash Dot ____ _ ____ _
 72
65
 73
4
 40
2.0
 49
1.25
 49
-0.25
 49
0.25
 49
-0.25
  0
LTYPE
  5
411
  2
DASHED
 70
0
  3
Dashed __ __ __ __ __
 72
65
 73
2
 40
0.75
 49
0.5
 49
-0.25
  0
LTYPE
  5
43B
  2
DOTTED
 70
0
  3
Dotted .  .  .  .
 72
65
 73
2
 40
0.2
 49
0.0
 49
-0.2
  0
ENDTAB
  0
TABLE
  2
STYLE
  70
4
  0
STYLE
  2
KICAD
  70
0
  40
0
  41
1
  42
1
  50
0
  71
0
  3
isocp.shx
  0
STYLE
  2
KICADB
  70
0
  40
0
  41
1
  42
1
  50
0
  71
0
  3
isocp.shx
  0
STYLE
  2
KICADI
  70
0
  40
0
  41
1
  42
1
  50
15
  71
0
  3
isocp.shx
  0
STYLE
  2
KICADBI
  70
0
  40
0
  41
1
  42
1
  50
15
  71
0
  3
isocp.shx
  0
ENDTAB
  0
TABLE
  2
LAYER
  70
1
  0
LAYER
  2
BLACK
  70
0
  62
7
  6
CONTINUOUS
  0
ENDTAB
  0
ENDSEC
  0
SECTION
  2
ENTITIES
0
ARC
8
BLACK
10
142.9106999999999914
20
-63.8399999999999963
40
0.400000002
50
-165.00145475
51
-90.00572958
0
ARC
8
BLACK
10
144.5235999999999876
20
-64.7399999999999949
40
0.5
50
0.00000000
51
90.00000000
0
LINE
8
BLACK
6
CONTINUOUS
10
145.5235999999999876
20
-71.1617999999999995
11
150.
21
-71.1617999999999995
0
LINE
8
BLACK
6
CONTINUOUS
10
145.0235999999999876
20
-64.7399999999999949
11
145.0235999999999876
21
-70.6617999999999995
0
LINE
8
BLACK
6
CONTINUOUS
10
142.9106600000000071
20
-64.2399999999999949
11
144.5235999999999876
21
-64.2399999999999949
0
LINE
8
BLACK
6
CONTINUOUS
10
142.5242889999999818
20
-63.9435280000000006
11
138.6996000000000038
21
-49.6696029999999951
0
ARC
8
BLACK
10
145.5235999999999876
20
-70.6617999999999995
40
0.5
50
-180.00000000
51
-90.00000000
0
ARC
8
BLACK
10
157.0892999999999802
20
-63.8399999999999963
40
0.4000393826925044
50
-89.99427042
51
-14.99854525
0
LINE
8
BLACK
6
CONTINUOUS
10
155.4763999999999839
20
-64.2399999999999949
11
157.0893399999999929
21
-64.2399999999999949
0
ARC
8
BLACK
10
248.398399999999981
20
-89.1037999999999926
40
2.499867151873675
50
-169.00305491
51
-78.99657101
0
ARC
8
BLACK
10
131.5795999999999992
20
-116.7259999999999991
40
0.499980861765728
50
89.99759358
51
152.49889792
0
LINE
8
BLACK
6
CONTINUOUS
10
241.1555349999999862
20
-27.3315400000000004
11
199.9740369999999814
21
-36.4612580000000008
0
ARC
8
BLACK
10
77.8819999999999908
20
-111.9077999999999946
40
2.9999422539435652
50
-207.50111992
51
-117.49881198
0
LINE
8
BLACK
6
CONTINUOUS
10
230.9862569999999948
20
-90.868124999999992
11
231.0081209999999885
21
-90.9667479999999955
0
CIRCLE
8
BLACK
10
137.9999609999999848
20
-64.2419149999999917
40
1.0999999999999999
0
ARC
8
BLACK
10
69.4043999999999954
20
-90.954899999999995
40
0.4001784505367574
50
77.52545444
51
167.47645682
0
LINE
8
BLACK
6
CONTINUOUS
10
28.0818009999999987
20
-84.0225200000000001
11
38.7136649999999989
21
-29.3263219999999976
0
ARC
8
BLACK
10
51.6014999999999944
20
-89.1036999999999892
40
2.4999670944804451
50
-101.00074179
51
-10.99875768
0
LINE
8
BLACK
6
CONTINUOUS
10
161.3003999999999962
20
-49.6696029999999951
11
157.4757109999999898
21
-63.9435280000000006
0
CIRCLE
8
BLACK
10
249.9269999999999925
20
-30.9227999999999987
40
0.75
0
LINE
8
BLACK
6
CONTINUOUS
10
112.6830009999999902
20
-63.4777989999999974
11
121.1830009999999902
21
-63.4778009999999995
0
LINE
8
BLACK
6
CONTINUOUS
10
121.6605969999999957
20
-134.6974280000000022
11
131.136115999999987
21
-116.4951259999999991
0
ARC
8
BLACK
10
222.117999999999995
20
-111.9077999999999946
40
2.999937516826142
50
-62.50118802
51
27.50111992
0
LINE
8
BLACK
6
CONTINUOUS
10
150.
20
-116.2259999999999991
11
131.5796210000000031
21
-116.2259999999999991
0
CIRCLE
8
BLACK
10
137.5014769999999942
20
-57.3489999999999966
40
0.75
0
ARC
8
BLACK
10
220.1899999999999977
20
-95.211199999999991
40
2.9995383577304024
50
-165.00155487
51
-152.49962695
0
CIRCLE
8
BLACK
10
224.1459999999999866
20
-50.9887999999999977
40
0.75
0
CIRCLE
8
BLACK
10
36.1039540000000017
20
-57.7197999999999993
40
0.75
0
ARC
8
BLACK
10
100.7121999999999957
20
-37.5238999999999976
40
0.3999888594673606
50
-192.50138380
51
-104.99588709
0
CIRCLE
8
BLACK
10
162.4994769999999846
20
-111.3489999999999895
40
0.75
0
LINE
8
BLACK
6
CONTINUOUS
10
82.7073599999999942
20
-95.9874609999999961
11
83.2298169999999971
21
-94.0376249999999914
0
LINE
8
BLACK
6
CONTINUOUS
10
136.5782800000000066
20
-47.5482839999999953
11
100.6087029999999913
21
-37.9102669999999975
0
LINE
8
BLACK
6
CONTINUOUS
10
233.1550439999999753
20
-92.3344909999999999
11
245.9292629999999917
21
-89.5025150000000025
0
CIRCLE
8
BLACK
10
263.8969999999999914
20
-57.7197999999999993
40
0.75
0
CIRCLE
8
BLACK
10
110.652953999999994
20
-129.7288000000000068
40
0.75
0
CIRCLE
8
BLACK
10
201.1589999999999918
20
-39.9397999999999982
40
0.75
0
CIRCLE
8
BLACK
10
42.7079540000000009
20
-87.1837999999999909
40
0.75
0
ARC
8
BLACK
10
232.7653999999999996
20
-90.5772999999999939
40
1.7998729558546624
50
-167.50408286
51
-77.49738523
0
LINE
8
BLACK
6
CONTINUOUS
10
224.7789499999999805
20
-110.5225310000000007
11
217.5293859999999881
21
-96.5962499999999977
0
ARC
8
BLACK
10
154.4763999999999839
20
-70.6617999999999995
40
0.5
50
-90.00000000
51
-0.00000000
0
CIRCLE
8
BLACK
10
171.4999329999999986
20
-104.0490020000000015
40
2.1999999999999997
0
LINE
8
BLACK
6
CONTINUOUS
10
245.9292629999999917
20
-89.5025150000000025
11
245.944453999999979
21
-89.5806630000000013
0
ARC
8
BLACK
10
41.6586099999999959
20
-29.8988399999999999
40
3.0000796511674483
50
79.00151407
51
168.99852496
0
ARC
8
BLACK
10
112.6829999999999927
20
-63.9777999999999949
40
0.499999000001
50
89.99988541
51
179.99988541
0
CIRCLE
8
BLACK
10
128.4999359999999911
20
-111.0490009999999899
40
2.1999999999999997
0
CIRCLE
8
BLACK
10
189.3479999999999848
20
-129.7288000000000068
40
0.75
0
ARC
8
BLACK
10
99.9175999999999931
20
-36.9495000000000005
40
0.5001227752592357
50
-12.48621053
51
77.48631491
0
LINE
8
BLACK
6
CONTINUOUS
10
244.2079689999999914
20
-29.5898699999999977
11
244.150700999999998
21
-29.2952549999999974
0
CIRCLE
8
BLACK
10
205.4770000000000039
20
-98.2327999999999975
40
0.75
0
LINE
8
BLACK
6
CONTINUOUS
10
199.6782879999999807
20
-37.4373209999999972
11
199.5941100000000006
21
-37.0576280000000011
0
LINE
8
BLACK
6
CONTINUOUS
10
154.9763999999999839
20
-70.6617999999999995
11
154.9763999999999839
21
-64.7399999999999949
0
CIRCLE
8
BLACK
10
257.2930000000000064
20
-87.1837999999999909
40
0.75
0
LINE
8
BLACK
6
CONTINUOUS
10
182.3856820000000027
20
-135.9732139999999845
11
223.5031639999999982
21
-114.5688099999999991
0
CIRCLE
8
BLACK
10
106.4619539999999915
20
-79.0557999999999907
40
0.75
0
LINE
8
BLACK
6
CONTINUOUS
10
54.0707369999999941
20
-89.5025150000000025
11
66.8449559999999963
21
-92.3344909999999999
0
CIRCLE
8
BLACK
10
137.5014769999999942
20
-111.3489999999999895
40
0.75
0
LINE
8
BLACK
6
CONTINUOUS
10
216.7701830000000029
20
-94.0376249999999914
11
217.2926399999999774
21
-95.9874609999999961
0
LINE
8
BLACK
6
CONTINUOUS
10
261.2863350000000082
20
-29.3263219999999976
11
271.9181990000000155
21
-84.0225200000000001
0
ARC
8
BLACK
10
241.6964999999999861
20
-29.7724999999999973
40
2.5001857636633722
50
11.00442380
51
102.49591006
0
LINE
8
BLACK
6
CONTINUOUS
10
257.7690259999999967
20
-26.9538669999999989
11
244.2079689999999914
21
-29.5898699999999977
0
CIRCLE
8
BLACK
10
162.4994769999999846
20
-57.3489999999999966
40
0.75
0
ARC
8
BLACK
10
181.0003999999999849
20
-133.3122999999999934
40
2.9999115878505487
50
-152.50168327
51
-62.49834235
0
ARC
8
BLACK
10
217.1564999999999941
20
-93.9341000000000008
40
0.3999478092376554
50
-257.50736196
51
-164.99838489
0
CIRCLE
8
BLACK
10
161.9999609999999848
20
-64.2152969999999925
40
1.0999999999999999
0
ARC
8
BLACK
10
121.1829999999999927
20
-63.9777999999999949
40
0.499999000001
50
-0.00011459
51
89.99988541
0
ARC
8
BLACK
10
121.1829999999999927
20
-68.977800000000002
40
0.500001000001
50
-89.99988541
51
-0.00011459
0
LINE
8
BLACK
6
CONTINUOUS
10
121.6830009999999902
20
-63.9778009999999995
11
121.6830009999999902
21
-68.9778009999999995
0
ARC
8
BLACK
10
67.234499999999997
20
-90.5771999999999906
40
1.8000357201858523
50
-102.49881796
51
-12.49833606
0
ARC
8
BLACK
10
118.9996000000000009
20
-133.31219999999999
40
2.9999602740691413
50
-117.50077572
51
-27.50001085
0
ARC
8
BLACK
10
79.8106999999999971
20
-95.2113999999999976
40
2.9988180723946889
50
-27.50315922
51
-14.99821525
0
LINE
8
BLACK
6
CONTINUOUS
10
55.8492989999999949
20
-29.2952549999999974
11
55.7920309999999944
21
-29.5898699999999977
0
ARC
8
BLACK
10
58.3033000000000001
20
-29.772199999999998
40
2.4999194869087282
50
77.49812706
51
169.00145051
0
CIRCLE
8
BLACK
10
50.0739540000000005
20
-30.9227999999999987
40
0.75
0
ARC
8
BLACK
10
31.0265999999999984
20
-84.5949999999999989
40
2.9999325815052909
50
-191.00129475
51
-100.99863567
0
ARC
8
BLACK
10
230.595799999999997
20
-90.9545999999999992
40
0.3999154382716426
50
12.48779850
51
102.51180718
0
ARC
8
BLACK
10
258.3413999999999646
20
-29.8987999999999978
40
3.0000403947888765
50
11.00076160
51
100.99881916
0
ARC
8
BLACK
10
135.8017999999999859
20
-50.4460999999999942
40
3.0000431263993521
50
15.00062409
51
74.99976861
0
LINE
8
BLACK
6
CONTINUOUS
10
100.4058899999999994
20
-37.0576280000000011
11
100.3217119999999909
21
-37.4373209999999972
0
LINE
8
BLACK
6
CONTINUOUS
10
121.1830009999999902
20
-69.4778009999999995
11
112.6830009999999902
21
-69.4777989999999903
0
CIRCLE
8
BLACK
10
193.5389999999999873
20
-79.0557999999999907
40
0.75
0
LINE
8
BLACK
6
CONTINUOUS
10
68.9918789999999973
20
-90.9667479999999955
11
69.013742999999991
21
-90.868124999999992
0
LINE
8
BLACK
6
CONTINUOUS
10
55.7920309999999944
20
-29.5898699999999977
11
42.2309739999999962
21
-26.9538669999999989
0
LINE
8
BLACK
6
CONTINUOUS
10
76.4968360000000018
20
-114.5688099999999991
11
117.6143179999999973
21
-135.9732139999999845
0
CIRCLE
8
BLACK
10
98.8419540000000012
20
-39.9397999999999982
40
0.75
0
LINE
8
BLACK
6
CONTINUOUS
10
54.0555459999999997
20
-89.5806630000000013
11
54.0707369999999941
21
-89.5025150000000025
0
LINE
8
BLACK
6
CONTINUOUS
10
112.1830009999999902
20
-68.9777989999999903
11
112.1830009999999902
21
-63.9777989999999974
0
ARC
8
BLACK
10
168.4204000000000008
20
-116.7258999999999958
40
0.4999000004410882
50
27.49093646
51
90.00240690
0
LINE
8
BLACK
6
CONTINUOUS
10
150.
20
-71.1617999999999995
11
154.4763999999999839
21
-71.1617999999999995
0
ARC
8
BLACK
10
200.0822000000000003
20
-36.9493999999999971
40
0.4999451450749372
50
-257.50620662
51
-167.49764453
0
ARC
8
BLACK
10
164.1981999999999857
20
-50.4460999999999942
40
3.0000320716634015
50
105.00023139
51
164.99937591
0
LINE
8
BLACK
6
CONTINUOUS
10
178.3394030000000043
20
-134.6974280000000022
11
168.8638839999999846
21
-116.4951259999999991
0
LINE
8
BLACK
6
CONTINUOUS
10
199.3912969999999802
20
-37.9102669999999975
11
163.4217199999999934
21
-47.5482839999999953
0
ARC
8
BLACK
10
155.4763999999999839
20
-64.7399999999999949
40
0.5
50
90.00000000
51
180.00000000
0
ARC
8
BLACK
10
268.9733999999999696
20
-84.5949999999999989
40
2.9999290826286211
50
-79.00136433
51
11.00129475
0
CIRCLE
8
BLACK
10
94.5239539999999892
20
-98.2327999999999975
40
0.75
0
ARC
8
BLACK
10
112.6829999999999927
20
-68.977800000000002
40
0.499999000001
50
-180.00011459
51
-89.99988541
0
ARC
8
BLACK
10
82.8434999999999917
20
-93.9339999999999975
40
0.3998946619548703
50
-15.01545178
51
77.50426267
0
LINE
8
BLACK
6
CONTINUOUS
10
69.4908379999999966
20
-90.5641820000000024
11
82.9300240000000031
21
-93.5435779999999966
0
LINE
8
BLACK
6
CONTINUOUS
10
30.4542559999999973
20
-87.5398289999999974
11
51.124455999999995
21
-91.5577090000000027
0
LINE
8
BLACK
6
CONTINUOUS
10
82.4706139999999976
20
-96.5962499999999977
11
75.2210499999999911
21
-110.5225310000000007
0
LINE
8
BLACK
6
CONTINUOUS
10
217.0699759999999969
20
-93.5435779999999966
11
230.5091620000000034
21
-90.5641820000000024
0
LINE
8
BLACK
6
CONTINUOUS
10
100.0259629999999902
20
-36.4612580000000008
11
58.8444649999999996
21
-27.3315400000000004
0
CIRCLE
8
BLACK
10
75.8549539999999922
20
-50.9887999999999977
40
0.75
0
LINE
8
BLACK
6
CONTINUOUS
10
248.8755439999999908
20
-91.5577090000000027
11
269.5457440000000133
21
-87.5398289999999974
0
LINE
8
BLACK
6
CONTINUOUS
10
150.
20
-116.2259999999999991
11
168.4203789999999969
21
-116.2259999999999991
0
ARC
8
BLACK
10
199.2878000000000043
20
-37.5238999999999976
40
0.3999710006800493
50
-75.00411291
51
12.50138380
0
LINE
8
BLACK
6
CONTINUOUS
10
108.5523099999999914
20
-117.0951929999999948
11
110.2268189999999919
21
-117.9668869999999998
0
LINE
8
BLACK
6
CONTINUOUS
10
109.8072509999999937
20
-114.684474999999992
11
108.5523099999999914
21
-117.0951929999999948
0
LINE
8
BLACK
6
CONTINUOUS
10
109.8072509999999937
20
-114.684474999999992
11
111.4817589999999967
21
-115.556168999999997
0
LINE
8
BLACK
6
CONTINUOUS
10
110.0037949999999967
20
-118.3953119999999899
11
110.6498840000000001
21
-118.7316450000000003
0
LINE
8
BLACK
6
CONTINUOUS
10
110.2268189999999919
20
-117.9668869999999998
11
110.0037949999999967
21
-118.3953119999999899
0
LINE
8
BLACK
6
CONTINUOUS
10
111.6413909999999987
20
-119.2473409999999916
11
113.4134639999999905
21
-120.1702729999999946
0
LINE
8
BLACK
6
CONTINUOUS
10
112.1033649999999966
20
-114.3620749999999902
11
111.4817589999999967
21
-115.556168999999997
0
LINE
8
BLACK
6
CONTINUOUS
10
121.070723000000001
20
-122.0369129999999984
11
116.2861959999999897
21
-119.5462459999999965
0
LINE
8
BLACK
6
CONTINUOUS
10
121.070723000000001
20
-122.0369129999999984
11
121.6335019999999929
21
-120.9558239999999927
0
LINE
8
BLACK
6
CONTINUOUS
10
122.8884429999999952
20
-118.5451059999999899
11
123.1657269999999897
21
-118.012447999999992
0
LINE
8
BLACK
6
CONTINUOUS
10
123.1657269999999897
20
-118.012447999999992
11
114.6718889999999931
21
-113.5908349999999984
0
LINE
8
BLACK
6
CONTINUOUS
10
123.3080109999999934
20
-121.8275179999999978
11
121.6335019999999929
21
-120.9558239999999927
0
LINE
8
BLACK
6
CONTINUOUS
10
123.3080109999999934
20
-121.8275179999999978
11
124.5629519999999957
21
-119.416799999999995
0
LINE
8
BLACK
6
CONTINUOUS
10
124.5629519999999957
20
-119.416799999999995
11
122.8884429999999952
21
-118.5451059999999899
0
ARC
8
BLACK
10
110.8464779999999905
20
-119.5646729999999991
40
0.8559125398035713
50
-256.72120331
51
21.76205401
0
ARC
8
BLACK
10
113.7668379999999928
20
-115.239373999999998
40
1.880637114684808
50
61.23313142
51
152.19328461
0
ARC
8
BLACK
10
115.2164449999999931
20
-121.54598399999999
40
2.2678891599639517
50
61.85564311
51
142.65563538
0
CIRCLE
8
BLACK
10
115.3468060000000008
20
-121.920780999999991
40
2.
0
CIRCLE
8
BLACK
10
119.8528209999999916
20
-124.2664639999999991
40
0.85
0
LINE
8
BLACK
6
CONTINUOUS
10
246.2521589999999776
20
-56.4682339999999954
11
246.7707399999999893
21
-59.136099999999999
0
LINE
8
BLACK
6
CONTINUOUS
10
246.2521589999999776
20
-56.4682339999999954
11
248.1052859999999782
21
-56.1080229999999958
0
LINE
8
BLACK
6
CONTINUOUS
10
246.7707399999999893
20
-59.136099999999999
11
248.62386699999999
21
-58.7758889999999994
0
LINE
8
BLACK
6
CONTINUOUS
10
247.8484189999999785
20
-54.7865559999999974
11
248.1052859999999782
21
-56.1080229999999958
0
LINE
8
BLACK
6
CONTINUOUS
10
248.62386699999999
20
-58.7758889999999994
11
248.7160269999999969
21
-59.2500140000000002
0
LINE
8
BLACK
6
CONTINUOUS
10
248.7160269999999969
20
-59.2500140000000002
11
249.4310339999999826
21
-59.111030999999997
0
LINE
8
BLACK
6
CONTINUOUS
10
250.5280239999999878
20
-58.8973909999999989
11
252.4894009999999867
21
-58.5165439999999961
0
LINE
8
BLACK
6
CONTINUOUS
10
258.7783239999999978
20
-50.7568859999999944
11
249.3784579999999949
21
-52.5840339999999955
0
LINE
8
BLACK
6
CONTINUOUS
10
258.8929059999999822
20
-51.3463619999999992
11
258.7783239999999978
21
-50.7568859999999944
0
LINE
8
BLACK
6
CONTINUOUS
10
259.6440450000000055
20
-55.2106360000000009
11
254.349158999999986
21
-56.2398579999999981
0
LINE
8
BLACK
6
CONTINUOUS
10
259.6440450000000055
20
-55.2106360000000009
11
259.4114869999999655
21
-54.0142279999999957
0
LINE
8
BLACK
6
CONTINUOUS
10
260.7460330000000113
20
-50.986149999999995
11
258.8929059999999822
21
-51.3463619999999992
0
LINE
8
BLACK
6
CONTINUOUS
10
261.2646129999999971
20
-53.6540169999999961
11
259.4114869999999655
21
-54.0142279999999957
0
LINE
8
BLACK
6
CONTINUOUS
10
261.2646129999999971
20
-53.6540169999999961
11
260.7460330000000113
21
-50.986149999999995
0
ARC
8
BLACK
10
249.6964059999999961
20
-54.4376059999999953
40
1.8806440531554607
50
-260.26663205
51
-169.30690836
0
ARC
8
BLACK
10
250.1034619999999791
20
-59.6405829999999995
40
0.855913103479553
50
-218.22121830
51
60.26204342
0
ARC
8
BLACK
10
254.7568279999999845
20
-58.4708049999999986
40
2.2678882812982653
50
-259.64438993
51
-178.84437458
0
CIRCLE
8
BLACK
10
255.0921669999999892
20
-58.6829719999999995
40
2.
0
CIRCLE
8
BLACK
10
260.0788329999999746
20
-57.7136619999999994
40
0.85
0
LINE
8
BLACK
6
CONTINUOUS
10
194.3201439999999991
20
-86.5803980000000024
11
195.0235619999999983
21
-89.2055909999999983
0
LINE
8
BLACK
6
CONTINUOUS
10
194.3201439999999991
20
-86.5803980000000024
11
196.1436290000000042
21
-86.0917960000000022
0
LINE
8
BLACK
6
CONTINUOUS
10
195.0235619999999983
20
-89.2055909999999983
11
196.8470480000000009
21
-88.7169909999999931
0
LINE
8
BLACK
6
CONTINUOUS
10
195.7952070000000049
20
-84.7914669999999973
11
196.1436290000000042
21
-86.0917960000000022
0
LINE
8
BLACK
6
CONTINUOUS
10
196.8470480000000009
20
-88.7169909999999931
11
196.9720569999999782
21
-89.1835310000000021
0
LINE
8
BLACK
6
CONTINUOUS
10
196.9720569999999782
20
-89.1835310000000021
11
197.6756269999999915
21
-88.9950099999999935
0
LINE
8
BLACK
6
CONTINUOUS
10
198.7550420000000031
20
-88.7053679999999929
11
200.6850749999999834
21
-88.1886310000000009
0
LINE
8
BLACK
6
CONTINUOUS
10
206.4173909999999807
20
-80.0091809999999981
11
197.1678789999999992
21
-82.4875799999999941
0
LINE
8
BLACK
6
CONTINUOUS
10
206.5728149999999914
20
-80.5892279999999914
11
206.4173909999999807
21
-80.0091809999999981
0
LINE
8
BLACK
6
CONTINUOUS
10
207.5916819999999916
20
-84.3916929999999894
11
202.3814889999999878
21
-85.7877599999999916
0
LINE
8
BLACK
6
CONTINUOUS
10
207.5916819999999916
20
-84.3916929999999894
11
207.2762329999999906
21
-83.2144210000000015
0
LINE
8
BLACK
6
CONTINUOUS
10
208.3962999999999965
20
-80.1006270000000029
11
206.5728149999999914
21
-80.5892279999999914
0
LINE
8
BLACK
6
CONTINUOUS
10
209.0997179999999958
20
-82.7258199999999988
11
207.2762329999999906
21
-83.2144210000000015
0
LINE
8
BLACK
6
CONTINUOUS
10
209.0997179999999958
20
-82.7258199999999988
11
208.3962999999999965
21
-80.1006270000000029
0
ARC
8
BLACK
10
197.6143509999999992
20
-84.3144580000000019
40
1.8806441659221449
50
-256.26663724
51
-165.30691027
0
ARC
8
BLACK
10
198.3833569999999895
20
-89.4763659999999987
40
0.855913345630853
50
-214.22121554
51
64.26207614
0
ARC
8
BLACK
10
202.9437879999999836
20
-87.9848339999999922
40
2.2678883644434529
50
-255.64438224
51
-174.84433149
0
CIRCLE
8
BLACK
10
203.2931099999999844
20
-88.1730929999999944
40
2.
0
CIRCLE
8
BLACK
10
208.2000129999999842
20
-86.8582919999999916
40
0.85
0
LINE
8
BLACK
6
CONTINUOUS
10
167.7869209999999782
20
-57.3937249999999963
11
168.4903390000000059
21
-60.0189179999999993
0
LINE
8
BLACK
6
CONTINUOUS
10
167.7869209999999782
20
-57.3937249999999963
11
169.6104059999999834
21
-56.9051229999999961
0
LINE
8
BLACK
6
CONTINUOUS
10
168.4903390000000059
20
-60.0189179999999993
11
170.31382499999998
21
-59.5303179999999941
0
LINE
8
BLACK
6
CONTINUOUS
10
169.261983999999984
20
-55.6047939999999983
11
169.6104059999999834
21
-56.9051229999999961
0
LINE
8
BLACK
6
CONTINUOUS
10
170.31382499999998
20
-59.5303179999999941
11
170.4388339999999857
21
-59.996857999999996
0
LINE
8
BLACK
6
CONTINUOUS
10
170.4388339999999857
20
-59.996857999999996
11
171.1424039999999991
21
-59.8083369999999945
0
LINE
8
BLACK
6
CONTINUOUS
10
172.2218189999999822
20
-59.5186949999999939
11
174.151851999999991
21
-59.0019579999999948
0
LINE
8
BLACK
6
CONTINUOUS
10
179.8841679999999883
20
-50.8225079999999991
11
170.6346559999999783
21
-53.3009069999999952
0
LINE
8
BLACK
6
CONTINUOUS
10
180.039591999999999
20
-51.4025549999999996
11
179.8841679999999883
21
-50.8225079999999991
0
LINE
8
BLACK
6
CONTINUOUS
10
181.0584589999999992
20
-55.2050199999999975
11
175.8482659999999953
21
-56.6010869999999997
0
LINE
8
BLACK
6
CONTINUOUS
10
181.0584589999999992
20
-55.2050199999999975
11
180.7430099999999982
21
-54.0277479999999954
0
LINE
8
BLACK
6
CONTINUOUS
10
181.8630770000000041
20
-50.9139539999999968
11
180.039591999999999
21
-51.4025549999999996
0
LINE
8
BLACK
6
CONTINUOUS
10
182.5664950000000033
20
-53.5391469999999998
11
180.7430099999999982
21
-54.0277479999999954
0
LINE
8
BLACK
6
CONTINUOUS
10
182.5664950000000033
20
-53.5391469999999998
11
181.8630770000000041
21
-50.9139539999999968
0
ARC
8
BLACK
10
171.0811279999999783
20
-55.1277849999999958
40
1.8806441659221449
50
-256.26663724
51
-165.30691027
0
ARC
8
BLACK
10
171.8501339999999971
20
-60.2896929999999998
40
0.855913345630853
50
-214.22121554
51
64.26207614
0
ARC
8
BLACK
10
176.4105649999999912
20
-58.7981610000000003
40
2.2678883644434529
50
-255.64438224
51
-174.84433149
0
CIRCLE
8
BLACK
10
176.759886999999992
20
-58.9864199999999954
40
2.
0
CIRCLE
8
BLACK
10
181.6667899999999918
20
-57.6716189999999997
40
0.85
0
CIRCLE
8
BLACK
10
167.4994769999999846
20
-103.7289999999999992
40
0.8999999999999999
0
CIRCLE
8
BLACK
10
167.4994769999999846
20
-106.2689999999999912
40
0.8999999999999999
0
CIRCLE
8
BLACK
10
167.4994769999999846
20
-108.8089999999999975
40
0.8999999999999999
0
CIRCLE
8
BLACK
10
167.4994769999999846
20
-111.3489999999999895
40
0.8999999999999999
0
LINE
8
BLACK
6
CONTINUOUS
10
111.1505109999999945
20
-74.2160799999999909
11
112.9739969999999971
21
-74.7046799999999962
0
LINE
8
BLACK
6
CONTINUOUS
10
111.8539299999999912
20
-71.5908850000000001
11
111.1505109999999945
21
-74.2160799999999909
0
LINE
8
BLACK
6
CONTINUOUS
10
111.8539299999999912
20
-71.5908850000000001
11
113.6774149999999963
21
-72.0794870000000003
0
LINE
8
BLACK
6
CONTINUOUS
10
112.8489879999999914
20
-75.1712210000000027
11
113.5525569999999931
21
-75.3597419999999971
0
LINE
8
BLACK
6
CONTINUOUS
10
112.9739969999999971
20
-74.7046799999999962
11
112.8489879999999914
21
-75.1712210000000027
0
LINE
8
BLACK
6
CONTINUOUS
10
114.0258369999999957
20
-70.7791569999999979
11
113.6774149999999963
21
-72.0794870000000003
0
LINE
8
BLACK
6
CONTINUOUS
10
114.6321789999999936
20
-75.6486129999999974
11
116.5620040000000017
21
-76.1661209999999897
0
LINE
8
BLACK
6
CONTINUOUS
10
124.4417720000000003
20
-76.3311800000000034
11
119.231577999999999
21
-74.9351130000000012
0
LINE
8
BLACK
6
CONTINUOUS
10
124.4417720000000003
20
-76.3311800000000034
11
124.7572210000000013
21
-75.1539089999999987
0
LINE
8
BLACK
6
CONTINUOUS
10
125.4606390000000005
20
-72.5287160000000029
11
125.6160619999999994
21
-71.9486679999999978
0
LINE
8
BLACK
6
CONTINUOUS
10
125.6160619999999994
20
-71.9486679999999978
11
116.3665499999999895
21
-69.4702690000000018
0
LINE
8
BLACK
6
CONTINUOUS
10
126.5807059999999922
20
-75.6425100000000015
11
124.7572210000000013
21
-75.1539089999999987
0
LINE
8
BLACK
6
CONTINUOUS
10
126.5807059999999922
20
-75.6425100000000015
11
127.2841239999999914
21
-73.0173169999999914
0
LINE
8
BLACK
6
CONTINUOUS
10
127.2841239999999914
20
-73.0173169999999914
11
125.4606390000000005
21
-72.5287160000000029
0
ARC
8
BLACK
10
115.8397659999999973
20
-71.2756270000000001
40
1.8806437403030378
50
73.73332430
51
164.69308896
0
ARC
8
BLACK
10
113.9247919999999965
20
-76.1304739999999924
40
0.8559126071568288
50
-244.22117869
51
34.26208112
0
ARC
8
BLACK
10
118.6199989999999929
20
-77.1189710000000019
40
2.2678771004013867
50
74.35535087
51
155.15590204
0
CIRCLE
8
BLACK
10
118.8283989999999903
20
-77.4566829999999982
40
2.
0
CIRCLE
8
BLACK
10
123.7353019999999901
20
-78.7714840000000009
40
0.85
0
LINE
8
BLACK
6
CONTINUOUS
10
75.2129169999999903
20
-59.4232049999999958
11
77.0559789999999936
21
-59.8318019999999962
0
LINE
8
BLACK
6
CONTINUOUS
10
75.8011570000000034
20
-56.7698269999999994
11
75.2129169999999903
21
-59.4232049999999958
0
LINE
8
BLACK
6
CONTINUOUS
10
75.8011570000000034
20
-56.7698269999999994
11
77.6442189999999925
21
-57.1784239999999997
0
LINE
8
BLACK
6
CONTINUOUS
10
76.9514389999999935
20
-60.3033519999999967
11
77.6625619999999941
21
-60.4610039999999955
0
LINE
8
BLACK
6
CONTINUOUS
10
77.0559789999999936
20
-59.8318019999999962
11
76.9514389999999935
21
-60.3033519999999967
0
LINE
8
BLACK
6
CONTINUOUS
10
77.9355899999999906
20
-55.8641349999999974
11
77.6442189999999925
21
-57.1784239999999997
0
LINE
8
BLACK
6
CONTINUOUS
10
78.7537569999999931
20
-60.7025069999999971
11
80.7043199999999956
21
-61.1353449999999938
0
LINE
8
BLACK
6
CONTINUOUS
10
88.5837859999999893
20
-60.9565369999999973
11
83.3176559999999995
21
-59.7890639999999962
0
LINE
8
BLACK
6
CONTINUOUS
10
88.5837859999999893
20
-60.9565369999999973
11
88.8475830000000002
21
-59.7666259999999951
0
LINE
8
BLACK
6
CONTINUOUS
10
89.4358229999999992
20
-57.1132489999999962
11
89.5657969999999892
21
-56.5269739999999956
0
LINE
8
BLACK
6
CONTINUOUS
10
89.5657969999999892
20
-56.5269739999999956
11
80.2169809999999899
21
-54.4543919999999986
0
LINE
8
BLACK
6
CONTINUOUS
10
90.6906449999999893
20
-60.1752229999999955
11
88.8475830000000002
21
-59.7666259999999951
0
LINE
8
BLACK
6
CONTINUOUS
10
90.6906449999999893
20
-60.1752229999999955
11
91.2788850000000025
21
-57.5218459999999965
0
LINE
8
BLACK
6
CONTINUOUS
10
91.2788850000000025
20
-57.5218459999999965
11
89.4358229999999992
21
-57.1132489999999962
0
ARC
8
BLACK
10
79.769449999999992
20
-56.2810119999999969
40
1.8806458817993885
50
76.23343004
51
167.19304127
0
ARC
8
BLACK
10
78.0680619999999976
20
-61.2147649999999999
40
0.8559123153623857
50
-241.72112903
51
36.76208212
0
ARC
8
BLACK
10
82.8019170000000031
20
-61.9975169999999949
40
2.2678742760552222
50
76.85531712
51
157.65594419
0
CIRCLE
8
BLACK
10
83.0248500000000007
20
-62.3258200000000002
40
2.
0
CIRCLE
8
BLACK
10
87.9844339999999931
20
-63.4253329999999949
40
0.85
0
CIRCLE
8
BLACK
10
138.0001239999999996
20
-90.1623340000000013
40
1.0999999999999999
0
CIRCLE
8
BLACK
10
128.2500660000000039
20
-48.8155179999999973
40
1.0999999999999999
0
LINE
8
BLACK
6
CONTINUOUS
10
106.6488469999999893
20
-92.6721649999999926
11
108.4723329999999919
21
-93.1607649999999978
0
LINE
8
BLACK
6
CONTINUOUS
10
107.3522660000000002
20
-90.0469700000000017
11
106.6488469999999893
21
-92.6721649999999926
0
LINE
8
BLACK
6
CONTINUOUS
10
107.3522660000000002
20
-90.0469700000000017
11
109.1757509999999911
21
-90.5355720000000019
0
LINE
8
BLACK
6
CONTINUOUS
10
108.3473240000000004
20
-93.6273059999999901
11
109.0508930000000021
21
-93.8158269999999987
0
LINE
8
BLACK
6
CONTINUOUS
10
108.4723329999999919
20
-93.1607649999999978
11
108.3473240000000004
21
-93.6273059999999901
0
LINE
8
BLACK
6
CONTINUOUS
10
109.5241729999999905
20
-89.2352419999999995
11
109.1757509999999911
21
-90.5355720000000019
0
LINE
8
BLACK
6
CONTINUOUS
10
110.1305149999999884
20
-94.1046979999999991
11
112.0603399999999965
21
-94.6222059999999914
0
LINE
8
BLACK
6
CONTINUOUS
10
119.9401079999999951
20
-94.7872649999999908
11
114.7299139999999937
21
-93.3911980000000028
0
LINE
8
BLACK
6
CONTINUOUS
10
119.9401079999999951
20
-94.7872649999999908
11
120.255556999999996
21
-93.6099940000000004
0
LINE
8
BLACK
6
CONTINUOUS
10
120.9589749999999952
20
-90.9848009999999903
11
121.1143979999999942
21
-90.4047529999999995
0
LINE
8
BLACK
6
CONTINUOUS
10
121.1143979999999942
20
-90.4047529999999995
11
111.8648859999999985
21
-87.9263539999999892
0
LINE
8
BLACK
6
CONTINUOUS
10
122.0790420000000012
20
-94.0985949999999889
11
120.255556999999996
21
-93.6099940000000004
0
LINE
8
BLACK
6
CONTINUOUS
10
122.0790420000000012
20
-94.0985949999999889
11
122.7824600000000004
21
-91.473401999999993
0
LINE
8
BLACK
6
CONTINUOUS
10
122.7824600000000004
20
-91.473401999999993
11
120.9589749999999952
21
-90.9848009999999903
0
ARC
8
BLACK
10
111.3381019999999921
20
-89.7317120000000017
40
1.8806437403030378
50
73.73332430
51
164.69308896
0
ARC
8
BLACK
10
109.4231279999999913
20
-94.5865589999999941
40
0.8559126071568288
50
-244.22117869
51
34.26208112
0
ARC
8
BLACK
10
114.1183350000000019
20
-95.5750559999999894
40
2.2678771004013867
50
74.35535087
51
155.15590204
0
CIRCLE
8
BLACK
10
114.3267349999999993
20
-95.9127679999999998
40
2.
0
CIRCLE
8
BLACK
10
119.2336379999999991
20
-97.2275690000000026
40
0.85
0
CIRCLE
8
BLACK
10
120.2490659999999991
20
-110.4105179999999962
40
1.0999999999999999
0
LINE
8
BLACK
6
CONTINUOUS
10
185.3626160000000027
20
-49.5779229999999984
11
186.0660340000000019
21
-52.2031159999999943
0
LINE
8
BLACK
6
CONTINUOUS
10
185.3626160000000027
20
-49.5779229999999984
11
187.1861009999999794
21
-49.0893209999999982
0
LINE
8
BLACK
6
CONTINUOUS
10
186.0660340000000019
20
-52.2031159999999943
11
187.8895200000000045
21
-51.7145159999999962
0
LINE
8
BLACK
6
CONTINUOUS
10
186.8376789999999801
20
-47.7889920000000004
11
187.1861009999999794
21
-49.0893209999999982
0
LINE
8
BLACK
6
CONTINUOUS
10
187.8895200000000045
20
-51.7145159999999962
11
188.0145289999999818
21
-52.1810559999999981
0
LINE
8
BLACK
6
CONTINUOUS
10
188.0145289999999818
20
-52.1810559999999981
11
188.7180989999999952
21
-51.9925349999999966
0
LINE
8
BLACK
6
CONTINUOUS
10
189.7975139999999783
20
-51.702892999999996
11
191.7275469999999871
21
-51.1861559999999969
0
LINE
8
BLACK
6
CONTINUOUS
10
197.4598629999999844
20
-43.0067060000000012
11
188.2103510000000028
21
-45.4851049999999972
0
LINE
8
BLACK
6
CONTINUOUS
10
197.615286999999995
20
-43.5867529999999945
11
197.4598629999999844
21
-43.0067060000000012
0
LINE
8
BLACK
6
CONTINUOUS
10
198.6341539999999952
20
-47.3892179999999996
11
193.4239609999999914
21
-48.7852849999999947
0
LINE
8
BLACK
6
CONTINUOUS
10
198.6341539999999952
20
-47.3892179999999996
11
198.3187049999999942
21
-46.2119459999999975
0
LINE
8
BLACK
6
CONTINUOUS
10
199.4387720000000002
20
-43.0981519999999989
11
197.615286999999995
21
-43.5867529999999945
0
LINE
8
BLACK
6
CONTINUOUS
10
200.1421899999999994
20
-45.7233449999999948
11
198.3187049999999942
21
-46.2119459999999975
0
LINE
8
BLACK
6
CONTINUOUS
10
200.1421899999999994
20
-45.7233449999999948
11
199.4387720000000002
21
-43.0981519999999989
0
ARC
8
BLACK
10
188.6568230000000028
20
-47.3119829999999979
40
1.8806441659221449
50
-256.26663724
51
-165.30691027
0
ARC
8
BLACK
10
189.4258289999999931
20
-52.4738909999999947
40
0.855913345630853
50
-214.22121554
51
64.26207614
0
ARC
8
BLACK
10
193.9862599999999873
20
-50.9823589999999953
40
2.2678883644434529
50
-255.64438224
51
-174.84433149
0
CIRCLE
8
BLACK
10
194.3355819999999881
20
-51.1706179999999975
40
2.
0
CIRCLE
8
BLACK
10
199.2424849999999878
20
-49.8558169999999947
40
0.85
0
LINE
8
BLACK
6
CONTINUOUS
10
89.0290019999999913
20
-84.9324900000000014
11
90.8524879999999939
21
-85.4210899999999924
0
LINE
8
BLACK
6
CONTINUOUS
10
89.7324210000000022
20
-82.3072949999999963
11
89.0290019999999913
21
-84.9324900000000014
0
LINE
8
BLACK
6
CONTINUOUS
10
89.7324210000000022
20
-82.3072949999999963
11
91.5559059999999931
21
-82.7958969999999965
0
LINE
8
BLACK
6
CONTINUOUS
10
90.7274790000000024
20
-85.8876309999999989
11
91.4310479999999899
21
-86.0761519999999933
0
LINE
8
BLACK
6
CONTINUOUS
10
90.8524879999999939
20
-85.4210899999999924
11
90.7274790000000024
21
-85.8876309999999989
0
LINE
8
BLACK
6
CONTINUOUS
10
91.9043279999999925
20
-81.4955669999999941
11
91.5559059999999931
21
-82.7958969999999965
0
LINE
8
BLACK
6
CONTINUOUS
10
92.5106699999999904
20
-86.3650229999999937
11
94.4404949999999985
21
-86.8825310000000002
0
LINE
8
BLACK
6
CONTINUOUS
10
102.3202629999999971
20
-87.0475899999999996
11
97.1100689999999958
21
-85.6515229999999974
0
LINE
8
BLACK
6
CONTINUOUS
10
102.3202629999999971
20
-87.0475899999999996
11
102.6357119999999981
21
-85.870318999999995
0
LINE
8
BLACK
6
CONTINUOUS
10
103.3391299999999973
20
-83.2451259999999991
11
103.4945529999999962
21
-82.6650779999999941
0
LINE
8
BLACK
6
CONTINUOUS
10
103.4945529999999962
20
-82.6650779999999941
11
94.2450410000000005
21
-80.186678999999998
0
LINE
8
BLACK
6
CONTINUOUS
10
104.459196999999989
20
-86.3589199999999977
11
102.6357119999999981
21
-85.870318999999995
0
LINE
8
BLACK
6
CONTINUOUS
10
104.459196999999989
20
-86.3589199999999977
11
105.1626149999999882
21
-83.7337270000000018
0
LINE
8
BLACK
6
CONTINUOUS
10
105.1626149999999882
20
-83.7337270000000018
11
103.3391299999999973
21
-83.2451259999999991
0
ARC
8
BLACK
10
93.7182569999999942
20
-81.9920369999999963
40
1.8806437403030378
50
73.73332430
51
164.69308896
0
ARC
8
BLACK
10
91.8032829999999933
20
-86.8468840000000029
40
0.8559126071568288
50
-244.22117869
51
34.26208112
0
ARC
8
BLACK
10
96.4984899999999897
20
-87.8353809999999982
40
2.2678771004013867
50
74.35535087
51
155.15590204
0
CIRCLE
8
BLACK
10
96.7068900000000014
20
-88.1730929999999944
40
2.
0
CIRCLE
8
BLACK
10
101.6137930000000011
20
-89.4878939999999972
40
0.85
0
LINE
8
BLACK
6
CONTINUOUS
10
223.0148659999999836
20
-39.9276610000000005
11
223.6031059999999968
21
-42.581038999999997
0
LINE
8
BLACK
6
CONTINUOUS
10
223.0148659999999836
20
-39.9276610000000005
11
224.8579289999999844
21
-39.5190640000000002
0
LINE
8
BLACK
6
CONTINUOUS
10
223.6031059999999968
20
-42.581038999999997
11
225.4461680000000001
21
-42.1724419999999967
0
LINE
8
BLACK
6
CONTINUOUS
10
224.5665579999999864
20
-38.2047749999999979
11
224.8579289999999844
21
-39.5190640000000002
0
LINE
8
BLACK
6
CONTINUOUS
10
225.4461680000000001
20
-42.1724419999999967
11
225.5507069999999885
21
-42.6439919999999972
0
LINE
8
BLACK
6
CONTINUOUS
10
225.5507069999999885
20
-42.6439919999999972
11
226.2618319999999983
21
-42.486339000000001
0
LINE
8
BLACK
6
CONTINUOUS
10
227.3528539999999794
20
-42.244056999999998
11
229.3035889999999881
21
-41.8119979999999956
0
LINE
8
BLACK
6
CONTINUOUS
10
235.3872329999999806
20
-33.8903729999999968
11
226.0384169999999813
21
-35.9629559999999984
0
LINE
8
BLACK
6
CONTINUOUS
10
235.5172069999999849
20
-34.4766479999999973
11
235.3872329999999806
21
-33.8903729999999968
0
LINE
8
BLACK
6
CONTINUOUS
10
236.3692429999999831
20
-38.3199359999999984
11
231.1031129999999791
21
-39.4874089999999995
0
LINE
8
BLACK
6
CONTINUOUS
10
236.3692429999999831
20
-38.3199359999999984
11
236.1054460000000006
21
-37.1300249999999963
0
LINE
8
BLACK
6
CONTINUOUS
10
237.3602689999999882
20
-34.068050999999997
11
235.5172069999999849
21
-34.4766479999999973
0
LINE
8
BLACK
6
CONTINUOUS
10
237.9485079999999755
20
-36.721427999999996
11
236.1054460000000006
21
-37.1300249999999963
0
LINE
8
BLACK
6
CONTINUOUS
10
237.9485079999999755
20
-36.721427999999996
11
237.3602689999999882
21
-34.068050999999997
0
ARC
8
BLACK
10
226.4047750000000008
20
-37.8075690000000009
40
1.8806420035522442
50
-258.76668354
51
-167.80686631
0
ARC
8
BLACK
10
226.947891999999996
20
-42.9981079999999949
40
0.8559130400017282
50
-216.72123450
51
61.76204226
0
ARC
8
BLACK
10
231.5690400000000011
20
-41.7069179999999946
40
2.267886690247332
50
-258.14442135
51
-177.34431317
0
CIRCLE
8
BLACK
10
231.9098199999999963
20
-41.9102359999999976
40
2.
0
CIRCLE
8
BLACK
10
236.869404000000003
20
-40.8107229999999959
40
0.85
0
LINE
8
BLACK
6
CONTINUOUS
10
175.5482010000000059
20
-122.307943999999992
11
176.8031409999999823
21
-124.7186619999999948
0
LINE
8
BLACK
6
CONTINUOUS
10
175.5482010000000059
20
-122.307943999999992
11
177.2227089999999805
21
-121.4362500000000011
0
LINE
8
BLACK
6
CONTINUOUS
10
176.6011029999999948
20
-120.2421559999999943
11
177.2227089999999805
21
-121.4362500000000011
0
LINE
8
BLACK
6
CONTINUOUS
10
176.8031409999999823
20
-124.7186619999999948
11
178.4776499999999828
21
-123.8469679999999897
0
LINE
8
BLACK
6
CONTINUOUS
10
178.4776499999999828
20
-123.8469679999999897
11
178.7006739999999922
21
-124.2753939999999915
0
LINE
8
BLACK
6
CONTINUOUS
10
178.7006739999999922
20
-124.2753939999999915
11
179.3467629999999815
21
-123.9390609999999953
0
LINE
8
BLACK
6
CONTINUOUS
10
180.3379019999999855
20
-123.4226570000000009
11
182.1103430000000003
21
-122.5004319999999893
0
LINE
8
BLACK
6
CONTINUOUS
10
185.9364229999999907
20
-113.2741679999999889
11
177.4425849999999798
21
-117.6957799999999992
0
LINE
8
BLACK
6
CONTINUOUS
10
186.2137079999999969
20
-113.8068260000000009
11
185.9364229999999907
21
-113.2741679999999889
0
LINE
8
BLACK
6
CONTINUOUS
10
187.8882159999999999
20
-112.9351319999999959
11
186.2137079999999969
21
-113.8068260000000009
0
LINE
8
BLACK
6
CONTINUOUS
10
188.0314280000000053
20
-117.2986339999999927
11
183.2469009999999798
21
-119.7893009999999947
0
LINE
8
BLACK
6
CONTINUOUS
10
188.0314280000000053
20
-117.2986339999999927
11
187.4686480000000017
21
-116.2175439999999895
0
LINE
8
BLACK
6
CONTINUOUS
10
189.1431570000000022
20
-115.3458499999999987
11
187.4686480000000017
21
-116.2175439999999895
0
LINE
8
BLACK
6
CONTINUOUS
10
189.1431570000000022
20
-115.3458499999999987
11
187.8882159999999999
21
-112.9351319999999959
0
ARC
8
BLACK
10
178.2738799999999912
20
-119.382719999999992
40
1.8806416803381232
50
-243.76671543
51
-152.80689901
0
ARC
8
BLACK
10
180.1419019999999875
20
-124.255825999999999
40
0.8559127190087783
50
-201.72119439
51
76.76207122
0
ARC
8
BLACK
10
184.2714039999999898
20
-121.8125909999999976
40
2.2678866565598024
50
-243.14439834
51
-162.34432219
0
CIRCLE
8
BLACK
10
184.653193999999985
20
-121.920780999999991
40
2.
0
CIRCLE
8
BLACK
10
189.1592090000000042
20
-119.575097999999997
40
0.85
0
LINE
8
BLACK
6
CONTINUOUS
10
208.0801960000000008
20
-60.343244999999996
11
208.6684359999999856
21
-62.9966229999999996
0
LINE
8
BLACK
6
CONTINUOUS
10
208.0801960000000008
20
-60.343244999999996
11
209.9232590000000016
21
-59.9346479999999957
0
LINE
8
BLACK
6
CONTINUOUS
10
208.6684359999999856
20
-62.9966229999999996
11
210.5114979999999889
21
-62.5880259999999993
0
LINE
8
BLACK
6
CONTINUOUS
10
209.6318880000000036
20
-58.6203590000000005
11
209.9232590000000016
21
-59.9346479999999957
0
LINE
8
BLACK
6
CONTINUOUS
10
210.5114979999999889
20
-62.5880259999999993
11
210.6160369999999773
21
-63.0595759999999999
0
LINE
8
BLACK
6
CONTINUOUS
10
210.6160369999999773
20
-63.0595759999999999
11
211.3271619999999871
21
-62.9019229999999965
0
LINE
8
BLACK
6
CONTINUOUS
10
212.4181839999999966
20
-62.6596410000000006
11
214.3689189999999769
21
-62.2275819999999982
0
LINE
8
BLACK
6
CONTINUOUS
10
220.4525629999999978
20
-54.3059569999999994
11
211.1037469999999985
21
-56.378540000000001
0
LINE
8
BLACK
6
CONTINUOUS
10
220.5825370000000021
20
-54.8922319999999999
11
220.4525629999999978
21
-54.3059569999999994
0
LINE
8
BLACK
6
CONTINUOUS
10
221.4345730000000003
20
-58.735519999999994
11
216.1684429999999963
21
-59.902992999999995
0
LINE
8
BLACK
6
CONTINUOUS
10
221.4345730000000003
20
-58.735519999999994
11
221.1707759999999894
21
-57.5456089999999989
0
LINE
8
BLACK
6
CONTINUOUS
10
222.425598999999977
20
-54.4836349999999996
11
220.5825370000000021
21
-54.8922319999999999
0
LINE
8
BLACK
6
CONTINUOUS
10
223.0138379999999927
20
-57.1370119999999986
11
221.1707759999999894
21
-57.5456089999999989
0
LINE
8
BLACK
6
CONTINUOUS
10
223.0138379999999927
20
-57.1370119999999986
11
222.425598999999977
21
-54.4836349999999996
0
ARC
8
BLACK
10
211.4701049999999896
20
-58.2231529999999964
40
1.8806420035522442
50
-258.76668354
51
-167.80686631
0
ARC
8
BLACK
10
212.0132219999999847
20
-63.4136919999999975
40
0.8559130400017282
50
-216.72123450
51
61.76204226
0
ARC
8
BLACK
10
216.6343699999999899
20
-62.1225019999999972
40
2.267886690247332
50
-258.14442135
51
-177.34431317
0
CIRCLE
8
BLACK
10
216.9751499999999851
20
-62.3258200000000002
40
2.
0
CIRCLE
8
BLACK
10
221.9347339999999917
20
-61.2263069999999985
40
0.85
0
LINE
8
BLACK
6
CONTINUOUS
10
176.7002990000000011
20
-94.3200729999999936
11
177.4037170000000003
21
-96.9452659999999895
0
LINE
8
BLACK
6
CONTINUOUS
10
176.7002990000000011
20
-94.3200729999999936
11
178.5237839999999778
21
-93.8314709999999934
0
LINE
8
BLACK
6
CONTINUOUS
10
177.4037170000000003
20
-96.9452659999999895
11
179.2272030000000029
21
-96.4566659999999985
0
LINE
8
BLACK
6
CONTINUOUS
10
178.1753619999999785
20
-92.5311420000000027
11
178.5237839999999778
21
-93.8314709999999934
0
LINE
8
BLACK
6
CONTINUOUS
10
179.2272030000000029
20
-96.4566659999999985
11
179.3522119999999802
21
-96.9232059999999933
0
LINE
8
BLACK
6
CONTINUOUS
10
179.3522119999999802
20
-96.9232059999999933
11
180.0557819999999936
21
-96.7346849999999989
0
LINE
8
BLACK
6
CONTINUOUS
10
181.1351970000000051
20
-96.4450429999999983
11
183.0652299999999855
21
-95.9283059999999921
0
LINE
8
BLACK
6
CONTINUOUS
10
188.7975459999999828
20
-87.7488559999999893
11
179.5480340000000012
21
-90.2272549999999995
0
LINE
8
BLACK
6
CONTINUOUS
10
188.9529699999999934
20
-88.3289029999999968
11
188.7975459999999828
21
-87.7488559999999893
0
LINE
8
BLACK
6
CONTINUOUS
10
189.9718369999999936
20
-92.1313679999999948
11
184.7616439999999898
21
-93.527434999999997
0
LINE
8
BLACK
6
CONTINUOUS
10
189.9718369999999936
20
-92.1313679999999948
11
189.6563879999999926
21
-90.9540959999999927
0
LINE
8
BLACK
6
CONTINUOUS
10
190.7764549999999986
20
-87.8403019999999941
11
188.9529699999999934
21
-88.3289029999999968
0
LINE
8
BLACK
6
CONTINUOUS
10
191.4798729999999978
20
-90.46549499999999
11
189.6563879999999926
21
-90.9540959999999927
0
LINE
8
BLACK
6
CONTINUOUS
10
191.4798729999999978
20
-90.46549499999999
11
190.7764549999999986
21
-87.8403019999999941
0
ARC
8
BLACK
10
179.9945060000000012
20
-92.0541329999999931
40
1.8806441659221449
50
-256.26663724
51
-165.30691027
0
ARC
8
BLACK
10
180.7635119999999915
20
-97.2160409999999899
40
0.855913345630853
50
-214.22121554
51
64.26207614
0
ARC
8
BLACK
10
185.3239429999999857
20
-95.7245089999999976
40
2.2678883644434529
50
-255.64438224
51
-174.84433149
0
CIRCLE
8
BLACK
10
185.6732649999999865
20
-95.9127679999999998
40
2.
0
CIRCLE
8
BLACK
10
190.5801679999999863
20
-94.597966999999997
40
0.85
0
LINE
8
BLACK
6
CONTINUOUS
10
79.3252609999999976
20
-40.873621
11
81.1683230000000009
21
-41.2822180000000003
0
LINE
8
BLACK
6
CONTINUOUS
10
79.9135009999999966
20
-38.2202429999999964
11
79.3252609999999976
21
-40.873621
0
LINE
8
BLACK
6
CONTINUOUS
10
79.9135009999999966
20
-38.2202429999999964
11
81.7565629999999999
21
-38.6288399999999967
0
LINE
8
BLACK
6
CONTINUOUS
10
81.0637830000000008
20
-41.7537680000000009
11
81.7749060000000014
21
-41.9114199999999997
0
LINE
8
BLACK
6
CONTINUOUS
10
81.1683230000000009
20
-41.2822180000000003
11
81.0637830000000008
21
-41.7537680000000009
0
LINE
8
BLACK
6
CONTINUOUS
10
82.0479339999999979
20
-37.3145510000000016
11
81.7565629999999999
21
-38.6288399999999967
0
LINE
8
BLACK
6
CONTINUOUS
10
82.8661010000000005
20
-42.1529230000000013
11
84.8166640000000029
21
-42.585760999999998
0
LINE
8
BLACK
6
CONTINUOUS
10
92.6961299999999966
20
-42.4069530000000015
11
87.4299999999999926
21
-41.2394800000000004
0
LINE
8
BLACK
6
CONTINUOUS
10
92.6961299999999966
20
-42.4069530000000015
11
92.9599269999999933
21
-41.2170419999999993
0
LINE
8
BLACK
6
CONTINUOUS
10
93.5481669999999923
20
-38.5636650000000003
11
93.6781409999999966
21
-37.9773899999999998
0
LINE
8
BLACK
6
CONTINUOUS
10
93.6781409999999966
20
-37.9773899999999998
11
84.3293249999999972
21
-35.9048079999999956
0
LINE
8
BLACK
6
CONTINUOUS
10
94.8029889999999966
20
-41.6256389999999996
11
92.9599269999999933
21
-41.2170419999999993
0
LINE
8
BLACK
6
CONTINUOUS
10
94.8029889999999966
20
-41.6256389999999996
11
95.3912289999999956
21
-38.9722620000000006
0
LINE
8
BLACK
6
CONTINUOUS
10
95.3912289999999956
20
-38.9722620000000006
11
93.5481669999999923
21
-38.5636650000000003
0
ARC
8
BLACK
10
83.8817939999999993
20
-37.7314280000000011
40
1.8806458817993885
50
76.23343004
51
167.19304127
0
ARC
8
BLACK
10
82.1804059999999907
20
-42.6651809999999969
40
0.8559123153623857
50
-241.72112903
51
36.76208212
0
ARC
8
BLACK
10
86.9142609999999962
20
-43.447932999999999
40
2.2678742760552222
50
76.85531712
51
157.65594419
0
CIRCLE
8
BLACK
10
87.1371939999999938
20
-43.7762359999999973
40
2.
0
CIRCLE
8
BLACK
10
92.0967780000000005
20
-44.875748999999999
40
0.85
0
CIRCLE
8
BLACK
10
161.9999609999999848
20
-90.1356219999999979
40
1.0999999999999999
0
LINE
8
BLACK
6
CONTINUOUS
10
231.2393979999999942
20
-77.0261279999999999
11
231.827637999999979
21
-79.6795060000000035
0
LINE
8
BLACK
6
CONTINUOUS
10
231.2393979999999942
20
-77.0261279999999999
11
233.082460999999995
21
-76.6175309999999996
0
LINE
8
BLACK
6
CONTINUOUS
10
231.827637999999979
20
-79.6795060000000035
11
233.6706999999999823
21
-79.2709090000000032
0
LINE
8
BLACK
6
CONTINUOUS
10
232.791089999999997
20
-75.3032419999999973
11
233.082460999999995
21
-76.6175309999999996
0
LINE
8
BLACK
6
CONTINUOUS
10
233.6706999999999823
20
-79.2709090000000032
11
233.7752389999999991
21
-79.7424589999999966
0
LINE
8
BLACK
6
CONTINUOUS
10
233.7752389999999991
20
-79.7424589999999966
11
234.4863639999999805
21
-79.5848060000000004
0
LINE
8
BLACK
6
CONTINUOUS
10
235.57738599999999
20
-79.3425239999999974
11
237.5281209999999987
21
-78.9104650000000021
0
LINE
8
BLACK
6
CONTINUOUS
10
243.6117649999999912
20
-70.9888399999999962
11
234.2629489999999919
21
-73.0614229999999907
0
LINE
8
BLACK
6
CONTINUOUS
10
243.7417389999999955
20
-71.5751149999999967
11
243.6117649999999912
21
-70.9888399999999962
0
LINE
8
BLACK
6
CONTINUOUS
10
244.5937749999999937
20
-75.4184029999999979
11
239.3276449999999897
21
-76.585875999999999
0
LINE
8
BLACK
6
CONTINUOUS
10
244.5937749999999937
20
-75.4184029999999979
11
244.3299779999999828
21
-74.2284920000000028
0
LINE
8
BLACK
6
CONTINUOUS
10
245.5848009999999988
20
-71.1665179999999964
11
243.7417389999999955
21
-71.5751149999999967
0
LINE
8
BLACK
6
CONTINUOUS
10
246.1730399999999861
20
-73.8198950000000025
11
244.3299779999999828
21
-74.2284920000000028
0
LINE
8
BLACK
6
CONTINUOUS
10
246.1730399999999861
20
-73.8198950000000025
11
245.5848009999999988
21
-71.1665179999999964
0
ARC
8
BLACK
10
234.629306999999983
20
-74.9060360000000003
40
1.8806420035522442
50
-258.76668354
51
-167.80686631
0
ARC
8
BLACK
10
235.1724239999999782
20
-80.0965750000000014
40
0.8559130400017282
50
-216.72123450
51
61.76204226
0
ARC
8
BLACK
10
239.7935719999999833
20
-78.8053850000000011
40
2.267886690247332
50
-258.14442135
51
-177.34431317
0
CIRCLE
8
BLACK
10
240.1343519999999785
20
-79.008702999999997
40
2.
0
CIRCLE
8
BLACK
10
245.0939359999999851
20
-77.9091899999999953
40
0.85
0
CIRCLE
8
BLACK
10
179.7509340000000009
20
-110.4105179999999962
40
1.0999999999999999
0
LINE
8
BLACK
6
CONTINUOUS
10
37.0225949999999955
20
-55.9858440000000002
11
38.8757219999999961
21
-56.3460549999999998
0
LINE
8
BLACK
6
CONTINUOUS
10
37.5411760000000001
20
-53.3179779999999965
11
37.0225949999999955
21
-55.9858440000000002
0
LINE
8
BLACK
6
CONTINUOUS
10
37.5411760000000001
20
-53.3179779999999965
11
39.3943030000000007
21
-53.6781889999999962
0
LINE
8
BLACK
6
CONTINUOUS
10
38.7835609999999988
20
-56.8201800000000006
11
39.4985679999999988
21
-56.9591629999999967
0
LINE
8
BLACK
6
CONTINUOUS
10
38.8757219999999961
20
-56.3460549999999998
11
38.7835609999999988
21
-56.8201800000000006
0
LINE
8
BLACK
6
CONTINUOUS
10
39.6511700000000005
20
-52.3567219999999978
11
39.3943030000000007
21
-53.6781889999999962
0
LINE
8
BLACK
6
CONTINUOUS
10
40.5957099999999969
20
-57.1720199999999963
11
42.5569349999999957
21
-57.5536499999999975
0
LINE
8
BLACK
6
CONTINUOUS
10
50.4290209999999988
20
-57.1686419999999984
11
45.134133999999996
21
-56.1394199999999941
0
LINE
8
BLACK
6
CONTINUOUS
10
50.4290209999999988
20
-57.1686419999999984
11
50.6615789999999961
21
-55.9722340000000003
0
LINE
8
BLACK
6
CONTINUOUS
10
51.1801589999999962
20
-53.3043669999999992
11
51.2947419999999994
21
-52.7148909999999944
0
LINE
8
BLACK
6
CONTINUOUS
10
51.2947419999999994
20
-52.7148909999999944
11
41.8948759999999965
21
-50.8877419999999958
0
LINE
8
BLACK
6
CONTINUOUS
10
52.5147049999999993
20
-56.3324449999999999
11
50.6615789999999961
21
-55.9722340000000003
0
LINE
8
BLACK
6
CONTINUOUS
10
52.5147049999999993
20
-56.3324449999999999
11
53.0332859999999968
21
-53.6645789999999963
0
LINE
8
BLACK
6
CONTINUOUS
10
53.0332859999999968
20
-53.6645789999999963
11
51.1801589999999962
21
-53.3043669999999992
0
ARC
8
BLACK
10
41.4953140000000005
20
-52.7254519999999971
40
1.8806458745962782
50
77.73344521
51
168.69301911
0
ARC
8
BLACK
10
39.9236590000000007
20
-57.7020519999999948
40
0.8559126518664156
50
-240.22123404
51
38.26207590
0
ARC
8
BLACK
10
44.6763919999999999
20
-58.3606339999999975
40
2.2678891399504075
50
78.35564562
51
159.15565104
0
CIRCLE
8
BLACK
10
44.9078329999999966
20
-58.6829719999999995
40
2.
0
CIRCLE
8
BLACK
10
49.8944989999999962
20
-59.6522819999999996
40
0.85
0
LINE
8
BLACK
6
CONTINUOUS
10
242.0413020000000017
20
-38.0009429999999995
11
242.6295419999999865
21
-40.6543209999999959
0
LINE
8
BLACK
6
CONTINUOUS
10
242.0413020000000017
20
-38.0009429999999995
11
243.8843650000000025
21
-37.5923459999999992
0
LINE
8
BLACK
6
CONTINUOUS
10
242.6295419999999865
20
-40.6543209999999959
11
244.4726039999999898
21
-40.2457239999999956
0
LINE
8
BLACK
6
CONTINUOUS
10
243.592993999999976
20
-36.2780569999999969
11
243.8843650000000025
21
-37.5923459999999992
0
LINE
8
BLACK
6
CONTINUOUS
10
244.4726039999999898
20
-40.2457239999999956
11
244.5771429999999782
21
-40.7172739999999962
0
LINE
8
BLACK
6
CONTINUOUS
10
244.5771429999999782
20
-40.7172739999999962
11
245.288267999999988
21
-40.5596209999999999
0
LINE
8
BLACK
6
CONTINUOUS
10
246.3792899999999975
20
-40.3173389999999969
11
248.3300249999999778
21
-39.8852800000000016
0
LINE
8
BLACK
6
CONTINUOUS
10
254.4136689999999987
20
-31.9636549999999993
11
245.0648529999999994
21
-34.0362379999999973
0
LINE
8
BLACK
6
CONTINUOUS
10
254.5436429999999746
20
-32.5499299999999963
11
254.4136689999999987
21
-31.9636549999999993
0
LINE
8
BLACK
6
CONTINUOUS
10
255.3956790000000012
20
-36.3932179999999974
11
250.1295489999999972
21
-37.5606909999999985
0
LINE
8
BLACK
6
CONTINUOUS
10
255.3956790000000012
20
-36.3932179999999974
11
255.1318819999999903
21
-35.2033069999999952
0
LINE
8
BLACK
6
CONTINUOUS
10
256.3867050000000063
20
-32.1413329999999959
11
254.5436429999999746
21
-32.5499299999999963
0
LINE
8
BLACK
6
CONTINUOUS
10
256.9749439999999936
20
-34.7947099999999949
11
255.1318819999999903
21
-35.2033069999999952
0
LINE
8
BLACK
6
CONTINUOUS
10
256.9749439999999936
20
-34.7947099999999949
11
256.3867050000000063
21
-32.1413329999999959
0
ARC
8
BLACK
10
245.4312109999999905
20
-35.8808509999999998
40
1.8806420035522442
50
-258.76668354
51
-167.80686631
0
ARC
8
BLACK
10
245.9743279999999856
20
-41.071390000000001
40
0.8559130400017282
50
-216.72123450
51
61.76204226
0
ARC
8
BLACK
10
250.5954759999999908
20
-39.7802000000000007
40
2.267886690247332
50
-258.14442135
51
-177.34431317
0
CIRCLE
8
BLACK
10
250.936255999999986
20
-39.9835179999999966
40
2.
0
CIRCLE
8
BLACK
10
255.8958399999999926
20
-38.8840049999999948
40
0.85
0
CIRCLE
8
BLACK
10
49.8381669999999986
20
-87.7508569999999963
40
1.0999999999999999
0
LINE
8
BLACK
6
CONTINUOUS
10
115.562224999999998
20
-55.7458169999999953
11
117.3857110000000006
21
-56.2344170000000005
0
LINE
8
BLACK
6
CONTINUOUS
10
116.2656439999999947
20
-53.1206219999999973
11
115.562224999999998
21
-55.7458169999999953
0
LINE
8
BLACK
6
CONTINUOUS
10
116.2656439999999947
20
-53.1206219999999973
11
118.0891289999999998
21
-53.6092239999999975
0
LINE
8
BLACK
6
CONTINUOUS
10
117.2607019999999949
20
-56.700958
11
117.9642709999999965
21
-56.8894789999999944
0
LINE
8
BLACK
6
CONTINUOUS
10
117.3857110000000006
20
-56.2344170000000005
11
117.2607019999999949
21
-56.700958
0
LINE
8
BLACK
6
CONTINUOUS
10
118.4375509999999991
20
-52.3088939999999951
11
118.0891289999999998
21
-53.6092239999999975
0
LINE
8
BLACK
6
CONTINUOUS
10
119.0438929999999971
20
-57.1783499999999947
11
120.973717999999991
21
-57.6958579999999941
0
LINE
8
BLACK
6
CONTINUOUS
10
128.8534860000000037
20
-57.8609170000000006
11
123.6432919999999882
21
-56.4648499999999984
0
LINE
8
BLACK
6
CONTINUOUS
10
128.8534860000000037
20
-57.8609170000000006
11
129.1689350000000047
21
-56.683645999999996
0
LINE
8
BLACK
6
CONTINUOUS
10
129.8723530000000039
20
-54.0584530000000001
11
130.0277759999999887
21
-53.4784049999999951
0
LINE
8
BLACK
6
CONTINUOUS
10
130.0277759999999887
20
-53.4784049999999951
11
120.778263999999993
21
-51.0000059999999991
0
LINE
8
BLACK
6
CONTINUOUS
10
130.9924199999999814
20
-57.1722469999999987
11
129.1689350000000047
21
-56.683645999999996
0
LINE
8
BLACK
6
CONTINUOUS
10
130.9924199999999814
20
-57.1722469999999987
11
131.6958379999999806
21
-54.5470539999999957
0
LINE
8
BLACK
6
CONTINUOUS
10
131.6958379999999806
20
-54.5470539999999957
11
129.8723530000000039
21
-54.0584530000000001
0
ARC
8
BLACK
10
120.2514800000000008
20
-52.8053639999999973
40
1.8806437403030378
50
73.73332430
51
164.69308896
0
ARC
8
BLACK
10
118.336506
20
-57.6602109999999968
40
0.8559126071568288
50
-244.22117869
51
34.26208112
0
ARC
8
BLACK
10
123.0317129999999963
20
-58.6487079999999992
40
2.2678771004013867
50
74.35535087
51
155.15590204
0
CIRCLE
8
BLACK
10
123.2401129999999938
20
-58.9864199999999954
40
2.
0
CIRCLE
8
BLACK
10
128.1470160000000078
20
-60.3012209999999982
40
0.85
0
LINE
8
BLACK
6
CONTINUOUS
10
33.0160349999999951
20
-74.4451059999999956
11
34.8691619999999958
21
-74.8053170000000023
0
LINE
8
BLACK
6
CONTINUOUS
10
33.5346159999999998
20
-71.7772399999999919
11
33.0160349999999951
21
-74.4451059999999956
0
LINE
8
BLACK
6
CONTINUOUS
10
33.5346159999999998
20
-71.7772399999999919
11
35.3877430000000004
21
-72.1374509999999987
0
LINE
8
BLACK
6
CONTINUOUS
10
34.7770009999999985
20
-75.2794420000000031
11
35.4920079999999984
21
-75.4184249999999992
0
LINE
8
BLACK
6
CONTINUOUS
10
34.8691619999999958
20
-74.8053170000000023
11
34.7770009999999985
21
-75.2794420000000031
0
LINE
8
BLACK
6
CONTINUOUS
10
35.6446100000000001
20
-70.8159840000000003
11
35.3877430000000004
21
-72.1374509999999987
0
LINE
8
BLACK
6
CONTINUOUS
10
36.5891499999999965
20
-75.6312819999999988
11
38.5503749999999954
21
-76.012912
0
LINE
8
BLACK
6
CONTINUOUS
10
46.4224609999999984
20
-75.6279040000000009
11
41.1275739999999956
21
-74.5986819999999966
0
LINE
8
BLACK
6
CONTINUOUS
10
46.4224609999999984
20
-75.6279040000000009
11
46.6550189999999958
21
-74.4314959999999957
0
LINE
8
BLACK
6
CONTINUOUS
10
47.1735989999999958
20
-71.7636289999999946
11
47.2881819999999991
21
-71.1741529999999898
0
LINE
8
BLACK
6
CONTINUOUS
10
47.2881819999999991
20
-71.1741529999999898
11
37.8883159999999961
21
-69.3470039999999983
0
LINE
8
BLACK
6
CONTINUOUS
10
48.508144999999999
20
-74.7917070000000024
11
46.6550189999999958
21
-74.4314959999999957
0
LINE
8
BLACK
6
CONTINUOUS
10
48.508144999999999
20
-74.7917070000000024
11
49.0267259999999965
21
-72.1238409999999988
0
LINE
8
BLACK
6
CONTINUOUS
10
49.0267259999999965
20
-72.1238409999999988
11
47.1735989999999958
21
-71.7636289999999946
0
ARC
8
BLACK
10
37.4887540000000001
20
-71.1847139999999996
40
1.8806458745962782
50
77.73344521
51
168.69301911
0
ARC
8
BLACK
10
35.9170990000000003
20
-76.1613139999999902
40
0.8559126518664156
50
-240.22123404
51
38.26207590
0
ARC
8
BLACK
10
40.6698319999999995
20
-76.819896
40
2.2678891399504075
50
78.35564562
51
159.15565104
0
CIRCLE
8
BLACK
10
40.9012729999999962
20
-77.142234000000002
40
2.
0
CIRCLE
8
BLACK
10
45.8879389999999958
20
-78.111543999999995
40
0.85
0
LINE
8
BLACK
6
CONTINUOUS
10
212.1925919999999905
20
-78.8930649999999929
11
212.7808320000000037
21
-81.5464429999999965
0
LINE
8
BLACK
6
CONTINUOUS
10
212.1925919999999905
20
-78.8930649999999929
11
214.0356549999999913
21
-78.4844679999999926
0
LINE
8
BLACK
6
CONTINUOUS
10
212.7808320000000037
20
-81.5464429999999965
11
214.6238939999999786
21
-81.1378459999999961
0
LINE
8
BLACK
6
CONTINUOUS
10
213.7442839999999933
20
-77.1701789999999903
11
214.0356549999999913
21
-78.4844679999999926
0
LINE
8
BLACK
6
CONTINUOUS
10
214.6238939999999786
20
-81.1378459999999961
11
214.7284329999999954
21
-81.6093959999999896
0
LINE
8
BLACK
6
CONTINUOUS
10
214.7284329999999954
20
-81.6093959999999896
11
215.4395579999999768
21
-81.4517429999999933
0
LINE
8
BLACK
6
CONTINUOUS
10
216.5305799999999863
20
-81.2094609999999903
11
218.4813149999999951
21
-80.777401999999995
0
LINE
8
BLACK
6
CONTINUOUS
10
224.5649589999999876
20
-72.8557770000000033
11
215.2161429999999882
21
-74.9283599999999979
0
LINE
8
BLACK
6
CONTINUOUS
10
224.6949329999999918
20
-73.4420519999999897
11
224.5649589999999876
21
-72.8557770000000033
0
LINE
8
BLACK
6
CONTINUOUS
10
225.54696899999999
20
-77.2853399999999908
11
220.2808389999999861
21
-78.4528129999999919
0
LINE
8
BLACK
6
CONTINUOUS
10
225.54696899999999
20
-77.2853399999999908
11
225.2831719999999791
21
-76.0954289999999958
0
LINE
8
BLACK
6
CONTINUOUS
10
226.5379949999999951
20
-73.0334550000000036
11
224.6949329999999918
21
-73.4420519999999897
0
LINE
8
BLACK
6
CONTINUOUS
10
227.1262339999999824
20
-75.6868319999999954
11
225.2831719999999791
21
-76.0954289999999958
0
LINE
8
BLACK
6
CONTINUOUS
10
227.1262339999999824
20
-75.6868319999999954
11
226.5379949999999951
21
-73.0334550000000036
0
ARC
8
BLACK
10
215.5825009999999793
20
-76.7729729999999932
40
1.8806420035522442
50
-258.76668354
51
-167.80686631
0
ARC
8
BLACK
10
216.1256180000000029
20
-81.9635119999999944
40
0.8559130400017282
50
-216.72123450
51
61.76204226
0
ARC
8
BLACK
10
220.7467659999999796
20
-80.6723219999999941
40
2.267886690247332
50
-258.14442135
51
-177.34431317
0
CIRCLE
8
BLACK
10
221.0875460000000032
20
-80.87563999999999
40
2.
0
CIRCLE
8
BLACK
10
226.0471299999999815
20
-79.7761270000000025
40
0.85
0
CIRCLE
8
BLACK
10
171.7499339999999961
20
-48.8155179999999973
40
1.0999999999999999
0
LINE
8
BLACK
6
CONTINUOUS
10
97.9865300000000019
20
-47.9300149999999974
11
99.8100159999999903
21
-48.4186149999999955
0
LINE
8
BLACK
6
CONTINUOUS
10
98.6899489999999986
20
-45.3048199999999994
11
97.9865300000000019
21
-47.9300149999999974
0
LINE
8
BLACK
6
CONTINUOUS
10
98.6899489999999986
20
-45.3048199999999994
11
100.5134339999999895
21
-45.7934219999999996
0
LINE
8
BLACK
6
CONTINUOUS
10
99.6850069999999988
20
-48.8851559999999949
11
100.3885760000000005
21
-49.0736769999999964
0
LINE
8
BLACK
6
CONTINUOUS
10
99.8100159999999903
20
-48.4186149999999955
11
99.6850069999999988
21
-48.8851559999999949
0
LINE
8
BLACK
6
CONTINUOUS
10
100.8618559999999889
20
-44.4930919999999972
11
100.5134339999999895
21
-45.7934219999999996
0
LINE
8
BLACK
6
CONTINUOUS
10
101.468198000000001
20
-49.3625479999999968
11
103.3980229999999949
21
-49.8800559999999962
0
LINE
8
BLACK
6
CONTINUOUS
10
111.2777909999999935
20
-50.0451149999999956
11
106.0675969999999921
21
-48.6490480000000005
0
LINE
8
BLACK
6
CONTINUOUS
10
111.2777909999999935
20
-50.0451149999999956
11
111.5932399999999944
21
-48.8678439999999981
0
LINE
8
BLACK
6
CONTINUOUS
10
112.2966579999999936
20
-46.2426509999999951
11
112.4520809999999926
21
-45.6626029999999972
0
LINE
8
BLACK
6
CONTINUOUS
10
112.4520809999999926
20
-45.6626029999999972
11
103.2025689999999969
21
-43.1842040000000011
0
LINE
8
BLACK
6
CONTINUOUS
10
113.4167249999999996
20
-49.3564450000000008
11
111.5932399999999944
21
-48.8678439999999981
0
LINE
8
BLACK
6
CONTINUOUS
10
113.4167249999999996
20
-49.3564450000000008
11
114.1201429999999988
21
-46.7312519999999978
0
LINE
8
BLACK
6
CONTINUOUS
10
114.1201429999999988
20
-46.7312519999999978
11
112.2966579999999936
21
-46.2426509999999951
0
ARC
8
BLACK
10
102.6757849999999905
20
-44.9895619999999994
40
1.8806437403030378
50
73.73332430
51
164.69308896
0
ARC
8
BLACK
10
100.7608109999999897
20
-49.8444089999999989
40
0.8559126071568288
50
-244.22117869
51
34.26208112
0
ARC
8
BLACK
10
105.4560180000000003
20
-50.8329059999999942
40
2.2678771004013867
50
74.35535087
51
155.15590204
0
CIRCLE
8
BLACK
10
105.6644179999999977
20
-51.1706179999999975
40
2.
0
CIRCLE
8
BLACK
10
110.5713209999999975
20
-52.4854190000000003
40
0.85
0
LINE
8
BLACK
6
CONTINUOUS
10
203.9678519999999935
20
-41.7936610000000002
11
204.5560919999999783
21
-44.4470389999999966
0
LINE
8
BLACK
6
CONTINUOUS
10
203.9678519999999935
20
-41.7936610000000002
11
205.8109149999999943
21
-41.3850639999999999
0
LINE
8
BLACK
6
CONTINUOUS
10
204.5560919999999783
20
-44.4470389999999966
11
206.3991539999999816
21
-44.0384419999999963
0
LINE
8
BLACK
6
CONTINUOUS
10
205.5195439999999962
20
-40.0707749999999976
11
205.8109149999999943
21
-41.3850639999999999
0
LINE
8
BLACK
6
CONTINUOUS
10
206.3991539999999816
20
-44.0384419999999963
11
206.5036929999999984
21
-44.5099919999999969
0
LINE
8
BLACK
6
CONTINUOUS
10
206.5036929999999984
20
-44.5099919999999969
11
207.2148179999999797
21
-44.3523390000000006
0
LINE
8
BLACK
6
CONTINUOUS
10
208.3058399999999892
20
-44.1100569999999976
11
210.256574999999998
21
-43.6779979999999952
0
LINE
8
BLACK
6
CONTINUOUS
10
216.3402189999999905
20
-35.7563729999999964
11
206.9914029999999912
21
-37.828955999999998
0
LINE
8
BLACK
6
CONTINUOUS
10
216.4701929999999948
20
-36.342647999999997
11
216.3402189999999905
21
-35.7563729999999964
0
LINE
8
BLACK
6
CONTINUOUS
10
217.322228999999993
20
-40.1859359999999981
11
212.056098999999989
21
-41.3534089999999992
0
LINE
8
BLACK
6
CONTINUOUS
10
217.322228999999993
20
-40.1859359999999981
11
217.0584319999999821
21
-38.9960249999999959
0
LINE
8
BLACK
6
CONTINUOUS
10
218.3132549999999981
20
-35.9340509999999966
11
216.4701929999999948
21
-36.342647999999997
0
LINE
8
BLACK
6
CONTINUOUS
10
218.9014939999999854
20
-38.5874279999999956
11
217.0584319999999821
21
-38.9960249999999959
0
LINE
8
BLACK
6
CONTINUOUS
10
218.9014939999999854
20
-38.5874279999999956
11
218.3132549999999981
21
-35.9340509999999966
0
ARC
8
BLACK
10
207.3577609999999822
20
-39.6735690000000005
40
1.8806420035522442
50
-258.76668354
51
-167.80686631
0
ARC
8
BLACK
10
207.9008779999999774
20
-44.8641079999999945
40
0.8559130400017282
50
-216.72123450
51
61.76204226
0
ARC
8
BLACK
10
212.5220259999999826
20
-43.5729180000000014
40
2.267886690247332
50
-258.14442135
51
-177.34431317
0
CIRCLE
8
BLACK
10
212.8628059999999778
20
-43.7762359999999973
40
2.
0
CIRCLE
8
BLACK
10
217.8223899999999844
20
-42.6767229999999955
40
0.85
0
LINE
8
BLACK
6
CONTINUOUS
10
227.1271309999999914
20
-58.4768959999999964
11
227.7153709999999762
21
-61.130274
0
LINE
8
BLACK
6
CONTINUOUS
10
227.1271309999999914
20
-58.4768959999999964
11
228.9701939999999922
21
-58.0682989999999961
0
LINE
8
BLACK
6
CONTINUOUS
10
227.7153709999999762
20
-61.130274
11
229.5584329999999795
21
-60.7216769999999997
0
LINE
8
BLACK
6
CONTINUOUS
10
228.6788229999999942
20
-56.754010000000001
11
228.9701939999999922
21
-58.0682989999999961
0
LINE
8
BLACK
6
CONTINUOUS
10
229.5584329999999795
20
-60.7216769999999997
11
229.6629719999999963
21
-61.1932270000000003
0
LINE
8
BLACK
6
CONTINUOUS
10
229.6629719999999963
20
-61.1932270000000003
11
230.3740969999999777
21
-61.0355739999999969
0
LINE
8
BLACK
6
CONTINUOUS
10
231.4651189999999872
20
-60.7932919999999939
11
233.4158539999999959
21
-60.3612329999999986
0
LINE
8
BLACK
6
CONTINUOUS
10
239.4994979999999885
20
-52.4396079999999998
11
230.1506819999999891
21
-54.5121909999999943
0
LINE
8
BLACK
6
CONTINUOUS
10
239.6294719999999927
20
-53.0258830000000003
11
239.4994979999999885
21
-52.4396079999999998
0
LINE
8
BLACK
6
CONTINUOUS
10
240.4815079999999909
20
-56.8691709999999944
11
235.215377999999987
21
-58.0366439999999955
0
LINE
8
BLACK
6
CONTINUOUS
10
240.4815079999999909
20
-56.8691709999999944
11
240.21771099999998
21
-55.6792599999999993
0
LINE
8
BLACK
6
CONTINUOUS
10
241.472533999999996
20
-52.617286
11
239.6294719999999927
21
-53.0258830000000003
0
LINE
8
BLACK
6
CONTINUOUS
10
242.0607729999999833
20
-55.270662999999999
11
240.21771099999998
21
-55.6792599999999993
0
LINE
8
BLACK
6
CONTINUOUS
10
242.0607729999999833
20
-55.270662999999999
11
241.472533999999996
21
-52.617286
0
ARC
8
BLACK
10
230.5170399999999802
20
-56.3568039999999968
40
1.8806420035522442
50
-258.76668354
51
-167.80686631
0
ARC
8
BLACK
10
231.0601569999999754
20
-61.5473429999999979
40
0.8559130400017282
50
-216.72123450
51
61.76204226
0
ARC
8
BLACK
10
235.6813049999999805
20
-60.2561529999999976
40
2.267886690247332
50
-258.14442135
51
-177.34431317
0
CIRCLE
8
BLACK
10
236.0220849999999757
20
-60.4594710000000006
40
2.
0
CIRCLE
8
BLACK
10
240.9816689999999824
20
-59.3599579999999989
40
0.85
0
LINE
8
BLACK
6
CONTINUOUS
10
192.3251539999999977
20
-112.2351570000000009
11
193.5800940000000026
21
-114.6458749999999895
0
LINE
8
BLACK
6
CONTINUOUS
10
192.3251539999999977
20
-112.2351570000000009
11
193.9996620000000007
21
-111.3634629999999959
0
LINE
8
BLACK
6
CONTINUOUS
10
193.3780559999999866
20
-110.169368999999989
11
193.9996620000000007
21
-111.3634629999999959
0
LINE
8
BLACK
6
CONTINUOUS
10
193.5800940000000026
20
-114.6458749999999895
11
195.254603000000003
21
-113.7741809999999987
0
LINE
8
BLACK
6
CONTINUOUS
10
195.254603000000003
20
-113.7741809999999987
11
195.477626999999984
21
-114.2026070000000004
0
LINE
8
BLACK
6
CONTINUOUS
10
195.477626999999984
20
-114.2026070000000004
11
196.1237160000000017
21
-113.86627399999999
0
LINE
8
BLACK
6
CONTINUOUS
10
197.1148549999999773
20
-113.3498699999999957
11
198.8872959999999921
21
-112.4276449999999983
0
LINE
8
BLACK
6
CONTINUOUS
10
202.7133759999999825
20
-103.2013809999999978
11
194.219538
21
-107.6229929999999939
0
LINE
8
BLACK
6
CONTINUOUS
10
202.9906609999999887
20
-103.7340389999999957
11
202.7133759999999825
21
-103.2013809999999978
0
LINE
8
BLACK
6
CONTINUOUS
10
204.6651689999999917
20
-102.8623449999999906
11
202.9906609999999887
21
-103.7340389999999957
0
LINE
8
BLACK
6
CONTINUOUS
10
204.8083809999999971
20
-107.2258470000000017
11
200.023854
21
-109.7165139999999894
0
LINE
8
BLACK
6
CONTINUOUS
10
204.8083809999999971
20
-107.2258470000000017
11
204.2456009999999935
21
-106.1447569999999985
0
LINE
8
BLACK
6
CONTINUOUS
10
205.920109999999994
20
-105.2730629999999934
11
204.2456009999999935
21
-106.1447569999999985
0
LINE
8
BLACK
6
CONTINUOUS
10
205.920109999999994
20
-105.2730629999999934
11
204.6651689999999917
21
-102.8623449999999906
0
ARC
8
BLACK
10
195.050832999999983
20
-109.3099330000000009
40
1.8806416803381232
50
-243.76671543
51
-152.80689901
0
ARC
8
BLACK
10
196.9188549999999793
20
-114.1830389999999937
40
0.8559127190087783
50
-201.72119439
51
76.76207122
0
ARC
8
BLACK
10
201.0483569999999816
20
-111.7398039999999924
40
2.2678866565598024
50
-243.14439834
51
-162.34432219
0
CIRCLE
8
BLACK
10
201.4301469999999767
20
-111.8479939999999999
40
2.
0
CIRCLE
8
BLACK
10
205.9361619999999959
20
-109.5023109999999917
40
0.85
0
LINE
8
BLACK
6
CONTINUOUS
10
190.0181139999999971
20
-68.0589839999999953
11
190.7215319999999963
21
-70.6841769999999912
0
LINE
8
BLACK
6
CONTINUOUS
10
190.0181139999999971
20
-68.0589839999999953
11
191.8415990000000022
21
-67.5703819999999951
0
LINE
8
BLACK
6
CONTINUOUS
10
190.7215319999999963
20
-70.6841769999999912
11
192.5450179999999989
21
-70.1955770000000001
0
LINE
8
BLACK
6
CONTINUOUS
10
191.4931770000000029
20
-66.2700529999999901
11
191.8415990000000022
21
-67.5703819999999951
0
LINE
8
BLACK
6
CONTINUOUS
10
192.5450179999999989
20
-70.1955770000000001
11
192.6700270000000046
21
-70.662116999999995
0
LINE
8
BLACK
6
CONTINUOUS
10
192.6700270000000046
20
-70.662116999999995
11
193.3735969999999895
21
-70.4735960000000006
0
LINE
8
BLACK
6
CONTINUOUS
10
194.4530120000000011
20
-70.183954
11
196.3830449999999814
21
-69.6672169999999937
0
LINE
8
BLACK
6
CONTINUOUS
10
202.1153609999999787
20
-61.4877669999999981
11
192.8658489999999972
21
-63.9661659999999941
0
LINE
8
BLACK
6
CONTINUOUS
10
202.2707849999999894
20
-62.0678139999999985
11
202.1153609999999787
21
-61.4877669999999981
0
LINE
8
BLACK
6
CONTINUOUS
10
203.2896519999999896
20
-65.8702789999999965
11
198.0794589999999857
21
-67.2663459999999986
0
LINE
8
BLACK
6
CONTINUOUS
10
203.2896519999999896
20
-65.8702789999999965
11
202.9742029999999886
21
-64.6930069999999944
0
LINE
8
BLACK
6
CONTINUOUS
10
204.0942699999999945
20
-61.5792129999999958
11
202.2707849999999894
21
-62.0678139999999985
0
LINE
8
BLACK
6
CONTINUOUS
10
204.7976879999999937
20
-64.2044059999999916
11
202.9742029999999886
21
-64.6930069999999944
0
LINE
8
BLACK
6
CONTINUOUS
10
204.7976879999999937
20
-64.2044059999999916
11
204.0942699999999945
21
-61.5792129999999958
0
ARC
8
BLACK
10
193.3123209999999972
20
-65.7930439999999948
40
1.8806441659221449
50
-256.26663724
51
-165.30691027
0
ARC
8
BLACK
10
194.0813269999999875
20
-70.9549519999999916
40
0.855913345630853
50
-214.22121554
51
64.26207614
0
ARC
8
BLACK
10
198.6417579999999816
20
-69.4634199999999993
40
2.2678883644434529
50
-255.64438224
51
-174.84433149
0
CIRCLE
8
BLACK
10
198.9910799999999824
20
-69.6516790000000015
40
2.
0
CIRCLE
8
BLACK
10
203.8979829999999822
20
-68.3368779999999987
40
0.85
0
CIRCLE
8
BLACK
10
250.1618330000000014
20
-87.7508569999999963
40
1.0999999999999999
0
LINE
8
BLACK
6
CONTINUOUS
10
60.2782470000000004
20
-39.0076210000000003
11
62.1213089999999966
21
-39.4162180000000006
0
LINE
8
BLACK
6
CONTINUOUS
10
60.8664869999999993
20
-36.3542429999999968
11
60.2782470000000004
21
-39.0076210000000003
0
LINE
8
BLACK
6
CONTINUOUS
10
60.8664869999999993
20
-36.3542429999999968
11
62.7095489999999955
21
-36.7628399999999971
0
LINE
8
BLACK
6
CONTINUOUS
10
62.0167689999999965
20
-39.8877680000000012
11
62.7278919999999971
21
-40.04542
0
LINE
8
BLACK
6
CONTINUOUS
10
62.1213089999999966
20
-39.4162180000000006
11
62.0167689999999965
21
-39.8877680000000012
0
LINE
8
BLACK
6
CONTINUOUS
10
63.0009200000000007
20
-35.4485510000000019
11
62.7095489999999955
21
-36.7628399999999971
0
LINE
8
BLACK
6
CONTINUOUS
10
63.8190869999999961
20
-40.2869230000000016
11
65.7696499999999986
21
-40.7197609999999983
0
LINE
8
BLACK
6
CONTINUOUS
10
73.6491159999999923
20
-40.5409529999999947
11
68.3829860000000025
21
-39.3734800000000007
0
LINE
8
BLACK
6
CONTINUOUS
10
73.6491159999999923
20
-40.5409529999999947
11
73.9129130000000032
21
-39.3510419999999996
0
LINE
8
BLACK
6
CONTINUOUS
10
74.5011530000000022
20
-36.6976650000000006
11
74.6311269999999922
21
-36.1113900000000001
0
LINE
8
BLACK
6
CONTINUOUS
10
74.6311269999999922
20
-36.1113900000000001
11
65.2823109999999929
21
-34.038807999999996
0
LINE
8
BLACK
6
CONTINUOUS
10
75.7559749999999923
20
-39.759639
11
73.9129130000000032
21
-39.3510419999999996
0
LINE
8
BLACK
6
CONTINUOUS
10
75.7559749999999923
20
-39.759639
11
76.3442149999999913
21
-37.106262000000001
0
LINE
8
BLACK
6
CONTINUOUS
10
76.3442149999999913
20
-37.106262000000001
11
74.5011530000000022
21
-36.6976650000000006
0
ARC
8
BLACK
10
64.834779999999995
20
-35.8654280000000014
40
1.8806458817993885
50
76.23343004
51
167.19304127
0
ARC
8
BLACK
10
63.1333920000000006
20
-40.7991809999999973
40
0.8559123153623857
50
-241.72112903
51
36.76208212
0
ARC
8
BLACK
10
67.8672469999999919
20
-41.5819329999999994
40
2.2678742760552222
50
76.85531712
51
157.65594419
0
CIRCLE
8
BLACK
10
68.0901800000000037
20
-41.9102359999999976
40
2.
0
CIRCLE
8
BLACK
10
73.0497639999999961
20
-43.0097489999999993
40
0.85
0
LINE
8
BLACK
6
CONTINUOUS
10
52.0537149999999968
20
-76.1060879999999997
11
53.8967770000000002
21
-76.5146850000000001
0
LINE
8
BLACK
6
CONTINUOUS
10
52.6419549999999958
20
-73.4527099999999962
11
52.0537149999999968
21
-76.1060879999999997
0
LINE
8
BLACK
6
CONTINUOUS
10
52.6419549999999958
20
-73.4527099999999962
11
54.4850169999999991
21
-73.8613069999999965
0
LINE
8
BLACK
6
CONTINUOUS
10
53.7922370000000001
20
-76.9862349999999935
11
54.5033600000000007
21
-77.1438869999999923
0
LINE
8
BLACK
6
CONTINUOUS
10
53.8967770000000002
20
-76.5146850000000001
11
53.7922370000000001
21
-76.9862349999999935
0
LINE
8
BLACK
6
CONTINUOUS
10
54.7763879999999972
20
-72.5470179999999942
11
54.4850169999999991
21
-73.8613069999999965
0
LINE
8
BLACK
6
CONTINUOUS
10
55.5945549999999997
20
-77.385390000000001
11
57.5451179999999951
21
-77.8182279999999906
0
LINE
8
BLACK
6
CONTINUOUS
10
65.4245839999999959
20
-77.6394200000000012
11
60.158453999999999
21
-76.4719470000000001
0
LINE
8
BLACK
6
CONTINUOUS
10
65.4245839999999959
20
-77.6394200000000012
11
65.6883809999999926
21
-76.4495089999999919
0
LINE
8
BLACK
6
CONTINUOUS
10
66.2766209999999916
20
-73.7961320000000001
11
66.4065949999999958
21
-73.2098569999999995
0
LINE
8
BLACK
6
CONTINUOUS
10
66.4065949999999958
20
-73.2098569999999995
11
57.0577789999999965
21
-71.1372750000000025
0
LINE
8
BLACK
6
CONTINUOUS
10
67.5314429999999959
20
-76.8581059999999923
11
65.6883809999999926
21
-76.4495089999999919
0
LINE
8
BLACK
6
CONTINUOUS
10
67.5314429999999959
20
-76.8581059999999923
11
68.1196829999999949
21
-74.2047290000000004
0
LINE
8
BLACK
6
CONTINUOUS
10
68.1196829999999949
20
-74.2047290000000004
11
66.2766209999999916
21
-73.7961320000000001
0
ARC
8
BLACK
10
56.6102479999999986
20
-72.9638949999999937
40
1.8806458817993885
50
76.23343004
51
167.19304127
0
ARC
8
BLACK
10
54.9088599999999971
20
-77.8976479999999896
40
0.8559123153623857
50
-241.72112903
51
36.76208212
0
ARC
8
BLACK
10
59.6427149999999955
20
-78.6803999999999917
40
2.2678742760552222
50
76.85531712
51
157.65594419
0
CIRCLE
8
BLACK
10
59.8656480000000002
20
-79.008702999999997
40
2.
0
CIRCLE
8
BLACK
10
64.8252319999999997
20
-80.1082159999999988
40
0.85
0
LINE
8
BLACK
6
CONTINUOUS
10
41.2518109999999965
20
-37.0809029999999993
11
43.0948729999999998
21
-37.4894999999999996
0
LINE
8
BLACK
6
CONTINUOUS
10
41.8400509999999954
20
-34.4275249999999957
11
41.2518109999999965
21
-37.0809029999999993
0
LINE
8
BLACK
6
CONTINUOUS
10
41.8400509999999954
20
-34.4275249999999957
11
43.6831129999999987
21
-34.836121999999996
0
LINE
8
BLACK
6
CONTINUOUS
10
42.9903329999999997
20
-37.9610500000000002
11
43.7014560000000003
21
-38.118701999999999
0
LINE
8
BLACK
6
CONTINUOUS
10
43.0948729999999998
20
-37.4894999999999996
11
42.9903329999999997
21
-37.9610500000000002
0
LINE
8
BLACK
6
CONTINUOUS
10
43.9744839999999968
20
-33.5218330000000009
11
43.6831129999999987
21
-34.836121999999996
0
LINE
8
BLACK
6
CONTINUOUS
10
44.7926509999999993
20
-38.3602050000000006
11
46.7432139999999947
21
-38.7930429999999973
0
LINE
8
BLACK
6
CONTINUOUS
10
54.6226799999999955
20
-38.6142350000000008
11
49.3565499999999986
21
-37.4467619999999997
0
LINE
8
BLACK
6
CONTINUOUS
10
54.6226799999999955
20
-38.6142350000000008
11
54.8864769999999993
21
-37.4243239999999986
0
LINE
8
BLACK
6
CONTINUOUS
10
55.4747169999999983
20
-34.7709469999999996
11
55.6046909999999954
21
-34.1846719999999991
0
LINE
8
BLACK
6
CONTINUOUS
10
55.6046909999999954
20
-34.1846719999999991
11
46.2558749999999961
21
-32.112090000000002
0
LINE
8
BLACK
6
CONTINUOUS
10
56.7295389999999955
20
-37.8329209999999989
11
54.8864769999999993
21
-37.4243239999999986
0
LINE
8
BLACK
6
CONTINUOUS
10
56.7295389999999955
20
-37.8329209999999989
11
57.3177789999999945
21
-35.1795439999999999
0
LINE
8
BLACK
6
CONTINUOUS
10
57.3177789999999945
20
-35.1795439999999999
11
55.4747169999999983
21
-34.7709469999999996
0
ARC
8
BLACK
10
45.8083439999999982
20
-33.9387100000000004
40
1.8806458817993885
50
76.23343004
51
167.19304127
0
ARC
8
BLACK
10
44.1069559999999967
20
-38.8724629999999962
40
0.8559123153623857
50
-241.72112903
51
36.76208212
0
ARC
8
BLACK
10
48.8408109999999951
20
-39.6552149999999983
40
2.2678742760552222
50
76.85531712
51
157.65594419
0
CIRCLE
8
BLACK
10
49.0637439999999998
20
-39.9835179999999966
40
2.
0
CIRCLE
8
BLACK
10
54.0233279999999993
20
-41.0830309999999983
40
0.85
0
LINE
8
BLACK
6
CONTINUOUS
10
71.1005210000000005
20
-77.9730249999999927
11
72.9435829999999896
21
-78.381621999999993
0
LINE
8
BLACK
6
CONTINUOUS
10
71.6887609999999995
20
-75.3196470000000033
11
71.1005210000000005
21
-77.9730249999999927
0
LINE
8
BLACK
6
CONTINUOUS
10
71.6887609999999995
20
-75.3196470000000033
11
73.5318230000000028
21
-75.7282440000000037
0
LINE
8
BLACK
6
CONTINUOUS
10
72.8390430000000038
20
-78.8531720000000007
11
73.5501659999999902
21
-79.0108239999999995
0
LINE
8
BLACK
6
CONTINUOUS
10
72.9435829999999896
20
-78.381621999999993
11
72.8390430000000038
21
-78.8531720000000007
0
LINE
8
BLACK
6
CONTINUOUS
10
73.8231940000000009
20
-74.4139550000000014
11
73.5318230000000028
21
-75.7282440000000037
0
LINE
8
BLACK
6
CONTINUOUS
10
74.6413610000000034
20
-79.252326999999994
11
76.5919239999999917
21
-79.6851649999999978
0
LINE
8
BLACK
6
CONTINUOUS
10
84.4713899999999995
20
-79.5063569999999942
11
79.2052599999999956
21
-78.3388839999999931
0
LINE
8
BLACK
6
CONTINUOUS
10
84.4713899999999995
20
-79.5063569999999942
11
84.7351869999999963
21
-78.3164459999999991
0
LINE
8
BLACK
6
CONTINUOUS
10
85.3234269999999952
20
-75.663068999999993
11
85.4534009999999995
21
-75.0767939999999925
0
LINE
8
BLACK
6
CONTINUOUS
10
85.4534009999999995
20
-75.0767939999999925
11
76.1045850000000002
21
-73.0042119999999954
0
LINE
8
BLACK
6
CONTINUOUS
10
86.5782489999999996
20
-78.7250429999999994
11
84.7351869999999963
21
-78.3164459999999991
0
LINE
8
BLACK
6
CONTINUOUS
10
86.5782489999999996
20
-78.7250429999999994
11
87.1664889999999986
21
-76.0716659999999933
0
LINE
8
BLACK
6
CONTINUOUS
10
87.1664889999999986
20
-76.0716659999999933
11
85.3234269999999952
21
-75.663068999999993
0
ARC
8
BLACK
10
75.6570540000000022
20
-74.8308320000000009
40
1.8806458817993885
50
76.23343004
51
167.19304127
0
ARC
8
BLACK
10
73.9556659999999937
20
-79.7645849999999967
40
0.8559123153623857
50
-241.72112903
51
36.76208212
0
ARC
8
BLACK
10
78.6895209999999992
20
-80.5473369999999989
40
2.2678742760552222
50
76.85531712
51
157.65594419
0
CIRCLE
8
BLACK
10
78.9124539999999968
20
-80.87563999999999
40
2.
0
CIRCLE
8
BLACK
10
83.8720379999999892
20
-81.9751529999999917
40
0.85
0
CIRCLE
8
BLACK
10
59.5259280000000004
20
-31.2929469999999981
40
1.0999999999999999
0
LINE
8
BLACK
6
CONTINUOUS
10
93.3310319999999933
20
-66.4110759999999942
11
95.1545179999999959
21
-66.8996759999999995
0
LINE
8
BLACK
6
CONTINUOUS
10
94.03445099999999
20
-63.7858809999999963
11
93.3310319999999933
21
-66.4110759999999942
0
LINE
8
BLACK
6
CONTINUOUS
10
94.03445099999999
20
-63.7858809999999963
11
95.8579359999999951
21
-64.2744830000000036
0
LINE
8
BLACK
6
CONTINUOUS
10
95.0295089999999902
20
-67.3662169999999918
11
95.7330779999999919
21
-67.5547380000000004
0
LINE
8
BLACK
6
CONTINUOUS
10
95.1545179999999959
20
-66.8996759999999995
11
95.0295089999999902
21
-67.3662169999999918
0
LINE
8
BLACK
6
CONTINUOUS
10
96.2063579999999945
20
-62.9741529999999941
11
95.8579359999999951
21
-64.2744830000000036
0
LINE
8
BLACK
6
CONTINUOUS
10
96.8126999999999924
20
-67.8436090000000007
11
98.7425250000000005
21
-68.361116999999993
0
LINE
8
BLACK
6
CONTINUOUS
10
106.6222929999999991
20
-68.5261759999999924
11
101.4120989999999978
21
-67.1301089999999903
0
LINE
8
BLACK
6
CONTINUOUS
10
106.6222929999999991
20
-68.5261759999999924
11
106.9377420000000001
21
-67.348905000000002
0
LINE
8
BLACK
6
CONTINUOUS
10
107.6411599999999993
20
-64.7237119999999919
11
107.7965829999999983
21
-64.1436640000000011
0
LINE
8
BLACK
6
CONTINUOUS
10
107.7965829999999983
20
-64.1436640000000011
11
98.5470710000000025
21
-61.665264999999998
0
LINE
8
BLACK
6
CONTINUOUS
10
108.761226999999991
20
-67.8375059999999905
11
106.9377420000000001
21
-67.348905000000002
0
LINE
8
BLACK
6
CONTINUOUS
10
108.761226999999991
20
-67.8375059999999905
11
109.4646449999999902
21
-65.2123129999999946
0
LINE
8
BLACK
6
CONTINUOUS
10
109.4646449999999902
20
-65.2123129999999946
11
107.6411599999999993
21
-64.7237119999999919
0
ARC
8
BLACK
10
98.0202869999999962
20
-63.4706229999999962
40
1.8806437403030378
50
73.73332430
51
164.69308896
0
ARC
8
BLACK
10
96.1053129999999953
20
-68.3254699999999957
40
0.8559126071568288
50
-244.22117869
51
34.26208112
0
ARC
8
BLACK
10
100.8005199999999917
20
-69.313966999999991
40
2.2678771004013867
50
74.35535087
51
155.15590204
0
CIRCLE
8
BLACK
10
101.0089199999999892
20
-69.6516790000000015
40
2.
0
CIRCLE
8
BLACK
10
105.915822999999989
20
-70.96647999999999
40
0.85
0
LINE
8
BLACK
6
CONTINUOUS
10
91.7753569999999996
20
-107.0224059999999895
11
93.4498660000000001
21
-107.8940999999999946
0
LINE
8
BLACK
6
CONTINUOUS
10
93.0302980000000019
20
-104.6116880000000009
11
91.7753569999999996
21
-107.0224059999999895
0
LINE
8
BLACK
6
CONTINUOUS
10
93.0302980000000019
20
-104.6116880000000009
11
94.7048059999999907
21
-105.4833819999999918
0
LINE
8
BLACK
6
CONTINUOUS
10
93.2268419999999907
20
-108.3225249999999988
11
93.8729309999999941
21
-108.6588579999999951
0
LINE
8
BLACK
6
CONTINUOUS
10
93.4498660000000001
20
-107.8940999999999946
11
93.2268419999999907
21
-108.3225249999999988
0
LINE
8
BLACK
6
CONTINUOUS
10
94.8644379999999927
20
-109.1745540000000005
11
96.6365109999999987
21
-110.0974859999999893
0
LINE
8
BLACK
6
CONTINUOUS
10
95.3264119999999906
20
-104.2892879999999991
11
94.7048059999999907
21
-105.4833819999999918
0
LINE
8
BLACK
6
CONTINUOUS
10
104.293769999999995
20
-111.9641259999999932
11
99.5092429999999979
21
-109.4734589999999912
0
LINE
8
BLACK
6
CONTINUOUS
10
104.293769999999995
20
-111.9641259999999932
11
104.8565490000000011
21
-110.8830370000000016
0
LINE
8
BLACK
6
CONTINUOUS
10
106.1114899999999892
20
-108.4723189999999988
11
106.388773999999998
21
-107.939661000000001
0
LINE
8
BLACK
6
CONTINUOUS
10
106.388773999999998
20
-107.939661000000001
11
97.8949360000000013
21
-103.5180479999999932
0
LINE
8
BLACK
6
CONTINUOUS
10
106.5310580000000016
20
-111.7547309999999925
11
104.8565490000000011
21
-110.8830370000000016
0
LINE
8
BLACK
6
CONTINUOUS
10
106.5310580000000016
20
-111.7547309999999925
11
107.7859989999999897
21
-109.3440129999999897
0
LINE
8
BLACK
6
CONTINUOUS
10
107.7859989999999897
20
-109.3440129999999897
11
106.1114899999999892
21
-108.4723189999999988
0
ARC
8
BLACK
10
94.0695249999999987
20
-109.4918859999999938
40
0.8559125398035713
50
-256.72120331
51
21.76205401
0
ARC
8
BLACK
10
96.989885000000001
20
-105.1665869999999927
40
1.880637114684808
50
61.23313142
51
152.19328461
0
ARC
8
BLACK
10
98.4394920000000013
20
-111.473196999999999
40
2.2678891599639517
50
61.85564311
51
142.65563538
0
CIRCLE
8
BLACK
10
98.5698529999999948
20
-111.8479939999999999
40
2.
0
CIRCLE
8
BLACK
10
103.0758679999999998
20
-114.1936769999999939
40
0.85
0
LINE
8
BLACK
6
CONTINUOUS
10
250.258718999999985
20
-74.9274959999999908
11
250.7772999999999968
21
-77.5953619999999944
0
LINE
8
BLACK
6
CONTINUOUS
10
250.258718999999985
20
-74.9274959999999908
11
252.1118459999999857
21
-74.5672849999999983
0
LINE
8
BLACK
6
CONTINUOUS
10
250.7772999999999968
20
-77.5953619999999944
11
252.6304269999999974
21
-77.2351510000000019
0
LINE
8
BLACK
6
CONTINUOUS
10
251.8549789999999859
20
-73.2458179999999999
11
252.1118459999999857
21
-74.5672849999999983
0
LINE
8
BLACK
6
CONTINUOUS
10
252.6304269999999974
20
-77.2351510000000019
11
252.7225869999999759
21
-77.7092760000000027
0
LINE
8
BLACK
6
CONTINUOUS
10
252.7225869999999759
20
-77.7092760000000027
11
253.43759399999999
21
-77.5702929999999924
0
LINE
8
BLACK
6
CONTINUOUS
10
254.5345839999999953
20
-77.3566529999999943
11
256.4959609999999657
21
-76.9758059999999915
0
LINE
8
BLACK
6
CONTINUOUS
10
262.7848839999999768
20
-69.2161479999999898
11
253.3850180000000023
21
-71.043295999999998
0
LINE
8
BLACK
6
CONTINUOUS
10
262.8994659999999612
20
-69.8056239999999946
11
262.7848839999999768
21
-69.2161479999999898
0
LINE
8
BLACK
6
CONTINUOUS
10
263.6506049999999846
20
-73.6698980000000034
11
258.355718999999965
21
-74.6991199999999935
0
LINE
8
BLACK
6
CONTINUOUS
10
263.6506049999999846
20
-73.6698980000000034
11
263.4180470000000014
21
-72.4734899999999982
0
LINE
8
BLACK
6
CONTINUOUS
10
264.7525929999999903
20
-69.4454119999999904
11
262.8994659999999612
21
-69.8056239999999946
0
LINE
8
BLACK
6
CONTINUOUS
10
265.2711729999999761
20
-72.1132789999999915
11
263.4180470000000014
21
-72.4734899999999982
0
LINE
8
BLACK
6
CONTINUOUS
10
265.2711729999999761
20
-72.1132789999999915
11
264.7525929999999903
21
-69.4454119999999904
0
ARC
8
BLACK
10
253.7029659999999751
20
-72.8968679999999978
40
1.8806440531554607
50
-260.26663205
51
-169.30690836
0
ARC
8
BLACK
10
254.1100219999999865
20
-78.099845000000002
40
0.855913103479553
50
-218.22121830
51
60.26204342
0
ARC
8
BLACK
10
258.7633879999999635
20
-76.930066999999994
40
2.2678882812982653
50
-259.64438993
51
-178.84437458
0
CIRCLE
8
BLACK
10
259.0987269999999967
20
-77.142234000000002
40
2.
0
CIRCLE
8
BLACK
10
264.0853930000000105
20
-76.1729239999999947
40
0.85
0
LINE
8
BLACK
6
CONTINUOUS
10
172.1986349999999959
20
-75.863987999999992
11
172.9020529999999951
21
-78.4891810000000021
0
LINE
8
BLACK
6
CONTINUOUS
10
172.1986349999999959
20
-75.863987999999992
11
174.022120000000001
21
-75.3753859999999918
0
LINE
8
BLACK
6
CONTINUOUS
10
172.9020529999999951
20
-78.4891810000000021
11
174.7255389999999977
21
-78.0005809999999968
0
LINE
8
BLACK
6
CONTINUOUS
10
173.6736980000000017
20
-74.075057000000001
11
174.022120000000001
21
-75.3753859999999918
0
LINE
8
BLACK
6
CONTINUOUS
10
174.7255389999999977
20
-78.0005809999999968
11
174.8505480000000034
21
-78.4671209999999917
0
LINE
8
BLACK
6
CONTINUOUS
10
174.8505480000000034
20
-78.4671209999999917
11
175.5541179999999883
21
-78.2785999999999973
0
LINE
8
BLACK
6
CONTINUOUS
10
176.6335329999999999
20
-77.9889579999999967
11
178.5635659999999802
21
-77.4722209999999905
0
LINE
8
BLACK
6
CONTINUOUS
10
184.2958819999999776
20
-69.2927710000000019
11
175.046369999999996
21
-71.7711699999999979
0
LINE
8
BLACK
6
CONTINUOUS
10
184.4513059999999882
20
-69.8728179999999952
11
184.2958819999999776
21
-69.2927710000000019
0
LINE
8
BLACK
6
CONTINUOUS
10
185.4701729999999884
20
-73.6752829999999932
11
180.2599799999999846
21
-75.0713499999999954
0
LINE
8
BLACK
6
CONTINUOUS
10
185.4701729999999884
20
-73.6752829999999932
11
185.1547239999999874
21
-72.4980109999999911
0
LINE
8
BLACK
6
CONTINUOUS
10
186.2747909999999933
20
-69.3842169999999925
11
184.4513059999999882
21
-69.8728179999999952
0
LINE
8
BLACK
6
CONTINUOUS
10
186.9782089999999926
20
-72.0094100000000026
11
185.1547239999999874
21
-72.4980109999999911
0
LINE
8
BLACK
6
CONTINUOUS
10
186.9782089999999926
20
-72.0094100000000026
11
186.2747909999999933
21
-69.3842169999999925
0
ARC
8
BLACK
10
175.492841999999996
20
-73.5980479999999915
40
1.8806441659221449
50
-256.26663724
51
-165.30691027
0
ARC
8
BLACK
10
176.2618479999999863
20
-78.7599560000000025
40
0.855913345630853
50
-214.22121554
51
64.26207614
0
ARC
8
BLACK
10
180.8222789999999804
20
-77.268423999999996
40
2.2678883644434529
50
-255.64438224
51
-174.84433149
0
CIRCLE
8
BLACK
10
181.1716009999999812
20
-77.4566829999999982
40
2.
0
CIRCLE
8
BLACK
10
186.078503999999981
20
-76.1418819999999954
40
0.85
0
CIRCLE
8
BLACK
10
240.4740719999999783
20
-31.2929469999999981
40
1.0999999999999999
0
LINE
8
BLACK
6
CONTINUOUS
10
56.1659819999999996
20
-57.5568559999999962
11
58.0090439999999958
21
-57.9654529999999966
0
LINE
8
BLACK
6
CONTINUOUS
10
56.7542219999999986
20
-54.9034779999999998
11
56.1659819999999996
21
-57.5568559999999962
0
LINE
8
BLACK
6
CONTINUOUS
10
56.7542219999999986
20
-54.9034779999999998
11
58.5972839999999948
21
-55.3120750000000001
0
LINE
8
BLACK
6
CONTINUOUS
10
57.9045039999999958
20
-58.4370029999999971
11
58.6156269999999964
21
-58.5946549999999959
0
LINE
8
BLACK
6
CONTINUOUS
10
58.0090439999999958
20
-57.9654529999999966
11
57.9045039999999958
21
-58.4370029999999971
0
LINE
8
BLACK
6
CONTINUOUS
10
58.888655
20
-53.9977859999999978
11
58.5972839999999948
21
-55.3120750000000001
0
LINE
8
BLACK
6
CONTINUOUS
10
59.7068219999999954
20
-58.8361579999999975
11
61.6573849999999979
21
-59.2689959999999942
0
LINE
8
BLACK
6
CONTINUOUS
10
69.5368509999999986
20
-59.0901879999999977
11
64.2707209999999947
21
-57.9227149999999966
0
LINE
8
BLACK
6
CONTINUOUS
10
69.5368509999999986
20
-59.0901879999999977
11
69.8006479999999954
21
-57.9002769999999956
0
LINE
8
BLACK
6
CONTINUOUS
10
70.3888879999999943
20
-55.2468999999999966
11
70.5188619999999986
21
-54.660624999999996
0
LINE
8
BLACK
6
CONTINUOUS
10
70.5188619999999986
20
-54.660624999999996
11
61.1700459999999993
21
-52.588042999999999
0
LINE
8
BLACK
6
CONTINUOUS
10
71.6437099999999987
20
-58.3088739999999959
11
69.8006479999999954
21
-57.9002769999999956
0
LINE
8
BLACK
6
CONTINUOUS
10
71.6437099999999987
20
-58.3088739999999959
11
72.2319499999999977
21
-55.6554969999999969
0
LINE
8
BLACK
6
CONTINUOUS
10
72.2319499999999977
20
-55.6554969999999969
11
70.3888879999999943
21
-55.2468999999999966
0
ARC
8
BLACK
10
60.7225149999999942
20
-54.4146629999999973
40
1.8806458817993885
50
76.23343004
51
167.19304127
0
ARC
8
BLACK
10
59.0211269999999999
20
-59.3484160000000003
40
0.8559123153623857
50
-241.72112903
51
36.76208212
0
ARC
8
BLACK
10
63.7549819999999983
20
-60.1311679999999953
40
2.2678742760552222
50
76.85531712
51
157.65594419
0
CIRCLE
8
BLACK
10
63.9779149999999959
20
-60.4594710000000006
40
2.
0
CIRCLE
8
BLACK
10
68.9374990000000025
20
-61.5589839999999953
40
0.85
0
LINE
8
BLACK
6
CONTINUOUS
10
109.446432999999999
20
-68.6149719999999945
11
107.4144329999999883
21
-68.6149719999999945
0
LINE
8
BLACK
6
CONTINUOUS
10
107.4144329999999883
20
-68.6149719999999945
11
107.4144329999999883
21
-73.7965719999999976
0
LINE
8
BLACK
6
CONTINUOUS
10
107.4144329999999883
20
-73.7965719999999976
11
109.446432999999999
21
-73.7965719999999976
0
LINE
8
BLACK
6
CONTINUOUS
10
109.446432999999999
20
-73.7965719999999976
11
109.446432999999999
21
-68.6149719999999945
0
LINE
8
BLACK
6
CONTINUOUS
10
76.6832699999999932
20
-40.4179919999999981
11
74.6512699999999967
21
-40.4179919999999981
0
LINE
8
BLACK
6
CONTINUOUS
10
74.6512699999999967
20
-40.4179919999999981
11
74.6512699999999967
21
-45.5995920000000012
0
LINE
8
BLACK
6
CONTINUOUS
10
74.6512699999999967
20
-45.5995920000000012
11
76.6832699999999932
21
-45.5995920000000012
0
LINE
8
BLACK
6
CONTINUOUS
10
76.6832699999999932
20
-45.5995920000000012
11
76.6832699999999932
21
-40.4179919999999981
0
CIRCLE
8
BLACK
10
142.3700039999999944
20
-71.8168000000000006
40
0.85
0
CIRCLE
8
BLACK
10
142.3700039999999944
20
-74.3567999999999927
40
0.85
0
CIRCLE
8
BLACK
10
142.3700039999999944
20
-76.8967999999999989
40
0.85
0
CIRCLE
8
BLACK
10
142.3700039999999944
20
-79.436799999999991
40
0.85
0
CIRCLE
8
BLACK
10
142.3700039999999944
20
-81.9767999999999972
40
0.85
0
CIRCLE
8
BLACK
10
142.3700039999999944
20
-84.5167999999999893
40
0.85
0
CIRCLE
8
BLACK
10
142.3700039999999944
20
-87.0567999999999955
40
0.85
0
CIRCLE
8
BLACK
10
142.3700039999999944
20
-89.5968000000000018
40
0.85
0
CIRCLE
8
BLACK
10
142.3700039999999944
20
-92.1367999999999938
40
0.85
0
CIRCLE
8
BLACK
10
142.3700039999999944
20
-94.6768000000000001
40
0.85
0
CIRCLE
8
BLACK
10
142.3700039999999944
20
-97.2167999999999921
40
0.85
0
CIRCLE
8
BLACK
10
142.3700039999999944
20
-99.7567999999999984
40
0.85
0
CIRCLE
8
BLACK
10
157.6100040000000035
20
-71.8168000000000006
40
0.85
0
CIRCLE
8
BLACK
10
157.6100040000000035
20
-74.3567999999999927
40
0.85
0
CIRCLE
8
BLACK
10
157.6100040000000035
20
-76.8967999999999989
40
0.85
0
CIRCLE
8
BLACK
10
157.6100040000000035
20
-79.436799999999991
40
0.85
0
CIRCLE
8
BLACK
10
157.6100040000000035
20
-81.9767999999999972
40
0.85
0
CIRCLE
8
BLACK
10
157.6100040000000035
20
-84.5167999999999893
40
0.85
0
CIRCLE
8
BLACK
10
157.6100040000000035
20
-87.0567999999999955
40
0.85
0
CIRCLE
8
BLACK
10
157.6100040000000035
20
-89.5968000000000018
40
0.85
0
CIRCLE
8
BLACK
10
157.6100040000000035
20
-92.1367999999999938
40
0.85
0
CIRCLE
8
BLACK
10
157.6100040000000035
20
-94.6768000000000001
40
0.85
0
CIRCLE
8
BLACK
10
157.6100040000000035
20
-97.2167999999999921
40
0.85
0
CIRCLE
8
BLACK
10
157.6100040000000035
20
-99.7567999999999984
40
0.85
0
LINE
8
BLACK
6
CONTINUOUS
10
114.0977319999999935
20
-50.1380399999999966
11
112.065731999999997
21
-50.1380399999999966
0
LINE
8
BLACK
6
CONTINUOUS
10
112.065731999999997
20
-50.1380399999999966
11
112.065731999999997
21
-55.3196399999999997
0
LINE
8
BLACK
6
CONTINUOUS
10
112.065731999999997
20
-55.3196399999999997
11
114.0977319999999935
21
-55.3196399999999997
0
LINE
8
BLACK
6
CONTINUOUS
10
114.0977319999999935
20
-55.3196399999999997
11
114.0977319999999935
21
-50.1380399999999966
0
LINE
8
BLACK
6
CONTINUOUS
10
185.611818999999997
20
-57.8631099999999989
11
187.6438189999999793
21
-57.8631099999999989
0
LINE
8
BLACK
6
CONTINUOUS
10
187.6438189999999793
20
-57.8631099999999989
11
187.6438189999999793
21
-52.6815099999999958
0
LINE
8
BLACK
6
CONTINUOUS
10
187.6438189999999793
20
-52.6815099999999958
11
185.611818999999997
21
-52.6815099999999958
0
LINE
8
BLACK
6
CONTINUOUS
10
185.611818999999997
20
-52.6815099999999958
11
185.611818999999997
21
-57.8631099999999989
0
LINE
8
BLACK
6
CONTINUOUS
10
72.5768079999999998
20
-58.9799439999999962
11
70.5448080000000033
21
-58.9799439999999962
0
LINE
8
BLACK
6
CONTINUOUS
10
70.5448080000000033
20
-58.9799439999999962
11
70.5448080000000033
21
-64.1615439999999921
0
LINE
8
BLACK
6
CONTINUOUS
10
70.5448080000000033
20
-64.1615439999999921
11
72.5768079999999998
21
-64.1615439999999921
0
LINE
8
BLACK
6
CONTINUOUS
10
72.5768079999999998
20
-64.1615439999999921
11
72.5768079999999998
21
-58.9799439999999962
0
LINE
8
BLACK
6
CONTINUOUS
10
243.8131509999999764
20
-41.0958699999999979
11
241.7811509999999942
21
-41.0958699999999979
0
LINE
8
BLACK
6
CONTINUOUS
10
241.7811509999999942
20
-41.0958699999999979
11
241.7811509999999942
21
-46.277470000000001
0
LINE
8
BLACK
6
CONTINUOUS
10
241.7811509999999942
20
-46.277470000000001
11
243.8131509999999764
21
-46.277470000000001
0
LINE
8
BLACK
6
CONTINUOUS
10
243.8131509999999764
20
-46.277470000000001
11
243.8131509999999764
21
-41.0958699999999979
0
LINE
8
BLACK
6
CONTINUOUS
10
129.6450219999999831
20
-63.1454899999999952
11
131.6770219999999938
21
-63.1454899999999952
0
LINE
8
BLACK
6
CONTINUOUS
10
131.6770219999999938
20
-63.1454899999999952
11
131.6770219999999938
21
-57.9638899999999992
0
LINE
8
BLACK
6
CONTINUOUS
10
131.6770219999999938
20
-57.9638899999999992
11
129.6450219999999831
21
-57.9638899999999992
0
LINE
8
BLACK
6
CONTINUOUS
10
129.6450219999999831
20
-57.9638899999999992
11
129.6450219999999831
21
-63.1454899999999952
0
LINE
8
BLACK
6
CONTINUOUS
10
210.1169789999999864
20
-63.8780000000000001
11
208.0849790000000041
21
-63.8780000000000001
0
LINE
8
BLACK
6
CONTINUOUS
10
208.0849790000000041
20
-63.8780000000000001
11
208.0849790000000041
21
-69.0596000000000032
0
LINE
8
BLACK
6
CONTINUOUS
10
208.0849790000000041
20
-69.0596000000000032
11
210.1169789999999864
21
-69.0596000000000032
0
LINE
8
BLACK
6
CONTINUOUS
10
210.1169789999999864
20
-69.0596000000000032
11
210.1169789999999864
21
-63.8780000000000001
0
LINE
8
BLACK
6
CONTINUOUS
10
174.4620689999999854
20
-78.9732130000000012
11
172.4300690000000031
21
-78.9732130000000012
0
LINE
8
BLACK
6
CONTINUOUS
10
172.4300690000000031
20
-78.9732130000000012
11
172.4300690000000031
21
-84.1548129999999901
0
LINE
8
BLACK
6
CONTINUOUS
10
172.4300690000000031
20
-84.1548129999999901
11
174.4620689999999854
21
-84.1548129999999901
0
LINE
8
BLACK
6
CONTINUOUS
10
174.4620689999999854
20
-84.1548129999999901
11
174.4620689999999854
21
-78.9732130000000012
0
LINE
8
BLACK
6
CONTINUOUS
10
125.2474819999999909
20
-81.6113429999999909
11
127.2794819999999874
21
-81.6113429999999909
0
LINE
8
BLACK
6
CONTINUOUS
10
127.2794819999999874
20
-81.6113429999999909
11
127.2794819999999874
21
-76.429743000000002
0
LINE
8
BLACK
6
CONTINUOUS
10
127.2794819999999874
20
-76.429743000000002
11
125.2474819999999909
21
-76.429743000000002
0
LINE
8
BLACK
6
CONTINUOUS
10
125.2474819999999909
20
-76.429743000000002
11
125.2474819999999909
21
-81.6113429999999909
0
LINE
8
BLACK
6
CONTINUOUS
10
55.8455999999999975
20
-43.2563999999999993
11
57.8775999999999939
21
-43.2563999999999993
0
LINE
8
BLACK
6
CONTINUOUS
10
57.8775999999999939
20
-43.2563999999999993
11
57.8775999999999939
21
-38.0747999999999962
0
LINE
8
BLACK
6
CONTINUOUS
10
57.8775999999999939
20
-38.0747999999999962
11
55.8455999999999975
21
-38.0747999999999962
0
LINE
8
BLACK
6
CONTINUOUS
10
55.8455999999999975
20
-38.0747999999999962
11
55.8455999999999975
21
-43.2563999999999993
0
LINE
8
BLACK
6
CONTINUOUS
10
120.8442569999999989
20
-100.1344390000000004
11
122.8762569999999954
21
-100.1344390000000004
0
LINE
8
BLACK
6
CONTINUOUS
10
122.8762569999999954
20
-100.1344390000000004
11
122.8762569999999954
21
-94.9528389999999973
0
LINE
8
BLACK
6
CONTINUOUS
10
122.8762569999999954
20
-94.9528389999999973
11
120.8442569999999989
21
-94.9528389999999973
0
LINE
8
BLACK
6
CONTINUOUS
10
120.8442569999999989
20
-94.9528389999999973
11
120.8442569999999989
21
-100.1344390000000004
0
LINE
8
BLACK
6
CONTINUOUS
10
178.8652940000000058
20
-97.4963089999999966
11
176.8332939999999951
21
-97.4963089999999966
0
LINE
8
BLACK
6
CONTINUOUS
10
176.8332939999999951
20
-97.4963089999999966
11
176.8332939999999951
21
-102.6779089999999997
0
LINE
8
BLACK
6
CONTINUOUS
10
176.8332939999999951
20
-102.6779089999999997
11
178.8652940000000058
21
-102.6779089999999997
0
LINE
8
BLACK
6
CONTINUOUS
10
178.8652940000000058
20
-102.6779089999999997
11
178.8652940000000058
21
-97.4963089999999966
0
LINE
8
BLACK
6
CONTINUOUS
10
170.0645289999999932
20
-60.5073599999999985
11
168.0325289999999825
21
-60.5073599999999985
0
LINE
8
BLACK
6
CONTINUOUS
10
168.0325289999999825
20
-60.5073599999999985
11
168.0325289999999825
21
-65.6889599999999945
0
LINE
8
BLACK
6
CONTINUOUS
10
168.0325289999999825
20
-65.6889599999999945
11
170.0645289999999932
21
-65.6889599999999945
0
LINE
8
BLACK
6
CONTINUOUS
10
170.0645289999999932
20
-65.6889599999999945
11
170.0645289999999932
21
-60.5073599999999985
0
LINE
8
BLACK
6
CONTINUOUS
10
89.5925719999999899
20
-66.0239009999999951
11
91.6245720000000006
21
-66.0239009999999951
0
LINE
8
BLACK
6
CONTINUOUS
10
91.6245720000000006
20
-66.0239009999999951
11
91.6245720000000006
21
-60.8423009999999991
0
LINE
8
BLACK
6
CONTINUOUS
10
91.6245720000000006
20
-60.8423009999999991
11
89.5925719999999899
21
-60.8423009999999991
0
LINE
8
BLACK
6
CONTINUOUS
10
89.5925719999999899
20
-60.8423009999999991
11
89.5925719999999899
21
-66.0239009999999951
0
LINE
8
BLACK
6
CONTINUOUS
10
105.2719989999999939
20
-87.1374289999999974
11
103.2399989999999974
21
-87.1374289999999974
0
LINE
8
BLACK
6
CONTINUOUS
10
103.2399989999999974
20
-87.1374289999999974
11
103.2399989999999974
21
-92.3190290000000005
0
LINE
8
BLACK
6
CONTINUOUS
10
103.2399989999999974
20
-92.3190290000000005
11
105.2719989999999939
21
-92.3190290000000005
0
LINE
8
BLACK
6
CONTINUOUS
10
105.2719989999999939
20
-92.3190290000000005
11
105.2719989999999939
21
-87.1374289999999974
0
LINE
8
BLACK
6
CONTINUOUS
10
248.3216979999999978
20
-59.4947090000000003
11
246.2896979999999871
21
-59.4947090000000003
0
LINE
8
BLACK
6
CONTINUOUS
10
246.2896979999999871
20
-59.4947090000000003
11
246.2896979999999871
21
-64.6763090000000034
0
LINE
8
BLACK
6
CONTINUOUS
10
246.2896979999999871
20
-64.6763090000000034
11
248.3216979999999978
21
-64.6763090000000034
0
LINE
8
BLACK
6
CONTINUOUS
10
248.3216979999999978
20
-64.6763090000000034
11
248.3216979999999978
21
-59.4947090000000003
0
LINE
8
BLACK
6
CONTINUOUS
10
205.9850789999999847
20
-45.3413259999999951
11
203.9530790000000025
21
-45.3413259999999951
0
LINE
8
BLACK
6
CONTINUOUS
10
203.9530790000000025
20
-45.3413259999999951
11
203.9530790000000025
21
-50.5229259999999982
0
LINE
8
BLACK
6
CONTINUOUS
10
203.9530790000000025
20
-50.5229259999999982
11
205.9850789999999847
21
-50.5229259999999982
0
LINE
8
BLACK
6
CONTINUOUS
10
205.9850789999999847
20
-50.5229259999999982
11
205.9850789999999847
21
-45.3413259999999951
0
LINE
8
BLACK
6
CONTINUOUS
10
124.7811999999999983
20
-119.5007999999999981
11
126.8131999999999948
21
-119.5007999999999981
0
LINE
8
BLACK
6
CONTINUOUS
10
126.8131999999999948
20
-119.5007999999999981
11
126.8131999999999948
21
-114.319199999999995
0
LINE
8
BLACK
6
CONTINUOUS
10
126.8131999999999948
20
-114.319199999999995
11
124.7811999999999983
21
-114.319199999999995
0
LINE
8
BLACK
6
CONTINUOUS
10
124.7811999999999983
20
-114.319199999999995
11
124.7811999999999983
21
-119.5007999999999981
0
LINE
8
BLACK
6
CONTINUOUS
10
231.2557259999999815
20
-85.2412989999999979
11
233.2877259999999922
21
-85.2412989999999979
0
LINE
8
BLACK
6
CONTINUOUS
10
233.2877259999999922
20
-85.2412989999999979
11
233.2877259999999922
21
-80.0596989999999948
0
LINE
8
BLACK
6
CONTINUOUS
10
233.2877259999999922
20
-80.0596989999999948
11
231.2557259999999815
21
-80.0596989999999948
0
LINE
8
BLACK
6
CONTINUOUS
10
231.2557259999999815
20
-80.0596989999999948
11
231.2557259999999815
21
-85.2412989999999979
0
LINE
8
BLACK
6
CONTINUOUS
10
252.1629859999999894
20
-78.0367090000000019
11
250.1309859999999787
21
-78.0367090000000019
0
LINE
8
BLACK
6
CONTINUOUS
10
250.1309859999999787
20
-78.0367090000000019
11
250.1309859999999787
21
-83.2183089999999908
0
LINE
8
BLACK
6
CONTINUOUS
10
250.1309859999999787
20
-83.2183089999999908
11
252.1629859999999894
21
-83.2183089999999908
0
LINE
8
BLACK
6
CONTINUOUS
10
252.1629859999999894
20
-83.2183089999999908
11
252.1629859999999894
21
-78.0367090000000019
0
LINE
8
BLACK
6
CONTINUOUS
10
189.8036689999999851
20
-114.5651089999999925
11
191.8356689999999958
21
-114.5651089999999925
0
LINE
8
BLACK
6
CONTINUOUS
10
191.8356689999999958
20
-114.5651089999999925
11
191.8356689999999958
21
-109.3835089999999894
0
LINE
8
BLACK
6
CONTINUOUS
10
191.8356689999999958
20
-109.3835089999999894
11
189.8036689999999851
21
-109.3835089999999894
0
LINE
8
BLACK
6
CONTINUOUS
10
189.8036689999999851
20
-109.3835089999999894
11
189.8036689999999851
21
-114.5651089999999925
0
LINE
8
BLACK
6
CONTINUOUS
10
47.5465650000000011
20
-80.6748389999999915
11
49.5785649999999976
21
-80.6748389999999915
0
LINE
8
BLACK
6
CONTINUOUS
10
49.5785649999999976
20
-80.6748389999999915
11
49.5785649999999976
21
-75.4932390000000026
0
LINE
8
BLACK
6
CONTINUOUS
10
49.5785649999999976
20
-75.4932390000000026
11
47.5465650000000011
21
-75.4932390000000026
0
LINE
8
BLACK
6
CONTINUOUS
10
47.5465650000000011
20
-75.4932390000000026
11
47.5465650000000011
21
-80.6748389999999915
0
LINE
8
BLACK
6
CONTINUOUS
10
190.2631179999999915
20
-76.3400419999999968
11
192.2951180000000022
21
-76.3400419999999968
0
LINE
8
BLACK
6
CONTINUOUS
10
192.2951180000000022
20
-76.3400419999999968
11
192.2951180000000022
21
-71.1584419999999938
0
LINE
8
BLACK
6
CONTINUOUS
10
192.2951180000000022
20
-71.1584419999999938
11
190.2631179999999915
21
-71.1584419999999938
0
LINE
8
BLACK
6
CONTINUOUS
10
190.2631179999999915
20
-71.1584419999999938
11
190.2631179999999915
21
-76.3400419999999968
0
LINE
8
BLACK
6
CONTINUOUS
10
93.7244719999999916
20
-47.4872269999999972
11
95.7564720000000023
21
-47.4872269999999972
0
LINE
8
BLACK
6
CONTINUOUS
10
95.7564720000000023
20
-47.4872269999999972
11
95.7564720000000023
21
-42.3056270000000012
0
LINE
8
BLACK
6
CONTINUOUS
10
95.7564720000000023
20
-42.3056270000000012
11
93.7244719999999916
21
-42.3056270000000012
0
LINE
8
BLACK
6
CONTINUOUS
10
93.7244719999999916
20
-42.3056270000000012
11
93.7244719999999916
21
-47.4872269999999972
0
LINE
8
BLACK
6
CONTINUOUS
10
227.1327429999999765
20
-66.7050139999999914
11
229.1647429999999872
21
-66.7050139999999914
0
LINE
8
BLACK
6
CONTINUOUS
10
229.1647429999999872
20
-66.7050139999999914
11
229.1647429999999872
21
-61.5234139999999954
0
LINE
8
BLACK
6
CONTINUOUS
10
229.1647429999999872
20
-61.5234139999999954
11
227.1327429999999765
21
-61.5234139999999954
0
LINE
8
BLACK
6
CONTINUOUS
10
227.1327429999999765
20
-61.5234139999999954
11
227.1327429999999765
21
-66.7050139999999914
0
LINE
8
BLACK
6
CONTINUOUS
10
214.2399199999999837
20
-82.4152479999999912
11
212.2079200000000014
21
-82.4152479999999912
0
LINE
8
BLACK
6
CONTINUOUS
10
212.2079200000000014
20
-82.4152479999999912
11
212.2079200000000014
21
-87.5968479999999943
0
LINE
8
BLACK
6
CONTINUOUS
10
212.2079200000000014
20
-87.5968479999999943
11
214.2399199999999837
21
-87.5968479999999943
0
LINE
8
BLACK
6
CONTINUOUS
10
214.2399199999999837
20
-87.5968479999999943
11
214.2399199999999837
21
-82.4152479999999912
0
LINE
8
BLACK
6
CONTINUOUS
10
51.3878529999999998
20
-62.132838999999997
11
53.4198529999999963
21
-62.132838999999997
0
LINE
8
BLACK
6
CONTINUOUS
10
53.4198529999999963
20
-62.132838999999997
11
53.4198529999999963
21
-56.951238999999994
0
LINE
8
BLACK
6
CONTINUOUS
10
53.4198529999999963
20
-56.951238999999994
11
51.3878529999999998
21
-56.951238999999994
0
LINE
8
BLACK
6
CONTINUOUS
10
51.3878529999999998
20
-56.951238999999994
11
51.3878529999999998
21
-62.132838999999997
0
LINE
8
BLACK
6
CONTINUOUS
10
194.4375519999999824
20
-94.8624989999999997
11
196.4695519999999931
21
-94.8624989999999997
0
LINE
8
BLACK
6
CONTINUOUS
10
196.4695519999999931
20
-94.8624989999999997
11
196.4695519999999931
21
-89.6808989999999966
0
LINE
8
BLACK
6
CONTINUOUS
10
196.4695519999999931
20
-89.6808989999999966
11
194.4375519999999824
21
-89.6808989999999966
0
LINE
8
BLACK
6
CONTINUOUS
10
194.4375519999999824
20
-89.6808989999999966
11
194.4375519999999824
21
-94.8624989999999997
0
LINE
8
BLACK
6
CONTINUOUS
10
176.341668999999996
20
-116.4955089999999984
11
174.3096689999999853
21
-116.4955089999999984
0
LINE
8
BLACK
6
CONTINUOUS
10
174.3096689999999853
20
-116.4955089999999984
11
174.3096689999999853
21
-121.6771090000000015
0
LINE
8
BLACK
6
CONTINUOUS
10
174.3096689999999853
20
-121.6771090000000015
11
176.341668999999996
21
-121.6771090000000015
0
LINE
8
BLACK
6
CONTINUOUS
10
176.341668999999996
20
-121.6771090000000015
11
176.341668999999996
21
-116.4955089999999984
0
LINE
8
BLACK
6
CONTINUOUS
10
110.3031999999999897
20
-107.921599999999998
11
108.2711999999999932
21
-107.921599999999998
0
LINE
8
BLACK
6
CONTINUOUS
10
108.2711999999999932
20
-107.921599999999998
11
108.2711999999999932
21
-113.1032000000000011
0
LINE
8
BLACK
6
CONTINUOUS
10
108.2711999999999932
20
-113.1032000000000011
11
110.3031999999999897
21
-113.1032000000000011
0
LINE
8
BLACK
6
CONTINUOUS
10
110.3031999999999897
20
-113.1032000000000011
11
110.3031999999999897
21
-107.921599999999998
0
LINE
8
BLACK
6
CONTINUOUS
10
68.4538249999999948
20
-77.5162289999999956
11
66.4218249999999983
21
-77.5162289999999956
0
LINE
8
BLACK
6
CONTINUOUS
10
66.4218249999999983
20
-77.5162289999999956
11
66.4218249999999983
21
-82.6978289999999987
0
LINE
8
BLACK
6
CONTINUOUS
10
66.4218249999999983
20
-82.6978289999999987
11
68.4538249999999948
21
-82.6978289999999987
0
LINE
8
BLACK
6
CONTINUOUS
10
68.4538249999999948
20
-82.6978289999999987
11
68.4538249999999948
21
-77.5162289999999956
0
LINE
8
BLACK
6
CONTINUOUS
10
85.4696309999999926
20
-84.5611490000000003
11
87.5016309999999891
21
-84.5611490000000003
0
LINE
8
BLACK
6
CONTINUOUS
10
87.5016309999999891
20
-84.5611490000000003
11
87.5016309999999891
21
-79.3795489999999972
0
LINE
8
BLACK
6
CONTINUOUS
10
87.5016309999999891
20
-79.3795489999999972
11
85.4696309999999926
21
-79.3795489999999972
0
LINE
8
BLACK
6
CONTINUOUS
10
85.4696309999999926
20
-79.3795489999999972
11
85.4696309999999926
21
-84.5611490000000003
0
LINE
8
BLACK
6
CONTINUOUS
10
223.0262809999999831
20
-48.1430620000000005
11
225.0582809999999938
21
-48.1430620000000005
0
LINE
8
BLACK
6
CONTINUOUS
10
225.0582809999999938
20
-48.1430620000000005
11
225.0582809999999938
21
-42.9614619999999974
0
LINE
8
BLACK
6
CONTINUOUS
10
225.0582809999999938
20
-42.9614619999999974
11
223.0262809999999831
21
-42.9614619999999974
0
LINE
8
BLACK
6
CONTINUOUS
10
223.0262809999999831
20
-42.9614619999999974
11
223.0262809999999831
21
-48.1430620000000005
  0
ENDSEC
  0
EOF
