  0
SECTION
  2
HEADER
  9
$ANGBASE
  50
0.0
  9
$ANGDIR
  70
1
  9
$MEASUREMENT
  70
1
  0
ENDSEC
  0
SECTION
  2
TABLES
  0
TABLE
  2
LTYPE
  70
4
  0
LTYPE
  5
40F
  2
CONTINUOUS
  70
0
  3
Solid line
  72
65
  73
0
  40
0.0
  0
LTYPE
  5
410
  2
DASHDOT
 70
0
  3
Dash Dot ____ _ ____ _
 72
65
 73
4
 40
2.0
 49
1.25
 49
-0.25
 49
0.25
 49
-0.25
  0
LTYPE
  5
411
  2
DASHED
 70
0
  3
Dashed __ __ __ __ __
 72
65
 73
2
 40
0.75
 49
0.5
 49
-0.25
  0
LTYPE
  5
43B
  2
DOTTED
 70
0
  3
Dotted .  .  .  .
 72
65
 73
2
 40
0.2
 49
0.0
 49
-0.2
  0
ENDTAB
  0
TABLE
  2
STYLE
  70
4
  0
STYLE
  2
KICAD
  70
0
  40
0
  41
1
  42
1
  50
0
  71
0
  3
isocp.shx
  0
STYLE
  2
KICADB
  70
0
  40
0
  41
1
  42
1
  50
0
  71
0
  3
isocp.shx
  0
STYLE
  2
KICADI
  70
0
  40
0
  41
1
  42
1
  50
15
  71
0
  3
isocp.shx
  0
STYLE
  2
KICADBI
  70
0
  40
0
  41
1
  42
1
  50
15
  71
0
  3
isocp.shx
  0
ENDTAB
  0
TABLE
  2
LAYER
  70
1
  0
LAYER
  2
BLACK
  70
0
  62
7
  6
CONTINUOUS
  0
ENDTAB
  0
ENDSEC
  0
SECTION
  2
ENTITIES
0
ARC
8
BLACK
10
248.398399999999981
20
-89.1037999999999926
40
2.499867151873675
50
-169.00305491
51
-78.99657101
0
ARC
8
BLACK
10
131.5795999999999992
20
-116.7259999999999991
40
0.499980861765728
50
89.99759358
51
152.49889792
0
LINE
8
BLACK
6
CONTINUOUS
10
241.1555349999999862
20
-27.3315400000000004
11
199.9740369999999814
21
-36.4612580000000008
0
LINE
8
BLACK
6
CONTINUOUS
10
230.9862569999999948
20
-90.868124999999992
11
231.0081209999999885
21
-90.9667479999999955
0
ARC
8
BLACK
10
69.4043999999999954
20
-90.954899999999995
40
0.4001784505367574
50
77.52545444
51
167.47645682
0
LINE
8
BLACK
6
CONTINUOUS
10
28.0818009999999987
20
-84.0225200000000001
11
38.7136649999999989
21
-29.3263219999999976
0
ARC
8
BLACK
10
51.6014999999999944
20
-89.1036999999999892
40
2.4999670944804451
50
-101.00074179
51
-10.99875768
0
LINE
8
BLACK
6
CONTINUOUS
10
161.3003999999999962
20
-49.6696029999999951
11
157.5598779999999977
21
-63.62941
0
ARC
8
BLACK
10
169.099899999999991
20
-101.4489999999999981
40
0.400000001445
50
0.00000000
51
89.99512986
0
LINE
8
BLACK
6
CONTINUOUS
10
121.6605969999999957
20
-134.6974280000000022
11
131.136115999999987
21
-116.4951259999999991
0
ARC
8
BLACK
10
222.117999999999995
20
-111.9077999999999946
40
2.999937516826142
50
-62.50118802
51
27.50111992
0
LINE
8
BLACK
6
CONTINUOUS
10
150.
20
-116.2259999999999991
11
131.5796210000000031
21
-116.2259999999999991
0
ARC
8
BLACK
10
220.1899999999999977
20
-95.211199999999991
40
2.9995383577304024
50
-165.00155487
51
-152.49962695
0
ARC
8
BLACK
10
85.4587999999999965
20
-117.5429999999999922
40
1.50003584326842
50
-207.49863098
51
-117.50058261
0
ARC
8
BLACK
10
157.0768999999999949
20
-63.5
40
0.5000146963680168
50
-89.99816654
51
-14.99960541
0
ARC
8
BLACK
10
100.7121999999999957
20
-37.5238999999999976
40
0.3999888594673606
50
-192.50138380
51
-104.99588709
0
LINE
8
BLACK
6
CONTINUOUS
10
130.8999340000000018
20
-101.0489999999999924
11
169.0999339999999904
21
-101.0489999999999924
0
CIRCLE
8
BLACK
10
128.4999359999999911
20
-111.0490009999999899
40
1.5999999999999999
0
LINE
8
BLACK
6
CONTINUOUS
10
83.217607000000001
20
-94.0831929999999943
11
83.2298169999999971
21
-94.0376249999999914
0
LINE
8
BLACK
6
CONTINUOUS
10
136.5782800000000066
20
-47.5482839999999953
11
100.6087029999999913
21
-37.9102669999999975
0
LINE
8
BLACK
6
CONTINUOUS
10
233.1550439999999753
20
-92.3344909999999999
11
245.9292629999999917
21
-89.5025150000000025
0
LINE
8
BLACK
6
CONTINUOUS
10
164.4439610000000016
20
-71.1757070000000027
11
158.6939610000000016
21
-71.1757070000000027
0
CIRCLE
8
BLACK
10
138.
20
-64.2147999999999968
40
1.0999999999999999
0
ARC
8
BLACK
10
232.7653999999999996
20
-90.5772999999999939
40
1.7998729558546624
50
-167.50408286
51
-77.49738523
0
ARC
8
BLACK
10
142.9231000000000051
20
-63.5
40
0.500000000256
50
-165.00039459
51
-90.00183346
0
LINE
8
BLACK
6
CONTINUOUS
10
224.7789499999999805
20
-110.5225310000000007
11
217.5293859999999881
21
-96.5962499999999977
0
CIRCLE
8
BLACK
10
170.6799989999999809
20
-92.7971999999999895
40
0.75
0
CIRCLE
8
BLACK
10
171.4999329999999986
20
-104.0490020000000015
40
1.5999999999999999
0
LINE
8
BLACK
6
CONTINUOUS
10
245.9292629999999917
20
-89.5025150000000025
11
245.944453999999979
21
-89.5806630000000013
0
ARC
8
BLACK
10
41.6586099999999959
20
-29.8988399999999999
40
3.0000796511674483
50
79.00151407
51
168.99852496
0
LINE
8
BLACK
6
CONTINUOUS
10
169.4999339999999961
20
-101.4489999999999981
11
169.4999349999999936
21
-113.6490000000000009
0
LINE
8
BLACK
6
CONTINUOUS
10
138.6996000000000038
20
-49.6696029999999951
11
142.4401220000000023
21
-63.62941
0
ARC
8
BLACK
10
99.9175999999999931
20
-36.9495000000000005
40
0.5001227752592357
50
-12.48621053
51
77.48631491
0
LINE
8
BLACK
6
CONTINUOUS
10
244.2079689999999914
20
-29.5898699999999977
11
244.150700999999998
21
-29.2952549999999974
0
LINE
8
BLACK
6
CONTINUOUS
10
158.6939610000000016
20
-83.1757080000000002
11
164.4439610000000016
21
-83.1757080000000002
0
ARC
8
BLACK
10
135.0319999999999823
20
-85.5943999999999932
40
0.5
50
-180.00000000
51
-90.00000000
0
LINE
8
BLACK
6
CONTINUOUS
10
199.6782879999999807
20
-37.4373209999999972
11
199.5941100000000006
21
-37.0576280000000011
0
LINE
8
BLACK
6
CONTINUOUS
10
182.3856820000000027
20
-135.9732139999999845
11
223.5031639999999982
21
-114.5688099999999991
0
LINE
8
BLACK
6
CONTINUOUS
10
130.4999349999999936
20
-113.6490000000000009
11
130.4999339999999961
21
-101.4489999999999981
0
LINE
8
BLACK
6
CONTINUOUS
10
164.9439610000000016
20
-71.6757070000000027
11
164.9439610000000016
21
-82.6757080000000002
0
LINE
8
BLACK
6
CONTINUOUS
10
54.0707369999999941
20
-89.5025150000000025
11
66.8449559999999963
21
-92.3344909999999999
0
ARC
8
BLACK
10
93.0717999999999961
20
-98.5870999999999924
40
0.4999883262247229
50
-27.50049344
51
74.99661896
0
LINE
8
BLACK
6
CONTINUOUS
10
216.7701830000000029
20
-94.0376249999999914
11
217.2926399999999774
21
-95.9874609999999961
0
LINE
8
BLACK
6
CONTINUOUS
10
261.2863350000000082
20
-29.3263219999999976
11
271.9181990000000155
21
-84.0225200000000001
0
CIRCLE
8
BLACK
10
138.
20
-90.1351250000000022
40
1.0999999999999999
0
ARC
8
BLACK
10
241.6964999999999861
20
-29.7724999999999973
40
2.5001857636633722
50
11.00442380
51
102.49591006
0
LINE
8
BLACK
6
CONTINUOUS
10
150.
20
-64.
11
142.9230839999999887
21
-64.
0
LINE
8
BLACK
6
CONTINUOUS
10
257.7690259999999967
20
-26.9538669999999989
11
244.2079689999999914
21
-29.5898699999999977
0
ARC
8
BLACK
10
84.4732999999999947
20
-94.4196999999999917
40
1.2999560919650324
50
-195.00191892
51
-105.00002763
0
ARC
8
BLACK
10
181.0003999999999849
20
-133.3122999999999934
40
2.9999115878505487
50
-152.50168327
51
-62.49834235
0
ARC
8
BLACK
10
217.1564999999999941
20
-93.9341000000000008
40
0.3999478092376554
50
-257.50736196
51
-164.99838489
0
CIRCLE
8
BLACK
10
161.9999609999999848
20
-64.2152969999999925
40
1.0999999999999999
0
LINE
8
BLACK
6
CONTINUOUS
10
158.1939610000000016
20
-82.6757080000000002
11
158.1939610000000016
21
-71.6757070000000027
0
ARC
8
BLACK
10
67.234499999999997
20
-90.5771999999999906
40
1.8000357201858523
50
-102.49881796
51
-12.49833606
0
ARC
8
BLACK
10
118.9996000000000009
20
-133.31219999999999
40
2.9999602740691413
50
-117.50077572
51
-27.50001085
0
ARC
8
BLACK
10
130.8999000000000024
20
-113.6490000000000009
40
0.40000000153125
50
-180.00000000
51
-89.99498662
0
LINE
8
BLACK
6
CONTINUOUS
10
55.8492989999999949
20
-29.2952549999999974
11
55.7920309999999944
21
-29.5898699999999977
0
LINE
8
BLACK
6
CONTINUOUS
10
137.632000000000005
20
-76.0943999999999932
11
135.0319999999999823
21
-76.0943999999999932
0
ARC
8
BLACK
10
137.632000000000005
20
-76.5943999999999932
40
0.5
50
0.00000000
51
90.00000000
0
ARC
8
BLACK
10
58.3033000000000001
20
-29.772199999999998
40
2.4999194869087282
50
77.49812706
51
169.00145051
0
ARC
8
BLACK
10
164.4439999999999884
20
-71.6756000000000029
40
0.4998930015213255
50
-0.01226225
51
90.00447003
0
ARC
8
BLACK
10
31.0265999999999984
20
-84.5949999999999989
40
2.9999325815052909
50
-191.00129475
51
-100.99863567
0
LINE
8
BLACK
6
CONTINUOUS
10
134.5319999999999823
20
-85.5943999999999932
11
134.5319999999999823
21
-76.5943999999999932
0
ARC
8
BLACK
10
158.6939999999999884
20
-82.675699999999992
40
0.5000080015209757
50
-179.99908334
51
-90.00446900
0
ARC
8
BLACK
10
230.595799999999997
20
-90.9545999999999992
40
0.3999154382716426
50
12.48779850
51
102.51180718
0
ARC
8
BLACK
10
258.3413999999999646
20
-29.8987999999999978
40
3.0000403947888765
50
11.00076160
51
100.99881916
0
ARC
8
BLACK
10
135.8017999999999859
20
-50.4460999999999942
40
3.0000431263993521
50
15.00062409
51
74.99976861
0
LINE
8
BLACK
6
CONTINUOUS
10
100.4058899999999994
20
-37.0576280000000011
11
100.3217119999999909
21
-37.4373209999999972
0
ARC
8
BLACK
10
137.632000000000005
20
-85.5943999999999932
40
0.5
50
-90.00000000
51
-0.00000000
0
LINE
8
BLACK
6
CONTINUOUS
10
68.9918789999999973
20
-90.9667479999999955
11
69.013742999999991
21
-90.868124999999992
0
LINE
8
BLACK
6
CONTINUOUS
10
55.7920309999999944
20
-29.5898699999999977
11
42.2309739999999962
21
-26.9538669999999989
0
LINE
8
BLACK
6
CONTINUOUS
10
117.6143179999999973
20
-135.9732139999999845
11
84.7661469999999895
21
-118.8735409999999888
0
LINE
8
BLACK
6
CONTINUOUS
10
54.0555459999999997
20
-89.5806630000000013
11
54.0707369999999941
21
-89.5025150000000025
0
ARC
8
BLACK
10
168.4204000000000008
20
-116.7258999999999958
40
0.4999000004410882
50
27.49093646
51
90.00240690
0
LINE
8
BLACK
6
CONTINUOUS
10
150.
20
-64.
11
157.0769159999999829
21
-64.
0
ARC
8
BLACK
10
200.0822000000000003
20
-36.9493999999999971
40
0.4999451450749372
50
-257.50620662
51
-167.49764453
0
LINE
8
BLACK
6
CONTINUOUS
10
169.0999349999999879
20
-114.0489999999999924
11
130.8999349999999993
21
-114.0489999999999924
0
ARC
8
BLACK
10
164.1981999999999857
20
-50.4460999999999942
40
3.0000320716634015
50
105.00023139
51
164.99937591
0
ARC
8
BLACK
10
158.6939999999999884
20
-71.675699999999992
40
0.5000390000489962
50
-269.99553087
51
-179.99919792
0
ARC
8
BLACK
10
135.0319999999999823
20
-76.5943999999999932
40
0.5
50
90.00000000
51
180.00000000
0
LINE
8
BLACK
6
CONTINUOUS
10
178.3394030000000043
20
-134.6974280000000022
11
168.8638839999999846
21
-116.4951259999999991
0
LINE
8
BLACK
6
CONTINUOUS
10
199.3912969999999802
20
-37.9102669999999975
11
163.4217199999999934
21
-47.5482839999999953
0
ARC
8
BLACK
10
268.9733999999999696
20
-84.5949999999999989
40
2.9999290826286211
50
-79.00136433
51
11.00129475
0
LINE
8
BLACK
6
CONTINUOUS
10
135.0319999999999823
20
-86.0943999999999932
11
137.632000000000005
21
-86.0943999999999932
0
ARC
8
BLACK
10
169.0999999999999943
20
-113.6490000000000009
40
0.399935
50
-90.00931056
51
-0.00000000
0
ARC
8
BLACK
10
82.8434999999999917
20
-93.9339999999999975
40
0.3998946619548703
50
-15.01545178
51
77.50426267
0
ARC
8
BLACK
10
164.4438999999999851
20
-82.675699999999992
40
0.5000610000639922
50
-89.99301003
51
-0.00091662
0
LINE
8
BLACK
6
CONTINUOUS
10
69.4908379999999966
20
-90.5641820000000024
11
82.9300240000000031
21
-93.5435779999999966
0
LINE
8
BLACK
6
CONTINUOUS
10
30.4542559999999973
20
-87.5398289999999974
11
51.124455999999995
21
-91.5577090000000027
0
LINE
8
BLACK
6
CONTINUOUS
10
93.5153320000000008
20
-98.8179930000000013
11
84.1282539999999983
21
-116.8504019999999883
0
LINE
8
BLACK
6
CONTINUOUS
10
217.0699759999999969
20
-93.5435779999999966
11
230.5091620000000034
21
-90.5641820000000024
0
LINE
8
BLACK
6
CONTINUOUS
10
138.132000000000005
20
-76.5943999999999932
11
138.132000000000005
21
-85.5943999999999932
0
ARC
8
BLACK
10
130.8999000000000024
20
-101.4489999999999981
40
0.399966
50
89.99512986
51
180.00000000
0
LINE
8
BLACK
6
CONTINUOUS
10
100.0259629999999902
20
-36.4612580000000008
11
58.8444649999999996
21
-27.3315400000000004
0
LINE
8
BLACK
6
CONTINUOUS
10
248.8755439999999908
20
-91.5577090000000027
11
269.5457440000000133
21
-87.5398289999999974
0
CIRCLE
8
BLACK
10
161.9999609999999848
20
-90.1356219999999979
40
1.0999999999999999
0
LINE
8
BLACK
6
CONTINUOUS
10
93.2012349999999969
20
-98.104155999999989
11
84.1368459999999914
21
-95.6753609999999952
0
LINE
8
BLACK
6
CONTINUOUS
10
150.
20
-116.2259999999999991
11
168.4203789999999969
21
-116.2259999999999991
0
ARC
8
BLACK
10
199.2878000000000043
20
-37.5238999999999976
40
0.3999710006800493
50
-75.00411291
51
12.50138380
0
LINE
8
BLACK
6
CONTINUOUS
10
124.7881220000000013
20
-118.9439449999999994
11
118.3236419999999924
21
-131.3620970000000057
0
LINE
8
BLACK
6
CONTINUOUS
10
118.3236419999999924
20
-131.3620970000000057
11
105.9054900000000004
21
-124.8976169999999968
0
LINE
8
BLACK
6
CONTINUOUS
10
105.9054900000000004
20
-124.8976169999999968
11
112.369969999999995
21
-112.4794649999999905
0
LINE
8
BLACK
6
CONTINUOUS
10
112.369969999999995
20
-112.4794649999999905
11
124.7881220000000013
21
-118.9439449999999994
0
LINE
8
BLACK
6
CONTINUOUS
10
263.2992199999999912
20
-64.2186990000000009
11
249.5564399999999807
21
-66.8900249999999943
0
LINE
8
BLACK
6
CONTINUOUS
10
249.5564399999999807
20
-66.8900249999999943
11
246.8851139999999873
21
-53.1472449999999981
0
LINE
8
BLACK
6
CONTINUOUS
10
246.8851139999999873
20
-53.1472449999999981
11
260.6278939999999693
21
-50.4759189999999975
0
LINE
8
BLACK
6
CONTINUOUS
10
260.6278939999999693
20
-50.4759189999999975
11
263.2992199999999912
21
-64.2186990000000009
0
LINE
8
BLACK
6
CONTINUOUS
10
211.8663239999999917
20
-93.1228399999999965
11
198.3433629999999823
21
-96.7463070000000016
0
LINE
8
BLACK
6
CONTINUOUS
10
198.3433629999999823
20
-96.7463070000000016
11
194.7198959999999772
21
-83.2233459999999923
0
LINE
8
BLACK
6
CONTINUOUS
10
194.7198959999999772
20
-83.2233459999999923
11
208.2428569999999866
21
-79.5998790000000014
0
LINE
8
BLACK
6
CONTINUOUS
10
208.2428569999999866
20
-79.5998790000000014
11
211.8663239999999917
21
-93.1228399999999965
0
LINE
8
BLACK
6
CONTINUOUS
10
185.3331009999999992
20
-63.9361669999999975
11
171.8101399999999899
21
-67.5596340000000026
0
LINE
8
BLACK
6
CONTINUOUS
10
171.8101399999999899
20
-67.5596340000000026
11
168.1866729999999848
21
-54.0366730000000004
0
LINE
8
BLACK
6
CONTINUOUS
10
168.1866729999999848
20
-54.0366730000000004
11
181.7096339999999941
21
-50.4132059999999953
0
LINE
8
BLACK
6
CONTINUOUS
10
181.7096339999999941
20
-50.4132059999999953
11
185.3331009999999992
21
-63.9361669999999975
0
LINE
8
BLACK
6
CONTINUOUS
10
127.4016129999999976
20
-72.5069359999999961
11
123.7781459999999925
21
-86.0298969999999912
0
LINE
8
BLACK
6
CONTINUOUS
10
123.7781459999999925
20
-86.0298969999999912
11
110.2551849999999973
21
-82.4064300000000003
0
LINE
8
BLACK
6
CONTINUOUS
10
110.2551849999999973
20
-82.4064300000000003
11
113.8786519999999882
21
-68.883468999999991
0
LINE
8
BLACK
6
CONTINUOUS
10
113.8786519999999882
20
-68.883468999999991
11
127.4016129999999976
21
-72.5069359999999961
0
LINE
8
BLACK
6
CONTINUOUS
10
91.3739989999999977
20
-57.0068249999999992
11
88.3438450000000017
21
-70.6749689999999902
0
LINE
8
BLACK
6
CONTINUOUS
10
88.3438450000000017
20
-70.6749689999999902
11
74.6757010000000037
21
-67.6448149999999941
0
LINE
8
BLACK
6
CONTINUOUS
10
74.6757010000000037
20
-67.6448149999999941
11
77.7058549999999997
21
-53.9766709999999961
0
LINE
8
BLACK
6
CONTINUOUS
10
77.7058549999999997
20
-53.9766709999999961
11
91.3739989999999977
21
-57.0068249999999992
0
CIRCLE
8
BLACK
10
138.0001239999999996
20
-90.1623340000000013
40
1.0999999999999999
0
CIRCLE
8
BLACK
10
128.2500660000000039
20
-48.8155179999999973
40
1.0999999999999999
0
LINE
8
BLACK
6
CONTINUOUS
10
122.8999489999999923
20
-90.9630209999999977
11
119.2764820000000014
21
-104.4859819999999928
0
LINE
8
BLACK
6
CONTINUOUS
10
119.2764820000000014
20
-104.4859819999999928
11
105.7535209999999921
21
-100.8625150000000019
0
LINE
8
BLACK
6
CONTINUOUS
10
105.7535209999999921
20
-100.8625150000000019
11
109.3769879999999972
21
-87.3395539999999926
0
LINE
8
BLACK
6
CONTINUOUS
10
109.3769879999999972
20
-87.3395539999999926
11
122.8999489999999923
21
-90.9630209999999977
0
CIRCLE
8
BLACK
10
120.2490659999999991
20
-110.4105179999999962
40
1.0999999999999999
0
LINE
8
BLACK
6
CONTINUOUS
10
202.9087959999999953
20
-56.1203649999999996
11
189.3858349999999859
21
-59.7438319999999976
0
LINE
8
BLACK
6
CONTINUOUS
10
189.3858349999999859
20
-59.7438319999999976
11
185.7623679999999808
21
-46.2208709999999954
0
LINE
8
BLACK
6
CONTINUOUS
10
185.7623679999999808
20
-46.2208709999999954
11
199.2853289999999902
21
-42.5974039999999974
0
LINE
8
BLACK
6
CONTINUOUS
10
199.2853289999999902
20
-42.5974039999999974
11
202.9087959999999953
21
-56.1203649999999996
0
LINE
8
BLACK
6
CONTINUOUS
10
105.2801039999999944
20
-83.2233459999999923
11
101.6566369999999893
21
-96.7463070000000016
0
LINE
8
BLACK
6
CONTINUOUS
10
101.6566369999999893
20
-96.7463070000000016
11
88.1336759999999941
21
-93.1228399999999965
0
LINE
8
BLACK
6
CONTINUOUS
10
88.1336759999999941
20
-93.1228399999999965
11
91.7571429999999992
21
-79.5998790000000014
0
LINE
8
BLACK
6
CONTINUOUS
10
91.7571429999999992
20
-79.5998790000000014
11
105.2801039999999944
21
-83.2233459999999923
0
LINE
8
BLACK
6
CONTINUOUS
10
240.2589689999999791
20
-47.2292309999999986
11
226.5908249999999953
21
-50.2593849999999946
0
LINE
8
BLACK
6
CONTINUOUS
10
226.5908249999999953
20
-50.2593849999999946
11
223.560670999999985
21
-36.5912409999999966
0
LINE
8
BLACK
6
CONTINUOUS
10
223.560670999999985
20
-36.5912409999999966
11
237.2288149999999973
21
-33.5610870000000006
0
LINE
8
BLACK
6
CONTINUOUS
10
237.2288149999999973
20
-33.5610870000000006
11
240.2589689999999791
21
-47.2292309999999986
0
LINE
8
BLACK
6
CONTINUOUS
10
194.0945099999999854
20
-124.8976169999999968
11
181.6763579999999934
21
-131.3620970000000057
0
LINE
8
BLACK
6
CONTINUOUS
10
181.6763579999999934
20
-131.3620970000000057
11
175.2118779999999845
21
-118.9439449999999994
0
LINE
8
BLACK
6
CONTINUOUS
10
175.2118779999999845
20
-118.9439449999999994
11
187.630030000000005
21
-112.4794649999999905
0
LINE
8
BLACK
6
CONTINUOUS
10
187.630030000000005
20
-112.4794649999999905
11
194.0945099999999854
21
-124.8976169999999968
0
LINE
8
BLACK
6
CONTINUOUS
10
225.3242989999999963
20
-67.6448149999999941
11
211.6561549999999841
21
-70.6749689999999902
0
LINE
8
BLACK
6
CONTINUOUS
10
211.6561549999999841
20
-70.6749689999999902
11
208.6260010000000023
21
-57.0068249999999992
0
LINE
8
BLACK
6
CONTINUOUS
10
208.6260010000000023
20
-57.0068249999999992
11
222.2941449999999861
21
-53.9766709999999961
0
LINE
8
BLACK
6
CONTINUOUS
10
222.2941449999999861
20
-53.9766709999999961
11
225.3242989999999963
21
-67.6448149999999941
0
LINE
8
BLACK
6
CONTINUOUS
10
194.2464789999999937
20
-100.8625150000000019
11
180.7235179999999843
21
-104.4859819999999928
0
LINE
8
BLACK
6
CONTINUOUS
10
180.7235179999999843
20
-104.4859819999999928
11
177.1000509999999792
21
-90.9630209999999977
0
LINE
8
BLACK
6
CONTINUOUS
10
177.1000509999999792
20
-90.9630209999999977
11
190.6230119999999886
21
-87.3395539999999926
0
LINE
8
BLACK
6
CONTINUOUS
10
190.6230119999999886
20
-87.3395539999999926
11
194.2464789999999937
21
-100.8625150000000019
0
LINE
8
BLACK
6
CONTINUOUS
10
95.4863429999999909
20
-38.4572409999999962
11
92.4561889999999948
21
-52.1253849999999943
0
LINE
8
BLACK
6
CONTINUOUS
10
92.4561889999999948
20
-52.1253849999999943
11
78.7880449999999968
21
-49.0952309999999983
0
LINE
8
BLACK
6
CONTINUOUS
10
78.7880449999999968
20
-49.0952309999999983
11
81.8181989999999928
21
-35.4270870000000002
0
LINE
8
BLACK
6
CONTINUOUS
10
81.8181989999999928
20
-35.4270870000000002
11
95.4863429999999909
21
-38.4572409999999962
0
CIRCLE
8
BLACK
10
161.9999609999999848
20
-90.1356219999999979
40
1.0999999999999999
0
LINE
8
BLACK
6
CONTINUOUS
10
248.4835009999999897
20
-84.327697999999998
11
234.8153569999999775
21
-87.3578519999999941
0
LINE
8
BLACK
6
CONTINUOUS
10
234.8153569999999775
20
-87.3578519999999941
11
231.7852029999999957
21
-73.689707999999996
0
LINE
8
BLACK
6
CONTINUOUS
10
231.7852029999999957
20
-73.689707999999996
11
245.4533469999999795
21
-70.659554
0
LINE
8
BLACK
6
CONTINUOUS
10
245.4533469999999795
20
-70.659554
11
248.4835009999999897
21
-84.327697999999998
0
CIRCLE
8
BLACK
10
179.7509340000000009
20
-110.4105179999999962
40
1.0999999999999999
0
LINE
8
BLACK
6
CONTINUOUS
10
53.1148859999999985
20
-53.1472449999999981
11
50.443559999999998
21
-66.8900249999999943
0
LINE
8
BLACK
6
CONTINUOUS
10
50.443559999999998
20
-66.8900249999999943
11
36.7007800000000017
21
-64.2186990000000009
0
LINE
8
BLACK
6
CONTINUOUS
10
36.7007800000000017
20
-64.2186990000000009
11
39.3721059999999952
21
-50.4759189999999975
0
LINE
8
BLACK
6
CONTINUOUS
10
39.3721059999999952
20
-50.4759189999999975
11
53.1148859999999985
21
-53.1472449999999981
0
LINE
8
BLACK
6
CONTINUOUS
10
259.2854049999999688
20
-45.3025129999999976
11
245.617260999999985
21
-48.3326670000000007
0
LINE
8
BLACK
6
CONTINUOUS
10
245.617260999999985
20
-48.3326670000000007
11
242.5871070000000032
21
-34.6645229999999955
0
LINE
8
BLACK
6
CONTINUOUS
10
242.5871070000000032
20
-34.6645229999999955
11
256.255250999999987
21
-31.6343689999999995
0
LINE
8
BLACK
6
CONTINUOUS
10
256.255250999999987
20
-31.6343689999999995
11
259.2854049999999688
21
-45.3025129999999976
0
CIRCLE
8
BLACK
10
49.8381669999999986
20
-87.7508569999999963
40
1.0999999999999999
0
LINE
8
BLACK
6
CONTINUOUS
10
131.8133269999999868
20
-54.0366730000000004
11
128.1898599999999817
21
-67.5596340000000026
0
LINE
8
BLACK
6
CONTINUOUS
10
128.1898599999999817
20
-67.5596340000000026
11
114.6668990000000008
21
-63.9361669999999975
0
LINE
8
BLACK
6
CONTINUOUS
10
114.6668990000000008
20
-63.9361669999999975
11
118.2903659999999917
21
-50.4132059999999953
0
LINE
8
BLACK
6
CONTINUOUS
10
118.2903659999999917
20
-50.4132059999999953
11
131.8133269999999868
21
-54.0366730000000004
0
LINE
8
BLACK
6
CONTINUOUS
10
49.1083259999999981
20
-71.6065069999999935
11
46.4369999999999976
21
-85.3492869999999897
0
LINE
8
BLACK
6
CONTINUOUS
10
46.4369999999999976
20
-85.3492869999999897
11
32.6942200000000014
21
-82.6779609999999963
0
LINE
8
BLACK
6
CONTINUOUS
10
32.6942200000000014
20
-82.6779609999999963
11
35.3655460000000019
21
-68.935181
0
LINE
8
BLACK
6
CONTINUOUS
10
35.3655460000000019
20
-68.935181
11
49.1083259999999981
21
-71.6065069999999935
0
LINE
8
BLACK
6
CONTINUOUS
10
229.4366949999999861
20
-86.194634999999991
11
215.7685510000000022
21
-89.2247890000000012
0
LINE
8
BLACK
6
CONTINUOUS
10
215.7685510000000022
20
-89.2247890000000012
11
212.738396999999992
21
-75.5566450000000032
0
LINE
8
BLACK
6
CONTINUOUS
10
212.738396999999992
20
-75.5566450000000032
11
226.4065409999999758
21
-72.5264909999999929
0
LINE
8
BLACK
6
CONTINUOUS
10
226.4065409999999758
20
-72.5264909999999929
11
229.4366949999999861
21
-86.194634999999991
0
CIRCLE
8
BLACK
10
171.7499339999999961
20
-48.8155179999999973
40
1.0999999999999999
0
LINE
8
BLACK
6
CONTINUOUS
10
114.2376319999999907
20
-46.2208709999999954
11
110.6141649999999998
21
-59.7438319999999976
0
LINE
8
BLACK
6
CONTINUOUS
10
110.6141649999999998
20
-59.7438319999999976
11
97.0912039999999905
21
-56.1203649999999996
0
LINE
8
BLACK
6
CONTINUOUS
10
97.0912039999999905
20
-56.1203649999999996
11
100.7146709999999956
21
-42.5974039999999974
0
LINE
8
BLACK
6
CONTINUOUS
10
100.7146709999999956
20
-42.5974039999999974
11
114.2376319999999907
21
-46.2208709999999954
0
LINE
8
BLACK
6
CONTINUOUS
10
221.211954999999989
20
-49.0952309999999983
11
207.5438109999999767
21
-52.1253849999999943
0
LINE
8
BLACK
6
CONTINUOUS
10
207.5438109999999767
20
-52.1253849999999943
11
204.5136569999999949
21
-38.4572409999999962
0
LINE
8
BLACK
6
CONTINUOUS
10
204.5136569999999949
20
-38.4572409999999962
11
218.1818009999999788
21
-35.4270870000000002
0
LINE
8
BLACK
6
CONTINUOUS
10
218.1818009999999788
20
-35.4270870000000002
11
221.211954999999989
21
-49.0952309999999983
0
LINE
8
BLACK
6
CONTINUOUS
10
244.371233999999987
20
-65.7784659999999946
11
230.7030900000000031
21
-68.8086199999999906
0
LINE
8
BLACK
6
CONTINUOUS
10
230.7030900000000031
20
-68.8086199999999906
11
227.6729359999999929
21
-55.1404759999999996
0
LINE
8
BLACK
6
CONTINUOUS
10
227.6729359999999929
20
-55.1404759999999996
11
241.3410799999999767
21
-52.1103219999999965
0
LINE
8
BLACK
6
CONTINUOUS
10
241.3410799999999767
20
-52.1103219999999965
11
244.371233999999987
21
-65.7784659999999946
0
LINE
8
BLACK
6
CONTINUOUS
10
210.8714629999999772
20
-114.8248299999999915
11
198.4533109999999851
21
-121.2893100000000004
0
LINE
8
BLACK
6
CONTINUOUS
10
198.4533109999999851
20
-121.2893100000000004
11
191.9888310000000047
21
-108.8711579999999941
0
LINE
8
BLACK
6
CONTINUOUS
10
191.9888310000000047
20
-108.8711579999999941
11
204.4069829999999968
21
-102.4066779999999994
0
LINE
8
BLACK
6
CONTINUOUS
10
204.4069829999999968
20
-102.4066779999999994
11
210.8714629999999772
21
-114.8248299999999915
0
LINE
8
BLACK
6
CONTINUOUS
10
207.5642939999999896
20
-74.6014260000000036
11
194.0413329999999803
21
-78.2248929999999945
0
LINE
8
BLACK
6
CONTINUOUS
10
194.0413329999999803
20
-78.2248929999999945
11
190.4178660000000036
21
-64.7019319999999993
0
LINE
8
BLACK
6
CONTINUOUS
10
190.4178660000000036
20
-64.7019319999999993
11
203.9408269999999845
21
-61.0784649999999942
0
LINE
8
BLACK
6
CONTINUOUS
10
203.9408269999999845
20
-61.0784649999999942
11
207.5642939999999896
21
-74.6014260000000036
0
CIRCLE
8
BLACK
10
250.1618330000000014
20
-87.7508569999999963
40
1.0999999999999999
0
LINE
8
BLACK
6
CONTINUOUS
10
76.4393290000000007
20
-36.5912409999999966
11
73.4091749999999905
21
-50.2593849999999946
0
LINE
8
BLACK
6
CONTINUOUS
10
73.4091749999999905
20
-50.2593849999999946
11
59.7410309999999996
21
-47.2292309999999986
0
LINE
8
BLACK
6
CONTINUOUS
10
59.7410309999999996
20
-47.2292309999999986
11
62.7711849999999956
21
-33.5610870000000006
0
LINE
8
BLACK
6
CONTINUOUS
10
62.7711849999999956
20
-33.5610870000000006
11
76.4393290000000007
21
-36.5912409999999966
0
LINE
8
BLACK
6
CONTINUOUS
10
68.2147969999999901
20
-73.689707999999996
11
65.1846429999999941
21
-87.3578519999999941
0
LINE
8
BLACK
6
CONTINUOUS
10
65.1846429999999941
20
-87.3578519999999941
11
51.516498999999996
21
-84.327697999999998
0
LINE
8
BLACK
6
CONTINUOUS
10
51.516498999999996
20
-84.327697999999998
11
54.5466529999999992
21
-70.659554
0
LINE
8
BLACK
6
CONTINUOUS
10
54.5466529999999992
20
-70.659554
11
68.2147969999999901
21
-73.689707999999996
0
LINE
8
BLACK
6
CONTINUOUS
10
57.4128929999999968
20
-34.6645229999999955
11
54.3827390000000008
21
-48.3326670000000007
0
LINE
8
BLACK
6
CONTINUOUS
10
54.3827390000000008
20
-48.3326670000000007
11
40.7145949999999957
21
-45.3025129999999976
0
LINE
8
BLACK
6
CONTINUOUS
10
40.7145949999999957
20
-45.3025129999999976
11
43.7447489999999988
21
-31.6343689999999995
0
LINE
8
BLACK
6
CONTINUOUS
10
43.7447489999999988
20
-31.6343689999999995
11
57.4128929999999968
21
-34.6645229999999955
0
LINE
8
BLACK
6
CONTINUOUS
10
87.2616029999999938
20
-75.5566450000000032
11
84.2314489999999978
21
-89.2247890000000012
0
LINE
8
BLACK
6
CONTINUOUS
10
84.2314489999999978
20
-89.2247890000000012
11
70.5633049999999997
21
-86.194634999999991
0
LINE
8
BLACK
6
CONTINUOUS
10
70.5633049999999997
20
-86.194634999999991
11
73.5934589999999957
21
-72.5264909999999929
0
LINE
8
BLACK
6
CONTINUOUS
10
73.5934589999999957
20
-72.5264909999999929
11
87.2616029999999938
21
-75.5566450000000032
0
CIRCLE
8
BLACK
10
59.5259280000000004
20
-31.2929469999999981
40
1.0999999999999999
0
LINE
8
BLACK
6
CONTINUOUS
10
109.5821339999999964
20
-64.7019319999999993
11
105.9586669999999913
21
-78.2248929999999945
0
LINE
8
BLACK
6
CONTINUOUS
10
105.9586669999999913
20
-78.2248929999999945
11
92.4357059999999962
21
-74.6014260000000036
0
LINE
8
BLACK
6
CONTINUOUS
10
92.4357059999999962
20
-74.6014260000000036
11
96.0591730000000013
21
-61.0784649999999942
0
LINE
8
BLACK
6
CONTINUOUS
10
96.0591730000000013
20
-61.0784649999999942
11
109.5821339999999964
21
-64.7019319999999993
0
LINE
8
BLACK
6
CONTINUOUS
10
108.0111689999999953
20
-108.8711579999999941
11
101.5466890000000006
21
-121.2893100000000004
0
LINE
8
BLACK
6
CONTINUOUS
10
101.5466890000000006
20
-121.2893100000000004
11
89.1285369999999944
21
-114.8248299999999915
0
LINE
8
BLACK
6
CONTINUOUS
10
89.1285369999999944
20
-114.8248299999999915
11
95.593016999999989
21
-102.4066779999999994
0
LINE
8
BLACK
6
CONTINUOUS
10
95.593016999999989
20
-102.4066779999999994
11
108.0111689999999953
21
-108.8711579999999941
0
LINE
8
BLACK
6
CONTINUOUS
10
267.3057799999999702
20
-82.6779609999999963
11
253.5629999999999882
21
-85.3492869999999897
0
LINE
8
BLACK
6
CONTINUOUS
10
253.5629999999999882
20
-85.3492869999999897
11
250.8916739999999947
21
-71.6065069999999935
0
LINE
8
BLACK
6
CONTINUOUS
10
250.8916739999999947
20
-71.6065069999999935
11
264.6344540000000052
21
-68.935181
0
LINE
8
BLACK
6
CONTINUOUS
10
264.6344540000000052
20
-68.935181
11
267.3057799999999702
21
-82.6779609999999963
0
LINE
8
BLACK
6
CONTINUOUS
10
189.7448149999999885
20
-82.4064300000000003
11
176.2218539999999791
21
-86.0298969999999912
0
LINE
8
BLACK
6
CONTINUOUS
10
176.2218539999999791
20
-86.0298969999999912
11
172.5983870000000024
21
-72.5069359999999961
0
LINE
8
BLACK
6
CONTINUOUS
10
172.5983870000000024
20
-72.5069359999999961
11
186.1213479999999834
21
-68.883468999999991
0
LINE
8
BLACK
6
CONTINUOUS
10
186.1213479999999834
20
-68.883468999999991
11
189.7448149999999885
21
-82.4064300000000003
0
CIRCLE
8
BLACK
10
240.4740719999999783
20
-31.2929469999999981
40
1.0999999999999999
0
LINE
8
BLACK
6
CONTINUOUS
10
72.3270639999999929
20
-55.1404759999999996
11
69.2969099999999969
21
-68.8086199999999906
0
LINE
8
BLACK
6
CONTINUOUS
10
69.2969099999999969
20
-68.8086199999999906
11
55.6287659999999988
21
-65.7784659999999946
0
LINE
8
BLACK
6
CONTINUOUS
10
55.6287659999999988
20
-65.7784659999999946
11
58.6589199999999948
21
-52.1103219999999965
0
LINE
8
BLACK
6
CONTINUOUS
10
58.6589199999999948
20
-52.1103219999999965
11
72.3270639999999929
21
-55.1404759999999996
  0
ENDSEC
  0
EOF
