G04 #@! TF.GenerationSoftware,KiCad,Pcbnew,7.0.5-0*
G04 #@! TF.CreationDate,2023-06-11T17:15:19+08:00*
G04 #@! TF.ProjectId,AWKB,41574b42-2e6b-4696-9361-645f70636258,rev?*
G04 #@! TF.SameCoordinates,Original*
G04 #@! TF.FileFunction,Profile,NP*
%FSLAX46Y46*%
G04 Gerber Fmt 4.6, Leading zero omitted, Abs format (unit mm)*
G04 Created by KiCad (PCBNEW 7.0.5-0) date 2023-06-11 17:15:19*
%MOMM*%
%LPD*%
G01*
G04 APERTURE LIST*
G04 #@! TA.AperFunction,Profile*
%ADD10C,0.150000*%
G04 #@! TD*
G04 APERTURE END LIST*
D10*
X97409000Y-83972400D02*
X96115716Y-84115307D01*
X98578327Y-122794187D02*
G75*
G03*
X99448512Y-123533960I770438J24576D01*
G01*
X107183280Y-140903294D02*
G75*
G03*
X108023581Y-141645681I778920J34894D01*
G01*
X105693365Y-123803511D02*
G75*
G03*
X104823181Y-123063739I-770438J-24577D01*
G01*
X108023581Y-141645682D02*
X163641992Y-136646937D01*
X95328316Y-85156707D02*
X98578325Y-122794187D01*
X99448512Y-123533961D02*
X104823181Y-123063738D01*
X105693368Y-123803511D02*
X107183280Y-140903294D01*
X156612936Y-57535634D02*
X156612936Y-58124786D01*
X156020528Y-56976834D02*
X136204700Y-56976834D01*
X156612870Y-58124789D02*
G75*
G03*
X157082000Y-58577599I471230J18789D01*
G01*
X135612292Y-58124786D02*
X135612292Y-57535634D01*
X156612958Y-57535634D02*
G75*
G03*
X156020528Y-56976835I-570758J-11666D01*
G01*
X136204698Y-56976891D02*
G75*
G03*
X135612292Y-57535634I-21798J-570309D01*
G01*
X135143228Y-58577561D02*
G75*
G03*
X135612292Y-58124786I-2128J471561D01*
G01*
X157082000Y-58577600D02*
X193266273Y-58577600D01*
X112678181Y-58580400D02*
G75*
G03*
X112170181Y-59113800I-12474J-496724D01*
G01*
X111712981Y-64109599D02*
G75*
G03*
X112170180Y-63576200I-39648J496626D01*
G01*
X111712981Y-64109600D02*
X98564200Y-64109600D01*
X98564200Y-64109601D02*
G75*
G03*
X98034333Y-64643000I-9818J-520125D01*
G01*
X112170181Y-59113800D02*
X112170181Y-63576200D01*
X203265986Y-151180800D02*
X164883600Y-140895386D01*
X164327791Y-137434337D02*
G75*
G03*
X163641992Y-136646938I-600450J169382D01*
G01*
X164327792Y-137434337D02*
X163834252Y-139269786D01*
X163834251Y-139269786D02*
G75*
G03*
X164883600Y-140895386I1304635J-309324D01*
G01*
X201645734Y-121533166D02*
X203657189Y-113948786D01*
X202102934Y-123209566D02*
X209311186Y-130403600D01*
X96115707Y-84115253D02*
G75*
G03*
X95328317Y-85156707I162125J-940954D01*
G01*
X201645749Y-121533170D02*
G75*
G03*
X202102934Y-123209566I1686751J-440530D01*
G01*
X112678181Y-58580400D02*
X135143228Y-58577600D01*
X203657121Y-113948762D02*
G75*
G03*
X203377789Y-113440786I-368121J128362D01*
G01*
X204891586Y-150241000D02*
X209768386Y-132054600D01*
X203377789Y-113440786D02*
X195203869Y-111205422D01*
X203265995Y-151180762D02*
G75*
G03*
X204891586Y-150241000I315405J1330262D01*
G01*
X194393540Y-59682296D02*
G75*
G03*
X193266273Y-58577601I-1084640J20696D01*
G01*
X194386128Y-110113221D02*
G75*
G03*
X195203869Y-111205422I1109972J-21179D01*
G01*
X98034333Y-64643000D02*
X98034333Y-83159600D01*
X209768385Y-132054600D02*
G75*
G03*
X209311185Y-130403601I-1607685J443600D01*
G01*
X97409000Y-83972399D02*
G75*
G03*
X98034332Y-83159600I-173234J780230D01*
G01*
X194386200Y-110113222D02*
X194393540Y-59682296D01*
M02*
