M48
; DRILL file {KiCad 7.0.5-0} date 2023 June 11, Sunday 17:15:15
; FORMAT={-:-/ absolute / metric / decimal}
; #@! TF.CreationDate,2023-06-11T17:15:15+08:00
; #@! TF.GenerationSoftware,Kicad,Pcbnew,7.0.5-0
; #@! TF.FileFunction,Plated,1,2,PTH
FMAT,2
METRIC
; #@! TA.AperFunction,Plated,PTH,ViaDrill
T1C0.300
; #@! TA.AperFunction,Plated,PTH,ViaDrill
T2C0.400
; #@! TA.AperFunction,Plated,PTH,ComponentDrill
T3C0.900
; #@! TA.AperFunction,Plated,PTH,ComponentDrill
T4C1.100
%
G90
G05
T1
X98.417Y-97.977
X99.068Y-91.656
X100.013Y-77.85
X100.073Y-116.905
X100.724Y-110.584
X101.213Y-71.61
X109.467Y-99.219
X110.913Y-80.05
X110.953Y-135.484
X111.123Y-118.146
X111.299Y-88.036
X111.839Y-101.369
X112.932Y-82.369
X112.955Y-106.964
X113.483Y-135.077
X113.499Y-120.347
X113.713Y-69.07
X115.226Y-101.073
X116.014Y-134.874
X116.332Y-82.369
X116.886Y-120.05
X118.478Y-134.671
X119.013Y-75.488
X119.013Y-94.487
X119.013Y-113.487
X119.344Y-127.252
X120.213Y-69.248
X120.213Y-88.247
X120.213Y-107.247
X121.069Y-134.468
X121.874Y-127.0
X123.558Y-134.214
X124.404Y-126.797
X124.404Y-129.438
X126.076Y-133.988
X126.935Y-126.668
X129.913Y-77.688
X129.913Y-96.687
X129.913Y-115.687
X130.389Y-126.668
X131.982Y-80.007
X131.982Y-99.007
X131.982Y-118.006
X132.713Y-66.708
X132.713Y-85.707
X132.713Y-104.707
X135.382Y-80.007
X135.382Y-99.007
X135.382Y-118.006
X138.013Y-71.177
X138.013Y-90.177
X138.013Y-109.177
X139.213Y-64.937
X139.213Y-83.937
X139.213Y-102.937
X148.913Y-73.377
X148.913Y-92.377
X148.913Y-111.377
X151.005Y-75.696
X151.005Y-94.696
X151.005Y-113.697
X151.713Y-62.397
X151.713Y-81.397
X151.713Y-100.397
X154.405Y-75.696
X154.405Y-94.696
X154.405Y-113.697
X155.917Y-119.229
X157.013Y-74.487
X157.013Y-93.487
X157.013Y-112.488
X158.213Y-68.247
X158.213Y-87.247
X158.213Y-106.248
X167.913Y-76.687
X167.913Y-95.687
X167.913Y-114.688
X170.082Y-79.007
X170.082Y-98.007
X170.082Y-117.007
X170.094Y-134.289
X170.713Y-65.707
X170.713Y-84.707
X170.713Y-103.708
X172.868Y-128.572
X173.482Y-79.007
X173.482Y-98.007
X173.482Y-117.007
X173.85Y-119.903
X176.013Y-76.287
X176.013Y-95.287
X176.013Y-114.287
X177.213Y-70.047
X177.213Y-89.047
X177.213Y-108.047
X180.053Y-139.235
X185.6Y-129.354
X185.692Y-126.12
X186.913Y-78.487
X186.913Y-97.487
X186.913Y-116.487
X188.393Y-140.206
X188.976Y-127.0
X189.005Y-80.806
X189.005Y-99.806
X189.005Y-118.806
X189.713Y-67.507
X189.713Y-86.507
X189.713Y-105.507
X191.167Y-134.489
X192.405Y-80.806
X192.405Y-99.806
X192.405Y-118.806
X194.979Y-129.532
X198.263Y-130.412
X198.352Y-145.152
X203.899Y-135.271
T2
X108.419Y-103.835
X111.753Y-127.934
X114.283Y-127.791
X116.813Y-127.52
X119.202Y-102.692
X142.088Y-116.916
X163.881Y-118.415
X174.015Y-123.8
X178.384Y-117.612
X191.985Y-83.733
T4
X110.666Y-124.115
X111.982Y-139.16
X113.196Y-123.893
X114.512Y-138.939
X115.726Y-123.672
X117.043Y-138.717
X118.257Y-123.451
X119.573Y-138.496
X120.787Y-123.229
X122.103Y-138.274
X123.317Y-123.008
X124.634Y-138.053
X125.848Y-122.787
X127.164Y-137.832
T3
G00X194.712Y-124.673
M15
G01X194.609Y-125.059
M16
G05
G00X194.86Y-124.008
M15
G01X194.963Y-123.622
M16
G05
G00X195.895Y-120.144
M15
G01X195.998Y-119.758
M16
G05
G00X196.671Y-117.246
M15
G01X196.775Y-116.86
M16
G05
G00X199.018Y-126.261
M15
G01X199.122Y-125.875
M16
G05
G00X199.44Y-124.801
M15
G01X199.337Y-125.187
M16
G05
G00X200.476Y-120.937
M15
G01X200.372Y-121.323
M16
G05
G00X201.252Y-118.039
M15
G01X201.149Y-118.425
M16
G05
T0
M30
