M48
; DRILL file {KiCad 7.0.5-0} date 2023 June 11, Sunday 17:15:15
; FORMAT={-:-/ absolute / metric / decimal}
; #@! TF.CreationDate,2023-06-11T17:15:15+08:00
; #@! TF.GenerationSoftware,Kicad,Pcbnew,7.0.5-0
; #@! TF.FileFunction,NonPlated,1,2,NPTH
FMAT,2
METRIC
; #@! TA.AperFunction,NonPlated,NPTH,ComponentDrill
T1C0.800
; #@! TA.AperFunction,NonPlated,NPTH,ComponentDrill
T2C1.700
; #@! TA.AperFunction,NonPlated,NPTH,ComponentDrill
T3C1.900
; #@! TA.AperFunction,NonPlated,NPTH,ComponentDrill
T4C3.000
; #@! TA.AperFunction,NonPlated,NPTH,ComponentDrill
T5C3.200
; #@! TA.AperFunction,NonPlated,NPTH,ComponentDrill
T6C4.000
%
G90
G05
T1
X197.581Y-122.853
X199.393Y-116.092
T2
X101.103Y-94.028
X102.759Y-112.956
X103.033Y-74.15
X111.224Y-93.142
X112.88Y-112.07
X113.193Y-74.15
X122.033Y-71.788
X122.033Y-90.787
X122.033Y-109.787
X132.193Y-71.788
X132.193Y-90.787
X132.193Y-109.787
X141.033Y-67.477
X141.033Y-86.477
X141.033Y-105.477
X151.193Y-67.477
X151.193Y-86.477
X151.193Y-105.477
X160.033Y-70.787
X160.033Y-89.787
X160.033Y-108.788
X170.193Y-70.787
X170.193Y-89.787
X170.193Y-108.788
X173.969Y-131.496
X179.033Y-72.587
X179.033Y-91.587
X179.033Y-110.587
X183.782Y-134.126
X189.193Y-72.587
X189.193Y-91.587
X189.193Y-110.587
X192.268Y-137.414
X202.082Y-140.044
T3
X100.684Y-94.064
X102.34Y-112.992
X102.613Y-74.15
X111.642Y-93.106
X113.298Y-112.033
X113.613Y-74.15
X121.613Y-71.788
X121.613Y-90.787
X121.613Y-109.787
X132.613Y-71.788
X132.613Y-90.787
X132.613Y-109.787
X140.613Y-67.477
X140.613Y-86.477
X140.613Y-105.477
X151.613Y-67.477
X151.613Y-86.477
X151.613Y-105.477
X159.613Y-70.787
X159.613Y-89.787
X159.613Y-108.788
X170.613Y-70.787
X170.613Y-89.787
X170.613Y-108.788
X173.563Y-131.388
X178.613Y-72.587
X178.613Y-91.587
X178.613Y-110.587
X184.188Y-134.235
X189.613Y-72.587
X189.613Y-91.587
X189.613Y-110.587
X191.862Y-137.305
X202.487Y-140.152
T4
X101.505Y-97.707
X102.147Y-91.387
X103.113Y-77.85
X103.161Y-116.635
X103.19Y-88.746
X103.802Y-110.315
X104.303Y-71.61
X104.846Y-107.674
X105.573Y-69.07
X106.678Y-99.463
X108.113Y-80.05
X108.251Y-88.303
X108.334Y-118.39
X109.738Y-90.723
X109.907Y-107.231
X110.653Y-69.07
X111.393Y-109.65
X111.467Y-96.835
X111.923Y-71.61
X113.113Y-77.85
X113.123Y-115.763
X122.113Y-75.488
X122.113Y-94.487
X122.113Y-113.487
X123.303Y-69.248
X123.303Y-88.247
X123.303Y-107.247
X124.573Y-66.708
X124.573Y-85.707
X124.573Y-104.707
X127.113Y-77.688
X127.113Y-96.687
X127.113Y-115.687
X129.653Y-66.708
X129.653Y-85.707
X129.653Y-104.707
X130.923Y-69.248
X130.923Y-88.247
X130.923Y-107.247
X132.113Y-75.488
X132.113Y-94.487
X132.113Y-113.487
X141.113Y-71.177
X141.113Y-90.177
X141.113Y-109.177
X142.303Y-64.937
X142.303Y-83.937
X142.303Y-102.937
X143.573Y-62.397
X143.573Y-81.397
X143.573Y-100.397
X146.113Y-73.377
X146.113Y-92.377
X146.113Y-111.377
X148.653Y-62.397
X148.653Y-81.397
X148.653Y-100.397
X149.923Y-64.937
X149.923Y-83.937
X149.923Y-102.937
X151.113Y-71.177
X151.113Y-90.177
X151.113Y-109.177
X160.113Y-74.487
X160.113Y-93.487
X160.113Y-112.488
X161.303Y-68.247
X161.303Y-87.247
X161.303Y-106.248
X162.573Y-65.707
X162.573Y-84.707
X162.573Y-103.708
X165.113Y-76.687
X165.113Y-95.687
X165.113Y-114.688
X167.653Y-65.707
X167.653Y-84.707
X167.653Y-103.708
X168.923Y-68.247
X168.923Y-87.247
X168.923Y-106.248
X170.113Y-74.487
X170.113Y-93.487
X170.113Y-112.488
X173.088Y-135.091
X175.853Y-129.372
X177.349Y-138.51
X177.737Y-127.247
X179.113Y-76.287
X179.113Y-95.287
X179.113Y-114.287
X180.303Y-70.047
X180.303Y-89.047
X180.303Y-108.047
X181.573Y-67.507
X181.573Y-86.507
X181.573Y-105.507
X182.644Y-128.562
X182.748Y-137.679
X183.213Y-131.344
X184.113Y-78.487
X184.113Y-97.487
X184.113Y-116.487
X186.653Y-67.507
X186.653Y-86.507
X186.653Y-105.507
X187.923Y-70.047
X187.923Y-89.047
X187.923Y-108.047
X189.113Y-76.287
X189.113Y-95.287
X189.113Y-114.287
X191.387Y-141.009
X194.152Y-135.289
X195.648Y-144.428
X196.036Y-133.164
X200.943Y-134.479
X201.047Y-143.597
X201.512Y-137.261
T5
X116.014Y-62.84
X133.896Y-134.799
X165.62Y-132.944
X177.571Y-61.595
X202.958Y-128.782
T6
X106.163Y-93.585
X107.819Y-112.513
X108.113Y-74.15
X127.113Y-71.788
X127.113Y-90.787
X127.113Y-109.787
X146.113Y-67.477
X146.113Y-86.477
X146.113Y-105.477
X165.113Y-70.787
X165.113Y-89.787
X165.113Y-108.788
X178.876Y-132.811
X184.113Y-72.587
X184.113Y-91.587
X184.113Y-110.587
X197.175Y-138.729
T0
M30
