G04 #@! TF.GenerationSoftware,KiCad,Pcbnew,7.0.5-0*
G04 #@! TF.CreationDate,2023-06-11T17:15:19+08:00*
G04 #@! TF.ProjectId,AWKB,41574b42-2e6b-4696-9361-645f70636258,rev?*
G04 #@! TF.SameCoordinates,Original*
G04 #@! TF.FileFunction,Soldermask,Top*
G04 #@! TF.FilePolarity,Negative*
%FSLAX46Y46*%
G04 Gerber Fmt 4.6, Leading zero omitted, Abs format (unit mm)*
G04 Created by KiCad (PCBNEW 7.0.5-0) date 2023-06-11 17:15:19*
%MOMM*%
%LPD*%
G01*
G04 APERTURE LIST*
G04 Aperture macros list*
%AMRoundRect*
0 Rectangle with rounded corners*
0 $1 Rounding radius*
0 $2 $3 $4 $5 $6 $7 $8 $9 X,Y pos of 4 corners*
0 Add a 4 corners polygon primitive as box body*
4,1,4,$2,$3,$4,$5,$6,$7,$8,$9,$2,$3,0*
0 Add four circle primitives for the rounded corners*
1,1,$1+$1,$2,$3*
1,1,$1+$1,$4,$5*
1,1,$1+$1,$6,$7*
1,1,$1+$1,$8,$9*
0 Add four rect primitives between the rounded corners*
20,1,$1+$1,$2,$3,$4,$5,0*
20,1,$1+$1,$4,$5,$6,$7,0*
20,1,$1+$1,$6,$7,$8,$9,0*
20,1,$1+$1,$8,$9,$2,$3,0*%
%AMHorizOval*
0 Thick line with rounded ends*
0 $1 width*
0 $2 $3 position (X,Y) of the first rounded end (center of the circle)*
0 $4 $5 position (X,Y) of the second rounded end (center of the circle)*
0 Add line between two ends*
20,1,$1,$2,$3,$4,$5,0*
0 Add two circle primitives to create the rounded ends*
1,1,$1,$2,$3*
1,1,$1,$4,$5*%
%AMFreePoly0*
4,1,414,-2.663564,6.707050,-2.641221,6.706150,-2.627714,6.704682,-2.557310,6.692154,-2.496946,6.671026,-2.423852,6.631355,-2.413687,6.625023,-2.398814,6.614472,-2.158972,6.440888,-1.894926,6.250226,-1.604825,6.041150,-1.340970,5.851270,-1.340970,5.851269,-0.908659,5.540346,1.016000,5.540345,1.102777,5.520541,1.172366,5.465043,1.210986,5.384850,1.216000,5.340346,1.216000,4.009931,
1.299751,3.950054,1.397604,3.879440,1.472196,3.823385,1.475820,3.820528,1.531511,3.774507,1.538834,3.767818,1.574924,3.731412,1.599100,3.701843,1.617824,3.673864,1.642241,3.623128,1.650707,3.596451,1.659584,3.549979,1.661424,3.523819,1.657476,3.467890,1.643544,3.402871,1.621142,3.344696,1.575521,3.265763,1.570063,3.257327,1.474398,3.124598,1.474399,3.124598,
1.399655,3.020777,1.341070,2.939228,1.295956,2.876188,1.262955,2.829761,1.239581,2.796469,1.228629,2.780518,1.228382,2.778534,1.226098,2.749223,1.223899,2.705055,1.221971,2.645262,1.220353,2.568240,1.219044,2.472608,1.218021,2.356402,1.217250,2.217703,1.216700,2.054330,1.216701,2.054330,1.216336,1.864310,1.216122,1.646064,1.216022,1.397277,1.216000,1.156191,
1.216000,-0.508000,1.196194,-0.594777,1.140698,-0.664366,1.060504,-0.702986,1.016000,-0.708000,-1.300867,-0.708000,-1.317305,-0.721955,-1.374130,-0.762724,-1.456184,-0.797217,-1.462328,-0.798196,-1.521438,-0.806672,-1.610148,-0.799384,-1.618523,-0.796529,-1.683626,-0.772720,-1.726325,-0.750993,-1.765907,-0.724447,-1.770550,-0.721139,-1.786681,-0.708933,-4.832406,-0.708000,-4.919177,-0.688166,
-4.988750,-0.632650,-5.027344,-0.552444,-5.032345,-0.508064,-5.032395,-0.352086,-5.032421,-0.271829,-3.059387,-0.271830,-2.944889,-0.271615,-2.944888,-0.271615,-2.758679,-0.271042,-2.580739,-0.270256,-2.580738,-0.270256,-2.414939,-0.269261,-2.414940,-0.269261,-2.402157,-0.269159,-2.423194,-0.254061,-2.551428,-0.161856,-2.680405,-0.068976,-2.801942,0.018686,-2.907841,0.095225,-2.951636,0.126949,
-3.041522,0.192069,-3.054493,0.201448,-3.054493,-0.250384,-3.059387,-0.271830,-5.032421,-0.271829,-5.033035,1.627051,-5.116088,1.686225,-5.284226,1.806363,-5.425283,1.907915,-5.540186,1.991566,-5.630162,2.058240,-5.695871,2.108467,-5.698372,2.110442,-5.741778,2.145869,-5.747390,2.150809,-5.763238,2.165850,-5.804603,2.221793,-5.831146,2.275116,-5.852084,2.361626,-5.851576,2.378731,
-5.846892,2.443206,-5.827099,2.516549,-5.820642,2.529758,-5.788356,2.595805,-5.784989,2.601633,-4.580894,2.601633,-4.580837,2.458573,-4.580478,2.346570,-4.579555,2.262461,-4.577881,2.203736,-4.577285,2.194667,-4.548415,2.172831,-4.483289,2.124673,-4.404467,2.067194,-4.317291,2.004343,-4.304320,1.995049,-3.789717,1.626690,-3.693155,1.557418,-3.588658,1.482202,-3.493513,1.413516,
-3.493469,1.417579,-3.492215,1.570234,-3.491128,1.743282,-3.490225,1.934674,-3.489527,2.141404,-3.489052,2.361431,-3.488816,2.592405,-3.488794,2.690627,-3.488794,4.145613,-3.780439,4.145613,-3.797838,4.121466,-3.833847,4.071538,-3.884822,4.000919,-3.945645,3.916699,-4.011204,3.825953,-4.061105,3.756906,-4.138874,3.649180,-4.227667,3.525969,-4.318193,3.400180,-4.401743,3.283907,
-4.432523,3.241007,-4.580894,3.034101,-4.580894,2.601633,-5.784989,2.601633,-5.781445,2.607769,-5.775409,2.616730,-5.747746,2.656569,-5.702905,2.720059,-5.642947,2.804351,-5.569964,2.906530,-5.486213,3.023444,-5.393993,3.151881,-5.295612,3.288617,-5.193407,3.430389,-5.157803,3.479711,-5.032345,3.653438,-5.032345,4.562763,-3.478749,4.562763,-3.254493,4.562763,-3.167716,4.542957,
-3.098127,4.487461,-3.059507,4.407267,-3.054493,4.362825,-3.053482,1.095367,-2.755790,0.881825,-2.538863,0.726188,-2.348318,0.589414,-2.182662,0.470425,-2.040390,0.368136,-1.919993,0.281460,-1.830611,0.216986,-1.818379,1.744532,-1.390887,1.744532,-1.390887,0.872621,-1.390687,0.684777,-1.390113,0.507776,-1.389488,0.395984,-1.362208,0.434001,-1.282405,0.545014,-1.202983,0.655306,
-1.126858,0.760817,-1.056931,0.857505,-0.996121,0.941303,-0.964901,0.984151,-0.913707,1.054538,-0.851488,1.140514,-0.788030,1.228536,-0.750017,1.281458,-0.468879,1.673602,-0.418955,1.742967,-0.420240,1.742985,-0.587428,1.744095,-0.788602,1.744526,-0.788601,1.744526,-0.819150,1.744532,-1.390887,1.744532,-1.818379,1.744532,-1.816764,1.946135,-1.816608,1.965721,-1.796105,2.052336,
-1.740054,2.121479,-1.659553,2.159454,-1.617377,2.164117,-0.111097,2.169868,0.138817,2.516086,0.227450,2.638853,0.320064,2.767098,0.411852,2.894166,0.498011,3.013410,0.573742,3.118189,0.634535,3.202258,0.779387,3.402484,0.778132,3.427196,0.736528,3.458396,0.663454,3.512361,0.580098,3.572686,0.503228,3.627241,0.499236,3.630032,0.490935,3.635826,-0.332040,3.040808,
-0.491563,2.925814,-0.643339,2.817068,-0.784955,2.716258,-0.914136,2.624974,-1.028637,2.544784,-1.126312,2.477194,-1.205320,2.423507,-1.263590,2.385237,-1.267202,2.382973,-1.300050,2.363349,-1.335772,2.346546,-1.341637,2.344468,-1.430043,2.334129,-1.514180,2.363173,-1.549349,2.390986,-1.568831,2.410314,-1.575615,2.417759,-1.612287,2.462315,-1.614024,2.464486,-1.661873,2.526034,
-1.719812,2.602912,-1.784355,2.690558,-1.813064,2.730129,-1.897224,2.846653,-1.992502,2.978597,-2.090826,3.114777,-2.184002,3.243845,-2.251013,3.336686,-2.319043,3.430882,-2.402203,3.545922,-2.402202,3.545922,-2.495312,3.674648,-2.495313,3.674648,-2.593439,3.810237,-2.593438,3.810237,-2.691394,3.945522,-2.790634,4.082500,-2.879547,4.205244,-2.970969,4.331572,-3.060519,4.455420,
-3.143837,4.570758,-3.216578,4.671573,-3.274379,4.751822,-3.283113,4.763969,-3.308252,4.798680,-3.309485,4.796953,-3.367768,4.715859,-3.427376,4.633472,-3.478749,4.562763,-5.032345,4.562763,-5.032345,5.088893,-4.580894,5.088894,-4.580894,4.835834,-4.580509,4.692777,-4.579279,4.581848,-4.578828,4.564933,-4.530979,4.564588,-4.453634,4.565158,-4.384004,4.566788,-4.373602,4.567285,
-4.372294,4.568938,-4.320581,4.638596,-4.253334,4.732398,-4.221007,4.778279,-4.190391,4.821521,-4.144475,4.885859,-4.088149,4.964468,-4.026093,5.050817,-3.998998,5.088421,-4.071032,5.088758,-4.179382,5.088875,-2.969943,5.088875,-2.904744,4.998038,-2.807937,4.863599,-2.691454,4.702178,-2.555289,4.513770,-2.555289,4.513770,-2.399346,4.298241,-2.399346,4.298240,-2.223932,4.056015,
-2.191157,4.010778,-2.057824,3.826715,-1.942489,3.667405,-1.843008,3.529873,-1.757234,3.411137,-1.683021,3.308215,-1.618222,3.218130,-1.560700,3.137912,-1.508322,3.064603,-1.458972,2.995262,-1.414225,2.932165,-1.359497,2.855894,-1.355693,2.850744,-1.307082,2.885041,-1.205315,2.957385,-1.088324,3.041002,-0.958198,3.134408,-0.818136,3.235324,-0.818137,3.235325,-0.691009,3.327222,
-0.540362,3.436266,-0.395328,3.541212,-0.258867,3.639921,-0.133822,3.730337,-0.023033,3.810409,0.070663,3.878086,0.112494,3.908272,0.101072,3.916610,0.054852,3.950351,-0.046932,4.023566,-0.165523,4.108922,-0.291229,4.199442,-0.413710,4.287679,-0.507292,4.355131,-0.507291,4.355131,-0.608845,4.428321,-0.608843,4.428321,-0.729816,4.515456,-0.729816,4.515456,-0.861943,4.610589,
-0.996814,4.707660,-1.126055,4.800645,-1.193145,4.848896,-1.193144,4.848896,-1.526707,5.088757,-2.969943,5.088875,-4.179382,5.088875,-4.196977,5.088894,-4.580894,5.088894,-5.032345,5.088893,-5.032345,5.340346,-5.012538,5.427123,-4.957043,5.496712,-4.876849,5.535332,-4.832345,5.540346,-3.672979,5.540346,-3.671844,5.541921,-2.774877,5.541921,-2.654613,5.541104,-2.503084,5.540526,
-2.354041,5.540346,-2.192679,5.540502,-2.154401,5.540618,-2.179528,5.558770,-2.410073,5.725327,-2.472505,5.770435,-2.549554,5.824927,-2.563214,5.834142,-2.593747,5.792542,-2.653498,5.710414,-2.716249,5.623563,-2.774877,5.541921,-3.671844,5.541921,-3.451646,5.847456,-3.331591,6.014124,-3.229883,6.155310,-3.144709,6.273254,-3.074211,6.370242,-3.016438,6.448685,-2.969891,6.510352,
-2.968577,6.512055,-2.931280,6.559320,-2.928782,6.562361,-2.897756,6.598645,-2.892800,6.604029,-2.864383,6.632720,-2.854177,6.641712,-2.832303,6.658487,-2.792701,6.682153,-2.779068,6.688291,-2.724859,6.703967,-2.712337,6.705731,-2.677032,6.707549,-2.663564,6.707050,-2.663564,6.707050,$1*%
%AMFreePoly1*
4,1,22,0.686777,0.580194,0.756366,0.524698,0.794986,0.444504,0.799999,0.400000,0.800000,0.200000,0.780194,0.113223,0.741421,0.058579,0.141421,-0.541421,0.066056,-0.588777,-0.022393,-0.598742,-0.106406,-0.569345,-0.141421,-0.541421,-0.741421,0.058579,-0.788777,0.133944,-0.800000,0.200000,-0.800000,0.400000,-0.780194,0.486777,-0.724698,0.556366,-0.644504,0.594986,-0.600000,0.600000,
0.600000,0.600000,0.686777,0.580194,0.686777,0.580194,$1*%
%AMFreePoly2*
4,1,26,0.706406,1.169345,0.769345,1.106406,0.798742,1.022393,0.800000,1.000000,0.800000,-0.250000,0.780194,-0.336777,0.724698,-0.406366,0.644504,-0.444986,0.600000,-0.450000,-0.600000,-0.450000,-0.686777,-0.430194,-0.756366,-0.374698,-0.794986,-0.294504,-0.800000,-0.250000,-0.800001,1.000000,-0.780194,1.086777,-0.724698,1.156366,-0.644504,1.194985,-0.555496,1.194986,-0.475302,1.156366,
-0.458579,1.141421,0.000000,0.682842,0.458579,1.141421,0.533944,1.188777,0.622393,1.198742,0.706406,1.169345,0.706406,1.169345,$1*%
G04 Aperture macros list end*
%ADD10C,0.100000*%
%ADD11FreePoly0,35.000000*%
%ADD12C,1.200000*%
%ADD13HorizOval,2.000000X0.051764X0.193185X-0.051764X-0.193185X0*%
%ADD14HorizOval,2.000000X-0.051764X-0.193185X0.051764X0.193185X0*%
%ADD15C,2.300000*%
%ADD16C,2.100000*%
%ADD17C,3.400000*%
%ADD18C,4.400000*%
%ADD19RoundRect,0.200000X1.000000X1.000000X-1.000000X1.000000X-1.000000X-1.000000X1.000000X-1.000000X0*%
%ADD20RoundRect,0.200000X0.900000X1.000000X-0.900000X1.000000X-0.900000X-1.000000X0.900000X-1.000000X0*%
%ADD21RoundRect,0.200000X-0.600000X-0.700000X0.600000X-0.700000X0.600000X0.700000X-0.600000X0.700000X0*%
%ADD22C,3.600000*%
%ADD23RoundRect,0.200000X1.224745X0.707107X-0.707107X1.224745X-1.224745X-0.707107X0.707107X-1.224745X0*%
%ADD24RoundRect,0.200000X1.128152X0.732989X-0.610514X1.198863X-1.128152X-0.732989X0.610514X-1.198863X0*%
%ADD25RoundRect,0.200000X0.909039X1.083350X-1.083350X0.909039X-0.909039X-1.083350X1.083350X-0.909039X0*%
%ADD26RoundRect,0.200000X0.809419X1.074635X-0.983731X0.917755X-0.809419X-1.074635X0.983731X-0.917755X0*%
%ADD27C,2.000000*%
%ADD28FreePoly1,185.000000*%
%ADD29FreePoly1,5.000000*%
%ADD30FreePoly2,5.000000*%
%ADD31FreePoly2,185.000000*%
%ADD32RoundRect,0.200000X-0.760729X-0.520857X0.398382X-0.831440X0.760729X0.520857X-0.398382X0.831440X0*%
%ADD33RoundRect,0.200000X-0.536708X-0.749630X0.658726X-0.645043X0.536708X0.749630X-0.658726X0.645043X0*%
%ADD34C,1.100000*%
G04 APERTURE END LIST*
D10*
X112369413Y-137759707D02*
X111357279Y-137848257D01*
X111268729Y-136836123D01*
X112280863Y-136747573D01*
X112369413Y-137759707D01*
G36*
X112369413Y-137759707D02*
G01*
X111357279Y-137848257D01*
X111268729Y-136836123D01*
X112280863Y-136747573D01*
X112369413Y-137759707D01*
G37*
X114899747Y-137538331D02*
X113887614Y-137626882D01*
X113799063Y-136614748D01*
X114811197Y-136526198D01*
X114899747Y-137538331D01*
G36*
X114899747Y-137538331D02*
G01*
X113887614Y-137626882D01*
X113799063Y-136614748D01*
X114811197Y-136526198D01*
X114899747Y-137538331D01*
G37*
X117430082Y-137316956D02*
X116417948Y-137405506D01*
X116329398Y-136393372D01*
X117341532Y-136304822D01*
X117430082Y-137316956D01*
G36*
X117430082Y-137316956D02*
G01*
X116417948Y-137405506D01*
X116329398Y-136393372D01*
X117341532Y-136304822D01*
X117430082Y-137316956D01*
G37*
X119960416Y-137095580D02*
X118948283Y-137184130D01*
X118859732Y-136171997D01*
X119871866Y-136083446D01*
X119960416Y-137095580D01*
G36*
X119960416Y-137095580D02*
G01*
X118948283Y-137184130D01*
X118859732Y-136171997D01*
X119871866Y-136083446D01*
X119960416Y-137095580D01*
G37*
X122490751Y-136874205D02*
X121478617Y-136962755D01*
X121390067Y-135950621D01*
X122402201Y-135862071D01*
X122490751Y-136874205D01*
G36*
X122490751Y-136874205D02*
G01*
X121478617Y-136962755D01*
X121390067Y-135950621D01*
X122402201Y-135862071D01*
X122490751Y-136874205D01*
G37*
X125021086Y-136652829D02*
X124008952Y-136741379D01*
X123920402Y-135729245D01*
X124932535Y-135640695D01*
X125021086Y-136652829D01*
G36*
X125021086Y-136652829D02*
G01*
X124008952Y-136741379D01*
X123920402Y-135729245D01*
X124932535Y-135640695D01*
X125021086Y-136652829D01*
G37*
X127551420Y-136431453D02*
X126539286Y-136520004D01*
X126450736Y-135507870D01*
X127462870Y-135419320D01*
X127551420Y-136431453D01*
G36*
X127551420Y-136431453D02*
G01*
X126539286Y-136520004D01*
X126450736Y-135507870D01*
X127462870Y-135419320D01*
X127551420Y-136431453D01*
G37*
X111377650Y-126423808D02*
X110365516Y-126512359D01*
X110276966Y-125500225D01*
X111289100Y-125411674D01*
X111377650Y-126423808D01*
G36*
X111377650Y-126423808D02*
G01*
X110365516Y-126512359D01*
X110276966Y-125500225D01*
X111289100Y-125411674D01*
X111377650Y-126423808D01*
G37*
X113907985Y-126202433D02*
X112895851Y-126290983D01*
X112807301Y-125278849D01*
X113819435Y-125190299D01*
X113907985Y-126202433D01*
G36*
X113907985Y-126202433D02*
G01*
X112895851Y-126290983D01*
X112807301Y-125278849D01*
X113819435Y-125190299D01*
X113907985Y-126202433D01*
G37*
X116438319Y-125981057D02*
X115426186Y-126069607D01*
X115337635Y-125057474D01*
X116349769Y-124968923D01*
X116438319Y-125981057D01*
G36*
X116438319Y-125981057D02*
G01*
X115426186Y-126069607D01*
X115337635Y-125057474D01*
X116349769Y-124968923D01*
X116438319Y-125981057D01*
G37*
X118968654Y-125759682D02*
X117956520Y-125848232D01*
X117867970Y-124836098D01*
X118880104Y-124747548D01*
X118968654Y-125759682D01*
G36*
X118968654Y-125759682D02*
G01*
X117956520Y-125848232D01*
X117867970Y-124836098D01*
X118880104Y-124747548D01*
X118968654Y-125759682D01*
G37*
X121498988Y-125538306D02*
X120486855Y-125626856D01*
X120398304Y-124614722D01*
X121410438Y-124526172D01*
X121498988Y-125538306D01*
G36*
X121498988Y-125538306D02*
G01*
X120486855Y-125626856D01*
X120398304Y-124614722D01*
X121410438Y-124526172D01*
X121498988Y-125538306D01*
G37*
X124029323Y-125316930D02*
X123017189Y-125405481D01*
X122928639Y-124393347D01*
X123940773Y-124304797D01*
X124029323Y-125316930D01*
G36*
X124029323Y-125316930D02*
G01*
X123017189Y-125405481D01*
X122928639Y-124393347D01*
X123940773Y-124304797D01*
X124029323Y-125316930D01*
G37*
X126559657Y-125095555D02*
X125547524Y-125184105D01*
X125458973Y-124171971D01*
X126471107Y-124083421D01*
X126559657Y-125095555D01*
G36*
X126559657Y-125095555D02*
G01*
X125547524Y-125184105D01*
X125458973Y-124171971D01*
X126471107Y-124083421D01*
X126559657Y-125095555D01*
G37*
D11*
X145097000Y-132765800D03*
D12*
X199392895Y-116091550D03*
X197581161Y-122853031D03*
D13*
X194911267Y-123814783D03*
D14*
X199388680Y-124993796D03*
D13*
X195946543Y-119951079D03*
D14*
X200423956Y-121130093D03*
D13*
X196723000Y-117053302D03*
D14*
X201200413Y-118232315D03*
X194660720Y-124865747D03*
D13*
X199069825Y-126067869D03*
D15*
X121613328Y-109786994D03*
D16*
X122033328Y-109786994D03*
D17*
X122113328Y-113486994D03*
X123303328Y-107246994D03*
X124573328Y-104706994D03*
D18*
X127113328Y-109786994D03*
D17*
X127113328Y-115686994D03*
X129653328Y-104706994D03*
X130923328Y-107246994D03*
X132113328Y-113486994D03*
D16*
X132193328Y-109786994D03*
D15*
X132613328Y-109786994D03*
D19*
X121513328Y-104706994D03*
D20*
X124313328Y-115686994D03*
D19*
X134013328Y-107246994D03*
X135213328Y-113486994D03*
D21*
X170082000Y-117007000D03*
X173482000Y-117007000D03*
D15*
X121613328Y-90787394D03*
D16*
X122033328Y-90787394D03*
D17*
X122113328Y-94487394D03*
X123303328Y-88247394D03*
X124573328Y-85707394D03*
D18*
X127113328Y-90787394D03*
D17*
X127113328Y-96687394D03*
X129653328Y-85707394D03*
X130923328Y-88247394D03*
X132113328Y-94487394D03*
D16*
X132193328Y-90787394D03*
D15*
X132613328Y-90787394D03*
D19*
X121513328Y-85707394D03*
D20*
X124313328Y-96687394D03*
D19*
X134013328Y-88247394D03*
X135213328Y-94487394D03*
D22*
X177571400Y-61595000D03*
D21*
X170082000Y-98006600D03*
X173482000Y-98006600D03*
D15*
X173562946Y-131387733D03*
D16*
X173968635Y-131496437D03*
D17*
X173088278Y-135091068D03*
X175852761Y-129371686D03*
X177736887Y-127246934D03*
D18*
X178875538Y-132811238D03*
D17*
X177348506Y-138510200D03*
X182643790Y-128561735D03*
X183213116Y-131343887D03*
X182747537Y-137679259D03*
D16*
X183782441Y-134126039D03*
D15*
X184188130Y-134234743D03*
D23*
X174781154Y-126454948D03*
D24*
X174643913Y-137785507D03*
D23*
X186197827Y-132143638D03*
X185741907Y-138481598D03*
D15*
X102613128Y-74149994D03*
D16*
X103033128Y-74149994D03*
D17*
X103113128Y-77849994D03*
X104303128Y-71609994D03*
X105573128Y-69069994D03*
D18*
X108113128Y-74149994D03*
D17*
X108113128Y-80049994D03*
X110653128Y-69069994D03*
X111923128Y-71609994D03*
X113113128Y-77849994D03*
D16*
X113193128Y-74149994D03*
D15*
X113613128Y-74149994D03*
D19*
X102513128Y-69069994D03*
D20*
X105313128Y-80049994D03*
D19*
X115013128Y-71609994D03*
X116213128Y-77849994D03*
D15*
X100684341Y-94064498D03*
D16*
X101102743Y-94027892D03*
D17*
X101504915Y-97706840D03*
X102146535Y-91386870D03*
X103190326Y-88745848D03*
D18*
X106163412Y-93585141D03*
D17*
X106677631Y-99462690D03*
X108250995Y-88303096D03*
X109737538Y-90722743D03*
X111466862Y-96835283D03*
D16*
X111224081Y-93142390D03*
D15*
X111642483Y-93105784D03*
D25*
X100141971Y-89012544D03*
D26*
X103888286Y-99706726D03*
D25*
X112815780Y-90453432D03*
X114555065Y-96565100D03*
D21*
X131982000Y-118006400D03*
X135382000Y-118006400D03*
X170082000Y-79006640D03*
X173482000Y-79006640D03*
D22*
X165620200Y-132943600D03*
D21*
X192405000Y-99806000D03*
X189005000Y-99806000D03*
X151005102Y-75696440D03*
X154405102Y-75696440D03*
X192405000Y-118806000D03*
X189005000Y-118806000D03*
D22*
X133895600Y-134799386D03*
D15*
X191862097Y-137305296D03*
D16*
X192267786Y-137414000D03*
D17*
X191387429Y-141008631D03*
X194151912Y-135289249D03*
X196036038Y-133164497D03*
D18*
X197174689Y-138728801D03*
D17*
X195647657Y-144427763D03*
X200942941Y-134479298D03*
X201512267Y-137261450D03*
X201046688Y-143596822D03*
D16*
X202081592Y-140043602D03*
D15*
X202487281Y-140152306D03*
D23*
X193080305Y-132372511D03*
D24*
X192943064Y-143703070D03*
D23*
X204496978Y-138061201D03*
X204041058Y-144399161D03*
D27*
X111981982Y-139160002D03*
X114512317Y-138938627D03*
X117042651Y-138717251D03*
X119572986Y-138495876D03*
X122103321Y-138274500D03*
X124633655Y-138053124D03*
X127163990Y-137831749D03*
D28*
X111841208Y-137550949D03*
X114371543Y-137329573D03*
X116901877Y-137108197D03*
X119432212Y-136886822D03*
X121962547Y-136665446D03*
X124492881Y-136444071D03*
X127023216Y-136222695D03*
D29*
X110805171Y-125708983D03*
X113335505Y-125487607D03*
X115865840Y-125266232D03*
X118396174Y-125044856D03*
X120926509Y-124823481D03*
X123456843Y-124602105D03*
X125987178Y-124380730D03*
D27*
X110665704Y-124114872D03*
X113196039Y-123893497D03*
X115726373Y-123672121D03*
X118256708Y-123450746D03*
X120787042Y-123229370D03*
X123317377Y-123007994D03*
X125847711Y-122786619D03*
D30*
X110893721Y-126721117D03*
X113424055Y-126499741D03*
X115954390Y-126278366D03*
X118484725Y-126056990D03*
X121015059Y-125835615D03*
X123545394Y-125614239D03*
X126075728Y-125392863D03*
D31*
X126934665Y-135210561D03*
X124404331Y-135431937D03*
X121873996Y-135653312D03*
X119343662Y-135874688D03*
X116813327Y-136096064D03*
X114282993Y-136317439D03*
X111752658Y-136538815D03*
D21*
X192405000Y-80806200D03*
X189005000Y-80806200D03*
D15*
X140612728Y-105477194D03*
D16*
X141032728Y-105477194D03*
D17*
X141112728Y-109177194D03*
X142302728Y-102937194D03*
X143572728Y-100397194D03*
D18*
X146112728Y-105477194D03*
D17*
X146112728Y-111377194D03*
X148652728Y-100397194D03*
X149922728Y-102937194D03*
X151112728Y-109177194D03*
D16*
X151192728Y-105477194D03*
D15*
X151612728Y-105477194D03*
D19*
X140512728Y-100397194D03*
D20*
X143312728Y-111377194D03*
D19*
X153012728Y-102937194D03*
X154212728Y-109177194D03*
D22*
X202958206Y-128782383D03*
D32*
X194979326Y-129531808D03*
X198263474Y-130411792D03*
D15*
X159612928Y-70787234D03*
D16*
X160032928Y-70787234D03*
D17*
X160112928Y-74487234D03*
X161302928Y-68247234D03*
X162572928Y-65707234D03*
D18*
X165112928Y-70787234D03*
D17*
X165112928Y-76687234D03*
X167652928Y-65707234D03*
X168922928Y-68247234D03*
X170112928Y-74487234D03*
D16*
X170192928Y-70787234D03*
D15*
X170612928Y-70787234D03*
D19*
X159512928Y-65707234D03*
D20*
X162312928Y-76687234D03*
D19*
X172012928Y-68247234D03*
X173212928Y-74487234D03*
D15*
X121613328Y-71787794D03*
D16*
X122033328Y-71787794D03*
D17*
X122113328Y-75487794D03*
X123303328Y-69247794D03*
X124573328Y-66707794D03*
D18*
X127113328Y-71787794D03*
D17*
X127113328Y-77687794D03*
X129653328Y-66707794D03*
X130923328Y-69247794D03*
X132113328Y-75487794D03*
D16*
X132193328Y-71787794D03*
D15*
X132613328Y-71787794D03*
D19*
X121513328Y-66707794D03*
D20*
X124313328Y-77687794D03*
D19*
X134013328Y-69247794D03*
X135213328Y-75487794D03*
X192212626Y-76286794D03*
X191012626Y-70046794D03*
D20*
X181312626Y-78486794D03*
D19*
X178512626Y-67506794D03*
D15*
X189612626Y-72586794D03*
D16*
X189192626Y-72586794D03*
D17*
X189112626Y-76286794D03*
X187922626Y-70046794D03*
X186652626Y-67506794D03*
X184112626Y-78486794D03*
D18*
X184112626Y-72586794D03*
D17*
X181572626Y-67506794D03*
X180302626Y-70046794D03*
X179112626Y-76286794D03*
D16*
X179032626Y-72586794D03*
D15*
X178612626Y-72586794D03*
D32*
X185691852Y-126120016D03*
X188976000Y-127000000D03*
D33*
X116886462Y-120050270D03*
X113499400Y-120346600D03*
D21*
X131982000Y-99006800D03*
X135382000Y-99006800D03*
D33*
X111839083Y-101369091D03*
X115226145Y-101072761D03*
D21*
X131982000Y-80007200D03*
X135382000Y-80007200D03*
D15*
X159612928Y-108787594D03*
D16*
X160032928Y-108787594D03*
D17*
X160112928Y-112487594D03*
X161302928Y-106247594D03*
X162572928Y-103707594D03*
D18*
X165112928Y-108787594D03*
D17*
X165112928Y-114687594D03*
X167652928Y-103707594D03*
X168922928Y-106247594D03*
X170112928Y-112487594D03*
D16*
X170192928Y-108787594D03*
D15*
X170612928Y-108787594D03*
D19*
X159512928Y-103707594D03*
D20*
X162312928Y-114687594D03*
D19*
X172012928Y-106247594D03*
X173212928Y-112487594D03*
D21*
X151005102Y-113696600D03*
X154405102Y-113696600D03*
X112932000Y-82369400D03*
X116332000Y-82369400D03*
D19*
X192212626Y-114286594D03*
X191012626Y-108046594D03*
D20*
X181312626Y-116486594D03*
D19*
X178512626Y-105506594D03*
D15*
X189612626Y-110586594D03*
D16*
X189192626Y-110586594D03*
D17*
X189112626Y-114286594D03*
X187922626Y-108046594D03*
X186652626Y-105506594D03*
X184112626Y-116486594D03*
D18*
X184112626Y-110586594D03*
D17*
X181572626Y-105506594D03*
X180302626Y-108046594D03*
X179112626Y-114286594D03*
D16*
X179032626Y-110586594D03*
D15*
X178612626Y-110586594D03*
X159612928Y-89787194D03*
D16*
X160032928Y-89787194D03*
D17*
X160112928Y-93487194D03*
X161302928Y-87247194D03*
X162572928Y-84707194D03*
D18*
X165112928Y-89787194D03*
D17*
X165112928Y-95687194D03*
X167652928Y-84707194D03*
X168922928Y-87247194D03*
X170112928Y-93487194D03*
D16*
X170192928Y-89787194D03*
D15*
X170612928Y-89787194D03*
D19*
X159512928Y-84707194D03*
D20*
X162312928Y-95687194D03*
D19*
X172012928Y-87247194D03*
X173212928Y-93487194D03*
D21*
X151005102Y-94696400D03*
X154405102Y-94696400D03*
D19*
X192212626Y-95286594D03*
X191012626Y-89046594D03*
D20*
X181312626Y-97486594D03*
D19*
X178512626Y-86506594D03*
D15*
X189612626Y-91586594D03*
D16*
X189192626Y-91586594D03*
D17*
X189112626Y-95286594D03*
X187922626Y-89046594D03*
X186652626Y-86506594D03*
X184112626Y-97486594D03*
D18*
X184112626Y-91586594D03*
D17*
X181572626Y-86506594D03*
X180302626Y-89046594D03*
X179112626Y-95286594D03*
D16*
X179032626Y-91586594D03*
D15*
X178612626Y-91586594D03*
X140612728Y-67477034D03*
D16*
X141032728Y-67477034D03*
D17*
X141112728Y-71177034D03*
X142302728Y-64937034D03*
X143572728Y-62397034D03*
D18*
X146112728Y-67477034D03*
D17*
X146112728Y-73377034D03*
X148652728Y-62397034D03*
X149922728Y-64937034D03*
X151112728Y-71177034D03*
D16*
X151192728Y-67477034D03*
D15*
X151612728Y-67477034D03*
D19*
X140512728Y-62397034D03*
D20*
X143312728Y-73377034D03*
D19*
X153012728Y-64937034D03*
X154212728Y-71177034D03*
D22*
X116014000Y-62839600D03*
D15*
X140612728Y-86476994D03*
D16*
X141032728Y-86476994D03*
D17*
X141112728Y-90176994D03*
X142302728Y-83936994D03*
X143572728Y-81396994D03*
D18*
X146112728Y-86476994D03*
D17*
X146112728Y-92376994D03*
X148652728Y-81396994D03*
X149922728Y-83936994D03*
X151112728Y-90176994D03*
D16*
X151192728Y-86476994D03*
D15*
X151612728Y-86476994D03*
D19*
X140512728Y-81396994D03*
D20*
X143312728Y-92376994D03*
D19*
X153012728Y-83936994D03*
X154212728Y-90176994D03*
D25*
X116211024Y-115492799D03*
X114471739Y-109381131D03*
D26*
X105544245Y-118634425D03*
D25*
X101797930Y-107940243D03*
D15*
X113298442Y-112033483D03*
D16*
X112880040Y-112070089D03*
D17*
X113122821Y-115762982D03*
X111393497Y-109650442D03*
X109906954Y-107230795D03*
X108333590Y-118390389D03*
D18*
X107819371Y-112512840D03*
D17*
X104846285Y-107673547D03*
X103802494Y-110314569D03*
X103160874Y-116634539D03*
D16*
X102758702Y-112955591D03*
D15*
X102340300Y-112992197D03*
D12*
X108419400Y-103835200D03*
D34*
X113499400Y-120346600D03*
X116886462Y-120050270D03*
X111122935Y-118146353D03*
X112955310Y-106964099D03*
X111839083Y-101369091D03*
X115226145Y-101072761D03*
X109466976Y-99218654D03*
X111299351Y-88036400D03*
X124404331Y-129438400D03*
X130389065Y-126668465D03*
X126934665Y-126668465D03*
X124404331Y-126796800D03*
X121873996Y-127000000D03*
X119343662Y-127251738D03*
D12*
X116813327Y-127519927D03*
X114282993Y-127791207D03*
X111752658Y-127933942D03*
D34*
X126075728Y-133988328D03*
X123557800Y-134213600D03*
X121068600Y-134467600D03*
X118477800Y-134670800D03*
X116013827Y-134874000D03*
X113483493Y-135077200D03*
X110953158Y-135483600D03*
X100072670Y-116904722D03*
X100724252Y-110583880D03*
X98416711Y-97977023D03*
X99068293Y-91656181D03*
D12*
X191985406Y-83732983D03*
D34*
X131982000Y-80007200D03*
X112932000Y-82369400D03*
X151005102Y-75696440D03*
X170082000Y-79006640D03*
X189005000Y-80806200D03*
X151005102Y-94696400D03*
X131982000Y-99006800D03*
X170082000Y-98006600D03*
X189005000Y-99806000D03*
X131982000Y-118006400D03*
X151005102Y-113696600D03*
X189005000Y-118806000D03*
X170082000Y-117007000D03*
X185691852Y-126120016D03*
X194979326Y-129531808D03*
X113713128Y-69069994D03*
X116332000Y-82369400D03*
X110913128Y-80049994D03*
X132713328Y-66707794D03*
X135382000Y-80007200D03*
X129913328Y-77687794D03*
X148912728Y-73377034D03*
X151712728Y-62397034D03*
X154405102Y-75696440D03*
X167912928Y-76687234D03*
X173482000Y-79006640D03*
X170712928Y-65707234D03*
X186912626Y-78486794D03*
X189712626Y-67506794D03*
X192405000Y-80806200D03*
D12*
X119202200Y-102692200D03*
X163880800Y-118414800D03*
X142087600Y-116916200D03*
X174015400Y-123799600D03*
X178384200Y-117612200D03*
D34*
X100013128Y-77849994D03*
X101213128Y-71609994D03*
X120213328Y-69247794D03*
X119013328Y-94487394D03*
X119013328Y-113486994D03*
X120213328Y-88247394D03*
X120213328Y-107246994D03*
X119013328Y-75487794D03*
X138012728Y-109177194D03*
X138012728Y-90176994D03*
X139212728Y-102937194D03*
X139212728Y-83936994D03*
X138012728Y-71177034D03*
X139212728Y-64937034D03*
X172868050Y-128571935D03*
X158212928Y-106247594D03*
X157012928Y-112487594D03*
X155917400Y-119228900D03*
X170093908Y-134288729D03*
X157012928Y-74487234D03*
X157012928Y-93487194D03*
X158212928Y-87247194D03*
X158212928Y-68247234D03*
X132713328Y-85707394D03*
X129913328Y-96687394D03*
X135382000Y-99006800D03*
X154405102Y-94696400D03*
X151712728Y-81396994D03*
X148912728Y-92376994D03*
X167912928Y-95687194D03*
X173482000Y-98006600D03*
X170712928Y-84707194D03*
X189712626Y-86506594D03*
X192405000Y-99806000D03*
X186912626Y-97486594D03*
X135382000Y-118006400D03*
X129913328Y-115686994D03*
X132713328Y-104706994D03*
X151712728Y-100397194D03*
X154405102Y-113696600D03*
X148912728Y-111377194D03*
X170712928Y-103707594D03*
X167912928Y-114687594D03*
X173482000Y-117007000D03*
X189712626Y-105506594D03*
X186912626Y-116486594D03*
X192405000Y-118806000D03*
X180053098Y-139234894D03*
X188976000Y-127000000D03*
X185599523Y-129353721D03*
X203898674Y-135271284D03*
X198263474Y-130411792D03*
X198352249Y-145152457D03*
X177212626Y-89046594D03*
X188393059Y-140206292D03*
X173849800Y-119903400D03*
X176012626Y-114286594D03*
X176012626Y-76286794D03*
X177212626Y-108046594D03*
X191167201Y-134489498D03*
X177212626Y-70046794D03*
X176012626Y-95286594D03*
M02*
