G04 #@! TF.GenerationSoftware,KiCad,Pcbnew,7.0.5-0*
G04 #@! TF.CreationDate,2023-06-11T17:15:19+08:00*
G04 #@! TF.ProjectId,AWKB,41574b42-2e6b-4696-9361-645f70636258,rev?*
G04 #@! TF.SameCoordinates,Original*
G04 #@! TF.FileFunction,Soldermask,Bot*
G04 #@! TF.FilePolarity,Negative*
%FSLAX46Y46*%
G04 Gerber Fmt 4.6, Leading zero omitted, Abs format (unit mm)*
G04 Created by KiCad (PCBNEW 7.0.5-0) date 2023-06-11 17:15:19*
%MOMM*%
%LPD*%
G01*
G04 APERTURE LIST*
G04 Aperture macros list*
%AMRoundRect*
0 Rectangle with rounded corners*
0 $1 Rounding radius*
0 $2 $3 $4 $5 $6 $7 $8 $9 X,Y pos of 4 corners*
0 Add a 4 corners polygon primitive as box body*
4,1,4,$2,$3,$4,$5,$6,$7,$8,$9,$2,$3,0*
0 Add four circle primitives for the rounded corners*
1,1,$1+$1,$2,$3*
1,1,$1+$1,$4,$5*
1,1,$1+$1,$6,$7*
1,1,$1+$1,$8,$9*
0 Add four rect primitives between the rounded corners*
20,1,$1+$1,$2,$3,$4,$5,0*
20,1,$1+$1,$4,$5,$6,$7,0*
20,1,$1+$1,$6,$7,$8,$9,0*
20,1,$1+$1,$8,$9,$2,$3,0*%
%AMHorizOval*
0 Thick line with rounded ends*
0 $1 width*
0 $2 $3 position (X,Y) of the first rounded end (center of the circle)*
0 $4 $5 position (X,Y) of the second rounded end (center of the circle)*
0 Add line between two ends*
20,1,$1,$2,$3,$4,$5,0*
0 Add two circle primitives to create the rounded ends*
1,1,$1,$2,$3*
1,1,$1,$4,$5*%
%AMFreePoly0*
4,1,22,0.686777,0.580194,0.756366,0.524698,0.794986,0.444504,0.799999,0.400000,0.800000,0.200000,0.780194,0.113223,0.741421,0.058579,0.141421,-0.541421,0.066056,-0.588777,-0.022393,-0.598742,-0.106406,-0.569345,-0.141421,-0.541421,-0.741421,0.058579,-0.788777,0.133944,-0.800000,0.200000,-0.800000,0.400000,-0.780194,0.486777,-0.724698,0.556366,-0.644504,0.594986,-0.600000,0.600000,
0.600000,0.600000,0.686777,0.580194,0.686777,0.580194,$1*%
%AMFreePoly1*
4,1,26,0.706406,1.169345,0.769345,1.106406,0.798742,1.022393,0.800000,1.000000,0.800000,-0.250000,0.780194,-0.336777,0.724698,-0.406366,0.644504,-0.444986,0.600000,-0.450000,-0.600000,-0.450000,-0.686777,-0.430194,-0.756366,-0.374698,-0.794986,-0.294504,-0.800000,-0.250000,-0.800001,1.000000,-0.780194,1.086777,-0.724698,1.156366,-0.644504,1.194985,-0.555496,1.194986,-0.475302,1.156366,
-0.458579,1.141421,0.000000,0.682842,0.458579,1.141421,0.533944,1.188777,0.622393,1.198742,0.706406,1.169345,0.706406,1.169345,$1*%
G04 Aperture macros list end*
%ADD10C,0.100000*%
%ADD11C,1.200000*%
%ADD12HorizOval,2.000000X0.051764X0.193185X-0.051764X-0.193185X0*%
%ADD13HorizOval,2.000000X-0.051764X-0.193185X0.051764X0.193185X0*%
%ADD14C,2.300000*%
%ADD15C,2.100000*%
%ADD16C,3.400000*%
%ADD17C,4.400000*%
%ADD18RoundRect,0.200000X1.000000X1.000000X-1.000000X1.000000X-1.000000X-1.000000X1.000000X-1.000000X0*%
%ADD19RoundRect,0.200000X0.950000X1.000000X-0.950000X1.000000X-0.950000X-1.000000X0.950000X-1.000000X0*%
%ADD20RoundRect,0.200000X-0.600000X-0.700000X0.600000X-0.700000X0.600000X0.700000X-0.600000X0.700000X0*%
%ADD21C,3.600000*%
%ADD22RoundRect,0.200000X1.224745X0.707107X-0.707107X1.224745X-1.224745X-0.707107X0.707107X-1.224745X0*%
%ADD23RoundRect,0.200000X1.176449X0.720048X-0.658810X1.211804X-1.176449X-0.720048X0.658810X-1.211804X0*%
%ADD24RoundRect,0.200000X0.909039X1.083350X-1.083350X0.909039X-0.909039X-1.083350X1.083350X-0.909039X0*%
%ADD25RoundRect,0.200000X0.859229X1.078993X-1.033541X0.913397X-0.859229X-1.078993X1.033541X-0.913397X0*%
%ADD26C,2.000000*%
%ADD27FreePoly0,185.000000*%
%ADD28FreePoly0,5.000000*%
%ADD29FreePoly1,185.000000*%
%ADD30FreePoly1,5.000000*%
%ADD31RoundRect,0.200000X-0.760729X-0.520857X0.398382X-0.831440X0.760729X0.520857X-0.398382X0.831440X0*%
%ADD32RoundRect,0.200000X-0.536708X-0.749630X0.658726X-0.645043X0.536708X0.749630X-0.658726X0.645043X0*%
%ADD33C,1.100000*%
G04 APERTURE END LIST*
D10*
X112369413Y-137759707D02*
X111357279Y-137848257D01*
X111268729Y-136836123D01*
X112280863Y-136747573D01*
X112369413Y-137759707D01*
G36*
X112369413Y-137759707D02*
G01*
X111357279Y-137848257D01*
X111268729Y-136836123D01*
X112280863Y-136747573D01*
X112369413Y-137759707D01*
G37*
X114899747Y-137538331D02*
X113887614Y-137626882D01*
X113799063Y-136614748D01*
X114811197Y-136526198D01*
X114899747Y-137538331D01*
G36*
X114899747Y-137538331D02*
G01*
X113887614Y-137626882D01*
X113799063Y-136614748D01*
X114811197Y-136526198D01*
X114899747Y-137538331D01*
G37*
X117430082Y-137316956D02*
X116417948Y-137405506D01*
X116329398Y-136393372D01*
X117341532Y-136304822D01*
X117430082Y-137316956D01*
G36*
X117430082Y-137316956D02*
G01*
X116417948Y-137405506D01*
X116329398Y-136393372D01*
X117341532Y-136304822D01*
X117430082Y-137316956D01*
G37*
X119960416Y-137095580D02*
X118948283Y-137184130D01*
X118859732Y-136171997D01*
X119871866Y-136083446D01*
X119960416Y-137095580D01*
G36*
X119960416Y-137095580D02*
G01*
X118948283Y-137184130D01*
X118859732Y-136171997D01*
X119871866Y-136083446D01*
X119960416Y-137095580D01*
G37*
X122490751Y-136874205D02*
X121478617Y-136962755D01*
X121390067Y-135950621D01*
X122402201Y-135862071D01*
X122490751Y-136874205D01*
G36*
X122490751Y-136874205D02*
G01*
X121478617Y-136962755D01*
X121390067Y-135950621D01*
X122402201Y-135862071D01*
X122490751Y-136874205D01*
G37*
X125021086Y-136652829D02*
X124008952Y-136741379D01*
X123920402Y-135729245D01*
X124932535Y-135640695D01*
X125021086Y-136652829D01*
G36*
X125021086Y-136652829D02*
G01*
X124008952Y-136741379D01*
X123920402Y-135729245D01*
X124932535Y-135640695D01*
X125021086Y-136652829D01*
G37*
X127551420Y-136431453D02*
X126539286Y-136520004D01*
X126450736Y-135507870D01*
X127462870Y-135419320D01*
X127551420Y-136431453D01*
G36*
X127551420Y-136431453D02*
G01*
X126539286Y-136520004D01*
X126450736Y-135507870D01*
X127462870Y-135419320D01*
X127551420Y-136431453D01*
G37*
X111377650Y-126423808D02*
X110365516Y-126512359D01*
X110276966Y-125500225D01*
X111289100Y-125411674D01*
X111377650Y-126423808D01*
G36*
X111377650Y-126423808D02*
G01*
X110365516Y-126512359D01*
X110276966Y-125500225D01*
X111289100Y-125411674D01*
X111377650Y-126423808D01*
G37*
X113907985Y-126202433D02*
X112895851Y-126290983D01*
X112807301Y-125278849D01*
X113819435Y-125190299D01*
X113907985Y-126202433D01*
G36*
X113907985Y-126202433D02*
G01*
X112895851Y-126290983D01*
X112807301Y-125278849D01*
X113819435Y-125190299D01*
X113907985Y-126202433D01*
G37*
X116438319Y-125981057D02*
X115426186Y-126069607D01*
X115337635Y-125057474D01*
X116349769Y-124968923D01*
X116438319Y-125981057D01*
G36*
X116438319Y-125981057D02*
G01*
X115426186Y-126069607D01*
X115337635Y-125057474D01*
X116349769Y-124968923D01*
X116438319Y-125981057D01*
G37*
X118968654Y-125759682D02*
X117956520Y-125848232D01*
X117867970Y-124836098D01*
X118880104Y-124747548D01*
X118968654Y-125759682D01*
G36*
X118968654Y-125759682D02*
G01*
X117956520Y-125848232D01*
X117867970Y-124836098D01*
X118880104Y-124747548D01*
X118968654Y-125759682D01*
G37*
X121498988Y-125538306D02*
X120486855Y-125626856D01*
X120398304Y-124614722D01*
X121410438Y-124526172D01*
X121498988Y-125538306D01*
G36*
X121498988Y-125538306D02*
G01*
X120486855Y-125626856D01*
X120398304Y-124614722D01*
X121410438Y-124526172D01*
X121498988Y-125538306D01*
G37*
X124029323Y-125316930D02*
X123017189Y-125405481D01*
X122928639Y-124393347D01*
X123940773Y-124304797D01*
X124029323Y-125316930D01*
G36*
X124029323Y-125316930D02*
G01*
X123017189Y-125405481D01*
X122928639Y-124393347D01*
X123940773Y-124304797D01*
X124029323Y-125316930D01*
G37*
X126559657Y-125095555D02*
X125547524Y-125184105D01*
X125458973Y-124171971D01*
X126471107Y-124083421D01*
X126559657Y-125095555D01*
G36*
X126559657Y-125095555D02*
G01*
X125547524Y-125184105D01*
X125458973Y-124171971D01*
X126471107Y-124083421D01*
X126559657Y-125095555D01*
G37*
D11*
X199392895Y-116091550D03*
X197581161Y-122853031D03*
D12*
X194911267Y-123814783D03*
D13*
X199388680Y-124993796D03*
D12*
X195946543Y-119951079D03*
D13*
X200423956Y-121130093D03*
D12*
X196723000Y-117053302D03*
D13*
X201200413Y-118232315D03*
X194660720Y-124865747D03*
D12*
X199069825Y-126067869D03*
D14*
X121613328Y-109786994D03*
D15*
X122033328Y-109786994D03*
D16*
X122113328Y-113486994D03*
X123303328Y-107246994D03*
X124573328Y-104706994D03*
D17*
X127113328Y-109786994D03*
D16*
X127113328Y-115686994D03*
X129653328Y-104706994D03*
X130923328Y-107246994D03*
X132113328Y-113486994D03*
D15*
X132193328Y-109786994D03*
D14*
X132613328Y-109786994D03*
D18*
X119013328Y-113486994D03*
X120213328Y-107246994D03*
D19*
X129913328Y-115686994D03*
D18*
X132713328Y-104706994D03*
D20*
X170082000Y-117007000D03*
X173482000Y-117007000D03*
D14*
X121613328Y-90787394D03*
D15*
X122033328Y-90787394D03*
D16*
X122113328Y-94487394D03*
X123303328Y-88247394D03*
X124573328Y-85707394D03*
D17*
X127113328Y-90787394D03*
D16*
X127113328Y-96687394D03*
X129653328Y-85707394D03*
X130923328Y-88247394D03*
X132113328Y-94487394D03*
D15*
X132193328Y-90787394D03*
D14*
X132613328Y-90787394D03*
D18*
X119013328Y-94487394D03*
X120213328Y-88247394D03*
D19*
X129913328Y-96687394D03*
D18*
X132713328Y-85707394D03*
D21*
X177571400Y-61595000D03*
D20*
X170082000Y-98006600D03*
X173482000Y-98006600D03*
D14*
X173562946Y-131387733D03*
D15*
X173968635Y-131496437D03*
D16*
X173088278Y-135091068D03*
X175852761Y-129371686D03*
X177736887Y-127246934D03*
D17*
X178875538Y-132811238D03*
D16*
X177348506Y-138510200D03*
X182643790Y-128561735D03*
X183213116Y-131343887D03*
X182747537Y-137679259D03*
D15*
X183782441Y-134126039D03*
D14*
X184188130Y-134234743D03*
D22*
X170093908Y-134288729D03*
X172868050Y-128571935D03*
D23*
X180053098Y-139234894D03*
D22*
X185599523Y-129353721D03*
D14*
X102613128Y-74149994D03*
D15*
X103033128Y-74149994D03*
D16*
X103113128Y-77849994D03*
X104303128Y-71609994D03*
X105573128Y-69069994D03*
D17*
X108113128Y-74149994D03*
D16*
X108113128Y-80049994D03*
X110653128Y-69069994D03*
X111923128Y-71609994D03*
X113113128Y-77849994D03*
D15*
X113193128Y-74149994D03*
D14*
X113613128Y-74149994D03*
D18*
X100013128Y-77849994D03*
X101213128Y-71609994D03*
D19*
X110913128Y-80049994D03*
D18*
X113713128Y-69069994D03*
D14*
X100684341Y-94064498D03*
D15*
X101102743Y-94027892D03*
D16*
X101504915Y-97706840D03*
X102146535Y-91386870D03*
X103190326Y-88745848D03*
D17*
X106163412Y-93585141D03*
D16*
X106677631Y-99462690D03*
X108250995Y-88303096D03*
X109737538Y-90722743D03*
X111466862Y-96835283D03*
D15*
X111224081Y-93142390D03*
D14*
X111642483Y-93105784D03*
D24*
X98416711Y-97977023D03*
X99068293Y-91656181D03*
D25*
X109466976Y-99218654D03*
D24*
X111299351Y-88036400D03*
D20*
X131982000Y-118006400D03*
X135382000Y-118006400D03*
X170082000Y-79006640D03*
X173482000Y-79006640D03*
D21*
X165620200Y-132943600D03*
D20*
X192405000Y-99806000D03*
X189005000Y-99806000D03*
X151005102Y-75696440D03*
X154405102Y-75696440D03*
X192405000Y-118806000D03*
X189005000Y-118806000D03*
D21*
X133895600Y-134799386D03*
D14*
X191862097Y-137305296D03*
D15*
X192267786Y-137414000D03*
D16*
X191387429Y-141008631D03*
X194151912Y-135289249D03*
X196036038Y-133164497D03*
D17*
X197174689Y-138728801D03*
D16*
X195647657Y-144427763D03*
X200942941Y-134479298D03*
X201512267Y-137261450D03*
X201046688Y-143596822D03*
D15*
X202081592Y-140043602D03*
D14*
X202487281Y-140152306D03*
D22*
X188393059Y-140206292D03*
X191167201Y-134489498D03*
D23*
X198352249Y-145152457D03*
D22*
X203898674Y-135271284D03*
D26*
X111981982Y-139160002D03*
X114512317Y-138938627D03*
X117042651Y-138717251D03*
X119572986Y-138495876D03*
X122103321Y-138274500D03*
X124633655Y-138053124D03*
X127163990Y-137831749D03*
D27*
X111841208Y-137550949D03*
X114371543Y-137329573D03*
X116901877Y-137108197D03*
X119432212Y-136886822D03*
X121962547Y-136665446D03*
X124492881Y-136444071D03*
X127023216Y-136222695D03*
D28*
X110805171Y-125708983D03*
X113335505Y-125487607D03*
X115865840Y-125266232D03*
X118396174Y-125044856D03*
X120926509Y-124823481D03*
X123456843Y-124602105D03*
X125987178Y-124380730D03*
D26*
X110665704Y-124114872D03*
X113196039Y-123893497D03*
X115726373Y-123672121D03*
X118256708Y-123450746D03*
X120787042Y-123229370D03*
X123317377Y-123007994D03*
X125847711Y-122786619D03*
D29*
X111752658Y-136538815D03*
X114282993Y-136317439D03*
X116813327Y-136096064D03*
X119343662Y-135874688D03*
X121873996Y-135653312D03*
X124404331Y-135431937D03*
X126934665Y-135210561D03*
D30*
X126075728Y-125392863D03*
X123545394Y-125614239D03*
X121015059Y-125835615D03*
X118484725Y-126056990D03*
X115954390Y-126278366D03*
X113424055Y-126499741D03*
X110893721Y-126721117D03*
D20*
X192405000Y-80806200D03*
X189005000Y-80806200D03*
D14*
X140612728Y-105477194D03*
D15*
X141032728Y-105477194D03*
D16*
X141112728Y-109177194D03*
X142302728Y-102937194D03*
X143572728Y-100397194D03*
D17*
X146112728Y-105477194D03*
D16*
X146112728Y-111377194D03*
X148652728Y-100397194D03*
X149922728Y-102937194D03*
X151112728Y-109177194D03*
D15*
X151192728Y-105477194D03*
D14*
X151612728Y-105477194D03*
D18*
X138012728Y-109177194D03*
X139212728Y-102937194D03*
D19*
X148912728Y-111377194D03*
D18*
X151712728Y-100397194D03*
D21*
X202958206Y-128782383D03*
D31*
X194979326Y-129531808D03*
X198263474Y-130411792D03*
D14*
X159612928Y-70787234D03*
D15*
X160032928Y-70787234D03*
D16*
X160112928Y-74487234D03*
X161302928Y-68247234D03*
X162572928Y-65707234D03*
D17*
X165112928Y-70787234D03*
D16*
X165112928Y-76687234D03*
X167652928Y-65707234D03*
X168922928Y-68247234D03*
X170112928Y-74487234D03*
D15*
X170192928Y-70787234D03*
D14*
X170612928Y-70787234D03*
D18*
X157012928Y-74487234D03*
X158212928Y-68247234D03*
D19*
X167912928Y-76687234D03*
D18*
X170712928Y-65707234D03*
D14*
X121613328Y-71787794D03*
D15*
X122033328Y-71787794D03*
D16*
X122113328Y-75487794D03*
X123303328Y-69247794D03*
X124573328Y-66707794D03*
D17*
X127113328Y-71787794D03*
D16*
X127113328Y-77687794D03*
X129653328Y-66707794D03*
X130923328Y-69247794D03*
X132113328Y-75487794D03*
D15*
X132193328Y-71787794D03*
D14*
X132613328Y-71787794D03*
D18*
X119013328Y-75487794D03*
X120213328Y-69247794D03*
D19*
X129913328Y-77687794D03*
D18*
X132713328Y-66707794D03*
X189712626Y-67506794D03*
D19*
X186912626Y-78486794D03*
D18*
X177212626Y-70046794D03*
X176012626Y-76286794D03*
D14*
X189612626Y-72586794D03*
D15*
X189192626Y-72586794D03*
D16*
X189112626Y-76286794D03*
X187922626Y-70046794D03*
X186652626Y-67506794D03*
X184112626Y-78486794D03*
D17*
X184112626Y-72586794D03*
D16*
X181572626Y-67506794D03*
X180302626Y-70046794D03*
X179112626Y-76286794D03*
D15*
X179032626Y-72586794D03*
D14*
X178612626Y-72586794D03*
D31*
X185691852Y-126120016D03*
X188976000Y-127000000D03*
D32*
X116886462Y-120050270D03*
X113499400Y-120346600D03*
D20*
X131982000Y-99006800D03*
X135382000Y-99006800D03*
D32*
X111839083Y-101369091D03*
X115226145Y-101072761D03*
D20*
X131982000Y-80007200D03*
X135382000Y-80007200D03*
D14*
X159612928Y-108787594D03*
D15*
X160032928Y-108787594D03*
D16*
X160112928Y-112487594D03*
X161302928Y-106247594D03*
X162572928Y-103707594D03*
D17*
X165112928Y-108787594D03*
D16*
X165112928Y-114687594D03*
X167652928Y-103707594D03*
X168922928Y-106247594D03*
X170112928Y-112487594D03*
D15*
X170192928Y-108787594D03*
D14*
X170612928Y-108787594D03*
D18*
X157012928Y-112487594D03*
X158212928Y-106247594D03*
D19*
X167912928Y-114687594D03*
D18*
X170712928Y-103707594D03*
D20*
X151005102Y-113696600D03*
X154405102Y-113696600D03*
X112932000Y-82369400D03*
X116332000Y-82369400D03*
D18*
X189712626Y-105506594D03*
D19*
X186912626Y-116486594D03*
D18*
X177212626Y-108046594D03*
X176012626Y-114286594D03*
D14*
X189612626Y-110586594D03*
D15*
X189192626Y-110586594D03*
D16*
X189112626Y-114286594D03*
X187922626Y-108046594D03*
X186652626Y-105506594D03*
X184112626Y-116486594D03*
D17*
X184112626Y-110586594D03*
D16*
X181572626Y-105506594D03*
X180302626Y-108046594D03*
X179112626Y-114286594D03*
D15*
X179032626Y-110586594D03*
D14*
X178612626Y-110586594D03*
X159612928Y-89787194D03*
D15*
X160032928Y-89787194D03*
D16*
X160112928Y-93487194D03*
X161302928Y-87247194D03*
X162572928Y-84707194D03*
D17*
X165112928Y-89787194D03*
D16*
X165112928Y-95687194D03*
X167652928Y-84707194D03*
X168922928Y-87247194D03*
X170112928Y-93487194D03*
D15*
X170192928Y-89787194D03*
D14*
X170612928Y-89787194D03*
D18*
X157012928Y-93487194D03*
X158212928Y-87247194D03*
D19*
X167912928Y-95687194D03*
D18*
X170712928Y-84707194D03*
D20*
X151005102Y-94696400D03*
X154405102Y-94696400D03*
D18*
X189712626Y-86506594D03*
D19*
X186912626Y-97486594D03*
D18*
X177212626Y-89046594D03*
X176012626Y-95286594D03*
D14*
X189612626Y-91586594D03*
D15*
X189192626Y-91586594D03*
D16*
X189112626Y-95286594D03*
X187922626Y-89046594D03*
X186652626Y-86506594D03*
X184112626Y-97486594D03*
D17*
X184112626Y-91586594D03*
D16*
X181572626Y-86506594D03*
X180302626Y-89046594D03*
X179112626Y-95286594D03*
D15*
X179032626Y-91586594D03*
D14*
X178612626Y-91586594D03*
X140612728Y-67477034D03*
D15*
X141032728Y-67477034D03*
D16*
X141112728Y-71177034D03*
X142302728Y-64937034D03*
X143572728Y-62397034D03*
D17*
X146112728Y-67477034D03*
D16*
X146112728Y-73377034D03*
X148652728Y-62397034D03*
X149922728Y-64937034D03*
X151112728Y-71177034D03*
D15*
X151192728Y-67477034D03*
D14*
X151612728Y-67477034D03*
D18*
X138012728Y-71177034D03*
X139212728Y-64937034D03*
D19*
X148912728Y-73377034D03*
D18*
X151712728Y-62397034D03*
D21*
X116014000Y-62839600D03*
D14*
X140612728Y-86476994D03*
D15*
X141032728Y-86476994D03*
D16*
X141112728Y-90176994D03*
X142302728Y-83936994D03*
X143572728Y-81396994D03*
D17*
X146112728Y-86476994D03*
D16*
X146112728Y-92376994D03*
X148652728Y-81396994D03*
X149922728Y-83936994D03*
X151112728Y-90176994D03*
D15*
X151192728Y-86476994D03*
D14*
X151612728Y-86476994D03*
D18*
X138012728Y-90176994D03*
X139212728Y-83936994D03*
D19*
X148912728Y-92376994D03*
D18*
X151712728Y-81396994D03*
D24*
X112955310Y-106964099D03*
D25*
X111122935Y-118146353D03*
D24*
X100724252Y-110583880D03*
X100072670Y-116904722D03*
D14*
X113298442Y-112033483D03*
D15*
X112880040Y-112070089D03*
D16*
X113122821Y-115762982D03*
X111393497Y-109650442D03*
X109906954Y-107230795D03*
X108333590Y-118390389D03*
D17*
X107819371Y-112512840D03*
D16*
X104846285Y-107673547D03*
X103802494Y-110314569D03*
X103160874Y-116634539D03*
D15*
X102758702Y-112955591D03*
D14*
X102340300Y-112992197D03*
D11*
X108419400Y-103835200D03*
D33*
X113499400Y-120346600D03*
X116886462Y-120050270D03*
X111122935Y-118146353D03*
X112955310Y-106964099D03*
X111839083Y-101369091D03*
X115226145Y-101072761D03*
X109466976Y-99218654D03*
X111299351Y-88036400D03*
X124404331Y-129438400D03*
X130389065Y-126668465D03*
X126934665Y-126668465D03*
X124404331Y-126796800D03*
X121873996Y-127000000D03*
X119343662Y-127251738D03*
D11*
X116813327Y-127519927D03*
X114282993Y-127791207D03*
X111752658Y-127933942D03*
D33*
X126075728Y-133988328D03*
X123557800Y-134213600D03*
X121068600Y-134467600D03*
X118477800Y-134670800D03*
X116013827Y-134874000D03*
X113483493Y-135077200D03*
X110953158Y-135483600D03*
X100072670Y-116904722D03*
X100724252Y-110583880D03*
X98416711Y-97977023D03*
X99068293Y-91656181D03*
D11*
X191985406Y-83732983D03*
D33*
X131982000Y-80007200D03*
X112932000Y-82369400D03*
X151005102Y-75696440D03*
X170082000Y-79006640D03*
X189005000Y-80806200D03*
X151005102Y-94696400D03*
X131982000Y-99006800D03*
X170082000Y-98006600D03*
X189005000Y-99806000D03*
X131982000Y-118006400D03*
X151005102Y-113696600D03*
X189005000Y-118806000D03*
X170082000Y-117007000D03*
X185691852Y-126120016D03*
X194979326Y-129531808D03*
X113713128Y-69069994D03*
X116332000Y-82369400D03*
X110913128Y-80049994D03*
X132713328Y-66707794D03*
X135382000Y-80007200D03*
X129913328Y-77687794D03*
X148912728Y-73377034D03*
X151712728Y-62397034D03*
X154405102Y-75696440D03*
X167912928Y-76687234D03*
X173482000Y-79006640D03*
X170712928Y-65707234D03*
X186912626Y-78486794D03*
X189712626Y-67506794D03*
X192405000Y-80806200D03*
D11*
X119202200Y-102692200D03*
X163880800Y-118414800D03*
X142087600Y-116916200D03*
X174015400Y-123799600D03*
X178384200Y-117612200D03*
D33*
X100013128Y-77849994D03*
X101213128Y-71609994D03*
X120213328Y-69247794D03*
X119013328Y-94487394D03*
X119013328Y-113486994D03*
X120213328Y-88247394D03*
X120213328Y-107246994D03*
X119013328Y-75487794D03*
X138012728Y-109177194D03*
X138012728Y-90176994D03*
X139212728Y-102937194D03*
X139212728Y-83936994D03*
X138012728Y-71177034D03*
X139212728Y-64937034D03*
X172868050Y-128571935D03*
X158212928Y-106247594D03*
X157012928Y-112487594D03*
X155917400Y-119228900D03*
X170093908Y-134288729D03*
X157012928Y-74487234D03*
X157012928Y-93487194D03*
X158212928Y-87247194D03*
X158212928Y-68247234D03*
X132713328Y-85707394D03*
X129913328Y-96687394D03*
X135382000Y-99006800D03*
X154405102Y-94696400D03*
X151712728Y-81396994D03*
X148912728Y-92376994D03*
X167912928Y-95687194D03*
X173482000Y-98006600D03*
X170712928Y-84707194D03*
X189712626Y-86506594D03*
X192405000Y-99806000D03*
X186912626Y-97486594D03*
X135382000Y-118006400D03*
X129913328Y-115686994D03*
X132713328Y-104706994D03*
X151712728Y-100397194D03*
X154405102Y-113696600D03*
X148912728Y-111377194D03*
X170712928Y-103707594D03*
X167912928Y-114687594D03*
X173482000Y-117007000D03*
X189712626Y-105506594D03*
X186912626Y-116486594D03*
X192405000Y-118806000D03*
X180053098Y-139234894D03*
X188976000Y-127000000D03*
X185599523Y-129353721D03*
X203898674Y-135271284D03*
X198263474Y-130411792D03*
X198352249Y-145152457D03*
X177212626Y-89046594D03*
X188393059Y-140206292D03*
X173849800Y-119903400D03*
X176012626Y-114286594D03*
X176012626Y-76286794D03*
X177212626Y-108046594D03*
X191167201Y-134489498D03*
X177212626Y-70046794D03*
X176012626Y-95286594D03*
M02*
